<svg xmlns="http://www.w3.org/2000/svg" viewBox="0 0 68 76" width="68" height="76" preserveAspectRatio="xMidYMid meet" style="width: 100%; height: 100%; transform: translate3d(0px, 0px, 0px); content-visibility: visible;"><defs><clipPath id="__lottie_element_619"><rect width="68" height="76" x="0" y="0"></rect></clipPath><mask id="__lottie_element_642" mask-type="alpha"><g transform="matrix(0.32922616600990295,-0.05214430019259453,0.05214430019259453,0.32922616600990295,3.243084669113159,-1.0615912675857544)" opacity="1" style="display: block;"><g opacity="1" transform="matrix(1,0,0,1,8.769000053405762,168.6490020751953)"><path fill="rgb(113,66,56)" fill-opacity="1" d=" M-3.8469998836517334,-20.454999923706055 C-8.994000434875488,-38.22700119018555 -28.086000442504883,-80.65299987792969 -55.277000427246094,-79.3010025024414 C-75.19400024414062,-78.31099700927734 -117.81199645996094,0.527999997138977 -103.99199676513672,36.814998626708984 C-94.60199737548828,61.47100067138672 -45.89699935913086,89.26699829101562 -27.268999099731445,86.59100341796875 C-15.557000160217285,84.90799713134766 5.644999980926514,33.86800003051758 3.8459999561309814,20.454999923706055 C6.1519999504089355,20.150999069213867 6.261000156402588,10.519000053405762 4.136000156402588,-0.777999997138977 C2.01200008392334,-12.074999809265137 -1.5700000524520874,-20.922000885009766 -3.8469998836517334,-20.454999923706055z"></path></g></g></mask></defs><g clip-path="url(#__lottie_element_619)"><g transform="matrix(0.3333300054073334,0,0,0.3333300054073334,0.7829981446266174,50.71154022216797)" opacity="1" style="display: block;"><g opacity="1" transform="matrix(1,0,0,1,22.988000869750977,24.326000213623047)"><path fill="rgb(0,150,215)" fill-opacity="1" d=" M-5.874000072479248,23.30299949645996 C-8.428999900817871,22.47599983215332 -12.324999809265137,19.882999420166016 -9.711999893188477,11.805999755859375 C-9.291999816894531,10.51099967956543 -8.553999900817871,8.694000244140625 -7.570000171661377,6.809999942779541 C-9.664999961853027,7.164999961853027 -11.621999740600586,7.308000087738037 -12.982999801635742,7.308000087738037 C-21.472000122070312,7.308000087738037 -22.73900032043457,2.802999973297119 -22.73900032043457,0.11699999868869781 C-22.73900032043457,-2.568000078201294 -21.472000122070312,-7.072999954223633 -12.982999801635742,-7.072999954223633 C-11.623000144958496,-7.072999954223633 -9.666000366210938,-6.929999828338623 -7.572999954223633,-6.576000213623047 C-8.633999824523926,-8.618000030517578 -9.390000343322754,-10.524999618530273 -9.72599983215332,-11.557000160217285 C-12.35200023651123,-19.628999710083008 -8.458999633789062,-22.22800064086914 -5.90500020980835,-23.058000564575195 C-3.3519999980926514,-23.88800048828125 1.3250000476837158,-24.076000213623047 3.950000047683716,-16.0049991607666 C4.369999885559082,-14.713000297546387 4.839000225067139,-12.8149995803833 5.1479997634887695,-10.718999862670898 C6.630000114440918,-12.232999801635742 8.123000144958496,-13.494999885559082 9.220999717712402,-14.293999671936035 C16.084999084472656,-19.28700065612793 19.761999130249023,-16.388999938964844 21.340999603271484,-14.217000007629395 C22.02899932861328,-13.270999908447266 22.725000381469727,-11.904999732971191 22.725000381469727,-10.25100040435791 C22.725000381469727,-8.107999801635742 21.55500030517578,-5.48199987411499 17.68000030517578,-2.6630001068115234 C16.582000732421875,-1.8650000095367432 14.92199993133545,-0.8330000042915344 13.024999618530273,0.10999999940395355 C14.923999786376953,1.0509999990463257 16.584999084472656,2.0810000896453857 17.68400001525879,2.878000020980835 C21.566999435424805,5.695000171661377 22.73900032043457,8.321999549865723 22.73900032043457,10.465999603271484 C22.738000869750977,12.116000175476074 22.045000076293945,13.482000350952148 21.358999252319336,14.427000045776367 C19.783000946044922,16.60099983215332 16.111000061035156,19.503000259399414 9.239999771118164,14.519000053405762 C8.142000198364258,13.722000122070312 6.645999908447266,12.461999893188477 5.1620001792907715,10.949000358581543 C4.854000091552734,13.045999526977539 4.388999938964844,14.944999694824219 3.9709999561309814,16.23699951171875 C3.114000082015991,18.881000518798828 1.9509999752044678,20.854999542236328 0.5139999985694885,22.106000900268555 C-1.2760000228881836,23.663000106811523 -3.4839999675750732,24.076000213623047 -5.874000072479248,23.30299949645996z"></path></g></g><g transform="matrix(0.3333300054073334,0,0,0.3333300054073334,10.964592933654785,-3.4346628189086914)" opacity="1" style="display: block;"><g opacity="1" transform="matrix(1,0,0,1,47.516998291015625,130.5959930419922)"><path stroke-linecap="round" stroke-linejoin="round" fill-opacity="0" stroke="rgb(195,121,81)" stroke-opacity="1" stroke-width="12" d=" M10.142000198364258,-44.529998779296875 C13.83899974822998,-13.401000022888184 5.915999889373779,20.190000534057617 -13.83899974822998,44.529998779296875"></path></g></g><g transform="matrix(0.3333300054073334,0,0,0.3333300054073334,11.595555305480957,-4.27191162109375)" opacity="1" style="display: block;"><g opacity="1" transform="matrix(1,0,0,1,72.80500030517578,93.37200164794922)"><path stroke-linecap="round" stroke-linejoin="round" fill-opacity="0" stroke="rgb(245,138,70)" stroke-opacity="1" stroke-width="12" d=" M-31.79199981689453,-62.8380012512207 C-26.391000747680664,-46.854000091552734 -19.22800064086914,-12.187000274658203 -15.982999801635742,-7.138000011444092 C-12.982999801635742,-2.4709999561309814 24.49799919128418,37.215999603271484 27.69099998474121,63.37200164794922"></path></g></g><g transform="matrix(0.34332990646362305,0,0,0.3233301043510437,10.40708065032959,-1.880079746246338)" opacity="1" style="display: block;"><g opacity="1" transform="matrix(1,0,0,1,118.7509994506836,188.2480010986328)"><path fill="rgb(255,201,77)" fill-opacity="1" d=" M-19.024999618530273,48.888999938964844 C-20.474000930786133,49.30099868774414 -21.94499969482422,49.63999938964844 -23.429000854492188,49.89699935913086 C-29.082000732421875,50.875 -35.42300033569336,50.79899978637695 -40.516998291015625,47.84600067138672 C-42.948001861572266,46.435001373291016 -44.92499923706055,44.380001068115234 -46.244998931884766,41.89799880981445 C-46.69200134277344,41.055999755859375 -47.698001861572266,39.08300018310547 -47.132999420166016,38.137001037597656 C-46.60200119018555,37.249000549316406 -44.78099822998047,37.393001556396484 -43.9109992980957,37.21200180053711 C-42.112998962402344,36.83700180053711 -40.43000030517578,36.042999267578125 -38.994998931884766,34.89799880981445 C-36.10200119018555,32.590999603271484 -34.362998962402344,29.10700035095215 -33.375999450683594,25.60700035095215 C-30.410999298095703,15.08899974822998 -37.099998474121094,5.098999977111816 -37.76499938964844,-5.311999797821045 C-38.356998443603516,-14.581999778747559 -33.50699996948242,-21.551000595092773 -26.93600082397461,-27.513999938964844 C-22.51099967956543,-31.52899932861328 -25.479999542236328,-35.19499969482422 -28.606000900268555,-39.176998138427734 C-29.68199920654297,-40.54899978637695 -30.815000534057617,-41.619998931884766 -31.819000244140625,-42.428001403808594 C-32.91400146484375,-43.310001373291016 -32.52000045776367,-45.066001892089844 -31.160999298095703,-45.42300033569336 C-25.599000930786133,-46.88199996948242 -15.194000244140625,-49.551998138427734 -9.479000091552734,-50.6349983215332 C-8.213000297546387,-50.875 -7.132999897003174,-49.70500183105469 -7.494999885559082,-48.46799850463867 C-8.963000297546387,-43.44599914550781 -10.343000411987305,-36.33399963378906 -9.692000389099121,-34.72800064086914 C-8.72700023651123,-32.34700012207031 -5.934999942779541,-32.08399963378906 -3.865000009536743,-31.08799934387207 C12.675999641418457,-23.128000259399414 10.729999542236328,-4.85099983215332 18.277000427246094,9.090999603271484 C21.469999313354492,14.991999626159668 26.399999618530273,20.13599967956543 32.63999938964844,22.604999542236328 C34.57699966430664,23.371000289916992 40.823001861572266,25.04400062561035 45.400001525878906,25.107999801635742 C46.9900016784668,25.1299991607666 47.698001861572266,27.086999893188477 46.53499984741211,28.17099952697754 C42.82500076293945,31.631000518798828 33.01100158691406,34.44499969482422 33.01100158691406,34.44499969482422 C33.01100158691406,34.44499969482422 33.93199920654297,35.66400146484375 36.46500015258789,36.73400115966797 C37.4630012512207,37.154998779296875 37.51599884033203,38.53900146484375 36.551998138427734,39.034000396728516 C28.621000289916992,43.10200119018555 10.687999725341797,48.59000015258789 -3.2960000038146973,40.393001556396484 C-6.857999801635742,43.92599868774414 -12.70300006866455,47.09199905395508 -19.024999618530273,48.888999938964844z"></path></g><g opacity="1" transform="matrix(1,0,0,1,101.9010009765625,155.22999572753906)"><path stroke-linecap="round" stroke-linejoin="round" fill-opacity="0" stroke="rgb(113,66,56)" stroke-opacity="1" stroke-width="5" d=" M9.027000427246094,-2.196000099182129 C4.514999866485596,0.5979999899864197 -4.400000095367432,2.196000099182129 -9.027000427246094,1.4930000305175781"></path></g></g><g transform="matrix(0.3333300054073334,0,0,0.3333300054073334,10.78230094909668,-4.250178337097168)" opacity="1" style="display: block;"><g opacity="1" transform="matrix(1,0,0,1,71.50700378417969,117.3290023803711)"><path stroke-linecap="round" stroke-linejoin="round" fill-opacity="0" stroke="rgb(245,138,70)" stroke-opacity="1" stroke-width="12" d=" M-12.96500015258789,-30.139999389648438 C-12.96500015258789,-30.139999389648438 13.619000434875488,-14.163999557495117 19.5939998626709,2.5920000076293945 C23.906999588012695,14.687999725341797 -14.156000137329102,24.857999801635742 -37.849998474121094,30.139999389648438"></path></g></g><g transform="matrix(0.332604318857193,-0.02198328822851181,0.02198328822851181,0.332604318857193,8.082162857055664,-2.894420623779297)" opacity="1" style="display: block;"><g opacity="1" transform="matrix(1,0,0,1,28.520000457763672,183.2270050048828)"><path fill="rgb(235,230,204)" fill-opacity="1" d=" M3.059000015258789,-13.086999893188477 C-2.196000099182129,-14.39900016784668 -6.703000068664551,-15.425999641418457 -11.949999809265137,-12.942000389099121 C-14.064000129699707,-11.940999984741211 -14.986000061035156,-10.435999870300293 -13.243000030517578,-8.291999816894531 C-12.381999969482422,-7.234000205993652 -9.935999870300293,-5.934000015258789 -9.935999870300293,-5.934000015258789 C-16.993999481201172,2.178999900817871 -11.6899995803833,8.496999740600586 -7.5329999923706055,11.116999626159668 C-0.6919999718666077,15.425999641418457 10.338000297546387,12.946999549865723 14.788000106811523,6.5370001792907715 C16.538000106811523,4.014999866485596 16.993999481201172,0.48100000619888306 15.418999671936035,-2.1549999713897705 C13.937000274658203,-4.63700008392334 11.07800006866455,-5.881999969482422 8.39799976348877,-6.966000080108643 C8.39799976348877,-6.966000080108643 3.059000015258789,-13.086999893188477 3.059000015258789,-13.086999893188477z"></path></g><g opacity="1" transform="matrix(1,0,0,1,36.0880012512207,172.13600158691406)"><path fill="rgb(235,230,204)" fill-opacity="1" d=" M6.39900016784668,8.640000343322754 C5.624000072479248,8.640000343322754 4.839000225067139,8.413999557495117 4.150000095367432,7.945000171661377 C4.150000095367432,7.945000171661377 -8.656000137329102,-0.7850000262260437 -8.656000137329102,-0.7850000262260437 C-10.480999946594238,-2.0290000438690186 -10.95300006866455,-4.51800012588501 -9.706999778747559,-6.3429999351501465 C-8.463000297546387,-8.168999671936035 -5.9770002365112305,-8.640000343322754 -4.150000095367432,-7.394999980926514 C-4.150000095367432,-7.394999980926514 8.656000137329102,1.3339999914169312 8.656000137329102,1.3339999914169312 C10.480999946594238,2.5789999961853027 10.95199966430664,5.066999912261963 9.706999778747559,6.892000198364258 C8.932000160217285,8.029000282287598 7.677000045776367,8.640000343322754 6.39900016784668,8.640000343322754z"></path></g><g opacity="1" transform="matrix(1,0,0,1,28.367000579833984,168.09800720214844)"><path fill="rgb(195,121,81)" fill-opacity="1" d=" M16.62700080871582,-25.80299949645996 C16.62700080871582,-25.80299949645996 23.725000381469727,11.946999549865723 23.725000381469727,11.946999549865723 C23.725000381469727,11.946999549865723 -14.182999610900879,25.80299949645996 -14.182999610900879,25.80299949645996 C-14.182999610900879,25.80299949645996 -23.725000381469727,-24.941999435424805 -23.725000381469727,-24.941999435424805 C-23.725000381469727,-24.941999435424805 16.62700080871582,-25.80299949645996 16.62700080871582,-25.80299949645996z"></path></g><g opacity="1" transform="matrix(1,0,0,1,9.413000106811523,168.5290069580078)"><path fill="rgb(195,121,81)" fill-opacity="1" d=" M-4.770999908447266,-25.37299919128418 C-8.37600040435791,-24.69499969482422 -9.163000106811523,-12.78600025177002 -6.5279998779296875,1.2269999980926514 C-3.8919999599456787,15.239999771118164 1.1660000085830688,26.049999237060547 4.770999908447266,25.371999740600586 C8.37600040435791,24.694000244140625 9.163000106811523,12.78499984741211 6.5279998779296875,-1.2280000448226929 C3.8929998874664307,-15.241000175476074 -1.1660000085830688,-26.051000595092773 -4.770999908447266,-25.37299919128418z"></path></g><g opacity="1" transform="matrix(1,0,0,1,9.40999984741211,168.52699279785156)"><path fill="rgb(197,197,197)" fill-opacity="1" d=" M-4.76800012588501,-25.371000289916992 C-8.373000144958496,-24.69300079345703 -9.15999984741211,-12.784000396728516 -6.525000095367432,1.2289999723434448 C-3.8889999389648438,15.241999626159668 1.1690000295639038,26.052000045776367 4.77400016784668,25.374000549316406 C8.378999710083008,24.695999145507812 9.166000366210938,12.786999702453613 6.531000137329102,-1.2259999513626099 C3.8959999084472656,-15.23900032043457 -1.1629999876022339,-26.048999786376953 -4.76800012588501,-25.371000289916992z"></path></g><g opacity="1" transform="matrix(1,0,0,1,8.769000053405762,168.6490020751953)"><path fill="rgb(113,66,56)" fill-opacity="1" d=" M-3.8469998836517334,-20.454999923706055 C-6.13100004196167,-20.024999618530273 -6.261000156402588,-10.517999649047852 -4.13700008392334,0.7789999842643738 C-2.013000011444092,12.076000213623047 1.5609999895095825,20.884000778198242 3.8459999561309814,20.454999923706055 C6.131999969482422,20.024999618530273 6.261000156402588,10.519000053405762 4.136000156402588,-0.777999997138977 C2.01200008392334,-12.074999809265137 -1.562000036239624,-20.885000228881836 -3.8469998836517334,-20.454999923706055z"></path></g><g opacity="1" transform="matrix(1,0,0,1,48.54199981689453,161.17100524902344)"><path fill="rgb(195,121,81)" fill-opacity="1" d=" M-3.5490000247955322,-18.875999450683594 C-6.23199987411499,-18.371999740600586 -6.816999912261963,-9.51200008392334 -4.855999946594238,0.9129999876022339 C-2.8959999084472656,11.336999893188477 0.8679999709129333,19.378999710083008 3.549999952316284,18.874000549316406 C6.230999946594238,18.3700008392334 6.816999912261963,9.51200008392334 4.855999946594238,-0.9129999876022339 C2.8959999084472656,-11.336999893188477 -0.8669999837875366,-19.3799991607666 -3.5490000247955322,-18.875999450683594z"></path></g><g opacity="1" transform="matrix(1,0,0,1,24.327999114990234,166.71800231933594)"><path fill="rgb(0,150,215)" fill-opacity="1" d=" M-1.4950000047683716,24.02199935913086 C-1.4950000047683716,24.02199935913086 10.083000183105469,19.790000915527344 10.083000183105469,19.790000915527344 C10.479999542236328,13.411999702453613 9.869000434875488,5.48799991607666 8.354999542236328,-2.565999984741211 C6.839000225067139,-10.62399959564209 4.5289998054504395,-18.22800064086914 1.8450000286102295,-24.02199935913086 C1.8450000286102295,-24.02199935913086 -10.479999542236328,-23.759000778198242 -10.479999542236328,-23.759000778198242 C-9.677000045776367,-22.54599952697754 -8.901000022888184,-21.15999984741211 -8.16100025177002,-19.577999114990234 C-5.815999984741211,-14.567000389099121 -3.7730000019073486,-7.807000160217285 -2.4070000648498535,-0.5410000085830688 C-1.0410000085830688,6.7230000495910645 -0.49000000953674316,13.763999938964844 -0.8539999723434448,19.284000396728516 C-0.9700000286102295,21.027000427246094 -1.1859999895095825,22.600000381469727 -1.4950000047683716,24.02199935913086z"></path></g><g opacity="1" transform="matrix(1,0,0,1,32.387001037597656,150.31500244140625)"><path fill="rgb(235,230,204)" fill-opacity="1" d=" M6.321000099182129,-9.104000091552734 C1.6180000305175781,-12.678999900817871 -2.4560000896453857,-15.64799976348877 -8.782999992370605,-15.414999961853027 C-11.333000183105469,-15.321000099182129 -12.902999877929688,-14.208999633789062 -12.079000473022461,-11.310999870300293 C-11.67199993133545,-9.880000114440918 -9.779999732971191,-7.52400016784668 -9.779999732971191,-7.52400016784668 C-20.343000411987305,-2.430000066757202 -17.746000289916992,6.184999942779541 -14.704999923706055,10.598999977111816 C-9.70300006866455,17.860000610351562 2.4189999103546143,20.121000289916992 9.63599967956543,15.609999656677246 C12.47599983215332,13.833999633789062 14.451000213623047,10.489999771118164 14.006999969482422,7.170000076293945 C13.58899974822998,4.045000076293945 11.258999824523926,1.5670000314712524 9.038999557495117,-0.671999990940094 C9.038999557495117,-0.671999990940094 6.321000099182129,-9.104000091552734 6.321000099182129,-9.104000091552734z"></path></g><g opacity="1" transform="matrix(1,0,0,1,44.13199996948242,143.5019989013672)"><path fill="rgb(235,230,204)" fill-opacity="1" d=" M3.753000020980835,12.777999877929688 C2.311000108718872,12.777999877929688 0.8999999761581421,12.064000129699707 0.06800000369548798,10.758000373840332 C0.06800000369548798,10.758000373840332 -9.008999824523926,-3.499000072479248 -9.008999824523926,-3.499000072479248 C-10.303999900817871,-5.5320000648498535 -9.706000328063965,-8.229999542236328 -7.672999858856201,-9.52299976348877 C-5.638000011444092,-10.817000389099121 -2.944000005722046,-10.218000411987305 -1.649999976158142,-8.185999870300293 C-1.649999976158142,-8.185999870300293 7.427999973297119,6.071000099182129 7.427999973297119,6.071000099182129 C8.722999572753906,8.104000091552734 8.12399959564209,10.800000190734863 6.0920000076293945,12.095000267028809 C5.366000175476074,12.557000160217285 4.552999973297119,12.777999877929688 3.753000020980835,12.777999877929688z"></path></g></g><g mask="url(#__lottie_element_642)" style="display: block;"><g transform="matrix(0.33294346928596497,-0.016047829762101173,0.016047829762101173,0.33294346928596497,0.3765309751033783,50.857818603515625)" opacity="1"><g opacity="1" transform="matrix(1,0,0,1,22.988000869750977,24.326000213623047)"><path fill="rgb(0,150,215)" fill-opacity="1" d=" M-5.874000072479248,23.30299949645996 C-8.428999900817871,22.47599983215332 -12.324999809265137,19.882999420166016 -9.711999893188477,11.805999755859375 C-9.291999816894531,10.51099967956543 -8.553999900817871,8.694000244140625 -7.570000171661377,6.809999942779541 C-9.664999961853027,7.164999961853027 -11.621999740600586,7.308000087738037 -12.982999801635742,7.308000087738037 C-21.472000122070312,7.308000087738037 -22.73900032043457,2.802999973297119 -22.73900032043457,0.11699999868869781 C-22.73900032043457,-2.568000078201294 -21.472000122070312,-7.072999954223633 -12.982999801635742,-7.072999954223633 C-11.623000144958496,-7.072999954223633 -9.666000366210938,-6.929999828338623 -7.572999954223633,-6.576000213623047 C-8.633999824523926,-8.618000030517578 -9.390000343322754,-10.524999618530273 -9.72599983215332,-11.557000160217285 C-12.35200023651123,-19.628999710083008 -8.458999633789062,-22.22800064086914 -5.90500020980835,-23.058000564575195 C-3.3519999980926514,-23.88800048828125 1.3250000476837158,-24.076000213623047 3.950000047683716,-16.0049991607666 C4.369999885559082,-14.713000297546387 4.839000225067139,-12.8149995803833 5.1479997634887695,-10.718999862670898 C6.630000114440918,-12.232999801635742 8.123000144958496,-13.494999885559082 9.220999717712402,-14.293999671936035 C16.084999084472656,-19.28700065612793 19.761999130249023,-16.388999938964844 21.340999603271484,-14.217000007629395 C22.02899932861328,-13.270999908447266 22.725000381469727,-11.904999732971191 22.725000381469727,-10.25100040435791 C22.725000381469727,-8.107999801635742 21.55500030517578,-5.48199987411499 17.68000030517578,-2.6630001068115234 C16.582000732421875,-1.8650000095367432 14.92199993133545,-0.8330000042915344 13.024999618530273,0.10999999940395355 C14.923999786376953,1.0509999990463257 16.584999084472656,2.0810000896453857 17.68400001525879,2.878000020980835 C21.566999435424805,5.695000171661377 22.73900032043457,8.321999549865723 22.73900032043457,10.465999603271484 C22.738000869750977,12.116000175476074 22.045000076293945,13.482000350952148 21.358999252319336,14.427000045776367 C19.783000946044922,16.60099983215332 16.111000061035156,19.503000259399414 9.239999771118164,14.519000053405762 C8.142000198364258,13.722000122070312 6.645999908447266,12.461999893188477 5.1620001792907715,10.949000358581543 C4.854000091552734,13.045999526977539 4.388999938964844,14.944999694824219 3.9709999561309814,16.23699951171875 C3.114000082015991,18.881000518798828 1.9509999752044678,20.854999542236328 0.5139999985694885,22.106000900268555 C-1.2760000228881836,23.663000106811523 -3.4839999675750732,24.076000213623047 -5.874000072479248,23.30299949645996z"></path></g></g></g></g></svg>