<?xml version="1.0" encoding="UTF-8" standalone="no"?>
<!DOCTYPE svg PUBLIC "-//W3C//DTD SVG 1.1//EN" "http://www.w3.org/Graphics/SVG/1.1/DTD/svg11.dtd">
<svg width="100%" height="100%" viewBox="0 0 10 32" version="1.1" xmlns="http://www.w3.org/2000/svg" xmlns:xlink="http://www.w3.org/1999/xlink" xml:space="preserve" xmlns:serif="http://www.serif.com/" style="fill-rule:evenodd;clip-rule:evenodd;stroke-linejoin:round;stroke-miterlimit:2;">
    <g>
        <g transform="matrix(0.258,0,0,0.258,5.01987,16.0261)">
            <g>
                <path d="M18.257,55.815L18.257,-53.865C18.257,-57.747 15.109,-60.892 11.227,-60.892L-0.006,-60.892L-18.257,-55.817L-7.024,-55.817C-3.142,-55.817 0.005,-52.669 0.005,-48.788L0.005,60.892L18.257,55.815Z" style="fill:rgb(135,211,235);fill-rule:nonzero;"/>
            </g>
        </g>
        <g transform="matrix(-0.484875,0.24175,0.24175,0.484875,32.0951,-46.1)">
            <g>
                <g transform="matrix(1,0,0,1,79.498,57.305)">
                    <path d="M6.402,2.905C6.773,3.71 6.042,4.144 4.644,4.144C3.033,4.144 1.954,3.717 1.565,2.835C1.918,3.664 0.984,4.179 -0.414,4.179C-2.025,4.179 -3.057,3.741 -3.493,2.87L-5.557,-1.252C-5.167,-0.37 -4.089,0.057 -2.477,0.057C-1.079,0.057 -0.145,-0.458 -0.499,-1.287C-0.109,-0.406 0.97,0.021 2.582,0.021C3.98,0.021 4.729,-0.405 4.346,-1.219L6.402,2.905Z" style="fill:rgb(184,228,250);fill-rule:nonzero;"/>
                </g>
                <g transform="matrix(1,0,0,1,85.461,69.2)">
                    <path d="M7.524,5.22C7.895,6.025 7.058,6.511 5.66,6.511C4.049,6.511 2.97,6.084 2.581,5.202C2.934,6.031 2,6.546 0.602,6.546C-1.009,6.546 -2.041,6.108 -2.477,5.237L-4.54,1.115C-4.15,1.997 -3.072,2.424 -1.46,2.424C-0.062,2.424 0.872,1.909 0.518,1.08C0.908,1.961 1.986,2.389 3.598,2.389C4.996,2.389 5.85,1.909 5.467,1.095L7.524,5.22Z" style="fill:rgb(184,228,250);fill-rule:nonzero;"/>
                </g>
            </g>
        </g>
        <g transform="matrix(-0.484875,0.24175,0.24175,0.484875,32.0346,-28.6474)">
            <g>
                <g transform="matrix(1,0,0,1,73.534,45.41)">
                    <path d="M5.114,0.3C5.485,1.105 4.542,1.644 3.144,1.644C1.533,1.644 0.454,1.217 0.065,0.335C0.418,1.164 -0.516,1.679 -1.914,1.679C-3.525,1.679 -4.557,1.241 -4.993,0.37L-7.057,-3.752C-6.667,-2.87 -5.589,-2.443 -3.977,-2.443C-2.579,-2.443 -1.645,-2.958 -1.999,-3.787C-1.609,-2.906 -0.53,-2.479 1.082,-2.479C2.48,-2.479 3.435,-3.008 3.052,-3.822L5.114,0.3Z" style="fill:rgb(184,228,250);fill-rule:nonzero;"/>
                </g>
                <g transform="matrix(1,0,0,1,79.498,57.305)">
                    <path d="M6.302,2.955C6.673,3.76 6.042,4.144 4.644,4.144C3.033,4.144 1.954,3.717 1.565,2.835C1.918,3.664 0.984,4.179 -0.414,4.179C-2.025,4.179 -3.057,3.741 -3.493,2.87L-5.557,-1.252C-5.167,-0.37 -4.089,0.057 -2.477,0.057C-1.079,0.057 -0.145,-0.458 -0.499,-1.287C-0.109,-0.406 0.97,0.021 2.582,0.021C3.98,0.021 4.629,-0.355 4.246,-1.169L6.302,2.955Z" style="fill:rgb(184,228,250);fill-rule:nonzero;"/>
                </g>
                <g transform="matrix(1,0,0,1,85.461,69.2)">
                    <path d="M7.424,5.27C7.795,6.075 7.058,6.511 5.66,6.511C4.049,6.511 2.97,6.084 2.581,5.202C2.934,6.031 2,6.546 0.602,6.546C-1.009,6.546 -2.041,6.108 -2.477,5.237L-4.54,1.115C-4.15,1.997 -3.072,2.424 -1.46,2.424C-0.062,2.424 0.872,1.909 0.518,1.08C0.908,1.961 1.986,2.389 3.598,2.389C4.996,2.389 5.75,1.959 5.367,1.145L7.424,5.27Z" style="fill:rgb(184,228,250);fill-rule:nonzero;"/>
                </g>
            </g>
        </g>
    </g>
</svg>
