<svg xmlns="http://www.w3.org/2000/svg" viewBox="0 0 31 56" width="31" height="56" preserveAspectRatio="xMidYMid meet" style="width: 100%; height: 100%; transform: translate3d(0px, 0px, 0px); content-visibility: visible;"><defs><clipPath id="__lottie_element_2799"><rect width="31" height="56" x="0" y="0"></rect></clipPath></defs><g clip-path="url(#__lottie_element_2799)"><g transform="matrix(0.3330000042915344,0,0,0.3330000042915344,0.6711342334747314,16.640499114990234)" opacity="1" style="display: block;"><g opacity="1" transform="matrix(1,0,0,1,42.2760009765625,64.1510009765625)"><path fill="rgb(119,118,125)" fill-opacity="1" d=" M39.17499923706055,0.0020000000949949026 C39.17499923706055,-2.5220000743865967 21.63599967956543,-4.568999767303467 0.0010000000474974513,-4.568999767303467 C-21.634000778198242,-4.568999767303467 -39.172000885009766,-2.5220000743865967 -39.172000885009766,0.0020000000949949026 C-39.172000885009766,2.5269999504089355 -21.634000778198242,4.572999954223633 0.0010000000474974513,4.572999954223633 C21.63599967956543,4.572999954223633 39.17499923706055,2.5269999504089355 39.17499923706055,0.0020000000949949026z"></path></g><g opacity="1" transform="matrix(1,0,0,1,12.793000221252441,54.48500061035156)"><path fill="rgb(77,67,95)" fill-opacity="1" d=" M4.815999984741211,9.484999656677246 C4.815999984741211,9.484999656677246 -4.815999984741211,9.484999656677246 -4.815999984741211,9.484999656677246 C-6.0960001945495605,9.484999656677246 -7.133999824523926,8.446999549865723 -7.133999824523926,7.166999816894531 C-7.133999824523926,7.166999816894531 -7.133999824523926,-7.165999889373779 -7.133999824523926,-7.165999889373779 C-7.133999824523926,-8.446999549865723 -6.0960001945495605,-9.484999656677246 -4.815999984741211,-9.484999656677246 C-4.815999984741211,-9.484999656677246 4.815999984741211,-9.484999656677246 4.815999984741211,-9.484999656677246 C6.0960001945495605,-9.484999656677246 7.133999824523926,-8.446999549865723 7.133999824523926,-7.165999889373779 C7.133999824523926,-7.165999889373779 7.133999824523926,7.166999816894531 7.133999824523926,7.166999816894531 C7.133999824523926,8.446999549865723 6.0960001945495605,9.484999656677246 4.815999984741211,9.484999656677246z"></path></g><g opacity="1" transform="matrix(1,0,0,1,71.76200103759766,54.48500061035156)"><path fill="rgb(77,67,95)" fill-opacity="1" d=" M4.815999984741211,9.484999656677246 C4.815999984741211,9.484999656677246 -4.816999912261963,9.484999656677246 -4.816999912261963,9.484999656677246 C-6.0970001220703125,9.484999656677246 -7.133999824523926,8.446999549865723 -7.133999824523926,7.166999816894531 C-7.133999824523926,7.166999816894531 -7.133999824523926,-7.165999889373779 -7.133999824523926,-7.165999889373779 C-7.133999824523926,-8.446999549865723 -6.0970001220703125,-9.484999656677246 -4.816999912261963,-9.484999656677246 C-4.816999912261963,-9.484999656677246 4.815999984741211,-9.484999656677246 4.815999984741211,-9.484999656677246 C6.0960001945495605,-9.484999656677246 7.133999824523926,-8.446999549865723 7.133999824523926,-7.165999889373779 C7.133999824523926,-7.165999889373779 7.133999824523926,7.166999816894531 7.133999824523926,7.166999816894531 C7.133999824523926,8.446999549865723 6.0960001945495605,9.484999656677246 4.815999984741211,9.484999656677246z"></path></g><g opacity="1" transform="matrix(1,0,0,1,42.27799987792969,14.826000213623047)"><path fill="rgb(189,172,182)" fill-opacity="1" d=" M24.04400062561035,14.576000213623047 C24.04400062561035,14.576000213623047 -24.04400062561035,14.576000213623047 -24.04400062561035,14.576000213623047 C-24.04400062561035,14.576000213623047 -24.04400062561035,-3.5959999561309814 -24.04400062561035,-3.5959999561309814 C-24.04400062561035,-9.649999618530273 -19.118999481201172,-14.576000213623047 -13.0649995803833,-14.576000213623047 C-13.0649995803833,-14.576000213623047 13.0649995803833,-14.576000213623047 13.0649995803833,-14.576000213623047 C19.118999481201172,-14.576000213623047 24.04400062561035,-9.649999618530273 24.04400062561035,-3.5959999561309814 C24.04400062561035,-3.5959999561309814 24.04400062561035,14.576000213623047 24.04400062561035,14.576000213623047z"></path></g><g opacity="1" transform="matrix(1,0,0,1,31.458999633789062,14.826000213623047)"><path fill="rgb(77,67,95)" fill-opacity="1" d=" M7.822000026702881,9.17199993133545 C7.822000026702881,9.17199993133545 -7.822000026702881,9.17199993133545 -7.822000026702881,9.17199993133545 C-7.822000026702881,9.17199993133545 -7.822000026702881,-3.5959999561309814 -7.822000026702881,-3.5959999561309814 C-7.822000026702881,-6.676000118255615 -5.324999809265137,-9.17199993133545 -2.244999885559082,-9.17199993133545 C-2.244999885559082,-9.17199993133545 2.246000051498413,-9.17199993133545 2.246000051498413,-9.17199993133545 C5.324999809265137,-9.17199993133545 7.822000026702881,-6.676000118255615 7.822000026702881,-3.5959999561309814 C7.822000026702881,-3.5959999561309814 7.822000026702881,9.17199993133545 7.822000026702881,9.17199993133545z"></path></g><g opacity="1" transform="matrix(1,0,0,1,53.095001220703125,14.826000213623047)"><path fill="rgb(77,67,95)" fill-opacity="1" d=" M-7.821000099182129,9.17199993133545 C-7.821000099182129,9.17199993133545 7.821000099182129,9.17199993133545 7.821000099182129,9.17199993133545 C7.821000099182129,9.17199993133545 7.821000099182129,-3.5959999561309814 7.821000099182129,-3.5959999561309814 C7.821000099182129,-6.676000118255615 5.324999809265137,-9.17199993133545 2.246000051498413,-9.17199993133545 C2.246000051498413,-9.17199993133545 -2.246000051498413,-9.17199993133545 -2.246000051498413,-9.17199993133545 C-5.324999809265137,-9.17199993133545 -7.821000099182129,-6.676000118255615 -7.821000099182129,-3.5959999561309814 C-7.821000099182129,-3.5959999561309814 -7.821000099182129,9.17199993133545 -7.821000099182129,9.17199993133545z"></path></g><g opacity="1" transform="matrix(1,0,0,1,42.277000427246094,18.868000030517578)"><path fill="rgb(77,67,95)" fill-opacity="1" d=" M18.638999938964844,-5.13100004196167 C18.638999938964844,-5.13100004196167 -18.638999938964844,-5.13100004196167 -18.638999938964844,-5.13100004196167 C-18.638999938964844,-5.13100004196167 -18.638999938964844,5.13100004196167 -18.638999938964844,5.13100004196167 C-18.638999938964844,5.13100004196167 18.638999938964844,5.13100004196167 18.638999938964844,5.13100004196167 C18.638999938964844,5.13100004196167 18.638999938964844,-5.13100004196167 18.638999938964844,-5.13100004196167z"></path></g><g opacity="1" transform="matrix(1,0,0,1,42.277000427246094,33.14699935913086)"><path fill="rgb(240,108,94)" fill-opacity="1" d=" M28.391000747680664,-11.852999687194824 C42.027000427246094,-11.852999687194824 42.027000427246094,11.852999687194824 42.027000427246094,11.852999687194824 C42.027000427246094,11.852999687194824 -42.027000427246094,11.852999687194824 -42.027000427246094,11.852999687194824 C-42.027000427246094,11.852999687194824 -42.027000427246094,-11.852999687194824 -28.389999389648438,-11.852999687194824 C-28.389999389648438,-11.852999687194824 28.391000747680664,-11.852999687194824 28.391000747680664,-11.852999687194824z"></path></g><g opacity="1" transform="matrix(1,0,0,1,42.277000427246094,48.630001068115234)"><path fill="rgb(189,172,182)" fill-opacity="1" d=" M42.027000427246094,3.630000114440918 C42.027000427246094,3.630000114440918 -42.027000427246094,3.630000114440918 -42.027000427246094,3.630000114440918 C-42.027000427246094,3.630000114440918 -42.027000427246094,-3.630000114440918 -42.027000427246094,-3.630000114440918 C-42.027000427246094,-3.630000114440918 42.027000427246094,-3.630000114440918 42.027000427246094,-3.630000114440918 C42.027000427246094,-3.630000114440918 42.027000427246094,3.630000114440918 42.027000427246094,3.630000114440918z"></path></g><g opacity="1" transform="matrix(1,0,0,1,42.277000427246094,42.29600143432617)"><path fill="rgb(193,66,60)" fill-opacity="1" d=" M-41.619998931884766,-2.7049999237060547 C-42.02299880981445,0.42899999022483826 -42.027000427246094,2.7049999237060547 -42.027000427246094,2.7049999237060547 C-42.027000427246094,2.7049999237060547 42.027000427246094,2.7049999237060547 42.027000427246094,2.7049999237060547 C42.027000427246094,2.7049999237060547 42.025001525878906,0.42899999022483826 41.619998931884766,-2.7049999237060547 C41.619998931884766,-2.7049999237060547 -41.619998931884766,-2.7049999237060547 -41.619998931884766,-2.7049999237060547z"></path></g><g opacity="1" transform="matrix(1,0,0,1,42.27799987792969,27.82699966430664)"><path fill="rgb(240,108,94)" fill-opacity="1" d=" M4.045000076293945,-9.795999526977539 C4.045000076293945,-9.795999526977539 -4.046000003814697,-9.795999526977539 -4.046000003814697,-9.795999526977539 C-6.815000057220459,-9.795999526977539 -9.059000015258789,-7.551000118255615 -9.059000015258789,-4.781000137329102 C-9.059000015258789,-4.781000137329102 -9.059000015258789,9.795999526977539 -9.059000015258789,9.795999526977539 C-9.059000015258789,9.795999526977539 9.059000015258789,9.795999526977539 9.059000015258789,9.795999526977539 C9.059000015258789,9.795999526977539 9.059000015258789,-4.781000137329102 9.059000015258789,-4.781000137329102 C9.059000015258789,-7.551000118255615 6.815000057220459,-9.795999526977539 4.045000076293945,-9.795999526977539z"></path></g><g opacity="1" transform="matrix(1,0,0,1,25.014999389648438,31.795000076293945)"><path fill="rgb(251,176,21)" fill-opacity="1" d=" M3.934999942779541,-2.6570000648498535 C3.934999942779541,-2.6570000648498535 -8.640000343322754,-7.796000003814697 -8.640000343322754,-7.796000003814697 C-8.640000343322754,-7.796000003814697 -3.4030001163482666,-1.3530000448226929 -3.4030001163482666,-1.3530000448226929 C-3.4030001163482666,-1.3530000448226929 -6.447000026702881,2.625999927520752 -6.447000026702881,2.625999927520752 C-6.447000026702881,2.625999927520752 -5.0879998207092285,7.796000003814697 -5.0879998207092285,7.796000003814697 C-5.0879998207092285,7.796000003814697 8.640000343322754,7.796000003814697 8.640000343322754,7.796000003814697 C8.640000343322754,7.796000003814697 1.7869999408721924,2.625999927520752 1.7869999408721924,2.625999927520752 C1.7869999408721924,2.625999927520752 3.934999942779541,-2.6570000648498535 3.934999942779541,-2.6570000648498535z"></path></g><g opacity="1" transform="matrix(1,0,0,1,59.540000915527344,31.795000076293945)"><path fill="rgb(251,176,21)" fill-opacity="1" d=" M-3.934999942779541,-2.6570000648498535 C-3.934999942779541,-2.6570000648498535 8.640000343322754,-7.796000003814697 8.640000343322754,-7.796000003814697 C8.640000343322754,-7.796000003814697 3.4030001163482666,-1.3530000448226929 3.4030001163482666,-1.3530000448226929 C3.4030001163482666,-1.3530000448226929 6.447000026702881,2.625999927520752 6.447000026702881,2.625999927520752 C6.447000026702881,2.625999927520752 5.0879998207092285,7.796000003814697 5.0879998207092285,7.796000003814697 C5.0879998207092285,7.796000003814697 -8.640000343322754,7.796000003814697 -8.640000343322754,7.796000003814697 C-8.640000343322754,7.796000003814697 -1.7869999408721924,2.625999927520752 -1.7869999408721924,2.625999927520752 C-1.7869999408721924,2.625999927520752 -3.934999942779541,-2.6570000648498535 -3.934999942779541,-2.6570000648498535z"></path></g></g></g></svg>