<svg xmlns="http://www.w3.org/2000/svg" viewBox="0 0 89 64" width="89" height="64" preserveAspectRatio="xMidYMid meet" style="width: 100%; height: 100%; transform: translate3d(0px, 0px, 0px); content-visibility: visible;"><defs><clipPath id="__lottie_element_4365"><rect width="89" height="64" x="0" y="0"></rect></clipPath><clipPath id="__lottie_element_4367"><path d="M0,0 L1080,0 L1080,1080 L0,1080z"></path></clipPath><mask id="__lottie_element_4370" mask-type="alpha"><g transform="matrix(0.3333300054073334,0,0,0.3333300054073334,-12.999053955078125,-25.999656677246094)" opacity="1" style="display: block;"><g opacity="1" transform="matrix(1,0,0,1,488.7099914550781,192.09500122070312)"><path fill="rgb(24,192,255)" fill-opacity="1" d=" M-465.6610107421875,62.95199966430664 C-465.6610107421875,62.95199966430664 -465.7130126953125,86.71199798583984 -465.7130126953125,86.71199798583984 C-465.7130126953125,86.71199798583984 -262.7099914550781,87.1989974975586 -262.7099914550781,87.1989974975586 C-262.7099914550781,87.1989974975586 -252.4040069580078,62.94900131225586 -252.4040069580078,62.94900131225586 C-252.4040069580078,62.94900131225586 -174.406005859375,-35.928001403808594 -174.406005859375,-35.928001403808594 C-174.406005859375,-35.928001403808594 -252.781005859375,-126.8270034790039 -252.781005859375,-126.8270034790039 C-252.781005859375,-126.8270034790039 -462.0360107421875,-128.82699584960938 -462.0360107421875,-128.82699584960938 C-462.0360107421875,-128.82699584960938 -465.6610107421875,62.95199966430664 -465.6610107421875,62.95199966430664z"></path></g></g></mask></defs><g clip-path="url(#__lottie_element_4365)"><g mask="url(#__lottie_element_4370)" style="display: block;"><g clip-path="url(#__lottie_element_4367)" transform="matrix(0.3333300054073334,0,0,0.3333300054073334,-54.498199462890625,-113.16519927978516)" opacity="1"><g transform="matrix(-0.8999999761581421,0,0,0.8999999761581421,363.75775146484375,393.6900939941406)" opacity="1" style="display: block;"><g opacity="1" transform="matrix(1,0,0,1,39.52000045776367,123.08999633789062)"><path fill="rgb(41,35,54)" fill-opacity="1" d=" M-4.436999797821045,-11.274999618530273 C0.5559999942779541,-8.057999610900879 -0.48899999260902405,-1.0859999656677246 0.07400000095367432,3.808000087738037 C0.8339999914169312,10.413999557495117 -0.414000004529953,15.748000144958496 0.06300000101327896,16.950000762939453 C0.5559999942779541,18.191999435424805 6.111000061035156,17.77400016784668 6.953000068664551,17.716999053955078 C7.605000019073486,17.763999938964844 11.25,14.02400016784668 12.345000267028809,10.888999938964844 C14.236000061035156,5.474999904632568 11.111000061035156,-1.253000020980835 12.477999687194824,-6.230000019073486 C14.126999855041504,-12.234999656677246 14.60200023651123,-17.708999633789062 9.329000473022461,-18.201000213623047 C6.388999938964844,-18.475000381469727 3.6670000553131104,-19.312999725341797 3.6670000553131104,-19.312999725341797 C3.6670000553131104,-19.312999725341797 -4.436999797821045,-11.274999618530273 -4.436999797821045,-11.274999618530273z"></path></g></g><g transform="matrix(-0.39453402161598206,-0.8089146018028259,-0.8089146018028259,0.39453402161598206,428.0205383300781,481.3019104003906)" opacity="1" style="display: block;"><g opacity="1" transform="matrix(0.9982699751853943,0,0,1,25.701000213623047,100.64900207519531)"><path fill="rgb(41,35,54)" fill-opacity="1" d=" M-6.422999858856201,-10.770000457763672 C-15.795000076293945,-12.779000282287598 -25.450000762939453,-8.758000373840332 -25.450000762939453,-2.819999933242798 C-25.450000762939453,2.811000108718872 -15.869999885559082,7.36899995803833 -6.624000072479248,7.96999979019165 C1.187000036239624,8.477999687194824 5.208000183105469,6.572000026702881 12.713000297546387,8.789999961853027 C12.713000297546387,8.789999961853027 14.791999816894531,6.03000020980835 14.152999877929688,1.9980000257492065 C3.553999900817871,-3.9690001010894775 3.4660000801086426,-8.649999618530273 -6.422999858856201,-10.770000457763672z"></path></g></g><g transform="matrix(1,0,0,1,179.16400146484375,400.49298095703125)" opacity="1" style="display: block;"><g opacity="1" transform="matrix(1,0,0,1,153.5959930419922,87.34400177001953)"><path fill="rgb(49,49,74)" fill-opacity="1" d=" M-17.976999282836914,-35.72999954223633 C-9.571000099182129,-32.48899841308594 -9.050000190734863,-30.538000106811523 -6.26200008392334,-24.030000686645508 C-4.323999881744385,-19.5049991607666 2.3570001125335693,-12.517999649047852 8.355999946594238,-3.687000036239624 C16.100000381469727,7.709000110626221 25.82900047302246,28.014999389648438 16.312000274658203,33.275001525878906 C13.487000465393066,34.83700180053711 7.7170000076293945,34.83700180053711 3.750999927520752,32.13199996948242 C-0.2160000056028366,29.42799949645996 -5.645999908447266,18.610000610351562 -9.782999992370605,13.201000213623047 C-13.03600025177002,8.947999954223633 -19.586999893188477,-1.2929999828338623 -24.125999450683594,-4.9019999504089355 C-29.354999542236328,-9.0600004196167 -33.933998107910156,-10.64900016784668 -33.8129997253418,-11.515999794006348 C-33.8129997253418,-11.515999794006348 -29.716999053955078,-25.479000091552734 -29.716999053955078,-25.479000091552734 C-29.716999053955078,-25.479000091552734 -17.976999282836914,-35.72999954223633 -17.976999282836914,-35.72999954223633z"></path></g><g opacity="1" transform="matrix(1,0,0,1,166.55999755859375,113.78299713134766)"><path fill="rgb(41,35,54)" fill-opacity="1" d=" M-4.195000171661377,-6.14900016784668 C-7.749000072479248,-0.2280000001192093 -6.96999979019165,6.874000072479248 -6.96999979019165,6.874000072479248 C-3.3010001182556152,8.345000267028809 1.0199999809265137,8.123000144958496 3.3469998836517334,6.836999893188477 C6.867000102996826,4.892000198364258 7.749000072479248,0.8849999904632568 7.078000068664551,-3.9630000591278076 C7.078000068664551,-3.9630000591278076 5.508999824523926,-6.736000061035156 1.621999979019165,-8.345999717712402 C1.621999979019165,-8.345999717712402 -4.195000171661377,-6.14900016784668 -4.195000171661377,-6.14900016784668z"></path></g><g opacity="1" transform="matrix(1,0,0,1,155.38600158691406,94.31500244140625)"><path stroke-linecap="round" stroke-linejoin="round" fill-opacity="0" stroke="rgb(88,92,111)" stroke-opacity="1" stroke-width="4" d=" M11.529999732971191,-4.578000068664551 C11.529999732971191,-4.578000068664551 -0.5690000057220459,-7.622000217437744 -11.529999732971191,7.622000217437744"></path></g></g><g transform="matrix(1,0,0,1,179.93499755859375,400.94000244140625)" opacity="1" style="display: block;"><g opacity="1" transform="matrix(1,0,0,1,88.06800079345703,69.10900115966797)"><path fill="rgb(49,49,74)" fill-opacity="1" d=" M14.555999755859375,-15.17300033569336 C3.690999984741211,-13.96500015258789 -5.741000175476074,-11.454000473022461 -16.04599952697754,-5.546000003814697 C-16.04599952697754,-5.546000003814697 -24.156999588012695,1.7120000123977661 -24.156999588012695,1.7120000123977661 C-25.493000030517578,2.9070000648498535 -26.000999450683594,4.77400016784668 -25.457000732421875,6.480999946594238 C-25.013999938964844,7.868000030517578 -21.19499969482422,13.236000061035156 -18.39900016784668,13.729000091552734 C-15.602999687194824,14.222000122070312 -5.063000202178955,10.039999961853027 -5.063000202178955,10.039999961853027 C-5.063000202178955,10.039999961853027 16.67099952697754,13.557999610900879 30.77400016784668,8.571999549865723 C30.77400016784668,8.571999549865723 37.19900131225586,6.166999816894531 36.92100143432617,-0.6140000224113464 C36.70399856567383,-5.9079999923706055 31.85700035095215,-12.777000427246094 31.85700035095215,-12.777000427246094 C31.85700035095215,-12.777000427246094 19.62299919128418,-15.737000465393066 14.555999755859375,-15.17300033569336z"></path></g></g><g transform="matrix(1,0,0,1,179.93499755859375,400.94000244140625)" opacity="1" style="display: block;"><g opacity="1" transform="matrix(1,0,0,1,37.564998626708984,96.45099639892578)"><path fill="rgb(49,49,74)" fill-opacity="1" d=" M21.617000579833984,-24.542999267578125 C8.140000343322754,-22.04199981689453 -8.237000465393066,-4.395999908447266 -15.989999771118164,6.026000022888184 C-15.989999771118164,6.026000022888184 -21.613000869750977,13.319000244140625 -30.322999954223633,15.73799991607666 C-37.314998626708984,17.680999755859375 -36.617000579833984,22.219999313354492 -36.617000579833984,22.219999313354492 C-36.617000579833984,24.31599998474121 -21.39900016784668,25.625 -14.593000411987305,21.81599998474121 C-14.593000411987305,21.81599998474121 -8.303999900817871,22.722000122070312 -7.732999801635742,20.625 C-7.159999847412109,18.52899932861328 -9.446999549865723,14.335000038146973 -7.922999858856201,12.04800033569336 C-6.39900016784668,9.76200008392334 0.46299999952316284,4.426000118255615 6.179999828338623,2.5199999809265137 C11.897000312805176,0.6140000224113464 20.854999542236328,-1.6729999780654907 27.9060001373291,-10.24899959564209 C27.9060001373291,-10.24899959564209 37.314998626708984,-14.822999954223633 37.314998626708984,-14.822999954223633 C36.92599868774414,-21.014999389648438 31.44099998474121,-25.625 25.27400016784668,-24.94499969482422 C25.27400016784668,-24.94499969482422 21.617000579833984,-24.542999267578125 21.617000579833984,-24.542999267578125z"></path></g><g opacity="1" transform="matrix(1,0,0,1,67.93900299072266,73.3219985961914)"><path fill="rgb(41,35,54)" fill-opacity="1" d=" M8.331999778747559,-9.49899959564209 C8.331999778747559,-9.49899959564209 -2.861999988555908,-12.767000198364258 -11.305000305175781,1.4509999752044678 C-11.305000305175781,1.4509999752044678 -8.756999969482422,6.072000026702881 -8.756999969482422,6.072000026702881 C-8.756999969482422,6.072000026702881 5.921000003814697,12.765999794006348 11.305000305175781,-5.954999923706055 C11.305000305175781,-5.954999923706055 8.331999778747559,-9.49899959564209 8.331999778747559,-9.49899959564209z"></path></g><g opacity="1" transform="matrix(1,0,0,1,32.86000061035156,97.93699645996094)"><path fill="rgb(41,35,54)" fill-opacity="1" d=" M18.239999771118164,-13.618000030517578 C18.239999771118164,-13.618000030517578 15.793000221252441,-18.138999938964844 15.793000221252441,-18.138999938964844 C15.793000221252441,-18.138999938964844 20.687999725341797,-23.982999801635742 20.687999725341797,-23.982999801635742 C20.687999725341797,-23.982999801635742 20.518999099731445,-24.138999938964844 20.518999099731445,-24.138999938964844 C8.425999641418457,-18.718000411987305 -4.618000030517578,-4.423999786376953 -11.28499984741211,4.539000034332275 C-11.28499984741211,4.539000034332275 -16.908000946044922,11.833999633789062 -25.617000579833984,14.253000259399414 C-32.61000061035156,16.19499969482422 -31.91200065612793,20.733999252319336 -31.91200065612793,20.733999252319336 C-31.91200065612793,22.829999923706055 -16.694000244140625,24.139999389648438 -9.887999534606934,20.33099937438965 C-9.887999534606934,20.33099937438965 -3.5989999771118164,21.235000610351562 -3.0269999504089355,19.13800048828125 C-2.4549999237060547,17.04199981689453 -4.742000102996826,12.848999977111816 -3.2179999351501465,10.562000274658203 C-1.6929999589920044,8.276000022888184 5.168000221252441,2.938999891281128 10.88599967956543,1.0329999923706055 C16.601999282836914,-0.8730000257492065 25.558000564575195,-3.1589999198913574 32.61000061035156,-11.734000205993652 C32.61000061035156,-11.734000205993652 32.61000061035156,-11.736000061035156 32.61000061035156,-11.736000061035156 C32.61000061035156,-11.736000061035156 30.26300048828125,-14.281000137329102 30.26300048828125,-14.281000137329102 C30.26300048828125,-14.281000137329102 18.239999771118164,-13.618000030517578 18.239999771118164,-13.618000030517578z"></path></g></g><g transform="matrix(1,0,0,1,182.66400146484375,400.49298095703125)" opacity="1" style="display: block;"><g opacity="1" transform="matrix(1,0,0,1,123.2979965209961,70.25700378417969)"><path fill="rgb(49,49,74)" fill-opacity="1" d=" M11.78600025177002,16.833999633789062 C11.78600025177002,16.833999633789062 15.083999633789062,8.043999671936035 15.083999633789062,8.043999671936035 C18.20199966430664,-0.2680000066757202 14.744999885559082,-9.607999801635742 6.966000080108643,-13.88599967956543 C6.966000080108643,-13.88599967956543 1.6059999465942383,-16.833999633789062 1.6059999465942383,-16.833999633789062 C1.6059999465942383,-16.833999633789062 -15.875,-4.5269999504089355 -15.875,-4.5269999504089355 C-17.33300018310547,-3.5 -18.20199966430664,-1.8279999494552612 -18.20199966430664,-0.04500000178813934 C-18.20199966430664,2.3399999141693115 -16.660999298095703,4.449999809265137 -14.390000343322754,5.177000045776367 C-14.390000343322754,5.177000045776367 3.555000066757202,12.817999839782715 11.78600025177002,16.833999633789062z"></path></g></g><g transform="matrix(1,0,0,1,182.66400146484375,397.63897705078125)" opacity="1" style="display: block;"><g opacity="1" transform="matrix(1,0,0,1,77.18599700927734,33.974998474121094)"><path fill="rgb(69,71,95)" fill-opacity="1" d=" M15.513999938964844,-7.00600004196167 C15.451000213623047,-7.044000148773193 15.381999969482422,-7.073999881744385 15.3100004196167,-7.09499979019165 C15.03499984741211,-7.170000076293945 14.744999885559082,-7.074999809265137 14.477999687194824,-6.9770002365112305 C11.295999526977539,-5.803999900817871 8.23900032043457,-4.298999786376953 5.285999774932861,-2.630000114440918 C-3.2209999561309814,2.180999994277954 -8.336999893188477,-1.8619999885559082 -13.105999946594238,-6.183000087738037 C-14.253000259399414,-7.2220001220703125 -16.718000411987305,-9.378999710083008 -18.910999298095703,-7.74399995803833 C-20.679000854492188,-6.426000118255615 -20.437999725341797,-3.8410000801086426 -19.549999237060547,-2.0880000591278076 C-19.083999633789062,-1.1660000085830688 -16.405000686645508,1.1319999694824219 -17.121000289916992,2.075000047683716 C-17.388999938964844,2.428999900817871 -17.827999114990234,2.6029999256134033 -18.243999481201172,2.76200008392334 C-19.16699981689453,3.114000082015991 -21.72100067138672,3.5139999389648438 -23.51099967956543,4.9629998207092285 C-25.069000244140625,6.2230000495910645 -24.698999404907227,8.267000198364258 -23.89900016784668,8.807000160217285 C-23.054000854492188,9.378999710083008 -21.94099998474121,8.84000015258789 -21.00200080871582,8.442999839782715 C-18.895000457763672,7.553999900817871 -17.020999908447266,7.447000026702881 -14.66100025177002,7.710999965667725 C-11.539999961853027,8.059000015258789 -7.748000144958496,8.503000259399414 -4.671000003814697,7.947000026702881 C-1.4190000295639038,7.361000061035156 10.446999549865723,6.2129998207092285 21.01300048828125,5.034999847412109 C24.64900016784668,-4.36299991607666 15.687999725341797,-6.901000022888184 15.513999938964844,-7.00600004196167z"></path></g><g opacity="1" transform="matrix(1,0,0,1,83.02400207519531,34.95000076293945)"><path fill="rgb(49,49,74)" fill-opacity="1" d=" M-6.639999866485596,7.169000148773193 C-6.639999866485596,7.169000148773193 -8.21500015258789,-2.0269999504089355 -8.21500015258789,-2.0269999504089355 C-8.21500015258789,-2.0269999504089355 5.614999771118164,-7.169000148773193 5.614999771118164,-7.169000148773193 C5.614999771118164,-7.169000148773193 8.21500015258789,5.769000053405762 8.21500015258789,5.769000053405762 C8.21500015258789,5.769000053405762 -6.639999866485596,7.169000148773193 -6.639999866485596,7.169000148773193z"></path></g></g><g transform="matrix(1,0,0,1,182.66400146484375,400.49298095703125)" opacity="1" style="display: block;"><g opacity="1" transform="matrix(1,0,0,1,109.86599731445312,45.84000015258789)"><path fill="rgb(69,71,95)" fill-opacity="1" d=" M18.496000289916992,15.684000015258789 C13.107000350952148,25.535999298095703 1.5540000200271606,20.2810001373291 -1.2369999885559082,18.80299949645996 C-4.0279998779296875,17.326000213623047 -9.774999618530273,17.81800079345703 -13.053999900817871,13.545000076293945 C-16.77899932861328,8.689000129699707 -15.197999954223633,3.556999921798706 -15.397000312805176,-2.0889999866485596 C-15.496000289916992,-4.938000202178955 -15.989999771118164,-7.883999824523926 -17.618999481201172,-10.222000122070312 C-17.618999481201172,-10.222000122070312 -22.416000366210938,-14.675999641418457 -18.888999938964844,-20.048999786376953 C-17.048999786376953,-22.851999282836914 -11.892000198364258,-19.29400062561035 -2.5450000762939453,-18.5049991607666 C2.808000087738037,-18.05299949645996 9.942999839782715,-17.926000595092773 9.942999839782715,-17.926000595092773 C9.942999839782715,-17.926000595092773 15.380999565124512,-18.503000259399414 19.385000228881836,-16.660999298095703 C24.329999923706055,-14.38599967956543 22.238000869750977,-1.2860000133514404 22.238000869750977,-1.2860000133514404 C22.238000869750977,-1.2860000133514404 18.496000289916992,15.684000015258789 18.496000289916992,15.684000015258789z"></path></g><g opacity="1" transform="matrix(1,0,0,1,107.47000122070312,44.80699920654297)"><path fill="rgb(248,171,126)" fill-opacity="1" d=" M-9.79699993133545,-19.31100082397461 C-9.79699993133545,-19.31100082397461 -6.448999881744385,3.76200008392334 -0.18400000035762787,10.777999877929688 C-0.18400000035762787,10.777999877929688 8.968999862670898,2.1570000648498535 7.85699987411499,-18.236000061035156 C7.85699987411499,-18.236000061035156 -9.79699993133545,-19.31100082397461 -9.79699993133545,-19.31100082397461z"></path></g><g opacity="1" transform="matrix(1,0,0,1,108.04299926757812,33.66400146484375)"><path fill="rgb(54,56,74)" fill-opacity="1" d=" M-3.8410000801086426,-7.706999778747559 C-7.066999912261963,-7.890999794006348 -8.104000091552734,-8.517999649047852 -10.579000473022461,-7.9710001945495605 C-10.375,2.0829999446868896 -9.574999809265137,6.181000232696533 -6.434000015258789,9.729999542236328 C-7.4770002365112305,5.3420000076293945 -10.355999946594238,-8.291999816894531 -10.355999946594238,-8.291999816894531 C-10.355999946594238,-8.291999816894531 7.534999847412109,-7.066999912261963 7.534999847412109,-7.066999912261963 C7.534999847412109,-2.8310000896453857 5.995999813079834,8.104000091552734 5.252999782562256,10.96399974822998 C8.711999893188477,7.88100004196167 11.970999717712402,4.900000095367432 12.439000129699707,-5.638999938964844 C12.439000129699707,-5.638999938964844 11.869000434875488,-6.619999885559082 11.869000434875488,-6.619999885559082 C11.869000434875488,-6.619999885559082 11.868000030517578,-6.619999885559082 11.868000030517578,-6.619999885559082 C11.73799991607666,-6.638000011444092 4.271999835968018,-7.244999885559082 -3.8410000801086426,-7.706999778747559z"></path></g><g opacity="1" transform="matrix(1,0,0,1,107.47100067138672,40.53700256347656)"><path fill="rgb(194,133,100)" fill-opacity="1" d=" M7.734000205993652,-13.979000091552734 C7.734000205993652,-13.979000091552734 2.4560000896453857,-16.5049991607666 -2.177999973297119,-16.591999053955078 C-6.336999893188477,-16.670000076293945 -9.562000274658203,-14.890000343322754 -9.562000274658203,-14.890000343322754 C-9.562000274658203,-14.890000343322754 -8.343000411987305,-0.6010000109672546 -6.557000160217285,2.2809998989105225 C-4.770999908447266,5.163000106811523 -1.1829999685287476,6.506999969482422 0.5950000286102295,6.506999969482422 C2.052999973297119,6.506999969482422 5.4029998779296875,5.673999786376953 5.988999843597412,3.7309999465942383 C7.388999938964844,-0.9139999747276306 7.734000205993652,-9.743000030517578 7.734000205993652,-13.979000091552734z"></path></g></g><g transform="matrix(1,0,0,1,182.66400146484375,400.49298095703125)" opacity="1" style="display: block;"><g opacity="1" transform="matrix(1,0,0,1,130.3179931640625,59.374000549316406)"><path fill="rgb(69,71,95)" fill-opacity="1" d=" M-6.835999965667725,-27.409000396728516 C-5.622000217437744,-28.600000381469727 -3.753000020980835,-28.702999114990234 -2.3299999237060547,-27.770999908447266 C-2.2290000915527344,-27.704999923706055 -2.131999969482422,-27.645999908447266 -2.0399999618530273,-27.59600067138672 C2.369999885559082,-25.183000564575195 5.484000205993652,-20.895000457763672 7.229000091552734,-16.180999755859375 C8.79699993133545,-11.944999694824219 9.001999855041504,-1.1080000400543213 10.022000312805176,4.09499979019165 C11.043999671936035,9.29800033569336 13.888999938964844,15.786999702453613 13.494999885559082,22.253000259399414 C13.321000099182129,25.110000610351562 9.520000457763672,27.301000595092773 4.9679999351501465,25.68400001525879 C0.010999999940395355,23.92300033569336 -0.5989999771118164,17.711999893188477 -0.5989999771118164,17.711999893188477 C-0.5989999771118164,17.711999893188477 -3.3980000019073486,8.565999984741211 -4.448999881744385,1.069000005722046 C-5.500999927520752,-6.429999828338623 -11.015999794006348,-5.816999912261963 -12.854999542236328,-13.782999992370605 C-14.107999801635742,-19.218000411987305 -9.73900032043457,-24.562000274658203 -6.835999965667725,-27.409000396728516z"></path></g></g><g transform="matrix(1,0,0,1,182.66400146484375,400.49298095703125)" opacity="1" style="display: block;"><g opacity="1" transform="matrix(1,0,0,1,123.65699768066406,103.24400329589844)"><path fill="rgb(69,71,95)" fill-opacity="1" d=" M20.159000396728516,-21.625999450683594 C20.158000946044922,-21.614999771118164 20.18000030517578,-21.618000030517578 20.18899917602539,-21.614999771118164 C19.22100067138672,-17.190000534057617 16.698999404907227,-13.286999702453613 14.223999977111816,-9.493000030517578 C10.984999656677246,-4.525000095367432 7.74399995803833,0.4429999887943268 4.336999893188477,5.296000003814697 C3.0969998836517334,7.061999797821045 1.7829999923706055,8.963000297546387 1.7580000162124634,11.119999885559082 C1.7059999704360962,15.472999572753906 5.866000175476074,16.922000885009766 8.012999534606934,19.91699981689453 C10.642999649047852,23.583999633789062 6.007999897003174,25.42099952697754 3.1489999294281006,25.731000900268555 C-0.7519999742507935,26.155000686645508 -10.430999755859375,25.75 -10.520000457763672,17.382999420166016 C-12.13599967956543,18.184999465942383 -13.833999633789062,18.79800033569336 -15.616000175476074,19.076000213623047 C-17.429000854492188,19.357999801635742 -20.18899917602539,18.336000442504883 -19.871000289916992,16.757999420166016 C-19.715999603271484,15.987000465393066 -15.9350004196167,14.614999771118164 -15.121999740600586,14.015000343322754 C-11.852999687194824,11.597000122070312 -9.454000473022461,8.168000221252441 -7.331999778747559,4.750999927520752 C-1.38100004196167,-4.831999778747559 3.3980000019073486,-15.206000328063965 6.111999988555908,-26.15399932861328 C8.609000205993652,-29.56100082397461 12.869000434875488,-30.11199951171875 15.562999725341797,-29.023000717163086 C19.02899932861328,-27.621999740600586 20.40999984741211,-25.229999542236328 20.159000396728516,-21.625999450683594z"></path></g><g opacity="1" transform="matrix(1,0,0,1,126.6709976196289,101.1969985961914)"><path fill="rgb(49,49,74)" fill-opacity="1" d=" M-10.993000030517578,5.947000026702881 C-10.993000030517578,5.947000026702881 0.3529999852180481,11.234999656677246 0.3529999852180481,11.234999656677246 C0.3529999852180481,11.234999656677246 10.993000030517578,-4.091000080108643 10.993000030517578,-4.091000080108643 C10.993000030517578,-4.091000080108643 -2.5199999809265137,-11.234999656677246 -2.5199999809265137,-11.234999656677246 C-2.5199999809265137,-11.234999656677246 -10.993000030517578,5.947000026702881 -10.993000030517578,5.947000026702881z"></path></g></g><g transform="matrix(0.9999995827674866,-0.0008982832077890635,0.0008982832077890635,0.9999995827674866,182.633544921875,400.58734130859375)" opacity="1" style="display: block;"><g opacity="1" transform="matrix(1,0,0,1,106.08999633789062,18.868000030517578)"><path fill="rgb(250,192,150)" fill-opacity="1" d=" M-12.61400032043457,-0.0010000000474974513 C-12.61400032043457,-6.9679999351501465 -6.9679999351501465,-12.61400032043457 -0.0010000000474974513,-12.61400032043457 C6.966000080108643,-12.61400032043457 12.61400032043457,-6.9679999351501465 12.61400032043457,-0.0010000000474974513 C12.61400032043457,6.966000080108643 6.966000080108643,12.61400032043457 -0.0010000000474974513,12.61400032043457 C-6.9679999351501465,12.61400032043457 -12.61400032043457,6.966000080108643 -12.61400032043457,-0.0010000000474974513z"></path></g><g opacity="1" transform="matrix(1,0,0,1,119.53299713134766,29.204999923706055)"><path fill="rgb(215,58,31)" fill-opacity="1" d=" M-3.3949999809265137,4.824999809265137 C-3.3949999809265137,4.824999809265137 -2.7219998836517334,-4.824999809265137 -2.7219998836517334,-4.824999809265137 C-2.7219998836517334,-4.824999809265137 3.3949999809265137,0.6489999890327454 3.3949999809265137,0.6489999890327454 C3.3949999809265137,0.6489999890327454 0.16099999845027924,4.678999900817871 0.16099999845027924,4.678999900817871 C0.16099999845027924,4.678999900817871 -3.3949999809265137,4.824999809265137 -3.3949999809265137,4.824999809265137z"></path></g><g opacity="1" transform="matrix(1,0,0,1,106.09100341796875,31.257999420166016)"><path fill="rgb(250,192,150)" fill-opacity="1" d=" M12.614999771118164,-12.390999794006348 C12.614999771118164,5.763999938964844 4.3520002365112305,12.390999794006348 -0.0010000000474974513,12.390999794006348 C-4.354000091552734,12.390999794006348 -12.614999771118164,5.763999938964844 -12.614999771118164,-12.390999794006348 C-12.614999771118164,-12.390999794006348 12.614999771118164,-12.390999794006348 12.614999771118164,-12.390999794006348z"></path></g><g opacity="1" transform="matrix(0.9999998211860657,-0.0005784609820693731,0.0005760110216215253,0.9957644939422607,112.43800354003906,26.315000534057617)"><path fill="rgb(54,106,93)" fill-opacity="1" d=" M-4.373000144958496,1.4630000591278076 C-4.373000144958496,1.4630000591278076 -2.6500000953674316,-3.8380000591278076 4.373000144958496,-2.9100000858306885 C4.373000144958496,-2.9100000858306885 4.288000106811523,-1.9119999408721924 3.8610000610351562,-0.6570000052452087 C2.694999933242798,2.7679998874664307 -1.6440000534057617,3.8380000591278076 -4.373000144958496,1.4630000591278076z"></path></g><g opacity="1" transform="matrix(0.9999998211860657,0.0005784609820693731,-0.0005760110216215253,0.9957644939422607,99.74299621582031,26.315000534057617)"><path fill="rgb(54,106,93)" fill-opacity="1" d=" M4.374000072479248,1.4630000591278076 C4.374000072479248,1.4630000591278076 2.6489999294281006,-3.8380000591278076 -4.374000072479248,-2.9100000858306885 C-4.374000072479248,-2.9100000858306885 -4.288000106811523,-1.9119999408721924 -3.8610000610351562,-0.6570000052452087 C-2.694999933242798,2.7679998874664307 1.6449999809265137,3.8380000591278076 4.374000072479248,1.4630000591278076z"></path></g><g opacity="1" transform="matrix(1,0,0,1,116.17400360107422,19.0939998626709)"><path fill="rgb(239,82,34)" fill-opacity="1" d=" M4.111000061035156,10.041000366210938 C1.6160000562667847,9.916999816894531 -0.800000011920929,8.640000343322754 -2.306999921798706,6.646999835968018 C-3.7309999465942383,4.763999938964844 -3.9649999141693115,2.671999931335449 -4.1020002365112305,0.3959999978542328 C-4.186999797821045,-1.0269999504089355 -3.3459999561309814,-3.4049999713897705 -4.064000129699707,-4.577000141143799 C-5.256999969482422,-6.526000022888184 -7.60099983215332,-4.826000213623047 -8.961000442504883,-4.289000034332275 C-10.83899974822998,-3.546999931335449 -13.918999671936035,-5.203000068664551 -13.918999671936035,-7.566999912261963 C-13.918999671936035,-7.566999912261963 -13.918999671936035,-15.670999526977539 -13.918999671936035,-15.670999526977539 C-13.918999671936035,-15.670999526977539 -11.366999626159668,-18.8439998626709 -6.310999870300293,-18.8439998626709 C0.6359999775886536,-18.8439998626709 5.752999782562256,-11.125 5.793000221252441,-5.710999965667725 C5.796000003814697,-5.271999835968018 5.776000022888184,-4.811999797821045 5.97599983215332,-4.421000003814697 C6.256999969482422,-3.875 6.880000114440918,-3.619999885559082 7.431000232696533,-3.3510000705718994 C8.803999900817871,-2.680999994277954 10.116000175476074,-1.4129999876022339 10.005000114440918,0.10999999940395355 C9.894000053405762,1.6200000047683716 8.418999671936035,2.8499999046325684 8.5649995803833,4.355999946594238 C8.71500015258789,5.910999774932861 10.456000328063965,6.692999839782715 11.503999710083008,7.85099983215332 C13.918999671936035,10.520000457763672 12.604000091552734,13.560999870300293 10.10200023651123,15.970999717712402 C7.918000221252441,18.073999404907227 3.7980000972747803,18.8439998626709 -0.03700000047683716,14.935999870300293"></path></g><g opacity="1" transform="matrix(1,0,0,1,92.48600006103516,20.13399887084961)"><path fill="rgb(239,82,34)" fill-opacity="1" d=" M9.769000053405762,-8.607999801635742 C9.769000053405762,-8.607999801635742 4.763000011444092,-7.48799991607666 2.9570000171661377,-1.2669999599456787 C1.0479999780654907,5.315000057220459 4.25,15.451000213623047 4.25,15.451000213623047 C4.25,15.451000213623047 -1.1649999618530273,18.201000213623047 -5.591000080108643,14.357999801635742 C-9.769000053405762,10.730999946594238 -8.779999732971191,5.001999855041504 -5.591000080108643,2.2290000915527344 C-2.938999891281128,-0.07699999958276749 -1.7699999809265137,-3.2780001163482666 -1.7699999809265137,-6.51200008392334 C-1.7699999809265137,-9.748000144958496 -0.34700000286102295,-13.880999565124512 3.374000072479248,-16.076000213623047 C6.980000019073486,-18.201000213623047 9.769000053405762,-16.711999893188477 9.769000053405762,-16.711999893188477 C9.769000053405762,-16.711999893188477 9.769000053405762,-8.607999801635742 9.769000053405762,-8.607999801635742z"></path></g><g opacity="1" transform="matrix(1,0,0,1,106.55599975585938,37.77399826049805)"><path stroke-linecap="round" stroke-linejoin="round" fill-opacity="0" stroke="rgb(241,111,95)" stroke-opacity="1" stroke-width="2" d=" M-2.882999897003174,-0.17100000381469727 C-1.0679999589920044,1.0089999437332153 1.3550000190734863,0.656000018119812 2.882999897003174,-1.0089999437332153"></path></g><g opacity="1" transform="matrix(1,0,0,1,105.09700012207031,34.51900100708008)"><path stroke-linecap="round" stroke-linejoin="round" fill-opacity="0" stroke="rgb(247,150,99)" stroke-opacity="1" stroke-width="2" d=" M-1.6710000038146973,-0.6359999775886536 C-0.6840000152587891,0.6349999904632568 1.277999997138977,0.05400000140070915 1.6710000038146973,-0.41100001335144043"></path></g></g><g transform="matrix(0.8577330708503723,-0.5140952467918396,0.5140952467918396,0.8577330708503723,223.5116424560547,607.390869140625)" opacity="1" style="display: none;"><g opacity="1" transform="matrix(1,0,0,1,-0.5,-4.125)"><path fill="rgb(239,82,34)" fill-opacity="1" d=" M6.625,20.75 C6.125,22.375 3,27 0.25,31.125 C-1.75,34.125 -1.8539999723434448,39.08300018310547 1.625,40.875 C5.75,43 9.5,39.75 9.5,39.75 C9.5,39.75 7.673999786376953,18.966999053955078 6.625,20.75z"></path></g><g opacity="1" transform="matrix(1,0,0,1,22.719999313354492,31.4950008392334)"><path fill="rgb(215,58,31)" fill-opacity="1" d=" M-6.064000129699707,4.235000133514404 C-6.064000129699707,4.235000133514404 -2.3369998931884766,-4.703000068664551 -2.3369998931884766,-4.703000068664551 C-2.3369998931884766,-4.703000068664551 6.064000129699707,-3.4079999923706055 6.064000129699707,-3.4079999923706055 C6.064000129699707,-3.4079999923706055 0.5189999938011169,4.703000068664551 0.5189999938011169,4.703000068664551 C0.5189999938011169,4.703000068664551 -6.064000129699707,4.235000133514404 -6.064000129699707,4.235000133514404z"></path></g><g opacity="1" transform="matrix(1,0,0,1,11.505000114440918,26.36400032043457)"><path fill="rgb(255,199,159)" fill-opacity="1" d=" M-7.693999767303467,-13.0600004196167 C-7.446000099182129,-13.486000061035156 4.2210001945495605,-15.840999603271484 4.683000087738037,-15.711999893188477 C9.194000244140625,-14.449000358581543 9.187000274658203,-8.467000007629395 10.619999885559082,-2.8399999141693115 C11.255000114440918,-0.34599998593330383 9.791999816894531,5.486999988555908 7.99399995803833,8.645000457763672 C7.909999847412109,8.793000221252441 7.8460001945495605,8.920999526977539 7.703999996185303,9.138999938964844 C7.609000205993652,9.28600025177002 1.8700000047683716,15.635000228881836 -1.9420000314712524,15.836000442504883 C-2.056999921798706,15.842000007629395 -2.1710000038146973,15.833000183105469 -2.2820000648498535,15.819000244140625 C-5.630000114440918,15.385000228881836 -8.77400016784668,7.045000076293945 -9.260000228881836,3.802000045776367 C-9.41100025177002,2.385999917984009 -8.005000114440918,-0.6140000224113464 -8.17300033569336,-2.632999897003174 C-8.383999824523926,-5.166999816894531 -9.630000114440918,-9.739999771118164 -7.693999767303467,-13.0600004196167z"></path></g><g opacity="1" transform="matrix(1,0,0,1,5.178999900817871,34.487998962402344)"><path fill="rgb(241,111,95)" fill-opacity="1" d=" M4.882999897003174,0.9120000004768372 C5.251999855041504,0.42500001192092896 5.156000137329102,-0.27000001072883606 4.668000221252441,-0.6389999985694885 C4.179999828338623,-1.0099999904632568 3.4860000610351562,-0.9110000133514404 3.117000102996826,-0.4230000078678131 C2.496999979019165,0.3970000147819519 1.0449999570846558,2.010999917984009 -1.315000057220459,1.6299999952316284 C-1.0369999408721924,2.372999906539917 -0.7689999938011169,3.1760001182556152 -0.3840000033378601,3.9159998893737793 C1.86899995803833,3.7860000133514404 3.7190001010894775,2.4509999752044678 4.882999897003174,0.9120000004768372z"></path></g><g opacity="1" transform="matrix(1,0,0,1,2.696000099182129,30.273000717163086)"><path fill="rgb(247,150,99)" fill-opacity="1" d=" M1.3420000076293945,3.1070001125335693 C2.437000036239624,3.009999990463257 3.3529999256134033,2.493000030517578 3.921999931335449,1.649999976158142 C4.263000011444092,1.1419999599456787 4.129000186920166,0.45500001311302185 3.621999979019165,0.11299999803304672 C3.117000102996826,-0.23100000619888306 2.427000045776367,-0.0949999988079071 2.0850000381469727,0.41200000047683716 C1.9190000295639038,0.6589999794960022 1.6729999780654907,0.8109999895095825 1.3339999914169312,0.8769999742507935 C0.7720000147819519,0.9789999723434448 0.20600000023841858,0.8050000071525574 0.07400000095367432,0.7170000076293945 C-0.09099999815225601,0.6169999837875366 -0.1850000023841858,0.5730000138282776 -0.32600000500679016,0.4490000009536743 C-0.22599999606609344,1.1089999675750732 -0.041999999433755875,2.0239999294281006 0.2639999985694885,3.0510001182556152 C0.6060000061988831,3.1089999675750732 0.9129999876022339,3.13700008392334 1.2619999647140503,3.114000082015991 C1.2890000343322754,3.111999988555908 1.315999984741211,3.109999895095825 1.3420000076293945,3.1070001125335693z"></path></g><g opacity="1" transform="matrix(1,0,0,1,21.216999053955078,20.09600067138672)"><path fill="rgb(239,82,34)" fill-opacity="1" d=" M4.690000057220459,9.91100025177002 C1.2569999694824219,9.91100025177002 -1.6260000467300415,9.024999618530273 -3.0230000019073486,6.421000003814697 C-4.216000080108643,4.195000171661377 -3.989000082015991,1.6399999856948853 -3.989000082015991,-1.75600004196167 C-3.989000082015991,-6.040999889373779 -5.252999782562256,-7.4770002365112305 -7.681000232696533,-7.663000106811523 C-9.60099983215332,-7.810999870300293 -13.72700023651123,-4.28000020980835 -15.918000221252441,-3.7330000400543213 C-17.690000534057617,-3.2890000343322754 -19.905000686645508,-3.2149999141693115 -20.56999969482422,-5.578000068664551 C-21.356000900268555,-8.373000144958496 -20.360000610351562,-12.024999618530273 -18.2189998626709,-13.871000289916992 C-15.88599967956543,-15.881999969482422 -11.835000038146973,-19.025999069213867 -4.0229997634887695,-19.371000289916992 C3.9079999923706055,-19.72100067138672 12.034000396728516,-14.972999572753906 12.213000297546387,-7.626999855041504 C12.223999977111816,-7.192999839782715 12.196000099182129,-6.736000061035156 12.395000457763672,-6.349999904632568 C12.67199993133545,-5.809999942779541 13.289999961853027,-5.558000087738037 13.836000442504883,-5.290999889373779 C15.194999694824219,-4.627999782562256 16.493999481201172,-3.375 16.385000228881836,-1.8660000562667847 C16.275999069213867,-0.3720000088214874 14.550000190734863,0.9629999995231628 14.373000144958496,2.450000047683716 C14.187999725341797,4.000999927520752 17.202999114990234,5.111000061035156 17.871000289916992,7.795000076293945 C18.731000900268555,11.244000434875488 17.246999740600586,16.385000228881836 13.107999801635742,18.14699935913086 C9.121000289916992,19.84600067138672 1.8990000486373901,18.933000564575195 -2.253999948501587,15.800000190734863"></path></g><g opacity="1" transform="matrix(0.9979099631309509,-0.06461939215660095,0.03877163678407669,0.5987460017204285,10.169520378112793,23.41969108581543)"><path fill="rgb(54,106,93)" fill-opacity="1" d=" M-4.544000148773193,3.8570001125335693 C-4.544000148773193,3.8570001125335693 -2.6389999389648438,-2.013000011444092 5.138000011444092,-0.9890000224113464 C5.138000011444092,-0.9890000224113464 5.044000148773193,0.11599999666213989 4.572000026702881,1.50600004196167 C3.2829999923706055,5.297999858856201 -1.5219999551773071,6.485000133514404 -4.544000148773193,3.8570001125335693z"></path></g></g></g></g></g></svg>