<svg xmlns="http://www.w3.org/2000/svg" viewBox="0 0 87 37" width="87" height="37" preserveAspectRatio="xMidYMid meet" style="width: 100%; height: 100%; transform: translate3d(0px, 0px, 0px); content-visibility: visible;"><defs><clipPath id="__lottie_element_3016"><rect width="87" height="37" x="0" y="0"></rect></clipPath><mask id="__lottie_element_3024" mask-type="alpha"><g transform="matrix(0.09932933747768402,-0.00036091500078327954,0.0005437160725705326,0.14963901042938232,18.196287155151367,30.267932891845703)" opacity="1" style="display: block;"><g opacity="1" transform="matrix(1,0,0,1,0,0)"><path fill="rgb(255,0,0)" fill-opacity="1" d=" M50,-50 C50,-50 50,50 50,50 C50,50 -50,50 -50,50 C-50,50 -50,-50 -50,-50 C-50,-50 50,-50 50,-50z"></path></g></g></mask><clipPath id="__lottie_element_3028"><path d="M0,0 L120,0 L120,200 L0,200z"></path></clipPath><clipPath id="__lottie_element_3032"><path d="M0,0 L120,0 L120,200 L0,200z"></path></clipPath></defs><g clip-path="url(#__lottie_element_3016)"><g clip-path="url(#__lottie_element_3028)" transform="matrix(0.00029998127138242126,0.08255945146083832,-0.08255945146083832,0.00029998127138242126,86.61637878417969,22.3067569732666)" opacity="1" style="display: block;"><g transform="matrix(1.736913800239563,0,0,1.64384925365448,68.54374694824219,154.08377075195312)" opacity="1" style="display: block;"><g opacity="1" transform="matrix(0.7071067690849304,0.7071067690849304,-0.7071067690849304,0.7071067690849304,0,0)"><path fill="rgb(241,132,46)" fill-opacity="1" d=" M13.234999656677246,-5.26200008392334 C16.320999145507812,10.369000434875488 17.141000747680664,12.991000175476074 14.925999641418457,15.074000358581543 C12.772000312805176,17.099000930786133 9.807999610900879,16.118000030517578 -5.261000156402588,13.234999656677246 C-7.544000148773193,12.79800033569336 -9.51200008392334,10.890000343322754 -10.26099967956543,8.234999656677246 C-11.010000228881836,5.579999923706055 -17.5,-12.5 -17.5,-12.5 C-18.981000900268555,-16.92099952697754 -16.566999435424805,-18.969999313354492 -12.5,-17.5 C-12.5,-17.5 5.738999843597412,-11.053999900817871 8.234999656677246,-10.26099967956543 C10.730999946594238,-9.468000411987305 12.685999870300293,-8.041000366210938 13.234999656677246,-5.26200008392334z"></path></g></g><g transform="matrix(1.1933423280715942,0,0,1.1481958627700806,58.998050689697266,161.09512329101562)" opacity="1" style="display: block;"><g opacity="1" transform="matrix(0.7071067690849304,0.7071067690849304,-0.7071067690849304,0.7071067690849304,0,0)"><path fill="rgb(251,180,67)" fill-opacity="1" d=" M13.234999656677246,-5.26200008392334 C16.320999145507812,10.369000434875488 17.141000747680664,12.991000175476074 14.925999641418457,15.074000358581543 C12.772000312805176,17.099000930786133 9.807999610900879,16.118000030517578 -5.261000156402588,13.234999656677246 C-7.544000148773193,12.79800033569336 -9.51200008392334,10.890000343322754 -10.26099967956543,8.234999656677246 C-11.010000228881836,5.579999923706055 -17.5,-12.5 -17.5,-12.5 C-18.981000900268555,-16.92099952697754 -16.566999435424805,-18.969999313354492 -12.5,-17.5 C-12.5,-17.5 5.738999843597412,-11.053999900817871 8.234999656677246,-10.26099967956543 C10.730999946594238,-9.468000411987305 12.685999870300293,-8.041000366210938 13.234999656677246,-5.26200008392334z"></path></g></g><g transform="matrix(0.48333999514579773,0,0,0.48333999514579773,53.98800277709961,187.63800048828125)" opacity="1" style="display: block;"><g opacity="1" transform="matrix(0.7071067690849304,0.7071067690849304,-0.7071067690849304,0.7071067690849304,0,0)"><path fill="rgb(255,202,77)" fill-opacity="1" d=" M13.234999656677246,-5.26200008392334 C16.320999145507812,10.369000434875488 17.141000747680664,12.991000175476074 14.925999641418457,15.074000358581543 C12.772000312805176,17.099000930786133 9.807999610900879,16.118000030517578 -5.261000156402588,13.234999656677246 C-7.544000148773193,12.79800033569336 -9.51200008392334,10.890000343322754 -10.26099967956543,8.234999656677246 C-11.010000228881836,5.579999923706055 -17.5,-12.5 -17.5,-12.5 C-18.981000900268555,-16.92099952697754 -16.566999435424805,-18.969999313354492 -12.5,-17.5 C-12.5,-17.5 5.738999843597412,-11.053999900817871 8.234999656677246,-10.26099967956543 C10.730999946594238,-9.468000411987305 12.685999870300293,-8.041000366210938 13.234999656677246,-5.26200008392334z"></path></g></g></g><g clip-path="url(#__lottie_element_3032)" transform="matrix(0.00029998127138242126,0.08255945146083832,-0.08255945146083832,0.00029998127138242126,86.57583618164062,11.148331642150879)" opacity="1" style="display: block;"><g transform="matrix(1.860927700996399,0,0,1.7551685571670532,69.83435821533203,155.5612030029297)" opacity="1" style="display: block;"><g opacity="1" transform="matrix(0.7071067690849304,0.7071067690849304,-0.7071067690849304,0.7071067690849304,0,0)"><path fill="rgb(237,110,36)" fill-opacity="1" d=" M13.234999656677246,-5.26200008392334 C16.320999145507812,10.369000434875488 17.141000747680664,12.991000175476074 14.925999641418457,15.074000358581543 C12.772000312805176,17.099000930786133 9.807999610900879,16.118000030517578 -5.261000156402588,13.234999656677246 C-7.544000148773193,12.79800033569336 -9.51200008392334,10.890000343322754 -10.26099967956543,8.234999656677246 C-11.010000228881836,5.579999923706055 -17.5,-12.5 -17.5,-12.5 C-18.981000900268555,-16.92099952697754 -16.566999435424805,-18.969999313354492 -12.5,-17.5 C-12.5,-17.5 5.738999843597412,-11.053999900817871 8.234999656677246,-10.26099967956543 C10.730999946594238,-9.468000411987305 12.685999870300293,-8.041000366210938 13.234999656677246,-5.26200008392334z"></path></g></g><g transform="matrix(1.5210797786712646,0,0,1.4485291242599487,56.40837860107422,155.41773986816406)" opacity="1" style="display: block;"><g opacity="1" transform="matrix(0.7071067690849304,0.7071067690849304,-0.7071067690849304,0.7071067690849304,0,0)"><path fill="rgb(246,157,57)" fill-opacity="1" d=" M13.234999656677246,-5.26200008392334 C16.320999145507812,10.369000434875488 17.141000747680664,12.991000175476074 14.925999641418457,15.074000358581543 C12.772000312805176,17.099000930786133 9.807999610900879,16.118000030517578 -5.261000156402588,13.234999656677246 C-7.544000148773193,12.79800033569336 -9.51200008392334,10.890000343322754 -10.26099967956543,8.234999656677246 C-11.010000228881836,5.579999923706055 -17.5,-12.5 -17.5,-12.5 C-18.981000900268555,-16.92099952697754 -16.566999435424805,-18.969999313354492 -12.5,-17.5 C-12.5,-17.5 5.738999843597412,-11.053999900817871 8.234999656677246,-10.26099967956543 C10.730999946594238,-9.468000411987305 12.685999870300293,-8.041000366210938 13.234999656677246,-5.26200008392334z"></path></g></g><g transform="matrix(0.7660578489303589,0,0,0.7494639158248901,58.68399429321289,172.04139709472656)" opacity="1" style="display: block;"><g opacity="1" transform="matrix(0.7071067690849304,0.7071067690849304,-0.7071067690849304,0.7071067690849304,0,0)"><path fill="rgb(253,196,74)" fill-opacity="1" d=" M13.234999656677246,-5.26200008392334 C16.320999145507812,10.369000434875488 17.141000747680664,12.991000175476074 14.925999641418457,15.074000358581543 C12.772000312805176,17.099000930786133 9.807999610900879,16.118000030517578 -5.261000156402588,13.234999656677246 C-7.544000148773193,12.79800033569336 -9.51200008392334,10.890000343322754 -10.26099967956543,8.234999656677246 C-11.010000228881836,5.579999923706055 -17.5,-12.5 -17.5,-12.5 C-18.981000900268555,-16.92099952697754 -16.566999435424805,-18.969999313354492 -12.5,-17.5 C-12.5,-17.5 5.738999843597412,-11.053999900817871 8.234999656677246,-10.26099967956543 C10.730999946594238,-9.468000411987305 12.685999870300293,-8.041000366210938 13.234999656677246,-5.26200008392334z"></path></g></g></g><g mask="url(#__lottie_element_3024)" style="display: block;"><g transform="matrix(0.2579982876777649,-0.000937441538553685,0.000937441538553685,0.2579982876777649,0.6476572751998901,4.740765571594238)" opacity="1"><g opacity="1" transform="matrix(1,0,0,1,71.45500183105469,94.33699798583984)"><path stroke-linecap="round" stroke-linejoin="round" fill-opacity="0" stroke="rgb(78,67,95)" stroke-opacity="1" stroke-width="6" d=" M5.017000198364258,-25.336000442504883 C5.017000198364258,-25.336000442504883 5.017000198364258,-5.4730000495910645 5.017000198364258,-5.4730000495910645 C5.017000198364258,-5.4730000495910645 -5.017000198364258,25.336000442504883 -5.017000198364258,25.336000442504883"></path></g><g opacity="1" transform="matrix(1,0,0,1,0,0)"><path stroke-linecap="round" stroke-linejoin="round" fill-opacity="0" stroke="rgb(78,67,95)" stroke-opacity="1" stroke-width="6" d=" M57.43199920654297,119.6729965209961 C57.43199920654297,119.6729965209961 76.5459976196289,119.6729965209961 76.5459976196289,119.6729965209961"></path></g></g></g><g transform="matrix(0.2579982876777649,-0.000937441538553685,0.000937441538553685,0.2579982876777649,0.6476572751998901,4.740765571594238)" opacity="1" style="display: block;"><g opacity="1" transform="matrix(1,0,0,1,189.59800720214844,63.99800109863281)"><path fill="rgb(139,124,141)" fill-opacity="1" d=" M-40.1879997253418,-10.053999900817871 C-40.1879997253418,-10.053999900817871 -22.684999465942383,-19.485000610351562 -22.684999465942383,-19.485000610351562 C-22.684999465942383,-19.485000610351562 19.819000244140625,-33.20000076293945 19.819000244140625,-33.20000076293945 C19.819000244140625,-33.20000076293945 34.20800018310547,-24.000999450683594 34.20800018310547,-24.000999450683594 C34.20800018310547,-24.000999450683594 40.1879997253418,-15.057999610900879 40.1879997253418,-15.057999610900879 C40.1879997253418,-15.057999610900879 40.1879997253418,15.057000160217285 40.1879997253418,15.057000160217285 C40.1879997253418,15.057000160217285 34.20800018310547,24 34.20800018310547,24 C34.20800018310547,24 19.819000244140625,33.20000076293945 19.819000244140625,33.20000076293945 C19.819000244140625,33.20000076293945 -22.684999465942383,22.43199920654297 -22.684999465942383,22.43199920654297 C-22.684999465942383,22.43199920654297 -40.1879997253418,20.06100082397461 -40.1879997253418,20.06100082397461 C-40.1879997253418,20.06100082397461 -40.1879997253418,-10.053999900817871 -40.1879997253418,-10.053999900817871z"></path></g><g opacity="1" transform="matrix(1,0,0,1,189.59800720214844,69.00199890136719)"><path fill="rgb(194,172,185)" fill-opacity="1" d=" M40.1879997253418,15.057000160217285 C40.1879997253418,15.057000160217285 -40.1879997253418,15.057000160217285 -40.1879997253418,15.057000160217285 C-40.1879997253418,15.057000160217285 -40.1879997253418,-15.057000160217285 -40.1879997253418,-15.057000160217285 C-40.1879997253418,-15.057000160217285 40.1879997253418,-15.057000160217285 40.1879997253418,-15.057000160217285 C40.1879997253418,-15.057000160217285 40.1879997253418,15.057000160217285 40.1879997253418,15.057000160217285z"></path></g><g opacity="1" transform="matrix(1,0,0,1,233.34500122070312,69.00199890136719)"><path fill="rgb(139,124,141)" fill-opacity="1" d=" M-3.558000087738037,15.057000160217285 C-3.558000087738037,15.057000160217285 3.558000087738037,11.253999710083008 3.558000087738037,11.253999710083008 C3.558000087738037,11.253999710083008 3.558000087738037,-11.253999710083008 3.558000087738037,-11.253999710083008 C3.558000087738037,-11.253999710083008 -3.558000087738037,-15.057000160217285 -3.558000087738037,-15.057000160217285 C-3.558000087738037,-15.057000160217285 -3.558000087738037,15.057000160217285 -3.558000087738037,15.057000160217285z"></path></g><g opacity="1" transform="matrix(1,0,0,1,190.0780029296875,67.33599853515625)"><path fill="rgb(139,124,141)" fill-opacity="1" d=" M23.163999557495117,5.755000114440918 C23.163999557495117,5.755000114440918 -23.163999557495117,5.755000114440918 -23.163999557495117,5.755000114440918 C-23.163999557495117,5.755000114440918 -23.163999557495117,-5.755000114440918 -23.163999557495117,-5.755000114440918 C-23.163999557495117,-5.755000114440918 23.163999557495117,-5.755000114440918 23.163999557495117,-5.755000114440918 C23.163999557495117,-5.755000114440918 23.163999557495117,5.755000114440918 23.163999557495117,5.755000114440918z"></path></g><g opacity="1" transform="matrix(1,0,0,1,74.83000183105469,69.00199890136719)"><path fill="rgb(212,195,206)" fill-opacity="1" d=" M-74.58000183105469,0 C-74.58000183105469,0 -18.423999786376953,8.734000205993652 -18.423999786376953,8.734000205993652 C-18.423999786376953,8.734000205993652 74.58000183105469,15.057000160217285 74.58000183105469,15.057000160217285 C74.58000183105469,15.057000160217285 74.58000183105469,-15.057000160217285 74.58000183105469,-15.057000160217285 C74.58000183105469,-15.057000160217285 -74.58000183105469,-4.915999889373779 -74.58000183105469,-4.915999889373779 C-74.58000183105469,-4.915999889373779 -74.58000183105469,0 -74.58000183105469,0z"></path></g><g opacity="1" transform="matrix(1,0,0,1,66.43900299072266,69.00199890136719)"><path fill="rgb(19,128,193)" fill-opacity="1" d=" M-10.031999588012695,8.734000205993652 C-10.031999588012695,8.734000205993652 10.031999588012695,10.097999572753906 10.031999588012695,10.097999572753906 C10.031999588012695,10.097999572753906 10.031999588012695,-10.097999572753906 10.031999588012695,-10.097999572753906 C10.031999588012695,-10.097999572753906 -10.031999588012695,-8.734000205993652 -10.031999588012695,-8.734000205993652 C-10.031999588012695,-8.734000205993652 -10.031999588012695,8.734000205993652 -10.031999588012695,8.734000205993652z"></path></g><g opacity="1" transform="matrix(1,0,0,1,116.04499816894531,58.90299987792969)"><path fill="rgb(78,67,95)" fill-opacity="1" d=" M16.854000091552734,-6.166999816894531 C16.854000091552734,-6.166999816894531 -16.854000091552734,-6.166999816894531 -16.854000091552734,-6.166999816894531 C-20.2450008392334,-6.166999816894531 -23.020999908447266,-3.3910000324249268 -23.020999908447266,0.0010000000474974513 C-23.020999908447266,3.3919999599456787 -20.2450008392334,6.166999816894531 -16.854000091552734,6.166999816894531 C-16.854000091552734,6.166999816894531 16.854000091552734,6.166999816894531 16.854000091552734,6.166999816894531 C20.246000289916992,6.166999816894531 23.020999908447266,3.3919999599456787 23.020999908447266,0.0010000000474974513 C23.020999908447266,-3.3910000324249268 20.246000289916992,-6.166999816894531 16.854000091552734,-6.166999816894531z"></path></g><g opacity="1" transform="matrix(1,0,0,1,257.20001220703125,45.808998107910156)"><path fill="rgb(212,195,206)" fill-opacity="1" d=" M7.373000144958496,-6.867000102996826 C7.373000144958496,-6.867000102996826 -7.373000144958496,-6.867000102996826 -7.373000144958496,-6.867000102996826 C-7.373000144958496,-6.867000102996826 -7.373000144958496,6.867000102996826 -7.373000144958496,6.867000102996826 C-7.373000144958496,6.867000102996826 7.373000144958496,6.867000102996826 7.373000144958496,6.867000102996826 C7.373000144958496,6.867000102996826 7.373000144958496,-6.867000102996826 7.373000144958496,-6.867000102996826z"></path></g><g opacity="1" transform="matrix(1,0,0,1,185.97500610351562,45.810001373291016)"><path fill="rgb(212,195,206)" fill-opacity="1" d=" M19.062000274658203,15.770999908447266 C19.062000274658203,15.770999908447266 -19.062000274658203,15.770999908447266 -19.062000274658203,15.770999908447266 C-19.062000274658203,15.770999908447266 -19.062000274658203,-15.770999908447266 -19.062000274658203,-15.770999908447266 C-19.062000274658203,-15.770999908447266 19.062000274658203,-15.770999908447266 19.062000274658203,-15.770999908447266 C19.062000274658203,-15.770999908447266 19.062000274658203,15.770999908447266 19.062000274658203,15.770999908447266z"></path></g><g opacity="1" transform="matrix(1,0,0,1,227.4320068359375,45.808998107910156)"><path fill="rgb(174,153,164)" fill-opacity="1" d=" M-22.395000457763672,9.199000358581543 C-22.395000457763672,9.199000358581543 22.395000457763672,9.199000358581543 22.395000457763672,9.199000358581543 C22.395000457763672,9.199000358581543 22.395000457763672,-9.199000358581543 22.395000457763672,-9.199000358581543 C22.395000457763672,-9.199000358581543 -22.395000457763672,-9.199000358581543 -22.395000457763672,-9.199000358581543 C-22.395000457763672,-9.199000358581543 -22.395000457763672,9.199000358581543 -22.395000457763672,9.199000358581543z"></path></g><g opacity="1" transform="matrix(1,0,0,1,269.3169860839844,45.810001373291016)"><path fill="rgb(78,67,95)" fill-opacity="1" d=" M-4.74399995803833,5.749000072479248 C-4.74399995803833,5.749000072479248 4.74399995803833,5.749000072479248 4.74399995803833,5.749000072479248 C4.74399995803833,5.749000072479248 4.74399995803833,-5.749000072479248 4.74399995803833,-5.749000072479248 C4.74399995803833,-5.749000072479248 -4.74399995803833,-5.749000072479248 -4.74399995803833,-5.749000072479248 C-4.74399995803833,-5.749000072479248 -4.74399995803833,5.749000072479248 -4.74399995803833,5.749000072479248z"></path></g><g opacity="1" transform="matrix(1,0,0,1,207.36000061035156,40.83700180053711)"><path fill="rgb(139,124,141)" fill-opacity="1" d=" M31.284000396728516,-22.22800064086914 C31.284000396728516,-22.22800064086914 -1.5240000486373901,-22.22800064086914 -1.5240000486373901,-22.22800064086914 C-1.5240000486373901,-22.22800064086914 -31.284000396728516,22.22800064086914 -31.284000396728516,22.22800064086914 C-31.284000396728516,22.22800064086914 5.881999969482422,22.22800064086914 5.881999969482422,22.22800064086914 C5.881999969482422,22.22800064086914 5.881999969482422,14.345000267028809 5.881999969482422,14.345000267028809 C5.881999969482422,14.345000267028809 23.6299991607666,14.345000267028809 23.6299991607666,14.345000267028809 C23.6299991607666,14.345000267028809 31.284000396728516,-22.22800064086914 31.284000396728516,-22.22800064086914z"></path></g><g opacity="1" transform="matrix(1,0,0,1,198.36099243164062,40.83700180053711)"><path fill="rgb(0,97,160)" fill-opacity="1" d=" M22.285999298095703,-22.22800064086914 C22.285999298095703,-22.22800064086914 7.474999904632568,-22.22800064086914 7.474999904632568,-22.22800064086914 C7.474999904632568,-22.22800064086914 -22.285999298095703,22.22800064086914 -22.285999298095703,22.22800064086914 C-22.285999298095703,22.22800064086914 2.2699999809265137,22.22800064086914 2.2699999809265137,22.22800064086914 C2.2699999809265137,22.22800064086914 22.285999298095703,-22.22800064086914 22.285999298095703,-22.22800064086914z"></path></g><g opacity="1" transform="matrix(1,0,0,1,243.6699981689453,15.00100040435791)"><path fill="rgb(78,67,95)" fill-opacity="1" d=" M3.757999897003174,-2.7790000438690186 C3.757999897003174,-2.7790000438690186 -3.757999897003174,-2.7790000438690186 -3.757999897003174,-2.7790000438690186 C-3.757999897003174,-2.7790000438690186 -3.757999897003174,2.7790000438690186 -3.757999897003174,2.7790000438690186 C-3.757999897003174,2.7790000438690186 3.757999897003174,2.7790000438690186 3.757999897003174,2.7790000438690186 C3.757999897003174,2.7790000438690186 3.757999897003174,-2.7790000438690186 3.757999897003174,-2.7790000438690186z"></path></g><g opacity="1" transform="matrix(1,0,0,1,246.2270050048828,15)"><path fill="rgb(78,67,95)" fill-opacity="1" d=" M1.0290000438690186,-4.5980000495910645 C1.0290000438690186,-4.5980000495910645 -1.0290000438690186,-4.5980000495910645 -1.0290000438690186,-4.5980000495910645 C-1.8730000257492065,-4.5980000495910645 -2.556999921798706,-3.9119999408721924 -2.556999921798706,-3.069000005722046 C-2.556999921798706,-3.069000005722046 -2.556999921798706,3.069999933242798 -2.556999921798706,3.069999933242798 C-2.556999921798706,3.9140000343322754 -1.8730000257492065,4.5980000495910645 -1.0290000438690186,4.5980000495910645 C-1.0290000438690186,4.5980000495910645 1.0290000438690186,4.5980000495910645 1.0290000438690186,4.5980000495910645 C1.8730000257492065,4.5980000495910645 2.556999921798706,3.9140000343322754 2.556999921798706,3.069999933242798 C2.556999921798706,3.069999933242798 2.556999921798706,-3.069000005722046 2.556999921798706,-3.069000005722046 C2.556999921798706,-3.9119999408721924 1.8730000257492065,-4.5980000495910645 1.0290000438690186,-4.5980000495910645z"></path></g><g opacity="1" transform="matrix(1,0,0,1,0,0)"><path stroke-linecap="round" stroke-linejoin="round" fill-opacity="0" stroke="rgb(78,67,95)" stroke-opacity="1" stroke-width="6" d=" M220.64700317382812,15 C220.64700317382812,15 128.14100646972656,15 128.14100646972656,15"></path></g><g opacity="1" transform="matrix(1,0,0,1,220.64700317382812,15.00100040435791)"><path fill="rgb(194,172,185)" fill-opacity="1" d=" M-19.264999389648438,-4.876999855041504 C-19.264999389648438,-4.876999855041504 19.264999389648438,-4.876999855041504 19.264999389648438,-4.876999855041504 C19.264999389648438,-4.876999855041504 19.264999389648438,4.876999855041504 19.264999389648438,4.876999855041504 C19.264999389648438,4.876999855041504 -19.264999389648438,4.876999855041504 -19.264999389648438,4.876999855041504 C-19.264999389648438,4.876999855041504 -19.264999389648438,-4.876999855041504 -19.264999389648438,-4.876999855041504z"></path></g><g opacity="1" transform="matrix(1,0,0,1,196.93299865722656,15)"><path fill="rgb(212,195,206)" fill-opacity="1" d=" M4.449999809265137,-4.876999855041504 C4.449999809265137,-4.876999855041504 -4.449999809265137,-3.3919999599456787 -4.449999809265137,-3.3919999599456787 C-4.449999809265137,-3.3919999599456787 -4.449999809265137,3.3919999599456787 -4.449999809265137,3.3919999599456787 C-4.449999809265137,3.3919999599456787 4.449999809265137,4.876999855041504 4.449999809265137,4.876999855041504 C4.449999809265137,4.876999855041504 4.449999809265137,-4.876999855041504 4.449999809265137,-4.876999855041504z"></path></g><g opacity="1" transform="matrix(1,0,0,1,257.20001220703125,88.86399841308594)"><path fill="rgb(212,195,206)" fill-opacity="1" d=" M7.373000144958496,6.867000102996826 C7.373000144958496,6.867000102996826 -7.373000144958496,6.867000102996826 -7.373000144958496,6.867000102996826 C-7.373000144958496,6.867000102996826 -7.373000144958496,-6.867000102996826 -7.373000144958496,-6.867000102996826 C-7.373000144958496,-6.867000102996826 7.373000144958496,-6.867000102996826 7.373000144958496,-6.867000102996826 C7.373000144958496,-6.867000102996826 7.373000144958496,6.867000102996826 7.373000144958496,6.867000102996826z"></path></g><g opacity="1" transform="matrix(1,0,0,1,185.97500610351562,88.86299896240234)"><path fill="rgb(212,195,206)" fill-opacity="1" d=" M19.062000274658203,-15.772000312805176 C19.062000274658203,-15.772000312805176 -19.062000274658203,-15.772000312805176 -19.062000274658203,-15.772000312805176 C-19.062000274658203,-15.772000312805176 -19.062000274658203,15.772000312805176 -19.062000274658203,15.772000312805176 C-19.062000274658203,15.772000312805176 19.062000274658203,15.772000312805176 19.062000274658203,15.772000312805176 C19.062000274658203,15.772000312805176 19.062000274658203,-15.772000312805176 19.062000274658203,-15.772000312805176z"></path></g><g opacity="1" transform="matrix(1,0,0,1,227.4320068359375,88.86299896240234)"><path fill="rgb(174,153,164)" fill-opacity="1" d=" M-22.395000457763672,-9.197999954223633 C-22.395000457763672,-9.197999954223633 22.395000457763672,-9.197999954223633 22.395000457763672,-9.197999954223633 C22.395000457763672,-9.197999954223633 22.395000457763672,9.197999954223633 22.395000457763672,9.197999954223633 C22.395000457763672,9.197999954223633 -22.395000457763672,9.197999954223633 -22.395000457763672,9.197999954223633 C-22.395000457763672,9.197999954223633 -22.395000457763672,-9.197999954223633 -22.395000457763672,-9.197999954223633z"></path></g><g opacity="1" transform="matrix(1,0,0,1,269.3169860839844,88.86299896240234)"><path fill="rgb(78,67,95)" fill-opacity="1" d=" M-4.74399995803833,-5.749000072479248 C-4.74399995803833,-5.749000072479248 4.74399995803833,-5.749000072479248 4.74399995803833,-5.749000072479248 C4.74399995803833,-5.749000072479248 4.74399995803833,5.749000072479248 4.74399995803833,5.749000072479248 C4.74399995803833,5.749000072479248 -4.74399995803833,5.749000072479248 -4.74399995803833,5.749000072479248 C-4.74399995803833,5.749000072479248 -4.74399995803833,-5.749000072479248 -4.74399995803833,-5.749000072479248z"></path></g><g opacity="1" transform="matrix(1,0,0,1,207.36000061035156,93.83599853515625)"><path fill="rgb(212,195,206)" fill-opacity="1" d=" M31.284000396728516,22.226999282836914 C31.284000396728516,22.226999282836914 -1.5240000486373901,22.226999282836914 -1.5240000486373901,22.226999282836914 C-1.5240000486373901,22.226999282836914 -31.284000396728516,-22.226999282836914 -31.284000396728516,-22.226999282836914 C-31.284000396728516,-22.226999282836914 5.881999969482422,-22.226999282836914 5.881999969482422,-22.226999282836914 C5.881999969482422,-22.226999282836914 5.881999969482422,-14.343999862670898 5.881999969482422,-14.343999862670898 C5.881999969482422,-14.343999862670898 23.6299991607666,-14.343999862670898 23.6299991607666,-14.343999862670898 C23.6299991607666,-14.343999862670898 31.284000396728516,22.226999282836914 31.284000396728516,22.226999282836914z"></path></g><g opacity="1" transform="matrix(1,0,0,1,198.36099243164062,93.83599853515625)"><path fill="rgb(19,128,193)" fill-opacity="1" d=" M22.285999298095703,22.226999282836914 C22.285999298095703,22.226999282836914 7.474999904632568,22.226999282836914 7.474999904632568,22.226999282836914 C7.474999904632568,22.226999282836914 -22.285999298095703,-22.226999282836914 -22.285999298095703,-22.226999282836914 C-22.285999298095703,-22.226999282836914 2.2699999809265137,-22.226999282836914 2.2699999809265137,-22.226999282836914 C2.2699999809265137,-22.226999282836914 22.285999298095703,22.226999282836914 22.285999298095703,22.226999282836914z"></path></g><g opacity="1" transform="matrix(1,0,0,1,243.6699981689453,119.6729965209961)"><path fill="rgb(78,67,95)" fill-opacity="1" d=" M3.757999897003174,2.7790000438690186 C3.757999897003174,2.7790000438690186 -3.757999897003174,2.7790000438690186 -3.757999897003174,2.7790000438690186 C-3.757999897003174,2.7790000438690186 -3.757999897003174,-2.7790000438690186 -3.757999897003174,-2.7790000438690186 C-3.757999897003174,-2.7790000438690186 3.757999897003174,-2.7790000438690186 3.757999897003174,-2.7790000438690186 C3.757999897003174,-2.7790000438690186 3.757999897003174,2.7790000438690186 3.757999897003174,2.7790000438690186z"></path></g><g opacity="1" transform="matrix(1,0,0,1,246.2270050048828,119.6729965209961)"><path fill="rgb(78,67,95)" fill-opacity="1" d=" M1.0290000438690186,4.5970001220703125 C1.0290000438690186,4.5970001220703125 -1.0290000438690186,4.5970001220703125 -1.0290000438690186,4.5970001220703125 C-1.8730000257492065,4.5970001220703125 -2.556999921798706,3.9140000343322754 -2.556999921798706,3.069999933242798 C-2.556999921798706,3.069999933242798 -2.556999921798706,-3.069999933242798 -2.556999921798706,-3.069999933242798 C-2.556999921798706,-3.9140000343322754 -1.8730000257492065,-4.5970001220703125 -1.0290000438690186,-4.5970001220703125 C-1.0290000438690186,-4.5970001220703125 1.0290000438690186,-4.5970001220703125 1.0290000438690186,-4.5970001220703125 C1.8730000257492065,-4.5970001220703125 2.556999921798706,-3.9140000343322754 2.556999921798706,-3.069999933242798 C2.556999921798706,-3.069999933242798 2.556999921798706,3.069999933242798 2.556999921798706,3.069999933242798 C2.556999921798706,3.9140000343322754 1.8730000257492065,4.5970001220703125 1.0290000438690186,4.5970001220703125z"></path></g><g opacity="1" transform="matrix(1,0,0,1,0,0)"><path stroke-linecap="round" stroke-linejoin="round" fill-opacity="0" stroke="rgb(78,67,95)" stroke-opacity="1" stroke-width="6" d=" M220.64700317382812,119.6729965209961 C220.64700317382812,119.6729965209961 128.14100646972656,119.6729965209961 128.14100646972656,119.6729965209961"></path></g><g opacity="1" transform="matrix(1,0,0,1,220.64700317382812,119.6719970703125)"><path fill="rgb(194,172,185)" fill-opacity="1" d=" M-19.264999389648438,4.876999855041504 C-19.264999389648438,4.876999855041504 19.264999389648438,4.876999855041504 19.264999389648438,4.876999855041504 C19.264999389648438,4.876999855041504 19.264999389648438,-4.876999855041504 19.264999389648438,-4.876999855041504 C19.264999389648438,-4.876999855041504 -19.264999389648438,-4.876999855041504 -19.264999389648438,-4.876999855041504 C-19.264999389648438,-4.876999855041504 -19.264999389648438,4.876999855041504 -19.264999389648438,4.876999855041504z"></path></g><g opacity="1" transform="matrix(1,0,0,1,196.93299865722656,119.6729965209961)"><path fill="rgb(212,195,206)" fill-opacity="1" d=" M4.449999809265137,4.876999855041504 C4.449999809265137,4.876999855041504 -4.449999809265137,3.3919999599456787 -4.449999809265137,3.3919999599456787 C-4.449999809265137,3.3919999599456787 -4.449999809265137,-3.3919999599456787 -4.449999809265137,-3.3919999599456787 C-4.449999809265137,-3.3919999599456787 4.449999809265137,-4.876999855041504 4.449999809265137,-4.876999855041504 C4.449999809265137,-4.876999855041504 4.449999809265137,4.876999855041504 4.449999809265137,4.876999855041504z"></path></g><g opacity="1" transform="matrix(1,0,0,1,169.531005859375,45.810001373291016)"><path fill="rgb(19,128,193)" fill-opacity="1" d=" M2.617000102996826,15.770999908447266 C2.617000102996826,15.770999908447266 -2.617000102996826,15.770999908447266 -2.617000102996826,15.770999908447266 C-2.617000102996826,15.770999908447266 -2.617000102996826,-15.770999908447266 -2.617000102996826,-15.770999908447266 C-2.617000102996826,-15.770999908447266 2.617000102996826,-15.770999908447266 2.617000102996826,-15.770999908447266 C2.617000102996826,-15.770999908447266 2.617000102996826,15.770999908447266 2.617000102996826,15.770999908447266z"></path></g><g opacity="1" transform="matrix(1,0,0,1,169.531005859375,88.86299896240234)"><path fill="rgb(19,128,193)" fill-opacity="1" d=" M2.617000102996826,15.772000312805176 C2.617000102996826,15.772000312805176 -2.617000102996826,15.772000312805176 -2.617000102996826,15.772000312805176 C-2.617000102996826,15.772000312805176 -2.617000102996826,-15.772000312805176 -2.617000102996826,-15.772000312805176 C-2.617000102996826,-15.772000312805176 2.617000102996826,-15.772000312805176 2.617000102996826,-15.772000312805176 C2.617000102996826,-15.772000312805176 2.617000102996826,15.772000312805176 2.617000102996826,15.772000312805176z"></path></g></g></g></svg>