<svg xmlns="http://www.w3.org/2000/svg" viewBox="0 0 45 42" width="45" height="42" preserveAspectRatio="xMidYMid meet" style="width: 100%; height: 100%; transform: translate3d(0px, 0px, 0px); content-visibility: visible;"><defs><clipPath id="__lottie_element_4207"><rect width="45" height="42" x="0" y="0"></rect></clipPath><mask id="__lottie_element_4212" mask-type="alpha"><g transform="matrix(0.22880728542804718,0,0,0.257999986410141,-449.6860656738281,453.9549865722656)" opacity="1" style="display: block;"><g opacity="1" transform="matrix(1.5079900026321411,0,0,1,2035.18994140625,-1689.27099609375)"><path fill="rgb(51,186,157)" fill-opacity="1" d=" M31.055500030517578,-49.290000915527344 C31.055500030517578,-49.290000915527344 31.055500030517578,49.290000915527344 31.055500030517578,49.290000915527344 C31.055500030517578,49.290000915527344 -31.055500030517578,49.290000915527344 -31.055500030517578,49.290000915527344 C-31.055500030517578,49.290000915527344 -31.055500030517578,-49.290000915527344 -31.055500030517578,-49.290000915527344 C-31.055500030517578,-49.290000915527344 31.055500030517578,-49.290000915527344 31.055500030517578,-49.290000915527344z"></path><path stroke-linecap="butt" stroke-linejoin="miter" fill-opacity="0" stroke-miterlimit="4" stroke="rgb(184,228,250)" stroke-opacity="1" stroke-width="0" d=" M31.055500030517578,-49.290000915527344 C31.055500030517578,-49.290000915527344 31.055500030517578,49.290000915527344 31.055500030517578,49.290000915527344 C31.055500030517578,49.290000915527344 -31.055500030517578,49.290000915527344 -31.055500030517578,49.290000915527344 C-31.055500030517578,49.290000915527344 -31.055500030517578,-49.290000915527344 -31.055500030517578,-49.290000915527344 C-31.055500030517578,-49.290000915527344 31.055500030517578,-49.290000915527344 31.055500030517578,-49.290000915527344z"></path></g></g></mask><mask id="__lottie_element_4218" mask-type="alpha"><g transform="matrix(0.257999986410141,0,0,0.257999986410141,-508.91796875,453.9549865722656)" opacity="1" style="display: block;"><g opacity="1" transform="matrix(0.3414500057697296,0,0,1,2039.3260498046875,-1672.113037109375)"><path fill="rgb(246,151,100)" fill-opacity="1" d=" M143.9044952392578,-72.35150146484375 C143.9044952392578,-72.35150146484375 143.9044952392578,72.35150146484375 143.9044952392578,72.35150146484375 C143.9044952392578,72.35150146484375 -143.9044952392578,72.35150146484375 -143.9044952392578,72.35150146484375 C-143.9044952392578,72.35150146484375 -143.9044952392578,-72.35150146484375 -143.9044952392578,-72.35150146484375 C-143.9044952392578,-72.35150146484375 143.9044952392578,-72.35150146484375 143.9044952392578,-72.35150146484375z"></path><path stroke-linecap="butt" stroke-linejoin="miter" fill-opacity="0" stroke-miterlimit="4" stroke="rgb(184,228,250)" stroke-opacity="1" stroke-width="0" d=" M143.9044952392578,-72.35150146484375 C143.9044952392578,-72.35150146484375 143.9044952392578,72.35150146484375 143.9044952392578,72.35150146484375 C143.9044952392578,72.35150146484375 -143.9044952392578,72.35150146484375 -143.9044952392578,72.35150146484375 C-143.9044952392578,72.35150146484375 -143.9044952392578,-72.35150146484375 -143.9044952392578,-72.35150146484375 C-143.9044952392578,-72.35150146484375 143.9044952392578,-72.35150146484375 143.9044952392578,-72.35150146484375z"></path></g></g></mask></defs><g clip-path="url(#__lottie_element_4207)"><g mask="url(#__lottie_element_4212)" style="display: block;"><g transform="matrix(1.8059998750686646,0,0,1.8059998750686646,-77.36165618896484,-61.29912185668945)" opacity="1"><g opacity="1" transform="matrix(1,0,0,1,54.22200012207031,46.99400329589844)"><path fill="rgb(167,209,112)" fill-opacity="1" d=" M1.6829999685287476,-2.1630001068115234 C1.2760000228881836,-1.4199999570846558 0.2849999964237213,0.45899999141693115 0.2849999964237213,0.45899999141693115 C0.2849999964237213,0.45899999141693115 -2.319999933242798,-1.0360000133514404 -2.319999933242798,-1.0360000133514404 C-2.319999933242798,-1.0360000133514404 -2.878999948501587,-0.36800000071525574 -2.878999948501587,-0.36800000071525574 C-2.878999948501587,-0.36800000071525574 0.39100000262260437,2.1630001068115234 0.39100000262260437,2.1630001068115234 C0.39100000262260437,2.1630001068115234 2,0.028999999165534973 2.878999948501587,-0.8550000190734863 C4.090000152587891,-2.73799991607666 2.437999963760376,-2.815000057220459 1.6829999685287476,-2.1630001068115234z"></path></g><g opacity="1" transform="matrix(1,0,0,1,55.77299880981445,41.46500015258789)"><path fill="rgb(167,209,112)" fill-opacity="1" d=" M3.799999952316284,0 C3.799999952316284,-2.0989999771118164 2.0989999771118164,-3.799999952316284 0,-3.799999952316284 C-2.0989999771118164,-3.799999952316284 -3.799999952316284,-2.0989999771118164 -3.799999952316284,0 C-3.799999952316284,2.0989999771118164 -2.0989999771118164,3.799999952316284 0,3.799999952316284 C2.0989999771118164,3.799999952316284 3.799999952316284,2.0989999771118164 3.799999952316284,0z"></path></g><g opacity="1" transform="matrix(0.0895894318819046,-0.07015623152256012,0.07015623152256012,0.0895894318819046,54.70199966430664,41.827999114990234)"><path fill="rgb(245,245,236)" fill-opacity="1" d=" M18.5,0 C18.5,0 18.5,0 18.5,0 C18.5,10.210149765014648 10.210149765014648,18.5 0,18.5 C0,18.5 0,18.5 0,18.5 C-10.210149765014648,18.5 -18.5,10.210149765014648 -18.5,0 C-18.5,0 -18.5,0 -18.5,0 C-18.5,-10.210149765014648 -10.210149765014648,-18.5 0,-18.5 C0,-18.5 0,-18.5 0,-18.5 C10.210149765014648,-18.5 18.5,-10.210149765014648 18.5,0z"></path></g><g opacity="1" transform="matrix(0.0895894318819046,-0.07015623152256012,0.07015623152256012,0.0895894318819046,54.46900177001953,41.95800018310547)"><path fill="rgb(51,186,157)" fill-opacity="1" d=" M9,0 C9,0 9,0 9,0 C9,4.967100143432617 4.967100143432617,9 0,9 C0,9 0,9 0,9 C-4.967100143432617,9 -9,4.967100143432617 -9,0 C-9,0 -9,0 -9,0 C-9,-4.967100143432617 -4.967100143432617,-9 0,-9 C0,-9 0,-9 0,-9 C4.967100143432617,-9 9,-4.967100143432617 9,0z"></path></g><g opacity="1" transform="matrix(1,0,0,1,56.06800079345703,44.02299880981445)"><path fill="rgb(239,82,34)" fill-opacity="1" d=" M1.034999966621399,-1.1339999437332153 C1.034999966621399,-1.1339999437332153 0.44200000166893005,0.460999995470047 -1.1469999551773071,0.5170000195503235 C-1.1469999551773071,0.5170000195503235 0.3970000147819519,1.1339999437332153 1.1469999551773071,0.34599998593330383 C1.1469999551773071,0.34599998593330383 1.034999966621399,-1.1339999437332153 1.034999966621399,-1.1339999437332153z"></path></g></g></g><g mask="url(#__lottie_element_4218)" style="display: block;"><g transform="matrix(1.8059998750686646,0,0,1.8059998750686646,-77.36087799072266,-61.29912185668945)" opacity="1"><g opacity="1" transform="matrix(1,0,0,1,51.36800003051758,39.481998443603516)"><path fill="rgb(250,175,58)" fill-opacity="1" d=" M-0.6570000052452087,-0.21799999475479126 C-0.6570000052452087,-0.21799999475479126 0.2370000034570694,0.12999999523162842 0.2370000034570694,0.12999999523162842 C0.2370000034570694,0.12999999523162842 0.878000020980835,-1.3209999799728394 0.878000020980835,-1.3209999799728394 C0.878000020980835,-1.3209999799728394 1.0130000114440918,1.3209999799728394 1.0130000114440918,1.3209999799728394 C1.0130000114440918,1.3209999799728394 -1.0130000114440918,0.890999972820282 -1.0130000114440918,0.890999972820282 C-1.0130000114440918,0.890999972820282 -0.6570000052452087,-0.21799999475479126 -0.6570000052452087,-0.21799999475479126z"></path></g><g opacity="1" transform="matrix(1,0,0,1,47.020999908447266,37.23500061035156)"><path fill="rgb(250,175,58)" fill-opacity="1" d=" M1.1319999694824219,0.4309999942779541 C1.1319999694824219,0.4309999942779541 0.26899999380111694,0.012000000104308128 0.26899999380111694,0.012000000104308128 C0.26899999380111694,0.012000000104308128 0.8949999809265137,-1.4450000524520874 0.8949999809265137,-1.4450000524520874 C0.8949999809265137,-1.4450000524520874 -1.1319999694824219,0.25600001215934753 -1.1319999694824219,0.25600001215934753 C-1.1319999694824219,0.25600001215934753 0.5619999766349792,1.4450000524520874 0.5619999766349792,1.4450000524520874 C0.5619999766349792,1.4450000524520874 1.1319999694824219,0.4309999942779541 1.1319999694824219,0.4309999942779541z"></path></g><g opacity="1" transform="matrix(1,0,0,1,48.50400161743164,44.540000915527344)"><path fill="rgb(135,211,235)" fill-opacity="1" d=" M-3.740999937057495,-3.677000045776367 C-3.740999937057495,-3.677000045776367 -0.35199999809265137,-6.875 -0.35199999809265137,-6.875 C-0.35199999809265137,-6.875 2.2070000171661377,-5.276000022888184 2.2070000171661377,-5.276000022888184 C2.2070000171661377,-5.276000022888184 1.3109999895095825,-0.03200000151991844 1.3109999895095825,-0.03200000151991844 C1.3109999895095825,-0.03200000151991844 3.740999937057495,2.7179999351501465 3.740999937057495,2.7179999351501465 C3.740999937057495,2.7179999351501465 2.5260000228881836,5.070000171661377 2.5260000228881836,5.070000171661377 C2.5260000228881836,5.070000171661377 -3.4210000038146973,6.875 -3.4210000038146973,6.875 C-3.4210000038146973,6.875 -3.740999937057495,-3.677000045776367 -3.740999937057495,-3.677000045776367z"></path></g><g opacity="1" transform="matrix(1,0,0,1,51.37300109863281,46.19300079345703)"><path fill="rgb(255,222,177)" fill-opacity="1" d=" M-2.632999897003174,1.8240000009536743 C-2.632999897003174,1.8240000009536743 2.632999897003174,1.8240000009536743 2.632999897003174,1.8240000009536743 C2.632999897003174,1.8240000009536743 2.632999897003174,-1.8240000009536743 2.632999897003174,-1.8240000009536743 C2.632999897003174,-1.8240000009536743 -2.632999897003174,-1.8240000009536743 -2.632999897003174,-1.8240000009536743 C-2.632999897003174,-1.8240000009536743 -2.632999897003174,1.8240000009536743 -2.632999897003174,1.8240000009536743z"></path></g><g opacity="1" transform="matrix(0.6000000238418579,0,0,0.6000000238418579,14.250999450683594,19.690797805786133)"><path fill="rgb(136,212,235)" fill-opacity="1" d=" M59.47200012207031,45.31800079345703 C60.7130012512207,45.854000091552734 61.367000579833984,44.42399978637695 58.95500183105469,43.3650016784668 C56.74300003051758,42.393001556396484 54.54499816894531,46.25899887084961 56.99599838256836,47.73400115966797 C59.40999984741211,49.1870002746582 60.05400085449219,47.49300003051758 58.86800003051758,46.941001892089844 C59.999000549316406,47.5099983215332 60.7130012512207,45.854000091552734 59.47200012207031,45.31800079345703z"></path></g><g opacity="1" transform="matrix(0.1289261132478714,0.0764138326048851,-0.07296713441610336,0.1231108084321022,48.4010009765625,39.76599884033203)"><path fill="rgb(241,244,236)" fill-opacity="1" d=" M4.400000095367432,0 C4.400000095367432,0 4.400000095367432,0 4.400000095367432,0 C4.400000095367432,2.4283599853515625 2.4283599853515625,4.400000095367432 0,4.400000095367432 C0,4.400000095367432 0,4.400000095367432 0,4.400000095367432 C-2.4283599853515625,4.400000095367432 -4.400000095367432,2.4283599853515625 -4.400000095367432,0 C-4.400000095367432,0 -4.400000095367432,0 -4.400000095367432,0 C-4.400000095367432,-2.4283599853515625 -2.4283599853515625,-4.400000095367432 0,-4.400000095367432 C0,-4.400000095367432 0,-4.400000095367432 0,-4.400000095367432 C2.4283599853515625,-4.400000095367432 4.400000095367432,-2.4283599853515625 4.400000095367432,0z"></path></g><g opacity="1" transform="matrix(0.1289261132478714,0.0764138326048851,-0.07296713441610336,0.1231108084321022,49.737998962402344,40.48899841308594)"><path fill="rgb(241,244,236)" fill-opacity="1" d=" M4.400000095367432,0 C4.400000095367432,0 4.400000095367432,0 4.400000095367432,0 C4.400000095367432,2.4283599853515625 2.4283599853515625,4.400000095367432 0,4.400000095367432 C0,4.400000095367432 0,4.400000095367432 0,4.400000095367432 C-2.4283599853515625,4.400000095367432 -4.400000095367432,2.4283599853515625 -4.400000095367432,0 C-4.400000095367432,0 -4.400000095367432,0 -4.400000095367432,0 C-4.400000095367432,-2.4283599853515625 -2.4283599853515625,-4.400000095367432 0,-4.400000095367432 C0,-4.400000095367432 0,-4.400000095367432 0,-4.400000095367432 C2.4283599853515625,-4.400000095367432 4.400000095367432,-2.4283599853515625 4.400000095367432,0z"></path></g><g opacity="1" transform="matrix(1,0,0,1,48.86000061035156,41.66899871826172)"><path fill="rgb(29,153,212)" fill-opacity="1" d=" M0.6430000066757202,-0.20399999618530273 C0.6430000066757202,-0.20399999618530273 0.09700000286102295,0.6700000166893005 0.09700000286102295,0.6700000166893005 C0.09700000286102295,0.6700000166893005 -0.6430000066757202,-0.6700000166893005 -0.6430000066757202,-0.6700000166893005 C-0.6430000066757202,-0.6700000166893005 0.6430000066757202,-0.20399999618530273 0.6430000066757202,-0.20399999618530273z"></path></g></g></g><g transform="matrix(1.8059998750686646,0,0,1.8059998750686646,-77.36243438720703,-61.29808807373047)" opacity="1" style="display: block;"><g opacity="1" transform="matrix(1,0,0,1,51.428001403808594,45.590999603271484)"><path fill="rgb(51,186,157)" fill-opacity="1" d=" M-8.20300006866455,-11.196000099182129 C-8.20300006866455,-11.196000099182129 -7.14300012588501,11.196000099182129 -7.14300012588501,11.196000099182129 C-7.14300012588501,11.196000099182129 -4.669000148773193,11.196000099182129 -4.669000148773193,11.196000099182129 C-4.669000148773193,11.196000099182129 -4.669000148773193,-7.6620001792907715 -4.669000148773193,-7.6620001792907715 C-4.669000148773193,-7.6620001792907715 4.669000148773193,-7.6620001792907715 4.669000148773193,-7.6620001792907715 C4.669000148773193,-7.6620001792907715 4.669000148773193,11.196000099182129 4.669000148773193,11.196000099182129 C4.669000148773193,11.196000099182129 7.142000198364258,11.196000099182129 7.142000198364258,11.196000099182129 C7.142000198364258,11.196000099182129 8.20300006866455,-11.196000099182129 8.20300006866455,-11.196000099182129 C8.20300006866455,-11.196000099182129 -8.20300006866455,-11.196000099182129 -8.20300006866455,-11.196000099182129z"></path></g></g><g transform="matrix(1.7544000148773193,0,0,1.8059998750686646,-74.21266174316406,-61.29886245727539)" opacity="1" style="display: block;"><g opacity="1" transform="matrix(1,0,0,1,61.55699920654297,45.59000015258789)"><path fill="rgb(240,108,94)" fill-opacity="1" d=" M-5.460000038146973,11.196000099182129 C-5.460000038146973,11.196000099182129 -5.460000038146973,-7.660999774932861 -5.460000038146973,-7.660999774932861 C-5.460000038146973,-7.660999774932861 5.460000038146973,-11.196000099182129 5.460000038146973,-11.196000099182129 C5.460000038146973,-11.196000099182129 4.156000137329102,11.196000099182129 4.156000137329102,11.196000099182129 C4.156000137329102,11.196000099182129 -5.460000038146973,11.196000099182129 -5.460000038146973,11.196000099182129z"></path></g><g opacity="1" transform="matrix(1,0,0,1,59.17100143432617,43.143001556396484)"><path fill="rgb(244,134,118)" fill-opacity="1" d=" M1.2369999885559082,2.9019999504089355 C1.2369999885559082,2.9019999504089355 -1.3760000467300415,3.3499999046325684 -1.3760000467300415,3.3499999046325684 C-1.3760000467300415,3.3499999046325684 -1.3450000286102295,-1.1230000257492065 -1.3270000219345093,-1.6970000267028809 C-1.309000015258789,-2.2699999809265137 -1.0829999446868896,-2.75600004196167 0.00800000037997961,-3.052999973297119 C1.100000023841858,-3.3499999046325684 1.3760000467300415,-2.7860000133514404 1.3609999418258667,-2.1670000553131104 C1.3459999561309814,-1.5479999780654907 1.2369999885559082,2.9019999504089355 1.2369999885559082,2.9019999504089355z"></path></g><g opacity="1" transform="matrix(1,0,0,1,63.26300048828125,42.237998962402344)"><path fill="rgb(244,134,118)" fill-opacity="1" d=" M1.2170000076293945,3.1089999675750732 C1.2170000076293945,3.1089999675750732 -1.5119999647140503,3.5769999027252197 -1.5119999647140503,3.5769999027252197 C-1.5119999647140503,3.5769999027252197 -1.36899995803833,-1.1130000352859497 -1.3389999866485596,-1.8200000524520874 C-1.309999942779541,-2.5269999504089355 -1.00600004196167,-2.984999895095825 0.08299999684095383,-3.2809998989105225 C1.1710000038146973,-3.5769999027252197 1.5119999647140503,-3.128999948501587 1.4780000448226929,-2.4079999923706055 C1.444000005722046,-1.687000036239624 1.2170000076293945,3.1089999675750732 1.2170000076293945,3.1089999675750732z"></path></g><g opacity="1" transform="matrix(1,0,0,1,59.029998779296875,51.73699951171875)"><path fill="rgb(244,134,118)" fill-opacity="1" d=" M1.1660000085830688,2.996999979019165 C1.1660000085830688,2.996999979019165 -1.315000057220459,3.0789999961853027 -1.315000057220459,3.0789999961853027 C-1.315000057220459,3.0789999961853027 -1.2580000162124634,-2.74399995803833 -1.2580000162124634,-2.74399995803833 C-1.2580000162124634,-2.74399995803833 1.315000057220459,-3.0789999961853027 1.315000057220459,-3.0789999961853027 C1.315000057220459,-3.0789999961853027 1.1660000085830688,2.996999979019165 1.1660000085830688,2.996999979019165z"></path></g><g opacity="1" transform="matrix(1,0,0,1,62.90599822998047,51.415000915527344)"><path fill="rgb(244,134,118)" fill-opacity="1" d=" M1.1339999437332153,3.191999912261963 C1.1339999437332153,3.191999912261963 -1.440000057220459,3.2769999504089355 -1.440000057220459,3.2769999504089355 C-1.440000057220459,3.2769999504089355 -1.2410000562667847,-2.927999973297119 -1.2410000562667847,-2.927999973297119 C-1.2410000562667847,-2.927999973297119 1.440000057220459,-3.2769999504089355 1.440000057220459,-3.2769999504089355 C1.440000057220459,-3.2769999504089355 1.1339999437332153,3.191999912261963 1.1339999437332153,3.191999912261963z"></path></g><g opacity="1" transform="matrix(1,0,0,1,64.34700012207031,46.71500015258789)"><path fill="rgb(255,201,77)" fill-opacity="1" d=" M0.7379999756813049,0 C0.7379999756813049,-0.40799999237060547 0.40799999237060547,-0.7379999756813049 0,-0.7379999756813049 C-0.40799999237060547,-0.7379999756813049 -0.7379999756813049,-0.40799999237060547 -0.7379999756813049,0 C-0.7379999756813049,0.40799999237060547 -0.40799999237060547,0.7379999756813049 0,0.7379999756813049 C0.40799999237060547,0.7379999756813049 0.7379999756813049,0.40799999237060547 0.7379999756813049,0z"></path></g></g></g></svg>