<svg xmlns="http://www.w3.org/2000/svg" viewBox="0 0 156 110" width="156" height="110" preserveAspectRatio="xMidYMid meet" style="width: 100%; height: 100%; transform: translate3d(0px, 0px, 0px); content-visibility: visible;"><defs><clipPath id="__lottie_element_4433"><rect width="156" height="110" x="0" y="0"></rect></clipPath></defs><g clip-path="url(#__lottie_element_4433)"><g transform="matrix(0,0,0,0,70.57686614990234,32.26189422607422)" opacity="1" style="display: none;"><g opacity="1" transform="matrix(1,0,0,1,-0.8550000190734863,38.14500045776367)"><path fill="rgb(204,221,242)" fill-opacity="1" d=" M0,-39.144500732421875 C21.603849411010742,-39.144500732421875 39.144500732421875,-21.603849411010742 39.144500732421875,0 C39.144500732421875,21.603849411010742 21.603849411010742,39.144500732421875 0,39.144500732421875 C-21.603849411010742,39.144500732421875 -39.144500732421875,21.603849411010742 -39.144500732421875,0 C-39.144500732421875,-21.603849411010742 -21.603849411010742,-39.144500732421875 0,-39.144500732421875z"></path><path stroke-linecap="butt" stroke-linejoin="miter" fill-opacity="0" stroke-miterlimit="4" stroke="rgb(175,175,175)" stroke-opacity="1" stroke-width="0" d=" M0,-39.144500732421875 C21.603849411010742,-39.144500732421875 39.144500732421875,-21.603849411010742 39.144500732421875,0 C39.144500732421875,21.603849411010742 21.603849411010742,39.144500732421875 0,39.144500732421875 C-21.603849411010742,39.144500732421875 -39.144500732421875,21.603849411010742 -39.144500732421875,0 C-39.144500732421875,-21.603849411010742 -21.603849411010742,-39.144500732421875 0,-39.144500732421875z"></path></g></g><g transform="matrix(0,0,0,0,73.65605926513672,34.045955657958984)" opacity="1" style="display: none;"><g opacity="1" transform="matrix(1,0,0,1,-0.8550000190734863,38.14500045776367)"><path fill="rgb(204,221,242)" fill-opacity="1" d=" M0,-39.144500732421875 C21.603849411010742,-39.144500732421875 39.144500732421875,-21.603849411010742 39.144500732421875,0 C39.144500732421875,21.603849411010742 21.603849411010742,39.144500732421875 0,39.144500732421875 C-21.603849411010742,39.144500732421875 -39.144500732421875,21.603849411010742 -39.144500732421875,0 C-39.144500732421875,-21.603849411010742 -21.603849411010742,-39.144500732421875 0,-39.144500732421875z"></path><path stroke-linecap="butt" stroke-linejoin="miter" fill-opacity="0" stroke-miterlimit="4" stroke="rgb(175,175,175)" stroke-opacity="1" stroke-width="0" d=" M0,-39.144500732421875 C21.603849411010742,-39.144500732421875 39.144500732421875,-21.603849411010742 39.144500732421875,0 C39.144500732421875,21.603849411010742 21.603849411010742,39.144500732421875 0,39.144500732421875 C-21.603849411010742,39.144500732421875 -39.144500732421875,21.603849411010742 -39.144500732421875,0 C-39.144500732421875,-21.603849411010742 -21.603849411010742,-39.144500732421875 0,-39.144500732421875z"></path></g></g><g transform="matrix(0,0,0,0,73.65605926513672,34.045955657958984)" opacity="1" style="display: none;"><g opacity="1" transform="matrix(1,0,0,1,-0.8550000190734863,38.14500045776367)"><path fill="rgb(204,221,242)" fill-opacity="1" d=" M0,-39.144500732421875 C21.603849411010742,-39.144500732421875 39.144500732421875,-21.603849411010742 39.144500732421875,0 C39.144500732421875,21.603849411010742 21.603849411010742,39.144500732421875 0,39.144500732421875 C-21.603849411010742,39.144500732421875 -39.144500732421875,21.603849411010742 -39.144500732421875,0 C-39.144500732421875,-21.603849411010742 -21.603849411010742,-39.144500732421875 0,-39.144500732421875z"></path><path stroke-linecap="butt" stroke-linejoin="miter" fill-opacity="0" stroke-miterlimit="4" stroke="rgb(175,175,175)" stroke-opacity="1" stroke-width="0" d=" M0,-39.144500732421875 C21.603849411010742,-39.144500732421875 39.144500732421875,-21.603849411010742 39.144500732421875,0 C39.144500732421875,21.603849411010742 21.603849411010742,39.144500732421875 0,39.144500732421875 C-21.603849411010742,39.144500732421875 -39.144500732421875,21.603849411010742 -39.144500732421875,0 C-39.144500732421875,-21.603849411010742 -21.603849411010742,-39.144500732421875 0,-39.144500732421875z"></path></g></g><g transform="matrix(0,0,0,0,70.57686614990234,32.26189422607422)" opacity="1" style="display: none;"><g opacity="1" transform="matrix(1,0,0,1,-0.8550000190734863,38.14500045776367)"><path fill="rgb(204,221,242)" fill-opacity="1" d=" M0,-39.144500732421875 C21.603849411010742,-39.144500732421875 39.144500732421875,-21.603849411010742 39.144500732421875,0 C39.144500732421875,21.603849411010742 21.603849411010742,39.144500732421875 0,39.144500732421875 C-21.603849411010742,39.144500732421875 -39.144500732421875,21.603849411010742 -39.144500732421875,0 C-39.144500732421875,-21.603849411010742 -21.603849411010742,-39.144500732421875 0,-39.144500732421875z"></path><path stroke-linecap="butt" stroke-linejoin="miter" fill-opacity="0" stroke-miterlimit="4" stroke="rgb(175,175,175)" stroke-opacity="1" stroke-width="0" d=" M0,-39.144500732421875 C21.603849411010742,-39.144500732421875 39.144500732421875,-21.603849411010742 39.144500732421875,0 C39.144500732421875,21.603849411010742 21.603849411010742,39.144500732421875 0,39.144500732421875 C-21.603849411010742,39.144500732421875 -39.144500732421875,21.603849411010742 -39.144500732421875,0 C-39.144500732421875,-21.603849411010742 -21.603849411010742,-39.144500732421875 0,-39.144500732421875z"></path></g></g><g transform="matrix(0,0,0,0,70.57686614990234,32.26189422607422)" opacity="1" style="display: none;"><g opacity="1" transform="matrix(1,0,0,1,-0.8550000190734863,38.14500045776367)"><path fill="rgb(204,221,242)" fill-opacity="1" d=" M0,-39.144500732421875 C21.603849411010742,-39.144500732421875 39.144500732421875,-21.603849411010742 39.144500732421875,0 C39.144500732421875,21.603849411010742 21.603849411010742,39.144500732421875 0,39.144500732421875 C-21.603849411010742,39.144500732421875 -39.144500732421875,21.603849411010742 -39.144500732421875,0 C-39.144500732421875,-21.603849411010742 -21.603849411010742,-39.144500732421875 0,-39.144500732421875z"></path><path stroke-linecap="butt" stroke-linejoin="miter" fill-opacity="0" stroke-miterlimit="4" stroke="rgb(175,175,175)" stroke-opacity="1" stroke-width="0" d=" M0,-39.144500732421875 C21.603849411010742,-39.144500732421875 39.144500732421875,-21.603849411010742 39.144500732421875,0 C39.144500732421875,21.603849411010742 21.603849411010742,39.144500732421875 0,39.144500732421875 C-21.603849411010742,39.144500732421875 -39.144500732421875,21.603849411010742 -39.144500732421875,0 C-39.144500732421875,-21.603849411010742 -21.603849411010742,-39.144500732421875 0,-39.144500732421875z"></path></g></g><g transform="matrix(0,0,0,0,67.72277069091797,34.44548034667969)" opacity="1" style="display: none;"><g opacity="1" transform="matrix(1,0,0,1,-0.8550000190734863,38.14500045776367)"><path fill="rgb(204,221,242)" fill-opacity="1" d=" M0,-39.144500732421875 C21.603849411010742,-39.144500732421875 39.144500732421875,-21.603849411010742 39.144500732421875,0 C39.144500732421875,21.603849411010742 21.603849411010742,39.144500732421875 0,39.144500732421875 C-21.603849411010742,39.144500732421875 -39.144500732421875,21.603849411010742 -39.144500732421875,0 C-39.144500732421875,-21.603849411010742 -21.603849411010742,-39.144500732421875 0,-39.144500732421875z"></path><path stroke-linecap="butt" stroke-linejoin="miter" fill-opacity="0" stroke-miterlimit="4" stroke="rgb(175,175,175)" stroke-opacity="1" stroke-width="0" d=" M0,-39.144500732421875 C21.603849411010742,-39.144500732421875 39.144500732421875,-21.603849411010742 39.144500732421875,0 C39.144500732421875,21.603849411010742 21.603849411010742,39.144500732421875 0,39.144500732421875 C-21.603849411010742,39.144500732421875 -39.144500732421875,21.603849411010742 -39.144500732421875,0 C-39.144500732421875,-21.603849411010742 -21.603849411010742,-39.144500732421875 0,-39.144500732421875z"></path></g></g><g transform="matrix(0,0,0,0,70.27425384521484,35.57790756225586)" opacity="1" style="display: none;"><g opacity="1" transform="matrix(1,0,0,1,-0.8550000190734863,38.14500045776367)"><path fill="rgb(204,221,242)" fill-opacity="1" d=" M0,-39.144500732421875 C21.603849411010742,-39.144500732421875 39.144500732421875,-21.603849411010742 39.144500732421875,0 C39.144500732421875,21.603849411010742 21.603849411010742,39.144500732421875 0,39.144500732421875 C-21.603849411010742,39.144500732421875 -39.144500732421875,21.603849411010742 -39.144500732421875,0 C-39.144500732421875,-21.603849411010742 -21.603849411010742,-39.144500732421875 0,-39.144500732421875z"></path><path stroke-linecap="butt" stroke-linejoin="miter" fill-opacity="0" stroke-miterlimit="4" stroke="rgb(175,175,175)" stroke-opacity="1" stroke-width="0" d=" M0,-39.144500732421875 C21.603849411010742,-39.144500732421875 39.144500732421875,-21.603849411010742 39.144500732421875,0 C39.144500732421875,21.603849411010742 21.603849411010742,39.144500732421875 0,39.144500732421875 C-21.603849411010742,39.144500732421875 -39.144500732421875,21.603849411010742 -39.144500732421875,0 C-39.144500732421875,-21.603849411010742 -21.603849411010742,-39.144500732421875 0,-39.144500732421875z"></path></g></g><g transform="matrix(0,0,0,0,70.71100616455078,35.920127868652344)" opacity="1" style="display: none;"><g opacity="1" transform="matrix(1,0,0,1,-0.8550000190734863,38.14500045776367)"><path fill="rgb(204,221,242)" fill-opacity="1" d=" M0,-39.144500732421875 C21.603849411010742,-39.144500732421875 39.144500732421875,-21.603849411010742 39.144500732421875,0 C39.144500732421875,21.603849411010742 21.603849411010742,39.144500732421875 0,39.144500732421875 C-21.603849411010742,39.144500732421875 -39.144500732421875,21.603849411010742 -39.144500732421875,0 C-39.144500732421875,-21.603849411010742 -21.603849411010742,-39.144500732421875 0,-39.144500732421875z"></path><path stroke-linecap="butt" stroke-linejoin="miter" fill-opacity="0" stroke-miterlimit="4" stroke="rgb(175,175,175)" stroke-opacity="1" stroke-width="0" d=" M0,-39.144500732421875 C21.603849411010742,-39.144500732421875 39.144500732421875,-21.603849411010742 39.144500732421875,0 C39.144500732421875,21.603849411010742 21.603849411010742,39.144500732421875 0,39.144500732421875 C-21.603849411010742,39.144500732421875 -39.144500732421875,21.603849411010742 -39.144500732421875,0 C-39.144500732421875,-21.603849411010742 -21.603849411010742,-39.144500732421875 0,-39.144500732421875z"></path></g></g><g transform="matrix(0,0,0,0,66.45587158203125,35.62466049194336)" opacity="1" style="display: none;"><g opacity="1" transform="matrix(1,0,0,1,-0.8550000190734863,38.14500045776367)"><path fill="rgb(204,221,242)" fill-opacity="1" d=" M0,-39.144500732421875 C21.603849411010742,-39.144500732421875 39.144500732421875,-21.603849411010742 39.144500732421875,0 C39.144500732421875,21.603849411010742 21.603849411010742,39.144500732421875 0,39.144500732421875 C-21.603849411010742,39.144500732421875 -39.144500732421875,21.603849411010742 -39.144500732421875,0 C-39.144500732421875,-21.603849411010742 -21.603849411010742,-39.144500732421875 0,-39.144500732421875z"></path><path stroke-linecap="butt" stroke-linejoin="miter" fill-opacity="0" stroke-miterlimit="4" stroke="rgb(175,175,175)" stroke-opacity="1" stroke-width="0" d=" M0,-39.144500732421875 C21.603849411010742,-39.144500732421875 39.144500732421875,-21.603849411010742 39.144500732421875,0 C39.144500732421875,21.603849411010742 21.603849411010742,39.144500732421875 0,39.144500732421875 C-21.603849411010742,39.144500732421875 -39.144500732421875,21.603849411010742 -39.144500732421875,0 C-39.144500732421875,-21.603849411010742 -21.603849411010742,-39.144500732421875 0,-39.144500732421875z"></path></g></g><g transform="matrix(0,0,0,0,72.09436798095703,34.90841293334961)" opacity="1" style="display: none;"><g opacity="1" transform="matrix(1,0,0,1,-0.8550000190734863,38.14500045776367)"><path fill="rgb(204,221,242)" fill-opacity="1" d=" M0,-39.144500732421875 C21.603849411010742,-39.144500732421875 39.144500732421875,-21.603849411010742 39.144500732421875,0 C39.144500732421875,21.603849411010742 21.603849411010742,39.144500732421875 0,39.144500732421875 C-21.603849411010742,39.144500732421875 -39.144500732421875,21.603849411010742 -39.144500732421875,0 C-39.144500732421875,-21.603849411010742 -21.603849411010742,-39.144500732421875 0,-39.144500732421875z"></path><path stroke-linecap="butt" stroke-linejoin="miter" fill-opacity="0" stroke-miterlimit="4" stroke="rgb(175,175,175)" stroke-opacity="1" stroke-width="0" d=" M0,-39.144500732421875 C21.603849411010742,-39.144500732421875 39.144500732421875,-21.603849411010742 39.144500732421875,0 C39.144500732421875,21.603849411010742 21.603849411010742,39.144500732421875 0,39.144500732421875 C-21.603849411010742,39.144500732421875 -39.144500732421875,21.603849411010742 -39.144500732421875,0 C-39.144500732421875,-21.603849411010742 -21.603849411010742,-39.144500732421875 0,-39.144500732421875z"></path></g></g><g transform="matrix(0,0,0,0,72.68769073486328,34.86845779418945)" opacity="1" style="display: none;"><g opacity="1" transform="matrix(1,0,0,1,-0.8550000190734863,38.14500045776367)"><path fill="rgb(204,221,242)" fill-opacity="1" d=" M0,-39.144500732421875 C21.603849411010742,-39.144500732421875 39.144500732421875,-21.603849411010742 39.144500732421875,0 C39.144500732421875,21.603849411010742 21.603849411010742,39.144500732421875 0,39.144500732421875 C-21.603849411010742,39.144500732421875 -39.144500732421875,21.603849411010742 -39.144500732421875,0 C-39.144500732421875,-21.603849411010742 -21.603849411010742,-39.144500732421875 0,-39.144500732421875z"></path><path stroke-linecap="butt" stroke-linejoin="miter" fill-opacity="0" stroke-miterlimit="4" stroke="rgb(175,175,175)" stroke-opacity="1" stroke-width="0" d=" M0,-39.144500732421875 C21.603849411010742,-39.144500732421875 39.144500732421875,-21.603849411010742 39.144500732421875,0 C39.144500732421875,21.603849411010742 21.603849411010742,39.144500732421875 0,39.144500732421875 C-21.603849411010742,39.144500732421875 -39.144500732421875,21.603849411010742 -39.144500732421875,0 C-39.144500732421875,-21.603849411010742 -21.603849411010742,-39.144500732421875 0,-39.144500732421875z"></path></g></g><g transform="matrix(0,0,0,0,66.45587158203125,35.62466049194336)" opacity="1" style="display: none;"><g opacity="1" transform="matrix(1,0,0,1,-0.8550000190734863,38.14500045776367)"><path fill="rgb(204,221,242)" fill-opacity="1" d=" M0,-39.144500732421875 C21.603849411010742,-39.144500732421875 39.144500732421875,-21.603849411010742 39.144500732421875,0 C39.144500732421875,21.603849411010742 21.603849411010742,39.144500732421875 0,39.144500732421875 C-21.603849411010742,39.144500732421875 -39.144500732421875,21.603849411010742 -39.144500732421875,0 C-39.144500732421875,-21.603849411010742 -21.603849411010742,-39.144500732421875 0,-39.144500732421875z"></path><path stroke-linecap="butt" stroke-linejoin="miter" fill-opacity="0" stroke-miterlimit="4" stroke="rgb(175,175,175)" stroke-opacity="1" stroke-width="0" d=" M0,-39.144500732421875 C21.603849411010742,-39.144500732421875 39.144500732421875,-21.603849411010742 39.144500732421875,0 C39.144500732421875,21.603849411010742 21.603849411010742,39.144500732421875 0,39.144500732421875 C-21.603849411010742,39.144500732421875 -39.144500732421875,21.603849411010742 -39.144500732421875,0 C-39.144500732421875,-21.603849411010742 -21.603849411010742,-39.144500732421875 0,-39.144500732421875z"></path></g></g><g transform="matrix(0,0,0,0,75.2568588256836,39.491661071777344)" opacity="1" style="display: none;"><g opacity="1" transform="matrix(1,0,0,1,-0.8550000190734863,38.14500045776367)"><path fill="rgb(204,221,242)" fill-opacity="1" d=" M0,-39.144500732421875 C21.603849411010742,-39.144500732421875 39.144500732421875,-21.603849411010742 39.144500732421875,0 C39.144500732421875,21.603849411010742 21.603849411010742,39.144500732421875 0,39.144500732421875 C-21.603849411010742,39.144500732421875 -39.144500732421875,21.603849411010742 -39.144500732421875,0 C-39.144500732421875,-21.603849411010742 -21.603849411010742,-39.144500732421875 0,-39.144500732421875z"></path><path stroke-linecap="butt" stroke-linejoin="miter" fill-opacity="0" stroke-miterlimit="4" stroke="rgb(175,175,175)" stroke-opacity="1" stroke-width="0" d=" M0,-39.144500732421875 C21.603849411010742,-39.144500732421875 39.144500732421875,-21.603849411010742 39.144500732421875,0 C39.144500732421875,21.603849411010742 21.603849411010742,39.144500732421875 0,39.144500732421875 C-21.603849411010742,39.144500732421875 -39.144500732421875,21.603849411010742 -39.144500732421875,0 C-39.144500732421875,-21.603849411010742 -21.603849411010742,-39.144500732421875 0,-39.144500732421875z"></path></g></g><g transform="matrix(0,0,0,0,71.10833740234375,30.426694869995117)" opacity="1" style="display: none;"><g opacity="1" transform="matrix(1,0,0,1,-0.8550000190734863,38.14500045776367)"><path fill="rgb(204,221,242)" fill-opacity="1" d=" M0,-39.144500732421875 C21.603849411010742,-39.144500732421875 39.144500732421875,-21.603849411010742 39.144500732421875,0 C39.144500732421875,21.603849411010742 21.603849411010742,39.144500732421875 0,39.144500732421875 C-21.603849411010742,39.144500732421875 -39.144500732421875,21.603849411010742 -39.144500732421875,0 C-39.144500732421875,-21.603849411010742 -21.603849411010742,-39.144500732421875 0,-39.144500732421875z"></path><path stroke-linecap="butt" stroke-linejoin="miter" fill-opacity="0" stroke-miterlimit="4" stroke="rgb(175,175,175)" stroke-opacity="1" stroke-width="0" d=" M0,-39.144500732421875 C21.603849411010742,-39.144500732421875 39.144500732421875,-21.603849411010742 39.144500732421875,0 C39.144500732421875,21.603849411010742 21.603849411010742,39.144500732421875 0,39.144500732421875 C-21.603849411010742,39.144500732421875 -39.144500732421875,21.603849411010742 -39.144500732421875,0 C-39.144500732421875,-21.603849411010742 -21.603849411010742,-39.144500732421875 0,-39.144500732421875z"></path></g></g><g transform="matrix(0,0,0,0,72.31239318847656,30.056926727294922)" opacity="1" style="display: none;"><g opacity="1" transform="matrix(1,0,0,1,-0.8550000190734863,38.14500045776367)"><path fill="rgb(204,221,242)" fill-opacity="1" d=" M0,-39.144500732421875 C21.603849411010742,-39.144500732421875 39.144500732421875,-21.603849411010742 39.144500732421875,0 C39.144500732421875,21.603849411010742 21.603849411010742,39.144500732421875 0,39.144500732421875 C-21.603849411010742,39.144500732421875 -39.144500732421875,21.603849411010742 -39.144500732421875,0 C-39.144500732421875,-21.603849411010742 -21.603849411010742,-39.144500732421875 0,-39.144500732421875z"></path><path stroke-linecap="butt" stroke-linejoin="miter" fill-opacity="0" stroke-miterlimit="4" stroke="rgb(175,175,175)" stroke-opacity="1" stroke-width="0" d=" M0,-39.144500732421875 C21.603849411010742,-39.144500732421875 39.144500732421875,-21.603849411010742 39.144500732421875,0 C39.144500732421875,21.603849411010742 21.603849411010742,39.144500732421875 0,39.144500732421875 C-21.603849411010742,39.144500732421875 -39.144500732421875,21.603849411010742 -39.144500732421875,0 C-39.144500732421875,-21.603849411010742 -21.603849411010742,-39.144500732421875 0,-39.144500732421875z"></path></g></g><g transform="matrix(0,0,0,0,76.03379821777344,36.878929138183594)" opacity="1" style="display: none;"><g opacity="1" transform="matrix(1,0,0,1,-0.8550000190734863,38.14500045776367)"><path fill="rgb(204,221,242)" fill-opacity="1" d=" M0,-39.144500732421875 C21.603849411010742,-39.144500732421875 39.144500732421875,-21.603849411010742 39.144500732421875,0 C39.144500732421875,21.603849411010742 21.603849411010742,39.144500732421875 0,39.144500732421875 C-21.603849411010742,39.144500732421875 -39.144500732421875,21.603849411010742 -39.144500732421875,0 C-39.144500732421875,-21.603849411010742 -21.603849411010742,-39.144500732421875 0,-39.144500732421875z"></path><path stroke-linecap="butt" stroke-linejoin="miter" fill-opacity="0" stroke-miterlimit="4" stroke="rgb(175,175,175)" stroke-opacity="1" stroke-width="0" d=" M0,-39.144500732421875 C21.603849411010742,-39.144500732421875 39.144500732421875,-21.603849411010742 39.144500732421875,0 C39.144500732421875,21.603849411010742 21.603849411010742,39.144500732421875 0,39.144500732421875 C-21.603849411010742,39.144500732421875 -39.144500732421875,21.603849411010742 -39.144500732421875,0 C-39.144500732421875,-21.603849411010742 -21.603849411010742,-39.144500732421875 0,-39.144500732421875z"></path></g></g><g transform="matrix(0,0,0,0,73.83014678955078,38.29752731323242)" opacity="1" style="display: none;"><g opacity="1" transform="matrix(1,0,0,1,-0.8550000190734863,38.14500045776367)"><path fill="rgb(204,221,242)" fill-opacity="1" d=" M0,-39.144500732421875 C21.603849411010742,-39.144500732421875 39.144500732421875,-21.603849411010742 39.144500732421875,0 C39.144500732421875,21.603849411010742 21.603849411010742,39.144500732421875 0,39.144500732421875 C-21.603849411010742,39.144500732421875 -39.144500732421875,21.603849411010742 -39.144500732421875,0 C-39.144500732421875,-21.603849411010742 -21.603849411010742,-39.144500732421875 0,-39.144500732421875z"></path><path stroke-linecap="butt" stroke-linejoin="miter" fill-opacity="0" stroke-miterlimit="4" stroke="rgb(175,175,175)" stroke-opacity="1" stroke-width="0" d=" M0,-39.144500732421875 C21.603849411010742,-39.144500732421875 39.144500732421875,-21.603849411010742 39.144500732421875,0 C39.144500732421875,21.603849411010742 21.603849411010742,39.144500732421875 0,39.144500732421875 C-21.603849411010742,39.144500732421875 -39.144500732421875,21.603849411010742 -39.144500732421875,0 C-39.144500732421875,-21.603849411010742 -21.603849411010742,-39.144500732421875 0,-39.144500732421875z"></path></g></g><g transform="matrix(0,0,0,0,74.7157211303711,31.24694061279297)" opacity="1" style="display: none;"><g opacity="1" transform="matrix(1,0,0,1,-0.8550000190734863,38.14500045776367)"><path fill="rgb(204,221,242)" fill-opacity="1" d=" M0,-39.144500732421875 C21.603849411010742,-39.144500732421875 39.144500732421875,-21.603849411010742 39.144500732421875,0 C39.144500732421875,21.603849411010742 21.603849411010742,39.144500732421875 0,39.144500732421875 C-21.603849411010742,39.144500732421875 -39.144500732421875,21.603849411010742 -39.144500732421875,0 C-39.144500732421875,-21.603849411010742 -21.603849411010742,-39.144500732421875 0,-39.144500732421875z"></path><path stroke-linecap="butt" stroke-linejoin="miter" fill-opacity="0" stroke-miterlimit="4" stroke="rgb(175,175,175)" stroke-opacity="1" stroke-width="0" d=" M0,-39.144500732421875 C21.603849411010742,-39.144500732421875 39.144500732421875,-21.603849411010742 39.144500732421875,0 C39.144500732421875,21.603849411010742 21.603849411010742,39.144500732421875 0,39.144500732421875 C-21.603849411010742,39.144500732421875 -39.144500732421875,21.603849411010742 -39.144500732421875,0 C-39.144500732421875,-21.603849411010742 -21.603849411010742,-39.144500732421875 0,-39.144500732421875z"></path></g></g><g transform="matrix(0,0,0,0,74.31332397460938,36.88872528076172)" opacity="1" style="display: none;"><g opacity="1" transform="matrix(1,0,0,1,-0.8550000190734863,38.14500045776367)"><path fill="rgb(204,221,242)" fill-opacity="1" d=" M0,-39.144500732421875 C21.603849411010742,-39.144500732421875 39.144500732421875,-21.603849411010742 39.144500732421875,0 C39.144500732421875,21.603849411010742 21.603849411010742,39.144500732421875 0,39.144500732421875 C-21.603849411010742,39.144500732421875 -39.144500732421875,21.603849411010742 -39.144500732421875,0 C-39.144500732421875,-21.603849411010742 -21.603849411010742,-39.144500732421875 0,-39.144500732421875z"></path><path stroke-linecap="butt" stroke-linejoin="miter" fill-opacity="0" stroke-miterlimit="4" stroke="rgb(175,175,175)" stroke-opacity="1" stroke-width="0" d=" M0,-39.144500732421875 C21.603849411010742,-39.144500732421875 39.144500732421875,-21.603849411010742 39.144500732421875,0 C39.144500732421875,21.603849411010742 21.603849411010742,39.144500732421875 0,39.144500732421875 C-21.603849411010742,39.144500732421875 -39.144500732421875,21.603849411010742 -39.144500732421875,0 C-39.144500732421875,-21.603849411010742 -21.603849411010742,-39.144500732421875 0,-39.144500732421875z"></path></g></g><g transform="matrix(0.16681981086730957,-0.1968124508857727,0.1968124508857727,0.16681981086730957,83.21885681152344,24.289751052856445)" opacity="0.5555555555555556" style="display: block;"><path stroke-linecap="butt" stroke-linejoin="miter" fill-opacity="0" stroke-miterlimit="4" stroke="rgb(204,221,242)" stroke-opacity="1" stroke-width="5.2105263157894735" d=" M0,-14.618823051452637 C6.078320026397705,-14.618823051452637 11.013444900512695,-8.06812858581543 11.013444900512695,0 C11.013444900512695,8.06812858581543 6.078320026397705,14.618823051452637 0,14.618823051452637 C-6.078320026397705,14.618823051452637 -11.013444900512695,8.06812858581543 -11.013444900512695,0 C-11.013444900512695,-8.06812858581543 -6.078320026397705,-14.618823051452637 0,-14.618823051452637z"></path></g><g transform="matrix(0.21367621421813965,-0.14459070563316345,0.14459070563316345,0.21367621421813965,76.96163940429688,29.777217864990234)" opacity="0.7142857142857143" style="display: block;"><path stroke-linecap="butt" stroke-linejoin="miter" fill-opacity="0" stroke-miterlimit="4" stroke="rgb(204,221,242)" stroke-opacity="1" stroke-width="4.815789473684211" d=" M0,-10.125984191894531 C3.8675591945648193,-10.125984191894531 7.007717132568359,-5.588530540466309 7.007717132568359,0 C7.007717132568359,5.588530540466309 3.8675591945648193,10.125984191894531 0,10.125984191894531 C-3.8675591945648193,10.125984191894531 -7.007717132568359,5.588530540466309 -7.007717132568359,0 C-7.007717132568359,-5.588530540466309 -3.8675591945648193,-10.125984191894531 0,-10.125984191894531z"></path></g><g transform="matrix(-0.15740326046943665,1.7991275787353516,-1.7991275787353516,-0.15740326046943665,67.06610870361328,21.566282272338867)" opacity="1" style="display: block;"><g opacity="1" transform="matrix(1,0,0,1,0,0)"><path stroke-linecap="butt" stroke-linejoin="miter" fill-opacity="0" stroke-miterlimit="10" stroke="rgb(116,121,108)" stroke-opacity="1" stroke-width="1.706" d=" M4.251999855041504,26.316999435424805 C4.251999855041504,26.316999435424805 4.264999866485596,19.18899917602539 4.264999866485596,19.18899917602539"></path></g></g><g transform="matrix(-0.15740326046943665,1.7991275787353516,-1.7991275787353516,-0.15740326046943665,66.97055053710938,20.96533203125)" opacity="1" style="display: block;"><g opacity="1" transform="matrix(1,0,0,1,4.264999866485596,25.02899932861328)"><path fill="rgb(95,95,85)" fill-opacity="1" d=" M2.8889999389648438,0 C2.8889999389648438,1.5959999561309814 1.5959999561309814,2.8889999389648438 0,2.8889999389648438 C-1.5959999561309814,2.8889999389648438 -2.8889999389648438,1.5959999561309814 -2.8889999389648438,0 C-2.8889999389648438,-1.5959999561309814 -1.5959999561309814,-2.8889999389648438 0,-2.8889999389648438 C1.5959999561309814,-2.8889999389648438 2.8889999389648438,-1.5959999561309814 2.8889999389648438,0z"></path></g><g opacity="1" transform="matrix(1,0,0,1,4.264999866485596,25.02899932861328)"><path fill="rgb(250,175,58)" fill-opacity="1" d=" M1.7389999628067017,0 C1.7389999628067017,0.9599999785423279 0.9610000252723694,1.7389999628067017 0,1.7389999628067017 C-0.9599999785423279,1.7389999628067017 -1.7389999628067017,0.9599999785423279 -1.7389999628067017,0 C-1.7389999628067017,-0.9599999785423279 -0.9599999785423279,-1.7389999628067017 0,-1.7389999628067017 C0.9610000252723694,-1.7389999628067017 1.7389999628067017,-0.9599999785423279 1.7389999628067017,0z"></path></g></g><g transform="matrix(-0.15740326046943665,1.7991275787353516,-1.7991275787353516,-0.15740326046943665,67.06610870361328,21.566282272338867)" opacity="1" style="display: block;"><g opacity="1" transform="matrix(1,0,0,1,0,0)"><path stroke-linecap="butt" stroke-linejoin="miter" fill-opacity="0" stroke-miterlimit="10" stroke="rgb(116,121,108)" stroke-opacity="1" stroke-width="1.706" d=" M7.232999801635742,15.779999732971191 C7.232999801635742,15.779999732971191 6.947000026702881,4.264999866485596 6.947000026702881,4.264999866485596"></path></g><g opacity="1" transform="matrix(1,0,0,1,6.947000026702881,8.42199993133545)"><path fill="rgb(116,121,108)" fill-opacity="1" d=" M-1.7799999713897705,3.303999900817871 C-1.7799999713897705,3.303999900817871 1.7799999713897705,3.303999900817871 1.7799999713897705,3.303999900817871 C1.7799999713897705,3.303999900817871 1.7799999713897705,-3.303999900817871 1.7799999713897705,-3.303999900817871 C1.7799999713897705,-3.303999900817871 -1.7799999713897705,-3.303999900817871 -1.7799999713897705,-3.303999900817871 C-1.7799999713897705,-3.303999900817871 -1.7799999713897705,3.303999900817871 -1.7799999713897705,3.303999900817871z"></path></g></g><g transform="matrix(-0.15740326046943665,1.7991275787353516,-1.7991275787353516,-0.15740326046943665,67.06610870361328,21.566282272338867)" opacity="1" style="display: block;"><g opacity="1" transform="matrix(1,0,0,1,18.091999053955078,12.154000282287598)"><path fill="rgb(214,124,42)" fill-opacity="1" d=" M-5.730000019073486,2.742000102996826 C-5.730000019073486,2.742000102996826 -2.4779999256134033,-7.034999847412109 -2.4779999256134033,-7.034999847412109 C-2.4779999256134033,-7.034999847412109 4.539999961853027,-7.034999847412109 4.539999961853027,-7.034999847412109 C5.197000026702881,-7.034999847412109 5.730000019073486,-6.501999855041504 5.730000019073486,-5.84499979019165 C5.730000019073486,-5.84499979019165 5.730000019073486,7.034999847412109 5.730000019073486,7.034999847412109 C5.730000019073486,7.034999847412109 -5.730000019073486,2.742000102996826 -5.730000019073486,2.742000102996826z"></path></g><g opacity="1" transform="matrix(1,0,0,1,9.940999984741211,16.993000030517578)"><path fill="rgb(214,124,42)" fill-opacity="1" d=" M8.932000160217285,4.414000034332275 C8.932000160217285,4.414000034332275 -8.932000160217285,4.414000034332275 -8.932000160217285,4.414000034332275 C-8.932000160217285,4.414000034332275 -8.932000160217285,-0.8519999980926514 -8.932000160217285,-0.8519999980926514 C-8.932000160217285,-2.819000005722046 -7.336999893188477,-4.414000034332275 -5.369999885559082,-4.414000034332275 C-5.369999885559082,-4.414000034332275 8.932000160217285,-4.414000034332275 8.932000160217285,-4.414000034332275 C8.932000160217285,-4.414000034332275 8.932000160217285,4.414000034332275 8.932000160217285,4.414000034332275z"></path></g><g opacity="1" transform="matrix(1,0,0,1,15.84000015258789,9.815999984741211)"><path fill="rgb(255,236,172)" fill-opacity="1" d=" M-0.5099999904632568,-3.8450000286102295 C-0.5099999904632568,-3.8450000286102295 1.6799999475479126,-3.8450000286102295 1.6799999475479126,-3.8450000286102295 C2.2820000648498535,-3.8450000286102295 2.7079999446868896,-3.253999948501587 2.5169999599456787,-2.681999921798706 C2.5169999599456787,-2.681999921798706 0.7739999890327454,2.558000087738037 0.7739999890327454,2.558000087738037 C0.48399999737739563,3.430000066757202 -0.5090000033378601,3.8450000286102295 -1.3329999446868896,3.440000057220459 C-1.3329999446868896,3.440000057220459 -2.7079999446868896,2.7639999389648438 -2.7079999446868896,2.7639999389648438 C-2.7079999446868896,2.7639999389648438 -0.5099999904632568,-3.8450000286102295 -0.5099999904632568,-3.8450000286102295z"></path></g><g opacity="1" transform="matrix(1,0,0,1,14.996000289916992,11.331000328063965)"><path fill="rgb(29,153,212)" fill-opacity="1" d=" M1.190999984741211,0 C1.190999984741211,-0.6570000052452087 0.6579999923706055,-1.190000057220459 0.0010000000474974513,-1.190000057220459 C-0.6570000052452087,-1.190000057220459 -1.190999984741211,-0.6570000052452087 -1.190999984741211,0 C-1.190999984741211,0.6570000052452087 -0.6570000052452087,1.190000057220459 0.0010000000474974513,1.190000057220459 C0.6579999923706055,1.190000057220459 1.190999984741211,0.6570000052452087 1.190999984741211,0z"></path></g><g opacity="1" transform="matrix(1,0,0,1,16.621000289916992,7.502999782562256)"><path fill="rgb(250,175,58)" fill-opacity="1" d=" M0.8989999890327454,-1.531999945640564 C0.8989999890327454,-1.531999945640564 -1.2910000085830688,-1.531999945640564 -1.2910000085830688,-1.531999945640564 C-1.2910000085830688,-1.531999945640564 -3.569000005722046,5.164999961853027 -3.569000005722046,5.164999961853027 C-2.13700008392334,6.408999919891357 -0.5659999847412109,6.408999919891357 0.03200000151991844,4.960000038146973 C0.03200000151991844,4.960000038146973 1.7359999418258667,-0.36899998784065247 1.7359999418258667,-0.36899998784065247 C1.9259999990463257,-0.9409999847412109 1.5010000467300415,-1.531999945640564 0.8989999890327454,-1.531999945640564z"></path></g><g opacity="1" transform="matrix(1,0,0,1,8.241000175476074,18.115999221801758)"><path fill="rgb(162,86,24)" fill-opacity="1" d=" M-0.8230000138282776,-1.5 C-0.8230000138282776,-1.5 3.072999954223633,-1.5 3.072999954223633,-1.5 C3.072999954223633,-1.5 3.072999954223633,1.5 3.072999954223633,1.5 C3.072999954223633,1.5 -3.072999954223633,1.5 -3.072999954223633,1.5 C-3.072999954223633,1.5 -3.072999954223633,0.75 -3.072999954223633,0.75 C-3.072999954223633,-0.49300000071525574 -2.065999984741211,-1.5 -0.8230000138282776,-1.5z"></path></g></g><g transform="matrix(1.8059998750686646,0,0,1.8059998750686646,-8.634329795837402,13.516955375671387)" opacity="1" style="display: block;"><g opacity="1" transform="matrix(1,0,0,1,18.871999740600586,21.406999588012695)"><path fill="rgb(214,124,42)" fill-opacity="1" d=" M1.7920000553131104,0 C1.7920000553131104,-0.9900000095367432 0.9890000224113464,-1.7920000553131104 -0.0010000000474974513,-1.7920000553131104 C-0.9900000095367432,-1.7920000553131104 -1.7920000553131104,-0.9900000095367432 -1.7920000553131104,0 C-1.7920000553131104,0.9890000224113464 -0.9900000095367432,1.7920000553131104 -0.0010000000474974513,1.7920000553131104 C0.9890000224113464,1.7920000553131104 1.7920000553131104,0.9890000224113464 1.7920000553131104,0z"></path></g></g><g transform="matrix(-0.957034170627594,-1.5315747261047363,1.5315747261047363,-0.957034170627594,10.77962589263916,101.68550109863281)" opacity="1" style="display: block;"><g opacity="1" transform="matrix(1,0,0,1,18.87299919128418,21.406999588012695)"><path fill="rgb(95,95,85)" fill-opacity="1" d=" M6.511000156402588,0 C6.511000156402588,-3.5959999561309814 3.5959999561309814,-6.511000156402588 0,-6.511000156402588 C-3.5959999561309814,-6.511000156402588 -6.511000156402588,-3.5959999561309814 -6.511000156402588,0 C-6.511000156402588,3.5959999561309814 -3.5959999561309814,6.511000156402588 0,6.511000156402588 C3.5959999561309814,6.511000156402588 6.511000156402588,3.5959999561309814 6.511000156402588,0z"></path></g><g opacity="1" transform="matrix(1,0,0,1,18.871999740600586,21.406999588012695)"><path fill="rgb(250,175,58)" fill-opacity="1" d=" M4.1519999504089355,0 C4.1519999504089355,-2.2929999828338623 2.2929999828338623,-4.151000022888184 0.0010000000474974513,-4.151000022888184 C-2.2920000553131104,-4.151000022888184 -4.1519999504089355,-2.2929999828338623 -4.1519999504089355,0 C-4.1519999504089355,2.2929999828338623 -2.2920000553131104,4.151000022888184 0.0010000000474974513,4.151000022888184 C2.2929999828338623,4.151000022888184 4.1519999504089355,2.2929999828338623 4.1519999504089355,0z"></path></g><g opacity="1" transform="matrix(1,0,0,1,18.871999740600586,21.406999588012695)"><path fill="rgb(214,124,42)" fill-opacity="1" d=" M1.7920000553131104,0 C1.7920000553131104,-0.9900000095367432 0.9890000224113464,-1.7920000553131104 -0.0010000000474974513,-1.7920000553131104 C-0.9900000095367432,-1.7920000553131104 -1.7920000553131104,-0.9900000095367432 -1.7920000553131104,0 C-1.7920000553131104,0.9890000224113464 -0.9900000095367432,1.7920000553131104 -0.0010000000474974513,1.7920000553131104 C0.9890000224113464,1.7920000553131104 1.7920000553131104,0.9890000224113464 1.7920000553131104,0z"></path></g></g><g transform="matrix(0,0,0,0,93.46611785888672,61.7235107421875)" opacity="1" style="display: none;"><g opacity="1" transform="matrix(1,0,0,1,-0.8550000190734863,38.14500045776367)"><path fill="rgb(204,221,242)" fill-opacity="1" d=" M0,-39.144500732421875 C21.603849411010742,-39.144500732421875 39.144500732421875,-21.603849411010742 39.144500732421875,0 C39.144500732421875,21.603849411010742 21.603849411010742,39.144500732421875 0,39.144500732421875 C-21.603849411010742,39.144500732421875 -39.144500732421875,21.603849411010742 -39.144500732421875,0 C-39.144500732421875,-21.603849411010742 -21.603849411010742,-39.144500732421875 0,-39.144500732421875z"></path><path stroke-linecap="butt" stroke-linejoin="miter" fill-opacity="0" stroke-miterlimit="4" stroke="rgb(175,175,175)" stroke-opacity="1" stroke-width="0" d=" M0,-39.144500732421875 C21.603849411010742,-39.144500732421875 39.144500732421875,-21.603849411010742 39.144500732421875,0 C39.144500732421875,21.603849411010742 21.603849411010742,39.144500732421875 0,39.144500732421875 C-21.603849411010742,39.144500732421875 -39.144500732421875,21.603849411010742 -39.144500732421875,0 C-39.144500732421875,-21.603849411010742 -21.603849411010742,-39.144500732421875 0,-39.144500732421875z"></path></g></g><g transform="matrix(0,0,0,0,93.16007232666016,60.00633239746094)" opacity="1" style="display: none;"><g opacity="1" transform="matrix(1,0,0,1,-0.8550000190734863,38.14500045776367)"><path fill="rgb(204,221,242)" fill-opacity="1" d=" M0,-39.144500732421875 C21.603849411010742,-39.144500732421875 39.144500732421875,-21.603849411010742 39.144500732421875,0 C39.144500732421875,21.603849411010742 21.603849411010742,39.144500732421875 0,39.144500732421875 C-21.603849411010742,39.144500732421875 -39.144500732421875,21.603849411010742 -39.144500732421875,0 C-39.144500732421875,-21.603849411010742 -21.603849411010742,-39.144500732421875 0,-39.144500732421875z"></path><path stroke-linecap="butt" stroke-linejoin="miter" fill-opacity="0" stroke-miterlimit="4" stroke="rgb(175,175,175)" stroke-opacity="1" stroke-width="0" d=" M0,-39.144500732421875 C21.603849411010742,-39.144500732421875 39.144500732421875,-21.603849411010742 39.144500732421875,0 C39.144500732421875,21.603849411010742 21.603849411010742,39.144500732421875 0,39.144500732421875 C-21.603849411010742,39.144500732421875 -39.144500732421875,21.603849411010742 -39.144500732421875,0 C-39.144500732421875,-21.603849411010742 -21.603849411010742,-39.144500732421875 0,-39.144500732421875z"></path></g></g><g transform="matrix(0,0,0,0,93.10511779785156,60.13810729980469)" opacity="1" style="display: none;"><g opacity="1" transform="matrix(1,0,0,1,-0.8550000190734863,38.14500045776367)"><path fill="rgb(204,221,242)" fill-opacity="1" d=" M0,-39.144500732421875 C21.603849411010742,-39.144500732421875 39.144500732421875,-21.603849411010742 39.144500732421875,0 C39.144500732421875,21.603849411010742 21.603849411010742,39.144500732421875 0,39.144500732421875 C-21.603849411010742,39.144500732421875 -39.144500732421875,21.603849411010742 -39.144500732421875,0 C-39.144500732421875,-21.603849411010742 -21.603849411010742,-39.144500732421875 0,-39.144500732421875z"></path><path stroke-linecap="butt" stroke-linejoin="miter" fill-opacity="0" stroke-miterlimit="4" stroke="rgb(175,175,175)" stroke-opacity="1" stroke-width="0" d=" M0,-39.144500732421875 C21.603849411010742,-39.144500732421875 39.144500732421875,-21.603849411010742 39.144500732421875,0 C39.144500732421875,21.603849411010742 21.603849411010742,39.144500732421875 0,39.144500732421875 C-21.603849411010742,39.144500732421875 -39.144500732421875,21.603849411010742 -39.144500732421875,0 C-39.144500732421875,-21.603849411010742 -21.603849411010742,-39.144500732421875 0,-39.144500732421875z"></path></g></g><g transform="matrix(0,0,0,0,93.46611785888672,61.7235107421875)" opacity="1" style="display: none;"><g opacity="1" transform="matrix(1,0,0,1,-0.8550000190734863,38.14500045776367)"><path fill="rgb(204,221,242)" fill-opacity="1" d=" M0,-39.144500732421875 C21.603849411010742,-39.144500732421875 39.144500732421875,-21.603849411010742 39.144500732421875,0 C39.144500732421875,21.603849411010742 21.603849411010742,39.144500732421875 0,39.144500732421875 C-21.603849411010742,39.144500732421875 -39.144500732421875,21.603849411010742 -39.144500732421875,0 C-39.144500732421875,-21.603849411010742 -21.603849411010742,-39.144500732421875 0,-39.144500732421875z"></path><path stroke-linecap="butt" stroke-linejoin="miter" fill-opacity="0" stroke-miterlimit="4" stroke="rgb(175,175,175)" stroke-opacity="1" stroke-width="0" d=" M0,-39.144500732421875 C21.603849411010742,-39.144500732421875 39.144500732421875,-21.603849411010742 39.144500732421875,0 C39.144500732421875,21.603849411010742 21.603849411010742,39.144500732421875 0,39.144500732421875 C-21.603849411010742,39.144500732421875 -39.144500732421875,21.603849411010742 -39.144500732421875,0 C-39.144500732421875,-21.603849411010742 -21.603849411010742,-39.144500732421875 0,-39.144500732421875z"></path></g></g><g transform="matrix(0,0,0,0,93.46611785888672,61.7235107421875)" opacity="1" style="display: none;"><g opacity="1" transform="matrix(1,0,0,1,-0.8550000190734863,38.14500045776367)"><path fill="rgb(204,221,242)" fill-opacity="1" d=" M0,-39.144500732421875 C21.603849411010742,-39.144500732421875 39.144500732421875,-21.603849411010742 39.144500732421875,0 C39.144500732421875,21.603849411010742 21.603849411010742,39.144500732421875 0,39.144500732421875 C-21.603849411010742,39.144500732421875 -39.144500732421875,21.603849411010742 -39.144500732421875,0 C-39.144500732421875,-21.603849411010742 -21.603849411010742,-39.144500732421875 0,-39.144500732421875z"></path><path stroke-linecap="butt" stroke-linejoin="miter" fill-opacity="0" stroke-miterlimit="4" stroke="rgb(175,175,175)" stroke-opacity="1" stroke-width="0" d=" M0,-39.144500732421875 C21.603849411010742,-39.144500732421875 39.144500732421875,-21.603849411010742 39.144500732421875,0 C39.144500732421875,21.603849411010742 21.603849411010742,39.144500732421875 0,39.144500732421875 C-21.603849411010742,39.144500732421875 -39.144500732421875,21.603849411010742 -39.144500732421875,0 C-39.144500732421875,-21.603849411010742 -21.603849411010742,-39.144500732421875 0,-39.144500732421875z"></path></g></g><g transform="matrix(0,0,0,0,95.21881866455078,64.86070251464844)" opacity="1" style="display: none;"><g opacity="1" transform="matrix(1,0,0,1,-0.8550000190734863,38.14500045776367)"><path fill="rgb(204,221,242)" fill-opacity="1" d=" M0,-39.144500732421875 C21.603849411010742,-39.144500732421875 39.144500732421875,-21.603849411010742 39.144500732421875,0 C39.144500732421875,21.603849411010742 21.603849411010742,39.144500732421875 0,39.144500732421875 C-21.603849411010742,39.144500732421875 -39.144500732421875,21.603849411010742 -39.144500732421875,0 C-39.144500732421875,-21.603849411010742 -21.603849411010742,-39.144500732421875 0,-39.144500732421875z"></path><path stroke-linecap="butt" stroke-linejoin="miter" fill-opacity="0" stroke-miterlimit="4" stroke="rgb(175,175,175)" stroke-opacity="1" stroke-width="0" d=" M0,-39.144500732421875 C21.603849411010742,-39.144500732421875 39.144500732421875,-21.603849411010742 39.144500732421875,0 C39.144500732421875,21.603849411010742 21.603849411010742,39.144500732421875 0,39.144500732421875 C-21.603849411010742,39.144500732421875 -39.144500732421875,21.603849411010742 -39.144500732421875,0 C-39.144500732421875,-21.603849411010742 -21.603849411010742,-39.144500732421875 0,-39.144500732421875z"></path></g></g><g transform="matrix(0,0,0,0,92.42745208740234,64.88716125488281)" opacity="1" style="display: none;"><g opacity="1" transform="matrix(1,0,0,1,-0.8550000190734863,38.14500045776367)"><path fill="rgb(204,221,242)" fill-opacity="1" d=" M0,-39.144500732421875 C21.603849411010742,-39.144500732421875 39.144500732421875,-21.603849411010742 39.144500732421875,0 C39.144500732421875,21.603849411010742 21.603849411010742,39.144500732421875 0,39.144500732421875 C-21.603849411010742,39.144500732421875 -39.144500732421875,21.603849411010742 -39.144500732421875,0 C-39.144500732421875,-21.603849411010742 -21.603849411010742,-39.144500732421875 0,-39.144500732421875z"></path><path stroke-linecap="butt" stroke-linejoin="miter" fill-opacity="0" stroke-miterlimit="4" stroke="rgb(175,175,175)" stroke-opacity="1" stroke-width="0" d=" M0,-39.144500732421875 C21.603849411010742,-39.144500732421875 39.144500732421875,-21.603849411010742 39.144500732421875,0 C39.144500732421875,21.603849411010742 21.603849411010742,39.144500732421875 0,39.144500732421875 C-21.603849411010742,39.144500732421875 -39.144500732421875,21.603849411010742 -39.144500732421875,0 C-39.144500732421875,-21.603849411010742 -21.603849411010742,-39.144500732421875 0,-39.144500732421875z"></path></g></g><g transform="matrix(0,0,0,0,93.35877227783203,64.34188079833984)" opacity="1" style="display: none;"><g opacity="1" transform="matrix(1,0,0,1,-0.8550000190734863,38.14500045776367)"><path fill="rgb(204,221,242)" fill-opacity="1" d=" M0,-39.144500732421875 C21.603849411010742,-39.144500732421875 39.144500732421875,-21.603849411010742 39.144500732421875,0 C39.144500732421875,21.603849411010742 21.603849411010742,39.144500732421875 0,39.144500732421875 C-21.603849411010742,39.144500732421875 -39.144500732421875,21.603849411010742 -39.144500732421875,0 C-39.144500732421875,-21.603849411010742 -21.603849411010742,-39.144500732421875 0,-39.144500732421875z"></path><path stroke-linecap="butt" stroke-linejoin="miter" fill-opacity="0" stroke-miterlimit="4" stroke="rgb(175,175,175)" stroke-opacity="1" stroke-width="0" d=" M0,-39.144500732421875 C21.603849411010742,-39.144500732421875 39.144500732421875,-21.603849411010742 39.144500732421875,0 C39.144500732421875,21.603849411010742 21.603849411010742,39.144500732421875 0,39.144500732421875 C-21.603849411010742,39.144500732421875 -39.144500732421875,21.603849411010742 -39.144500732421875,0 C-39.144500732421875,-21.603849411010742 -21.603849411010742,-39.144500732421875 0,-39.144500732421875z"></path></g></g><g transform="matrix(0,0,0,0,95.91349029541016,66.44593048095703)" opacity="1" style="display: none;"><g opacity="1" transform="matrix(1,0,0,1,-0.8550000190734863,38.14500045776367)"><path fill="rgb(204,221,242)" fill-opacity="1" d=" M0,-39.144500732421875 C21.603849411010742,-39.144500732421875 39.144500732421875,-21.603849411010742 39.144500732421875,0 C39.144500732421875,21.603849411010742 21.603849411010742,39.144500732421875 0,39.144500732421875 C-21.603849411010742,39.144500732421875 -39.144500732421875,21.603849411010742 -39.144500732421875,0 C-39.144500732421875,-21.603849411010742 -21.603849411010742,-39.144500732421875 0,-39.144500732421875z"></path><path stroke-linecap="butt" stroke-linejoin="miter" fill-opacity="0" stroke-miterlimit="4" stroke="rgb(175,175,175)" stroke-opacity="1" stroke-width="0" d=" M0,-39.144500732421875 C21.603849411010742,-39.144500732421875 39.144500732421875,-21.603849411010742 39.144500732421875,0 C39.144500732421875,21.603849411010742 21.603849411010742,39.144500732421875 0,39.144500732421875 C-21.603849411010742,39.144500732421875 -39.144500732421875,21.603849411010742 -39.144500732421875,0 C-39.144500732421875,-21.603849411010742 -21.603849411010742,-39.144500732421875 0,-39.144500732421875z"></path></g></g><g transform="matrix(0,0,0,0,91.02268981933594,63.55011749267578)" opacity="1" style="display: none;"><g opacity="1" transform="matrix(1,0,0,1,-0.8550000190734863,38.14500045776367)"><path fill="rgb(204,221,242)" fill-opacity="1" d=" M0,-39.144500732421875 C21.603849411010742,-39.144500732421875 39.144500732421875,-21.603849411010742 39.144500732421875,0 C39.144500732421875,21.603849411010742 21.603849411010742,39.144500732421875 0,39.144500732421875 C-21.603849411010742,39.144500732421875 -39.144500732421875,21.603849411010742 -39.144500732421875,0 C-39.144500732421875,-21.603849411010742 -21.603849411010742,-39.144500732421875 0,-39.144500732421875z"></path><path stroke-linecap="butt" stroke-linejoin="miter" fill-opacity="0" stroke-miterlimit="4" stroke="rgb(175,175,175)" stroke-opacity="1" stroke-width="0" d=" M0,-39.144500732421875 C21.603849411010742,-39.144500732421875 39.144500732421875,-21.603849411010742 39.144500732421875,0 C39.144500732421875,21.603849411010742 21.603849411010742,39.144500732421875 0,39.144500732421875 C-21.603849411010742,39.144500732421875 -39.144500732421875,21.603849411010742 -39.144500732421875,0 C-39.144500732421875,-21.603849411010742 -21.603849411010742,-39.144500732421875 0,-39.144500732421875z"></path></g></g><g transform="matrix(0,0,0,0,90.49398040771484,63.27790451049805)" opacity="1" style="display: none;"><g opacity="1" transform="matrix(1,0,0,1,-0.8550000190734863,38.14500045776367)"><path fill="rgb(204,221,242)" fill-opacity="1" d=" M0,-39.144500732421875 C21.603849411010742,-39.144500732421875 39.144500732421875,-21.603849411010742 39.144500732421875,0 C39.144500732421875,21.603849411010742 21.603849411010742,39.144500732421875 0,39.144500732421875 C-21.603849411010742,39.144500732421875 -39.144500732421875,21.603849411010742 -39.144500732421875,0 C-39.144500732421875,-21.603849411010742 -21.603849411010742,-39.144500732421875 0,-39.144500732421875z"></path><path stroke-linecap="butt" stroke-linejoin="miter" fill-opacity="0" stroke-miterlimit="4" stroke="rgb(175,175,175)" stroke-opacity="1" stroke-width="0" d=" M0,-39.144500732421875 C21.603849411010742,-39.144500732421875 39.144500732421875,-21.603849411010742 39.144500732421875,0 C39.144500732421875,21.603849411010742 21.603849411010742,39.144500732421875 0,39.144500732421875 C-21.603849411010742,39.144500732421875 -39.144500732421875,21.603849411010742 -39.144500732421875,0 C-39.144500732421875,-21.603849411010742 -21.603849411010742,-39.144500732421875 0,-39.144500732421875z"></path></g></g><g transform="matrix(0.0007247730973176658,-0.0008707918459549546,0.0008707918459549546,0.0007247730973176658,96.53215026855469,65.70624542236328)" opacity="1" style="display: none;"><g opacity="1" transform="matrix(1,0,0,1,-0.8550000190734863,38.14500045776367)"><path fill="rgb(204,221,242)" fill-opacity="1" d=" M0,-39.144500732421875 C21.603849411010742,-39.144500732421875 39.144500732421875,-21.603849411010742 39.144500732421875,0 C39.144500732421875,21.603849411010742 21.603849411010742,39.144500732421875 0,39.144500732421875 C-21.603849411010742,39.144500732421875 -39.144500732421875,21.603849411010742 -39.144500732421875,0 C-39.144500732421875,-21.603849411010742 -21.603849411010742,-39.144500732421875 0,-39.144500732421875z"></path><path stroke-linecap="butt" stroke-linejoin="miter" fill-opacity="0" stroke-miterlimit="4" stroke="rgb(175,175,175)" stroke-opacity="1" stroke-width="0" d=" M0,-39.144500732421875 C21.603849411010742,-39.144500732421875 39.144500732421875,-21.603849411010742 39.144500732421875,0 C39.144500732421875,21.603849411010742 21.603849411010742,39.144500732421875 0,39.144500732421875 C-21.603849411010742,39.144500732421875 -39.144500732421875,21.603849411010742 -39.144500732421875,0 C-39.144500732421875,-21.603849411010742 -21.603849411010742,-39.144500732421875 0,-39.144500732421875z"></path></g></g><g transform="matrix(0.005003040190786123,-0.0060109943151474,0.0060109943151474,0.005003040190786123,92.02210235595703,60.59874725341797)" opacity="1" style="display: none;"><g opacity="1" transform="matrix(1,0,0,1,-0.8550000190734863,38.14500045776367)"><path fill="rgb(204,221,242)" fill-opacity="1" d=" M0,-39.144500732421875 C21.603849411010742,-39.144500732421875 39.144500732421875,-21.603849411010742 39.144500732421875,0 C39.144500732421875,21.603849411010742 21.603849411010742,39.144500732421875 0,39.144500732421875 C-21.603849411010742,39.144500732421875 -39.144500732421875,21.603849411010742 -39.144500732421875,0 C-39.144500732421875,-21.603849411010742 -21.603849411010742,-39.144500732421875 0,-39.144500732421875z"></path><path stroke-linecap="butt" stroke-linejoin="miter" fill-opacity="0" stroke-miterlimit="4" stroke="rgb(175,175,175)" stroke-opacity="1" stroke-width="0" d=" M0,-39.144500732421875 C21.603849411010742,-39.144500732421875 39.144500732421875,-21.603849411010742 39.144500732421875,0 C39.144500732421875,21.603849411010742 21.603849411010742,39.144500732421875 0,39.144500732421875 C-21.603849411010742,39.144500732421875 -39.144500732421875,21.603849411010742 -39.144500732421875,0 C-39.144500732421875,-21.603849411010742 -21.603849411010742,-39.144500732421875 0,-39.144500732421875z"></path></g></g><g transform="matrix(0.032621968537569046,-0.0391942635178566,0.0391942635178566,0.032621968537569046,100.90543365478516,56.13313293457031)" opacity="1" style="display: none;"><g opacity="1" transform="matrix(1,0,0,1,-0.8550000190734863,38.14500045776367)"><path fill="rgb(204,221,242)" fill-opacity="1" d=" M0,-39.144500732421875 C21.603849411010742,-39.144500732421875 39.144500732421875,-21.603849411010742 39.144500732421875,0 C39.144500732421875,21.603849411010742 21.603849411010742,39.144500732421875 0,39.144500732421875 C-21.603849411010742,39.144500732421875 -39.144500732421875,21.603849411010742 -39.144500732421875,0 C-39.144500732421875,-21.603849411010742 -21.603849411010742,-39.144500732421875 0,-39.144500732421875z"></path><path stroke-linecap="butt" stroke-linejoin="miter" fill-opacity="0" stroke-miterlimit="4" stroke="rgb(175,175,175)" stroke-opacity="1" stroke-width="0" d=" M0,-39.144500732421875 C21.603849411010742,-39.144500732421875 39.144500732421875,-21.603849411010742 39.144500732421875,0 C39.144500732421875,21.603849411010742 21.603849411010742,39.144500732421875 0,39.144500732421875 C-21.603849411010742,39.144500732421875 -39.144500732421875,21.603849411010742 -39.144500732421875,0 C-39.144500732421875,-21.603849411010742 -21.603849411010742,-39.144500732421875 0,-39.144500732421875z"></path></g></g><g transform="matrix(0,0,0,0,88.16374969482422,68.92118072509766)" opacity="1" style="display: none;"><g opacity="1" transform="matrix(1,0,0,1,-0.8550000190734863,38.14500045776367)"><path fill="rgb(204,221,242)" fill-opacity="1" d=" M0,-39.144500732421875 C21.603849411010742,-39.144500732421875 39.144500732421875,-21.603849411010742 39.144500732421875,0 C39.144500732421875,21.603849411010742 21.603849411010742,39.144500732421875 0,39.144500732421875 C-21.603849411010742,39.144500732421875 -39.144500732421875,21.603849411010742 -39.144500732421875,0 C-39.144500732421875,-21.603849411010742 -21.603849411010742,-39.144500732421875 0,-39.144500732421875z"></path><path stroke-linecap="butt" stroke-linejoin="miter" fill-opacity="0" stroke-miterlimit="4" stroke="rgb(175,175,175)" stroke-opacity="1" stroke-width="0" d=" M0,-39.144500732421875 C21.603849411010742,-39.144500732421875 39.144500732421875,-21.603849411010742 39.144500732421875,0 C39.144500732421875,21.603849411010742 21.603849411010742,39.144500732421875 0,39.144500732421875 C-21.603849411010742,39.144500732421875 -39.144500732421875,21.603849411010742 -39.144500732421875,0 C-39.144500732421875,-21.603849411010742 -21.603849411010742,-39.144500732421875 0,-39.144500732421875z"></path></g></g><g transform="matrix(0,0,0,0,93.98638916015625,58.50889205932617)" opacity="1" style="display: none;"><g opacity="1" transform="matrix(1,0,0,1,-0.8550000190734863,38.14500045776367)"><path fill="rgb(204,221,242)" fill-opacity="1" d=" M0,-39.144500732421875 C21.603849411010742,-39.144500732421875 39.144500732421875,-21.603849411010742 39.144500732421875,0 C39.144500732421875,21.603849411010742 21.603849411010742,39.144500732421875 0,39.144500732421875 C-21.603849411010742,39.144500732421875 -39.144500732421875,21.603849411010742 -39.144500732421875,0 C-39.144500732421875,-21.603849411010742 -21.603849411010742,-39.144500732421875 0,-39.144500732421875z"></path><path stroke-linecap="butt" stroke-linejoin="miter" fill-opacity="0" stroke-miterlimit="4" stroke="rgb(175,175,175)" stroke-opacity="1" stroke-width="0" d=" M0,-39.144500732421875 C21.603849411010742,-39.144500732421875 39.144500732421875,-21.603849411010742 39.144500732421875,0 C39.144500732421875,21.603849411010742 21.603849411010742,39.144500732421875 0,39.144500732421875 C-21.603849411010742,39.144500732421875 -39.144500732421875,21.603849411010742 -39.144500732421875,0 C-39.144500732421875,-21.603849411010742 -21.603849411010742,-39.144500732421875 0,-39.144500732421875z"></path></g></g><g transform="matrix(0,0,0,0,93.15657806396484,61.51382064819336)" opacity="1" style="display: none;"><g opacity="1" transform="matrix(1,0,0,1,-0.8550000190734863,38.14500045776367)"><path fill="rgb(204,221,242)" fill-opacity="1" d=" M0,-39.144500732421875 C21.603849411010742,-39.144500732421875 39.144500732421875,-21.603849411010742 39.144500732421875,0 C39.144500732421875,21.603849411010742 21.603849411010742,39.144500732421875 0,39.144500732421875 C-21.603849411010742,39.144500732421875 -39.144500732421875,21.603849411010742 -39.144500732421875,0 C-39.144500732421875,-21.603849411010742 -21.603849411010742,-39.144500732421875 0,-39.144500732421875z"></path><path stroke-linecap="butt" stroke-linejoin="miter" fill-opacity="0" stroke-miterlimit="4" stroke="rgb(175,175,175)" stroke-opacity="1" stroke-width="0" d=" M0,-39.144500732421875 C21.603849411010742,-39.144500732421875 39.144500732421875,-21.603849411010742 39.144500732421875,0 C39.144500732421875,21.603849411010742 21.603849411010742,39.144500732421875 0,39.144500732421875 C-21.603849411010742,39.144500732421875 -39.144500732421875,21.603849411010742 -39.144500732421875,0 C-39.144500732421875,-21.603849411010742 -21.603849411010742,-39.144500732421875 0,-39.144500732421875z"></path></g></g><g transform="matrix(0,0,0,0,90.07030487060547,59.148887634277344)" opacity="1" style="display: none;"><g opacity="1" transform="matrix(1,0,0,1,-0.8550000190734863,38.14500045776367)"><path fill="rgb(204,221,242)" fill-opacity="1" d=" M0,-39.144500732421875 C21.603849411010742,-39.144500732421875 39.144500732421875,-21.603849411010742 39.144500732421875,0 C39.144500732421875,21.603849411010742 21.603849411010742,39.144500732421875 0,39.144500732421875 C-21.603849411010742,39.144500732421875 -39.144500732421875,21.603849411010742 -39.144500732421875,0 C-39.144500732421875,-21.603849411010742 -21.603849411010742,-39.144500732421875 0,-39.144500732421875z"></path><path stroke-linecap="butt" stroke-linejoin="miter" fill-opacity="0" stroke-miterlimit="4" stroke="rgb(175,175,175)" stroke-opacity="1" stroke-width="0" d=" M0,-39.144500732421875 C21.603849411010742,-39.144500732421875 39.144500732421875,-21.603849411010742 39.144500732421875,0 C39.144500732421875,21.603849411010742 21.603849411010742,39.144500732421875 0,39.144500732421875 C-21.603849411010742,39.144500732421875 -39.144500732421875,21.603849411010742 -39.144500732421875,0 C-39.144500732421875,-21.603849411010742 -21.603849411010742,-39.144500732421875 0,-39.144500732421875z"></path></g></g><g transform="matrix(0,0,0,0,95.79107666015625,61.15773391723633)" opacity="1" style="display: none;"><g opacity="1" transform="matrix(1,0,0,1,-0.8550000190734863,38.14500045776367)"><path fill="rgb(204,221,242)" fill-opacity="1" d=" M0,-39.144500732421875 C21.603849411010742,-39.144500732421875 39.144500732421875,-21.603849411010742 39.144500732421875,0 C39.144500732421875,21.603849411010742 21.603849411010742,39.144500732421875 0,39.144500732421875 C-21.603849411010742,39.144500732421875 -39.144500732421875,21.603849411010742 -39.144500732421875,0 C-39.144500732421875,-21.603849411010742 -21.603849411010742,-39.144500732421875 0,-39.144500732421875z"></path><path stroke-linecap="butt" stroke-linejoin="miter" fill-opacity="0" stroke-miterlimit="4" stroke="rgb(175,175,175)" stroke-opacity="1" stroke-width="0" d=" M0,-39.144500732421875 C21.603849411010742,-39.144500732421875 39.144500732421875,-21.603849411010742 39.144500732421875,0 C39.144500732421875,21.603849411010742 21.603849411010742,39.144500732421875 0,39.144500732421875 C-21.603849411010742,39.144500732421875 -39.144500732421875,21.603849411010742 -39.144500732421875,0 C-39.144500732421875,-21.603849411010742 -21.603849411010742,-39.144500732421875 0,-39.144500732421875z"></path></g></g><g transform="matrix(-0.1930406391620636,-0.1711703985929489,-0.1711703985929489,0.1930406391620636,73.35636901855469,70.36930084228516)" opacity="0.7777777777777777" style="display: block;"><path stroke-linecap="butt" stroke-linejoin="miter" fill-opacity="0" stroke-miterlimit="4" stroke="rgb(204,221,242)" stroke-opacity="1" stroke-width="4.894736842105263" d=" M0,-13.1722412109375 C5.508057117462158,-13.1722412109375 9.980172157287598,-7.2697601318359375 9.980172157287598,0 C9.980172157287598,7.2697601318359375 5.508057117462158,13.1722412109375 0,13.1722412109375 C-5.508057117462158,13.1722412109375 -9.980172157287598,7.2697601318359375 -9.980172157287598,0 C-9.980172157287598,-7.2697601318359375 -5.508057117462158,-13.1722412109375 0,-13.1722412109375z"></path></g><g transform="matrix(-0.23188886046409607,-0.11309975385665894,-0.11309975385665894,0.23188886046409607,80.09085083007812,75.91864013671875)" opacity="0.9047619047619049" style="display: block;"><path stroke-linecap="butt" stroke-linejoin="miter" fill-opacity="0" stroke-miterlimit="4" stroke="rgb(204,221,242)" stroke-opacity="1" stroke-width="4.5" d=" M0,-8.536993026733398 C3.3271214962005615,-8.536993026733398 6.028486251831055,-4.71156644821167 6.028486251831055,0 C6.028486251831055,4.71156644821167 3.3271214962005615,8.536993026733398 0,8.536993026733398 C-3.3271214962005615,8.536993026733398 -6.028486251831055,4.71156644821167 -6.028486251831055,0 C-6.028486251831055,-4.71156644821167 -3.3271214962005615,-8.536993026733398 0,-8.536993026733398z"></path></g><g transform="matrix(0.15740326046943665,1.7991275787353516,1.7991275787353516,-0.15740326046943665,88.98548889160156,66.71627807617188)" opacity="1" style="display: block;"><g opacity="1" transform="matrix(1,0,0,1,0,0)"><path stroke-linecap="butt" stroke-linejoin="miter" fill-opacity="0" stroke-miterlimit="10" stroke="rgb(116,121,108)" stroke-opacity="1" stroke-width="1.706" d=" M4.251999855041504,26.316999435424805 C4.251999855041504,26.316999435424805 4.264999866485596,19.18899917602539 4.264999866485596,19.18899917602539"></path></g></g><g transform="matrix(0.15740326046943665,1.7991275787353516,1.7991275787353516,-0.15740326046943665,89.07942199707031,66.11551666259766)" opacity="1" style="display: block;"><g opacity="1" transform="matrix(1,0,0,1,4.264999866485596,25.02899932861328)"><path fill="rgb(95,95,85)" fill-opacity="1" d=" M2.8889999389648438,0 C2.8889999389648438,1.5959999561309814 1.5959999561309814,2.8889999389648438 0,2.8889999389648438 C-1.5959999561309814,2.8889999389648438 -2.8889999389648438,1.5959999561309814 -2.8889999389648438,0 C-2.8889999389648438,-1.5959999561309814 -1.5959999561309814,-2.8889999389648438 0,-2.8889999389648438 C1.5959999561309814,-2.8889999389648438 2.8889999389648438,-1.5959999561309814 2.8889999389648438,0z"></path></g><g opacity="1" transform="matrix(1,0,0,1,4.264999866485596,25.02899932861328)"><path fill="rgb(250,175,58)" fill-opacity="1" d=" M1.7389999628067017,0 C1.7389999628067017,0.9599999785423279 0.9610000252723694,1.7389999628067017 0,1.7389999628067017 C-0.9599999785423279,1.7389999628067017 -1.7389999628067017,0.9599999785423279 -1.7389999628067017,0 C-1.7389999628067017,-0.9599999785423279 -0.9599999785423279,-1.7389999628067017 0,-1.7389999628067017 C0.9610000252723694,-1.7389999628067017 1.7389999628067017,-0.9599999785423279 1.7389999628067017,0z"></path></g></g><g transform="matrix(0.15740326046943665,1.7991275787353516,1.7991275787353516,-0.15740326046943665,88.98548889160156,66.71627807617188)" opacity="1" style="display: block;"><g opacity="1" transform="matrix(1,0,0,1,0,0)"><path stroke-linecap="butt" stroke-linejoin="miter" fill-opacity="0" stroke-miterlimit="10" stroke="rgb(116,121,108)" stroke-opacity="1" stroke-width="1.706" d=" M7.232999801635742,15.779999732971191 C7.232999801635742,15.779999732971191 6.947000026702881,4.264999866485596 6.947000026702881,4.264999866485596"></path></g><g opacity="1" transform="matrix(1,0,0,1,6.947000026702881,8.42199993133545)"><path fill="rgb(116,121,108)" fill-opacity="1" d=" M-1.7799999713897705,3.303999900817871 C-1.7799999713897705,3.303999900817871 1.7799999713897705,3.303999900817871 1.7799999713897705,3.303999900817871 C1.7799999713897705,3.303999900817871 1.7799999713897705,-3.303999900817871 1.7799999713897705,-3.303999900817871 C1.7799999713897705,-3.303999900817871 -1.7799999713897705,-3.303999900817871 -1.7799999713897705,-3.303999900817871 C-1.7799999713897705,-3.303999900817871 -1.7799999713897705,3.303999900817871 -1.7799999713897705,3.303999900817871z"></path></g></g><g transform="matrix(0.15740326046943665,1.7991275787353516,1.7991275787353516,-0.15740326046943665,88.98548889160156,66.71627807617188)" opacity="1" style="display: block;"><g opacity="1" transform="matrix(1,0,0,1,18.091999053955078,12.154000282287598)"><path fill="rgb(214,124,42)" fill-opacity="1" d=" M-5.730000019073486,2.742000102996826 C-5.730000019073486,2.742000102996826 -2.4779999256134033,-7.034999847412109 -2.4779999256134033,-7.034999847412109 C-2.4779999256134033,-7.034999847412109 4.539999961853027,-7.034999847412109 4.539999961853027,-7.034999847412109 C5.197000026702881,-7.034999847412109 5.730000019073486,-6.501999855041504 5.730000019073486,-5.84499979019165 C5.730000019073486,-5.84499979019165 5.730000019073486,7.034999847412109 5.730000019073486,7.034999847412109 C5.730000019073486,7.034999847412109 -5.730000019073486,2.742000102996826 -5.730000019073486,2.742000102996826z"></path></g><g opacity="1" transform="matrix(1,0,0,1,9.940999984741211,16.993000030517578)"><path fill="rgb(214,124,42)" fill-opacity="1" d=" M8.932000160217285,4.414000034332275 C8.932000160217285,4.414000034332275 -8.932000160217285,4.414000034332275 -8.932000160217285,4.414000034332275 C-8.932000160217285,4.414000034332275 -8.932000160217285,-0.8519999980926514 -8.932000160217285,-0.8519999980926514 C-8.932000160217285,-2.819000005722046 -7.336999893188477,-4.414000034332275 -5.369999885559082,-4.414000034332275 C-5.369999885559082,-4.414000034332275 8.932000160217285,-4.414000034332275 8.932000160217285,-4.414000034332275 C8.932000160217285,-4.414000034332275 8.932000160217285,4.414000034332275 8.932000160217285,4.414000034332275z"></path></g><g opacity="1" transform="matrix(1,0,0,1,15.84000015258789,9.815999984741211)"><path fill="rgb(255,236,172)" fill-opacity="1" d=" M-0.5099999904632568,-3.8450000286102295 C-0.5099999904632568,-3.8450000286102295 1.6799999475479126,-3.8450000286102295 1.6799999475479126,-3.8450000286102295 C2.2820000648498535,-3.8450000286102295 2.7079999446868896,-3.253999948501587 2.5169999599456787,-2.681999921798706 C2.5169999599456787,-2.681999921798706 0.7739999890327454,2.558000087738037 0.7739999890327454,2.558000087738037 C0.48399999737739563,3.430000066757202 -0.5090000033378601,3.8450000286102295 -1.3329999446868896,3.440000057220459 C-1.3329999446868896,3.440000057220459 -2.7079999446868896,2.7639999389648438 -2.7079999446868896,2.7639999389648438 C-2.7079999446868896,2.7639999389648438 -0.5099999904632568,-3.8450000286102295 -0.5099999904632568,-3.8450000286102295z"></path></g><g opacity="1" transform="matrix(1,0,0,1,14.996000289916992,11.331000328063965)"><path fill="rgb(29,153,212)" fill-opacity="1" d=" M1.190999984741211,0 C1.190999984741211,-0.6570000052452087 0.6579999923706055,-1.190000057220459 0.0010000000474974513,-1.190000057220459 C-0.6570000052452087,-1.190000057220459 -1.190999984741211,-0.6570000052452087 -1.190999984741211,0 C-1.190999984741211,0.6570000052452087 -0.6570000052452087,1.190000057220459 0.0010000000474974513,1.190000057220459 C0.6579999923706055,1.190000057220459 1.190999984741211,0.6570000052452087 1.190999984741211,0z"></path></g><g opacity="1" transform="matrix(1,0,0,1,16.621000289916992,7.502999782562256)"><path fill="rgb(250,175,58)" fill-opacity="1" d=" M0.8989999890327454,-1.531999945640564 C0.8989999890327454,-1.531999945640564 -1.2910000085830688,-1.531999945640564 -1.2910000085830688,-1.531999945640564 C-1.2910000085830688,-1.531999945640564 -3.569000005722046,5.164999961853027 -3.569000005722046,5.164999961853027 C-2.13700008392334,6.408999919891357 -0.5659999847412109,6.408999919891357 0.03200000151991844,4.960000038146973 C0.03200000151991844,4.960000038146973 1.7359999418258667,-0.36899998784065247 1.7359999418258667,-0.36899998784065247 C1.9259999990463257,-0.9409999847412109 1.5010000467300415,-1.531999945640564 0.8989999890327454,-1.531999945640564z"></path></g><g opacity="1" transform="matrix(1,0,0,1,8.241000175476074,18.115999221801758)"><path fill="rgb(162,86,24)" fill-opacity="1" d=" M-0.8230000138282776,-1.5 C-0.8230000138282776,-1.5 3.072999954223633,-1.5 3.072999954223633,-1.5 C3.072999954223633,-1.5 3.072999954223633,1.5 3.072999954223633,1.5 C3.072999954223633,1.5 -3.072999954223633,1.5 -3.072999954223633,1.5 C-3.072999954223633,1.5 -3.072999954223633,0.75 -3.072999954223633,0.75 C-3.072999954223633,-0.49300000071525574 -2.065999984741211,-1.5 -0.8230000138282776,-1.5z"></path></g></g><g transform="matrix(-1.8059998750686646,0,0,1.8059998750686646,164.68592834472656,58.66695022583008)" opacity="1" style="display: block;"><g opacity="1" transform="matrix(1,0,0,1,18.871999740600586,21.406999588012695)"><path fill="rgb(214,124,42)" fill-opacity="1" d=" M1.7920000553131104,0 C1.7920000553131104,-0.9900000095367432 0.9890000224113464,-1.7920000553131104 -0.0010000000474974513,-1.7920000553131104 C-0.9900000095367432,-1.7920000553131104 -1.7920000553131104,-0.9900000095367432 -1.7920000553131104,0 C-1.7920000553131104,0.9890000224113464 -0.9900000095367432,1.7920000553131104 -0.0010000000474974513,1.7920000553131104 C0.9890000224113464,1.7920000553131104 1.7920000553131104,0.9890000224113464 1.7920000553131104,0z"></path></g></g><g transform="matrix(0.957034170627594,-1.5315747261047363,-1.5315747261047363,-0.957034170627594,145.2823944091797,146.8354949951172)" opacity="1" style="display: block;"><g opacity="1" transform="matrix(1,0,0,1,18.87299919128418,21.406999588012695)"><path fill="rgb(95,95,85)" fill-opacity="1" d=" M6.511000156402588,0 C6.511000156402588,-3.5959999561309814 3.5959999561309814,-6.511000156402588 0,-6.511000156402588 C-3.5959999561309814,-6.511000156402588 -6.511000156402588,-3.5959999561309814 -6.511000156402588,0 C-6.511000156402588,3.5959999561309814 -3.5959999561309814,6.511000156402588 0,6.511000156402588 C3.5959999561309814,6.511000156402588 6.511000156402588,3.5959999561309814 6.511000156402588,0z"></path></g><g opacity="1" transform="matrix(1,0,0,1,18.871999740600586,21.406999588012695)"><path fill="rgb(250,175,58)" fill-opacity="1" d=" M4.1519999504089355,0 C4.1519999504089355,-2.2929999828338623 2.2929999828338623,-4.151000022888184 0.0010000000474974513,-4.151000022888184 C-2.2920000553131104,-4.151000022888184 -4.1519999504089355,-2.2929999828338623 -4.1519999504089355,0 C-4.1519999504089355,2.2929999828338623 -2.2920000553131104,4.151000022888184 0.0010000000474974513,4.151000022888184 C2.2929999828338623,4.151000022888184 4.1519999504089355,2.2929999828338623 4.1519999504089355,0z"></path></g><g opacity="1" transform="matrix(1,0,0,1,18.871999740600586,21.406999588012695)"><path fill="rgb(214,124,42)" fill-opacity="1" d=" M1.7920000553131104,0 C1.7920000553131104,-0.9900000095367432 0.9890000224113464,-1.7920000553131104 -0.0010000000474974513,-1.7920000553131104 C-0.9900000095367432,-1.7920000553131104 -1.7920000553131104,-0.9900000095367432 -1.7920000553131104,0 C-1.7920000553131104,0.9890000224113464 -0.9900000095367432,1.7920000553131104 -0.0010000000474974513,1.7920000553131104 C0.9890000224113464,1.7920000553131104 1.7920000553131104,0.9890000224113464 1.7920000553131104,0z"></path></g></g></g></svg>