<svg xmlns="http://www.w3.org/2000/svg" viewBox="0 0 58 50" width="58" height="50" preserveAspectRatio="xMidYMid meet" style="width: 100%; height: 100%; transform: translate3d(0px, 0px, 0px); content-visibility: visible;"><defs><clipPath id="__lottie_element_324"><rect width="58" height="50" x="0" y="0"></rect></clipPath></defs><g clip-path="url(#__lottie_element_324)"><g transform="matrix(0.00288523081690073,-0.0503707230091095,0.3893299102783203,0.022300774231553078,-6.264437198638916,19.79359245300293)" opacity="1" style="display: block;"><g opacity="1" transform="matrix(1,0,0,1,80.71600341796875,65.09500122070312)"><path fill="rgb(51,104,172)" fill-opacity="1" d=" M-2.7209999561309814,-26.98900032043457 C15.26099967956543,-19.972000122070312 25.812999725341797,8.28499984741211 27.464000701904297,27.08799934387207 C27.590999603271484,28.538999557495117 26.018999099731445,29.51799964904785 24.775999069213867,28.76099967956543 C15.729999542236328,23.253999710083008 -12.331999778747559,4.111000061035156 -27.590999603271484,-29.518999099731445 C-27.590999603271484,-29.518999099731445 -2.7209999561309814,-26.98900032043457 -2.7209999561309814,-26.98900032043457z"></path></g><g opacity="1" transform="matrix(1,0,0,1,80.68099975585938,62.27799987792969)"><path fill="rgb(51,104,172)" fill-opacity="1" d=" M-6.479000091552734,-25.91200065612793 C12.321999549865723,-21.535999298095703 26.802000045776367,4.925000190734863 31.121999740600586,23.298999786376953 C31.454999923706055,24.715999603271484 30.038999557495117,25.910999298095703 28.700000762939453,25.339000701904297 C18.959999084472656,21.18000030517578 -11.548999786376953,6.241000175476074 -31.454999923706055,-24.86400032043457 C-31.454999923706055,-24.86400032043457 -6.479000091552734,-25.91200065612793 -6.479000091552734,-25.91200065612793z"></path></g><g opacity="1" transform="matrix(1,0,0,1,66.24400329589844,44.14899826049805)"><path fill="rgb(252,46,6)" fill-opacity="1" d=" M1.4390000104904175,-15.60200023651123 C9.875,-12.920000076293945 26.174999237060547,-5.120999813079834 34.28300094604492,10.996999740600586 C34.28300094604492,10.996999740600586 0.40299999713897705,17.851999282836914 -26.56399917602539,-0.5879999995231628 C-34.28300094604492,-5.867000102996826 -5.636000156402588,-17.851999282836914 1.4390000104904175,-15.60200023651123z"></path></g><g opacity="1" transform="matrix(1,0,0,1,73.875,50.255001068115234)"><path fill="rgb(254,200,45)" fill-opacity="1" d=" M-15.255000114440918,-2.440000057220459 C-5.074999809265137,-3.321000099182129 4.925000190734863,-6.111000061035156 14.128999710083008,-10.54699993133545 C18.92300033569336,-6.572000026702881 23.43400001525879,-1.5049999952316284 26.650999069213867,4.890999794006348 C26.650999069213867,4.890999794006348 -1.312999963760376,10.54699993133545 -26.650999069213867,-2.246999979019165 C-22.854000091552734,-2.055000066757202 -19.04400062561035,-2.111999988555908 -15.255000114440918,-2.440000057220459z"></path></g><g opacity="1" transform="matrix(1,0,0,1,74.42500305175781,54.56999969482422)"><path fill="rgb(254,200,45)" fill-opacity="1" d=" M26.10099983215332,0.5759999752044678 C26.746000289916992,2.0169999599456787 27.201000213623047,4.118000030517578 25.562000274658203,4.980000019073486 C22.673999786376953,6.498000144958496 17.98200035095215,3.0880000591278076 16.82900047302246,1.9160000085830688 C17.405000686645508,3.753000020980835 16.68400001525879,5.673999786376953 15.145999908447266,6.056000232696533 C13.11400032043457,6.560999870300293 9.86400032043457,5.361999988555908 6.414000034332275,2.00600004196167 C6.507999897003174,3.4170000553131104 5.833000183105469,5.138000011444092 3.703000068664551,5.138000011444092 C1.3769999742507935,5.138000011444092 -0.7200000286102295,3.240000009536743 -2.7809998989105225,1.0479999780654907 C-2.7809998989105225,1.0479999780654907 -1.656999945640564,3.9159998893737793 -4.335999965667725,4.5 C-6.265999794006348,4.921999931335449 -9.385000228881836,3.815999984741211 -27.201000213623047,-6.560999870300293"></path></g></g><g transform="matrix(0.2768949568271637,-0.18552108108997345,0.18552108108997345,0.2768949568271637,-1.2752588987350464,22.08025360107422)" opacity="1" style="display: block;"><g opacity="1" transform="matrix(1,0,0,1,62.472999572753906,32.36199951171875)"><path fill="rgb(252,46,6)" fill-opacity="1" d=" M-34.623382568359375,-11.906153678894043 C-36.6902961730957,-13.46652889251709 -35.62310791015625,-21.381328582763672 -34.368202209472656,-24.786375045776367 C-33.3487663269043,-27.552175521850586 -31.507659912109375,-29.96234130859375 -30.085390090942383,-32.546024322509766 C-28.289657592773438,-35.808780670166016 -23.573598861694336,-33.50254440307617 -21.249095916748047,-31.981019973754883 C-18.219701766967773,-29.998641967773438 -16.25887680053711,-28.876644134521484 -14.321239471435547,-25.71564483642578 C-12.642888069152832,-22.976991653442383 -11.289567947387695,-20.396873474121094 -9.232683181762695,-17.98649787902832 C-4.814641952514648,-12.808408737182617 -0.7009999752044678,-8.822999954223633 5.801000118255615,-4.942999839782715 C14.880000114440918,0.4749999940395355 36.150001525878906,21.634000778198242 31.42300033569336,22.58300018310547 C18.715999603271484,25.134000778198242 -0.1509999930858612,25.19300079345703 -11.223999977111816,14.4350004196167 C-17.930999755859375,7.918000221252441 -26.37973976135254,-5.68304443359375 -34.623382568359375,-11.906153678894043z"></path></g><g opacity="1" transform="matrix(1,0,0,1,62.472999572753906,32.36199951171875)"><path fill="rgb(252,46,6)" fill-opacity="1" d=" M15.92300033569336,2.3380000591278076 C35.025001525878906,16.95199966430664 71.22373962402344,43.06509780883789 86.12390899658203,60.638790130615234 C86.12390899658203,60.638790130615234 56.20433044433594,35.061038970947266 31.42300033569336,22.58300018310547 C18.715999603271484,25.134000778198242 11.197999954223633,-1.2769999504089355 15.92300033569336,2.3380000591278076z"></path></g></g><g transform="matrix(-0.03219115734100342,0.08435886353254318,0.4020034968852997,0.153403639793396,7.982255935668945,10.418030738830566)" opacity="1" style="display: block;"><g opacity="1" transform="matrix(1,0,0,1,80.71600341796875,65.09500122070312)"><path fill="rgb(51,104,172)" fill-opacity="1" d=" M-2.7209999561309814,-26.98900032043457 C15.26099967956543,-19.972000122070312 25.812999725341797,8.28499984741211 27.464000701904297,27.08799934387207 C27.590999603271484,28.538999557495117 26.018999099731445,29.51799964904785 24.775999069213867,28.76099967956543 C15.729999542236328,23.253999710083008 -12.331999778747559,4.111000061035156 -27.590999603271484,-29.518999099731445 C-27.590999603271484,-29.518999099731445 -2.7209999561309814,-26.98900032043457 -2.7209999561309814,-26.98900032043457z"></path></g><g opacity="1" transform="matrix(1,0,0,1,80.68099975585938,62.27799987792969)"><path fill="rgb(51,104,172)" fill-opacity="1" d=" M-6.479000091552734,-25.91200065612793 C12.321999549865723,-21.535999298095703 26.802000045776367,4.925000190734863 31.121999740600586,23.298999786376953 C31.454999923706055,24.715999603271484 30.038999557495117,25.910999298095703 28.700000762939453,25.339000701904297 C18.959999084472656,21.18000030517578 -11.548999786376953,6.241000175476074 -31.454999923706055,-24.86400032043457 C-31.454999923706055,-24.86400032043457 -6.479000091552734,-25.91200065612793 -6.479000091552734,-25.91200065612793z"></path></g><g opacity="1" transform="matrix(1,0,0,1,66.24400329589844,44.14899826049805)"><path fill="rgb(252,46,6)" fill-opacity="1" d=" M1.4390000104904175,-15.60200023651123 C9.875,-12.920000076293945 26.174999237060547,-5.120999813079834 34.28300094604492,10.996999740600586 C34.28300094604492,10.996999740600586 0.40299999713897705,17.851999282836914 -26.56399917602539,-0.5879999995231628 C-34.28300094604492,-5.867000102996826 -5.636000156402588,-17.851999282836914 1.4390000104904175,-15.60200023651123z"></path></g><g opacity="1" transform="matrix(1,0,0,1,73.875,50.255001068115234)"><path fill="rgb(254,200,45)" fill-opacity="1" d=" M-15.255000114440918,-2.440000057220459 C-5.074999809265137,-3.321000099182129 4.925000190734863,-6.111000061035156 14.128999710083008,-10.54699993133545 C18.92300033569336,-6.572000026702881 23.43400001525879,-1.5049999952316284 26.650999069213867,4.890999794006348 C26.650999069213867,4.890999794006348 -1.312999963760376,10.54699993133545 -26.650999069213867,-2.246999979019165 C-22.854000091552734,-2.055000066757202 -19.04400062561035,-2.111999988555908 -15.255000114440918,-2.440000057220459z"></path></g><g opacity="1" transform="matrix(1,0,0,1,74.42500305175781,54.56999969482422)"><path fill="rgb(254,200,45)" fill-opacity="1" d=" M26.10099983215332,0.5759999752044678 C26.746000289916992,2.0169999599456787 27.201000213623047,4.118000030517578 25.562000274658203,4.980000019073486 C22.673999786376953,6.498000144958496 17.98200035095215,3.0880000591278076 16.82900047302246,1.9160000085830688 C17.405000686645508,3.753000020980835 16.68400001525879,5.673999786376953 15.145999908447266,6.056000232696533 C13.11400032043457,6.560999870300293 9.86400032043457,5.361999988555908 6.414000034332275,2.00600004196167 C6.507999897003174,3.4170000553131104 5.833000183105469,5.138000011444092 3.703000068664551,5.138000011444092 C1.3769999742507935,5.138000011444092 -0.7200000286102295,3.240000009536743 -2.7809998989105225,1.0479999780654907 C-2.7809998989105225,1.0479999780654907 -1.656999945640564,3.9159998893737793 -4.335999965667725,4.5 C-6.265999794006348,4.921999931335449 -9.385000228881836,3.815999984741211 -27.201000213623047,-6.560999870300293"></path></g></g><g transform="matrix(0.3144162595272064,0.11059512943029404,-0.11059512943029404,0.3144162595272064,1.0491697788238525,9.8496675491333)" opacity="1" style="display: block;"><g opacity="1" transform="matrix(1,0,0,1,31.67799949645996,23.579999923706055)"><path fill="rgb(78,68,95)" fill-opacity="1" d=" M5.543000221252441,3.138000011444092 C2.065999984741211,5.308000087738037 -2.9769999980926514,4.453000068664551 -5.543000221252441,1.2580000162124634 C-5.543000221252441,1.2580000162124634 0.6010000109672546,-5.309000015258789 0.6010000109672546,-5.309000015258789 C0.6010000109672546,-5.309000015258789 5.543000221252441,3.138000011444092 5.543000221252441,3.138000011444092z"></path></g><g opacity="1" transform="matrix(1,0,0,1,28.665000915527344,20.945999145507812)"><path fill="rgb(235,231,192)" fill-opacity="1" d=" M-1.5750000476837158,-10.406999588012695 C-7.547999858856201,-6.124000072479248 -10.03600025177002,1.968999981880188 -5.052000045776367,10.406999588012695 C-5.052000045776367,10.406999588012695 -1.7589999437332153,-2.2980000972747803 10.03600025177002,-0.14399999380111694 C10.03600025177002,-0.14399999380111694 8.763999938964844,-4.705999851226807 5.849999904632568,-7.48799991607666 C2.937000036239624,-10.270000457763672 -1.5750000476837158,-10.406999588012695 -1.5750000476837158,-10.406999588012695z"></path></g><g opacity="1" transform="matrix(1,0,0,1,37.301998138427734,15.123000144958496)"><path fill="rgb(235,231,192)" fill-opacity="1" d=" M7.827000141143799,-0.4189999997615814 C8.416000366210938,-3.36899995803833 7.5929999351501465,-6.916999816894531 4.216000080108643,-7.796000003814697 C1.6360000371932983,-8.468999862670898 -1.8359999656677246,-7.8460001945495605 -4.682000160217285,-6.255000114440918 C-8.159000396728516,-4.310999870300293 -8.416000366210938,-1.2309999465942383 -8.36299991607666,0.03799999877810478 C-8.36299991607666,0.03799999877810478 -8.055000305175781,1.74399995803833 -6.421000003814697,4.377999782562256 C-5.52400016784668,5.823999881744385 -4.854000091552734,5.98799991607666 -4.854000091552734,5.98799991607666 C-4.513999938964844,6.789999961853027 -4.26200008392334,7.611999988555908 -4.1519999504089355,8.468999862670898 C-2.1989998817443848,8.213000297546387 0.09099999815225601,7.867000102996826 1.8589999675750732,7.0970001220703125 C4.855000019073486,5.794000148773193 7.190999984741211,2.7690000534057617 7.827000141143799,-0.4189999997615814z"></path></g><g opacity="1" transform="matrix(0.1364634782075882,-0.05917182192206383,0.05917182192206383,0.1364634782075882,37.9630012512207,11.951000213623047)"><path fill="rgb(78,68,95)" fill-opacity="1" d=" M19.5,0 C19.5,0 19.5,0 19.5,0 C19.5,10.762049674987793 10.762049674987793,19.5 0,19.5 C0,19.5 0,19.5 0,19.5 C-10.762049674987793,19.5 -19.5,10.762049674987793 -19.5,0 C-19.5,0 -19.5,0 -19.5,0 C-19.5,-10.762049674987793 -10.762049674987793,-19.5 0,-19.5 C0,-19.5 0,-19.5 0,-19.5 C10.762049674987793,-19.5 19.5,-10.762049674987793 19.5,0z"></path></g></g></g></svg>