<svg xmlns="http://www.w3.org/2000/svg" viewBox="0 0 109 122" width="109" height="122" preserveAspectRatio="xMidYMid meet" style="width: 100%; height: 100%; transform: translate3d(0px, 0px, 0px); content-visibility: visible;"><defs><clipPath id="__lottie_element_3132"><rect width="109" height="122" x="0" y="0"></rect></clipPath></defs><g clip-path="url(#__lottie_element_3132)"><g transform="matrix(0.5421298146247864,0.19731910526752472,-0.19731910526752472,0.5421298146247864,81.33318328857422,30.552043914794922)" opacity="1" style="display: block;"><g opacity="1" transform="matrix(1,0,0,1,-0.8550000190734863,38.14500045776367)"><path fill="rgb(151,210,134)" fill-opacity="1" d=" M0,-39.144500732421875 C21.603849411010742,-39.144500732421875 39.144500732421875,-21.603849411010742 39.144500732421875,0 C39.144500732421875,21.603849411010742 21.603849411010742,39.144500732421875 0,39.144500732421875 C-21.603849411010742,39.144500732421875 -39.144500732421875,21.603849411010742 -39.144500732421875,0 C-39.144500732421875,-21.603849411010742 -21.603849411010742,-39.144500732421875 0,-39.144500732421875z"></path><path stroke-linecap="butt" stroke-linejoin="miter" fill-opacity="0" stroke-miterlimit="4" stroke="rgb(175,175,175)" stroke-opacity="1" stroke-width="0" d=" M0,-39.144500732421875 C21.603849411010742,-39.144500732421875 39.144500732421875,-21.603849411010742 39.144500732421875,0 C39.144500732421875,21.603849411010742 21.603849411010742,39.144500732421875 0,39.144500732421875 C-21.603849411010742,39.144500732421875 -39.144500732421875,21.603849411010742 -39.144500732421875,0 C-39.144500732421875,-21.603849411010742 -21.603849411010742,-39.144500732421875 0,-39.144500732421875z"></path></g></g><g transform="matrix(0.17811542749404907,0.06482872366905212,-0.06482872366905212,0.17811542749404907,69.43263244628906,86.26508331298828)" opacity="1" style="display: block;"><g opacity="1" transform="matrix(1,0,0,1,-0.8550000190734863,38.14500045776367)"><path fill="rgb(151,210,134)" fill-opacity="1" d=" M0,-39.144500732421875 C21.603849411010742,-39.144500732421875 39.144500732421875,-21.603849411010742 39.144500732421875,0 C39.144500732421875,21.603849411010742 21.603849411010742,39.144500732421875 0,39.144500732421875 C-21.603849411010742,39.144500732421875 -39.144500732421875,21.603849411010742 -39.144500732421875,0 C-39.144500732421875,-21.603849411010742 -21.603849411010742,-39.144500732421875 0,-39.144500732421875z"></path><path stroke-linecap="butt" stroke-linejoin="miter" fill-opacity="0" stroke-miterlimit="4" stroke="rgb(175,175,175)" stroke-opacity="1" stroke-width="0" d=" M0,-39.144500732421875 C21.603849411010742,-39.144500732421875 39.144500732421875,-21.603849411010742 39.144500732421875,0 C39.144500732421875,21.603849411010742 21.603849411010742,39.144500732421875 0,39.144500732421875 C-21.603849411010742,39.144500732421875 -39.144500732421875,21.603849411010742 -39.144500732421875,0 C-39.144500732421875,-21.603849411010742 -21.603849411010742,-39.144500732421875 0,-39.144500732421875z"></path></g></g><g transform="matrix(0.17811542749404907,0.06482872366905212,-0.06482872366905212,0.17811542749404907,62.29890823364258,81.41500091552734)" opacity="1" style="display: block;"><g opacity="1" transform="matrix(1,0,0,1,-0.8550000190734863,38.14500045776367)"><path fill="rgb(151,210,134)" fill-opacity="1" d=" M0,-39.144500732421875 C21.603849411010742,-39.144500732421875 39.144500732421875,-21.603849411010742 39.144500732421875,0 C39.144500732421875,21.603849411010742 21.603849411010742,39.144500732421875 0,39.144500732421875 C-21.603849411010742,39.144500732421875 -39.144500732421875,21.603849411010742 -39.144500732421875,0 C-39.144500732421875,-21.603849411010742 -21.603849411010742,-39.144500732421875 0,-39.144500732421875z"></path><path stroke-linecap="butt" stroke-linejoin="miter" fill-opacity="0" stroke-miterlimit="4" stroke="rgb(175,175,175)" stroke-opacity="1" stroke-width="0" d=" M0,-39.144500732421875 C21.603849411010742,-39.144500732421875 39.144500732421875,-21.603849411010742 39.144500732421875,0 C39.144500732421875,21.603849411010742 21.603849411010742,39.144500732421875 0,39.144500732421875 C-21.603849411010742,39.144500732421875 -39.144500732421875,21.603849411010742 -39.144500732421875,0 C-39.144500732421875,-21.603849411010742 -21.603849411010742,-39.144500732421875 0,-39.144500732421875z"></path></g></g><g transform="matrix(0.4926186203956604,0.1792985200881958,-0.1792985200881958,0.4926186203956604,83.97232055664062,39.55903625488281)" opacity="1" style="display: block;"><g opacity="1" transform="matrix(1,0,0,1,-0.8550000190734863,38.14500045776367)"><path fill="rgb(151,210,134)" fill-opacity="1" d=" M0,-39.144500732421875 C21.603849411010742,-39.144500732421875 39.144500732421875,-21.603849411010742 39.144500732421875,0 C39.144500732421875,21.603849411010742 21.603849411010742,39.144500732421875 0,39.144500732421875 C-21.603849411010742,39.144500732421875 -39.144500732421875,21.603849411010742 -39.144500732421875,0 C-39.144500732421875,-21.603849411010742 -21.603849411010742,-39.144500732421875 0,-39.144500732421875z"></path><path stroke-linecap="butt" stroke-linejoin="miter" fill-opacity="0" stroke-miterlimit="4" stroke="rgb(175,175,175)" stroke-opacity="1" stroke-width="0" d=" M0,-39.144500732421875 C21.603849411010742,-39.144500732421875 39.144500732421875,-21.603849411010742 39.144500732421875,0 C39.144500732421875,21.603849411010742 21.603849411010742,39.144500732421875 0,39.144500732421875 C-21.603849411010742,39.144500732421875 -39.144500732421875,21.603849411010742 -39.144500732421875,0 C-39.144500732421875,-21.603849411010742 -21.603849411010742,-39.144500732421875 0,-39.144500732421875z"></path></g></g><g transform="matrix(0.14377006888389587,0.05232802405953407,-0.05232802405953407,0.14377006888389587,47.674034118652344,34.09580612182617)" opacity="1" style="display: block;"><g opacity="1" transform="matrix(1,0,0,1,-0.8550000190734863,38.14500045776367)"><path fill="rgb(151,210,134)" fill-opacity="1" d=" M0,-39.144500732421875 C21.603849411010742,-39.144500732421875 39.144500732421875,-21.603849411010742 39.144500732421875,0 C39.144500732421875,21.603849411010742 21.603849411010742,39.144500732421875 0,39.144500732421875 C-21.603849411010742,39.144500732421875 -39.144500732421875,21.603849411010742 -39.144500732421875,0 C-39.144500732421875,-21.603849411010742 -21.603849411010742,-39.144500732421875 0,-39.144500732421875z"></path><path stroke-linecap="butt" stroke-linejoin="miter" fill-opacity="0" stroke-miterlimit="4" stroke="rgb(175,175,175)" stroke-opacity="1" stroke-width="0" d=" M0,-39.144500732421875 C21.603849411010742,-39.144500732421875 39.144500732421875,-21.603849411010742 39.144500732421875,0 C39.144500732421875,21.603849411010742 21.603849411010742,39.144500732421875 0,39.144500732421875 C-21.603849411010742,39.144500732421875 -39.144500732421875,21.603849411010742 -39.144500732421875,0 C-39.144500732421875,-21.603849411010742 -21.603849411010742,-39.144500732421875 0,-39.144500732421875z"></path></g></g><g transform="matrix(0.3695184290409088,0.13449370861053467,-0.13449370861053467,0.3695184290409088,65.0518569946289,69.02704620361328)" opacity="1" style="display: block;"><g opacity="1" transform="matrix(1,0,0,1,-0.8550000190734863,38.14500045776367)"><path fill="rgb(151,210,134)" fill-opacity="1" d=" M0,-39.144500732421875 C21.603849411010742,-39.144500732421875 39.144500732421875,-21.603849411010742 39.144500732421875,0 C39.144500732421875,21.603849411010742 21.603849411010742,39.144500732421875 0,39.144500732421875 C-21.603849411010742,39.144500732421875 -39.144500732421875,21.603849411010742 -39.144500732421875,0 C-39.144500732421875,-21.603849411010742 -21.603849411010742,-39.144500732421875 0,-39.144500732421875z"></path><path stroke-linecap="butt" stroke-linejoin="miter" fill-opacity="0" stroke-miterlimit="4" stroke="rgb(175,175,175)" stroke-opacity="1" stroke-width="0" d=" M0,-39.144500732421875 C21.603849411010742,-39.144500732421875 39.144500732421875,-21.603849411010742 39.144500732421875,0 C39.144500732421875,21.603849411010742 21.603849411010742,39.144500732421875 0,39.144500732421875 C-21.603849411010742,39.144500732421875 -39.144500732421875,21.603849411010742 -39.144500732421875,0 C-39.144500732421875,-21.603849411010742 -21.603849411010742,-39.144500732421875 0,-39.144500732421875z"></path></g></g><g transform="matrix(0.45641255378723145,0.16612057387828827,-0.16612057387828827,0.45641255378723145,57.48093795776367,38.55476379394531)" opacity="1" style="display: block;"><g opacity="1" transform="matrix(1,0,0,1,-0.8550000190734863,38.14500045776367)"><path fill="rgb(151,210,134)" fill-opacity="1" d=" M0,-39.144500732421875 C21.603849411010742,-39.144500732421875 39.144500732421875,-21.603849411010742 39.144500732421875,0 C39.144500732421875,21.603849411010742 21.603849411010742,39.144500732421875 0,39.144500732421875 C-21.603849411010742,39.144500732421875 -39.144500732421875,21.603849411010742 -39.144500732421875,0 C-39.144500732421875,-21.603849411010742 -21.603849411010742,-39.144500732421875 0,-39.144500732421875z"></path><path stroke-linecap="butt" stroke-linejoin="miter" fill-opacity="0" stroke-miterlimit="4" stroke="rgb(175,175,175)" stroke-opacity="1" stroke-width="0" d=" M0,-39.144500732421875 C21.603849411010742,-39.144500732421875 39.144500732421875,-21.603849411010742 39.144500732421875,0 C39.144500732421875,21.603849411010742 21.603849411010742,39.144500732421875 0,39.144500732421875 C-21.603849411010742,39.144500732421875 -39.144500732421875,21.603849411010742 -39.144500732421875,0 C-39.144500732421875,-21.603849411010742 -21.603849411010742,-39.144500732421875 0,-39.144500732421875z"></path></g></g><g transform="matrix(0.2309872955083847,0.08407250791788101,-0.08407250791788101,0.2309872955083847,81.16901397705078,68.77835845947266)" opacity="1" style="display: block;"><g opacity="1" transform="matrix(1,0,0,1,-0.8550000190734863,38.14500045776367)"><path fill="rgb(151,210,134)" fill-opacity="1" d=" M0,-39.144500732421875 C21.603849411010742,-39.144500732421875 39.144500732421875,-21.603849411010742 39.144500732421875,0 C39.144500732421875,21.603849411010742 21.603849411010742,39.144500732421875 0,39.144500732421875 C-21.603849411010742,39.144500732421875 -39.144500732421875,21.603849411010742 -39.144500732421875,0 C-39.144500732421875,-21.603849411010742 -21.603849411010742,-39.144500732421875 0,-39.144500732421875z"></path><path stroke-linecap="butt" stroke-linejoin="miter" fill-opacity="0" stroke-miterlimit="4" stroke="rgb(175,175,175)" stroke-opacity="1" stroke-width="0" d=" M0,-39.144500732421875 C21.603849411010742,-39.144500732421875 39.144500732421875,-21.603849411010742 39.144500732421875,0 C39.144500732421875,21.603849411010742 21.603849411010742,39.144500732421875 0,39.144500732421875 C-21.603849411010742,39.144500732421875 -39.144500732421875,21.603849411010742 -39.144500732421875,0 C-39.144500732421875,-21.603849411010742 -21.603849411010742,-39.144500732421875 0,-39.144500732421875z"></path></g></g><g transform="matrix(0.48688745498657227,0.17721255123615265,-0.17721255123615265,0.48688745498657227,68.48399353027344,65.36609649658203)" opacity="1" style="display: block;"><g opacity="1" transform="matrix(1,0,0,1,-0.8550000190734863,38.14500045776367)"><path fill="rgb(151,210,134)" fill-opacity="1" d=" M0,-39.144500732421875 C21.603849411010742,-39.144500732421875 39.144500732421875,-21.603849411010742 39.144500732421875,0 C39.144500732421875,21.603849411010742 21.603849411010742,39.144500732421875 0,39.144500732421875 C-21.603849411010742,39.144500732421875 -39.144500732421875,21.603849411010742 -39.144500732421875,0 C-39.144500732421875,-21.603849411010742 -21.603849411010742,-39.144500732421875 0,-39.144500732421875z"></path><path stroke-linecap="butt" stroke-linejoin="miter" fill-opacity="0" stroke-miterlimit="4" stroke="rgb(175,175,175)" stroke-opacity="1" stroke-width="0" d=" M0,-39.144500732421875 C21.603849411010742,-39.144500732421875 39.144500732421875,-21.603849411010742 39.144500732421875,0 C39.144500732421875,21.603849411010742 21.603849411010742,39.144500732421875 0,39.144500732421875 C-21.603849411010742,39.144500732421875 -39.144500732421875,21.603849411010742 -39.144500732421875,0 C-39.144500732421875,-21.603849411010742 -21.603849411010742,-39.144500732421875 0,-39.144500732421875z"></path></g></g><g transform="matrix(0.3826404809951782,0.13926975429058075,-0.13926975429058075,0.3826404809951782,58.33790588378906,48.62636184692383)" opacity="1" style="display: block;"><g opacity="1" transform="matrix(1,0,0,1,-0.8550000190734863,38.14500045776367)"><path fill="rgb(151,210,134)" fill-opacity="1" d=" M0,-39.144500732421875 C21.603849411010742,-39.144500732421875 39.144500732421875,-21.603849411010742 39.144500732421875,0 C39.144500732421875,21.603849411010742 21.603849411010742,39.144500732421875 0,39.144500732421875 C-21.603849411010742,39.144500732421875 -39.144500732421875,21.603849411010742 -39.144500732421875,0 C-39.144500732421875,-21.603849411010742 -21.603849411010742,-39.144500732421875 0,-39.144500732421875z"></path><path stroke-linecap="butt" stroke-linejoin="miter" fill-opacity="0" stroke-miterlimit="4" stroke="rgb(175,175,175)" stroke-opacity="1" stroke-width="0" d=" M0,-39.144500732421875 C21.603849411010742,-39.144500732421875 39.144500732421875,-21.603849411010742 39.144500732421875,0 C39.144500732421875,21.603849411010742 21.603849411010742,39.144500732421875 0,39.144500732421875 C-21.603849411010742,39.144500732421875 -39.144500732421875,21.603849411010742 -39.144500732421875,0 C-39.144500732421875,-21.603849411010742 -21.603849411010742,-39.144500732421875 0,-39.144500732421875z"></path></g></g><g transform="matrix(0.6965648531913757,0.2535288631916046,-0.2535288631916046,0.6965648531913757,71.64612579345703,39.80500793457031)" opacity="1" style="display: block;"><g opacity="1" transform="matrix(1,0,0,1,-0.8550000190734863,38.14500045776367)"><path fill="rgb(151,210,134)" fill-opacity="1" d=" M0,-39.144500732421875 C21.603849411010742,-39.144500732421875 39.144500732421875,-21.603849411010742 39.144500732421875,0 C39.144500732421875,21.603849411010742 21.603849411010742,39.144500732421875 0,39.144500732421875 C-21.603849411010742,39.144500732421875 -39.144500732421875,21.603849411010742 -39.144500732421875,0 C-39.144500732421875,-21.603849411010742 -21.603849411010742,-39.144500732421875 0,-39.144500732421875z"></path><path stroke-linecap="butt" stroke-linejoin="miter" fill-opacity="0" stroke-miterlimit="4" stroke="rgb(175,175,175)" stroke-opacity="1" stroke-width="0" d=" M0,-39.144500732421875 C21.603849411010742,-39.144500732421875 39.144500732421875,-21.603849411010742 39.144500732421875,0 C39.144500732421875,21.603849411010742 21.603849411010742,39.144500732421875 0,39.144500732421875 C-21.603849411010742,39.144500732421875 -39.144500732421875,21.603849411010742 -39.144500732421875,0 C-39.144500732421875,-21.603849411010742 -21.603849411010742,-39.144500732421875 0,-39.144500732421875z"></path></g></g><g transform="matrix(0.13993772864341736,0.050933171063661575,-0.050933171063661575,0.13993772864341736,80.85639953613281,90.7626724243164)" opacity="1" style="display: block;"><g opacity="1" transform="matrix(1,0,0,1,-0.8550000190734863,38.14500045776367)"><path fill="rgb(151,210,134)" fill-opacity="1" d=" M0,-39.144500732421875 C21.603849411010742,-39.144500732421875 39.144500732421875,-21.603849411010742 39.144500732421875,0 C39.144500732421875,21.603849411010742 21.603849411010742,39.144500732421875 0,39.144500732421875 C-21.603849411010742,39.144500732421875 -39.144500732421875,21.603849411010742 -39.144500732421875,0 C-39.144500732421875,-21.603849411010742 -21.603849411010742,-39.144500732421875 0,-39.144500732421875z"></path><path stroke-linecap="butt" stroke-linejoin="miter" fill-opacity="0" stroke-miterlimit="4" stroke="rgb(175,175,175)" stroke-opacity="1" stroke-width="0" d=" M0,-39.144500732421875 C21.603849411010742,-39.144500732421875 39.144500732421875,-21.603849411010742 39.144500732421875,0 C39.144500732421875,21.603849411010742 21.603849411010742,39.144500732421875 0,39.144500732421875 C-21.603849411010742,39.144500732421875 -39.144500732421875,21.603849411010742 -39.144500732421875,0 C-39.144500732421875,-21.603849411010742 -21.603849411010742,-39.144500732421875 0,-39.144500732421875z"></path></g></g><g transform="matrix(0.2604736387729645,0.09480464458465576,-0.09480464458465576,0.2604736387729645,69.59864044189453,74.93232727050781)" opacity="1" style="display: block;"><g opacity="1" transform="matrix(1,0,0,1,-0.8550000190734863,38.14500045776367)"><path fill="rgb(151,210,134)" fill-opacity="1" d=" M0,-39.144500732421875 C21.603849411010742,-39.144500732421875 39.144500732421875,-21.603849411010742 39.144500732421875,0 C39.144500732421875,21.603849411010742 21.603849411010742,39.144500732421875 0,39.144500732421875 C-21.603849411010742,39.144500732421875 -39.144500732421875,21.603849411010742 -39.144500732421875,0 C-39.144500732421875,-21.603849411010742 -21.603849411010742,-39.144500732421875 0,-39.144500732421875z"></path><path stroke-linecap="butt" stroke-linejoin="miter" fill-opacity="0" stroke-miterlimit="4" stroke="rgb(175,175,175)" stroke-opacity="1" stroke-width="0" d=" M0,-39.144500732421875 C21.603849411010742,-39.144500732421875 39.144500732421875,-21.603849411010742 39.144500732421875,0 C39.144500732421875,21.603849411010742 21.603849411010742,39.144500732421875 0,39.144500732421875 C-21.603849411010742,39.144500732421875 -39.144500732421875,21.603849411010742 -39.144500732421875,0 C-39.144500732421875,-21.603849411010742 -21.603849411010742,-39.144500732421875 0,-39.144500732421875z"></path></g></g><g transform="matrix(0.29791882634162903,0.10843358188867569,-0.10843358188867569,0.29791882634162903,84.45523834228516,72.8090591430664)" opacity="1" style="display: block;"><g opacity="1" transform="matrix(1,0,0,1,-0.8550000190734863,38.14500045776367)"><path fill="rgb(151,210,134)" fill-opacity="1" d=" M0,-39.144500732421875 C21.603849411010742,-39.144500732421875 39.144500732421875,-21.603849411010742 39.144500732421875,0 C39.144500732421875,21.603849411010742 21.603849411010742,39.144500732421875 0,39.144500732421875 C-21.603849411010742,39.144500732421875 -39.144500732421875,21.603849411010742 -39.144500732421875,0 C-39.144500732421875,-21.603849411010742 -21.603849411010742,-39.144500732421875 0,-39.144500732421875z"></path><path stroke-linecap="butt" stroke-linejoin="miter" fill-opacity="0" stroke-miterlimit="4" stroke="rgb(175,175,175)" stroke-opacity="1" stroke-width="0" d=" M0,-39.144500732421875 C21.603849411010742,-39.144500732421875 39.144500732421875,-21.603849411010742 39.144500732421875,0 C39.144500732421875,21.603849411010742 21.603849411010742,39.144500732421875 0,39.144500732421875 C-21.603849411010742,39.144500732421875 -39.144500732421875,21.603849411010742 -39.144500732421875,0 C-39.144500732421875,-21.603849411010742 -21.603849411010742,-39.144500732421875 0,-39.144500732421875z"></path></g></g><g transform="matrix(0.06550667434930801,0.023842480033636093,-0.023842480033636093,0.06550667434930801,77.47372436523438,98.8445816040039)" opacity="1" style="display: block;"><g opacity="1" transform="matrix(1,0,0,1,-0.8550000190734863,38.14500045776367)"><path fill="rgb(151,210,134)" fill-opacity="1" d=" M0,-39.144500732421875 C21.603849411010742,-39.144500732421875 39.144500732421875,-21.603849411010742 39.144500732421875,0 C39.144500732421875,21.603849411010742 21.603849411010742,39.144500732421875 0,39.144500732421875 C-21.603849411010742,39.144500732421875 -39.144500732421875,21.603849411010742 -39.144500732421875,0 C-39.144500732421875,-21.603849411010742 -21.603849411010742,-39.144500732421875 0,-39.144500732421875z"></path><path stroke-linecap="butt" stroke-linejoin="miter" fill-opacity="0" stroke-miterlimit="4" stroke="rgb(175,175,175)" stroke-opacity="1" stroke-width="0" d=" M0,-39.144500732421875 C21.603849411010742,-39.144500732421875 39.144500732421875,-21.603849411010742 39.144500732421875,0 C39.144500732421875,21.603849411010742 21.603849411010742,39.144500732421875 0,39.144500732421875 C-21.603849411010742,39.144500732421875 -39.144500732421875,21.603849411010742 -39.144500732421875,0 C-39.144500732421875,-21.603849411010742 -21.603849411010742,-39.144500732421875 0,-39.144500732421875z"></path></g></g><g transform="matrix(0,0,0,0,30.09109878540039,22.54482650756836)" opacity="1" style="display: block;"><g opacity="1" transform="matrix(1,0,0,1,-0.8550000190734863,38.14500045776367)"><path fill="rgb(151,210,134)" fill-opacity="1" d=" M0,-39.144500732421875 C21.603849411010742,-39.144500732421875 39.144500732421875,-21.603849411010742 39.144500732421875,0 C39.144500732421875,21.603849411010742 21.603849411010742,39.144500732421875 0,39.144500732421875 C-21.603849411010742,39.144500732421875 -39.144500732421875,21.603849411010742 -39.144500732421875,0 C-39.144500732421875,-21.603849411010742 -21.603849411010742,-39.144500732421875 0,-39.144500732421875z"></path><path stroke-linecap="butt" stroke-linejoin="miter" fill-opacity="0" stroke-miterlimit="4" stroke="rgb(175,175,175)" stroke-opacity="1" stroke-width="0" d=" M0,-39.144500732421875 C21.603849411010742,-39.144500732421875 39.144500732421875,-21.603849411010742 39.144500732421875,0 C39.144500732421875,21.603849411010742 21.603849411010742,39.144500732421875 0,39.144500732421875 C-21.603849411010742,39.144500732421875 -39.144500732421875,21.603849411010742 -39.144500732421875,0 C-39.144500732421875,-21.603849411010742 -21.603849411010742,-39.144500732421875 0,-39.144500732421875z"></path></g></g><g transform="matrix(0,0,0,0,8.575302124023438,4.673381805419922)" opacity="1" style="display: block;"><g opacity="1" transform="matrix(1,0,0,1,-0.8550000190734863,38.14500045776367)"><path fill="rgb(151,210,134)" fill-opacity="1" d=" M0,-39.144500732421875 C21.603849411010742,-39.144500732421875 39.144500732421875,-21.603849411010742 39.144500732421875,0 C39.144500732421875,21.603849411010742 21.603849411010742,39.144500732421875 0,39.144500732421875 C-21.603849411010742,39.144500732421875 -39.144500732421875,21.603849411010742 -39.144500732421875,0 C-39.144500732421875,-21.603849411010742 -21.603849411010742,-39.144500732421875 0,-39.144500732421875z"></path><path stroke-linecap="butt" stroke-linejoin="miter" fill-opacity="0" stroke-miterlimit="4" stroke="rgb(175,175,175)" stroke-opacity="1" stroke-width="0" d=" M0,-39.144500732421875 C21.603849411010742,-39.144500732421875 39.144500732421875,-21.603849411010742 39.144500732421875,0 C39.144500732421875,21.603849411010742 21.603849411010742,39.144500732421875 0,39.144500732421875 C-21.603849411010742,39.144500732421875 -39.144500732421875,21.603849411010742 -39.144500732421875,0 C-39.144500732421875,-21.603849411010742 -21.603849411010742,-39.144500732421875 0,-39.144500732421875z"></path></g></g><g transform="matrix(0,0,0,0,8.575302124023438,4.673381805419922)" opacity="1" style="display: block;"><g opacity="1" transform="matrix(1,0,0,1,-0.8550000190734863,38.14500045776367)"><path fill="rgb(151,210,134)" fill-opacity="1" d=" M0,-39.144500732421875 C21.603849411010742,-39.144500732421875 39.144500732421875,-21.603849411010742 39.144500732421875,0 C39.144500732421875,21.603849411010742 21.603849411010742,39.144500732421875 0,39.144500732421875 C-21.603849411010742,39.144500732421875 -39.144500732421875,21.603849411010742 -39.144500732421875,0 C-39.144500732421875,-21.603849411010742 -21.603849411010742,-39.144500732421875 0,-39.144500732421875z"></path><path stroke-linecap="butt" stroke-linejoin="miter" fill-opacity="0" stroke-miterlimit="4" stroke="rgb(175,175,175)" stroke-opacity="1" stroke-width="0" d=" M0,-39.144500732421875 C21.603849411010742,-39.144500732421875 39.144500732421875,-21.603849411010742 39.144500732421875,0 C39.144500732421875,21.603849411010742 21.603849411010742,39.144500732421875 0,39.144500732421875 C-21.603849411010742,39.144500732421875 -39.144500732421875,21.603849411010742 -39.144500732421875,0 C-39.144500732421875,-21.603849411010742 -21.603849411010742,-39.144500732421875 0,-39.144500732421875z"></path></g></g><g transform="matrix(0,0,0,0,48.96753692626953,25.890811920166016)" opacity="1" style="display: block;"><g opacity="1" transform="matrix(1,0,0,1,-0.8550000190734863,38.14500045776367)"><path fill="rgb(151,210,134)" fill-opacity="1" d=" M0,-39.144500732421875 C21.603849411010742,-39.144500732421875 39.144500732421875,-21.603849411010742 39.144500732421875,0 C39.144500732421875,21.603849411010742 21.603849411010742,39.144500732421875 0,39.144500732421875 C-21.603849411010742,39.144500732421875 -39.144500732421875,21.603849411010742 -39.144500732421875,0 C-39.144500732421875,-21.603849411010742 -21.603849411010742,-39.144500732421875 0,-39.144500732421875z"></path><path stroke-linecap="butt" stroke-linejoin="miter" fill-opacity="0" stroke-miterlimit="4" stroke="rgb(175,175,175)" stroke-opacity="1" stroke-width="0" d=" M0,-39.144500732421875 C21.603849411010742,-39.144500732421875 39.144500732421875,-21.603849411010742 39.144500732421875,0 C39.144500732421875,21.603849411010742 21.603849411010742,39.144500732421875 0,39.144500732421875 C-21.603849411010742,39.144500732421875 -39.144500732421875,21.603849411010742 -39.144500732421875,0 C-39.144500732421875,-21.603849411010742 -21.603849411010742,-39.144500732421875 0,-39.144500732421875z"></path></g></g><g transform="matrix(0,0,0,0,17.787748336791992,23.175861358642578)" opacity="1" style="display: block;"><g opacity="1" transform="matrix(1,0,0,1,-0.8550000190734863,38.14500045776367)"><path fill="rgb(151,210,134)" fill-opacity="1" d=" M0,-39.144500732421875 C21.603849411010742,-39.144500732421875 39.144500732421875,-21.603849411010742 39.144500732421875,0 C39.144500732421875,21.603849411010742 21.603849411010742,39.144500732421875 0,39.144500732421875 C-21.603849411010742,39.144500732421875 -39.144500732421875,21.603849411010742 -39.144500732421875,0 C-39.144500732421875,-21.603849411010742 -21.603849411010742,-39.144500732421875 0,-39.144500732421875z"></path><path stroke-linecap="butt" stroke-linejoin="miter" fill-opacity="0" stroke-miterlimit="4" stroke="rgb(175,175,175)" stroke-opacity="1" stroke-width="0" d=" M0,-39.144500732421875 C21.603849411010742,-39.144500732421875 39.144500732421875,-21.603849411010742 39.144500732421875,0 C39.144500732421875,21.603849411010742 21.603849411010742,39.144500732421875 0,39.144500732421875 C-21.603849411010742,39.144500732421875 -39.144500732421875,21.603849411010742 -39.144500732421875,0 C-39.144500732421875,-21.603849411010742 -21.603849411010742,-39.144500732421875 0,-39.144500732421875z"></path></g></g><g transform="matrix(0,0,0,0,4.084466934204102,38.91910171508789)" opacity="1" style="display: block;"><g opacity="1" transform="matrix(1,0,0,1,-0.8550000190734863,38.14500045776367)"><path fill="rgb(151,210,134)" fill-opacity="1" d=" M0,-39.144500732421875 C21.603849411010742,-39.144500732421875 39.144500732421875,-21.603849411010742 39.144500732421875,0 C39.144500732421875,21.603849411010742 21.603849411010742,39.144500732421875 0,39.144500732421875 C-21.603849411010742,39.144500732421875 -39.144500732421875,21.603849411010742 -39.144500732421875,0 C-39.144500732421875,-21.603849411010742 -21.603849411010742,-39.144500732421875 0,-39.144500732421875z"></path><path stroke-linecap="butt" stroke-linejoin="miter" fill-opacity="0" stroke-miterlimit="4" stroke="rgb(175,175,175)" stroke-opacity="1" stroke-width="0" d=" M0,-39.144500732421875 C21.603849411010742,-39.144500732421875 39.144500732421875,-21.603849411010742 39.144500732421875,0 C39.144500732421875,21.603849411010742 21.603849411010742,39.144500732421875 0,39.144500732421875 C-21.603849411010742,39.144500732421875 -39.144500732421875,21.603849411010742 -39.144500732421875,0 C-39.144500732421875,-21.603849411010742 -21.603849411010742,-39.144500732421875 0,-39.144500732421875z"></path></g></g><g transform="matrix(0,0,0,0,-1.5442320108413696,23.71432113647461)" opacity="1" style="display: block;"><g opacity="1" transform="matrix(1,0,0,1,-0.8550000190734863,38.14500045776367)"><path fill="rgb(151,210,134)" fill-opacity="1" d=" M0,-39.144500732421875 C21.603849411010742,-39.144500732421875 39.144500732421875,-21.603849411010742 39.144500732421875,0 C39.144500732421875,21.603849411010742 21.603849411010742,39.144500732421875 0,39.144500732421875 C-21.603849411010742,39.144500732421875 -39.144500732421875,21.603849411010742 -39.144500732421875,0 C-39.144500732421875,-21.603849411010742 -21.603849411010742,-39.144500732421875 0,-39.144500732421875z"></path><path stroke-linecap="butt" stroke-linejoin="miter" fill-opacity="0" stroke-miterlimit="4" stroke="rgb(175,175,175)" stroke-opacity="1" stroke-width="0" d=" M0,-39.144500732421875 C21.603849411010742,-39.144500732421875 39.144500732421875,-21.603849411010742 39.144500732421875,0 C39.144500732421875,21.603849411010742 21.603849411010742,39.144500732421875 0,39.144500732421875 C-21.603849411010742,39.144500732421875 -39.144500732421875,21.603849411010742 -39.144500732421875,0 C-39.144500732421875,-21.603849411010742 -21.603849411010742,-39.144500732421875 0,-39.144500732421875z"></path></g></g><g transform="matrix(0,0,0,0,31.652536392211914,24.29840660095215)" opacity="1" style="display: block;"><g opacity="1" transform="matrix(1,0,0,1,-0.8550000190734863,38.14500045776367)"><path fill="rgb(151,210,134)" fill-opacity="1" d=" M0,-39.144500732421875 C21.603849411010742,-39.144500732421875 39.144500732421875,-21.603849411010742 39.144500732421875,0 C39.144500732421875,21.603849411010742 21.603849411010742,39.144500732421875 0,39.144500732421875 C-21.603849411010742,39.144500732421875 -39.144500732421875,21.603849411010742 -39.144500732421875,0 C-39.144500732421875,-21.603849411010742 -21.603849411010742,-39.144500732421875 0,-39.144500732421875z"></path><path stroke-linecap="butt" stroke-linejoin="miter" fill-opacity="0" stroke-miterlimit="4" stroke="rgb(175,175,175)" stroke-opacity="1" stroke-width="0" d=" M0,-39.144500732421875 C21.603849411010742,-39.144500732421875 39.144500732421875,-21.603849411010742 39.144500732421875,0 C39.144500732421875,21.603849411010742 21.603849411010742,39.144500732421875 0,39.144500732421875 C-21.603849411010742,39.144500732421875 -39.144500732421875,21.603849411010742 -39.144500732421875,0 C-39.144500732421875,-21.603849411010742 -21.603849411010742,-39.144500732421875 0,-39.144500732421875z"></path></g></g><g transform="matrix(0,0,0,0,18.23696517944336,38.88979721069336)" opacity="1" style="display: block;"><g opacity="1" transform="matrix(1,0,0,1,-0.8550000190734863,38.14500045776367)"><path fill="rgb(151,210,134)" fill-opacity="1" d=" M0,-39.144500732421875 C21.603849411010742,-39.144500732421875 39.144500732421875,-21.603849411010742 39.144500732421875,0 C39.144500732421875,21.603849411010742 21.603849411010742,39.144500732421875 0,39.144500732421875 C-21.603849411010742,39.144500732421875 -39.144500732421875,21.603849411010742 -39.144500732421875,0 C-39.144500732421875,-21.603849411010742 -21.603849411010742,-39.144500732421875 0,-39.144500732421875z"></path><path stroke-linecap="butt" stroke-linejoin="miter" fill-opacity="0" stroke-miterlimit="4" stroke="rgb(175,175,175)" stroke-opacity="1" stroke-width="0" d=" M0,-39.144500732421875 C21.603849411010742,-39.144500732421875 39.144500732421875,-21.603849411010742 39.144500732421875,0 C39.144500732421875,21.603849411010742 21.603849411010742,39.144500732421875 0,39.144500732421875 C-21.603849411010742,39.144500732421875 -39.144500732421875,21.603849411010742 -39.144500732421875,0 C-39.144500732421875,-21.603849411010742 -21.603849411010742,-39.144500732421875 0,-39.144500732421875z"></path></g></g><g transform="matrix(0,0,0,0,3.0035483837127686,13.409636497497559)" opacity="1" style="display: block;"><g opacity="1" transform="matrix(1,0,0,1,-0.8550000190734863,38.14500045776367)"><path fill="rgb(151,210,134)" fill-opacity="1" d=" M0,-39.144500732421875 C21.603849411010742,-39.144500732421875 39.144500732421875,-21.603849411010742 39.144500732421875,0 C39.144500732421875,21.603849411010742 21.603849411010742,39.144500732421875 0,39.144500732421875 C-21.603849411010742,39.144500732421875 -39.144500732421875,21.603849411010742 -39.144500732421875,0 C-39.144500732421875,-21.603849411010742 -21.603849411010742,-39.144500732421875 0,-39.144500732421875z"></path><path stroke-linecap="butt" stroke-linejoin="miter" fill-opacity="0" stroke-miterlimit="4" stroke="rgb(175,175,175)" stroke-opacity="1" stroke-width="0" d=" M0,-39.144500732421875 C21.603849411010742,-39.144500732421875 39.144500732421875,-21.603849411010742 39.144500732421875,0 C39.144500732421875,21.603849411010742 21.603849411010742,39.144500732421875 0,39.144500732421875 C-21.603849411010742,39.144500732421875 -39.144500732421875,21.603849411010742 -39.144500732421875,0 C-39.144500732421875,-21.603849411010742 -21.603849411010742,-39.144500732421875 0,-39.144500732421875z"></path></g></g><g transform="matrix(0,0,0,0,3.4527649879455566,9.985066413879395)" opacity="1" style="display: block;"><g opacity="1" transform="matrix(1,0,0,1,-0.8550000190734863,38.14500045776367)"><path fill="rgb(151,210,134)" fill-opacity="1" d=" M0,-39.144500732421875 C21.603849411010742,-39.144500732421875 39.144500732421875,-21.603849411010742 39.144500732421875,0 C39.144500732421875,21.603849411010742 21.603849411010742,39.144500732421875 0,39.144500732421875 C-21.603849411010742,39.144500732421875 -39.144500732421875,21.603849411010742 -39.144500732421875,0 C-39.144500732421875,-21.603849411010742 -21.603849411010742,-39.144500732421875 0,-39.144500732421875z"></path><path stroke-linecap="butt" stroke-linejoin="miter" fill-opacity="0" stroke-miterlimit="4" stroke="rgb(175,175,175)" stroke-opacity="1" stroke-width="0" d=" M0,-39.144500732421875 C21.603849411010742,-39.144500732421875 39.144500732421875,-21.603849411010742 39.144500732421875,0 C39.144500732421875,21.603849411010742 21.603849411010742,39.144500732421875 0,39.144500732421875 C-21.603849411010742,39.144500732421875 -39.144500732421875,21.603849411010742 -39.144500732421875,0 C-39.144500732421875,-21.603849411010742 -21.603849411010742,-39.144500732421875 0,-39.144500732421875z"></path></g></g><g transform="matrix(0,0,0,0,14.392406463623047,-4.1821441650390625)" opacity="1" style="display: block;"><g opacity="1" transform="matrix(1,0,0,1,-0.8550000190734863,38.14500045776367)"><path fill="rgb(151,210,134)" fill-opacity="1" d=" M0,-39.144500732421875 C21.603849411010742,-39.144500732421875 39.144500732421875,-21.603849411010742 39.144500732421875,0 C39.144500732421875,21.603849411010742 21.603849411010742,39.144500732421875 0,39.144500732421875 C-21.603849411010742,39.144500732421875 -39.144500732421875,21.603849411010742 -39.144500732421875,0 C-39.144500732421875,-21.603849411010742 -21.603849411010742,-39.144500732421875 0,-39.144500732421875z"></path><path stroke-linecap="butt" stroke-linejoin="miter" fill-opacity="0" stroke-miterlimit="4" stroke="rgb(175,175,175)" stroke-opacity="1" stroke-width="0" d=" M0,-39.144500732421875 C21.603849411010742,-39.144500732421875 39.144500732421875,-21.603849411010742 39.144500732421875,0 C39.144500732421875,21.603849411010742 21.603849411010742,39.144500732421875 0,39.144500732421875 C-21.603849411010742,39.144500732421875 -39.144500732421875,21.603849411010742 -39.144500732421875,0 C-39.144500732421875,-21.603849411010742 -21.603849411010742,-39.144500732421875 0,-39.144500732421875z"></path></g></g><g transform="matrix(0,0,0,0,3.677896738052368,1.3239409923553467)" opacity="1" style="display: block;"><g opacity="1" transform="matrix(1,0,0,1,-0.8550000190734863,38.14500045776367)"><path fill="rgb(151,210,134)" fill-opacity="1" d=" M0,-39.144500732421875 C21.603849411010742,-39.144500732421875 39.144500732421875,-21.603849411010742 39.144500732421875,0 C39.144500732421875,21.603849411010742 21.603849411010742,39.144500732421875 0,39.144500732421875 C-21.603849411010742,39.144500732421875 -39.144500732421875,21.603849411010742 -39.144500732421875,0 C-39.144500732421875,-21.603849411010742 -21.603849411010742,-39.144500732421875 0,-39.144500732421875z"></path><path stroke-linecap="butt" stroke-linejoin="miter" fill-opacity="0" stroke-miterlimit="4" stroke="rgb(175,175,175)" stroke-opacity="1" stroke-width="0" d=" M0,-39.144500732421875 C21.603849411010742,-39.144500732421875 39.144500732421875,-21.603849411010742 39.144500732421875,0 C39.144500732421875,21.603849411010742 21.603849411010742,39.144500732421875 0,39.144500732421875 C-21.603849411010742,39.144500732421875 -39.144500732421875,21.603849411010742 -39.144500732421875,0 C-39.144500732421875,-21.603849411010742 -21.603849411010742,-39.144500732421875 0,-39.144500732421875z"></path></g></g><g transform="matrix(0,0,0,0,25.188007354736328,-0.44249460101127625)" opacity="1" style="display: block;"><g opacity="1" transform="matrix(1,0,0,1,-0.8550000190734863,38.14500045776367)"><path fill="rgb(151,210,134)" fill-opacity="1" d=" M0,-39.144500732421875 C21.603849411010742,-39.144500732421875 39.144500732421875,-21.603849411010742 39.144500732421875,0 C39.144500732421875,21.603849411010742 21.603849411010742,39.144500732421875 0,39.144500732421875 C-21.603849411010742,39.144500732421875 -39.144500732421875,21.603849411010742 -39.144500732421875,0 C-39.144500732421875,-21.603849411010742 -21.603849411010742,-39.144500732421875 0,-39.144500732421875z"></path><path stroke-linecap="butt" stroke-linejoin="miter" fill-opacity="0" stroke-miterlimit="4" stroke="rgb(175,175,175)" stroke-opacity="1" stroke-width="0" d=" M0,-39.144500732421875 C21.603849411010742,-39.144500732421875 39.144500732421875,-21.603849411010742 39.144500732421875,0 C39.144500732421875,21.603849411010742 21.603849411010742,39.144500732421875 0,39.144500732421875 C-21.603849411010742,39.144500732421875 -39.144500732421875,21.603849411010742 -39.144500732421875,0 C-39.144500732421875,-21.603849411010742 -21.603849411010742,-39.144500732421875 0,-39.144500732421875z"></path></g></g><g transform="matrix(0,0,0,0,42.40517044067383,17.7027645111084)" opacity="1" style="display: block;"><g opacity="1" transform="matrix(1,0,0,1,-0.8550000190734863,38.14500045776367)"><path fill="rgb(151,210,134)" fill-opacity="1" d=" M0,-39.144500732421875 C21.603849411010742,-39.144500732421875 39.144500732421875,-21.603849411010742 39.144500732421875,0 C39.144500732421875,21.603849411010742 21.603849411010742,39.144500732421875 0,39.144500732421875 C-21.603849411010742,39.144500732421875 -39.144500732421875,21.603849411010742 -39.144500732421875,0 C-39.144500732421875,-21.603849411010742 -21.603849411010742,-39.144500732421875 0,-39.144500732421875z"></path><path stroke-linecap="butt" stroke-linejoin="miter" fill-opacity="0" stroke-miterlimit="4" stroke="rgb(175,175,175)" stroke-opacity="1" stroke-width="0" d=" M0,-39.144500732421875 C21.603849411010742,-39.144500732421875 39.144500732421875,-21.603849411010742 39.144500732421875,0 C39.144500732421875,21.603849411010742 21.603849411010742,39.144500732421875 0,39.144500732421875 C-21.603849411010742,39.144500732421875 -39.144500732421875,21.603849411010742 -39.144500732421875,0 C-39.144500732421875,-21.603849411010742 -21.603849411010742,-39.144500732421875 0,-39.144500732421875z"></path></g></g><g transform="matrix(0.3553176820278168,0,0,0.3107416033744812,32.3998908996582,59.04909896850586)" opacity="1" style="display: block;"><g opacity="1" transform="matrix(1,0,0,1,99.79000091552734,168.91299438476562)"><path fill="rgb(239,82,34)" fill-opacity="1" d=" M0,4.789999961853027 C4.781000137329102,4.789999961853027 6.807000160217285,10.472999572753906 8.484999656677246,14.579999923706055 C11.496999740600586,21.947999954223633 15.418999671936035,21.989999771118164 32.803001403808594,21.989999771118164 C44.417999267578125,21.989999771118164 46.75600051879883,17.60300064086914 45.49100112915039,9.572999954223633 C43.880001068115234,-0.6520000100135803 33.82899856567383,-10.208000183105469 29.091999053955078,-21.989999771118164 C29.091999053955078,-21.989999771118164 0,-19.474000930786133 0,-19.474000930786133 C0,-19.474000930786133 -29.090999603271484,-21.989999771118164 -29.090999603271484,-21.989999771118164 C-33.827999114990234,-10.208000183105469 -43.87900161743164,-0.6520000100135803 -45.4900016784668,9.572999954223633 C-46.75600051879883,17.60300064086914 -44.41699981689453,21.989999771118164 -32.801998138427734,21.989999771118164 C-15.418000221252441,21.989999771118164 -11.496000289916992,21.947999954223633 -8.484000205993652,14.579999923706055 C-6.806000232696533,10.472999572753906 -4.78000020980835,4.789999961853027 0,4.789999961853027z"></path></g><g opacity="1" transform="matrix(1,0,0,1,99.79000091552734,137.12100219726562)"><path fill="rgb(239,82,34)" fill-opacity="1" d=" M39.42928695678711,7.899599552154541 C49.551177978515625,8.264443397521973 65.13260650634766,5.9257683753967285 60.13121032714844,-5.861830711364746 C53.247459411621094,-22.074146270751953 13.829000473022461,-20.91200065612793 13.829000473022461,-20.91200065612793 C13.829000473022461,-20.91200065612793 -13.829000473022461,-20.91200065612793 -13.829000473022461,-20.91200065612793 C-13.829000473022461,-20.91200065612793 -55.380706787109375,-21.90890884399414 -60.819854736328125,-5.16580057144165 C-64.49381256103516,6.158393859863281 -50.74746322631836,8.264443397521973 -39.428287506103516,7.435271739959717 C-49.097286224365234,9.383272171020508 -61.57914352416992,17.40634536743164 -58.19514465332031,27.784345626831055 C-52.77714538574219,44.3923454284668 -12.663000106811523,20.572999954223633 -12.663000106811523,20.572999954223633 C-12.663000106811523,20.572999954223633 12.661999702453613,20.572999954223633 12.661999702453613,20.572999954223633 C12.661999702453613,20.572999954223633 51.85856628417969,43.23198699951172 57.27556610107422,26.623987197875977 C60.661563873291016,16.245988845825195 49.097286224365234,9.847599983215332 39.42928695678711,7.899599552154541z"></path></g><g opacity="1" transform="matrix(1,0,0,1,99.79000091552734,108.27200317382812)"><path fill="rgb(74,92,148)" fill-opacity="1" d=" M12.928000450134277,-7.020999908447266 C16.972000122070312,-4.795000076293945 17.222000122070312,2.4560000896453857 15.538999557495117,7.114999771118164 C13.715999603271484,12.16100025177002 7.258999824523926,15.520999908447266 0,15.520999908447266 C-7.258999824523926,15.520999908447266 -13.39900016784668,12.03499984741211 -15.539999961853027,7.114999771118164 C-18.2189998626709,0.9549999833106995 -16.52899932861328,-3.5450000762939453 -13.678000450134277,-6.770999908447266 C-13.678000450134277,-6.770999908447266 12.928000450134277,-7.020999908447266 12.928000450134277,-7.020999908447266z"></path></g><g opacity="1" transform="matrix(1,0,0,1,99.79000091552734,144.38999938964844)"><path fill="rgb(235,19,90)" fill-opacity="1" d=" M18.448999404907227,-16.04800033569336 C18.448999404907227,-16.04800033569336 -18.448999404907227,-16.04800033569336 -18.448999404907227,-16.04800033569336 C-21.67099952697754,-16.04800033569336 -23.48699951171875,-12.345999717712402 -21.514999389648438,-9.79800033569336 C-21.514999389648438,-9.79800033569336 -3.065999984741211,14.041999816894531 -3.065999984741211,14.041999816894531 C-1.5140000581741333,16.04800033569336 1.5130000114440918,16.04800033569336 3.065999984741211,14.041999816894531 C3.065999984741211,14.041999816894531 21.514999389648438,-9.79800033569336 21.514999389648438,-9.79800033569336 C23.48699951171875,-12.345999717712402 21.67099952697754,-16.04800033569336 18.448999404907227,-16.04800033569336z"></path></g><g opacity="1" transform="matrix(1,0,0,1,99.79000091552734,142.51100158691406)"><path fill="rgb(251,214,74)" fill-opacity="1" d=" M-9.16100025177002,-2.575000047683716 C-9.16100025177002,-2.575000047683716 -2.496999979019165,6.0329999923706055 -2.496999979019165,6.0329999923706055 C-1.2319999933242798,7.666999816894531 1.2350000143051147,7.666999816894531 2.497999906539917,6.0329999923706055 C2.497999906539917,6.0329999923706055 9.16100025177002,-2.5759999752044678 9.16100025177002,-2.5759999752044678 C10.767000198364258,-4.651000022888184 9.286999702453613,-7.666999816894531 6.663000106811523,-7.666999816894531 C6.663000106811523,-7.666999816894531 -6.664000034332275,-7.666999816894531 -6.664000034332275,-7.666999816894531 C-9.288000106811523,-7.666999816894531 -10.767000198364258,-4.651000022888184 -9.16100025177002,-2.575000047683716z"></path></g><g opacity="1" transform="matrix(1,0,0,1,99.79100036621094,164.52099609375)"><path stroke-linecap="round" stroke-linejoin="round" fill-opacity="0" stroke="rgb(95,49,29)" stroke-opacity="1" stroke-width="5" d=" M37.62200164794922,-1.2599999904632568 C37.62200164794922,-1.2599999904632568 18.243999481201172,1.2599999904632568 0,1.2599999904632568 C-18.243000030517578,1.2599999904632568 -37.62200164794922,-1.2599999904632568 -37.62200164794922,-1.2599999904632568"></path></g></g><g transform="matrix(0.3330000042915344,0,0,0.3330000042915344,34.63255310058594,54.797210693359375)" opacity="1" style="display: block;"><g opacity="1" transform="matrix(1,0,0,1,68.15399932861328,193.4949951171875)"><path fill="rgb(17,128,195)" fill-opacity="1" d=" M-16.541000366210938,-0.753000020980835 C-18.881999969482422,3.263000011444092 -15.3100004196167,7.302000045776367 -11.006999969482422,5.973999977111816 C-9.644000053405762,5.552999973297119 -8.430000305175781,4.763999938964844 -7.2170000076293945,4.01200008392334 C-6.99399995803833,3.874000072479248 -6.751999855041504,3.7309999465942383 -6.488999843597412,3.744999885559082 C-6.111999988555908,3.7660000324249268 -5.835999965667725,4.0929999351501465 -5.578000068664551,4.36899995803833 C-4.2129998207092285,5.833000183105469 -2.117000102996826,6.460000038146973 -0.11599999666213989,6.385000228881836 C1.8839999437332153,6.309999942779541 3.808000087738037,5.604000091552734 5.614999771118164,4.743000030517578 C6.354000091552734,4.390999794006348 7.1539998054504395,4 7.954999923706055,4.172999858856201 C8.470999717712402,4.283999919891357 8.904999732971191,4.617000102996826 9.35200023651123,4.900000095367432 C12.663999557495117,7.005000114440918 17.86199951171875,6.855000019073486 18.503000259399414,2.1730000972747803 C18.882999420166016,-0.597000002861023 17.250999450683594,-3.388000011444092 14.909000396728516,-4.916999816894531 C11.256999969482422,-7.302000045776367 -4.01800012588501,-6.947999954223633 -7.2729997634887695,-5.941999912261963 C-10.140000343322754,-5.057000160217285 -13.428000450134277,-4.176000118255615 -15.60099983215332,-1.9759999513626099 C-15.97599983215332,-1.5959999561309814 -16.288999557495117,-1.184000015258789 -16.541000366210938,-0.753000020980835z"></path></g><g opacity="1" transform="matrix(1,0,0,1,131.427001953125,193.4949951171875)"><path fill="rgb(17,128,195)" fill-opacity="1" d=" M16.541000366210938,-0.753000020980835 C18.881999969482422,3.263000011444092 15.3100004196167,7.302000045776367 11.006999969482422,5.973999977111816 C9.644000053405762,5.552999973297119 8.430000305175781,4.763999938964844 7.2170000076293945,4.01200008392334 C6.993000030517578,3.874000072479248 6.750999927520752,3.7309999465942383 6.488999843597412,3.744999885559082 C6.111000061035156,3.7660000324249268 5.836999893188477,4.0929999351501465 5.578999996185303,4.36899995803833 C4.214000225067139,5.833000183105469 2.117000102996826,6.460000038146973 0.11699999868869781,6.385000228881836 C-1.8830000162124634,6.309999942779541 -3.809000015258789,5.604000091552734 -5.614999771118164,4.743000030517578 C-6.355000019073486,4.390999794006348 -7.15500020980835,4 -7.954999923706055,4.172999858856201 C-8.472000122070312,4.283999919891357 -8.906000137329102,4.617000102996826 -9.35200023651123,4.900000095367432 C-12.663999557495117,7.005000114440918 -17.861000061035156,6.855000019073486 -18.503000259399414,2.1730000972747803 C-18.881999969482422,-0.597000002861023 -17.250999450683594,-3.388000011444092 -14.90999984741211,-4.916999816894531 C-11.258000373840332,-7.302000045776367 4.01800012588501,-6.947999954223633 7.271999835968018,-5.941999912261963 C10.138999938964844,-5.057000160217285 13.428000450134277,-4.176000118255615 15.60200023651123,-1.9759999513626099 C15.97700023651123,-1.5959999561309814 16.290000915527344,-1.184000015258789 16.541000366210938,-0.753000020980835z"></path></g></g><g transform="matrix(0.3336077928543091,0.10695412755012512,-0.1222967579960823,0.2917553186416626,54.518280029296875,49.11539840698242)" opacity="1" style="display: block;"><g opacity="1" transform="matrix(1,0,0,1,161.7989959716797,152.3800048828125)"><path fill="rgb(17,128,195)" fill-opacity="1" d=" M-12.776000022888184,0.8130000233650208 C-11.755000114440918,4.306000232696533 -6.0960001945495605,12.821999549865723 2.5390000343322754,15.138999938964844 C5.019999980926514,15.803999900817871 8.166999816894531,14.208000183105469 7.3460001945495605,11.1899995803833 C6.706999778747559,8.843000411987305 3.562999963760376,6.208000183105469 1.190999984741211,4.859000205993652 C4.578000068664551,5.0279998779296875 11.496999740600586,5.361000061035156 12.343999862670898,2.437000036239624 C13.190999984741211,-0.4869999885559082 9.456000328063965,-2.313999891281128 7.425000190734863,-2.796999931335449 C5.010000228881836,-3.371999979019165 2.4030001163482666,-3.247999906539917 0.026000000536441803,-2.555000066757202 C1.4539999961853027,-3.6389999389648438 6.257999897003174,-6.318999767303467 5.869999885559082,-8.701000213623047 C4.709000110626221,-15.803999900817871 -12.11299991607666,-5.807000160217285 -13.032999992370605,-1.444000005722046 C-13.192000389099121,-0.6890000104904175 -12.989999771118164,0.07900000363588333 -12.776000022888184,0.8130000233650208z"></path></g></g><g transform="matrix(0.30443647503852844,-0.16023316979408264,0.18321870267391205,0.26624366641044617,6.80910587310791,77.02118682861328)" opacity="1" style="display: block;"><g opacity="1" transform="matrix(1,0,0,1,37.78099822998047,152.3800048828125)"><path fill="rgb(17,128,195)" fill-opacity="1" d=" M12.777999877929688,0.8130000233650208 C11.756999969482422,4.306000232696533 6.0970001220703125,12.821999549865723 -2.5380001068115234,15.138999938964844 C-5.019000053405762,15.803999900817871 -8.166999816894531,14.208000183105469 -7.34499979019165,11.1899995803833 C-6.705999851226807,8.843000411987305 -3.562000036239624,6.208000183105469 -1.190999984741211,4.859000205993652 C-4.578000068664551,5.0279998779296875 -11.496999740600586,5.361000061035156 -12.343999862670898,2.437000036239624 C-13.190999984741211,-0.4869999885559082 -9.456000328063965,-2.313999891281128 -7.425000190734863,-2.796999931335449 C-5.010000228881836,-3.371999979019165 -2.4019999504089355,-3.247999906539917 -0.026000000536441803,-2.555000066757202 C-1.4539999961853027,-3.6389999389648438 -6.257999897003174,-6.318999767303467 -5.86899995803833,-8.701000213623047 C-4.708000183105469,-15.803999900817871 12.11400032043457,-5.807000160217285 13.032999992370605,-1.444000005722046 C13.192000389099121,-0.6890000104904175 12.991999626159668,0.07900000363588333 12.777999877929688,0.8130000233650208z"></path></g></g><g transform="matrix(0.21346895396709442,0.24841053783893585,-0.28404518961906433,0.1866883933544159,89.35553741455078,39.1702880859375)" opacity="1" style="display: block;"><g opacity="1" transform="matrix(1,0,0,1,165.9949951171875,114.85399627685547)"><path fill="rgb(17,128,195)" fill-opacity="1" d=" M-10.281000137329102,9.817999839782715 C-7.178999900817871,11.722999572753906 2.7309999465942383,14.234999656677246 10.687000274658203,10.154999732971191 C12.972000122070312,8.982999801635742 14.234000205993652,5.684999942779541 11.598999977111816,4.000999927520752 C9.550000190734863,2.690000057220459 5.448999881744385,2.8469998836517334 2.7860000133514404,3.440000057220459 C5.410999774932861,1.2920000553131104 10.763999938964844,-3.1059999465942383 9.428000450134277,-5.841000080108643 C8.092000007629395,-8.57699966430664 4.0970001220703125,-7.425000190734863 2.2679998874664307,-6.419000148773193 C0.09200000017881393,-5.223999977111816 -1.7569999694824219,-3.380000114440918 -3.052999973297119,-1.2719999551773071 C-2.7219998836517334,-3.0350000858306885 -0.9620000123977661,-8.244000434875488 -2.8489999771118164,-9.748000144958496 C-8.47700023651123,-14.234000205993652 -14.234000205993652,4.466000080108643 -11.986000061035156,8.317999839782715 C-11.597000122070312,8.984000205993652 -10.932999610900879,9.418000221252441 -10.281000137329102,9.817999839782715z"></path></g></g><g transform="matrix(0.26916682720184326,-0.20284917950630188,0.23194800317287445,0.23539873957633972,7.695862770080566,81.16524505615234)" opacity="1" style="display: block;"><g opacity="1" transform="matrix(1,0,0,1,33.58599853515625,114.85399627685547)"><path fill="rgb(17,128,195)" fill-opacity="1" d=" M10.281000137329102,9.817999839782715 C7.178999900817871,11.722999572753906 -2.7320001125335693,14.234999656677246 -10.687000274658203,10.154999732971191 C-12.972000122070312,8.982999801635742 -14.234000205993652,5.684999942779541 -11.598999977111816,4.000999927520752 C-9.550000190734863,2.690000057220459 -5.449999809265137,2.8469998836517334 -2.7869999408721924,3.440000057220459 C-5.410999774932861,1.2920000553131104 -10.763999938964844,-3.1059999465942383 -9.428000450134277,-5.841000080108643 C-8.093000411987305,-8.57699966430664 -4.0980000495910645,-7.425000190734863 -2.2679998874664307,-6.419000148773193 C-0.09300000220537186,-5.223999977111816 1.7569999694824219,-3.380000114440918 3.052999973297119,-1.2719999551773071 C2.7209999561309814,-3.0350000858306885 0.9620000123977661,-8.244000434875488 2.8480000495910645,-9.748000144958496 C8.47700023651123,-14.234000205993652 13.376999855041504,5.186999797821045 11.986000061035156,8.317999839782715 C10.595000267028809,11.449000358581543 10.932000160217285,9.418000221252441 10.281000137329102,9.817999839782715z"></path></g></g><g transform="matrix(0.32688990235328674,0.12179020792245865,-0.13926109671592712,0.2858801782131195,48.711483001708984,47.847572326660156)" opacity="1" style="display: block;"><g opacity="1" transform="matrix(1,0,0,1,162.23399353027344,65.78500366210938)"><path fill="rgb(244,121,92)" fill-opacity="1" d=" M-35.6609992980957,31.143999099731445 C-19.13800048828125,30.62700080871582 -1.6540000438690186,29.086000442504883 13.522000312805176,22.014999389648438 C30.71299934387207,14.003000259399414 37.09600067138672,-0.4300000071525574 37.04800033569336,-18.69499969482422 C37.04199981689453,-20.902000427246094 36.972999572753906,-23.176000595092773 36.08399963378906,-25.19700050354004 C33.68000030517578,-30.659000396728516 26.46299934387207,-31.143999099731445 19.591999053955078,-29.632999420166016 C21.246000289916992,-23.798999786376953 19.107999801635742,-17.96299934387207 14.47599983215332,-16.28499984741211 C10.593999862670898,-14.876999855041504 6.189000129699707,-16.844999313354492 3.4019999504089355,-20.76799964904785 C0.9850000143051147,-18.242000579833984 -1.315999984741211,-15.343999862670898 -2.5950000286102295,-12.534000396728516 C-4.828000068664551,-7.626999855041504 -6.081999778747559,-2.440000057220459 -9.626999855041504,1.7910000085830688 C-16.32699966430664,9.786999702453613 -27.326000213623047,15.218000411987305 -37.09600067138672,18.05299949645996 C-37.09600067138672,18.05299949645996 -35.6609992980957,31.143999099731445 -35.6609992980957,31.143999099731445z"></path></g><g opacity="1" transform="matrix(1,0,0,1,165.04800415039062,81.53800201416016)"><path fill="rgb(17,128,195)" fill-opacity="1" d=" M27.375999450683594,-13.718999862670898 C19.049999237060547,-11.303000450134277 10.204000473022461,-11.470000267028809 1.680999994277954,-9.885000228881836 C-12.284000396728516,-7.289999961853027 -26.075000762939453,1.0809999704360962 -31.034000396728516,14.390999794006348 C-31.034000396728516,14.390999794006348 -31.083999633789062,15.067999839782715 -31.083999633789062,15.067999839782715 C-16.823999404907227,14.28499984741211 -2.2219998836517334,12.288000106811523 10.708000183105469,6.26200008392334 C21.219999313354492,1.3639999628067017 27.652999877929688,-5.958000183105469 31.083999633789062,-15.067999839782715 C29.86199951171875,-14.548999786376953 28.625999450683594,-14.081000328063965 27.375999450683594,-13.718999862670898z"></path></g></g><g transform="matrix(0.32237979769706726,-0.13066168129444122,0.14940519630908966,0.2819359302520752,20.98176383972168,73.4666748046875)" opacity="1" style="display: block;"><g opacity="1" transform="matrix(1,0,0,1,37.34600067138672,65.78500366210938)"><path fill="rgb(244,121,92)" fill-opacity="1" d=" M35.6619987487793,31.143999099731445 C19.13800048828125,30.62700080871582 1.6540000438690186,29.086000442504883 -13.520999908447266,22.014999389648438 C-30.711999893188477,14.003000259399414 -37.09700012207031,-0.4300000071525574 -37.04899978637695,-18.69499969482422 C-37.042999267578125,-20.902000427246094 -36.972999572753906,-23.176000595092773 -36.08300018310547,-25.19700050354004 C-33.68000030517578,-30.659000396728516 -26.46299934387207,-31.143999099731445 -19.593000411987305,-29.632999420166016 C-21.246999740600586,-23.798999786376953 -19.107999801635742,-17.96299934387207 -14.475000381469727,-16.28499984741211 C-10.593999862670898,-14.876999855041504 -6.189000129699707,-16.844999313354492 -3.4019999504089355,-20.76799964904785 C-0.9850000143051147,-18.242000579833984 1.315999984741211,-15.343999862670898 2.5950000286102295,-12.534000396728516 C4.827000141143799,-7.626999855041504 6.081999778747559,-2.440000057220459 9.628000259399414,1.7910000085830688 C16.32699966430664,9.786999702453613 27.326000213623047,15.218000411987305 37.09600067138672,18.05299949645996 C37.09600067138672,18.05299949645996 35.6619987487793,31.143999099731445 35.6619987487793,31.143999099731445z"></path></g><g opacity="1" transform="matrix(1,0,0,1,34.53300094604492,81.53800201416016)"><path fill="rgb(17,128,195)" fill-opacity="1" d=" M-27.37700080871582,-13.718999862670898 C-19.051000595092773,-11.303000450134277 -10.204000473022461,-11.470000267028809 -1.680999994277954,-9.885000228881836 C12.284000396728516,-7.289999961853027 26.073999404907227,1.0809999704360962 31.034000396728516,14.390999794006348 C31.034000396728516,14.390999794006348 31.083999633789062,15.067999839782715 31.083999633789062,15.067999839782715 C16.823999404907227,14.28499984741211 2.2219998836517334,12.288000106811523 -10.708000183105469,6.26200008392334 C-21.22100067138672,1.3639999628067017 -27.652999877929688,-5.958000183105469 -31.083999633789062,-15.067999839782715 C-29.863000869750977,-14.548999786376953 -28.62700080871582,-14.081000328063965 -27.37700080871582,-13.718999862670898z"></path></g></g><g transform="matrix(0.3551608920097351,-0.0092306612059474,0.010554805397987366,0.3106044828891754,31.28592300415039,62.616477966308594)" opacity="1" style="display: block;"><g opacity="1" transform="matrix(1,0,0,1,99.79000091552734,80.96199798583984)"><path fill="rgb(17,128,195)" fill-opacity="1" d=" M-0.011402159929275513,36.00687789916992 C34.01430130004883,36.034427642822266 53.671180725097656,25.024765014648438 50.48420715332031,-0.013922289945185184 C47.729278564453125,-21.663862228393555 26.530000686645508,-36.13100051879883 0,-36.13100051879883 C-26.52899932861328,-36.13100051879883 -47.58671569824219,-21.663021087646484 -50.51872253417969,-0.027084514498710632 C-53.93648910522461,24.840415954589844 -33.973201751708984,35.979862213134766 -0.011402159929275513,36.00687789916992z"></path></g><g opacity="1" transform="matrix(1,0,0,1,69.4000015258789,71.7040023803711)"><path fill="rgb(29,153,212)" fill-opacity="1" d=" M-1.2549999952316284,14.42199993133545 C-4.609000205993652,14.996999740600586 -7.965000152587891,14.531999588012695 -10.821999549865723,12.564000129699707 C-18.458999633789062,7.303999900817871 -17.58099937438965,-5.951000213623047 -8.210000038146973,-10.609999656677246 C0.6150000095367432,-14.998000144958496 14.633000373840332,-11.986000061035156 17.15399932861328,-3.7070000171661377 C18.45800018310547,0.5740000009536743 14.758999824523926,5.052000045776367 11.74899959564209,7.885000228881836 C8.241999626159668,11.185999870300293 3.6089999675750732,13.586999893188477 -1.2549999952316284,14.42199993133545z"></path></g><g opacity="1" transform="matrix(1,0,0,1,69.44599914550781,70.57099914550781)"><path fill="rgb(74,92,148)" fill-opacity="1" d=" M10.357000350952148,0.8259999752044678 C10.357000350952148,0.8259999752044678 3.5369999408721924,-5.5269999504089355 -2.9830000400543213,-4.182000160217285 C-9.50100040435791,-2.8380000591278076 -11.502605438232422,5.178743839263916 -10.357000350952148,5.526000022888184 C-5.964378833770752,-2.891559600830078 10.357000350952148,0.8259999752044678 10.357000350952148,0.8259999752044678z"></path></g><g opacity="1" transform="matrix(1,0,0,1,130.18099975585938,71.7040023803711)"><path fill="rgb(29,153,212)" fill-opacity="1" d=" M1.2549999952316284,14.42199993133545 C4.609000205993652,14.996999740600586 7.965000152587891,14.531999588012695 10.821999549865723,12.564000129699707 C18.458999633789062,7.303999900817871 17.58099937438965,-5.951000213623047 8.210000038146973,-10.609999656677246 C-0.6150000095367432,-14.998000144958496 -14.633000373840332,-11.986000061035156 -17.15399932861328,-3.7070000171661377 C-18.45800018310547,0.5740000009536743 -14.760000228881836,5.052000045776367 -11.75,7.885000228881836 C-8.241999626159668,11.185999870300293 -3.6080000400543213,13.586999893188477 1.2549999952316284,14.42199993133545z"></path></g><g opacity="1" transform="matrix(1,0,0,1,130.13499450683594,70.57099914550781)"><path fill="rgb(74,92,148)" fill-opacity="1" d=" M-10.355999946594238,0.8259999752044678 C-10.355999946594238,0.8259999752044678 -3.5380001068115234,-5.5269999504089355 2.9809999465942383,-4.182000160217285 C9.5,-2.8380000591278076 11.226694107055664,4.402523994445801 10.355999946594238,5.526000022888184 C4.848413944244385,-3.674588203430176 -10.355999946594238,0.8259999752044678 -10.355999946594238,0.8259999752044678z"></path></g><g opacity="1" transform="matrix(1,0,0,1,99.79000091552734,70.76699829101562)"><path fill="rgb(74,92,148)" fill-opacity="1" d=" M11.494999885559082,1.9520000219345093 C11.494999885559082,-5.636000156402588 6.348999977111816,-11.788000106811523 0,-11.788000106811523 C-6.348999977111816,-11.788000106811523 -11.494999885559082,-5.636000156402588 -11.494999885559082,1.9520000219345093 C-11.494999885559082,9.541000366210938 -6.348999977111816,11.788000106811523 0,11.788000106811523 C6.348999977111816,11.788000106811523 11.494999885559082,9.541000366210938 11.494999885559082,1.9520000219345093z"></path></g></g><g transform="matrix(0.3372364640235901,-0.09786400198936462,0.1119026467204094,0.29492875933647156,27.51218605041504,70.5848388671875)" opacity="1" style="display: block;"><g opacity="1" transform="matrix(1,0,0,1,76.74500274658203,36.196998596191406)"><path stroke-linecap="butt" stroke-linejoin="miter" fill-opacity="0" stroke-miterlimit="10" stroke="rgb(17,128,195)" stroke-opacity="1" stroke-width="5" d=" M-7.302000045776367,-16.490999221801758 C-5.389999866485596,-10.402999877929688 -5.556000232696533,-3.8550000190734863 -4.114999771118164,2.361999988555908 C-2.6760001182556152,8.57699966430664 1.1009999513626099,14.98799991607666 7.302000045776367,16.490999221801758"></path></g><g opacity="1" transform="matrix(1,0,0,1,65.77400207519531,13.298999786376953)"><path fill="rgb(17,128,195)" fill-opacity="1" d=" M6.875,10.293000221252441 C11,7.538000106811523 11.265999794006348,0.6970000267028809 7.46999979019165,-4.986999988555908 C3.6730000972747803,-10.67300033569336 -2.747999906539917,-13.048999786376953 -6.873000144958496,-10.293999671936035 C-10.99899959564209,-7.539000034332275 -11.265999794006348,-0.6970000267028809 -7.468999862670898,4.986999988555908 C-3.6730000972747803,10.67300033569336 2.749000072479248,13.04800033569336 6.875,10.293000221252441z"></path></g></g><g transform="matrix(0.33069053292274475,0.11367221921682358,-0.12997856736183167,0.28920403122901917,41.34042739868164,49.0419807434082)" opacity="1" style="display: block;"><g opacity="1" transform="matrix(1,0,0,1,122.83599853515625,36.196998596191406)"><path stroke-linecap="butt" stroke-linejoin="miter" fill-opacity="0" stroke-miterlimit="10" stroke="rgb(17,128,195)" stroke-opacity="1" stroke-width="5" d=" M7.302000045776367,-16.490999221801758 C5.389999866485596,-10.402999877929688 5.554999828338623,-3.8550000190734863 4.114999771118164,2.361999988555908 C2.6760001182556152,8.57699966430664 -1.1009999513626099,14.98799991607666 -7.302000045776367,16.490999221801758"></path></g><g opacity="1" transform="matrix(1,0,0,1,133.80599975585938,13.298999786376953)"><path fill="rgb(17,128,195)" fill-opacity="1" d=" M-6.873000144958496,10.293000221252441 C-10.998000144958496,7.538000106811523 -11.265999794006348,0.6970000267028809 -7.468999862670898,-4.986999988555908 C-3.6730000972747803,-10.67300033569336 2.747999906539917,-13.048999786376953 6.874000072479248,-10.293999671936035 C10.99899959564209,-7.539000034332275 11.265999794006348,-0.6970000267028809 7.46999979019165,4.986999988555908 C3.6730000972747803,10.67300033569336 -2.747999906539917,13.04800033569336 -6.873000144958496,10.293000221252441z"></path></g></g><g transform="matrix(0.3551608920097351,-0.0092306612059474,0.010554805397987366,0.3106044828891754,31.28592300415039,62.616477966308594)" opacity="1" style="display: block;"><g opacity="1" transform="matrix(1,0,0,1,99.79000091552734,100.697998046875)"><path fill="rgb(74,92,148)" fill-opacity="1" d=" M38.31108093261719,-3.4157495498657227 C38.261573791503906,1.0433568954467773 22.026931762695312,9.84494400024414 0.0384729728102684,9.8170747756958 C-22.47635269165039,9.783760070800781 -38.24824905395508,0.7972588539123535 -38.244022369384766,-3.47485613822937 C-38.238075256347656,-7.928947925567627 -21.325101852416992,-10.071698188781738 -0.023069456219673157,-10.059160232543945 C21.294797897338867,-10.046550750732422 38.363380432128906,-7.909890174865723 38.31108093261719,-3.4157495498657227z"></path></g></g><g transform="matrix(0.3551608920097351,-0.0092306612059474,0.010554805397987366,0.3106044828891754,31.27629280090332,62.52390670776367)" opacity="1" style="display: block;"><g opacity="1" transform="matrix(1,0,0,1,77.99500274658203,103.36599731445312)"><path fill="rgb(248,171,110)" fill-opacity="1" d=" M6.041354656219482,5.739487648010254 C5.967059135437012,5.555778503417969 1.4488111734390259,-5.380288600921631 -6.080395698547363,2.108276844024658 C-2.6803364753723145,3.531698703765869 1.4286636114120483,4.818320274353027 6.041354656219482,5.739487648010254z"></path></g><g opacity="1" transform="matrix(1,0,0,1,91.91799926757812,104.99800109863281)"><path fill="rgb(248,171,110)" fill-opacity="1" d=" M-7.874577522277832,4.0876688957214355 C-3.073136329650879,5.137127876281738 2.2501091957092285,5.80153226852417 7.877058982849121,5.768313407897949 C7.877058982849121,5.768313407897949 0.6530494093894958,-5.742299556732178 -7.874577522277832,4.0876688957214355z"></path></g><g opacity="1" transform="matrix(1,0,0,1,107.66200256347656,104.99800109863281)"><path fill="rgb(248,171,110)" fill-opacity="1" d=" M7.871904373168945,4.146946907043457 C3.067695379257202,5.177314758300781 -2.256409168243408,5.82062292098999 -7.881545543670654,5.765354633331299 C-7.881545543670654,5.765354633331299 -0.614676296710968,-5.71347188949585 7.871904373168945,4.146946907043457z"></path></g><g opacity="1" transform="matrix(1,0,0,1,121.58499908447266,103.36599731445312)"><path fill="rgb(248,171,110)" fill-opacity="1" d=" M-6.0475592613220215,5.769460678100586 C-5.97288179397583,5.586037635803223 -1.430101990699768,-5.331701755523682 6.075623035430908,2.1709909439086914 C2.6751320362091064,3.5850582122802734 -1.435441017150879,4.860416412353516 -6.0475592613220215,5.769460678100586z"></path></g></g><g transform="matrix(0.3551608920097351,-0.0092306612059474,0.010554805397987366,0.3106044828891754,31.277761459350586,62.5656623840332)" opacity="1" style="display: block;"><g opacity="1" transform="matrix(1,0,0,1,65.9260025024414,97.98200225830078)"><path fill="rgb(255,236,172)" fill-opacity="1" d=" M3.536790132522583,-4.955727577209473 C-1.0721728801727295,-4.016221046447754 -3.850407361984253,-2.710294485092163 -3.9007773399353027,-1.056195616722107 C3.5494706630706787,4.666531562805176 3.5375308990478516,-4.851122856140137 3.536790132522583,-4.955727577209473z"></path></g><g opacity="1" transform="matrix(1,0,0,1,75.63200378417969,100.21399688720703)"><path fill="rgb(255,236,172)" fill-opacity="1" d=" M-6.181185245513916,-7.189221382141113 C3.323322057723999,8.84904956817627 5.901247024536133,-6.799111366271973 6.191259384155273,-8.864765167236328 C1.3055801391601562,-8.49367904663086 -2.8986666202545166,-7.924086093902588 -6.181185245513916,-7.189221382141113z"></path></g><g opacity="1" transform="matrix(1,0,0,1,90.8740005493164,102.30400085449219)"><path fill="rgb(255,236,172)" fill-opacity="1" d=" M-8.916000366210938,-10.979000091552734 C2.7090001106262207,11.682000160217285 8.916000366210938,-11.682000160217285 8.916000366210938,-11.682000160217285 C2.4639999866485596,-11.682000160217285 -3.6059999465942383,-11.439000129699707 -8.916000366210938,-10.979000091552734z"></path></g><g opacity="1" transform="matrix(1,0,0,1,108.70600128173828,102.30400085449219)"><path fill="rgb(255,236,172)" fill-opacity="1" d=" M8.916000366210938,-10.979000091552734 C-2.7079999446868896,11.682000160217285 -8.916000366210938,-11.682000160217285 -8.916000366210938,-11.682000160217285 C-2.4639999866485596,-11.682000160217285 3.6059999465942383,-11.439000129699707 8.916000366210938,-10.979000091552734z"></path></g><g opacity="1" transform="matrix(1,0,0,1,123.947998046875,100.21399688720703)"><path fill="rgb(255,236,172)" fill-opacity="1" d=" M6.186925888061523,-7.178258895874023 C-3.3384206295013428,8.850333213806152 -5.898382663726807,-6.802864074707031 -6.186925888061523,-8.869111061096191 C-1.3011481761932373,-8.491999626159668 2.9038023948669434,-7.917172431945801 6.186925888061523,-7.178258895874023z"></path></g><g opacity="1" transform="matrix(1,0,0,1,133.65499877929688,97.98200225830078)"><path fill="rgb(255,236,172)" fill-opacity="1" d=" M-3.5370986461639404,-4.928764820098877 C1.0660370588302612,-4.033801078796387 3.8484320640563965,-2.756911516189575 3.913616895675659,-1.1084423065185547 C-3.4618661403656006,4.663865089416504 -3.5369505882263184,-4.824456214904785 -3.5370986461639404,-4.928764820098877z"></path></g></g></g></svg>