<svg xmlns="http://www.w3.org/2000/svg" viewBox="0 0 94 49" width="94" height="49" preserveAspectRatio="xMidYMid meet" style="width: 100%; height: 100%; transform: translate3d(0px, 0px, 0px); content-visibility: visible;"><defs><clipPath id="__lottie_element_854"><rect width="94" height="49" x="0" y="0"></rect></clipPath></defs><g clip-path="url(#__lottie_element_854)"><g transform="matrix(0.3330000042915344,0,0,0.3330000042915344,-15.77566146850586,-4.70526123046875)" opacity="1" style="display: block;"><g opacity="1" transform="matrix(1,0,0,1,189.66299438476562,81.62899780273438)"><path fill="rgb(77,67,95)" fill-opacity="1" d=" M95.8499984741211,59.74300003051758 C95.8499984741211,59.74300003051758 -95.8499984741211,59.74300003051758 -95.8499984741211,59.74300003051758 C-95.8499984741211,59.74300003051758 -95.8499984741211,-59.74300003051758 -95.8499984741211,-59.74300003051758 C-95.8499984741211,-59.74300003051758 95.8499984741211,-59.74300003051758 95.8499984741211,-59.74300003051758 C95.8499984741211,-59.74300003051758 95.8499984741211,59.74300003051758 95.8499984741211,59.74300003051758z"></path></g><g opacity="1" transform="matrix(1,0,0,1,73.20700073242188,86.31700134277344)"><path stroke-linecap="round" stroke-linejoin="round" fill-opacity="0" stroke="rgb(77,67,95)" stroke-opacity="1" stroke-width="5.74" d=" M20.606000900268555,46.349998474121094 C20.606000900268555,46.349998474121094 -20.606000900268555,46.349998474121094 -20.606000900268555,46.349998474121094 C-20.606000900268555,46.349998474121094 -20.606000900268555,-46.349998474121094 -20.606000900268555,-46.349998474121094 C-20.606000900268555,-46.349998474121094 20.606000900268555,-46.349998474121094 20.606000900268555,-46.349998474121094 C20.606000900268555,-46.349998474121094 20.606000900268555,46.349998474121094 20.606000900268555,46.349998474121094z"></path></g><g opacity="1" transform="matrix(1,0,0,1,73.20700073242188,63.141998291015625)"><path stroke-linecap="round" stroke-linejoin="round" fill-opacity="0" stroke="rgb(77,67,95)" stroke-opacity="1" stroke-width="5.74" d=" M-20.606000900268555,-23.176000595092773 C-20.606000900268555,-23.176000595092773 20.606000900268555,23.176000595092773 20.606000900268555,23.176000595092773"></path></g><g opacity="1" transform="matrix(1,0,0,1,73.20700073242188,63.14099884033203)"><path stroke-linecap="round" stroke-linejoin="round" fill-opacity="0" stroke="rgb(77,67,95)" stroke-opacity="1" stroke-width="5.74" d=" M-20.606000900268555,23.174999237060547 C-20.606000900268555,23.174999237060547 20.606000900268555,-23.174999237060547 20.606000900268555,-23.174999237060547"></path></g><g opacity="1" transform="matrix(1,0,0,1,73.20600128173828,109.49199676513672)"><path stroke-linecap="round" stroke-linejoin="round" fill-opacity="0" stroke="rgb(77,67,95)" stroke-opacity="1" stroke-width="5.74" d=" M20.606000900268555,23.174999237060547 C20.606000900268555,23.174999237060547 -20.606000900268555,-23.174999237060547 -20.606000900268555,-23.174999237060547 C-20.606000900268555,-23.174999237060547 20.606000900268555,-23.174999237060547 20.606000900268555,-23.174999237060547 C20.606000900268555,-23.174999237060547 -20.606000900268555,23.174999237060547 -20.606000900268555,23.174999237060547"></path></g><g opacity="1" transform="matrix(1,0,0,1,306.1189880371094,86.31700134277344)"><path stroke-linecap="round" stroke-linejoin="round" fill-opacity="0" stroke="rgb(77,67,95)" stroke-opacity="1" stroke-width="5.74" d=" M20.606000900268555,46.349998474121094 C20.606000900268555,46.349998474121094 -20.606000900268555,46.349998474121094 -20.606000900268555,46.349998474121094 C-20.606000900268555,46.349998474121094 -20.606000900268555,-46.349998474121094 -20.606000900268555,-46.349998474121094 C-20.606000900268555,-46.349998474121094 20.606000900268555,-46.349998474121094 20.606000900268555,-46.349998474121094 C20.606000900268555,-46.349998474121094 20.606000900268555,46.349998474121094 20.606000900268555,46.349998474121094z"></path></g><g opacity="1" transform="matrix(1,0,0,1,306.1180114746094,63.141998291015625)"><path stroke-linecap="round" stroke-linejoin="round" fill-opacity="0" stroke="rgb(77,67,95)" stroke-opacity="1" stroke-width="5.74" d=" M-20.606000900268555,-23.176000595092773 C-20.606000900268555,-23.176000595092773 20.606000900268555,23.176000595092773 20.606000900268555,23.176000595092773"></path></g><g opacity="1" transform="matrix(1,0,0,1,306.1180114746094,63.14099884033203)"><path stroke-linecap="round" stroke-linejoin="round" fill-opacity="0" stroke="rgb(77,67,95)" stroke-opacity="1" stroke-width="5.74" d=" M-20.606000900268555,23.174999237060547 C-20.606000900268555,23.174999237060547 20.606000900268555,-23.174999237060547 20.606000900268555,-23.174999237060547"></path></g><g opacity="1" transform="matrix(1,0,0,1,306.1180114746094,109.49199676513672)"><path stroke-linecap="round" stroke-linejoin="round" fill-opacity="0" stroke="rgb(77,67,95)" stroke-opacity="1" stroke-width="5.74" d=" M20.606000900268555,23.174999237060547 C20.606000900268555,23.174999237060547 -20.606000900268555,-23.174999237060547 -20.606000900268555,-23.174999237060547 C-20.606000900268555,-23.174999237060547 20.606000900268555,-23.174999237060547 20.606000900268555,-23.174999237060547 C20.606000900268555,-23.174999237060547 -20.606000900268555,23.174999237060547 -20.606000900268555,23.174999237060547"></path></g></g><g transform="matrix(0.3330000042915344,0,0,0.3330000042915344,-15.77566146850586,-4.70526123046875)" opacity="1" style="display: block;"><g opacity="1" transform="matrix(1,0,0,1,214.52000427246094,117.45600128173828)"><path fill="rgb(77,67,95)" fill-opacity="1" d=" M-20.472000122070312,2.371000051498413 C-20.472000122070312,2.371000051498413 -20.538999557495117,-9.87399959564209 -20.538999557495117,-9.87399959564209 C-20.538999557495117,-9.87399959564209 8.626999855041504,-13.515999794006348 8.626999855041504,-13.515999794006348 C8.626999855041504,-13.515999794006348 11.876999855041504,-9 11.876999855041504,-9 C8.75100040435791,-6.310999870300293 9.753000259399414,-2.1679999828338623 2.61899995803833,0.5580000281333923 C2.61899995803833,0.5580000281333923 4.335000038146973,5.050000190734863 4.335000038146973,5.050000190734863 C4.335000038146973,5.050000190734863 12.130000114440918,6.60699987411499 12.130000114440918,6.60699987411499 C12.800000190734863,6.742000102996826 13.479999542236328,6.428999900817871 13.814000129699707,5.831999778747559 C13.814000129699707,5.831999778747559 17.634000778198242,-1.0049999952316284 17.634000778198242,-1.0049999952316284 C17.634000778198242,-1.0049999952316284 19.378999710083008,1.4490000009536743 19.378999710083008,1.4490000009536743 C19.378999710083008,1.4490000009536743 20.538000106811523,9.8149995803833 13.574999809265137,12.475000381469727 C13.574999809265137,12.475000381469727 1.5449999570846558,12.479000091552734 1.5449999570846558,12.479000091552734 C-4.321000099182129,13.515999794006348 -20.472000122070312,2.371000051498413 -20.472000122070312,2.371000051498413z"></path></g><g opacity="1" transform="matrix(1,0,0,1,224.84300231933594,116.11299896240234)"><path fill="rgb(235,230,204)" fill-opacity="1" d=" M7.311999797821045,0.33799999952316284 C7.311999797821045,0.33799999952316284 3.492000102996826,7.176000118255615 3.492000102996826,7.176000118255615 C3.1589999198913574,7.7729997634887695 2.4779999256134033,8.085000038146973 1.8079999685287476,7.949999809265137 C1.8079999685287476,7.949999809265137 -5.986999988555908,6.394000053405762 -5.986999988555908,6.394000053405762 C-5.986999988555908,6.394000053405762 -7.703000068664551,1.899999976158142 -7.703000068664551,1.899999976158142 C-0.5680000185966492,-0.824999988079071 -1.5700000524520874,-4.9670000076293945 1.555999994277954,-7.656000137329102 C1.555999994277954,-7.656000137329102 2.0220000743865967,-7.906000137329102 2.0220000743865967,-7.906000137329102 C2.3559999465942383,-8.085000038146973 2.7709999084472656,-7.989999771118164 2.993000030517578,-7.683000087738037 C2.993000030517578,-7.683000087738037 7.289000034332275,-1.7130000591278076 7.289000034332275,-1.7130000591278076 C7.630000114440918,-1.2389999628067017 7.703999996185303,-0.6240000128746033 7.484000205993652,-0.08399999886751175 C7.484000205993652,-0.08399999886751175 7.311999797821045,0.33799999952316284 7.311999797821045,0.33799999952316284z"></path></g><g opacity="1" transform="matrix(1,0,0,1,210.89199829101562,112.63999938964844)"><path fill="rgb(235,230,204)" fill-opacity="1" d=" M-24.243999481201172,11.430000305175781 C-24.243999481201172,11.430000305175781 -25.451000213623047,6.64300012588501 -25.451000213623047,6.64300012588501 C-28.06599998474121,-3.7320001125335693 -22.506999969482422,-14.423999786376953 -12.51200008392334,-18.242000579833984 C-3.563999891281128,-21.65999984741211 6.563000202178955,-18.628000259399414 12.159000396728516,-10.854000091552734 C12.159000396728516,-10.854000091552734 12.682999610900879,-10.12600040435791 12.682999610900879,-10.12600040435791 C13.043999671936035,-9.62600040435791 12.831999778747559,-8.918999671936035 12.255999565124512,-8.699000358581543 C12.255999565124512,-8.699000358581543 -5.514999866485596,-1.909999966621399 -5.514999866485596,-1.909999966621399 C-5.514999866485596,-1.909999966621399 -7.525000095367432,-4.2179999351501465 -7.525000095367432,-4.2179999351501465 C-7.894000053405762,-4.640999794006348 -8.487000465393066,-4.789999961853027 -9.01099967956543,-4.590000152587891 C-9.01099967956543,-4.590000152587891 -14.413000106811523,-2.5260000228881836 -14.413000106811523,-2.5260000228881836 C-14.937000274658203,-2.3259999752044678 -15.279999732971191,-1.8200000524520874 -15.27299976348877,-1.2589999437332153 C-15.27299976348877,-1.2589999437332153 -15.204999923706055,3.881999969482422 -15.204999923706055,3.881999969482422 C-15.192999839782715,4.811999797821045 -14.258999824523926,5.446000099182129 -13.390000343322754,5.113999843597412 C-13.390000343322754,5.113999843597412 -3.6710000038146973,1.4010000228881836 -3.6710000038146973,1.4010000228881836 C-3.2019999027252197,1.222000002861023 -2.6710000038146973,1.3539999723434448 -2.3420000076293945,1.7330000400543213 C-2.3420000076293945,1.7330000400543213 1.0570000410079956,5.633999824523926 1.0570000410079956,5.633999824523926 C1.6039999723434448,6.26200008392334 1.3589999675750732,7.242000102996826 0.5820000171661377,7.538000106811523 C0.5820000171661377,7.538000106811523 -2.440000057220459,8.692999839782715 -2.440000057220459,8.692999839782715 C-3.2730000019073486,9.01099967956543 -3.6070001125335693,10.01099967956543 -3.134999990463257,10.767000198364258 C-1.562000036239624,13.281999588012695 1.2089999914169312,14.869000434875488 4.252999782562256,14.88599967956543 C4.252999782562256,14.88599967956543 16.201000213623047,14.951000213623047 16.201000213623047,14.951000213623047 C17.402000427246094,14.958000183105469 18.511999130249023,14.310999870300293 19.097999572753906,13.262999534606934 C19.097999572753906,13.262999534606934 23.006999969482422,6.265999794006348 23.006999969482422,6.265999794006348 C23.312000274658203,5.7210001945495605 24.091999053955078,5.736999988555908 24.389999389648438,6.284999847412109 C28.06599998474121,13.0649995803833 23.184999465942383,21.65999984741211 15.140000343322754,21.617000579833984 C15.140000343322754,21.617000579833984 -11.430999755859375,21.47100067138672 -11.430999755859375,21.47100067138672 C-17.492000579833984,21.437999725341797 -22.76300048828125,17.308000564575195 -24.243999481201172,11.430000305175781z"></path></g></g><g transform="matrix(0.2454998642206192,-0.17190085351467133,0.17190085351467133,0.2454998642206192,53.412818908691406,38.01639938354492)" opacity="0.6" style="display: block;"><g opacity="1" transform="matrix(1,0,0,1,0,0)"><path fill="rgb(196,145,206)" fill-opacity="1" d=" M8.131999969482422,41.24300003051758 C8.131999969482422,41.24300003051758 20.999000549316406,-138.01499938964844 20.999000549316406,-138.01499938964844 C20.999000549316406,-138.01499938964844 42.446998596191406,41.654998779296875 42.446998596191406,41.654998779296875 C42.446998596191406,41.654998779296875 8.131999969482422,41.24300003051758 8.131999969482422,41.24300003051758z"></path></g></g><g transform="matrix(0.2454998642206192,0.17190085351467133,-0.17190085351467133,0.2454998642206192,29.278186798095703,30.79656219482422)" opacity="0.6" style="display: block;"><g opacity="1" transform="matrix(1,0,0,1,0,0)"><path fill="rgb(196,145,206)" fill-opacity="1" d=" M8.131999969482422,41.24300003051758 C8.131999969482422,41.24300003051758 20.999000549316406,-138.01499938964844 20.999000549316406,-138.01499938964844 C20.999000549316406,-138.01499938964844 42.446998596191406,41.654998779296875 42.446998596191406,41.654998779296875 C42.446998596191406,41.654998779296875 8.131999969482422,41.24300003051758 8.131999969482422,41.24300003051758z"></path></g></g></g></svg>