<svg xmlns="http://www.w3.org/2000/svg" viewBox="0 0 34 79" width="34" height="79" preserveAspectRatio="xMidYMid meet" style="width: 100%; height: 100%; transform: translate3d(0px, 0px, 0px); content-visibility: visible;"><defs><clipPath id="__lottie_element_2817"><rect width="34" height="79" x="0" y="0"></rect></clipPath></defs><g clip-path="url(#__lottie_element_2817)"><g transform="matrix(0.3330000042915344,0,0,0.3330000042915344,0.6866633296012878,0.7784270644187927)" opacity="1" style="display: block;"><g opacity="1" transform="matrix(1,0,0,1,0,0)"><path stroke-linecap="butt" stroke-linejoin="miter" fill-opacity="0" stroke-miterlimit="10" stroke="rgb(175,154,166)" stroke-opacity="1" stroke-width="6" d=" M22.26099967956543,220.36500549316406 C22.26099967956543,220.36500549316406 22.26099967956543,7.723999977111816 22.26099967956543,7.723999977111816"></path></g><g opacity="1" transform="matrix(1,0,0,1,22.277000427246094,6.0370001792907715)"><path fill="rgb(175,154,166)" fill-opacity="1" d=" M5.785999774932861,0 C5.785999774932861,-3.196000099182129 3.194999933242798,-5.785999774932861 0,-5.785999774932861 C-3.194999933242798,-5.785999774932861 -5.785999774932861,-3.196000099182129 -5.785999774932861,0 C-5.785999774932861,3.194999933242798 -3.194999933242798,5.785999774932861 0,5.785999774932861 C3.194999933242798,5.785999774932861 5.785999774932861,3.194999933242798 5.785999774932861,0z"></path></g><g opacity="1" transform="matrix(1,0,0,1,22.30500030517578,215.85699462890625)"><path fill="rgb(141,124,142)" fill-opacity="1" d=" M7.48199987411499,3.2249999046325684 C7.48199987411499,3.2249999046325684 -7.48199987411499,3.2249999046325684 -7.48199987411499,3.2249999046325684 C-7.48199987411499,3.2249999046325684 -7.48199987411499,-3.2249999046325684 -7.48199987411499,-3.2249999046325684 C-7.48199987411499,-3.2249999046325684 7.48199987411499,-3.2249999046325684 7.48199987411499,-3.2249999046325684 C7.48199987411499,-3.2249999046325684 7.48199987411499,3.2249999046325684 7.48199987411499,3.2249999046325684z"></path></g><g opacity="1" transform="matrix(1,0,0,1,22.304000854492188,222.3070068359375)"><path fill="rgb(141,124,142)" fill-opacity="1" d=" M13.932999610900879,3.2249999046325684 C13.932999610900879,3.2249999046325684 -13.932999610900879,3.2249999046325684 -13.932999610900879,3.2249999046325684 C-13.932999610900879,3.2249999046325684 -13.932999610900879,-3.2249999046325684 -13.932999610900879,-3.2249999046325684 C-13.932999610900879,-3.2249999046325684 13.932999610900879,-3.2249999046325684 13.932999610900879,-3.2249999046325684 C13.932999610900879,-3.2249999046325684 13.932999610900879,3.2249999046325684 13.932999610900879,3.2249999046325684z"></path></g><g opacity="1" transform="matrix(1,0,0,1,22.30500030517578,228.75799560546875)"><path fill="rgb(141,124,142)" fill-opacity="1" d=" M22.05500030517578,3.2260000705718994 C22.05500030517578,3.2260000705718994 -22.05500030517578,3.2260000705718994 -22.05500030517578,3.2260000705718994 C-22.05500030517578,3.2260000705718994 -22.05500030517578,-3.2260000705718994 -22.05500030517578,-3.2260000705718994 C-22.05500030517578,-3.2260000705718994 22.05500030517578,-3.2260000705718994 22.05500030517578,-3.2260000705718994 C22.05500030517578,-3.2260000705718994 22.05500030517578,3.2260000705718994 22.05500030517578,3.2260000705718994z"></path></g></g><g transform="matrix(0.3327971398830414,0.011621532030403614,-0.011621532030403614,0.3327971398830414,8.281670570373535,4.625307083129883)" opacity="1" style="display: block;"><g opacity="1" transform="matrix(1,0,0,1,37.51499938964844,21.356000900268555)"><path fill="rgb(238,235,234)" fill-opacity="1" d=" M37.263999938964844,-21.106000900268555 C37.263999938964844,-21.106000900268555 -37.263999938964844,-21.106000900268555 -37.263999938964844,-21.106000900268555 C-37.263999938964844,-21.106000900268555 -37.263999938964844,21.106000900268555 -37.263999938964844,21.106000900268555 C-37.263999938964844,21.106000900268555 37.263999938964844,21.106000900268555 37.263999938964844,21.106000900268555 C37.263999938964844,21.106000900268555 37.263999938964844,-21.106000900268555 37.263999938964844,-21.106000900268555z"></path></g><g opacity="1" transform="matrix(1,0,0,1,28.198999404907227,16.079999923706055)"><path fill="rgb(77,67,95)" fill-opacity="1" d=" M9.315999984741211,-5.2769999504089355 C9.315999984741211,-5.2769999504089355 -9.315999984741211,-5.2769999504089355 -9.315999984741211,-5.2769999504089355 C-9.315999984741211,-5.2769999504089355 -9.315999984741211,5.2769999504089355 -9.315999984741211,5.2769999504089355 C-9.315999984741211,5.2769999504089355 9.315999984741211,5.2769999504089355 9.315999984741211,5.2769999504089355 C9.315999984741211,5.2769999504089355 9.315999984741211,-5.2769999504089355 9.315999984741211,-5.2769999504089355z"></path></g><g opacity="1" transform="matrix(1,0,0,1,65.46299743652344,16.079999923706055)"><path fill="rgb(77,67,95)" fill-opacity="1" d=" M9.315999984741211,-5.2769999504089355 C9.315999984741211,-5.2769999504089355 -9.315999984741211,-5.2769999504089355 -9.315999984741211,-5.2769999504089355 C-9.315999984741211,-5.2769999504089355 -9.315999984741211,5.2769999504089355 -9.315999984741211,5.2769999504089355 C-9.315999984741211,5.2769999504089355 9.315999984741211,5.2769999504089355 9.315999984741211,5.2769999504089355 C9.315999984741211,5.2769999504089355 9.315999984741211,-5.2769999504089355 9.315999984741211,-5.2769999504089355z"></path></g><g opacity="1" transform="matrix(1,0,0,1,9.565999984741211,5.5269999504089355)"><path fill="rgb(77,67,95)" fill-opacity="1" d=" M9.315999984741211,5.2769999504089355 C9.315999984741211,5.2769999504089355 -9.315999984741211,5.2769999504089355 -9.315999984741211,5.2769999504089355 C-9.315999984741211,5.2769999504089355 -9.315999984741211,-5.2769999504089355 -9.315999984741211,-5.2769999504089355 C-9.315999984741211,-5.2769999504089355 9.315999984741211,-5.2769999504089355 9.315999984741211,-5.2769999504089355 C9.315999984741211,-5.2769999504089355 9.315999984741211,5.2769999504089355 9.315999984741211,5.2769999504089355z"></path></g><g opacity="1" transform="matrix(1,0,0,1,46.83100128173828,5.5269999504089355)"><path fill="rgb(77,67,95)" fill-opacity="1" d=" M9.315999984741211,5.2769999504089355 C9.315999984741211,5.2769999504089355 -9.315999984741211,5.2769999504089355 -9.315999984741211,5.2769999504089355 C-9.315999984741211,5.2769999504089355 -9.315999984741211,-5.2769999504089355 -9.315999984741211,-5.2769999504089355 C-9.315999984741211,-5.2769999504089355 9.315999984741211,-5.2769999504089355 9.315999984741211,-5.2769999504089355 C9.315999984741211,-5.2769999504089355 9.315999984741211,5.2769999504089355 9.315999984741211,5.2769999504089355z"></path></g><g opacity="1" transform="matrix(1,0,0,1,28.198999404907227,37.18600082397461)"><path fill="rgb(77,67,95)" fill-opacity="1" d=" M9.315999984741211,-5.2769999504089355 C9.315999984741211,-5.2769999504089355 -9.315999984741211,-5.2769999504089355 -9.315999984741211,-5.2769999504089355 C-9.315999984741211,-5.2769999504089355 -9.315999984741211,5.2769999504089355 -9.315999984741211,5.2769999504089355 C-9.315999984741211,5.2769999504089355 9.315999984741211,5.2769999504089355 9.315999984741211,5.2769999504089355 C9.315999984741211,5.2769999504089355 9.315999984741211,-5.2769999504089355 9.315999984741211,-5.2769999504089355z"></path></g><g opacity="1" transform="matrix(1,0,0,1,65.46299743652344,37.18600082397461)"><path fill="rgb(77,67,95)" fill-opacity="1" d=" M9.315999984741211,-5.2769999504089355 C9.315999984741211,-5.2769999504089355 -9.315999984741211,-5.2769999504089355 -9.315999984741211,-5.2769999504089355 C-9.315999984741211,-5.2769999504089355 -9.315999984741211,5.2769999504089355 -9.315999984741211,5.2769999504089355 C-9.315999984741211,5.2769999504089355 9.315999984741211,5.2769999504089355 9.315999984741211,5.2769999504089355 C9.315999984741211,5.2769999504089355 9.315999984741211,-5.2769999504089355 9.315999984741211,-5.2769999504089355z"></path></g><g opacity="1" transform="matrix(1,0,0,1,9.565999984741211,26.632999420166016)"><path fill="rgb(77,67,95)" fill-opacity="1" d=" M9.315999984741211,5.2769999504089355 C9.315999984741211,5.2769999504089355 -9.315999984741211,5.2769999504089355 -9.315999984741211,5.2769999504089355 C-9.315999984741211,5.2769999504089355 -9.315999984741211,-5.2769999504089355 -9.315999984741211,-5.2769999504089355 C-9.315999984741211,-5.2769999504089355 9.315999984741211,-5.2769999504089355 9.315999984741211,-5.2769999504089355 C9.315999984741211,-5.2769999504089355 9.315999984741211,5.2769999504089355 9.315999984741211,5.2769999504089355z"></path></g><g opacity="1" transform="matrix(1,0,0,1,46.83100128173828,26.632999420166016)"><path fill="rgb(77,67,95)" fill-opacity="1" d=" M9.315999984741211,5.2769999504089355 C9.315999984741211,5.2769999504089355 -9.315999984741211,5.2769999504089355 -9.315999984741211,5.2769999504089355 C-9.315999984741211,5.2769999504089355 -9.315999984741211,-5.2769999504089355 -9.315999984741211,-5.2769999504089355 C-9.315999984741211,-5.2769999504089355 9.315999984741211,-5.2769999504089355 9.315999984741211,-5.2769999504089355 C9.315999984741211,-5.2769999504089355 9.315999984741211,5.2769999504089355 9.315999984741211,5.2769999504089355z"></path></g></g></g></svg>