<svg xmlns="http://www.w3.org/2000/svg" viewBox="0 0 380 39" width="380" height="39" preserveAspectRatio="xMidYMid meet" style="width: 100%; height: 100%; transform: translate3d(0px, 0px, 0px); content-visibility: visible;"><defs><clipPath id="__lottie_element_4234"><rect width="380" height="39" x="0" y="0"></rect></clipPath></defs><g clip-path="url(#__lottie_element_4234)"><g transform="matrix(1.8059998750686646,0,0,1.8059998750686646,150.7145538330078,0.3718392252922058)" opacity="1" style="display: block;"><g opacity="1" transform="matrix(1,0,0,1,1.5499999523162842,11.836000442504883)"><path fill="rgb(255,222,177)" fill-opacity="1" d=" M-0.6029999852180481,1.8630000352859497 C-0.6029999852180481,1.8630000352859497 0.6029999852180481,1.8630000352859497 0.6029999852180481,1.8630000352859497 C0.9879999756813049,1.8630000352859497 1.2999999523162842,1.5520000457763672 1.2999999523162842,1.1670000553131104 C1.2999999523162842,1.1670000553131104 1.2999999523162842,-1.1670000553131104 1.2999999523162842,-1.1670000553131104 C1.2999999523162842,-1.5509999990463257 0.9879999756813049,-1.8630000352859497 0.6029999852180481,-1.8630000352859497 C0.6029999852180481,-1.8630000352859497 -0.6029999852180481,-1.8630000352859497 -0.6029999852180481,-1.8630000352859497 C-0.9879999756813049,-1.8630000352859497 -1.2999999523162842,-1.5509999990463257 -1.2999999523162842,-1.1670000553131104 C-1.2999999523162842,-1.1670000553131104 -1.2999999523162842,1.1670000553131104 -1.2999999523162842,1.1670000553131104 C-1.2999999523162842,1.5520000457763672 -0.9879999756813049,1.8630000352859497 -0.6029999852180481,1.8630000352859497z"></path></g><g opacity="1" transform="matrix(1,0,0,1,2.4590001106262207,11.836000442504883)"><path fill="rgb(95,49,29)" fill-opacity="1" d=" M-1.5130000114440918,2.1679999828338623 C-1.5130000114440918,2.1679999828338623 1.5130000114440918,2.1679999828338623 1.5130000114440918,2.1679999828338623 C1.5130000114440918,2.1679999828338623 1.5130000114440918,-2.1679999828338623 1.5130000114440918,-2.1679999828338623 C1.5130000114440918,-2.1679999828338623 -1.5130000114440918,-2.1679999828338623 -1.5130000114440918,-2.1679999828338623 C-1.5130000114440918,-2.1679999828338623 -1.5130000114440918,2.1679999828338623 -1.5130000114440918,2.1679999828338623z"></path></g><g opacity="1" transform="matrix(1,0,0,1,23.509000778198242,18.079999923706055)"><path fill="rgb(77,67,95)" fill-opacity="1" d=" M19.53700065612793,-1.0429999828338623 C19.53700065612793,-1.0429999828338623 -19.53700065612793,-1.0429999828338623 -19.53700065612793,-1.0429999828338623 C-19.53700065612793,-1.0429999828338623 -19.53700065612793,1.0429999828338623 -19.53700065612793,1.0429999828338623 C-19.53700065612793,1.0429999828338623 19.53700065612793,1.0429999828338623 19.53700065612793,1.0429999828338623 C19.53700065612793,1.0429999828338623 19.53700065612793,-1.0429999828338623 19.53700065612793,-1.0429999828338623z"></path></g><g opacity="1" transform="matrix(1,0,0,1,9.418999671936035,19.124000549316406)"><path fill="rgb(77,67,95)" fill-opacity="1" d=" M2.0880000591278076,0 C2.0880000591278076,-1.152999997138977 1.152999997138977,-2.0880000591278076 0,-2.0880000591278076 C-1.152999997138977,-2.0880000591278076 -2.0880000591278076,-1.152999997138977 -2.0880000591278076,0 C-2.0880000591278076,1.152999997138977 -1.152999997138977,2.0880000591278076 0,2.0880000591278076 C1.152999997138977,2.0880000591278076 2.0880000591278076,1.152999997138977 2.0880000591278076,0z"></path></g><g opacity="1" transform="matrix(1,0,0,1,14.093999862670898,19.124000549316406)"><path fill="rgb(77,67,95)" fill-opacity="1" d=" M2.0880000591278076,0 C2.0880000591278076,-1.152999997138977 1.152999997138977,-2.0880000591278076 0,-2.0880000591278076 C-1.152999997138977,-2.0880000591278076 -2.0880000591278076,-1.152999997138977 -2.0880000591278076,0 C-2.0880000591278076,1.152999997138977 -1.152999997138977,2.0880000591278076 0,2.0880000591278076 C1.152999997138977,2.0880000591278076 2.0880000591278076,1.152999997138977 2.0880000591278076,0z"></path></g><g opacity="1" transform="matrix(1,0,0,1,32.92399978637695,19.124000549316406)"><path fill="rgb(77,67,95)" fill-opacity="1" d=" M2.0880000591278076,0 C2.0880000591278076,-1.152999997138977 1.152999997138977,-2.0880000591278076 0,-2.0880000591278076 C-1.152999997138977,-2.0880000591278076 -2.0880000591278076,-1.152999997138977 -2.0880000591278076,0 C-2.0880000591278076,1.152999997138977 -1.152999997138977,2.0880000591278076 0,2.0880000591278076 C1.152999997138977,2.0880000591278076 2.0880000591278076,1.152999997138977 2.0880000591278076,0z"></path></g><g opacity="1" transform="matrix(1,0,0,1,37.5989990234375,19.124000549316406)"><path fill="rgb(77,67,95)" fill-opacity="1" d=" M2.0880000591278076,0 C2.0880000591278076,-1.152999997138977 1.152999997138977,-2.0880000591278076 0,-2.0880000591278076 C-1.152999997138977,-2.0880000591278076 -2.0880000591278076,-1.152999997138977 -2.0880000591278076,0 C-2.0880000591278076,1.152999997138977 -1.152999997138977,2.0880000591278076 0,2.0880000591278076 C1.152999997138977,2.0880000591278076 2.0880000591278076,1.152999997138977 2.0880000591278076,0z"></path></g><g opacity="1" transform="matrix(1,0,0,1,23.509000778198242,7.9710001945495605)"><path fill="rgb(239,82,34)" fill-opacity="1" d=" M20.58799934387207,6.033999919891357 C20.58799934387207,6.033999919891357 -20.58799934387207,6.033999919891357 -20.58799934387207,6.033999919891357 C-20.58799934387207,6.033999919891357 -20.58799934387207,-6.033999919891357 -20.58799934387207,-6.033999919891357 C-20.58799934387207,-6.033999919891357 20.58799934387207,-6.033999919891357 20.58799934387207,-6.033999919891357 C20.58799934387207,-6.033999919891357 20.58799934387207,6.033999919891357 20.58799934387207,6.033999919891357z"></path></g><g opacity="1" transform="matrix(1,0,0,1,23.509000778198242,15.520000457763672)"><path fill="rgb(239,82,34)" fill-opacity="1" d=" M22.59000015258789,1.5160000324249268 C22.59000015258789,1.5160000324249268 -22.59000015258789,1.5160000324249268 -22.59000015258789,1.5160000324249268 C-22.59000015258789,1.5160000324249268 -22.59000015258789,0.5130000114440918 -22.59000015258789,0.5130000114440918 C-22.59000015258789,-0.6079999804496765 -21.680999755859375,-1.5160000324249268 -20.559999465942383,-1.5160000324249268 C-20.559999465942383,-1.5160000324249268 20.559999465942383,-1.5160000324249268 20.559999465942383,-1.5160000324249268 C21.680999755859375,-1.5160000324249268 22.59000015258789,-0.6079999804496765 22.59000015258789,0.5130000114440918 C22.59000015258789,0.5130000114440918 22.59000015258789,1.5160000324249268 22.59000015258789,1.5160000324249268z"></path></g><g opacity="1" transform="matrix(1,0,0,1,7.839000225067139,6.790999889373779)"><path fill="rgb(95,49,29)" fill-opacity="1" d=" M2.9170000553131104,2.875 C2.9170000553131104,2.875 -2.9170000553131104,2.875 -2.9170000553131104,2.875 C-2.9170000553131104,2.875 -2.9170000553131104,-2.875 -2.9170000553131104,-2.875 C-2.9170000553131104,-2.875 2.9170000553131104,-2.875 2.9170000553131104,-2.875 C2.9170000553131104,-2.875 2.9170000553131104,2.875 2.9170000553131104,2.875z"></path></g><g opacity="1" transform="matrix(1,0,0,1,15.673999786376953,6.790999889373779)"><path fill="rgb(95,49,29)" fill-opacity="1" d=" M2.9170000553131104,2.875 C2.9170000553131104,2.875 -2.9170000553131104,2.875 -2.9170000553131104,2.875 C-2.9170000553131104,2.875 -2.9170000553131104,-2.875 -2.9170000553131104,-2.875 C-2.9170000553131104,-2.875 2.9170000553131104,-2.875 2.9170000553131104,-2.875 C2.9170000553131104,-2.875 2.9170000553131104,2.875 2.9170000553131104,2.875z"></path></g><g opacity="1" transform="matrix(1,0,0,1,23.509000778198242,10.475000381469727)"><path fill="rgb(95,49,29)" fill-opacity="1" d=" M2.9170000553131104,6.559999942779541 C2.9170000553131104,6.559999942779541 -2.9170000553131104,6.559999942779541 -2.9170000553131104,6.559999942779541 C-2.9170000553131104,6.559999942779541 -2.9170000553131104,-6.559999942779541 -2.9170000553131104,-6.559999942779541 C-2.9170000553131104,-6.559999942779541 2.9170000553131104,-6.559999942779541 2.9170000553131104,-6.559999942779541 C2.9170000553131104,-6.559999942779541 2.9170000553131104,6.559999942779541 2.9170000553131104,6.559999942779541z"></path></g><g opacity="1" transform="matrix(1,0,0,1,31.3439998626709,6.790999889373779)"><path fill="rgb(95,49,29)" fill-opacity="1" d=" M2.9170000553131104,2.875 C2.9170000553131104,2.875 -2.9170000553131104,2.875 -2.9170000553131104,2.875 C-2.9170000553131104,2.875 -2.9170000553131104,-2.875 -2.9170000553131104,-2.875 C-2.9170000553131104,-2.875 2.9170000553131104,-2.875 2.9170000553131104,-2.875 C2.9170000553131104,-2.875 2.9170000553131104,2.875 2.9170000553131104,2.875z"></path></g><g opacity="1" transform="matrix(1,0,0,1,39.17900085449219,6.790999889373779)"><path fill="rgb(95,49,29)" fill-opacity="1" d=" M2.9170000553131104,2.875 C2.9170000553131104,2.875 -2.9170000553131104,2.875 -2.9170000553131104,2.875 C-2.9170000553131104,2.875 -2.9170000553131104,-2.875 -2.9170000553131104,-2.875 C-2.9170000553131104,-2.875 2.9170000553131104,-2.875 2.9170000553131104,-2.875 C2.9170000553131104,-2.875 2.9170000553131104,2.875 2.9170000553131104,2.875z"></path></g><g opacity="1" transform="matrix(1,0,0,1,23.509000778198242,2.9260001182556152)"><path fill="rgb(250,175,58)" fill-opacity="1" d=" M20.58799934387207,0.9900000095367432 C20.58799934387207,0.9900000095367432 -20.58799934387207,0.9900000095367432 -20.58799934387207,0.9900000095367432 C-20.58799934387207,0.9900000095367432 -20.58799934387207,-0.9900000095367432 -20.58799934387207,-0.9900000095367432 C-20.58799934387207,-0.9900000095367432 20.58799934387207,-0.9900000095367432 20.58799934387207,-0.9900000095367432 C20.58799934387207,-0.9900000095367432 20.58799934387207,0.9900000095367432 20.58799934387207,0.9900000095367432z"></path></g><g opacity="1" transform="matrix(1,0,0,1,23.509000778198242,1.093000054359436)"><path fill="rgb(255,222,177)" fill-opacity="1" d=" M-20.58799934387207,0.8429999947547913 C-20.58799934387207,-0.08500000089406967 -19.82900047302246,-0.8429999947547913 -18.900999069213867,-0.8429999947547913 C-18.900999069213867,-0.8429999947547913 18.900999069213867,-0.8429999947547913 18.900999069213867,-0.8429999947547913 C19.82900047302246,-0.8429999947547913 20.58799934387207,-0.08500000089406967 20.58799934387207,0.8429999947547913 C20.58799934387207,0.8429999947547913 -20.58799934387207,0.8429999947547913 -20.58799934387207,0.8429999947547913z"></path></g><g opacity="1" transform="matrix(1,0,0,1,23.509000778198242,18.58099937438965)"><path fill="rgb(250,175,58)" fill-opacity="1" d=" M-20.58799934387207,-1.5440000295639038 C-20.58799934387207,-1.5440000295639038 -20.58799934387207,1.5440000295639038 -20.58799934387207,1.5440000295639038 C-20.58799934387207,1.5440000295639038 -17.091999053955078,1.5440000295639038 -17.091999053955078,1.5440000295639038 C-17.091999053955078,0.6159999966621399 -16.33300018310547,-0.14399999380111694 -15.404999732971191,-0.14399999380111694 C-15.404999732971191,-0.14399999380111694 -8.100000381469727,-0.14399999380111694 -8.100000381469727,-0.14399999380111694 C-7.171000003814697,-0.14399999380111694 -6.4120001792907715,0.6159999966621399 -6.4120001792907715,1.5440000295639038 C-6.4120001792907715,1.5440000295639038 6.4120001792907715,1.5440000295639038 6.4120001792907715,1.5440000295639038 C6.4120001792907715,0.6159999966621399 7.171999931335449,-0.14399999380111694 8.100000381469727,-0.14399999380111694 C8.100000381469727,-0.14399999380111694 15.404999732971191,-0.14399999380111694 15.404999732971191,-0.14399999380111694 C16.33300018310547,-0.14399999380111694 17.093000411987305,0.6159999966621399 17.093000411987305,1.5440000295639038 C17.093000411987305,1.5440000295639038 20.58799934387207,1.5440000295639038 20.58799934387207,1.5440000295639038 C20.58799934387207,1.5440000295639038 20.58799934387207,-1.5440000295639038 20.58799934387207,-1.5440000295639038 C20.58799934387207,-1.5440000295639038 -20.58799934387207,-1.5440000295639038 -20.58799934387207,-1.5440000295639038z"></path></g><g opacity="1" transform="matrix(1,0,0,1,11.755999565124512,11.536999702453613)"><path fill="rgb(250,175,58)" fill-opacity="1" d=" M6.01200008392334,0.8220000267028809 C6.01200008392334,0.8220000267028809 -6.01200008392334,0.8220000267028809 -6.01200008392334,0.8220000267028809 C-6.465000152587891,0.8220000267028809 -6.835000038146973,0.4519999921321869 -6.835000038146973,-0.0010000000474974513 C-6.835000038146973,-0.453000009059906 -6.465000152587891,-0.8220000267028809 -6.01200008392334,-0.8220000267028809 C-6.01200008392334,-0.8220000267028809 6.01200008392334,-0.8220000267028809 6.01200008392334,-0.8220000267028809 C6.464000225067139,-0.8220000267028809 6.835000038146973,-0.453000009059906 6.835000038146973,-0.0010000000474974513 C6.835000038146973,0.4519999921321869 6.464000225067139,0.8220000267028809 6.01200008392334,0.8220000267028809z"></path></g><g opacity="1" transform="matrix(1,0,0,1,35.26100158691406,11.536999702453613)"><path fill="rgb(250,175,58)" fill-opacity="1" d=" M-6.011000156402588,0.8220000267028809 C-6.011000156402588,0.8220000267028809 6.01200008392334,0.8220000267028809 6.01200008392334,0.8220000267028809 C6.465000152587891,0.8220000267028809 6.835000038146973,0.4519999921321869 6.835000038146973,-0.0010000000474974513 C6.835000038146973,-0.453000009059906 6.465000152587891,-0.8220000267028809 6.01200008392334,-0.8220000267028809 C6.01200008392334,-0.8220000267028809 -6.011000156402588,-0.8220000267028809 -6.011000156402588,-0.8220000267028809 C-6.4629998207092285,-0.8220000267028809 -6.835000038146973,-0.453000009059906 -6.835000038146973,-0.0010000000474974513 C-6.835000038146973,0.4519999921321869 -6.4629998207092285,0.8220000267028809 -6.011000156402588,0.8220000267028809z"></path></g></g></g></svg>