<svg xmlns="http://www.w3.org/2000/svg" viewBox="0 0 63 82" width="63" height="82" preserveAspectRatio="xMidYMid meet" style="width: 100%; height: 100%; transform: translate3d(0px, 0px, 0px); content-visibility: visible;"><defs><clipPath id="__lottie_element_2602"><rect width="63" height="82" x="0" y="0"></rect></clipPath></defs><g clip-path="url(#__lottie_element_2602)"><g transform="matrix(1,0,0,1,3.855998992919922,1.345001220703125)" opacity="1" style="display: block;"><g opacity="1" transform="matrix(1,0,0,1,27.41900062561035,38.393001556396484)"><path fill="rgb(175,154,166)" fill-opacity="1" d=" M24.360000610351562,38.143001556396484 C24.360000610351562,38.143001556396484 24.360000610351562,-13.782999992370605 24.360000610351562,-13.782999992370605 C24.360000610351562,-27.180999755859375 13.39799976348877,-38.143001556396484 0,-38.143001556396484 C-13.39799976348877,-38.143001556396484 -24.360000610351562,-27.180999755859375 -24.360000610351562,-13.782999992370605 C-24.360000610351562,-13.782999992370605 -24.360000610351562,38.143001556396484 -24.360000610351562,38.143001556396484 C-24.360000610351562,38.143001556396484 24.360000610351562,38.143001556396484 24.360000610351562,38.143001556396484z"></path></g><g opacity="1" transform="matrix(1,0,0,1,0,0)"><path stroke-linecap="round" stroke-linejoin="round" fill-opacity="0" stroke="rgb(195,195,194)" stroke-opacity="1" stroke-width="5" d=" M17.22100067138672,29.33099937438965 C17.22100067138672,29.33099937438965 37.61800003051758,29.33099937438965 37.61800003051758,29.33099937438965"></path></g><g opacity="1" transform="matrix(1,0,0,1,0,0)"><path stroke-linecap="round" stroke-linejoin="round" fill-opacity="0" stroke="rgb(195,195,194)" stroke-opacity="1" stroke-width="5" d=" M12.5,42.900001525878906 C12.5,42.900001525878906 42.3380012512207,42.900001525878906 42.3380012512207,42.900001525878906"></path></g></g></g></svg>