<svg xmlns="http://www.w3.org/2000/svg" viewBox="0 0 17 45" width="17" height="45" preserveAspectRatio="xMidYMid meet" style="width: 100%; height: 100%; transform: translate3d(0px, 0px, 0px); content-visibility: visible;"><defs><clipPath id="__lottie_element_2251"><rect width="17" height="45" x="0" y="0"></rect></clipPath></defs><g clip-path="url(#__lottie_element_2251)"><g transform="matrix(0.15389767289161682,0,0,0.15369945764541626,9.435230255126953,4.282313346862793)" opacity="0.23603041484507103" style="display: none;"><g opacity="1" transform="matrix(0.7071067690849304,0.7071067690849304,-0.7071067690849304,0.7071067690849304,0,0)"><path fill="rgb(185,54,27)" fill-opacity="1" d=" M13.234999656677246,-5.26200008392334 C16.320999145507812,10.369000434875488 17.141000747680664,12.991000175476074 14.925999641418457,15.074000358581543 C12.772000312805176,17.099000930786133 9.807999610900879,16.118000030517578 -5.261000156402588,13.234999656677246 C-7.544000148773193,12.79800033569336 -9.51200008392334,10.890000343322754 -10.26099967956543,8.234999656677246 C-11.010000228881836,5.579999923706055 -17.5,-12.5 -17.5,-12.5 C-18.981000900268555,-16.92099952697754 -16.566999435424805,-18.969999313354492 -12.5,-17.5 C-12.5,-17.5 5.738999843597412,-11.053999900817871 8.234999656677246,-10.26099967956543 C10.730999946594238,-9.468000411987305 12.685999870300293,-8.041000366210938 13.234999656677246,-5.26200008392334z"></path></g></g><g transform="matrix(0.2752593755722046,0,0,0.26435282826423645,7.16496467590332,22.969898223876953)" opacity="0.8003411714799986" style="display: block;"><g opacity="1" transform="matrix(0.7071067690849304,0.7071067690849304,-0.7071067690849304,0.7071067690849304,0,0)"><path fill="rgb(195,62,27)" fill-opacity="1" d=" M13.234999656677246,-5.26200008392334 C16.320999145507812,10.369000434875488 17.141000747680664,12.991000175476074 14.925999641418457,15.074000358581543 C12.772000312805176,17.099000930786133 9.807999610900879,16.118000030517578 -5.261000156402588,13.234999656677246 C-7.544000148773193,12.79800033569336 -9.51200008392334,10.890000343322754 -10.26099967956543,8.234999656677246 C-11.010000228881836,5.579999923706055 -17.5,-12.5 -17.5,-12.5 C-18.981000900268555,-16.92099952697754 -16.566999435424805,-18.969999313354492 -12.5,-17.5 C-12.5,-17.5 5.738999843597412,-11.053999900817871 8.234999656677246,-10.26099967956543 C10.730999946594238,-9.468000411987305 12.685999870300293,-8.041000366210938 13.234999656677246,-5.26200008392334z"></path></g></g><g transform="matrix(0.4066406190395355,0,0,0.38414156436920166,10.548552513122559,32.13869857788086)" opacity="0.9761186749995908" style="display: block;"><g opacity="1" transform="matrix(0.7071067690849304,0.7071067690849304,-0.7071067690849304,0.7071067690849304,0,0)"><path fill="rgb(215,80,29)" fill-opacity="1" d=" M13.234999656677246,-5.26200008392334 C16.320999145507812,10.369000434875488 17.141000747680664,12.991000175476074 14.925999641418457,15.074000358581543 C12.772000312805176,17.099000930786133 9.807999610900879,16.118000030517578 -5.261000156402588,13.234999656677246 C-7.544000148773193,12.79800033569336 -9.51200008392334,10.890000343322754 -10.26099967956543,8.234999656677246 C-11.010000228881836,5.579999923706055 -17.5,-12.5 -17.5,-12.5 C-18.981000900268555,-16.92099952697754 -16.566999435424805,-18.969999313354492 -12.5,-17.5 C-12.5,-17.5 5.738999843597412,-11.053999900817871 8.234999656677246,-10.26099967956543 C10.730999946594238,-9.468000411987305 12.685999870300293,-8.041000366210938 13.234999656677246,-5.26200008392334z"></path></g></g><g transform="matrix(0.44295600056648254,0,0,0.41725265979766846,6.36110782623291,35.53084182739258)" opacity="1" style="display: block;"><g opacity="1" transform="matrix(0.7071067690849304,0.7071067690849304,-0.7071067690849304,0.7071067690849304,0,0)"><path fill="rgb(232,95,30)" fill-opacity="1" d=" M13.234999656677246,-5.26200008392334 C16.320999145507812,10.369000434875488 17.141000747680664,12.991000175476074 14.925999641418457,15.074000358581543 C12.772000312805176,17.099000930786133 9.807999610900879,16.118000030517578 -5.261000156402588,13.234999656677246 C-7.544000148773193,12.79800033569336 -9.51200008392334,10.890000343322754 -10.26099967956543,8.234999656677246 C-11.010000228881836,5.579999923706055 -17.5,-12.5 -17.5,-12.5 C-18.981000900268555,-16.92099952697754 -16.566999435424805,-18.969999313354492 -12.5,-17.5 C-12.5,-17.5 5.738999843597412,-11.053999900817871 8.234999656677246,-10.26099967956543 C10.730999946594238,-9.468000411987305 12.685999870300293,-8.041000366210938 13.234999656677246,-5.26200008392334z"></path></g></g><g transform="matrix(0.4393959045410156,0,0,0.41414517164230347,10.605956077575684,35.79563522338867)" opacity="1" style="display: block;"><g opacity="1" transform="matrix(0.7071067690849304,0.7071067690849304,-0.7071067690849304,0.7071067690849304,0,0)"><path fill="rgb(236,104,34)" fill-opacity="1" d=" M13.234999656677246,-5.26200008392334 C16.320999145507812,10.369000434875488 17.141000747680664,12.991000175476074 14.925999641418457,15.074000358581543 C12.772000312805176,17.099000930786133 9.807999610900879,16.118000030517578 -5.261000156402588,13.234999656677246 C-7.544000148773193,12.79800033569336 -9.51200008392334,10.890000343322754 -10.26099967956543,8.234999656677246 C-11.010000228881836,5.579999923706055 -17.5,-12.5 -17.5,-12.5 C-18.981000900268555,-16.92099952697754 -16.566999435424805,-18.969999313354492 -12.5,-17.5 C-12.5,-17.5 5.738999843597412,-11.053999900817871 8.234999656677246,-10.26099967956543 C10.730999946594238,-9.468000411987305 12.685999870300293,-8.041000366210938 13.234999656677246,-5.26200008392334z"></path></g></g><g transform="matrix(0.37398162484169006,0,0,0.3552758991718292,7.207820892333984,35.442176818847656)" opacity="1" style="display: block;"><g opacity="1" transform="matrix(0.7071067690849304,0.7071067690849304,-0.7071067690849304,0.7071067690849304,0,0)"><path fill="rgb(245,149,53)" fill-opacity="1" d=" M13.234999656677246,-5.26200008392334 C16.320999145507812,10.369000434875488 17.141000747680664,12.991000175476074 14.925999641418457,15.074000358581543 C12.772000312805176,17.099000930786133 9.807999610900879,16.118000030517578 -5.261000156402588,13.234999656677246 C-7.544000148773193,12.79800033569336 -9.51200008392334,10.890000343322754 -10.26099967956543,8.234999656677246 C-11.010000228881836,5.579999923706055 -17.5,-12.5 -17.5,-12.5 C-18.981000900268555,-16.92099952697754 -16.566999435424805,-18.969999313354492 -12.5,-17.5 C-12.5,-17.5 5.738999843597412,-11.053999900817871 8.234999656677246,-10.26099967956543 C10.730999946594238,-9.468000411987305 12.685999870300293,-8.041000366210938 13.234999656677246,-5.26200008392334z"></path></g></g><g transform="matrix(0.2129594385623932,0,0,0.20700091123580933,8.313759803771973,38.49708557128906)" opacity="1" style="display: block;"><g opacity="1" transform="matrix(0.7071067690849304,0.7071067690849304,-0.7071067690849304,0.7071067690849304,0,0)"><path fill="rgb(253,192,72)" fill-opacity="1" d=" M13.234999656677246,-5.26200008392334 C16.320999145507812,10.369000434875488 17.141000747680664,12.991000175476074 14.925999641418457,15.074000358581543 C12.772000312805176,17.099000930786133 9.807999610900879,16.118000030517578 -5.261000156402588,13.234999656677246 C-7.544000148773193,12.79800033569336 -9.51200008392334,10.890000343322754 -10.26099967956543,8.234999656677246 C-11.010000228881836,5.579999923706055 -17.5,-12.5 -17.5,-12.5 C-18.981000900268555,-16.92099952697754 -16.566999435424805,-18.969999313354492 -12.5,-17.5 C-12.5,-17.5 5.738999843597412,-11.053999900817871 8.234999656677246,-10.26099967956543 C10.730999946594238,-9.468000411987305 12.685999870300293,-8.041000366210938 13.234999656677246,-5.26200008392334z"></path></g></g></g></svg>