<svg xmlns="http://www.w3.org/2000/svg" viewBox="0 0 68 79" width="68" height="79" preserveAspectRatio="xMidYMid meet" style="width: 100%; height: 100%; transform: translate3d(0px, 0px, 0px); content-visibility: visible;"><defs><clipPath id="__lottie_element_2597"><rect width="68" height="79" x="0" y="0"></rect></clipPath></defs><g clip-path="url(#__lottie_element_2597)"><g transform="matrix(1,0,0,1,6.253999710083008,1.1870040893554688)" opacity="1" style="display: block;"><g opacity="1" transform="matrix(1,0,0,1,27.70599937438965,37.823001861572266)"><path fill="rgb(255,238,207)" fill-opacity="1" d=" M27.457000732421875,-11.135000228881836 C27.457000732421875,-14.406000137329102 24.80500030517578,-17.055999755859375 21.53499984741211,-17.055999755859375 C18.8439998626709,-17.055999755859375 16.663999557495117,-15.22599983215332 15.942999839782715,-12.769000053405762 C15.942999839782715,-12.769000053405762 5.921000003814697,-12.769000053405762 5.921000003814697,-12.769000053405762 C5.921000003814697,-12.769000053405762 5.921000003814697,-26.06100082397461 5.921000003814697,-26.06100082397461 C8.378000259399414,-26.7810001373291 10.208000183105469,-28.961999893188477 10.208000183105469,-31.652999877929688 C10.208000183105469,-34.92300033569336 7.558000087738037,-37.573001861572266 4.2870001792907715,-37.573001861572266 C2.5869998931884766,-37.573001861572266 1.0800000429153442,-36.83700180053711 0,-35.68899917602539 C-1.0800000429153442,-36.83700180053711 -2.5880000591278076,-37.573001861572266 -4.288000106811523,-37.573001861572266 C-7.558000087738037,-37.573001861572266 -10.208000183105469,-34.92300033569336 -10.208000183105469,-31.652999877929688 C-10.208000183105469,-28.961999893188477 -8.378999710083008,-26.7810001373291 -5.921000003814697,-26.06100082397461 C-5.921000003814697,-26.06100082397461 -5.921000003814697,-12.769000053405762 -5.921000003814697,-12.769000053405762 C-5.921000003814697,-12.769000053405762 -15.944000244140625,-12.769000053405762 -15.944000244140625,-12.769000053405762 C-16.665000915527344,-15.22599983215332 -18.844999313354492,-17.055999755859375 -21.535999298095703,-17.055999755859375 C-24.805999755859375,-17.055999755859375 -27.457000732421875,-14.406000137329102 -27.457000732421875,-11.135000228881836 C-27.457000732421875,-9.4350004196167 -26.72100067138672,-7.927000045776367 -25.572999954223633,-6.8480000495910645 C-26.72100067138672,-5.76800012588501 -27.457000732421875,-4.260000228881836 -27.457000732421875,-2.559999942779541 C-27.457000732421875,0.7099999785423279 -24.805999755859375,3.3610000610351562 -21.535999298095703,3.3610000610351562 C-18.844999313354492,3.3610000610351562 -16.665000915527344,1.531000018119812 -15.944000244140625,-0.9269999861717224 C-15.944000244140625,-0.9269999861717224 -5.921000003814697,-0.9269999861717224 -5.921000003814697,-0.9269999861717224 C-5.921000003814697,-0.9269999861717224 -5.921000003814697,31.98200035095215 -5.921000003814697,31.98200035095215 C-8.378999710083008,32.70199966430664 -10.208000183105469,34.882999420166016 -10.208000183105469,37.573001861572266 C-10.208000183105469,37.573001861572266 10.208000183105469,37.573001861572266 10.208000183105469,37.573001861572266 C10.208000183105469,34.882999420166016 8.378000259399414,32.70199966430664 5.921000003814697,31.98200035095215 C5.921000003814697,31.98200035095215 5.921000003814697,-0.9269999861717224 5.921000003814697,-0.9269999861717224 C5.921000003814697,-0.9269999861717224 15.942999839782715,-0.9269999861717224 15.942999839782715,-0.9269999861717224 C16.663999557495117,1.531000018119812 18.8439998626709,3.3610000610351562 21.53499984741211,3.3610000610351562 C24.80500030517578,3.3610000610351562 27.457000732421875,0.7099999785423279 27.457000732421875,-2.559999942779541 C27.457000732421875,-4.260000228881836 26.719999313354492,-5.76800012588501 25.572999954223633,-6.8480000495910645 C26.719999313354492,-7.927000045776367 27.457000732421875,-9.4350004196167 27.457000732421875,-11.135000228881836z"></path></g></g></g></svg>