<svg xmlns="http://www.w3.org/2000/svg" viewBox="0 0 104 95" width="104" height="95" preserveAspectRatio="xMidYMid meet" style="width: 100%; height: 100%; transform: translate3d(0px, 0px, 0px); content-visibility: visible;"><defs><clipPath id="__lottie_element_4996"><rect width="104" height="95" x="0" y="0"></rect></clipPath></defs><g clip-path="url(#__lottie_element_4996)"><g transform="matrix(0.3262708783149719,-0.2370496690273285,0.2370496690273285,0.3262708783149719,-18.28824806213379,51.28225326538086)" opacity="1" style="display: block;"><g opacity="1" transform="matrix(1,0,0,1,167.7169952392578,166.3090057373047)"><path fill="rgb(0,129,66)" fill-opacity="1" d=" M19.979999542236328,30.85300064086914 C8.772000312805176,25.91699981689453 26.908000946044922,20.125999450683594 28.920000076293945,5.263000011444092 C29.64900016784668,-0.12600000202655792 27.41900062561035,-7.7769999504089355 24.854999542236328,-15.10200023651123 C17.617000579833984,-35.766998291015625 14.642000198364258,-44.090999603271484 1.9880000352859497,-48.36199951171875 C-8.656000137329102,-51.95500183105469 -43.750999450683594,-39.2130012512207 -28.368000030517578,-10.852999687194824 C-23.051000595092773,-1.0490000247955322 -11.604000091552734,4.495999813079834 -11.529000282287598,7.297999858856201 C-11.454999923706055,10.10099983215332 -12.741000175476074,12.85099983215332 -15.36299991607666,16.621000289916992 C-21.08799934387207,27.285999298095703 -22.46299934387207,31.753000259399414 -23.695999145507812,38.62200164794922 C-25.22599983215332,47.145999908447266 -21.976999282836914,49.8120002746582 -18.216999053955078,49.933998107910156 C-18.216999053955078,49.933998107910156 33.470001220703125,51.61899948120117 33.470001220703125,51.61899948120117 C43.750999450683594,51.95399856567383 39.3489990234375,39.38100051879883 19.979999542236328,30.85300064086914z"></path></g></g><g transform="matrix(0.40108370780944824,-0.04215559735894203,0.04215559735894203,0.40108370780944824,-3.449307918548584,10.163959503173828)" opacity="1" style="display: block;"><g opacity="1" transform="matrix(1,0,0,1,125.14199829101562,132.2740020751953)"><path fill="rgb(26,148,78)" fill-opacity="1" d=" M-9.159000396728516,-41.77299880981445 C-43.54199981689453,-34.856998443603516 -67.31800079345703,-8.861000061035156 -62.25699996948242,16.288000106811523 C-57.20199966430664,41.441001892089844 -26.742000579833984,48.68199920654297 7.640999794006348,41.76100158691406 C42.02399826049805,34.85200119018555 67.31800079345703,16.399999618530273 62.257999420166016,-8.74899959564209 C57.202999114990234,-33.902000427246094 25.229999542236328,-48.68199920654297 -9.159000396728516,-41.77299880981445z"></path></g><g opacity="1" transform="matrix(1,0,0,1,135.343994140625,150.1959991455078)"><path fill="rgb(0,108,54)" fill-opacity="1" d=" M-28.680999755859375,-22.809999465942383 C-18.90999984741211,-21.01799964904785 -9.83899974822998,-15.630000114440918 -3.5889999866485596,-7.908999919891357 C-1.3109999895095825,-13.402999877929688 13.552000045776367,-29.326000213623047 23.179000854492188,-35.72200012207031 C23.179000854492188,-35.72200012207031 45.441001892089844,-15.880000114440918 45.441001892089844,-15.880000114440918 C45.441001892089844,-15.880000114440918 4.73199987411499,17.448999404907227 4.73199987411499,17.448999404907227 C4.73199987411499,17.448999404907227 -20.197999954223633,22.809999465942383 -20.197999954223633,22.809999465942383 C-20.197999954223633,22.809999465942383 -28.680999755859375,-22.809999465942383 -28.680999755859375,-22.809999465942383z"></path></g><g opacity="1" transform="matrix(1,0,0,1,147.27699279785156,135.19000244140625)"><path fill="rgb(240,183,128)" fill-opacity="1" d=" M40.125999450683594,-11.664999961853027 C37.347999572753906,-25.469999313354492 26.437999725341797,-36.117000579833984 11.50100040435791,-41.797000885009766 C12.098999977111816,-40.45399856567383 12.730999946594238,-39.12099838256836 13.23799991607666,-37.7140007019043 C25.582000732421875,-3.684999942779541 2.0969998836517334,24.492000579833984 -34.64500045776367,37.819000244140625 C-38.176998138427734,39.10100173950195 -41.6879997253418,40.137001037597656 -45.18000030517578,41.04499816894531 C-35.790000915527344,41.797000885009766 -25.34000015258789,41.0260009765625 -14.491999626159668,38.845001220703125 C19.891000747680664,31.93600082397461 45.180999755859375,13.48799991607666 40.125999450683594,-11.664999961853027z"></path></g></g><g transform="matrix(0.3895511329174042,-0.10437991470098495,0.10437991470098495,0.3895511329174042,-8.60584545135498,21.28856658935547)" opacity="1" style="display: block;"><g opacity="1" transform="matrix(1,0,0,1,176.04800415039062,29.72800064086914)"><path fill="rgb(26,148,78)" fill-opacity="1" d=" M-0.3630000054836273,-14.355999946594238 C-18.773000717163086,-12.697999954223633 -34.10100173950195,-6.515999794006348 -34.45899963378906,4.489999771118164 C-34.819000244140625,15.506999969482422 -12.364999771118164,16.895000457763672 10.204000473022461,16.33099937438965 C18.429000854492188,16.124000549316406 25.361000061035156,15.442000389099121 31.347999572753906,13.340999603271484 C31.70199966430664,13.217000007629395 31.990999221801758,9.956000328063965 31.990999221801758,9.956000328063965 C31.990999221801758,9.956000328063965 33.45600128173828,9.527000427246094 33.45600128173828,9.527000427246094 C34.375,5.771999835968018 34.819000244140625,1.0520000457763672 34.24399948120117,-4.439000129699707 C33.21900177001953,-14.251999855041504 27.823999404907227,-16.895000457763672 -0.3630000054836273,-14.355999946594238z"></path></g><g opacity="1" transform="matrix(1,0,0,1,178.66400146484375,50.79100036621094)"><path fill="rgb(26,148,78)" fill-opacity="1" d=" M-27.29800033569336,-8.166000366210938 C-28.31800079345703,-8.15999984741211 -29.007999420166016,-7.127999782562256 -28.635000228881836,-6.178999900817871 C-25.034000396728516,2.9820001125335693 -10.050000190734863,8.475000381469727 5.982999801635742,4.554999828338623 C15.473999977111816,2.234999895095825 22.097000122070312,-0.36399999260902405 26.599000930786133,-3.2119998931884766 C29.006999969482422,-4.735000133514404 27.871000289916992,-8.47599983215332 25.02199935913086,-8.458999633789062 C25.02199935913086,-8.458999633789062 -27.29800033569336,-8.166000366210938 -27.29800033569336,-8.166000366210938z"></path></g><g opacity="1" transform="matrix(1,0,0,1,188.38499450683594,42.95000076293945)"><path fill="rgb(0,129,66)" fill-opacity="1" d=" M19.01099967956543,0.11900000274181366 C19.364999771118164,-0.004999999888241291 19.652999877929688,-3.2669999599456787 19.652999877929688,-3.2669999599456787 C1.0290000438690186,0.03200000151991844 -19.652999877929688,-0.9610000252723694 -19.652999877929688,-0.9610000252723694 C-19.652999877929688,-0.9610000252723694 -19.31100082397461,3.015000104904175 -19.31100082397461,3.015000104904175 C-13.857999801635742,3.2669999599456787 -8.001999855041504,3.255000114440918 -2.134999990463257,3.1080000400543213 C6.091000080108643,2.9019999504089355 13.02299976348877,2.2200000286102295 19.01099967956543,0.11900000274181366z"></path></g><g opacity="1" transform="matrix(1,0,0,1,147.697998046875,84.27100372314453)"><path fill="rgb(26,148,78)" fill-opacity="1" d=" M25.472000122070312,-42.83000183105469 C29.797000885009766,-46.625 28.466999053955078,-51.59299850463867 28.722999572753906,-59.441001892089844 C29.048999786376953,-69.41699981689453 24.82200050354004,-77.99800109863281 18.726999282836914,-80.96399688720703 C17.93199920654297,-81.46700286865234 17.065000534057617,-81.83599853515625 16.10099983215332,-82.01200103759766 C5.079999923706055,-84.0199966430664 -1.3630000352859497,-75.7760009765625 -5.671000003814697,-63.597999572753906 C-6.7829999923706055,-60.45600128173828 -9.494000434875488,-58.2140007019043 -11.557999610900879,-55.597999572753906 C-18.009000778198242,-47.42399978637695 -18.437999725341797,-35.534000396728516 -9.86400032043457,-27.093000411987305 C-6.185999870300293,-23.47100067138672 -7.077000141143799,-12.15999984741211 -11.932000160217285,-4.984000205993652 C-16.086000442504883,1.156000018119812 -23.46500015258789,2.6989998817443848 -25.891000747680664,2.6459999084472656 C-45.37099838256836,2.2200000286102295 26.750999450683594,80.32499694824219 40.03300094604492,53.915000915527344 C38.19599914550781,13.66100025177002 33.608001708984375,-23.503999710083008 25.472000122070312,-42.83000183105469z"></path></g><g opacity="1" transform="matrix(0.20887616276741028,-0.051494356244802475,0.051494356244802475,0.20887616276741028,158.49000549316406,16.16900062561035)"><path fill="rgb(77,183,79)" fill-opacity="1" d=" M17,0 C17,0 17,0 17,0 C17,9.38230037689209 9.38230037689209,17 0,17 C0,17 0,17 0,17 C-9.38230037689209,17 -17,9.38230037689209 -17,0 C-17,0 -17,0 -17,0 C-17,-9.38230037689209 -9.38230037689209,-17 0,-17 C0,-17 0,-17 0,-17 C9.38230037689209,-17 17,-9.38230037689209 17,0z"></path></g><g opacity="1" transform="matrix(0.21277640759944916,-0.03173510730266571,0.03173510730266571,0.21277640759944916,168.8209991455078,14.102999687194824)"><path fill="rgb(77,183,79)" fill-opacity="1" d=" M17,0 C17,0 17,0 17,0 C17,9.38230037689209 9.38230037689209,17 0,17 C0,17 0,17 0,17 C-9.38230037689209,17 -17,9.38230037689209 -17,0 C-17,0 -17,0 -17,0 C-17,-9.38230037689209 -9.38230037689209,-17 0,-17 C0,-17 0,-17 0,-17 C9.38230037689209,-17 17,-9.38230037689209 17,0z"></path></g><g opacity="1" transform="matrix(1,0,0,1,174.79299926757812,45.61399841308594)"><path fill="rgb(245,244,235)" fill-opacity="1" d=" M-4.043000221252441,-3.2820000648498535 C-4.043000221252441,-3.2820000648498535 -0.11400000005960464,3.2820000648498535 -0.11400000005960464,3.2820000648498535 C-0.11400000005960464,3.2820000648498535 4.043000221252441,-3.122999906539917 4.043000221252441,-3.122999906539917 C1.4869999885559082,-3.118000030517578 -1.2630000114440918,-3.1689999103546143 -4.043000221252441,-3.2820000648498535z"></path></g><g opacity="1" transform="matrix(1,0,0,1,183.57200622558594,45.57500076293945)"><path fill="rgb(245,244,235)" fill-opacity="1" d=" M-3.5139999389648438,-3.0850000381469727 C-3.684999942779541,-3.0840001106262207 -3.865999937057495,-3.0869998931884766 -4.041999816894531,-3.0850000381469727 C-4.041999816894531,-3.0850000381469727 0.16500000655651093,3.2950000762939453 0.16500000655651093,3.2950000762939453 C0.16500000655651093,3.2950000762939453 4.041999816894531,-3.2950000762939453 4.041999816894531,-3.2950000762939453 C1.4190000295639038,-3.1760001182556152 -1.1540000438690186,-3.1040000915527344 -3.5139999389648438,-3.0850000381469727z"></path></g><g opacity="1" transform="matrix(1,0,0,1,192.3459930419922,45.029998779296875)"><path fill="rgb(245,244,235)" fill-opacity="1" d=" M-4.0269999504089355,-2.7869999408721924 C-4.0269999504089355,-2.7869999408721924 0.44200000166893005,3.378999948501587 0.44200000166893005,3.378999948501587 C0.44200000166893005,3.378999948501587 4.0269999504089355,-3.378999948501587 4.0269999504089355,-3.378999948501587 C1.4149999618530273,-3.119999885559082 -1.3200000524520874,-2.921999931335449 -4.0269999504089355,-2.7869999408721924z"></path></g><g opacity="1" transform="matrix(1,0,0,1,201.08099365234375,43.895999908447266)"><path fill="rgb(245,244,235)" fill-opacity="1" d=" M-3.989000082015991,-2.319000005722046 C-3.989000082015991,-2.319000005722046 0.9330000281333923,3.496000051498413 0.9330000281333923,3.496000051498413 C0.9330000281333923,3.496000051498413 3.989000082015991,-3.496000051498413 3.989000082015991,-3.496000051498413 C1.6990000009536743,-3.010999917984009 -1.0509999990463257,-2.627000093460083 -3.989000082015991,-2.319000005722046z"></path></g><g opacity="1" transform="matrix(1,0,0,1,187.2310028076172,23.075000762939453)"><path fill="rgb(0,129,66)" fill-opacity="1" d=" M-5.563000202178955,2.6549999713897705 C-3.1760001182556152,-4.695000171661377 5.563000202178955,-3.6470000743865967 4.764999866485596,4.695000171661377 C4.764999866485596,4.695000171661377 -5.563000202178955,2.6549999713897705 -5.563000202178955,2.6549999713897705z"></path></g><g opacity="1" transform="matrix(1,0,0,1,202.0449981689453,22.565000534057617)"><path fill="rgb(0,129,66)" fill-opacity="1" d=" M5.355000019073486,1.815000057220459 C2.49399995803833,-4.642000198364258 -5.354000091552734,-2.86899995803833 -3.8440001010894775,4.640999794006348 C-3.8440001010894775,4.640999794006348 5.355000019073486,1.815000057220459 5.355000019073486,1.815000057220459z"></path></g><g opacity="1" transform="matrix(1,0,0,1,157.2209930419922,37.87200164794922)"><path fill="rgb(0,129,66)" fill-opacity="1" d=" M0.3199999928474426,-9.805999755859375 C5.736000061035156,-9.628999710083008 9.982000350952148,-5.0960001945495605 9.805000305175781,0.3190000057220459 C9.628999710083008,5.735000133514404 5.09499979019165,9.982000350952148 -0.3199999928474426,9.805000305175781 C-5.736000061035156,9.628999710083008 -9.982000350952148,5.09499979019165 -9.805000305175781,-0.3199999928474426 C-9.628999710083008,-5.736000061035156 -5.0960001945495605,-9.982999801635742 0.3199999928474426,-9.805999755859375z"></path></g></g><g transform="matrix(0.4030473530292511,0.014074724167585373,-0.014074724167585373,0.4030473530292511,2.6593847274780273,5.615400791168213)" opacity="1" style="display: block;"><g opacity="1" transform="matrix(1,0,0,1,51.29899978637695,154.8040008544922)"><path fill="rgb(26,148,78)" fill-opacity="1" d=" M25.055999755859375,-43.902000427246094 C4.821000099182129,-24.759000778198242 3.322999954223633,4.576000213623047 -10.687999725341797,16.773000717163086 C-20,24.878999710083008 -35.457000732421875,26.47599983215332 -48.34700012207031,22.500999450683594 C-49.874000549316406,22.0310001373291 -51.04899978637695,23.812999725341797 -50.027000427246094,25.038000106811523 C-34.28499984741211,43.9010009765625 -7.076000213623047,38.224998474121094 3.562000036239624,32.334999084472656 C19.235000610351562,23.666000366210938 34.29800033569336,2.8269999027252197 51.04899978637695,-3.2899999618530273"></path></g></g><g transform="matrix(0.40329301357269287,0,0,0.40329301357269287,2.2187907695770264,6.192633628845215)" opacity="1" style="display: block;"><g opacity="1" transform="matrix(1,0,0,1,97.71800231933594,164.6479949951172)"><path fill="rgb(26,148,78)" fill-opacity="1" d=" M19.979999542236328,34.32899856567383 C8.770999908447266,29.393999099731445 31.138999938964844,20.441999435424805 33.334999084472656,7.88700008392334 C34.27199935913086,2.5290000438690186 33.46500015258789,-6.306000232696533 30.099000930786133,-13.447999954223633 C20.913000106811523,-32.939998626708984 13.640999794006348,-42.35100173950195 2.2790000438690186,-47.667999267578125 C-14.309000015258789,-55.430999755859375 -43.750999450683594,-35.73699951171875 -28.368999481201172,-7.375999927520752 C-23.051000595092773,2.427999973297119 -11.604000091552734,7.9730000495910645 -11.529000282287598,10.774999618530273 C-11.454999923706055,13.57800006866455 -12.741000175476074,16.327999114990234 -15.36299991607666,20.097999572753906 C-21.08799934387207,30.76300048828125 -22.46299934387207,35.229000091552734 -23.695999145507812,42.097999572753906 C-25.22599983215332,50.62200164794922 -21.976999282836914,53.28799819946289 -18.216999053955078,53.4109992980957 C-18.216999053955078,53.4109992980957 33.470001220703125,55.09600067138672 33.470001220703125,55.09600067138672 C43.750999450683594,55.430999755859375 39.3489990234375,42.858001708984375 19.979999542236328,34.32899856567383z"></path></g></g><g transform="matrix(0.3681667745113373,0.15627753734588623,-0.15627753734588623,0.3681667745113373,33.139625549316406,-20.893762588500977)" opacity="1" style="display: block;"><g opacity="1" transform="matrix(1,0,0,1,225.19200134277344,106.12000274658203)"><path fill="rgb(66,166,84)" fill-opacity="1" d=" M7.3979997634887695,1.9259999990463257 C9.321999549865723,-5.464000225067139 7.568999767303467,-12.317000389099121 3.4839999675750732,-13.380999565124512 C-0.6019999980926514,-14.444999694824219 -5.473999977111816,-9.315999984741211 -7.396999835968018,-1.9259999990463257 C-9.321999549865723,5.464000225067139 -7.568999767303467,12.317999839782715 -3.4839999675750732,13.380999565124512 C0.6019999980926514,14.444999694824219 5.473999977111816,9.317000389099121 7.3979997634887695,1.9259999990463257z"></path></g><g opacity="1" transform="matrix(1,0,0,1,121.88999938964844,103.90799713134766)"><path fill="rgb(66,166,84)" fill-opacity="1" d=" M7.453999996185303,-1.6990000009536743 C5.756999969482422,-9.144000053405762 1.0440000295639038,-14.418999671936035 -3.072000026702881,-13.479999542236328 C-7.188000202178955,-12.541999816894531 -9.149999618530273,-5.747000217437744 -7.452000141143799,1.6979999542236328 C-5.755000114440918,9.145000457763672 -1.0429999828338623,14.418999671936035 3.0739998817443848,13.482000350952148 C7.190000057220459,12.543000221252441 9.151000022888184,5.747000217437744 7.453999996185303,-1.6990000009536743z"></path></g><g opacity="1" transform="matrix(1,0,0,1,173.8780059814453,105.26499938964844)"><path fill="rgb(239,82,34)" fill-opacity="1" d=" M52.35200119018555,-5.46999979019165 C49.33100128173828,-34.382999420166016 23.44300079345703,-55.37200164794922 -5.46999979019165,-52.35200119018555 C-34.382999420166016,-49.33100128173828 -55.37300109863281,-23.444000244140625 -52.35300064086914,5.468999862670898 C-49.332000732421875,34.382999420166016 -23.444000244140625,55.37200164794922 5.468999862670898,52.35100173950195 C34.38199996948242,49.33100128173828 55.37300109863281,23.44300079345703 52.35200119018555,-5.46999979019165z"></path></g><g opacity="1" transform="matrix(1,0,0,1,173.8780059814453,106.34400177001953)"><path fill="rgb(245,244,235)" fill-opacity="1" d=" M1.4639999866485596,-43.30500030517578 C-0.4729999899864197,-43.367000579833984 -2.427000045776367,-43.29800033569336 -4.389999866485596,-43.09299850463867 C-27.55699920654297,-40.67300033569336 -44.435001373291016,-19.856000900268555 -42.01499938964844,3.311000108718872 C-39.59400177001953,26.479000091552734 -18.780000686645508,43.367000579833984 4.389999866485596,40.935001373291016 C27.55699920654297,38.51599884033203 44.435001373291016,17.698999404907227 42.01499938964844,-5.468999862670898 C40.84199905395508,-16.69099998474121 35.37099838256836,-26.78499984741211 26.606000900268555,-33.89099884033203 C19.374000549316406,-39.75600051879883 10.612000465393066,-43.00600051879883 1.4639999866485596,-43.30500030517578z"></path></g><g opacity="1" transform="matrix(1,0,0,1,173.8780059814453,105.62699890136719)"><path fill="rgb(239,82,34)" fill-opacity="1" d=" M1.1890000104904175,-34.14799880981445 C-0.36500000953674316,-34.19900131225586 -1.9459999799728394,-34.13999938964844 -3.510999917984009,-33.97700119018555 C-12.472999572753906,-33.04199981689453 -20.54400062561035,-28.658000946044922 -26.23900032043457,-21.63599967956543 C-31.933000564575195,-14.61299991607666 -34.553001403808594,-5.810999870300293 -33.617000579833984,3.1500000953674316 C-32.68000030517578,12.11400032043457 -28.29599952697754,20.187000274658203 -21.274999618530273,25.881999969482422 C-14.251999855041504,31.57699966430664 -5.453999996185303,34.198001861572266 3.509999990463257,33.25299835205078 C12.473999977111816,32.31800079345703 20.545000076293945,27.934999465942383 26.23900032043457,20.913000106811523 C31.933000564575195,13.888999938964844 34.553001403808594,5.0879998207092285 33.617000579833984,-3.874000072479248 C32.67900085449219,-12.852999687194824 28.301000595092773,-20.92799949645996 21.288000106811523,-26.61400032043457 C15.505999565124512,-31.302000045776367 8.557000160217285,-33.909000396728516 1.1890000104904175,-34.14799880981445z"></path></g><g opacity="1" transform="matrix(1,0,0,1,173.8780059814453,105.51599884033203)"><path fill="rgb(245,244,235)" fill-opacity="1" d=" M0.8500000238418579,-23.649999618530273 C-0.23000000417232513,-23.684999465942383 -1.3339999914169312,-23.645000457763672 -2.431999921798706,-23.530000686645508 C-8.631999969482422,-22.881999969482422 -14.220000267028809,-19.84600067138672 -18.16699981689453,-14.979000091552734 C-22.11199951171875,-10.11400032043457 -23.92799949645996,-4.01800012588501 -23.2810001373291,2.181999921798706 C-22.631999969482422,8.383999824523926 -19.594999313354492,13.972999572753906 -14.729000091552734,17.920000076293945 C-9.862000465393066,21.867000579833984 -3.7720000743865967,23.684999465942383 2.4200000762939453,23.02899932861328 C8.631999969482422,22.3799991607666 14.220000267028809,19.344999313354492 18.166000366210938,14.479000091552734 C22.111000061035156,9.61299991607666 23.92799949645996,3.5169999599456787 23.280000686645508,-2.683000087738037 C22.6299991607666,-8.901000022888184 19.599000930786133,-14.494000434875488 14.743000030517578,-18.430999755859375 C10.736000061035156,-21.68000030517578 5.932000160217285,-23.483999252319336 0.8500000238418579,-23.649999618530273z"></path></g><g opacity="1" transform="matrix(1,0,0,1,173.8780059814453,105.4260025024414)"><path fill="rgb(239,82,34)" fill-opacity="1" d=" M0.5759999752044678,-15.121000289916992 C-0.12200000137090683,-15.142999649047852 -0.8370000123977661,-15.116999626159668 -1.5490000247955322,-15.043000221252441 C-5.51200008392334,-14.628999710083008 -9.083000183105469,-12.685999870300293 -11.609000205993652,-9.571000099182129 C-14.133000373840332,-6.458000183105469 -15.295000076293945,-2.562999963760376 -14.881999969482422,1.3940000534057617 C-14.467000007629395,5.354000091552734 -12.524999618530273,8.925000190734863 -9.40999984741211,11.45199966430664 C-6.296000003814697,13.97700023651123 -2.4089999198913574,15.142999649047852 1.531999945640564,14.720999717712402 C5.510000228881836,14.305999755859375 9.081999778747559,12.36299991607666 11.605999946594238,9.25100040435791 C14.131999969482422,6.136000156402588 15.295999526977539,2.240999937057495 14.881999969482422,-1.715999960899353 C14.467000007629395,-5.690999984741211 12.529000282287598,-9.265999794006348 9.425000190734863,-11.781999588012695 C6.861999988555908,-13.861000061035156 3.802000045776367,-15.015999794006348 0.5759999752044678,-15.121000289916992z"></path></g><g opacity="1" transform="matrix(1,0,0,1,173.45399475097656,104.18099975585938)"><path fill="rgb(245,244,235)" fill-opacity="1" d=" M0.9169999957084656,6.1620001792907715 C0.9169999957084656,6.1620001792907715 -5.791999816894531,11.37600040435791 -5.791999816894531,11.37600040435791 C-5.791999816894531,11.37600040435791 -4.552999973297119,2.9730000495910645 -4.552999973297119,2.9730000495910645 C-4.552999973297119,2.9730000495910645 -11.583000183105469,-1.7970000505447388 -11.583000183105469,-1.7970000505447388 C-11.583000183105469,-1.7970000505447388 -3.2079999446868896,-3.2160000801086426 -3.2079999446868896,-3.2160000801086426 C-3.2079999446868896,-3.2160000801086426 -0.8460000157356262,-11.37600040435791 -0.8460000157356262,-11.37600040435791 C-0.8460000157356262,-11.37600040435791 3.0920000076293945,-3.8489999771118164 3.0920000076293945,-3.8489999771118164 C3.0920000076293945,-3.8489999771118164 11.583000183105469,-4.124000072479248 11.583000183105469,-4.124000072479248 C11.583000183105469,-4.124000072479248 5.640999794006348,1.9470000267028809 5.640999794006348,1.9470000267028809 C5.640999794006348,1.9470000267028809 8.526000022888184,9.937999725341797 8.526000022888184,9.937999725341797 C8.526000022888184,9.937999725341797 0.9169999957084656,6.1620001792907715 0.9169999957084656,6.1620001792907715z"></path></g><g opacity="1" transform="matrix(1,0,0,1,123.63200378417969,102.7750015258789)"><path fill="rgb(66,166,84)" fill-opacity="1" d=" M4.631999969482422,-6.206999778747559 C-0.7300000190734863,-6.327000141143799 -7.085999965667725,-5.091000080108643 -9.279000282287598,0.39800000190734863 C-10.135000228881836,2.5429999828338623 -8.343000411987305,5.093999862670898 -6.293000221252441,5.656000137329102 C-3.8580000400543213,6.326000213623047 -1.8940000534057617,4.824999809265137 -1.034999966621399,2.671999931335449 C-1.0959999561309814,2.9839999675750732 -1.2430000305175781,3.247999906539917 -1.4730000495910645,3.4660000801086426 C-1.1319999694824219,3.1470000743865967 -1.1629999876022339,3.1540000438690186 -1.565999984741211,3.4839999675750732 C-1.437000036239624,3.444000005722046 -0.03700000047683716,2.7890000343322754 -0.9340000152587891,3.115999937057495 C-0.4449999928474426,2.938999891281128 0.06199999898672104,2.805000066757202 0.5690000057220459,2.690000057220459 C0.7020000219345093,2.6600000858306885 2.0490000247955322,2.4230000972747803 1.5210000276565552,2.5 C0.9800000190734863,2.5789999961853027 2.24399995803833,2.430999994277954 2.368000030517578,2.4210000038146973 C2.757999897003174,2.3910000324249268 3.1480000019073486,2.367000102996826 3.5390000343322754,2.3550000190734863 C3.9030001163482666,2.3420000076293945 4.26800012588501,2.3350000381469727 4.631999969482422,2.3440001010894775 C10.135000228881836,2.4679999351501465 10.133999824523926,-6.083000183105469 4.631999969482422,-6.206999778747559z"></path></g><g opacity="1" transform="matrix(1,0,0,1,121.9540023803711,92.67500305175781)"><path fill="rgb(66,166,84)" fill-opacity="1" d=" M1.090000033378601,-6.678999900817871 C-2.638000011444092,-5.038000106811523 -5.915999889373779,-2.010999917984009 -7.322000026702881,1.8389999866485596 C-8.09000015258789,3.941999912261963 -6.460999965667725,6.61299991607666 -4.335999965667725,7.0960001945495605 C-1.9240000247955322,7.645999908447266 0.10000000149011612,6.36299991607666 0.921999990940094,4.110000133514404 C0.5649999976158142,5.089000225067139 1.1460000276565552,3.9539999961853027 1.25,3.619999885559082 C1.3830000162124634,3.194000005722046 0.8169999718666077,4.051000118255615 1.1460000276565552,3.743000030517578 C1.2940000295639038,3.6029999256134033 1.4220000505447388,3.427000045776367 1.5640000104904175,3.2790000438690186 C1.8849999904632568,2.944000005722046 2.2300000190734863,2.6449999809265137 2.578000068664551,2.3399999141693115 C2.98799991607666,1.9809999465942383 2.635999917984009,2.322999954223633 2.4130001068115234,2.4649999141693115 C2.6089999675750732,2.3410000801086426 2.7909998893737793,2.194000005722046 2.9839999675750732,2.063999891281128 C3.75,1.5499999523162842 4.559000015258789,1.0759999752044678 5.4039998054504395,0.7039999961853027 C7.458000183105469,-0.20000000298023224 8.09000015258789,-3.3570001125335693 6.939000129699707,-5.144999980926514 C5.566999912261963,-7.271999835968018 3.2869999408721924,-7.645999908447266 1.090000033378601,-6.678999900817871z"></path></g><g opacity="1" transform="matrix(1,0,0,1,223.62100219726562,106.41500091552734)"><path fill="rgb(66,166,84)" fill-opacity="1" d=" M-5.074999809265137,1.24399995803833 C-4.7179999351501465,1.2589999437332153 -4.363999843597412,1.3009999990463257 -4.006999969482422,1.3240000009536743 C-2.803999900817871,1.4049999713897705 -4.547999858856201,1.187000036239624 -3.6700000762939453,1.3559999465942383 C-3.194999933242798,1.4479999542236328 -2.7170000076293945,1.5149999856948853 -2.243000030517578,1.6169999837875366 C-1.7350000143051147,1.7269999980926514 -1.2300000190734863,1.8519999980926514 -0.734000027179718,2.005000114440918 C-0.4830000102519989,2.0810000896453857 -0.2329999953508377,2.1649999618530273 0.014000000432133675,2.255000114440918 C-0.4020000100135803,2.059000015258789 -0.3880000114440918,2.065999984741211 0.057999998331069946,2.2739999294281006 C0.22699999809265137,2.3610000610351562 1.5479999780654907,3.180000066757202 0.6919999718666077,2.5899999141693115 C1.0080000162124634,2.806999921798706 0.7549999952316284,2.7090001106262207 0.6320000290870667,2.3259999752044678 C2.319000005722046,7.539000034332275 10.57699966430664,5.309000015258789 8.87600040435791,0.05400000140070915 C7.039000034332275,-5.619999885559082 0.1979999989271164,-7.079999923706055 -5.074999809265137,-7.304999828338623 C-10.576000213623047,-7.538000106811523 -10.5649995803833,1.0110000371932983 -5.074999809265137,1.24399995803833z"></path></g><g opacity="1" transform="matrix(1,0,0,1,225.58599853515625,95.46199798583984)"><path fill="rgb(66,166,84)" fill-opacity="1" d=" M-5.303999900817871,0.35100001096725464 C-5.072999954223633,0.47099998593330383 -4.8480000495910645,0.6039999723434448 -4.625999927520752,0.7379999756813049 C-4.363999843597412,0.8970000147819519 -4.105999946594238,1.062000036239624 -3.8519999980926514,1.2330000400543213 C-3.7160000801086426,1.3250000476837158 -3.5810000896453857,1.4170000553131104 -3.447999954223633,1.5130000114440918 C-3.2980000972747803,1.6200000047683716 -2.825000047683716,2.134000062942505 -3.2279999256134033,1.6670000553131104 C-3.61299991607666,1.222000002861023 -3.2149999141693115,1.6859999895095825 -3.0969998836517334,1.7910000085830688 C-2.946000099182129,1.9259999990463257 -2.7909998893737793,2.056999921798706 -2.6419999599456787,2.196000099182129 C-2.2939999103546143,2.5179998874664307 -1.975000023841858,2.865000009536743 -1.6519999504089355,3.2109999656677246 C-1.3079999685287476,3.5799999237060547 -1.565000057220459,3.369999885559082 -1.7230000495910645,3.1010000705718994 C-1.6160000562667847,3.2850000858306885 -1.4800000190734863,3.453000068664551 -1.36899995803833,3.634999990463257 C-1.3539999723434448,3.6610000133514404 -0.8270000219345093,4.550000190734863 -1.1480000019073486,3.9739999771118164 C-1.434999942779541,3.4579999446868896 -1.0720000267028809,4.25 -1.0410000085830688,4.35699987411499 C-0.41200000047683716,6.500999927520752 1.9950000047683716,8.062000274658203 4.2170000076293945,7.3420000076293945 C6.392000198364258,6.638999938964844 7.875999927520752,4.382999897003174 7.203000068664551,2.0840001106262207 C6.034999847412109,-1.899999976158142 2.632999897003174,-5.145999908447266 -0.9890000224113464,-7.031000137329102 C-2.9709999561309814,-8.062000274658203 -5.7230000495910645,-7.605999946594238 -6.8379998207092285,-5.497000217437744 C-7.875999927520752,-3.5320000648498535 -7.421999931335449,-0.7509999871253967 -5.303999900817871,0.35100001096725464z"></path></g></g></g></svg>