<?xml version="1.0" encoding="UTF-8" standalone="no"?>
<!DOCTYPE svg PUBLIC "-//W3C//DTD SVG 1.1//EN" "http://www.w3.org/Graphics/SVG/1.1/DTD/svg11.dtd">
<svg width="100%" height="100%" viewBox="0 0 122 114" version="1.1" xmlns="http://www.w3.org/2000/svg" xmlns:xlink="http://www.w3.org/1999/xlink" xml:space="preserve" xmlns:serif="http://www.serif.com/" style="fill-rule:evenodd;clip-rule:evenodd;stroke-linejoin:round;stroke-miterlimit:2;">
    <g>
        <g transform="matrix(0.333,0,0,0.333,-16.6085,-83.168)">
            <g transform="matrix(1,0,0,1,120.46,349.878)">
                <rect x="-26.615" y="-17.154" width="53.23" height="34.308" style="fill:rgb(113,66,56);fill-rule:nonzero;"/>
            </g>
            <g transform="matrix(1,0,0,1,120.461,401.953)">
                <rect x="-26.615" y="-17.154" width="53.23" height="34.308" style="fill:rgb(113,66,56);fill-rule:nonzero;"/>
            </g>
            <g transform="matrix(1,0,0,1,120.461,454.027)">
                <rect x="-26.615" y="-17.154" width="53.23" height="34.308" style="fill:rgb(113,66,56);fill-rule:nonzero;"/>
            </g>
            <g transform="matrix(1,0,0,1,120.461,506.102)">
                <rect x="-26.615" y="-17.154" width="53.23" height="34.308" style="fill:rgb(113,66,56);fill-rule:nonzero;"/>
            </g>
            <g transform="matrix(1,0,0,1,347.331,349.878)">
                <rect x="-26.615" y="-17.154" width="53.23" height="34.308" style="fill:rgb(113,66,56);fill-rule:nonzero;"/>
            </g>
            <g transform="matrix(1,0,0,1,347.331,401.953)">
                <rect x="-26.615" y="-17.154" width="53.23" height="34.308" style="fill:rgb(113,66,56);fill-rule:nonzero;"/>
            </g>
            <g transform="matrix(1,0,0,1,347.331,454.027)">
                <rect x="-26.615" y="-17.154" width="53.23" height="34.308" style="fill:rgb(113,66,56);fill-rule:nonzero;"/>
            </g>
            <g transform="matrix(1,0,0,1,347.331,506.102)">
                <rect x="-26.615" y="-17.154" width="53.23" height="34.308" style="fill:rgb(113,66,56);fill-rule:nonzero;"/>
            </g>
            <g transform="matrix(1,0,0,1,347.331,349.878)">
                <rect x="-26.615" y="-17.154" width="53.23" height="34.308" style="fill:rgb(87,51,43);fill-rule:nonzero;"/>
            </g>
            <g transform="matrix(1,0,0,1,347.331,396.833)">
                <path d="M26.616,-12.035L-26.616,-12.035L-26.616,-2.776L26.616,12.035L26.616,-12.035Z" style="fill:rgb(87,51,43);fill-rule:nonzero;"/>
            </g>
            <g transform="matrix(1,0,0,1,123.682,339.234)">
                <path d="M23.394,-6.51L-23.394,-6.51L23.394,6.51L23.394,-6.51Z" style="fill:rgb(88,51,43);fill-rule:nonzero;"/>
            </g>
        </g>
        <g transform="matrix(0.333,0,0,0.333,99.0527,33.3414)">
            <g>
                <rect x="-26.615" y="-17.154" width="53.23" height="34.308" style="fill:rgb(87,51,43);fill-rule:nonzero;"/>
            </g>
        </g>
        <g transform="matrix(0.333,0,0,0.24275,-16.6085,-32.7026)">
            <g>
                <g transform="matrix(1,0,0,1,120.46,349.878)">
                    <rect x="-23.883" y="0.091" width="47.75" height="17.063" style="fill:rgb(88,51,43);fill-rule:nonzero;"/>
                </g>
                <g transform="matrix(1,0,0,0.298816,120.46,328.906)">
                    <rect x="-23.883" y="-29.909" width="47.75" height="11.75" style="fill:rgb(88,51,43);fill-rule:nonzero;"/>
                </g>
                <g transform="matrix(1,0,0,1,120.46,349.878)">
                    <rect x="-23.883" y="-29.909" width="2.5" height="41" style="fill:rgb(88,51,43);fill-rule:nonzero;"/>
                </g>
                <g transform="matrix(1,0,0,1,120.46,349.878)">
                    <rect x="21.117" y="-29.909" width="2.5" height="41" style="fill:rgb(88,51,43);fill-rule:nonzero;"/>
                </g>
            </g>
        </g>
        <g transform="matrix(0.333,0,0,0.333,-16.6085,-83.168)">
            <g transform="matrix(1,0,0,1,120.46,349.878)">
                <rect x="26.615" y="-17.154" width="0.002" height="34.308" style="fill:rgb(195,122,81);fill-rule:nonzero;"/>
            </g>
            <g transform="matrix(1,0,0,1,120.46,349.878)">
                <rect x="-26.615" y="-17.154" width="0.232" height="34.308" style="fill:rgb(195,122,81);fill-rule:nonzero;"/>
            </g>
        </g>
        <g transform="matrix(0.333,0,0,0.333,24.5776,29.7969)">
            <g>
                <g>
                    <path d="M23.394,-6.51L-23.394,-6.51L23.394,6.51L23.394,-6.51Z" style="fill:rgb(151,95,63);fill-rule:nonzero;"/>
                </g>
            </g>
        </g>
        <g transform="matrix(0.333,0,0,0.333,-16.6085,-65.6855)">
            <g transform="matrix(1,0,0,1,120.46,349.878)">
                <rect x="26.615" y="-17.154" width="0.002" height="34.308" style="fill:rgb(195,122,81);fill-rule:nonzero;"/>
            </g>
            <g transform="matrix(1,0,0,1,120.46,349.878)">
                <rect x="-26.615" y="-17.154" width="0.232" height="34.308" style="fill:rgb(195,122,81);fill-rule:nonzero;"/>
            </g>
        </g>
        <g transform="matrix(0.333,0,0,0.333,-16.6085,-48.536)">
            <g transform="matrix(1,0,0,1,120.46,349.878)">
                <rect x="26.615" y="-17.154" width="0.002" height="34.308" style="fill:rgb(195,122,81);fill-rule:nonzero;"/>
            </g>
            <g transform="matrix(1,0,0,1,120.46,349.878)">
                <rect x="-26.615" y="-17.154" width="0.232" height="34.308" style="fill:rgb(195,122,81);fill-rule:nonzero;"/>
            </g>
        </g>
        <g transform="matrix(0.333,0,0,0.333,-16.6085,-31.0535)">
            <g transform="matrix(1,0,0,1,120.46,349.878)">
                <rect x="26.615" y="-17.154" width="0.002" height="34.308" style="fill:rgb(195,122,81);fill-rule:nonzero;"/>
            </g>
            <g transform="matrix(1,0,0,1,120.46,349.878)">
                <rect x="-26.615" y="-17.154" width="0.232" height="34.308" style="fill:rgb(195,122,81);fill-rule:nonzero;"/>
            </g>
        </g>
        <g transform="matrix(0.333,0,0,0.333,58.9825,-83.3345)">
            <g transform="matrix(1,0,0,1,120.46,349.878)">
                <rect x="0.117" y="-17.154" width="26.498" height="34.308" style="fill:rgb(151,95,63);fill-rule:nonzero;"/>
            </g>
            <g transform="matrix(1,0,0,1,120.46,349.878)">
                <rect x="-26.615" y="-17.154" width="26.732" height="34.308" style="fill:rgb(151,95,63);fill-rule:nonzero;"/>
            </g>
        </g>
        <g transform="matrix(0.333,0,0,0.333,58.9825,-65.852)">
            <g transform="matrix(1,0,0,1,120.46,349.878)">
                <rect x="0.117" y="-17.154" width="26.498" height="34.308" style="fill:rgb(195,122,81);fill-rule:nonzero;"/>
            </g>
            <g transform="matrix(1,0,0,1,120.46,349.878)">
                <rect x="-26.615" y="-17.154" width="26.732" height="34.308" style="fill:rgb(195,122,81);fill-rule:nonzero;"/>
            </g>
        </g>
        <g transform="matrix(0.333,0,0,0.333,99.0075,49.1129)">
            <g>
                <g>
                    <path d="M26.616,-12.035L-26.616,-12.035L-26.616,-2.776L26.616,12.035L26.616,-12.035Z" style="fill:rgb(151,95,63);fill-rule:nonzero;"/>
                </g>
            </g>
        </g>
        <g transform="matrix(0.333,0,0,0.333,58.9825,-48.536)">
            <g transform="matrix(1,0,0,1,120.46,349.878)">
                <rect x="0.117" y="-17.154" width="26.498" height="34.308" style="fill:rgb(195,122,81);fill-rule:nonzero;"/>
            </g>
            <g transform="matrix(1,0,0,1,120.46,349.878)">
                <rect x="-26.615" y="-17.154" width="26.732" height="34.308" style="fill:rgb(195,122,81);fill-rule:nonzero;"/>
            </g>
        </g>
        <g transform="matrix(0.333,0,0,0.333,58.9825,-31.22)">
            <g transform="matrix(1,0,0,1,120.46,349.878)">
                <rect x="0.117" y="-17.154" width="26.498" height="34.308" style="fill:rgb(195,122,81);fill-rule:nonzero;"/>
            </g>
            <g transform="matrix(1,0,0,1,120.46,349.878)">
                <rect x="-26.615" y="-17.154" width="26.732" height="34.308" style="fill:rgb(195,122,81);fill-rule:nonzero;"/>
            </g>
        </g>
        <g transform="matrix(0.333,0,0,0.333,-16.6085,-83.168)">
            <g transform="matrix(1,0,0,1,233.896,586.055)">
                <rect x="-166.668" y="-5.142" width="333.336" height="10.284" style="fill:rgb(195,121,81);fill-rule:nonzero;"/>
            </g>
            <g transform="matrix(1,0,0,1,233.896,547.752)">
                <path d="M166.669,-33.162L-166.668,-33.162L-181.208,33.162L181.208,33.162L166.669,-33.162Z" style="fill:rgb(193,66,60);fill-rule:nonzero;"/>
            </g>
            <g transform="matrix(1,0,0,1,233.896,547.663)">
                <path d="M-7.046,-1.831C-6.499,-0.108 -5.562,1.332 -4.337,2.352C-3.116,3.372 -1.594,3.961 0,3.959C1.593,3.961 3.115,3.372 4.336,2.352C5.561,1.332 6.498,-0.108 7.045,-1.831C7.296,-2.619 6.86,-3.461 6.072,-3.711C5.284,-3.961 4.442,-3.525 4.192,-2.737C3.796,-1.493 3.154,-0.56 2.42,0.051C1.682,0.661 0.866,0.961 0,0.964C-0.866,0.961 -1.683,0.661 -2.421,0.051C-3.155,-0.56 -3.797,-1.493 -4.192,-2.737C-4.443,-3.525 -5.285,-3.961 -6.072,-3.711C-6.86,-3.46 -7.296,-2.619 -7.046,-1.831Z" style="fill:rgb(210,105,94);fill-rule:nonzero;"/>
            </g>
            <g transform="matrix(1,0,0,1,218.913,532.68)">
                <path d="M-7.046,-1.831C-6.499,-0.107 -5.561,1.332 -4.337,2.352C-3.116,3.373 -1.594,3.961 0,3.959C1.594,3.961 3.116,3.373 4.336,2.352C5.561,1.332 6.498,-0.107 7.046,-1.831C7.296,-2.619 6.86,-3.461 6.072,-3.711C5.284,-3.961 4.442,-3.525 4.192,-2.737C3.796,-1.493 3.154,-0.56 2.42,0.051C1.682,0.661 0.866,0.961 0,0.964C-0.866,0.961 -1.683,0.661 -2.421,0.051C-3.155,-0.56 -3.797,-1.493 -4.192,-2.737C-4.442,-3.525 -5.284,-3.961 -6.072,-3.711C-6.86,-3.461 -7.296,-2.619 -7.046,-1.831Z" style="fill:rgb(210,105,94);fill-rule:nonzero;"/>
            </g>
            <g transform="matrix(1,0,0,1,248.879,532.68)">
                <path d="M-7.046,-1.831C-6.499,-0.107 -5.561,1.332 -4.336,2.352C-3.116,3.373 -1.594,3.961 0,3.959C1.594,3.961 3.116,3.373 4.336,2.352C5.561,1.332 6.498,-0.107 7.046,-1.831C7.296,-2.619 6.86,-3.461 6.072,-3.711C5.284,-3.961 4.442,-3.525 4.192,-2.737C3.797,-1.493 3.155,-0.56 2.421,0.051C1.683,0.661 0.866,0.961 0,0.964C-0.866,0.961 -1.682,0.661 -2.421,0.051C-3.154,-0.56 -3.797,-1.493 -4.192,-2.737C-4.442,-3.525 -5.284,-3.961 -6.072,-3.711C-6.86,-3.461 -7.296,-2.619 -7.046,-1.831Z" style="fill:rgb(210,105,94);fill-rule:nonzero;"/>
            </g>
            <g transform="matrix(1,0,0,1,263.849,547.663)">
                <path d="M-7.046,-1.831C-6.499,-0.108 -5.562,1.332 -4.337,2.352C-3.116,3.372 -1.594,3.961 0,3.959C1.593,3.961 3.115,3.372 4.336,2.352C5.561,1.332 6.498,-0.108 7.045,-1.831C7.296,-2.619 6.86,-3.461 6.072,-3.711C5.284,-3.961 4.442,-3.525 4.192,-2.737C3.796,-1.493 3.154,-0.56 2.42,0.051C1.682,0.661 0.866,0.961 0,0.964C-0.866,0.961 -1.683,0.661 -2.421,0.051C-3.155,-0.56 -3.797,-1.493 -4.192,-2.737C-4.443,-3.525 -5.285,-3.961 -6.072,-3.711C-6.86,-3.46 -7.296,-2.619 -7.046,-1.831Z" style="fill:rgb(210,105,94);fill-rule:nonzero;"/>
            </g>
            <g transform="matrix(1,0,0,1,203.93,547.663)">
                <path d="M-7.045,-1.831C-6.498,-0.108 -5.561,1.332 -4.336,2.352C-3.115,3.372 -1.593,3.961 0,3.959C1.594,3.961 3.115,3.372 4.336,2.352C5.561,1.332 6.498,-0.108 7.045,-1.831C7.295,-2.619 6.861,-3.461 6.073,-3.711C5.285,-3.961 4.442,-3.525 4.192,-2.737C3.796,-1.493 3.154,-0.56 2.42,0.051C1.682,0.661 0.867,0.961 0,0.964C-0.865,0.961 -1.682,0.661 -2.42,0.051C-3.154,-0.56 -3.797,-1.493 -4.192,-2.737C-4.443,-3.525 -5.285,-3.961 -6.073,-3.711C-6.861,-3.46 -7.295,-2.619 -7.045,-1.831Z" style="fill:rgb(210,105,94);fill-rule:nonzero;"/>
            </g>
            <g transform="matrix(1,0,0,1,293.815,547.663)">
                <path d="M-7.046,-1.831C-6.499,-0.108 -5.561,1.332 -4.337,2.352C-3.116,3.372 -1.594,3.961 0,3.959C1.594,3.961 3.116,3.372 4.336,2.352C5.561,1.332 6.498,-0.108 7.046,-1.831C7.296,-2.619 6.86,-3.461 6.072,-3.711C5.284,-3.961 4.442,-3.525 4.192,-2.737C3.796,-1.493 3.154,-0.56 2.42,0.051C1.682,0.661 0.866,0.961 0,0.964C-0.866,0.961 -1.683,0.661 -2.421,0.051C-3.155,-0.56 -3.797,-1.493 -4.192,-2.737C-4.442,-3.525 -5.284,-3.961 -6.072,-3.711C-6.86,-3.46 -7.296,-2.619 -7.046,-1.831Z" style="fill:rgb(210,105,94);fill-rule:nonzero;"/>
            </g>
            <g transform="matrix(1,0,0,1,173.965,547.663)">
                <path d="M-7.046,-1.831C-6.499,-0.108 -5.561,1.332 -4.337,2.352C-3.116,3.372 -1.594,3.961 0,3.959C1.594,3.961 3.116,3.372 4.336,2.352C5.561,1.332 6.498,-0.108 7.046,-1.831C7.296,-2.619 6.86,-3.461 6.072,-3.711C5.284,-3.961 4.442,-3.525 4.192,-2.737C3.797,-1.493 3.155,-0.56 2.42,0.051C1.682,0.661 0.866,0.961 0,0.964C-0.866,0.961 -1.682,0.661 -2.421,0.051C-3.155,-0.56 -3.797,-1.493 -4.192,-2.737C-4.442,-3.525 -5.284,-3.961 -6.072,-3.711C-6.86,-3.46 -7.296,-2.619 -7.046,-1.831Z" style="fill:rgb(210,105,94);fill-rule:nonzero;"/>
            </g>
            <g transform="matrix(1,0,0,1,158.995,532.68)">
                <path d="M-7.046,-1.831C-6.499,-0.107 -5.562,1.332 -4.337,2.352C-3.116,3.373 -1.594,3.961 0,3.959C1.593,3.961 3.115,3.373 4.336,2.352C5.561,1.332 6.498,-0.107 7.045,-1.831C7.296,-2.619 6.859,-3.461 6.072,-3.711C5.284,-3.961 4.442,-3.525 4.192,-2.737C3.796,-1.493 3.154,-0.56 2.42,0.051C1.682,0.661 0.866,0.961 0,0.964C-0.866,0.961 -1.683,0.661 -2.421,0.051C-3.155,-0.56 -3.797,-1.493 -4.192,-2.737C-4.442,-3.525 -5.284,-3.961 -6.072,-3.711C-6.86,-3.461 -7.296,-2.619 -7.046,-1.831Z" style="fill:rgb(210,105,94);fill-rule:nonzero;"/>
            </g>
            <g transform="matrix(1,0,0,1,188.948,532.68)">
                <path d="M-7.046,-1.831C-6.499,-0.107 -5.562,1.332 -4.337,2.352C-3.116,3.373 -1.594,3.961 0,3.959C1.593,3.961 3.115,3.373 4.336,2.352C5.561,1.332 6.498,-0.107 7.045,-1.831C7.296,-2.619 6.859,-3.461 6.072,-3.711C5.284,-3.961 4.442,-3.525 4.192,-2.737C3.796,-1.493 3.154,-0.56 2.42,0.051C1.682,0.661 0.866,0.961 0,0.964C-0.866,0.961 -1.683,0.661 -2.421,0.051C-3.155,-0.56 -3.797,-1.493 -4.192,-2.737C-4.442,-3.525 -5.284,-3.961 -6.072,-3.711C-6.86,-3.461 -7.296,-2.619 -7.046,-1.831Z" style="fill:rgb(210,105,94);fill-rule:nonzero;"/>
            </g>
            <g transform="matrix(1,0,0,1,308.798,562.646)">
                <path d="M-7.046,-1.831C-6.499,-0.107 -5.562,1.332 -4.337,2.353C-3.116,3.373 -1.594,3.961 0,3.959C1.593,3.961 3.115,3.373 4.336,2.353C5.561,1.332 6.498,-0.107 7.045,-1.831C7.296,-2.619 6.859,-3.46 6.072,-3.711C5.284,-3.961 4.442,-3.525 4.192,-2.737C3.796,-1.493 3.154,-0.559 2.42,0.051C1.682,0.662 0.866,0.962 0,0.964C-0.866,0.962 -1.683,0.662 -2.421,0.051C-3.155,-0.559 -3.797,-1.493 -4.192,-2.737C-4.442,-3.525 -5.284,-3.961 -6.072,-3.711C-6.86,-3.46 -7.296,-2.619 -7.046,-1.831Z" style="fill:rgb(210,105,94);fill-rule:nonzero;"/>
            </g>
            <g transform="matrix(1,0,0,1,338.763,562.646)">
                <path d="M-7.046,-1.831C-6.499,-0.107 -5.561,1.332 -4.337,2.353C-3.116,3.373 -1.594,3.961 0,3.959C1.594,3.961 3.116,3.373 4.336,2.353C5.561,1.332 6.498,-0.107 7.046,-1.831C7.296,-2.619 6.86,-3.46 6.072,-3.711C5.284,-3.961 4.442,-3.525 4.192,-2.737C3.796,-1.493 3.154,-0.559 2.42,0.051C1.682,0.662 0.866,0.962 0,0.964C-0.866,0.962 -1.683,0.662 -2.421,0.051C-3.155,-0.559 -3.797,-1.493 -4.192,-2.737C-4.442,-3.525 -5.284,-3.961 -6.072,-3.711C-6.86,-3.46 -7.296,-2.619 -7.046,-1.831Z" style="fill:rgb(210,105,94);fill-rule:nonzero;"/>
            </g>
            <g transform="matrix(1,0,0,1,248.879,562.646)">
                <path d="M-7.046,-1.831C-6.499,-0.107 -5.561,1.332 -4.336,2.353C-3.115,3.373 -1.594,3.961 0,3.959C1.594,3.961 3.116,3.373 4.336,2.353C5.561,1.332 6.498,-0.107 7.046,-1.831C7.296,-2.619 6.86,-3.46 6.072,-3.711C5.284,-3.961 4.442,-3.525 4.192,-2.737C3.797,-1.493 3.155,-0.559 2.421,0.051C1.683,0.662 0.866,0.962 0,0.964C-0.866,0.962 -1.682,0.662 -2.421,0.051C-3.154,-0.559 -3.796,-1.493 -4.192,-2.737C-4.442,-3.525 -5.284,-3.961 -6.072,-3.711C-6.86,-3.46 -7.296,-2.619 -7.046,-1.831Z" style="fill:rgb(210,105,94);fill-rule:nonzero;"/>
            </g>
            <g transform="matrix(1,0,0,1,278.832,562.646)">
                <path d="M-7.046,-1.831C-6.499,-0.107 -5.561,1.332 -4.336,2.353C-3.115,3.373 -1.594,3.961 0,3.959C1.594,3.961 3.116,3.373 4.336,2.353C5.561,1.332 6.498,-0.107 7.046,-1.831C7.296,-2.619 6.86,-3.46 6.072,-3.711C5.284,-3.961 4.442,-3.525 4.192,-2.737C3.797,-1.493 3.155,-0.559 2.421,0.051C1.683,0.662 0.866,0.962 0,0.964C-0.866,0.962 -1.682,0.662 -2.421,0.051C-3.154,-0.559 -3.796,-1.493 -4.192,-2.737C-4.442,-3.525 -5.284,-3.961 -6.072,-3.711C-6.86,-3.46 -7.296,-2.619 -7.046,-1.831Z" style="fill:rgb(210,105,94);fill-rule:nonzero;"/>
            </g>
            <g transform="matrix(1,0,0,1,218.913,562.646)">
                <path d="M-7.046,-1.831C-6.499,-0.107 -5.561,1.332 -4.337,2.353C-3.116,3.373 -1.594,3.961 0,3.959C1.594,3.961 3.116,3.373 4.336,2.353C5.561,1.332 6.498,-0.107 7.046,-1.831C7.296,-2.619 6.86,-3.46 6.072,-3.711C5.284,-3.961 4.442,-3.525 4.192,-2.737C3.797,-1.493 3.155,-0.559 2.42,0.051C1.682,0.662 0.866,0.962 0,0.964C-0.866,0.962 -1.682,0.662 -2.421,0.051C-3.155,-0.559 -3.797,-1.493 -4.192,-2.737C-4.442,-3.525 -5.284,-3.961 -6.072,-3.711C-6.86,-3.46 -7.296,-2.619 -7.046,-1.831Z" style="fill:rgb(210,105,94);fill-rule:nonzero;"/>
            </g>
            <g transform="matrix(1,0,0,1,353.746,547.663)">
                <path d="M-7.046,-1.831C-6.499,-0.108 -5.562,1.332 -4.337,2.352C-3.116,3.372 -1.594,3.961 -0.001,3.959C1.593,3.961 3.115,3.372 4.336,2.352C5.561,1.332 6.498,-0.108 7.045,-1.831C7.296,-2.619 6.86,-3.461 6.072,-3.711C5.284,-3.961 4.442,-3.525 4.192,-2.737C3.796,-1.493 3.154,-0.56 2.42,0.051C1.682,0.661 0.866,0.961 -0.001,0.964C-0.866,0.961 -1.683,0.661 -2.421,0.051C-3.155,-0.56 -3.797,-1.493 -4.192,-2.737C-4.443,-3.525 -5.285,-3.961 -6.073,-3.711C-6.861,-3.46 -7.296,-2.619 -7.046,-1.831Z" style="fill:rgb(210,105,94);fill-rule:nonzero;"/>
            </g>
            <g transform="matrix(1,0,0,1,323.78,547.663)">
                <path d="M-7.046,-1.831C-6.499,-0.108 -5.561,1.332 -4.336,2.352C-3.116,3.372 -1.594,3.961 0,3.959C1.594,3.961 3.116,3.372 4.336,2.352C5.561,1.332 6.498,-0.108 7.046,-1.831C7.296,-2.619 6.86,-3.461 6.072,-3.711C5.284,-3.961 4.442,-3.525 4.192,-2.737C3.797,-1.493 3.155,-0.56 2.421,0.051C1.682,0.661 0.866,0.961 0,0.964C-0.866,0.961 -1.682,0.661 -2.421,0.051C-3.154,-0.56 -3.797,-1.493 -4.192,-2.737C-4.442,-3.525 -5.284,-3.961 -6.072,-3.711C-6.86,-3.46 -7.296,-2.619 -7.046,-1.831Z" style="fill:rgb(210,105,94);fill-rule:nonzero;"/>
            </g>
            <g transform="matrix(1,0,0,1,308.81,532.68)">
                <path d="M-7.046,-1.831C-6.499,-0.107 -5.562,1.332 -4.337,2.352C-3.116,3.373 -1.594,3.961 0,3.959C1.593,3.961 3.115,3.373 4.336,2.352C5.561,1.332 6.498,-0.107 7.045,-1.831C7.296,-2.619 6.86,-3.461 6.072,-3.711C5.284,-3.961 4.442,-3.525 4.192,-2.737C3.796,-1.493 3.154,-0.56 2.42,0.051C1.682,0.661 0.866,0.961 0,0.964C-0.866,0.961 -1.683,0.661 -2.421,0.051C-3.155,-0.56 -3.797,-1.493 -4.192,-2.737C-4.442,-3.525 -5.284,-3.961 -6.072,-3.711C-6.86,-3.461 -7.296,-2.619 -7.046,-1.831Z" style="fill:rgb(210,105,94);fill-rule:nonzero;"/>
            </g>
            <g transform="matrix(1,0,0,1,368.716,562.646)">
                <path d="M-7.046,-1.831C-6.499,-0.107 -5.561,1.332 -4.337,2.353C-3.116,3.373 -1.594,3.961 0,3.959C1.594,3.961 3.116,3.373 4.336,2.353C5.561,1.332 6.498,-0.107 7.046,-1.831C7.296,-2.619 6.86,-3.46 6.072,-3.711C5.284,-3.961 4.442,-3.525 4.192,-2.737C3.797,-1.493 3.155,-0.559 2.42,0.051C1.682,0.662 0.866,0.962 0,0.964C-0.866,0.962 -1.682,0.662 -2.421,0.051C-3.155,-0.559 -3.797,-1.493 -4.192,-2.737C-4.442,-3.525 -5.284,-3.961 -6.072,-3.711C-6.86,-3.46 -7.296,-2.619 -7.046,-1.831Z" style="fill:rgb(210,105,94);fill-rule:nonzero;"/>
            </g>
            <g transform="matrix(1,0,0,1,383.699,547.663)">
                <path d="M-7.046,-1.831C-6.499,-0.108 -5.562,1.332 -4.337,2.352C-3.116,3.372 -1.594,3.961 0,3.959C1.593,3.961 3.115,3.372 4.336,2.352C5.561,1.332 6.498,-0.108 7.045,-1.831C7.296,-2.619 6.86,-3.461 6.072,-3.711C5.284,-3.961 4.442,-3.525 4.192,-2.737C3.796,-1.493 3.154,-0.56 2.42,0.051C1.682,0.661 0.866,0.961 0,0.964C-0.866,0.961 -1.683,0.661 -2.421,0.051C-3.155,-0.56 -3.797,-1.493 -4.192,-2.737C-4.443,-3.525 -5.285,-3.961 -6.072,-3.711C-6.86,-3.46 -7.296,-2.619 -7.046,-1.831Z" style="fill:rgb(210,105,94);fill-rule:nonzero;"/>
            </g>
            <g transform="matrix(1,0,0,1,338.763,532.68)">
                <path d="M-7.046,-1.831C-6.499,-0.107 -5.561,1.332 -4.337,2.352C-3.116,3.373 -1.594,3.961 0,3.959C1.594,3.961 3.116,3.373 4.336,2.352C5.561,1.332 6.498,-0.107 7.046,-1.831C7.296,-2.619 6.86,-3.461 6.072,-3.711C5.284,-3.961 4.442,-3.525 4.192,-2.737C3.796,-1.493 3.154,-0.56 2.42,0.051C1.682,0.661 0.866,0.961 0,0.964C-0.866,0.961 -1.683,0.661 -2.421,0.051C-3.155,-0.56 -3.797,-1.493 -4.192,-2.737C-4.442,-3.525 -5.284,-3.961 -6.072,-3.711C-6.86,-3.461 -7.296,-2.619 -7.046,-1.831Z" style="fill:rgb(210,105,94);fill-rule:nonzero;"/>
            </g>
            <g transform="matrix(1,0,0,1,278.844,532.68)">
                <path d="M-7.045,-1.831C-6.498,-0.107 -5.561,1.332 -4.336,2.352C-3.115,3.373 -1.593,3.961 0,3.959C1.594,3.961 3.115,3.373 4.336,2.352C5.561,1.332 6.498,-0.107 7.045,-1.831C7.295,-2.619 6.86,-3.461 6.072,-3.711C5.285,-3.961 4.442,-3.525 4.192,-2.737C3.796,-1.493 3.154,-0.56 2.42,0.051C1.682,0.661 0.867,0.961 0,0.964C-0.865,0.961 -1.682,0.661 -2.42,0.051C-3.154,-0.56 -3.797,-1.493 -4.192,-2.737C-4.442,-3.525 -5.284,-3.961 -6.072,-3.711C-6.86,-3.461 -7.295,-2.619 -7.045,-1.831Z" style="fill:rgb(210,105,94);fill-rule:nonzero;"/>
            </g>
            <g transform="matrix(1,0,0,1,188.948,562.646)">
                <path d="M-7.046,-1.831C-6.499,-0.107 -5.562,1.332 -4.337,2.353C-3.116,3.373 -1.594,3.961 0,3.959C1.593,3.961 3.115,3.373 4.336,2.353C5.561,1.332 6.498,-0.107 7.045,-1.831C7.296,-2.619 6.86,-3.46 6.072,-3.711C5.284,-3.961 4.442,-3.525 4.192,-2.737C3.796,-1.493 3.154,-0.559 2.42,0.051C1.682,0.662 0.866,0.962 0,0.964C-0.866,0.962 -1.683,0.662 -2.421,0.051C-3.155,-0.559 -3.797,-1.493 -4.192,-2.737C-4.442,-3.525 -5.284,-3.961 -6.072,-3.711C-6.86,-3.46 -7.296,-2.619 -7.046,-1.831Z" style="fill:rgb(210,105,94);fill-rule:nonzero;"/>
            </g>
            <g transform="matrix(1,0,0,1,158.982,562.646)">
                <path d="M-7.045,-1.831C-6.498,-0.107 -5.561,1.332 -4.336,2.353C-3.115,3.373 -1.593,3.961 0,3.959C1.594,3.961 3.115,3.373 4.336,2.353C5.561,1.332 6.498,-0.107 7.045,-1.831C7.295,-2.619 6.86,-3.46 6.072,-3.711C5.285,-3.961 4.442,-3.525 4.192,-2.737C3.796,-1.493 3.154,-0.559 2.42,0.051C1.682,0.662 0.867,0.962 0,0.964C-0.865,0.962 -1.682,0.662 -2.42,0.051C-3.154,-0.559 -3.797,-1.493 -4.192,-2.737C-4.442,-3.525 -5.284,-3.961 -6.072,-3.711C-6.86,-3.46 -7.295,-2.619 -7.045,-1.831Z" style="fill:rgb(210,105,94);fill-rule:nonzero;"/>
            </g>
            <g transform="matrix(1,0,0,1,129.017,562.646)">
                <path d="M-7.046,-1.831C-6.499,-0.107 -5.561,1.332 -4.336,2.353C-3.116,3.373 -1.594,3.961 0,3.959C1.594,3.961 3.116,3.373 4.336,2.353C5.561,1.332 6.498,-0.107 7.046,-1.831C7.296,-2.619 6.86,-3.46 6.072,-3.711C5.284,-3.961 4.442,-3.525 4.192,-2.737C3.797,-1.493 3.155,-0.559 2.42,0.051C1.683,0.662 0.866,0.962 0,0.964C-0.866,0.962 -1.682,0.662 -2.421,0.051C-3.154,-0.559 -3.797,-1.493 -4.192,-2.737C-4.442,-3.525 -5.284,-3.961 -6.072,-3.711C-6.86,-3.46 -7.296,-2.619 -7.046,-1.831Z" style="fill:rgb(210,105,94);fill-rule:nonzero;"/>
            </g>
            <g transform="matrix(1,0,0,1,144.012,547.663)">
                <path d="M-7.046,-1.831C-6.499,-0.108 -5.561,1.332 -4.337,2.352C-3.116,3.372 -1.594,3.961 0,3.959C1.594,3.961 3.116,3.372 4.336,2.352C5.561,1.332 6.498,-0.108 7.046,-1.831C7.296,-2.619 6.86,-3.461 6.072,-3.711C5.284,-3.961 4.442,-3.525 4.192,-2.737C3.797,-1.493 3.155,-0.56 2.42,0.051C1.682,0.661 0.866,0.961 0,0.964C-0.866,0.961 -1.682,0.661 -2.421,0.051C-3.155,-0.56 -3.797,-1.493 -4.192,-2.737C-4.442,-3.525 -5.284,-3.961 -6.072,-3.711C-6.86,-3.46 -7.296,-2.619 -7.046,-1.831Z" style="fill:rgb(210,105,94);fill-rule:nonzero;"/>
            </g>
            <g transform="matrix(1,0,0,1,114.047,547.663)">
                <path d="M-7.046,-1.831C-6.499,-0.108 -5.562,1.332 -4.337,2.352C-3.116,3.372 -1.594,3.961 0,3.959C1.594,3.961 3.115,3.372 4.336,2.352C5.561,1.332 6.498,-0.108 7.045,-1.831C7.296,-2.619 6.86,-3.461 6.072,-3.711C5.284,-3.961 4.442,-3.525 4.192,-2.737C3.796,-1.493 3.154,-0.56 2.42,0.051C1.682,0.661 0.866,0.961 0,0.964C-0.866,0.961 -1.683,0.661 -2.421,0.051C-3.155,-0.56 -3.797,-1.493 -4.192,-2.737C-4.442,-3.525 -5.284,-3.961 -6.072,-3.711C-6.86,-3.46 -7.296,-2.619 -7.046,-1.831Z" style="fill:rgb(210,105,94);fill-rule:nonzero;"/>
            </g>
            <g transform="matrix(1,0,0,1,129.025,532.68)">
                <path d="M-7.046,-1.831C-6.499,-0.107 -5.561,1.332 -4.337,2.352C-3.116,3.373 -1.594,3.961 0,3.959C1.594,3.961 3.116,3.373 4.336,2.352C5.561,1.332 6.498,-0.107 7.046,-1.831C7.296,-2.619 6.86,-3.461 6.072,-3.711C5.284,-3.961 4.442,-3.525 4.192,-2.737C3.797,-1.493 3.154,-0.56 2.42,0.051C1.682,0.661 0.866,0.961 0,0.964C-0.866,0.961 -1.683,0.661 -2.421,0.051C-3.155,-0.56 -3.797,-1.493 -4.192,-2.737C-4.442,-3.525 -5.284,-3.961 -6.072,-3.711C-6.86,-3.461 -7.296,-2.619 -7.046,-1.831Z" style="fill:rgb(210,105,94);fill-rule:nonzero;"/>
            </g>
            <g transform="matrix(1,0,0,1,99.047,562.646)">
                <path d="M-7.045,-1.831C-6.498,-0.107 -5.561,1.332 -4.336,2.353C-3.115,3.373 -1.593,3.961 0,3.959C1.594,3.961 3.115,3.373 4.336,2.353C5.561,1.332 6.498,-0.107 7.045,-1.831C7.295,-2.619 6.86,-3.46 6.072,-3.711C5.285,-3.961 4.442,-3.525 4.192,-2.737C3.796,-1.493 3.154,-0.559 2.42,0.051C1.682,0.662 0.867,0.962 0,0.964C-0.865,0.962 -1.682,0.662 -2.42,0.051C-3.154,-0.559 -3.797,-1.493 -4.192,-2.737C-4.442,-3.525 -5.284,-3.961 -6.072,-3.711C-6.86,-3.46 -7.295,-2.619 -7.045,-1.831Z" style="fill:rgb(210,105,94);fill-rule:nonzero;"/>
            </g>
            <g transform="matrix(1,0,0,1,84.077,547.663)">
                <path d="M-7.046,-1.831C-6.499,-0.108 -5.561,1.332 -4.337,2.352C-3.116,3.372 -1.594,3.961 0,3.959C1.594,3.961 3.116,3.372 4.336,2.352C5.561,1.332 6.498,-0.108 7.046,-1.831C7.296,-2.619 6.86,-3.461 6.072,-3.711C5.284,-3.961 4.442,-3.525 4.192,-2.737C3.797,-1.493 3.155,-0.56 2.42,0.051C1.682,0.661 0.866,0.961 0,0.964C-0.866,0.961 -1.682,0.661 -2.421,0.051C-3.155,-0.56 -3.797,-1.493 -4.192,-2.737C-4.442,-3.525 -5.284,-3.961 -6.072,-3.711C-6.86,-3.46 -7.296,-2.619 -7.046,-1.831Z" style="fill:rgb(210,105,94);fill-rule:nonzero;"/>
            </g>
        </g>
        <g transform="matrix(0.333,0,0,0.333,-16.6085,-83.168)">
            <g transform="matrix(1,0,0,1,337.354,344.719)">
                <rect x="-48.038" y="-11.806" width="96.076" height="23.612" style="fill:rgb(113,66,56);fill-rule:nonzero;"/>
            </g>
            <g transform="matrix(1,0,0,1,340.56,338.799)">
                <rect x="-52.218" y="-11.806" width="104.436" height="23.612" style="fill:rgb(195,121,81);fill-rule:nonzero;"/>
            </g>
            <g transform="matrix(1,0,0,1,234.989,304.386)">
                <rect x="-150.404" y="-11.465" width="300.808" height="22.93" style="fill:rgb(113,66,56);fill-rule:nonzero;"/>
            </g>
            <g transform="matrix(1,0,0,1,233.842,298.466)">
                <rect x="-158.936" y="-11.465" width="317.872" height="22.93" style="fill:rgb(195,121,81);fill-rule:nonzero;"/>
            </g>
            <g transform="matrix(1,0,0,1,121.665,271.135)">
                <rect x="-37.079" y="-11.806" width="74.158" height="23.612" style="fill:rgb(113,66,56);fill-rule:nonzero;"/>
            </g>
            <g transform="matrix(1,0,0,1,121.018,265.214)">
                <rect x="-37.727" y="-11.806" width="75.454" height="23.612" style="fill:rgb(195,121,81);fill-rule:nonzero;"/>
            </g>
            <g transform="matrix(1,0,0,1,120.02,265.039)">
                <path d="M30.415,2.309L30.19,2.615C29.567,3.464 28.82,4.403 27.975,5.402C27.128,6.401 26.243,7.362 25.343,8.258C24.167,9.419 22.984,10.311 21.828,10.911C20.688,11.504 19.637,11.804 18.701,11.804C17.776,11.804 17.08,11.514 16.573,10.915C16.064,10.316 15.806,9.519 15.806,8.543C15.806,8.227 15.847,7.873 15.927,7.492L17.353,7.167C18.014,7.019 18.714,6.835 19.497,6.605C20.253,6.381 21.03,6.116 21.804,5.818C22.589,5.512 23.305,5.151 23.93,4.746C24.573,4.332 25.106,3.859 25.514,3.338C25.95,2.783 26.171,2.16 26.171,1.486C26.171,0.628 25.837,-0.047 25.182,-0.52C24.563,-0.966 23.705,-1.194 22.628,-1.194C21.482,-1.194 20.254,-0.896 18.978,-0.311C17.718,0.269 16.541,1.036 15.484,1.969C14.424,2.904 13.533,3.981 12.834,5.17C12.291,6.096 11.955,7.04 11.824,7.986C11.694,8.131 11.575,8.274 11.443,8.419C10.8,9.131 10.165,9.772 9.554,10.327C8.951,10.88 8.375,11.339 7.843,11.69C7.237,12.091 6.871,12.176 6.672,12.176C6.45,12.176 6.252,12.134 6.252,11.626C6.252,11.101 6.498,10.423 6.981,9.615C7.491,8.763 8.059,7.855 8.673,6.915C9.292,5.962 9.868,5.026 10.38,4.133C10.928,3.18 11.205,2.327 11.205,1.597C11.205,0.684 10.955,-0.018 10.464,-0.49C9.98,-0.957 9.31,-1.194 8.476,-1.194C7.503,-1.194 6.556,-0.916 5.659,-0.368C4.793,0.164 3.958,0.823 3.177,1.592C2.769,1.993 2.377,2.41 2.003,2.838L11.807,-13.405L8.061,-13.224C7.87,-13.261 7.665,-13.292 7.431,-13.301C6.96,-13.325 6.331,-13.361 5.543,-13.411C4.75,-13.46 3.878,-13.51 2.921,-13.56C1.963,-13.608 0.947,-13.653 -0.129,-13.69C-1.206,-13.728 -2.264,-13.747 -3.305,-13.747C-4.416,-13.747 -5.769,-13.683 -7.328,-13.56C-8.89,-13.435 -10.542,-13.223 -12.239,-12.925C-13.947,-12.626 -15.669,-12.21 -17.354,-11.69C-19.06,-11.165 -20.607,-10.492 -21.952,-9.691C-23.314,-8.883 -24.434,-7.896 -25.285,-6.763C-26.152,-5.605 -26.591,-4.242 -26.591,-2.711C-26.591,-1.746 -26.413,-0.887 -26.061,-0.161C-25.713,0.558 -25.25,1.164 -24.683,1.641C-24.123,2.111 -23.467,2.468 -22.736,2.703C-20.789,3.327 -18.729,3.089 -16.901,2.362C-15.753,1.905 -14.726,1.286 -13.854,0.522C-12.979,-0.24 -12.269,-1.142 -11.741,-2.157C-11.21,-3.182 -10.942,-4.269 -10.942,-5.384C-10.942,-5.734 -10.948,-6.08 -10.959,-6.418C-10.971,-6.77 -11.016,-7.132 -11.091,-7.498L-11.151,-7.794L-12.162,-7.695L-12.118,-7.344C-12.049,-6.82 -12.016,-6.286 -12.016,-5.756C-12.016,-4.689 -12.265,-3.738 -12.759,-2.931C-13.26,-2.112 -13.919,-1.429 -14.712,-0.9C-15.523,-0.362 -16.421,0.049 -17.382,0.322C-18.997,0.783 -20.514,0.901 -22.085,0.488C-22.709,0.325 -23.287,0.08 -23.803,-0.238C-24.303,-0.544 -24.722,-0.943 -25.048,-1.423C-25.364,-1.889 -25.519,-2.407 -25.519,-3.007C-25.519,-3.945 -25.266,-4.783 -24.767,-5.499C-24.252,-6.238 -23.529,-6.894 -22.62,-7.448C-21.687,-8.016 -20.591,-8.506 -19.36,-8.904C-18.121,-9.305 -16.773,-9.626 -15.355,-9.858C-13.929,-10.091 -12.438,-10.263 -10.925,-10.374C-9.416,-10.483 -7.911,-10.539 -6.453,-10.539C-5.889,-10.539 -5.278,-10.534 -4.62,-10.522C-3.962,-10.509 -3.321,-10.49 -2.698,-10.466C-2.105,-10.443 -1.554,-10.413 -1.048,-10.38C-2.029,-10.01 -2.909,-9.6 -3.674,-9.154C-4.784,-8.508 -5.789,-7.734 -6.661,-6.854C-7.534,-5.977 -8.357,-4.941 -9.109,-3.774C-9.853,-2.623 -10.649,-1.272 -11.476,0.24C-12.208,1.576 -12.969,2.977 -13.759,4.438C-14.535,5.873 -15.405,7.2 -16.344,8.381C-17.273,9.549 -18.324,10.524 -19.469,11.281C-20.592,12.022 -21.902,12.399 -23.366,12.399C-24.863,12.399 -25.969,12.117 -26.651,11.561C-27.274,11.052 -27.638,10.311 -27.759,9.297C-27.419,9.156 -27.131,8.957 -26.9,8.703C-26.594,8.367 -26.438,7.901 -26.438,7.318C-26.438,6.705 -26.62,6.209 -26.98,5.845C-27.336,5.487 -27.857,5.305 -28.532,5.305C-29.309,5.305 -29.945,5.594 -30.422,6.164C-30.885,6.722 -31.121,7.397 -31.121,8.172C-31.121,9.214 -30.847,10.098 -30.306,10.798C-29.782,11.48 -29.126,12.029 -28.359,12.429C-27.606,12.827 -26.779,13.113 -25.901,13.279C-25.03,13.443 -24.212,13.526 -23.472,13.526C-21.797,13.526 -20.238,13.282 -18.843,12.802C-17.451,12.324 -16.143,11.628 -14.953,10.732C-13.769,9.841 -12.652,8.748 -11.637,7.481C-10.627,6.22 -9.657,4.773 -8.757,3.183C-7.884,1.646 -7.031,0.067 -6.22,-1.51C-5.415,-3.079 -4.577,-4.516 -3.729,-5.782C-2.886,-7.042 -1.991,-8.081 -1.066,-8.87C-0.176,-9.633 0.823,-10.019 1.897,-10.019C2.507,-10.019 3.185,-9.996 3.911,-9.947C4.328,-9.919 4.781,-9.9 5.254,-9.887L-8.068,13.172L-3.636,13.036L-3.548,12.859C-3.252,12.258 -2.845,11.516 -2.34,10.653C-1.833,9.788 -1.255,8.89 -0.62,7.983C0.023,7.061 0.711,6.128 1.421,5.211C2.129,4.297 2.847,3.47 3.554,2.752C4.259,2.038 4.935,1.451 5.562,1.008C6.153,0.591 6.68,0.379 7.13,0.379C7.285,0.379 7.417,0.438 7.546,0.565C7.668,0.685 7.726,0.864 7.726,1.115C7.726,1.583 7.487,2.165 7.011,2.845C6.494,3.585 5.93,4.378 5.318,5.216C4.699,6.066 4.12,6.943 3.601,7.824C3.051,8.755 2.773,9.696 2.773,10.622C2.773,11.365 2.993,12.037 3.428,12.615C3.878,13.22 4.587,13.526 5.538,13.526C6.537,13.526 7.525,13.207 8.472,12.581C9.388,11.975 10.502,10.957 11.786,9.56L11.811,9.533C11.925,10.66 12.318,11.624 13.019,12.383C13.859,13.289 15.009,13.747 16.436,13.747C17.786,13.747 19.246,13.448 20.776,12.855C22.306,12.26 23.918,11.169 25.57,9.61C26.73,8.492 27.747,7.407 28.587,6.388C29.429,5.366 30.225,4.322 30.954,3.285L31.121,3.05L30.415,2.309Z" style="fill:rgb(255,195,214);fill-rule:nonzero;"/>
            </g>
            <g transform="matrix(1,0,0,1,120.02,265.039)">
                <path d="M22.144,2.249C21.763,2.872 21.242,3.471 20.599,4.028C19.947,4.592 19.189,5.103 18.344,5.546C17.662,5.903 16.943,6.182 16.2,6.376C16.36,5.916 16.598,5.399 16.911,4.834C17.358,4.027 17.884,3.244 18.472,2.504C19.054,1.772 19.683,1.148 20.342,0.648C20.965,0.174 21.544,-0.067 22.062,-0.067C22.271,-0.067 22.43,-0.019 22.548,0.079C22.643,0.16 22.692,0.321 22.692,0.558C22.692,1.084 22.508,1.653 22.144,2.249Z" style="fill:rgb(195,122,81);fill-rule:nonzero;"/>
            </g>
            <g transform="matrix(1,0,0,1,80.28,298.545)">
                <path d="M8.574,-14.025L2.642,-14.025C2.51,-14.025 2.402,-13.911 2.402,-13.771L2.402,-3.328L-2.401,-3.328L-2.401,-13.771C-2.401,-13.911 -2.509,-14.025 -2.642,-14.025L-8.574,-14.025C-8.707,-14.025 -8.815,-13.911 -8.815,-13.771L-8.815,13.772C-8.815,13.912 -8.707,14.025 -8.574,14.025L-2.642,14.025C-2.509,14.025 -2.401,13.912 -2.401,13.772L-2.401,3.032L2.402,3.032L2.402,13.772C2.402,13.912 2.51,14.025 2.642,14.025L8.574,14.025C8.707,14.025 8.815,13.912 8.815,13.772L8.815,-13.771C8.815,-13.911 8.707,-14.025 8.574,-14.025Z" style="fill:rgb(176,220,0);fill-rule:nonzero;"/>
            </g>
            <g transform="matrix(1,0,0,1,104.092,298.545)">
                <path d="M7.495,-10.41C6.701,-11.73 5.662,-12.76 4.409,-13.474C3.161,-14.184 1.67,-14.544 -0.019,-14.544C-3.303,-14.544 -5.793,-13.227 -7.417,-10.628C-8.955,-8.167 -9.734,-4.591 -9.734,-0.001C-9.734,2.124 -9.562,4.075 -9.219,5.797C-8.868,7.581 -8.301,9.132 -7.533,10.407C-6.739,11.727 -5.708,12.757 -4.469,13.47C-3.231,14.183 -1.734,14.544 -0.019,14.544C3.215,14.544 5.697,13.229 7.356,10.636C8.934,8.172 9.734,4.594 9.734,-0.001C9.734,-2.118 9.554,-4.07 9.198,-5.803C8.836,-7.58 8.263,-9.129 7.495,-10.41Z" style="fill:rgb(176,220,0);fill-rule:nonzero;"/>
            </g>
            <g transform="matrix(1,0,0,1,104.092,298.545)">
                <path d="M-3.109,-0.001C-3.109,-5.43 -2.07,-8.184 -0.019,-8.184C0.518,-8.184 0.942,-8.031 1.278,-7.718C1.682,-7.343 2.017,-6.811 2.276,-6.135C2.563,-5.383 2.774,-4.48 2.903,-3.449C3.039,-2.383 3.108,-1.223 3.108,-0.001C3.108,3.045 2.796,5.255 2.181,6.565C1.657,7.685 0.979,8.184 -0.019,8.184C-0.533,8.184 -0.94,8.037 -1.264,7.734C-1.66,7.367 -1.998,6.84 -2.269,6.169C-2.563,5.446 -2.777,4.556 -2.906,3.523C-3.041,2.445 -3.109,1.26 -3.109,-0.001Z" style="fill:rgb(195,122,81);fill-rule:nonzero;"/>
            </g>
            <g transform="matrix(1,0,0,1,126.647,298.545)">
                <path d="M7.318,7.663L-1.146,7.663L-1.146,-13.771C-1.146,-13.911 -1.254,-14.025 -1.387,-14.025L-7.319,-14.025C-7.451,-14.025 -7.559,-13.911 -7.559,-13.771L-7.559,13.772C-7.559,13.912 -7.451,14.025 -7.319,14.025L7.318,14.025C7.451,14.025 7.559,13.912 7.559,13.772L7.559,7.916C7.559,7.777 7.451,7.663 7.318,7.663Z" style="fill:rgb(176,220,0);fill-rule:nonzero;"/>
            </g>
            <g transform="matrix(1,0,0,1,145.242,301.205)">
                <path d="M7.966,6.885L7.792,6.824L-0.653,7.42L-2.023,-13.966L-2.105,-14.141L-2.279,-14.202L-8.197,-13.785C-8.329,-13.775 -8.431,-13.655 -8.421,-13.516L-6.661,13.966L-6.578,14.14L-6.422,14.202L-6.405,14.202L8.198,13.17C8.331,13.161 8.431,13.04 8.422,12.901L8.047,7.06L7.966,6.885Z" style="fill:rgb(176,220,0);fill-rule:nonzero;"/>
            </g>
            <g transform="matrix(1,0,0,1,162.577,298.545)">
                <path d="M10.017,-14.025L3.604,-14.025C3.502,-14.025 3.412,-13.957 3.377,-13.857L0.291,-4.848L-2.852,-13.859C-2.887,-13.959 -2.978,-14.025 -3.078,-14.025L-10.018,-14.025L-10.219,-13.91L-10.238,-13.673L-3.227,3.552L-3.227,13.772C-3.227,13.912 -3.118,14.025 -2.986,14.025L2.948,14.025C3.08,14.025 3.188,13.912 3.188,13.772L3.188,3.518L10.238,-13.672L10.218,-13.91L10.017,-14.025Z" style="fill:rgb(176,220,0);fill-rule:nonzero;"/>
            </g>
            <g transform="matrix(1,0,0,1,187.74,299.722)">
                <path d="M13.573,-15.2L7.527,-14.546C7.409,-14.534 7.318,-14.433 7.31,-14.309L6.631,-1.919L2.683,-13.827C2.647,-13.938 2.541,-14.011 2.432,-13.995L-1.818,-13.535C-1.928,-13.523 -2.017,-13.434 -2.033,-13.319L-3.691,-0.742L-6.954,-12.77C-6.986,-12.888 -7.102,-12.969 -7.211,-12.952L-13.631,-12.258L-13.809,-12.143L-13.836,-11.927L-5.312,15.028C-5.279,15.132 -5.186,15.2 -5.083,15.2L-5.059,15.199L-0.629,14.719C-0.518,14.708 -0.43,14.619 -0.414,14.506L1.474,1.041L5.935,13.818C5.973,13.927 6.077,13.998 6.185,13.983L10.477,13.518C10.59,13.507 10.679,13.414 10.693,13.296L13.836,-14.92L13.767,-15.126L13.573,-15.2Z" style="fill:rgb(114,66,56);fill-rule:nonzero;"/>
            </g>
            <g transform="matrix(1,0,0,1,187.74,299.722)">
                <path d="M13.573,-15.2L7.527,-14.546C7.409,-14.534 7.318,-14.433 7.31,-14.309L6.631,-1.919L2.683,-13.827C2.647,-13.938 2.541,-14.011 2.432,-13.995L-1.818,-13.535C-1.928,-13.523 -2.017,-13.434 -2.033,-13.319L-3.691,-0.742L-6.954,-12.77C-6.986,-12.888 -7.102,-12.969 -7.211,-12.952L-13.631,-12.258L-13.809,-12.143L-13.836,-11.927L-5.312,15.028C-5.279,15.132 -5.186,15.2 -5.083,15.2L-5.059,15.199L-0.629,14.719C-0.518,14.708 -0.43,14.619 -0.414,14.506L1.474,1.041L5.935,13.818C5.973,13.927 6.077,13.998 6.185,13.983L10.477,13.518C10.59,13.507 10.679,13.414 10.693,13.296L13.836,-14.92L13.767,-15.126L13.573,-15.2Z" style="fill:rgb(176,220,0);fill-opacity:0.55;fill-rule:nonzero;"/>
            </g>
            <g transform="matrix(1,0,0,1,213.88,298.545)">
                <path d="M7.495,-10.41C6.701,-11.729 5.663,-12.76 4.411,-13.474C3.162,-14.184 1.672,-14.544 -0.018,-14.544C-3.303,-14.544 -5.791,-13.227 -7.416,-10.628C-8.954,-8.166 -9.734,-4.59 -9.734,-0.001C-9.734,2.119 -9.561,4.07 -9.218,5.797C-8.867,7.58 -8.3,9.13 -7.532,10.407C-6.739,11.726 -5.708,12.757 -4.468,13.47C-3.231,14.183 -1.733,14.544 -0.018,14.544C3.216,14.544 5.697,13.229 7.356,10.636C8.935,8.174 9.734,4.595 9.734,-0.001C9.734,-2.118 9.555,-4.07 9.199,-5.803C8.836,-7.582 8.263,-9.132 7.495,-10.41Z" style="fill:rgb(176,220,0);fill-rule:nonzero;"/>
            </g>
            <g transform="matrix(1,0,0,1,213.88,298.545)">
                <path d="M-3.108,-0.001C-3.108,-5.43 -2.068,-8.184 -0.018,-8.184C0.518,-8.184 0.943,-8.031 1.279,-7.718C1.683,-7.343 2.017,-6.811 2.276,-6.135C2.564,-5.387 2.776,-4.483 2.904,-3.449C3.04,-2.383 3.108,-1.223 3.108,-0.001C3.108,3.047 2.796,5.257 2.182,6.565C1.658,7.685 0.98,8.184 -0.018,8.184C-0.532,8.184 -0.94,8.037 -1.264,7.734C-1.658,7.368 -1.996,6.842 -2.268,6.169C-2.562,5.445 -2.776,4.555 -2.904,3.523C-3.04,2.453 -3.108,1.267 -3.108,-0.001Z" style="fill:rgb(195,122,81);fill-rule:nonzero;"/>
            </g>
            <g transform="matrix(1,0,0,1,238.044,298.545)">
                <path d="M7.496,-10.41C6.7,-11.73 5.662,-12.761 4.41,-13.474C3.161,-14.184 1.671,-14.544 -0.018,-14.544C-3.303,-14.544 -5.792,-13.227 -7.417,-10.628C-8.954,-8.167 -9.734,-4.591 -9.734,-0.001C-9.734,2.124 -9.561,4.075 -9.218,5.797C-8.867,7.581 -8.3,9.132 -7.532,10.407C-6.738,11.727 -5.707,12.757 -4.468,13.47C-3.23,14.183 -1.733,14.544 -0.018,14.544C3.216,14.544 5.698,13.229 7.357,10.636C8.934,8.173 9.734,4.595 9.734,-0.001C9.734,-2.121 9.555,-4.073 9.199,-5.803C8.837,-7.58 8.264,-9.129 7.496,-10.41Z" style="fill:rgb(113,66,56);fill-rule:nonzero;"/>
            </g>
            <g transform="matrix(1,0,0,1,238.044,298.545)">
                <path d="M-3.109,-0.001C-3.109,-5.43 -2.069,-8.184 -0.018,-8.184C0.518,-8.184 0.943,-8.031 1.279,-7.718C1.683,-7.343 2.018,-6.811 2.277,-6.135C2.564,-5.383 2.775,-4.48 2.904,-3.449C3.04,-2.383 3.108,-1.223 3.108,-0.001C3.108,3.045 2.796,5.255 2.182,6.565C1.658,7.685 0.98,8.184 -0.018,8.184C-0.532,8.184 -0.94,8.037 -1.264,7.734C-1.659,7.367 -1.997,6.84 -2.268,6.169C-2.562,5.446 -2.776,4.556 -2.905,3.523C-3.041,2.445 -3.109,1.26 -3.109,-0.001Z" style="fill:rgb(195,122,81);fill-rule:nonzero;"/>
            </g>
            <g transform="matrix(1,0,0,1,262.157,298.562)">
                <path d="M6.754,-10.366C5.869,-11.656 4.681,-12.668 3.221,-13.372C1.79,-14.063 0.003,-14.414 -2.089,-14.414C-2.495,-14.414 -2.963,-14.407 -3.492,-14.395C-4.024,-14.381 -4.571,-14.356 -5.14,-14.32L-6.772,-14.207C-7.316,-14.169 -7.828,-14.109 -8.297,-14.028L-8.914,-13.921C-9.03,-13.901 -9.116,-13.795 -9.116,-13.672L-9.116,13.677C-9.116,13.801 -9.03,13.908 -8.912,13.927L-8.294,14.031C-7.983,14.084 -7.547,14.132 -6.998,14.173L-5.37,14.282C-4.798,14.32 -4.249,14.351 -3.725,14.377C-3.185,14.403 -2.76,14.414 -2.442,14.414C-0.216,14.414 1.673,14.002 3.174,13.187C4.681,12.369 5.899,11.249 6.791,9.859C7.659,8.505 8.275,6.918 8.619,5.143C8.949,3.433 9.116,1.622 9.116,-0.24C9.116,-2.279 8.942,-4.165 8.597,-5.843C8.24,-7.586 7.62,-9.107 6.754,-10.366Z" style="fill:rgb(114,66,56);fill-rule:nonzero;"/>
            </g>
            <g transform="matrix(1,0,0,1,262.157,298.562)">
                <path d="M6.754,-10.366C5.869,-11.656 4.681,-12.668 3.221,-13.372C1.79,-14.063 0.003,-14.414 -2.089,-14.414C-2.495,-14.414 -2.963,-14.407 -3.492,-14.395C-4.024,-14.381 -4.571,-14.356 -5.14,-14.32L-6.772,-14.207C-7.316,-14.169 -7.828,-14.109 -8.297,-14.028L-8.914,-13.921C-9.03,-13.901 -9.116,-13.795 -9.116,-13.672L-9.116,13.677C-9.116,13.801 -9.03,13.908 -8.912,13.927L-8.294,14.031C-7.983,14.084 -7.547,14.132 -6.998,14.173L-5.37,14.282C-4.798,14.32 -4.249,14.351 -3.725,14.377C-3.185,14.403 -2.76,14.414 -2.442,14.414C-0.216,14.414 1.673,14.002 3.174,13.187C4.681,12.369 5.899,11.249 6.791,9.859C7.659,8.505 8.275,6.918 8.619,5.143C8.949,3.433 9.116,1.622 9.116,-0.24C9.116,-2.279 8.942,-4.165 8.597,-5.843C8.24,-7.586 7.62,-9.107 6.754,-10.366Z" style="fill:rgb(193,241,0);fill-rule:nonzero;"/>
            </g>
            <g transform="matrix(1,0,0,1,262.157,298.562)">
                <path d="M2.49,-0.315C2.49,0.868 2.415,2.013 2.269,3.086C2.13,4.105 1.885,5.012 1.539,5.784C1.222,6.493 0.798,7.045 0.241,7.469C-0.272,7.858 -0.961,8.055 -1.805,8.055C-1.862,8.055 -1.96,8.049 -2.113,8.037L-2.703,8L-2.703,-8.036C-1.557,-8.07 -0.311,-8.034 0.421,-7.51C0.952,-7.126 1.353,-6.627 1.647,-5.984C1.966,-5.279 2.187,-4.44 2.304,-3.49C2.427,-2.477 2.49,-1.408 2.49,-0.315Z" style="fill:rgb(195,122,81);fill-rule:nonzero;"/>
            </g>
            <g transform="matrix(1,0,0,1,294.689,298.545)">
                <path d="M8.822,-14.025L-8.822,-14.025C-8.954,-14.025 -9.062,-13.911 -9.062,-13.771L-9.062,-7.916C-9.062,-7.776 -8.954,-7.663 -8.822,-7.663L-3.19,-7.663L-3.19,13.772C-3.19,13.912 -3.082,14.025 -2.95,14.025L2.983,14.025C3.116,14.025 3.224,13.912 3.224,13.772L3.224,-7.663L8.822,-7.663C8.955,-7.663 9.062,-7.776 9.062,-7.916L9.062,-13.771C9.062,-13.911 8.955,-14.025 8.822,-14.025Z" style="fill:rgb(176,220,0);fill-rule:nonzero;"/>
            </g>
            <g transform="matrix(1,0,0,1,316.378,298.545)">
                <path d="M7.496,-10.41C6.7,-11.73 5.662,-12.761 4.41,-13.474C3.162,-14.184 1.672,-14.544 -0.017,-14.544C-3.302,-14.544 -5.791,-13.227 -7.416,-10.628C-8.954,-8.167 -9.734,-4.591 -9.734,-0.001C-9.734,2.122 -9.561,4.073 -9.219,5.797C-8.866,7.582 -8.298,9.133 -7.532,10.407C-6.739,11.726 -5.707,12.757 -4.468,13.47C-3.23,14.183 -1.733,14.544 -0.017,14.544C3.215,14.544 5.697,13.229 7.358,10.636C8.935,8.173 9.734,4.595 9.734,-0.001C9.734,-2.117 9.555,-4.069 9.2,-5.803C8.838,-7.58 8.264,-9.129 7.496,-10.41Z" style="fill:rgb(176,220,0);fill-rule:nonzero;"/>
            </g>
            <g transform="matrix(1,0,0,1,316.378,298.545)">
                <path d="M3.109,-0.001C3.109,3.045 2.797,5.255 2.182,6.565C1.659,7.684 0.98,8.184 -0.017,8.184C-0.532,8.184 -0.939,8.037 -1.264,7.734C-1.659,7.368 -1.996,6.842 -2.267,6.169C-2.562,5.443 -2.776,4.552 -2.904,3.523C-3.04,2.453 -3.108,1.267 -3.108,-0.001C-3.108,-5.43 -2.069,-8.184 -0.017,-8.184C0.519,-8.184 0.943,-8.031 1.28,-7.718C1.682,-7.344 2.018,-6.812 2.277,-6.135C2.565,-5.387 2.776,-4.483 2.903,-3.449C3.04,-2.378 3.109,-1.218 3.109,-0.001Z" style="fill:rgb(195,122,81);fill-rule:nonzero;"/>
            </g>
            <g transform="matrix(1,0,0,1,342.596,298.638)">
                <path d="M13.674,-14.118L7.597,-14.118C7.479,-14.118 7.379,-14.027 7.36,-13.905L5.473,-1.653L2.709,-13.923C2.684,-14.036 2.587,-14.118 2.475,-14.118L-1.798,-14.118C-1.909,-14.118 -2.006,-14.037 -2.033,-13.925L-4.909,-1.593L-6.982,-13.908C-7.003,-14.029 -7.102,-14.118 -7.219,-14.118L-13.674,-14.118L-13.862,-14.023L-13.909,-13.81L-8.062,13.919C-8.037,14.034 -7.94,14.118 -7.827,14.118L-3.373,14.118C-3.263,14.118 -3.167,14.039 -3.14,13.927L0.053,0.736L3.244,13.927C3.271,14.039 3.367,14.118 3.477,14.118L7.792,14.118C7.905,14.118 8.003,14.034 8.027,13.919L13.909,-13.81L13.862,-14.022L13.674,-14.118Z" style="fill:rgb(176,220,0);fill-rule:nonzero;"/>
            </g>
            <g transform="matrix(1,0,0,1,367.733,298.545)">
                <path d="M7,7.663L-0.828,7.663L-0.828,3.032L6.114,3.032C6.247,3.032 6.355,2.92 6.355,2.78L6.355,-3.076C6.355,-3.215 6.247,-3.328 6.114,-3.328L-0.828,-3.328L-0.828,-7.663L6.859,-7.663C6.991,-7.663 7.1,-7.776 7.1,-7.916L7.1,-13.771C7.1,-13.911 6.991,-14.025 6.859,-14.025L-7,-14.025C-7.132,-14.025 -7.24,-13.911 -7.24,-13.771L-7.24,13.772C-7.24,13.912 -7.132,14.025 -7,14.025L7,14.025C7.132,14.025 7.24,13.912 7.24,13.772L7.24,7.916C7.24,7.777 7.132,7.663 7,7.663Z" style="fill:rgb(176,220,0);fill-rule:nonzero;"/>
            </g>
            <g transform="matrix(1,0,0,1,389.398,298.314)">
                <path d="M9.092,13.892L4.019,2.831L3.966,2.756L3.492,2.292C4.348,1.693 5.064,0.882 5.626,-0.121C6.455,-1.599 6.875,-3.504 6.875,-5.786C6.875,-7.398 6.608,-8.772 6.08,-9.872C5.546,-10.974 4.836,-11.862 3.971,-12.507C3.12,-13.146 2.133,-13.589 1.037,-13.827C-0.704,-14.204 -2.362,-14.254 -5.083,-14.013C-6.234,-13.91 -7.324,-13.74 -8.324,-13.51L-8.903,-13.375C-9.014,-13.349 -9.092,-13.248 -9.092,-13.129L-9.092,14.002C-9.092,14.142 -8.983,14.255 -8.851,14.255L-2.919,14.255C-2.787,14.255 -2.679,14.142 -2.679,14.002L-2.679,3.799L-2.443,3.859L1.872,14.105C1.911,14.196 1.997,14.255 2.092,14.255L8.874,14.255L9.079,14.136L9.092,13.892Z" style="fill:rgb(176,220,0);fill-rule:nonzero;"/>
            </g>
            <g transform="matrix(1,0,0,1,389.398,298.314)">
                <path d="M0.249,-5.043C0.249,-3.813 0.04,-2.93 -0.371,-2.418C-0.744,-1.952 -1.32,-1.724 -2.134,-1.724L-2.679,-1.724L-2.679,-7.775C-2.366,-7.794 -2.043,-7.804 -1.71,-7.804C-1.028,-7.804 -0.561,-7.602 -0.281,-7.184C0.07,-6.658 0.249,-5.939 0.249,-5.043Z" style="fill:rgb(195,122,81);fill-rule:nonzero;"/>
            </g>
            <g transform="matrix(1,0,0,1,341.496,335.873)">
                <path d="M51.176,3.645C50.208,5.002 49.212,6.316 48.214,7.553C47.208,8.8 46.173,9.996 45.133,11.104C44.031,12.281 42.984,13.21 42.02,13.868C40.879,14.646 40.236,14.81 39.898,14.81C39.696,14.81 39.42,14.81 39.42,14.072C39.42,13.387 39.723,12.458 40.319,11.309C40.948,10.096 41.808,8.549 42.872,6.715L56.09,-15.747L50.442,-15.422L39.898,3.053L39.893,3.049L39.592,3.466C38.858,4.482 35.682,10.423 36.309,9.736C36.253,9.855 36.186,9.991 36.135,10.102C35.538,11.428 35.246,12.509 35.246,13.408C35.246,14.824 35.809,16.512 38.492,16.512C39.895,16.512 41.262,16.056 42.557,15.156C43.808,14.285 45.259,12.956 46.865,11.211C47.334,10.713 47.822,10.147 48.317,9.529C48.8,8.925 49.277,8.32 49.748,7.714C50.22,7.107 50.672,6.507 51.101,5.914C51.53,5.323 51.911,4.791 52.243,4.317L52.595,3.817L51.363,3.382L51.176,3.645Z" style="fill:rgb(255,195,214);fill-rule:nonzero;"/>
            </g>
            <g transform="matrix(1,0,0,1,341.496,335.873)">
                <path d="M15.771,10.7C14.503,11.994 13.301,13.023 12.201,13.755C11.146,14.455 10.305,14.81 9.701,14.81C9.397,14.81 9.271,14.699 9.201,14.615C9.077,14.463 9.017,14.257 9.017,13.984C9.017,13.604 9.124,13.143 9.335,12.614C9.564,12.04 9.933,11.258 10.432,10.292C10.94,9.31 11.626,8.069 12.471,6.601C13.296,5.166 14.303,3.406 15.49,1.323L20.849,1.323L21.648,-0.379L16.482,-0.379L19.935,-6.152L14.413,-5.933L11.314,-0.379L8.079,-0.379L7.461,1.323L10.445,1.323C9.758,2.573 9.109,3.704 8.509,4.688C8.386,4.891 8.271,5.082 8.154,5.276C8.028,5.382 7.902,5.485 7.779,5.572C7.187,5.994 6.576,6.199 5.913,6.199C5.257,6.199 4.744,5.986 4.343,5.547C3.923,5.085 3.649,4.453 3.526,3.664C3.317,2.364 2.746,1.239 1.826,0.321C0.892,-0.612 -0.391,-1.086 -1.989,-1.086C-3.418,-1.086 -4.894,-0.754 -6.376,-0.1C-7.845,0.549 -9.206,1.434 -10.421,2.534C-11.642,3.642 -12.649,4.948 -13.413,6.414C-13.974,7.491 -14.328,8.616 -14.486,9.772C-15.17,10.575 -15.86,11.324 -16.533,12C-17.2,12.67 -17.846,13.216 -18.452,13.623C-19.43,14.28 -20.265,14.322 -20.74,13.968C-20.964,13.801 -21.138,13.591 -21.272,13.327C-21.417,13.043 -21.52,12.725 -21.579,12.379C-21.643,12.013 -21.675,11.647 -21.675,11.29C-21.675,9.689 -21.43,7.955 -20.946,6.135C-20.461,4.304 -19.822,2.453 -19.046,0.635C-18.27,-1.176 -17.37,-2.915 -16.368,-4.535C-15.368,-6.152 -14.351,-7.558 -13.353,-8.711C-12.834,-9.294 -12.252,-9.916 -11.608,-10.573C-10.976,-11.22 -10.284,-11.828 -9.548,-12.384C-8.82,-12.935 -8.015,-13.4 -7.156,-13.766C-6.315,-14.125 -5.403,-14.307 -4.444,-14.307C-3.926,-14.307 -3.539,-14.164 -3.263,-13.868C-2.926,-13.509 -2.618,-13.102 -2.346,-12.659C-2.044,-12.17 -1.734,-11.724 -1.426,-11.337C-1.039,-10.846 -0.523,-10.597 0.107,-10.597C0.665,-10.597 1.163,-10.76 1.584,-11.083C1.901,-11.327 2.277,-11.795 2.277,-12.641C2.277,-13.279 2.089,-13.833 1.716,-14.285C1.377,-14.696 0.948,-15.039 0.444,-15.3C-0.042,-15.552 -0.596,-15.736 -1.204,-15.848C-1.793,-15.955 -2.354,-16.01 -2.871,-16.01C-4.954,-16.01 -7.039,-15.59 -9.069,-14.764C-11.085,-13.942 -13.006,-12.814 -14.776,-11.414C-16.546,-10.016 -18.191,-8.366 -19.667,-6.508C-21.083,-4.728 -22.299,-2.816 -23.282,-0.821L-28.489,-0.821C-27.779,-2.158 -27.071,-3.501 -26.361,-4.85C-25.548,-6.398 -24.643,-7.848 -23.67,-9.162C-22.702,-10.465 -21.587,-11.633 -20.355,-12.635C-19.149,-13.614 -17.729,-14.355 -16.132,-14.837C-15.842,-14.835 -15.581,-14.82 -15.348,-14.795C-15.072,-14.764 -14.774,-14.749 -14.455,-14.749C-13.161,-14.749 -12.745,-14.853 -12.544,-14.931C-12.117,-15.1 -11.871,-15.442 -11.871,-15.865C-11.871,-16.035 -11.936,-16.284 -12.247,-16.507C-12.632,-16.778 -13.261,-16.74 -13.953,-16.646C-14.269,-16.601 -14.671,-16.549 -15.165,-16.492C-15.655,-16.433 -16.269,-16.384 -17.002,-16.34C-17.733,-16.297 -18.684,-16.275 -19.832,-16.275C-21.631,-16.275 -23.597,-16.2 -25.673,-16.052C-27.763,-15.904 -29.872,-15.642 -31.943,-15.274C-34.023,-14.903 -36.046,-14.401 -37.956,-13.781C-39.883,-13.154 -41.619,-12.369 -43.114,-11.443C-44.633,-10.505 -45.861,-9.363 -46.763,-8.05C-47.681,-6.712 -48.147,-5.151 -48.147,-3.414C-48.147,-1.646 -47.617,-0.2 -46.571,0.884C-45.527,1.967 -44.173,2.515 -42.544,2.515C-41.428,2.515 -40.34,2.346 -39.312,2.01C-38.272,1.669 -37.34,1.161 -36.546,0.497C-35.745,-0.171 -35.087,-1.015 -34.59,-2.01C-34.092,-3.015 -33.839,-4.199 -33.839,-5.532C-33.839,-6.012 -33.905,-6.526 -34.038,-7.06C-34.17,-7.593 -34.329,-8.043 -34.51,-8.396L-34.661,-8.695L-35.919,-8.426L-35.699,-7.908C-35.574,-7.616 -35.456,-7.247 -35.35,-6.814C-35.25,-6.394 -35.2,-5.963 -35.2,-5.532C-35.2,-4.656 -35.348,-3.839 -35.64,-3.103C-35.937,-2.361 -36.339,-1.709 -36.836,-1.167C-37.334,-0.622 -37.914,-0.195 -38.559,0.101C-39.204,0.398 -39.905,0.549 -40.641,0.549C-41.644,0.549 -42.401,0.206 -42.955,-0.5C-43.529,-1.234 -43.808,-2.144 -43.808,-3.281C-43.808,-4.879 -43.385,-6.272 -42.551,-7.422C-41.697,-8.603 -40.549,-9.64 -39.14,-10.506C-37.717,-11.381 -36.067,-12.1 -34.235,-12.646C-32.388,-13.196 -30.456,-13.639 -28.495,-13.959C-26.517,-14.28 -24.561,-14.509 -22.679,-14.638C-21.649,-14.71 -20.665,-14.763 -19.738,-14.797C-21.695,-13.948 -23.381,-13.027 -24.77,-12.047C-26.624,-10.737 -28.19,-9.331 -29.423,-7.865C-30.654,-6.404 -31.696,-4.843 -32.52,-3.23C-33.336,-1.637 -34.151,-0.002 -34.966,1.678C-35.772,3.342 -36.685,5.048 -37.68,6.748C-38.668,8.437 -39.976,10.156 -41.571,11.855C-42.656,13.016 -43.758,13.85 -44.845,14.339C-45.931,14.828 -47.23,15.074 -48.707,15.074C-49.884,15.074 -50.778,14.776 -51.367,14.186C-51.891,13.66 -52.184,12.83 -52.237,11.721C-51.225,11.475 -50.674,10.647 -50.674,9.346C-50.674,8.634 -50.913,8.028 -51.383,7.544C-51.852,7.062 -52.427,6.818 -53.093,6.818C-53.639,6.818 -54.112,6.946 -54.499,7.197C-54.871,7.438 -55.182,7.761 -55.421,8.153C-55.652,8.53 -55.825,8.963 -55.934,9.442C-56.037,9.901 -56.09,10.358 -56.09,10.803C-56.09,11.845 -55.808,12.749 -55.254,13.49C-54.723,14.199 -54.044,14.788 -53.235,15.243C-52.442,15.689 -51.59,16.017 -50.702,16.216C-49.823,16.412 -49.013,16.512 -48.294,16.512C-45.818,16.512 -43.581,16.061 -41.647,15.172C-39.723,14.288 -37.977,13.087 -36.457,11.6C-34.949,10.123 -33.577,8.393 -32.376,6.459C-31.229,4.606 -30.162,2.641 -29.203,0.616L-23.993,0.616C-24.623,2.049 -25.185,3.609 -25.666,5.262C-26.226,7.195 -26.511,9.135 -26.511,11.026C-26.511,11.764 -26.445,12.471 -26.316,13.125C-26.184,13.805 -25.956,14.419 -25.639,14.953C-25.309,15.503 -24.861,15.949 -24.307,16.277C-23.744,16.609 -23.047,16.778 -22.233,16.778C-20.938,16.778 -19.603,16.291 -18.265,15.33C-16.978,14.404 -15.718,13.271 -14.519,11.962C-14.376,13.305 -13.91,14.42 -13.087,15.258C-12.097,16.267 -10.771,16.778 -9.146,16.778C-7.66,16.778 -6.212,16.476 -4.845,15.882C-3.482,15.293 -2.231,14.479 -1.125,13.464C-0.022,12.453 0.932,11.258 1.712,9.914C2.345,8.82 2.839,7.654 3.186,6.439C3.454,6.713 3.738,6.945 4.035,7.131C4.57,7.468 5.202,7.637 5.913,7.637C6.232,7.637 6.542,7.59 6.846,7.521C6.77,7.657 6.691,7.795 6.618,7.927C6.072,8.913 5.639,9.831 5.328,10.661C5.006,11.52 4.843,12.372 4.843,13.189C4.843,14.412 5.246,15.291 6.042,15.805C6.77,16.274 7.626,16.512 8.584,16.512C9.267,16.512 9.973,16.369 10.682,16.085C11.365,15.813 12.074,15.436 12.786,14.964C13.489,14.499 14.194,13.952 14.882,13.336C15.567,12.725 16.626,9.787 15.771,10.7Z" style="fill:rgb(255,195,214);fill-rule:nonzero;"/>
            </g>
            <g transform="matrix(1,0,0,1,341.496,335.873)">
                <path d="M33.929,10.167C32.56,11.543 31.181,12.602 29.834,13.313C28.509,14.014 27.286,14.368 26.202,14.368C25.136,14.368 24.336,14.03 23.755,13.332C23.16,12.616 22.87,11.703 22.87,10.54C22.87,10.177 22.916,9.771 23.005,9.331C23.455,9.225 23.999,9.098 24.639,8.951C25.421,8.772 26.265,8.547 27.149,8.282C28.034,8.016 28.943,7.701 29.85,7.344C30.773,6.979 31.612,6.55 32.346,6.068C33.1,5.574 33.728,5.006 34.211,4.379C34.728,3.711 34.99,2.96 34.99,2.15C34.99,1.115 34.595,0.298 33.814,-0.275C33.079,-0.813 32.063,-1.086 30.794,-1.086C29.442,-1.086 27.997,-0.731 26.502,-0.031C25.024,0.66 23.646,1.575 22.405,2.689C22.212,2.862 22.033,3.046 21.849,3.227L21.832,3.211L21.758,3.317C20.799,4.279 19.968,5.346 19.297,6.507L19.181,6.738C18.999,6.964 18.826,7.192 18.641,7.416C17.593,8.681 17.7,10.474 18.1,10.015C18.064,10.322 18.035,10.63 18.035,10.937C18.035,12.642 18.535,14.053 19.519,15.135C20.511,16.224 21.868,16.778 23.555,16.778C25.142,16.778 26.856,16.419 28.651,15.71C30.444,15.002 32.336,13.702 34.275,11.842C35.006,11.125 34.994,9.089 33.929,10.167Z" style="fill:rgb(255,195,214);fill-rule:nonzero;"/>
            </g>
            <g transform="matrix(1,0,0,1,341.496,335.873)">
                <path d="M30.18,3.034C29.737,3.771 29.134,4.478 28.386,5.135C27.629,5.801 26.744,6.407 25.758,6.934C24.992,7.342 24.188,7.662 23.36,7.89C23.544,7.366 23.811,6.785 24.157,6.151C24.681,5.191 25.293,4.261 25.978,3.388C26.655,2.522 27.386,1.785 28.154,1.192C28.875,0.634 29.541,0.352 30.132,0.352C30.362,0.352 30.538,0.405 30.666,0.514C30.79,0.62 30.817,0.863 30.817,1.046C30.817,1.662 30.602,2.329 30.18,3.034Z" style="fill:rgb(195,122,81);fill-rule:nonzero;"/>
            </g>
            <g transform="matrix(1,0,0,1,341.496,335.873)">
                <path d="M-10.244,13.453C-10.244,12.874 -10.137,12.14 -9.926,11.269C-9.709,10.376 -9.403,9.433 -9.015,8.464C-8.62,7.476 -8.155,6.482 -7.631,5.508C-7.108,4.535 -6.531,3.651 -5.917,2.883C-5.312,2.123 -4.673,1.498 -4.018,1.023C-3.406,0.578 -2.792,0.352 -2.195,0.352C-1.703,0.352 -1.364,0.493 -1.158,0.785C-0.925,1.115 -0.808,1.604 -0.808,2.238C-0.808,2.819 -0.915,3.554 -1.126,4.424C-1.338,5.306 -1.644,6.25 -2.036,7.23C-2.425,8.205 -2.89,9.199 -3.419,10.184C-3.943,11.156 -4.519,12.039 -5.132,12.809C-5.739,13.568 -6.38,14.195 -7.033,14.67C-7.646,15.115 -8.259,15.34 -8.856,15.34C-9.349,15.34 -9.689,15.198 -9.894,14.906C-10.127,14.574 -10.244,14.086 -10.244,13.453Z" style="fill:rgb(195,122,81);fill-rule:nonzero;"/>
            </g>
        </g>
    </g>
</svg>
