<svg xmlns="http://www.w3.org/2000/svg" viewBox="0 0 197 97" width="197" height="97" preserveAspectRatio="xMidYMid meet" style="width: 100%; height: 100%; transform: translate3d(0px, 0px, 0px); content-visibility: visible;"><defs><clipPath id="__lottie_element_5072"><rect width="197" height="97" x="0" y="0"></rect></clipPath></defs><g clip-path="url(#__lottie_element_5072)"><g transform="matrix(1.9384855031967163,-0.10068442672491074,0.08873986452817917,1.7085161209106445,34.545448303222656,-14.338574409484863)" opacity="1" style="display: block;"><g opacity="1" transform="matrix(1,0,0,1,26.79400062561035,35.31399917602539)"><path fill="rgb(199,219,66)" fill-opacity="1" d=" M2.00600004196167,-1.6039999723434448 C2.4159998893737793,-1.1200000047683716 2.7699999809265137,-0.3799999952316284 2.7360000610351562,0.2709999978542328 C2.6659998893737793,1.6089999675750732 1.468000054359436,0.9950000047683716 1.2309999465942383,0.08699999749660492 C1.0360000133514404,0.8019999861717224 0.621999979019165,1.4579999446868896 0.05900000035762787,1.9390000104904175 C-0.2759999930858612,2.2249999046325684 -0.6790000200271606,2.4579999446868896 -1.1180000305175781,2.48799991607666 C-2.7699999809265137,2.6040000915527344 -2.4549999237060547,0.8069999814033508 -1.9539999961853027,-0.12700000405311584 C-1.430999994277954,-1.1050000190734863 -0.5410000085830688,-2.0980000495910645 0.45899999141693115,-2.6040000915527344 C0.45899999141693115,-2.6040000915527344 2.00600004196167,-1.6039999723434448 2.00600004196167,-1.6039999723434448z"></path></g><g opacity="1" transform="matrix(1,0,0,1,30.332000732421875,32.17399978637695)"><path stroke-linecap="butt" stroke-linejoin="miter" fill-opacity="0" stroke-miterlimit="10" stroke="rgb(0,150,215)" stroke-opacity="1" stroke-width="2.695" d=" M2.3570001125335693,-1.2450000047683716 C0.45100000500679016,-1.402999997138977 -1.5,-0.30799999833106995 -2.3570001125335693,1.4019999504089355"></path></g></g><g transform="matrix(1.9384855031967163,-0.10068442672491074,0.08873986452817917,1.7085161209106445,34.5464973449707,-14.33801555633545)" opacity="1" style="display: block;"><g opacity="1" transform="matrix(1,0,0,1,48.03799819946289,35.31399917602539)"><path fill="rgb(199,219,66)" fill-opacity="1" d=" M-2.00600004196167,-1.6039999723434448 C-2.4159998893737793,-1.1200000047683716 -2.7699999809265137,-0.3799999952316284 -2.7360000610351562,0.2709999978542328 C-2.6659998893737793,1.6089999675750732 -1.468000054359436,0.9950000047683716 -1.2309999465942383,0.08699999749660492 C-1.0360000133514404,0.8019999861717224 -0.621999979019165,1.4579999446868896 -0.05900000035762787,1.9390000104904175 C0.2759999930858612,2.2249999046325684 0.6790000200271606,2.4579999446868896 1.1180000305175781,2.48799991607666 C2.7699999809265137,2.6040000915527344 2.4549999237060547,0.8069999814033508 1.9539999961853027,-0.12700000405311584 C1.430999994277954,-1.1050000190734863 0.5410000085830688,-2.0980000495910645 -0.45899999141693115,-2.6040000915527344 C-0.45899999141693115,-2.6040000915527344 -2.00600004196167,-1.6039999723434448 -2.00600004196167,-1.6039999723434448z"></path></g><g opacity="1" transform="matrix(1,0,0,1,44.499000549316406,32.17399978637695)"><path stroke-linecap="butt" stroke-linejoin="miter" fill-opacity="0" stroke-miterlimit="10" stroke="rgb(0,150,215)" stroke-opacity="1" stroke-width="2.695" d=" M-2.3559999465942383,-1.2450000047683716 C-0.44999998807907104,-1.402999997138977 1.4989999532699585,-0.30799999833106995 2.3559999465942383,1.4019999504089355"></path></g></g><g transform="matrix(0.5266821980476379,-0.027355734258890152,0.024110423400998116,0.4642000198364258,77.37429809570312,12.87106990814209)" opacity="1" style="display: block;"><g opacity="1" transform="matrix(1,0,0,1,58.61399841308594,56.387001037597656)"><path fill="rgb(0,150,215)" fill-opacity="1" d=" M-17.33099937438965,24.645000457763672 C-20.7810001373291,17.0310001373291 -22.312000274658203,11.994999885559082 -22.305999755859375,1.2059999704360962 C-22.297000885009766,-11.73900032043457 -12.303000450134277,-24.667999267578125 0.01600000075995922,-24.660999298095703 C12.333999633789062,-24.652999877929688 22.312999725341797,-11.710000038146973 22.304000854492188,1.2339999675750732 C22.297000885009766,12.02299976348877 20.760000228881836,17.058000564575195 17.301000595092773,24.667999267578125 C17.301000595092773,24.667999267578125 -17.33099937438965,24.645000457763672 -17.33099937438965,24.645000457763672z"></path></g><g opacity="1" transform="matrix(1,0,0,1,58.62200164794922,43.402000427246094)"><path stroke-linecap="round" stroke-linejoin="round" fill-opacity="0" stroke="rgb(77,67,95)" stroke-opacity="1" stroke-width="4.882" d=" M-18.461999893188477,-0.012000000104308128 C-18.461999893188477,-0.012000000104308128 18.461999893188477,0.012000000104308128 18.461999893188477,0.012000000104308128"></path></g><g opacity="1" transform="matrix(1,0,0,1,58.645999908447266,3.8399999141693115)"><path fill="rgb(199,219,66)" fill-opacity="1" d=" M-3.5889999866485596,-0.0020000000949949026 C-3.5880000591278076,-1.9839999675750732 -1.9800000190734863,-3.5899999141693115 0.0020000000949949026,-3.5889999866485596 C1.9839999675750732,-3.5880000591278076 3.5899999141693115,-1.9800000190734863 3.5889999866485596,0.0020000000949949026 C3.5880000591278076,1.9839999675750732 1.9789999723434448,3.5899999141693115 -0.0020000000949949026,3.5889999866485596 C-1.9850000143051147,3.5880000591278076 -3.5899999141693115,1.9789999723434448 -3.5889999866485596,-0.0020000000949949026z"></path></g><g opacity="1" transform="matrix(1,0,0,1,58.63399887084961,13.82800006866455)"><path fill="rgb(199,219,66)" fill-opacity="1" d=" M1.350000023841858,-9.98799991607666 C1.350000023841858,-9.98799991607666 2.430999994277954,9.989999771118164 2.430999994277954,9.989999771118164 C2.430999994277954,9.989999771118164 -2.430999994277954,9.987000465393066 -2.430999994277954,9.987000465393066 C-2.430999994277954,9.987000465393066 -1.3240000009536743,-9.989999771118164 -1.3240000009536743,-9.989999771118164 C-1.3240000009536743,-9.989999771118164 1.350000023841858,-9.98799991607666 1.350000023841858,-9.98799991607666z"></path></g><g opacity="1" transform="matrix(1,0,0,1,58.62900161743164,30.98200035095215)"><path fill="rgb(199,219,66)" fill-opacity="1" d=" M-22.974000930786133,-0.014999999664723873 C-22.969999313354492,-7.625999927520752 -12.680000305175781,-13.788999557495117 0.00800000037997961,-13.781999588012695 C12.696999549865723,-13.77400016784668 22.979000091552734,-7.5970001220703125 22.974000930786133,0.014000000432133675 C22.969999313354492,7.625999927520752 12.680000305175781,13.788999557495117 -0.00800000037997961,13.781000137329102 C-12.696999549865723,13.77299976348877 -22.979000091552734,7.5960001945495605 -22.974000930786133,-0.014999999664723873z"></path></g><g opacity="1" transform="matrix(1,0,0,1,35.74599838256836,28.51799964904785)"><path fill="rgb(199,219,66)" fill-opacity="1" d=" M-2.4130001068115234,-7.255000114440918 C-2.4130001068115234,-7.255000114440918 4.296000003814697,4.359000205993652 4.296000003814697,4.359000205993652 C4.7789998054504395,5.196000099182129 4.4019999504089355,6.341000080108643 3.563999891281128,6.583000183105469 C3.563999891281128,6.583000183105469 -2.2909998893737793,8.272000312805176 -2.2909998893737793,8.272000312805176 C-3.0369999408721924,8.48799991607666 -3.7699999809265137,7.868000030517578 -3.828000068664551,6.9720001220703125 C-3.828000068664551,6.9720001220703125 -4.684000015258789,-6.333000183105469 -4.684000015258789,-6.333000183105469 C-4.7789998054504395,-7.817999839782715 -3.127000093460083,-8.48900032043457 -2.4130001068115234,-7.255000114440918z"></path></g><g opacity="1" transform="matrix(1,0,0,1,81.51799774169922,28.552000045776367)"><path fill="rgb(199,219,66)" fill-opacity="1" d=" M2.4210000038146973,-7.25600004196167 C2.4210000038146973,-7.25600004196167 -4.302999973297119,4.349999904632568 -4.302999973297119,4.349999904632568 C-4.7870001792907715,5.185999870300293 -4.4120001792907715,6.329999923706055 -3.572999954223633,6.572999954223633 C-3.572999954223633,6.572999954223633 2.2780001163482666,8.270999908447266 2.2780001163482666,8.270999908447266 C3.0250000953674316,8.48799991607666 3.759000062942505,7.868000030517578 3.818000078201294,6.9730000495910645 C3.818000078201294,6.9730000495910645 4.690999984741211,-6.330999851226807 4.690999984741211,-6.330999851226807 C4.7870001792907715,-7.816999912261963 3.135999917984009,-8.48900032043457 2.4210000038146973,-7.25600004196167z"></path></g><g opacity="1" transform="matrix(0.31780722737312317,-0.1978483647108078,0.1978483647108078,0.31780722737312317,45.53300094604492,28.854000091552734)"><path fill="rgb(245,245,235)" fill-opacity="1" d=" M16.5,0 C16.5,0 16.5,0 16.5,0 C16.5,7.450650215148926 10.450650215148926,13.5 3,13.5 C3,13.5 -3,13.5 -3,13.5 C-10.450650215148926,13.5 -16.5,7.450650215148926 -16.5,0 C-16.5,0 -16.5,0 -16.5,0 C-16.5,-7.450650215148926 -10.450650215148926,-13.5 -3,-13.5 C-3,-13.5 3,-13.5 3,-13.5 C10.450650215148926,-13.5 16.5,-7.450650215148926 16.5,0z"></path></g><g opacity="1" transform="matrix(0.31780722737312317,-0.1978483647108078,0.1978483647108078,0.31780722737312317,46.03300094604492,30.104000091552734)"><path fill="rgb(77,67,95)" fill-opacity="1" d=" M8,0 C8,0 8,0 8,0 C8,4.415200233459473 4.415200233459473,8 0,8 C0,8 0,8 0,8 C-4.415200233459473,8 -8,4.415200233459473 -8,0 C-8,0 -8,0 -8,0 C-8,-4.415200233459473 -4.415200233459473,-8 0,-8 C0,-8 0,-8 0,-8 C4.415200233459473,-8 8,-4.415200233459473 8,0z"></path></g><g opacity="1" transform="matrix(0.3736388087272644,-0.023225853219628334,0.023225853219628334,0.3736388087272644,58.606998443603516,25.084999084472656)"><path fill="rgb(245,245,235)" fill-opacity="1" d=" M16.5,0 C16.5,0 16.5,0 16.5,0 C16.5,7.450650215148926 10.450650215148926,13.5 3,13.5 C3,13.5 -3,13.5 -3,13.5 C-10.450650215148926,13.5 -16.5,7.450650215148926 -16.5,0 C-16.5,0 -16.5,0 -16.5,0 C-16.5,-7.450650215148926 -10.450650215148926,-13.5 -3,-13.5 C-3,-13.5 3,-13.5 3,-13.5 C10.450650215148926,-13.5 16.5,-7.450650215148926 16.5,0z"></path></g><g opacity="1" transform="matrix(0.3736388087272644,-0.023225853219628334,0.023225853219628334,0.3736388087272644,58.606998443603516,26.084999084472656)"><path fill="rgb(77,67,95)" fill-opacity="1" d=" M8,0 C8,0 8,0 8,0 C8,4.415200233459473 4.415200233459473,8 0,8 C0,8 0,8 0,8 C-4.415200233459473,8 -8,4.415200233459473 -8,0 C-8,0 -8,0 -8,0 C-8,-4.415200233459473 -4.415200233459473,-8 0,-8 C0,-8 0,-8 0,-8 C4.415200233459473,-8 8,-4.415200233459473 8,0z"></path></g><g opacity="1" transform="matrix(0.33107247948646545,0.17474675178527832,-0.17474675178527832,0.33107247948646545,71.67500305175781,29.209999084472656)"><path fill="rgb(245,245,235)" fill-opacity="1" d=" M16.5,0 C16.5,0 16.5,0 16.5,0 C16.5,7.450650215148926 10.450650215148926,13.5 3,13.5 C3,13.5 -3,13.5 -3,13.5 C-10.450650215148926,13.5 -16.5,7.450650215148926 -16.5,0 C-16.5,0 -16.5,0 -16.5,0 C-16.5,-7.450650215148926 -10.450650215148926,-13.5 -3,-13.5 C-3,-13.5 3,-13.5 3,-13.5 C10.450650215148926,-13.5 16.5,-7.450650215148926 16.5,0z"></path></g><g opacity="1" transform="matrix(0.33107247948646545,0.17474675178527832,-0.17474675178527832,0.33107247948646545,71.17500305175781,29.959999084472656)"><path fill="rgb(77,67,95)" fill-opacity="1" d=" M8,0 C8,0 8,0 8,0 C8,4.415200233459473 4.415200233459473,8 0,8 C0,8 0,8 0,8 C-4.415200233459473,8 -8,4.415200233459473 -8,0 C-8,0 -8,0 -8,0 C-8,-4.415200233459473 -4.415200233459473,-8 0,-8 C0,-8 0,-8 0,-8 C4.415200233459473,-8 8,-4.415200233459473 8,0z"></path></g><g opacity="1" transform="matrix(1,0,0,1,59.66400146484375,38.67599868774414)"><path fill="rgb(0,133,69)" fill-opacity="1" d=" M9.630000114440918,-1.0959999561309814 C5.940000057220459,0.2240000069141388 2.0350000858306885,1.1360000371932983 -1.1579999923706055,1.1030000448226929 C-3.5969998836517334,1.0779999494552612 -8.121999740600586,0.8759999871253967 -11.817000389099121,-0.9649999737739563 C-8.381999969482422,0.6159999966621399 -4.486000061035156,0.8759999871253967 -1.1579999923706055,0.8759999871253967 C1.7740000486373901,0.8759999871253967 5.940000057220459,0.6150000095367432 9.630000114440918,-1.0959999561309814z"></path><path stroke-linecap="round" stroke-linejoin="round" fill-opacity="0" stroke="rgb(0,133,69)" stroke-opacity="1" stroke-width="1.953" d=" M9.630000114440918,-1.0959999561309814 C5.940000057220459,0.2240000069141388 2.0350000858306885,1.1360000371932983 -1.1579999923706055,1.1030000448226929 C-3.5969998836517334,1.0779999494552612 -8.121999740600586,0.8759999871253967 -11.817000389099121,-0.9649999737739563 C-8.381999969482422,0.6159999966621399 -4.486000061035156,0.8759999871253967 -1.1579999923706055,0.8759999871253967 C1.7740000486373901,0.8759999871253967 5.940000057220459,0.6150000095367432 9.630000114440918,-1.0959999561309814z"></path></g><g opacity="1" transform="matrix(1,0,0,1,58.611000061035156,63.573001861572266)"><path fill="rgb(17,128,195)" fill-opacity="1" d=" M21.659000396728516,3.989000082015991 C21.659000396728516,3.989000082015991 -21.66699981689453,3.9619998931884766 -21.66699981689453,3.9619998931884766 C-22.020000457763672,1.6490000486373901 -22.207000732421875,-0.9599999785423279 -22.267000198364258,-3.989000082015991 C-22.267000198364258,-3.989000082015991 22.267000198364258,-3.9600000381469727 22.267000198364258,-3.9600000381469727 C22.20400047302246,-0.9330000281333923 22.01300048828125,1.6759999990463257 21.659000396728516,3.989000082015991z"></path></g><g opacity="1" transform="matrix(1,0,0,1,77.24400329589844,77.53600311279297)"><path fill="rgb(77,67,95)" fill-opacity="1" d=" M2.053999900817871,-5.376999855041504 C2.053999900817871,-5.376999855041504 -7.156000137329102,-4.6620001792907715 -13.838000297546387,3.51200008392334 C-13.838000297546387,3.51200008392334 8.916999816894531,5.376999855041504 11.376999855041504,4.738999843597412 C13.838000297546387,4.10099983215332 11.932000160217285,-0.28700000047683716 2.053999900817871,-5.376999855041504z"></path></g><g opacity="1" transform="matrix(1,0,0,1,39.95199966430664,77.50499725341797)"><path fill="rgb(77,67,95)" fill-opacity="1" d=" M-2.0420000553131104,-5.373000144958496 C-2.0420000553131104,-5.373000144958496 7.165999889373779,-4.645999908447266 13.83899974822998,3.5350000858306885 C13.83899974822998,3.5350000858306885 -8.920000076293945,5.372000217437744 -11.380000114440918,4.730999946594238 C-13.83899974822998,4.089000225067139 -11.927000045776367,-0.29600000381469727 -2.0420000553131104,-5.373000144958496z"></path></g><g opacity="1" transform="matrix(1,0,0,1,69,52.92300033569336)"><path fill="rgb(250,175,58)" fill-opacity="1" d=" M-4.2779998779296875,-0.003000000026077032 C-4.276000022888184,-2.365000009536743 -2.359999895095825,-4.2789998054504395 0.0020000000949949026,-4.2779998779296875 C2.365999937057495,-4.276000022888184 4.28000020980835,-2.359999895095825 4.2779998779296875,0.0020000000949949026 C4.2769999504089355,2.365000009536743 2.359999895095825,4.2789998054504395 -0.003000000026077032,4.2769999504089355 C-2.365000009536743,4.276000022888184 -4.2789998054504395,2.3589999675750732 -4.2779998779296875,-0.003000000026077032z"></path></g><g opacity="1" transform="matrix(1,0,0,1,69,52.92300033569336)"><path stroke-linecap="round" stroke-linejoin="miter" fill-opacity="0" stroke-miterlimit="4" stroke="rgb(251,176,59)" stroke-opacity="1" stroke-width="2.5" d=" M-6,2.3269999027252197 C-6,2.3269999027252197 6.5,-1.6729999780654907 6.5,-1.6729999780654907"></path></g></g><g transform="matrix(1.743033766746521,-0.14258015155792236,0.15525808930397034,1.8980209827423096,-44.75523376464844,-2.293790578842163)" opacity="1" style="display: block;"><g opacity="1" transform="matrix(1,0,0,1,26.79400062561035,35.31399917602539)"><path fill="rgb(199,219,66)" fill-opacity="1" d=" M2.00600004196167,-1.6039999723434448 C2.4159998893737793,-1.1200000047683716 2.7699999809265137,-0.3799999952316284 2.7360000610351562,0.2709999978542328 C2.6659998893737793,1.6089999675750732 1.468000054359436,0.9950000047683716 1.2309999465942383,0.08699999749660492 C1.0360000133514404,0.8019999861717224 0.621999979019165,1.4579999446868896 0.05900000035762787,1.9390000104904175 C-0.2759999930858612,2.2249999046325684 -0.6790000200271606,2.4579999446868896 -1.1180000305175781,2.48799991607666 C-2.7699999809265137,2.6040000915527344 -2.4549999237060547,0.8069999814033508 -1.9539999961853027,-0.12700000405311584 C-1.430999994277954,-1.1050000190734863 -0.5410000085830688,-2.0980000495910645 0.45899999141693115,-2.6040000915527344 C0.45899999141693115,-2.6040000915527344 2.00600004196167,-1.6039999723434448 2.00600004196167,-1.6039999723434448z"></path></g><g opacity="1" transform="matrix(1,0,0,1,30.332000732421875,32.17399978637695)"><path stroke-linecap="butt" stroke-linejoin="miter" fill-opacity="0" stroke-miterlimit="10" stroke="rgb(0,150,215)" stroke-opacity="1" stroke-width="2.695" d=" M2.3570001125335693,-1.2450000047683716 C0.45100000500679016,-1.402999997138977 -1.5,-0.30799999833106995 -2.3570001125335693,1.4019999504089355"></path></g></g><g transform="matrix(1.743033766746521,-0.14258015155792236,0.15525808930397034,1.8980209827423096,-44.75425720214844,-2.2931883335113525)" opacity="1" style="display: block;"><g opacity="1" transform="matrix(1,0,0,1,48.03799819946289,35.31399917602539)"><path fill="rgb(199,219,66)" fill-opacity="1" d=" M-2.00600004196167,-1.6039999723434448 C-2.4159998893737793,-1.1200000047683716 -2.7699999809265137,-0.3799999952316284 -2.7360000610351562,0.2709999978542328 C-2.6659998893737793,1.6089999675750732 -1.468000054359436,0.9950000047683716 -1.2309999465942383,0.08699999749660492 C-1.0360000133514404,0.8019999861717224 -0.621999979019165,1.4579999446868896 -0.05900000035762787,1.9390000104904175 C0.2759999930858612,2.2249999046325684 0.6790000200271606,2.4579999446868896 1.1180000305175781,2.48799991607666 C2.7699999809265137,2.6040000915527344 2.4549999237060547,0.8069999814033508 1.9539999961853027,-0.12700000405311584 C1.430999994277954,-1.1050000190734863 0.5410000085830688,-2.0980000495910645 -0.45899999141693115,-2.6040000915527344 C-0.45899999141693115,-2.6040000915527344 -2.00600004196167,-1.6039999723434448 -2.00600004196167,-1.6039999723434448z"></path></g><g opacity="1" transform="matrix(1,0,0,1,44.499000549316406,32.17399978637695)"><path stroke-linecap="butt" stroke-linejoin="miter" fill-opacity="0" stroke-miterlimit="10" stroke="rgb(0,150,215)" stroke-opacity="1" stroke-width="2.695" d=" M-2.3559999465942383,-1.2450000047683716 C-0.44999998807907104,-1.402999997138977 1.4989999532699585,-0.30799999833106995 2.3559999465942383,1.4019999504089355"></path></g></g><g transform="matrix(0.47357842326164246,-0.038738708943128586,0.042183276265859604,0.5156880617141724,-4.948066234588623,27.279150009155273)" opacity="1" style="display: block;"><g opacity="1" transform="matrix(1,0,0,1,58.61399841308594,56.387001037597656)"><path fill="rgb(0,150,215)" fill-opacity="1" d=" M-17.33099937438965,24.645000457763672 C-20.7810001373291,17.0310001373291 -22.312000274658203,11.994999885559082 -22.305999755859375,1.2059999704360962 C-22.297000885009766,-11.73900032043457 -12.303000450134277,-24.667999267578125 0.01600000075995922,-24.660999298095703 C12.333999633789062,-24.652999877929688 22.312999725341797,-11.710000038146973 22.304000854492188,1.2339999675750732 C22.297000885009766,12.02299976348877 20.760000228881836,17.058000564575195 17.301000595092773,24.667999267578125 C17.301000595092773,24.667999267578125 -17.33099937438965,24.645000457763672 -17.33099937438965,24.645000457763672z"></path></g><g opacity="1" transform="matrix(1,0,0,1,58.62200164794922,43.402000427246094)"><path stroke-linecap="round" stroke-linejoin="round" fill-opacity="0" stroke="rgb(77,67,95)" stroke-opacity="1" stroke-width="4.882" d=" M-18.461999893188477,-0.012000000104308128 C-18.461999893188477,-0.012000000104308128 18.461999893188477,0.012000000104308128 18.461999893188477,0.012000000104308128"></path></g><g opacity="1" transform="matrix(1,0,0,1,58.645999908447266,3.8399999141693115)"><path fill="rgb(199,219,66)" fill-opacity="1" d=" M-3.5889999866485596,-0.0020000000949949026 C-3.5880000591278076,-1.9839999675750732 -1.9800000190734863,-3.5899999141693115 0.0020000000949949026,-3.5889999866485596 C1.9839999675750732,-3.5880000591278076 3.5899999141693115,-1.9800000190734863 3.5889999866485596,0.0020000000949949026 C3.5880000591278076,1.9839999675750732 1.9789999723434448,3.5899999141693115 -0.0020000000949949026,3.5889999866485596 C-1.9850000143051147,3.5880000591278076 -3.5899999141693115,1.9789999723434448 -3.5889999866485596,-0.0020000000949949026z"></path></g><g opacity="1" transform="matrix(1,0,0,1,58.63399887084961,13.82800006866455)"><path fill="rgb(199,219,66)" fill-opacity="1" d=" M1.350000023841858,-9.98799991607666 C1.350000023841858,-9.98799991607666 2.430999994277954,9.989999771118164 2.430999994277954,9.989999771118164 C2.430999994277954,9.989999771118164 -2.430999994277954,9.987000465393066 -2.430999994277954,9.987000465393066 C-2.430999994277954,9.987000465393066 -1.3240000009536743,-9.989999771118164 -1.3240000009536743,-9.989999771118164 C-1.3240000009536743,-9.989999771118164 1.350000023841858,-9.98799991607666 1.350000023841858,-9.98799991607666z"></path></g><g opacity="1" transform="matrix(1,0,0,1,58.62900161743164,30.98200035095215)"><path fill="rgb(199,219,66)" fill-opacity="1" d=" M-22.974000930786133,-0.014999999664723873 C-22.969999313354492,-7.625999927520752 -12.680000305175781,-13.788999557495117 0.00800000037997961,-13.781999588012695 C12.696999549865723,-13.77400016784668 22.979000091552734,-7.5970001220703125 22.974000930786133,0.014000000432133675 C22.969999313354492,7.625999927520752 12.680000305175781,13.788999557495117 -0.00800000037997961,13.781000137329102 C-12.696999549865723,13.77299976348877 -22.979000091552734,7.5960001945495605 -22.974000930786133,-0.014999999664723873z"></path></g><g opacity="1" transform="matrix(1,0,0,1,35.74599838256836,28.51799964904785)"><path fill="rgb(199,219,66)" fill-opacity="1" d=" M-2.4130001068115234,-7.255000114440918 C-2.4130001068115234,-7.255000114440918 4.296000003814697,4.359000205993652 4.296000003814697,4.359000205993652 C4.7789998054504395,5.196000099182129 4.4019999504089355,6.341000080108643 3.563999891281128,6.583000183105469 C3.563999891281128,6.583000183105469 -2.2909998893737793,8.272000312805176 -2.2909998893737793,8.272000312805176 C-3.0369999408721924,8.48799991607666 -3.7699999809265137,7.868000030517578 -3.828000068664551,6.9720001220703125 C-3.828000068664551,6.9720001220703125 -4.684000015258789,-6.333000183105469 -4.684000015258789,-6.333000183105469 C-4.7789998054504395,-7.817999839782715 -3.127000093460083,-8.48900032043457 -2.4130001068115234,-7.255000114440918z"></path></g><g opacity="1" transform="matrix(1,0,0,1,81.51799774169922,28.552000045776367)"><path fill="rgb(199,219,66)" fill-opacity="1" d=" M2.4210000038146973,-7.25600004196167 C2.4210000038146973,-7.25600004196167 -4.302999973297119,4.349999904632568 -4.302999973297119,4.349999904632568 C-4.7870001792907715,5.185999870300293 -4.4120001792907715,6.329999923706055 -3.572999954223633,6.572999954223633 C-3.572999954223633,6.572999954223633 2.2780001163482666,8.270999908447266 2.2780001163482666,8.270999908447266 C3.0250000953674316,8.48799991607666 3.759000062942505,7.868000030517578 3.818000078201294,6.9730000495910645 C3.818000078201294,6.9730000495910645 4.690999984741211,-6.330999851226807 4.690999984741211,-6.330999851226807 C4.7870001792907715,-7.816999912261963 3.135999917984009,-8.48900032043457 2.4210000038146973,-7.25600004196167z"></path></g><g opacity="1" transform="matrix(0.31780722737312317,-0.1978483647108078,0.1978483647108078,0.31780722737312317,45.53300094604492,28.854000091552734)"><path fill="rgb(245,245,235)" fill-opacity="1" d=" M16.5,0 C16.5,0 16.5,0 16.5,0 C16.5,7.450650215148926 10.450650215148926,13.5 3,13.5 C3,13.5 -3,13.5 -3,13.5 C-10.450650215148926,13.5 -16.5,7.450650215148926 -16.5,0 C-16.5,0 -16.5,0 -16.5,0 C-16.5,-7.450650215148926 -10.450650215148926,-13.5 -3,-13.5 C-3,-13.5 3,-13.5 3,-13.5 C10.450650215148926,-13.5 16.5,-7.450650215148926 16.5,0z"></path></g><g opacity="1" transform="matrix(0.31780722737312317,-0.1978483647108078,0.1978483647108078,0.31780722737312317,46.03300094604492,30.104000091552734)"><path fill="rgb(77,67,95)" fill-opacity="1" d=" M8,0 C8,0 8,0 8,0 C8,4.415200233459473 4.415200233459473,8 0,8 C0,8 0,8 0,8 C-4.415200233459473,8 -8,4.415200233459473 -8,0 C-8,0 -8,0 -8,0 C-8,-4.415200233459473 -4.415200233459473,-8 0,-8 C0,-8 0,-8 0,-8 C4.415200233459473,-8 8,-4.415200233459473 8,0z"></path></g><g opacity="1" transform="matrix(0.3736388087272644,-0.023225853219628334,0.023225853219628334,0.3736388087272644,58.606998443603516,25.084999084472656)"><path fill="rgb(245,245,235)" fill-opacity="1" d=" M16.5,0 C16.5,0 16.5,0 16.5,0 C16.5,7.450650215148926 10.450650215148926,13.5 3,13.5 C3,13.5 -3,13.5 -3,13.5 C-10.450650215148926,13.5 -16.5,7.450650215148926 -16.5,0 C-16.5,0 -16.5,0 -16.5,0 C-16.5,-7.450650215148926 -10.450650215148926,-13.5 -3,-13.5 C-3,-13.5 3,-13.5 3,-13.5 C10.450650215148926,-13.5 16.5,-7.450650215148926 16.5,0z"></path></g><g opacity="1" transform="matrix(0.3736388087272644,-0.023225853219628334,0.023225853219628334,0.3736388087272644,58.606998443603516,26.084999084472656)"><path fill="rgb(77,67,95)" fill-opacity="1" d=" M8,0 C8,0 8,0 8,0 C8,4.415200233459473 4.415200233459473,8 0,8 C0,8 0,8 0,8 C-4.415200233459473,8 -8,4.415200233459473 -8,0 C-8,0 -8,0 -8,0 C-8,-4.415200233459473 -4.415200233459473,-8 0,-8 C0,-8 0,-8 0,-8 C4.415200233459473,-8 8,-4.415200233459473 8,0z"></path></g><g opacity="1" transform="matrix(0.33107247948646545,0.17474675178527832,-0.17474675178527832,0.33107247948646545,71.67500305175781,29.209999084472656)"><path fill="rgb(245,245,235)" fill-opacity="1" d=" M16.5,0 C16.5,0 16.5,0 16.5,0 C16.5,7.450650215148926 10.450650215148926,13.5 3,13.5 C3,13.5 -3,13.5 -3,13.5 C-10.450650215148926,13.5 -16.5,7.450650215148926 -16.5,0 C-16.5,0 -16.5,0 -16.5,0 C-16.5,-7.450650215148926 -10.450650215148926,-13.5 -3,-13.5 C-3,-13.5 3,-13.5 3,-13.5 C10.450650215148926,-13.5 16.5,-7.450650215148926 16.5,0z"></path></g><g opacity="1" transform="matrix(0.33107247948646545,0.17474675178527832,-0.17474675178527832,0.33107247948646545,71.17500305175781,29.959999084472656)"><path fill="rgb(77,67,95)" fill-opacity="1" d=" M8,0 C8,0 8,0 8,0 C8,4.415200233459473 4.415200233459473,8 0,8 C0,8 0,8 0,8 C-4.415200233459473,8 -8,4.415200233459473 -8,0 C-8,0 -8,0 -8,0 C-8,-4.415200233459473 -4.415200233459473,-8 0,-8 C0,-8 0,-8 0,-8 C4.415200233459473,-8 8,-4.415200233459473 8,0z"></path></g><g opacity="1" transform="matrix(1,0,0,1,59.66400146484375,38.67599868774414)"><path stroke-linecap="round" stroke-linejoin="round" fill-opacity="0" stroke="rgb(0,133,69)" stroke-opacity="1" stroke-width="1.953" d=" M9.630000114440918,-1.0959999561309814 C5.940000057220459,0.2240000069141388 2.0350000858306885,1.1360000371932983 -1.1579999923706055,1.1030000448226929 C-3.5969998836517334,1.0779999494552612 -8.121999740600586,0.8759999871253967 -11.817000389099121,-0.9649999737739563 C-8.381999969482422,0.6159999966621399 -4.486000061035156,0.8759999871253967 -1.1579999923706055,0.8759999871253967 C1.7740000486373901,0.8759999871253967 5.940000057220459,0.6150000095367432 9.630000114440918,-1.0959999561309814z"></path><path fill="rgb(0,133,69)" fill-opacity="1" d=" M9.630000114440918,-1.0959999561309814 C5.940000057220459,0.2240000069141388 2.0350000858306885,1.1360000371932983 -1.1579999923706055,1.1030000448226929 C-3.5969998836517334,1.0779999494552612 -8.121999740600586,0.8759999871253967 -11.817000389099121,-0.9649999737739563 C-8.381999969482422,0.6159999966621399 -4.486000061035156,0.8759999871253967 -1.1579999923706055,0.8759999871253967 C1.7740000486373901,0.8759999871253967 5.940000057220459,0.6150000095367432 9.630000114440918,-1.0959999561309814z"></path></g><g opacity="1" transform="matrix(1,0,0,1,58.611000061035156,63.573001861572266)"><path fill="rgb(17,128,195)" fill-opacity="1" d=" M21.659000396728516,3.989000082015991 C21.659000396728516,3.989000082015991 -21.66699981689453,3.9619998931884766 -21.66699981689453,3.9619998931884766 C-22.020000457763672,1.6490000486373901 -22.207000732421875,-0.9599999785423279 -22.267000198364258,-3.989000082015991 C-22.267000198364258,-3.989000082015991 22.267000198364258,-3.9600000381469727 22.267000198364258,-3.9600000381469727 C22.20400047302246,-0.9330000281333923 22.01300048828125,1.6759999990463257 21.659000396728516,3.989000082015991z"></path></g><g opacity="1" transform="matrix(1,0,0,1,77.24400329589844,77.53600311279297)"><path fill="rgb(77,67,95)" fill-opacity="1" d=" M2.053999900817871,-5.376999855041504 C2.053999900817871,-5.376999855041504 -7.156000137329102,-4.6620001792907715 -13.838000297546387,3.51200008392334 C-13.838000297546387,3.51200008392334 8.916999816894531,5.376999855041504 11.376999855041504,4.738999843597412 C13.838000297546387,4.10099983215332 11.932000160217285,-0.28700000047683716 2.053999900817871,-5.376999855041504z"></path></g><g opacity="1" transform="matrix(1,0,0,1,39.95199966430664,77.50499725341797)"><path fill="rgb(77,67,95)" fill-opacity="1" d=" M-2.0420000553131104,-5.373000144958496 C-2.0420000553131104,-5.373000144958496 7.165999889373779,-4.645999908447266 13.83899974822998,3.5350000858306885 C13.83899974822998,3.5350000858306885 -8.920000076293945,5.372000217437744 -11.380000114440918,4.730999946594238 C-13.83899974822998,4.089000225067139 -11.927000045776367,-0.29600000381469727 -2.0420000553131104,-5.373000144958496z"></path></g><g opacity="1" transform="matrix(1,0,0,1,69,52.92300033569336)"><path fill="rgb(250,175,58)" fill-opacity="1" d=" M-4.2779998779296875,-0.003000000026077032 C-4.276000022888184,-2.365000009536743 -2.359999895095825,-4.2789998054504395 0.0020000000949949026,-4.2779998779296875 C2.365999937057495,-4.276000022888184 4.28000020980835,-2.359999895095825 4.2779998779296875,0.0020000000949949026 C4.2769999504089355,2.365000009536743 2.359999895095825,4.2789998054504395 -0.003000000026077032,4.2769999504089355 C-2.365000009536743,4.276000022888184 -4.2789998054504395,2.3589999675750732 -4.2779998779296875,-0.003000000026077032z"></path></g><g opacity="1" transform="matrix(1,0,0,1,69,52.92300033569336)"><path stroke-linecap="round" stroke-linejoin="miter" fill-opacity="0" stroke-miterlimit="4" stroke="rgb(251,176,59)" stroke-opacity="1" stroke-width="2.5" d=" M-6,2.3269999027252197 C-6,2.3269999027252197 6.5,-1.6729999780654907 6.5,-1.6729999780654907"></path></g></g><g transform="matrix(1.8410582542419434,0.11855605244636536,-0.11654368042945862,1.8098081350326538,5.127885341644287,-1.6540777683258057)" opacity="1" style="display: block;"><g opacity="1" transform="matrix(1,0,0,1,26.79400062561035,35.31399917602539)"><path fill="rgb(199,219,66)" fill-opacity="1" d=" M2.00600004196167,-1.6039999723434448 C2.4159998893737793,-1.1200000047683716 2.7699999809265137,-0.3799999952316284 2.7360000610351562,0.2709999978542328 C2.6659998893737793,1.6089999675750732 1.468000054359436,0.9950000047683716 1.2309999465942383,0.08699999749660492 C1.0360000133514404,0.8019999861717224 0.621999979019165,1.4579999446868896 0.05900000035762787,1.9390000104904175 C-0.2759999930858612,2.2249999046325684 -0.6790000200271606,2.4579999446868896 -1.1180000305175781,2.48799991607666 C-2.7699999809265137,2.6040000915527344 -2.4549999237060547,0.8069999814033508 -1.9539999961853027,-0.12700000405311584 C-1.430999994277954,-1.1050000190734863 -0.5410000085830688,-2.0980000495910645 0.45899999141693115,-2.6040000915527344 C0.45899999141693115,-2.6040000915527344 2.00600004196167,-1.6039999723434448 2.00600004196167,-1.6039999723434448z"></path></g><g opacity="1" transform="matrix(1,0,0,1,30.332000732421875,32.17399978637695)"><path stroke-linecap="butt" stroke-linejoin="miter" fill-opacity="0" stroke-miterlimit="10" stroke="rgb(0,150,215)" stroke-opacity="1" stroke-width="2.695" d=" M2.3570001125335693,-1.2450000047683716 C0.45100000500679016,-1.402999997138977 -1.5,-0.30799999833106995 -2.3570001125335693,1.4019999504089355"></path></g></g><g transform="matrix(1.8410582542419434,0.11855605244636536,-0.11654368042945862,1.8098081350326538,5.128814220428467,-1.6533690690994263)" opacity="1" style="display: block;"><g opacity="1" transform="matrix(1,0,0,1,48.03799819946289,35.31399917602539)"><path fill="rgb(199,219,66)" fill-opacity="1" d=" M-2.00600004196167,-1.6039999723434448 C-2.4159998893737793,-1.1200000047683716 -2.7699999809265137,-0.3799999952316284 -2.7360000610351562,0.2709999978542328 C-2.6659998893737793,1.6089999675750732 -1.468000054359436,0.9950000047683716 -1.2309999465942383,0.08699999749660492 C-1.0360000133514404,0.8019999861717224 -0.621999979019165,1.4579999446868896 -0.05900000035762787,1.9390000104904175 C0.2759999930858612,2.2249999046325684 0.6790000200271606,2.4579999446868896 1.1180000305175781,2.48799991607666 C2.7699999809265137,2.6040000915527344 2.4549999237060547,0.8069999814033508 1.9539999961853027,-0.12700000405311584 C1.430999994277954,-1.1050000190734863 0.5410000085830688,-2.0980000495910645 -0.45899999141693115,-2.6040000915527344 C-0.45899999141693115,-2.6040000915527344 -2.00600004196167,-1.6039999723434448 -2.00600004196167,-1.6039999723434448z"></path></g><g opacity="1" transform="matrix(1,0,0,1,44.499000549316406,32.17399978637695)"><path stroke-linecap="butt" stroke-linejoin="miter" fill-opacity="0" stroke-miterlimit="10" stroke="rgb(0,150,215)" stroke-opacity="1" stroke-width="2.695" d=" M-2.3559999465942383,-1.2450000047683716 C-0.44999998807907104,-1.402999997138977 1.4989999532699585,-0.30799999833106995 2.3559999465942383,1.4019999504089355"></path></g></g><g transform="matrix(0.5002114176750183,0.032211415469646454,-0.0316646583378315,0.49172085523605347,42.353721618652344,31.967374801635742)" opacity="1" style="display: block;"><g opacity="1" transform="matrix(1,0,0,1,58.61399841308594,56.387001037597656)"><path fill="rgb(0,150,215)" fill-opacity="1" d=" M-17.33099937438965,24.645000457763672 C-20.7810001373291,17.0310001373291 -22.312000274658203,11.994999885559082 -22.305999755859375,1.2059999704360962 C-22.297000885009766,-11.73900032043457 -12.303000450134277,-24.667999267578125 0.01600000075995922,-24.660999298095703 C12.333999633789062,-24.652999877929688 22.312999725341797,-11.710000038146973 22.304000854492188,1.2339999675750732 C22.297000885009766,12.02299976348877 20.760000228881836,17.058000564575195 17.301000595092773,24.667999267578125 C17.301000595092773,24.667999267578125 -17.33099937438965,24.645000457763672 -17.33099937438965,24.645000457763672z"></path></g><g opacity="1" transform="matrix(1,0,0,1,58.62200164794922,43.402000427246094)"><path stroke-linecap="round" stroke-linejoin="round" fill-opacity="0" stroke="rgb(77,67,95)" stroke-opacity="1" stroke-width="4.882" d=" M-18.461999893188477,-0.012000000104308128 C-18.461999893188477,-0.012000000104308128 18.461999893188477,0.012000000104308128 18.461999893188477,0.012000000104308128"></path></g><g opacity="1" transform="matrix(1,0,0,1,58.645999908447266,3.8399999141693115)"><path fill="rgb(199,219,66)" fill-opacity="1" d=" M-3.5889999866485596,-0.0020000000949949026 C-3.5880000591278076,-1.9839999675750732 -1.9800000190734863,-3.5899999141693115 0.0020000000949949026,-3.5889999866485596 C1.9839999675750732,-3.5880000591278076 3.5899999141693115,-1.9800000190734863 3.5889999866485596,0.0020000000949949026 C3.5880000591278076,1.9839999675750732 1.9789999723434448,3.5899999141693115 -0.0020000000949949026,3.5889999866485596 C-1.9850000143051147,3.5880000591278076 -3.5899999141693115,1.9789999723434448 -3.5889999866485596,-0.0020000000949949026z"></path></g><g opacity="1" transform="matrix(1,0,0,1,58.63399887084961,13.82800006866455)"><path fill="rgb(199,219,66)" fill-opacity="1" d=" M1.350000023841858,-9.98799991607666 C1.350000023841858,-9.98799991607666 2.430999994277954,9.989999771118164 2.430999994277954,9.989999771118164 C2.430999994277954,9.989999771118164 -2.430999994277954,9.987000465393066 -2.430999994277954,9.987000465393066 C-2.430999994277954,9.987000465393066 -1.3240000009536743,-9.989999771118164 -1.3240000009536743,-9.989999771118164 C-1.3240000009536743,-9.989999771118164 1.350000023841858,-9.98799991607666 1.350000023841858,-9.98799991607666z"></path></g><g opacity="1" transform="matrix(1,0,0,1,58.62900161743164,30.98200035095215)"><path fill="rgb(199,219,66)" fill-opacity="1" d=" M-22.974000930786133,-0.014999999664723873 C-22.969999313354492,-7.625999927520752 -12.680000305175781,-13.788999557495117 0.00800000037997961,-13.781999588012695 C12.696999549865723,-13.77400016784668 22.979000091552734,-7.5970001220703125 22.974000930786133,0.014000000432133675 C22.969999313354492,7.625999927520752 12.680000305175781,13.788999557495117 -0.00800000037997961,13.781000137329102 C-12.696999549865723,13.77299976348877 -22.979000091552734,7.5960001945495605 -22.974000930786133,-0.014999999664723873z"></path></g><g opacity="1" transform="matrix(1,0,0,1,35.74599838256836,28.51799964904785)"><path fill="rgb(199,219,66)" fill-opacity="1" d=" M-2.4130001068115234,-7.255000114440918 C-2.4130001068115234,-7.255000114440918 4.296000003814697,4.359000205993652 4.296000003814697,4.359000205993652 C4.7789998054504395,5.196000099182129 4.4019999504089355,6.341000080108643 3.563999891281128,6.583000183105469 C3.563999891281128,6.583000183105469 -2.2909998893737793,8.272000312805176 -2.2909998893737793,8.272000312805176 C-3.0369999408721924,8.48799991607666 -3.7699999809265137,7.868000030517578 -3.828000068664551,6.9720001220703125 C-3.828000068664551,6.9720001220703125 -4.684000015258789,-6.333000183105469 -4.684000015258789,-6.333000183105469 C-4.7789998054504395,-7.817999839782715 -3.127000093460083,-8.48900032043457 -2.4130001068115234,-7.255000114440918z"></path></g><g opacity="1" transform="matrix(1,0,0,1,81.51799774169922,28.552000045776367)"><path fill="rgb(199,219,66)" fill-opacity="1" d=" M2.4210000038146973,-7.25600004196167 C2.4210000038146973,-7.25600004196167 -4.302999973297119,4.349999904632568 -4.302999973297119,4.349999904632568 C-4.7870001792907715,5.185999870300293 -4.4120001792907715,6.329999923706055 -3.572999954223633,6.572999954223633 C-3.572999954223633,6.572999954223633 2.2780001163482666,8.270999908447266 2.2780001163482666,8.270999908447266 C3.0250000953674316,8.48799991607666 3.759000062942505,7.868000030517578 3.818000078201294,6.9730000495910645 C3.818000078201294,6.9730000495910645 4.690999984741211,-6.330999851226807 4.690999984741211,-6.330999851226807 C4.7870001792907715,-7.816999912261963 3.135999917984009,-8.48900032043457 2.4210000038146973,-7.25600004196167z"></path></g><g opacity="1" transform="matrix(0.31780722737312317,-0.1978483647108078,0.1978483647108078,0.31780722737312317,45.53300094604492,28.854000091552734)"><path fill="rgb(245,245,235)" fill-opacity="1" d=" M16.5,0 C16.5,0 16.5,0 16.5,0 C16.5,7.450650215148926 10.450650215148926,13.5 3,13.5 C3,13.5 -3,13.5 -3,13.5 C-10.450650215148926,13.5 -16.5,7.450650215148926 -16.5,0 C-16.5,0 -16.5,0 -16.5,0 C-16.5,-7.450650215148926 -10.450650215148926,-13.5 -3,-13.5 C-3,-13.5 3,-13.5 3,-13.5 C10.450650215148926,-13.5 16.5,-7.450650215148926 16.5,0z"></path></g><g opacity="1" transform="matrix(0.31780722737312317,-0.1978483647108078,0.1978483647108078,0.31780722737312317,46.03300094604492,30.104000091552734)"><path fill="rgb(77,67,95)" fill-opacity="1" d=" M8,0 C8,0 8,0 8,0 C8,4.415200233459473 4.415200233459473,8 0,8 C0,8 0,8 0,8 C-4.415200233459473,8 -8,4.415200233459473 -8,0 C-8,0 -8,0 -8,0 C-8,-4.415200233459473 -4.415200233459473,-8 0,-8 C0,-8 0,-8 0,-8 C4.415200233459473,-8 8,-4.415200233459473 8,0z"></path></g><g opacity="1" transform="matrix(0.3736388087272644,-0.023225853219628334,0.023225853219628334,0.3736388087272644,58.606998443603516,25.084999084472656)"><path fill="rgb(245,245,235)" fill-opacity="1" d=" M16.5,0 C16.5,0 16.5,0 16.5,0 C16.5,7.450650215148926 10.450650215148926,13.5 3,13.5 C3,13.5 -3,13.5 -3,13.5 C-10.450650215148926,13.5 -16.5,7.450650215148926 -16.5,0 C-16.5,0 -16.5,0 -16.5,0 C-16.5,-7.450650215148926 -10.450650215148926,-13.5 -3,-13.5 C-3,-13.5 3,-13.5 3,-13.5 C10.450650215148926,-13.5 16.5,-7.450650215148926 16.5,0z"></path></g><g opacity="1" transform="matrix(0.3736388087272644,-0.023225853219628334,0.023225853219628334,0.3736388087272644,58.606998443603516,26.084999084472656)"><path fill="rgb(77,67,95)" fill-opacity="1" d=" M8,0 C8,0 8,0 8,0 C8,4.415200233459473 4.415200233459473,8 0,8 C0,8 0,8 0,8 C-4.415200233459473,8 -8,4.415200233459473 -8,0 C-8,0 -8,0 -8,0 C-8,-4.415200233459473 -4.415200233459473,-8 0,-8 C0,-8 0,-8 0,-8 C4.415200233459473,-8 8,-4.415200233459473 8,0z"></path></g><g opacity="1" transform="matrix(0.33107247948646545,0.17474675178527832,-0.17474675178527832,0.33107247948646545,71.67500305175781,29.209999084472656)"><path fill="rgb(245,245,235)" fill-opacity="1" d=" M16.5,0 C16.5,0 16.5,0 16.5,0 C16.5,7.450650215148926 10.450650215148926,13.5 3,13.5 C3,13.5 -3,13.5 -3,13.5 C-10.450650215148926,13.5 -16.5,7.450650215148926 -16.5,0 C-16.5,0 -16.5,0 -16.5,0 C-16.5,-7.450650215148926 -10.450650215148926,-13.5 -3,-13.5 C-3,-13.5 3,-13.5 3,-13.5 C10.450650215148926,-13.5 16.5,-7.450650215148926 16.5,0z"></path></g><g opacity="1" transform="matrix(0.33107247948646545,0.17474675178527832,-0.17474675178527832,0.33107247948646545,71.17500305175781,29.959999084472656)"><path fill="rgb(77,67,95)" fill-opacity="1" d=" M8,0 C8,0 8,0 8,0 C8,4.415200233459473 4.415200233459473,8 0,8 C0,8 0,8 0,8 C-4.415200233459473,8 -8,4.415200233459473 -8,0 C-8,0 -8,0 -8,0 C-8,-4.415200233459473 -4.415200233459473,-8 0,-8 C0,-8 0,-8 0,-8 C4.415200233459473,-8 8,-4.415200233459473 8,0z"></path></g><g opacity="1" transform="matrix(1,0,0,1,59.66400146484375,38.67599868774414)"><path stroke-linecap="round" stroke-linejoin="round" fill-opacity="0" stroke="rgb(0,133,69)" stroke-opacity="1" stroke-width="1.953" d=" M9.630000114440918,-1.0959999561309814 C5.940000057220459,0.2240000069141388 2.0350000858306885,1.1360000371932983 -1.1579999923706055,1.1030000448226929 C-3.5969998836517334,1.0779999494552612 -8.121999740600586,0.8759999871253967 -11.817000389099121,-0.9649999737739563 C-8.381999969482422,0.6159999966621399 -4.486000061035156,0.8759999871253967 -1.1579999923706055,0.8759999871253967 C1.7740000486373901,0.8759999871253967 5.940000057220459,0.6150000095367432 9.630000114440918,-1.0959999561309814z"></path><path fill="rgb(0,133,69)" fill-opacity="1" d=" M9.630000114440918,-1.0959999561309814 C5.940000057220459,0.2240000069141388 2.0350000858306885,1.1360000371932983 -1.1579999923706055,1.1030000448226929 C-3.5969998836517334,1.0779999494552612 -8.121999740600586,0.8759999871253967 -11.817000389099121,-0.9649999737739563 C-8.381999969482422,0.6159999966621399 -4.486000061035156,0.8759999871253967 -1.1579999923706055,0.8759999871253967 C1.7740000486373901,0.8759999871253967 5.940000057220459,0.6150000095367432 9.630000114440918,-1.0959999561309814z"></path></g><g opacity="1" transform="matrix(1,0,0,1,58.611000061035156,63.573001861572266)"><path fill="rgb(17,128,195)" fill-opacity="1" d=" M21.659000396728516,3.989000082015991 C21.659000396728516,3.989000082015991 -21.66699981689453,3.9619998931884766 -21.66699981689453,3.9619998931884766 C-22.020000457763672,1.6490000486373901 -22.207000732421875,-0.9599999785423279 -22.267000198364258,-3.989000082015991 C-22.267000198364258,-3.989000082015991 22.267000198364258,-3.9600000381469727 22.267000198364258,-3.9600000381469727 C22.20400047302246,-0.9330000281333923 22.01300048828125,1.6759999990463257 21.659000396728516,3.989000082015991z"></path></g><g opacity="1" transform="matrix(1,0,0,1,77.24400329589844,77.53600311279297)"><path fill="rgb(77,67,95)" fill-opacity="1" d=" M2.053999900817871,-5.376999855041504 C2.053999900817871,-5.376999855041504 -7.156000137329102,-4.6620001792907715 -13.838000297546387,3.51200008392334 C-13.838000297546387,3.51200008392334 8.916999816894531,5.376999855041504 11.376999855041504,4.738999843597412 C13.838000297546387,4.10099983215332 11.932000160217285,-0.28700000047683716 2.053999900817871,-5.376999855041504z"></path></g><g opacity="1" transform="matrix(1,0,0,1,39.95199966430664,77.50499725341797)"><path fill="rgb(77,67,95)" fill-opacity="1" d=" M-2.0420000553131104,-5.373000144958496 C-2.0420000553131104,-5.373000144958496 7.165999889373779,-4.645999908447266 13.83899974822998,3.5350000858306885 C13.83899974822998,3.5350000858306885 -8.920000076293945,5.372000217437744 -11.380000114440918,4.730999946594238 C-13.83899974822998,4.089000225067139 -11.927000045776367,-0.29600000381469727 -2.0420000553131104,-5.373000144958496z"></path></g><g opacity="1" transform="matrix(1,0,0,1,69,52.92300033569336)"><path fill="rgb(250,175,58)" fill-opacity="1" d=" M-4.2779998779296875,-0.003000000026077032 C-4.276000022888184,-2.365000009536743 -2.359999895095825,-4.2789998054504395 0.0020000000949949026,-4.2779998779296875 C2.365999937057495,-4.276000022888184 4.28000020980835,-2.359999895095825 4.2779998779296875,0.0020000000949949026 C4.2769999504089355,2.365000009536743 2.359999895095825,4.2789998054504395 -0.003000000026077032,4.2769999504089355 C-2.365000009536743,4.276000022888184 -4.2789998054504395,2.3589999675750732 -4.2779998779296875,-0.003000000026077032z"></path></g><g opacity="1" transform="matrix(1,0,0,1,69,52.92300033569336)"><path stroke-linecap="round" stroke-linejoin="miter" fill-opacity="0" stroke-miterlimit="4" stroke="rgb(251,176,59)" stroke-opacity="1" stroke-width="2.5" d=" M-6,2.3269999027252197 C-6,2.3269999027252197 6.5,-1.6729999780654907 6.5,-1.6729999780654907"></path></g></g><g transform="matrix(1.743033766746521,-0.14258015155792236,0.15525808930397034,1.8980209827423096,95.33229064941406,7.198629379272461)" opacity="1" style="display: block;"><g opacity="1" transform="matrix(1,0,0,1,26.79400062561035,35.31399917602539)"><path fill="rgb(199,219,66)" fill-opacity="1" d=" M2.00600004196167,-1.6039999723434448 C2.4159998893737793,-1.1200000047683716 2.7699999809265137,-0.3799999952316284 2.7360000610351562,0.2709999978542328 C2.6659998893737793,1.6089999675750732 1.468000054359436,0.9950000047683716 1.2309999465942383,0.08699999749660492 C1.0360000133514404,0.8019999861717224 0.621999979019165,1.4579999446868896 0.05900000035762787,1.9390000104904175 C-0.2759999930858612,2.2249999046325684 -0.6790000200271606,2.4579999446868896 -1.1180000305175781,2.48799991607666 C-2.7699999809265137,2.6040000915527344 -2.4549999237060547,0.8069999814033508 -1.9539999961853027,-0.12700000405311584 C-1.430999994277954,-1.1050000190734863 -0.5410000085830688,-2.0980000495910645 0.45899999141693115,-2.6040000915527344 C0.45899999141693115,-2.6040000915527344 2.00600004196167,-1.6039999723434448 2.00600004196167,-1.6039999723434448z"></path></g><g opacity="1" transform="matrix(1,0,0,1,30.332000732421875,32.17399978637695)"><path stroke-linecap="butt" stroke-linejoin="miter" fill-opacity="0" stroke-miterlimit="10" stroke="rgb(0,150,215)" stroke-opacity="1" stroke-width="2.695" d=" M2.3570001125335693,-1.2450000047683716 C0.45100000500679016,-1.402999997138977 -1.5,-0.30799999833106995 -2.3570001125335693,1.4019999504089355"></path></g></g><g transform="matrix(1.743033766746521,-0.14258015155792236,0.15525808930397034,1.8980209827423096,95.33325958251953,7.1992316246032715)" opacity="1" style="display: block;"><g opacity="1" transform="matrix(1,0,0,1,48.03799819946289,35.31399917602539)"><path fill="rgb(199,219,66)" fill-opacity="1" d=" M-2.00600004196167,-1.6039999723434448 C-2.4159998893737793,-1.1200000047683716 -2.7699999809265137,-0.3799999952316284 -2.7360000610351562,0.2709999978542328 C-2.6659998893737793,1.6089999675750732 -1.468000054359436,0.9950000047683716 -1.2309999465942383,0.08699999749660492 C-1.0360000133514404,0.8019999861717224 -0.621999979019165,1.4579999446868896 -0.05900000035762787,1.9390000104904175 C0.2759999930858612,2.2249999046325684 0.6790000200271606,2.4579999446868896 1.1180000305175781,2.48799991607666 C2.7699999809265137,2.6040000915527344 2.4549999237060547,0.8069999814033508 1.9539999961853027,-0.12700000405311584 C1.430999994277954,-1.1050000190734863 0.5410000085830688,-2.0980000495910645 -0.45899999141693115,-2.6040000915527344 C-0.45899999141693115,-2.6040000915527344 -2.00600004196167,-1.6039999723434448 -2.00600004196167,-1.6039999723434448z"></path></g><g opacity="1" transform="matrix(1,0,0,1,44.499000549316406,32.17399978637695)"><path stroke-linecap="butt" stroke-linejoin="miter" fill-opacity="0" stroke-miterlimit="10" stroke="rgb(0,150,215)" stroke-opacity="1" stroke-width="2.695" d=" M-2.3559999465942383,-1.2450000047683716 C-0.44999998807907104,-1.402999997138977 1.4989999532699585,-0.30799999833106995 2.3559999465942383,1.4019999504089355"></path></g></g><g transform="matrix(0.47357842326164246,-0.038738708943128586,0.042183276265859604,0.5156880617141724,135.1394500732422,36.77157211303711)" opacity="1" style="display: block;"><g opacity="1" transform="matrix(1,0,0,1,58.61399841308594,56.387001037597656)"><path fill="rgb(0,150,215)" fill-opacity="1" d=" M-17.33099937438965,24.645000457763672 C-20.7810001373291,17.0310001373291 -22.312000274658203,11.994999885559082 -22.305999755859375,1.2059999704360962 C-22.297000885009766,-11.73900032043457 -12.303000450134277,-24.667999267578125 0.01600000075995922,-24.660999298095703 C12.333999633789062,-24.652999877929688 22.312999725341797,-11.710000038146973 22.304000854492188,1.2339999675750732 C22.297000885009766,12.02299976348877 20.760000228881836,17.058000564575195 17.301000595092773,24.667999267578125 C17.301000595092773,24.667999267578125 -17.33099937438965,24.645000457763672 -17.33099937438965,24.645000457763672z"></path></g><g opacity="1" transform="matrix(1,0,0,1,58.62200164794922,43.402000427246094)"><path stroke-linecap="round" stroke-linejoin="round" fill-opacity="0" stroke="rgb(77,67,95)" stroke-opacity="1" stroke-width="4.882" d=" M-18.461999893188477,-0.012000000104308128 C-18.461999893188477,-0.012000000104308128 18.461999893188477,0.012000000104308128 18.461999893188477,0.012000000104308128"></path></g><g opacity="1" transform="matrix(1,0,0,1,58.645999908447266,3.8399999141693115)"><path fill="rgb(199,219,66)" fill-opacity="1" d=" M-3.5889999866485596,-0.0020000000949949026 C-3.5880000591278076,-1.9839999675750732 -1.9800000190734863,-3.5899999141693115 0.0020000000949949026,-3.5889999866485596 C1.9839999675750732,-3.5880000591278076 3.5899999141693115,-1.9800000190734863 3.5889999866485596,0.0020000000949949026 C3.5880000591278076,1.9839999675750732 1.9789999723434448,3.5899999141693115 -0.0020000000949949026,3.5889999866485596 C-1.9850000143051147,3.5880000591278076 -3.5899999141693115,1.9789999723434448 -3.5889999866485596,-0.0020000000949949026z"></path></g><g opacity="1" transform="matrix(1,0,0,1,58.63399887084961,13.82800006866455)"><path fill="rgb(199,219,66)" fill-opacity="1" d=" M1.350000023841858,-9.98799991607666 C1.350000023841858,-9.98799991607666 2.430999994277954,9.989999771118164 2.430999994277954,9.989999771118164 C2.430999994277954,9.989999771118164 -2.430999994277954,9.987000465393066 -2.430999994277954,9.987000465393066 C-2.430999994277954,9.987000465393066 -1.3240000009536743,-9.989999771118164 -1.3240000009536743,-9.989999771118164 C-1.3240000009536743,-9.989999771118164 1.350000023841858,-9.98799991607666 1.350000023841858,-9.98799991607666z"></path></g><g opacity="1" transform="matrix(1,0,0,1,58.62900161743164,30.98200035095215)"><path fill="rgb(199,219,66)" fill-opacity="1" d=" M-22.974000930786133,-0.014999999664723873 C-22.969999313354492,-7.625999927520752 -12.680000305175781,-13.788999557495117 0.00800000037997961,-13.781999588012695 C12.696999549865723,-13.77400016784668 22.979000091552734,-7.5970001220703125 22.974000930786133,0.014000000432133675 C22.969999313354492,7.625999927520752 12.680000305175781,13.788999557495117 -0.00800000037997961,13.781000137329102 C-12.696999549865723,13.77299976348877 -22.979000091552734,7.5960001945495605 -22.974000930786133,-0.014999999664723873z"></path></g><g opacity="1" transform="matrix(1,0,0,1,35.74599838256836,28.51799964904785)"><path fill="rgb(199,219,66)" fill-opacity="1" d=" M-2.4130001068115234,-7.255000114440918 C-2.4130001068115234,-7.255000114440918 4.296000003814697,4.359000205993652 4.296000003814697,4.359000205993652 C4.7789998054504395,5.196000099182129 4.4019999504089355,6.341000080108643 3.563999891281128,6.583000183105469 C3.563999891281128,6.583000183105469 -2.2909998893737793,8.272000312805176 -2.2909998893737793,8.272000312805176 C-3.0369999408721924,8.48799991607666 -3.7699999809265137,7.868000030517578 -3.828000068664551,6.9720001220703125 C-3.828000068664551,6.9720001220703125 -4.684000015258789,-6.333000183105469 -4.684000015258789,-6.333000183105469 C-4.7789998054504395,-7.817999839782715 -3.127000093460083,-8.48900032043457 -2.4130001068115234,-7.255000114440918z"></path></g><g opacity="1" transform="matrix(1,0,0,1,81.51799774169922,28.552000045776367)"><path fill="rgb(199,219,66)" fill-opacity="1" d=" M2.4210000038146973,-7.25600004196167 C2.4210000038146973,-7.25600004196167 -4.302999973297119,4.349999904632568 -4.302999973297119,4.349999904632568 C-4.7870001792907715,5.185999870300293 -4.4120001792907715,6.329999923706055 -3.572999954223633,6.572999954223633 C-3.572999954223633,6.572999954223633 2.2780001163482666,8.270999908447266 2.2780001163482666,8.270999908447266 C3.0250000953674316,8.48799991607666 3.759000062942505,7.868000030517578 3.818000078201294,6.9730000495910645 C3.818000078201294,6.9730000495910645 4.690999984741211,-6.330999851226807 4.690999984741211,-6.330999851226807 C4.7870001792907715,-7.816999912261963 3.135999917984009,-8.48900032043457 2.4210000038146973,-7.25600004196167z"></path></g><g opacity="1" transform="matrix(0.31780722737312317,-0.1978483647108078,0.1978483647108078,0.31780722737312317,45.53300094604492,28.854000091552734)"><path fill="rgb(245,245,235)" fill-opacity="1" d=" M16.5,0 C16.5,0 16.5,0 16.5,0 C16.5,7.450650215148926 10.450650215148926,13.5 3,13.5 C3,13.5 -3,13.5 -3,13.5 C-10.450650215148926,13.5 -16.5,7.450650215148926 -16.5,0 C-16.5,0 -16.5,0 -16.5,0 C-16.5,-7.450650215148926 -10.450650215148926,-13.5 -3,-13.5 C-3,-13.5 3,-13.5 3,-13.5 C10.450650215148926,-13.5 16.5,-7.450650215148926 16.5,0z"></path></g><g opacity="1" transform="matrix(0.31780722737312317,-0.1978483647108078,0.1978483647108078,0.31780722737312317,46.03300094604492,30.104000091552734)"><path fill="rgb(77,67,95)" fill-opacity="1" d=" M8,0 C8,0 8,0 8,0 C8,4.415200233459473 4.415200233459473,8 0,8 C0,8 0,8 0,8 C-4.415200233459473,8 -8,4.415200233459473 -8,0 C-8,0 -8,0 -8,0 C-8,-4.415200233459473 -4.415200233459473,-8 0,-8 C0,-8 0,-8 0,-8 C4.415200233459473,-8 8,-4.415200233459473 8,0z"></path></g><g opacity="1" transform="matrix(0.3736388087272644,-0.023225853219628334,0.023225853219628334,0.3736388087272644,58.606998443603516,25.084999084472656)"><path fill="rgb(245,245,235)" fill-opacity="1" d=" M16.5,0 C16.5,0 16.5,0 16.5,0 C16.5,7.450650215148926 10.450650215148926,13.5 3,13.5 C3,13.5 -3,13.5 -3,13.5 C-10.450650215148926,13.5 -16.5,7.450650215148926 -16.5,0 C-16.5,0 -16.5,0 -16.5,0 C-16.5,-7.450650215148926 -10.450650215148926,-13.5 -3,-13.5 C-3,-13.5 3,-13.5 3,-13.5 C10.450650215148926,-13.5 16.5,-7.450650215148926 16.5,0z"></path></g><g opacity="1" transform="matrix(0.3736388087272644,-0.023225853219628334,0.023225853219628334,0.3736388087272644,58.606998443603516,26.084999084472656)"><path fill="rgb(77,67,95)" fill-opacity="1" d=" M8,0 C8,0 8,0 8,0 C8,4.415200233459473 4.415200233459473,8 0,8 C0,8 0,8 0,8 C-4.415200233459473,8 -8,4.415200233459473 -8,0 C-8,0 -8,0 -8,0 C-8,-4.415200233459473 -4.415200233459473,-8 0,-8 C0,-8 0,-8 0,-8 C4.415200233459473,-8 8,-4.415200233459473 8,0z"></path></g><g opacity="1" transform="matrix(0.33107247948646545,0.17474675178527832,-0.17474675178527832,0.33107247948646545,71.67500305175781,29.209999084472656)"><path fill="rgb(245,245,235)" fill-opacity="1" d=" M16.5,0 C16.5,0 16.5,0 16.5,0 C16.5,7.450650215148926 10.450650215148926,13.5 3,13.5 C3,13.5 -3,13.5 -3,13.5 C-10.450650215148926,13.5 -16.5,7.450650215148926 -16.5,0 C-16.5,0 -16.5,0 -16.5,0 C-16.5,-7.450650215148926 -10.450650215148926,-13.5 -3,-13.5 C-3,-13.5 3,-13.5 3,-13.5 C10.450650215148926,-13.5 16.5,-7.450650215148926 16.5,0z"></path></g><g opacity="1" transform="matrix(0.33107247948646545,0.17474675178527832,-0.17474675178527832,0.33107247948646545,71.17500305175781,29.959999084472656)"><path fill="rgb(77,67,95)" fill-opacity="1" d=" M8,0 C8,0 8,0 8,0 C8,4.415200233459473 4.415200233459473,8 0,8 C0,8 0,8 0,8 C-4.415200233459473,8 -8,4.415200233459473 -8,0 C-8,0 -8,0 -8,0 C-8,-4.415200233459473 -4.415200233459473,-8 0,-8 C0,-8 0,-8 0,-8 C4.415200233459473,-8 8,-4.415200233459473 8,0z"></path></g><g opacity="1" transform="matrix(1,0,0,1,59.66400146484375,38.67599868774414)"><path fill="rgb(0,133,69)" fill-opacity="1" d=" M9.630000114440918,-1.0959999561309814 C5.940000057220459,0.2240000069141388 2.0350000858306885,1.1360000371932983 -1.1579999923706055,1.1030000448226929 C-3.5969998836517334,1.0779999494552612 -8.121999740600586,0.8759999871253967 -11.817000389099121,-0.9649999737739563 C-8.381999969482422,0.6159999966621399 -4.486000061035156,0.8759999871253967 -1.1579999923706055,0.8759999871253967 C1.7740000486373901,0.8759999871253967 5.940000057220459,0.6150000095367432 9.630000114440918,-1.0959999561309814z"></path><path stroke-linecap="round" stroke-linejoin="round" fill-opacity="0" stroke="rgb(0,133,69)" stroke-opacity="1" stroke-width="1.953" d=" M9.630000114440918,-1.0959999561309814 C5.940000057220459,0.2240000069141388 2.0350000858306885,1.1360000371932983 -1.1579999923706055,1.1030000448226929 C-3.5969998836517334,1.0779999494552612 -8.121999740600586,0.8759999871253967 -11.817000389099121,-0.9649999737739563 C-8.381999969482422,0.6159999966621399 -4.486000061035156,0.8759999871253967 -1.1579999923706055,0.8759999871253967 C1.7740000486373901,0.8759999871253967 5.940000057220459,0.6150000095367432 9.630000114440918,-1.0959999561309814z"></path></g><g opacity="1" transform="matrix(1,0,0,1,58.611000061035156,63.573001861572266)"><path fill="rgb(17,128,195)" fill-opacity="1" d=" M21.659000396728516,3.989000082015991 C21.659000396728516,3.989000082015991 -21.66699981689453,3.9619998931884766 -21.66699981689453,3.9619998931884766 C-22.020000457763672,1.6490000486373901 -22.207000732421875,-0.9599999785423279 -22.267000198364258,-3.989000082015991 C-22.267000198364258,-3.989000082015991 22.267000198364258,-3.9600000381469727 22.267000198364258,-3.9600000381469727 C22.20400047302246,-0.9330000281333923 22.01300048828125,1.6759999990463257 21.659000396728516,3.989000082015991z"></path></g><g opacity="1" transform="matrix(1,0,0,1,77.24400329589844,77.53600311279297)"><path fill="rgb(77,67,95)" fill-opacity="1" d=" M2.053999900817871,-5.376999855041504 C2.053999900817871,-5.376999855041504 -7.156000137329102,-4.6620001792907715 -13.838000297546387,3.51200008392334 C-13.838000297546387,3.51200008392334 8.916999816894531,5.376999855041504 11.376999855041504,4.738999843597412 C13.838000297546387,4.10099983215332 11.932000160217285,-0.28700000047683716 2.053999900817871,-5.376999855041504z"></path></g><g opacity="1" transform="matrix(1,0,0,1,39.95199966430664,77.50499725341797)"><path fill="rgb(77,67,95)" fill-opacity="1" d=" M-2.0420000553131104,-5.373000144958496 C-2.0420000553131104,-5.373000144958496 7.165999889373779,-4.645999908447266 13.83899974822998,3.5350000858306885 C13.83899974822998,3.5350000858306885 -8.920000076293945,5.372000217437744 -11.380000114440918,4.730999946594238 C-13.83899974822998,4.089000225067139 -11.927000045776367,-0.29600000381469727 -2.0420000553131104,-5.373000144958496z"></path></g><g opacity="1" transform="matrix(1,0,0,1,69,52.92300033569336)"><path fill="rgb(250,175,58)" fill-opacity="1" d=" M-4.2779998779296875,-0.003000000026077032 C-4.276000022888184,-2.365000009536743 -2.359999895095825,-4.2789998054504395 0.0020000000949949026,-4.2779998779296875 C2.365999937057495,-4.276000022888184 4.28000020980835,-2.359999895095825 4.2779998779296875,0.0020000000949949026 C4.2769999504089355,2.365000009536743 2.359999895095825,4.2789998054504395 -0.003000000026077032,4.2769999504089355 C-2.365000009536743,4.276000022888184 -4.2789998054504395,2.3589999675750732 -4.2779998779296875,-0.003000000026077032z"></path></g><g opacity="1" transform="matrix(1,0,0,1,69,52.92300033569336)"><path stroke-linecap="round" stroke-linejoin="miter" fill-opacity="0" stroke-miterlimit="4" stroke="rgb(251,176,59)" stroke-opacity="1" stroke-width="2.5" d=" M-6,2.3269999027252197 C-6,2.3269999027252197 6.5,-1.6729999780654907 6.5,-1.6729999780654907"></path></g></g><g transform="matrix(1.6619569063186646,0.020624926313757896,-0.024638706818223,1.9853873252868652,83.90796661376953,15.077581405639648)" opacity="1" style="display: block;"><g opacity="1" transform="matrix(1,0,0,1,26.79400062561035,35.31399917602539)"><path fill="rgb(199,219,66)" fill-opacity="1" d=" M2.00600004196167,-1.6039999723434448 C2.4159998893737793,-1.1200000047683716 2.7699999809265137,-0.3799999952316284 2.7360000610351562,0.2709999978542328 C2.6659998893737793,1.6089999675750732 1.468000054359436,0.9950000047683716 1.2309999465942383,0.08699999749660492 C1.0360000133514404,0.8019999861717224 0.621999979019165,1.4579999446868896 0.05900000035762787,1.9390000104904175 C-0.2759999930858612,2.2249999046325684 -0.6790000200271606,2.4579999446868896 -1.1180000305175781,2.48799991607666 C-2.7699999809265137,2.6040000915527344 -2.4549999237060547,0.8069999814033508 -1.9539999961853027,-0.12700000405311584 C-1.430999994277954,-1.1050000190734863 -0.5410000085830688,-2.0980000495910645 0.45899999141693115,-2.6040000915527344 C0.45899999141693115,-2.6040000915527344 2.00600004196167,-1.6039999723434448 2.00600004196167,-1.6039999723434448z"></path></g><g opacity="1" transform="matrix(1,0,0,1,30.332000732421875,32.17399978637695)"><path stroke-linecap="butt" stroke-linejoin="miter" fill-opacity="0" stroke-miterlimit="10" stroke="rgb(0,150,215)" stroke-opacity="1" stroke-width="2.695" d=" M2.3570001125335693,-1.2450000047683716 C0.45100000500679016,-1.402999997138977 -1.5,-0.30799999833106995 -2.3570001125335693,1.4019999504089355"></path></g></g><g transform="matrix(1.6619569063186646,0.020624926313757896,-0.024638706818223,1.9853873252868652,83.90882873535156,15.078301429748535)" opacity="1" style="display: block;"><g opacity="1" transform="matrix(1,0,0,1,48.03799819946289,35.31399917602539)"><path fill="rgb(199,219,66)" fill-opacity="1" d=" M-2.00600004196167,-1.6039999723434448 C-2.4159998893737793,-1.1200000047683716 -2.7699999809265137,-0.3799999952316284 -2.7360000610351562,0.2709999978542328 C-2.6659998893737793,1.6089999675750732 -1.468000054359436,0.9950000047683716 -1.2309999465942383,0.08699999749660492 C-1.0360000133514404,0.8019999861717224 -0.621999979019165,1.4579999446868896 -0.05900000035762787,1.9390000104904175 C0.2759999930858612,2.2249999046325684 0.6790000200271606,2.4579999446868896 1.1180000305175781,2.48799991607666 C2.7699999809265137,2.6040000915527344 2.4549999237060547,0.8069999814033508 1.9539999961853027,-0.12700000405311584 C1.430999994277954,-1.1050000190734863 0.5410000085830688,-2.0980000495910645 -0.45899999141693115,-2.6040000915527344 C-0.45899999141693115,-2.6040000915527344 -2.00600004196167,-1.6039999723434448 -2.00600004196167,-1.6039999723434448z"></path></g><g opacity="1" transform="matrix(1,0,0,1,44.499000549316406,32.17399978637695)"><path stroke-linecap="butt" stroke-linejoin="miter" fill-opacity="0" stroke-miterlimit="10" stroke="rgb(0,150,215)" stroke-opacity="1" stroke-width="2.695" d=" M-2.3559999465942383,-1.2450000047683716 C-0.44999998807907104,-1.402999997138977 1.4989999532699585,-0.30799999833106995 2.3559999465942383,1.4019999504089355"></path></g></g><g transform="matrix(0.4515499770641327,0.005603746511042118,-0.0066942814737558365,0.5394253134727478,118.89668273925781,49.62909698486328)" opacity="1" style="display: block;"><g opacity="1" transform="matrix(1,0,0,1,58.61399841308594,56.387001037597656)"><path fill="rgb(0,150,215)" fill-opacity="1" d=" M-17.33099937438965,24.645000457763672 C-20.7810001373291,17.0310001373291 -22.312000274658203,11.994999885559082 -22.305999755859375,1.2059999704360962 C-22.297000885009766,-11.73900032043457 -12.303000450134277,-24.667999267578125 0.01600000075995922,-24.660999298095703 C12.333999633789062,-24.652999877929688 22.312999725341797,-11.710000038146973 22.304000854492188,1.2339999675750732 C22.297000885009766,12.02299976348877 20.760000228881836,17.058000564575195 17.301000595092773,24.667999267578125 C17.301000595092773,24.667999267578125 -17.33099937438965,24.645000457763672 -17.33099937438965,24.645000457763672z"></path></g><g opacity="1" transform="matrix(1,0,0,1,58.62200164794922,43.402000427246094)"><path stroke-linecap="round" stroke-linejoin="round" fill-opacity="0" stroke="rgb(77,67,95)" stroke-opacity="1" stroke-width="4.882" d=" M-18.461999893188477,-0.012000000104308128 C-18.461999893188477,-0.012000000104308128 18.461999893188477,0.012000000104308128 18.461999893188477,0.012000000104308128"></path></g><g opacity="1" transform="matrix(1,0,0,1,58.645999908447266,3.8399999141693115)"><path fill="rgb(199,219,66)" fill-opacity="1" d=" M-3.5889999866485596,-0.0020000000949949026 C-3.5880000591278076,-1.9839999675750732 -1.9800000190734863,-3.5899999141693115 0.0020000000949949026,-3.5889999866485596 C1.9839999675750732,-3.5880000591278076 3.5899999141693115,-1.9800000190734863 3.5889999866485596,0.0020000000949949026 C3.5880000591278076,1.9839999675750732 1.9789999723434448,3.5899999141693115 -0.0020000000949949026,3.5889999866485596 C-1.9850000143051147,3.5880000591278076 -3.5899999141693115,1.9789999723434448 -3.5889999866485596,-0.0020000000949949026z"></path></g><g opacity="1" transform="matrix(1,0,0,1,58.63399887084961,13.82800006866455)"><path fill="rgb(199,219,66)" fill-opacity="1" d=" M1.350000023841858,-9.98799991607666 C1.350000023841858,-9.98799991607666 2.430999994277954,9.989999771118164 2.430999994277954,9.989999771118164 C2.430999994277954,9.989999771118164 -2.430999994277954,9.987000465393066 -2.430999994277954,9.987000465393066 C-2.430999994277954,9.987000465393066 -1.3240000009536743,-9.989999771118164 -1.3240000009536743,-9.989999771118164 C-1.3240000009536743,-9.989999771118164 1.350000023841858,-9.98799991607666 1.350000023841858,-9.98799991607666z"></path></g><g opacity="1" transform="matrix(1,0,0,1,58.62900161743164,30.98200035095215)"><path fill="rgb(199,219,66)" fill-opacity="1" d=" M-22.974000930786133,-0.014999999664723873 C-22.969999313354492,-7.625999927520752 -12.680000305175781,-13.788999557495117 0.00800000037997961,-13.781999588012695 C12.696999549865723,-13.77400016784668 22.979000091552734,-7.5970001220703125 22.974000930786133,0.014000000432133675 C22.969999313354492,7.625999927520752 12.680000305175781,13.788999557495117 -0.00800000037997961,13.781000137329102 C-12.696999549865723,13.77299976348877 -22.979000091552734,7.5960001945495605 -22.974000930786133,-0.014999999664723873z"></path></g><g opacity="1" transform="matrix(1,0,0,1,35.74599838256836,28.51799964904785)"><path fill="rgb(199,219,66)" fill-opacity="1" d=" M-2.4130001068115234,-7.255000114440918 C-2.4130001068115234,-7.255000114440918 4.296000003814697,4.359000205993652 4.296000003814697,4.359000205993652 C4.7789998054504395,5.196000099182129 4.4019999504089355,6.341000080108643 3.563999891281128,6.583000183105469 C3.563999891281128,6.583000183105469 -2.2909998893737793,8.272000312805176 -2.2909998893737793,8.272000312805176 C-3.0369999408721924,8.48799991607666 -3.7699999809265137,7.868000030517578 -3.828000068664551,6.9720001220703125 C-3.828000068664551,6.9720001220703125 -4.684000015258789,-6.333000183105469 -4.684000015258789,-6.333000183105469 C-4.7789998054504395,-7.817999839782715 -3.127000093460083,-8.48900032043457 -2.4130001068115234,-7.255000114440918z"></path></g><g opacity="1" transform="matrix(1,0,0,1,81.51799774169922,28.552000045776367)"><path fill="rgb(199,219,66)" fill-opacity="1" d=" M2.4210000038146973,-7.25600004196167 C2.4210000038146973,-7.25600004196167 -4.302999973297119,4.349999904632568 -4.302999973297119,4.349999904632568 C-4.7870001792907715,5.185999870300293 -4.4120001792907715,6.329999923706055 -3.572999954223633,6.572999954223633 C-3.572999954223633,6.572999954223633 2.2780001163482666,8.270999908447266 2.2780001163482666,8.270999908447266 C3.0250000953674316,8.48799991607666 3.759000062942505,7.868000030517578 3.818000078201294,6.9730000495910645 C3.818000078201294,6.9730000495910645 4.690999984741211,-6.330999851226807 4.690999984741211,-6.330999851226807 C4.7870001792907715,-7.816999912261963 3.135999917984009,-8.48900032043457 2.4210000038146973,-7.25600004196167z"></path></g><g opacity="1" transform="matrix(0.31780722737312317,-0.1978483647108078,0.1978483647108078,0.31780722737312317,45.53300094604492,28.854000091552734)"><path fill="rgb(245,245,235)" fill-opacity="1" d=" M16.5,0 C16.5,0 16.5,0 16.5,0 C16.5,7.450650215148926 10.450650215148926,13.5 3,13.5 C3,13.5 -3,13.5 -3,13.5 C-10.450650215148926,13.5 -16.5,7.450650215148926 -16.5,0 C-16.5,0 -16.5,0 -16.5,0 C-16.5,-7.450650215148926 -10.450650215148926,-13.5 -3,-13.5 C-3,-13.5 3,-13.5 3,-13.5 C10.450650215148926,-13.5 16.5,-7.450650215148926 16.5,0z"></path></g><g opacity="1" transform="matrix(0.31780722737312317,-0.1978483647108078,0.1978483647108078,0.31780722737312317,46.03300094604492,30.104000091552734)"><path fill="rgb(77,67,95)" fill-opacity="1" d=" M8,0 C8,0 8,0 8,0 C8,4.415200233459473 4.415200233459473,8 0,8 C0,8 0,8 0,8 C-4.415200233459473,8 -8,4.415200233459473 -8,0 C-8,0 -8,0 -8,0 C-8,-4.415200233459473 -4.415200233459473,-8 0,-8 C0,-8 0,-8 0,-8 C4.415200233459473,-8 8,-4.415200233459473 8,0z"></path></g><g opacity="1" transform="matrix(0.3736388087272644,-0.023225853219628334,0.023225853219628334,0.3736388087272644,58.606998443603516,25.084999084472656)"><path fill="rgb(245,245,235)" fill-opacity="1" d=" M16.5,0 C16.5,0 16.5,0 16.5,0 C16.5,7.450650215148926 10.450650215148926,13.5 3,13.5 C3,13.5 -3,13.5 -3,13.5 C-10.450650215148926,13.5 -16.5,7.450650215148926 -16.5,0 C-16.5,0 -16.5,0 -16.5,0 C-16.5,-7.450650215148926 -10.450650215148926,-13.5 -3,-13.5 C-3,-13.5 3,-13.5 3,-13.5 C10.450650215148926,-13.5 16.5,-7.450650215148926 16.5,0z"></path></g><g opacity="1" transform="matrix(0.3736388087272644,-0.023225853219628334,0.023225853219628334,0.3736388087272644,58.606998443603516,26.084999084472656)"><path fill="rgb(77,67,95)" fill-opacity="1" d=" M8,0 C8,0 8,0 8,0 C8,4.415200233459473 4.415200233459473,8 0,8 C0,8 0,8 0,8 C-4.415200233459473,8 -8,4.415200233459473 -8,0 C-8,0 -8,0 -8,0 C-8,-4.415200233459473 -4.415200233459473,-8 0,-8 C0,-8 0,-8 0,-8 C4.415200233459473,-8 8,-4.415200233459473 8,0z"></path></g><g opacity="1" transform="matrix(0.33107247948646545,0.17474675178527832,-0.17474675178527832,0.33107247948646545,71.67500305175781,29.209999084472656)"><path fill="rgb(245,245,235)" fill-opacity="1" d=" M16.5,0 C16.5,0 16.5,0 16.5,0 C16.5,7.450650215148926 10.450650215148926,13.5 3,13.5 C3,13.5 -3,13.5 -3,13.5 C-10.450650215148926,13.5 -16.5,7.450650215148926 -16.5,0 C-16.5,0 -16.5,0 -16.5,0 C-16.5,-7.450650215148926 -10.450650215148926,-13.5 -3,-13.5 C-3,-13.5 3,-13.5 3,-13.5 C10.450650215148926,-13.5 16.5,-7.450650215148926 16.5,0z"></path></g><g opacity="1" transform="matrix(0.33107247948646545,0.17474675178527832,-0.17474675178527832,0.33107247948646545,71.17500305175781,29.959999084472656)"><path fill="rgb(77,67,95)" fill-opacity="1" d=" M8,0 C8,0 8,0 8,0 C8,4.415200233459473 4.415200233459473,8 0,8 C0,8 0,8 0,8 C-4.415200233459473,8 -8,4.415200233459473 -8,0 C-8,0 -8,0 -8,0 C-8,-4.415200233459473 -4.415200233459473,-8 0,-8 C0,-8 0,-8 0,-8 C4.415200233459473,-8 8,-4.415200233459473 8,0z"></path></g><g opacity="1" transform="matrix(1,0,0,1,59.66400146484375,38.67599868774414)"><path fill="rgb(0,133,69)" fill-opacity="1" d=" M9.630000114440918,-1.0959999561309814 C5.940000057220459,0.2240000069141388 2.0350000858306885,1.1360000371932983 -1.1579999923706055,1.1030000448226929 C-3.5969998836517334,1.0779999494552612 -8.121999740600586,0.8759999871253967 -11.817000389099121,-0.9649999737739563 C-8.381999969482422,0.6159999966621399 -4.486000061035156,0.8759999871253967 -1.1579999923706055,0.8759999871253967 C1.7740000486373901,0.8759999871253967 5.940000057220459,0.6150000095367432 9.630000114440918,-1.0959999561309814z"></path><path stroke-linecap="round" stroke-linejoin="round" fill-opacity="0" stroke="rgb(0,133,69)" stroke-opacity="1" stroke-width="1.953" d=" M9.630000114440918,-1.0959999561309814 C5.940000057220459,0.2240000069141388 2.0350000858306885,1.1360000371932983 -1.1579999923706055,1.1030000448226929 C-3.5969998836517334,1.0779999494552612 -8.121999740600586,0.8759999871253967 -11.817000389099121,-0.9649999737739563 C-8.381999969482422,0.6159999966621399 -4.486000061035156,0.8759999871253967 -1.1579999923706055,0.8759999871253967 C1.7740000486373901,0.8759999871253967 5.940000057220459,0.6150000095367432 9.630000114440918,-1.0959999561309814z"></path></g><g opacity="1" transform="matrix(1,0,0,1,58.611000061035156,63.573001861572266)"><path fill="rgb(17,128,195)" fill-opacity="1" d=" M21.659000396728516,3.989000082015991 C21.659000396728516,3.989000082015991 -21.66699981689453,3.9619998931884766 -21.66699981689453,3.9619998931884766 C-22.020000457763672,1.6490000486373901 -22.207000732421875,-0.9599999785423279 -22.267000198364258,-3.989000082015991 C-22.267000198364258,-3.989000082015991 22.267000198364258,-3.9600000381469727 22.267000198364258,-3.9600000381469727 C22.20400047302246,-0.9330000281333923 22.01300048828125,1.6759999990463257 21.659000396728516,3.989000082015991z"></path></g><g opacity="1" transform="matrix(1,0,0,1,77.24400329589844,77.53600311279297)"><path fill="rgb(77,67,95)" fill-opacity="1" d=" M2.053999900817871,-5.376999855041504 C2.053999900817871,-5.376999855041504 -7.156000137329102,-4.6620001792907715 -13.838000297546387,3.51200008392334 C-13.838000297546387,3.51200008392334 8.916999816894531,5.376999855041504 11.376999855041504,4.738999843597412 C13.838000297546387,4.10099983215332 11.932000160217285,-0.28700000047683716 2.053999900817871,-5.376999855041504z"></path></g><g opacity="1" transform="matrix(1,0,0,1,39.95199966430664,77.50499725341797)"><path fill="rgb(77,67,95)" fill-opacity="1" d=" M-2.0420000553131104,-5.373000144958496 C-2.0420000553131104,-5.373000144958496 7.165999889373779,-4.645999908447266 13.83899974822998,3.5350000858306885 C13.83899974822998,3.5350000858306885 -8.920000076293945,5.372000217437744 -11.380000114440918,4.730999946594238 C-13.83899974822998,4.089000225067139 -11.927000045776367,-0.29600000381469727 -2.0420000553131104,-5.373000144958496z"></path></g><g opacity="1" transform="matrix(1,0,0,1,69,52.92300033569336)"><path fill="rgb(250,175,58)" fill-opacity="1" d=" M-4.2779998779296875,-0.003000000026077032 C-4.276000022888184,-2.365000009536743 -2.359999895095825,-4.2789998054504395 0.0020000000949949026,-4.2779998779296875 C2.365999937057495,-4.276000022888184 4.28000020980835,-2.359999895095825 4.2779998779296875,0.0020000000949949026 C4.2769999504089355,2.365000009536743 2.359999895095825,4.2789998054504395 -0.003000000026077032,4.2769999504089355 C-2.365000009536743,4.276000022888184 -4.2789998054504395,2.3589999675750732 -4.2779998779296875,-0.003000000026077032z"></path></g><g opacity="1" transform="matrix(1,0,0,1,69,52.92300033569336)"><path stroke-linecap="round" stroke-linejoin="miter" fill-opacity="0" stroke-miterlimit="4" stroke="rgb(251,176,59)" stroke-opacity="1" stroke-width="2.5" d=" M-6,2.3269999027252197 C-6,2.3269999027252197 6.5,-1.6729999780654907 6.5,-1.6729999780654907"></path></g></g></g></svg>