<?xml version="1.0" encoding="UTF-8" standalone="no"?>
<!DOCTYPE svg PUBLIC "-//W3C//DTD SVG 1.1//EN" "http://www.w3.org/Graphics/SVG/1.1/DTD/svg11.dtd">
<svg width="100%" height="100%" viewBox="0 0 248 87" version="1.1" xmlns="http://www.w3.org/2000/svg" xmlns:xlink="http://www.w3.org/1999/xlink" xml:space="preserve" xmlns:serif="http://www.serif.com/" style="fill-rule:evenodd;clip-rule:evenodd;stroke-linecap:round;stroke-linejoin:round;">
    <g>
        <g transform="matrix(1.806,0,0,1.806,0.0984201,0.314764)">
            <g transform="matrix(1,0,0,1,65.153,23.963)">
                <path d="M64.902,4.063C64.692,1.754 62.757,-3.232 62.757,-3.232C61.595,-4.201 60.1,-4.65 58.739,-5.31C57.377,-5.969 56.029,-6.994 55.707,-8.473C55.56,-9.147 55.642,-9.861 55.453,-10.525C55.265,-11.189 53.969,-11.663 53.969,-11.663C52.104,-11.663 50.911,-12.793 49.68,-14.18C48.305,-15.731 46.556,-15.513 44.513,-15.242C43.104,-15.055 41.574,-14.947 40.354,-15.677C39.55,-16.158 38.956,-16.965 38.092,-17.327C36.437,-18.02 34.659,-16.845 32.933,-16.356C31.098,-15.836 29.374,-15.172 27.351,-15.046C27.351,-15.046 26.167,-15.643 25.904,-15.621C24.674,-15.517 23.63,-15.341 23.001,-14.938L20.591,-12.873C18.844,-12.873 17.353,-13.335 16.043,-14.032C16.043,-14.032 13.525,-13.87 13.106,-14.162C10.175,-16.21 9.79,-19.876 7.584,-20.442C6.328,-20.764 3.426,-22.744 1.695,-22.716L-2.073,-23.713L-8.378,-21.108L-10.854,-22.326C-13.958,-22.797 -18.603,-17.046 -20.741,-15.991C-22.09,-15.325 -25.501,-15.702 -26.726,-14.828C-28.796,-13.351 -27.919,-11.951 -30.422,-11.499C-31.28,-11.343 -32.19,-11.632 -33.297,-12.248C-35.216,-13.317 -36.074,-14.732 -36.074,-14.732C-36.074,-14.732 -38.394,-15.276 -39.236,-14.9C-40.501,-14.335 -41.938,-12.699 -41.938,-12.699C-43.706,-12.699 -47.88,-13.131 -47.88,-13.131C-49.054,-12.671 -50.703,-12.036 -50.931,-11.78C-51.566,-11.063 -51.065,-9.898 -51.405,-9.002C-51.747,-8.099 -52.81,-7.739 -53.743,-7.49C-54.813,-7.205 -55.884,-6.919 -56.954,-6.634C-59.91,-5.846 -61.062,1.213 -61.062,1.213C-62.16,1.547 -63.757,2.215 -63.757,2.215L-64.902,4.062L-56.061,4.789L-52.427,15.974L-46.552,19.798C-45.987,21.751 -42.204,22.413 -40.738,22.806C-39.104,23.245 -37.77,21.242 -36.083,21.111C-34.294,20.972 -33.058,22.904 -31.359,23.478C-30.663,23.713 -29.911,23.709 -29.178,23.672C-28.113,23.617 -27.052,23.496 -26.002,23.309C-25.331,23.19 -24.551,22.946 -24.349,22.294C-24.272,22.046 -24.298,21.778 -24.265,21.52C-24.156,20.663 -23.401,20.006 -22.583,19.725C-21.766,19.444 -20.882,19.46 -20.018,19.433C-16.36,19.32 -12.725,18.711 -9.19,17.831C-8.89,17.756 -8.553,17.687 -8.289,17.848C-8.147,17.935 -8.05,18.078 -7.923,18.187C-7.051,18.938 -6.548,17.635 -5.869,17.413C-5.127,17.17 -3.851,17.089 -3.127,17.433C-1.916,18.009 -2.172,19.438 -0.594,19.689C0.76,19.904 2.348,19.457 3.698,19.301C4.651,19.192 4.328,18.213 4.642,17.569C5.119,16.589 6.374,16.034 7.245,15.427C7.514,15.239 7.793,15.046 8.113,14.972C8.319,14.924 8.532,14.926 8.743,14.929C9.705,14.943 10.691,15.451 11.579,15.415C12.253,15.388 12.843,15.116 13.571,15.133C15.685,15.181 17.667,14.393 19.735,14.006C21.395,13.694 23.043,13.315 24.701,12.993C26.029,12.735 27.789,12.688 29.022,12.141C29.44,11.955 29.794,11.546 29.768,11.09C29.757,10.877 29.671,10.641 29.794,10.467C29.855,10.381 29.955,10.332 30.052,10.29C30.609,10.052 31.212,9.92 31.817,9.906C32.319,9.894 32.821,9.961 33.32,9.919C33.868,9.874 34.395,9.699 34.916,9.526C37.404,8.701 40.412,8.191 42.529,6.656C44.562,5.182 46.736,3.849 49.29,3.59C51.716,3.343 58.57,6.407 58.57,6.407L64.902,4.063Z" style="fill:rgb(175,154,166);fill-rule:nonzero;"/>
            </g>
            <g transform="matrix(1,0,0,1,20.022,15.081)">
                <path d="M6.619,0.44L3.55,-0.81L0.933,0.507L1.002,-1.482L3.359,-2.068L3.193,-3.816C1.425,-3.816 -2.749,-4.249 -2.749,-4.249C-3.923,-3.789 -5.572,-3.153 -5.799,-2.897C-6.434,-2.181 -5.936,-1.019 -6.272,-0.124C-6.273,-0.123 -6.273,-0.122 -6.273,-0.12L-6.274,-0.12L-6.274,-0.118C-6.334,0.039 -6.421,0.175 -6.52,0.301C-6.529,0.313 -6.539,0.323 -6.548,0.335L-6.549,0.335C-6.639,0.445 -6.741,0.548 -6.855,0.637C-6.8,0.718 -6.752,0.801 -6.724,0.895C-6.498,1.655 -7.08,2.093 -7.149,2.788C-6.403,2.773 -5.564,2.683 -4.879,3.067C-4.628,3.208 -4.411,3.405 -4.157,3.543C-3.073,4.129 -1.756,3.48 -0.524,3.473C0.415,3.468 1.311,3.846 2.241,3.983C4.045,4.249 5.963,3.529 7.149,2.143C6.972,1.575 6.796,1.008 6.619,0.44Z" style="fill:rgb(141,124,142);fill-rule:nonzero;"/>
            </g>
            <g transform="matrix(1,0,0,1,10.779,16.558)">
                <path d="M3.019,0.462C3.176,0.203 3.276,-0.108 3.521,-0.286C3.565,-0.318 3.617,-0.349 3.635,-0.4C3.654,-0.452 3.633,-0.509 3.611,-0.56C3.451,-0.936 3.233,-1.287 2.97,-1.6C2.97,-1.599 2.97,-1.598 2.969,-1.597C2.627,-0.694 1.564,-0.334 0.631,-0.085C-0.439,0.2 -1.51,0.485 -2.58,0.771C-2.969,0.875 -3.326,1.092 -3.654,1.383C-3.561,1.374 -3.469,1.365 -3.376,1.358C-2.693,1.303 -2.006,1.308 -1.323,1.373C-0.542,1.447 0.239,1.6 1.021,1.533C1.803,1.466 2.613,1.134 3.019,0.462Z" style="fill:rgb(141,124,142);fill-rule:nonzero;"/>
            </g>
            <g transform="matrix(1,0,0,1,12.095,23.31)">
                <path d="M5.195,1.563C4.939,1.118 4.646,0.648 4.695,0.137C4.744,-0.381 5.133,-0.796 5.34,-1.274C5.487,-1.617 5.538,-2.058 5.461,-2.467C5.382,-2.893 5.163,-3.284 4.772,-3.486C4.347,-3.706 3.84,-3.773 3.378,-3.875C3.229,-3.907 3.073,-3.944 2.959,-4.045C2.827,-4.163 2.777,-4.346 2.733,-4.519C2.677,-4.741 2.62,-4.964 2.564,-5.186C2.506,-5.415 2.405,-5.684 2.173,-5.725C2.042,-5.748 1.895,-5.689 1.782,-5.76C1.705,-5.808 1.673,-5.903 1.646,-5.99C1.533,-6.359 1.419,-6.729 1.305,-7.098C1.021,-6.98 0.82,-6.683 0.818,-6.375C0.817,-6.3 0.826,-6.218 0.784,-6.156C0.752,-6.108 0.698,-6.082 0.646,-6.058C0.282,-5.89 -0.081,-5.721 -0.445,-5.553C-0.514,-5.521 -0.588,-5.488 -0.663,-5.499C-0.801,-5.52 -0.875,-5.671 -0.991,-5.749C-1.259,-5.93 -1.776,-5.738 -2.085,-5.738C-2.528,-5.737 -2.966,-5.745 -3.41,-5.722C-3.808,-5.702 -4.335,-5.534 -4.783,-5.514C-5.355,-5.074 -5.841,-4.404 -6.249,-3.634C-4.665,-3.254 -3.05,-2.994 -1.424,-2.907C-0.759,-2.871 0.281,-2.869 0.72,-2.262C0.856,-2.074 0.962,-1.864 1.105,-1.681C1.165,-1.605 1.27,-1.532 1.319,-1.453C1.376,-1.361 1.335,-1.267 1.432,-1.18C1.724,-0.917 2.08,-0.727 2.334,-0.428C3.035,0.398 2.72,1.728 3.322,2.629C3.505,2.902 3.858,3.128 3.983,3.431C4.089,3.686 4.101,4.03 4.173,4.302C4.372,5.05 4.591,5.8 4.946,6.491C5.232,7.046 5.422,7.097 5.746,6.509C6.139,5.797 6.249,4.952 6.147,4.151C6.031,3.233 5.656,2.365 5.195,1.563Z" style="fill:rgb(77,67,95);fill-rule:nonzero;"/>
            </g>
            <g transform="matrix(1,0,0,1,5.965,27.241)">
                <path d="M5.481,-0.191L4.475,-3.907C3.503,-3.694 2.55,-3.395 1.631,-3.014C1.494,-2.958 1.355,-2.897 1.249,-2.794C1.114,-2.661 1.05,-2.474 0.992,-2.293C0.746,-1.526 0.525,-0.751 0.332,0.031C-0.397,0.219 -1.152,0.308 -1.906,0.294C-2.04,0.291 -2.178,0.285 -2.301,0.232C-2.42,0.182 -2.517,0.092 -2.611,0.004C-3.076,-0.428 -3.541,-0.86 -4.006,-1.291C-4.344,-1.157 -4.569,-1.063 -4.569,-1.063L-5.715,0.784L3.128,1.511L3.906,3.907C4.698,2.847 5.3,1.644 5.655,0.368C5.715,0.153 5.703,-0.166 5.481,-0.191Z" style="fill:rgb(141,124,142);fill-rule:nonzero;"/>
            </g>
            <g transform="matrix(1,0,0,1,7.5,24.34)">
                <path d="M0,0L-1.542,0.401L-3.243,0C-3.353,0.508 -3.408,0.836 -3.408,0.836L-0.776,0.836L3.408,-0.836L0,0Z" style="fill:rgb(141,124,142);fill-rule:nonzero;"/>
            </g>
            <g transform="matrix(1,0,0,1,8.194,21.442)">
                <path d="M2.82,-3.054C3.65,-2.296 4.246,-1.286 4.509,-0.193C4.526,-0.123 4.541,-0.05 4.527,0.021C4.506,0.131 4.419,0.214 4.344,0.297C4.06,0.616 4.045,1.444 4.011,1.412L2.714,2.062L-2.237,3.299L-3.939,2.898C-4.285,2.817 -4.54,1.988 -4.489,1.726C-4.432,1.433 -4.375,1.139 -4.317,0.846C-4.237,0.434 -4.141,-0.005 -3.836,-0.292C-3.524,-0.587 -3.031,-0.679 -2.805,-1.044C-2.643,-1.303 -2.961,-1.786 -2.952,-2.133C-2.95,-2.196 -2.948,-2.262 -2.918,-2.318C-2.883,-2.384 -2.815,-2.426 -2.75,-2.463C-1.982,-2.9 -0.998,-3.299 -0.101,-3.292C0.865,-3.285 1.85,-3.096 2.82,-3.054Z" style="fill:rgb(175,154,166);fill-rule:nonzero;"/>
            </g>
            <g transform="matrix(1,0,0,1,13.877,32.66)">
                <path d="M-1.693,5.606C-1.45,5.589 -1.227,5.464 -1.022,5.329C-0.166,4.766 0.576,4.03 1.145,3.178C1.536,2.593 1.869,1.932 2.459,1.548C2.731,1.371 3.07,1.24 3.202,0.944C3.27,0.792 3.271,0.62 3.271,0.454C3.269,-0.978 3.265,-2.423 2.948,-3.819C2.813,-4.411 2.621,-5 2.636,-5.606L0.15,-5.184C-0.761,-5.019 -1.632,-4.634 -2.368,-4.072C-2.831,-3.718 -3.271,-3.228 -3.262,-2.645C-3.257,-2.314 -3.107,-2.004 -3.006,-1.689C-2.674,-0.658 -2.855,0.464 -3.005,1.569L-1.693,5.606Z" style="fill:rgb(141,124,142);fill-rule:nonzero;"/>
            </g>
            <g transform="matrix(1,0,0,1,8.195,22.522)">
                <path d="M4.01,0.333C4.044,0.365 4.059,-0.463 4.343,-0.782C4.418,-0.865 4.505,-0.948 4.527,-1.058C4.541,-1.129 4.525,-1.202 4.508,-1.272C4.43,-1.597 4.319,-1.914 4.184,-2.22C4.176,-2.177 4.166,-2.133 4.158,-2.09C4.133,-1.938 4.109,-1.78 4.021,-1.655C3.947,-1.549 3.834,-1.479 3.727,-1.405C3.321,-1.123 2.97,-0.762 2.699,-0.35C2.623,-0.234 2.552,-0.115 2.451,-0.02C2.33,0.093 2.174,0.16 2.021,0.223C0.889,0.688 -0.293,1.033 -1.498,1.249L-1.606,0.397L-3.657,0.181L-3.627,-1.525C-3.701,-1.479 -3.774,-1.432 -3.837,-1.373C-4.142,-1.085 -4.238,-0.645 -4.318,-0.233C-4.376,0.06 -4.433,0.354 -4.49,0.647C-4.541,0.909 -4.285,1.738 -3.939,1.819L-2.237,2.22L2.713,0.983L4.01,0.333Z" style="fill:rgb(141,124,142);fill-rule:nonzero;"/>
            </g>
            <g transform="matrix(0.94429,0,0,1,13.243,29.485)">
                <path d="M-0.811,11.215L-4.296,1.069C-4.296,1.069 -4.3,-1.476 -4.367,-9.001C-4.39,-11.618 0.51,-10.64 0.51,-10.64C0.51,-10.64 0.884,-8.716 2.682,-8.754C2.595,-7.97 1.242,-6.43 3.449,-4.004C5.127,-2.159 -0.811,11.215 -0.811,11.215Z" style="fill:rgb(136,212,235);fill-rule:nonzero;"/>
            </g>
            <g transform="matrix(1,0,0,1,15.837,34.732)">
                <path d="M-3.634,2.72C-3.74,3.248 -3.661,3.828 -3.924,4.297C-4.286,4.942 -5.153,5.132 -5.602,5.72C-5.79,5.968 -5.893,6.279 -5.89,6.589C-5.881,7.381 -5.207,8.026 -4.472,8.319C-3.737,8.612 -2.929,8.647 -2.154,8.808C-0.908,9.067 1.171,8.516 2.764,9.03C2.764,9.03 4.259,8.75 4.154,7.482C4.108,6.936 3.785,6.414 3.876,5.874C3.981,5.249 4.586,4.855 4.969,4.35C5.684,3.406 5.485,2.345 5.309,1.27C5.214,0.689 5.1,0.422 5.263,-0.148C5.383,-0.568 5.818,-0.811 5.846,-1.291C5.893,-2.109 4.782,-2.565 4.657,-3.374C4.543,-4.111 5.287,-4.706 5.418,-5.439C5.514,-5.975 5.163,-6.222 5.006,-6.656C4.842,-7.112 4.857,-7.646 4.744,-8.122C4.691,-8.342 4.623,-8.574 4.457,-8.728C4.091,-9.067 3.504,-8.862 3.056,-8.642C2.805,-8.518 2.547,-8.389 2.368,-8.174C2.183,-7.953 2.104,-7.666 1.974,-7.409C1.442,-6.357 0.17,-5.943 -0.686,-5.134C-0.74,-5.083 -0.794,-5.027 -0.817,-4.956C-0.841,-4.88 -0.825,-4.798 -0.809,-4.719C-0.656,-3.967 -0.262,-3.031 -0.962,-2.473C-1.508,-2.038 -2.163,-2.196 -2.493,-1.426C-2.755,-0.814 -2.5,0.008 -2.715,0.675C-2.947,1.392 -3.483,1.967 -3.634,2.72Z" style="fill:rgb(175,154,166);fill-rule:nonzero;"/>
            </g>
            <g transform="matrix(1,0,0,1,14.856,42.125)">
                <path d="M3.292,0.939C3.162,0.893 3.029,0.832 2.947,0.721C2.874,0.623 2.85,0.499 2.827,0.379C2.746,-0.046 2.772,-0.802 2.233,-0.937C2.017,-0.991 1.808,-0.813 1.7,-0.618C1.592,-0.423 1.539,-0.196 1.399,-0.023C1.274,0.13 1.093,0.225 0.911,0.302C0.133,0.631 -2.157,0.582 -3.49,-0.152C-4.477,-0.696 -4.62,-1.673 -4.62,-1.673C-4.809,-1.426 -4.912,-1.115 -4.909,-0.804C-4.9,-0.013 -4.225,0.632 -3.491,0.925C-2.756,1.218 -1.948,1.254 -1.173,1.415C0.073,1.673 2.152,1.123 3.745,1.636C3.745,1.636 4.518,1.484 4.912,0.927C4.392,1.109 3.812,1.122 3.292,0.939Z" style="fill:rgb(141,124,142);fill-rule:nonzero;"/>
            </g>
            <g transform="matrix(1,0,0,1,122.069,18.081)">
                <path d="M2.815,3.517C2.861,3.699 2.889,3.934 3.069,3.987C3.137,4.008 3.21,3.994 3.28,3.979C4.224,3.776 5.168,3.573 6.112,3.37C5.949,2.927 5.842,2.649 5.842,2.649C5.29,2.189 4.483,1.937 4.027,1.384C3.856,1.177 3.872,0.879 3.806,0.618C3.735,0.334 3.562,0.087 3.393,-0.153C2.987,-0.726 2.541,-1.329 1.88,-1.565C1.673,-1.639 1.453,-1.673 1.236,-1.706C0.963,-1.747 0.69,-1.789 0.418,-1.83C0.279,-1.851 0.135,-1.874 0.022,-1.955C-0.099,-2.042 -0.167,-2.182 -0.235,-2.315C-0.532,-2.899 -0.902,-3.445 -1.333,-3.938C-1.358,-3.967 -1.387,-3.997 -1.424,-4.003C-1.46,-4.009 -1.496,-3.992 -1.528,-3.973C-1.813,-3.805 -1.884,-3.534 -2.066,-3.284C-2.266,-3.008 -2.484,-2.742 -2.7,-2.478C-2.941,-2.185 -3.244,-1.7 -3.601,-1.534C-4.121,-1.291 -4.74,-1.338 -5.261,-1.098C-5.781,-0.857 -6.112,-0.051 -5.632,0.263C-5.515,0.34 -5.373,0.368 -5.235,0.394C-4.74,0.489 -4.245,0.584 -3.75,0.678C-2.5,0.918 -1.244,1.159 -0.049,1.596C0.597,1.831 1.222,2.125 1.817,2.469C2.247,2.717 2.694,3.036 2.815,3.517Z" style="fill:rgb(77,67,95);fill-rule:nonzero;"/>
            </g>
            <g transform="matrix(1,0,0,1,112.969,24.129)">
                <path d="M1.474,3.424C2.035,3.367 2.838,3.492 3.733,3.71C3.802,3.474 3.871,3.238 3.94,3.002L2.589,-5.564C2.631,-4.788 2.321,-4 1.763,-3.461C1.595,-3.299 1.402,-3.153 1.291,-2.947C1.16,-2.705 1.162,-2.415 1.167,-2.14C1.182,-1.395 1.196,-0.65 1.21,0.095L0,2.418C-1.775,3.164 -3.197,3.324 -3.5,4.174C-3.592,4.43 -3.665,4.69 -3.728,4.954C-3.779,5.166 -3.854,5.367 -3.94,5.564C-2.291,4.492 -0.526,3.627 1.474,3.424Z" style="fill:rgb(141,124,142);fill-rule:nonzero;"/>
            </g>
            <g transform="matrix(1,0,0,1,120.575,24.124)">
                <path d="M2.063,6.165L-5.505,6.079C-5.505,6.079 -5.273,-4.467 -5.207,-6.023C-5.127,-7.903 -2.045,-6.895 -0.514,-7.193C-0.31,-6.703 -0.055,-5.974 2.177,-6.102C2.445,-5.545 3.659,-5.045 4.614,-5.223C3.373,-4.617 3.158,-3.616 2.603,-3.408C2.195,-1.211 2.063,6.165 2.063,6.165Z" style="fill:rgb(136,212,235);fill-rule:nonzero;"/>
            </g>
            <g transform="matrix(1,0,0,1,122.844,17.967)">
                <path d="M-1.545,-2.378C-1.413,-1.947 -1.444,-1.357 -1.024,-1.192C-0.876,-1.133 -0.709,-1.154 -0.55,-1.171C0.098,-1.24 0.785,-1.228 1.354,-0.912C2.071,-0.515 2.321,0.31 1.924,1.036C1.718,1.412 1.265,1.569 1.023,1.913C0.773,2.268 0.844,2.775 0.514,3.106C0.411,3.209 0.219,3.234 0.172,3.371C0.093,3.598 0.244,3.837 0.412,4.009C0.632,4.234 0.849,4.672 1.104,4.743C1.428,4.833 1.871,4.714 2.227,4.795C2.594,4.879 2.948,5.025 3.266,5.228C3.397,5.311 4.138,5.811 4.091,5.991C4.235,5.436 4.532,4.921 4.938,4.517C5.113,4.344 5.315,4.178 5.386,3.942C5.434,3.785 5.416,3.615 5.398,3.452C5.285,2.477 5.172,1.502 5.06,0.527C4.152,0.27 3.296,-0.168 2.557,-0.754C1.994,-1.201 1.476,-1.743 0.794,-1.968C0.504,-2.064 0.194,-2.098 -0.089,-2.215C-0.981,-2.582 -1.303,-3.574 -1.81,-4.309C-2.326,-5.055 -3.552,-5.99 -4.544,-5.496C-5.435,-5.052 -4.491,-4.184 -3.891,-3.887C-3.058,-3.476 -1.87,-3.44 -1.545,-2.378Z" style="fill:rgb(175,154,166);fill-rule:nonzero;"/>
            </g>
            <g transform="matrix(1,0,0,1,99.436,17.29)">
                <path d="M13.122,-3.562C13.122,-3.562 12.741,-2.107 11.765,-1.893C11.038,-1.734 7.729,-2.302 7.729,-2.302L5.475,-5.307L4.298,-5.599C5.14,-4.653 5.392,-4.706 5.414,-3.467C5.417,-3.333 5.414,-3.195 5.354,-3.076C5.288,-2.946 5.163,-2.858 5.043,-2.776C3.793,-1.928 2.511,-1.127 1.201,-0.373C1.053,-0.288 0.902,-0.204 0.735,-0.167C-0.263,0.054 -3.584,-1.241 -4.538,-1.503L-4.339,-3.17C-4.751,-2.767 -5.914,-3.885 -5.479,-5.135C-5.226,-5.864 -6.428,-6.802 -6.428,-6.802C-6.428,-6.802 -6.076,-1.397 -6.803,-0.149C-7.394,0.864 -13.467,2.602 -13.467,2.602C-11.636,2.442 -9.804,2.282 -7.972,2.122C-7.441,2.076 -6.897,2.026 -6.414,1.799C-5.471,1.354 -4.881,0.287 -3.874,0.016C-2.817,-0.269 -1.78,0.424 -0.757,0.812C-0.03,1.088 0.685,1.205 1.435,1.055C1.572,1.028 3.323,0.764 3.175,1.104C2.985,1.543 2.794,1.981 2.603,2.419C2.547,2.55 2.489,2.698 2.538,2.831C2.702,3.276 3.565,2.948 3.909,3.206C4.251,3.462 4.143,3.8 4.336,4.122C4.65,4.645 6.601,6.26 6.52,6.802C6.644,5.977 6.769,5.151 6.893,4.326C6.909,4.223 6.922,4.111 6.867,4.023C6.819,3.946 6.73,3.906 6.646,3.872C5.892,3.564 4.756,2.485 5.768,1.666C7.729,0.081 11.209,1.066 12.629,-0.6C13.467,-1.585 13.122,-3.562 13.122,-3.562Z" style="fill:rgb(141,124,142);fill-rule:nonzero;"/>
            </g>
            <g transform="matrix(1,0,0,1,57.83,33.989)">
                <path d="M6.039,9.404C5.8,8.759 5.974,8.039 5.892,7.356C5.809,6.667 5.468,6.038 5.289,5.367C5.175,4.939 5.283,4.53 5.404,4.144C5.567,3.624 5.752,3.148 5.443,2.728C5.01,2.138 4.032,1.469 3.837,0.781C3.816,0.705 3.802,0.62 3.842,0.553C3.882,0.486 3.965,0.458 4.039,0.436C4.655,0.255 5.297,0.165 5.939,0.17C6.42,0.174 6.92,0.227 7.368,0.051C7.63,-0.052 7.856,-0.228 8.074,-0.406C8.955,-1.121 9.781,-1.903 10.543,-2.744C9.662,-2.403 8.814,-1.976 8.016,-1.471C7.753,-1.304 7.486,-1.126 7.181,-1.066C6.8,-0.991 6.412,-1.109 6.042,-1.227C5.563,-1.379 5.084,-1.53 4.605,-1.682C4.199,-1.811 3.758,-1.966 3.535,-2.328C3.421,-2.513 3.378,-2.731 3.337,-2.944C3.149,-3.927 2.933,-4.845 2.733,-5.81L1.987,-9.404C1.385,-8.434 -0.038,-3.75 -0.038,-3.75L-0.502,-0.36L-1.983,1.818C-1.983,1.818 -0.528,2.025 0.511,0.689C0.642,0.52 0.755,0.33 0.928,0.203C1.181,0.015 1.502,-0.003 1.824,-0.03C2.16,0.354 2.503,0.732 2.759,1.171C3.91,3.146 1.769,3.453 1.569,5.214C1.534,5.516 1.551,5.825 1.483,6.121C1.241,7.16 -0.227,7.661 -1.053,6.986C-1.443,6.666 -1.771,6.126 -2.272,6.181C-2.469,6.202 -2.642,6.32 -2.811,6.425C-4.388,7.409 -6.337,7.524 -8.099,8.117C-8.957,8.405 -9.765,8.809 -10.543,9.27C-7.613,9.03 -4.706,8.512 -1.866,7.805C-1.566,7.73 -1.228,7.661 -0.965,7.822C-0.823,7.909 -0.726,8.052 -0.599,8.161C0.273,8.912 0.776,7.61 1.456,7.387C2.197,7.144 3.473,7.063 4.197,7.407C5.187,7.878 5.211,8.908 6.039,9.404Z" style="fill:rgb(141,124,142);fill-rule:nonzero;"/>
            </g>
            <g transform="matrix(1,0,0,1,44.973,18.786)">
                <path d="M4.464,-4.277C3.745,-4.265 3.027,-4.251 2.308,-4.239C2.19,-1.155 1.853,1.918 1.301,4.954L-2.921,3.639C-2.921,3.639 -1.994,0.777 -3.783,-0.77C-4.001,-0.959 -4.245,-1.139 -4.365,-1.402C-4.459,-1.609 -4.464,-1.843 -4.462,-2.07C-4.442,-4.035 1.698,-4.954 1.698,-4.954L4.464,-4.277Z" style="fill:rgb(141,124,142);fill-rule:nonzero;"/>
            </g>
            <g transform="matrix(1,0,0,1,80.701,19.311)">
                <path d="M2.523,-4.841C2.928,-5.43 3.686,-5.661 4.193,-6.164C4.777,-6.744 5.011,-7.643 5.305,-8.446L5.044,-8.222C3.824,-8.222 2.73,-8.45 1.734,-8.823L2.821,-6.979L-1.648,-3.452C-2.304,0.141 -5.305,0.644 -5.305,0.644L-3.804,3.048C-3.804,3.048 -3.966,4.429 -4.128,6.283C-4.221,7.348 -4.104,8.823 -2.682,8.823C-2.682,8.823 -3.185,7.84 -2.658,6.236C-2.439,5.572 -1.814,2.879 -0.922,2.211C0.261,1.324 2.09,1.527 3.087,0.434C2.613,-0.228 2.139,-0.891 1.665,-1.553C1.581,-1.671 1.494,-1.798 1.488,-1.943C1.479,-2.146 1.631,-2.314 1.742,-2.485C2.197,-3.183 2.05,-4.154 2.523,-4.841Z" style="fill:rgb(141,124,142);fill-rule:nonzero;"/>
            </g>
            <g transform="matrix(1,0,0,1,99.315,13.245)">
                <path d="M-3.556,0.362C-2.526,0.31 -1.913,0.866 -0.988,1.323C-0.604,1.514 -0.15,1.747 0.225,1.539C0.431,1.424 0.549,1.203 0.7,1.021C1.177,0.445 1.915,0.425 2.546,0.128C3.119,-0.142 3.556,-1.747 3.556,-1.747C2.163,-1.438 0.605,-1.265 -0.762,-0.894C-2.652,-0.382 -3.556,0.362 -3.556,0.362Z" style="fill:rgb(194,172,186);fill-rule:nonzero;"/>
            </g>
            <g transform="matrix(1,0,0,1,110.621,10.471)">
                <path d="M5.148,0.297C4.831,-0.006 4.523,-0.339 4.213,-0.689C3.18,-1.854 1.935,-2.019 0.514,-1.915C0.322,-1.81 0.128,-1.709 -0.074,-1.631C-0.694,-1.393 -1.375,-1.383 -2.024,-1.241C-3.371,-0.946 -4.574,-0.048 -5.24,1.16L-3.884,1.069L-1.93,0.634C-1.591,0.559 -1.228,0.486 -0.904,0.611C-0.19,0.887 0.083,2.019 0.849,1.981C0.945,1.976 1.047,1.945 1.104,1.867C1.224,1.702 1.065,1.476 1.079,1.272C1.102,0.925 1.564,0.825 1.911,0.84C2.98,0.887 4.042,1.099 5.046,1.468C5.23,1.097 5.24,0.694 5.148,0.297Z" style="fill:rgb(194,172,186);fill-rule:nonzero;"/>
            </g>
            <g transform="matrix(1,0,0,1,103.524,26.032)">
                <path d="M2.635,-1.604C1.028,-1.042 -0.579,-0.479 -2.186,0.083C-2.958,0.354 -3.773,0.628 -4.579,0.485L-3.608,1.604C-3.608,1.604 1.467,1.076 3.859,1.076C4.498,1.076 4.579,0.713 4.579,0.713L2.635,-1.604Z" style="fill:rgb(194,172,186);fill-rule:nonzero;"/>
            </g>
            <g transform="matrix(1,0,0,1,63.944,2.31)">
                <path d="M-0.864,-2.06L-6.152,0.126C-5.414,0.205 -4.663,0.17 -3.938,0.008C-3.626,-0.061 -3.309,-0.154 -2.993,-0.106C-2.754,-0.071 -2.535,0.043 -2.323,0.159C-1.327,0.703 0.497,2.06 0.497,2.06L1.675,1.866C1.675,1.866 2.974,-0.545 6.152,1.355C5.824,0.753 5.496,0.152 5.169,-0.449C5.168,-0.451 5.167,-0.452 5.166,-0.454C4.347,-0.808 3.546,-1.073 2.905,-1.063L-0.864,-2.06Z" style="fill:rgb(194,172,186);fill-rule:nonzero;"/>
            </g>
            <g transform="matrix(1,0,0,1,50.751,4.781)">
                <path d="M3.549,-3.143C0.997,-3.531 -2.594,0.283 -4.979,2.24L-4.367,2.665C-3.313,1.99 -1.852,2.24 0.818,3.452C0.979,3.525 1.174,3.531 1.336,3.463C1.506,3.391 1.612,3.226 1.712,3.072C2.639,1.624 3.739,0.285 4.979,-0.906C4.4,-1.26 3.821,-1.613 3.242,-1.967C3.529,-2.268 3.816,-2.569 4.104,-2.87L3.549,-3.143Z" style="fill:rgb(194,172,186);fill-rule:nonzero;"/>
            </g>
            <g transform="matrix(1,0,0,1,76.189,12.585)">
                <path d="M2.06,-2.786L-0.801,-2.096L-4.017,-1.417C-4.691,-0.497 -5.01,1.493 -4.489,2.786C-4.489,2.786 -3.062,1.833 -2.833,1.247C-2.753,1.045 -2.657,0.833 -2.474,0.716C-2.344,0.634 -2.187,0.61 -2.034,0.588C-0.656,0.393 0.721,0.197 2.099,0.002C3.21,-0.156 3.668,-0.515 4.126,-1.445C4.351,-1.903 4.679,-2.283 5.01,-2.661C5.01,-2.661 3.092,-2.658 2.06,-2.786Z" style="fill:rgb(194,172,186);fill-rule:nonzero;"/>
            </g>
            <g transform="matrix(1,0,0,1,90.056,29.879)">
                <path d="M7.471,-3.08C7.471,-3.08 4.525,-6.186 4.341,-7.154C4.341,-7.154 4.279,-2.677 0.8,-1.745L-1.296,1.987C-1.296,1.987 -4.575,-1.191 -10.013,-1.385C-10.013,-1.385 -4.909,-0.187 -2.691,4.836C-2.476,4.737 -2.261,4.612 -2.046,4.471C-1.557,4.856 -0.955,5.097 -0.333,5.12C-0.585,5.763 -0.661,6.468 -0.579,7.154C-0.453,7.129 -0.327,7.101 -0.201,7.076C0.132,7.012 0.492,6.96 0.865,6.911C1.24,6.861 1.626,6.814 2.01,6.757C2.013,6.756 2.017,6.756 2.02,6.755C1.521,6.592 1.112,6.44 0.994,6.318C1.421,5.824 1.439,5.787 1.538,5.141C1.643,4.459 1.343,3.786 1.05,3.161C0.631,3.149 -0.209,3.127 -0.209,3.127L-0.221,2.594L2.841,0.948C2.726,0.715 1.971,-1.942 5.029,-2.388C5.029,-2.388 3.883,-0.822 4.829,4.828C4.824,4.728 4.834,4.631 4.891,4.55C4.952,4.464 5.052,4.416 5.149,4.375C5.706,4.136 6.309,4.004 6.915,3.99C7.416,3.978 7.918,4.045 8.418,4.003C8.965,3.958 9.492,3.783 10.013,3.61C10.013,3.61 7.471,0.948 7.471,-3.08Z" style="fill:rgb(141,124,142);fill-rule:nonzero;"/>
            </g>
            <g transform="matrix(1,0,0,1,28.324,11.033)">
                <path d="M2.178,2.324C2.272,2.308 2.36,2.268 2.446,2.227C2.762,2.077 3.078,1.926 3.393,1.776C2.85,1.579 2.296,1.377 1.847,1.013C1.398,0.649 1.066,0.087 1.129,-0.487C1.153,-0.699 1.228,-0.903 1.296,-1.107C0.937,-1.513 0.756,-1.802 0.756,-1.802C0.756,-1.802 -1.564,-2.345 -2.406,-1.969C-2.733,-1.823 -3.071,-1.604 -3.393,-1.362C-3.224,-1.403 -3.056,-1.451 -2.885,-1.49C-2.673,-1.539 -2.424,-1.578 -2.26,-1.434C-2.148,-1.335 -2.111,-1.178 -2.076,-1.033C-1.939,-0.477 -1.726,0.061 -1.445,0.56C-1.195,1.003 -0.879,1.427 -0.44,1.685C-0.089,1.891 0.317,1.978 0.715,2.063C1.076,2.139 1.437,2.216 1.798,2.292C1.923,2.318 2.052,2.345 2.178,2.324Z" style="fill:rgb(194,172,186);fill-rule:nonzero;"/>
            </g>
            <g transform="matrix(1,0,0,1,34.34,34.664)">
                <path d="M1.64,-5.68C1.347,-5.582 1.043,-5.482 0.736,-5.515C0.461,-5.545 0.209,-5.68 -0.034,-5.813C-0.924,-6.297 -1.814,-6.78 -2.704,-7.264C-2.941,-7.393 -3.473,-10.712 -3.473,-10.712L-9.26,-12.239C-8.862,-11.337 -8.317,-10.316 -7.344,-10.159C-7.06,-10.114 -6.765,-10.151 -6.486,-10.08C-5.738,-9.89 -5.385,-9.008 -5.386,-8.236C-5.386,-7.712 -5.497,-7.188 -5.708,-6.709C-5.902,-6.27 -6.187,-5.822 -6.101,-5.349C-5.989,-4.73 -4.688,-4.272 -4.688,-4.272C-4.688,-4.272 -3.692,4.291 -4.724,6.082C-5.054,6.654 -5.47,7.171 -5.863,7.702C-6.82,8.998 -7.636,10.397 -8.31,11.86C-7.325,11.38 -6.373,10.496 -5.269,10.41C-3.873,10.302 -2.812,11.455 -1.606,12.239C-2.169,11.515 -2.72,10.784 -3.042,9.931C-3.634,8.358 -3.367,6.608 -3.091,4.95C-3.028,4.572 -2.959,4.178 -2.731,3.869C-2.351,3.357 -1.601,3.174 -1.326,2.599C-0.998,1.91 -1.538,1.14 -2.044,0.569C-2.293,0.287 -2.542,0.006 -2.791,-0.275C-0.397,-1.948 2.247,-3.695 5.161,-3.509C5.472,-3.49 5.809,-3.453 6.074,-3.617C6.345,-3.785 6.461,-4.112 6.58,-4.408C7.165,-5.863 8.222,-7.069 9.26,-8.244C6.72,-7.389 4.18,-6.535 1.64,-5.68Z" style="fill:rgb(141,124,142);fill-rule:nonzero;"/>
            </g>
            <g transform="matrix(1,0,0,1,37.702,25.223)">
                <path d="M0.669,-1.138C-0.322,-0.736 -1.301,-0.307 -2.268,0.148C-2.324,0.174 -2.389,0.214 -2.387,0.275C-2.385,0.32 -2.347,0.354 -2.312,0.382C-1.594,0.949 -0.73,1.328 0.173,1.472C0.543,0.389 1.359,-0.535 2.388,-1.036C2.118,-1.173 1.852,-1.319 1.591,-1.472L0.669,-1.138Z" style="fill:rgb(141,124,142);fill-rule:nonzero;"/>
            </g>
            <g transform="matrix(1,0,0,1,22.868,25.383)">
                <path d="M2.212,-2.958L-2.451,-3.937L-3.1,-2.862L-0.738,0.441C-0.121,1.333 -2.04,2.545 -0.806,3.241C0.427,3.937 3.1,2.155 3.1,2.155L1.455,-1.632L2.212,-2.958Z" style="fill:rgb(194,172,186);fill-rule:nonzero;"/>
            </g>
            <g transform="matrix(1,0,0,1,66.43,23.79)">
                <path d="M3.666,-2.899C3.666,-2.899 0.611,-2.648 -2.487,-1.883C-5.585,-1.117 -6.614,0.795 -6.614,0.795C-6.614,0.795 -6.544,0.079 -3.529,-0.04C-0.514,-0.158 1.678,3.129 3.666,2.034C5.654,0.938 4.969,-1.666 6.614,-2.899C6.614,-2.899 5.639,-3.129 3.666,-2.899Z" style="fill:rgb(194,172,186);fill-rule:nonzero;"/>
            </g>
            <g transform="matrix(1,0,0,1,75.392,35.668)">
                <path d="M1.93,2.884C1.612,2.775 1.243,2.795 0.968,2.602C0.711,2.192 1.088,1.672 1.49,1.402C1.892,1.132 2.389,0.883 2.494,0.411C1.184,0.322 0.372,-0.928 -0.369,-2.013C-1.275,-3.34 -2.494,-3.746 -2.494,-3.746C-1.821,-2.389 -0.634,-0.013 -0.564,1.501C-0.548,1.841 -0.554,2.202 -0.725,2.497C-0.935,2.86 -1.333,3.037 -1.718,3.226C-1.644,3.225 -1.57,3.224 -1.496,3.225C-0.534,3.239 0.452,3.746 1.34,3.711C1.697,3.696 2.034,3.614 2.378,3.542C2.46,3.291 2.208,2.979 1.93,2.884Z" style="fill:rgb(141,124,142);fill-rule:nonzero;"/>
            </g>
            <g transform="matrix(1,0,0,1,83.108,21.085)">
                <path d="M0.681,-1.34C-0.057,-1.468 -1.047,-1.46 -1.76,-1.232C-2.173,-1.101 -2.58,-0.921 -2.899,-0.628C-3.217,-0.334 -3.453,0.077 -3.419,0.509C-3.09,0.319 -2.654,0.4 -2.307,0.556C-1.961,0.711 -1.654,0.946 -1.305,1.097C-0.93,1.26 -0.519,1.321 -0.112,1.365C0.583,1.44 1.301,1.468 1.968,1.26C2.635,1.051 3.251,0.567 3.453,-0.102L0.681,-1.34Z" style="fill:rgb(194,172,186);fill-rule:nonzero;"/>
            </g>
            <g transform="matrix(1,0,0,1,50.853,26.887)">
                <path d="M4.331,-4.205C0.514,-3.602 -3.208,-2.404 -6.66,-0.667C-5.534,-0.905 -4.307,-0.603 -3.419,0.13C-2.426,0.951 -1.894,2.226 -0.902,3.05C0.283,4.034 2.081,4.205 3.431,3.462C3.7,0.997 4.865,-1.359 6.66,-3.07L4.331,-4.205Z" style="fill:rgb(194,172,186);fill-rule:nonzero;"/>
            </g>
            <g transform="matrix(1,0,0,1,48.877,12.056)">
                <path d="M13.957,-0.631L8.637,-1.568L7.189,-3.712L-1.303,-0.908L-2.493,-4.611L-3.105,-5.036C-3.22,-4.942 -3.332,-4.854 -3.441,-4.768L-3.441,-4.769C-3.616,-4.632 -3.783,-4.51 -3.943,-4.401C-3.97,-4.382 -3.995,-4.365 -4.022,-4.347C-4.178,-4.243 -4.329,-4.151 -4.465,-4.084C-5.815,-3.418 -9.224,-3.794 -10.449,-2.921C-12.463,-1.484 -11.698,-0.123 -13.957,0.367C-13.953,0.367 -13.948,0.368 -13.944,0.368L-7.303,1.024L-6.327,-0.644L-3.105,0.398L-1.59,2.72L4.887,4.633L7.604,5.036L2.405,1.114L5.272,-1.218C5.574,-0.548 6.069,0.161 6.853,0.398C8.475,0.887 13.957,-0.631 13.957,-0.631Z" style="fill:rgb(141,124,142);fill-rule:nonzero;"/>
            </g>
            <g transform="matrix(1,0,0,1,18.347,31.45)">
                <path d="M4.88,0.296C3.988,0.438 3.095,0.58 2.203,0.722C1.95,0.762 1.676,0.8 1.449,0.683C1.268,0.59 1.147,0.415 1.033,0.247C0.762,-0.152 0.491,-0.55 0.22,-0.949C0.12,-1.097 0.018,-1.252 -0.001,-1.43C-0.019,-1.604 0.045,-1.774 0.108,-1.937C0.406,-2.706 0.68,-3.484 0.928,-4.27C1.01,-4.529 1.089,-4.8 1.048,-5.069C0.946,-5.736 0.203,-6.055 -0.34,-6.456C-0.936,-6.897 -1.33,-7.57 -1.486,-8.293C-1.518,-8.199 -1.548,-8.104 -1.557,-8.003C-1.606,-7.492 -1.312,-7.021 -1.057,-6.576C-0.718,-5.987 -0.426,-5.363 -0.249,-4.709L-1.801,-2.892C-2.366,-2.665 -2.802,-2.224 -3.195,-1.852C-3.249,-1.801 -3.304,-1.746 -3.327,-1.675C-3.368,-1.546 -3.3,-1.464 -3.361,-1.335C-3.413,-1.223 -3.553,-1.136 -3.652,-1.07C-4.057,-0.801 -4.503,-0.569 -4.809,-0.191C-5.116,0.187 -5.24,0.773 -4.935,1.152C-4.894,1.203 -4.846,1.249 -4.786,1.272C-4.654,1.321 -4.455,1.265 -4.325,1.21C-3.249,0.752 -2.784,1.48 -2.396,2.114C-2.262,2.333 -2.132,2.558 -1.978,2.766C-1.7,3.144 -1.384,3.493 -1.043,3.814C-0.676,4.159 -0.123,4.446 0.173,4.854C0.27,4.988 0.381,5.122 0.409,5.284C0.472,5.651 0.111,5.932 -0.168,6.179C-0.767,6.712 -1.139,7.493 -1.174,8.293C-1.174,8.293 0.938,6.883 1.203,6.686C1.338,6.585 1.478,6.478 1.545,6.323C1.606,6.181 1.594,6.021 1.587,5.866C1.565,5.36 1.598,4.851 1.684,4.351C1.706,4.225 1.732,4.095 1.806,3.989C1.881,3.88 5.241,1.634 5.241,1.634L4.88,0.296Z" style="fill:rgb(141,124,142);fill-rule:nonzero;"/>
            </g>
            <g transform="matrix(1,0,0,1,59.634,18.689)">
                <path d="M-5.87,-2.001L5.87,-1.574L0.706,-0.372L-3.224,2.001L-5.87,-2.001Z" style="fill:rgb(194,172,186);fill-rule:nonzero;"/>
            </g>
            <g transform="matrix(1,0,0,1,102.683,32.749)">
                <path d="M-3.276,0.055C-3.52,0.266 -3.81,0.522 -3.764,0.841C-3.748,0.954 -3.689,1.055 -3.632,1.154C-3.139,2.006 -2.989,2.56 -1.991,2.674C-1.307,2.753 -0.241,2.815 0.451,2.778C1.087,2.745 1.334,2.463 1.779,2.101C2.261,1.709 2.953,1.5 3.518,1.242C3.571,1.218 3.626,1.192 3.661,1.146C3.701,1.091 3.707,1.02 3.711,0.953C3.743,0.407 3.777,-0.139 3.81,-0.684C3.19,-0.94 2.584,-1.302 2.12,-1.786C1.739,-2.183 1.483,-2.483 0.884,-2.551C-1.453,-2.815 -1.842,-1.187 -3.276,0.055Z" style="fill:rgb(175,154,166);fill-rule:nonzero;"/>
            </g>
            <g transform="matrix(1,0,0,1,103.392,31.81)">
                <path d="M1.411,-0.847C1.03,-1.244 0.775,-1.543 0.175,-1.611C-1.544,-1.805 -2.21,-0.974 -3.013,-0.027C-2.965,-0.027 -2.26,0.287 -2.26,0.287L-1.918,-0.226C-1.219,-0.455 -0.561,0.275 0.108,0.579C0.108,0.579 0.578,1.744 0.768,1.775C0.953,1.805 2.02,0.606 2.195,0.537C2.468,0.428 2.74,0.319 3.013,0.21C2.425,-0.043 1.853,-0.387 1.411,-0.847Z" style="fill:rgb(194,172,186);fill-rule:nonzero;"/>
            </g>
            <g transform="matrix(1,0,0,1,101.435,34.366)">
                <path d="M2.538,0.871C2.438,0.873 2.337,0.875 2.237,0.877C2.101,0.88 1.962,0.882 1.833,0.838C1.693,0.789 1.578,0.689 1.466,0.592C1.102,0.274 0.72,-0.069 0.58,-0.532C0.548,-0.639 0.524,-0.758 0.436,-0.826C0.295,-0.935 0.095,-0.847 -0.068,-0.776C-0.835,-0.443 -1.772,-0.637 -2.387,-1.198C-2.48,-1.071 -2.538,-0.931 -2.516,-0.776C-2.5,-0.663 -2.441,-0.561 -2.385,-0.463C-1.891,0.389 -1.741,0.943 -0.743,1.058C-0.058,1.137 1.007,1.198 1.699,1.162C2.075,1.142 2.313,1.029 2.538,0.871Z" style="fill:rgb(141,124,142);fill-rule:nonzero;"/>
            </g>
            <g transform="matrix(1,0,0,1,102.485,38.328)">
                <path d="M-0.292,-1.511C-0.631,-1.552 -0.993,-1.616 -1.286,-1.512C-1.776,-1.337 -2.268,-0.672 -2.449,-0.21C-2.613,0.208 -2.601,0.718 -2.325,1.072C-2.022,1.461 -1.485,1.58 -0.992,1.592C-0.046,1.616 0.906,1.338 1.692,0.811C2.164,0.494 2.613,-0.009 2.525,-0.571C2.363,-1.61 0.834,-1.495 0.079,-1.485C-0.038,-1.483 -0.163,-1.495 -0.292,-1.511Z" style="fill:rgb(175,154,166);fill-rule:nonzero;"/>
            </g>
            <g transform="matrix(1,0,0,1,85.04,39.955)">
                <path d="M0.414,2.53C1.007,2.435 1.593,2.268 2.148,2.048C3.581,1.482 3.225,-0.022 2.435,-0.994C1.532,-2.106 0.29,-2.691 -1.129,-2.606C-1.457,-2.586 -1.795,-2.564 -2.089,-2.417C-2.424,-2.249 -2.661,-1.941 -2.887,-1.642C-3.067,-1.404 -3.249,-1.162 -3.366,-0.887C-3.581,-0.383 -3.559,0.186 -3.534,0.734C-3.515,1.14 -3.483,1.58 -3.216,1.887C-3.052,2.074 -2.82,2.186 -2.588,2.275C-1.635,2.641 -0.599,2.691 0.414,2.53Z" style="fill:rgb(175,154,166);fill-rule:nonzero;"/>
            </g>
            <g transform="matrix(1,0,0,1,84.768,38.69)">
                <path d="M-2.568,-0.37C-2.558,-0.434 -2.541,-0.494 -2.512,-0.55C-2.392,-0.779 -2.043,-1.04 -1.818,-1.152C-1.524,-1.3 -1.185,-1.322 -0.857,-1.342C0.518,-1.424 1.72,-0.867 2.615,0.179C2.256,0.546 1.668,0.586 1.151,0.525C0.576,0.458 0.001,0.313 -0.573,0.38C-0.86,0.414 -1.238,0.518 -1.45,0.73C-1.64,0.918 -1.707,1.195 -1.857,1.423C-1.992,1.201 -2.239,1.059 -2.352,0.824C-2.393,0.739 -2.414,0.645 -2.434,0.553C-2.49,0.289 -2.614,-0.077 -2.568,-0.37Z" style="fill:rgb(194,172,186);fill-rule:nonzero;"/>
            </g>
            <g transform="matrix(1,0,0,1,102.439,39.036)">
                <path d="M1.739,0.103C2.104,-0.142 2.447,-0.499 2.547,-0.907C1.872,-0.572 1.155,-0.319 0.441,-0.072C0.081,0.053 -0.288,0.18 -0.669,0.17C-1.05,0.16 -1.451,-0.015 -1.622,-0.355C-1.681,-0.471 -1.714,-0.607 -1.812,-0.693C-1.953,-0.817 -2.17,-0.788 -2.351,-0.74C-2.39,-0.729 -2.425,-0.709 -2.463,-0.698C-2.548,-0.331 -2.509,0.069 -2.279,0.363C-1.976,0.752 -1.439,0.871 -0.945,0.883C0.001,0.907 0.953,0.63 1.739,0.103Z" style="fill:rgb(141,124,142);fill-rule:nonzero;"/>
            </g>
            <g transform="matrix(1,0,0,1,9.241,28.486)">
                <path d="M-0.148,-1.324C-0.148,-0.342 -0.293,-0.715 -0.963,0.155C-1.331,0.632 -1.582,2.42 -0.154,2.223C0.115,2.186 0.405,2.058 0.707,1.808C2.611,0.23 -0.148,-3.387 -0.148,-1.324Z" style="fill:rgb(135,211,235);fill-rule:nonzero;"/>
            </g>
            <g transform="matrix(1,0,0,1,115.392,27.491)">
                <path d="M-0.225,-1.324C-0.225,-0.342 -0.054,-0.687 -0.553,0.29C-0.932,1.033 0.109,3.387 2.013,1.808C3.918,0.23 -0.225,-3.387 -0.225,-1.324Z" style="fill:rgb(135,211,235);fill-rule:nonzero;"/>
            </g>
        </g>
        <g transform="matrix(-1.44952,-0.546727,-0.645369,1.22797,215.479,35.6453)">
            <g>
                <g>
                    <path d="M-0.06,-0.196C-1.325,2.222 -7.214,1.44 -4.871,-2.482C-4.283,-1.319 -0.624,-0.893 0.441,-1.966C1.144,-0.76 3.119,-0.266 4.977,-1.8C6.005,3.349 0.235,2.687 -0.06,-0.196Z" style="fill:rgb(184,228,250);fill-rule:nonzero;"/>
                </g>
            </g>
        </g>
        <g transform="matrix(-1.5867,0,0,1.34418,332.538,-7.5814)">
            <g>
                <g transform="matrix(0.913545,-0.406737,0.406737,0.913545,74.278,37.902)">
                    <path d="M-0.06,-0.196C-1.325,2.222 -5.766,2.012 -4.302,-1.487C-1.685,-0.235 -0.624,-0.893 0.441,-1.966C1.144,-0.76 2.816,0.414 4.674,-1.12C4.277,2.58 0.235,2.687 -0.06,-0.196Z" style="fill:rgb(184,228,250);fill-rule:nonzero;"/>
                </g>
                <g transform="matrix(0.913545,-0.406737,0.406737,0.913545,74.778,43.902)">
                    <path d="M-0.643,1.113C-3.635,2.762 -8.18,1.235 -4.383,-2.854C-1.766,-1.602 -0.624,-0.893 0.441,-1.966C1.144,-0.76 2.559,0.299 4.417,-1.235C4.02,2.465 -0.348,3.996 -0.643,1.113Z" style="fill:rgb(184,228,250);fill-rule:nonzero;"/>
                </g>
            </g>
        </g>
        <g transform="matrix(0.258,0,0,0.258,-383.729,150.468)">
            <g>
                <g>
                    <path d="M1556.25,-416C1554.25,-411.5 1555.96,-411.789 1554.25,-405C1550.35,-389.443 1555.6,-369.443 1568,-382C1564.1,-356.443 1592.86,-366.026 1604.51,-385.836C1610.89,-396.68 1572.1,-382.443 1574.5,-397C1564.6,-387.443 1555.75,-403.5 1556.25,-416Z" style="fill:rgb(185,229,251);fill-rule:nonzero;"/>
                    <path d="M1548.5,-416C1546.5,-411.5 1548.2,-411.789 1546.5,-405C1542.6,-389.443 1555.6,-369.443 1568,-382C1564.1,-356.443 1586.1,-322.943 1609.5,-337.5C1617.27,-342.33 1620.1,-354.943 1617,-363.5C1596.1,-348.943 1572.1,-382.443 1574.5,-397C1564.6,-387.443 1548,-403.5 1548.5,-416Z" style="fill-opacity:0;fill-rule:nonzero;"/>
                </g>
            </g>
        </g>
        <g transform="matrix(0.258,0,0,0.258,-384.976,133.526)">
            <g>
                <g>
                    <path d="M1597.62,-367.376C1576.72,-352.819 1574.98,-369.443 1560.25,-382C1560.22,-356.443 1566.64,-340.278 1594,-343.639C1601.76,-344.593 1604.59,-358.819 1597.62,-367.376Z" style="fill:rgb(185,229,251);fill-rule:nonzero;"/>
                    <path d="M1548.5,-416C1546.5,-411.5 1547.22,-411.963 1546.5,-405C1544.6,-386.443 1555.6,-369.443 1568,-382C1564.1,-356.443 1586.1,-322.943 1609.5,-337.5C1617.27,-342.33 1620.1,-354.943 1617,-363.5C1596.1,-348.943 1572.1,-382.443 1574.5,-397C1564.6,-387.443 1548,-403.5 1548.5,-416Z" style="fill-opacity:0;fill-rule:nonzero;"/>
                </g>
            </g>
        </g>
        <g transform="matrix(0.613431,0.199316,-0.199316,0.613431,205.519,46.8911)">
            <g transform="matrix(1,0,0,1,7,3.166)">
                <path d="M4.592,-0.666C4.592,-0.666 3.564,0.666 2.296,0.666C1.028,0.666 0,-0.666 0,-0.666L-1.32,0.445" style="fill-opacity:0;fill-rule:nonzero;stroke:rgb(184,228,250);stroke-width:2px;"/>
            </g>
            <g transform="matrix(1,0,0,1,17,3.166)">
                <path d="M4.592,-0.666C4.592,-0.666 3.564,0.666 2.296,0.666C1.028,0.666 0,-0.666 0,-0.666C0,-0.666 -1.028,0.666 -2.296,0.666C-3.564,0.666 -4.592,-0.666 -4.592,-0.666" style="fill-opacity:0;fill-rule:nonzero;stroke:rgb(184,228,250);stroke-width:2px;"/>
            </g>
        </g>
        <g transform="matrix(0.359887,0.84784,-0.84784,0.359887,15.9496,47.8036)">
            <g transform="matrix(1,0,0,1,7,3.166)">
                <path d="M4.592,-0.666C4.592,-0.666 3.564,0.666 2.296,0.666C1.028,0.666 0,-0.666 0,-0.666C0,-0.666 -0.604,-0.333 -1.872,-0.333" style="fill-opacity:0;fill-rule:nonzero;stroke:rgb(184,228,250);stroke-width:2px;"/>
            </g>
            <g transform="matrix(1,0,0,1,17,3.166)">
                <path d="M4.592,-0.666C4.592,-0.666 3.564,0.666 2.296,0.666C1.028,0.666 0,-0.666 0,-0.666C0,-0.666 -1.028,0.666 -2.296,0.666C-3.564,0.666 -4.592,-0.666 -4.592,-0.666" style="fill-opacity:0;fill-rule:nonzero;stroke:rgb(184,228,250);stroke-width:2px;"/>
            </g>
            <g transform="matrix(1,0,0,1,27,3.166)">
                <path d="M4.592,-0.666C4.592,-0.666 3.564,0.666 2.296,0.666C1.028,0.666 0,-0.666 0,-0.666C0,-0.666 -1.028,0.666 -2.296,0.666C-3.564,0.666 -4.592,-0.666 -4.592,-0.666" style="fill-opacity:0;fill-rule:nonzero;stroke:rgb(184,228,250);stroke-width:2px;"/>
            </g>
        </g>
        <g transform="matrix(0.258,0,0,0.258,-382.672,146.312)">
            <g>
                <path d="M1572.5,-312C1568.5,-304.5 1571,-298.5 1567.5,-294.5C1564,-290.5 1560,-287.5 1556,-283.5C1552,-279.5 1565.17,-271.508 1571,-270C1577.45,-268.33 1590.72,-267.445 1593.7,-273.407C1601.5,-289 1587.5,-311 1587.5,-311C1587.5,-311 1576.5,-319.5 1572.5,-312Z" style="fill:rgb(176,154,166);fill-rule:nonzero;"/>
                <path d="M1572.5,-312C1568.5,-304.5 1571,-298.5 1567.5,-294.5C1564,-290.5 1560,-287.5 1556,-283.5C1552,-279.5 1565.17,-271.508 1571,-270C1577.45,-268.33 1590.72,-267.445 1593.7,-273.407C1601.5,-289 1587.5,-311 1587.5,-311C1587.5,-311 1576.5,-319.5 1572.5,-312Z" style="fill-opacity:0;fill-rule:nonzero;"/>
            </g>
        </g>
        <g transform="matrix(1.806,0,0,1.806,204.136,45.6593)">
            <g transform="matrix(1,0,0,1,11.152,12.554)">
                <rect x="-5.06" y="-2.921" width="10.12" height="5.842" style="fill:rgb(79,184,79);fill-rule:nonzero;"/>
            </g>
            <g transform="matrix(1,0,0,1,6.092,9.632)">
                <path d="M-5.842,0C-5.842,-3.227 -3.226,-5.842 0,-5.842C3.226,-5.842 5.842,-3.227 5.842,0C5.842,3.226 3.226,5.842 0,5.842C-3.226,5.842 -5.842,3.226 -5.842,0Z" style="fill:rgb(79,184,79);fill-rule:nonzero;"/>
            </g>
            <g transform="matrix(1,0,0,1,16.212,7.862)">
                <path d="M-7.612,0C-7.612,-4.204 -4.204,-7.612 0,-7.612C4.205,-7.612 7.612,-4.204 7.612,0C7.612,4.204 4.205,7.612 0,7.612C-4.204,7.612 -7.612,4.204 -7.612,0Z" style="fill:rgb(79,184,79);fill-rule:nonzero;"/>
            </g>
        </g>
    </g>
</svg>
