<svg xmlns="http://www.w3.org/2000/svg" viewBox="0 0 151 78" width="151" height="78" preserveAspectRatio="xMidYMid meet" style="width: 100%; height: 100%; transform: translate3d(0px, 0px, 0px); content-visibility: visible;"><defs><clipPath id="__lottie_element_372"><rect width="151" height="78" x="0" y="0"></rect></clipPath></defs><g clip-path="url(#__lottie_element_372)"><g transform="matrix(-0.3738226592540741,-0.06333786994218826,-0.05562833696603775,0.32832071185112,251.5682830810547,1.6046675443649292)" opacity="1" style="display: block;"><g opacity="1" transform="matrix(0.9999967217445374,-0.002565631177276373,0.002565631177276373,0.9999967217445374,290.17401123046875,89.80500030517578)"><path stroke-linecap="round" stroke-linejoin="round" fill-opacity="0" stroke="rgb(245,139,71)" stroke-opacity="1" stroke-width="8.84" d=" M19.674999237060547,15.4399995803833 C8.940508842468262,9.214110374450684 -10.412062644958496,0.46204712986946106 -30.160324096679688,12.016745567321777"></path></g></g><g transform="matrix(0.3330000042915344,0,0,0.3330000042915344,65.81602478027344,1.3363661766052246)" opacity="1" style="display: block;"><g opacity="1" transform="matrix(1,0,0,1,71.46399688720703,72.21099853515625)"><path stroke-linecap="round" stroke-linejoin="round" fill-opacity="0" stroke="rgb(245,138,70)" stroke-opacity="1" stroke-width="13.262" d=" M38.310001373291016,-9.022000312805176 C37.40399932861328,-3.680999994277954 32.124000549316406,-0.2199999988079071 26.985000610351562,1.4980000257492065 C16.47100067138672,5.010000228881836 5.068999767303467,3.9800000190734863 -6.00600004196167,3.509000062942505 C-17.08300018310547,3.0380001068115234 -28.79800033569336,3.3289999961853027 -38.310001373291016,9.022000312805176"></path></g><g opacity="1" transform="matrix(1,0,0,1,128.98800659179688,57.03499984741211)"><path fill="rgb(245,138,70)" fill-opacity="1" d=" M-4.040999889373779,-20.024999618530273 C11.756999969482422,-22.55699920654297 26.041000366210938,-30.165000915527344 42.59600067138672,-29.47599983215332 C63.66299819946289,-28.600000381469727 75.9020004272461,-9.715999603271484 68.7249984741211,10.758000373840332 C63.2140007019043,26.474000930786133 48.983001708984375,30.165000915527344 34.52299880981445,30.165000915527344 C34.52299880981445,30.165000915527344 -36.26300048828125,30.165000915527344 -36.26300048828125,30.165000915527344 C-49.34400177001953,30.165000915527344 -62.93899917602539,25.121999740600586 -69.88200378417969,13.437999725341797 C-75.9020004272461,3.305999994277954 -75.71399688720703,-13.468000411987305 -64.60900115966797,-20.253000259399414 C-60.00400161743164,-23.065000534057617 -54.375999450683594,-23.760000228881836 -48.99300003051758,-23.395999908447266 C-43.61000061035156,-23.0310001373291 -38.3489990234375,-21.68600082397461 -33.04499816894531,-20.694000244140625 C-23.19499969482422,-18.851999282836914 -13.911999702453613,-18.44300079345703 -4.040999889373779,-20.024999618530273z"></path></g><g opacity="1" transform="matrix(1,0,0,1,123.98600006103516,73.34500122070312)"><path fill="rgb(235,230,204)" fill-opacity="1" d=" M-52.12799835205078,0.2029999941587448 C-46.97800064086914,0.2029999941587448 -42.11000061035156,-0.996999979019165 -37.78200149536133,-3.128000020980835 C-30.7549991607666,-0.21699999272823334 -22.51300048828125,0.8799999952316284 -15.468999862670898,0.7829999923706055 C-4.538000106811523,0.6330000162124634 4.410999774932861,-5.419000148773193 14.779000282287598,-8.647000312805176 C31.503999710083008,-13.854000091552734 58.15299987792969,-11.821000099182129 64.4540023803711,7.374000072479248 C57.650001525878906,12.38700008392334 48.6349983215332,13.854000091552734 39.5260009765625,13.854000091552734 C39.5260009765625,13.854000091552734 -31.260000228881836,13.854000091552734 -31.260000228881836,13.854000091552734 C-44.0890007019043,13.854000091552734 -57.395999908447266,8.987000465393066 -64.4540023803711,-2.2209999561309814 C-60.6510009765625,-0.6620000004768372 -56.492000579833984,0.2029999941587448 -52.12799835205078,0.2029999941587448z"></path></g><g opacity="1" transform="matrix(1,0,0,1,163.55599975585938,74.07099914550781)"><path fill="rgb(245,138,70)" fill-opacity="1" d=" M-4.863999843597412,-23.110000610351562 C-10.937999725341797,-19.32200050354004 -12.206999778747559,-10.571999549865723 -9.628999710083008,-3.8929998874664307 C-7.052000045776367,2.7860000133514404 -1.6009999513626099,7.869999885559082 3.6760001182556152,12.706999778747559 C-3.86299991607666,9.649999618530273 -12.050999641418457,8.206000328063965 -20.18000030517578,8.50100040435791 C-26.354999542236328,8.723999977111816 -33.483001708984375,10.71399974822998 -35.74100112915039,16.46500015258789 C-36.02799987792969,17.19499969482422 -36.220001220703125,18.011999130249023 -35.979000091552734,18.756999969482422 C-35.53499984741211,20.125999450683594 -33.90599822998047,20.648000717163086 -32.49599838256836,20.937000274658203 C-21.891000747680664,23.110000610351562 -1.9630000591278076,22.465999603271484 16.902000427246094,22.465999603271484 C29.131999969482422,22.465999603271484 36.220001220703125,9.420999526977539 28.972000122070312,-2.627000093460083"></path></g><g opacity="1" transform="matrix(1,0,0,1,87.89900207519531,74.0510025024414)"><path stroke-linecap="round" stroke-linejoin="round" fill-opacity="0" stroke="rgb(245,138,70)" stroke-opacity="1" stroke-width="13.262" d=" M39.83700180053711,-16.0310001373291 C40.58700180053711,-6.489999771118164 33.992000579833984,5.40500020980835 24.70800018310547,8.505999565124512 C14.192999839782715,12.019000053405762 2.7920000553131104,10.98799991607666 -8.284000396728516,10.515999794006348 C-19.360000610351562,10.045000076293945 -31.075000762939453,10.336999893188477 -40.58700180053711,16.0310001373291"></path></g><g opacity="1" transform="matrix(1,0,0,1,105.1989974975586,73.65599822998047)"><path stroke-linecap="round" stroke-linejoin="round" fill-opacity="0" stroke="rgb(245,138,70)" stroke-opacity="1" stroke-width="13.262" d=" M-11.307999610900879,11.420999526977539 C2.0880000591278076,11.420999526977539 11.307999610900879,2.0969998836517334 11.307999610900879,-11.420999526977539"></path></g><g opacity="1" transform="matrix(1,0,0,1,103.5989990234375,49.5260009765625)"><path fill="rgb(77,67,95)" fill-opacity="1" d=" M-2.184999942779541,12.416000366210938 C-2.753999948501587,12.416000366210938 -3.3299999237060547,12.258999824523926 -3.8450000286102295,11.930999755859375 C-5.2870001792907715,11.012999534606934 -5.710999965667725,9.10099983215332 -4.793000221252441,7.658999919891357 C-1.4509999752044678,2.4110000133514404 -0.6880000233650208,-4.625 -2.802000045776367,-10.70199966430664 C-3.000999927520752,-11.274999618530273 -3.013000011444092,-11.864999771118164 -2.884999990463257,-12.416000366210938 C-0.7910000085830688,-12.121999740600586 1.2890000343322754,-11.88700008392334 3.3589999675750732,-11.739999771118164 C5.710999965667725,-4.059999942779541 4.645999908447266,4.359000205993652 0.4269999861717224,10.982999801635742 C-0.16300000250339508,11.90999984741211 -1.1629999876022339,12.416000366210938 -2.184999942779541,12.416000366210938z"></path></g><g opacity="1" transform="matrix(1,0,0,1,117.5199966430664,49.39099884033203)"><path fill="rgb(77,67,95)" fill-opacity="1" d=" M0.9990000128746033,11.704999923706055 C0.925000011920929,11.704999923706055 0.8510000109672546,11.70300006866455 0.7770000100135803,11.697999954223633 C-0.9269999861717224,11.57800006866455 -2.2119998931884766,10.097000122070312 -2.0910000801086426,8.392000198364258 C-1.7960000038146973,4.209000110626221 -1.4900000095367432,-0.11599999666213989 -2.2170000076293945,-4.138999938964844 C-2.611999988555908,-6.324999809265137 -3.3429999351501465,-8.371000289916992 -4.331999778747559,-10.055999755859375 C-4.584000110626221,-10.484999656677246 -4.708000183105469,-10.95199966430664 -4.73799991607666,-11.418000221252441 C-2.575000047683716,-11.420000076293945 -0.40299999713897705,-11.517000198364258 1.784000039100647,-11.704999923706055 C2.742000102996826,-9.737000465393066 3.450000047683716,-7.576000213623047 3.872999906539917,-5.239999771118164 C4.73799991607666,-0.45399999618530273 4.40500020980835,4.264999866485596 4.081999778747559,8.829000473022461 C3.9670000076293945,10.458999633789062 2.6080000400543213,11.704999923706055 0.9990000128746033,11.704999923706055z"></path></g><g opacity="1" transform="matrix(1,0,0,1,132.5050048828125,46.65700149536133)"><path fill="rgb(77,67,95)" fill-opacity="1" d=" M1.9299999475479126,11.302000045776367 C1.7239999771118164,11.302000045776367 1.5149999856948853,11.281999588012695 1.3049999475479126,11.239999771118164 C-0.36899998784065247,10.897000312805176 -1.4479999542236328,9.26200008392334 -1.1050000190734863,7.586999893188477 C0.0820000022649765,1.7860000133514404 -1.7450000047683716,-4.611999988555908 -5.875,-9.109999656677246 C-6.084000110626221,-9.338000297546387 -6.239999771118164,-9.593999862670898 -6.368000030517578,-9.859999656677246 C-4.113999843597412,-10.258999824523926 -1.8880000114440918,-10.748000144958496 0.3190000057220459,-11.302000045776367 C4.593999862670898,-5.551000118255615 6.368000030517578,1.9420000314712524 4.958000183105469,8.829000473022461 C4.6579999923706055,10.293999671936035 3.36899995803833,11.302000045776367 1.9299999475479126,11.302000045776367z"></path></g><g opacity="1" transform="matrix(1,0,0,1,147.23800659179688,42.994998931884766)"><path fill="rgb(77,67,95)" fill-opacity="1" d=" M3.934000015258789,11.437999725341797 C3.815000057220459,11.437999725341797 3.694000005722046,11.430999755859375 3.571000099182129,11.416999816894531 C1.8739999532699585,11.218999862670898 0.6589999794960022,9.682000160217285 0.8569999933242798,7.985000133514404 C1.5709999799728394,1.871999979019165 -1.5099999904632568,-4.625 -6.808000087738037,-8.182999610900879 C-7.284999847412109,-8.503000259399414 -7.632999897003174,-8.937000274658203 -7.863999843597412,-9.420000076293945 C-5.552000045776367,-10.088000297546387 -3.244999885559082,-10.774999618530273 -0.9350000023841858,-11.437999725341797 C4.729000091552734,-6.40500020980835 7.863999843597412,1.3380000591278076 7.004000186920166,8.70199966430664 C6.820000171661377,10.277999877929688 5.482999801635742,11.437999725341797 3.934000015258789,11.437999725341797z"></path></g><g opacity="1" transform="matrix(1,0,0,1,162.61700439453125,48.98899841308594)"><path fill="rgb(77,67,95)" fill-opacity="1" d=" M-0.125,19.128000259399414 C-2.186000108718872,14.154000282287598 -1.2949999570846558,8.383000373840332 -0.5099999904632568,3.2920000553131104 C-0.2549999952316284,1.6410000324249268 -0.014000000432133675,0.0820000022649765 0.10999999940395355,-1.3370000123977661 C0.7400000095367432,-8.536999702453613 -1.2300000190734863,-13.942000389099121 -6.0879998207092285,-18.347999572753906 C-6.544000148773193,-18.76099967956543 -6.8420000076293945,-19.280000686645508 -6.989999771118164,-19.83300018310547 C-4.697999954223633,-20.33099937438965 -2.385999917984009,-20.753999710083008 -0.03700000047683716,-21.040000915527344 C4.916999816894531,-15.626999855041504 6.989999771118164,-8.979000091552734 6.275000095367432,-0.7979999780654907 C6.133999824523926,0.8240000009536743 5.877999782562256,2.4830000400543213 5.605999946594238,4.236999988555908 C4.913000106811523,8.734999656677246 4.195000171661377,13.38700008392334 5.5920000076293945,16.76099967956543 C6.245999813079834,18.339000701904297 5.495999813079834,20.149999618530273 3.9179999828338623,20.804000854492188 C3.5299999713897705,20.964000701904297 3.130000114440918,21.040000915527344 2.7339999675750732,21.040000915527344 C1.5210000276565552,21.040000915527344 0.36800000071525574,20.319000244140625 -0.125,19.128000259399414z"></path></g><g opacity="1" transform="matrix(1,0,0,1,179.41099548339844,43.24100112915039)"><path fill="rgb(77,67,95)" fill-opacity="1" d=" M-1.7940000295639038,15.019000053405762 C-2.1630001068115234,15.019000053405762 -2.5399999618530273,14.954000473022461 -2.9049999713897705,14.812999725341797 C-4.499000072479248,14.199999809265137 -5.295000076293945,12.40999984741211 -4.683000087738037,10.8149995803833 C-2.809999942779541,5.941999912261963 -0.9049999713897705,0.16300000250339508 -0.9679999947547913,-5.751999855041504 C-0.9940000176429749,-8.340999603271484 -1.4550000429153442,-10.90999984741211 -2.3010001182556152,-13.182999610900879 C-2.5269999504089355,-13.793999671936035 -2.5450000762939453,-14.430999755859375 -2.3970000743865967,-15.019000053405762 C-0.014999999664723873,-14.531999588012695 2.2170000076293945,-13.795999526977539 4.283999919891357,-12.840999603271484 C4.873000144958496,-10.590999603271484 5.196000099182129,-8.206000328063965 5.2220001220703125,-5.817999839782715 C5.295000076293945,1.1790000200271606 3.055000066757202,7.932000160217285 1.0950000286102295,13.034000396728516 C0.6209999918937683,14.263999938964844 -0.550000011920929,15.019000053405762 -1.7940000295639038,15.019000053405762z"></path></g><g opacity="1" transform="matrix(1,0,0,1,191.7550048828125,52.54899978637695)"><path fill="rgb(77,67,95)" fill-opacity="1" d=" M-1.1230000257492065,12.029999732971191 C-1.7339999675750732,12.736000061035156 -2.5959999561309814,13.097999572753906 -3.4619998931884766,13.097999572753906 C-4.181000232696533,13.097999572753906 -4.9019999504089355,12.847000122070312 -5.486999988555908,12.34000015258789 C-6.7789998054504395,11.220000267028809 -6.918000221252441,9.267000198364258 -5.797999858856201,7.974999904632568 C-1.4290000200271606,2.938999891281128 1.1369999647140503,-3.6649999618530273 1.4279999732971191,-10.616000175476074 C1.472000002861023,-11.670000076293945 2.0510001182556152,-12.572999954223633 2.878999948501587,-13.097999572753906 C4.678999900817871,-10.550000190734863 6.050000190734863,-7.690000057220459 6.918000221252441,-4.5970001220703125 C5.689000129699707,1.597000002861023 2.927000045776367,7.361000061035156 -1.1230000257492065,12.029999732971191z"></path></g></g><g transform="matrix(0.33240845799446106,-0.019839895889163017,0.019839895889163017,0.33240845799446106,64.97310638427734,2.7814528942108154)" opacity="1" style="display: block;"><g opacity="1" transform="matrix(1,0,0,1,94.08899688720703,14.151000022888184)"><path fill="rgb(245,138,70)" fill-opacity="1" d=" M-8.494000434875488,1.3960000276565552 C-8.086999893188477,-1.3179999589920044 -6.261000156402588,-3.6659998893737793 -4.017000198364258,-5.245999813079834 C-1.7730000019073486,-6.826000213623047 0.8700000047683716,-7.73199987411499 3.506999969482422,-8.491000175476074 C4.415999889373779,-8.751999855041504 5.480999946594238,-8.972999572753906 6.235000133514404,-8.402999877929688 C6.5879998207092285,-8.137999534606934 6.810999870300293,-7.736999988555908 7,-7.3379998207092285 C8.494000434875488,-4.184000015258789 8.460000038146973,-0.34700000286102295 6.9079999923706055,2.7799999713897705 C5.357999801635742,5.9070000648498535 2.322000026702881,8.255000114440918 -1.093000054359436,8.972999572753906"></path></g><g opacity="1" transform="matrix(1,0,0,1,94.39299774169922,17.05500030517578)"><path fill="rgb(77,67,95)" fill-opacity="1" d=" M5.2870001792907715,-6.019000053405762 C5.598999977111816,-5.931000232696533 5.736999988555908,-5.539000034332275 5.822999954223633,-5.198999881744385 C6.224999904632568,-3.6010000705718994 6.492000102996826,-1.9709999561309814 6.690999984741211,-0.328000009059906 C6.659999847412109,-0.26100000739097595 6.63700008392334,-0.19099999964237213 6.604000091552734,-0.12399999797344208 C5.052999973297119,3.002000093460083 2.0190000534057617,5.3520002365112305 -1.3969999551773071,6.070000171661377 C-1.3969999551773071,6.070000171661377 -6.690999984741211,0.6489999890327454 -6.690999984741211,0.6489999890327454 C-3.190999984741211,-2.121000051498413 0.6690000295639038,-4.348999977111816 4.743000030517578,-5.934000015258789 C4.918000221252441,-6.000999927520752 5.10699987411499,-6.070000171661377 5.2870001792907715,-6.019000053405762z"></path></g></g><g transform="matrix(0.33240845799446106,-0.019839895889163017,0.019839895889163017,0.33240845799446106,64.97310638427734,2.7814528942108154)" opacity="1" style="display: block;"><g opacity="1" transform="matrix(1,0,0,1,49.62699890136719,14.151000022888184)"><path fill="rgb(245,138,70)" fill-opacity="1" d=" M8.494000434875488,1.3960000276565552 C8.086999893188477,-1.3179999589920044 6.261000156402588,-3.6659998893737793 4.017000198364258,-5.245999813079834 C1.7730000019073486,-6.826000213623047 -0.8700000047683716,-7.73199987411499 -3.506999969482422,-8.491000175476074 C-4.415999889373779,-8.751999855041504 -5.480999946594238,-8.972999572753906 -6.236000061035156,-8.402999877929688 C-6.5879998207092285,-8.137999534606934 -6.810999870300293,-7.736999988555908 -7,-7.3379998207092285 C-8.494000434875488,-4.184000015258789 -8.460000038146973,-0.34700000286102295 -6.908999919891357,2.7799999713897705 C-5.357999801635742,5.9070000648498535 -2.322000026702881,8.255000114440918 1.093000054359436,8.972999572753906"></path></g><g opacity="1" transform="matrix(1,0,0,1,49.323001861572266,17.05500030517578)"><path fill="rgb(77,67,95)" fill-opacity="1" d=" M-5.285999774932861,-6.019000053405762 C-5.598999977111816,-5.931000232696533 -5.736999988555908,-5.539000034332275 -5.822999954223633,-5.198999881744385 C-6.224999904632568,-3.6010000705718994 -6.492000102996826,-1.9709999561309814 -6.690999984741211,-0.328000009059906 C-6.659999847412109,-0.26100000739097595 -6.63700008392334,-0.19099999964237213 -6.604000091552734,-0.12399999797344208 C-5.052999973297119,3.002000093460083 -2.0190000534057617,5.3520002365112305 1.3969999551773071,6.070000171661377 C1.3969999551773071,6.070000171661377 6.690999984741211,0.6489999890327454 6.690999984741211,0.6489999890327454 C3.190999984741211,-2.121000051498413 -0.6690000295639038,-4.348999977111816 -4.74399995803833,-5.934000015258789 C-4.918000221252441,-6.000999927520752 -5.105999946594238,-6.070000171661377 -5.285999774932861,-6.019000053405762z"></path></g></g><g transform="matrix(0.33240845799446106,-0.019839895889163017,0.019839895889163017,0.33240845799446106,64.97310638427734,2.7814528942108154)" opacity="1" style="display: block;"><g opacity="1" transform="matrix(1,0,0,1,71.85800170898438,37.21099853515625)"><path fill="rgb(245,138,70)" fill-opacity="1" d=" M-28.722999572753906,0 C-28.722999572753906,-15.86400032043457 -15.86400032043457,-28.722999572753906 -0.0010000000474974513,-28.722999572753906 C15.86299991607666,-28.722999572753906 28.722999572753906,-15.86400032043457 28.722999572753906,0 C28.722999572753906,15.86299991607666 15.86299991607666,28.722999572753906 -0.0010000000474974513,28.722999572753906 C-15.86400032043457,28.722999572753906 -28.722999572753906,15.86299991607666 -28.722999572753906,0z"></path></g><g opacity="1" transform="matrix(1,0,0,1,71.85800170898438,44.11600112915039)"><path fill="rgb(235,230,204)" fill-opacity="1" d=" M0,21.81800079345703 C-10.444000244140625,21.81800079345703 -19.583999633789062,16.243999481201172 -24.61199951171875,7.9079999923706055 C-25.784000396728516,1.3609999418258667 -24.990999221801758,-5.804999828338623 -21.75,-11.274999618530273 C-17.53499984741211,-18.38800048828125 -9.189000129699707,-21.81800079345703 -5.010000228881836,-19.44499969482422 C-1.7990000247955322,-17.621999740600586 -3.953000068664551,-11.611000061035156 -4.718999862670898,-9.03499984741211 C-5.433000087738037,-6.635000228881836 -9.37399959564209,2.186000108718872 -8.456999778747559,4.135000228881836 C-8.456999778747559,4.135000228881836 -2.6070001125335693,8.59000015258789 -1.2680000066757202,9.397000312805176 C-0.8790000081062317,9.630999565124512 -0.4749999940395355,9.880999565124512 -0.24199999868869781,10.270999908447266 C-0.1080000028014183,10.494000434875488 -0.04399999976158142,10.748000144958496 0,11.005000114440918 C0.04399999976158142,10.748000144958496 0.10899999737739563,10.494000434875488 0.24199999868869781,10.270999908447266 C0.4749999940395355,9.880999565124512 0.8790000081062317,9.630999565124512 1.2680000066757202,9.397000312805176 C2.6070001125335693,8.59000015258789 8.456999778747559,4.135000228881836 8.456999778747559,4.135000228881836 C9.375,2.186000108718872 5.434000015258789,-6.635000228881836 4.71999979019165,-9.03499984741211 C3.9539999961853027,-11.611000061035156 1.7999999523162842,-17.621999740600586 5.010000228881836,-19.44499969482422 C9.1899995803833,-21.81800079345703 17.53499984741211,-18.38800048828125 21.75,-11.274999618530273 C24.990999221801758,-5.804999828338623 25.784000396728516,1.3609999418258667 24.61199951171875,7.9079999923706055 C19.583999633789062,16.243999481201172 10.444000244140625,21.81800079345703 0,21.81800079345703z"></path></g><g opacity="1" transform="matrix(1,0,0,1,71.85800170898438,52.50600051879883)"><path stroke-linecap="round" stroke-linejoin="round" fill-opacity="0" stroke="rgb(77,67,95)" stroke-opacity="1" stroke-width="3.536" d=" M0,4.283999919891357 C0,4.283999919891357 0,1.5169999599456787 0,1.5169999599456787 C0,1.5169999599456787 8.39900016784668,-4.283999919891357 8.39900016784668,-4.283999919891357 C8.39900016784668,-4.283999919891357 0,-2.9070000648498535 0,-2.9070000648498535 C0,-2.9070000648498535 -8.39900016784668,-4.283999919891357 -8.39900016784668,-4.283999919891357 C-8.39900016784668,-4.283999919891357 0,1.5169999599456787 0,1.5169999599456787"></path><path fill="rgb(77,67,95)" fill-opacity="1" d=" M0,4.283999919891357 C0,4.283999919891357 0,1.5169999599456787 0,1.5169999599456787 C0,1.5169999599456787 8.39900016784668,-4.283999919891357 8.39900016784668,-4.283999919891357 C8.39900016784668,-4.283999919891357 0,-2.9070000648498535 0,-2.9070000648498535 C0,-2.9070000648498535 -8.39900016784668,-4.283999919891357 -8.39900016784668,-4.283999919891357 C-8.39900016784668,-4.283999919891357 0,1.5169999599456787 0,1.5169999599456787"></path></g><g opacity="1" transform="matrix(1,0,0,1,71.85800170898438,56.19300079345703)"><path fill="rgb(77,67,95)" fill-opacity="1" d=" M0,-2.1419999599456787 C0,-2.1419999599456787 0,-0.7590000033378601 0,-0.7590000033378601 C0,-0.7590000033378601 4.198999881744385,2.1419999599456787 4.198999881744385,2.1419999599456787 C4.198999881744385,2.1419999599456787 0,1.4539999961853027 0,1.4539999961853027 C0,1.4539999961853027 -4.198999881744385,2.1419999599456787 -4.198999881744385,2.1419999599456787 C-4.198999881744385,2.1419999599456787 0,-0.7590000033378601 0,-0.7590000033378601"></path></g><g opacity="1" transform="matrix(1,0,0,1,71.85800170898438,56.19300079345703)"><path stroke-linecap="round" stroke-linejoin="round" fill-opacity="0" stroke="rgb(77,67,95)" stroke-opacity="1" stroke-width="3.536" d=" M0,-2.1419999599456787 C0,-2.1419999599456787 0,-0.7590000033378601 0,-0.7590000033378601 C0,-0.7590000033378601 4.198999881744385,2.1419999599456787 4.198999881744385,2.1419999599456787 C4.198999881744385,2.1419999599456787 0,1.4539999961853027 0,1.4539999961853027 C0,1.4539999961853027 -4.198999881744385,2.1419999599456787 -4.198999881744385,2.1419999599456787 C-4.198999881744385,2.1419999599456787 0,-0.7590000033378601 0,-0.7590000033378601"></path></g><g opacity="1" transform="matrix(1,0,0,1,71.85800170898438,22.614999771118164)"><path stroke-linecap="round" stroke-linejoin="round" fill-opacity="0" stroke="rgb(77,67,95)" stroke-opacity="1" stroke-width="4.421" d=" M-14.770999908447266,-3.9790000915527344 C-9.371000289916992,-2.697000026702881 -3.9200000762939453,0.05000000074505806 0,3.9790000915527344 C3.9200000762939453,0.05000000074505806 9.371999740600586,-2.697000026702881 14.770999908447266,-3.9790000915527344"></path></g><g opacity="1" transform="matrix(1,0,0,1,71.85600280761719,13.513999938964844)"><path stroke-linecap="round" stroke-linejoin="round" fill-opacity="0" stroke="rgb(77,67,95)" stroke-opacity="1" stroke-width="4.421" d=" M-6.736999988555908,-2.4619998931884766 C-4.24399995803833,-1.1319999694824219 -1.934999942779541,0.5210000276565552 0.0020000000949949026,2.4619998931884766 C1.937000036239624,0.5230000019073486 4.244999885559082,-1.128000020980835 6.736999988555908,-2.4579999446868896"></path></g><g opacity="1" transform="matrix(0.3806999921798706,0,0,0.3806999921798706,60.62099838256836,35.00199890136719)"><path fill="rgb(77,67,95)" fill-opacity="1" d=" M13.5,0 C13.5,0 13.5,0 13.5,0 C13.5,7.450650215148926 7.450650215148926,13.5 0,13.5 C0,13.5 0,13.5 0,13.5 C-7.450650215148926,13.5 -13.5,7.450650215148926 -13.5,0 C-13.5,0 -13.5,0 -13.5,0 C-13.5,-7.450650215148926 -7.450650215148926,-13.5 0,-13.5 C0,-13.5 0,-13.5 0,-13.5 C7.450650215148926,-13.5 13.5,-7.450650215148926 13.5,0z"></path></g><g opacity="1" transform="matrix(0.3806999921798706,0,0,0.3806999921798706,83.12100219726562,35.00199890136719)"><path fill="rgb(77,67,95)" fill-opacity="1" d=" M13.5,0 C13.5,0 13.5,0 13.5,0 C13.5,7.450650215148926 7.450650215148926,13.5 0,13.5 C0,13.5 0,13.5 0,13.5 C-7.450650215148926,13.5 -13.5,7.450650215148926 -13.5,0 C-13.5,0 -13.5,0 -13.5,0 C-13.5,-7.450650215148926 -7.450650215148926,-13.5 0,-13.5 C0,-13.5 0,-13.5 0,-13.5 C7.450650215148926,-13.5 13.5,-7.450650215148926 13.5,0z"></path></g></g><g transform="matrix(0.2849249541759491,-0.25014567375183105,0.2196977436542511,0.2502436935901642,-90.10187530517578,111.84940338134766)" opacity="1" style="display: block;"><g opacity="1" transform="matrix(0.9999967217445374,-0.002565631177276373,0.002565631177276373,0.9999967217445374,290.17401123046875,89.80500030517578)"><path stroke-linecap="round" stroke-linejoin="round" fill-opacity="0" stroke="rgb(245,139,71)" stroke-opacity="1" stroke-width="8.84" d=" M19.674999237060547,15.4399995803833 C4.826215744018555,5.739593029022217 -16.65629005432129,22.92656135559082 -30.631118774414062,13.170788764953613"></path></g></g><g transform="matrix(-0.3330000042915344,0,0,0.3330000042915344,85.41707611083984,45.45886993408203)" opacity="1" style="display: block;"><g opacity="1" transform="matrix(1,0,0,1,71.46399688720703,72.21099853515625)"><path stroke-linecap="round" stroke-linejoin="round" fill-opacity="0" stroke="rgb(245,138,70)" stroke-opacity="1" stroke-width="13.262" d=" M38.310001373291016,-9.022000312805176 C37.40399932861328,-3.680999994277954 32.124000549316406,-0.2199999988079071 26.985000610351562,1.4980000257492065 C16.47100067138672,5.010000228881836 5.068999767303467,3.9800000190734863 -6.00600004196167,3.509000062942505 C-17.08300018310547,3.0380001068115234 -28.79800033569336,3.3289999961853027 -38.310001373291016,9.022000312805176"></path></g><g opacity="1" transform="matrix(1,0,0,1,128.98800659179688,57.03499984741211)"><path fill="rgb(245,138,70)" fill-opacity="1" d=" M-4.040999889373779,-20.024999618530273 C11.756999969482422,-22.55699920654297 26.041000366210938,-30.165000915527344 42.59600067138672,-29.47599983215332 C63.66299819946289,-28.600000381469727 75.9020004272461,-9.715999603271484 68.7249984741211,10.758000373840332 C63.2140007019043,26.474000930786133 48.983001708984375,30.165000915527344 34.52299880981445,30.165000915527344 C34.52299880981445,30.165000915527344 -36.26300048828125,30.165000915527344 -36.26300048828125,30.165000915527344 C-49.34400177001953,30.165000915527344 -62.93899917602539,25.121999740600586 -69.88200378417969,13.437999725341797 C-75.9020004272461,3.305999994277954 -75.71399688720703,-13.468000411987305 -64.60900115966797,-20.253000259399414 C-60.00400161743164,-23.065000534057617 -54.375999450683594,-23.760000228881836 -48.99300003051758,-23.395999908447266 C-43.61000061035156,-23.0310001373291 -38.3489990234375,-21.68600082397461 -33.04499816894531,-20.694000244140625 C-23.19499969482422,-18.851999282836914 -13.911999702453613,-18.44300079345703 -4.040999889373779,-20.024999618530273z"></path></g><g opacity="1" transform="matrix(1,0,0,1,123.98600006103516,73.34500122070312)"><path fill="rgb(235,230,204)" fill-opacity="1" d=" M-52.12799835205078,0.2029999941587448 C-46.97800064086914,0.2029999941587448 -42.11000061035156,-0.996999979019165 -37.78200149536133,-3.128000020980835 C-30.7549991607666,-0.21699999272823334 -22.51300048828125,0.8799999952316284 -15.468999862670898,0.7829999923706055 C-4.538000106811523,0.6330000162124634 4.410999774932861,-5.419000148773193 14.779000282287598,-8.647000312805176 C31.503999710083008,-13.854000091552734 58.15299987792969,-11.821000099182129 64.4540023803711,7.374000072479248 C57.650001525878906,12.38700008392334 48.6349983215332,13.854000091552734 39.5260009765625,13.854000091552734 C39.5260009765625,13.854000091552734 -31.260000228881836,13.854000091552734 -31.260000228881836,13.854000091552734 C-44.0890007019043,13.854000091552734 -57.395999908447266,8.987000465393066 -64.4540023803711,-2.2209999561309814 C-60.6510009765625,-0.6620000004768372 -56.492000579833984,0.2029999941587448 -52.12799835205078,0.2029999941587448z"></path></g><g opacity="1" transform="matrix(1,0,0,1,163.55599975585938,74.07099914550781)"><path fill="rgb(245,138,70)" fill-opacity="1" d=" M-4.863999843597412,-23.110000610351562 C-10.937999725341797,-19.32200050354004 -12.206999778747559,-10.571999549865723 -9.628999710083008,-3.8929998874664307 C-7.052000045776367,2.7860000133514404 -1.6009999513626099,7.869999885559082 3.6760001182556152,12.706999778747559 C-3.86299991607666,9.649999618530273 -12.050999641418457,8.206000328063965 -20.18000030517578,8.50100040435791 C-26.354999542236328,8.723999977111816 -33.483001708984375,10.71399974822998 -35.74100112915039,16.46500015258789 C-36.02799987792969,17.19499969482422 -36.220001220703125,18.011999130249023 -35.979000091552734,18.756999969482422 C-35.53499984741211,20.125999450683594 -33.90599822998047,20.648000717163086 -32.49599838256836,20.937000274658203 C-21.891000747680664,23.110000610351562 -1.9630000591278076,22.465999603271484 16.902000427246094,22.465999603271484 C29.131999969482422,22.465999603271484 36.220001220703125,9.420999526977539 28.972000122070312,-2.627000093460083"></path></g><g opacity="1" transform="matrix(1,0,0,1,87.89900207519531,74.0510025024414)"><path stroke-linecap="round" stroke-linejoin="round" fill-opacity="0" stroke="rgb(245,138,70)" stroke-opacity="1" stroke-width="13.262" d=" M39.83700180053711,-16.0310001373291 C40.58700180053711,-6.489999771118164 33.992000579833984,5.40500020980835 24.70800018310547,8.505999565124512 C14.192999839782715,12.019000053405762 2.7920000553131104,10.98799991607666 -8.284000396728516,10.515999794006348 C-19.360000610351562,10.045000076293945 -31.075000762939453,10.336999893188477 -40.58700180053711,16.0310001373291"></path></g><g opacity="1" transform="matrix(1,0,0,1,105.1989974975586,73.65599822998047)"><path stroke-linecap="round" stroke-linejoin="round" fill-opacity="0" stroke="rgb(245,138,70)" stroke-opacity="1" stroke-width="13.262" d=" M-11.307999610900879,11.420999526977539 C2.0880000591278076,11.420999526977539 11.307999610900879,2.0969998836517334 11.307999610900879,-11.420999526977539"></path></g><g opacity="1" transform="matrix(1,0,0,1,103.5989990234375,49.5260009765625)"><path fill="rgb(77,67,95)" fill-opacity="1" d=" M-2.184999942779541,12.416000366210938 C-2.753999948501587,12.416000366210938 -3.3299999237060547,12.258999824523926 -3.8450000286102295,11.930999755859375 C-5.2870001792907715,11.012999534606934 -5.710999965667725,9.10099983215332 -4.793000221252441,7.658999919891357 C-1.4509999752044678,2.4110000133514404 -0.6880000233650208,-4.625 -2.802000045776367,-10.70199966430664 C-3.000999927520752,-11.274999618530273 -3.013000011444092,-11.864999771118164 -2.884999990463257,-12.416000366210938 C-0.7910000085830688,-12.121999740600586 1.2890000343322754,-11.88700008392334 3.3589999675750732,-11.739999771118164 C5.710999965667725,-4.059999942779541 4.645999908447266,4.359000205993652 0.4269999861717224,10.982999801635742 C-0.16300000250339508,11.90999984741211 -1.1629999876022339,12.416000366210938 -2.184999942779541,12.416000366210938z"></path></g><g opacity="1" transform="matrix(1,0,0,1,117.5199966430664,49.39099884033203)"><path fill="rgb(77,67,95)" fill-opacity="1" d=" M0.9990000128746033,11.704999923706055 C0.925000011920929,11.704999923706055 0.8510000109672546,11.70300006866455 0.7770000100135803,11.697999954223633 C-0.9269999861717224,11.57800006866455 -2.2119998931884766,10.097000122070312 -2.0910000801086426,8.392000198364258 C-1.7960000038146973,4.209000110626221 -1.4900000095367432,-0.11599999666213989 -2.2170000076293945,-4.138999938964844 C-2.611999988555908,-6.324999809265137 -3.3429999351501465,-8.371000289916992 -4.331999778747559,-10.055999755859375 C-4.584000110626221,-10.484999656677246 -4.708000183105469,-10.95199966430664 -4.73799991607666,-11.418000221252441 C-2.575000047683716,-11.420000076293945 -0.40299999713897705,-11.517000198364258 1.784000039100647,-11.704999923706055 C2.742000102996826,-9.737000465393066 3.450000047683716,-7.576000213623047 3.872999906539917,-5.239999771118164 C4.73799991607666,-0.45399999618530273 4.40500020980835,4.264999866485596 4.081999778747559,8.829000473022461 C3.9670000076293945,10.458999633789062 2.6080000400543213,11.704999923706055 0.9990000128746033,11.704999923706055z"></path></g><g opacity="1" transform="matrix(1,0,0,1,132.5050048828125,46.65700149536133)"><path fill="rgb(77,67,95)" fill-opacity="1" d=" M1.9299999475479126,11.302000045776367 C1.7239999771118164,11.302000045776367 1.5149999856948853,11.281999588012695 1.3049999475479126,11.239999771118164 C-0.36899998784065247,10.897000312805176 -1.4479999542236328,9.26200008392334 -1.1050000190734863,7.586999893188477 C0.0820000022649765,1.7860000133514404 -1.7450000047683716,-4.611999988555908 -5.875,-9.109999656677246 C-6.084000110626221,-9.338000297546387 -6.239999771118164,-9.593999862670898 -6.368000030517578,-9.859999656677246 C-4.113999843597412,-10.258999824523926 -1.8880000114440918,-10.748000144958496 0.3190000057220459,-11.302000045776367 C4.593999862670898,-5.551000118255615 6.368000030517578,1.9420000314712524 4.958000183105469,8.829000473022461 C4.6579999923706055,10.293999671936035 3.36899995803833,11.302000045776367 1.9299999475479126,11.302000045776367z"></path></g><g opacity="1" transform="matrix(1,0,0,1,147.23800659179688,42.994998931884766)"><path fill="rgb(77,67,95)" fill-opacity="1" d=" M3.934000015258789,11.437999725341797 C3.815000057220459,11.437999725341797 3.694000005722046,11.430999755859375 3.571000099182129,11.416999816894531 C1.8739999532699585,11.218999862670898 0.6589999794960022,9.682000160217285 0.8569999933242798,7.985000133514404 C1.5709999799728394,1.871999979019165 -1.5099999904632568,-4.625 -6.808000087738037,-8.182999610900879 C-7.284999847412109,-8.503000259399414 -7.632999897003174,-8.937000274658203 -7.863999843597412,-9.420000076293945 C-5.552000045776367,-10.088000297546387 -3.244999885559082,-10.774999618530273 -0.9350000023841858,-11.437999725341797 C4.729000091552734,-6.40500020980835 7.863999843597412,1.3380000591278076 7.004000186920166,8.70199966430664 C6.820000171661377,10.277999877929688 5.482999801635742,11.437999725341797 3.934000015258789,11.437999725341797z"></path></g><g opacity="1" transform="matrix(1,0,0,1,162.61700439453125,48.98899841308594)"><path fill="rgb(77,67,95)" fill-opacity="1" d=" M-0.125,19.128000259399414 C-2.186000108718872,14.154000282287598 -1.2949999570846558,8.383000373840332 -0.5099999904632568,3.2920000553131104 C-0.2549999952316284,1.6410000324249268 -0.014000000432133675,0.0820000022649765 0.10999999940395355,-1.3370000123977661 C0.7400000095367432,-8.536999702453613 -1.2300000190734863,-13.942000389099121 -6.0879998207092285,-18.347999572753906 C-6.544000148773193,-18.76099967956543 -6.8420000076293945,-19.280000686645508 -6.989999771118164,-19.83300018310547 C-4.697999954223633,-20.33099937438965 -2.385999917984009,-20.753999710083008 -0.03700000047683716,-21.040000915527344 C4.916999816894531,-15.626999855041504 6.989999771118164,-8.979000091552734 6.275000095367432,-0.7979999780654907 C6.133999824523926,0.8240000009536743 5.877999782562256,2.4830000400543213 5.605999946594238,4.236999988555908 C4.913000106811523,8.734999656677246 4.195000171661377,13.38700008392334 5.5920000076293945,16.76099967956543 C6.245999813079834,18.339000701904297 5.495999813079834,20.149999618530273 3.9179999828338623,20.804000854492188 C3.5299999713897705,20.964000701904297 3.130000114440918,21.040000915527344 2.7339999675750732,21.040000915527344 C1.5210000276565552,21.040000915527344 0.36800000071525574,20.319000244140625 -0.125,19.128000259399414z"></path></g><g opacity="1" transform="matrix(1,0,0,1,179.41099548339844,43.24100112915039)"><path fill="rgb(77,67,95)" fill-opacity="1" d=" M-1.7940000295639038,15.019000053405762 C-2.1630001068115234,15.019000053405762 -2.5399999618530273,14.954000473022461 -2.9049999713897705,14.812999725341797 C-4.499000072479248,14.199999809265137 -5.295000076293945,12.40999984741211 -4.683000087738037,10.8149995803833 C-2.809999942779541,5.941999912261963 -0.9049999713897705,0.16300000250339508 -0.9679999947547913,-5.751999855041504 C-0.9940000176429749,-8.340999603271484 -1.4550000429153442,-10.90999984741211 -2.3010001182556152,-13.182999610900879 C-2.5269999504089355,-13.793999671936035 -2.5450000762939453,-14.430999755859375 -2.3970000743865967,-15.019000053405762 C-0.014999999664723873,-14.531999588012695 2.2170000076293945,-13.795999526977539 4.283999919891357,-12.840999603271484 C4.873000144958496,-10.590999603271484 5.196000099182129,-8.206000328063965 5.2220001220703125,-5.817999839782715 C5.295000076293945,1.1790000200271606 3.055000066757202,7.932000160217285 1.0950000286102295,13.034000396728516 C0.6209999918937683,14.263999938964844 -0.550000011920929,15.019000053405762 -1.7940000295639038,15.019000053405762z"></path></g><g opacity="1" transform="matrix(1,0,0,1,191.7550048828125,52.54899978637695)"><path fill="rgb(77,67,95)" fill-opacity="1" d=" M-1.1230000257492065,12.029999732971191 C-1.7339999675750732,12.736000061035156 -2.5959999561309814,13.097999572753906 -3.4619998931884766,13.097999572753906 C-4.181000232696533,13.097999572753906 -4.9019999504089355,12.847000122070312 -5.486999988555908,12.34000015258789 C-6.7789998054504395,11.220000267028809 -6.918000221252441,9.267000198364258 -5.797999858856201,7.974999904632568 C-1.4290000200271606,2.938999891281128 1.1369999647140503,-3.6649999618530273 1.4279999732971191,-10.616000175476074 C1.472000002861023,-11.670000076293945 2.0510001182556152,-12.572999954223633 2.878999948501587,-13.097999572753906 C4.678999900817871,-10.550000190734863 6.050000190734863,-7.690000057220459 6.918000221252441,-4.5970001220703125 C5.689000129699707,1.597000002861023 2.927000045776367,7.361000061035156 -1.1230000257492065,12.029999732971191z"></path></g></g><g transform="matrix(-0.30875223875045776,-0.1247439906001091,-0.1247439906001091,0.30875223875045776,89.24901580810547,55.4608268737793)" opacity="1" style="display: block;"><g opacity="1" transform="matrix(1,0,0,1,94.08899688720703,14.151000022888184)"><path fill="rgb(245,138,70)" fill-opacity="1" d=" M-8.494000434875488,1.3960000276565552 C-8.086999893188477,-1.3179999589920044 -6.261000156402588,-3.6659998893737793 -4.017000198364258,-5.245999813079834 C-1.7730000019073486,-6.826000213623047 0.8700000047683716,-7.73199987411499 3.506999969482422,-8.491000175476074 C4.415999889373779,-8.751999855041504 5.480999946594238,-8.972999572753906 6.235000133514404,-8.402999877929688 C6.5879998207092285,-8.137999534606934 6.810999870300293,-7.736999988555908 7,-7.3379998207092285 C8.494000434875488,-4.184000015258789 8.460000038146973,-0.34700000286102295 6.9079999923706055,2.7799999713897705 C5.357999801635742,5.9070000648498535 2.322000026702881,8.255000114440918 -1.093000054359436,8.972999572753906"></path></g><g opacity="1" transform="matrix(1,0,0,1,94.39299774169922,17.05500030517578)"><path fill="rgb(77,67,95)" fill-opacity="1" d=" M5.2870001792907715,-6.019000053405762 C5.598999977111816,-5.931000232696533 5.736999988555908,-5.539000034332275 5.822999954223633,-5.198999881744385 C6.224999904632568,-3.6010000705718994 6.492000102996826,-1.9709999561309814 6.690999984741211,-0.328000009059906 C6.659999847412109,-0.26100000739097595 6.63700008392334,-0.19099999964237213 6.604000091552734,-0.12399999797344208 C5.052999973297119,3.002000093460083 2.0190000534057617,5.3520002365112305 -1.3969999551773071,6.070000171661377 C-1.3969999551773071,6.070000171661377 -6.690999984741211,0.6489999890327454 -6.690999984741211,0.6489999890327454 C-3.190999984741211,-2.121000051498413 0.6690000295639038,-4.348999977111816 4.743000030517578,-5.934000015258789 C4.918000221252441,-6.000999927520752 5.10699987411499,-6.070000171661377 5.2870001792907715,-6.019000053405762z"></path></g></g><g transform="matrix(-0.30875223875045776,-0.1247439906001091,-0.1247439906001091,0.30875223875045776,89.24901580810547,55.4608268737793)" opacity="1" style="display: block;"><g opacity="1" transform="matrix(1,0,0,1,49.62699890136719,14.151000022888184)"><path fill="rgb(245,138,70)" fill-opacity="1" d=" M8.494000434875488,1.3960000276565552 C8.086999893188477,-1.3179999589920044 6.261000156402588,-3.6659998893737793 4.017000198364258,-5.245999813079834 C1.7730000019073486,-6.826000213623047 -0.8700000047683716,-7.73199987411499 -3.506999969482422,-8.491000175476074 C-4.415999889373779,-8.751999855041504 -5.480999946594238,-8.972999572753906 -6.236000061035156,-8.402999877929688 C-6.5879998207092285,-8.137999534606934 -6.810999870300293,-7.736999988555908 -7,-7.3379998207092285 C-8.494000434875488,-4.184000015258789 -8.460000038146973,-0.34700000286102295 -6.908999919891357,2.7799999713897705 C-5.357999801635742,5.9070000648498535 -2.322000026702881,8.255000114440918 1.093000054359436,8.972999572753906"></path></g><g opacity="1" transform="matrix(1,0,0,1,49.323001861572266,17.05500030517578)"><path fill="rgb(77,67,95)" fill-opacity="1" d=" M-5.285999774932861,-6.019000053405762 C-5.598999977111816,-5.931000232696533 -5.736999988555908,-5.539000034332275 -5.822999954223633,-5.198999881744385 C-6.224999904632568,-3.6010000705718994 -6.492000102996826,-1.9709999561309814 -6.690999984741211,-0.328000009059906 C-6.659999847412109,-0.26100000739097595 -6.63700008392334,-0.19099999964237213 -6.604000091552734,-0.12399999797344208 C-5.052999973297119,3.002000093460083 -2.0190000534057617,5.3520002365112305 1.3969999551773071,6.070000171661377 C1.3969999551773071,6.070000171661377 6.690999984741211,0.6489999890327454 6.690999984741211,0.6489999890327454 C3.190999984741211,-2.121000051498413 -0.6690000295639038,-4.348999977111816 -4.74399995803833,-5.934000015258789 C-4.918000221252441,-6.000999927520752 -5.105999946594238,-6.070000171661377 -5.285999774932861,-6.019000053405762z"></path></g></g><g transform="matrix(-0.30875223875045776,-0.1247439906001091,-0.1247439906001091,0.30875223875045776,89.24901580810547,55.4608268737793)" opacity="1" style="display: block;"><g opacity="1" transform="matrix(1,0,0,1,71.85800170898438,37.21099853515625)"><path fill="rgb(245,138,70)" fill-opacity="1" d=" M-28.722999572753906,0 C-28.722999572753906,-15.86400032043457 -15.86400032043457,-28.722999572753906 -0.0010000000474974513,-28.722999572753906 C15.86299991607666,-28.722999572753906 28.722999572753906,-15.86400032043457 28.722999572753906,0 C28.722999572753906,15.86299991607666 15.86299991607666,28.722999572753906 -0.0010000000474974513,28.722999572753906 C-15.86400032043457,28.722999572753906 -28.722999572753906,15.86299991607666 -28.722999572753906,0z"></path></g><g opacity="1" transform="matrix(1,0,0,1,71.85800170898438,44.11600112915039)"><path fill="rgb(235,230,204)" fill-opacity="1" d=" M0,21.81800079345703 C-10.444000244140625,21.81800079345703 -19.583999633789062,16.243999481201172 -24.61199951171875,7.9079999923706055 C-25.784000396728516,1.3609999418258667 -24.990999221801758,-5.804999828338623 -21.75,-11.274999618530273 C-17.53499984741211,-18.38800048828125 -9.189000129699707,-21.81800079345703 -5.010000228881836,-19.44499969482422 C-1.7990000247955322,-17.621999740600586 -3.953000068664551,-11.611000061035156 -4.718999862670898,-9.03499984741211 C-5.433000087738037,-6.635000228881836 -9.37399959564209,2.186000108718872 -8.456999778747559,4.135000228881836 C-8.456999778747559,4.135000228881836 -2.6070001125335693,8.59000015258789 -1.2680000066757202,9.397000312805176 C-0.8790000081062317,9.630999565124512 -0.4749999940395355,9.880999565124512 -0.24199999868869781,10.270999908447266 C-0.1080000028014183,10.494000434875488 -0.04399999976158142,10.748000144958496 0,11.005000114440918 C0.04399999976158142,10.748000144958496 0.10899999737739563,10.494000434875488 0.24199999868869781,10.270999908447266 C0.4749999940395355,9.880999565124512 0.8790000081062317,9.630999565124512 1.2680000066757202,9.397000312805176 C2.6070001125335693,8.59000015258789 8.456999778747559,4.135000228881836 8.456999778747559,4.135000228881836 C9.375,2.186000108718872 5.434000015258789,-6.635000228881836 4.71999979019165,-9.03499984741211 C3.9539999961853027,-11.611000061035156 1.7999999523162842,-17.621999740600586 5.010000228881836,-19.44499969482422 C9.1899995803833,-21.81800079345703 17.53499984741211,-18.38800048828125 21.75,-11.274999618530273 C24.990999221801758,-5.804999828338623 25.784000396728516,1.3609999418258667 24.61199951171875,7.9079999923706055 C19.583999633789062,16.243999481201172 10.444000244140625,21.81800079345703 0,21.81800079345703z"></path></g><g opacity="1" transform="matrix(1,0,0,1,71.85800170898438,52.50600051879883)"><path stroke-linecap="round" stroke-linejoin="round" fill-opacity="0" stroke="rgb(77,67,95)" stroke-opacity="1" stroke-width="3.536" d=" M0,4.283999919891357 C0,4.283999919891357 0,1.5169999599456787 0,1.5169999599456787 C0,1.5169999599456787 8.39900016784668,-4.283999919891357 8.39900016784668,-4.283999919891357 C8.39900016784668,-4.283999919891357 0,-2.9070000648498535 0,-2.9070000648498535 C0,-2.9070000648498535 -8.39900016784668,-4.283999919891357 -8.39900016784668,-4.283999919891357 C-8.39900016784668,-4.283999919891357 0,1.5169999599456787 0,1.5169999599456787"></path><path fill="rgb(77,67,95)" fill-opacity="1" d=" M0,4.283999919891357 C0,4.283999919891357 0,1.5169999599456787 0,1.5169999599456787 C0,1.5169999599456787 8.39900016784668,-4.283999919891357 8.39900016784668,-4.283999919891357 C8.39900016784668,-4.283999919891357 0,-2.9070000648498535 0,-2.9070000648498535 C0,-2.9070000648498535 -8.39900016784668,-4.283999919891357 -8.39900016784668,-4.283999919891357 C-8.39900016784668,-4.283999919891357 0,1.5169999599456787 0,1.5169999599456787"></path></g><g opacity="1" transform="matrix(1,0,0,1,71.85800170898438,56.19300079345703)"><path fill="rgb(77,67,95)" fill-opacity="1" d=" M0,-2.1419999599456787 C0,-2.1419999599456787 0,-0.7590000033378601 0,-0.7590000033378601 C0,-0.7590000033378601 4.198999881744385,2.1419999599456787 4.198999881744385,2.1419999599456787 C4.198999881744385,2.1419999599456787 0,1.4539999961853027 0,1.4539999961853027 C0,1.4539999961853027 -4.198999881744385,2.1419999599456787 -4.198999881744385,2.1419999599456787 C-4.198999881744385,2.1419999599456787 0,-0.7590000033378601 0,-0.7590000033378601"></path></g><g opacity="1" transform="matrix(1,0,0,1,71.85800170898438,56.19300079345703)"><path stroke-linecap="round" stroke-linejoin="round" fill-opacity="0" stroke="rgb(77,67,95)" stroke-opacity="1" stroke-width="3.536" d=" M0,-2.1419999599456787 C0,-2.1419999599456787 0,-0.7590000033378601 0,-0.7590000033378601 C0,-0.7590000033378601 4.198999881744385,2.1419999599456787 4.198999881744385,2.1419999599456787 C4.198999881744385,2.1419999599456787 0,1.4539999961853027 0,1.4539999961853027 C0,1.4539999961853027 -4.198999881744385,2.1419999599456787 -4.198999881744385,2.1419999599456787 C-4.198999881744385,2.1419999599456787 0,-0.7590000033378601 0,-0.7590000033378601"></path></g><g opacity="1" transform="matrix(1,0,0,1,71.85800170898438,22.614999771118164)"><path stroke-linecap="round" stroke-linejoin="round" fill-opacity="0" stroke="rgb(77,67,95)" stroke-opacity="1" stroke-width="4.421" d=" M-14.770999908447266,-3.9790000915527344 C-9.371000289916992,-2.697000026702881 -3.9200000762939453,0.05000000074505806 0,3.9790000915527344 C3.9200000762939453,0.05000000074505806 9.371999740600586,-2.697000026702881 14.770999908447266,-3.9790000915527344"></path></g><g opacity="1" transform="matrix(1,0,0,1,71.85600280761719,13.513999938964844)"><path stroke-linecap="round" stroke-linejoin="round" fill-opacity="0" stroke="rgb(77,67,95)" stroke-opacity="1" stroke-width="4.421" d=" M-6.736999988555908,-2.4619998931884766 C-4.24399995803833,-1.1319999694824219 -1.934999942779541,0.5210000276565552 0.0020000000949949026,2.4619998931884766 C1.937000036239624,0.5230000019073486 4.244999885559082,-1.128000020980835 6.736999988555908,-2.4579999446868896"></path></g><g opacity="1" transform="matrix(0.3806999921798706,0,0,0.3806999921798706,60.62099838256836,35.00199890136719)"><path fill="rgb(77,67,95)" fill-opacity="1" d=" M13.5,0 C13.5,0 13.5,0 13.5,0 C13.5,7.450650215148926 7.450650215148926,13.5 0,13.5 C0,13.5 0,13.5 0,13.5 C-7.450650215148926,13.5 -13.5,7.450650215148926 -13.5,0 C-13.5,0 -13.5,0 -13.5,0 C-13.5,-7.450650215148926 -7.450650215148926,-13.5 0,-13.5 C0,-13.5 0,-13.5 0,-13.5 C7.450650215148926,-13.5 13.5,-7.450650215148926 13.5,0z"></path></g><g opacity="1" transform="matrix(0.3806999921798706,0,0,0.3806999921798706,83.12100219726562,35.00199890136719)"><path fill="rgb(77,67,95)" fill-opacity="1" d=" M13.5,0 C13.5,0 13.5,0 13.5,0 C13.5,7.450650215148926 7.450650215148926,13.5 0,13.5 C0,13.5 0,13.5 0,13.5 C-7.450650215148926,13.5 -13.5,7.450650215148926 -13.5,0 C-13.5,0 -13.5,0 -13.5,0 C-13.5,-7.450650215148926 -7.450650215148926,-13.5 0,-13.5 C0,-13.5 0,-13.5 0,-13.5 C7.450650215148926,-13.5 13.5,-7.450650215148926 13.5,0z"></path></g></g></g></svg>