<svg xmlns="http://www.w3.org/2000/svg" viewBox="0 0 43 42" width="43" height="42" preserveAspectRatio="xMidYMid meet" style="width: 100%; height: 100%; transform: translate3d(0px, 0px, 0px); content-visibility: visible;"><defs><clipPath id="__lottie_element_2072"><rect width="43" height="42" x="0" y="0"></rect></clipPath><mask id="__lottie_element_2077" mask-type="alpha"><g transform="matrix(0.5066159963607788,0,0,0.4766189754009247,19.733509063720703,17.5670108795166)" opacity="1" style="display: block;"><g opacity="1" transform="matrix(1,0,0,1,0,0)"><path fill="rgb(255,0,0)" fill-opacity="1" d=" M50,-50 C50,-50 50,50 50,50 C50,50 -50,50 -50,50 C-50,50 -50,-50 -50,-50 C-50,-50 50,-50 50,-50z"></path></g></g></mask><mask id="__lottie_element_2083" mask-type="alpha"><g transform="matrix(0.5066159963607788,0,0,0.4766189754009247,19.733509063720703,17.5670108795166)" opacity="1" style="display: block;"><g opacity="1" transform="matrix(1,0,0,1,0,0)"><path fill="rgb(255,0,0)" fill-opacity="1" d=" M50,-50 C50,-50 50,50 50,50 C50,50 -50,50 -50,50 C-50,50 -50,-50 -50,-50 C-50,-50 50,-50 50,-50z"></path></g></g></mask></defs><g clip-path="url(#__lottie_element_2072)"><g mask="url(#__lottie_element_2077)" style="display: block;"><g transform="matrix(0.33329999446868896,0,0,0.33329999446868896,3.2351605892181396,2.568509340286255)" opacity="1"><g opacity="1" transform="matrix(1,0,0,1,28.240999221801758,98.47599792480469)"><path fill="rgb(95,73,82)" fill-opacity="1" d=" M7.875,-19.01099967956543 C1.9040000438690186,-16.062999725341797 -2.9679999351501465,-10.375 -6.228000164031982,-3.815999984741211 C-8.23799991607666,0.23000000417232513 -9.67300033569336,4.5970001220703125 -10.689000129699707,9.086999893188477 C-11.711000442504883,13.597999572753906 -9.140999794006348,17.968000411987305 -5.228000164031982,18.518999099731445 C-1.7480000257492065,19.010000228881836 1.590000033378601,16.29599952697754 2.437999963760376,12.267999649047852 C4.205999851226807,3.881999969482422 7.545000076293945,-9.628999710083008 11.711000442504883,-15.465999603271484 C11.711000442504883,-15.465999603271484 7.875,-19.01099967956543 7.875,-19.01099967956543z"></path></g><g opacity="1" transform="matrix(1,0,0,1,45.242000579833984,99.75299835205078)"><path fill="rgb(244,238,233)" fill-opacity="1" d=" M19.110000610351562,-19.566999435424805 C24.777999877929688,-5.616000175476074 25.09000015258789,9.569000244140625 19.993000030517578,23.18600082397461 C19.993000030517578,23.18600082397461 -20.48200035095215,17.48900032043457 -20.48200035095215,17.48900032043457 C-25.090999603271484,4.656000137329102 -20.216999053955078,-10.710000038146973 -6.607999801635742,-23.18600082397461 C-6.607999801635742,-23.18600082397461 19.110000610351562,-19.566999435424805 19.110000610351562,-19.566999435424805z"></path></g><g opacity="1" transform="matrix(1,0,0,1,49.292999267578125,88.23999786376953)"><path fill="rgb(222,215,209)" fill-opacity="1" d=" M19.308000564575195,9.503999710083008 C19.062000274658203,6.703999996185303 18.610000610351562,3.9089999198913574 17.965999603271484,1.1360000371932983 C17.913999557495117,0.9139999747276306 17.867000579833984,0.6919999718666077 17.812000274658203,0.47099998593330383 C17.69499969482422,-0.008999999612569809 17.566999435424805,-0.4869999885559082 17.437999725341797,-0.9660000205039978 C17.336000442504883,-1.3389999866485596 17.233999252319336,-1.7109999656677246 17.125,-2.0829999446868896 C17.007999420166016,-2.4830000400543213 16.888999938964844,-2.882999897003174 16.763999938964844,-3.2809998989105225 C16.611000061035156,-3.7679998874664307 16.450000762939453,-4.254000186920166 16.28499984741211,-4.73799991607666 C16.18000030517578,-5.045000076293945 16.07900047302246,-5.35099983215332 15.970000267028809,-5.656000137329102 C15.682999610900879,-6.455999851226807 15.383000373840332,-7.251999855041504 15.062000274658203,-8.043999671936035 C15.060999870300293,-8.04699993133545 15.060999870300293,-8.050000190734863 15.059000015258789,-8.053000450134277 C15.059000015258789,-8.053000450134277 -10.659000396728516,-11.673999786376953 -10.659000396728516,-11.673999786376953 C-14.109000205993652,-8.51099967956543 -16.993000030517578,-5.160999774932861 -19.308000564575195,-1.715000033378601 C-18.15399932861328,-0.4959999918937683 -16.92300033569336,0.6520000100135803 -15.616000175476074,1.7050000429153442 C-9.857999801635742,6.335000038146973 -2.825000047683716,9.340999603271484 4.433000087738037,10.62399959564209 C9.463000297546387,11.512999534606934 14.852999687194824,11.67300033569336 19.308000564575195,9.503999710083008z"></path></g><g opacity="1" transform="matrix(1,0,0,1,70.14900207519531,103.9749984741211)"><path fill="rgb(95,73,82)" fill-opacity="1" d=" M-2.8420000076293945,-20.1200008392334 C2.0829999446868896,-15.640000343322754 5.195000171661377,-8.826000213623047 6.517000198364258,-1.621999979019165 C7.334000110626221,2.822000026702881 7.507999897003174,7.414000034332275 7.244999885559082,12.010000228881836 C6.98199987411499,16.628999710083008 3.303999900817871,20.1200008392334 -0.609000027179718,19.569000244140625 C-4.0879998207092285,19.07900047302246 -6.546999931335449,15.550000190734863 -6.250999927520752,11.444999694824219 C-5.635000228881836,2.8970000743865967 -5.113999843597412,-11.01200008392334 -7.507999897003174,-17.770999908447266 C-7.507999897003174,-17.770999908447266 -2.8420000076293945,-20.1200008392334 -2.8420000076293945,-20.1200008392334z"></path></g></g></g><g mask="url(#__lottie_element_2083)" style="display: block;"><g transform="matrix(0.3324721157550812,0.023477371782064438,-0.023477371782064438,0.3324721157550812,5.225176811218262,1.4633545875549316)" opacity="1"><g opacity="1" transform="matrix(1,0,0,1,30.972000122070312,56.66699981689453)"><path fill="rgb(95,73,82)" fill-opacity="1" d=" M-2.0209999084472656,-5.63100004196167 C-0.6940000057220459,-6.349999904632568 0.9110000133514404,-6.124000072479248 2.4059998989105225,-5.914000034332275 C6.682000160217285,-5.313000202178955 7.85099983215332,0.9470000267028809 7.85099983215332,0.9470000267028809 C6.854000091552734,2.757999897003174 5.992000102996826,4.427999973297119 5.284999847412109,6 C3.994999885559082,6.239999771118164 2.693000078201294,6.348999977111816 1.3899999856948853,6.197999954223633 C-4.078000068664551,5.561999797821045 -7.85099983215332,-2.4749999046325684 -2.0209999084472656,-5.63100004196167z"></path></g><g opacity="1" transform="matrix(1,0,0,1,49.93899917602539,68.9260025024414)"><path fill="rgb(244,238,233)" fill-opacity="1" d=" M20.91200065612793,-20.72599983215332 C20.91200065612793,-20.72599983215332 22.65999984741211,-13.984999656677246 24.232999801635742,-7.074999809265137 C25.996999740600586,0.6790000200271606 26.80900001525879,7.377999782562256 22.56399917602539,13.616999626159668 C18.207000732421875,20.017000198364258 9.767999649047852,20.740999221801758 2.7709999084472656,20.2549991607666 C-6.702000141143799,19.600000381469727 -16.650999069213867,16.34600067138672 -20.670000076293945,12.255000114440918 C-26.80900001525879,6.00600004196167 -22.5,-3.312999963760376 -20.347999572753906,-9.85200023651123 C-19.2810001373291,-13.09000015258789 -18.086000442504883,-16.32200050354004 -17.02199935913086,-19.070999145507812 C-17.02199935913086,-19.070999145507812 20.8799991607666,-20.740999221801758 20.91200065612793,-20.72599983215332z"></path></g><g opacity="1" transform="matrix(1,0,0,1,52.28300094604492,63.38999938964844)"><path fill="rgb(188,181,176)" fill-opacity="1" d=" M22.236000061035156,15.204999923706055 C24.07900047302246,10.08899974822998 23.288999557495117,4.60699987411499 21.889999389648438,-1.5390000343322754 C20.31800079345703,-8.449000358581543 18.566999435424805,-15.190999984741211 18.566999435424805,-15.190999984741211 C18.551000595092773,-15.197999954223633 12.732999801635742,-24.98699951171875 -2.5429999828338623,-23.351999282836914 C-18.534000396728516,-21.641000747680664 -19.365999221801758,-13.53499984741211 -19.365999221801758,-13.53499984741211 C-20.43000030517578,-10.78600025177002 -21.624000549316406,-7.554999828338623 -22.69099998474121,-4.315999984741211 C-23.104000091552734,-3.062000036239624 -23.59600067138672,-1.7029999494552612 -24.07900047302246,-0.2849999964237213 C-24.07900047302246,-0.2849999964237213 22.236000061035156,15.204999923706055 22.236000061035156,15.204999923706055z"></path></g><g opacity="1" transform="matrix(1,0,0,1,79.08300018310547,63.16999816894531)"><path fill="rgb(95,73,82)" fill-opacity="1" d=" M3.2869999408721924,-4.614999771118164 C2.2100000381469727,-5.672999858856201 0.6050000190734863,-5.8979997634887695 -0.8899999856948853,-6.109000205993652 C-5.165999889373779,-6.710999965667725 -8.017999649047852,-1.0180000066757202 -8.017999649047852,-1.0180000066757202 C-7.559000015258789,0.996999979019165 -7.190999984741211,2.8399999141693115 -6.945000171661377,4.546999931335449 C-5.770999908447266,5.132999897003174 -4.551000118255615,5.598999977111816 -3.25600004196167,5.813000202178955 C2.174999952316284,6.710999965667725 8.017999649047852,0.028999999165534973 3.2869999408721924,-4.614999771118164z"></path></g><g opacity="1" transform="matrix(1,0,0,1,36.198001861572266,60.641998291015625)"><path fill="rgb(95,73,82)" fill-opacity="1" d=" M8.416000366210938,-0.9700000286102295 C7.9120001792907715,-5.340000152587891 3.7360000610351562,-8.449000358581543 -0.9120000004768372,-7.913000106811523 C-5.560999870300293,-7.376999855041504 -8.920000076293945,-3.4010000228881836 -8.416999816894531,0.968999981880188 C-7.913000106811523,5.340000152587891 -3.7360000610351562,8.449000358581543 0.9110000133514404,7.913000106811523 C5.559999942779541,7.377999782562256 8.920000076293945,3.4000000953674316 8.416000366210938,-0.9700000286102295z"></path></g><g opacity="1" transform="matrix(1,0,0,1,57.51499938964844,63.643001556396484)"><path fill="rgb(95,73,82)" fill-opacity="1" d=" M-7.821000099182129,-3.25600004196167 C-6.131999969482422,-7.317999839782715 -1.2589999437332153,-9.151000022888184 3.061000108718872,-7.354000091552734 C7.380000114440918,-5.556000232696533 9.51200008392334,-0.8059999942779541 7.822000026702881,3.25600004196167 C6.13100004196167,7.316999912261963 1.2589999437332153,9.152000427246094 -3.059999942779541,7.354000091552734 C-7.38100004196167,5.557000160217285 -9.51099967956543,0.8059999942779541 -7.821000099182129,-3.25600004196167z"></path></g><g opacity="1" transform="matrix(1,0,0,1,49.347999572753906,70.94999694824219)"><path fill="rgb(244,238,233)" fill-opacity="1" d=" M11.277000427246094,2.9670000076293945 C6.131999969482422,-1.034999966621399 2.446000099182129,-3.328000068664551 -4.007999897003174,-4.236000061035156 C-6.4029998779296875,-4.572999954223633 -11.277000427246094,-4.71999979019165 -11.277000427246094,-4.71999979019165 C-11.277000427246094,-4.71999979019165 -11.15999984741211,-0.9629999995231628 -11.15999984741211,-0.9629999995231628 C-11.15999984741211,-0.9629999995231628 -0.9599999785423279,3.0309998989105225 -0.9599999785423279,3.0309998989105225 C-0.9599999785423279,3.0309998989105225 11.029999732971191,4.71999979019165 11.029999732971191,4.71999979019165 C11.029999732971191,4.71999979019165 11.277000427246094,2.9670000076293945 11.277000427246094,2.9670000076293945z"></path></g><g opacity="1" transform="matrix(1,0,0,1,41.459999084472656,69.16699981689453)"><path fill="rgb(95,73,82)" fill-opacity="1" d=" M-3.114000082015991,1.8320000171661377 C-3.114000082015991,1.8320000171661377 -4.97599983215332,-0.2840000092983246 -4.97599983215332,-0.2840000092983246 C-6.1539998054504395,-1.6239999532699585 -5.03000020980835,-3.7060000896453857 -3.263000011444092,-3.4570000171661377 C-3.263000011444092,-3.4570000171661377 3.88100004196167,-2.453000068664551 3.88100004196167,-2.453000068664551 C5.6479997634887695,-2.2039999961853027 6.1529998779296875,0.10700000077486038 4.651000022888184,1.0700000524520874 C4.651000022888184,1.0700000524520874 2.2780001163482666,2.5920000076293945 2.2780001163482666,2.5920000076293945 C0.5389999747276306,3.7060000896453857 -1.7510000467300415,3.382999897003174 -3.114000082015991,1.8320000171661377z"></path></g><g opacity="1" transform="matrix(0.09225398302078247,0.02705737203359604,-0.02705737203359604,0.09225398302078247,32.30699920654297,60.071998596191406)"><path fill="rgb(244,239,233)" fill-opacity="1" d=" M19.5,0 C19.5,0 19.5,0 19.5,0 C19.5,10.762049674987793 10.762049674987793,19.5 0,19.5 C0,19.5 0,19.5 0,19.5 C-10.762049674987793,19.5 -19.5,10.762049674987793 -19.5,0 C-19.5,0 -19.5,0 -19.5,0 C-19.5,-10.762049674987793 -10.762049674987793,-19.5 0,-19.5 C0,-19.5 0,-19.5 0,-19.5 C10.762049674987793,-19.5 19.5,-10.762049674987793 19.5,0z"></path></g><g opacity="1" transform="matrix(0.09401567280292511,0.020098581910133362,-0.020098581910133362,0.09401567280292511,53.55699920654297,63.071998596191406)"><path fill="rgb(244,239,233)" fill-opacity="1" d=" M19.5,0 C19.5,0 19.5,0 19.5,0 C19.5,10.762049674987793 10.762049674987793,19.5 0,19.5 C0,19.5 0,19.5 0,19.5 C-10.762049674987793,19.5 -19.5,10.762049674987793 -19.5,0 C-19.5,0 -19.5,0 -19.5,0 C-19.5,-10.762049674987793 -10.762049674987793,-19.5 0,-19.5 C0,-19.5 0,-19.5 0,-19.5 C10.762049674987793,-19.5 19.5,-10.762049674987793 19.5,0z"></path></g></g></g><g transform="matrix(0.3347647190093994,0.03541684150695801,-0.03541684150695801,0.3347647190093994,5.663794994354248,0.701341986656189)" opacity="1" style="display: block;"><g opacity="1" transform="matrix(1,0,0,1,61.32500076293945,20.163000106811523)"><path fill="rgb(255,200,77)" fill-opacity="1" d=" M3.750999927520752,-19.027000427246094 C3.750999927520752,-19.027000427246094 3.750999927520752,-19.027000427246094 3.750999927520752,-19.027000427246094 C-0.7409999966621399,-19.913000106811523 -5.14300012588501,-16.961999893188477 -6.0279998779296875,-12.468000411987305 C-6.0279998779296875,-12.468000411987305 -10.309000015258789,9.24899959564209 -10.309000015258789,9.24899959564209 C-11.194000244140625,13.741999626159668 -8.244000434875488,18.142000198364258 -3.752000093460083,19.027999877929688 C0.7409999966621399,19.913000106811523 5.14300012588501,16.961999893188477 6.0279998779296875,12.470000267028809 C6.0279998779296875,12.470000267028809 10.309000015258789,-9.248000144958496 10.309000015258789,-9.248000144958496 C11.194000244140625,-13.741000175476074 8.244000434875488,-18.141000747680664 3.750999927520752,-19.027000427246094z"></path></g><g opacity="1" transform="matrix(1,0,0,1,57.040000915527344,31.576000213623047)"><path fill="rgb(255,200,77)" fill-opacity="1" d=" M52.67100143432617,26.312999725341797 C51.2130012512207,25.948999404907227 18.301000595092773,26.413000106811523 1.6790000200271606,1.805999994277954 C-23.038999557495117,18.266000747680664 -53.31399917602539,5.3420000076293945 -54.79899978637695,5.126999855041504 C-54.79899978637695,5.126999855041504 -53.54999923706055,-3.4739999771118164 -53.54999923706055,-3.4739999771118164 C-53.2400016784668,-3.430000066757202 -20.82200050354004,0.8809999823570251 -1.774999976158142,-17.64299964904785 C-1.774999976158142,-17.64299964904785 7.241000175476074,-26.413000106811523 7.241000175476074,-26.413000106811523 C7.241000175476074,-26.413000106811523 12.255999565124512,-14.876999855041504 12.255999565124512,-14.876999855041504 C22.850000381469727,9.48900032043457 54.48099899291992,17.804000854492188 54.79899978637695,17.88599967956543 C54.79899978637695,17.88599967956543 52.67100143432617,26.312999725341797 52.67100143432617,26.312999725341797z"></path></g><g opacity="1" transform="matrix(1,0,0,1,55.24300003051758,43.0880012512207)"><path fill="rgb(193,66,60)" fill-opacity="1" d=" M23.86400032043457,20.115999221801758 C38.104000091552734,22.923999786376953 54.99399948120117,18.76799964904785 54.99399948120117,18.76799964904785 C54.99399948120117,18.76799964904785 54.46699905395508,14.802000045776367 54.46699905395508,14.802000045776367 C54.46699905395508,14.802000045776367 18.58099937438965,5.827000141143799 6.081999778747559,-22.923999786376953 C-16.39299964904785,-1.0670000314712524 -53.000999450683594,-6.383999824523926 -53.000999450683594,-6.383999824523926 C-53.000999450683594,-6.383999824523926 -54.99399948120117,-2.9130001068115234 -54.99399948120117,-2.9130001068115234 C-54.99399948120117,-2.9130001068115234 -40.94599914550781,7.340000152587891 -26.70400047302246,10.147000312805176 C-26.70400047302246,10.147000312805176 23.86400032043457,20.115999221801758 23.86400032043457,20.115999221801758z"></path></g><g opacity="1" transform="matrix(1,0,0,1,58.51499938964844,36.37099838256836)"><path stroke-linecap="round" stroke-linejoin="round" fill-opacity="0" stroke="rgb(239,82,34)" stroke-opacity="1" stroke-width="2.897" d=" M-5.323999881744385,-3.003000020980835 C-4.985000133514404,-0.014999999664723873 -3.2170000076293945,2.0840001106262207 -0.8870000243186951,2.5429999828338623 C1.4450000524520874,3.003000020980835 3.877000093460083,1.7319999933242798 5.323999881744385,-0.902999997138977"></path></g><g opacity="1" transform="matrix(1,0,0,1,69.91200256347656,53.3650016784668)"><path stroke-linecap="round" stroke-linejoin="round" fill-opacity="0" stroke="rgb(239,82,34)" stroke-opacity="1" stroke-width="2.897" d=" M-5.323999881744385,-3.003000020980835 C-4.985000133514404,-0.014999999664723873 -3.2170000076293945,2.0840001106262207 -0.8859999775886536,2.5439999103546143 C1.4450000524520874,3.003000020980835 3.877000093460083,1.7330000400543213 5.323999881744385,-0.902999997138977"></path></g><g opacity="1" transform="matrix(1,0,0,1,41.52000045776367,47.768001556396484)"><path stroke-linecap="round" stroke-linejoin="round" fill-opacity="0" stroke="rgb(239,82,34)" stroke-opacity="1" stroke-width="2.897" d=" M-5.323999881744385,-3.003000020980835 C-4.985000133514404,-0.014999999664723873 -3.2170000076293945,2.0840001106262207 -0.8870000243186951,2.5429999828338623 C1.4450000524520874,3.003000020980835 3.877000093460083,1.7319999933242798 5.323999881744385,-0.902999997138977"></path></g></g></g></svg>