<svg xmlns="http://www.w3.org/2000/svg" viewBox="0 0 58 86" width="58" height="86" preserveAspectRatio="xMidYMid meet" style="width: 100%; height: 100%; transform: translate3d(0px, 0px, 0px); content-visibility: visible;"><defs><clipPath id="__lottie_element_2853"><rect width="58" height="86" x="0" y="0"></rect></clipPath><mask id="__lottie_element_2858" mask-type="alpha"><g transform="matrix(0.842490017414093,0,0,0.5494499802589417,31.031299591064453,54.52180099487305)" opacity="1" style="display: block;"><path fill="rgb(255,0,0)" fill-opacity="1" d=" M50,-50 C50,-50 50,50 50,50 C50,50 -50,50 -50,50 C-50,50 -50,-50 -50,-50 C-50,-50 50,-50 50,-50z"></path></g></mask><mask id="__lottie_element_2864" mask-type="alpha"><g transform="matrix(0.842490017414093,0,0,0.5494499802589417,31.031299591064453,54.52180099487305)" opacity="1" style="display: block;"><path fill="rgb(255,0,0)" fill-opacity="1" d=" M50,-50 C50,-50 50,50 50,50 C50,50 -50,50 -50,50 C-50,50 -50,-50 -50,-50 C-50,-50 50,-50 50,-50z"></path></g></mask><mask id="__lottie_element_2870" mask-type="alpha"><g transform="matrix(0.842490017414093,0,0,0.5494499802589417,31.031299591064453,54.52180099487305)" opacity="1" style="display: block;"><path fill="rgb(255,0,0)" fill-opacity="1" d=" M50,-50 C50,-50 50,50 50,50 C50,50 -50,50 -50,50 C-50,50 -50,-50 -50,-50 C-50,-50 50,-50 50,-50z"></path></g></mask><mask id="__lottie_element_2876" mask-type="alpha"><g transform="matrix(0.842490017414093,0,0,0.5494499802589417,31.031299591064453,54.52180099487305)" opacity="1" style="display: block;"><path fill="rgb(255,0,0)" fill-opacity="1" d=" M50,-50 C50,-50 50,50 50,50 C50,50 -50,50 -50,50 C-50,50 -50,-50 -50,-50 C-50,-50 50,-50 50,-50z"></path></g></mask></defs><g clip-path="url(#__lottie_element_2853)"><g mask="url(#__lottie_element_2858)" style="display: block;"><g transform="matrix(-0.30875223875045776,-0.1247439906001091,0.1247439906001091,-0.30875223875045776,43.15756607055664,91.209228515625)" opacity="1"><g opacity="1" transform="matrix(1,0,0,1,58.61399841308594,56.387001037597656)"><path fill="rgb(0,150,215)" fill-opacity="1" d=" M-17.33099937438965,24.645000457763672 C-20.7810001373291,17.0310001373291 -22.312000274658203,11.994999885559082 -22.305999755859375,1.2059999704360962 C-22.297000885009766,-11.73900032043457 -12.303000450134277,-24.667999267578125 0.01600000075995922,-24.660999298095703 C12.333999633789062,-24.652999877929688 22.312999725341797,-11.710000038146973 22.304000854492188,1.2339999675750732 C22.297000885009766,12.02299976348877 20.760000228881836,17.058000564575195 17.301000595092773,24.667999267578125 C17.301000595092773,24.667999267578125 -17.33099937438965,24.645000457763672 -17.33099937438965,24.645000457763672z"></path></g><g opacity="1" transform="matrix(1,0,0,1,20.125999450683594,66.61199951171875)"><path fill="rgb(199,219,66)" fill-opacity="1" d=" M7.27400016784668,-5.802000045776367 C8.756999969482422,-4.046999931335449 10.038000106811523,-1.3700000047683716 9.913000106811523,0.9900000095367432 C9.656999588012695,5.835000038146973 5.320000171661377,3.6110000610351562 4.460000038146973,0.32499998807907104 C3.752000093460083,2.9149999618530273 2.253000020980835,5.2820000648498535 0.21199999749660492,7.026000022888184 C-1.0010000467300415,8.062000274658203 -2.4609999656677246,8.901000022888184 -4.052999973297119,9.01099967956543 C-10.038000106811523,9.428000450134277 -8.894000053405762,2.921999931335449 -7.077000141143799,-0.46299999952316284 C-5.177000045776367,-4.001999855041504 -1.9550000429153442,-7.598999977111816 1.6720000505447388,-9.428000450134277 C1.6720000505447388,-9.428000450134277 7.27400016784668,-5.802000045776367 7.27400016784668,-5.802000045776367z"></path></g><g opacity="1" transform="matrix(1,0,0,1,58.62200164794922,43.402000427246094)"><path stroke-linecap="round" stroke-linejoin="round" fill-opacity="0" stroke="rgb(77,67,95)" stroke-opacity="1" stroke-width="4.882" d=" M-18.461999893188477,-0.012000000104308128 C-18.461999893188477,-0.012000000104308128 18.461999893188477,0.012000000104308128 18.461999893188477,0.012000000104308128"></path></g><g opacity="1" transform="matrix(1,0,0,1,58.645999908447266,3.8399999141693115)"><path fill="rgb(199,219,66)" fill-opacity="1" d=" M-3.5889999866485596,-0.0020000000949949026 C-3.5880000591278076,-1.9839999675750732 -1.9800000190734863,-3.5899999141693115 0.0020000000949949026,-3.5889999866485596 C1.9839999675750732,-3.5880000591278076 3.5899999141693115,-1.9800000190734863 3.5889999866485596,0.0020000000949949026 C3.5880000591278076,1.9839999675750732 1.9789999723434448,3.5899999141693115 -0.0020000000949949026,3.5889999866485596 C-1.9850000143051147,3.5880000591278076 -3.5899999141693115,1.9789999723434448 -3.5889999866485596,-0.0020000000949949026z"></path></g><g opacity="1" transform="matrix(1,0,0,1,58.63399887084961,13.82800006866455)"><path fill="rgb(199,219,66)" fill-opacity="1" d=" M1.350000023841858,-9.98799991607666 C1.350000023841858,-9.98799991607666 2.430999994277954,9.989999771118164 2.430999994277954,9.989999771118164 C2.430999994277954,9.989999771118164 -2.430999994277954,9.987000465393066 -2.430999994277954,9.987000465393066 C-2.430999994277954,9.987000465393066 -1.3240000009536743,-9.989999771118164 -1.3240000009536743,-9.989999771118164 C-1.3240000009536743,-9.989999771118164 1.350000023841858,-9.98799991607666 1.350000023841858,-9.98799991607666z"></path></g><g opacity="1" transform="matrix(1,0,0,1,58.62900161743164,30.98200035095215)"><path fill="rgb(199,219,66)" fill-opacity="1" d=" M-22.974000930786133,-0.014999999664723873 C-22.969999313354492,-7.625999927520752 -12.680000305175781,-13.788999557495117 0.00800000037997961,-13.781999588012695 C12.696999549865723,-13.77400016784668 22.979000091552734,-7.5970001220703125 22.974000930786133,0.014000000432133675 C22.969999313354492,7.625999927520752 12.680000305175781,13.788999557495117 -0.00800000037997961,13.781000137329102 C-12.696999549865723,13.77299976348877 -22.979000091552734,7.5960001945495605 -22.974000930786133,-0.014999999664723873z"></path></g><g opacity="1" transform="matrix(1,0,0,1,35.74599838256836,28.51799964904785)"><path fill="rgb(199,219,66)" fill-opacity="1" d=" M-2.4130001068115234,-7.255000114440918 C-2.4130001068115234,-7.255000114440918 4.296000003814697,4.359000205993652 4.296000003814697,4.359000205993652 C4.7789998054504395,5.196000099182129 4.4019999504089355,6.341000080108643 3.563999891281128,6.583000183105469 C3.563999891281128,6.583000183105469 -2.2909998893737793,8.272000312805176 -2.2909998893737793,8.272000312805176 C-3.0369999408721924,8.48799991607666 -3.7699999809265137,7.868000030517578 -3.828000068664551,6.9720001220703125 C-3.828000068664551,6.9720001220703125 -4.684000015258789,-6.333000183105469 -4.684000015258789,-6.333000183105469 C-4.7789998054504395,-7.817999839782715 -3.127000093460083,-8.48900032043457 -2.4130001068115234,-7.255000114440918z"></path></g><g opacity="1" transform="matrix(1,0,0,1,81.51799774169922,28.552000045776367)"><path fill="rgb(199,219,66)" fill-opacity="1" d=" M2.4210000038146973,-7.25600004196167 C2.4210000038146973,-7.25600004196167 -4.302999973297119,4.349999904632568 -4.302999973297119,4.349999904632568 C-4.7870001792907715,5.185999870300293 -4.4120001792907715,6.329999923706055 -3.572999954223633,6.572999954223633 C-3.572999954223633,6.572999954223633 2.2780001163482666,8.270999908447266 2.2780001163482666,8.270999908447266 C3.0250000953674316,8.48799991607666 3.759000062942505,7.868000030517578 3.818000078201294,6.9730000495910645 C3.818000078201294,6.9730000495910645 4.690999984741211,-6.330999851226807 4.690999984741211,-6.330999851226807 C4.7870001792907715,-7.816999912261963 3.135999917984009,-8.48900032043457 2.4210000038146973,-7.25600004196167z"></path></g><g opacity="1" transform="matrix(0.31780722737312317,-0.1978483647108078,0.1978483647108078,0.31780722737312317,45.53300094604492,28.854000091552734)"><path fill="rgb(245,245,235)" fill-opacity="1" d=" M16.5,0 C16.5,0 16.5,0 16.5,0 C16.5,7.450650215148926 10.450650215148926,13.5 3,13.5 C3,13.5 -3,13.5 -3,13.5 C-10.450650215148926,13.5 -16.5,7.450650215148926 -16.5,0 C-16.5,0 -16.5,0 -16.5,0 C-16.5,-7.450650215148926 -10.450650215148926,-13.5 -3,-13.5 C-3,-13.5 3,-13.5 3,-13.5 C10.450650215148926,-13.5 16.5,-7.450650215148926 16.5,0z"></path></g><g opacity="1" transform="matrix(0.31780722737312317,-0.1978483647108078,0.1978483647108078,0.31780722737312317,46.03300094604492,30.104000091552734)"><path fill="rgb(77,67,95)" fill-opacity="1" d=" M8,0 C8,0 8,0 8,0 C8,4.415200233459473 4.415200233459473,8 0,8 C0,8 0,8 0,8 C-4.415200233459473,8 -8,4.415200233459473 -8,0 C-8,0 -8,0 -8,0 C-8,-4.415200233459473 -4.415200233459473,-8 0,-8 C0,-8 0,-8 0,-8 C4.415200233459473,-8 8,-4.415200233459473 8,0z"></path></g><g opacity="1" transform="matrix(0.3736388087272644,-0.023225853219628334,0.023225853219628334,0.3736388087272644,58.606998443603516,25.084999084472656)"><path fill="rgb(245,245,235)" fill-opacity="1" d=" M16.5,0 C16.5,0 16.5,0 16.5,0 C16.5,7.450650215148926 10.450650215148926,13.5 3,13.5 C3,13.5 -3,13.5 -3,13.5 C-10.450650215148926,13.5 -16.5,7.450650215148926 -16.5,0 C-16.5,0 -16.5,0 -16.5,0 C-16.5,-7.450650215148926 -10.450650215148926,-13.5 -3,-13.5 C-3,-13.5 3,-13.5 3,-13.5 C10.450650215148926,-13.5 16.5,-7.450650215148926 16.5,0z"></path></g><g opacity="1" transform="matrix(0.3736388087272644,-0.023225853219628334,0.023225853219628334,0.3736388087272644,58.606998443603516,26.084999084472656)"><path fill="rgb(77,67,95)" fill-opacity="1" d=" M8,0 C8,0 8,0 8,0 C8,4.415200233459473 4.415200233459473,8 0,8 C0,8 0,8 0,8 C-4.415200233459473,8 -8,4.415200233459473 -8,0 C-8,0 -8,0 -8,0 C-8,-4.415200233459473 -4.415200233459473,-8 0,-8 C0,-8 0,-8 0,-8 C4.415200233459473,-8 8,-4.415200233459473 8,0z"></path></g><g opacity="1" transform="matrix(0.33107247948646545,0.17474675178527832,-0.17474675178527832,0.33107247948646545,71.67500305175781,29.209999084472656)"><path fill="rgb(245,245,235)" fill-opacity="1" d=" M16.5,0 C16.5,0 16.5,0 16.5,0 C16.5,7.450650215148926 10.450650215148926,13.5 3,13.5 C3,13.5 -3,13.5 -3,13.5 C-10.450650215148926,13.5 -16.5,7.450650215148926 -16.5,0 C-16.5,0 -16.5,0 -16.5,0 C-16.5,-7.450650215148926 -10.450650215148926,-13.5 -3,-13.5 C-3,-13.5 3,-13.5 3,-13.5 C10.450650215148926,-13.5 16.5,-7.450650215148926 16.5,0z"></path></g><g opacity="1" transform="matrix(0.33107247948646545,0.17474675178527832,-0.17474675178527832,0.33107247948646545,71.17500305175781,29.959999084472656)"><path fill="rgb(77,67,95)" fill-opacity="1" d=" M8,0 C8,0 8,0 8,0 C8,4.415200233459473 4.415200233459473,8 0,8 C0,8 0,8 0,8 C-4.415200233459473,8 -8,4.415200233459473 -8,0 C-8,0 -8,0 -8,0 C-8,-4.415200233459473 -4.415200233459473,-8 0,-8 C0,-8 0,-8 0,-8 C4.415200233459473,-8 8,-4.415200233459473 8,0z"></path></g><g opacity="1" transform="matrix(1,0,0,1,59.66400146484375,38.67599868774414)"><path stroke-linecap="round" stroke-linejoin="round" fill-opacity="0" stroke="rgb(0,133,69)" stroke-opacity="1" stroke-width="1.953" d=" M9.567999839782715,-1.281999945640564 C7.335999965667725,-0.1770000010728836 5.586999893188477,1.8229999542236328 -0.25099998712539673,1.5369999408721924 C-6.90500020980835,1.2109999656677246 -9.163000106811523,-0.6759999990463257 -10.317999839782715,-1.2879999876022339"></path></g><g opacity="1" transform="matrix(1,0,0,1,58.611000061035156,63.573001861572266)"><path fill="rgb(17,128,195)" fill-opacity="1" d=" M21.659000396728516,3.989000082015991 C21.659000396728516,3.989000082015991 -21.66699981689453,3.9619998931884766 -21.66699981689453,3.9619998931884766 C-22.020000457763672,1.6490000486373901 -22.207000732421875,-0.9599999785423279 -22.267000198364258,-3.989000082015991 C-22.267000198364258,-3.989000082015991 22.267000198364258,-3.9600000381469727 22.267000198364258,-3.9600000381469727 C22.20400047302246,-0.9330000281333923 22.01300048828125,1.6759999990463257 21.659000396728516,3.989000082015991z"></path></g><g opacity="1" transform="matrix(1,0,0,1,32.952999114990234,55.24800109863281)"><path stroke-linecap="butt" stroke-linejoin="miter" fill-opacity="0" stroke-miterlimit="10" stroke="rgb(0,150,215)" stroke-opacity="1" stroke-width="9.765" d=" M8.541000366210938,-4.5 C1.6360000371932983,-5.078000068664551 -5.434000015258789,-1.1139999628067017 -8.541000366210938,5.078000068664551"></path></g><g opacity="1" transform="matrix(1,0,0,1,77.24400329589844,77.53600311279297)"><path fill="rgb(77,67,95)" fill-opacity="1" d=" M2.053999900817871,-5.376999855041504 C2.053999900817871,-5.376999855041504 -7.156000137329102,-4.6620001792907715 -13.838000297546387,3.51200008392334 C-13.838000297546387,3.51200008392334 8.916999816894531,5.376999855041504 11.376999855041504,4.738999843597412 C13.838000297546387,4.10099983215332 11.932000160217285,-0.28700000047683716 2.053999900817871,-5.376999855041504z"></path></g><g opacity="1" transform="matrix(1,0,0,1,39.95199966430664,77.50499725341797)"><path fill="rgb(77,67,95)" fill-opacity="1" d=" M-2.0420000553131104,-5.373000144958496 C-2.0420000553131104,-5.373000144958496 7.165999889373779,-4.645999908447266 13.83899974822998,3.5350000858306885 C13.83899974822998,3.5350000858306885 -8.920000076293945,5.372000217437744 -11.380000114440918,4.730999946594238 C-13.83899974822998,4.089000225067139 -11.927000045776367,-0.29600000381469727 -2.0420000553131104,-5.373000144958496z"></path></g><g opacity="1" transform="matrix(1,0,0,1,97.08300018310547,66.66500091552734)"><path fill="rgb(199,219,66)" fill-opacity="1" d=" M-7.261000156402588,-5.815999984741211 C-8.746000289916992,-4.063000202178955 -10.031000137329102,-1.3890000581741333 -9.909000396728516,0.972000002861023 C-9.659000396728516,5.816999912261963 -5.318999767303467,3.5989999771118164 -4.453999996185303,0.3140000104904175 C-3.750999927520752,2.9049999713897705 -2.253000020980835,5.275000095367432 -0.2150000035762787,7.020999908447266 C0.996999979019165,8.059000015258789 2.4570000171661377,8.89900016784668 4.047999858856201,9.01099967956543 C10.031000137329102,9.4350004196167 8.895999908447266,2.927999973297119 7.084000110626221,-0.45899999141693115 C5.188000202178955,-4.000999927520752 1.968999981880188,-7.6020002365112305 -1.6549999713897705,-9.435999870300293 C-1.6549999713897705,-9.435999870300293 -7.261000156402588,-5.815999984741211 -7.261000156402588,-5.815999984741211z"></path></g><g opacity="1" transform="matrix(1,0,0,1,84.2750015258789,55.28499984741211)"><path stroke-linecap="butt" stroke-linejoin="miter" fill-opacity="0" stroke-miterlimit="10" stroke="rgb(0,150,215)" stroke-opacity="1" stroke-width="9.765" d=" M-8.534000396728516,-4.514999866485596 C-1.628999948501587,-5.085000038146973 5.434999942779541,-1.1139999628067017 8.534000396728516,5.084000110626221"></path></g><g opacity="1" transform="matrix(1,0,0,1,69,52.92300033569336)"><path fill="rgb(250,175,58)" fill-opacity="1" d=" M-4.2779998779296875,-0.003000000026077032 C-4.276000022888184,-2.365000009536743 -2.359999895095825,-4.2789998054504395 0.0020000000949949026,-4.2779998779296875 C2.365999937057495,-4.276000022888184 4.28000020980835,-2.359999895095825 4.2779998779296875,0.0020000000949949026 C4.2769999504089355,2.365000009536743 2.359999895095825,4.2789998054504395 -0.003000000026077032,4.2769999504089355 C-2.365000009536743,4.276000022888184 -4.2789998054504395,2.3589999675750732 -4.2779998779296875,-0.003000000026077032z"></path></g><g opacity="1" transform="matrix(1,0,0,1,69,52.92300033569336)"><path stroke-linecap="round" stroke-linejoin="miter" fill-opacity="0" stroke-miterlimit="4" stroke="rgb(251,176,59)" stroke-opacity="1" stroke-width="2.5" d=" M-6,2.3269999027252197 C-6,2.3269999027252197 6.5,-1.6729999780654907 6.5,-1.6729999780654907"></path></g></g></g><g mask="url(#__lottie_element_2864)" style="display: block;"><g transform="matrix(0.3216533064842224,-0.08618674427270889,0.08618674427270889,0.3216533064842224,-8.67213249206543,53.8012580871582)" opacity="1"><g opacity="1" transform="matrix(1,0,0,1,58.61399841308594,56.387001037597656)"><path fill="rgb(0,150,215)" fill-opacity="1" d=" M-17.33099937438965,24.645000457763672 C-20.7810001373291,17.0310001373291 -22.312000274658203,11.994999885559082 -22.305999755859375,1.2059999704360962 C-22.297000885009766,-11.73900032043457 -12.303000450134277,-24.667999267578125 0.01600000075995922,-24.660999298095703 C12.333999633789062,-24.652999877929688 22.312999725341797,-11.710000038146973 22.304000854492188,1.2339999675750732 C22.297000885009766,12.02299976348877 20.760000228881836,17.058000564575195 17.301000595092773,24.667999267578125 C17.301000595092773,24.667999267578125 -17.33099937438965,24.645000457763672 -17.33099937438965,24.645000457763672z"></path></g><g opacity="1" transform="matrix(1,0,0,1,20.125999450683594,66.61199951171875)"><path fill="rgb(199,219,66)" fill-opacity="1" d=" M7.27400016784668,-5.802000045776367 C8.756999969482422,-4.046999931335449 10.038000106811523,-1.3700000047683716 9.913000106811523,0.9900000095367432 C9.656999588012695,5.835000038146973 5.320000171661377,3.6110000610351562 4.460000038146973,0.32499998807907104 C3.752000093460083,2.9149999618530273 2.253000020980835,5.2820000648498535 0.21199999749660492,7.026000022888184 C-1.0010000467300415,8.062000274658203 -2.4609999656677246,8.901000022888184 -4.052999973297119,9.01099967956543 C-10.038000106811523,9.428000450134277 -8.894000053405762,2.921999931335449 -7.077000141143799,-0.46299999952316284 C-5.177000045776367,-4.001999855041504 -1.9550000429153442,-7.598999977111816 1.6720000505447388,-9.428000450134277 C1.6720000505447388,-9.428000450134277 7.27400016784668,-5.802000045776367 7.27400016784668,-5.802000045776367z"></path></g><g opacity="1" transform="matrix(1,0,0,1,58.62200164794922,43.402000427246094)"><path stroke-linecap="round" stroke-linejoin="round" fill-opacity="0" stroke="rgb(77,67,95)" stroke-opacity="1" stroke-width="4.882" d=" M-18.461999893188477,-0.012000000104308128 C-18.461999893188477,-0.012000000104308128 18.461999893188477,0.012000000104308128 18.461999893188477,0.012000000104308128"></path></g><g opacity="1" transform="matrix(1,0,0,1,58.645999908447266,3.8399999141693115)"><path fill="rgb(199,219,66)" fill-opacity="1" d=" M-3.5889999866485596,-0.0020000000949949026 C-3.5880000591278076,-1.9839999675750732 -1.9800000190734863,-3.5899999141693115 0.0020000000949949026,-3.5889999866485596 C1.9839999675750732,-3.5880000591278076 3.5899999141693115,-1.9800000190734863 3.5889999866485596,0.0020000000949949026 C3.5880000591278076,1.9839999675750732 1.9789999723434448,3.5899999141693115 -0.0020000000949949026,3.5889999866485596 C-1.9850000143051147,3.5880000591278076 -3.5899999141693115,1.9789999723434448 -3.5889999866485596,-0.0020000000949949026z"></path></g><g opacity="1" transform="matrix(1,0,0,1,58.63399887084961,13.82800006866455)"><path fill="rgb(199,219,66)" fill-opacity="1" d=" M1.350000023841858,-9.98799991607666 C1.350000023841858,-9.98799991607666 2.430999994277954,9.989999771118164 2.430999994277954,9.989999771118164 C2.430999994277954,9.989999771118164 -2.430999994277954,9.987000465393066 -2.430999994277954,9.987000465393066 C-2.430999994277954,9.987000465393066 -1.3240000009536743,-9.989999771118164 -1.3240000009536743,-9.989999771118164 C-1.3240000009536743,-9.989999771118164 1.350000023841858,-9.98799991607666 1.350000023841858,-9.98799991607666z"></path></g><g opacity="1" transform="matrix(1,0,0,1,58.62900161743164,30.98200035095215)"><path fill="rgb(199,219,66)" fill-opacity="1" d=" M-22.974000930786133,-0.014999999664723873 C-22.969999313354492,-7.625999927520752 -12.680000305175781,-13.788999557495117 0.00800000037997961,-13.781999588012695 C12.696999549865723,-13.77400016784668 22.979000091552734,-7.5970001220703125 22.974000930786133,0.014000000432133675 C22.969999313354492,7.625999927520752 12.680000305175781,13.788999557495117 -0.00800000037997961,13.781000137329102 C-12.696999549865723,13.77299976348877 -22.979000091552734,7.5960001945495605 -22.974000930786133,-0.014999999664723873z"></path></g><g opacity="1" transform="matrix(1,0,0,1,35.74599838256836,28.51799964904785)"><path fill="rgb(199,219,66)" fill-opacity="1" d=" M-2.4130001068115234,-7.255000114440918 C-2.4130001068115234,-7.255000114440918 4.296000003814697,4.359000205993652 4.296000003814697,4.359000205993652 C4.7789998054504395,5.196000099182129 4.4019999504089355,6.341000080108643 3.563999891281128,6.583000183105469 C3.563999891281128,6.583000183105469 -2.2909998893737793,8.272000312805176 -2.2909998893737793,8.272000312805176 C-3.0369999408721924,8.48799991607666 -3.7699999809265137,7.868000030517578 -3.828000068664551,6.9720001220703125 C-3.828000068664551,6.9720001220703125 -4.684000015258789,-6.333000183105469 -4.684000015258789,-6.333000183105469 C-4.7789998054504395,-7.817999839782715 -3.127000093460083,-8.48900032043457 -2.4130001068115234,-7.255000114440918z"></path></g><g opacity="1" transform="matrix(1,0,0,1,81.51799774169922,28.552000045776367)"><path fill="rgb(199,219,66)" fill-opacity="1" d=" M2.4210000038146973,-7.25600004196167 C2.4210000038146973,-7.25600004196167 -4.302999973297119,4.349999904632568 -4.302999973297119,4.349999904632568 C-4.7870001792907715,5.185999870300293 -4.4120001792907715,6.329999923706055 -3.572999954223633,6.572999954223633 C-3.572999954223633,6.572999954223633 2.2780001163482666,8.270999908447266 2.2780001163482666,8.270999908447266 C3.0250000953674316,8.48799991607666 3.759000062942505,7.868000030517578 3.818000078201294,6.9730000495910645 C3.818000078201294,6.9730000495910645 4.690999984741211,-6.330999851226807 4.690999984741211,-6.330999851226807 C4.7870001792907715,-7.816999912261963 3.135999917984009,-8.48900032043457 2.4210000038146973,-7.25600004196167z"></path></g><g opacity="1" transform="matrix(0.31780722737312317,-0.1978483647108078,0.1978483647108078,0.31780722737312317,45.53300094604492,28.854000091552734)"><path fill="rgb(245,245,235)" fill-opacity="1" d=" M16.5,0 C16.5,0 16.5,0 16.5,0 C16.5,7.450650215148926 10.450650215148926,13.5 3,13.5 C3,13.5 -3,13.5 -3,13.5 C-10.450650215148926,13.5 -16.5,7.450650215148926 -16.5,0 C-16.5,0 -16.5,0 -16.5,0 C-16.5,-7.450650215148926 -10.450650215148926,-13.5 -3,-13.5 C-3,-13.5 3,-13.5 3,-13.5 C10.450650215148926,-13.5 16.5,-7.450650215148926 16.5,0z"></path></g><g opacity="1" transform="matrix(0.31780722737312317,-0.1978483647108078,0.1978483647108078,0.31780722737312317,46.03300094604492,30.104000091552734)"><path fill="rgb(77,67,95)" fill-opacity="1" d=" M8,0 C8,0 8,0 8,0 C8,4.415200233459473 4.415200233459473,8 0,8 C0,8 0,8 0,8 C-4.415200233459473,8 -8,4.415200233459473 -8,0 C-8,0 -8,0 -8,0 C-8,-4.415200233459473 -4.415200233459473,-8 0,-8 C0,-8 0,-8 0,-8 C4.415200233459473,-8 8,-4.415200233459473 8,0z"></path></g><g opacity="1" transform="matrix(0.3736388087272644,-0.023225853219628334,0.023225853219628334,0.3736388087272644,58.606998443603516,25.084999084472656)"><path fill="rgb(245,245,235)" fill-opacity="1" d=" M16.5,0 C16.5,0 16.5,0 16.5,0 C16.5,7.450650215148926 10.450650215148926,13.5 3,13.5 C3,13.5 -3,13.5 -3,13.5 C-10.450650215148926,13.5 -16.5,7.450650215148926 -16.5,0 C-16.5,0 -16.5,0 -16.5,0 C-16.5,-7.450650215148926 -10.450650215148926,-13.5 -3,-13.5 C-3,-13.5 3,-13.5 3,-13.5 C10.450650215148926,-13.5 16.5,-7.450650215148926 16.5,0z"></path></g><g opacity="1" transform="matrix(0.3736388087272644,-0.023225853219628334,0.023225853219628334,0.3736388087272644,58.606998443603516,26.084999084472656)"><path fill="rgb(77,67,95)" fill-opacity="1" d=" M8,0 C8,0 8,0 8,0 C8,4.415200233459473 4.415200233459473,8 0,8 C0,8 0,8 0,8 C-4.415200233459473,8 -8,4.415200233459473 -8,0 C-8,0 -8,0 -8,0 C-8,-4.415200233459473 -4.415200233459473,-8 0,-8 C0,-8 0,-8 0,-8 C4.415200233459473,-8 8,-4.415200233459473 8,0z"></path></g><g opacity="1" transform="matrix(0.33107247948646545,0.17474675178527832,-0.17474675178527832,0.33107247948646545,71.67500305175781,29.209999084472656)"><path fill="rgb(245,245,235)" fill-opacity="1" d=" M16.5,0 C16.5,0 16.5,0 16.5,0 C16.5,7.450650215148926 10.450650215148926,13.5 3,13.5 C3,13.5 -3,13.5 -3,13.5 C-10.450650215148926,13.5 -16.5,7.450650215148926 -16.5,0 C-16.5,0 -16.5,0 -16.5,0 C-16.5,-7.450650215148926 -10.450650215148926,-13.5 -3,-13.5 C-3,-13.5 3,-13.5 3,-13.5 C10.450650215148926,-13.5 16.5,-7.450650215148926 16.5,0z"></path></g><g opacity="1" transform="matrix(0.33107247948646545,0.17474675178527832,-0.17474675178527832,0.33107247948646545,71.17500305175781,29.959999084472656)"><path fill="rgb(77,67,95)" fill-opacity="1" d=" M8,0 C8,0 8,0 8,0 C8,4.415200233459473 4.415200233459473,8 0,8 C0,8 0,8 0,8 C-4.415200233459473,8 -8,4.415200233459473 -8,0 C-8,0 -8,0 -8,0 C-8,-4.415200233459473 -4.415200233459473,-8 0,-8 C0,-8 0,-8 0,-8 C4.415200233459473,-8 8,-4.415200233459473 8,0z"></path></g><g opacity="1" transform="matrix(1,0,0,1,59.66400146484375,38.67599868774414)"><path stroke-linecap="round" stroke-linejoin="round" fill-opacity="0" stroke="rgb(0,133,69)" stroke-opacity="1" stroke-width="1.953" d=" M9.567999839782715,-1.281999945640564 C7.335999965667725,-0.1770000010728836 5.586999893188477,1.8229999542236328 -0.25099998712539673,1.5369999408721924 C-6.90500020980835,1.2109999656677246 -9.163000106811523,-0.6759999990463257 -10.317999839782715,-1.2879999876022339"></path></g><g opacity="1" transform="matrix(1,0,0,1,58.611000061035156,63.573001861572266)"><path fill="rgb(17,128,195)" fill-opacity="1" d=" M21.659000396728516,3.989000082015991 C21.659000396728516,3.989000082015991 -21.66699981689453,3.9619998931884766 -21.66699981689453,3.9619998931884766 C-22.020000457763672,1.6490000486373901 -22.207000732421875,-0.9599999785423279 -22.267000198364258,-3.989000082015991 C-22.267000198364258,-3.989000082015991 22.267000198364258,-3.9600000381469727 22.267000198364258,-3.9600000381469727 C22.20400047302246,-0.9330000281333923 22.01300048828125,1.6759999990463257 21.659000396728516,3.989000082015991z"></path></g><g opacity="1" transform="matrix(1,0,0,1,32.952999114990234,55.24800109863281)"><path stroke-linecap="butt" stroke-linejoin="miter" fill-opacity="0" stroke-miterlimit="10" stroke="rgb(0,150,215)" stroke-opacity="1" stroke-width="9.765" d=" M8.541000366210938,-4.5 C1.6360000371932983,-5.078000068664551 -5.434000015258789,-1.1139999628067017 -8.541000366210938,5.078000068664551"></path></g><g opacity="1" transform="matrix(1,0,0,1,77.24400329589844,77.53600311279297)"><path fill="rgb(77,67,95)" fill-opacity="1" d=" M2.053999900817871,-5.376999855041504 C2.053999900817871,-5.376999855041504 -7.156000137329102,-4.6620001792907715 -13.838000297546387,3.51200008392334 C-13.838000297546387,3.51200008392334 8.916999816894531,5.376999855041504 11.376999855041504,4.738999843597412 C13.838000297546387,4.10099983215332 11.932000160217285,-0.28700000047683716 2.053999900817871,-5.376999855041504z"></path></g><g opacity="1" transform="matrix(1,0,0,1,39.95199966430664,77.50499725341797)"><path fill="rgb(77,67,95)" fill-opacity="1" d=" M-2.0420000553131104,-5.373000144958496 C-2.0420000553131104,-5.373000144958496 7.165999889373779,-4.645999908447266 13.83899974822998,3.5350000858306885 C13.83899974822998,3.5350000858306885 -8.920000076293945,5.372000217437744 -11.380000114440918,4.730999946594238 C-13.83899974822998,4.089000225067139 -11.927000045776367,-0.29600000381469727 -2.0420000553131104,-5.373000144958496z"></path></g><g opacity="1" transform="matrix(1,0,0,1,97.08300018310547,66.66500091552734)"><path fill="rgb(199,219,66)" fill-opacity="1" d=" M-7.261000156402588,-5.815999984741211 C-8.746000289916992,-4.063000202178955 -10.031000137329102,-1.3890000581741333 -9.909000396728516,0.972000002861023 C-9.659000396728516,5.816999912261963 -5.318999767303467,3.5989999771118164 -4.453999996185303,0.3140000104904175 C-3.750999927520752,2.9049999713897705 -2.253000020980835,5.275000095367432 -0.2150000035762787,7.020999908447266 C0.996999979019165,8.059000015258789 2.4570000171661377,8.89900016784668 4.047999858856201,9.01099967956543 C10.031000137329102,9.4350004196167 8.895999908447266,2.927999973297119 7.084000110626221,-0.45899999141693115 C5.188000202178955,-4.000999927520752 1.968999981880188,-7.6020002365112305 -1.6549999713897705,-9.435999870300293 C-1.6549999713897705,-9.435999870300293 -7.261000156402588,-5.815999984741211 -7.261000156402588,-5.815999984741211z"></path></g><g opacity="1" transform="matrix(1,0,0,1,84.2750015258789,55.28499984741211)"><path stroke-linecap="butt" stroke-linejoin="miter" fill-opacity="0" stroke-miterlimit="10" stroke="rgb(0,150,215)" stroke-opacity="1" stroke-width="9.765" d=" M-8.534000396728516,-4.514999866485596 C-1.628999948501587,-5.085000038146973 5.434999942779541,-1.1139999628067017 8.534000396728516,5.084000110626221"></path></g><g opacity="1" transform="matrix(1,0,0,1,69,52.92300033569336)"><path fill="rgb(250,175,58)" fill-opacity="1" d=" M-4.2779998779296875,-0.003000000026077032 C-4.276000022888184,-2.365000009536743 -2.359999895095825,-4.2789998054504395 0.0020000000949949026,-4.2779998779296875 C2.365999937057495,-4.276000022888184 4.28000020980835,-2.359999895095825 4.2779998779296875,0.0020000000949949026 C4.2769999504089355,2.365000009536743 2.359999895095825,4.2789998054504395 -0.003000000026077032,4.2769999504089355 C-2.365000009536743,4.276000022888184 -4.2789998054504395,2.3589999675750732 -4.2779998779296875,-0.003000000026077032z"></path></g><g opacity="1" transform="matrix(1,0,0,1,69,52.92300033569336)"><path stroke-linecap="round" stroke-linejoin="miter" fill-opacity="0" stroke-miterlimit="4" stroke="rgb(251,176,59)" stroke-opacity="1" stroke-width="2.5" d=" M-6,2.3269999027252197 C-6,2.3269999027252197 6.5,-1.6729999780654907 6.5,-1.6729999780654907"></path></g></g></g><g mask="url(#__lottie_element_2870)" style="display: block;"><g transform="matrix(0.32890021800994873,0.05209267511963844,-0.05209267511963844,0.32890021800994873,25.915868759155273,47.573734283447266)" opacity="1"><g opacity="1" transform="matrix(1,0,0,1,58.61399841308594,56.387001037597656)"><path fill="rgb(0,150,215)" fill-opacity="1" d=" M-17.33099937438965,24.645000457763672 C-20.7810001373291,17.0310001373291 -22.312000274658203,11.994999885559082 -22.305999755859375,1.2059999704360962 C-22.297000885009766,-11.73900032043457 -12.303000450134277,-24.667999267578125 0.01600000075995922,-24.660999298095703 C12.333999633789062,-24.652999877929688 22.312999725341797,-11.710000038146973 22.304000854492188,1.2339999675750732 C22.297000885009766,12.02299976348877 20.760000228881836,17.058000564575195 17.301000595092773,24.667999267578125 C17.301000595092773,24.667999267578125 -17.33099937438965,24.645000457763672 -17.33099937438965,24.645000457763672z"></path></g><g opacity="1" transform="matrix(1,0,0,1,20.125999450683594,66.61199951171875)"><path fill="rgb(199,219,66)" fill-opacity="1" d=" M7.27400016784668,-5.802000045776367 C8.756999969482422,-4.046999931335449 10.038000106811523,-1.3700000047683716 9.913000106811523,0.9900000095367432 C9.656999588012695,5.835000038146973 5.320000171661377,3.6110000610351562 4.460000038146973,0.32499998807907104 C3.752000093460083,2.9149999618530273 2.253000020980835,5.2820000648498535 0.21199999749660492,7.026000022888184 C-1.0010000467300415,8.062000274658203 -2.4609999656677246,8.901000022888184 -4.052999973297119,9.01099967956543 C-10.038000106811523,9.428000450134277 -8.894000053405762,2.921999931335449 -7.077000141143799,-0.46299999952316284 C-5.177000045776367,-4.001999855041504 -1.9550000429153442,-7.598999977111816 1.6720000505447388,-9.428000450134277 C1.6720000505447388,-9.428000450134277 7.27400016784668,-5.802000045776367 7.27400016784668,-5.802000045776367z"></path></g><g opacity="1" transform="matrix(1,0,0,1,58.62200164794922,43.402000427246094)"><path stroke-linecap="round" stroke-linejoin="round" fill-opacity="0" stroke="rgb(77,67,95)" stroke-opacity="1" stroke-width="4.882" d=" M-18.461999893188477,-0.012000000104308128 C-18.461999893188477,-0.012000000104308128 18.461999893188477,0.012000000104308128 18.461999893188477,0.012000000104308128"></path></g><g opacity="1" transform="matrix(1,0,0,1,58.645999908447266,3.8399999141693115)"><path fill="rgb(199,219,66)" fill-opacity="1" d=" M-3.5889999866485596,-0.0020000000949949026 C-3.5880000591278076,-1.9839999675750732 -1.9800000190734863,-3.5899999141693115 0.0020000000949949026,-3.5889999866485596 C1.9839999675750732,-3.5880000591278076 3.5899999141693115,-1.9800000190734863 3.5889999866485596,0.0020000000949949026 C3.5880000591278076,1.9839999675750732 1.9789999723434448,3.5899999141693115 -0.0020000000949949026,3.5889999866485596 C-1.9850000143051147,3.5880000591278076 -3.5899999141693115,1.9789999723434448 -3.5889999866485596,-0.0020000000949949026z"></path></g><g opacity="1" transform="matrix(1,0,0,1,58.63399887084961,13.82800006866455)"><path fill="rgb(199,219,66)" fill-opacity="1" d=" M1.350000023841858,-9.98799991607666 C1.350000023841858,-9.98799991607666 2.430999994277954,9.989999771118164 2.430999994277954,9.989999771118164 C2.430999994277954,9.989999771118164 -2.430999994277954,9.987000465393066 -2.430999994277954,9.987000465393066 C-2.430999994277954,9.987000465393066 -1.3240000009536743,-9.989999771118164 -1.3240000009536743,-9.989999771118164 C-1.3240000009536743,-9.989999771118164 1.350000023841858,-9.98799991607666 1.350000023841858,-9.98799991607666z"></path></g><g opacity="1" transform="matrix(1,0,0,1,58.62900161743164,30.98200035095215)"><path fill="rgb(199,219,66)" fill-opacity="1" d=" M-22.974000930786133,-0.014999999664723873 C-22.969999313354492,-7.625999927520752 -12.680000305175781,-13.788999557495117 0.00800000037997961,-13.781999588012695 C12.696999549865723,-13.77400016784668 22.979000091552734,-7.5970001220703125 22.974000930786133,0.014000000432133675 C22.969999313354492,7.625999927520752 12.680000305175781,13.788999557495117 -0.00800000037997961,13.781000137329102 C-12.696999549865723,13.77299976348877 -22.979000091552734,7.5960001945495605 -22.974000930786133,-0.014999999664723873z"></path></g><g opacity="1" transform="matrix(1,0,0,1,35.74599838256836,28.51799964904785)"><path fill="rgb(199,219,66)" fill-opacity="1" d=" M-2.4130001068115234,-7.255000114440918 C-2.4130001068115234,-7.255000114440918 4.296000003814697,4.359000205993652 4.296000003814697,4.359000205993652 C4.7789998054504395,5.196000099182129 4.4019999504089355,6.341000080108643 3.563999891281128,6.583000183105469 C3.563999891281128,6.583000183105469 -2.2909998893737793,8.272000312805176 -2.2909998893737793,8.272000312805176 C-3.0369999408721924,8.48799991607666 -3.7699999809265137,7.868000030517578 -3.828000068664551,6.9720001220703125 C-3.828000068664551,6.9720001220703125 -4.684000015258789,-6.333000183105469 -4.684000015258789,-6.333000183105469 C-4.7789998054504395,-7.817999839782715 -3.127000093460083,-8.48900032043457 -2.4130001068115234,-7.255000114440918z"></path></g><g opacity="1" transform="matrix(1,0,0,1,81.51799774169922,28.552000045776367)"><path fill="rgb(199,219,66)" fill-opacity="1" d=" M2.4210000038146973,-7.25600004196167 C2.4210000038146973,-7.25600004196167 -4.302999973297119,4.349999904632568 -4.302999973297119,4.349999904632568 C-4.7870001792907715,5.185999870300293 -4.4120001792907715,6.329999923706055 -3.572999954223633,6.572999954223633 C-3.572999954223633,6.572999954223633 2.2780001163482666,8.270999908447266 2.2780001163482666,8.270999908447266 C3.0250000953674316,8.48799991607666 3.759000062942505,7.868000030517578 3.818000078201294,6.9730000495910645 C3.818000078201294,6.9730000495910645 4.690999984741211,-6.330999851226807 4.690999984741211,-6.330999851226807 C4.7870001792907715,-7.816999912261963 3.135999917984009,-8.48900032043457 2.4210000038146973,-7.25600004196167z"></path></g><g opacity="1" transform="matrix(0.31780722737312317,-0.1978483647108078,0.1978483647108078,0.31780722737312317,45.53300094604492,28.854000091552734)"><path fill="rgb(245,245,235)" fill-opacity="1" d=" M16.5,0 C16.5,0 16.5,0 16.5,0 C16.5,7.450650215148926 10.450650215148926,13.5 3,13.5 C3,13.5 -3,13.5 -3,13.5 C-10.450650215148926,13.5 -16.5,7.450650215148926 -16.5,0 C-16.5,0 -16.5,0 -16.5,0 C-16.5,-7.450650215148926 -10.450650215148926,-13.5 -3,-13.5 C-3,-13.5 3,-13.5 3,-13.5 C10.450650215148926,-13.5 16.5,-7.450650215148926 16.5,0z"></path></g><g opacity="1" transform="matrix(0.31780722737312317,-0.1978483647108078,0.1978483647108078,0.31780722737312317,46.03300094604492,30.104000091552734)"><path fill="rgb(77,67,95)" fill-opacity="1" d=" M8,0 C8,0 8,0 8,0 C8,4.415200233459473 4.415200233459473,8 0,8 C0,8 0,8 0,8 C-4.415200233459473,8 -8,4.415200233459473 -8,0 C-8,0 -8,0 -8,0 C-8,-4.415200233459473 -4.415200233459473,-8 0,-8 C0,-8 0,-8 0,-8 C4.415200233459473,-8 8,-4.415200233459473 8,0z"></path></g><g opacity="1" transform="matrix(0.3736388087272644,-0.023225853219628334,0.023225853219628334,0.3736388087272644,58.606998443603516,25.084999084472656)"><path fill="rgb(245,245,235)" fill-opacity="1" d=" M16.5,0 C16.5,0 16.5,0 16.5,0 C16.5,7.450650215148926 10.450650215148926,13.5 3,13.5 C3,13.5 -3,13.5 -3,13.5 C-10.450650215148926,13.5 -16.5,7.450650215148926 -16.5,0 C-16.5,0 -16.5,0 -16.5,0 C-16.5,-7.450650215148926 -10.450650215148926,-13.5 -3,-13.5 C-3,-13.5 3,-13.5 3,-13.5 C10.450650215148926,-13.5 16.5,-7.450650215148926 16.5,0z"></path></g><g opacity="1" transform="matrix(0.3736388087272644,-0.023225853219628334,0.023225853219628334,0.3736388087272644,58.606998443603516,26.084999084472656)"><path fill="rgb(77,67,95)" fill-opacity="1" d=" M8,0 C8,0 8,0 8,0 C8,4.415200233459473 4.415200233459473,8 0,8 C0,8 0,8 0,8 C-4.415200233459473,8 -8,4.415200233459473 -8,0 C-8,0 -8,0 -8,0 C-8,-4.415200233459473 -4.415200233459473,-8 0,-8 C0,-8 0,-8 0,-8 C4.415200233459473,-8 8,-4.415200233459473 8,0z"></path></g><g opacity="1" transform="matrix(0.33107247948646545,0.17474675178527832,-0.17474675178527832,0.33107247948646545,71.67500305175781,29.209999084472656)"><path fill="rgb(245,245,235)" fill-opacity="1" d=" M16.5,0 C16.5,0 16.5,0 16.5,0 C16.5,7.450650215148926 10.450650215148926,13.5 3,13.5 C3,13.5 -3,13.5 -3,13.5 C-10.450650215148926,13.5 -16.5,7.450650215148926 -16.5,0 C-16.5,0 -16.5,0 -16.5,0 C-16.5,-7.450650215148926 -10.450650215148926,-13.5 -3,-13.5 C-3,-13.5 3,-13.5 3,-13.5 C10.450650215148926,-13.5 16.5,-7.450650215148926 16.5,0z"></path></g><g opacity="1" transform="matrix(0.33107247948646545,0.17474675178527832,-0.17474675178527832,0.33107247948646545,71.17500305175781,29.959999084472656)"><path fill="rgb(77,67,95)" fill-opacity="1" d=" M8,0 C8,0 8,0 8,0 C8,4.415200233459473 4.415200233459473,8 0,8 C0,8 0,8 0,8 C-4.415200233459473,8 -8,4.415200233459473 -8,0 C-8,0 -8,0 -8,0 C-8,-4.415200233459473 -4.415200233459473,-8 0,-8 C0,-8 0,-8 0,-8 C4.415200233459473,-8 8,-4.415200233459473 8,0z"></path></g><g opacity="1" transform="matrix(1,0,0,1,59.66400146484375,38.67599868774414)"><path stroke-linecap="round" stroke-linejoin="round" fill-opacity="0" stroke="rgb(0,133,69)" stroke-opacity="1" stroke-width="1.953" d=" M9.567999839782715,-1.281999945640564 C7.335999965667725,-0.1770000010728836 5.586999893188477,1.8229999542236328 -0.25099998712539673,1.5369999408721924 C-6.90500020980835,1.2109999656677246 -9.163000106811523,-0.6759999990463257 -10.317999839782715,-1.2879999876022339"></path></g><g opacity="1" transform="matrix(1,0,0,1,58.611000061035156,63.573001861572266)"><path fill="rgb(17,128,195)" fill-opacity="1" d=" M21.659000396728516,3.989000082015991 C21.659000396728516,3.989000082015991 -21.66699981689453,3.9619998931884766 -21.66699981689453,3.9619998931884766 C-22.020000457763672,1.6490000486373901 -22.207000732421875,-0.9599999785423279 -22.267000198364258,-3.989000082015991 C-22.267000198364258,-3.989000082015991 22.267000198364258,-3.9600000381469727 22.267000198364258,-3.9600000381469727 C22.20400047302246,-0.9330000281333923 22.01300048828125,1.6759999990463257 21.659000396728516,3.989000082015991z"></path></g><g opacity="1" transform="matrix(1,0,0,1,32.952999114990234,55.24800109863281)"><path stroke-linecap="butt" stroke-linejoin="miter" fill-opacity="0" stroke-miterlimit="10" stroke="rgb(0,150,215)" stroke-opacity="1" stroke-width="9.765" d=" M8.541000366210938,-4.5 C1.6360000371932983,-5.078000068664551 -5.434000015258789,-1.1139999628067017 -8.541000366210938,5.078000068664551"></path></g><g opacity="1" transform="matrix(1,0,0,1,77.24400329589844,77.53600311279297)"><path fill="rgb(77,67,95)" fill-opacity="1" d=" M2.053999900817871,-5.376999855041504 C2.053999900817871,-5.376999855041504 -7.156000137329102,-4.6620001792907715 -13.838000297546387,3.51200008392334 C-13.838000297546387,3.51200008392334 8.916999816894531,5.376999855041504 11.376999855041504,4.738999843597412 C13.838000297546387,4.10099983215332 11.932000160217285,-0.28700000047683716 2.053999900817871,-5.376999855041504z"></path></g><g opacity="1" transform="matrix(1,0,0,1,39.95199966430664,77.50499725341797)"><path fill="rgb(77,67,95)" fill-opacity="1" d=" M-2.0420000553131104,-5.373000144958496 C-2.0420000553131104,-5.373000144958496 7.165999889373779,-4.645999908447266 13.83899974822998,3.5350000858306885 C13.83899974822998,3.5350000858306885 -8.920000076293945,5.372000217437744 -11.380000114440918,4.730999946594238 C-13.83899974822998,4.089000225067139 -11.927000045776367,-0.29600000381469727 -2.0420000553131104,-5.373000144958496z"></path></g><g opacity="1" transform="matrix(1,0,0,1,97.08300018310547,66.66500091552734)"><path fill="rgb(199,219,66)" fill-opacity="1" d=" M-7.261000156402588,-5.815999984741211 C-8.746000289916992,-4.063000202178955 -10.031000137329102,-1.3890000581741333 -9.909000396728516,0.972000002861023 C-9.659000396728516,5.816999912261963 -5.318999767303467,3.5989999771118164 -4.453999996185303,0.3140000104904175 C-3.750999927520752,2.9049999713897705 -2.253000020980835,5.275000095367432 -0.2150000035762787,7.020999908447266 C0.996999979019165,8.059000015258789 2.4570000171661377,8.89900016784668 4.047999858856201,9.01099967956543 C10.031000137329102,9.4350004196167 8.895999908447266,2.927999973297119 7.084000110626221,-0.45899999141693115 C5.188000202178955,-4.000999927520752 1.968999981880188,-7.6020002365112305 -1.6549999713897705,-9.435999870300293 C-1.6549999713897705,-9.435999870300293 -7.261000156402588,-5.815999984741211 -7.261000156402588,-5.815999984741211z"></path></g><g opacity="1" transform="matrix(1,0,0,1,84.2750015258789,55.28499984741211)"><path stroke-linecap="butt" stroke-linejoin="miter" fill-opacity="0" stroke-miterlimit="10" stroke="rgb(0,150,215)" stroke-opacity="1" stroke-width="9.765" d=" M-8.534000396728516,-4.514999866485596 C-1.628999948501587,-5.085000038146973 5.434999942779541,-1.1139999628067017 8.534000396728516,5.084000110626221"></path></g><g opacity="1" transform="matrix(1,0,0,1,69,52.92300033569336)"><path fill="rgb(250,175,58)" fill-opacity="1" d=" M-4.2779998779296875,-0.003000000026077032 C-4.276000022888184,-2.365000009536743 -2.359999895095825,-4.2789998054504395 0.0020000000949949026,-4.2779998779296875 C2.365999937057495,-4.276000022888184 4.28000020980835,-2.359999895095825 4.2779998779296875,0.0020000000949949026 C4.2769999504089355,2.365000009536743 2.359999895095825,4.2789998054504395 -0.003000000026077032,4.2769999504089355 C-2.365000009536743,4.276000022888184 -4.2789998054504395,2.3589999675750732 -4.2779998779296875,-0.003000000026077032z"></path></g><g opacity="1" transform="matrix(1,0,0,1,69,52.92300033569336)"><path stroke-linecap="round" stroke-linejoin="miter" fill-opacity="0" stroke-miterlimit="4" stroke="rgb(251,176,59)" stroke-opacity="1" stroke-width="2.5" d=" M-6,2.3269999027252197 C-6,2.3269999027252197 6.5,-1.6729999780654907 6.5,-1.6729999780654907"></path></g></g></g><g mask="url(#__lottie_element_2876)" style="display: block;"><g transform="matrix(0.318449467420578,0.09735977649688721,-0.09735977649688721,0.318449467420578,12.209259033203125,49.9459342956543)" opacity="1"><g opacity="1" transform="matrix(1,0,0,1,58.61399841308594,56.387001037597656)"><path fill="rgb(0,150,215)" fill-opacity="1" d=" M-17.33099937438965,24.645000457763672 C-20.7810001373291,17.0310001373291 -22.312000274658203,11.994999885559082 -22.305999755859375,1.2059999704360962 C-22.297000885009766,-11.73900032043457 -12.303000450134277,-24.667999267578125 0.01600000075995922,-24.660999298095703 C12.333999633789062,-24.652999877929688 22.312999725341797,-11.710000038146973 22.304000854492188,1.2339999675750732 C22.297000885009766,12.02299976348877 20.760000228881836,17.058000564575195 17.301000595092773,24.667999267578125 C17.301000595092773,24.667999267578125 -17.33099937438965,24.645000457763672 -17.33099937438965,24.645000457763672z"></path></g><g opacity="1" transform="matrix(1,0,0,1,20.125999450683594,66.61199951171875)"><path fill="rgb(199,219,66)" fill-opacity="1" d=" M7.27400016784668,-5.802000045776367 C8.756999969482422,-4.046999931335449 10.038000106811523,-1.3700000047683716 9.913000106811523,0.9900000095367432 C9.656999588012695,5.835000038146973 5.320000171661377,3.6110000610351562 4.460000038146973,0.32499998807907104 C3.752000093460083,2.9149999618530273 2.253000020980835,5.2820000648498535 0.21199999749660492,7.026000022888184 C-1.0010000467300415,8.062000274658203 -2.4609999656677246,8.901000022888184 -4.052999973297119,9.01099967956543 C-10.038000106811523,9.428000450134277 -8.894000053405762,2.921999931335449 -7.077000141143799,-0.46299999952316284 C-5.177000045776367,-4.001999855041504 -1.9550000429153442,-7.598999977111816 1.6720000505447388,-9.428000450134277 C1.6720000505447388,-9.428000450134277 7.27400016784668,-5.802000045776367 7.27400016784668,-5.802000045776367z"></path></g><g opacity="1" transform="matrix(1,0,0,1,58.62200164794922,43.402000427246094)"><path stroke-linecap="round" stroke-linejoin="round" fill-opacity="0" stroke="rgb(77,67,95)" stroke-opacity="1" stroke-width="4.882" d=" M-18.461999893188477,-0.012000000104308128 C-18.461999893188477,-0.012000000104308128 18.461999893188477,0.012000000104308128 18.461999893188477,0.012000000104308128"></path></g><g opacity="1" transform="matrix(1,0,0,1,58.645999908447266,3.8399999141693115)"><path fill="rgb(199,219,66)" fill-opacity="1" d=" M-3.5889999866485596,-0.0020000000949949026 C-3.5880000591278076,-1.9839999675750732 -1.9800000190734863,-3.5899999141693115 0.0020000000949949026,-3.5889999866485596 C1.9839999675750732,-3.5880000591278076 3.5899999141693115,-1.9800000190734863 3.5889999866485596,0.0020000000949949026 C3.5880000591278076,1.9839999675750732 1.9789999723434448,3.5899999141693115 -0.0020000000949949026,3.5889999866485596 C-1.9850000143051147,3.5880000591278076 -3.5899999141693115,1.9789999723434448 -3.5889999866485596,-0.0020000000949949026z"></path></g><g opacity="1" transform="matrix(1,0,0,1,58.63399887084961,13.82800006866455)"><path fill="rgb(199,219,66)" fill-opacity="1" d=" M1.350000023841858,-9.98799991607666 C1.350000023841858,-9.98799991607666 2.430999994277954,9.989999771118164 2.430999994277954,9.989999771118164 C2.430999994277954,9.989999771118164 -2.430999994277954,9.987000465393066 -2.430999994277954,9.987000465393066 C-2.430999994277954,9.987000465393066 -1.3240000009536743,-9.989999771118164 -1.3240000009536743,-9.989999771118164 C-1.3240000009536743,-9.989999771118164 1.350000023841858,-9.98799991607666 1.350000023841858,-9.98799991607666z"></path></g><g opacity="1" transform="matrix(1,0,0,1,58.62900161743164,30.98200035095215)"><path fill="rgb(199,219,66)" fill-opacity="1" d=" M-22.974000930786133,-0.014999999664723873 C-22.969999313354492,-7.625999927520752 -12.680000305175781,-13.788999557495117 0.00800000037997961,-13.781999588012695 C12.696999549865723,-13.77400016784668 22.979000091552734,-7.5970001220703125 22.974000930786133,0.014000000432133675 C22.969999313354492,7.625999927520752 12.680000305175781,13.788999557495117 -0.00800000037997961,13.781000137329102 C-12.696999549865723,13.77299976348877 -22.979000091552734,7.5960001945495605 -22.974000930786133,-0.014999999664723873z"></path></g><g opacity="1" transform="matrix(1,0,0,1,35.74599838256836,28.51799964904785)"><path fill="rgb(199,219,66)" fill-opacity="1" d=" M-2.4130001068115234,-7.255000114440918 C-2.4130001068115234,-7.255000114440918 4.296000003814697,4.359000205993652 4.296000003814697,4.359000205993652 C4.7789998054504395,5.196000099182129 4.4019999504089355,6.341000080108643 3.563999891281128,6.583000183105469 C3.563999891281128,6.583000183105469 -2.2909998893737793,8.272000312805176 -2.2909998893737793,8.272000312805176 C-3.0369999408721924,8.48799991607666 -3.7699999809265137,7.868000030517578 -3.828000068664551,6.9720001220703125 C-3.828000068664551,6.9720001220703125 -4.684000015258789,-6.333000183105469 -4.684000015258789,-6.333000183105469 C-4.7789998054504395,-7.817999839782715 -3.127000093460083,-8.48900032043457 -2.4130001068115234,-7.255000114440918z"></path></g><g opacity="1" transform="matrix(1,0,0,1,81.51799774169922,28.552000045776367)"><path fill="rgb(199,219,66)" fill-opacity="1" d=" M2.4210000038146973,-7.25600004196167 C2.4210000038146973,-7.25600004196167 -4.302999973297119,4.349999904632568 -4.302999973297119,4.349999904632568 C-4.7870001792907715,5.185999870300293 -4.4120001792907715,6.329999923706055 -3.572999954223633,6.572999954223633 C-3.572999954223633,6.572999954223633 2.2780001163482666,8.270999908447266 2.2780001163482666,8.270999908447266 C3.0250000953674316,8.48799991607666 3.759000062942505,7.868000030517578 3.818000078201294,6.9730000495910645 C3.818000078201294,6.9730000495910645 4.690999984741211,-6.330999851226807 4.690999984741211,-6.330999851226807 C4.7870001792907715,-7.816999912261963 3.135999917984009,-8.48900032043457 2.4210000038146973,-7.25600004196167z"></path></g><g opacity="1" transform="matrix(0.31780722737312317,-0.1978483647108078,0.1978483647108078,0.31780722737312317,45.53300094604492,28.854000091552734)"><path fill="rgb(245,245,235)" fill-opacity="1" d=" M16.5,0 C16.5,0 16.5,0 16.5,0 C16.5,7.450650215148926 10.450650215148926,13.5 3,13.5 C3,13.5 -3,13.5 -3,13.5 C-10.450650215148926,13.5 -16.5,7.450650215148926 -16.5,0 C-16.5,0 -16.5,0 -16.5,0 C-16.5,-7.450650215148926 -10.450650215148926,-13.5 -3,-13.5 C-3,-13.5 3,-13.5 3,-13.5 C10.450650215148926,-13.5 16.5,-7.450650215148926 16.5,0z"></path></g><g opacity="1" transform="matrix(0.31780722737312317,-0.1978483647108078,0.1978483647108078,0.31780722737312317,46.03300094604492,30.104000091552734)"><path fill="rgb(77,67,95)" fill-opacity="1" d=" M8,0 C8,0 8,0 8,0 C8,4.415200233459473 4.415200233459473,8 0,8 C0,8 0,8 0,8 C-4.415200233459473,8 -8,4.415200233459473 -8,0 C-8,0 -8,0 -8,0 C-8,-4.415200233459473 -4.415200233459473,-8 0,-8 C0,-8 0,-8 0,-8 C4.415200233459473,-8 8,-4.415200233459473 8,0z"></path></g><g opacity="1" transform="matrix(0.3736388087272644,-0.023225853219628334,0.023225853219628334,0.3736388087272644,58.606998443603516,25.084999084472656)"><path fill="rgb(245,245,235)" fill-opacity="1" d=" M16.5,0 C16.5,0 16.5,0 16.5,0 C16.5,7.450650215148926 10.450650215148926,13.5 3,13.5 C3,13.5 -3,13.5 -3,13.5 C-10.450650215148926,13.5 -16.5,7.450650215148926 -16.5,0 C-16.5,0 -16.5,0 -16.5,0 C-16.5,-7.450650215148926 -10.450650215148926,-13.5 -3,-13.5 C-3,-13.5 3,-13.5 3,-13.5 C10.450650215148926,-13.5 16.5,-7.450650215148926 16.5,0z"></path></g><g opacity="1" transform="matrix(0.3736388087272644,-0.023225853219628334,0.023225853219628334,0.3736388087272644,58.606998443603516,26.084999084472656)"><path fill="rgb(77,67,95)" fill-opacity="1" d=" M8,0 C8,0 8,0 8,0 C8,4.415200233459473 4.415200233459473,8 0,8 C0,8 0,8 0,8 C-4.415200233459473,8 -8,4.415200233459473 -8,0 C-8,0 -8,0 -8,0 C-8,-4.415200233459473 -4.415200233459473,-8 0,-8 C0,-8 0,-8 0,-8 C4.415200233459473,-8 8,-4.415200233459473 8,0z"></path></g><g opacity="1" transform="matrix(0.33107247948646545,0.17474675178527832,-0.17474675178527832,0.33107247948646545,71.67500305175781,29.209999084472656)"><path fill="rgb(245,245,235)" fill-opacity="1" d=" M16.5,0 C16.5,0 16.5,0 16.5,0 C16.5,7.450650215148926 10.450650215148926,13.5 3,13.5 C3,13.5 -3,13.5 -3,13.5 C-10.450650215148926,13.5 -16.5,7.450650215148926 -16.5,0 C-16.5,0 -16.5,0 -16.5,0 C-16.5,-7.450650215148926 -10.450650215148926,-13.5 -3,-13.5 C-3,-13.5 3,-13.5 3,-13.5 C10.450650215148926,-13.5 16.5,-7.450650215148926 16.5,0z"></path></g><g opacity="1" transform="matrix(0.33107247948646545,0.17474675178527832,-0.17474675178527832,0.33107247948646545,71.17500305175781,29.959999084472656)"><path fill="rgb(77,67,95)" fill-opacity="1" d=" M8,0 C8,0 8,0 8,0 C8,4.415200233459473 4.415200233459473,8 0,8 C0,8 0,8 0,8 C-4.415200233459473,8 -8,4.415200233459473 -8,0 C-8,0 -8,0 -8,0 C-8,-4.415200233459473 -4.415200233459473,-8 0,-8 C0,-8 0,-8 0,-8 C4.415200233459473,-8 8,-4.415200233459473 8,0z"></path></g><g opacity="1" transform="matrix(1,0,0,1,59.66400146484375,38.67599868774414)"><path stroke-linecap="round" stroke-linejoin="round" fill-opacity="0" stroke="rgb(0,133,69)" stroke-opacity="1" stroke-width="1.953" d=" M9.567999839782715,-1.281999945640564 C7.335999965667725,-0.1770000010728836 5.586999893188477,1.8229999542236328 -0.25099998712539673,1.5369999408721924 C-6.90500020980835,1.2109999656677246 -9.163000106811523,-0.6759999990463257 -10.317999839782715,-1.2879999876022339"></path></g><g opacity="1" transform="matrix(1,0,0,1,58.611000061035156,63.573001861572266)"><path fill="rgb(17,128,195)" fill-opacity="1" d=" M21.659000396728516,3.989000082015991 C21.659000396728516,3.989000082015991 -21.66699981689453,3.9619998931884766 -21.66699981689453,3.9619998931884766 C-22.020000457763672,1.6490000486373901 -22.207000732421875,-0.9599999785423279 -22.267000198364258,-3.989000082015991 C-22.267000198364258,-3.989000082015991 22.267000198364258,-3.9600000381469727 22.267000198364258,-3.9600000381469727 C22.20400047302246,-0.9330000281333923 22.01300048828125,1.6759999990463257 21.659000396728516,3.989000082015991z"></path></g><g opacity="1" transform="matrix(1,0,0,1,32.952999114990234,55.24800109863281)"><path stroke-linecap="butt" stroke-linejoin="miter" fill-opacity="0" stroke-miterlimit="10" stroke="rgb(0,150,215)" stroke-opacity="1" stroke-width="9.765" d=" M8.541000366210938,-4.5 C1.6360000371932983,-5.078000068664551 -5.434000015258789,-1.1139999628067017 -8.541000366210938,5.078000068664551"></path></g><g opacity="1" transform="matrix(1,0,0,1,77.24400329589844,77.53600311279297)"><path fill="rgb(77,67,95)" fill-opacity="1" d=" M2.053999900817871,-5.376999855041504 C2.053999900817871,-5.376999855041504 -7.156000137329102,-4.6620001792907715 -13.838000297546387,3.51200008392334 C-13.838000297546387,3.51200008392334 8.916999816894531,5.376999855041504 11.376999855041504,4.738999843597412 C13.838000297546387,4.10099983215332 11.932000160217285,-0.28700000047683716 2.053999900817871,-5.376999855041504z"></path></g><g opacity="1" transform="matrix(1,0,0,1,39.95199966430664,77.50499725341797)"><path fill="rgb(77,67,95)" fill-opacity="1" d=" M-2.0420000553131104,-5.373000144958496 C-2.0420000553131104,-5.373000144958496 7.165999889373779,-4.645999908447266 13.83899974822998,3.5350000858306885 C13.83899974822998,3.5350000858306885 -8.920000076293945,5.372000217437744 -11.380000114440918,4.730999946594238 C-13.83899974822998,4.089000225067139 -11.927000045776367,-0.29600000381469727 -2.0420000553131104,-5.373000144958496z"></path></g><g opacity="1" transform="matrix(1,0,0,1,97.08300018310547,66.66500091552734)"><path fill="rgb(199,219,66)" fill-opacity="1" d=" M-7.261000156402588,-5.815999984741211 C-8.746000289916992,-4.063000202178955 -10.031000137329102,-1.3890000581741333 -9.909000396728516,0.972000002861023 C-9.659000396728516,5.816999912261963 -5.318999767303467,3.5989999771118164 -4.453999996185303,0.3140000104904175 C-3.750999927520752,2.9049999713897705 -2.253000020980835,5.275000095367432 -0.2150000035762787,7.020999908447266 C0.996999979019165,8.059000015258789 2.4570000171661377,8.89900016784668 4.047999858856201,9.01099967956543 C10.031000137329102,9.4350004196167 8.895999908447266,2.927999973297119 7.084000110626221,-0.45899999141693115 C5.188000202178955,-4.000999927520752 1.968999981880188,-7.6020002365112305 -1.6549999713897705,-9.435999870300293 C-1.6549999713897705,-9.435999870300293 -7.261000156402588,-5.815999984741211 -7.261000156402588,-5.815999984741211z"></path></g><g opacity="1" transform="matrix(1,0,0,1,84.2750015258789,55.28499984741211)"><path stroke-linecap="butt" stroke-linejoin="miter" fill-opacity="0" stroke-miterlimit="10" stroke="rgb(0,150,215)" stroke-opacity="1" stroke-width="9.765" d=" M-8.534000396728516,-4.514999866485596 C-1.628999948501587,-5.085000038146973 5.434999942779541,-1.1139999628067017 8.534000396728516,5.084000110626221"></path></g><g opacity="1" transform="matrix(1,0,0,1,69,52.92300033569336)"><path fill="rgb(250,175,58)" fill-opacity="1" d=" M-4.2779998779296875,-0.003000000026077032 C-4.276000022888184,-2.365000009536743 -2.359999895095825,-4.2789998054504395 0.0020000000949949026,-4.2779998779296875 C2.365999937057495,-4.276000022888184 4.28000020980835,-2.359999895095825 4.2779998779296875,0.0020000000949949026 C4.2769999504089355,2.365000009536743 2.359999895095825,4.2789998054504395 -0.003000000026077032,4.2769999504089355 C-2.365000009536743,4.276000022888184 -4.2789998054504395,2.3589999675750732 -4.2779998779296875,-0.003000000026077032z"></path></g><g opacity="1" transform="matrix(1,0,0,1,69,52.92300033569336)"><path stroke-linecap="round" stroke-linejoin="miter" fill-opacity="0" stroke-miterlimit="4" stroke="rgb(251,176,59)" stroke-opacity="1" stroke-width="2.5" d=" M-6,2.3269999027252197 C-6,2.3269999027252197 6.5,-1.6729999780654907 6.5,-1.6729999780654907"></path></g></g></g><g transform="matrix(0.3330000042915344,0,0,0.3330000042915344,-22.909704208374023,0.2418004870414734)" opacity="1" style="display: block;"><g opacity="1" transform="matrix(1,0,0,1,156.39700317382812,237.45799255371094)"><path fill="rgb(186,202,222)" fill-opacity="1" d=" M-68.33899688720703,-18.371000289916992 C-68.33899688720703,-18.371000289916992 -85.41500091552734,18.371000289916992 -85.41500091552734,18.371000289916992 C-85.41500091552734,18.371000289916992 85.41500091552734,18.371000289916992 85.41500091552734,18.371000289916992 C85.41500091552734,18.371000289916992 69.62699890136719,-18.371000289916992 69.62699890136719,-18.371000289916992 C69.62699890136719,-18.371000289916992 -68.33899688720703,-18.371000289916992 -68.33899688720703,-18.371000289916992z"></path></g><g opacity="1" transform="matrix(1,0,0,1,156.39700317382812,250.91600036621094)"><path fill="rgb(217,28,92)" fill-opacity="1" d=" M-80.8489990234375,-4.913000106811523 C-80.8489990234375,-4.913000106811523 -85.41500091552734,4.913000106811523 -85.41500091552734,4.913000106811523 C-85.41500091552734,4.913000106811523 85.41500091552734,4.913000106811523 85.41500091552734,4.913000106811523 C85.41500091552734,4.913000106811523 81.19200134277344,-4.913000106811523 81.19200134277344,-4.913000106811523 C81.19200134277344,-4.913000106811523 -80.8489990234375,-4.913000106811523 -80.8489990234375,-4.913000106811523z"></path></g></g><g transform="matrix(0.3330000042915344,0,0,0.3330000042915344,-22.909704208374023,-4.753199577331543)" opacity="1" style="display: block;"><g opacity="1" transform="matrix(1,0,0,1,0,0)"><path stroke-linecap="round" stroke-linejoin="round" fill-opacity="0" stroke="rgb(186,202,222)" stroke-opacity="1" stroke-width="8" d=" M157.03199768066406,20 C157.03199768066406,20 157.03199768066406,123.50800323486328 157.03199768066406,123.50800323486328"></path></g><g opacity="1" transform="matrix(1,0,0,1,0,0)"><path stroke-linecap="round" stroke-linejoin="round" fill-opacity="0" stroke="rgb(175,154,166)" stroke-opacity="1" stroke-width="5" d=" M157.03199768066406,116.66200256347656 C157.03199768066406,116.66200256347656 157.03199768066406,150.98599243164062 157.03199768066406,150.98599243164062"></path></g><g opacity="1" transform="matrix(1,0,0,1,157.03199768066406,119.36299896240234)"><path fill="rgb(175,154,166)" fill-opacity="1" d=" M0,-11.38700008392334 C0,-11.38700008392334 0,-11.38700008392334 0,-11.38700008392334 C-2.7279999256134033,-11.38700008392334 -4.940000057220459,-9.175000190734863 -4.940000057220459,-6.447000026702881 C-4.940000057220459,-6.447000026702881 -4.940000057220459,11.38700008392334 -4.940000057220459,11.38700008392334 C-4.940000057220459,11.38700008392334 4.940000057220459,11.38700008392334 4.940000057220459,11.38700008392334 C4.940000057220459,11.38700008392334 4.940000057220459,-6.447000026702881 4.940000057220459,-6.447000026702881 C4.940000057220459,-9.175000190734863 2.7290000915527344,-11.38700008392334 0,-11.38700008392334z"></path></g></g><g transform="matrix(0.3330000042915344,0,0,0.3330000042915344,-22.909704208374023,-3.0881996154785156)" opacity="1" style="display: block;"><g opacity="1" transform="matrix(1,0,0,1,144.51300048828125,138.82000732421875)"><path stroke-linecap="round" stroke-linejoin="round" fill-opacity="0" stroke="rgb(175,154,166)" stroke-opacity="1" stroke-width="5" d=" M12.519000053405762,-2.9579999446868896 C12.519000053405762,-2.9579999446868896 4.956999778747559,-19.225000381469727 -3.7809998989105225,-7.140999794006348 C-12.519000053405762,4.942999839782715 0.5929999947547913,19.224000930786133 0.5929999947547913,19.224000930786133"></path></g></g><g transform="matrix(0.3330000042915344,0,0,0.3330000042915344,-22.909704208374023,-3.0881996154785156)" opacity="1" style="display: block;"><g opacity="1" transform="matrix(1,0,0,1,169.5500030517578,138.82000732421875)"><path stroke-linecap="round" stroke-linejoin="round" fill-opacity="0" stroke="rgb(175,154,166)" stroke-opacity="1" stroke-width="5" d=" M-12.519000053405762,-2.9579999446868896 C-12.519000053405762,-2.9579999446868896 -4.956999778747559,-19.225000381469727 3.7820000648498535,-7.140999794006348 C12.519000053405762,4.942999839782715 -0.5920000076293945,19.224000930786133 -0.5920000076293945,19.224000930786133"></path></g></g><g transform="matrix(0.3330000042915344,0,0,0.3330000042915344,-22.909704208374023,0.2418004870414734)" opacity="1" style="display: block;"><g opacity="1" transform="matrix(1,0,0,1,157.031005859375,67.98999786376953)"><path fill="rgb(217,28,92)" fill-opacity="1" d=" M13.234000205993652,6.616000175476074 C13.234000205993652,-0.6930000185966492 7.308000087738037,-6.616000175476074 0,-6.616000175476074 C-7.309000015258789,-6.616000175476074 -13.234000205993652,-0.6930000185966492 -13.234000205993652,6.616000175476074 C-13.234000205993652,6.616000175476074 13.234000205993652,6.616000175476074 13.234000205993652,6.616000175476074z"></path></g><g opacity="1" transform="matrix(1,0,0,1,157.031005859375,82.03900146484375)"><path fill="rgb(141,124,142)" fill-opacity="1" d=" M13.232999801635742,-7.432000160217285 C13.232999801635742,-7.432000160217285 -13.232999801635742,-7.432000160217285 -13.232999801635742,-7.432000160217285 C-13.232999801635742,-7.432000160217285 -13.232999801635742,7.432000160217285 -13.232999801635742,7.432000160217285 C-13.232999801635742,7.432000160217285 13.232999801635742,7.432000160217285 13.232999801635742,7.432000160217285 C13.232999801635742,7.432000160217285 13.232999801635742,-7.432000160217285 13.232999801635742,-7.432000160217285z"></path></g></g></g></svg>