<svg xmlns="http://www.w3.org/2000/svg" viewBox="0 0 65 79" width="65" height="79" preserveAspectRatio="xMidYMid meet" style="width: 100%; height: 100%; transform: translate3d(0px, 0px, 0px); content-visibility: visible;"><defs><clipPath id="__lottie_element_2329"><rect width="65" height="79" x="0" y="0"></rect></clipPath></defs><g clip-path="url(#__lottie_element_2329)"><g transform="matrix(0.3330000042915344,0,0,0.3330000042915344,-111.04997253417969,-91.6966781616211)" opacity="1" style="display: block;"><g opacity="1" transform="matrix(1,0,0,1,431.4049987792969,377.39801025390625)"><path fill="rgb(29,153,212)" fill-opacity="1" d=" M43.3849983215332,-50.89799880981445 C43.3849983215332,-50.89799880981445 -43.38600158691406,-50.89799880981445 -43.38600158691406,-50.89799880981445 C-43.38600158691406,-50.89799880981445 -79.22699737548828,50.89799880981445 -79.22699737548828,50.89799880981445 C-79.22699737548828,50.89799880981445 79.22699737548828,50.89799880981445 79.22699737548828,50.89799880981445 C79.22699737548828,50.89799880981445 43.3849983215332,-50.89799880981445 43.3849983215332,-50.89799880981445z"></path></g><g opacity="1" transform="matrix(1,0,0,1,374.7650146484375,377.39801025390625)"><path fill="rgb(132,207,215)" fill-opacity="1" d=" M13.255000114440918,-50.89799880981445 C13.255000114440918,-50.89799880981445 -22.586999893188477,50.89799880981445 -22.586999893188477,50.89799880981445 C-22.586999893188477,50.89799880981445 -13.253999710083008,50.89799880981445 -13.253999710083008,50.89799880981445 C-13.253999710083008,50.89799880981445 22.586999893188477,-50.89799880981445 22.586999893188477,-50.89799880981445 C22.586999893188477,-50.89799880981445 13.255000114440918,-50.89799880981445 13.255000114440918,-50.89799880981445z"></path></g><g opacity="1" transform="matrix(1,0,0,1,488.0450134277344,377.39801025390625)"><path fill="rgb(132,207,215)" fill-opacity="1" d=" M-13.255000114440918,-50.89799880981445 C-13.255000114440918,-50.89799880981445 22.586999893188477,50.89799880981445 22.586999893188477,50.89799880981445 C22.586999893188477,50.89799880981445 13.255000114440918,50.89799880981445 13.255000114440918,50.89799880981445 C13.255000114440918,50.89799880981445 -22.586999893188477,-50.89799880981445 -22.586999893188477,-50.89799880981445 C-22.586999893188477,-50.89799880981445 -13.255000114440918,-50.89799880981445 -13.255000114440918,-50.89799880981445z"></path></g><g opacity="1" transform="matrix(1,0,0,1,431.4049987792969,323.60400390625)"><path fill="rgb(255,201,77)" fill-opacity="1" d=" M38.13199996948242,2.8959999084472656 C38.13199996948242,2.8959999084472656 -38.13199996948242,2.8959999084472656 -38.13199996948242,2.8959999084472656 C-38.13199996948242,2.8959999084472656 -38.13199996948242,-2.8959999084472656 -38.13199996948242,-2.8959999084472656 C-38.13199996948242,-2.8959999084472656 38.13199996948242,-2.8959999084472656 38.13199996948242,-2.8959999084472656 C38.13199996948242,-2.8959999084472656 38.13199996948242,2.8959999084472656 38.13199996948242,2.8959999084472656z"></path></g><g opacity="1" transform="matrix(1,0,0,1,431.4049987792969,332.2929992675781)"><path fill="rgb(17,128,195)" fill-opacity="1" d=" M-43.3849983215332,5.793000221252441 C-43.3849983215332,5.793000221252441 43.3849983215332,5.793000221252441 43.3849983215332,5.793000221252441 C43.3849983215332,5.793000221252441 43.3849983215332,-5.793000221252441 43.3849983215332,-5.793000221252441 C43.3849983215332,-5.793000221252441 -43.3849983215332,-5.793000221252441 -43.3849983215332,-5.793000221252441 C-43.3849983215332,-5.793000221252441 -43.3849983215332,5.793000221252441 -43.3849983215332,5.793000221252441z"></path></g><g opacity="1" transform="matrix(1,0,0,1,388.0199890136719,326.5)"><path fill="rgb(255,201,77)" fill-opacity="1" d=" M5.252999782562256,-11.586000442504883 C5.252999782562256,-11.586000442504883 0.8080000281333923,-11.586000442504883 0.8080000281333923,-11.586000442504883 C0.8080000281333923,-11.586000442504883 -5.252999782562256,11.586000442504883 -5.252999782562256,11.586000442504883 C-5.252999782562256,11.586000442504883 5.252999782562256,11.586000442504883 5.252999782562256,11.586000442504883 C5.252999782562256,11.586000442504883 5.252999782562256,-11.586000442504883 5.252999782562256,-11.586000442504883z"></path></g><g opacity="1" transform="matrix(1,0,0,1,0,0)"><path stroke-linecap="round" stroke-linejoin="round" fill-opacity="0" stroke="rgb(255,201,77)" stroke-opacity="1" stroke-width="5" d=" M391.010009765625,326.9859924316406 C391.010009765625,326.9859924316406 391.010009765625,280.2489929199219 391.010009765625,280.2489929199219"></path></g><g opacity="1" transform="matrix(1,0,0,1,401.6369934082031,288.510986328125)"><path fill="rgb(29,153,212)" fill-opacity="1" d=" M10.920999526977539,-0.0010000000474974513 C10.920999526977539,-0.0010000000474974513 -10.920999526977539,-8.26099967956543 -10.920999526977539,-8.26099967956543 C-10.920999526977539,-8.26099967956543 -10.920999526977539,8.26099967956543 -10.920999526977539,8.26099967956543 C-10.920999526977539,8.26099967956543 10.920999526977539,-0.0010000000474974513 10.920999526977539,-0.0010000000474974513z"></path></g><g opacity="1" transform="matrix(1,0,0,1,474.7900085449219,326.5)"><path fill="rgb(255,201,77)" fill-opacity="1" d=" M-5.251999855041504,-11.586000442504883 C-5.251999855041504,-11.586000442504883 -0.8080000281333923,-11.586000442504883 -0.8080000281333923,-11.586000442504883 C-0.8080000281333923,-11.586000442504883 5.251999855041504,11.586000442504883 5.251999855041504,11.586000442504883 C5.251999855041504,11.586000442504883 -5.251999855041504,11.586000442504883 -5.251999855041504,11.586000442504883 C-5.251999855041504,11.586000442504883 -5.251999855041504,-11.586000442504883 -5.251999855041504,-11.586000442504883z"></path></g><g opacity="1" transform="matrix(1,0,0,1,0,0)"><path stroke-linecap="round" stroke-linejoin="round" fill-opacity="0" stroke="rgb(255,201,77)" stroke-opacity="1" stroke-width="5" d=" M471.79998779296875,326.9859924316406 C471.79998779296875,326.9859924316406 471.79998779296875,280.2489929199219 471.79998779296875,280.2489929199219"></path></g><g opacity="1" transform="matrix(1,0,0,1,482.72100830078125,288.510986328125)"><path fill="rgb(29,153,212)" fill-opacity="1" d=" M10.920000076293945,-0.0010000000474974513 C10.920000076293945,-0.0010000000474974513 -10.920000076293945,-8.26099967956543 -10.920000076293945,-8.26099967956543 C-10.920000076293945,-8.26099967956543 -10.920000076293945,8.26099967956543 -10.920000076293945,8.26099967956543 C-10.920000076293945,8.26099967956543 10.920000076293945,-0.0010000000474974513 10.920000076293945,-0.0010000000474974513z"></path></g><g opacity="1" transform="matrix(1,0,0,1,431.4049987792969,389.72900390625)"><path fill="rgb(255,201,77)" fill-opacity="1" d=" M57.43600082397461,0 C57.43600082397461,-31.72100067138672 31.72100067138672,-57.43600082397461 0,-57.43600082397461 C-31.72100067138672,-57.43600082397461 -57.43600082397461,-31.72100067138672 -57.43600082397461,0 C-57.43600082397461,31.72100067138672 -31.72100067138672,57.43600082397461 0,57.43600082397461 C31.72100067138672,57.43600082397461 57.43600082397461,31.72100067138672 57.43600082397461,0z"></path></g><g opacity="1" transform="matrix(1,0,0,1,431.4049987792969,470.9049987792969)"><path fill="rgb(77,67,95)" fill-opacity="1" d=" M76.24700164794922,-28.804000854492188 C76.24700164794922,-28.804000854492188 -76.24700164794922,-28.804000854492188 -76.24700164794922,-28.804000854492188 C-76.24700164794922,-28.804000854492188 -76.24700164794922,28.804000854492188 -76.24700164794922,28.804000854492188 C-76.24700164794922,28.804000854492188 76.24700164794922,28.804000854492188 76.24700164794922,28.804000854492188 C76.24700164794922,28.804000854492188 76.24700164794922,-28.804000854492188 76.24700164794922,-28.804000854492188z"></path></g><g opacity="1" transform="matrix(1,0,0,1,431.406005859375,453.4110107421875)"><path fill="rgb(240,108,94)" fill-opacity="1" d=" M71.875,-7.0980000495910645 C71.875,-7.0980000495910645 -71.875,-7.0980000495910645 -71.875,-7.0980000495910645 C-71.875,-7.0980000495910645 -71.875,7.0980000495910645 -71.875,7.0980000495910645 C-71.875,7.0980000495910645 71.875,7.0980000495910645 71.875,7.0980000495910645 C71.875,7.0980000495910645 71.875,-7.0980000495910645 71.875,-7.0980000495910645z"></path></g><g opacity="1" transform="matrix(1,0,0,1,347.27301025390625,473.7439880371094)"><path fill="rgb(255,238,207)" fill-opacity="1" d=" M12.256999969482422,-36.948001861572266 C12.256999969482422,-36.948001861572266 -12.256999969482422,-36.948001861572266 -12.256999969482422,-36.948001861572266 C-12.256999969482422,-36.948001861572266 -12.256999969482422,36.948001861572266 -12.256999969482422,36.948001861572266 C-12.256999969482422,36.948001861572266 12.256999969482422,36.948001861572266 12.256999969482422,36.948001861572266 C12.256999969482422,36.948001861572266 12.256999969482422,-36.948001861572266 12.256999969482422,-36.948001861572266z"></path></g><g opacity="1" transform="matrix(1,0,0,1,347.27301025390625,416.60699462890625)"><path fill="rgb(17,128,195)" fill-opacity="1" d=" M12.256999969482422,20.187999725341797 C12.256999969482422,20.187999725341797 -12.256999969482422,20.187999725341797 -12.256999969482422,20.187999725341797 C-12.256999969482422,20.187999725341797 0,-20.187999725341797 0,-20.187999725341797 C0,-20.187999725341797 12.256999969482422,20.187999725341797 12.256999969482422,20.187999725341797z"></path></g><g opacity="1" transform="matrix(1,0,0,1,347.27301025390625,456.9830017089844)"><path fill="rgb(17,128,195)" fill-opacity="1" d=" M12.256999969482422,-20.187999725341797 C12.256999969482422,-20.187999725341797 -12.256999969482422,-20.187999725341797 -12.256999969482422,-20.187999725341797 C-12.256999969482422,-20.187999725341797 0,20.187999725341797 0,20.187999725341797 C0,20.187999725341797 12.256999969482422,-20.187999725341797 12.256999969482422,-20.187999725341797z"></path></g><g opacity="1" transform="matrix(1,0,0,1,515.5369873046875,473.7439880371094)"><path fill="rgb(255,238,207)" fill-opacity="1" d=" M-12.255999565124512,-36.948001861572266 C-12.255999565124512,-36.948001861572266 12.255999565124512,-36.948001861572266 12.255999565124512,-36.948001861572266 C12.255999565124512,-36.948001861572266 12.255999565124512,36.948001861572266 12.255999565124512,36.948001861572266 C12.255999565124512,36.948001861572266 -12.255999565124512,36.948001861572266 -12.255999565124512,36.948001861572266 C-12.255999565124512,36.948001861572266 -12.255999565124512,-36.948001861572266 -12.255999565124512,-36.948001861572266z"></path></g><g opacity="1" transform="matrix(1,0,0,1,515.5369873046875,456.9830017089844)"><path fill="rgb(17,128,195)" fill-opacity="1" d=" M12.256999969482422,-20.187999725341797 C12.256999969482422,-20.187999725341797 -12.256999969482422,-20.187999725341797 -12.256999969482422,-20.187999725341797 C-12.256999969482422,-20.187999725341797 0,20.187999725341797 0,20.187999725341797 C0,20.187999725341797 12.256999969482422,-20.187999725341797 12.256999969482422,-20.187999725341797z"></path></g><g opacity="1" transform="matrix(1,0,0,1,515.5369873046875,416.60699462890625)"><path fill="rgb(17,128,195)" fill-opacity="1" d=" M-12.255999565124512,20.187999725341797 C-12.255999565124512,20.187999725341797 12.255999565124512,20.187999725341797 12.255999565124512,20.187999725341797 C12.255999565124512,20.187999725341797 -0.0010000000474974513,-20.187999725341797 -0.0010000000474974513,-20.187999725341797 C-0.0010000000474974513,-20.187999725341797 -12.255999565124512,20.187999725341797 -12.255999565124512,20.187999725341797z"></path></g></g><g transform="matrix(0.332904189825058,0.00798820797353983,-0.00798820797353983,0.332904189825058,-107.52001953125,-95.10086822509766)" opacity="1" style="display: block;"><g opacity="1" transform="matrix(1,0,0,1,413.71099853515625,388.6960144042969)"><path fill="rgb(77,67,95)" fill-opacity="1" d=" M0.0010000000474974513,-21.493000030517578 C0.0010000000474974513,-21.493000030517578 0.0010000000474974513,-21.493000030517578 0.0010000000474974513,-21.493000030517578 C6.824999809265137,-21.493000030517578 12.407999992370605,-15.90999984741211 12.407999992370605,-9.086000442504883 C12.407999992370605,-9.086000442504883 12.407999992370605,21.493000030517578 12.407999992370605,21.493000030517578 C12.407999992370605,21.493000030517578 -12.407999992370605,21.493000030517578 -12.407999992370605,21.493000030517578 C-12.407999992370605,21.493000030517578 -12.407999992370605,-9.086000442504883 -12.407999992370605,-9.086000442504883 C-12.407999992370605,-15.90999984741211 -6.822999954223633,-21.493000030517578 0.0010000000474974513,-21.493000030517578z"></path></g><g opacity="1" transform="matrix(1,0,0,1,413.7120056152344,361.64801025390625)"><path fill="rgb(252,215,190)" fill-opacity="1" d=" M-12.406999588012695,0 C-12.406999588012695,-6.853000164031982 -6.853000164031982,-12.406999588012695 0,-12.406999588012695 C6.8520002365112305,-12.406999588012695 12.406999588012695,-6.853000164031982 12.406999588012695,0 C12.406999588012695,6.853000164031982 6.8520002365112305,12.406999588012695 0,12.406999588012695 C-6.853000164031982,12.406999588012695 -12.406999588012695,6.853000164031982 -12.406999588012695,0z"></path></g><g opacity="1" transform="matrix(1,0,0,1,413.7120056152344,367.74798583984375)"><path fill="rgb(77,67,95)" fill-opacity="1" d=" M0,-0.7300000190734863 C2.239000082015991,-0.7300000190734863 4.300000190734863,-1.4559999704360962 5.995999813079834,-2.6619999408721924 C5.567999839782715,0.3269999921321869 3.1059999465942383,2.6619999408721924 0,2.6619999408721924 C-3.1070001125335693,2.6619999408721924 -5.568999767303467,0.3269999921321869 -5.995999813079834,-2.6619999408721924 C-4.300000190734863,-1.4559999704360962 -2.240000009536743,-0.7300000190734863 0,-0.7300000190734863z"></path></g><g opacity="1" transform="matrix(1,0,0,1,411.87701416015625,355.7919921875)"><path fill="rgb(77,67,95)" fill-opacity="1" d=" M11.503999710083008,-1.8930000066757202 C11.503999710083008,-1.8930000066757202 11.444999694824219,-3.5390000343322754 10.975000381469727,-3.9809999465942383 C8.574999809265137,-6.232999801635742 5.379000186920166,-7.633999824523926 1.8350000381469727,-7.633999824523926 C-5.09499979019165,-7.633999824523926 -10.755000114440918,-2.3610000610351562 -11.503999710083008,4.373000144958496 C-11.404000282287598,4.546999931335449 -11.312999725341797,4.763000011444092 -11.208000183105469,4.908999919891357 C-9.251999855041504,7.632999897003174 -6.5980000495910645,6.160999774932861 -6.5980000495910645,6.160999774932861 C-8.760000228881836,4.7210001945495605 -8.472999572753906,2.308000087738037 -8.472999572753906,2.308000087738037 C-8.472999572753906,2.308000087738037 11.503999710083008,-1.8930000066757202 11.503999710083008,-1.8930000066757202z"></path></g><g opacity="1" transform="matrix(0.5580000281333923,0,0,0.5580000281333923,409.7449951171875,359.9320068359375)"><path fill="rgb(77,67,95)" fill-opacity="1" d=" M3.5,0 C3.5,0 3.5,0 3.5,0 C3.5,1.9316500425338745 1.9316500425338745,3.5 0,3.5 C0,3.5 0,3.5 0,3.5 C-1.9316500425338745,3.5 -3.5,1.9316500425338745 -3.5,0 C-3.5,0 -3.5,0 -3.5,0 C-3.5,-1.9316500425338745 -1.9316500425338745,-3.5 0,-3.5 C0,-3.5 0,-3.5 0,-3.5 C1.9316500425338745,-3.5 3.5,-1.9316500425338745 3.5,0z"></path></g><g opacity="1" transform="matrix(0.5580000281333923,0,0,0.5580000281333923,417.4949951171875,359.9320068359375)"><path fill="rgb(77,67,95)" fill-opacity="1" d=" M3.5,0 C3.5,0 3.5,0 3.5,0 C3.5,1.9316500425338745 1.9316500425338745,3.5 0,3.5 C0,3.5 0,3.5 0,3.5 C-1.9316500425338745,3.5 -3.5,1.9316500425338745 -3.5,0 C-3.5,0 -3.5,0 -3.5,0 C-3.5,-1.9316500425338745 -1.9316500425338745,-3.5 0,-3.5 C0,-3.5 0,-3.5 0,-3.5 C1.9316500425338745,-3.5 3.5,-1.9316500425338745 3.5,0z"></path></g><g opacity="1" transform="matrix(1,0,0,1,411.9750061035156,355.9880065917969)"><path fill="rgb(17,128,195)" fill-opacity="1" d=" M-11.704000473022461,-0.9700000286102295 C-11.704000473022461,-0.9700000286102295 10.878000259399414,-4.177000045776367 10.878000259399414,-4.177000045776367 C10.878000259399414,-4.177000045776367 11.704000473022461,-1.7280000448226929 11.704000473022461,-1.7280000448226929 C11.704000473022461,-1.7280000448226929 -11.60099983215332,4.177000045776367 -11.60099983215332,4.177000045776367 C-11.60099983215332,4.177000045776367 -11.704000473022461,-0.9700000286102295 -11.704000473022461,-0.9700000286102295z"></path></g><g opacity="1" transform="matrix(1,0,0,1,423.10198974609375,352.2349853515625)"><path fill="rgb(17,128,195)" fill-opacity="1" d=" M1.4190000295639038,0 C1.4190000295639038,-0.7839999794960022 0.7829999923706055,-1.4190000295639038 0,-1.4190000295639038 C-0.7839999794960022,-1.4190000295639038 -1.4190000295639038,-0.7839999794960022 -1.4190000295639038,0 C-1.4190000295639038,0.7829999923706055 -0.7839999794960022,1.4190000295639038 0,1.4190000295639038 C0.7829999923706055,1.4190000295639038 1.4190000295639038,0.7829999923706055 1.4190000295639038,0z"></path></g><g opacity="1" transform="matrix(1,0,0,1,419.927001953125,349.4649963378906)"><path fill="rgb(17,128,195)" fill-opacity="1" d=" M3.174999952316284,2.7699999809265137 C3.174999952316284,0.47999998927116394 1.3569999933242798,-2.7699999809265137 -2.490999937057495,-2.7699999809265137 C-2.490999937057495,-2.7699999809265137 -3.174999952316284,2.7699999809265137 3.174999952316284,2.7699999809265137z"></path></g><g opacity="1" transform="matrix(1,0,0,1,424.5820007324219,348.3559875488281)"><path fill="rgb(17,128,195)" fill-opacity="1" d=" M0.13300000131130219,-3.878999948501587 C-1.7960000038146973,-2.6449999809265137 -3.553999900817871,0.6380000114440918 -1.4800000190734863,3.878999948501587 C-1.4800000190734863,3.878999948501587 3.555000066757202,1.4700000286102295 0.13300000131130219,-3.878999948501587z"></path></g></g><g transform="matrix(0.33293578028678894,0.006539646536111832,-0.006539646536111832,0.33293578028678894,-108.12808227539062,-94.46321105957031)" opacity="1" style="display: block;"><g opacity="1" transform="matrix(1,0,0,1,449.0979919433594,388.6960144042969)"><path fill="rgb(77,67,95)" fill-opacity="1" d=" M0,-21.493000030517578 C0,-21.493000030517578 0,-21.493000030517578 0,-21.493000030517578 C-6.823999881744385,-21.493000030517578 -12.406999588012695,-15.90999984741211 -12.406999588012695,-9.086000442504883 C-12.406999588012695,-9.086000442504883 -12.406999588012695,21.493000030517578 -12.406999588012695,21.493000030517578 C-12.406999588012695,21.493000030517578 12.406999588012695,21.493000030517578 12.406999588012695,21.493000030517578 C12.406999588012695,21.493000030517578 12.406999588012695,-9.086000442504883 12.406999588012695,-9.086000442504883 C12.406999588012695,-15.90999984741211 6.823999881744385,-21.493000030517578 0,-21.493000030517578z"></path></g><g opacity="1" transform="matrix(1,0,0,1,449.0979919433594,355.44500732421875)"><path stroke-linecap="round" stroke-linejoin="round" fill-opacity="0" stroke="rgb(240,108,94)" stroke-opacity="1" stroke-width="3.611" d=" M12.406999588012695,6.203000068664551 C12.406999588012695,-0.6499999761581421 6.8520002365112305,-6.203000068664551 0,-6.203000068664551 C-6.853000164031982,-6.203000068664551 -12.406999588012695,-0.6499999761581421 -12.406999588012695,6.203000068664551"></path></g><g opacity="1" transform="matrix(1,0,0,1,449.0979919433594,361.64801025390625)"><path fill="rgb(197,117,46)" fill-opacity="1" d=" M12.406999588012695,0 C12.406999588012695,-6.853000164031982 6.8520002365112305,-12.406999588012695 0,-12.406999588012695 C-6.853000164031982,-12.406999588012695 -12.406999588012695,-6.853000164031982 -12.406999588012695,0 C-12.406999588012695,6.853000164031982 -6.853000164031982,12.406999588012695 0,12.406999588012695 C6.8520002365112305,12.406999588012695 12.406999588012695,6.853000164031982 12.406999588012695,0z"></path></g><g opacity="1" transform="matrix(1,0,0,1,449.0979919433594,367.74798583984375)"><path fill="rgb(77,67,95)" fill-opacity="1" d=" M0,-0.7300000190734863 C-2.239000082015991,-0.7300000190734863 -4.300000190734863,-1.4559999704360962 -5.995999813079834,-2.6619999408721924 C-5.567999839782715,0.3269999921321869 -3.1059999465942383,2.6619999408721924 0,2.6619999408721924 C3.1059999465942383,2.6619999408721924 5.567999839782715,0.3269999921321869 5.995999813079834,-2.6619999408721924 C4.300000190734863,-1.4559999704360962 2.239000082015991,-0.7300000190734863 0,-0.7300000190734863z"></path></g><g opacity="1" transform="matrix(1,0,0,1,443.1440124511719,354.8800048828125)"><path fill="rgb(77,67,95)" fill-opacity="1" d=" M-6.736999988555908,5.821000099182129 C6.736999988555908,1.194000005722046 5.953999996185303,-5.821000099182129 5.953999996185303,-5.821000099182129 C-0.7200000286102295,-5.821000099182129 -6.138999938964844,-0.6970000267028809 -6.736999988555908,5.821000099182129z"></path></g><g opacity="1" transform="matrix(1,0,0,1,455.052001953125,354.8800048828125)"><path fill="rgb(77,67,95)" fill-opacity="1" d=" M6.736999988555908,5.821000099182129 C6.138999938964844,-0.6970000267028809 0.7200000286102295,-5.821000099182129 -5.953999996185303,-5.821000099182129 C-5.953999996185303,-5.821000099182129 -6.736999988555908,1.194000005722046 6.736999988555908,5.821000099182129z"></path></g><g opacity="1" transform="matrix(1,0,0,1,462.87701416015625,372.3269958496094)"><path fill="rgb(240,108,94)" fill-opacity="1" d=" M-7.389999866485596,-22.224000930786133 C-7.389999866485596,-22.224000930786133 -4.583000183105469,8.539999961853027 -4.583000183105469,8.539999961853027 C-4.583000183105469,8.539999961853027 7.389999866485596,22.224000930786133 7.389999866485596,22.224000930786133 C7.389999866485596,22.224000930786133 0.23100000619888306,-13.001999855041504 0.23100000619888306,-13.001999855041504 C0.23100000619888306,-13.001999855041504 -4.341000080108643,-20.106000900268555 -4.341000080108643,-20.106000900268555 C-4.341000080108643,-20.106000900268555 -7.389999866485596,-22.224000930786133 -7.389999866485596,-22.224000930786133z"></path></g><g opacity="1" transform="matrix(1,0,0,1,0,0)"><path stroke-linecap="round" stroke-linejoin="round" fill-opacity="0" stroke="rgb(240,108,94)" stroke-opacity="1" stroke-width="3.611" d=" M449.0979919433594,349.2409973144531 C449.0979919433594,349.2409973144531 449.0979919433594,345.3330078125 449.0979919433594,345.3330078125"></path></g><g opacity="1" transform="matrix(1,0,0,1,449.0979919433594,350.8760070800781)"><path fill="rgb(240,108,94)" fill-opacity="1" d=" M3.0230000019073486,0 C3.0230000019073486,-1.6690000295639038 1.6690000295639038,-3.0230000019073486 0,-3.0230000019073486 C-1.6699999570846558,-3.0230000019073486 -3.0230000019073486,-1.6690000295639038 -3.0230000019073486,0 C-3.0230000019073486,1.6690000295639038 -1.6699999570846558,3.0230000019073486 0,3.0230000019073486 C1.6690000295639038,3.0230000019073486 3.0230000019073486,1.6690000295639038 3.0230000019073486,0z"></path></g><g opacity="1" transform="matrix(1,0,0,1,439.2569885253906,362.3290100097656)"><path fill="rgb(77,67,95)" fill-opacity="1" d=" M-2.8499999046325684,-1.628999948501587 C-2.8499999046325684,0.17399999499320984 -2.7279999256134033,1.7100000381469727 -1.850000023841858,2.6670000553131104 C-0.4959999918937683,4.144999980926514 1.2339999675750732,3.015000104904175 1.5169999599456787,2.319000005722046 C-0.31700000166893005,1.9989999532699585 -0.722000002861023,0.48500001430511475 -0.2849999964237213,-0.8130000233650208 C0.1809999942779541,-2.196000099182129 1.4789999723434448,-3.174999952316284 2.8499999046325684,-4.144999980926514"></path></g><g opacity="1" transform="matrix(0.5580000281333923,0,0,0.5580000281333923,445.1759948730469,359.9739990234375)"><path fill="rgb(77,67,95)" fill-opacity="1" d=" M3.5,0 C3.5,0 3.5,0 3.5,0 C3.5,1.9316500425338745 1.9316500425338745,3.5 0,3.5 C0,3.5 0,3.5 0,3.5 C-1.9316500425338745,3.5 -3.5,1.9316500425338745 -3.5,0 C-3.5,0 -3.5,0 -3.5,0 C-3.5,-1.9316500425338745 -1.9316500425338745,-3.5 0,-3.5 C0,-3.5 0,-3.5 0,-3.5 C1.9316500425338745,-3.5 3.5,-1.9316500425338745 3.5,0z"></path></g><g opacity="1" transform="matrix(0.5580000281333923,0,0,0.5580000281333923,452.9259948730469,359.9739990234375)"><path fill="rgb(77,67,95)" fill-opacity="1" d=" M3.5,0 C3.5,0 3.5,0 3.5,0 C3.5,1.9316500425338745 1.9316500425338745,3.5 0,3.5 C0,3.5 0,3.5 0,3.5 C-1.9316500425338745,3.5 -3.5,1.9316500425338745 -3.5,0 C-3.5,0 -3.5,0 -3.5,0 C-3.5,-1.9316500425338745 -1.9316500425338745,-3.5 0,-3.5 C0,-3.5 0,-3.5 0,-3.5 C1.9316500425338745,-3.5 3.5,-1.9316500425338745 3.5,0z"></path></g></g><g transform="matrix(0.3329913914203644,0.002394559560343623,-0.002394559560343623,0.3329913914203644,-109.8313217163086,-92.72187805175781)" opacity="1" style="display: block;"><g opacity="1" transform="matrix(1,0,0,1,431.4049987792969,393.3699951171875)"><path fill="rgb(170,95,166)" fill-opacity="1" d=" M0,-13.208000183105469 C0,-13.208000183105469 0,-13.208000183105469 0,-13.208000183105469 C-6.823999881744385,-13.208000183105469 -12.407999992370605,-7.624000072479248 -12.407999992370605,-0.800000011920929 C-12.407999992370605,-0.800000011920929 -12.407999992370605,13.208000183105469 -12.407999992370605,13.208000183105469 C-12.407999992370605,13.208000183105469 12.407999992370605,13.208000183105469 12.407999992370605,13.208000183105469 C12.407999992370605,13.208000183105469 12.407999992370605,-0.800000011920929 12.407999992370605,-0.800000011920929 C12.407999992370605,-7.624000072479248 6.823999881744385,-13.208000183105469 0,-13.208000183105469z"></path></g><g opacity="1" transform="matrix(1,0,0,1,431.4049987792969,374.56500244140625)"><path fill="rgb(250,188,150)" fill-opacity="1" d=" M12.407999992370605,0 C12.407999992370605,-6.853000164031982 6.8520002365112305,-12.406999588012695 -0.0010000000474974513,-12.406999588012695 C-6.853000164031982,-12.406999588012695 -12.407999992370605,-6.853000164031982 -12.407999992370605,0 C-12.407999992370605,6.853000164031982 -6.853000164031982,12.406999588012695 -0.0010000000474974513,12.406999588012695 C6.8520002365112305,12.406999588012695 12.407999992370605,6.853000164031982 12.407999992370605,0z"></path></g><g opacity="1" transform="matrix(1,0,0,1,431.4049987792969,380.6650085449219)"><path fill="rgb(77,67,95)" fill-opacity="1" d=" M0,-0.7300000190734863 C-2.239000082015991,-0.7300000190734863 -4.300000190734863,-1.4559999704360962 -5.995999813079834,-2.6619999408721924 C-5.567999839782715,0.3269999921321869 -3.1059999465942383,2.6619999408721924 0,2.6619999408721924 C3.1059999465942383,2.6619999408721924 5.568999767303467,0.3269999921321869 5.995999813079834,-2.6619999408721924 C4.300000190734863,-1.4559999704360962 2.240000009536743,-0.7300000190734863 0,-0.7300000190734863z"></path></g><g opacity="1" transform="matrix(1,0,0,1,421.0039978027344,370.7439880371094)"><path fill="rgb(240,108,94)" fill-opacity="1" d=" M1.1360000371932983,-2.4079999923706055 C-0.026000000536441803,-2.9549999237060547 -1.475000023841858,-2.322000026702881 -2.1019999980926514,-0.9919999837875366 C-2.7300000190734863,0.3370000123977661 -2.296999931335449,1.8589999675750732 -1.1349999904632568,2.4070000648498535 C0.026000000536441803,2.9549999237060547 1.4759999513626099,2.321000099182129 2.1029999256134033,0.9909999966621399 C2.7300000190734863,-0.33799999952316284 2.296999931335449,-1.8600000143051147 1.1360000371932983,-2.4079999923706055z"></path></g><g opacity="1" transform="matrix(1,0,0,1,423.10198974609375,367.97601318359375)"><path fill="rgb(240,108,94)" fill-opacity="1" d=" M2.0439999103546143,-1.7050000429153442 C1.222000002861023,-2.690999984741211 -0.3610000014305115,-2.7269999980926514 -1.4900000095367432,-1.784999966621399 C-2.61899995803833,-0.8429999947547913 -2.867000102996826,0.718999981880188 -2.0439999103546143,1.7050000429153442 C-1.222000002861023,2.690999984741211 0.36000001430511475,2.7269999980926514 1.4889999628067017,1.784999966621399 C2.618000030517578,0.8429999947547913 2.867000102996826,-0.718999981880188 2.0439999103546143,-1.7050000429153442z"></path></g><g opacity="1" transform="matrix(1,0,0,1,426.6910095214844,365.8760070800781)"><path fill="rgb(240,108,94)" fill-opacity="1" d=" M2.625999927520752,-0.4390000104904175 C2.4149999618530273,-1.7050000429153442 1.0670000314712524,-2.5360000133514404 -0.38199999928474426,-2.2939999103546143 C-1.8320000171661377,-2.052000045776367 -2.8369998931884766,-0.828000009059906 -2.625999927520752,0.4390000104904175 C-2.4149999618530273,1.7059999704360962 -1.0670000314712524,2.5360000133514404 0.38199999928474426,2.2939999103546143 C1.8329999446868896,2.052000045776367 2.8369998931884766,0.828000009059906 2.625999927520752,-0.4390000104904175z"></path></g><g opacity="1" transform="matrix(1,0,0,1,441.80499267578125,370.7439880371094)"><path fill="rgb(240,108,94)" fill-opacity="1" d=" M-1.1349999904632568,-2.4079999923706055 C0.026000000536441803,-2.9549999237060547 1.4759999513626099,-2.322000026702881 2.1029999256134033,-0.9919999837875366 C2.7300000190734863,0.3370000123977661 2.296999931335449,1.8589999675750732 1.1360000371932983,2.4070000648498535 C-0.026000000536441803,2.9549999237060547 -1.475000023841858,2.321000099182129 -2.1019999980926514,0.9909999966621399 C-2.7300000190734863,-0.33799999952316284 -2.296999931335449,-1.8600000143051147 -1.1349999904632568,-2.4079999923706055z"></path></g><g opacity="1" transform="matrix(1,0,0,1,439.7080078125,367.97601318359375)"><path fill="rgb(240,108,94)" fill-opacity="1" d=" M-2.0429999828338623,-1.7050000429153442 C-1.2200000286102295,-2.690999984741211 0.3610000014305115,-2.7269999980926514 1.4900000095367432,-1.784999966621399 C2.61899995803833,-0.8429999947547913 2.867000102996826,0.718999981880188 2.0439999103546143,1.7050000429153442 C1.222000002861023,2.690999984741211 -0.36000001430511475,2.7269999980926514 -1.4889999628067017,1.784999966621399 C-2.617000102996826,0.8429999947547913 -2.865999937057495,-0.718999981880188 -2.0429999828338623,-1.7050000429153442z"></path></g><g opacity="1" transform="matrix(1,0,0,1,436.1189880371094,365.8760070800781)"><path fill="rgb(240,108,94)" fill-opacity="1" d=" M-2.625,-0.4390000104904175 C-2.4140000343322754,-1.7050000429153442 -1.0679999589920044,-2.5360000133514404 0.38199999928474426,-2.2939999103546143 C1.8320000171661377,-2.052000045776367 2.8369998931884766,-0.828000009059906 2.625,0.4390000104904175 C2.4140000343322754,1.7059999704360962 1.0670000314712524,2.5360000133514404 -0.382999986410141,2.2939999103546143 C-1.8329999446868896,2.052000045776367 -2.8359999656677246,0.828000009059906 -2.625,-0.4390000104904175z"></path></g><g opacity="1" transform="matrix(1,0,0,1,0,0)"><path stroke-linecap="round" stroke-linejoin="round" fill-opacity="0" stroke="rgb(248,157,28)" stroke-opacity="1" stroke-width="3.611" d=" M422.3699951171875,365.08599853515625 C422.3699951171875,365.08599853515625 440.4410095214844,365.08599853515625 440.4410095214844,365.08599853515625"></path></g><g opacity="1" transform="matrix(1,0,0,1,431.4049987792969,359.9830017089844)"><path fill="rgb(248,157,28)" fill-opacity="1" d=" M7.853000164031982,5.103000164031982 C7.853000164031982,5.103000164031982 7.853000164031982,2.75 7.853000164031982,2.75 C7.853000164031982,-1.569000005722046 4.318999767303467,-5.103000164031982 0,-5.103000164031982 C-4.317999839782715,-5.103000164031982 -7.853000164031982,-1.569000005722046 -7.853000164031982,2.75 C-7.853000164031982,2.75 -7.853000164031982,5.103000164031982 -7.853000164031982,5.103000164031982 C-7.853000164031982,5.103000164031982 7.853000164031982,5.103000164031982 7.853000164031982,5.103000164031982z"></path></g><g opacity="1" transform="matrix(0.5580000281333923,0,0,0.5580000281333923,427.62298583984375,372.947998046875)"><path fill="rgb(77,67,95)" fill-opacity="1" d=" M3.5,0 C3.5,0 3.5,0 3.5,0 C3.5,1.388528823852539 2.37262225151062,2.515906572341919 0.984093427658081,2.515906572341919 C0.984093427658081,2.515906572341919 -0.984093427658081,2.515906572341919 -0.984093427658081,2.515906572341919 C-2.37262225151062,2.515906572341919 -3.5,1.388528823852539 -3.5,0 C-3.5,0 -3.5,0 -3.5,0 C-3.5,-1.388528823852539 -2.37262225151062,-2.515906572341919 -0.984093427658081,-2.515906572341919 C-0.984093427658081,-2.515906572341919 0.984093427658081,-2.515906572341919 0.984093427658081,-2.515906572341919 C2.37262225151062,-2.515906572341919 3.5,-1.388528823852539 3.5,0z"></path></g><g opacity="1" transform="matrix(0.5580000281333923,0,0,0.5580000281333923,435.37298583984375,372.947998046875)"><path fill="rgb(77,67,95)" fill-opacity="1" d=" M3.5,0 C3.5,0 3.5,0 3.5,0 C3.5,1.388528823852539 2.37262225151062,2.515906572341919 0.984093427658081,2.515906572341919 C0.984093427658081,2.515906572341919 -0.984093427658081,2.515906572341919 -0.984093427658081,2.515906572341919 C-2.37262225151062,2.515906572341919 -3.5,1.388528823852539 -3.5,0 C-3.5,0 -3.5,0 -3.5,0 C-3.5,-1.388528823852539 -2.37262225151062,-2.515906572341919 -0.984093427658081,-2.515906572341919 C-0.984093427658081,-2.515906572341919 0.984093427658081,-2.515906572341919 0.984093427658081,-2.515906572341919 C2.37262225151062,-2.515906572341919 3.5,-1.388528823852539 3.5,0z"></path></g></g><g transform="matrix(0.33282271027565,0.010864739306271076,-0.010864739306271076,0.33282271027565,-106.29984283447266,-96.38379669189453)" opacity="1" style="display: block;"><g opacity="1" transform="matrix(1,0,0,1,455.5679931640625,403.1470031738281)"><path fill="rgb(77,67,95)" fill-opacity="1" d=" M0,-7.877999782562256 C0,-7.877999782562256 0,-7.877999782562256 0,-7.877999782562256 C-6.823999881744385,-7.877999782562256 -12.406999588012695,-2.2950000762939453 -12.406999588012695,4.5289998054504395 C-12.406999588012695,4.5289998054504395 -12.406999588012695,7.877999782562256 -12.406999588012695,7.877999782562256 C-12.406999588012695,7.877999782562256 12.406999588012695,7.877999782562256 12.406999588012695,7.877999782562256 C12.406999588012695,7.877999782562256 12.406999588012695,4.5289998054504395 12.406999588012695,4.5289998054504395 C12.406999588012695,-2.2950000762939453 6.823999881744385,-7.877999782562256 0,-7.877999782562256z"></path></g><g opacity="1" transform="matrix(1,0,0,1,467.86199951171875,393.6570129394531)"><path fill="rgb(247,156,128)" fill-opacity="1" d=" M3.2799999713897705,-1.2039999961853027 C1.3569999933242798,-6.445000171661377 -3.4820001125335693,-9.489999771118164 -3.4820001125335693,-9.489999771118164 C-3.4820001125335693,-9.489999771118164 -5.203000068664551,-4.0370001792907715 -3.2809998989105225,1.2029999494552612 C-1.3580000400543213,6.443999767303467 3.4820001125335693,9.489999771118164 3.4820001125335693,9.489999771118164 C3.4820001125335693,9.489999771118164 5.203000068664551,4.0370001792907715 3.2799999713897705,-1.2039999961853027z"></path></g><g opacity="1" transform="matrix(1,0,0,1,455.5690002441406,389.7139892578125)"><path fill="rgb(252,215,190)" fill-opacity="1" d=" M12.406999588012695,0 C12.406999588012695,-6.853000164031982 6.8520002365112305,-12.406999588012695 0,-12.406999588012695 C-6.853000164031982,-12.406999588012695 -12.406999588012695,-6.853000164031982 -12.406999588012695,0 C-12.406999588012695,6.853000164031982 -6.853000164031982,12.406999588012695 0,12.406999588012695 C6.8520002365112305,12.406999588012695 12.406999588012695,6.853000164031982 12.406999588012695,0z"></path></g><g opacity="1" transform="matrix(1,0,0,1,455.5679931640625,395.8139953613281)"><path fill="rgb(77,67,95)" fill-opacity="1" d=" M0,-0.7300000190734863 C-2.239000082015991,-0.7300000190734863 -4.300000190734863,-1.4559999704360962 -5.995999813079834,-2.6619999408721924 C-5.567999839782715,0.3269999921321869 -3.1059999465942383,2.6619999408721924 0,2.6619999408721924 C3.1059999465942383,2.6619999408721924 5.567999839782715,0.3269999921321869 5.995999813079834,-2.6619999408721924 C4.300000190734863,-1.4559999704360962 2.239000082015991,-0.7300000190734863 0,-0.7300000190734863z"></path></g><g opacity="1" transform="matrix(1,0,0,1,449.614990234375,382.9460144042969)"><path fill="rgb(247,156,128)" fill-opacity="1" d=" M-6.736999988555908,5.821000099182129 C6.736999988555908,1.194000005722046 5.953999996185303,-5.821000099182129 5.953999996185303,-5.821000099182129 C-0.7200000286102295,-5.821000099182129 -6.138999938964844,-0.6970000267028809 -6.736999988555908,5.821000099182129z"></path></g><g opacity="1" transform="matrix(1,0,0,1,461.5220031738281,382.9460144042969)"><path fill="rgb(247,156,128)" fill-opacity="1" d=" M6.736999988555908,5.821000099182129 C6.138999938964844,-0.6970000267028809 0.7200000286102295,-5.821000099182129 -5.953999996185303,-5.821000099182129 C-5.953999996185303,-5.821000099182129 -6.736999988555908,1.194000005722046 6.736999988555908,5.821000099182129z"></path></g><g opacity="1" transform="matrix(0.5580000281333923,0,0,0.5580000281333923,451.3479919433594,388.6700134277344)"><path fill="rgb(77,67,95)" fill-opacity="1" d=" M3.5,0 C3.5,0 3.5,0 3.5,0 C3.5,1.9316500425338745 1.9316500425338745,3.5 0,3.5 C0,3.5 0,3.5 0,3.5 C-1.9316500425338745,3.5 -3.5,1.9316500425338745 -3.5,0 C-3.5,0 -3.5,0 -3.5,0 C-3.5,-1.9316500425338745 -1.9316500425338745,-3.5 0,-3.5 C0,-3.5 0,-3.5 0,-3.5 C1.9316500425338745,-3.5 3.5,-1.9316500425338745 3.5,0z"></path></g><g opacity="1" transform="matrix(0.5580000281333923,0,0,0.5580000281333923,459.0979919433594,388.6700134277344)"><path fill="rgb(77,67,95)" fill-opacity="1" d=" M3.5,0 C3.5,0 3.5,0 3.5,0 C3.5,1.9316500425338745 1.9316500425338745,3.5 0,3.5 C0,3.5 0,3.5 0,3.5 C-1.9316500425338745,3.5 -3.5,1.9316500425338745 -3.5,0 C-3.5,0 -3.5,0 -3.5,0 C-3.5,-1.9316500425338745 -1.9316500425338745,-3.5 0,-3.5 C0,-3.5 0,-3.5 0,-3.5 C1.9316500425338745,-3.5 3.5,-1.9316500425338745 3.5,0z"></path></g></g><g transform="matrix(0.3327229917049408,0.013579601421952248,-0.013579601421952248,0.3327229917049408,-105.1483154296875,-97.30430603027344)" opacity="1" style="display: block;"><g opacity="1" transform="matrix(1,0,0,1,407.2409973144531,403.1470031738281)"><path fill="rgb(77,67,95)" fill-opacity="1" d=" M0.0010000000474974513,-7.877999782562256 C0.0010000000474974513,-7.877999782562256 0.0010000000474974513,-7.877999782562256 0.0010000000474974513,-7.877999782562256 C-6.822999954223633,-7.877999782562256 -12.407999992370605,-2.2950000762939453 -12.407999992370605,4.5289998054504395 C-12.407999992370605,4.5289998054504395 -12.407999992370605,7.877999782562256 -12.407999992370605,7.877999782562256 C-12.407999992370605,7.877999782562256 12.407999992370605,7.877999782562256 12.407999992370605,7.877999782562256 C12.407999992370605,7.877999782562256 12.407999992370605,4.5289998054504395 12.407999992370605,4.5289998054504395 C12.407999992370605,-2.2950000762939453 6.824999809265137,-7.877999782562256 0.0010000000474974513,-7.877999782562256z"></path></g><g opacity="1" transform="matrix(1,0,0,1,407.2409973144531,389.7139892578125)"><path fill="rgb(247,156,128)" fill-opacity="1" d=" M12.407999992370605,0 C12.407999992370605,-6.853000164031982 6.8520002365112305,-12.406999588012695 0,-12.406999588012695 C-6.853000164031982,-12.406999588012695 -12.407999992370605,-6.853000164031982 -12.407999992370605,0 C-12.407999992370605,6.853000164031982 -6.853000164031982,12.406999588012695 0,12.406999588012695 C6.8520002365112305,12.406999588012695 12.407999992370605,6.853000164031982 12.407999992370605,0z"></path></g><g opacity="1" transform="matrix(1,0,0,1,407.24200439453125,395.8139953613281)"><path fill="rgb(77,67,95)" fill-opacity="1" d=" M0,-0.7300000190734863 C-2.240000009536743,-0.7300000190734863 -4.300000190734863,-1.4559999704360962 -5.995999813079834,-2.6619999408721924 C-5.567999839782715,0.3269999921321869 -3.1059999465942383,2.6619999408721924 0,2.6619999408721924 C3.1059999465942383,2.6619999408721924 5.567999839782715,0.3269999921321869 5.995999813079834,-2.6619999408721924 C4.300000190734863,-1.4559999704360962 2.239000082015991,-0.7300000190734863 0,-0.7300000190734863z"></path></g><g opacity="1" transform="matrix(1,0,0,1,405.6830139160156,382.9590148925781)"><path fill="rgb(179,82,48)" fill-opacity="1" d=" M9.42300033569336,-2.7669999599456787 C7.2769999504089355,-4.540999889373779 4.560999870300293,-5.651000022888184 1.559000015258789,-5.651000022888184 C-3.243000030517578,-5.651000022888184 -7.360000133514404,-2.8949999809265137 -9.42300033569336,1.0959999561309814 C-9.42300033569336,1.0959999561309814 -8.940999984741211,5.651000022888184 -8.940999984741211,5.651000022888184 C-8.940999984741211,5.651000022888184 -2.2780001163482666,-1.440999984741211 -2.2780001163482666,-1.440999984741211 C-2.2780001163482666,-1.440999984741211 -2.2780001163482666,2.1050000190734863 -2.2780001163482666,2.1050000190734863 C-2.2780001163482666,2.1050000190734863 9.42300033569336,-2.7669999599456787 9.42300033569336,-2.7669999599456787z"></path></g><g opacity="1" transform="matrix(1,0,0,1,407.2409973144531,374.49798583984375)"><path fill="rgb(0,131,125)" fill-opacity="1" d=" M8.34000015258789,-5.111999988555908 C8.34000015258789,-5.111999988555908 -8.34000015258789,-5.111999988555908 -8.34000015258789,-5.111999988555908 C-8.34000015258789,-5.111999988555908 -8.34000015258789,5.111999988555908 -8.34000015258789,5.111999988555908 C-8.34000015258789,5.111999988555908 8.34000015258789,5.111999988555908 8.34000015258789,5.111999988555908 C8.34000015258789,5.111999988555908 8.34000015258789,-5.111999988555908 8.34000015258789,-5.111999988555908z"></path></g><g opacity="1" transform="matrix(1,0,0,1,407.2409973144531,377.0530090332031)"><path fill="rgb(51,185,157)" fill-opacity="1" d=" M8.34000015258789,-2.555999994277954 C8.34000015258789,-2.555999994277954 -8.34000015258789,-2.555999994277954 -8.34000015258789,-2.555999994277954 C-8.34000015258789,-2.555999994277954 -8.34000015258789,2.555999994277954 -8.34000015258789,2.555999994277954 C-8.34000015258789,2.555999994277954 8.34000015258789,2.555999994277954 8.34000015258789,2.555999994277954 C8.34000015258789,2.555999994277954 8.34000015258789,-2.555999994277954 8.34000015258789,-2.555999994277954z"></path></g><g opacity="1" transform="matrix(1,0,0,1,0,0)"><path stroke-linecap="round" stroke-linejoin="round" fill-opacity="0" stroke="rgb(0,131,125)" stroke-opacity="1" stroke-width="3.611" d=" M394.8340148925781,379.57598876953125 C394.8340148925781,379.57598876953125 419.64898681640625,379.57598876953125 419.64898681640625,379.57598876953125"></path></g><g opacity="1" transform="matrix(0.5580000281333923,0,0,0.5580000281333923,403.14300537109375,387.92498779296875)"><path fill="rgb(77,67,95)" fill-opacity="1" d=" M3.5,0 C3.5,0 3.5,0 3.5,0 C3.5,1.9316500425338745 1.9316500425338745,3.5 0,3.5 C0,3.5 0,3.5 0,3.5 C-1.9316500425338745,3.5 -3.5,1.9316500425338745 -3.5,0 C-3.5,0 -3.5,0 -3.5,0 C-3.5,-1.9316500425338745 -1.9316500425338745,-3.5 0,-3.5 C0,-3.5 0,-3.5 0,-3.5 C1.9316500425338745,-3.5 3.5,-1.9316500425338745 3.5,0z"></path></g><g opacity="1" transform="matrix(0.5580000281333923,0,0,0.5580000281333923,410.89300537109375,387.92498779296875)"><path fill="rgb(77,67,95)" fill-opacity="1" d=" M3.5,0 C3.5,0 3.5,0 3.5,0 C3.5,1.9316500425338745 1.9316500425338745,3.5 0,3.5 C0,3.5 0,3.5 0,3.5 C-1.9316500425338745,3.5 -3.5,1.9316500425338745 -3.5,0 C-3.5,0 -3.5,0 -3.5,0 C-3.5,-1.9316500425338745 -1.9316500425338745,-3.5 0,-3.5 C0,-3.5 0,-3.5 0,-3.5 C1.9316500425338745,-3.5 3.5,-1.9316500425338745 3.5,0z"></path></g></g><g transform="matrix(0.332904189825058,0.00798820797353983,-0.00798820797353983,0.332904189825058,-107.52001953125,-95.10086822509766)" opacity="1" style="display: block;"><g opacity="1" transform="matrix(1,0,0,1,413.1189880371094,419.4750061035156)"><path fill="rgb(79,184,79)" fill-opacity="1" d=" M18.285999298095703,-17.34000015258789 C18.285999298095703,-17.34000015258789 -18.285999298095703,-8.449999809265137 -18.285999298095703,-8.449999809265137 C-18.285999298095703,-8.449999809265137 -14.149999618530273,17.34000015258789 18.285999298095703,17.34000015258789 C18.285999298095703,17.34000015258789 18.285999298095703,-17.34000015258789 18.285999298095703,-17.34000015258789z"></path></g><g opacity="1" transform="matrix(1,0,0,1,449.69000244140625,419.4750061035156)"><path fill="rgb(17,128,195)" fill-opacity="1" d=" M-18.28499984741211,-17.34000015258789 C-18.28499984741211,-17.34000015258789 18.28499984741211,-8.449999809265137 18.28499984741211,-8.449999809265137 C18.28499984741211,-8.449999809265137 14.152000427246094,17.34000015258789 -18.28499984741211,17.34000015258789 C-18.28499984741211,17.34000015258789 -18.28499984741211,-17.34000015258789 -18.28499984741211,-17.34000015258789z"></path></g></g><g transform="matrix(0.3330000042915344,0,0,0.3330000042915344,-111.04997253417969,-91.6966781616211)" opacity="1" style="display: block;"><g opacity="1" transform="matrix(1,0,0,1,431.4049987792969,435.77099609375)"><path fill="rgb(255,238,207)" fill-opacity="1" d=" M84.13200378417969,-15.11400032043457 C84.13200378417969,-15.11400032043457 -84.13200378417969,-15.11400032043457 -84.13200378417969,-15.11400032043457 C-84.13200378417969,-15.11400032043457 -74.43099975585938,0 -74.43099975585938,0 C-74.43099975585938,0 -84.13200378417969,15.11400032043457 -84.13200378417969,15.11400032043457 C-84.13200378417969,15.11400032043457 84.13200378417969,15.11400032043457 84.13200378417969,15.11400032043457 C84.13200378417969,15.11400032043457 74.43199920654297,0 74.43199920654297,0 C74.43199920654297,0 84.13200378417969,-15.11400032043457 84.13200378417969,-15.11400032043457z"></path></g><g opacity="1" transform="matrix(1,0,0,1,367.5690002441406,435.62799072265625)"><path fill="rgb(29,153,212)" fill-opacity="1" d=" M-1.6080000400543213,-5 C-1.6080000400543213,-5.376999855041504 -1.4700000286102295,-5.696000099182129 -1.2000000476837158,-5.949999809265137 C-0.9259999990463257,-6.203999996185303 -0.5400000214576721,-6.329999923706055 -0.0430000014603138,-6.329999923706055 C0.4650000035762787,-6.329999923706055 0.8669999837875366,-6.201000213623047 1.1629999876022339,-5.940999984741211 C1.4600000381469727,-5.678999900817871 1.6080000400543213,-5.366000175476074 1.6080000400543213,-5 C1.6080000400543213,-4.656000137329102 1.4600000381469727,-4.360000133514404 1.1629999876022339,-4.111999988555908 C0.8669999837875366,-3.86299991607666 0.4650000035762787,-3.736999988555908 -0.0430000014603138,-3.736999988555908 C-0.5400000214576721,-3.736999988555908 -0.9259999990463257,-3.86299991607666 -1.2000000476837158,-4.111999988555908 C-1.4700000286102295,-4.360000133514404 -1.6080000400543213,-4.656000137329102 -1.6080000400543213,-5z"></path></g><g opacity="1" transform="matrix(1,0,0,1,367.5690002441406,435.62799072265625)"><path fill="rgb(29,153,212)" fill-opacity="1" d=" M-1.2330000400543213,-2.992000102996826 C-1.2330000400543213,-2.992000102996826 1.253000020980835,-2.992000102996826 1.253000020980835,-2.992000102996826 C1.253000020980835,-2.992000102996826 1.253000020980835,6.329999923706055 1.253000020980835,6.329999923706055 C1.253000020980835,6.329999923706055 -1.2330000400543213,6.329999923706055 -1.2330000400543213,6.329999923706055 C-1.2330000400543213,6.329999923706055 -1.2330000400543213,-2.992000102996826 -1.2330000400543213,-2.992000102996826z"></path></g><g opacity="1" transform="matrix(1,0,0,1,373.2250061035156,436.47198486328125)"><path fill="rgb(29,153,212)" fill-opacity="1" d=" M-3.4089999198913574,-3.8359999656677246 C-3.4089999198913574,-3.8359999656677246 -1.9900000095367432,-3.8359999656677246 -1.9900000095367432,-3.8359999656677246 C-1.9900000095367432,-3.8359999656677246 -1.9900000095367432,-5.114999771118164 -1.9900000095367432,-5.114999771118164 C-1.9900000095367432,-5.114999771118164 0.4950000047683716,-5.770999908447266 0.4950000047683716,-5.770999908447266 C0.4950000047683716,-5.770999908447266 0.4950000047683716,-3.8359999656677246 0.4950000047683716,-3.8359999656677246 C0.4950000047683716,-3.8359999656677246 3.000999927520752,-3.8359999656677246 3.000999927520752,-3.8359999656677246 C3.000999927520752,-3.8359999656677246 3.000999927520752,-1.7599999904632568 3.000999927520752,-1.7599999904632568 C3.000999927520752,-1.7599999904632568 0.4950000047683716,-1.7599999904632568 0.4950000047683716,-1.7599999904632568 C0.4950000047683716,-1.7599999904632568 0.4950000047683716,1.472000002861023 0.4950000047683716,1.472000002861023 C0.4950000047683716,2.2179999351501465 0.5699999928474426,2.755000114440918 0.718999981880188,3.0820000171661377 C0.8669999837875366,3.4059998989105225 1.159999966621399,3.566999912261963 1.5959999561309814,3.566999912261963 C1.8700000047683716,3.566999912261963 2.1029999256134033,3.546999931335449 2.2899999618530273,3.505000114440918 C2.4800000190734863,3.4630000591278076 2.680999994277954,3.3959999084472656 2.8959999084472656,3.3010001182556152 C2.8959999084472656,3.3010001182556152 3.4089999198913574,5.166999816894531 3.4089999198913574,5.166999816894531 C3.0290000438690186,5.331999778747559 2.5929999351501465,5.474999904632568 2.1040000915527344,5.5920000076293945 C1.6119999885559082,5.709000110626221 1.1360000371932983,5.770999908447266 0.675000011920929,5.770999908447266 C-0.25,5.770999908447266 -0.9240000247955322,5.541999816894531 -1.3509999513626099,5.085999965667725 C-1.7760000228881836,4.63100004196167 -1.9900000095367432,3.8989999294281006 -1.9900000095367432,2.8929998874664307 C-1.9900000095367432,2.8929998874664307 -1.9900000095367432,-1.7599999904632568 -1.9900000095367432,-1.7599999904632568 C-1.9900000095367432,-1.7599999904632568 -3.4089999198913574,-1.7599999904632568 -3.4089999198913574,-1.7599999904632568 C-3.4089999198913574,-1.7599999904632568 -3.4089999198913574,-3.8359999656677246 -3.4089999198913574,-3.8359999656677246z"></path></g><g opacity="1" transform="matrix(1,0,0,1,378.0889892578125,431.59698486328125)"><path fill="rgb(29,153,212)" fill-opacity="1" d=" M-1.4199999570846558,-1.0390000343322754 C-1.4199999570846558,-1.3940000534057617 -1.2979999780654907,-1.6820000410079956 -1.0499999523162842,-1.8990000486373901 C-0.8009999990463257,-2.119999885559082 -0.48500001430511475,-2.2290000915527344 -0.10899999737739563,-2.2290000915527344 C0.367000013589859,-2.2290000915527344 0.7379999756813049,-2.0810000896453857 1.0119999647140503,-1.784999966621399 C1.2829999923706055,-1.4889999628067017 1.4199999570846558,-1.1089999675750732 1.4199999570846558,-0.6480000019073486 C1.4199999570846558,-0.1509999930858612 1.3389999866485596,0.26600000262260437 1.1799999475479126,0.6039999723434448 C1.0199999809265137,0.9409999847412109 0.8259999752044678,1.2209999561309814 0.593999981880188,1.4470000267028809 C0.36500000953674316,1.6699999570846558 0.12700000405311584,1.847000002861023 -0.11599999666213989,1.968999981880188 C-0.3580000102519989,2.0950000286102295 -0.5690000057220459,2.181999921798706 -0.7450000047683716,2.2290000915527344 C-0.7450000047683716,2.2290000915527344 -1.3669999837875366,1.1820000410079956 -1.3669999837875366,1.1820000410079956 C-1.1080000400543213,1.0870000123977661 -0.8820000290870667,0.953000009059906 -0.6919999718666077,0.7820000052452087 C-0.5049999952316284,0.609000027179718 -0.39899998903274536,0.3880000114440918 -0.37400001287460327,0.11500000208616257 C-0.621999979019165,0.14000000059604645 -0.8600000143051147,0.05000000074505806 -1.0829999446868896,-0.1509999930858612 C-1.309999942779541,-0.35199999809265137 -1.4199999570846558,-0.6480000019073486 -1.4199999570846558,-1.0390000343322754z"></path></g><g opacity="1" transform="matrix(1,0,0,1,382.41400146484375,437.2959899902344)"><path fill="rgb(29,153,212)" fill-opacity="1" d=" M-3.0280001163482666,2.246000051498413 C-2.8610000610351562,2.3289999961853027 -2.6710000038146973,2.4130001068115234 -2.450000047683716,2.494999885559082 C-2.2320001125335693,2.578000068664551 -1.99399995803833,2.6570000648498535 -1.7400000095367432,2.7260000705718994 C-1.4859999418258667,2.7990000247955322 -1.2230000495910645,2.8570001125335693 -0.9580000042915344,2.9049999713897705 C-0.6930000185966492,2.953000068664551 -0.421999990940094,2.9749999046325684 -0.1509999930858612,2.9749999046325684 C0.2630000114440918,2.9749999046325684 0.5870000123977661,2.9110000133514404 0.8190000057220459,2.7790000438690186 C1.0479999780654907,2.6510000228881836 1.1649999618530273,2.4079999923706055 1.1649999618530273,2.052999973297119 C1.1649999618530273,1.7680000066757202 1.0089999437332153,1.559000015258789 0.7009999752044678,1.4220000505447388 C0.39399999380111694,1.284999966621399 0.014000000432133675,1.1540000438690186 -0.4359999895095825,1.0219999551773071 C-0.7649999856948853,0.9269999861717224 -1.1109999418258667,0.8149999976158142 -1.472000002861023,0.6840000152587891 C-1.8350000381469727,0.5529999732971191 -2.1649999618530273,0.3799999952316284 -2.4660000801086426,0.16200000047683716 C-2.7679998874664307,-0.05900000035762787 -3.0169999599456787,-0.34599998593330383 -3.2130000591278076,-0.7009999752044678 C-3.4079999923706055,-1.055999994277954 -3.50600004196167,-1.50600004196167 -3.50600004196167,-2.049999952316284 C-3.50600004196167,-2.9860000610351562 -3.2179999351501465,-3.6989998817443848 -2.63700008392334,-4.190999984741211 C-2.055999994277954,-4.682000160217285 -1.2200000286102295,-4.927999973297119 -0.1340000033378601,-4.927999973297119 C0.578000009059906,-4.927999973297119 1.2430000305175781,-4.86299991607666 1.8660000562667847,-4.741000175476074 C2.4860000610351562,-4.614999771118164 2.9860000610351562,-4.46999979019165 3.365999937057495,-4.304999828338623 C3.365999937057495,-4.304999828338623 2.8489999771118164,-2.421999931335449 2.8489999771118164,-2.421999931335449 C2.5420000553131104,-2.5420000553131104 2.1480000019073486,-2.6619999408721924 1.6710000038146973,-2.7880001068115234 C1.190000057220459,-2.9110000133514404 0.7009999752044678,-2.9719998836517334 0.20399999618530273,-2.9719998836517334 C-0.20999999344348907,-2.9719998836517334 -0.5170000195503235,-2.9110000133514404 -0.7179999947547913,-2.7880001068115234 C-0.9190000295639038,-2.6619999408721924 -1.0199999809265137,-2.447000026702881 -1.0199999809265137,-2.140000104904175 C-1.0199999809265137,-1.8660000562667847 -0.8629999756813049,-1.6619999408721924 -0.550000011920929,-1.524999976158142 C-0.2370000034570694,-1.3910000324249268 0.14499999582767487,-1.2569999694824219 0.5950000286102295,-1.1260000467300415 C0.9279999732971191,-1.031000018119812 1.2740000486373901,-0.921999990940094 1.6339999437332153,-0.7990000247955322 C1.99399995803833,-0.6729999780654907 2.3239998817443848,-0.5059999823570251 2.619999885559082,-0.2939999997615814 C2.9159998893737793,-0.07800000160932541 3.1619999408721924,0.19499999284744263 3.3580000400543213,0.5339999794960022 C3.553999900817871,0.8709999918937683 3.6480000019073486,1.2929999828338623 3.6480000019073486,1.8049999475479126 C3.6480000019073486,2.7990000247955322 3.3269999027252197,3.566999912261963 2.681999921798706,4.111999988555908 C2.0360000133514404,4.6570000648498535 1.0700000524520874,4.927999973297119 -0.2199999988079071,4.927999973297119 C-0.9190000295639038,4.927999973297119 -1.5700000524520874,4.866000175476074 -2.1760001182556152,4.743000030517578 C-2.7790000438690186,4.618000030517578 -3.2709999084472656,4.438000202178955 -3.6480000019073486,4.201000213623047 C-3.6480000019073486,4.201000213623047 -3.0280001163482666,2.246000051498413 -3.0280001163482666,2.246000051498413z"></path></g><g opacity="1" transform="matrix(1,0,0,1,395.0580139160156,437.2799987792969)"><path fill="rgb(29,153,212)" fill-opacity="1" d=" M-3.684999942779541,-4.004000186920166 C-3.1510000228881836,-4.241000175476074 -2.497999906539917,-4.436999797821045 -1.7239999771118164,-4.590000152587891 C-0.9470000267028809,-4.74399995803833 -0.14499999582767487,-4.822000026702881 0.6840000152587891,-4.822000026702881 C1.3350000381469727,-4.822000026702881 1.8819999694824219,-4.74399995803833 2.3269999027252197,-4.590000152587891 C2.7709999084472656,-4.436999797821045 3.122999906539917,-4.216000080108643 3.382999897003174,-3.924999952316284 C3.6429998874664307,-3.634999990463257 3.8299999237060547,-3.2860000133514404 3.940999984741211,-2.878000020980835 C4.052999973297119,-2.4700000286102295 4.111999988555908,-2.0169999599456787 4.111999988555908,-1.5199999809265137 C4.111999988555908,-0.9129999876022339 4.085999965667725,-0.3149999976158142 4.039000034332275,0.2770000100135803 C3.992000102996826,0.8659999966621399 3.9690001010894775,1.49399995803833 3.9690001010894775,2.1559998989105225 C3.9690001010894775,2.6050000190734863 3.996999979019165,3.0439999103546143 4.056000232696533,3.4719998836517334 C4.117000102996826,3.8959999084472656 4.210000038146973,4.308000087738037 4.341000080108643,4.696000099182129 C4.341000080108643,4.696000099182129 2.315000057220459,4.696000099182129 2.315000057220459,4.696000099182129 C2.315000057220459,4.696000099182129 1.9079999923706055,3.312999963760376 1.9079999923706055,3.312999963760376 C1.9079999923706055,3.312999963760376 1.6950000524520874,3.312999963760376 1.6950000524520874,3.312999963760376 C1.3880000114440918,3.7269999980926514 0.996999979019165,4.081999778747559 0.5220000147819519,4.376999855041504 C0.05000000074505806,4.673999786376953 -0.5590000152587891,4.822000026702881 -1.3049999475479126,4.822000026702881 C-1.753999948501587,4.822000026702881 -2.1679999828338623,4.756999969482422 -2.5399999618530273,4.625999927520752 C-2.9140000343322754,4.494999885559082 -3.2320001125335693,4.310999870300293 -3.497999906539917,4.066999912261963 C-3.7660000324249268,3.825000047683716 -3.9730000495910645,3.5360000133514404 -4.120999813079834,3.2039999961853027 C-4.269000053405762,2.874000072479248 -4.341000080108643,2.510999917984009 -4.341000080108643,2.121999979019165 C-4.341000080108643,1.065999984741211 -3.989000082015991,0.27399998903274536 -3.2850000858306885,-0.26499998569488525 C-2.5820000171661377,-0.8040000200271606 -1.5110000371932983,-1.0750000476837158 -0.08100000023841858,-1.0750000476837158 C0.25099998712539673,-1.0750000476837158 0.5839999914169312,-1.0470000505447388 0.9129999876022339,-0.9940000176429749 C1.246000051498413,-0.9409999847412109 1.4780000448226929,-0.902999997138977 1.6059999465942383,-0.8809999823570251 C1.6419999599456787,-1.128999948501587 1.659000039100647,-1.340000033378601 1.659000039100647,-1.5199999809265137 C1.659000039100647,-1.968999981880188 1.5470000505447388,-2.2990000247955322 1.3240000009536743,-2.510999917984009 C1.0980000495910645,-2.7260000705718994 0.6759999990463257,-2.8320000171661377 0.061000000685453415,-2.8320000171661377 C-0.5059999823570251,-2.8320000171661377 -1.059000015258789,-2.763000011444092 -1.5980000495910645,-2.628999948501587 C-2.13700008392334,-2.493000030517578 -2.615000009536743,-2.3239998817443848 -3.0280001163482666,-2.122999906539917 C-3.0280001163482666,-2.122999906539917 -3.684999942779541,-4.004000186920166 -3.684999942779541,-4.004000186920166z"></path></g><g opacity="1" transform="matrix(1,0,0,1,395.0580139160156,437.3819885253906)"><path fill="rgb(255,239,207)" fill-opacity="1" d=" M-0.4359999895095825,2.8320000171661377 C0.11999999731779099,2.8320000171661377 0.5640000104904175,2.7019999027252197 0.8970000147819519,2.441999912261963 C1.2289999723434448,2.181999921798706 1.468999981880188,1.9079999923706055 1.6260000467300415,1.6260000467300415 C1.6260000467300415,1.6260000467300415 1.6260000467300415,0.5580000281333923 1.6260000467300415,0.5580000281333923 C1.5640000104904175,0.5360000133514404 1.475000023841858,0.5120000243186951 1.3489999771118164,0.48899999260902405 C1.2259999513626099,0.46399998664855957 1.0889999866485596,0.4399999976158142 0.9409999847412109,0.41499999165534973 C0.7929999828338623,0.3930000066757202 0.6449999809265137,0.37700000405311584 0.4970000088214874,0.3630000054836273 C0.3490000069141388,0.35199999809265137 0.2150000035762787,0.34599998593330383 0.09799999743700027,0.34599998593330383 C-0.5419999957084656,0.34599998593330383 -1.0140000581741333,0.460999995470047 -1.3240000009536743,0.6930000185966492 C-1.63100004196167,0.925000011920929 -1.784999966621399,1.2089999914169312 -1.784999966621399,1.5520000457763672 C-1.784999966621399,1.9800000190734863 -1.6649999618530273,2.2980000972747803 -1.4220000505447388,2.510999917984009 C-1.1790000200271606,2.7260000705718994 -0.8500000238418579,2.8320000171661377 -0.4359999895095825,2.8320000171661377z"></path></g><g opacity="1" transform="matrix(1,0,0,1,408.2309875488281,437.2959899902344)"><path fill="rgb(29,153,212)" fill-opacity="1" d=" M-3.0280001163482666,2.246000051498413 C-2.8610000610351562,2.3289999961853027 -2.6710000038146973,2.4130001068115234 -2.450000047683716,2.494999885559082 C-2.2320001125335693,2.578000068664551 -1.99399995803833,2.6570000648498535 -1.7400000095367432,2.7260000705718994 C-1.4859999418258667,2.7990000247955322 -1.2230000495910645,2.8570001125335693 -0.9580000042915344,2.9049999713897705 C-0.6930000185966492,2.953000068664551 -0.421999990940094,2.9749999046325684 -0.1509999930858612,2.9749999046325684 C0.2630000114440918,2.9749999046325684 0.5870000123977661,2.9110000133514404 0.8190000057220459,2.7790000438690186 C1.0479999780654907,2.6510000228881836 1.1649999618530273,2.4079999923706055 1.1649999618530273,2.052999973297119 C1.1649999618530273,1.7680000066757202 1.0089999437332153,1.559000015258789 0.7009999752044678,1.4220000505447388 C0.39399999380111694,1.284999966621399 0.014000000432133675,1.1540000438690186 -0.4359999895095825,1.0219999551773071 C-0.7649999856948853,0.9269999861717224 -1.1109999418258667,0.8149999976158142 -1.472000002861023,0.6840000152587891 C-1.8350000381469727,0.5529999732971191 -2.1649999618530273,0.3799999952316284 -2.4660000801086426,0.16200000047683716 C-2.7679998874664307,-0.05900000035762787 -3.0169999599456787,-0.34599998593330383 -3.2130000591278076,-0.7009999752044678 C-3.4079999923706055,-1.055999994277954 -3.50600004196167,-1.50600004196167 -3.50600004196167,-2.049999952316284 C-3.50600004196167,-2.9860000610351562 -3.2179999351501465,-3.6989998817443848 -2.63700008392334,-4.190999984741211 C-2.055999994277954,-4.682000160217285 -1.2200000286102295,-4.927999973297119 -0.1340000033378601,-4.927999973297119 C0.578000009059906,-4.927999973297119 1.2430000305175781,-4.86299991607666 1.8660000562667847,-4.741000175476074 C2.4860000610351562,-4.614999771118164 2.9860000610351562,-4.46999979019165 3.365999937057495,-4.304999828338623 C3.365999937057495,-4.304999828338623 2.8489999771118164,-2.421999931335449 2.8489999771118164,-2.421999931335449 C2.5420000553131104,-2.5420000553131104 2.1480000019073486,-2.6619999408721924 1.6710000038146973,-2.7880001068115234 C1.190000057220459,-2.9110000133514404 0.7009999752044678,-2.9719998836517334 0.20399999618530273,-2.9719998836517334 C-0.20999999344348907,-2.9719998836517334 -0.5170000195503235,-2.9110000133514404 -0.7179999947547913,-2.7880001068115234 C-0.9190000295639038,-2.6619999408721924 -1.0199999809265137,-2.447000026702881 -1.0199999809265137,-2.140000104904175 C-1.0199999809265137,-1.8660000562667847 -0.8629999756813049,-1.6619999408721924 -0.550000011920929,-1.524999976158142 C-0.2370000034570694,-1.3910000324249268 0.14499999582767487,-1.2569999694824219 0.5950000286102295,-1.1260000467300415 C0.9279999732971191,-1.031000018119812 1.2740000486373901,-0.921999990940094 1.6339999437332153,-0.7990000247955322 C1.99399995803833,-0.6729999780654907 2.3239998817443848,-0.5059999823570251 2.619999885559082,-0.2939999997615814 C2.9159998893737793,-0.07800000160932541 3.1619999408721924,0.19499999284744263 3.3580000400543213,0.5339999794960022 C3.553999900817871,0.8709999918937683 3.6480000019073486,1.2929999828338623 3.6480000019073486,1.8049999475479126 C3.6480000019073486,2.7990000247955322 3.3269999027252197,3.566999912261963 2.681999921798706,4.111999988555908 C2.0360000133514404,4.6570000648498535 1.0700000524520874,4.927999973297119 -0.2199999988079071,4.927999973297119 C-0.9190000295639038,4.927999973297119 -1.5700000524520874,4.866000175476074 -2.1760001182556152,4.743000030517578 C-2.7790000438690186,4.618000030517578 -3.2709999084472656,4.438000202178955 -3.6480000019073486,4.201000213623047 C-3.6480000019073486,4.201000213623047 -3.0280001163482666,2.246000051498413 -3.0280001163482666,2.246000051498413z"></path></g><g opacity="1" transform="matrix(1,0,0,1,420.156005859375,437.1629943847656)"><path fill="rgb(29,153,212)" fill-opacity="1" d=" M-1.2430000305175781,4.795000076293945 C-1.2430000305175781,4.795000076293945 -1.2430000305175781,-0.07100000232458115 -1.2430000305175781,-0.07100000232458115 C-1.2430000305175781,-0.9710000157356262 -1.3380000591278076,-1.6160000562667847 -1.527999997138977,-2.006999969482422 C-1.718000054359436,-2.3949999809265137 -2.1089999675750732,-2.5910000801086426 -2.7009999752044678,-2.5910000801086426 C-3.197999954223633,-2.5910000801086426 -3.5950000286102295,-2.4709999561309814 -3.888000011444092,-2.2269999980926514 C-4.184000015258789,-1.9850000143051147 -4.415999889373779,-1.6690000295639038 -4.580999851226807,-1.277999997138977 C-4.580999851226807,-1.277999997138977 -4.580999851226807,4.795000076293945 -4.580999851226807,4.795000076293945 C-4.580999851226807,4.795000076293945 -7.067999839782715,4.795000076293945 -7.067999839782715,4.795000076293945 C-7.067999839782715,4.795000076293945 -7.067999839782715,-4.5269999504089355 -7.067999839782715,-4.5269999504089355 C-7.067999839782715,-4.5269999504089355 -5.151000022888184,-4.5269999504089355 -5.151000022888184,-4.5269999504089355 C-5.151000022888184,-4.5269999504089355 -4.866000175476074,-3.2300000190734863 -4.866000175476074,-3.2300000190734863 C-4.866000175476074,-3.2300000190734863 -4.633999824523926,-3.2300000190734863 -4.633999824523926,-3.2300000190734863 C-4.480000019073486,-3.431999921798706 -4.304999828338623,-3.627000093460083 -4.103000164031982,-3.816999912261963 C-3.9019999504089355,-4.006999969482422 -3.678999900817871,-4.171999931335449 -3.434999942779541,-4.314000129699707 C-3.194999933242798,-4.456999778747559 -2.921999931335449,-4.571000099182129 -2.619999885559082,-4.660999774932861 C-2.318000078201294,-4.75 -1.9769999980926514,-4.795000076293945 -1.597000002861023,-4.795000076293945 C-0.972000002861023,-4.795000076293945 -0.44699999690055847,-4.65500020980835 -0.02800000086426735,-4.375999927520752 C0.39399999380111694,-4.098999977111816 0.7260000109672546,-3.632999897003174 0.9739999771118164,-2.9820001125335693 C1.3179999589920044,-3.552000045776367 1.7380000352859497,-3.996000051498413 2.2269999980926514,-4.314000129699707 C2.7179999351501465,-4.632999897003174 3.2909998893737793,-4.795000076293945 3.941999912261963,-4.795000076293945 C4.508999824523926,-4.795000076293945 4.992000102996826,-4.728000164031982 5.388999938964844,-4.598999977111816 C5.784999847412109,-4.4679999351501465 6.10699987411499,-4.244999885559082 6.355000019073486,-3.9230000972747803 C6.604000091552734,-3.6050000190734863 6.784999847412109,-3.171999931335449 6.896999835968018,-2.627000093460083 C7.01200008392334,-2.0820000171661377 7.067999839782715,-1.4040000438690186 7.067999839782715,-0.5849999785423279 C7.067999839782715,-0.5849999785423279 7.067999839782715,4.795000076293945 7.067999839782715,4.795000076293945 C7.067999839782715,4.795000076293945 4.581999778747559,4.795000076293945 4.581999778747559,4.795000076293945 C4.581999778747559,4.795000076293945 4.581999778747559,-0.1940000057220459 4.581999778747559,-0.1940000057220459 C4.581999778747559,-0.5849999785423279 4.561999797821045,-0.9290000200271606 4.5279998779296875,-1.225000023841858 C4.492000102996826,-1.5210000276565552 4.422999858856201,-1.7719999551773071 4.313000202178955,-1.9789999723434448 C4.206999778747559,-2.184999942779541 4.054999828338623,-2.3389999866485596 3.859999895095825,-2.440000057220459 C3.6640000343322754,-2.5399999618530273 3.4070000648498535,-2.5910000801086426 3.0889999866485596,-2.5910000801086426 C2.5910000801086426,-2.5910000801086426 2.193000078201294,-2.4649999141693115 1.8910000324249268,-2.2109999656677246 C1.590000033378601,-1.9559999704360962 1.371999979019165,-1.6050000190734863 1.2430000305175781,-1.1549999713897705 C1.2430000305175781,-1.1549999713897705 1.2430000305175781,4.795000076293945 1.2430000305175781,4.795000076293945 C1.2430000305175781,4.795000076293945 -1.2430000305175781,4.795000076293945 -1.2430000305175781,4.795000076293945z"></path></g><g opacity="1" transform="matrix(1,0,0,1,432.6659851074219,437.2799987792969)"><path fill="rgb(29,153,212)" fill-opacity="1" d=" M-3.684999942779541,-4.004000186920166 C-3.1510000228881836,-4.241000175476074 -2.497999906539917,-4.436999797821045 -1.7239999771118164,-4.590000152587891 C-0.9470000267028809,-4.74399995803833 -0.14499999582767487,-4.822000026702881 0.6840000152587891,-4.822000026702881 C1.3350000381469727,-4.822000026702881 1.8830000162124634,-4.74399995803833 2.3269999027252197,-4.590000152587891 C2.7709999084472656,-4.436999797821045 3.122999906539917,-4.216000080108643 3.382999897003174,-3.924999952316284 C3.6429998874664307,-3.634999990463257 3.8299999237060547,-3.2860000133514404 3.940999984741211,-2.878000020980835 C4.052999973297119,-2.4700000286102295 4.111999988555908,-2.0169999599456787 4.111999988555908,-1.5199999809265137 C4.111999988555908,-0.9129999876022339 4.085999965667725,-0.3149999976158142 4.039000034332275,0.2770000100135803 C3.992000102996826,0.8659999966621399 3.9690001010894775,1.49399995803833 3.9690001010894775,2.1559998989105225 C3.9690001010894775,2.6050000190734863 3.996999979019165,3.0439999103546143 4.056000232696533,3.4719998836517334 C4.117000102996826,3.8959999084472656 4.210000038146973,4.308000087738037 4.341000080108643,4.696000099182129 C4.341000080108643,4.696000099182129 2.315000057220459,4.696000099182129 2.315000057220459,4.696000099182129 C2.315000057220459,4.696000099182129 1.9079999923706055,3.312999963760376 1.9079999923706055,3.312999963760376 C1.9079999923706055,3.312999963760376 1.6950000524520874,3.312999963760376 1.6950000524520874,3.312999963760376 C1.3880000114440918,3.7269999980926514 0.996999979019165,4.081999778747559 0.5220000147819519,4.376999855041504 C0.05000000074505806,4.673999786376953 -0.5590000152587891,4.822000026702881 -1.3049999475479126,4.822000026702881 C-1.753999948501587,4.822000026702881 -2.1679999828338623,4.756999969482422 -2.5399999618530273,4.625999927520752 C-2.9140000343322754,4.494999885559082 -3.2320001125335693,4.310999870300293 -3.497999906539917,4.066999912261963 C-3.7660000324249268,3.825000047683716 -3.9719998836517334,3.5360000133514404 -4.120999813079834,3.2039999961853027 C-4.269000053405762,2.874000072479248 -4.341000080108643,2.510999917984009 -4.341000080108643,2.121999979019165 C-4.341000080108643,1.065999984741211 -3.989000082015991,0.27399998903274536 -3.2850000858306885,-0.26499998569488525 C-2.5810000896453857,-0.8040000200271606 -1.5110000371932983,-1.0750000476837158 -0.08100000023841858,-1.0750000476837158 C0.25099998712539673,-1.0750000476837158 0.5839999914169312,-1.0470000505447388 0.9129999876022339,-0.9940000176429749 C1.246000051498413,-0.9409999847412109 1.4780000448226929,-0.902999997138977 1.6059999465942383,-0.8809999823570251 C1.6430000066757202,-1.128999948501587 1.659000039100647,-1.340000033378601 1.659000039100647,-1.5199999809265137 C1.659000039100647,-1.968999981880188 1.5470000505447388,-2.2990000247955322 1.3240000009536743,-2.510999917984009 C1.0980000495910645,-2.7260000705718994 0.6759999990463257,-2.8320000171661377 0.06199999898672104,-2.8320000171661377 C-0.5059999823570251,-2.8320000171661377 -1.059000015258789,-2.763000011444092 -1.5980000495910645,-2.628999948501587 C-2.13700008392334,-2.493000030517578 -2.615000009536743,-2.3239998817443848 -3.0280001163482666,-2.122999906539917 C-3.0280001163482666,-2.122999906539917 -3.684999942779541,-4.004000186920166 -3.684999942779541,-4.004000186920166z"></path></g><g opacity="1" transform="matrix(1,0,0,1,432.6659851074219,437.3819885253906)"><path fill="rgb(255,239,207)" fill-opacity="1" d=" M-0.4359999895095825,2.8320000171661377 C0.11999999731779099,2.8320000171661377 0.5640000104904175,2.7019999027252197 0.8970000147819519,2.441999912261963 C1.2289999723434448,2.181999921798706 1.468999981880188,1.9079999923706055 1.6260000467300415,1.6260000467300415 C1.6260000467300415,1.6260000467300415 1.6260000467300415,0.5580000281333923 1.6260000467300415,0.5580000281333923 C1.5640000104904175,0.5360000133514404 1.475000023841858,0.5120000243186951 1.3489999771118164,0.48899999260902405 C1.2259999513626099,0.46399998664855957 1.0889999866485596,0.4399999976158142 0.9409999847412109,0.41499999165534973 C0.7929999828338623,0.3930000066757202 0.6449999809265137,0.37700000405311584 0.4970000088214874,0.3630000054836273 C0.3490000069141388,0.35199999809265137 0.2150000035762787,0.34599998593330383 0.09799999743700027,0.34599998593330383 C-0.5419999957084656,0.34599998593330383 -1.0140000581741333,0.460999995470047 -1.3240000009536743,0.6930000185966492 C-1.63100004196167,0.925000011920929 -1.784999966621399,1.2089999914169312 -1.784999966621399,1.5520000457763672 C-1.784999966621399,1.9800000190734863 -1.6649999618530273,2.2980000972747803 -1.4220000505447388,2.510999917984009 C-1.1790000200271606,2.7260000705718994 -0.8489999771118164,2.8320000171661377 -0.4359999895095825,2.8320000171661377z"></path></g><g opacity="1" transform="matrix(1,0,0,1,441.0190124511719,435.885986328125)"><path fill="rgb(29,153,212)" fill-opacity="1" d=" M0.16099999845027924,2.805000066757202 C0.16099999845027924,3.7039999961853027 0.4519999921321869,4.1539998054504395 1.0299999713897705,4.1539998054504395 C1.1950000524520874,4.1539998054504395 1.3530000448226929,4.139999866485596 1.5010000467300415,4.111999988555908 C1.6490000486373901,4.080999851226807 1.8220000267028809,4.031000137329102 2.0230000019073486,3.9609999656677246 C2.0230000019073486,3.9609999656677246 2.325000047683716,5.894000053405762 2.325000047683716,5.894000053405762 C2.0880000591278076,6.002999782562256 1.75600004196167,6.10699987411499 1.3229999542236328,6.206999778747559 C0.8899999856948853,6.308000087738037 0.44200000166893005,6.357999801635742 -0.01899999938905239,6.357999801635742 C-0.7639999985694885,6.357999801635742 -1.3339999914169312,6.190000057220459 -1.7300000190734863,5.861000061035156 C-2.127000093460083,5.5289998054504395 -2.325000047683716,4.984000205993652 -2.325000047683716,4.2270002365112305 C-2.325000047683716,4.2270002365112305 -2.325000047683716,-6.357999801635742 -2.325000047683716,-6.357999801635742 C-2.325000047683716,-6.357999801635742 0.16099999845027924,-6.357999801635742 0.16099999845027924,-6.357999801635742 C0.16099999845027924,-6.357999801635742 0.16099999845027924,2.805000066757202 0.16099999845027924,2.805000066757202z"></path></g><g opacity="1" transform="matrix(1,0,0,1,446.2929992675781,435.885986328125)"><path fill="rgb(29,153,212)" fill-opacity="1" d=" M0.16099999845027924,2.805000066757202 C0.16099999845027924,3.7039999961853027 0.4519999921321869,4.1539998054504395 1.0299999713897705,4.1539998054504395 C1.1950000524520874,4.1539998054504395 1.3530000448226929,4.139999866485596 1.5010000467300415,4.111999988555908 C1.6490000486373901,4.080999851226807 1.8220000267028809,4.031000137329102 2.0230000019073486,3.9609999656677246 C2.0230000019073486,3.9609999656677246 2.325000047683716,5.894000053405762 2.325000047683716,5.894000053405762 C2.0880000591278076,6.002999782562256 1.75600004196167,6.10699987411499 1.3229999542236328,6.206999778747559 C0.8899999856948853,6.308000087738037 0.44200000166893005,6.357999801635742 -0.01899999938905239,6.357999801635742 C-0.7639999985694885,6.357999801635742 -1.3329999446868896,6.190000057220459 -1.7300000190734863,5.861000061035156 C-2.127000093460083,5.5289998054504395 -2.325000047683716,4.984000205993652 -2.325000047683716,4.2270002365112305 C-2.325000047683716,4.2270002365112305 -2.325000047683716,-6.357999801635742 -2.325000047683716,-6.357999801635742 C-2.325000047683716,-6.357999801635742 0.16099999845027924,-6.357999801635742 0.16099999845027924,-6.357999801635742 C0.16099999845027924,-6.357999801635742 0.16099999845027924,2.805000066757202 0.16099999845027924,2.805000066757202z"></path></g><g opacity="1" transform="matrix(1,0,0,1,459.19500732421875,437.3420104980469)"><path fill="rgb(29,153,212)" fill-opacity="1" d=" M1.1089999675750732,-4.705999851226807 C1.4299999475479126,-3.9260001182556152 1.7430000305175781,-3.138000011444092 2.049999952316284,-2.3440001010894775 C2.3580000400543213,-1.5509999990463257 2.6730000972747803,-0.7630000114440918 2.992000102996826,0.01899999938905239 C2.992000102996826,0.01899999938905239 3.3459999561309814,1.5800000429153442 3.3459999561309814,1.5800000429153442 C3.3459999561309814,1.5800000429153442 3.611999988555908,1.5800000429153442 3.611999988555908,1.5800000429153442 C3.611999988555908,1.5800000429153442 3.880000114440918,-0.0010000000474974513 3.880000114440918,-0.0010000000474974513 C4.0920000076293945,-0.7940000295639038 4.309999942779541,-1.5770000219345093 4.535999774932861,-2.3540000915527344 C4.763000011444092,-3.130000114440918 4.980999946594238,-3.9130001068115234 5.192999839782715,-4.705999851226807 C5.192999839782715,-4.705999851226807 7.4670000076293945,-4.705999851226807 7.4670000076293945,-4.705999851226807 C7.4670000076293945,-4.705999851226807 4.288000106811523,4.705999851226807 4.288000106811523,4.705999851226807 C4.288000106811523,4.705999851226807 2.49399995803833,4.705999851226807 2.49399995803833,4.705999851226807 C2.1760001182556152,3.888000011444092 1.8320000171661377,3.0329999923706055 1.4630000591278076,2.1389999389648438 C1.0980000495910645,1.2450000047683716 0.7540000081062317,0.38999998569488525 0.4359999895095825,-0.42500001192092896 C0.4359999895095825,-0.42500001192092896 0.18700000643730164,-1.6349999904632568 0.18700000643730164,-1.6349999904632568 C0.18700000643730164,-1.6349999904632568 -0.1340000033378601,-1.6349999904632568 -0.1340000033378601,-1.6349999904632568 C-0.17000000178813934,-1.430999994277954 -0.20999999344348907,-1.2280000448226929 -0.25699999928474426,-1.0210000276565552 C-0.3050000071525574,-0.8140000104904175 -0.34700000286102295,-0.6100000143051147 -0.382999986410141,-0.4090000092983246 C-0.382999986410141,-0.4090000092983246 -2.319000005722046,4.705999851226807 -2.319000005722046,4.705999851226807 C-2.319000005722046,4.705999851226807 -4.198999881744385,4.705999851226807 -4.198999881744385,4.705999851226807 C-4.198999881744385,4.705999851226807 -7.4670000076293945,-4.705999851226807 -7.4670000076293945,-4.705999851226807 C-7.4670000076293945,-4.705999851226807 -4.76800012588501,-4.705999851226807 -4.76800012588501,-4.705999851226807 C-4.76800012588501,-4.705999851226807 -3.2769999504089355,-0.10700000077486038 -3.2769999504089355,-0.10700000077486038 C-3.2769999504089355,-0.10700000077486038 -3.0280001163482666,1.6169999837875366 -3.0280001163482666,1.6169999837875366 C-3.0280001163482666,1.6169999837875366 -2.763000011444092,1.6169999837875366 -2.763000011444092,1.6169999837875366 C-2.763000011444092,1.6169999837875366 -2.4049999713897705,-0.12399999797344208 -2.4049999713897705,-0.12399999797344208 C-2.4049999713897705,-0.12399999797344208 -0.7210000157356262,-4.705999851226807 -0.7210000157356262,-4.705999851226807 C-0.7210000157356262,-4.705999851226807 1.1089999675750732,-4.705999851226807 1.1089999675750732,-4.705999851226807z"></path></g><g opacity="1" transform="matrix(1,0,0,1,471.0830078125,437.2969970703125)"><path fill="rgb(29,153,212)" fill-opacity="1" d=" M-4.723999977111816,0.010999999940395355 C-4.723999977111816,-1.527999997138977 -4.315999984741211,-2.73799991607666 -3.497999906539917,-3.611999988555908 C-2.681999921798706,-4.488999843597412 -1.5169999599456787,-4.927999973297119 0,-4.927999973297119 C0.7929999828338623,-4.927999973297119 1.4859999418258667,-4.802000045776367 2.078000068664551,-4.552999973297119 C2.6670000553131104,-4.304999828338623 3.1589999198913574,-3.9590001106262207 3.549999952316284,-3.5139999389648438 C3.940999984741211,-3.069999933242798 4.235000133514404,-2.5510001182556152 4.429999828338623,-1.9529999494552612 C4.625999927520752,-1.3550000190734863 4.723999977111816,-0.7009999752044678 4.723999977111816,0.010999999940395355 C4.723999977111816,0.7680000066757202 4.618000030517578,1.4520000219345093 4.4019999504089355,2.061000108718872 C4.190000057220459,2.6700000762939453 3.882999897003174,3.187000036239624 3.4800000190734863,3.615000009536743 C3.078000068664551,4.041999816894531 2.5840001106262207,4.366000175476074 1.996999979019165,4.5920000076293945 C1.4110000133514404,4.815999984741211 0.7459999918937683,4.927999973297119 0,4.927999973297119 C-0.8050000071525574,4.927999973297119 -1.503000020980835,4.803999900817871 -2.0950000286102295,4.556000232696533 C-2.687999963760376,4.307000160217285 -3.178999900817871,3.9609999656677246 -3.569999933242798,3.5169999599456787 C-3.9609999656677246,3.072999954223633 -4.250999927520752,2.552999973297119 -4.439000129699707,1.9550000429153442 C-4.629000186920166,1.3569999933242798 -4.723999977111816,0.7089999914169312 -4.723999977111816,0.010999999940395355z"></path></g><g opacity="1" transform="matrix(1,0,0,1,471.0830078125,437.39898681640625)"><path fill="rgb(255,239,207)" fill-opacity="1" d=" M-2.1679999828338623,0.010999999940395355 C-2.1679999828338623,0.39899998903274536 -2.125999927520752,0.7680000066757202 -2.0420000553131104,1.1119999885559082 C-1.9609999656677246,1.4550000429153442 -1.8329999446868896,1.753999948501587 -1.659000039100647,2.007999897003174 C-1.4889999628067017,2.26200008392334 -1.2680000066757202,2.4660000801086426 -0.9950000047683716,2.619999885559082 C-0.7239999771118164,2.7739999294281006 -0.39100000262260437,2.8519999980926514 0,2.8519999980926514 C1.444000005722046,2.8519999980926514 2.1649999618530273,1.9049999713897705 2.1649999618530273,0.010999999940395355 C2.1649999618530273,-0.4059999883174896 2.128000020980835,-0.7850000262260437 2.049999952316284,-1.1349999904632568 C1.972000002861023,-1.4839999675750732 1.8489999771118164,-1.7879999876022339 1.6790000200271606,-2.0420000553131104 C1.5049999952316284,-2.296999931335449 1.281999945640564,-2.494999885559082 1.003000020980835,-2.63700008392334 C0.7239999771118164,-2.7769999504089355 0.39100000262260437,-2.8489999771118164 0,-2.8489999771118164 C-0.6759999990463257,-2.8489999771118164 -1.2039999961853027,-2.622999906539917 -1.5889999866485596,-2.1740000247955322 C-1.975000023841858,-1.7239999771118164 -2.1679999828338623,-0.996999979019165 -2.1679999828338623,0.010999999940395355z"></path></g><g opacity="1" transform="matrix(1,0,0,1,480.04901123046875,437.19000244140625)"><path fill="rgb(29,153,212)" fill-opacity="1" d=" M2.5739998817443848,-2.2829999923706055 C2.2200000286102295,-2.4000000953674316 1.8650000095367432,-2.4579999446868896 1.5099999904632568,-2.4579999446868896 C0.9879999756813049,-2.4579999446868896 0.5600000023841858,-2.3350000381469727 0.22200000286102295,-2.0859999656677246 C-0.11599999666213989,-1.8380000591278076 -0.3370000123977661,-1.5230000019073486 -0.4429999887943268,-1.1460000276565552 C-0.4429999887943268,-1.1460000276565552 -0.4429999887943268,4.769000053405762 -0.4429999887943268,4.769000053405762 C-0.4429999887943268,4.769000053405762 -2.928999900817871,4.769000053405762 -2.928999900817871,4.769000053405762 C-2.928999900817871,4.769000053405762 -2.928999900817871,-4.553999900817871 -2.928999900817871,-4.553999900817871 C-2.928999900817871,-4.553999900817871 -0.9760000109672546,-4.553999900817871 -0.9760000109672546,-4.553999900817871 C-0.9760000109672546,-4.553999900817871 -0.7110000252723694,-3.256999969482422 -0.7110000252723694,-3.256999969482422 C-0.7110000252723694,-3.256999969482422 -0.4790000021457672,-3.256999969482422 -0.4790000021457672,-3.256999969482422 C-0.24199999868869781,-3.743000030517578 0.07400000095367432,-4.113999843597412 0.4699999988079071,-4.376999855041504 C0.8669999837875366,-4.636000156402588 1.3200000524520874,-4.769000053405762 1.8279999494552612,-4.769000053405762 C2.1500000953674316,-4.769000053405762 2.515000104904175,-4.701000213623047 2.928999900817871,-4.572999954223633 C2.928999900817871,-4.572999954223633 2.5739998817443848,-2.2829999923706055 2.5739998817443848,-2.2829999923706055z"></path></g><g opacity="1" transform="matrix(1,0,0,1,485.9989929199219,435.885986328125)"><path fill="rgb(29,153,212)" fill-opacity="1" d=" M0.16099999845027924,2.805000066757202 C0.16099999845027924,3.7039999961853027 0.4519999921321869,4.1539998054504395 1.0299999713897705,4.1539998054504395 C1.1950000524520874,4.1539998054504395 1.3530000448226929,4.139999866485596 1.5010000467300415,4.111999988555908 C1.6490000486373901,4.080999851226807 1.8220000267028809,4.031000137329102 2.0230000019073486,3.9609999656677246 C2.0230000019073486,3.9609999656677246 2.325000047683716,5.894000053405762 2.325000047683716,5.894000053405762 C2.0869998931884766,6.002999782562256 1.75600004196167,6.10699987411499 1.3229999542236328,6.206999778747559 C0.8899999856948853,6.308000087738037 0.44200000166893005,6.357999801635742 -0.01899999938905239,6.357999801635742 C-0.7649999856948853,6.357999801635742 -1.3339999914169312,6.190000057220459 -1.7300000190734863,5.861000061035156 C-2.127000093460083,5.5289998054504395 -2.325000047683716,4.984000205993652 -2.325000047683716,4.2270002365112305 C-2.325000047683716,4.2270002365112305 -2.325000047683716,-6.357999801635742 -2.325000047683716,-6.357999801635742 C-2.325000047683716,-6.357999801635742 0.16099999845027924,-6.357999801635742 0.16099999845027924,-6.357999801635742 C0.16099999845027924,-6.357999801635742 0.16099999845027924,2.805000066757202 0.16099999845027924,2.805000066757202z"></path></g><g opacity="1" transform="matrix(1,0,0,1,492.9599914550781,435.8760070800781)"><path fill="rgb(29,153,212)" fill-opacity="1" d=" M4.421000003814697,2.815000057220459 C4.421000003814697,3.312000036239624 4.426000118255615,3.8289999961853027 4.440000057220459,4.359000205993652 C4.451000213623047,4.89300012588501 4.505000114440918,5.4730000495910645 4.598999977111816,6.098999977111816 C4.598999977111816,6.098999977111816 2.875999927520752,6.098999977111816 2.875999927520752,6.098999977111816 C2.875999927520752,6.098999977111816 2.5209999084472656,4.802999973297119 2.5209999084472656,4.802999973297119 C2.5209999084472656,4.802999973297119 2.2890000343322754,4.802999973297119 2.2890000343322754,4.802999973297119 C2.0179998874664307,5.2779998779296875 1.6299999952316284,5.6519999504089355 1.1269999742507935,5.931000232696533 C0.6240000128746033,6.208000183105469 0.024000000208616257,6.3480000495910645 -0.675000011920929,6.3480000495910645 C-1.9179999828338623,6.3480000495910645 -2.884000062942505,5.961999893188477 -3.569000005722046,5.185999870300293 C-4.25600004196167,4.408999919891357 -4.598999977111816,3.2109999656677246 -4.598999977111816,1.590999960899353 C-4.598999977111816,0.8090000152587891 -4.501999855041504,0.10400000214576721 -4.306000232696533,-0.5239999890327454 C-4.111000061035156,-1.149999976158142 -3.819999933242798,-1.6829999685287476 -3.437000036239624,-2.121000051498413 C-3.052000045776367,-2.559999942779541 -2.5739998817443848,-2.8959999084472656 -2.006999969482422,-3.132999897003174 C-1.440000057220459,-3.371000051498413 -0.781000018119812,-3.48799991607666 -0.03500000014901161,-3.48799991607666 C0.3790000081062317,-3.48799991607666 0.7360000014305115,-3.4560000896453857 1.0379999876022339,-3.390000104904175 C1.340000033378601,-3.325000047683716 1.6380000114440918,-3.244999885559082 1.934000015258789,-3.1530001163482666 C1.934000015258789,-3.1530001163482666 1.934000015258789,-6.3480000495910645 1.934000015258789,-6.3480000495910645 C1.934000015258789,-6.3480000495910645 4.421000003814697,-6.3480000495910645 4.421000003814697,-6.3480000495910645 C4.421000003814697,-6.3480000495910645 4.421000003814697,2.815000057220459 4.421000003814697,2.815000057220459z"></path></g><g opacity="1" transform="matrix(1,0,0,1,492.9599914550781,435.97900390625)"><path fill="rgb(255,239,207)" fill-opacity="1" d=" M-0.03500000014901161,4.271999835968018 C0.5210000276565552,4.271999835968018 0.9509999752044678,4.144000053405762 1.2610000371932983,3.8889999389648438 C1.569000005722046,3.634999990463257 1.7920000553131104,3.2730000019073486 1.934000015258789,2.7980000972747803 C1.934000015258789,2.7980000972747803 1.934000015258789,-0.9309999942779541 1.934000015258789,-0.9309999942779541 C1.722000002861023,-1.0959999561309814 1.4930000305175781,-1.2200000286102295 1.253000020980835,-1.2949999570846558 C1.0099999904632568,-1.3739999532699585 0.6909999847412109,-1.4119999408721924 0.30000001192092896,-1.4119999408721924 C-0.49300000071525574,-1.4119999408721924 -1.0800000429153442,-1.1799999475479126 -1.465000033378601,-0.718999981880188 C-1.8509999513626099,-0.2549999952316284 -2.0429999828338623,0.5370000004768372 -2.0429999828338623,1.659999966621399 C-2.0429999828338623,2.441999912261963 -1.878999948501587,3.075000047683716 -1.5549999475479126,3.552000045776367 C-1.2280000448226929,4.0329999923706055 -0.722000002861023,4.271999835968018 -0.03500000014901161,4.271999835968018z"></path></g></g></g></svg>