<svg xmlns="http://www.w3.org/2000/svg" viewBox="0 0 99 104" width="99" height="104" preserveAspectRatio="xMidYMid meet" style="width: 100%; height: 100%; transform: translate3d(0px, 0px, 0px); content-visibility: visible;"><defs><clipPath id="__lottie_element_120"><rect width="99" height="104" x="0" y="0"></rect></clipPath><mask id="__lottie_element_126" mask-type="alpha"><g transform="matrix(0.9390599727630615,0,0,1.132200002670288,25.89029884338379,47.53779983520508)" opacity="1" style="display: block;"><g opacity="1" transform="matrix(1,0,0,1,0,0)"><path fill="rgb(245,83,211)" fill-opacity="1" d=" M50,-50 C50,-50 50,50 50,50 C50,50 -50,50 -50,50 C-50,50 -50,-50 -50,-50 C-50,-50 50,-50 50,-50z"></path></g></g></mask><mask id="__lottie_element_131" mask-type="alpha"><g transform="matrix(0.9390599727630615,0,0,1.132200002670288,25.89029884338379,47.53779983520508)" opacity="1" style="display: block;"><g opacity="1" transform="matrix(1,0,0,1,0,0)"><path fill="rgb(245,83,211)" fill-opacity="1" d=" M50,-50 C50,-50 50,50 50,50 C50,50 -50,50 -50,50 C-50,50 -50,-50 -50,-50 C-50,-50 50,-50 50,-50z"></path></g></g></mask><mask id="__lottie_element_137" mask-type="alpha"><g transform="matrix(0.9390599727630615,0,0,1.132200002670288,25.89029884338379,47.53779983520508)" opacity="1" style="display: block;"><g opacity="1" transform="matrix(1,0,0,1,0,0)"><path fill="rgb(245,83,211)" fill-opacity="1" d=" M50,-50 C50,-50 50,50 50,50 C50,50 -50,50 -50,50 C-50,50 -50,-50 -50,-50 C-50,-50 50,-50 50,-50z"></path></g></g></mask><mask id="__lottie_element_143" mask-type="alpha"><g transform="matrix(0.9390599727630615,0,0,1.132200002670288,25.89029884338379,47.53779983520508)" opacity="1" style="display: block;"><g opacity="1" transform="matrix(1,0,0,1,0,0)"><path fill="rgb(245,83,211)" fill-opacity="1" d=" M50,-50 C50,-50 50,50 50,50 C50,50 -50,50 -50,50 C-50,50 -50,-50 -50,-50 C-50,-50 50,-50 50,-50z"></path></g></g></mask><mask id="__lottie_element_149" mask-type="alpha"><g transform="matrix(0.9390599727630615,0,0,1.132200002670288,25.89029884338379,47.53779983520508)" opacity="1" style="display: block;"><g opacity="1" transform="matrix(1,0,0,1,0,0)"><path fill="rgb(245,83,211)" fill-opacity="1" d=" M50,-50 C50,-50 50,50 50,50 C50,50 -50,50 -50,50 C-50,50 -50,-50 -50,-50 C-50,-50 50,-50 50,-50z"></path></g></g></mask><mask id="__lottie_element_155" mask-type="alpha"><g transform="matrix(0.9390599727630615,0,0,1.132200002670288,25.89029884338379,47.53779983520508)" opacity="1" style="display: block;"><g opacity="1" transform="matrix(1,0,0,1,0,0)"><path fill="rgb(245,83,211)" fill-opacity="1" d=" M50,-50 C50,-50 50,50 50,50 C50,50 -50,50 -50,50 C-50,50 -50,-50 -50,-50 C-50,-50 50,-50 50,-50z"></path></g></g></mask><mask id="__lottie_element_162" mask-type="alpha"><g transform="matrix(0.9390599727630615,0,0,1.132200002670288,25.89029884338379,47.53779983520508)" opacity="1" style="display: block;"><g opacity="1" transform="matrix(1,0,0,1,0,0)"><path fill="rgb(245,83,211)" fill-opacity="1" d=" M50,-50 C50,-50 50,50 50,50 C50,50 -50,50 -50,50 C-50,50 -50,-50 -50,-50 C-50,-50 50,-50 50,-50z"></path></g></g></mask><mask id="__lottie_element_167" mask-type="alpha"><g transform="matrix(0.9390599727630615,0,0,1.132200002670288,25.89029884338379,47.53779983520508)" opacity="1" style="display: block;"><g opacity="1" transform="matrix(1,0,0,1,0,0)"><path fill="rgb(245,83,211)" fill-opacity="1" d=" M50,-50 C50,-50 50,50 50,50 C50,50 -50,50 -50,50 C-50,50 -50,-50 -50,-50 C-50,-50 50,-50 50,-50z"></path></g></g></mask><mask id="__lottie_element_173" mask-type="alpha"><g transform="matrix(0.9390599727630615,0,0,1.132200002670288,25.89029884338379,47.53779983520508)" opacity="1" style="display: block;"><g opacity="1" transform="matrix(1,0,0,1,0,0)"><path fill="rgb(245,83,211)" fill-opacity="1" d=" M50,-50 C50,-50 50,50 50,50 C50,50 -50,50 -50,50 C-50,50 -50,-50 -50,-50 C-50,-50 50,-50 50,-50z"></path></g></g></mask><mask id="__lottie_element_179" mask-type="alpha"><g transform="matrix(0.9390599727630615,0,0,1.132200002670288,25.89029884338379,47.53779983520508)" opacity="1" style="display: block;"><g opacity="1" transform="matrix(1,0,0,1,0,0)"><path fill="rgb(245,83,211)" fill-opacity="1" d=" M50,-50 C50,-50 50,50 50,50 C50,50 -50,50 -50,50 C-50,50 -50,-50 -50,-50 C-50,-50 50,-50 50,-50z"></path></g></g></mask><mask id="__lottie_element_188" mask-type="alpha"><g transform="matrix(0.3330000042915344,0,0,0.3330000042915344,3.7458014488220215,-6.075198650360107)" opacity="1" style="display: block;"><g opacity="1" transform="matrix(1,0,0,1,207.3560028076172,161.51400756835938)"><path fill="rgb(79,183,79)" fill-opacity="1" d=" M-8.395000457763672,-55.33300018310547 C-8.395000457763672,-55.33300018310547 -35.018001556396484,-4.73199987411499 -35.018001556396484,-4.73199987411499 C-35.80799865722656,-3.4000000953674316 -82.91200256347656,-31.798999786376953 -69.80799865722656,-53.891998291015625 C-55.22700119018555,-78.4749984741211 -8.395000457763672,-55.33300018310547 -8.395000457763672,-55.33300018310547z"></path></g></g></mask></defs><g clip-path="url(#__lottie_element_120)"><g mask="url(#__lottie_element_131)" style="display: block;"><g transform="matrix(0.33254364132881165,0.017427872866392136,-0.017427872866392136,0.33254364132881165,6.938037872314453,-8.101825714111328)" opacity="1"><g opacity="1" transform="matrix(1,0,0,1,141.74899291992188,173.9219970703125)"><path fill="rgb(223,225,224)" fill-opacity="1" d=" M15.381999969482422,10.156000137329102 C16.12700080871582,4.177000045776367 16.04400062561035,-0.35899999737739563 14.996999740600586,-2.9000000953674316 C19.83799934387207,-3.368000030517578 22.101999282836914,-6.142000198364258 22.101999282836914,-6.142000198364258 C17.695999145507812,-7.677000045776367 14.42199993133545,-9.147000312805176 11.859999656677246,-11.112000465393066 C13.545000076293945,-12.121000289916992 15.168251037597656,-13.310467720031738 16.705251693725586,-14.533468246459961 C11.974550247192383,-14.346059799194336 7.232999801635742,-15.545999526977539 3.194999933242798,-17.985000610351562 C4.14300012588501,-18.94099998474121 5.088497638702393,-19.964996337890625 6.036497592926025,-20.91999626159668 C3.51613450050354,-21.546314239501953 -1.687000036239624,-21.33799934387207 -6.88700008392334,-19.011999130249023 C-7.327000141143799,-19.74799919128418 -7.673552989959717,-21.948902130126953 -7.7585530281066895,-22.955902099609375 C-12.60250186920166,-21.061979293823242 -13.829000473022461,-14.416999816894531 -15.215999603271484,-12.73799991607666 C-17.457000732421875,-13.3100004196167 -19.801000595092773,-13.484000205993652 -22.101999282836914,-13.24899959564209 C-20.92799949645996,-11.458999633789062 -19.7549991607666,-9.668000221252441 -18.58099937438965,-7.876999855041504 C-18.281999588012695,-7.421000003814697 -17.974000930786133,-6.945000171661377 -17.89900016784668,-6.4039998054504395 C-17.836999893188477,-5.9629998207092285 -17.93600082397461,-5.517000198364258 -18.034000396728516,-5.081999778747559 C-18.75,-1.906999945640564 -19.618999481201172,1.218000054359436 -19.826000213623047,4.465000152587891 C-19.841999053955078,4.718999862670898 -19.8439998626709,5.007999897003174 -19.660999298095703,5.184999942779541 C-19.466999053955078,5.372000217437744 -19.160999298095703,5.3480000495910645 -18.89299964904785,5.366000175476074 C-17.929000854492188,5.429999828338623 -17.121999740600586,6.191999912261963 -16.72100067138672,7.071000099182129 C-16.31999969482422,7.949999809265137 -16.249000549316406,8.937999725341797 -16.18199920654297,9.902999877929688 C-16.18199920654297,9.902999877929688 -2.825000047683716,22.905000686645508 -2.825000047683716,22.905000686645508 C-2.825000047683716,22.905000686645508 15.381999969482422,10.156000137329102 15.381999969482422,10.156000137329102z"></path></g></g></g><g mask="url(#__lottie_element_137)" style="display: block;"><g transform="matrix(0.331732839345932,-0.029022863134741783,0.029022863134741783,0.331732839345932,-1.3249844312667847,-2.335340738296509)" opacity="1"><g opacity="1" transform="matrix(1,0,0,1,98.39600372314453,178.55799865722656)"><path fill="rgb(223,225,224)" fill-opacity="1" d=" M-11.227999687194824,15.840999603271484 C-13.911999702453613,10.446000099182129 -14.003000259399414,5.883999824523926 -13.857000350952148,3.1389999389648438 C-18.57900047302246,4.301000118255615 -21.635000228881836,2.434000015258789 -21.635000228881836,2.434000015258789 C-17.986000061035156,-0.4740000069141388 -15.383999824523926,-2.944999933242798 -13.619000434875488,-5.646999835968018 C-15.541999816894531,-6.041999816894531 -17.451318740844727,-6.749258995056152 -19.306318283081055,-7.394258975982666 C-14.795809745788574,-8.710455894470215 -10.720000267028809,-11.364999771118164 -7.718999862670898,-15.003999710083008 C-8.928999900817871,-15.592000007629395 -10.107011795043945,-16.3293399810791 -11.318012237548828,-16.917339324951172 C-7.939352512359619,-19.105440139770508 2.360189437866211,-21.51028823852539 11.390999794006348,-16.152000427246094 C13.315999984741211,-17.43400001525879 15.468999862670898,-18.375999450683594 17.718000411987305,-18.91699981689453 C17.20400047302246,-16.83799934387207 16.68899917602539,-14.760000228881836 16.174999237060547,-12.680999755859375 C16.04400062561035,-12.152000427246094 15.911999702453613,-11.600000381469727 16.020000457763672,-11.0649995803833 C16.107999801635742,-10.628000259399414 16.349000930786133,-10.239999771118164 16.586000442504883,-9.862000465393066 C18.312999725341797,-7.104000091552734 20.16900062561035,-4.443999767303467 21.43899917602539,-1.4479999542236328 C21.538999557495117,-1.2139999866485596 21.635000228881836,-0.9409999847412109 21.520999908447266,-0.7129999995231628 C21.399999618530273,-0.47200000286102295 21.104999542236328,-0.39500001072883606 20.85700035095215,-0.289000004529953 C19.968000411987305,0.09099999815225601 19.459999084472656,1.0770000219345093 19.374000549316406,2.0390000343322754 C19.28700065612793,3.002000093460083 19.545000076293945,3.9579999446868896 19.802000045776367,4.889999866485596 C19.802000045776367,4.889999866485596 11.508000373840332,21.58300018310547 11.508000373840332,21.58300018310547 C11.508000373840332,21.58300018310547 -11.227999687194824,15.840999603271484 -11.227999687194824,15.840999603271484z"></path></g></g></g><g mask="url(#__lottie_element_143)" style="display: block;"><g transform="matrix(0.3330000042915344,0,0,0.3330000042915344,51.03179931640625,50.8677978515625)" opacity="1"><g opacity="1" transform="matrix(1,0,0,1,54.43600082397461,64.65599822998047)"><path fill="rgb(141,125,142)" fill-opacity="1" d=" M-48.82099914550781,-26.179000854492188 C-38.22800064086914,-27.97100067138672 -34.84000015258789,-20.860000610351562 -20.475000381469727,2.7230000495910645 C-11.760000228881836,17.0310001373291 13.684000015258789,32.30099868774414 21.98900032043457,41.52899932861328 C27.250999450683594,47.375 19.645999908447266,56.8129997253418 11.29699993133545,58.185001373291016 C-10.229999542236328,61.72200012207031 -55.930999755859375,40.70100021362305 -61.12900161743164,17.729000091552734 C-66.67500305175781,-6.7829999923706055 -63.4119987487793,-23.711000442504883 -48.82099914550781,-26.179000854492188z"></path></g></g></g><g mask="url(#__lottie_element_149)" style="display: block;"><g transform="matrix(0.3330000042915344,0,0,0.3330000042915344,3.7458014488220215,-6.075198650360107)" opacity="1"><g opacity="1" transform="matrix(1,0,0,1,67.55899810791016,193.83799743652344)"><path fill="rgb(141,124,142)" fill-opacity="1" d=" M-17.742000579833984,15.366000175476074 C-12.809000015258789,17.250999450683594 -10.281000137329102,14.159000396728516 -2.8239998817443848,13.095999717712402 C13.159000396728516,11.928999900817871 23.17099952697754,17.731000900268555 23.17099952697754,17.731000900268555 C23.17099952697754,17.731000900268555 28.84600067138672,-12.227999687194824 28.84600067138672,-12.227999687194824 C28.84600067138672,-12.227999687194824 22.183000564575195,-25.04400062561035 13.255000114440918,-23.635000228881836 C15.295999526977539,-22.56399917602539 15.996000289916992,-21.104999542236328 16.917999267578125,-20.05900001525879 C15.234000205993652,-20.583999633789062 11.782999992370605,-23.375999450683594 5.589000225067139,-21.163999557495117 C7.7820000648498535,-20.093000411987305 9.645999908447266,-18.5049991607666 10.157999992370605,-17.621999740600586 C10.670999526977539,-16.73900032043457 -5.932000160217285,3.0409998893737793 -20.268999099731445,-2.8320000171661377 C-23.645000457763672,0.6859999895095825 -25.533000946044922,12.388999938964844 -17.742000579833984,15.366000175476074z"></path></g><g opacity="1" transform="matrix(1,0,0,1,67.55899810791016,193.83799743652344)"><path fill="rgb(141,124,142)" fill-opacity="1" d=" M23.17099952697754,17.731000900268555 C40.542999267578125,27.652000427246094 53.25899887084961,37.78200149536133 65.13500213623047,50.327999114990234 C72.927001953125,58.560001373291016 93.01399993896484,17.243000030517578 78.98899841308594,14.255000114440918 C59.8390007019043,10.175999641418457 40.44599914550781,2.1389999389648438 28.84600067138672,-12.227999687194824 C24.801000595092773,-17.238000869750977 15.527999877929688,13.366000175476074 23.17099952697754,17.731000900268555z"></path></g></g></g><g mask="url(#__lottie_element_155)" style="display: block;"><g transform="matrix(0.33254364132881165,-0.017427872866392136,0.017427872866392136,0.33254364132881165,-0.30495336651802063,-4.872072696685791)" opacity="1"><g opacity="1" transform="matrix(1,0,0,1,46.448001861572266,199.52000427246094)"><path fill="rgb(141,124,142)" fill-opacity="1" d=" M-12.696999549865723,-6.59499979019165 C-14.324999809265137,-2.384999990463257 -16.097000122070312,0.39800000190734863 -21.726999282836914,2.4790000915527344 C-20.018999099731445,3.0309998989105225 -17.525999069213867,3.2850000858306885 -16.176000595092773,3.125999927520752 C-19.67300033569336,5.2270002365112305 -21.003000259399414,8.62399959564209 -20.716999053955078,11.053999900817871 C-17.767000198364258,8.26200008392334 -16.167999267578125,8.1899995803833 -16.167999267578125,8.1899995803833 C-16.167999267578125,8.1899995803833 -18.81999969482422,12.666999816894531 -17.27400016784668,18.986000061035156 C-15.651000022888184,25.618999481201172 -9.66100025177002,30.615999221801758 -9.66100025177002,30.615999221801758 C-10.067000389099121,26.875 -9.147000312805176,23.00200080871582 -7.1020002365112305,19.841999053955078 C-5.515999794006348,22.951000213623047 -3.2109999656677246,25.691999435424805 -0.4189999997615814,27.785999298095703 C-1.5390000343322754,14.189000129699707 5.400000095367432,12.6899995803833 7.041999816894531,9.97599983215332 C8.552000045776367,7.480000019073486 7.052000045776367,-2.5199999809265137 6.017000198364258,-5.177000045776367 C-2.180000066757202,-12.26200008392334 0.7549999952316284,-30.615999221801758 0.7549999952316284,-30.615999221801758 C-2.934000015258789,-28.99799919128418 -9.560999870300293,-14.706000328063965 -12.696999549865723,-6.59499979019165z"></path></g><g opacity="1" transform="matrix(1,0,0,1,43.36199951171875,170.5019989013672)"><path fill="rgb(77,67,95)" fill-opacity="1" d=" M-14.680999755859375,22.65999984741211 C-6.099999904632568,24.73900032043457 0.9520000219345093,16.98900032043457 0.9520000219345093,16.98900032043457 C0.9520000219345093,16.98900032043457 8.567000389099121,20.32200050354004 8.567000389099121,20.32200050354004 C5.316999912261963,15.982999801635742 4.913000106811523,7.571000099182129 7.400000095367432,3.4200000762939453 C12.244999885559082,-4.666999816894531 14.680999755859375,-18.55500030517578 -0.8679999709129333,-24.73900032043457 C-0.7599999904632568,-24.652999877929688 0.4880000054836273,-18.718000411987305 -2.3529999256134033,-4.473999977111816 C-6.039999961853027,14.008999824523926 -14.680999755859375,22.65999984741211 -14.680999755859375,22.65999984741211z"></path></g></g></g><g mask="url(#__lottie_element_167)" style="display: block;"><g transform="matrix(0.33022940158843994,0.042866505682468414,-0.042866505682468414,0.33022940158843994,5.917892932891846,-6.956467628479004)" opacity="1"><g opacity="1" transform="matrix(1,0,0,1,43.60499954223633,112)"><path fill="rgb(245,138,70)" fill-opacity="1" d=" M11.432000160217285,-1.6119999885559082 C12.321999549865723,4.701000213623047 7.925000190734863,10.541999816894531 1.6119999885559082,11.432000160217285 C-4.702000141143799,12.321999549865723 -10.541000366210938,7.925000190734863 -11.430999755859375,1.6119999885559082 C-12.321000099182129,-4.702000141143799 -7.925000190734863,-10.541999816894531 -1.6119999885559082,-11.430999755859375 C4.702000141143799,-12.321000099182129 10.541999816894531,-7.925000190734863 11.432000160217285,-1.6119999885559082z"></path></g></g></g><g mask="url(#__lottie_element_162)" style="display: block;"><g transform="matrix(0.33254364132881165,-0.017427872866392136,0.017427872866392136,0.33254364132881165,-0.30495336651802063,-4.872072696685791)" opacity="1"><g opacity="1" transform="matrix(1,0,0,1,50.88100051879883,169.9290008544922)"><path stroke-linecap="round" stroke-linejoin="round" fill-opacity="0" stroke="rgb(77,67,95)" stroke-opacity="1" stroke-width="10" d=" M-25.881000518798828,-144.9290008544922 C-25.881000518798828,-144.9290008544922 -14.317000389099121,-118.06700134277344 -19.599000930786133,-80.78600311279297 C-19.599000930786133,-80.78600311279297 12.126999855041504,-35.220001220703125 9.086999893188477,67.34200286865234 C9.086999893188477,67.34200286865234 25.881000518798828,144.9290008544922 25.881000518798828,144.9290008544922"></path></g><g opacity="1" transform="matrix(1,0,0,1,45.12900161743164,140.6280059814453)"><path fill="rgb(195,121,81)" fill-opacity="1" d=" M10.645999908447266,-0.1720000058412552 C10.645999908447266,-0.1720000058412552 -6.900000095367432,8.324000358581543 -6.900000095367432,8.324000358581543 C-9.071999549865723,9.37600040435791 -11.6899995803833,8.402000427246094 -12.720000267028809,6.159999847412109 C-13.75,3.9179999828338623 -12.815999984741211,1.2230000495910645 -10.645000457763672,0.1720000058412552 C-10.645000457763672,0.1720000058412552 6.900000095367432,-8.324000358581543 6.900000095367432,-8.324000358581543 C9.071000099182129,-9.37600040435791 11.6899995803833,-8.402000427246094 12.720000267028809,-6.159999847412109 C13.75,-3.9179999828338623 12.817000389099121,-1.2230000495910645 10.645999908447266,-0.1720000058412552z"></path></g><g opacity="1" transform="matrix(1,0,0,1,47.7599983215332,148.88800048828125)"><path fill="rgb(195,121,81)" fill-opacity="1" d=" M12.065999984741211,1.625 C12.065999984741211,1.625 -9.972000122070312,7.125 -9.972000122070312,7.125 C-12.305999755859375,7.708000183105469 -14.6850004196167,6.216000080108643 -15.26099967956543,3.809000015258789 C-15.836999893188477,1.4019999504089355 -14.39799976348877,-1.0429999828338623 -12.0649995803833,-1.6260000467300415 C-12.0649995803833,-1.6260000467300415 9.972999572753906,-7.125999927520752 9.972999572753906,-7.125999927520752 C12.305999755859375,-7.708000183105469 14.687000274658203,-6.216000080108643 15.26200008392334,-3.809000015258789 C15.836999893188477,-1.4019999504089355 14.39900016784668,1.0420000553131104 12.065999984741211,1.625z"></path></g><g opacity="1" transform="matrix(1,0,0,1,49.768001556396484,157.56700134277344)"><path fill="rgb(195,121,81)" fill-opacity="1" d=" M9.916999816894531,2.1619999408721924 C9.916999816894531,2.1619999408721924 -7.822999954223633,6.590000152587891 -7.822999954223633,6.590000152587891 C-10.156999588012695,7.171999931335449 -12.538000106811523,5.678999900817871 -13.11299991607666,3.2720000743865967 C-13.689000129699707,0.8659999966621399 -12.25,-1.5800000429153442 -9.916000366210938,-2.1619999408721924 C-9.916000366210938,-2.1619999408721924 7.822999954223633,-6.590000152587891 7.822999954223633,-6.590000152587891 C10.156999588012695,-7.171999931335449 12.538000106811523,-5.679999828338623 13.11299991607666,-3.2730000019073486 C13.689000129699707,-0.8659999966621399 12.25,1.5789999961853027 9.916999816894531,2.1619999408721924z"></path></g></g></g><g mask="url(#__lottie_element_173)" style="display: block;"><g transform="matrix(0.33254364132881165,-0.017427872866392136,0.017427872866392136,0.33254364132881165,-0.30495336651802063,-4.872072696685791)" opacity="1"><g opacity="1" transform="matrix(1,0,0,1,29.913000106811523,101.08799743652344)"><path fill="rgb(245,138,70)" fill-opacity="1" d=" M6.585000038146973,-0.9279999732971191 C7.0980000495910645,2.7090001106262207 4.565000057220459,6.072000026702881 0.9279999732971191,6.585000038146973 C-2.7090001106262207,7.0980000495910645 -6.072999954223633,4.565000057220459 -6.585999965667725,0.9279999732971191 C-7.0980000495910645,-2.7090001106262207 -4.565000057220459,-6.072999954223633 -0.9290000200271606,-6.585000038146973 C2.7090001106262207,-7.0980000495910645 6.072000026702881,-4.565000057220459 6.585000038146973,-0.9279999732971191z"></path></g><g opacity="1" transform="matrix(1,0,0,1,25.03499984741211,114.46299743652344)"><path fill="rgb(250,175,58)" fill-opacity="1" d=" M14.633999824523926,-2.062999963760376 C15.77400016784668,6.019999980926514 10.145000457763672,13.494999885559082 2.062000036239624,14.633999824523926 C-6.019999980926514,15.77400016784668 -13.496000289916992,10.145000457763672 -14.635000228881836,2.062000036239624 C-15.77400016784668,-6.019999980926514 -10.145999908447266,-13.496000289916992 -2.062999963760376,-14.635000228881836 C6.019000053405762,-15.77400016784668 13.494999885559082,-10.145999908447266 14.633999824523926,-2.062999963760376z"></path></g></g></g><g mask="url(#__lottie_element_179)" style="display: block;"><g transform="matrix(0.3330000042915344,0,0,0.3330000042915344,3.7458014488220215,-6.075198650360107)" opacity="1"><g opacity="1" transform="matrix(1,0,0,1,125.52899932861328,232.74099731445312)"><path fill="rgb(223,225,224)" fill-opacity="1" d=" M10.574999809265137,-63.625999450683594 C11.776000022888184,-62.784000396728516 30.187999725341797,-64.54199981689453 35.29800033569336,-57.202999114990234 C32.82600021362305,-57.930999755859375 30.08799934387207,-58.242000579833984 27.538999557495117,-57.99800109863281 C34.321998596191406,-51.85300064086914 46.75699996948242,-47.87200164794922 49.165000915527344,-41.494998931884766 C46.145999908447266,-43.84600067138672 40.47200012207031,-44.95800018310547 37.8390007019043,-45.14400100708008 C39.915000915527344,-40.654998779296875 52.03900146484375,-35.1349983215332 57.334999084472656,-16.649999618530273 C55.54199981689453,-17.886999130249023 51.27799987792969,-20.065000534057617 48.9739990234375,-20.408000946044922 C52.63199996948242,-11.38700008392334 52.349998474121094,4.870999813079834 48.30400085449219,13.989999771118164 C47.94499969482422,10.335000038146973 44.37099838256836,6.270999908447266 43.32699966430664,5.886000156402588 C40.81700134277344,17.033000946044922 18.15399932861328,40.51100158691406 18.211000442504883,46.733001708984375 C15.11299991607666,42.790000915527344 13.89799976348877,37.82899856567383 13.89799976348877,37.82899856567383 C13.89799976348877,37.82899856567383 12.303999900817871,53.676998138427734 14.366000175476074,64.54299926757812 C11.253000259399414,60.77299880981445 6.468999862670898,54.858001708984375 5.36899995803833,49.62300109863281 C5.36899995803833,49.62300109863281 4.881999969482422,56.06399917602539 5.800000190734863,58.89899826049805 C0.5569999814033508,55.737998962402344 -3.1110000610351562,45.45000076293945 -8.657999992370605,41.060001373291016 C-19.225000381469727,32.698001861572266 -35.01900100708008,28.910999298095703 -38.88999938964844,6.199999809265137 C-38.88999938964844,6.199999809265137 -41.63999938964844,12.633000373840332 -42.22600173950195,17.27899932861328 C-47.441001892089844,10.043999671936035 -48.71200180053711,-15.145000457763672 -48.71200180053711,-15.145000457763672 C-50.20199966430664,-14.47700023651123 -52.90399932861328,-11.21399974822998 -54.67399978637695,-7.205999851226807 C-57.334999084472656,-22.820999145507812 -45.27199935913086,-37.28300094604492 -36.391998291015625,-46.042999267578125 C-39.00400161743164,-46.31800079345703 -42.87900161743164,-45.43199920654297 -47.220001220703125,-43.72800064086914 C-39.22999954223633,-55.00199890136719 -22.332000732421875,-58.840999603271484 -21.124000549316406,-60.2239990234375"></path></g></g></g><g mask="url(#__lottie_element_126)" style="display: block;"><g transform="matrix(0.3330000042915344,0,0,0.3330000042915344,3.7458014488220215,-6.075198650360107)" opacity="1"><g opacity="1" transform="matrix(1,0,0,1,143.22000122070312,169.18800354003906)"><path fill="rgb(231,105,79)" fill-opacity="1" d=" M-5.742000102996826,-0.3310000002384186 C-6.015999794006348,4.435999870300293 -3.6679999828338623,8.449000358581543 -0.4959999918937683,8.630999565124512 C2.674999952316284,8.814000129699707 5.4670000076293945,5.0970001220703125 5.742000102996826,0.3310000002384186 C6.015999794006348,-4.435999870300293 3.6679999828338623,-8.447999954223633 0.4959999918937683,-8.630999565124512 C-2.674999952316284,-8.812999725341797 -5.4679999351501465,-5.0980000495910645 -5.742000102996826,-0.3310000002384186z"></path></g><g opacity="1" transform="matrix(1,0,0,1,96.40599822998047,175.81900024414062)"><path fill="rgb(231,105,79)" fill-opacity="1" d=" M5.335000038146973,-2.1500000953674316 C7.119999885559082,2.2790000438690186 6.177999973297119,6.830999851226807 3.2320001125335693,8.017999649047852 C0.28600001335144043,9.206000328063965 -3.549999952316284,6.578000068664551 -5.335000038146973,2.1500000953674316 C-7.119999885559082,-2.2790000438690186 -6.177999973297119,-6.830999851226807 -3.2320001125335693,-8.019000053405762 C-0.28600001335144043,-9.206000328063965 3.549999952316284,-6.578000068664551 5.335000038146973,-2.1500000953674316z"></path></g><g opacity="1" transform="matrix(1,0,0,1,121.69300079345703,202.14700317382812)"><path fill="rgb(0,149,214)" fill-opacity="1" d=" M-9.520000457763672,-30.954999923706055 C-17.072999954223633,-28.83099937438965 -23.024999618530273,-18.822999954223633 -19.71299934387207,-9.09000015258789 C-19.4060001373291,-8.187999725341797 -18.82699966430664,-7.388999938964844 -18.60300064086914,-6.4629998207092285 C-18.35700035095215,-5.452000141143799 -19.138999938964844,-3.927999973297119 -19.334999084472656,-2.9059998989105225 C-19.847999572753906,-0.2329999953508377 -19,3.180000066757202 -17.336000442504883,5.790999889373779 C-14.508999824523926,10.227999687194824 -5.5329999923706055,29.506000518798828 1.6629999876022339,33.54899978637695 C1.6629999876022339,33.54899978637695 13.58899974822998,31.514999389648438 13.58899974822998,31.514999389648438 C19.040000915527344,25.316999435424805 21.121999740600586,4.1539998054504395 22.31999969482422,-0.968999981880188 C23.024999618530273,-3.9839999675750732 22.694000244140625,-7.485000133514404 21.325000762939453,-9.836999893188477 C20.801000595092773,-10.736000061035156 19.55900001525879,-11.913999557495117 19.454999923706055,-12.949000358581543 C19.360000610351562,-13.897000312805176 19.641000747680664,-14.843999862670898 19.631999969482422,-15.79699993133545 C19.533000946044922,-26.077999114990234 10.60200023651123,-33.54899978637695 2.7720000743865967,-33.04999923706055 C2.7720000743865967,-33.04999923706055 -9.520000457763672,-30.954999923706055 -9.520000457763672,-30.954999923706055z"></path></g><g opacity="1" transform="matrix(1,0,0,1,121.00299835205078,186.08700561523438)"><path fill="rgb(17,128,194)" fill-opacity="1" d=" M-17.642000198364258,5.5269999504089355 C-19.26300048828125,3.2139999866485596 -19.881000518798828,0.6060000061988831 -18.889999389648438,-2.322999954223633 C-17.076000213623047,-7.677999973297119 -14.229999542236328,-8.857999801635742 -9.416000366210938,-10.263999938964844 C-4.559000015258789,-11.680999755859375 3.7100000381469727,-12.78499984741211 8.75,-13.23900032043457 C11.991999626159668,-13.531000137329102 13.96500015258789,-13.392999649047852 16.506999969482422,-10.902000427246094 C19.652000427246094,-7.817999839782715 19.881999969482422,-3.255000114440918 18.194000244140625,0.550000011920929 C15.0649995803833,7.610000133514404 6.875,8.454000473022461 2.0230000019073486,4.6479997634887695 C1.3910000324249268,4.1529998779296875 0.4970000088214874,4.318999767303467 0.057999998331069946,4.991000175476074 C-3.0940001010894775,9.821999549865723 -12.031000137329102,13.531000137329102 -17.642000198364258,5.5269999504089355z"></path></g><g opacity="1" transform="matrix(1,0,0,1,119.16600036621094,164.125)"><path fill="rgb(141,124,142)" fill-opacity="1" d=" M-18.309999465942383,12.592000007629395 C-18.309999465942383,1.593999981880188 -10.612000465393066,-7.8420000076293945 -10.612000465393066,-7.8420000076293945 C-9.612000465393066,-4.966000080108643 -6.76800012588501,-4.867000102996826 -6.76800012588501,-4.867000102996826 C-7.675000190734863,-8.843000411987305 -5.3470001220703125,-12.592000007629395 -5.3470001220703125,-12.592000007629395 C-3.424999952316284,-9.592000007629395 -0.07999999821186066,-5.869999885559082 3.013000011444092,-5.5920000076293945 C3.013000011444092,-5.5920000076293945 3.950000047683716,-7.0920000076293945 2.763000011444092,-9.029999732971191 C6.571000099182129,-9.342000007629395 14.887999534606934,-3.9049999713897705 18.309999465942383,5.88700008392334"></path></g><g opacity="1" transform="matrix(1,0,0,1,125.53900146484375,219.71600341796875)"><path fill="rgb(231,105,79)" fill-opacity="1" d=" M-15.77299976348877,9.918000221252441 C-15.482999801635742,15.824999809265137 -2.171999931335449,21.422000885009766 3.4839999675750732,20.45800018310547 C9.199999809265137,19.483999252319336 20.92300033569336,11.095999717712402 19.695999145507812,4.598999977111816 C17.211000442504883,-8.557000160217285 18.38800048828125,-18.417999267578125 15.597999572753906,-19.437000274658203 C10.166999816894531,-21.422000885009766 11.043999671936035,-7.749000072479248 0.6949999928474426,-5.984000205993652 C-10.189000129699707,-4.129000186920166 -15.282999992370605,-17.08300018310547 -19.042999267578125,-13.532999992370605 C-20.922000885009766,-11.756999969482422 -16.444000244140625,-3.7899999618530273 -15.77299976348877,9.918000221252441z"></path></g><g opacity="1" transform="matrix(1,0,0,1,119.97699737548828,176.7429962158203)"><path fill="rgb(157,171,181)" fill-opacity="1" d=" M-1.6720000505447388,4.724999904632568 C-1.9240000247955322,3.2890000343322754 -4.590000152587891,1.496000051498413 -6.828999996185303,1.1339999437332153 C-11.809000015258789,0.33000001311302185 -14.869000434875488,0.8510000109672546 -16.868000030517578,5.7230000495910645 C-17.548999786376953,7.382999897003174 -17.834999084472656,9.850000381469727 -17.5049991607666,11.291000366210938 C-17.19300079345703,12.652999877929688 -17.9689998626709,13.618000030517578 -19.14900016784668,12.866999626159668 C-20.172000885009766,12.215999603271484 -22.099000930786133,10.067000389099121 -22.56100082397461,9.012999534606934 C-24.22100067138672,5.234000205993652 -23.111000061035156,1.9129999876022339 -20.24799919128418,-3.0209999084472656 C-17.43600082397461,-7.866000175476074 -13.4350004196167,-10.003000259399414 -6.107999801635742,-5.431000232696533 C-2.296999931335449,-3.053999900817871 -0.23899999260902405,-3.61299991607666 2.375,-6.877999782562256 C7.77400016784668,-13.618000030517578 12.8149995803833,-12.531000137329102 15.567000389099121,-10.581000328063965 C20.531999588012695,-7.061999797821045 24.22100067138672,-1.4160000085830688 23.511999130249023,1.8869999647140503 C23.16699981689453,3.490999937057495 22.332000732421875,5.026000022888184 21.469999313354492,6.2829999923706055 C20.920000076293945,7.084000110626221 19.66699981689453,6.698999881744385 19.663000106811523,5.72599983215332 C19.65399932861328,3.3450000286102295 17.854000091552734,0.49900001287460327 15.885000228881836,-1.2070000171661377 C12.859999656677246,-3.8289999961853027 8.965999603271484,-3.555999994277954 4.419000148773193,-0.2240000069141388 C3.125999927520752,0.7250000238418579 2.5929999351501465,2.5490000247955322 2.8299999237060547,3.9579999446868896 C2.8299999237060547,3.9579999446868896 -1.6720000505447388,4.724999904632568 -1.6720000505447388,4.724999904632568z"></path></g><g opacity="1" transform="matrix(0.4181097447872162,-0.056946832686662674,0.056946832686662674,0.4181097447872162,111.99199676513672,186.74200439453125)"><path fill="rgb(255,201,77)" fill-opacity="1" d=" M11.5,0 C11.5,0 11.5,0 11.5,0 C11.5,6.3468499183654785 6.3468499183654785,11.5 0,11.5 C0,11.5 0,11.5 0,11.5 C-6.3468499183654785,11.5 -11.5,6.3468499183654785 -11.5,0 C-11.5,0 -11.5,0 -11.5,0 C-11.5,-6.3468499183654785 -6.3468499183654785,-11.5 0,-11.5 C0,-11.5 0,-11.5 0,-11.5 C6.3468499183654785,-11.5 11.5,-6.3468499183654785 11.5,0z"></path></g><g opacity="1" transform="matrix(0.4181097447872162,-0.056946832686662674,0.056946832686662674,0.4181097447872162,129.99200439453125,183.74200439453125)"><path fill="rgb(255,201,77)" fill-opacity="1" d=" M11.5,0 C11.5,0 11.5,0 11.5,0 C11.5,6.3468499183654785 6.3468499183654785,11.5 0,11.5 C0,11.5 0,11.5 0,11.5 C-6.3468499183654785,11.5 -11.5,6.3468499183654785 -11.5,0 C-11.5,0 -11.5,0 -11.5,0 C-11.5,-6.3468499183654785 -6.3468499183654785,-11.5 0,-11.5 C0,-11.5 0,-11.5 0,-11.5 C6.3468499183654785,-11.5 11.5,-6.3468499183654785 11.5,0z"></path></g><g opacity="1" transform="matrix(1,0,0,1,-0.5019999742507935,-4.581999778747559)"><path stroke-linecap="round" stroke-linejoin="miter" fill-opacity="0" stroke-miterlimit="4" stroke="rgb(17,128,194)" stroke-opacity="1" stroke-width="4" d=" M102.73699951171875,201.43800354003906 C112.16100311279297,209.51600646972656 130.6300048828125,208.5279998779297 143.2570037841797,194.32200622558594"></path></g><g opacity="1" transform="matrix(1,0,0,1,125.55400085449219,199.31500244140625)"><path fill="rgb(193,66,60)" fill-opacity="1" d=" M12.298999786376953,14.805999755859375 C12.817000389099121,13.89900016784668 13.015000343322754,12.79699993133545 12.781999588012695,11.430999755859375 C12.190999984741211,7.960000038146973 9.440999984741211,7.376999855041504 6.169000148773193,6.85099983215332 C4.763999938964844,6.625999927520752 3.4660000801086426,5.370999813079834 2.312999963760376,3.578000068664551 C0.7070000171661377,-0.578000009059906 -0.38100001215934753,-4.741000175476074 -0.8999999761581421,-7.785999774932861 C-1.8229999542236328,-13.199999809265137 -2.746999979019165,-18.61400032043457 -2.746999979019165,-18.61400032043457 C-2.746999979019165,-18.61400032043457 -7.25,-17.847000122070312 -7.25,-17.847000122070312 C-7.065000057220459,-16.763999938964844 -6.192999839782715,-13 -5.4029998779296875,-7.019000053405762 C-5.0269999504089355,-4.165999889373779 -4.886000156402588,-0.22499999403953552 -5.131999969482422,3.9189999103546143 C-5.618000030517578,6.454999923706055 -6.431000232696533,8.46500015258789 -7.701000213623047,9.215999603271484 C-10.553000450134277,10.904000282287598 -13.013999938964844,12.255999565124512 -12.42300033569336,15.727999687194824 C-12.204000473022461,17.01099967956543 -11.704000473022461,17.94300079345703 -10.991999626159668,18.61400032043457 C-10.991999626159668,18.61400032043457 -8.012999534606934,17.33300018310547 0.46399998664855957,15.904999732971191 C8.437000274658203,14.560999870300293 12.298999786376953,14.805999755859375 12.298999786376953,14.805999755859375z"></path></g><g opacity="1" transform="matrix(1,0,0,1,125.37100219726562,215.2310028076172)"><path fill="rgb(155,49,49)" fill-opacity="1" d=" M-5.2129998207092285,1.9470000267028809 C-2.7890000343322754,2.683000087738037 -0.14499999582767487,9.362000465393066 1.8630000352859497,9.092000007629395 C4.021999835968018,8.800999641418457 3.8559999465942383,1.4170000553131104 6.650000095367432,-0.07500000298023224 C10.182999610900879,-1.9620000123977661 8.958999633789062,1.6579999923706055 9.5,1.3960000276565552 C11.125,0.6079999804496765 12.354000091552734,-0.42500001192092896 12.838000297546387,-1.9149999618530273 C12.946999549865723,-2.25 12.133000373840332,-9.362000465393066 3.075000047683716,-1.399999976158142 C1.5449999570846558,-0.054999999701976776 -0.6259999871253967,0.014999999664723873 -2.4709999561309814,-0.8450000286102295 C-12.946000099182129,-5.729000091552734 -11.57699966430664,1.7519999742507935 -11.395000457763672,2.0160000324249268 C-10.494999885559082,3.319999933242798 -9.027999877929688,3.924999952316284 -7.254000186920166,4.169000148773193 C-6.663000106811523,4.25 -7.922999858856201,1.1239999532699585 -5.2129998207092285,1.9470000267028809z"></path></g></g></g><g transform="matrix(0.3330000042915344,0,0,0.3330000042915344,3.7458014488220215,-6.075198650360107)" opacity="1" style="display: block;"><g opacity="1" transform="matrix(1,0,0,1,0.3240000009536743,0)"><path stroke-linecap="butt" stroke-linejoin="miter" fill-opacity="0" stroke-miterlimit="10" stroke="rgb(158,136,60)" stroke-opacity="1" stroke-width="13.512" d=" M207.3560028076172,162.25900268554688 C207.3560028076172,162.25900268554688 207.3560028076172,317.3169860839844 207.3560028076172,317.3169860839844"></path></g><g opacity="1" transform="matrix(1,0,0,1,207.3560028076172,311.3699951171875)"><path fill="rgb(79,183,79)" fill-opacity="1" d=" M0,11.951000213623047 C-20.374000549316406,11.951000213623047 -30.847000122070312,10.722999572753906 -30.847000122070312,9.767000198364258 C-30.847000122070312,0.08799999952316284 -17.03700065612793,-11.951000213623047 0,-11.951000213623047 C17.03700065612793,-11.951000213623047 30.847000122070312,0.08799999952316284 30.847000122070312,9.767000198364258 C30.847000122070312,10.722999572753906 20.374000549316406,11.951000213623047 0,11.951000213623047z"></path></g><g opacity="1" transform="matrix(1,0,0,1,207.3560028076172,161.51400756835938)"><path fill="rgb(79,183,79)" fill-opacity="1" d=" M76.21600341796875,103.96299743652344 C76.21600341796875,103.96299743652344 45.599998474121094,52.345001220703125 45.599998474121094,52.345001220703125 C43.93000030517578,49.52899932861328 45.95899963378906,45.96799850463867 49.233001708984375,45.96799850463867 C49.233001708984375,45.96799850463867 62.650001525878906,45.96799850463867 62.650001525878906,45.96799850463867 C65.9229965209961,45.96799850463867 67.9520034790039,42.404998779296875 66.28199768066406,39.59000015258789 C66.28199768066406,39.59000015258789 40.44300079345703,-3.9760000705718994 40.44300079345703,-3.9760000705718994 C38.77299880981445,-6.791999816894531 40.801998138427734,-10.354000091552734 44.07500076293945,-10.354000091552734 C44.07500076293945,-10.354000091552734 53.8849983215332,-10.354000091552734 53.8849983215332,-10.354000091552734 C57.159000396728516,-10.354000091552734 59.1870002746582,-13.916999816894531 57.516998291015625,-16.73200035095215 C57.516998291015625,-16.73200035095215 3.632999897003174,-107.58300018310547 3.632999897003174,-107.58300018310547 C1.996999979019165,-110.34200286865234 -1.996999979019165,-110.34200286865234 -3.632999897003174,-107.58300018310547 C-3.632999897003174,-107.58300018310547 -57.518001556396484,-16.73200035095215 -57.518001556396484,-16.73200035095215 C-59.1879997253418,-13.916999816894531 -57.159000396728516,-10.354000091552734 -53.88600158691406,-10.354000091552734 C-53.88600158691406,-10.354000091552734 -44.07500076293945,-10.354000091552734 -44.07500076293945,-10.354000091552734 C-40.801998138427734,-10.354000091552734 -38.77399826049805,-6.791999816894531 -40.444000244140625,-3.9760000705718994 C-40.444000244140625,-3.9760000705718994 -66.28199768066406,39.59000015258789 -66.28199768066406,39.59000015258789 C-67.95099639892578,42.404998779296875 -65.92400360107422,45.96799850463867 -62.650001525878906,45.96799850463867 C-62.650001525878906,45.96799850463867 -49.233001708984375,45.96799850463867 -49.233001708984375,45.96799850463867 C-45.959999084472656,45.96799850463867 -43.930999755859375,49.52899932861328 -45.60100173950195,52.345001220703125 C-45.60100173950195,52.345001220703125 -76.21600341796875,103.96299743652344 -76.21600341796875,103.96299743652344 C-77.88600158691406,106.77799987792969 -75.85700225830078,110.34200286865234 -72.58300018310547,110.34200286865234 C-72.58300018310547,110.34200286865234 72.58300018310547,110.34200286865234 72.58300018310547,110.34200286865234 C75.85600280761719,110.34200286865234 77.88600158691406,106.77799987792969 76.21600341796875,103.96299743652344z"></path></g><g opacity="1" transform="matrix(1,0,0,1,207.68099975585938,218.61099243164062)"><path stroke-linecap="round" stroke-linejoin="round" fill-opacity="0" stroke="rgb(68,168,72)" stroke-opacity="1" stroke-width="7.026" d=" M8.623000144958496,-2.3499999046325684 C8.623000144958496,-2.3499999046325684 3.7739999294281006,2.3499999046325684 0,2.3499999046325684 C-3.7750000953674316,2.3499999046325684 -8.623000144958496,-2.3499999046325684 -8.623000144958496,-2.3499999046325684"></path></g><g opacity="1" transform="matrix(1,0,0,1,178.8780059814453,190.8800048828125)"><path stroke-linecap="round" stroke-linejoin="round" fill-opacity="0" stroke="rgb(68,168,72)" stroke-opacity="1" stroke-width="7.026" d=" M8.623000144958496,-2.3499999046325684 C8.623000144958496,-2.3499999046325684 3.7750000953674316,2.3499999046325684 0,2.3499999046325684 C-3.7750000953674316,2.3499999046325684 -8.623000144958496,-2.3499999046325684 -8.623000144958496,-2.3499999046325684"></path></g><g opacity="1" transform="matrix(1,0,0,1,236.15899658203125,190.41600036621094)"><path stroke-linecap="round" stroke-linejoin="round" fill-opacity="0" stroke="rgb(68,168,72)" stroke-opacity="1" stroke-width="7.026" d=" M8.623000144958496,-2.3499999046325684 C8.623000144958496,-2.3499999046325684 3.7739999294281006,2.3499999046325684 0,2.3499999046325684 C-3.7750000953674316,2.3499999046325684 -8.623000144958496,-2.3499999046325684 -8.623000144958496,-2.3499999046325684"></path></g><g opacity="1" transform="matrix(1,0,0,1,236.15899658203125,246.8070068359375)"><path stroke-linecap="round" stroke-linejoin="round" fill-opacity="0" stroke="rgb(68,168,72)" stroke-opacity="1" stroke-width="7.026" d=" M8.623000144958496,-2.3499999046325684 C8.623000144958496,-2.3499999046325684 3.7739999294281006,2.3499999046325684 0,2.3499999046325684 C-3.7750000953674316,2.3499999046325684 -8.623000144958496,-2.3499999046325684 -8.623000144958496,-2.3499999046325684"></path></g><g opacity="1" transform="matrix(1,0,0,1,178.8780059814453,247.27099609375)"><path stroke-linecap="round" stroke-linejoin="round" fill-opacity="0" stroke="rgb(68,168,72)" stroke-opacity="1" stroke-width="7.026" d=" M8.623000144958496,-2.3499999046325684 C8.623000144958496,-2.3499999046325684 3.7750000953674316,2.3499999046325684 0,2.3499999046325684 C-3.7750000953674316,2.3499999046325684 -8.623000144958496,-2.3499999046325684 -8.623000144958496,-2.3499999046325684"></path></g><g opacity="1" transform="matrix(1,0,0,1,207.3560028076172,162.68499755859375)"><path stroke-linecap="round" stroke-linejoin="round" fill-opacity="0" stroke="rgb(68,168,72)" stroke-opacity="1" stroke-width="7.026" d=" M8.623000144958496,-2.3499999046325684 C8.623000144958496,-2.3499999046325684 3.7739999294281006,2.3499999046325684 0,2.3499999046325684 C-3.7750000953674316,2.3499999046325684 -8.623000144958496,-2.3499999046325684 -8.623000144958496,-2.3499999046325684"></path></g></g><g mask="url(#__lottie_element_188)" style="display: block;"><g transform="matrix(0.3330000042915344,0,0,0.3330000042915344,3.7458014488220215,-6.075198650360107)" opacity="1"><g opacity="1" transform="matrix(1,0,0,1,162.0709991455078,133.2949981689453)"><path fill="rgb(195,121,81)" fill-opacity="1" d=" M10.458000183105469,2 C10.458000183105469,2 -5.364999771118164,-9.38700008392334 -5.364999771118164,-9.38700008392334 C-7.322999954223633,-10.795999526977539 -10.069999694824219,-10.288999557495117 -11.470999717712402,-8.258000373840332 C-12.871000289916992,-6.2270002365112305 -12.414999961853027,-3.4110000133514404 -10.456999778747559,-2.002000093460083 C-10.456999778747559,-2.002000093460083 5.364999771118164,9.38599967956543 5.364999771118164,9.38599967956543 C7.322999954223633,10.795999526977539 10.069999694824219,10.288000106811523 11.470999717712402,8.256999969482422 C12.871000289916992,6.22599983215332 12.416000366210938,3.4100000858306885 10.458000183105469,2z"></path></g><g opacity="1" transform="matrix(1,0,0,1,166.08399963378906,125.61000061035156)"><path fill="rgb(195,121,81)" fill-opacity="1" d=" M12.166000366210938,0.4749999940395355 C12.166000366210938,0.4749999940395355 -8.597000122070312,-8.734999656677246 -8.597000122070312,-8.734999656677246 C-10.795000076293945,-9.711000442504883 -13.39799976348877,-8.649999618530273 -14.378999710083008,-6.377999782562256 C-15.359999656677246,-4.105999946594238 -14.36299991607666,-1.4490000009536743 -12.164999961853027,-0.4740000069141388 C-12.164999961853027,-0.4740000069141388 8.597000122070312,8.736000061035156 8.597000122070312,8.736000061035156 C10.795999526977539,9.711000442504883 13.39799976348877,8.651000022888184 14.378999710083008,6.379000186920166 C15.359999656677246,4.10699987411499 14.36400032043457,1.4500000476837158 12.166000366210938,0.4749999940395355z"></path></g><g opacity="1" transform="matrix(1,0,0,1,169.55499267578125,117.40699768066406)"><path fill="rgb(195,121,81)" fill-opacity="1" d=" M10.140999794006348,-0.42399999499320984 C10.140999794006348,-0.42399999499320984 -6.572999954223633,-7.8379998207092285 -6.572999954223633,-7.8379998207092285 C-8.772000312805176,-8.812999725341797 -11.373000144958496,-7.751999855041504 -12.354000091552734,-5.480999946594238 C-12.354000091552734,-5.480999946594238 -12.354000091552734,-5.480000019073486 -12.354000091552734,-5.480000019073486 C-13.335000038146973,-3.2090001106262207 -12.33899974822998,-0.5519999861717224 -10.140999794006348,0.42399999499320984 C-10.140999794006348,0.42399999499320984 6.572999954223633,7.8379998207092285 6.572999954223633,7.8379998207092285 C8.772000312805176,8.812999725341797 11.373000144958496,7.751999855041504 12.354000091552734,5.480000019073486 C13.335000038146973,3.2079999446868896 12.33899974822998,0.5509999990463257 10.140999794006348,-0.42399999499320984z"></path></g></g></g></g></svg>