<svg xmlns="http://www.w3.org/2000/svg" viewBox="0 0 59 31" width="59" height="31" preserveAspectRatio="xMidYMid meet" style="width: 100%; height: 100%; transform: translate3d(0px, 0px, 0px); content-visibility: visible;"><defs><clipPath id="__lottie_element_2572"><rect width="59" height="31" x="0" y="0"></rect></clipPath><clipPath id="__lottie_element_2575"><path d="M0,0 L9100,0 L9100,9100 L0,9100z"></path></clipPath><mask id="__lottie_element_2578" mask-type="alpha"><g transform="matrix(-0.257999986410141,0,0,0.257999986410141,-209.17578125,-544.2051391601562)" opacity="1" style="display: block;"><g opacity="1" transform="matrix(1,0,0,0.9311299920082092,-931.2069702148438,2161.81201171875)"><path fill="rgb(136,212,235)" fill-opacity="1" d=" M138.79299926757812,-63.8125 C138.79299926757812,-63.8125 138.79299926757812,63.8125 138.79299926757812,63.8125 C138.79299926757812,63.8125 -138.79299926757812,63.8125 -138.79299926757812,63.8125 C-138.79299926757812,63.8125 -138.79299926757812,-63.8125 -138.79299926757812,-63.8125 C-138.79299926757812,-63.8125 138.79299926757812,-63.8125 138.79299926757812,-63.8125z"></path><path stroke-linecap="butt" stroke-linejoin="miter" fill-opacity="0" stroke-miterlimit="4" stroke="rgb(135,207,214)" stroke-opacity="1" stroke-width="0" d=" M138.79299926757812,-63.8125 C138.79299926757812,-63.8125 138.79299926757812,63.8125 138.79299926757812,63.8125 C138.79299926757812,63.8125 -138.79299926757812,63.8125 -138.79299926757812,63.8125 C-138.79299926757812,63.8125 -138.79299926757812,-63.8125 -138.79299926757812,-63.8125 C-138.79299926757812,-63.8125 138.79299926757812,-63.8125 138.79299926757812,-63.8125z"></path></g></g></mask></defs><g clip-path="url(#__lottie_element_2572)"><g mask="url(#__lottie_element_2578)" style="display: block;"><g clip-path="url(#__lottie_element_2575)" transform="matrix(-0.257999986410141,0,0,0.257999986410141,964.72412109375,-1718.1051025390625)" opacity="1"><g transform="matrix(7,0,0,7,3617.172119140625,6745.05712890625)" opacity="1" style="display: block;"><g opacity="1" transform="matrix(1,0,0,1,7.580999851226807,2.115999937057495)"><path fill="rgb(141,124,142)" fill-opacity="1" d=" M7.330999851226807,1.8660000562667847 C7.330999851226807,-0.5479999780654907 -1.2300000190734863,0.13199999928474426 -1.2300000190734863,-1.8660000562667847 C-2.6059999465942383,-5.267000198364258 -9.248000144958496,-2.4809999465942383 -7.330999851226807,1.8660000562667847 C-7.330999851226807,1.8660000562667847 7.330999851226807,1.8660000562667847 7.330999851226807,1.8660000562667847z"></path></g></g><g transform="matrix(6.998933792114258,0.12216684222221375,-0.12216684222221375,6.998933792114258,3558.65673828125,6705.91943359375)" opacity="1" style="display: block;"><g opacity="1" transform="matrix(1,0,0,1,6.310999870300293,4.797999858856201)"><path fill="rgb(77,67,95)" fill-opacity="1" d=" M-0.8360000252723694,-4.139999866485596 C-0.09200000017881393,-3.6540000438690186 0.20600000023841858,-2.6600000858306885 0.05000000074505806,-1.7860000133514404 C-0.10599999874830246,-0.9110000133514404 -0.640999972820282,-0.1459999978542328 -1.2680000066757202,0.48399999737739563 C-1.8940000534057617,1.1139999628067017 -2.61899995803833,1.6380000114440918 -3.2730000019073486,2.239000082015991 C-3.927000045776367,2.8410000801086426 -4.833000183105469,3.7639999389648438 -4.833000183105469,4.547999858856201 C-4.833000183105469,4.547999858856201 -2.119999885559082,4.547999858856201 -2.119999885559082,4.547999858856201 C-2.119999885559082,4.547999858856201 3.875999927520752,2.5850000381469727 3.875999927520752,2.5850000381469727 C3.875999927520752,2.5850000381469727 4.834000110626221,-0.5680000185966492 2.8259999752044678,-2.558000087738037 C0.8190000057220459,-4.547999858856201 -0.8360000252723694,-4.139999866485596 -0.8360000252723694,-4.139999866485596z"></path></g><g opacity="1" transform="matrix(1,0,0,1,3.183000087738037,8.064000129699707)"><path fill="rgb(193,66,60)" fill-opacity="1" d=" M2.933000087738037,-0.8050000071525574 C1.902999997138977,-1.2450000047683716 0.7490000128746033,-1.281000018119812 -0.30000001192092896,-0.9079999923706055 C-1.3489999771118164,-0.5350000262260437 -2.2899999618530273,0.2460000067949295 -2.933000087738037,1.281999945640564 C-2.933000087738037,1.281999945640564 2.933000087738037,1.281999945640564 2.933000087738037,1.281999945640564 C2.933000087738037,1.281999945640564 2.933000087738037,-0.8050000071525574 2.933000087738037,-0.8050000071525574z"></path></g><g opacity="1" transform="matrix(1,0,0,1,8.348999977111816,4.849999904632568)"><path fill="rgb(210,105,94)" fill-opacity="1" d=" M-2.8580000400543213,-4.331999778747559 C-0.3569999933242798,-2.9100000858306885 -0.5109999775886536,-0.15199999511241913 -2.121000051498413,1.475000023841858 C-3.4570000171661377,2.825000047683716 -4.1579999923706055,3.7699999809265137 -4.1579999923706055,4.494999885559082 C-4.1579999923706055,4.494999885559082 0.3540000021457672,4.494999885559082 0.3540000021457672,4.494999885559082 C0.3540000021457672,4.494999885559082 4.1579999923706055,3.055999994277954 2.296999931335449,-0.718999981880188 C0.4359999895095825,-4.49399995803833 -2.8580000400543213,-4.331999778747559 -2.8580000400543213,-4.331999778747559z"></path></g></g><g transform="matrix(6.998933792114258,0.12216684222221375,-0.12216684222221375,6.998933792114258,3536.52099609375,6656.49755859375)" opacity="1" style="display: block;"><g opacity="1" transform="matrix(1,0,0,1,11.385000228881836,8.480999946594238)"><path fill="rgb(141,124,142)" fill-opacity="1" d=" M6.704999923706055,4.135000228881836 C7.40500020980835,4.050000190734863 6.949999809265137,2.558000087738037 6.2129998207092285,2.680000066757202 C6.11899995803833,2.312000036239624 5.861999988555908,1.871000051498413 5.48799991607666,1.3990000486373901 C5.73799991607666,1.069000005722046 5.890999794006348,0.6620000004768372 5.890999794006348,0.2150000035762787 C5.890999794006348,-0.8730000257492065 5.011000156402588,-1.753999948501587 3.9230000972747803,-1.753999948501587 C3.499000072479248,-1.753999948501587 3.1080000400543213,-1.6169999837875366 2.7860000133514404,-1.3880000114440918 C1.8279999494552612,-2.3350000381469727 0.7049999833106995,-3.2060000896453857 -0.16699999570846558,-4.218999862670898 C-1.319000005722046,-5.554999828338623 -3.312999963760376,-8.230999946594238 -5.372000217437744,-7.958000183105469 C-5.934999942779541,-7.883999824523926 -6.452000141143799,-7.343999862670898 -6.390999794006348,-6.736000061035156 C-6.833000183105469,-6.690999984741211 -7.783999919891357,-6.27400016784668 -8.23799991607666,-5.7129998207092285 C-9.743000030517578,-3.8510000705718994 -8.121000289916992,-1.4869999885559082 -5.771999835968018,-0.44200000166893005 C-4.521999835968018,0.08699999749660492 -3.065000057220459,-0.34299999475479126 -1.7419999837875366,-0.035999998450279236 C-1.1610000133514404,0.0989999994635582 -0.6200000047683716,0.37400001287460327 -0.12800000607967377,0.7099999785423279 C0.5460000038146973,1.1720000505447388 1.218000054359436,2.0239999294281006 1.5759999752044678,2.757999897003174 C2.316999912261963,4.2789998054504395 2.1649999618530273,6.767000198364258 0.6039999723434448,7.867000102996826 C0.6039999723434448,7.867000102996826 5.579999923706055,8.230999946594238 6.704999923706055,4.135000228881836z"></path></g><g opacity="1" transform="matrix(1,0,0,1,11.38599967956543,8.480999946594238)"><path fill="rgb(141,124,142)" fill-opacity="1" d=" M6.704999923706055,4.135000228881836 C7.877999782562256,4.5970001220703125 9.744000434875488,3.7799999713897705 9.279000282287598,2.453000068664551 C8.848999977111816,1.2259999513626099 6.872000217437744,1.305999994277954 6.2129998207092285,2.680000066757202 C6.11899995803833,2.312000036239624 4.548999786376953,4.171999931335449 6.704999923706055,4.135000228881836z"></path></g><g opacity="1" transform="matrix(1,0,0,1,6.208000183105469,8.187999725341797)"><path stroke-linecap="butt" stroke-linejoin="miter" fill-opacity="0" stroke-miterlimit="10" stroke="rgb(252,221,192)" stroke-opacity="1" stroke-width="1.127" d=" M0.492000013589859,-0.9449999928474426 C0.492000013589859,-0.9449999928474426 -0.492000013589859,0.9449999928474426 -0.492000013589859,0.9449999928474426"></path></g><g opacity="1" transform="matrix(1,0,0,1,3.5350000858306885,6.455999851226807)"><path stroke-linecap="butt" stroke-linejoin="miter" fill-opacity="0" stroke-miterlimit="10" stroke="rgb(252,221,192)" stroke-opacity="1" stroke-width="1.127" d=" M0.7179999947547913,-0.7879999876022339 C0.7179999947547913,-0.7879999876022339 -0.7179999947547913,0.7879999876022339 -0.7179999947547913,0.7879999876022339"></path></g></g><g transform="matrix(0.7880264520645142,0.6156737208366394,-0.6156737208366394,0.7880264520645142,5694.35595703125,5568.591796875)" opacity="1" style="display: block;"><g opacity="1" transform="matrix(1,0,0,1,-907.802978515625,2169.236083984375)"><path fill="rgb(77,67,95)" fill-opacity="1" d=" M8,0 C8,0 8,0 8,0 C8,4.099233627319336 4.671740531921387,7.427493095397949 0.5725069046020508,7.427493095397949 C0.5725069046020508,7.427493095397949 -0.5725069046020508,7.427493095397949 -0.5725069046020508,7.427493095397949 C-4.671740531921387,7.427493095397949 -8,4.099233627319336 -8,0 C-8,0 -8,0 -8,0 C-8,-4.099233627319336 -4.671740531921387,-7.427493095397949 -0.5725069046020508,-7.427493095397949 C-0.5725069046020508,-7.427493095397949 0.5725069046020508,-7.427493095397949 0.5725069046020508,-7.427493095397949 C4.671740531921387,-7.427493095397949 8,-4.099233627319336 8,0z"></path><path stroke-linecap="butt" stroke-linejoin="miter" fill-opacity="0" stroke-miterlimit="4" stroke="rgb(135,207,214)" stroke-opacity="1" stroke-width="0" d=" M8,0 C8,0 8,0 8,0 C8,4.099233627319336 4.671740531921387,7.427493095397949 0.5725069046020508,7.427493095397949 C0.5725069046020508,7.427493095397949 -0.5725069046020508,7.427493095397949 -0.5725069046020508,7.427493095397949 C-4.671740531921387,7.427493095397949 -8,4.099233627319336 -8,0 C-8,0 -8,0 -8,0 C-8,-4.099233627319336 -4.671740531921387,-7.427493095397949 -0.5725069046020508,-7.427493095397949 C-0.5725069046020508,-7.427493095397949 0.5725069046020508,-7.427493095397949 0.5725069046020508,-7.427493095397949 C4.671740531921387,-7.427493095397949 8,-4.099233627319336 8,0z"></path></g></g></g></g><g transform="matrix(-1.529939889907837,0,0,1.8059998750686646,61.542198181152344,22.92498207092285)" opacity="1" style="display: block;"><g opacity="1" transform="matrix(1,0,0,1,7.0920000076293945,3.1659998893737793)"><path stroke-linecap="round" stroke-linejoin="round" fill-opacity="0" stroke="rgb(184,228,250)" stroke-opacity="1" stroke-width="1" d=" M-4.5920000076293945,-0.6660000085830688 C-4.5920000076293945,-0.6660000085830688 -3.563999891281128,0.6660000085830688 -2.2960000038146973,0.6660000085830688 C-1.027999997138977,0.6660000085830688 0,-0.6660000085830688 0,-0.6660000085830688 C0,-0.6660000085830688 1.027999997138977,0.6660000085830688 2.2960000038146973,0.6660000085830688 C3.563999891281128,0.6660000085830688 4.5920000076293945,-0.6660000085830688 4.5920000076293945,-0.6660000085830688"></path></g><g opacity="1" transform="matrix(1,0,0,1,16.091999053955078,3.1659998893737793)"><path stroke-linecap="round" stroke-linejoin="round" fill-opacity="0" stroke="rgb(184,228,250)" stroke-opacity="1" stroke-width="1" d=" M-4.5920000076293945,-0.6660000085830688 C-4.5920000076293945,-0.6660000085830688 -3.563999891281128,0.6660000085830688 -2.2960000038146973,0.6660000085830688 C-1.027999997138977,0.6660000085830688 0,-0.6660000085830688 0,-0.6660000085830688 C0,-0.6660000085830688 1.027999997138977,0.6660000085830688 2.2960000038146973,0.6660000085830688 C3.563999891281128,0.6660000085830688 4.5920000076293945,-0.6660000085830688 4.5920000076293945,-0.6660000085830688"></path></g><g opacity="1" transform="matrix(1,0,0,1,25.091999053955078,3.1659998893737793)"><path stroke-linecap="round" stroke-linejoin="round" fill-opacity="0" stroke="rgb(184,228,250)" stroke-opacity="1" stroke-width="1" d=" M-4.5920000076293945,-0.6660000085830688 C-4.5920000076293945,-0.6660000085830688 -3.563999891281128,0.6660000085830688 -2.2960000038146973,0.6660000085830688 C-1.027999997138977,0.6660000085830688 0,-0.6660000085830688 0,-0.6660000085830688 C0,-0.6660000085830688 1.027999997138977,0.6660000085830688 2.2960000038146973,0.6660000085830688 C3.563999891281128,0.6660000085830688 4.5920000076293945,-0.6660000085830688 4.5920000076293945,-0.6660000085830688"></path></g><g opacity="1" transform="matrix(1,0,0,1,34.09199905395508,3.1659998893737793)"><path stroke-linecap="round" stroke-linejoin="round" fill-opacity="0" stroke="rgb(184,228,250)" stroke-opacity="1" stroke-width="1" d=" M-4.5920000076293945,-0.6660000085830688 C-4.5920000076293945,-0.6660000085830688 -3.563999891281128,0.6660000085830688 -2.2960000038146973,0.6660000085830688 C-1.027999997138977,0.6660000085830688 0,-0.6660000085830688 0,-0.6660000085830688 C0,-0.6660000085830688 1.027999997138977,0.6660000085830688 2.2960000038146973,0.6660000085830688 C3.563999891281128,0.6660000085830688 4.5920000076293945,-0.6660000085830688 4.5920000076293945,-0.6660000085830688"></path></g></g></g></svg>