<svg xmlns="http://www.w3.org/2000/svg" viewBox="0 0 22 15" width="22" height="15" preserveAspectRatio="xMidYMid meet" style="width: 100%; height: 100%; transform: translate3d(0px, 0px, 0px); content-visibility: visible;"><defs><clipPath id="__lottie_element_2028"><rect width="22" height="15" x="0" y="0"></rect></clipPath></defs><g clip-path="url(#__lottie_element_2028)"><g transform="matrix(1.7879999876022339,0,0,1.7879999876022339,-46.00289535522461,-38.959651947021484)" opacity="1" style="display: block;"><g opacity="1" transform="matrix(1,0,0,1,32.16600036621094,25.66900062561035)"><path fill="rgb(141,124,142)" fill-opacity="1" d=" M-5.550000190734863,-1.3880000114440918 C-6.10099983215332,-0.7200000286102295 -6.485000133514404,0.18199999630451202 -6.230999946594238,1.0099999904632568 C-5.979000091552734,1.8270000219345093 -5.191999912261963,2.3469998836517334 -4.429999828338623,2.7360000610351562 C-2.9000000953674316,3.5179998874664307 -1.2050000429153442,4.060999870300293 0.5130000114440918,3.996999979019165 C2.2300000190734863,3.934000015258789 3.9719998836517334,3.2019999027252197 5,1.8240000009536743 C6.484000205993652,-0.16500000655651093 3.6480000019073486,-2.822999954223633 1.8880000114440918,-3.3450000286102295 C-0.5289999842643738,-4.061999797821045 -3.8980000019073486,-3.3910000324249268 -5.550000190734863,-1.3880000114440918z"></path></g></g><g transform="matrix(1.8059998750686646,0,0,1.8059998750686646,-46.583518981933594,-39.52265548706055)" opacity="1" style="display: block;"><g opacity="1" transform="matrix(1,0,0,1,31.7189998626709,26.861000061035156)"><path fill="rgb(252,234,221)" fill-opacity="1" d=" M2.7750000953674316,-1.2280000448226929 C2.7750000953674316,-1.2280000448226929 -2.7750000953674316,-1.2280000448226929 -2.7750000953674316,-1.2280000448226929 C-2.7750000953674316,0.12800000607967377 -1.5329999923706055,1.2280000448226929 -0.0010000000474974513,1.2280000448226929 C1.531999945640564,1.2280000448226929 2.7750000953674316,0.12800000607967377 2.7750000953674316,-1.2280000448226929z"></path></g><g opacity="1" transform="matrix(1,0,0,1,31.7189998626709,26.399999618530273)"><path fill="rgb(17,128,195)" fill-opacity="1" d=" M1.4149999618530273,-0.8489999771118164 C1.4149999618530273,-0.8489999771118164 -1.4149999618530273,-0.8489999771118164 -1.4149999618530273,-0.8489999771118164 C-1.4149999618530273,0.2150000035762787 -0.7820000052452087,0.8489999771118164 0,0.8489999771118164 C0.781000018119812,0.8489999771118164 1.4149999618530273,0.2150000035762787 1.4149999618530273,-0.8489999771118164z"></path></g></g><g transform="matrix(0.257999986410141,0,0,0.257999986410141,-111.46819305419922,249.53277587890625)" opacity="1" style="display: block;"><g opacity="1" transform="matrix(1,0,0,0,474.0150146484375,-943.31201171875)"><path fill="rgb(141,125,142)" fill-opacity="1" d=" M25.015499114990234,-10.494999885559082 C25.015499114990234,-10.494999885559082 25.015499114990234,10.494999885559082 25.015499114990234,10.494999885559082 C25.015499114990234,10.494999885559082 -25.015499114990234,10.494999885559082 -25.015499114990234,10.494999885559082 C-25.015499114990234,10.494999885559082 -25.015499114990234,-10.494999885559082 -25.015499114990234,-10.494999885559082 C-25.015499114990234,-10.494999885559082 25.015499114990234,-10.494999885559082 25.015499114990234,-10.494999885559082z"></path><path stroke-linecap="butt" stroke-linejoin="miter" fill-opacity="0" stroke-miterlimit="4" stroke="rgb(189,189,189)" stroke-opacity="1" stroke-width="0" d=" M25.015499114990234,-10.494999885559082 C25.015499114990234,-10.494999885559082 25.015499114990234,10.494999885559082 25.015499114990234,10.494999885559082 C25.015499114990234,10.494999885559082 -25.015499114990234,10.494999885559082 -25.015499114990234,10.494999885559082 C-25.015499114990234,10.494999885559082 -25.015499114990234,-10.494999885559082 -25.015499114990234,-10.494999885559082 C-25.015499114990234,-10.494999885559082 25.015499114990234,-10.494999885559082 25.015499114990234,-10.494999885559082z"></path></g></g></g></svg>