<svg xmlns="http://www.w3.org/2000/svg" viewBox="0 0 74 115" width="74" height="115" preserveAspectRatio="xMidYMid meet" style="width: 100%; height: 100%; transform: translate3d(0px, 0px, 0px); content-visibility: visible;"><defs><clipPath id="__lottie_element_4601"><rect width="74" height="115" x="0" y="0"></rect></clipPath></defs><g clip-path="url(#__lottie_element_4601)"><g transform="matrix(1.8059998750686646,0,0,1.8059998750686646,-3.6672518253326416,-8.217500686645508)" opacity="1" style="display: block;"><g opacity="1" transform="matrix(1,0,0,1,19.610000610351562,44.44200134277344)"><path stroke-linecap="butt" stroke-linejoin="miter" fill-opacity="0" stroke-miterlimit="10" stroke="rgb(95,95,85)" stroke-opacity="1" stroke-width="4.613" d=" M-8.07699966430664,-22.051000595092773 C-8.07699966430664,-22.051000595092773 8.07699966430664,22.051000595092773 8.07699966430664,22.051000595092773"></path></g><g opacity="1" transform="matrix(1,0,0,1,0,0)"><path stroke-linecap="butt" stroke-linejoin="miter" fill-opacity="0" stroke-miterlimit="10" stroke="rgb(95,95,85)" stroke-opacity="1" stroke-width="4.613" d=" M27.687000274658203,11.532999992370605 C27.687000274658203,11.532999992370605 27.687000274658203,66.49299621582031 27.687000274658203,66.49299621582031"></path></g><g opacity="1" transform="matrix(1,0,0,1,27.687000274658203,66.49199676513672)"><path fill="rgb(95,95,85)" fill-opacity="1" d=" M5.809999942779541,-1.3630000352859497 C5.809999942779541,-1.3630000352859497 -5.809999942779541,-1.3630000352859497 -5.809999942779541,-1.3630000352859497 C-5.809999942779541,-1.3630000352859497 -5.809999942779541,1.3630000352859497 -5.809999942779541,1.3630000352859497 C-5.809999942779541,1.3630000352859497 5.809999942779541,1.3630000352859497 5.809999942779541,1.3630000352859497 C5.809999942779541,1.3630000352859497 5.809999942779541,-1.3630000352859497 5.809999942779541,-1.3630000352859497z"></path></g><g opacity="1" transform="matrix(1,0,0,1,16.542999267578125,20.343000411987305)"><path fill="rgb(247,150,99)" fill-opacity="1" d=" M-9.00100040435791,9.689000129699707 C-9.00100040435791,9.689000129699707 15.111000061035156,9.689000129699707 15.111000061035156,9.689000129699707 C15.111000061035156,9.689000129699707 15.111000061035156,-9.689000129699707 15.111000061035156,-9.689000129699707 C15.111000061035156,-9.689000129699707 -10.51200008392334,-9.689000129699707 -10.51200008392334,-9.689000129699707 C-13.225000381469727,-9.689000129699707 -15.111000061035156,-6.991000175476074 -14.178000450134277,-4.442999839782715 C-14.178000450134277,-4.442999839782715 -9.00100040435791,9.689000129699707 -9.00100040435791,9.689000129699707z"></path></g><g opacity="1" transform="matrix(1,0,0,1,31.65399932861328,16.368999481201172)"><path fill="rgb(244,121,92)" fill-opacity="1" d=" M1.3769999742507935,-10.472999572753906 C1.3769999742507935,-10.472999572753906 8.675999641418457,11.803999900817871 8.675999641418457,11.803999900817871 C8.675999641418457,11.803999900817871 -8.675999641418457,11.803999900817871 -8.675999641418457,11.803999900817871 C-8.675999641418457,11.803999900817871 -1.3769999742507935,-10.472999572753906 -1.3769999742507935,-10.472999572753906 C-0.9409999847412109,-11.803999900817871 0.9409999847412109,-11.803999900817871 1.3769999742507935,-10.472999572753906z"></path></g><g opacity="1" transform="matrix(1,0,0,1,31.65399932861328,28.17300033569336)"><path fill="rgb(244,121,92)" fill-opacity="1" d=" M9.395000457763672,1.8589999675750732 C9.395000457763672,1.8589999675750732 -9.395000457763672,1.8589999675750732 -9.395000457763672,1.8589999675750732 C-10.42199993133545,1.8589999675750732 -11.253999710083008,1.027999997138977 -11.253999710083008,0.0010000000474974513 C-11.253999710083008,-1.0269999504089355 -10.42199993133545,-1.8589999675750732 -9.395000457763672,-1.8589999675750732 C-9.395000457763672,-1.8589999675750732 9.395000457763672,-1.8589999675750732 9.395000457763672,-1.8589999675750732 C10.42199993133545,-1.8589999675750732 11.253999710083008,-1.0269999504089355 11.253999710083008,0.0010000000474974513 C11.253999710083008,1.027999997138977 10.42199993133545,1.8589999675750732 9.395000457763672,1.8589999675750732z"></path></g><g opacity="1" transform="matrix(1,0,0,1,21.277999877929688,36.00299835205078)"><path fill="rgb(162,86,24)" fill-opacity="1" d=" M-13.871999740600586,5.96999979019165 C-13.871999740600586,5.96999979019165 18.246000289916992,5.96999979019165 18.246000289916992,5.96999979019165 C18.246000289916992,5.96999979019165 18.246000289916992,-5.96999979019165 18.246000289916992,-5.96999979019165 C18.246000289916992,-5.96999979019165 -18.246000289916992,-5.96999979019165 -18.246000289916992,-5.96999979019165 C-18.246000289916992,-5.96999979019165 -13.871999740600586,5.96999979019165 -13.871999740600586,5.96999979019165z"></path></g><g opacity="1" transform="matrix(1,0,0,1,8.843999862670898,15.79800033569336)"><path fill="rgb(244,121,92)" fill-opacity="1" d=" M1.8769999742507935,1.1299999952316284 C1.8619999885559082,1.2259999513626099 1.8170000314712524,1.3029999732971191 1.7389999628067017,1.3609999418258667 C1.5989999771118164,1.5989999771118164 1.3839999437332153,1.8370000123977661 1.093999981880188,2.0789999961853027 C0.7799999713897705,2.3350000381469727 0.5249999761581421,2.4649999141693115 0.3319999873638153,2.4649999141693115 C0.30399999022483826,2.4649999141693115 0.2770000100135803,2.4619998931884766 0.25200000405311584,2.4579999446868896 C0.03999999910593033,2.4040000438690186 -0.19900000095367432,2.3369998931884766 -0.4650000035762787,2.256999969482422 C-0.9390000104904175,2.1040000915527344 -1.3020000457763672,1.809999942779541 -1.5529999732971191,1.3769999742507935 C-1.7760000228881836,0.9860000014305115 -1.8869999647140503,0.5320000052452087 -1.8869999647140503,0.014999999664723873 C-1.8869999647140503,-0.6169999837875366 -1.7350000143051147,-1.1749999523162842 -1.4299999475479126,-1.6579999923706055 C-1.1059999465942383,-2.1710000038146973 -0.699999988079071,-2.437999963760376 -0.21199999749660492,-2.4570000171661377 C-0.023000000044703484,-2.4649999141693115 0.2540000081062317,-2.388000011444092 0.6190000176429749,-2.2269999980926514 C0.984000027179718,-2.065999984741211 1.2239999771118164,-1.9049999713897705 1.340999960899353,-1.746000051498413 C1.4559999704360962,-1.5870000123977661 1.5360000133514404,-1.2400000095367432 1.5800000429153442,-0.7039999961853027 C1.5889999866485596,-0.5889999866485596 1.5700000524520874,-0.47200000286102295 1.5219999551773071,-0.3529999852180481 C1.4639999866485596,-0.210999995470047 1.3890000581741333,-0.1459999978542328 1.2970000505447388,-0.15800000727176666 C1.1269999742507935,-0.1770000010728836 0.9150000214576721,-0.21799999475479126 0.6589999794960022,-0.28299999237060547 C0.3490000069141388,-0.3630000054836273 0.18199999630451202,-0.4320000112056732 0.15800000727176666,-0.48500001430511475 C0.14900000393390656,-0.5040000081062317 0.14399999380111694,-0.5220000147819519 0.14399999380111694,-0.5370000004768372 C0.14399999380111694,-0.5709999799728394 0.164000004529953,-0.6140000224113464 0.20600000023841858,-0.6650000214576721 C0.24699999392032623,-0.7170000076293945 0.2669999897480011,-0.7609999775886536 0.2669999897480011,-0.7960000038146973 C0.29100000858306885,-0.953000009059906 0.30399999022483826,-1.100000023841858 0.30399999022483826,-1.2380000352859497 C0.30399999022483826,-1.437000036239624 0.27399998903274536,-1.5759999752044678 0.2160000056028366,-1.6519999504089355 C-0.07400000095367432,-1.4839999675750732 -0.2939999997615814,-1.2009999752044678 -0.4440000057220459,-0.8059999942779541 C-0.5690000057220459,-0.4729999899864197 -0.6320000290870667,-0.09600000083446503 -0.6320000290870667,0.32499998807907104 C-0.6320000290870667,0.6510000228881836 -0.5960000157356262,0.9419999718666077 -0.5230000019073486,1.1970000267028809 C-0.45100000500679016,1.4520000219345093 -0.36399999260902405,1.6059999465942383 -0.2619999945163727,1.659999966621399 C-0.21400000154972076,1.6829999685287476 -0.07999999821186066,1.6039999723434448 0.14000000059604645,1.4259999990463257 C0.36000001430511475,1.2480000257492065 0.5019999742507935,1.1059999465942383 0.5640000104904175,0.9990000128746033 C0.5690000057220459,0.9950000047683716 0.5910000205039978,0.9330000281333923 0.6299999952316284,0.8140000104904175 C0.6589999794960022,0.7450000047683716 0.6970000267028809,0.703000009059906 0.7459999918937683,0.6869999766349792 C0.828000009059906,0.6639999747276306 1.0399999618530273,0.718999981880188 1.3799999952316284,0.8510000109672546 C1.7209999561309814,0.9829999804496765 1.8869999647140503,1.0759999752044678 1.8769999742507935,1.1299999952316284z"></path></g><g opacity="1" transform="matrix(1,0,0,1,13.020000457763672,15.777000427246094)"><path fill="rgb(244,121,92)" fill-opacity="1" d=" M0.47099998593330383,2.4509999752044678 C0.3700000047683716,2.4579999446868896 0.25600001215934753,2.447999954223633 0.12999999523162842,2.4189999103546143 C0.004999999888241291,2.390000104904175 -0.11800000071525574,2.3610000610351562 -0.23899999260902405,2.3299999237060547 C-0.3840000033378601,2.2990000247955322 -0.6119999885559082,2.24399995803833 -0.9210000038146973,2.1630001068115234 C-1.3079999685287476,2.0290000438690186 -1.600000023841858,1.7649999856948853 -1.7979999780654907,1.3700000047683716 C-1.9730000495910645,1.0210000276565552 -2.059999942779541,0.6000000238418579 -2.059999942779541,0.10499999672174454 C-2.059999942779541,-0.296999990940094 -1.9730000495910645,-0.765999972820282 -1.7979999780654907,-1.3029999732971191 C-1.562000036239624,-2.0239999294281006 -1.253999948501587,-2.384000062942505 -0.878000020980835,-2.384000062942505 C-0.843999981880188,-2.384000062942505 -0.796999990940094,-2.377000093460083 -0.7360000014305115,-2.364000082015991 C-0.6759999990463257,-2.3499999046325684 -0.6290000081062317,-2.3420000076293945 -0.5950000286102295,-2.3380000591278076 C-0.2370000034570694,-2.4179999828338623 -0.007000000216066837,-2.4579999446868896 0.09399999678134918,-2.4579999446868896 C0.1420000046491623,-2.4579999446868896 0.19099999964237213,-2.4570000171661377 0.23899999260902405,-2.453000068664551 C0.8199999928474426,-2.3949999809265137 1.2760000228881836,-2.1080000400543213 1.6100000143051147,-1.590999960899353 C1.909999966621399,-1.1230000257492065 2.059999942779541,-0.5649999976158142 2.059999942779541,0.0820000022649765 C2.059999942779541,0.6959999799728394 1.9240000247955322,1.222000002861023 1.6540000438690186,1.6629999876022339 C1.3639999628067017,2.1419999599456787 0.968999981880188,2.4049999713897705 0.47099998593330383,2.4509999752044678z"></path></g><g opacity="1" transform="matrix(1,0,0,1,13.020000457763672,15.777000427246094)"><path fill="rgb(247,151,100)" fill-opacity="1" d=" M0.3409999907016754,-1.7630000114440918 C0.23399999737739563,-1.7860000133514404 0.1289999932050705,-1.6729999780654907 0.02500000037252903,-1.4240000247955322 C-0.07800000160932541,-1.1749999523162842 -0.18400000035762787,-1.0499999523162842 -0.28999999165534973,-1.0499999523162842 C-0.3140000104904175,-1.0499999523162842 -0.3490000069141388,-1.0609999895095825 -0.39500001072883606,-1.0820000171661377 C-0.4410000145435333,-1.1030000448226929 -0.4790000021457672,-1.1150000095367432 -0.5080000162124634,-1.11899995803833 C-0.671999990940094,-0.8320000171661377 -0.7540000081062317,-0.421999990940094 -0.7540000081062317,0.11100000143051147 C-0.7540000081062317,0.5289999842643738 -0.6990000009536743,0.8870000243186951 -0.5870000123977661,1.1859999895095825 C-0.4620000123977661,1.5190000534057617 -0.2879999876022339,1.7029999494552612 -0.06499999761581421,1.7380000352859497 C0.19599999487400055,1.7760000228881836 0.4059999883174896,1.562999963760376 0.5659999847412109,1.100000023841858 C0.7059999704360962,0.6940000057220459 0.7760000228881836,0.210999995470047 0.7760000228881836,-0.3490000069141388 C0.7760000228881836,-0.7279999852180481 0.7400000095367432,-1.0460000038146973 0.6669999957084656,-1.3029999732971191 C0.5899999737739563,-1.5789999961853027 0.48100000619888306,-1.7319999933242798 0.3409999907016754,-1.7630000114440918z"></path></g><g opacity="1" transform="matrix(1,0,0,1,17.643999099731445,15.821999549865723)"><path fill="rgb(244,121,92)" fill-opacity="1" d=" M2.2739999294281006,-1.5609999895095825 C2.2300000190734863,-1.5230000019073486 2.117000102996826,-1.4579999446868896 1.9329999685287476,-1.3660000562667847 C1.9329999685287476,-1.3660000562667847 -0.42500001192092896,1.3359999656677246 -0.42500001192092896,1.3359999656677246 C-0.42500001192092896,1.3359999656677246 0.9679999947547913,1.1640000343322754 0.9679999947547913,1.1640000343322754 C1.00600004196167,1.1369999647140503 1.0800000429153442,1.1019999980926514 1.1859999895095825,1.059999942779541 C1.2829999923706055,1.0369999408721924 1.3700000047683716,1.0490000247955322 1.4470000267028809,1.0950000286102295 C1.6019999980926514,1.1829999685287476 1.7300000190734863,1.3320000171661377 1.8320000171661377,1.5429999828338623 C1.9190000295639038,1.7269999980926514 1.9500000476837158,1.8650000095367432 1.9259999990463257,1.9570000171661377 C1.906999945640564,2.0299999713897705 1.8389999866485596,2.0910000801086426 1.725000023841858,2.1410000324249268 C1.6119999885559082,2.190999984741211 1.5160000324249268,2.2160000801086426 1.4390000104904175,2.2160000801086426 C1.3420000076293945,2.2160000801086426 1.2009999752044678,2.197999954223633 1.0119999647140503,2.1589999198913574 C1.0119999647140503,2.1589999198913574 -1.0269999504089355,2.365000009536743 -1.0269999504089355,2.365000009536743 C-1.0989999771118164,2.372999906539917 -1.2000000476837158,2.4010000228881836 -1.3300000429153442,2.4509999752044678 C-1.4609999656677246,2.500999927520752 -1.5460000038146973,2.5260000228881836 -1.5850000381469727,2.5260000228881836 C-1.600000023841858,2.5260000228881836 -1.6139999628067017,2.5250000953674316 -1.628999948501587,2.5209999084472656 C-1.7209999561309814,2.486999988555908 -1.8509999513626099,2.36899995803833 -2.0199999809265137,2.1700000762939453 C-2.2090001106262207,1.944000005722046 -2.302999973297119,1.7669999599456787 -2.302999973297119,1.6410000324249268 C-2.302999973297119,1.6180000305175781 -2.3010001182556152,1.593999981880188 -2.2960000038146973,1.569000005722046 C-2.2909998893737793,1.5440000295639038 -2.25,1.5089999437332153 -2.1730000972747803,1.4620000123977661 C-2.056999921798706,1.3940000534057617 -1.9830000400543213,1.3489999771118164 -1.9539999961853027,1.3259999752044678 C-1.9539999961853027,1.3259999752044678 0.5249999761581421,-1.4579999446868896 0.5249999761581421,-1.4579999446868896 C0.5249999761581421,-1.4579999446868896 -0.6570000052452087,-1.284999966621399 -0.6570000052452087,-1.284999966621399 C-0.6959999799728394,-1.2769999504089355 -0.7739999890327454,-1.2510000467300415 -0.8949999809265137,-1.2050000429153442 C-0.9819999933242798,-1.1740000247955322 -1.0479999780654907,-1.159000039100647 -1.0920000076293945,-1.159000039100647 C-1.1790000200271606,-1.1619999408721924 -1.3229999542236328,-1.2740000486373901 -1.5240000486373901,-1.496999979019165 C-1.7239999771118164,-1.718999981880188 -1.8209999799728394,-1.8769999742507935 -1.815999984741211,-1.968999981880188 C-1.8109999895095825,-2.0299999713897705 -1.7569999694824219,-2.0840001106262207 -1.649999976158142,-2.130000114440918 C-1.562999963760376,-2.1679999828338623 -1.4800000190734863,-2.188999891281128 -1.402999997138977,-2.193000078201294 C-1.340000033378601,-2.186000108718872 -1.246999979019165,-2.181999921798706 -1.121000051498413,-2.181999921798706 C-1.121000051498413,-2.181999921798706 1.2719999551773071,-2.4579999446868896 1.2719999551773071,-2.4579999446868896 C1.305999994277954,-2.4619998931884766 1.3550000190734863,-2.4739999771118164 1.4179999828338623,-2.494999885559082 C1.4809999465942383,-2.5160000324249268 1.5329999923706055,-2.5260000228881836 1.5770000219345093,-2.5260000228881836 C1.7510000467300415,-2.5260000228881836 1.8639999628067017,-2.50600004196167 1.9179999828338623,-2.4630000591278076 C1.9709999561309814,-2.4210000038146973 2.046999931335449,-2.305999994277954 2.1440000534057617,-2.11899995803833 C2.25,-1.9119999408721924 2.302999973297119,-1.75600004196167 2.302999973297119,-1.652999997138977 C2.302999973297119,-1.6109999418258667 2.2929999828338623,-1.5800000429153442 2.2739999294281006,-1.5609999895095825z"></path></g><g opacity="1" transform="matrix(1,0,0,1,22.61199951171875,15.781000137329102)"><path fill="rgb(244,121,92)" fill-opacity="1" d=" M2.302999973297119,-1.968000054359436 C2.3320000171661377,-1.7690000534057617 2.2739999294281006,-1.6419999599456787 2.128999948501587,-1.5889999866485596 C2.046999931335449,-1.5579999685287476 2.006999969482422,-1.5420000553131104 2.01200008392334,-1.5420000553131104 C1.7309999465942383,-1.2009999752044678 1.3609999418258667,-0.6010000109672546 0.9020000100135803,0.257999986410141 C0.47200000286102295,1.0700000524520874 0.24699999392032623,1.5579999685287476 0.2280000001192093,1.722000002861023 C0.22300000488758087,1.753000020980835 0.2329999953508377,1.8070000410079956 0.25699999928474426,1.8830000162124634 C0.2809999883174896,1.9600000381469727 0.28999999165534973,2.0230000019073486 0.28600001335144043,2.072999954223633 C0.25699999928474426,2.3340001106262207 0.17599999904632568,2.4739999771118164 0.03999999910593033,2.49399995803833 C-0.02800000086426735,2.500999927520752 -0.19599999487400055,2.4719998836517334 -0.4650000035762787,2.4070000648498535 C-0.7329999804496765,2.3410000801086426 -0.9120000004768372,2.2860000133514404 -1.003999948501587,2.240000009536743 C-1.1679999828338623,2.1480000019073486 -1.2510000467300415,2.055999994277954 -1.2510000467300415,1.9639999866485596 C-1.2510000467300415,1.9179999828338623 -1.2350000143051147,1.8669999837875366 -1.2009999752044678,1.809999942779541 C-1.1330000162124634,1.659999966621399 -0.9900000095367432,1.3539999723434448 -0.7720000147819519,0.8899999856948853 C-1.1729999780654907,0.23399999737739563 -1.4450000524520874,-0.21899999678134918 -1.5850000381469727,-0.46799999475479126 C-1.8660000562667847,-0.9660000205039978 -2.063999891281128,-1.3739999532699585 -2.180000066757202,-1.6920000314712524 C-2.190000057220459,-1.7109999656677246 -2.2170000076293945,-1.7400000095367432 -2.2639999389648438,-1.777999997138977 C-2.309000015258789,-1.8170000314712524 -2.3320000171661377,-1.850000023841858 -2.3320000171661377,-1.88100004196167 C-2.3320000171661377,-1.937999963760376 -2.236999988555908,-2.0260000228881836 -2.0480000972747803,-2.1410000324249268 C-1.6469999551773071,-2.385999917984009 -1.371999979019165,-2.5 -1.2230000495910645,-2.4839999675750732 C-1.1449999809265137,-2.4769999980926514 -1.0750000476837158,-2.437000036239624 -1.0119999647140503,-2.365000009536743 C-0.9589999914169312,-2.306999921798706 -0.9279999732971191,-2.253999948501587 -0.9179999828338623,-2.2090001106262207 C-0.9179999828338623,-2.135999917984009 -0.9039999842643738,-2.0199999809265137 -0.8740000128746033,-1.8589999675750732 C-0.7630000114440918,-1.3839999437332153 -0.531000018119812,-0.8669999837875366 -0.17800000309944153,-0.31200000643730164 C0.09200000017881393,-0.8370000123977661 0.2460000067949295,-1.1260000467300415 0.2800000011920929,-1.1799999475479126 C0.46299999952316284,-1.5049999952316284 0.6700000166893005,-1.809999942779541 0.9020000100135803,-2.0940001010894775 C0.9210000038146973,-2.1549999713897705 0.9549999833106995,-2.2339999675750732 1.003999948501587,-2.3299999237060547 C1.100000023841858,-2.4179999828338623 1.2309999465942383,-2.4539999961853027 1.3949999809265137,-2.437999963760376 C1.5110000371932983,-2.427000045776367 1.6890000104904175,-2.359999895095825 1.9279999732971191,-2.236999988555908 C2.1679999828338623,-2.115000009536743 2.2929999828338623,-2.0260000228881836 2.302999973297119,-1.968000054359436z"></path></g><g opacity="1" transform="matrix(1,0,0,1,8.843999862670898,22.695999145507812)"><path fill="rgb(244,121,92)" fill-opacity="1" d=" M1.8769999742507935,1.1299999952316284 C1.8619999885559082,1.2259999513626099 1.8170000314712524,1.3029999732971191 1.7389999628067017,1.3609999418258667 C1.5989999771118164,1.5989999771118164 1.3839999437332153,1.8380000591278076 1.093999981880188,2.0789999961853027 C0.7799999713897705,2.3359999656677246 0.5249999761581421,2.4649999141693115 0.3319999873638153,2.4649999141693115 C0.30399999022483826,2.4649999141693115 0.2770000100135803,2.4619998931884766 0.25200000405311584,2.4579999446868896 C0.03999999910593033,2.4040000438690186 -0.19900000095367432,2.3369998931884766 -0.4650000035762787,2.256999969482422 C-0.9390000104904175,2.1040000915527344 -1.3020000457763672,1.809999942779541 -1.5529999732971191,1.3769999742507935 C-1.7760000228881836,0.9860000014305115 -1.8869999647140503,0.5320000052452087 -1.8869999647140503,0.014999999664723873 C-1.8869999647140503,-0.6169999837875366 -1.7350000143051147,-1.1749999523162842 -1.4299999475479126,-1.6579999923706055 C-1.1059999465942383,-2.1710000038146973 -0.699999988079071,-2.437999963760376 -0.21199999749660492,-2.4570000171661377 C-0.023000000044703484,-2.4649999141693115 0.2540000081062317,-2.388000011444092 0.6190000176429749,-2.2269999980926514 C0.984000027179718,-2.065999984741211 1.2239999771118164,-1.9049999713897705 1.340999960899353,-1.746000051498413 C1.4559999704360962,-1.5870000123977661 1.5360000133514404,-1.2400000095367432 1.5800000429153442,-0.7039999961853027 C1.5889999866485596,-0.5889999866485596 1.5700000524520874,-0.47200000286102295 1.5219999551773071,-0.3529999852180481 C1.4639999866485596,-0.210999995470047 1.3890000581741333,-0.1459999978542328 1.2970000505447388,-0.15800000727176666 C1.1269999742507935,-0.1770000010728836 0.9150000214576721,-0.21799999475479126 0.6589999794960022,-0.28299999237060547 C0.3490000069141388,-0.36399999260902405 0.18199999630451202,-0.4320000112056732 0.15800000727176666,-0.48500001430511475 C0.14900000393390656,-0.5040000081062317 0.14399999380111694,-0.5220000147819519 0.14399999380111694,-0.5370000004768372 C0.14399999380111694,-0.5709999799728394 0.164000004529953,-0.6129999756813049 0.20600000023841858,-0.6650000214576721 C0.24699999392032623,-0.7170000076293945 0.2669999897480011,-0.7609999775886536 0.2669999897480011,-0.7960000038146973 C0.29100000858306885,-0.953000009059906 0.30399999022483826,-1.100000023841858 0.30399999022483826,-1.2380000352859497 C0.30399999022483826,-1.437999963760376 0.27399998903274536,-1.5759999752044678 0.2160000056028366,-1.6519999504089355 C-0.07400000095367432,-1.4830000400543213 -0.2939999997615814,-1.2009999752044678 -0.4440000057220459,-0.8059999942779541 C-0.5690000057220459,-0.4729999899864197 -0.6320000290870667,-0.09600000083446503 -0.6320000290870667,0.32499998807907104 C-0.6320000290870667,0.6510000228881836 -0.5960000157356262,0.9419999718666077 -0.5230000019073486,1.1970000267028809 C-0.45100000500679016,1.4520000219345093 -0.36399999260902405,1.6059999465942383 -0.2619999945163727,1.659999966621399 C-0.21400000154972076,1.6829999685287476 -0.07999999821186066,1.6039999723434448 0.14000000059604645,1.4259999990463257 C0.36000001430511475,1.2480000257492065 0.5019999742507935,1.1059999465942383 0.5640000104904175,0.9990000128746033 C0.5690000057220459,0.9950000047683716 0.5910000205039978,0.9330000281333923 0.6299999952316284,0.8140000104904175 C0.6589999794960022,0.7450000047683716 0.6970000267028809,0.703000009059906 0.7459999918937683,0.6869999766349792 C0.828000009059906,0.6639999747276306 1.0399999618530273,0.718999981880188 1.3799999952316284,0.8510000109672546 C1.7209999561309814,0.984000027179718 1.8869999647140503,1.0770000219345093 1.8769999742507935,1.1299999952316284z"></path></g><g opacity="1" transform="matrix(1,0,0,1,13.020000457763672,22.674999237060547)"><path fill="rgb(244,121,92)" fill-opacity="1" d=" M0.47099998593330383,2.4519999027252197 C0.3700000047683716,2.4590001106262207 0.25600001215934753,2.447999954223633 0.12999999523162842,2.4189999103546143 C0.004999999888241291,2.390000104904175 -0.11800000071525574,2.3610000610351562 -0.23899999260902405,2.3310000896453857 C-0.3840000033378601,2.299999952316284 -0.6119999885559082,2.244999885559082 -0.9210000038146973,2.1640000343322754 C-1.3079999685287476,2.0299999713897705 -1.600000023841858,1.7660000324249268 -1.7979999780654907,1.371000051498413 C-1.9730000495910645,1.0219999551773071 -2.059999942779541,0.6000000238418579 -2.059999942779541,0.10599999874830246 C-2.059999942779541,-0.29600000381469727 -1.9730000495910645,-0.765999972820282 -1.7979999780654907,-1.3020000457763672 C-1.562000036239624,-2.0230000019073486 -1.253999948501587,-2.382999897003174 -0.878000020980835,-2.382999897003174 C-0.843999981880188,-2.382999897003174 -0.796999990940094,-2.375999927520752 -0.7360000014305115,-2.36299991607666 C-0.6759999990463257,-2.3489999771118164 -0.6290000081062317,-2.3410000801086426 -0.5950000286102295,-2.3369998931884766 C-0.2370000034570694,-2.4170000553131104 -0.007000000216066837,-2.4579999446868896 0.09399999678134918,-2.4579999446868896 C0.1420000046491623,-2.4579999446868896 0.19099999964237213,-2.4560000896453857 0.23899999260902405,-2.4519999027252197 C0.8199999928474426,-2.3940000534057617 1.2760000228881836,-2.1070001125335693 1.6100000143051147,-1.590000033378601 C1.909999966621399,-1.121999979019165 2.059999942779541,-0.5640000104904175 2.059999942779541,0.08299999684095383 C2.059999942779541,0.6959999799728394 1.9240000247955322,1.2230000495910645 1.6540000438690186,1.6640000343322754 C1.3639999628067017,2.1429998874664307 0.968999981880188,2.4049999713897705 0.47099998593330383,2.4519999027252197z"></path></g><g opacity="1" transform="matrix(1,0,0,1,13.020000457763672,22.674999237060547)"><path fill="rgb(247,151,100)" fill-opacity="1" d=" M0.3409999907016754,-1.7630000114440918 C0.23399999737739563,-1.7860000133514404 0.1289999932050705,-1.6720000505447388 0.02500000037252903,-1.4229999780654907 C-0.07800000160932541,-1.1740000247955322 -0.18400000035762787,-1.0490000247955322 -0.28999999165534973,-1.0490000247955322 C-0.3140000104904175,-1.0490000247955322 -0.3490000069141388,-1.059999942779541 -0.39500001072883606,-1.0809999704360962 C-0.4410000145435333,-1.1019999980926514 -0.4790000021457672,-1.1139999628067017 -0.5080000162124634,-1.1180000305175781 C-0.671999990940094,-0.8309999704360962 -0.7540000081062317,-0.42100000381469727 -0.7540000081062317,0.1120000034570694 C-0.7540000081062317,0.5299999713897705 -0.6990000009536743,0.8880000114440918 -0.5870000123977661,1.187000036239624 C-0.4620000123977661,1.5199999809265137 -0.2879999876022339,1.7039999961853027 -0.06499999761581421,1.7389999628067017 C0.19599999487400055,1.7769999504089355 0.4059999883174896,1.565000057220459 0.5659999847412109,1.1009999513626099 C0.7059999704360962,0.6940000057220459 0.7760000228881836,0.210999995470047 0.7760000228881836,-0.3490000069141388 C0.7760000228881836,-0.7279999852180481 0.7400000095367432,-1.0449999570846558 0.6669999957084656,-1.3020000457763672 C0.5899999737739563,-1.5779999494552612 0.48100000619888306,-1.7319999933242798 0.3409999907016754,-1.7630000114440918z"></path></g><g opacity="1" transform="matrix(1,0,0,1,17.52400016784668,22.743999481201172)"><path fill="rgb(244,121,92)" fill-opacity="1" d=" M2.0820000171661377,-2.2219998836517334 C2.0820000171661377,-2.180000066757202 2.071000099182129,-2.140000104904175 2.052000045776367,-2.1010000705718994 C2.0179998874664307,-2.0360000133514404 1.996000051498413,-1.9839999675750732 1.9869999885559082,-1.9459999799728394 C1.9869999885559082,-1.9459999799728394 1.9869999885559082,1.8480000495910645 1.9869999885559082,1.8480000495910645 C1.9869999885559082,1.8359999656677246 1.9989999532699585,1.906999945640564 2.0230000019073486,2.061000108718872 C2.052000045776367,2.236999988555908 2.0230000019073486,2.3519999980926514 1.9359999895095825,2.4049999713897705 C1.8489999771118164,2.4590001106262207 1.652999997138977,2.4749999046325684 1.3489999771118164,2.4519999027252197 C1.1740000247955322,2.440000057220459 0.9739999771118164,2.4030001163482666 0.746999979019165,2.3420000076293945 C0.4519999921321869,2.2690000534057617 0.29100000858306885,2.193000078201294 0.2619999945163727,2.111999988555908 C0.26600000262260437,2.059000015258789 0.257999986410141,1.9759999513626099 0.23899999260902405,1.8650000095367432 C-0.03200000151991844,1.2979999780654907 -0.34599998593330383,0.675000011920929 -0.7039999961853027,-0.003000000026077032 C-0.7039999961853027,-0.003000000026077032 -0.7039999961853027,1.6979999542236328 -0.7039999961853027,1.6979999542236328 C-0.7039999961853027,1.7289999723434448 -0.6859999895095825,1.7690000534057617 -0.6520000100135803,1.819000005722046 C-0.609000027179718,1.8839999437332153 -0.5870000123977661,1.9190000295639038 -0.5870000123977661,1.9229999780654907 C-0.5630000233650208,1.9800000190734863 -0.5519999861717224,2.0380001068115234 -0.5519999861717224,2.0950000286102295 C-0.5519999861717224,2.247999906539917 -0.6389999985694885,2.325000047683716 -0.8130000233650208,2.325000047683716 C-0.9819999933242798,2.325000047683716 -1.2209999561309814,2.2860000133514404 -1.531000018119812,2.2100000381469727 C-1.8209999799728394,2.134000062942505 -1.9850000143051147,2.0739998817443848 -2.0239999294281006,2.0320000648498535 C-2.0820000171661377,1.9709999561309814 -2.0820000171661377,1.8919999599456787 -2.0239999294281006,1.7960000038146973 C-1.965999960899353,1.7000000476837158 -1.9359999895095825,1.6410000324249268 -1.9359999895095825,1.6180000305175781 C-1.9359999895095825,1.6180000305175781 -1.9359999895095825,-1.9859999418258667 -1.9359999895095825,-1.9859999418258667 C-1.9359999895095825,-2.009000062942505 -1.944000005722046,-2.0439999103546143 -1.9589999914169312,-2.0899999141693115 C-1.9730000495910645,-2.135999917984009 -1.9759999513626099,-2.171999931335449 -1.965999960899353,-2.1989998817443848 C-1.9179999828338623,-2.3289999961853027 -1.8229999542236328,-2.4170000553131104 -1.6829999685287476,-2.4639999866485596 C-1.659000039100647,-2.4709999561309814 -1.6050000190734863,-2.4749999046325684 -1.5219999551773071,-2.4749999046325684 C-1.3339999914169312,-2.4749999046325684 -1.1419999599456787,-2.4560000896453857 -0.9430000185966492,-2.4170000553131104 C-0.6869999766349792,-2.371000051498413 -0.5080000162124634,-2.305999994277954 -0.40700000524520874,-2.2219998836517334 C-0.2709999978542328,-2.1070001125335693 -0.09399999678134918,-1.75600004196167 0.12399999797344208,-1.1699999570846558 C0.38999998569488525,-0.4490000009536743 0.597000002861023,0.03700000047683716 0.746999979019165,0.28999999165534973 C0.746999979019165,0.28999999165534973 0.746999979019165,-1.968999981880188 0.746999979019165,-1.968999981880188 C0.746999979019165,-2 0.7369999885559082,-2.0429999828338623 0.7179999947547913,-2.0989999771118164 C0.6980000138282776,-2.1540000438690186 0.6890000104904175,-2.197000026702881 0.6890000104904175,-2.2279999256134033 C0.6890000104904175,-2.250999927520752 0.6930000185966492,-2.2720000743865967 0.703000009059906,-2.2909998893737793 C0.7269999980926514,-2.3559999465942383 0.8190000057220459,-2.4040000438690186 0.9789999723434448,-2.434999942779541 C1.1039999723434448,-2.4609999656677246 1.225000023841858,-2.4709999561309814 1.340999960899353,-2.4639999866485596 C1.4529999494552612,-2.4560000896453857 1.5859999656677246,-2.434999942779541 1.7410000562667847,-2.4000000953674316 C1.9639999866485596,-2.3469998836517334 2.0769999027252197,-2.2869999408721924 2.0820000171661377,-2.2219998836517334z"></path></g><g opacity="1" transform="matrix(1,0,0,1,21.902000427246094,22.697999954223633)"><path fill="rgb(244,121,92)" fill-opacity="1" d=" M1.590999960899353,1.6169999837875366 C1.5759999752044678,1.6820000410079956 1.534000039100647,1.7519999742507935 1.4639999866485596,1.8270000219345093 C1.3940000534057617,1.9019999504089355 1.3320000171661377,1.9470000267028809 1.2790000438690186,1.9620000123977661 C1.2649999856948853,1.965999960899353 1.2380000352859497,1.9589999914169312 1.1990000009536743,1.9420000314712524 C1.159999966621399,1.9249999523162842 1.128999948501587,1.9160000085830688 1.1050000190734863,1.9160000085830688 C1.0950000286102295,1.9160000085830688 1.0859999656677246,1.9179999828338623 1.0759999752044678,1.9220000505447388 C0.9259999990463257,1.9559999704360962 0.7760000228881836,2.002000093460083 0.6259999871253967,2.059999942779541 C0.26899999380111694,2.190000057220459 -0.05999999865889549,2.3570001125335693 -0.36000001430511475,2.559999942779541 C-0.8429999947547913,2.4019999504089355 -1.1069999933242798,2.315999984741211 -1.149999976158142,2.3010001182556152 C-1.4500000476837158,2.197999954223633 -1.600000023841858,2.121000051498413 -1.600000023841858,2.071000099182129 C-1.600000023841858,2.071000099182129 -1.600000023841858,-2.252000093460083 -1.600000023841858,-2.252000093460083 C-1.600000023841858,-2.2780001163482666 -1.5429999828338623,-2.316999912261963 -1.4299999475479126,-2.367000102996826 C-1.315999984741211,-2.4159998893737793 -1.2330000400543213,-2.438999891281128 -1.1790000200271606,-2.434999942779541 C-1.121999979019165,-2.431999921798706 -1.0049999952316284,-2.4019999504089355 -0.8309999704360962,-2.3469998836517334 C-0.6570000052452087,-2.2909998893737793 -0.5149999856948853,-2.263000011444092 -0.40299999713897705,-2.263000011444092 C-0.257999986410141,-2.263000011444092 -0.07000000029802322,-2.315000057220459 0.16200000047683716,-2.4179999828338623 C0.375,-2.5179998874664307 0.5080000162124634,-2.559999942779541 0.5609999895095825,-2.5450000762939453 C0.6769999861717224,-2.5139999389648438 0.8500000238418579,-2.4130001068115234 1.0800000429153442,-2.243000030517578 C1.309000015258789,-2.072000026702881 1.434000015258789,-1.9509999752044678 1.4529999494552612,-1.878000020980835 C1.4630000591278076,-1.843999981880188 1.4179999828338623,-1.784000039100647 1.319000005722046,-1.7000000476837158 C1.2200000286102295,-1.6160000562667847 1.1390000581741333,-1.5729999542236328 1.0759999752044678,-1.5729999542236328 C1.0230000019073486,-1.5729999542236328 0.984000027179718,-1.5789999961853027 0.9599999785423279,-1.590000033378601 C0.9359999895095825,-1.6019999980926514 0.9190000295639038,-1.6059999465942383 0.9089999794960022,-1.6019999980926514 C0.7350000143051147,-1.5709999799728394 0.5730000138282776,-1.534999966621399 0.4230000078678131,-1.4930000305175781 C0.06599999964237213,-1.3969999551773071 -0.1979999989271164,-1.2860000133514404 -0.367000013589859,-1.159000039100647 C-0.367000013589859,-1.159000039100647 -0.367000013589859,-0.22200000286102295 -0.367000013589859,-0.22200000286102295 C-0.1979999989271164,-0.2919999957084656 0.02199999988079071,-0.3619999885559082 0.2930000126361847,-0.4350000023841858 C0.3700000047683716,-0.4429999887943268 0.5329999923706055,-0.3569999933242798 0.7820000052452087,-0.17900000512599945 C1.031000018119812,-0.0010000000474974513 1.156000018119812,0.12200000137090683 1.156000018119812,0.19099999964237213 C1.156000018119812,0.23399999737739563 1.121999979019165,0.28299999237060547 1.0540000200271606,0.3409999907016754 C0.9860000014305115,0.39800000190734863 0.9210000038146973,0.4350000023841858 0.8579999804496765,0.44999998807907104 C0.8100000023841858,0.44999998807907104 0.7250000238418579,0.45399999618530273 0.6050000190734863,0.4620000123977661 C0.42100000381469727,0.48899999260902405 0.09700000286102295,0.6110000014305115 -0.367000013589859,0.8299999833106995 C-0.367000013589859,0.8299999833106995 -0.367000013589859,1.4329999685287476 -0.367000013589859,1.4329999685287476 C-0.22200000286102295,1.3639999628067017 -0.02500000037252903,1.2829999923706055 0.2240000069141388,1.1890000104904175 C0.4729999899864197,1.0950000286102295 0.6259999871253967,1.0479999780654907 0.6840000152587891,1.0479999780654907 C0.7519999742507935,1.0479999780654907 0.921999990940094,1.13100004196167 1.1959999799728394,1.2979999780654907 C1.468999981880188,1.465000033378601 1.600000023841858,1.5709999799728394 1.590999960899353,1.6169999837875366z"></path></g><g opacity="1" transform="matrix(1,0,0,1,31.038999557495117,24.606000900268555)"><path fill="rgb(252,217,87)" fill-opacity="1" d=" M-2.7009999752044678,-3.568000078201294 C-2.7009999752044678,-3.568000078201294 3.447000026702881,-2.8519999980926514 3.447000026702881,-2.8519999980926514 C3.447000026702881,-2.8519999980926514 3.36299991607666,-2.13700008392334 3.36299991607666,-2.13700008392334 C3.36299991607666,-2.13700008392334 -1.3179999589920044,2.375 -1.3179999589920044,2.375 C-1.3179999589920044,2.375 2.7829999923706055,2.8519999980926514 2.7829999923706055,2.8519999980926514 C2.7829999923706055,2.8519999980926514 2.700000047683716,3.568000078201294 2.700000047683716,3.568000078201294 C2.700000047683716,3.568000078201294 -3.447000026702881,2.8529999256134033 -3.447000026702881,2.8529999256134033 C-3.447000026702881,2.8529999256134033 -3.364000082015991,2.13700008392334 -3.364000082015991,2.13700008392334 C-3.364000082015991,2.13700008392334 1.3170000314712524,-2.375 1.3170000314712524,-2.375 C1.3170000314712524,-2.375 -2.7839999198913574,-2.8519999980926514 -2.7839999198913574,-2.8519999980926514 C-2.7839999198913574,-2.8519999980926514 -2.7009999752044678,-3.568000078201294 -2.7009999752044678,-3.568000078201294z"></path></g><g opacity="1" transform="matrix(1,0,0,1,31.65399932861328,17.010000228881836)"><path fill="rgb(247,151,100)" fill-opacity="1" d=" M-2.5989999771118164,-2.11899995803833 C-2.5989999771118164,-2.11899995803833 2.003999948501587,-2.688999891281128 2.003999948501587,-2.688999891281128 C2.003999948501587,-2.688999891281128 2.069999933242798,-2.1530001163482666 2.069999933242798,-2.1530001163482666 C2.069999933242798,-2.1530001163482666 -0.5389999747276306,1.9630000591278076 -0.5389999747276306,1.9630000591278076 C-0.5389999747276306,1.9630000591278076 2.5339999198913574,1.5829999446868896 2.5339999198913574,1.5829999446868896 C2.5339999198913574,1.5829999446868896 2.5989999771118164,2.11899995803833 2.5989999771118164,2.11899995803833 C2.5989999771118164,2.11899995803833 -2.005000114440918,2.688999891281128 -2.005000114440918,2.688999891281128 C-2.005000114440918,2.688999891281128 -2.069999933242798,2.1530001163482666 -2.069999933242798,2.1530001163482666 C-2.069999933242798,2.1530001163482666 0.5379999876022339,-1.9630000591278076 0.5379999876022339,-1.9630000591278076 C0.5379999876022339,-1.9630000591278076 -2.5339999198913574,-1.5829999446868896 -2.5339999198913574,-1.5829999446868896 C-2.5339999198913574,-1.5829999446868896 -2.5989999771118164,-2.11899995803833 -2.5989999771118164,-2.11899995803833z"></path></g><g opacity="1" transform="matrix(1,0,0,1,31.65399932861328,11.267999649047852)"><path fill="rgb(247,151,100)" fill-opacity="1" d=" M-1.2430000305175781,-1.8980000019073486 C-1.2430000305175781,-1.8980000019073486 1.843000054359436,-1.3240000009536743 1.843000054359436,-1.3240000009536743 C1.843000054359436,-1.3240000009536743 1.7760000228881836,-0.9649999737739563 1.7760000228881836,-0.9649999737739563 C1.7760000228881836,-0.9649999737739563 -0.7480000257492065,1.156000018119812 -0.7480000257492065,1.156000018119812 C-0.7480000257492065,1.156000018119812 1.309999942779541,1.5390000343322754 1.309999942779541,1.5390000343322754 C1.309999942779541,1.5390000343322754 1.24399995803833,1.8980000019073486 1.24399995803833,1.8980000019073486 C1.24399995803833,1.8980000019073486 -1.843000054359436,1.3250000476837158 -1.843000054359436,1.3250000476837158 C-1.843000054359436,1.3250000476837158 -1.7760000228881836,0.9649999737739563 -1.7760000228881836,0.9649999737739563 C-1.7760000228881836,0.9649999737739563 0.7480000257492065,-1.156000018119812 0.7480000257492065,-1.156000018119812 C0.7480000257492065,-1.156000018119812 -1.309999942779541,-1.5390000343322754 -1.309999942779541,-1.5390000343322754 C-1.309999942779541,-1.5390000343322754 -1.2430000305175781,-1.8980000019073486 -1.2430000305175781,-1.8980000019073486z"></path></g><g opacity="1" transform="matrix(1,0,0,1,11.364999771118164,36.00299835205078)"><path fill="rgb(255,236,172)" fill-opacity="1" d=" M-3.5309998989105225,-3.125999927520752 C-3.5309998989105225,-3.125999927520752 -1.4479999542236328,-3.125999927520752 -1.4479999542236328,-3.125999927520752 C-1.4479999542236328,-3.125999927520752 -0.008999999612569809,0.9539999961853027 -0.008999999612569809,0.9539999961853027 C-0.008999999612569809,0.9539999961853027 0.008999999612569809,0.9539999961853027 0.008999999612569809,0.9539999961853027 C0.008999999612569809,0.9539999961853027 1.4570000171661377,-3.125999927520752 1.4570000171661377,-3.125999927520752 C1.4570000171661377,-3.125999927520752 3.5309998989105225,-3.125999927520752 3.5309998989105225,-3.125999927520752 C3.5309998989105225,-3.125999927520752 3.5309998989105225,3.125999927520752 3.5309998989105225,3.125999927520752 C3.5309998989105225,3.125999927520752 2.1540000438690186,3.125999927520752 2.1540000438690186,3.125999927520752 C2.1540000438690186,3.125999927520752 2.1540000438690186,-1.6679999828338623 2.1540000438690186,-1.6679999828338623 C2.1540000438690186,-1.6679999828338623 2.13700008392334,-1.6679999828338623 2.13700008392334,-1.6679999828338623 C2.13700008392334,-1.6679999828338623 0.4950000047683716,3.125999927520752 0.4950000047683716,3.125999927520752 C0.4950000047683716,3.125999927520752 -0.5559999942779541,3.125999927520752 -0.5559999942779541,3.125999927520752 C-0.5559999942779541,3.125999927520752 -2.135999917984009,-1.6679999828338623 -2.135999917984009,-1.6679999828338623 C-2.135999917984009,-1.6679999828338623 -2.1540000438690186,-1.6679999828338623 -2.1540000438690186,-1.6679999828338623 C-2.1540000438690186,-1.6679999828338623 -2.1540000438690186,3.125999927520752 -2.1540000438690186,3.125999927520752 C-2.1540000438690186,3.125999927520752 -3.5309998989105225,3.125999927520752 -3.5309998989105225,3.125999927520752 C-3.5309998989105225,3.125999927520752 -3.5309998989105225,-3.125999927520752 -3.5309998989105225,-3.125999927520752z"></path></g><g opacity="1" transform="matrix(1,0,0,1,19.20400047302246,36.00299835205078)"><path fill="rgb(255,236,172)" fill-opacity="1" d=" M-3.371999979019165,0 C-3.371999979019165,-0.5 -3.2880001068115234,-0.953000009059906 -3.121000051498413,-1.3600000143051147 C-2.953000068664551,-1.7660000324249268 -2.7190001010894775,-2.1110000610351562 -2.4189999103546143,-2.3970000743865967 C-2.118000030517578,-2.681999921798706 -1.7619999647140503,-2.9019999504089355 -1.350000023841858,-3.055000066757202 C-0.9380000233650208,-3.2079999446868896 -0.4880000054836273,-3.2839999198913574 0,-3.2839999198913574 C0.48899999260902405,-3.2839999198913574 0.9390000104904175,-3.2079999446868896 1.3509999513626099,-3.055000066757202 C1.7630000114440918,-2.9019999504089355 2.11899995803833,-2.681999921798706 2.4189999103546143,-2.3970000743865967 C2.7190001010894775,-2.1110000610351562 2.953000068664551,-1.7660000324249268 3.121000051498413,-1.3600000143051147 C3.2890000343322754,-0.953000009059906 3.371999979019165,-0.5 3.371999979019165,0 C3.371999979019165,0.5 3.2890000343322754,0.953000009059906 3.121000051498413,1.3589999675750732 C2.953000068664551,1.7660000324249268 2.7190001010894775,2.1110000610351562 2.4189999103546143,2.3970000743865967 C2.11899995803833,2.683000087738037 1.7630000114440918,2.9019999504089355 1.3509999513626099,3.055000066757202 C0.9390000104904175,3.2079999446868896 0.48899999260902405,3.2839999198913574 0,3.2839999198913574 C-0.4880000054836273,3.2839999198913574 -0.9380000233650208,3.2079999446868896 -1.350000023841858,3.055000066757202 C-1.7619999647140503,2.9019999504089355 -2.118000030517578,2.683000087738037 -2.4189999103546143,2.3970000743865967 C-2.7190001010894775,2.1110000610351562 -2.953000068664551,1.7660000324249268 -3.121000051498413,1.3589999675750732 C-3.2880001068115234,0.953000009059906 -3.371999979019165,0.5 -3.371999979019165,0z"></path></g><g opacity="1" transform="matrix(1,0,0,1,19.20400047302246,36.00299835205078)"><path fill="rgb(163,87,24)" fill-opacity="1" d=" M-1.9420000314712524,0 C-1.9420000314712524,0.2939999997615814 -1.8960000276565552,0.5630000233650208 -1.8049999475479126,0.8080000281333923 C-1.7139999866485596,1.0520000457763672 -1.5829999446868896,1.2640000581741333 -1.4119999408721924,1.4429999589920044 C-1.2410000562667847,1.6230000257492065 -1.0369999408721924,1.7630000114440918 -0.7990000247955322,1.8630000352859497 C-0.5600000023841858,1.9630000591278076 -0.2939999997615814,2.013000011444092 0,2.013000011444092 C0.2939999997615814,2.013000011444092 0.5609999895095825,1.9630000591278076 0.7990000247955322,1.8630000352859497 C1.0379999876022339,1.7630000114440918 1.2419999837875366,1.6230000257492065 1.4129999876022339,1.4429999589920044 C1.5839999914169312,1.2640000581741333 1.7139999866485596,1.0520000457763672 1.805999994277954,0.8080000281333923 C1.8969999551773071,0.5630000233650208 1.9429999589920044,0.2939999997615814 1.9429999589920044,0 C1.9429999589920044,-0.2879999876022339 1.8969999551773071,-0.5559999942779541 1.805999994277954,-0.8029999732971191 C1.7139999866485596,-1.0509999990463257 1.5839999914169312,-1.2640000581741333 1.4129999876022339,-1.444000005722046 C1.2419999837875366,-1.6230000257492065 1.0379999876022339,-1.7630000114440918 0.7990000247955322,-1.8630000352859497 C0.5609999895095825,-1.9630000591278076 0.2939999997615814,-2.013000011444092 0,-2.013000011444092 C-0.2939999997615814,-2.013000011444092 -0.5600000023841858,-1.9630000591278076 -0.7990000247955322,-1.8630000352859497 C-1.0369999408721924,-1.7630000114440918 -1.2410000562667847,-1.6230000257492065 -1.4119999408721924,-1.444000005722046 C-1.5829999446868896,-1.2640000581741333 -1.7139999866485596,-1.0509999990463257 -1.8049999475479126,-0.8029999732971191 C-1.8960000276565552,-0.5559999942779541 -1.9420000314712524,-0.2879999876022339 -1.9420000314712524,0z"></path></g><g opacity="1" transform="matrix(1,0,0,1,25.40999984741211,36.00299835205078)"><path fill="rgb(255,236,172)" fill-opacity="1" d=" M-0.6880000233650208,-1.906999945640564 C-0.6880000233650208,-1.906999945640564 -2.4719998836517334,-1.906999945640564 -2.4719998836517334,-1.906999945640564 C-2.4719998836517334,-1.906999945640564 -2.4719998836517334,-3.125 -2.4719998836517334,-3.125 C-2.4719998836517334,-3.125 2.4719998836517334,-3.125 2.4719998836517334,-3.125 C2.4719998836517334,-3.125 2.4719998836517334,-1.906999945640564 2.4719998836517334,-1.906999945640564 C2.4719998836517334,-1.906999945640564 0.6890000104904175,-1.906999945640564 0.6890000104904175,-1.906999945640564 C0.6890000104904175,-1.906999945640564 0.6890000104904175,3.125 0.6890000104904175,3.125 C0.6890000104904175,3.125 -0.6880000233650208,3.125 -0.6880000233650208,3.125 C-0.6880000233650208,3.125 -0.6880000233650208,-1.906999945640564 -0.6880000233650208,-1.906999945640564z"></path></g><g opacity="1" transform="matrix(1,0,0,1,30.834999084472656,36.00299835205078)"><path fill="rgb(255,236,172)" fill-opacity="1" d=" M-2.2019999027252197,-3.125999927520752 C-2.2019999027252197,-3.125999927520752 2.0429999828338623,-3.125999927520752 2.0429999828338623,-3.125999927520752 C2.0429999828338623,-3.125999927520752 2.0429999828338623,-1.8539999723434448 2.0429999828338623,-1.8539999723434448 C2.0429999828338623,-1.8539999723434448 -0.8259999752044678,-1.8539999723434448 -0.8259999752044678,-1.8539999723434448 C-0.8259999752044678,-1.8539999723434448 -0.8259999752044678,-0.6890000104904175 -0.8259999752044678,-0.6890000104904175 C-0.8259999752044678,-0.6890000104904175 1.8839999437332153,-0.6890000104904175 1.8839999437332153,-0.6890000104904175 C1.8839999437332153,-0.6890000104904175 1.8839999437332153,0.5820000171661377 1.8839999437332153,0.5820000171661377 C1.8839999437332153,0.5820000171661377 -0.8259999752044678,0.5820000171661377 -0.8259999752044678,0.5820000171661377 C-0.8259999752044678,0.5820000171661377 -0.8259999752044678,1.8530000448226929 -0.8259999752044678,1.8530000448226929 C-0.8259999752044678,1.8530000448226929 2.2019999027252197,1.8530000448226929 2.2019999027252197,1.8530000448226929 C2.2019999027252197,1.8530000448226929 2.2019999027252197,3.125999927520752 2.2019999027252197,3.125999927520752 C2.2019999027252197,3.125999927520752 -2.2019999027252197,3.125999927520752 -2.2019999027252197,3.125999927520752 C-2.2019999027252197,3.125999927520752 -2.2019999027252197,-3.125999927520752 -2.2019999027252197,-3.125999927520752z"></path></g><g opacity="1" transform="matrix(1,0,0,1,36.15800094604492,36.00299835205078)"><path fill="rgb(255,236,172)" fill-opacity="1" d=" M-1.9639999866485596,-3.125999927520752 C-1.9639999866485596,-3.125999927520752 -0.5870000123977661,-3.125999927520752 -0.5870000123977661,-3.125999927520752 C-0.5870000123977661,-3.125999927520752 -0.5870000123977661,1.8530000448226929 -0.5870000123977661,1.8530000448226929 C-0.5870000123977661,1.8530000448226929 1.9639999866485596,1.8530000448226929 1.9639999866485596,1.8530000448226929 C1.9639999866485596,1.8530000448226929 1.9639999866485596,3.125999927520752 1.9639999866485596,3.125999927520752 C1.9639999866485596,3.125999927520752 -1.9639999866485596,3.125999927520752 -1.9639999866485596,3.125999927520752 C-1.9639999866485596,3.125999927520752 -1.9639999866485596,-3.125999927520752 -1.9639999866485596,-3.125999927520752z"></path></g></g></g></svg>