<?xml version="1.0" encoding="UTF-8" standalone="no"?>
<!DOCTYPE svg PUBLIC "-//W3C//DTD SVG 1.1//EN" "http://www.w3.org/Graphics/SVG/1.1/DTD/svg11.dtd">
<svg width="100%" height="100%" viewBox="0 0 13 42" version="1.1" xmlns="http://www.w3.org/2000/svg" xmlns:xlink="http://www.w3.org/1999/xlink" xml:space="preserve" xmlns:serif="http://www.serif.com/" style="fill-rule:evenodd;clip-rule:evenodd;stroke-linejoin:round;stroke-miterlimit:2;">
    <g>
        <g transform="matrix(-0.364911,0,0,0.357634,6.89177,22.5336)">
            <g>
                <path d="M18.257,55.815L18.257,-53.865C18.257,-57.747 15.109,-60.892 11.227,-60.892L-0.006,-60.892L-18.257,-55.817L-7.024,-55.817C-3.142,-55.817 0.005,-52.669 0.005,-48.788L0.005,60.892L18.257,55.815Z" style="fill:rgb(135,211,235);fill-rule:nonzero;"/>
            </g>
        </g>
        <g transform="matrix(0.625828,0.312026,-0.312026,0.625828,-28.4716,-59.1524)">
            <g>
                <g transform="matrix(1,0,0,1,81.4122,61.1443)">
                    <path d="M6.614,2.8C6.985,3.605 6.042,4.144 4.644,4.144C3.033,4.144 1.954,3.717 1.565,2.835C1.918,3.664 0.984,4.179 -0.414,4.179C-2.025,4.179 -3.057,3.741 -3.493,2.87L-5.557,-1.252C-5.167,-0.37 -4.089,0.057 -2.477,0.057C-1.079,0.057 -0.145,-0.458 -0.499,-1.287C-0.109,-0.406 0.97,0.021 2.582,0.021C3.98,0.021 4.935,-0.508 4.552,-1.322L6.614,2.8Z" style="fill:rgb(184,228,250);fill-rule:nonzero;"/>
                </g>
                <g transform="matrix(1,0,0,1,87.3752,73.0393)">
                    <path d="M7.63,5.167C8.001,5.972 7.058,6.511 5.66,6.511C4.049,6.511 2.97,6.084 2.581,5.202C2.934,6.031 2,6.546 0.602,6.546C-1.009,6.546 -2.041,6.108 -2.477,5.237L-4.54,1.115C-4.15,1.997 -3.072,2.424 -1.46,2.424C-0.062,2.424 0.872,1.909 0.518,1.08C0.908,1.961 1.986,2.389 3.598,2.389C4.996,2.389 5.951,1.859 5.568,1.045L7.63,5.167Z" style="fill:rgb(184,228,250);fill-rule:nonzero;"/>
                </g>
            </g>
        </g>
        <g transform="matrix(0.625828,0.312026,-0.312026,0.625828,-28.3935,-36.6263)">
            <g>
                <g transform="matrix(1,0,0,1,81.4122,61.1443)">
                    <path d="M6.614,2.8C6.985,3.605 6.042,4.144 4.644,4.144C3.033,4.144 1.954,3.717 1.565,2.835C1.918,3.664 0.984,4.179 -0.414,4.179C-2.025,4.179 -3.057,3.741 -3.493,2.87L-5.557,-1.252C-5.167,-0.37 -4.089,0.057 -2.477,0.057C-1.079,0.057 -0.145,-0.458 -0.499,-1.287C-0.109,-0.406 0.97,0.021 2.582,0.021C3.98,0.021 4.935,-0.508 4.552,-1.322L6.614,2.8Z" style="fill:rgb(184,228,250);fill-rule:nonzero;"/>
                </g>
                <g transform="matrix(1,0,0,1,87.3752,73.0393)">
                    <path d="M7.63,5.167C8.001,5.972 7.058,6.511 5.66,6.511C4.049,6.511 2.97,6.084 2.581,5.202C2.934,6.031 2,6.546 0.602,6.546C-1.009,6.546 -2.041,6.108 -2.477,5.237L-4.54,1.115C-4.15,1.997 -3.072,2.424 -1.46,2.424C-0.062,2.424 0.872,1.909 0.518,1.08C0.908,1.961 1.986,2.389 3.598,2.389C4.996,2.389 5.951,1.859 5.568,1.045L7.63,5.167Z" style="fill:rgb(184,228,250);fill-rule:nonzero;"/>
                </g>
            </g>
        </g>
    </g>
</svg>
