<svg xmlns="http://www.w3.org/2000/svg" viewBox="0 0 115 78" width="115" height="78" preserveAspectRatio="xMidYMid meet" style="width: 100%; height: 100%; transform: translate3d(0px, 0px, 0px); content-visibility: visible;"><defs><clipPath id="__lottie_element_75"><rect width="115" height="78" x="0" y="0"></rect></clipPath></defs><g clip-path="url(#__lottie_element_75)"><g transform="matrix(0.326216459274292,-0.011744416318833828,0.012238921597599983,0.3399519622325897,-1.143726110458374,5.283381462097168)" opacity="1" style="display: block;"><g opacity="1" transform="matrix(1,0,0,1,128.03399658203125,131.97900390625)"><path fill="rgb(17,128,195)" fill-opacity="1" d=" M87.01599884033203,-4.056000232696533 C72.8355484008789,0.7042033076286316 54.897804260253906,3.3320980072021484 42.712669372558594,5.054793834686279 C25.4883975982666,7.757327079772949 11.100638389587402,9.487489700317383 -4.481452465057373,12.096395492553711 C-22.229393005371094,15.038762092590332 -57.208953857421875,21.21723747253418 -87.5647964477539,17.74530601501465 C-57.221595764160156,16.84481430053711 -20.14175796508789,9.108299255371094 -4.3192644119262695,6.759174346923828 C7.883509635925293,4.881180286407471 28.35552215576172,1.2196455001831055 41.38475799560547,-0.5348045229911804 C57.208919525146484,-3.242623805999756 71.34510040283203,-5.985672950744629 86.0260009765625,-12.385000228881836"></path><path stroke-linecap="round" stroke-linejoin="miter" fill-opacity="0" stroke-miterlimit="4" stroke="rgb(17,128,195)" stroke-opacity="1" stroke-width="6.7" d=" M87.01599884033203,-4.056000232696533 C72.8355484008789,0.7042033076286316 54.897804260253906,3.3320980072021484 42.712669372558594,5.054793834686279 C25.4883975982666,7.757327079772949 11.100638389587402,9.487489700317383 -4.481452465057373,12.096395492553711 C-22.229393005371094,15.038762092590332 -57.208953857421875,21.21723747253418 -87.5647964477539,17.74530601501465 C-57.221595764160156,16.84481430053711 -20.14175796508789,9.108299255371094 -4.3192644119262695,6.759174346923828 C7.883509635925293,4.881180286407471 28.35552215576172,1.2196455001831055 41.38475799560547,-0.5348045229911804 C57.208919525146484,-3.242623805999756 71.34510040283203,-5.985672950744629 86.0260009765625,-12.385000228881836"></path></g></g><g transform="matrix(0.2874540686607361,0.16210131347179413,-0.15471626818180084,0.2990458607673645,25.0458927154541,5.9278483390808105)" opacity="1" style="display: block;"><g opacity="1" transform="matrix(1,0,0,1,25.422000885009766,150.07699584960938)"><path fill="rgb(239,82,34)" fill-opacity="1" d=" M17.31599998474121,-11.38599967956543 C5.388999938964844,-13.107999801635742 -7.3480000495910645,-11.04800033569336 -17.65999984741211,-4.814000129699707 C-19.165000915527344,-3.9049999713897705 -20.823999404907227,-2.180999994277954 -19.93400001525879,-0.6650000214576721 C-19.381999969482422,0.27300000190734863 -18.141000747680664,0.4860000014305115 -17.055999755859375,0.574999988079071 C-7.36899995803833,1.375 0.7910000085830688,1.1540000438690186 9.947999954223633,-2.1040000915527344 C9.12600040435791,0.7730000019073486 8.996000289916992,3.8329999446868896 9.479000091552734,6.781000137329102 C9.725000381469727,8.284000396728516 10.144000053405762,13.107999801635742 12.335000038146973,12.994999885559082 C12.90999984741211,12.965999603271484 13.430999755859375,12.645999908447266 13.878999710083008,12.28499984741211 C18.187000274658203,8.815999984741211 20.5049991607666,0.9850000143051147 20.823999404907227,-4.380000114440918 C20.823999404907227,-4.380000114440918 17.31599998474121,-11.38599967956543 17.31599998474121,-11.38599967956543z"></path></g></g><g transform="matrix(0.326216459274292,-0.011744416318833828,0.00838366150856018,0.23286709189414978,-0.6438931226730347,19.166826248168945)" opacity="1" style="display: block;"><g opacity="1" transform="matrix(1,0,0,1,177.93800354003906,74.04199981689453)"><path fill="rgb(0,168,228)" fill-opacity="1" d=" M106.35199737548828,48.582000732421875 C67.46600341796875,48.582000732421875 40.263999938964844,-0.8669999837875366 39.21699905395508,-36.1870002746582 C39.12300109863281,-39.35599899291992 35.21699905395508,-40.7760009765625 33.10499954223633,-38.4109992980957 C24.131999969482422,-28.35700035095215 22.89900016784668,-12.947999954223633 22.89900016784668,-12.947999954223633 C22.89900016784668,-12.947999954223633 -14.331000328063965,-68.01000213623047 -73.10800170898438,-73.79199981689453 C-73.10800170898438,-73.79199981689453 -71.70500183105469,-62.345001220703125 -66.38899993896484,-52.630001068115234 C-66.38899993896484,-52.630001068115234 -91.97699737548828,-57.12799835205078 -106.35099792480469,-54.84199905395508 C-100.43499755859375,-39.35599899291992 -86.22200012207031,-28.393999099731445 -67.39199829101562,-16.051000595092773 C-78.01000213623047,-15.51200008392334 -86.2770004272461,-11.15999984741211 -86.2770004272461,-11.15999984741211 C-63.472999572753906,31.202999114990234 1.4079999923706055,34.17100143432617 58.72800064086914,73.79199981689453 C58.72800064086914,73.79199981689453 106.35199737548828,48.582000732421875 106.35199737548828,48.582000732421875z"></path></g><g opacity="1" transform="matrix(1,0,0,1,148.91900634765625,85.50700378417969)"><path fill="rgb(17,128,195)" fill-opacity="1" d=" M-16.464000701904297,12.427000045776367 C1.0049999952316284,11.57699966430664 18.398000717163086,7.900000095367432 35.05699920654297,2.4519999027252197 C39.55699920654297,0.9819999933242798 44.215999603271484,-0.7509999871253967 47.35499954223633,-4.295000076293945 C48.58599853515625,-5.684000015258789 49.5099983215332,-7.896999835968018 48.284000396728516,-9.291000366210938 C46.90599822998047,-10.855999946594238 44.38600158691406,-9.854999542236328 42.492000579833984,-8.984999656677246 C37.845001220703125,-6.849999904632568 32.672000885009766,-6.177000045776367 27.572999954223633,-5.790999889373779 C15.696000099182129,-4.89300012588501 3.7109999656677246,-5.427000045776367 -8.038999557495117,-7.376999855041504 C-16.027999877929688,-8.70300006866455 -23.90999984741211,-10.678999900817871 -31.952999114990234,-11.62600040435791 C-37.77899932861328,-12.312000274658203 -43.76300048828125,-12.427000045776367 -49.5099983215332,-11.385000228881836 C-41.0260009765625,-1.5110000371932983 -29.6560001373291,5.88100004196167 -16.464000701904297,12.427000045776367z"></path></g><g opacity="1" transform="matrix(1,0,0,1,215.44200134277344,103.32499694824219)"><path fill="rgb(17,128,195)" fill-opacity="1" d=" M13.5,-22.468000411987305 C8.826000213623047,-18.792999267578125 3.1429998874664307,-16.263999938964844 -2.4809999465942383,-14.156999588012695 C-13.241999626159668,-10.128000259399414 -24.39699935913086,-7.1519999504089355 -35.73500061035156,-5.281000137329102 C-37.768001556396484,-4.946000099182129 -40.40999984741211,-3.867000102996826 -40.04800033569336,-1.8389999866485596 C-39.77899932861328,-0.3310000002384186 -37.96799850463867,0.27399998903274536 -36.452999114990234,0.5 C-25.038999557495117,2.197999954223633 -13.522000312805176,-0.9570000171661377 -2.005000114440918,-1.6720000505447388 C-0.0729999989271164,-1.7920000553131104 1.9520000219345093,-1.8240000009536743 3.690999984741211,-0.9750000238418579 C5.431000232696533,-0.12600000202655792 6.756999969482422,1.878000020980835 6.204999923706055,3.7330000400543213 C5.673999786376953,5.515999794006348 3.75600004196167,6.435999870300293 2.0369999408721924,7.145999908447266 C2.0369999408721924,7.145999908447266 -11.506999969482422,12.743000030517578 -11.506999969482422,12.743000030517578 C-12.732999801635742,13.25 -14.208000183105469,13.678999900817871 -14.364999771118164,15.133000373840332 C-15.157999992370605,22.468000411987305 11.927000045776367,18.761999130249023 15.83899974822998,18.077999114990234 C24.374000549316406,16.583999633789062 32.69200134277344,13.824000358581543 40.40999984741211,9.88599967956543 C29.30900001525879,2.184999942779541 20.131999969482422,-9.519000053405762 13.5,-22.468000411987305z"></path></g><g opacity="1" transform="matrix(1,0,0,1,163.48800659179688,51.3849983215332)"><path fill="rgb(17,128,195)" fill-opacity="1" d=" M16.700000762939453,-13.723999977111816 C0.30399999022483826,-10.067999839782715 -16.899999618530273,-10.043999671936035 -33.297000885009766,-13.704999923706055 C-34.069000244140625,-13.876999855041504 -34.891998291015625,-14.055000305175781 -35.63100051879883,-13.77400016784668 C-36.9370002746582,-13.277000427246094 -37.3489990234375,-11.505999565124512 -36.83399963378906,-10.206999778747559 C-36.319000244140625,-8.90999984741211 -35.16299819946289,-7.992000102996826 -34.03799819946289,-7.1620001792907715 C-13.87399959564209,7.688000202178955 12.685999870300293,14.055000305175781 37.3489990234375,9.708000183105469 C37.3489990234375,9.708000183105469 30.006000518798828,-1.1480000019073486 16.700000762939453,-13.723999977111816z"></path></g></g><g transform="matrix(0.326216459274292,-0.011744416318833828,0.012238921597599983,0.3399519622325897,-1.143726110458374,5.283381462097168)" opacity="1" style="display: block;"><g opacity="1" transform="matrix(1,0,0,1,232.09300231933594,136.6529998779297)"><path fill="rgb(0,168,228)" fill-opacity="1" d=" M79.63500213623047,-31.12299919128418 C79.63500213623047,-31.12299919128418 69.62699890136719,-35.433998107910156 69.62699890136719,-35.433998107910156 C54.641998291015625,-35.433998107910156 46.72600173950195,-10.880999565124512 30.468000411987305,-19.135000228881836 C20.736000061035156,-24.075000762939453 10.001999855041504,-13.902999877929688 0.6650000214576721,-8.805000305175781 C-19.44700050354004,-8.934000015258789 -39.55799865722656,-9.213000297546387 -59.66999816894531,-9.192000389099121 C-65.37100219726562,-9.185999870300293 -79.63500213623047,-4.561999797821045 -79.63500213623047,1.1399999856948853 C-79.63500213623047,4.3460001945495605 -78.15299987792969,7.375999927520752 -75.60900115966797,9.326000213623047 C-65.33599853515625,17.20199966430664 -52.81999969482422,23.964000701904297 -40.16600036621094,23.336000442504883 C0.890999972820282,21.301000595092773 6.492000102996826,25.698999404907227 24.483999252319336,31.945999145507812 C34.52899932861328,35.433998107910156 45.375999450683594,33.49800109863281 51.15700149536133,27.37700080871582 C57.15399932861328,21.02899932861328 57.082000732421875,13.878000259399414 58.73400115966797,5.939000129699707 C59.86399841308594,0.503000020980835 61.816001892089844,-4.381999969482422 67.38899993896484,-4.932000160217285 C67.38899993896484,-4.932000160217285 69.64399719238281,-4.932000160217285 69.64399719238281,-4.932000160217285 C69.64399719238281,-4.932000160217285 79.63500213623047,-31.12299919128418 79.63500213623047,-31.12299919128418z"></path></g><g opacity="1" transform="matrix(1,0,0,1,232.09300231933594,136.6529998779297)"><path fill="rgb(0,168,228)" fill-opacity="1" d=" M79.63500213623047,-31.12299919128418 C79.63500213623047,-31.12299919128418 69.62699890136719,-35.433998107910156 69.62699890136719,-35.433998107910156 C54.641998291015625,-35.433998107910156 46.72600173950195,-10.880999565124512 30.468000411987305,-19.135000228881836 C20.736000061035156,-24.075000762939453 10.001999855041504,-13.902999877929688 0.6650000214576721,-8.805000305175781 C-19.44700050354004,-8.934000015258789 -39.55799865722656,-9.213000297546387 -59.66999816894531,-9.192000389099121 C-65.37100219726562,-9.185999870300293 -79.63500213623047,-4.561999797821045 -79.63500213623047,1.1399999856948853 C-79.63500213623047,4.3460001945495605 -78.15299987792969,7.375999927520752 -75.60900115966797,9.326000213623047 C-65.33599853515625,17.20199966430664 -52.81999969482422,23.964000701904297 -40.16600036621094,23.336000442504883 C0.890999972820282,21.301000595092773 6.492000102996826,25.698999404907227 24.483999252319336,31.945999145507812 C34.52899932861328,35.433998107910156 45.375999450683594,33.49800109863281 51.15700149536133,27.37700080871582 C57.15399932861328,21.02899932861328 57.082000732421875,13.878000259399414 58.73400115966797,5.939000129699707 C59.86399841308594,0.503000020980835 61.816001892089844,-4.381999969482422 67.38899993896484,-4.932000160217285 C67.38899993896484,-4.932000160217285 69.64399719238281,-4.932000160217285 69.64399719238281,-4.932000160217285 C69.64399719238281,-4.932000160217285 79.63500213623047,-31.12299919128418 79.63500213623047,-31.12299919128418z"></path></g><g opacity="1" transform="matrix(1,0,0,1,259.3179931640625,155.99600219726562)"><path fill="rgb(17,128,195)" fill-opacity="1" d=" M4.728000164031982,1.6740000247955322 C1.8919999599456787,-0.6029999852180481 -1.5479999780654907,-5.544000148773193 -0.375,-16.090999603271484 C-6.784999847412109,-9.583000183105469 -21.125,-2.513000011444092 -28.51099967956543,4.836999893188477 C-18.534000396728516,6.413000106811523 -12.430999755859375,9.23799991607666 -2.740999937057495,12.604000091552734 C7.303999900817871,16.090999603271484 18.150999069213867,14.154999732971191 23.933000564575195,8.034000396728516 C26.16699981689453,5.669000148773193 27.558000564575195,3.190999984741211 28.51099967956543,0.6029999852180481 C24.97100067138672,3.127000093460083 12.765000343322754,8.126999855041504 4.728000164031982,1.6740000247955322z"></path></g><g opacity="1" transform="matrix(1,0,0,1,280.5469970703125,120.38700103759766)"><path fill="rgb(17,128,195)" fill-opacity="1" d=" M-6.38700008392334,-2.2109999656677246 C-6.0370001792907715,-0.028999999165534973 -5.446000099182129,2.109999895095825 -4.620999813079834,4.11299991607666 C-3.703000068664551,6.341000080108643 -2.2799999713897705,8.243000030517578 -0.5540000200271606,9.920999526977539 C0.41100001335144043,10.857999801635742 2.936000108718872,11.748000144958496 3.9489998817443848,10.35200023651123 C4.311999797821045,9.85200023651123 4.400000095367432,9.204999923706055 4.392000198364258,8.58899974822998 C4.355999946594238,5.656000137329102 3.700000047683716,2.747999906539917 3.6619999408721924,-0.21199999749660492 C3.5980000495910645,-5.2220001220703125 4.584000110626221,-8.835000038146973 6.38700008392334,-11.748000144958496 C2.200000047683716,-8.083999633789062 -1.8309999704360962,-4.063000202178955 -6.38700008392334,-2.2109999656677246z"></path></g></g><g transform="matrix(0.32408326864242554,0.04185251519083977,-0.039204515516757965,0.3375701904296875,5.668179035186768,-10.642276763916016)" opacity="1" style="display: block;"><g opacity="1" transform="matrix(1,0,0,1,331.6510009765625,138.3459930419922)"><path fill="rgb(239,82,34)" fill-opacity="1" d=" M9.265999794006348,-10.503000259399414 C8.006999969482422,2.140000104904175 13.888999938964844,6.035999774932861 11.416000366210938,9.017999649047852 C7.367000102996826,13.89900016784668 -10.928999900817871,4.948999881744385 -13.888999938964844,-13.89799976348877 C-13.888999938964844,-13.89799976348877 9.265999794006348,-10.503000259399414 9.265999794006348,-10.503000259399414z"></path></g><g opacity="1" transform="matrix(1,0,0,1,301.73699951171875,116.72000122070312)"><path fill="rgb(0,168,229)" fill-opacity="1" d=" M15.001999855041504,0 C15.001999855041504,-8.28499984741211 8.28499984741211,-15.001999855041504 0,-15.001999855041504 C-8.28600025177002,-15.001999855041504 -15.001999855041504,-8.28499984741211 -15.001999855041504,0 C-15.001999855041504,8.28499984741211 -8.28600025177002,15.001999855041504 0,15.001999855041504 C8.28499984741211,15.001999855041504 15.001999855041504,8.28499984741211 15.001999855041504,0z"></path></g><g opacity="1" transform="matrix(1,0,0,1,322.2619934082031,116.47100067138672)"><path fill="rgb(0,168,228)" fill-opacity="1" d=" M-20.54199981689453,-15.25100040435791 C5.795000076293945,-15.25100040435791 20.24799919128418,-1.1269999742507935 20.24799919128418,6.046000003814697 C20.24799919128418,10.98900032043457 20.54199981689453,15.25100040435791 15.458999633789062,15.25100040435791 C15.458999633789062,15.25100040435791 -20.525999069213867,15.25100040435791 -20.525999069213867,15.25100040435791 C-20.525999069213867,15.25100040435791 -20.54199981689453,-15.25100040435791 -20.54199981689453,-15.25100040435791z"></path></g><g opacity="1" transform="matrix(0.25915175676345825,0.021474646404385567,-0.021474646404385567,0.25915175676345825,311.39599609375,113.26399993896484)"><path fill="rgb(255,202,77)" fill-opacity="1" d=" M21,0 C21,0 21,0 21,0 C21,11.589900016784668 11.589900016784668,21 0,21 C0,21 0,21 0,21 C-11.589900016784668,21 -21,11.589900016784668 -21,0 C-21,0 -21,0 -21,0 C-21,-11.589900016784668 -11.589900016784668,-21 0,-21 C0,-21 0,-21 0,-21 C11.589900016784668,-21 21,-11.589900016784668 21,0z"></path></g><g opacity="1" transform="matrix(0.25915175676345825,0.021474646404385567,-0.021474646404385567,0.25915175676345825,298.3210144042969,111.83200073242188)"><path fill="rgb(255,202,77)" fill-opacity="1" d=" M12,0 C12,0 12,0 12,0 C12,6.622799873352051 6.622799873352051,12 0,12 C0,12 0,12 0,12 C-6.622799873352051,12 -12,6.622799873352051 -12,0 C-12,0 -12,0 -12,0 C-12,-6.622799873352051 -6.622799873352051,-12 0,-12 C0,-12 0,-12 0,-12 C6.622799873352051,-12 12,-6.622799873352051 12,0z"></path></g></g><g transform="matrix(0.32408326864242554,0.04185251519083977,-0.039204515516757965,0.3375701904296875,5.668179035186768,-10.642276763916016)" opacity="1" style="display: block;"><g opacity="1" transform="matrix(0.9999967217445374,-0.002565631177276373,0.002565631177276373,0.9999967217445374,290.17401123046875,89.80500030517578)"><path stroke-linecap="round" stroke-linejoin="round" fill-opacity="0" stroke="rgb(0,168,228)" stroke-opacity="1" stroke-width="6.7" d=" M19.674999237060547,15.4399995803833 C8.87304973602295,13.557022094726562 -12.160338401794434,9.597508430480957 -34.35525894165039,16.89655113220215"></path></g></g><g transform="matrix(0.3240436315536499,-0.04018900543451309,0.03953082114458084,0.33777227997779846,-5.0992326736450195,21.580406188964844)" opacity="1" style="display: block;"><g opacity="1" transform="matrix(1,0,0,1,261.5639953613281,74.36499786376953)"><path fill="rgb(239,82,34)" fill-opacity="1" d=" M11.680999755859375,0 C11.680999755859375,-4.714000225067139 7.669000148773193,-6.644999980926514 2.125999927520752,-6.644999980926514 C-3.4170000553131104,-6.644999980926514 -11.680999755859375,0 -11.680999755859375,0 C-11.680999755859375,0 -3.4170000553131104,6.644999980926514 2.125999927520752,6.644999980926514 C7.669000148773193,6.644999980926514 11.680999755859375,4.714000225067139 11.680999755859375,0z"></path></g></g><g transform="matrix(0.326216459274292,-0.011744416318833828,0.009238648228347301,0.2566154897212982,-0.7532419562339783,16.129541397094727)" opacity="1" style="display: block;"><g opacity="1" transform="matrix(1,0,0,1,153.3350067138672,167.343994140625)"><path fill="rgb(0,168,228)" fill-opacity="1" d=" M-17.350000381469727,18.0310001373291 C-67.85900115966797,44.803001403808594 -105.60900115966797,33.680999755859375 -105.60900115966797,33.680999755859375 C-32.124000549316406,9.279999732971191 -14.1899995803833,-44.400001525878906 42.97700119018555,-44.80400085449219 C42.97700119018555,-44.80400085449219 105.60900115966797,-27.43899917602539 105.60900115966797,-27.43899917602539 C105.60900115966797,-27.43899917602539 86.61799621582031,0.012000000104308128 38.262001037597656,12.53600025177002 C12.498000144958496,19.208999633789062 -4.370999813079834,21.506000518798828 -17.113000869750977,38.974998474121094 C-18.9950008392334,41.55500030517578 -23.047000885009766,40.47600173950195 -23.371000289916992,37.29999923706055 C-23.84600067138672,32.6510009765625 -22.902999877929688,26.041000366210938 -17.350000381469727,18.0310001373291z"></path></g><g opacity="1" transform="matrix(1,0,0,1,112.63999938964844,191.46400451660156)"><path fill="rgb(17,128,195)" fill-opacity="1" d=" M61.74800109863281,-9.734999656677246 C38.862998962402344,-20.68400001525879 0.1809999942779541,-4.4070000648498535 -23.28700065612793,-3.109999895095825 C-27.766000747680664,-2.86299991607666 -31.572999954223633,-2.944000005722046 -34.8390007019043,-3.2660000324249268 C-43.65299987792969,1.4190000295639038 -53.547000885009766,5.785999774932861 -64.91400146484375,9.562000274658203 C-64.91400146484375,9.562000274658203 -27.163999557495117,20.68400001525879 23.344999313354492,-6.089000225067139 C17.79199981689453,1.9210000038146973 16.849000930786133,8.531999588012695 17.322999954223633,13.180000305175781 C17.648000717163086,16.35700035095215 21.700000762939453,17.434999465942383 23.582000732421875,14.854999542236328 C33.847999572753906,0.7799999713897705 46.79600143432617,-3.446000099182129 64.91400146484375,-8.045999526977539 C63.880001068115234,-8.651000022888184 62.82500076293945,-9.218999862670898 61.74800109863281,-9.734999656677246z"></path></g><g opacity="1" transform="matrix(1,0,0,1,158.66200256347656,153.72300720214844)"><path fill="rgb(17,128,195)" fill-opacity="1" d=" M50.56399917602539,-13.29699993133545 C40.68000030517578,-16.007999420166016 30.34000015258789,-17.05699920654297 20.115999221801758,-16.354999542236328 C8.01099967956543,-15.52400016784668 -6.695000171661377,-11.694999694824219 -19.06100082397461,-9.767000198364258 C-30.020999908447266,-1.7070000171661377 -40.9370002746582,7.761000156402588 -53.624000549316406,17.055999755859375 C-53.624000549316406,17.055999755859375 -53.624000549316406,17.05699920654297 -53.62300109863281,17.05699920654297 C-45.43299865722656,16.499000549316406 -37.31100082397461,14.781999588012695 -29.617000579833984,11.916000366210938 C-19.618999481201172,8.190999984741211 -10.387999534606934,2.618000030517578 -0.3790000081062317,-1.0779999494552612 C15.531999588012695,-6.953999996185303 32.80699920654297,-7.88100004196167 49.768001556396484,-7.949999809265137 C49.80500030517578,-7.949999809265137 49.84199905395508,-7.949999809265137 49.87900161743164,-7.951000213623047 C53.05099868774414,-7.964000225067139 53.624000549316406,-12.458000183105469 50.56399917602539,-13.29699993133545z"></path></g><g opacity="1" transform="matrix(1,0,0,1,198.29299926757812,167.04200744628906)"><path fill="rgb(17,128,195)" fill-opacity="1" d=" M-26.28700065612793,-2.7639999389648438 C-26.945999145507812,-2.3970000743865967 -27.645000457763672,-1.9470000267028809 -27.87299919128418,-1.2280000448226929 C-28.19300079345703,-0.2199999988079071 -27.389999389648438,0.8629999756813049 -26.4060001373291,1.2510000467300415 C-25.42099952697754,1.6380000114440918 -24.32200050354004,1.5219999551773071 -23.26799964904785,1.4329999685287476 C-16.891000747680664,0.8920000195503235 -10.262999534606934,1.6059999465942383 -4.579999923706055,4.550000190734863 C-1.906000018119812,5.935999870300293 0.5249999761581421,7.872000217437744 2.4579999446868896,10.1850004196167 C12.437999725341797,6.980999946594238 20.976999282836914,3.1679999828338623 28.19300079345703,-0.7799999713897705 C16.756999969482422,-7.49399995803833 -12.947999954223633,-10.1850004196167 -26.28700065612793,-2.7639999389648438z"></path></g></g></g></svg>