<svg xmlns="http://www.w3.org/2000/svg" viewBox="0 0 27 36" width="27" height="36" preserveAspectRatio="xMidYMid meet" style="width: 100%; height: 100%; transform: translate3d(0px, 0px, 0px); content-visibility: visible;"><defs><clipPath id="__lottie_element_3056"><rect width="27" height="36" x="0" y="0"></rect></clipPath></defs><g clip-path="url(#__lottie_element_3056)"><g transform="matrix(0.23188886046409607,-0.11309974640607834,0.11309974640607834,0.23188886046409607,-6.97507381439209,6.351146697998047)" opacity="1" style="display: block;"><g opacity="1" transform="matrix(1,0,0,1,52.28900146484375,29.093000411987305)"><path fill="rgb(252,199,139)" fill-opacity="1" d=" M-14.156000137329102,-6.61899995803833 C-11.111000061035156,-16.78700065612793 -3.0169999599456787,-20.753000259399414 4.801000118255615,-18.410999298095703 C12.619999885559082,-16.069000244140625 17.201000213623047,-8.307000160217285 14.154999732971191,1.8609999418258667 C11.109999656677246,12.029000282287598 1.590999960899353,20.753000259399414 -6.228000164031982,18.410999298095703 C-14.045999526977539,16.069000244140625 -17.201000213623047,3.5490000247955322 -14.156000137329102,-6.61899995803833z"></path></g><g opacity="1" transform="matrix(1,0,0,1,48.23899841308594,27.207000732421875)"><path stroke-linecap="round" stroke-linejoin="round" fill-opacity="0" stroke="rgb(78,67,95)" stroke-opacity="1" stroke-width="6.809" d=" M-17.5310001373291,8.737000465393066 C-9.425999641418457,6.28000020980835 11.22599983215332,-5.3979997634887695 17.5310001373291,-8.737000465393066"></path></g><g opacity="1" transform="matrix(1,0,0,1,46.27799987792969,18.93199920654297)"><path fill="rgb(255,238,207)" fill-opacity="1" d=" M-19.820999145507812,17.75 C-15.279000282287598,18.680999755859375 11.685999870300293,6.14300012588501 19.163999557495117,2.9240000247955322 C19.670000076293945,2.7060000896453857 23.23900032043457,0.8519999980926514 23.177000045776367,0.38199999928474426 C22.406999588012695,-5.440000057220459 17.76799964904785,-11.904000282287598 12.088000297546387,-14.317999839782715 C1.8179999589920044,-18.68199920654297 -5.709000110626221,-14.815999984741211 -12.213000297546387,-7.992000102996826 C-15.282999992370605,-4.770999908447266 -18.31800079345703,1.0379999876022339 -19.900999069213867,4.993000030517578 C-21.086999893188477,7.958000183105469 -23.238000869750977,13.78600025177002 -21.98699951171875,16.239999771118164 C-21.55299949645996,17.090999603271484 -20.7810001373291,17.55299949645996 -19.820999145507812,17.75z"></path></g><g opacity="1" transform="matrix(1,0,0,1,45.68299865722656,24.06999969482422)"><path fill="rgb(240,208,154)" fill-opacity="1" d=" M-4.513999938964844,8.251999855041504 C-5.052999973297119,7.831999778747559 -5.47599983215332,7.252999782562256 -5.693999767303467,6.550000190734863 C-5.693999767303467,6.550000190734863 -8.034000396728516,-1.0110000371932983 -8.034000396728516,-1.0110000371932983 C-8.600000381469727,-2.8389999866485596 -7.577000141143799,-4.78000020980835 -5.748000144958496,-5.3460001945495605 C-5.748000144958496,-5.3460001945495605 1.812999963760376,-7.686999797821045 1.812999963760376,-7.686999797821045 C3.6410000324249268,-8.253000259399414 5.581999778747559,-7.228000164031982 6.1479997634887695,-5.400000095367432 C6.1479997634887695,-5.400000095367432 8.487000465393066,2.1610000133514404 8.487000465393066,2.1610000133514404 C8.545000076293945,2.3450000286102295 8.574000358581543,2.5299999713897705 8.600000381469727,2.7139999866485596 C4.434999942779541,4.540999889373779 -0.2029999941587448,6.531000137329102 -4.513999938964844,8.251999855041504z"></path></g><g opacity="1" transform="matrix(1,0,0,1,51.141998291015625,35.053001403808594)"><path stroke-linecap="butt" stroke-linejoin="miter" fill-opacity="0" stroke-miterlimit="10" stroke="rgb(78,67,95)" stroke-opacity="1" stroke-width="4.647" d=" M-7.252999782562256,-11.473999977111816 C-5.906000137329102,-2.757999897003174 -2.3329999446868896,6.866000175476074 7.252999782562256,11.473999977111816"></path></g><g opacity="1" transform="matrix(1,0,0,1,55.76100158691406,45.04800033569336)"><path fill="rgb(255,238,207)" fill-opacity="1" d=" M-5.203999996185303,4.308000087738037 C-4.906000137329102,4.443999767303467 -4.570000171661377,4.539999961853027 -4.193999767303467,4.61299991607666 C-1.4800000190734863,5.136000156402588 1.5019999742507935,3.3299999237060547 3.497999906539917,1.6430000066757202 C6.940000057220459,-1.2660000324249268 2.0999999046325684,-5.136000156402588 -0.4269999861717224,-3 C-1.7640000581741333,-1.8700000047683716 -3.121999979019165,-1.125 -4.386000156402588,-0.8029999732971191 C-5.940999984741211,-0.40700000524520874 -6.940000057220459,1.2050000429153442 -6.584000110626221,2.7699999809265137 C-6.572999954223633,2.818000078201294 -6.560999870300293,2.8580000400543213 -6.548999786376953,2.88700008392334 C-6.245999813079834,3.6029999256134033 -5.802999973297119,4.035999774932861 -5.203999996185303,4.308000087738037z"></path></g><g opacity="1" transform="matrix(1,0,0,1,58.18000030517578,17.479999542236328)"><path fill="rgb(78,67,95)" fill-opacity="1" d=" M1.465999960899353,-13.890999794006348 C7.925000190734863,-11.211000442504883 13.300999641418457,-3.861999988555908 14.303000450134277,2.816999912261963 C14.303000450134277,2.816999912261963 -14.303000450134277,13.890999794006348 -14.303000450134277,13.890999794006348 C-14.303000450134277,13.890999794006348 1.465999960899353,-13.890999794006348 1.465999960899353,-13.890999794006348z"></path></g><g opacity="1" transform="matrix(1,0,0,1,47.97200012207031,23.57900047302246)"><path fill="rgb(255,238,207)" fill-opacity="1" d=" M-1.6679999828338623,8.692999839782715 C-1.6679999828338623,8.692999839782715 6.288000106811523,6.230999946594238 6.288000106811523,6.230999946594238 C8.211999893188477,5.635000228881836 9.288999557495117,3.5920000076293945 8.692999839782715,1.6690000295639038 C8.692999839782715,1.6690000295639038 6.230999946594238,-6.288000106811523 6.230999946594238,-6.288000106811523 C5.636000156402588,-8.211999893188477 3.5929999351501465,-9.288000106811523 1.6690000295639038,-8.692000389099121 C1.6690000295639038,-8.692000389099121 -6.2870001792907715,-6.230000019073486 -6.2870001792907715,-6.230000019073486 C-8.211000442504883,-5.635000228881836 -9.288999557495117,-3.5920000076293945 -8.692999839782715,-1.6679999828338623 C-8.692999839782715,-1.6679999828338623 -6.230000019073486,6.288000106811523 -6.230000019073486,6.288000106811523 C-5.635000228881836,8.213000297546387 -3.5920000076293945,9.288000106811523 -1.6679999828338623,8.692999839782715z"></path></g><g opacity="1" transform="matrix(1,0,0,1,63.74599838256836,35.76900100708008)"><path fill="rgb(252,199,139)" fill-opacity="1" d=" M1.1130000352859497,-5.2870001792907715 C1.9809999465942383,-2.384000062942505 2.686000108718872,0.5669999718666077 3.2260000705718994,3.5490000247955322 C3.382999897003174,4.415999889373779 2.7209999561309814,5.224999904632568 1.840000033378601,5.245999813079834 C0.1379999965429306,5.2870001792907715 -1.7599999904632568,4.646999835968018 -3.384000062942505,4.416999816894531"></path></g><g opacity="1" transform="matrix(0.1390399932861328,0,0,0.1390399932861328,60.4379997253418,29.986000061035156)"><path fill="rgb(113,65,55)" fill-opacity="1" d=" M17.5,0 C17.5,0 17.5,0 17.5,0 C17.5,9.658249855041504 9.658249855041504,17.5 0,17.5 C0,17.5 0,17.5 0,17.5 C-9.658249855041504,17.5 -17.5,9.658249855041504 -17.5,0 C-17.5,0 -17.5,0 -17.5,0 C-17.5,-9.658249855041504 -9.658249855041504,-17.5 0,-17.5 C0,-17.5 0,-17.5 0,-17.5 C9.658249855041504,-17.5 17.5,-9.658249855041504 17.5,0z"></path></g></g><g transform="matrix(0.2576464116573334,-0.013502676039934158,0.013502676039934158,0.2576464116573334,-3.5916783809661865,0.8410423398017883)" opacity="1" style="display: block;"><g opacity="1" transform="matrix(1,0,0,1,32.55799865722656,67.50599670410156)"><path fill="rgb(78,67,95)" fill-opacity="1" d=" M-22.45199966430664,31.36400032043457 C-22.150999069213867,18.062000274658203 -20.18600082397461,4.204999923706055 -15.07699966430664,-8.142999649047852 C-11.72599983215332,-16.239999771118164 -4.380000114440918,-31.381000518798828 6.823999881744385,-25.176000595092773 C10.394000053405762,-23.198999404907227 14.015999794006348,-21.18400001525879 16.888999938964844,-18.285999298095703 C22.45199966430664,-12.675000190734863 17.447999954223633,-4.10699987411499 16.756999969482422,2.503999948501587 C15.753999710083008,12.10099983215332 15.904000282287598,21.81999969482422 17.219999313354492,31.381000518798828 C17.219999313354492,31.381000518798828 -22.45199966430664,31.36400032043457 -22.45199966430664,31.36400032043457z"></path></g></g><g transform="matrix(-0.044801224023103714,-0.2540803849697113,0.2540803849697113,-0.044801224023103714,-7.0299506187438965,26.501279830932617)" opacity="1" style="display: block;"><g opacity="1" transform="matrix(1,0,0,1,43.21099853515625,79.43199920654297)"><path stroke-linecap="round" stroke-linejoin="round" fill-opacity="0" stroke="rgb(19,128,193)" stroke-opacity="1" stroke-width="12.646" d=" M-7.105000019073486,-21.957000732421875 C-8.675999641418457,-12.857000350952148 -8.916000366210938,-3.5280001163482666 -7.815000057220459,5.640999794006348 C-7.739999771118164,6.270999908447266 -7.65500020980835,6.908999919891357 -7.4019999504089355,7.491000175476074 C-7.044000148773193,8.312000274658203 -6.380000114440918,8.954000473022461 -5.732999801635742,9.572999954223633 C-3.1549999713897705,12.038000106811523 3.4719998836517334,19.45599937438965 8.916000366210938,21.957000732421875"></path></g><g opacity="1" transform="matrix(1,0,0,1,33.505001068115234,71.27400207519531)"><path stroke-linecap="round" stroke-linejoin="round" fill-opacity="0" stroke="rgb(19,128,193)" stroke-opacity="1" stroke-width="12.646" d=" M-0.3190000057220459,-13.798999786376953 C-1.8899999856948853,-4.698999881744385 -0.8009999990463257,6.646999835968018 1.8910000324249268,13.798999786376953"></path></g><g opacity="1" transform="matrix(1,0,0,1,34.71799850463867,57.474998474121094)"><path fill="rgb(19,128,193)" fill-opacity="1" d=" M-7.72599983215332,0 C-7.72599983215332,-4.267000198364258 -4.267000198364258,-7.72599983215332 0,-7.72599983215332 C4.267000198364258,-7.72599983215332 7.72599983215332,-4.267000198364258 7.72599983215332,0 C7.72599983215332,4.267000198364258 4.267000198364258,7.72599983215332 0,7.72599983215332 C-4.267000198364258,7.72599983215332 -7.72599983215332,4.267000198364258 -7.72599983215332,0z"></path></g></g><g transform="matrix(0.2467266023159027,-0.07543189078569412,0.07543189078569412,0.2467266023159027,17.15673828125,7.2277445793151855)" opacity="1" style="display: block;"><g opacity="1" transform="matrix(0.1323300004005432,0,0,0.1323300004005432,-15.62600040435791,-7.525000095367432)"><path fill="rgb(78,67,94)" fill-opacity="1" d=" M39.4010009765625,-43.1870002746582 C39.4010009765625,-43.1870002746582 37.1870002746582,12.541000366210938 37.1870002746582,12.541000366210938 C36.99399948120117,17.400999069213867 32.89799880981445,21.18400001525879 28.038000106811523,20.990999221801758 C28.038000106811523,20.990999221801758 -27.690000534057617,18.777000427246094 -27.690000534057617,18.777000427246094 C-32.54999923706055,18.583999633789062 -36.33300018310547,14.48799991607666 -36.13999938964844,9.628000259399414 C-36.13999938964844,9.628000259399414 -33.92599868774414,-46.099998474121094 -33.92599868774414,-46.099998474121094 C-33.733001708984375,-50.959999084472656 -29.636999130249023,-54.74300003051758 -24.777000427246094,-54.54999923706055 C-24.777000427246094,-54.54999923706055 30.951000213623047,-52.33599853515625 30.951000213623047,-52.33599853515625 C35.81100082397461,-52.143001556396484 39.59400177001953,-48.047000885009766 39.4010009765625,-43.1870002746582z"></path></g><g opacity="1" transform="matrix(0.2529999911785126,0,0,0.2529999911785126,1,-0.5)"><path fill="rgb(78,67,94)" fill-opacity="1" d=" M74.14800262451172,-55.16999816894531 C74.14800262451172,-55.16999816894531 72.26599884033203,-7.809999942779541 72.26599884033203,-7.809999942779541 C71.99099731445312,-0.8989999890327454 66.16600036621094,4.48199987411499 59.255001068115234,4.206999778747559 C59.255001068115234,4.206999778747559 -54.4900016784668,-7.192999839782715 -54.4900016784668,-7.192999839782715 C-61.4010009765625,-7.4679999351501465 -66.78199768066406,-13.293000221252441 -66.50700378417969,-20.20400047302246 C-66.50700378417969,-20.20400047302246 -65.1719970703125,-53.82500076293945 -65.1719970703125,-53.82500076293945 C-64.89700317382812,-60.736000061035156 -59.07099914550781,-66.11699676513672 -52.15999984741211,-65.84200286865234 C-52.15999984741211,-65.84200286865234 62.13100051879883,-68.18099975585938 62.13100051879883,-68.18099975585938 C69.04199981689453,-67.90599822998047 74.4229965209961,-62.08100128173828 74.14800262451172,-55.16999816894531z"></path></g><g opacity="1" transform="matrix(0.19673000276088715,0,0,0.19673000276088715,0,0)"><path fill="rgb(253,200,140)" fill-opacity="1" d=" M-4.0320000648498535,-50 C21.356000900268555,-50 41.9370002746582,-29.420000076293945 41.9370002746582,-4.0320000648498535 C41.9370002746582,21.356000900268555 21.356000900268555,41.9370002746582 -4.0320000648498535,41.9370002746582 C-29.420000076293945,41.9370002746582 -50,21.356000900268555 -50,-4.0320000648498535 C-50,-29.420000076293945 -29.420000076293945,-50 -4.0320000648498535,-50z"></path></g></g></g></svg>