<svg xmlns="http://www.w3.org/2000/svg" viewBox="0 0 207 115" width="207" height="115" preserveAspectRatio="xMidYMid meet" style="width: 100%; height: 100%; transform: translate3d(0px, 0px, 0px); content-visibility: visible;"><defs><clipPath id="__lottie_element_3140"><rect width="207" height="115" x="0" y="0"></rect></clipPath><mask id="__lottie_element_3148" mask-type="alpha"><g transform="matrix(1.8059998750686646,0,0,1.8059998750686646,-34.76024627685547,-57.98028564453125)" opacity="1" style="display: block;"><g opacity="1" transform="matrix(1,0,0,1,517.97802734375,-8.357000350952148)"><path fill="rgb(136,212,235)" fill-opacity="1" d=" M-453.71099853515625,45.12099838256836 C-453.71099853515625,45.12099838256836 -435.7929992675781,80.87200164794922 -435.7929992675781,80.87200164794922 C-434.0880126953125,84.27300262451172 -431.8210144042969,87.93399810791016 -427.94500732421875,87.93399810791016 C-427.94500732421875,87.93399810791016 -417.802001953125,87.93399810791016 -417.802001953125,87.93399810791016 C-421.6780090332031,87.93399810791016 -423.94500732421875,84.27300262451172 -425.6499938964844,80.87200164794922 C-425.6499938964844,80.87200164794922 -442.77899169921875,46.69599914550781 -442.77899169921875,46.69599914550781 C-443.2619934082031,45.73099899291992 -444.2489929199219,45.12099838256836 -445.3290100097656,45.12099838256836 C-445.3290100097656,45.12099838256836 -453.71099853515625,45.12099838256836 -453.71099853515625,45.12099838256836z"></path></g></g></mask><mask id="__lottie_element_3154" mask-type="alpha"><g transform="matrix(1.8059998750686646,0,0,1.8059998750686646,-34.76024627685547,-57.98028564453125)" opacity="1" style="display: block;"><g opacity="1" transform="matrix(1,0,0,1,517.97802734375,-8.357000350952148)"><path fill="rgb(136,212,235)" fill-opacity="1" d=" M-453.71099853515625,45.12099838256836 C-453.71099853515625,45.12099838256836 -435.7929992675781,80.87200164794922 -435.7929992675781,80.87200164794922 C-434.0880126953125,84.27300262451172 -431.8210144042969,87.93399810791016 -427.94500732421875,87.93399810791016 C-427.94500732421875,87.93399810791016 -417.802001953125,87.93399810791016 -417.802001953125,87.93399810791016 C-421.6780090332031,87.93399810791016 -423.94500732421875,84.27300262451172 -425.6499938964844,80.87200164794922 C-425.6499938964844,80.87200164794922 -442.77899169921875,46.69599914550781 -442.77899169921875,46.69599914550781 C-443.2619934082031,45.73099899291992 -444.2489929199219,45.12099838256836 -445.3290100097656,45.12099838256836 C-445.3290100097656,45.12099838256836 -453.71099853515625,45.12099838256836 -453.71099853515625,45.12099838256836z"></path></g></g></mask></defs><g clip-path="url(#__lottie_element_3140)"><g transform="matrix(1.8059998750686646,0,0,1.8059998750686646,-34.76024627685547,-57.98028564453125)" opacity="1" style="display: block;"><g opacity="1" transform="matrix(1,0,0,1,517.97802734375,-8.357000350952148)"><path fill="rgb(136,212,235)" fill-opacity="1" d=" M-453.71099853515625,45.12099838256836 C-453.71099853515625,45.12099838256836 -435.7929992675781,80.87200164794922 -435.7929992675781,80.87200164794922 C-434.0880126953125,84.27300262451172 -431.8210144042969,87.93399810791016 -427.94500732421875,87.93399810791016 C-427.94500732421875,87.93399810791016 -417.802001953125,87.93399810791016 -417.802001953125,87.93399810791016 C-421.6780090332031,87.93399810791016 -423.94500732421875,84.27300262451172 -425.6499938964844,80.87200164794922 C-425.6499938964844,80.87200164794922 -442.77899169921875,46.69599914550781 -442.77899169921875,46.69599914550781 C-443.2619934082031,45.73099899291992 -444.2489929199219,45.12099838256836 -445.3290100097656,45.12099838256836 C-445.3290100097656,45.12099838256836 -453.71099853515625,45.12099838256836 -453.71099853515625,45.12099838256836z"></path></g></g><g mask="url(#__lottie_element_3148)" style="display: block;"><g transform="matrix(1.8059998750686646,0,0,1.8059998750686646,-66.72413635253906,-120.1479721069336)" opacity="1"><g opacity="1" transform="matrix(1,0,0,1,74.27799987792969,46.902000427246094)"><path fill="rgb(184,228,250)" fill-opacity="1" d=" M6.828000068664551,3.0859999656677246 C7.198999881744385,3.8910000324249268 6.25600004196167,4.429999828338623 4.857999801635742,4.429999828338623 C3.246999979019165,4.429999828338623 2.1679999828338623,4.002999782562256 1.7790000438690186,3.121000051498413 C2.131999969482422,3.950000047683716 1.1979999542236328,4.465000152587891 -0.20000000298023224,4.465000152587891 C-1.8109999895095825,4.465000152587891 -2.8429999351501465,4.0269999504089355 -3.2790000438690186,3.1559998989105225 C-3.2790000438690186,3.1559998989105225 -5.557000160217285,-1.2519999742507935 -5.557000160217285,-1.2519999742507935 C-5.166999816894531,-0.3700000047683716 -4.089000225067139,0.05700000002980232 -2.4769999980926514,0.05700000002980232 C-1.0789999961853027,0.05700000002980232 -0.14499999582767487,-0.4580000042915344 -0.49900001287460327,-1.2869999408721924 C-0.10899999737739563,-0.4059999883174896 0.9700000286102295,0.020999999716877937 2.5820000171661377,0.020999999716877937 C3.9800000190734863,0.020999999716877937 4.934999942779541,-0.5080000162124634 4.552000045776367,-1.3220000267028809 C4.552000045776367,-1.3220000267028809 6.828000068664551,3.0859999656677246 6.828000068664551,3.0859999656677246z"></path></g><g opacity="1" transform="matrix(1,0,0,1,79.87000274658203,58.05099868774414)"><path fill="rgb(184,228,250)" fill-opacity="1" d=" M6.828000068664551,3.0859999656677246 C7.198999881744385,3.8910000324249268 6.25600004196167,4.429999828338623 4.857999801635742,4.429999828338623 C3.246999979019165,4.429999828338623 2.1679999828338623,4.002999782562256 1.7790000438690186,3.121000051498413 C2.131999969482422,3.950000047683716 1.1979999542236328,4.465000152587891 -0.20000000298023224,4.465000152587891 C-1.8109999895095825,4.465000152587891 -2.8429999351501465,4.0269999504089355 -3.2790000438690186,3.1559998989105225 C-3.2790000438690186,3.1559998989105225 -5.557000160217285,-1.2519999742507935 -5.557000160217285,-1.2519999742507935 C-5.166999816894531,-0.3700000047683716 -4.089000225067139,0.05700000002980232 -2.4769999980926514,0.05700000002980232 C-1.0789999961853027,0.05700000002980232 -0.14499999582767487,-0.4580000042915344 -0.49900001287460327,-1.2869999408721924 C-0.10899999737739563,-0.4059999883174896 0.9700000286102295,0.020999999716877937 2.5820000171661377,0.020999999716877937 C3.9800000190734863,0.020999999716877937 4.934999942779541,-0.5080000162124634 4.552000045776367,-1.3220000267028809 C4.552000045776367,-1.3220000267028809 6.828000068664551,3.0859999656677246 6.828000068664551,3.0859999656677246z"></path></g><g opacity="1" transform="matrix(1,0,0,1,85.46099853515625,69.19999694824219)"><path fill="rgb(184,228,250)" fill-opacity="1" d=" M6.828000068664551,3.0859999656677246 C7.198999881744385,3.8910000324249268 6.25600004196167,4.429999828338623 4.857999801635742,4.429999828338623 C3.246999979019165,4.429999828338623 2.1679999828338623,4.002999782562256 1.7790000438690186,3.121000051498413 C2.131999969482422,3.950000047683716 1.1979999542236328,4.465000152587891 -0.20000000298023224,4.465000152587891 C-1.8109999895095825,4.465000152587891 -2.8429999351501465,4.0269999504089355 -3.2790000438690186,3.1559998989105225 C-3.2790000438690186,3.1559998989105225 -5.557000160217285,-1.2519999742507935 -5.557000160217285,-1.2519999742507935 C-5.166999816894531,-0.3700000047683716 -4.089000225067139,0.05700000002980232 -2.4769999980926514,0.05700000002980232 C-1.0789999961853027,0.05700000002980232 -0.14499999582767487,-0.4580000042915344 -0.49900001287460327,-1.2869999408721924 C-0.10899999737739563,-0.4059999883174896 0.9700000286102295,0.02199999988079071 2.5820000171661377,0.02199999988079071 C3.9800000190734863,0.02199999988079071 4.934999942779541,-0.5080000162124634 4.552000045776367,-1.3220000267028809 C4.552000045776367,-1.3220000267028809 6.828000068664551,3.0859999656677246 6.828000068664551,3.0859999656677246z"></path></g></g></g><g mask="url(#__lottie_element_3154)" style="display: block;"><g transform="matrix(1.8059998750686646,0,0,1.8059998750686646,-34.732139587402344,-57.840972900390625)" opacity="1"><g opacity="1" transform="matrix(1,0,0,1,74.27799987792969,46.902000427246094)"><path fill="rgb(184,228,250)" fill-opacity="1" d=" M6.613999843597412,2.799999952316284 C6.985000133514404,3.6050000190734863 6.041999816894531,4.144000053405762 4.644000053405762,4.144000053405762 C3.0329999923706055,4.144000053405762 1.9539999961853027,3.7170000076293945 1.565000057220459,2.8350000381469727 C1.9179999828338623,3.6640000343322754 0.984000027179718,4.178999900817871 -0.414000004529953,4.178999900817871 C-2.0250000953674316,4.178999900817871 -3.056999921798706,3.740999937057495 -3.493000030517578,2.869999885559082 C-3.493000030517578,2.869999885559082 -5.557000160217285,-1.2519999742507935 -5.557000160217285,-1.2519999742507935 C-5.166999816894531,-0.3700000047683716 -4.089000225067139,0.05700000002980232 -2.4769999980926514,0.05700000002980232 C-1.0789999961853027,0.05700000002980232 -0.14499999582767487,-0.4580000042915344 -0.49900001287460327,-1.2869999408721924 C-0.10899999737739563,-0.4059999883174896 0.9700000286102295,0.020999999716877937 2.5820000171661377,0.020999999716877937 C3.9800000190734863,0.020999999716877937 4.934999942779541,-0.5080000162124634 4.552000045776367,-1.3220000267028809 C4.552000045776367,-1.3220000267028809 6.613999843597412,2.799999952316284 6.613999843597412,2.799999952316284z"></path></g><g opacity="1" transform="matrix(1,0,0,1,79.87000274658203,58.05099868774414)"><path fill="rgb(184,228,250)" fill-opacity="1" d=" M6.613999843597412,2.799999952316284 C6.985000133514404,3.6050000190734863 6.041999816894531,4.144000053405762 4.644000053405762,4.144000053405762 C3.0329999923706055,4.144000053405762 1.9539999961853027,3.7170000076293945 1.565000057220459,2.8350000381469727 C1.9179999828338623,3.6640000343322754 0.984000027179718,4.178999900817871 -0.414000004529953,4.178999900817871 C-2.0250000953674316,4.178999900817871 -3.056999921798706,3.740999937057495 -3.493000030517578,2.869999885559082 C-3.493000030517578,2.869999885559082 -5.557000160217285,-1.2519999742507935 -5.557000160217285,-1.2519999742507935 C-5.166999816894531,-0.3700000047683716 -4.089000225067139,0.05700000002980232 -2.4769999980926514,0.05700000002980232 C-1.0789999961853027,0.05700000002980232 -0.14499999582767487,-0.4580000042915344 -0.49900001287460327,-1.2869999408721924 C-0.10899999737739563,-0.4059999883174896 0.9700000286102295,0.020999999716877937 2.5820000171661377,0.020999999716877937 C3.9800000190734863,0.020999999716877937 4.934999942779541,-0.5080000162124634 4.552000045776367,-1.3220000267028809 C4.552000045776367,-1.3220000267028809 6.613999843597412,2.799999952316284 6.613999843597412,2.799999952316284z"></path></g><g opacity="1" transform="matrix(1,0,0,1,85.46099853515625,69.19999694824219)"><path fill="rgb(184,228,250)" fill-opacity="1" d=" M6.613999843597412,2.799999952316284 C6.985000133514404,3.6050000190734863 6.041999816894531,4.144000053405762 4.644000053405762,4.144000053405762 C3.0329999923706055,4.144000053405762 1.9539999961853027,3.7170000076293945 1.565000057220459,2.8350000381469727 C1.9179999828338623,3.6640000343322754 0.984000027179718,4.178999900817871 -0.414000004529953,4.178999900817871 C-2.0250000953674316,4.178999900817871 -3.056999921798706,3.740999937057495 -3.493000030517578,2.869999885559082 C-3.493000030517578,2.869999885559082 -5.557000160217285,-1.2519999742507935 -5.557000160217285,-1.2519999742507935 C-5.166999816894531,-0.3700000047683716 -4.089000225067139,0.05700000002980232 -2.4769999980926514,0.05700000002980232 C-1.0789999961853027,0.05700000002980232 -0.14499999582767487,-0.4580000042915344 -0.49900001287460327,-1.2869999408721924 C-0.10899999737739563,-0.4059999883174896 0.9700000286102295,0.02199999988079071 2.5820000171661377,0.02199999988079071 C3.9800000190734863,0.02199999988079071 4.934999942779541,-0.5080000162124634 4.552000045776367,-1.3220000267028809 C4.552000045776367,-1.3220000267028809 6.613999843597412,2.799999952316284 6.613999843597412,2.799999952316284z"></path></g></g></g><g transform="matrix(1.8059998750686646,0,0,1.8059998750686646,-34.76024627685547,-57.98028564453125)" opacity="1" style="display: block;"><g opacity="1" transform="matrix(1,0,0,1,45.89099884033203,39.11000061035156)"><path fill="rgb(79,184,79)" fill-opacity="1" d=" M10.89900016784668,-4.696000099182129 C10.89900016784668,-4.696000099182129 -10.899999618530273,-4.696000099182129 -10.899999618530273,-4.696000099182129 C-12.8100004196167,-4.696000099182129 -14.373000144958496,-3.132999897003174 -14.373000144958496,-1.2230000495910645 C-14.373000144958496,0.6869999766349792 -14.380999565124512,4.696000099182129 -14.380999565124512,4.696000099182129 C-14.380999565124512,4.696000099182129 14.380999565124512,4.696000099182129 14.380999565124512,4.696000099182129 C14.380999565124512,4.696000099182129 14.371999740600586,0.6869999766349792 14.371999740600586,-1.2230000495910645 C14.371999740600586,-3.132999897003174 12.809000015258789,-4.696000099182129 10.89900016784668,-4.696000099182129z"></path></g><g opacity="1" transform="matrix(1,0,0,1,60.39099884033203,38.46799850463867)"><path fill="rgb(245,138,70)" fill-opacity="1" d=" M2.2060000896453857,-1.128000020980835 C2.428999900817871,-0.2549999952316284 2.3399999141693115,0.8679999709129333 2.257999897003174,1.503999948501587 C2.240000009536743,1.6360000371932983 2.2149999141693115,1.7760000228881836 2.121000051498413,1.8700000047683716 C2.0450000762939453,1.9459999799728394 1.937000036239624,1.9789999723434448 1.8329999446868896,2.005000114440918 C1.0570000410079956,2.2060000896453857 -1.3660000562667847,2.5950000286102295 -1.8910000324249268,1.7690000534057617 C-2.1459999084472656,1.3680000305175781 -2.003999948501587,0.7689999938011169 -1.5980000495910645,0.5230000019073486 C-1.524999976158142,0.4790000021457672 -1.4450000524520874,0.4429999887943268 -1.3930000066757202,0.375 C-1.315000057220459,0.27399998903274536 -1.3250000476837158,0.13099999725818634 -1.3530000448226929,0.006000000052154064 C-1.562000036239624,-0.902999997138977 -2.428999900817871,-2.071000099182129 -1.0010000467300415,-2.428999900817871 C-0.33799999952316284,-2.5950000286102295 1.0529999732971191,-2.563999891281128 1.6150000095367432,-2.1459999084472656 C1.9110000133514404,-1.9249999523162842 2.0969998836517334,-1.5570000410079956 2.2060000896453857,-1.128000020980835z"></path></g><g opacity="1" transform="matrix(1,0,0,1,45.893001556396484,44.926998138427734)"><path fill="rgb(179,82,48)" fill-opacity="1" d=" M14.378999710083008,6.248000144958496 C14.378999710083008,6.248000144958496 -14.378999710083008,6.248000144958496 -14.378999710083008,6.248000144958496 C-14.378999710083008,6.248000144958496 -14.378999710083008,-3.990000009536743 -14.378000259399414,-3.990000009536743 C-13.432000160217285,-3.8429999351501465 -12.095999717712402,-3.8299999237060547 -11.515000343322754,-4.748000144958496 C-11.329000473022461,-5.041999816894531 -11.241999626159668,-5.388999938964844 -11.064000129699707,-5.688000202178955 C-10.88700008392334,-5.986999988555908 -10.562999725341797,-6.249000072479248 -10.220999717712402,-6.186999797821045 C-9.753999710083008,-6.1020002365112305 -9.565999984741211,-5.501999855041504 -9.135000228881836,-5.302000045776367 C-8.626999855041504,-5.066999912261963 -8.062999725341797,-5.4730000495910645 -7.50600004196167,-5.526000022888184 C-7.138000011444092,-5.560999870300293 -6.757999897003174,-5.429999828338623 -6.489999771118164,-5.175000190734863 C-6.248000144958496,-4.943999767303467 -6.103000164031982,-4.629000186920166 -5.876999855041504,-4.38100004196167 C-4.706999778747559,-3.0999999046325684 -2.50600004196167,-5.099999904632568 -1.5260000228881836,-5.584000110626221 C-0.878000020980835,-5.9039998054504395 -0.027000000700354576,-5.742000102996826 0.4580000042915344,-5.205999851226807 C1.1360000371932983,-4.454999923706055 1.3580000400543213,-4.114999771118164 2.447000026702881,-4.203000068664551 C2.8320000171661377,-4.234000205993652 3.2170000076293945,-4.265999794006348 3.6019999980926514,-4.296999931335449 C3.7100000381469727,-4.306000232696533 3.825000047683716,-4.313000202178955 3.9210000038146973,-4.263999938964844 C4.000999927520752,-4.2220001220703125 4.057000160217285,-4.146999835968018 4.13100004196167,-4.093999862670898 C4.281000137329102,-3.9860000610351562 4.480999946594238,-3.986999988555908 4.666999816894531,-3.992000102996826 C5.169000148773193,-4.005000114440918 5.692999839782715,-4.02400016784668 6.135000228881836,-4.263999938964844 C6.714000225067139,-4.577000141143799 7.566999912261963,-5.710999965667725 8.206000328063965,-5.867000102996826 C8.817999839782715,-6.017000198364258 9.428000450134277,-5.6479997634887695 9.932000160217285,-5.270999908447266 C10.989999771118164,-4.478000164031982 11.352999687194824,-3.990000009536743 12.63700008392334,-3.990000009536743 C12.63700008392334,-3.990000009536743 14.378999710083008,-3.990000009536743 14.378999710083008,-3.990000009536743 C14.378999710083008,-3.990000009536743 14.378999710083008,6.248000144958496 14.378999710083008,6.248000144958496z"></path></g><g opacity="1" transform="matrix(1,0,0,1,68.54499816894531,40.858001708984375)"><path fill="rgb(106,189,81)" fill-opacity="1" d=" M1.3730000257492065,0 C1.3730000257492065,-0.7580000162124634 0.7570000290870667,-1.3730000257492065 -0.0010000000474974513,-1.3730000257492065 C-0.7590000033378601,-1.3730000257492065 -1.3730000257492065,-0.7580000162124634 -1.3730000257492065,0 C-1.3730000257492065,0.7580000162124634 -0.7590000033378601,1.3730000257492065 -0.0010000000474974513,1.3730000257492065 C0.7570000290870667,1.3730000257492065 1.3730000257492065,0.7580000162124634 1.3730000257492065,0z"></path></g><g opacity="1" transform="matrix(1,0,0,1,62.92900085449219,43.25600051879883)"><path fill="rgb(106,189,81)" fill-opacity="1" d=" M8.411999702453613,-2.9679999351501465 C8.411999702453613,-2.9679999351501465 -8.411999702453613,-2.9679999351501465 -8.411999702453613,-2.9679999351501465 C-9.88599967956543,-2.9679999351501465 -11.092000007629395,-1.7610000371932983 -11.092000007629395,-0.28700000047683716 C-11.092000007629395,1.187000036239624 -11.098999977111816,2.9679999351501465 -11.098999977111816,2.9679999351501465 C-11.098999977111816,2.9679999351501465 11.098999977111816,2.9679999351501465 11.098999977111816,2.9679999351501465 C11.098999977111816,2.9679999351501465 11.092000007629395,1.187000036239624 11.092000007629395,-0.28700000047683716 C11.092000007629395,-1.7610000371932983 9.88599967956543,-2.9679999351501465 8.411999702453613,-2.9679999351501465z"></path></g><g opacity="1" transform="matrix(1,0,0,1,63.597999572753906,54.7859992980957)"><path fill="rgb(245,138,70)" fill-opacity="1" d=" M10.430000305175781,-8.562999725341797 C10.571000099182129,-6.546000003814697 9.708999633789062,-4.5370001792907715 9.710000038146973,-2.506999969482422 C9.711000442504883,-0.22699999809265137 12.069999694824219,-0.06700000166893005 12.069999694824219,1.74399995803833 C12.069999694824219,1.74399995803833 12.069999694824219,10.592000007629395 12.069999694824219,10.592000007629395 C12.069999694824219,10.592000007629395 -12.069999694824219,4.973999977111816 -12.069999694824219,4.973999977111816 C-12.069999694824219,4.973999977111816 -11.767999649047852,-8.562999725341797 -11.767999649047852,-8.562999725341797 C-11.765999794006348,-8.666000366210938 -11.12600040435791,-9.053000450134277 -11.029000282287598,-9.128999710083008 C-10.682999610900879,-9.39900016784668 -10.508999824523926,-9.680000305175781 -9.982000350952148,-9.475000381469727 C-9.626999855041504,-9.336999893188477 -9.302000045776367,-9.076000213623047 -8.920000076293945,-9.081000328063965 C-8.449000358581543,-9.086999893188477 -8.095999717712402,-9.48900032043457 -7.73199987411499,-9.789999961853027 C-7.368000030517578,-10.09000015258789 -6.7769999504089355,-10.288999557495117 -6.464000225067139,-9.935999870300293 C-6.303999900817871,-9.755000114440918 -6.276000022888184,-9.479999542236328 -6.0960001945495605,-9.319000244140625 C-5.927000045776367,-9.168999671936035 -5.669000148773193,-9.163999557495117 -5.453999996185303,-9.232999801635742 C-5.238999843597412,-9.302000045776367 -5.052000045776367,-9.432999610900879 -4.849999904632568,-9.532999992370605 C-2.7170000076293945,-10.592000007629395 -0.16500000655651093,-8.177000045776367 2.0999999046325684,-8.628000259399414 C3.3480000495910645,-8.87600040435791 4.4679999351501465,-9.88700008392334 5.7210001945495605,-9.670000076293945 C6.685999870300293,-9.501999855041504 7.446000099182129,-8.833000183105469 8.435999870300293,-8.67300033569336 C9.09000015258789,-8.565999984741211 10.430000305175781,-8.562999725341797 10.430000305175781,-8.562999725341797z"></path></g><g opacity="1" transform="matrix(1,0,0,1,35.97600173950195,64.82099914550781)"><path fill="rgb(113,66,56)" fill-opacity="1" d=" M-10.54800033569336,-14.312999725341797 C-10.54800033569336,-14.312999725341797 15.0600004196167,-14.312999725341797 15.0600004196167,-14.312999725341797 C15.0600004196167,-14.312999725341797 15.0600004196167,14.312999725341797 15.0600004196167,14.312999725341797 C15.0600004196167,14.312999725341797 -15.0600004196167,14.312999725341797 -15.0600004196167,14.312999725341797 C-15.0600004196167,14.312999725341797 -15.0600004196167,-9.706000328063965 -15.0600004196167,-9.706000328063965 C-15.0600004196167,-9.706000328063965 -10.54800033569336,-14.312999725341797 -10.54800033569336,-14.312999725341797z"></path></g><g opacity="1" transform="matrix(1,0,0,1,64.46600341796875,66.0530014038086)"><path fill="rgb(113,66,56)" fill-opacity="1" d=" M11.779000282287598,-1.312000036239624 C11.779000282287598,-1.312000036239624 -0.13600000739097595,-13.081000328063965 -0.13600000739097595,-13.081000328063965 C-0.13600000739097595,-13.081000328063965 -11.779000282287598,-1.312000036239624 -11.779000282287598,-1.312000036239624 C-11.779000282287598,-1.312000036239624 -11.779000282287598,13.081000328063965 -11.779000282287598,13.081000328063965 C-11.779000282287598,13.081000328063965 11.779000282287598,13.081000328063965 11.779000282287598,13.081000328063965 C11.779000282287598,13.081000328063965 11.779000282287598,-1.312000036239624 11.779000282287598,-1.312000036239624z"></path></g><g opacity="1" transform="matrix(1,0,0,1,57.52199935913086,66.9229965209961)"><path fill="rgb(255,201,77)" fill-opacity="1" d=" M-2.505000114440918,3.671999931335449 C-2.505000114440918,3.671999931335449 3.6070001125335693,-2.690000057220459 3.6070001125335693,-2.690000057220459 C3.6070001125335693,-2.690000057220459 2.503999948501587,-3.671999931335449 2.503999948501587,-3.671999931335449 C2.503999948501587,-3.671999931335449 -3.6070001125335693,2.690000057220459 -3.6070001125335693,2.690000057220459 C-3.6070001125335693,2.690000057220459 -2.505000114440918,3.671999931335449 -2.505000114440918,3.671999931335449z"></path></g><g opacity="1" transform="matrix(1,0,0,1,71.41000366210938,66.9229965209961)"><path fill="rgb(255,201,77)" fill-opacity="1" d=" M3.6070001125335693,2.690000057220459 C3.6070001125335693,2.690000057220459 -2.505000114440918,-3.671999931335449 -2.505000114440918,-3.671999931335449 C-2.505000114440918,-3.671999931335449 -3.6070001125335693,-2.690999984741211 -3.6070001125335693,-2.690999984741211 C-3.6070001125335693,-2.690999984741211 2.505000114440918,3.671999931335449 2.505000114440918,3.671999931335449 C2.505000114440918,3.671999931335449 3.6070001125335693,2.690000057220459 3.6070001125335693,2.690000057220459z"></path></g><g opacity="1" transform="matrix(1,0,0,1,53.279998779296875,71.49800109863281)"><path fill="rgb(255,201,77)" fill-opacity="1" d=" M2.24399995803833,7.63700008392334 C2.24399995803833,7.63700008392334 -2.24399995803833,7.63700008392334 -2.24399995803833,7.63700008392334 C-2.24399995803833,7.63700008392334 -2.24399995803833,-7.63700008392334 -2.24399995803833,-7.63700008392334 C-2.24399995803833,-7.63700008392334 2.24399995803833,-7.63700008392334 2.24399995803833,-7.63700008392334 C2.24399995803833,-7.63700008392334 2.24399995803833,7.63700008392334 2.24399995803833,7.63700008392334z"></path></g><g opacity="1" transform="matrix(1,0,0,1,75.66799926757812,71.49800109863281)"><path fill="rgb(255,201,77)" fill-opacity="1" d=" M2.24399995803833,7.63700008392334 C2.24399995803833,7.63700008392334 -2.24399995803833,7.63700008392334 -2.24399995803833,7.63700008392334 C-2.24399995803833,7.63700008392334 -2.24399995803833,-7.63700008392334 -2.24399995803833,-7.63700008392334 C-2.24399995803833,-7.63700008392334 2.24399995803833,-7.63700008392334 2.24399995803833,-7.63700008392334 C2.24399995803833,-7.63700008392334 2.24399995803833,7.63700008392334 2.24399995803833,7.63700008392334z"></path></g><g opacity="1" transform="matrix(1,0,0,1,54.20399856567383,57.14699935913086)"><path fill="rgb(113,66,56)" fill-opacity="1" d=" M-10.26200008392334,6.715000152587891 C-10.26200008392334,6.715000152587891 3.1679999828338623,-6.715000152587891 3.1679999828338623,-6.715000152587891 C3.1679999828338623,-6.715000152587891 10.26200008392334,-6.715000152587891 10.26200008392334,-6.715000152587891 C10.26200008392334,-6.715000152587891 -3.1679999828338623,6.715000152587891 -3.1679999828338623,6.715000152587891 C-3.1679999828338623,6.715000152587891 -10.26200008392334,6.715000152587891 -10.26200008392334,6.715000152587891z"></path></g><g opacity="1" transform="matrix(1,0,0,1,64.46600341796875,57.904998779296875)"><path fill="rgb(255,201,77)" fill-opacity="1" d=" M11.958000183105469,7.4730000495910645 C11.958000183105469,7.4730000495910645 13.430000305175781,5.955999851226807 13.430000305175781,5.955999851226807 C13.430000305175781,5.955999851226807 0.0010000000474974513,-7.4730000495910645 0.0010000000474974513,-7.4730000495910645 C0.0010000000474974513,-7.4730000495910645 -13.430000305175781,5.955999851226807 -13.430000305175781,5.955999851226807 C-13.430000305175781,5.955999851226807 -11.958000183105469,7.4730000495910645 -11.958000183105469,7.4730000495910645 C-11.958000183105469,7.4730000495910645 -11.321999549865723,6.835999965667725 -11.321999549865723,6.835999965667725 C-11.321999549865723,6.835999965667725 11.321999549865723,6.835999965667725 11.321999549865723,6.835999965667725 C11.321999549865723,6.835999965667725 11.958000183105469,7.4730000495910645 11.958000183105469,7.4730000495910645z"></path></g><g opacity="1" transform="matrix(1,0,0,1,64.46600341796875,57.904998779296875)"><path fill="rgb(114,66,56)" fill-opacity="1" d=" M0.8809999823570251,-3.6050000190734863 C0.8809999823570251,-3.6050000190734863 4.5329999923706055,0.04699999839067459 4.5329999923706055,0.04699999839067459 C4.5329999923706055,0.04699999839067459 0.8809999823570251,3.8499999046325684 0.8809999823570251,3.8499999046325684 C0.8809999823570251,3.8499999046325684 0.8809999823570251,-3.6050000190734863 0.8809999823570251,-3.6050000190734863z"></path></g><g opacity="1" transform="matrix(1,0,0,1,64.46600341796875,57.904998779296875)"><path fill="rgb(114,66,56)" fill-opacity="1" d=" M-0.8799999952316284,-3.6050000190734863 C-0.8799999952316284,-3.6050000190734863 -0.8799999952316284,3.8499999046325684 -0.8799999952316284,3.8499999046325684 C-0.8799999952316284,3.8499999046325684 -4.5329999923706055,0.04699999839067459 -4.5329999923706055,0.04699999839067459 C-4.5329999923706055,0.04699999839067459 -0.8799999952316284,-3.6050000190734863 -0.8799999952316284,-3.6050000190734863z"></path></g><g opacity="1" transform="matrix(1,0,0,1,64.46600341796875,57.904998779296875)"><path fill="rgb(114,66,56)" fill-opacity="1" d=" M-5.7769999504089355,1.2920000553131104 C-5.7769999504089355,1.2920000553131104 -2.1429998874664307,5.076000213623047 -2.1429998874664307,5.076000213623047 C-2.1429998874664307,5.076000213623047 -9.560999870300293,5.076000213623047 -9.560999870300293,5.076000213623047 C-9.560999870300293,5.076000213623047 -5.7769999504089355,1.2920000553131104 -5.7769999504089355,1.2920000553131104z"></path></g><g opacity="1" transform="matrix(1,0,0,1,64.46600341796875,57.904998779296875)"><path fill="rgb(114,66,56)" fill-opacity="1" d=" M2.1440000534057617,5.076000213623047 C2.1440000534057617,5.076000213623047 5.7769999504089355,1.2920000553131104 5.7769999504089355,1.2920000553131104 C5.7769999504089355,1.2920000553131104 9.562000274658203,5.076000213623047 9.562000274658203,5.076000213623047 C9.562000274658203,5.076000213623047 2.1440000534057617,5.076000213623047 2.1440000534057617,5.076000213623047z"></path></g><g opacity="1" transform="matrix(1,0,0,1,64.46600341796875,57.31399917602539)"><path fill="rgb(248,171,110)" fill-opacity="1" d=" M13.430000305175781,6.547999858856201 C13.430000305175781,6.547999858856201 -0.0010000000474974513,-6.881999969482422 -0.0010000000474974513,-6.881999969482422 C-0.0010000000474974513,-6.881999969482422 -13.430000305175781,6.547999858856201 -13.430000305175781,6.547999858856201 C-13.430000305175781,6.547999858856201 -13.095999717712402,6.881999969482422 -13.095999717712402,6.881999969482422 C-13.095999717712402,6.881999969482422 -0.0010000000474974513,-6.214000225067139 -0.0010000000474974513,-6.214000225067139 C-0.0010000000474974513,-6.214000225067139 13.095000267028809,6.881999969482422 13.095000267028809,6.881999969482422 C13.095000267028809,6.881999969482422 13.430000305175781,6.547999858856201 13.430000305175781,6.547999858856201z"></path></g><g opacity="1" transform="matrix(1,0,0,1,44.28200149536133,53.05699920654297)"><path fill="rgb(144,102,39)" fill-opacity="1" d=" M-0.33899998664855957,10.803999900817871 C-0.33899998664855957,10.803999900817871 13.09000015258789,-2.625999927520752 13.09000015258789,-2.625999927520752 C13.09000015258789,-2.625999927520752 0.33899998664855957,-10.803999900817871 0.33899998664855957,-10.803999900817871 C0.33899998664855957,-10.803999900817871 -13.09000015258789,2.625999927520752 -13.09000015258789,2.625999927520752 C-13.09000015258789,2.625999927520752 -0.33899998664855957,10.803999900817871 -0.33899998664855957,10.803999900817871z"></path></g><g opacity="1" transform="matrix(1,0,0,1,32.12799835205078,48.96799850463867)"><path fill="rgb(113,66,56)" fill-opacity="1" d=" M0.9369999766349792,-6.715000152587891 C0.9369999766349792,-6.715000152587891 12.493000030517578,-6.715000152587891 12.493000030517578,-6.715000152587891 C12.493000030517578,-6.715000152587891 -0.9359999895095825,6.715000152587891 -0.9359999895095825,6.715000152587891 C-0.9359999895095825,6.715000152587891 -12.493000030517578,6.715000152587891 -12.493000030517578,6.715000152587891 C-12.493000030517578,6.715000152587891 0.9369999766349792,-6.715000152587891 0.9369999766349792,-6.715000152587891z"></path></g><g opacity="1" transform="matrix(1,0,0,1,47.071998596191406,47.895999908447266)"><path stroke-linecap="round" stroke-linejoin="round" fill-opacity="0" stroke="rgb(82,56,10)" stroke-opacity="1" stroke-width="1" d=" M14.687000274658203,4.089000225067139 C14.687000274658203,4.089000225067139 8.746999740600586,4.089000225067139 8.746999740600586,4.089000225067139 C8.746999740600586,4.089000225067139 -4.002999782562256,-4.089000225067139 -4.002999782562256,-4.089000225067139 C-4.002999782562256,-4.089000225067139 -14.687000274658203,-4.089000225067139 -14.687000274658203,-4.089000225067139"></path></g><g opacity="1" transform="matrix(1,0,0,1,43.9119987487793,51.12099838256836)"><path stroke-linecap="round" stroke-linejoin="round" fill-opacity="0" stroke="rgb(82,56,10)" stroke-opacity="1" stroke-width="1" d=" M14.621000289916992,4.089000225067139 C14.621000289916992,4.089000225067139 8.680999755859375,4.089000225067139 8.680999755859375,4.089000225067139 C8.680999755859375,4.089000225067139 -4.068999767303467,-4.089000225067139 -4.068999767303467,-4.089000225067139 C-4.068999767303467,-4.089000225067139 -14.621000289916992,-4.089000225067139 -14.621000289916992,-4.089000225067139"></path></g><g opacity="1" transform="matrix(1,0,0,1,40.68600082397461,54.34700012207031)"><path stroke-linecap="round" stroke-linejoin="round" fill-opacity="0" stroke="rgb(82,56,10)" stroke-opacity="1" stroke-width="1" d=" M14.621000289916992,4.089000225067139 C14.621000289916992,4.089000225067139 8.680999755859375,4.089000225067139 8.680999755859375,4.089000225067139 C8.680999755859375,4.089000225067139 -4.068999767303467,-4.089000225067139 -4.068999767303467,-4.089000225067139 C-4.068999767303467,-4.089000225067139 -14.621000289916992,-4.089000225067139 -14.621000289916992,-4.089000225067139"></path></g><g opacity="1" transform="matrix(1,0,0,1,37.43899917602539,57.573001861572266)"><path stroke-linecap="round" stroke-linejoin="round" fill-opacity="0" stroke="rgb(82,56,10)" stroke-opacity="1" stroke-width="1" d=" M14.642999649047852,4.089000225067139 C14.642999649047852,4.089000225067139 8.70199966430664,4.089000225067139 8.70199966430664,4.089000225067139 C8.70199966430664,4.089000225067139 -4.047999858856201,-4.089000225067139 -4.047999858856201,-4.089000225067139 C-4.047999858856201,-4.089000225067139 -14.642999649047852,-4.089000225067139 -14.642999649047852,-4.089000225067139"></path></g><g opacity="1" transform="matrix(1,0,0,1,62.72100067138672,36.770999908447266)"><path fill="rgb(179,82,48)" fill-opacity="1" d=" M-0.29899999499320984,1.4830000400543213 C-0.675000011920929,1.4470000267028809 -1.9079999923706055,1.1080000400543213 -2.109999895095825,0.7900000214576721 C-2.26200008392334,0.5519999861717224 -2.2780001163482666,0.2529999911785126 -2.26200008392334,-0.028999999165534973 C-2.25,-0.2150000035762787 -2.2249999046325684,-0.4050000011920929 -2.1419999599456787,-0.5720000267028809 C-1.774999976158142,-1.3040000200271606 -0.46299999952316284,-1.3380000591278076 0.2329999953508377,-1.4579999446868896 C0.4569999873638153,-1.496999979019165 0.6890000104904175,-1.527999997138977 0.9100000262260437,-1.4739999771118164 C1.1510000228881836,-1.4160000085830688 1.3580000400543213,-1.2619999647140503 1.5399999618530273,-1.093000054359436 C1.8250000476837158,-0.8289999961853027 2.0759999752044678,-0.5090000033378601 2.177000045776367,-0.13300000131130219 C2.2780001163482666,0.24300000071525574 2.2019999027252197,0.6809999942779541 1.9179999828338623,0.9459999799728394 C1.7039999961853027,1.1440000534057617 1.409000039100647,1.2230000495910645 1.1260000467300415,1.2940000295639038 C0.6589999794960022,1.4110000133514404 0.1809999942779541,1.527999997138977 -0.29899999499320984,1.4830000400543213z"></path></g><g opacity="1" transform="matrix(1,0,0,1,64.9729995727539,38.94900131225586)"><path fill="rgb(248,171,110)" fill-opacity="1" d=" M2.867000102996826,1.3049999475479126 C2.864000082015991,1.0499999523162842 2.8350000381469727,-0.03999999910593033 2.5869998931884766,-0.15199999511241913 C2.4509999752044678,-0.21299999952316284 2.2820000648498535,-0.2029999941587448 2.1659998893737793,-0.296999990940094 C1.9769999980926514,-0.45100000500679016 2.053999900817871,-0.75 2.000999927520752,-0.9879999756813049 C1.746000051498413,-2.135999917984009 -1.430999994277954,-1.4129999876022339 -2.124000072479248,-1.2089999914169312 C-2.36899995803833,-1.1369999647140503 -2.63100004196167,-1.0369999408721924 -2.759999990463257,-0.8159999847412109 C-2.8529999256134033,-0.6549999713897705 -2.8570001125335693,-0.4580000042915344 -2.8580000400543213,-0.2720000147819519 C-2.8610000610351562,0.2240000069141388 -2.864000082015991,0.718999981880188 -2.867000102996826,1.215000033378601 C-2.868000030517578,1.2920000553131104 -2.867000102996826,1.3730000257492065 -2.822000026702881,1.4359999895095825 C-2.7809998989105225,1.4950000047683716 -2.7090001106262207,1.524999976158142 -2.6410000324249268,1.5490000247955322 C-0.996999979019165,2.135999917984009 0.8230000138282776,1.4019999504089355 2.558000087738037,1.590000033378601 C2.634999990463257,1.5980000495910645 2.7200000286102295,1.6059999465942383 2.7829999923706055,1.5609999895095825 C2.8589999675750732,1.50600004196167 2.868000030517578,1.3980000019073486 2.867000102996826,1.3049999475479126z"></path></g><g opacity="1" transform="matrix(1,0,0,1,55.29600143432617,33.582000732421875)"><path fill="rgb(248,171,110)" fill-opacity="1" d=" M-1.1330000162124634,1.2280000448226929 C-0.3569999933242798,1.4600000381469727 0.4429999887943268,1.4390000104904175 1.2319999933242798,1.246000051498413 C1.2899999618530273,1.2319999933242798 1.3509999513626099,1.2139999866485596 1.3880000114440918,1.1670000553131104 C1.4160000085830688,1.1330000162124634 1.4249999523162842,1.0859999656677246 1.4320000410079956,1.0420000553131104 C1.5119999647140503,0.5220000147819519 1.3530000448226929,-0.03099999949336052 1.0080000162124634,-0.42899999022483826 C0.5809999704360962,-0.921999990940094 -0.4950000047683716,-1.4609999656677246 -0.8199999928474426,-0.7459999918937683 C-0.9369999766349792,-0.49000000953674316 -0.7839999794960022,-0.2150000035762787 -0.9509999752044678,0.03400000184774399 C-1.0800000429153442,0.22699999809265137 -1.340999960899353,0.14000000059604645 -1.4529999494552612,0.34599998593330383 C-1.5119999647140503,0.45399999618530273 -1.4830000400543213,0.7250000238418579 -1.496000051498413,0.8529999852180481 C-1.5019999742507935,0.9110000133514404 -1.5080000162124634,0.9729999899864197 -1.4850000143051147,1.0269999504089355 C-1.4490000009536743,1.1119999885559082 -1.3550000190734863,1.1549999713897705 -1.2680000066757202,1.184999942779541 C-1.2230000495910645,1.2000000476837158 -1.1779999732971191,1.215000033378601 -1.1330000162124634,1.2280000448226929z"></path></g><g opacity="1" transform="matrix(1,0,0,1,68.72899627685547,50.03099822998047)"><path fill="rgb(179,82,48)" fill-opacity="1" d=" M-0.5040000081062317,1.6160000562667847 C-0.29600000381469727,2.072000026702881 0.23000000417232513,2.9790000915527344 0.7789999842643738,2.3440001010894775 C0.9369999766349792,2.1619999408721924 1.00600004196167,1.9220000505447388 1.062000036239624,1.687000036239624 C1.312999963760376,0.6330000162124634 1.4229999780654907,-0.48500001430511475 1.2920000553131104,-1.5579999685287476 C1.25600004196167,-1.850000023841858 1.2070000171661377,-2.1530001163482666 1.0410000085830688,-2.3959999084472656 C0.6439999938011169,-2.9790000915527344 -0.40400001406669617,-2.890000104904175 -0.8949999809265137,-2.500999927520752 C-1.2419999837875366,-2.2269999980926514 -1.4049999713897705,-1.7690000534057617 -1.4140000343322754,-1.3270000219345093 C-1.4229999780654907,-0.8849999904632568 -1.2970000505447388,-0.45100000500679016 -1.156000018119812,-0.03200000151991844 C-0.9670000076293945,0.527999997138977 -0.7490000128746033,1.0779999494552612 -0.5040000081062317,1.6160000562667847z"></path></g><g opacity="1" transform="matrix(1,0,0,1,39.992000579833984,77.23500061035156)"><path fill="rgb(144,102,39)" fill-opacity="1" d=" M-15.854000091552734,-2.430000066757202 C-15.854000091552734,-2.430000066757202 15.854000091552734,-2.430000066757202 15.854000091552734,-2.430000066757202 C15.854000091552734,-2.430000066757202 15.854000091552734,2.430000066757202 15.854000091552734,2.430000066757202 C15.854000091552734,2.430000066757202 -15.854000091552734,2.430000066757202 -15.854000091552734,2.430000066757202 C-15.854000091552734,2.430000066757202 -15.854000091552734,-2.430000066757202 -15.854000091552734,-2.430000066757202z"></path></g><g opacity="1" transform="matrix(1,0,0,1,99.375,86.90799713134766)"><path fill="rgb(245,138,70)" fill-opacity="1" d=" M-15.467000007629395,3.119999885559082 C-15.467000007629395,3.119999885559082 -15.057999610900879,2.763000011444092 -14.277000427246094,2.2939999103546143 C-13.496000289916992,1.8229999542236328 -12.329999923706055,1.2910000085830688 -10.77299976348877,1.1510000228881836 C-9.213000297546387,0.9819999933242798 -7.2779998779296875,1.3049999475479126 -4.988999843597412,1.6469999551773071 C-3.8399999141693115,1.8040000200271606 -2.5820000171661377,1.9329999685287476 -1.246000051498413,1.8539999723434448 C0.08799999952316284,1.7660000324249268 1.4859999418258667,1.4199999570846558 2.7309999465942383,0.7990000247955322 C4.00600004196167,0.15399999916553497 4.955999851226807,-0.6209999918937683 5.901000022888184,-1.2699999809265137 C6.831999778747559,-1.9279999732971191 7.702000141143799,-2.447999954223633 8.541000366210938,-2.684000015258789 C10.303000450134277,-3.2079999446868896 12.222000122070312,-2.9149999618530273 13.670999526977539,-2.368000030517578 C15.14900016784668,-1.8220000267028809 16.208999633789062,-1.0080000162124634 16.87299919128418,-0.3889999985694885 C17.035999298095703,-0.23000000417232513 17.18199920654297,-0.08900000154972076 17.309999465942383,0.03500000014901161 C17.424999237060547,0.16899999976158142 17.52400016784668,0.2840000092983246 17.604000091552734,0.37599998712539673 C17.763999938964844,0.5609999895095825 17.850000381469727,0.6589999794960022 17.850000381469727,0.6589999794960022 C17.850000381469727,0.6589999794960022 20.075000762939453,-1.100000023841858 20.075000762939453,-1.100000023841858 C20.075000762939453,-1.100000023841858 19.964000701904297,-1.2289999723434448 19.757999420166016,-1.4700000286102295 C19.652999877929688,-1.590000033378601 19.524999618530273,-1.7369999885559082 19.374000549316406,-1.909999966621399 C19.208999633789062,-2.072000026702881 19.020000457763672,-2.257999897003174 18.808000564575195,-2.4649999141693115 C17.945999145507812,-3.2690000534057617 16.575000762939453,-4.318999767303467 14.664999961853027,-5.0269999504089355 C12.777000427246094,-5.7220001220703125 10.32699966430664,-6.1529998779296875 7.734000205993652,-5.4039998054504395 C6.4029998779296875,-5.017000198364258 5.26800012588501,-4.291999816894531 4.275000095367432,-3.5950000286102295 C3.2820000648498535,-2.9019999504089355 2.3420000076293945,-2.171999931335449 1.465999960899353,-1.7410000562667847 C-2.1429998874664307,0.20600000023841858 -6.928999900817871,-2.1649999618530273 -11.034000396728516,-1.6729999780654907 C-12.048999786376953,-1.5809999704360962 -12.979999542236328,-1.3519999980926514 -13.77400016784668,-1.0759999752044678 C-14.5600004196167,-0.7799999713897705 -15.220999717712402,-0.460999995470047 -15.723999977111816,-0.1469999998807907 C-16.243000030517578,0.14800000190734863 -16.604000091552734,0.4309999942779541 -16.861000061035156,0.6119999885559082 C-17.121000289916992,0.7910000085830688 -17.239999771118164,0.9049999713897705 -17.239999771118164,0.9049999713897705 C-17.239999771118164,0.9049999713897705 -17.488000869750977,1.218000054359436 -17.822999954223633,1.690999984741211 C-17.979000091552734,1.9329999685287476 -18.15999984741211,2.2149999141693115 -18.354999542236328,2.5169999599456787 C-18.535999298095703,2.822999954223633 -18.711999893188477,3.1570000648498535 -18.891000747680664,3.4809999465942383 C-19.226999282836914,4.1479997634887695 -19.542999267578125,4.802999973297119 -19.738000869750977,5.315000057220459 C-19.940000534057617,5.816999912261963 -20.075000762939453,6.1519999504089355 -20.075000762939453,6.1519999504089355 C-20.075000762939453,6.1519999504089355 -19.79800033569336,5.922999858856201 -19.381999969482422,5.578999996185303 C-18.97800064086914,5.23199987411499 -18.395999908447266,4.814000129699707 -17.82699966430664,4.419000148773193 C-17.531999588012695,4.23199987411499 -17.246000289916992,4.040999889373779 -16.972000122070312,3.877000093460083 C-16.69499969482422,3.7260000705718994 -16.43600082397461,3.5840001106262207 -16.214000701904297,3.4630000591278076 C-15.762999534606934,3.244999885559082 -15.467000007629395,3.119999885559082 -15.467000007629395,3.119999885559082z"></path></g><g opacity="1" transform="matrix(1,0,0,1,108.99700164794922,86.83300018310547)"><path fill="rgb(248,171,110)" fill-opacity="1" d=" M-12.942999839782715,-3.193000078201294 C-12.942999839782715,-3.193000078201294 -12.593999862670898,-2.9609999656677246 -12.013999938964844,-2.4030001163482666 C-11.427000045776367,-1.850000023841858 -10.64799976348877,-0.9440000057220459 -9.684000015258789,0.2720000147819519 C-9.201000213623047,0.8700000047683716 -8.637999534606934,1.5770000219345093 -7.914999961853027,2.2709999084472656 C-7.204999923706055,2.9549999237060547 -6.388000011444092,3.5999999046325684 -5.465000152587891,4.158999919891357 C-3.634999990463257,5.261000156402588 -1.2949999570846558,6.074999809265137 1.1859999895095825,5.801000118255615 C2.4030001163482666,5.675000190734863 3.6459999084472656,5.224999904632568 4.629000186920166,4.633999824523926 C5.626999855041504,4.048999786376953 6.449999809265137,3.382999897003174 7.203999996185303,2.796999931335449 C7.974999904632568,2.187999963760376 8.581000328063965,1.7549999952316284 9.265999794006348,1.4249999523162842 C9.934000015258789,1.1039999723434448 10.58899974822998,0.9179999828338623 11.166000366210938,0.8619999885559082 C12.333000183105469,0.7390000224113464 13.11299991607666,1.159999966621399 13.612000465393066,1.565000057220459 C13.854999542236328,1.781000018119812 14.043999671936035,1.9639999866485596 14.154999732971191,2.117000102996826 C14.27400016784668,2.259999990463257 14.338000297546387,2.3359999656677246 14.338000297546387,2.3359999656677246 C14.338000297546387,2.3359999656677246 16.621999740600586,0.652999997138977 16.621999740600586,0.652999997138977 C16.621999740600586,0.652999997138977 16.52199935913086,0.5299999713897705 16.333999633789062,0.30000001192092896 C16.1560001373291,0.06700000166893005 15.845999717712402,-0.25600001215934753 15.40999984741211,-0.6290000081062317 C14.958000183105469,-0.9879999756813049 14.354999542236328,-1.3949999809265137 13.567999839782715,-1.6679999828338623 C12.78600025177002,-1.937000036239624 11.847999572753906,-2.059000015258789 10.888999938964844,-1.9609999656677246 C9.928000450134277,-1.8680000305175781 8.954999923706055,-1.5740000009536743 8.029000282287598,-1.128999948501587 C7.11299991607666,-0.6970000267028809 6.198999881744385,-0.028999999165534973 5.460000038146973,0.5600000023841858 C4.692999839782715,1.159000039100647 3.9539999961853027,1.74399995803833 3.2009999752044678,2.183000087738037 C2.444999933242798,2.628999948501587 1.7050000429153442,2.884000062942505 0.8730000257492065,2.9820001125335693 C-0.7739999890327454,3.174999952316284 -2.5510001182556152,2.6089999675750732 -4.000999927520752,1.7289999723434448 C-4.729000091552734,1.2879999876022339 -5.385000228881836,0.7710000276565552 -5.947999954223633,0.2280000001192093 C-6.501999855041504,-0.30300000309944153 -6.988999843597412,-0.9049999713897705 -7.474999904632568,-1.5080000162124634 C-8.427000045776367,-2.7100000381469727 -9.322999954223633,-3.765000104904175 -10.04800033569336,-4.448999881744385 C-10.765000343322754,-5.140999794006348 -11.27299976348877,-5.486999988555908 -11.27299976348877,-5.486999988555908 C-11.27299976348877,-5.486999988555908 -11.359000205993652,-5.519000053405762 -11.506999969482422,-5.576000213623047 C-11.656000137329102,-5.63100004196167 -11.859000205993652,-5.715000152587891 -12.130999565124512,-5.783999919891357 C-12.397000312805176,-5.855999946594238 -12.692999839782715,-5.946000099182129 -13.039999961853027,-5.986999988555908 C-13.371000289916992,-6.051000118255615 -13.736000061035156,-6.067999839782715 -14.092000007629395,-6.059999942779541 C-14.442000389099121,-6.074999809265137 -14.800000190734863,-5.98199987411499 -15.107000350952148,-5.942999839782715 C-15.416999816894531,-5.849999904632568 -15.692999839782715,-5.760000228881836 -15.918000221252441,-5.675000190734863 C-16.34000015258789,-5.452000141143799 -16.621999740600586,-5.302999973297119 -16.621999740600586,-5.302999973297119 C-16.621999740600586,-5.302999973297119 -16.316999435424805,-5.276000022888184 -15.859000205993652,-5.236000061035156 C-15.637999534606934,-5.185999870300293 -15.38700008392334,-5.117000102996826 -15.13700008392334,-5.046000003814697 C-14.890000343322754,-4.920000076293945 -14.63700008392334,-4.84499979019165 -14.413000106811523,-4.677999973297119 C-14.1850004196167,-4.5329999923706055 -13.97599983215332,-4.38100004196167 -13.79800033569336,-4.201000213623047 C-13.614999771118164,-4.050000190734863 -13.46500015258789,-3.8610000610351562 -13.338000297546387,-3.7160000801086426 C-13.210000038146973,-3.578000068664551 -13.114999771118164,-3.433000087738037 -13.04800033569336,-3.3399999141693115 C-12.982000350952148,-3.246000051498413 -12.942999839782715,-3.193000078201294 -12.942999839782715,-3.193000078201294z"></path></g><g opacity="1" transform="matrix(1,0,0,1,82.44400024414062,83.37100219726562)"><path fill="rgb(245,138,70)" fill-opacity="1" d=" M5.638999938964844,-8.1899995803833 C5.631999969482422,-8.187000274658203 5.686999797821045,-8.133000373840332 5.716000080108643,-8.003000259399414 C5.736999988555908,-7.940000057220459 5.763999938964844,-7.861999988555908 5.794000148773193,-7.770999908447266 C5.818999767303467,-7.677999973297119 5.824999809265137,-7.568999767303467 5.8520002365112305,-7.448999881744385 C5.921000003814697,-6.9679999351501465 5.830999851226807,-6.248000144958496 5.26200008392334,-5.625 C4.992000102996826,-5.309999942779541 4.565999984741211,-5.0269999504089355 3.997999906539917,-4.783999919891357 C3.437999963760376,-4.545000076293945 2.753999948501587,-4.369999885559082 1.9769999980926514,-4.216000080108643 C1.2100000381469727,-4.063000202178955 0.31200000643730164,-3.9189999103546143 -0.593999981880188,-3.687999963760376 C-1.496000051498413,-3.4590001106262207 -2.4189999103546143,-3.177000045776367 -3.3259999752044678,-2.7690000534057617 C-4.229000091552734,-2.3610000610351562 -5.129000186920166,-1.8530000448226929 -5.914999961853027,-1.159000039100647 C-6.701000213623047,-0.4729999899864197 -7.375999927520752,0.37299999594688416 -7.815999984741211,1.3020000457763672 C-8.708999633789062,3.177000045776367 -8.701000213623047,5.104000091552734 -8.467000007629395,6.567999839782715 C-8.229000091552734,8.055000305175781 -7.796999931335449,9.199000358581543 -7.468999862670898,9.97700023651123 C-7.130000114440918,10.753000259399414 -6.900000095367432,11.173999786376953 -6.900000095367432,11.173999786376953 C-6.900000095367432,11.173999786376953 -4.38700008392334,9.859000205993652 -4.38700008392334,9.859000205993652 C-4.38700008392334,9.859000205993652 -4.578999996185303,9.505000114440918 -4.861000061035156,8.862000465393066 C-5.133999824523926,8.218999862670898 -5.482999801635742,7.271999835968018 -5.663000106811523,6.135000228881836 C-5.848999977111816,5.004000186920166 -5.809999942779541,3.680000066757202 -5.260000228881836,2.5350000858306885 C-4.71999979019165,1.3899999856948853 -3.6059999465942383,0.44600000977516174 -2.1730000972747803,-0.1770000010728836 C-1.465999960899353,-0.4970000088214874 -0.6899999976158142,-0.7360000014305115 0.09399999678134918,-0.9350000023841858 C0.8759999871253967,-1.1360000371932983 1.6740000247955322,-1.2649999856948853 2.5329999923706055,-1.434999942779541 C4.216000080108643,-1.7610000371932983 6.093999862670898,-2.315000057220459 7.355999946594238,-3.7109999656677246 C7.954999923706055,-4.38100004196167 8.380999565124512,-5.151000022888184 8.541999816894531,-5.882999897003174 C8.652000427246094,-6.241000175476074 8.664999961853027,-6.5929999351501465 8.704000473022461,-6.910999774932861 C8.697999954223633,-7.230999946594238 8.710000038146973,-7.5289998054504395 8.668999671936035,-7.789000034332275 C8.625,-8.050000190734863 8.590999603271484,-8.28499984741211 8.539999961853027,-8.482999801635742 C8.47700023651123,-8.677000045776367 8.425000190734863,-8.843000411987305 8.381999969482422,-8.97700023651123 C8.34000015258789,-9.112000465393066 8.298999786376953,-9.211999893188477 8.263999938964844,-9.276000022888184 C8.232000350952148,-9.342000007629395 8.21500015258789,-9.37600040435791 8.21500015258789,-9.37600040435791 C8.21500015258789,-9.37600040435791 8.156999588012695,-9.444999694824219 8.053999900817871,-9.5649995803833 C7.955999851226807,-9.6850004196167 7.808000087738037,-9.847000122070312 7.6020002365112305,-10.012999534606934 C7.22599983215332,-10.368000030517578 6.63100004196167,-10.718000411987305 6.039000034332275,-10.928000450134277 C5.74399995803833,-11.034000396728516 5.432000160217285,-11.085000038146973 5.164000034332275,-11.137999534606934 C4.879000186920166,-11.154999732971191 4.629000186920166,-11.173999786376953 4.416999816894531,-11.168999671936035 C4.002999782562256,-11.119999885559082 3.7269999980926514,-11.086999893188477 3.7269999980926514,-11.086999893188477 C3.7269999980926514,-11.086999893188477 3.9560000896453857,-10.949000358581543 4.297999858856201,-10.741999626159668 C4.453999996185303,-10.62399959564209 4.620999813079834,-10.470000267028809 4.789999961853027,-10.322999954223633 C4.940999984741211,-10.140999794006348 5.099999904632568,-9.970000267028809 5.2179999351501465,-9.770999908447266 C5.330999851226807,-9.565999984741211 5.441999912261963,-9.385000228881836 5.494999885559082,-9.182999610900879 C5.568999767303467,-9.00100040435791 5.603000164031982,-8.821999549865723 5.61899995803833,-8.670000076293945 C5.675000190734863,-8.383999824523926 5.625,-8.182999610900879 5.638999938964844,-8.1899995803833z"></path></g><g opacity="1" transform="matrix(1,0,0,1,128.28799438476562,86.26000213623047)"><path fill="rgb(248,171,110)" fill-opacity="1" d=" M2.572999954223633,-6.60699987411499 C2.572999954223633,-6.60699987411499 2.566999912261963,-6.401000022888184 2.499000072479248,-6.063000202178955 C2.431999921798706,-5.724999904632568 2.2829999923706055,-5.261000156402588 1.9730000495910645,-4.811999797821045 C1.6640000343322754,-4.359000205993652 1.190000057220459,-3.9760000705718994 0.38499999046325684,-3.5840001106262207 C-0.4020000100135803,-3.187000036239624 -1.4930000305175781,-2.8380000591278076 -2.609999895095825,-2.0999999046325684 C-3.1619999408721924,-1.7309999465942383 -3.700000047683716,-1.2489999532699585 -4.117000102996826,-0.6790000200271606 C-4.5370001792907715,-0.11299999803304672 -4.835000038146973,0.5109999775886536 -5.0289998054504395,1.13100004196167 C-5.4029998779296875,2.380000114440918 -5.361999988555908,3.5989999771118164 -5.124000072479248,4.59499979019165 C-4.875999927520752,5.605000019073486 -4.35699987411499,6.583000183105469 -3.7100000381469727,7.394999980926514 C-2.9790000915527344,8.314000129699707 -1.8589999675750732,8.95199966430664 -0.6850000023841858,8.96399974822998 C-0.42100000381469727,8.967000007629395 -0.1379999965429306,8.932000160217285 0.06199999898672104,8.758000373840332 C0.2630000114440918,8.583999633789062 0.33899998664855957,8.29699993133545 0.31299999356269836,8.031999588012695 C0.28700000047683716,7.767000198364258 0.17299999296665192,7.519000053405762 0.04600000008940697,7.283999919891357 C-0.6420000195503235,6.01200008392334 -2.00600004196167,5.361000061035156 -2.365999937057495,3.927999973297119 C-2.502000093460083,3.364000082015991 -2.5209999084472656,2.6449999809265137 -2.315000057220459,1.9600000381469727 C-2.0929999351501465,1.2699999809265137 -1.7029999494552612,0.7009999752044678 -1.0269999504089355,0.2549999952316284 C-0.3529999852180481,-0.20800000429153442 0.6150000095367432,-0.5450000166893005 1.628999948501587,-1.034999966621399 C2.638000011444092,-1.503000020980835 3.7079999446868896,-2.2899999618530273 4.297999858856201,-3.184999942779541 C4.906000137329102,-4.064000129699707 5.159999847412109,-4.913000106811523 5.2769999504089355,-5.489999771118164 C5.394999980926514,-6.072000026702881 5.4029998779296875,-6.406000137329102 5.4029998779296875,-6.406000137329102 C5.4029998779296875,-6.406000137329102 5.105000019073486,-7.214000225067139 4.650000095367432,-7.8460001945495605 C4.2129998207092285,-8.496999740600586 3.6659998893737793,-8.967000007629395 3.6659998893737793,-8.967000007629395 C3.6659998893737793,-8.967000007629395 3.5350000858306885,-8.253000259399414 3.24399995803833,-7.658999919891357 C2.9709999561309814,-7.050000190734863 2.572999954223633,-6.60699987411499 2.572999954223633,-6.60699987411499z"></path></g><g opacity="1" transform="matrix(1,0,0,1,109.21299743652344,85.18399810791016)"><path fill="rgb(248,171,110)" fill-opacity="1" d=" M-4.493000030517578,-6.151000022888184 C-4.493000030517578,-6.151000022888184 -4.446000099182129,-5.818999767303467 -4.2820000648498535,-5.2829999923706055 C-4.11899995803833,-4.745999813079834 -3.815000057220459,-4.0269999504089355 -3.3310000896453857,-3.256999969482422 C-2.3469998836517334,-1.6820000410079956 -0.6759999990463257,-0.29100000858306885 0.3630000054836273,1.149999976158142 C1.3930000066757202,2.5339999198913574 1.7109999656677246,4.296999931335449 1.5880000591278076,5.572000026702881 C1.5390000343322754,6.210999965667725 1.406000018119812,6.72599983215332 1.2920000553131104,7.074999809265137 C1.1790000200271606,7.426000118255615 0.5260000228881836,8.741000175476074 0.5260000228881836,8.741000175476074 C0.5260000228881836,8.741000175476074 3.697000026702881,8.741000175476074 3.697000026702881,8.741000175476074 C3.697000026702881,8.741000175476074 3.7249999046325684,8.668999671936035 3.7780001163482666,8.53499984741211 C3.8310000896453857,8.401000022888184 3.9119999408721924,8.206999778747559 3.990000009536743,7.952000141143799 C4.156000137329102,7.443999767303467 4.3470001220703125,6.699999809265137 4.415999889373779,5.793000221252441 C4.493000030517578,4.888000011444092 4.434999942779541,3.819999933242798 4.164000034332275,2.7149999141693115 C3.8949999809265137,1.621000051498413 3.371000051498413,0.4580000042915344 2.6710000038146973,-0.5009999871253967 C1.9819999933242798,-1.4579999446868896 1.215999960899353,-2.234999895095825 0.574999988079071,-2.930999994277954 C-0.06800000369548798,-3.621000051498413 -0.6060000061988831,-4.251999855041504 -0.9340000152587891,-4.776000022888184 C-1.2740000486373901,-5.317999839782715 -1.475000023841858,-5.797999858856201 -1.5729999542236328,-6.125999927520752 C-1.6720000505447388,-6.453999996185303 -1.6970000267028809,-6.633999824523926 -1.6970000267028809,-6.633999824523926 C-1.6970000267028809,-6.633999824523926 -2.138000011444092,-6.984000205993652 -2.433000087738037,-7.513000011444092 C-2.760999917984009,-8.029000282287598 -2.813999891281128,-8.741000175476074 -2.813999891281128,-8.741000175476074 C-2.813999891281128,-8.741000175476074 -2.953000068664551,-8.647000312805176 -3.1670000553131104,-8.468999862670898 C-3.367000102996826,-8.288000106811523 -3.634999990463257,-8.005999565124512 -3.8429999351501465,-7.666999816894531 C-4.289999961853027,-6.994999885559082 -4.493000030517578,-6.151000022888184 -4.493000030517578,-6.151000022888184z"></path></g><g opacity="1" transform="matrix(1,0,0,1,53.26100158691406,90.23200225830078)"><path fill="rgb(245,138,70)" fill-opacity="1" d=" M-8.817999839782715,0.949999988079071 C-8.817999839782715,0.949999988079071 -8.706999778747559,0.996999979019165 -8.498000144958496,1.0859999656677246 C-8.286999702453613,1.1710000038146973 -7.9720001220703125,1.2879999876022339 -7.550000190734863,1.3899999856948853 C-7.127999782562256,1.4850000143051147 -6.5980000495910645,1.5789999961853027 -5.974999904632568,1.559999942779541 C-5.3480000495910645,1.5460000038146973 -4.656000137329102,1.4179999828338623 -3.9839999675750732,1.1720000505447388 C-2.625999927520752,0.6880000233650208 -1.4220000505447388,-0.210999995470047 -0.27900001406669617,-0.9430000185966492 C0.8379999995231628,-1.6540000438690186 2.1029999256134033,-2.250999927520752 3.2929999828338623,-2.359999895095825 C3.888000011444092,-2.4130001068115234 4.447000026702881,-2.359999895095825 4.965000152587891,-2.1730000972747803 C5.488999843597412,-1.9930000305175781 5.9770002365112305,-1.687999963760376 6.388999938964844,-1.3179999589920044 C7.223999977111816,-0.5669999718666077 7.682000160217285,0.39800000190734863 7.85699987411499,1.305999994277954 C8.041999816894531,2.2130000591278076 7.9679999351501465,3.0220000743865967 7.874000072479248,3.565000057220459 C7.77400016784668,4.111999988555908 7.373000144958496,5.199999809265137 7.373000144958496,5.199999809265137 C7.373000144958496,5.199999809265137 10.369000434875488,5.275000095367432 10.369000434875488,5.275000095367432 C10.369000434875488,5.275000095367432 10.524999618530273,4.843999862670898 10.668000221252441,4.058000087738037 C10.802000045776367,3.2760000228881836 10.914999961853027,2.118000030517578 10.637999534606934,0.7429999709129333 C10.381999969482422,-0.6179999709129333 9.630999565124512,-2.2309999465942383 8.288000106811523,-3.4260001182556152 C7.622000217437744,-4.02400016784668 6.817999839782715,-4.5329999923706055 5.901000022888184,-4.85099983215332 C4.984000205993652,-5.182000160217285 3.9649999141693115,-5.275000095367432 3.0220000743865967,-5.184000015258789 C1.1109999418258667,-4.988999843597412 -0.47999998927116394,-4.164999961853027 -1.7999999523162842,-3.3380000591278076 C-3.0859999656677246,-2.497999906539917 -4.0960001945495605,-1.7860000133514404 -4.943999767303467,-1.4980000257492065 C-5.7789998054504395,-1.187999963760376 -6.40500020980835,-1.2589999437332153 -6.890999794006348,-1.3700000047683716 C-7.363999843597412,-1.4880000352859497 -7.629000186920166,-1.6260000467300415 -7.629000186920166,-1.6260000467300415 C-7.629000186920166,-1.6260000467300415 -7.817999839782715,-1.6139999628067017 -8.119999885559082,-1.6349999904632568 C-8.423999786376953,-1.649999976158142 -8.836999893188477,-1.725000023841858 -9.258999824523926,-1.8559999465942383 C-10.111000061035156,-2.1010000705718994 -10.914999961853027,-2.6670000553131104 -10.914999961853027,-2.6670000553131104 C-10.914999961853027,-2.6670000553131104 -10.868000030517578,-2.430999994277954 -10.753000259399414,-2.0769999027252197 C-10.645000457763672,-1.718999981880188 -10.451000213623047,-1.2480000257492065 -10.190999984741211,-0.7870000004768372 C-9.699999809265137,0.15000000596046448 -8.817999839782715,0.949999988079071 -8.817999839782715,0.949999988079071z"></path></g><g opacity="1" transform="matrix(1,0,0,1,59.069000244140625,84.69200134277344)"><path fill="rgb(248,171,110)" fill-opacity="1" d=" M4.736999988555908,-5.999000072479248 C4.736999988555908,-5.999000072479248 4.739999771118164,-5.927000045776367 4.7270002365112305,-5.803999900817871 C4.7179999351501465,-5.677999973297119 4.698999881744385,-5.499000072479248 4.6539998054504395,-5.290999889373779 C4.556000232696533,-4.875999927520752 4.369999885559082,-4.38100004196167 3.8519999980926514,-3.996000051498413 C3.3359999656677246,-3.5929999351501465 2.3550000190734863,-3.302999973297119 1.1330000162124634,-3.193000078201294 C-0.17800000309944153,-3.069999933242798 -1.7769999504089355,-2.9079999923706055 -3.3329999446868896,-2.2660000324249268 C-3.7209999561309814,-2.1089999675750732 -4.10099983215332,-1.9160000085830688 -4.473999977111816,-1.6720000505447388 C-4.659999847412109,-1.5549999475479126 -4.8470001220703125,-1.4429999589920044 -5.0279998779296875,-1.3170000314712524 C-5.0279998779296875,-1.3170000314712524 -5.543000221252441,-0.8669999837875366 -5.543000221252441,-0.8669999837875366 C-5.89900016784668,-0.5899999737739563 -6.15500020980835,-0.1720000058412552 -6.440000057220459,0.1809999942779541 C-6.6519999504089355,0.5889999866485596 -6.90500020980835,0.9860000014305115 -7.013999938964844,1.4149999618530273 C-7.574999809265137,3.134999990463257 -7.2789998054504395,4.6519999504089355 -7.006999969482422,5.793000221252441 C-6.710000038146973,6.949999809265137 -6.343999862670898,7.821000099182129 -6.116000175476074,8.401000022888184 C-6.004000186920166,8.684000015258789 -5.909999847412109,8.91100025177002 -5.872000217437744,9.027000427246094 C-5.828000068664551,9.14799976348877 -5.804999828338623,9.211999893188477 -5.804999828338623,9.211999893188477 C-5.804999828338623,9.211999893188477 -2.686000108718872,9.211999893188477 -2.686000108718872,9.211999893188477 C-2.686000108718872,9.211999893188477 -3.135999917984009,8.255000114440918 -3.203000068664551,8.062000274658203 C-3.2730000019073486,7.863999843597412 -3.365999937057495,7.640999794006348 -3.4820001125335693,7.3470001220703125 C-3.7090001106262207,6.77400016784668 -4.026000022888184,6.001999855041504 -4.256999969482422,5.0970001220703125 C-4.485000133514404,4.202000141143799 -4.61899995803833,3.1449999809265137 -4.322999954223633,2.313999891281128 C-4.099999904632568,1.4609999656677246 -3.302999973297119,0.8389999866485596 -2.249000072479248,0.35600000619888306 C-1.1710000038146973,-0.09200000017881393 0.09300000220537186,-0.25200000405311584 1.4190000295639038,-0.3709999918937683 C2.828000068664551,-0.5090000033378601 4.3470001220703125,-0.8270000219345093 5.547999858856201,-1.7209999561309814 C6.140999794006348,-2.1619999408721924 6.5970001220703125,-2.7179999351501465 6.88700008392334,-3.25 C7.179999828338623,-3.7839999198913574 7.3379998207092285,-4.281000137329102 7.423999786376953,-4.677999973297119 C7.511000156402588,-5.078000068664551 7.539999961853027,-5.383999824523926 7.554999828338623,-5.590000152587891 C7.573999881744385,-5.797999858856201 7.572999954223633,-5.9029998779296875 7.572999954223633,-5.9029998779296875 C7.572999954223633,-5.9029998779296875 7.497000217437744,-6.163000106811523 7.348999977111816,-6.513999938964844 C7.201000213623047,-6.866000175476074 6.985000133514404,-7.303999900817871 6.738999843597412,-7.703999996185303 C6.254000186920166,-8.508999824523926 5.705999851226807,-9.211999893188477 5.705999851226807,-9.211999893188477 C5.705999851226807,-9.211999893188477 5.568999767303467,-8.314000129699707 5.336999893188477,-7.486999988555908 C5.22599983215332,-7.072000026702881 5.077000141143799,-6.685999870300293 4.955999851226807,-6.420000076293945 C4.834000110626221,-6.1519999504089355 4.736999988555908,-5.999000072479248 4.736999988555908,-5.999000072479248z"></path></g><g opacity="1" transform="matrix(1,0,0,1,78.5469970703125,87.48899841308594)"><path fill="rgb(248,171,110)" fill-opacity="1" d=" M-13.111000061035156,-0.593999981880188 C-13.102999687194824,-0.6010000109672546 -12.973999977111816,-0.5009999871253967 -12.645000457763672,-0.39899998903274536 C-12.331999778747559,-0.2930000126361847 -11.82800006866455,-0.13600000739097595 -11.177000045776367,-0.15199999511241913 C-10.531999588012695,-0.15399999916553497 -9.786999702453613,-0.33399999141693115 -9.112000465393066,-0.6430000066757202 C-8.430000305175781,-0.9490000009536743 -7.793000221252441,-1.3569999933242798 -7.159999847412109,-1.781999945640564 C-5.9019999504089355,-2.632999897003174 -4.60699987411499,-3.568000078201294 -3.1640000343322754,-3.928999900817871 C-2.446000099182129,-4.099999904632568 -1.6990000009536743,-4.125999927520752 -0.925000011920929,-3.9839999675750732 C-0.17900000512599945,-3.8320000171661377 0.39800000190734863,-3.569999933242798 0.8849999904632568,-3.065000057220459 C1.3760000467300415,-2.566999912261963 1.7760000228881836,-1.8279999494552612 2.13700008392334,-0.9980000257492065 C2.502000093460083,-0.16699999570846558 2.8259999752044678,0.7459999918937683 3.249000072479248,1.659999966621399 C3.6689999103546143,2.571000099182129 4.195000171661377,3.4860000610351562 4.88700008392334,4.269000053405762 C5.072000026702881,4.456999778747559 5.255000114440918,4.64300012588501 5.434999942779541,4.824999809265137 C5.627999782562256,4.995999813079834 5.840000152587891,5.144000053405762 6.039999961853027,5.296999931335449 C6.445000171661377,5.617000102996826 6.829999923706055,5.806000232696533 7.224999904632568,6.011000156402588 C8.79800033569336,6.7829999923706055 10.267000198364258,6.986999988555908 11.277000427246094,6.986999988555908 C12.258000373840332,6.986999988555908 15.618000030517578,6.98799991607666 15.618000030517578,6.98799991607666 C15.482999801635742,5.995999813079834 14.913000106811523,4.888000011444092 14.032999992370605,4.410999774932861 C13.088000297546387,3.9000000953674316 12.140000343322754,4.156000137329102 11.135000228881836,4.1519999504089355 C10.234000205993652,4.1479997634887695 9.276000022888184,3.8580000400543213 8.47599983215332,3.4639999866485596 C8.215999603271484,3.3289999961853027 7.901000022888184,3.1740000247955322 7.688000202178955,2.98799991607666 C7.573999881744385,2.8949999809265137 7.447000026702881,2.815999984741211 7.330999851226807,2.7149999141693115 C7.2230000495910645,2.6029999256134033 7.111999988555908,2.490000009536743 7,2.375999927520752 C6.568999767303467,1.8849999904632568 6.179999828338623,1.24399995803833 5.827000141143799,0.4749999940395355 C5.46999979019165,-0.28999999165534973 5.1519999504089355,-1.1829999685287476 4.73799991607666,-2.131999969482422 C4.321000099182129,-3.0739998817443848 3.806999921798706,-4.125999927520752 2.9149999618530273,-5.047999858856201 C2.7090001106262207,-5.2870001792907715 2.4489998817443848,-5.486999988555908 2.186000108718872,-5.683000087738037 C1.934999942779541,-5.894000053405762 1.6460000276565552,-6.046000003814697 1.3539999723434448,-6.191999912261963 C1.2089999914169312,-6.263999938964844 1.0640000104904175,-6.3429999351501465 0.9169999957084656,-6.40500020980835 C0.9169999957084656,-6.40500020980835 0.46700000762939453,-6.548999786376953 0.46700000762939453,-6.548999786376953 C0.16699999570846558,-6.64300012588501 -0.14000000059604645,-6.739999771118164 -0.4189999997615814,-6.775000095367432 C-1.555999994277954,-6.98799991607666 -2.759000062942505,-6.949999809265137 -3.8410000801086426,-6.684999942779541 C-6.01800012588501,-6.119999885559082 -7.556000232696533,-4.915999889373779 -8.741999626159668,-4.13700008392334 C-11.230999946594238,-2.3410000801086426 -11.779000282287598,-3.200000047683716 -11.888999938964844,-3.1540000438690186 C-11.888999938964844,-3.1540000438690186 -12.076000213623047,-3.131999969482422 -12.418999671936035,-3.2139999866485596 C-12.758000373840332,-3.2939999103546143 -13.24899959564209,-3.492000102996826 -13.730999946594238,-3.7860000133514404 C-14.217000007629395,-4.068999767303467 -14.690999984741211,-4.423999786376953 -15.038999557495117,-4.699999809265137 C-15.38700008392334,-4.985000133514404 -15.618000030517578,-5.175000190734863 -15.618000030517578,-5.175000190734863 C-15.618000030517578,-5.175000190734863 -15.532999992370605,-4.885000228881836 -15.406000137329102,-4.449999809265137 C-15.269000053405762,-4.014999866485596 -15.072999954223633,-3.431999921798706 -14.798999786376953,-2.8529999256134033 C-14.536999702453613,-2.2699999809265137 -14.173999786376953,-1.690999984741211 -13.812999725341797,-1.2680000066757202 C-13.454999923706055,-0.843999981880188 -13.111000061035156,-0.593999981880188 -13.111000061035156,-0.593999981880188z"></path></g><g opacity="1" transform="matrix(1,0,0,1,66.31900024414062,80.03099822998047)"><path fill="rgb(79,184,79)" fill-opacity="1" d=" M-1.1200000047683716,-0.890999972820282 C-1.1200000047683716,-0.890999972820282 -1.7020000219345093,0.890999972820282 -1.7020000219345093,0.890999972820282 C-1.7020000219345093,0.890999972820282 1.7020000219345093,0.890999972820282 1.7020000219345093,0.890999972820282 C1.7020000219345093,0.890999972820282 -1.1200000047683716,-0.890999972820282 -1.1200000047683716,-0.890999972820282z"></path></g><g opacity="1" transform="matrix(1,0,0,1,74.0270004272461,87.21299743652344)"><path fill="rgb(106,189,81)" fill-opacity="1" d=" M1.659000039100647,-0.9290000200271606 C1.659000039100647,-0.9290000200271606 1.4019999504089355,0.9290000200271606 1.4019999504089355,0.9290000200271606 C1.4019999504089355,0.9290000200271606 -1.659000039100647,-0.5580000281333923 -1.659000039100647,-0.5580000281333923 C-1.659000039100647,-0.5580000281333923 1.659000039100647,-0.9290000200271606 1.659000039100647,-0.9290000200271606z"></path></g><g opacity="1" transform="matrix(1,0,0,1,71.25599670410156,82.78800201416016)"><path fill="rgb(79,184,79)" fill-opacity="1" d=" M1.180999994277954,0.699999988079071 C1.180999994277954,0.699999988079071 -0.4300000071525574,1.659999966621399 -0.4300000071525574,1.659999966621399 C-0.4300000071525574,1.659999966621399 -1.180999994277954,-1.659999966621399 -1.180999994277954,-1.659999966621399 C-1.180999994277954,-1.659999966621399 1.180999994277954,0.699999988079071 1.180999994277954,0.699999988079071z"></path></g><g opacity="1" transform="matrix(1,0,0,1,93.30699920654297,85.3219985961914)"><path fill="rgb(79,184,79)" fill-opacity="1" d=" M0.9309999942779541,1.6540000438690186 C0.9309999942779541,1.6540000438690186 -0.9309999942779541,1.434999942779541 -0.9309999942779541,1.434999942779541 C-0.9309999942779541,1.434999942779541 0.4950000047683716,-1.6540000438690186 0.4950000047683716,-1.6540000438690186 C0.4950000047683716,-1.6540000438690186 0.9309999942779541,1.6540000438690186 0.9309999942779541,1.6540000438690186z"></path></g><g opacity="1" transform="matrix(1,0,0,1,99.447998046875,83.08499908447266)"><path fill="rgb(79,184,79)" fill-opacity="1" d=" M-0.04899999871850014,1.4880000352859497 C-0.04899999871850014,1.4880000352859497 -1.4609999656677246,0.25600001215934753 -1.4609999656677246,0.25600001215934753 C-1.4609999656677246,0.25600001215934753 1.4609999656677246,-1.4880000352859497 1.4609999656677246,-1.4880000352859497 C1.4609999656677246,-1.4880000352859497 -0.04899999871850014,1.4880000352859497 -0.04899999871850014,1.4880000352859497z"></path></g><g opacity="1" transform="matrix(1,0,0,1,112.93099975585938,81.9260025024414)"><path fill="rgb(79,184,79)" fill-opacity="1" d=" M0.6430000066757202,1.652999997138977 C0.6430000066757202,1.652999997138977 -1.0950000286102295,0.9509999752044678 -1.0950000286102295,0.9509999752044678 C-1.0950000286102295,0.9509999752044678 1.0950000286102295,-1.652999997138977 1.0950000286102295,-1.652999997138977 C1.0950000286102295,-1.652999997138977 0.6430000066757202,1.652999997138977 0.6430000066757202,1.652999997138977z"></path></g><g opacity="1" transform="matrix(1,0,0,1,112.93199920654297,88.45099639892578)"><path fill="rgb(79,184,79)" fill-opacity="1" d=" M1.3070000410079956,0.4699999988079071 C1.3070000410079956,0.4699999988079071 -0.1850000023841858,1.6059999465942383 -0.1850000023841858,1.6059999465942383 C-0.1850000023841858,1.6059999465942383 -1.3070000410079956,-1.6059999465942383 -1.3070000410079956,-1.6059999465942383 C-1.3070000410079956,-1.6059999465942383 1.3070000410079956,0.4699999988079071 1.3070000410079956,0.4699999988079071z"></path></g><g opacity="1" transform="matrix(1,0,0,1,102.93099975585938,86.97599792480469)"><path fill="rgb(79,184,79)" fill-opacity="1" d=" M0.20399999618530273,-1.5679999589920044 C0.20399999618530273,-1.5679999589920044 -1.3459999561309814,-0.5130000114440918 -1.3459999561309814,-0.5130000114440918 C-1.3459999561309814,-0.5130000114440918 1.3459999561309814,1.5679999589920044 1.3459999561309814,1.5679999589920044 C1.3459999561309814,1.5679999589920044 0.20399999618530273,-1.5679999589920044 0.20399999618530273,-1.5679999589920044z"></path></g><g opacity="1" transform="matrix(1,0,0,1,129.7519989013672,81.86199951171875)"><path fill="rgb(79,184,79)" fill-opacity="1" d=" M1.4620000123977661,0.12099999934434891 C1.4620000123977661,0.12099999934434891 0.1809999942779541,1.4900000095367432 0.1809999942779541,1.4900000095367432 C0.1809999942779541,1.4900000095367432 -1.4620000123977661,-1.4900000095367432 -1.4620000123977661,-1.4900000095367432 C-1.4620000123977661,-1.4900000095367432 1.4620000123977661,0.12099999934434891 1.4620000123977661,0.12099999934434891z"></path></g><g opacity="1" transform="matrix(1,0,0,1,127.63099670410156,86.3030014038086)"><path fill="rgb(79,184,79)" fill-opacity="1" d=" M-0.12099999934434891,-1.4620000123977661 C-0.12099999934434891,-1.4620000123977661 -1.4900000095367432,-0.1809999942779541 -1.4900000095367432,-0.1809999942779541 C-1.4900000095367432,-0.1809999942779541 1.4900000095367432,1.4620000123977661 1.4900000095367432,1.4620000123977661 C1.4900000095367432,1.4620000123977661 -0.12099999934434891,-1.4620000123977661 -0.12099999934434891,-1.4620000123977661z"></path></g><g opacity="1" transform="matrix(1,0,0,1,83.31400299072266,82.43900299072266)"><path fill="rgb(79,184,79)" fill-opacity="1" d=" M0.6470000147819519,-1.6540000438690186 C0.6470000147819519,-1.6540000438690186 -1.0920000076293945,-0.9549999833106995 -1.0920000076293945,-0.9549999833106995 C-1.0920000076293945,-0.9549999833106995 1.0920000076293945,1.6540000438690186 1.0920000076293945,1.6540000438690186 C1.0920000076293945,1.6540000438690186 0.6470000147819519,-1.6540000438690186 0.6470000147819519,-1.6540000438690186z"></path></g><g opacity="1" transform="matrix(1,0,0,1,58.67499923706055,81.63300323486328)"><path fill="rgb(79,184,79)" fill-opacity="1" d=" M-0.9240000247955322,1.6629999876022339 C-0.9240000247955322,1.6629999876022339 0.9240000247955322,1.350000023841858 0.9240000247955322,1.350000023841858 C0.9240000247955322,1.350000023841858 -0.6570000052452087,-1.6629999876022339 -0.6570000052452087,-1.6629999876022339 C-0.6570000052452087,-1.6629999876022339 -0.9240000247955322,1.6629999876022339 -0.9240000247955322,1.6629999876022339z"></path></g><g opacity="1" transform="matrix(1,0,0,1,49.96699905395508,88.19499969482422)"><path fill="rgb(79,184,79)" fill-opacity="1" d=" M-0.4350000023841858,1.621999979019165 C-0.4350000023841858,1.621999979019165 1.222000002861023,0.7459999918937683 1.222000002861023,0.7459999918937683 C1.222000002861023,0.7459999918937683 -1.222000002861023,-1.621999979019165 -1.222000002861023,-1.621999979019165 C-1.222000002861023,-1.621999979019165 -0.4350000023841858,1.621999979019165 -0.4350000023841858,1.621999979019165z"></path></g><g opacity="1" transform="matrix(1,0,0,1,87.86499786376953,77.75700378417969)"><path fill="rgb(79,184,79)" fill-opacity="1" d=" M0.6650000214576721,1.2009999752044678 C0.6650000214576721,1.2009999752044678 1.652999997138977,-0.3919999897480011 1.652999997138977,-0.3919999897480011 C1.652999997138977,-0.3919999897480011 -1.652999997138977,-1.2009999752044678 -1.652999997138977,-1.2009999752044678 C-1.652999997138977,-1.2009999752044678 0.6650000214576721,1.2009999752044678 0.6650000214576721,1.2009999752044678z"></path></g><g opacity="1" transform="matrix(1,0,0,1,517.97802734375,-8.357000350952148)"><path fill="rgb(136,212,235)" fill-opacity="1" d=" M-486.09600830078125,72.8550033569336 C-486.09600830078125,72.8550033569336 -483.12200927734375,72.8550033569336 -483.12200927734375,72.8550033569336 C-483.12200927734375,72.8550033569336 -483.12200927734375,64.51899719238281 -483.12200927734375,64.51899719238281 C-483.12200927734375,64.51899719238281 -486.09600830078125,64.51899719238281 -486.09600830078125,64.51899719238281 C-486.09600830078125,64.51899719238281 -486.09600830078125,72.8550033569336 -486.09600830078125,72.8550033569336z"></path></g><g opacity="1" transform="matrix(1,0,0,1,28.88599967956543,56.16299819946289)"><path fill="rgb(144,102,39)" fill-opacity="1" d=" M4.923999786376953,-1.0470000505447388 C4.923999786376953,-1.0470000505447388 -4.923999786376953,-1.0470000505447388 -4.923999786376953,-1.0470000505447388 C-5.499000072479248,-1.0470000505447388 -5.96999979019165,-0.574999988079071 -5.96999979019165,0 C-5.96999979019165,0.5759999752044678 -5.499000072479248,1.0470000505447388 -4.923999786376953,1.0470000505447388 C-4.923999786376953,1.0470000505447388 4.923999786376953,1.0470000505447388 4.923999786376953,1.0470000505447388 C5.5,1.0470000505447388 5.96999979019165,0.5759999752044678 5.96999979019165,0 C5.96999979019165,-0.574999988079071 5.5,-1.0470000505447388 4.923999786376953,-1.0470000505447388z"></path></g><g opacity="1" transform="matrix(1,0,0,1,35.470001220703125,64.49800109863281)"><path fill="rgb(144,102,39)" fill-opacity="1" d=" M4.923999786376953,-1.0470000505447388 C4.923999786376953,-1.0470000505447388 -4.923999786376953,-1.0470000505447388 -4.923999786376953,-1.0470000505447388 C-5.499000072479248,-1.0470000505447388 -5.96999979019165,-0.574999988079071 -5.96999979019165,0.0010000000474974513 C-5.96999979019165,0.5759999752044678 -5.499000072479248,1.0470000505447388 -4.923999786376953,1.0470000505447388 C-4.923999786376953,1.0470000505447388 4.923999786376953,1.0470000505447388 4.923999786376953,1.0470000505447388 C5.5,1.0470000505447388 5.96999979019165,0.5759999752044678 5.96999979019165,0.0010000000474974513 C5.96999979019165,-0.574999988079071 5.5,-1.0470000505447388 4.923999786376953,-1.0470000505447388z"></path></g><g opacity="1" transform="matrix(1,0,0,1,46.03099822998047,71.43699645996094)"><path stroke-linecap="butt" stroke-linejoin="miter" fill-opacity="0" stroke-miterlimit="10" stroke="rgb(194,132,43)" stroke-opacity="1" stroke-width="0.722" d=" M2.934999942779541,0 C2.934999942779541,-4.99399995803833 1.621000051498413,-9.041999816894531 0,-9.041999816894531 C-1.621000051498413,-9.041999816894531 -2.934999942779541,-4.99399995803833 -2.934999942779541,0 C-2.934999942779541,4.99399995803833 -1.621000051498413,9.041999816894531 0,9.041999816894531 C1.621000051498413,9.041999816894531 2.934999942779541,4.99399995803833 2.934999942779541,0z"></path></g><g opacity="1" transform="matrix(1,0,0,1,45.40299987792969,71.43599700927734)"><path fill="rgb(113,66,56)" fill-opacity="1" d=" M0.628000020980835,-9.041999816894531 C0.628000020980835,-9.041999816894531 -3.562000036239624,-9.041999816894531 -3.562000036239624,-9.041999816894531 C-3.562000036239624,-9.041999816894531 -3.562000036239624,9.041999816894531 -3.562000036239624,9.041999816894531 C-3.562000036239624,9.041999816894531 0.628000020980835,9.041999816894531 0.628000020980835,9.041999816894531 C2.249000072479248,9.041999816894531 3.562000036239624,4.99399995803833 3.562000036239624,0 C3.562000036239624,-4.99399995803833 2.249000072479248,-9.041999816894531 0.628000020980835,-9.041999816894531z"></path></g><g opacity="1" transform="matrix(1,0,0,1,44.527000427246094,62.77899932861328)"><path fill="rgb(206,143,70)" fill-opacity="1" d=" M2.687000036239624,0.38499999046325684 C2.325000047683716,-0.10700000077486038 1.9240000247955322,-0.38499999046325684 1.503000020980835,-0.38499999046325684 C1.503000020980835,-0.38499999046325684 -2.687000036239624,-0.38499999046325684 -2.687000036239624,-0.38499999046325684 C-2.687000036239624,-0.38499999046325684 -2.687000036239624,0.38499999046325684 -2.687000036239624,0.38499999046325684 C-2.687000036239624,0.38499999046325684 2.687000036239624,0.38499999046325684 2.687000036239624,0.38499999046325684z"></path></g><g opacity="1" transform="matrix(1,0,0,1,45.194000244140625,66.4219970703125)"><path fill="rgb(206,143,70)" fill-opacity="1" d=" M-3.3540000915527344,0.38499999046325684 C-3.3540000915527344,0.38499999046325684 3.3540000915527344,0.38499999046325684 3.3540000915527344,0.38499999046325684 C3.302999973297119,0.11900000274181366 3.246999979019165,-0.13699999451637268 3.187000036239624,-0.38499999046325684 C3.187000036239624,-0.38499999046325684 -3.3540000915527344,-0.38499999046325684 -3.3540000915527344,-0.38499999046325684 C-3.3540000915527344,-0.38499999046325684 -3.3540000915527344,0.38499999046325684 -3.3540000915527344,0.38499999046325684z"></path></g><g opacity="1" transform="matrix(1,0,0,1,45.40299987792969,71.43599700927734)"><path fill="rgb(206,143,70)" fill-opacity="1" d=" M-3.562999963760376,0.38499999046325684 C-3.562999963760376,0.38499999046325684 3.555999994277954,0.38499999046325684 3.555999994277954,0.38499999046325684 C3.558000087738037,0.25600001215934753 3.562999963760376,0.13099999725818634 3.562999963760376,0.0010000000474974513 C3.562999963760376,-0.1289999932050705 3.558000087738037,-0.25600001215934753 3.555999994277954,-0.38499999046325684 C3.555999994277954,-0.38499999046325684 -3.562999963760376,-0.38499999046325684 -3.562999963760376,-0.38499999046325684 C-3.562999963760376,-0.38499999046325684 -3.562999963760376,0.38499999046325684 -3.562999963760376,0.38499999046325684z"></path></g><g opacity="1" transform="matrix(1,0,0,1,45.194000244140625,76.45099639892578)"><path fill="rgb(206,143,70)" fill-opacity="1" d=" M-3.3540000915527344,0.38499999046325684 C-3.3540000915527344,0.38499999046325684 3.187000036239624,0.38499999046325684 3.187000036239624,0.38499999046325684 C3.246999979019165,0.13699999451637268 3.302999973297119,-0.11800000071525574 3.3540000915527344,-0.38499999046325684 C3.3540000915527344,-0.38499999046325684 -3.3540000915527344,-0.38499999046325684 -3.3540000915527344,-0.38499999046325684 C-3.3540000915527344,-0.38499999046325684 -3.3540000915527344,0.38499999046325684 -3.3540000915527344,0.38499999046325684z"></path></g><g opacity="1" transform="matrix(1,0,0,1,44.5260009765625,80.09400177001953)"><path fill="rgb(206,143,70)" fill-opacity="1" d=" M-2.686000108718872,-0.38600000739097595 C-2.686000108718872,-0.38600000739097595 -2.686000108718872,0.38600000739097595 -2.686000108718872,0.38600000739097595 C-2.686000108718872,0.38600000739097595 1.5049999952316284,0.38600000739097595 1.5049999952316284,0.38600000739097595 C1.9259999990463257,0.38499999046325684 2.3239998817443848,0.10599999874830246 2.686000108718872,-0.38600000739097595 C2.686000108718872,-0.38600000739097595 -2.686000108718872,-0.38600000739097595 -2.686000108718872,-0.38600000739097595z"></path></g><g opacity="1" transform="matrix(1,0,0,1,41.84000015258789,71.43699645996094)"><path fill="rgb(144,102,39)" fill-opacity="1" d=" M2.934999942779541,0 C2.934999942779541,-4.99399995803833 1.621000051498413,-9.041999816894531 0,-9.041999816894531 C-1.621000051498413,-9.041999816894531 -2.934999942779541,-4.99399995803833 -2.934999942779541,0 C-2.934999942779541,4.99399995803833 -1.621000051498413,9.041999816894531 0,9.041999816894531 C1.621000051498413,9.041999816894531 2.934999942779541,4.99399995803833 2.934999942779541,0z"></path></g><g opacity="1" transform="matrix(1,0,0,1,41.84000015258789,71.43699645996094)"><path stroke-linecap="butt" stroke-linejoin="miter" fill-opacity="0" stroke-miterlimit="10" stroke="rgb(194,132,43)" stroke-opacity="1" stroke-width="0.722" d=" M2.934999942779541,0 C2.934999942779541,-4.99399995803833 1.621000051498413,-9.041999816894531 0,-9.041999816894531 C-1.621000051498413,-9.041999816894531 -2.934999942779541,-4.99399995803833 -2.934999942779541,0 C-2.934999942779541,4.99399995803833 -1.621000051498413,9.041999816894531 0,9.041999816894531 C1.621000051498413,9.041999816894531 2.934999942779541,4.99399995803833 2.934999942779541,0z"></path></g><g opacity="1" transform="matrix(1,0,0,1,47.49800109863281,71.43699645996094)"><path stroke-linecap="butt" stroke-linejoin="miter" fill-opacity="0" stroke-miterlimit="10" stroke="rgb(194,132,43)" stroke-opacity="1" stroke-width="0.722" d=" M-1.4670000076293945,9.041999816894531 C0.15399999916553497,9.041999816894531 1.4670000076293945,4.99399995803833 1.4670000076293945,0 C1.4670000076293945,-4.99399995803833 0.15399999916553497,-9.041999816894531 -1.4670000076293945,-9.041999816894531"></path></g><g opacity="1" transform="matrix(1,0,0,1,47.0620002746582,76.29299926757812)"><path fill="rgb(127,127,127)" fill-opacity="1" d=" M1.4880000352859497,-5.241000175476074 C1.4880000352859497,-5.241000175476074 1.4880000352859497,5.242000102996826 1.4880000352859497,5.242000102996826 C1.4880000352859497,5.242000102996826 -1.4880000352859497,5.242000102996826 -1.4880000352859497,5.242000102996826 C-1.4880000352859497,5.242000102996826 -1.4880000352859497,-5.241000175476074 -1.4880000352859497,-5.241000175476074 C-1.4880000352859497,-5.241000175476074 1.4880000352859497,-5.241000175476074 1.4880000352859497,-5.241000175476074z"></path></g><g opacity="1" transform="matrix(1,0,0,1,29.847000122070312,76.2239990234375)"><path fill="rgb(194,132,43)" fill-opacity="1" d=" M0.7739999890327454,0.6039999723434448 C0.7739999890327454,0.6039999723434448 -0.7739999890327454,0.6039999723434448 -0.7739999890327454,0.6039999723434448 C-0.7739999890327454,0.6039999723434448 -0.7739999890327454,-0.6039999723434448 -0.7739999890327454,-0.6039999723434448 C-0.7739999890327454,-0.6039999723434448 0.7739999890327454,-0.6039999723434448 0.7739999890327454,-0.6039999723434448 C0.7739999890327454,-0.6039999723434448 0.7739999890327454,0.6039999723434448 0.7739999890327454,0.6039999723434448z"></path></g><g opacity="1" transform="matrix(1,0,0,1,29.847000122070312,77.85700225830078)"><path fill="rgb(113,66,56)" fill-opacity="1" d=" M-2.009999990463257,0.6039999723434448 C-2.009999990463257,0.6039999723434448 2.009999990463257,0.6039999723434448 2.009999990463257,0.6039999723434448 C2.009999990463257,0.6039999723434448 2.009999990463257,-0.6039999723434448 2.009999990463257,-0.6039999723434448 C2.009999990463257,-0.6039999723434448 -2.009999990463257,-0.6039999723434448 -2.009999990463257,-0.6039999723434448 C-2.009999990463257,-0.6039999723434448 -2.009999990463257,0.6039999723434448 -2.009999990463257,0.6039999723434448z"></path></g><g opacity="1" transform="matrix(1,0,0,1,36.025001525878906,76.83599853515625)"><path fill="rgb(113,66,56)" fill-opacity="1" d=" M-1.1690000295639038,0.6039999723434448 C-1.1690000295639038,0.6039999723434448 1.1690000295639038,0.6039999723434448 1.1690000295639038,0.6039999723434448 C1.1690000295639038,0.6039999723434448 1.1690000295639038,-0.6039999723434448 1.1690000295639038,-0.6039999723434448 C1.1690000295639038,-0.6039999723434448 -1.1690000295639038,-0.6039999723434448 -1.1690000295639038,-0.6039999723434448 C-1.1690000295639038,-0.6039999723434448 -1.1690000295639038,0.6039999723434448 -1.1690000295639038,0.6039999723434448z"></path></g><g opacity="1" transform="matrix(1,0,0,1,51.84299850463867,78.0510025024414)"><path fill="rgb(194,132,43)" fill-opacity="1" d=" M0.7739999890327454,-0.6039999723434448 C0.7739999890327454,-0.6039999723434448 -0.7739999890327454,-0.6039999723434448 -0.7739999890327454,-0.6039999723434448 C-0.7739999890327454,-0.6039999723434448 -0.7739999890327454,0.6039999723434448 -0.7739999890327454,0.6039999723434448 C-0.7739999890327454,0.6039999723434448 0.7739999890327454,0.6039999723434448 0.7739999890327454,0.6039999723434448 C0.7739999890327454,0.6039999723434448 0.7739999890327454,-0.6039999723434448 0.7739999890327454,-0.6039999723434448z"></path></g><g opacity="1" transform="matrix(1,0,0,1,53.012001037597656,76.41799926757812)"><path fill="rgb(113,66,56)" fill-opacity="1" d=" M-1.1690000295639038,-0.6039999723434448 C-1.1690000295639038,-0.6039999723434448 1.1690000295639038,-0.6039999723434448 1.1690000295639038,-0.6039999723434448 C1.1690000295639038,-0.6039999723434448 1.1690000295639038,0.6039999723434448 1.1690000295639038,0.6039999723434448 C1.1690000295639038,0.6039999723434448 -1.1690000295639038,0.6039999723434448 -1.1690000295639038,0.6039999723434448 C-1.1690000295639038,0.6039999723434448 -1.1690000295639038,-0.6039999723434448 -1.1690000295639038,-0.6039999723434448z"></path></g></g></g></svg>