<svg xmlns="http://www.w3.org/2000/svg" viewBox="0 0 159 45" width="159" height="45" preserveAspectRatio="xMidYMid meet" style="width: 100%; height: 100%; transform: translate3d(0px, 0px, 0px); content-visibility: visible;"><defs><clipPath id="__lottie_element_1778"><rect width="159" height="45" x="0" y="0"></rect></clipPath><mask id="__lottie_element_1783" mask-type="alpha"><g transform="matrix(0.33329999446868896,0,0,0.33329999446868896,0.17460131645202637,-0.5393621325492859)" opacity="1" style="display: block;"><g opacity="1" transform="matrix(1,0,0,1,237.8939971923828,68.37799835205078)"><path fill="rgb(17,128,195)" fill-opacity="1" d=" M203.11700439453125,-6.603000164031982 C203.11700439453125,-6.603000164031982 -128.81500244140625,-66.01499938964844 -128.81500244140625,-66.01499938964844 C-143.42100524902344,-68.12799835205078 -157.88499450683594,-61.36199951171875 -165.62399291992188,-48.797000885009766 C-165.62399291992188,-48.797000885009766 -237.6439971923828,68.12799835205078 -237.6439971923828,68.12799835205078 C-237.6439971923828,68.12799835205078 87.81600189208984,68.12799835205078 87.81600189208984,68.12799835205078 C87.81600189208984,68.12799835205078 237.6439971923828,49.45199966430664 237.6439971923828,49.45199966430664 C237.6439971923828,49.45199966430664 203.11700439453125,-6.603000164031982 203.11700439453125,-6.603000164031982z"></path></g></g></mask><mask id="__lottie_element_1789" mask-type="alpha"><g transform="matrix(0.33329999446868896,0,0,0.33329999446868896,0.17460131645202637,-0.5393621325492859)" opacity="1" style="display: block;"><g opacity="1" transform="matrix(1,0,0,1,237.8939971923828,68.37799835205078)"><path fill="rgb(17,128,195)" fill-opacity="1" d=" M203.11700439453125,-6.603000164031982 C203.11700439453125,-6.603000164031982 -128.81500244140625,-66.01499938964844 -128.81500244140625,-66.01499938964844 C-143.42100524902344,-68.12799835205078 -157.88499450683594,-61.36199951171875 -165.62399291992188,-48.797000885009766 C-165.62399291992188,-48.797000885009766 -237.6439971923828,68.12799835205078 -237.6439971923828,68.12799835205078 C-237.6439971923828,68.12799835205078 87.81600189208984,68.12799835205078 87.81600189208984,68.12799835205078 C87.81600189208984,68.12799835205078 237.6439971923828,49.45199966430664 237.6439971923828,49.45199966430664 C237.6439971923828,49.45199966430664 203.11700439453125,-6.603000164031982 203.11700439453125,-6.603000164031982z"></path></g></g></mask></defs><g clip-path="url(#__lottie_element_1778)"><g mask="url(#__lottie_element_1783)" style="display: block;"><g transform="matrix(0.33329999446868896,0,0,0.33329999446868896,-10.092885971069336,-29.1614990234375)" opacity="1"><g opacity="1" transform="matrix(1,0,0,1,366.11199951171875,129.17599487304688)"><path fill="rgb(51,104,172)" fill-opacity="1" d=" M365.86199951171875,-128.92599487304688 C365.86199951171875,-128.92599487304688 -365.86199951171875,-128.92599487304688 -365.86199951171875,-128.92599487304688 C-365.86199951171875,-128.92599487304688 -365.86199951171875,128.92599487304688 -365.86199951171875,128.92599487304688 C-365.86199951171875,128.92599487304688 365.86199951171875,128.92599487304688 365.86199951171875,128.92599487304688 C365.86199951171875,128.92599487304688 365.86199951171875,-128.92599487304688 365.86199951171875,-128.92599487304688z"></path></g><g opacity="1" transform="matrix(1,0,0,1,366.11199951171875,208.5989990234375)"><path fill="rgb(75,178,126)" fill-opacity="1" d=" M365.86199951171875,-15.079000473022461 C335.82501220703125,4.5370001792907715 275.9159851074219,31.670000076293945 194.98300170898438,-7.802999973297119 C157.9080047607422,-25.885000228881836 135.63900756835938,-34.22600173950195 104.44999694824219,-36.584999084472656 C73.15599822998047,-38.95000076293945 47.24300003051758,-27.12700080871582 17.500999450683594,-16.07699966430664 C-22.82200050354004,-1.0959999561309814 -65.38800048828125,12.163000106811523 -108.1500015258789,7.491000175476074 C-160.98300170898438,1.718999981880188 -207.8990020751953,-30.759000778198242 -260.6000061035156,-37.63100051879883 C-296.8800048828125,-42.36199951171875 -334.7040100097656,-34.25899887084961 -365.8609924316406,-15.079000473022461 C-365.8609924316406,-15.079000473022461 -365.86199951171875,8.82699966430664 -365.86199951171875,8.82699966430664 C-343.32598876953125,-5.24399995803833 -318.9410095214844,-17.106000900268555 -292.90301513671875,-22.795000076293945 C-265.6510009765625,-28.74799919128418 -237.29200744628906,-25.648000717163086 -211.34100341796875,-14.854000091552734 C-163.09500122070312,5.2129998207092285 -118.38700103759766,38.409000396728516 -63.191001892089844,30.98200035095215 C-36.1609992980957,27.3439998626709 -10.14900016784668,17.2549991607666 12.960000038146973,2.890000104904175 C37.26300048828125,-12.218999862670898 63.70899963378906,-26.46500015258789 92.91100311279297,-28.878000259399414 C107.83699798583984,-30.11199951171875 120.3489990234375,-28.802000045776367 146.46200561523438,-12.949000358581543 C172.61199951171875,2.927000045776367 199.60899353027344,18.707000732421875 228.93899536132812,27.957000732421875 C274.6189880371094,42.36199951171875 325.1440124511719,32.88800048828125 365.86199951171875,8.82699966430664 C365.86199951171875,8.82699966430664 365.86199951171875,-15.079000473022461 365.86199951171875,-15.079000473022461z"></path></g><g opacity="1" transform="matrix(1,0,0,1,281.4150085449219,221.07699584960938)"><path fill="rgb(117,192,218)" fill-opacity="1" d=" M258.2770080566406,37.025001525878906 C239.82200622558594,24.714000701904297 221.46400451660156,4.130000114440918 211.38499450683594,-3.990999937057495 C187.7899932861328,-23.00200080871582 159.16600036621094,-24.784000396728516 131.0959930419922,-14.369999885559082 C104.99199676513672,-4.684000015258789 81.84100341796875,12.279999732971191 55.43600082397461,20.81999969482422 C29.4060001373291,29.238000869750977 1.9630000591278076,30.115999221801758 -25.215999603271484,25.610000610351562 C-82.87899780273438,16.048999786376953 -147.1959991455078,-37.025001525878906 -205.9530029296875,-6.449999809265137 C-225.86000061035156,3.9100000858306885 -242.60699462890625,20.770000457763672 -258.2770080566406,37.025001525878906 C-258.2770080566406,37.025001525878906 258.2770080566406,37.025001525878906 258.2770080566406,37.025001525878906z"></path></g><g opacity="1" transform="matrix(1,0,0,1,366.11199951171875,131.16900634765625)"><path fill="rgb(75,178,126)" fill-opacity="1" d=" M-365.86199951171875,29.490999221801758 C-314.4750061035156,-30.233999252319336 -179.75100708007812,41.84600067138672 -120.2509994506836,61.8650016784668 C-79.84300231933594,75.46099853515625 -49.750999450683594,67.80899810791016 -4.236000061035156,57.59299850463867 C42.8650016784668,47.02000045776367 79.61299896240234,31.591999053955078 127.79199981689453,26.340999603271484 C151.48399353027344,23.759000778198242 175.9550018310547,25.035999298095703 198.76600646972656,31.775999069213867 C226.61500549316406,40.00400161743164 253.4320068359375,61.029998779296875 284.7279968261719,64.50800323486328 C315.5010070800781,67.9280014038086 345.7959899902344,52.047000885009766 365.86199951171875,29.490999221801758 C365.86199951171875,29.490999221801758 365.86199951171875,9.220000267028809 365.86199951171875,9.220000267028809 C326.6860046386719,53.744998931884766 276.7489929199219,55.81800079345703 222.8300018310547,32.922000885009766 C182.86500549316406,15.951000213623047 150.38999938964844,16.457000732421875 101.50499725341797,23.631999969482422 C76.87899780273438,27.246999740600586 50.91699981689453,28.492000579833984 26.325000762939453,23.94499969482422 C1.8200000524520874,19.413999557495117 -21.268999099731445,9.435999870300293 -43.90999984741211,-0.6110000014305115 C-212.58399963378906,-75.46099853515625 -304.7510070800781,-52.56700134277344 -365.86199951171875,9.220000267028809 C-365.86199951171875,9.220000267028809 -365.86199951171875,29.490999221801758 -365.86199951171875,29.490999221801758z"></path></g><g opacity="1" transform="matrix(1,0,0,1,366.11199951171875,89.26499938964844)"><path fill="rgb(91,173,208)" fill-opacity="1" d=" M-365.86199951171875,32.43199920654297 C-313.8009948730469,-42.73400115966797 -276.00201416015625,-53.262001037597656 -195.30099487304688,-41.73400115966797 C-111.3010025024414,-29.733999252319336 -33.066001892089844,42.24399948120117 51.29199981689453,58.119998931884766 C95.24700164794922,66.39399719238281 110.4229965209961,47.26599884033203 155.42300415039062,47.26599884033203 C184.7259979248047,47.26599884033203 220.87600708007812,58.0099983215332 246.42300415039062,65.76599884033203 C321.0889892578125,88.43299865722656 354.9209899902344,49.22200012207031 365.86199951171875,32.43199920654297 C365.86199951171875,32.43199920654297 365.86199951171875,-0.4020000100135803 365.86199951171875,-0.4020000100135803 C337.52899169921875,24.850000381469727 307.7149963378906,45.4119987487793 274.4989929199219,35.74100112915039 C255.66000366210938,30.2549991607666 243.58299255371094,21.420000076293945 228.39599609375,10.690999984741211 C209.50599670410156,-2.6559998989105225 186.2259979248047,-8.807999610900879 163.1280059814453,-10.006999969482422 C140.0279998779297,-11.206999778747559 116.94000244140625,-7.711999893188477 94.25499725341797,-3.194000005722046 C82.51200103759766,-0.8560000061988831 70.79100036621094,1.7630000114440918 58.86899948120117,2.871000051498413 C42.755001068115234,4.36899995803833 26.39699935913086,2.9709999561309814 10.732999801635742,-1.065999984741211 C-27.94499969482422,-11.03499984741211 -57.992000579833984,-39.80500030517578 -92.89600372314453,-57.928001403808594 C-131.5780029296875,-78.01200103759766 -188.93299865722656,-88.43299865722656 -225.68699645996094,-84.48799896240234 C-270.55499267578125,-79.6719970703125 -307.3009948730469,-63.73400115966797 -365.8080139160156,-0.4020000100135803 C-365.8080139160156,-0.4020000100135803 -365.86199951171875,32.43199920654297 -365.86199951171875,32.43199920654297z"></path></g></g></g><g mask="url(#__lottie_element_1789)" style="display: block;"><g transform="matrix(0.33329999446868896,0,0,0.33329999446868896,-253.7351837158203,-29.1614990234375)" opacity="1"><g opacity="1" transform="matrix(1,0,0,1,366.11199951171875,129.17599487304688)"><path fill="rgb(51,104,172)" fill-opacity="1" d=" M365.86199951171875,-128.92599487304688 C365.86199951171875,-128.92599487304688 -365.86199951171875,-128.92599487304688 -365.86199951171875,-128.92599487304688 C-365.86199951171875,-128.92599487304688 -365.86199951171875,128.92599487304688 -365.86199951171875,128.92599487304688 C-365.86199951171875,128.92599487304688 365.86199951171875,128.92599487304688 365.86199951171875,128.92599487304688 C365.86199951171875,128.92599487304688 365.86199951171875,-128.92599487304688 365.86199951171875,-128.92599487304688z"></path></g><g opacity="1" transform="matrix(1,0,0,1,366.11199951171875,208.5989990234375)"><path fill="rgb(75,178,126)" fill-opacity="1" d=" M365.86199951171875,-15.079000473022461 C335.82501220703125,4.5370001792907715 275.9159851074219,31.670000076293945 194.98300170898438,-7.802999973297119 C157.9080047607422,-25.885000228881836 135.63900756835938,-34.22600173950195 104.44999694824219,-36.584999084472656 C73.15599822998047,-38.95000076293945 47.24300003051758,-27.12700080871582 17.500999450683594,-16.07699966430664 C-22.82200050354004,-1.0959999561309814 -65.38800048828125,12.163000106811523 -108.1500015258789,7.491000175476074 C-160.98300170898438,1.718999981880188 -207.8990020751953,-30.759000778198242 -260.6000061035156,-37.63100051879883 C-296.8800048828125,-42.36199951171875 -334.7040100097656,-34.25899887084961 -365.8609924316406,-15.079000473022461 C-365.8609924316406,-15.079000473022461 -365.86199951171875,8.82699966430664 -365.86199951171875,8.82699966430664 C-343.32598876953125,-5.24399995803833 -318.9410095214844,-17.106000900268555 -292.90301513671875,-22.795000076293945 C-265.6510009765625,-28.74799919128418 -237.29200744628906,-25.648000717163086 -211.34100341796875,-14.854000091552734 C-163.09500122070312,5.2129998207092285 -118.38700103759766,38.409000396728516 -63.191001892089844,30.98200035095215 C-36.1609992980957,27.3439998626709 -10.14900016784668,17.2549991607666 12.960000038146973,2.890000104904175 C37.26300048828125,-12.218999862670898 63.70899963378906,-26.46500015258789 92.91100311279297,-28.878000259399414 C107.83699798583984,-30.11199951171875 120.3489990234375,-28.802000045776367 146.46200561523438,-12.949000358581543 C172.61199951171875,2.927000045776367 199.60899353027344,18.707000732421875 228.93899536132812,27.957000732421875 C274.6189880371094,42.36199951171875 325.1440124511719,32.88800048828125 365.86199951171875,8.82699966430664 C365.86199951171875,8.82699966430664 365.86199951171875,-15.079000473022461 365.86199951171875,-15.079000473022461z"></path></g><g opacity="1" transform="matrix(1,0,0,1,281.4150085449219,221.07699584960938)"><path fill="rgb(117,192,218)" fill-opacity="1" d=" M258.2770080566406,37.025001525878906 C239.82200622558594,24.714000701904297 221.46400451660156,4.130000114440918 211.38499450683594,-3.990999937057495 C187.7899932861328,-23.00200080871582 159.16600036621094,-24.784000396728516 131.0959930419922,-14.369999885559082 C104.99199676513672,-4.684000015258789 81.84100341796875,12.279999732971191 55.43600082397461,20.81999969482422 C29.4060001373291,29.238000869750977 1.9630000591278076,30.115999221801758 -25.215999603271484,25.610000610351562 C-82.87899780273438,16.048999786376953 -147.1959991455078,-37.025001525878906 -205.9530029296875,-6.449999809265137 C-225.86000061035156,3.9100000858306885 -242.60699462890625,20.770000457763672 -258.2770080566406,37.025001525878906 C-258.2770080566406,37.025001525878906 258.2770080566406,37.025001525878906 258.2770080566406,37.025001525878906z"></path></g><g opacity="1" transform="matrix(1,0,0,1,366.11199951171875,131.16900634765625)"><path fill="rgb(75,178,126)" fill-opacity="1" d=" M-365.86199951171875,29.490999221801758 C-314.4750061035156,-30.233999252319336 -179.75100708007812,41.84600067138672 -120.2509994506836,61.8650016784668 C-79.84300231933594,75.46099853515625 -49.750999450683594,67.80899810791016 -4.236000061035156,57.59299850463867 C42.8650016784668,47.02000045776367 79.61299896240234,31.591999053955078 127.79199981689453,26.340999603271484 C151.48399353027344,23.759000778198242 175.9550018310547,25.035999298095703 198.76600646972656,31.775999069213867 C226.61500549316406,40.00400161743164 253.4320068359375,61.029998779296875 284.7279968261719,64.50800323486328 C315.5010070800781,67.9280014038086 345.7959899902344,52.047000885009766 365.86199951171875,29.490999221801758 C365.86199951171875,29.490999221801758 365.86199951171875,9.220000267028809 365.86199951171875,9.220000267028809 C326.6860046386719,53.744998931884766 276.7489929199219,55.81800079345703 222.8300018310547,32.922000885009766 C182.86500549316406,15.951000213623047 150.38999938964844,16.457000732421875 101.50499725341797,23.631999969482422 C76.87899780273438,27.246999740600586 50.91699981689453,28.492000579833984 26.325000762939453,23.94499969482422 C1.8200000524520874,19.413999557495117 -21.268999099731445,9.435999870300293 -43.90999984741211,-0.6110000014305115 C-212.58399963378906,-75.46099853515625 -304.7510070800781,-52.56700134277344 -365.86199951171875,9.220000267028809 C-365.86199951171875,9.220000267028809 -365.86199951171875,29.490999221801758 -365.86199951171875,29.490999221801758z"></path></g><g opacity="1" transform="matrix(1,0,0,1,366.11199951171875,89.26499938964844)"><path fill="rgb(91,173,208)" fill-opacity="1" d=" M-365.86199951171875,32.43199920654297 C-313.8009948730469,-42.73400115966797 -276.00201416015625,-53.262001037597656 -195.30099487304688,-41.73400115966797 C-111.3010025024414,-29.733999252319336 -33.066001892089844,42.24399948120117 51.29199981689453,58.119998931884766 C95.24700164794922,66.39399719238281 110.4229965209961,47.26599884033203 155.42300415039062,47.26599884033203 C184.7259979248047,47.26599884033203 220.87600708007812,58.0099983215332 246.42300415039062,65.76599884033203 C321.0889892578125,88.43299865722656 354.9209899902344,49.22200012207031 365.86199951171875,32.43199920654297 C365.86199951171875,32.43199920654297 365.86199951171875,-0.4020000100135803 365.86199951171875,-0.4020000100135803 C337.52899169921875,24.850000381469727 307.7149963378906,45.4119987487793 274.4989929199219,35.74100112915039 C255.66000366210938,30.2549991607666 243.58299255371094,21.420000076293945 228.39599609375,10.690999984741211 C209.50599670410156,-2.6559998989105225 186.2259979248047,-8.807999610900879 163.1280059814453,-10.006999969482422 C140.0279998779297,-11.206999778747559 116.94000244140625,-7.711999893188477 94.25499725341797,-3.194000005722046 C82.51200103759766,-0.8560000061988831 70.79100036621094,1.7630000114440918 58.86899948120117,2.871000051498413 C42.755001068115234,4.36899995803833 26.39699935913086,2.9709999561309814 10.732999801635742,-1.065999984741211 C-27.94499969482422,-11.03499984741211 -57.992000579833984,-39.80500030517578 -92.89600372314453,-57.928001403808594 C-131.5780029296875,-78.01200103759766 -188.93299865722656,-88.43299865722656 -225.68699645996094,-84.48799896240234 C-270.55499267578125,-79.6719970703125 -307.3009948730469,-63.73400115966797 -365.8080139160156,-0.4020000100135803 C-365.8080139160156,-0.4020000100135803 -365.86199951171875,32.43199920654297 -365.86199951171875,32.43199920654297z"></path></g></g></g><g transform="matrix(0.34346094727516174,0.003978133201599121,-0.0037422373425215483,0.32309433817863464,33.26294708251953,16.132532119750977)" opacity="1" style="display: block;"><g opacity="1" transform="matrix(1,0,0,1,40.606998443603516,21.304000854492188)"><path fill="rgb(189,214,47)" fill-opacity="1" d=" M-1.3969999551773071,-18.68000030517578 C6.811999797821045,-21.054000854492188 16.03499984741211,-15.564000129699707 21.739999771118164,-5.386000156402588 C27.076000213623047,-8.692000389099121 32.70199966430664,-11.538000106811523 34.310001373291016,-11.435999870300293 C37.38999938964844,-11.241999626159668 40.356998443603516,-7.440999984741211 40.356998443603516,-1.4950000047683716 C40.356998443603516,3.3989999294281006 35.59299850463867,7.797999858856201 31.02899932861328,6.465000152587891 C29.87700080871582,6.129000186920166 28.826000213623047,5.48199987411499 27.700000762939453,5.048999786376953 C24.989999771118164,4.010000228881836 20.7684326171875,1.2814842462539673 19.483562469482422,4.560490131378174 C18.842119216918945,6.197486400604248 18.932437896728516,7.6445512771606445 18.946998596191406,9.440524101257324 C18.973445892333984,12.657977104187012 18.463172912597656,15.53520679473877 16.24664306640625,17.72595977783203 C12.170162200927734,21.75547981262207 6.032984733581543,24.66878890991211 0.3170798122882843,25.263713836669922 C-0.6349043846130371,25.362445831298828 -2.581352710723877,25.567657470703125 -2.6060855388641357,24.06624412536621 C-2.622232675552368,23.039297103881836 -0.8956940174102783,22.2172908782959 -0.25850754976272583,21.70176887512207 C0.8117631077766418,20.83485984802246 1.775256633758545,19.82754135131836 2.547372579574585,18.661760330200195 C3.4737093448638916,17.262123107910156 3.991252899169922,15.628735542297363 4.93218994140625,14.247523307800293 C5.978776454925537,12.710721969604492 9.018226623535156,12.594522476196289 12.106383323669434,13.971094131469727 C12.377416610717773,11.110550880432129 12.119882583618164,7.967118740081787 11.4480562210083,5.279675483703613 C11.1802396774292,4.208492755889893 6.168000221252441,8.309000015258789 -4.96999979019165,8.069999694824219 C-11.711000442504883,7.925000190734863 -19.156999588012695,5.985000133514404 -23.01099967956543,3.5409998893737793 C-23.215999603271484,3.4110000133514404 -23.45199966430664,3.315999984741211 -23.68899917602539,3.3329999446868896 C-23.900999069213867,3.3489999771118164 -24.091999053955078,3.4679999351501465 -24.275999069213867,3.5820000171661377 C-26.018999099731445,4.659999847412109 -27.878999710083008,5.521999835968018 -29.808000564575195,6.144999980926514 C-31.225000381469727,6.603000164031982 -32.7130012512207,6.933000087738037 -34.183998107910156,6.728000164031982 C-36.263999938964844,6.436999797821045 -38.08100128173828,5.117000102996826 -39.808998107910156,3.8350000381469727 C-40.066001892089844,3.6440000534057617 -40.356998443603516,3.3499999046325684 -40.25199890136719,3.0360000133514404 C-40.209999084472656,2.9110000133514404 -40.11199951171875,2.819999933242798 -40.016998291015625,2.736999988555908 C-38.05099868774414,1.0219999551773071 -35.54199981689453,0.1420000046491623 -33.02199935913086,-0.2029999941587448 C-30.50200080871582,-0.5479999780654907 -27.945999145507812,-0.39100000262260437 -25.406999588012695,-0.2329999953508377 C-24.804000854492188,-0.19599999487400055 -25.03499984741211,-0.30399999022483826 -24.468000411987305,-0.5230000019073486 C-24.71299934387207,-1.7799999713897705 -24.95800018310547,-3.0369999408721924 -25.202999114990234,-4.295000076293945 C-25.25200080871582,-4.550000190734863 -25.30699920654297,-4.815999984741211 -25.459999084472656,-5.01800012588501 C-25.606000900268555,-5.210000038146973 -25.822999954223633,-5.321000099182129 -26.02899932861328,-5.431000232696533 C-28.767000198364258,-6.9019999504089355 -30.882999420166016,-9.574000358581543 -31.944000244140625,-12.63599967956543 C-32.28300094604492,-13.611000061035156 -33.81999969482422,-20.50200080871582 -31.60099983215332,-20.159000396728516 C-28.533000946044922,-19.68600082397461 -25.329999923706055,-16.2189998626709 -24.452999114990234,-13.128999710083008 C-23.98900032043457,-11.494000434875488 -24.240999221801758,-9.949000358581543 -22.815000534057617,-9.178000450134277 C-19.816999435424805,-7.559000015258789 -14.925000190734863,-10.39799976348877 -12.52299976348877,-12.10200023651123 C-8.984999656677246,-14.61299991607666 -5.577000141143799,-17.472000122070312 -1.3969999551773071,-18.68000030517578z"></path></g></g><g transform="matrix(0.33259573578834534,-0.021655410528182983,0.021655410528182983,0.33259573578834534,73.18160247802734,17.929481506347656)" opacity="1" style="display: block;"><g opacity="1" transform="matrix(1,0,0,1,37.65700149536133,22.735000610351562)"><path fill="rgb(125,210,247)" fill-opacity="1" d=" M36.07400131225586,6.132999897003174 C37.40700149536133,7.111000061035156 38.051666259765625,8.888999938964844 35.73833465576172,9.5600004196167 C31.805999755859375,11.086999893188477 28.39699935913086,13.83899974822998 24.42099952697754,15.312000274658203 C19.14900016784668,17.263999938964844 13.654000282287598,18.66699981689453 8.135000228881836,19.490999221801758 C-0.42100000381469727,20.76799964904785 -9.03499984741211,20.652999877929688 -16.966999053955078,19.03499984741211 C-28.1299991607666,16.757999420166016 -30.617000579833984,9.154333114624023 -37.03200149536133,5.681000232696533 C-37.85033416748047,5.141666889190674 -36.33399963378906,3.7339999675750732 -35.37099838256836,4.229000091552734 C-24.850000381469727,9.640000343322754 -11.847999572753906,9.359999656677246 -0.9869999885559082,4.880000114440918 C2.490999937057495,3.444999933242798 5.8379998207092285,1.5260000228881836 8.395999908447266,-1.2330000400543213 C13.057000160217285,-6.260000228881836 13.675000190734863,-14.269000053405762 9.071000099182129,-20.875 C8.595999717712402,-21.55500030517578 9.090999603271484,-22.483999252319336 9.918000221252441,-22.422000885009766 C13.288999557495117,-22.16699981689453 20.038000106811523,-20.996999740600586 24.97800064086914,-15.866999626159668 C33.29999923706055,-7.223999977111816 29.851999282836914,1.5709999799728394 36.07400131225586,6.132999897003174z"></path></g><g opacity="1" transform="matrix(1,0,0,1,29.415000915527344,17.343000411987305)"><path fill="rgb(125,210,247)" fill-opacity="1" d=" M21.68199920654297,3.374000072479248 C21.430999755859375,-0.7179999947547913 16.790000915527344,-1.3240000009536743 14.58899974822998,-4.459000110626221 C14.241000175476074,-4.953999996185303 13.470000267028809,-4.790999889373779 13.303999900817871,-4.209000110626221 C12.229999542236328,-0.46000000834465027 14.789999961853027,2.068000078201294 14.864999771118164,4.127999782562256 C11.65999984741211,4.479000091552734 9.10200023651123,4.793000221252441 5.785999774932861,5.026000022888184 C-1.0180000066757202,5.504000186920166 -10.613066673278809,1.3198357820510864 -16.85704231262207,-0.17258939146995544 C-21.9351806640625,-1.2892767190933228 -25.421260833740234,-0.7778470516204834 -28.03994369506836,-0.6738707423210144 C-29.131460189819336,-0.5685659050941467 -29.437942504882812,0.8525083065032959 -28.414098739624023,0.9738221764564514 C-11.663784980773926,2.3336615562438965 -0.718999981880188,15.402999877929688 7.909999847412109,11.843000411987305 C7.909999847412109,11.843000411987305 18.485000610351562,13.439000129699707 20.927000045776367,10.440999984741211 C22.031999588012695,9.083000183105469 21.92300033569336,7.296999931335449 21.68199920654297,3.374000072479248z"></path></g></g></g></svg>