<svg xmlns="http://www.w3.org/2000/svg" viewBox="0 0 37 59" width="37" height="59" preserveAspectRatio="xMidYMid meet" style="width: 100%; height: 100%; transform: translate3d(0px, 0px, 0px); content-visibility: visible;"><defs><clipPath id="__lottie_element_5045"><rect width="37" height="59" x="0" y="0"></rect></clipPath></defs><g clip-path="url(#__lottie_element_5045)"><g transform="matrix(1.8059998750686646,0,0,1.8059998750686646,-1.0994857549667358,10.057489395141602)" opacity="1" style="display: block;"><g opacity="1" transform="matrix(1,0,0,1,16.819000244140625,7.328999996185303)"><path fill="rgb(251,214,74)" fill-opacity="1" d=" M-3.0250000953674316,1.0149999856948853 C-1.5429999828338623,-0.12700000405311584 -0.5839999914169312,-1.7970000505447388 0.41999998688697815,-3.375999927520752 C0.574999988079071,-3.619999885559082 0.7940000295639038,-3.8949999809265137 1.0820000171661377,-3.8610000610351562 C1.2890000343322754,-3.8380000591278076 1.440000057220459,-3.6559998989105225 1.5549999475479126,-3.4809999465942383 C1.9390000104904175,-2.8959999084472656 2.180000066757202,-2.2170000076293945 2.25,-1.5199999809265137 C2.4149999618530273,-1.5119999647140503 2.5799999237060547,-1.5049999952316284 2.746000051498413,-1.496999979019165 C3.0250000953674316,-0.3400000035762787 2.700000047683716,0.9179999828338623 1.9989999532699585,1.878999948501587 C1.2979999780654907,2.8410000801086426 0.25,3.5160000324249268 -0.878000020980835,3.8949999809265137"></path></g></g><g transform="matrix(1.8059998750686646,0,0,1.8059998750686646,-1.0994857549667358,10.057489395141602)" opacity="1" style="display: block;"><g opacity="1" transform="matrix(1,0,0,1,6.35099983215332,4.76800012588501)"><path stroke-linecap="round" stroke-linejoin="round" fill-opacity="0" stroke="rgb(239,82,34)" stroke-opacity="1" stroke-width="1.006" d=" M-0.7940000295639038,2.253000020980835 C-0.7940000295639038,2.253000020980835 0.7940000295639038,0.11400000005960464 0.2770000100135803,-2.253000020980835"></path></g><g opacity="1" transform="matrix(1,0,0,1,5.21999979019165,4.771999835968018)"><path stroke-linecap="round" stroke-linejoin="round" fill-opacity="0" stroke="rgb(239,82,34)" stroke-opacity="1" stroke-width="1.006" d=" M0.3370000123977661,2.249000072479248 C0.3370000123977661,2.249000072479248 0.7720000147819519,-0.3799999952316284 -0.7710000276565552,-2.249000072479248"></path></g><g opacity="1" transform="matrix(1,0,0,1,4.035999774932861,5.275000095367432)"><path stroke-linecap="round" stroke-linejoin="round" fill-opacity="0" stroke="rgb(239,82,34)" stroke-opacity="1" stroke-width="1.006" d=" M1.5210000276565552,1.746999979019165 C1.5210000276565552,1.746999979019165 0.7049999833106995,-0.7910000085830688 -1.5210000276565552,-1.746999979019165"></path></g><g opacity="1" transform="matrix(1,0,0,1,11.864999771118164,9.977999687194824)"><path fill="rgb(251,214,74)" fill-opacity="1" d=" M-4.864999771118164,0 C-4.864999771118164,-2.36899995803833 -2.687000036239624,-4.289999961853027 -0.0010000000474974513,-4.289999961853027 C2.686000108718872,-4.289999961853027 4.864999771118164,-2.36899995803833 4.864999771118164,0 C4.864999771118164,2.36899995803833 2.686000108718872,4.289999961853027 -0.0010000000474974513,4.289999961853027 C-2.687000036239624,4.289999961853027 -4.864999771118164,2.36899995803833 -4.864999771118164,0z"></path></g><g opacity="1" transform="matrix(1,0,0,1,7.806000232696533,10.288999557495117)"><path fill="rgb(251,214,74)" fill-opacity="1" d=" M4.059000015258789,3.9790000915527344 C2.48799991607666,3.9790000915527344 -0.7670000195503235,3.549999952316284 -2.0999999046325684,1.6119999885559082 C-4.059000015258789,-1.2330000400543213 -3.3940000534057617,-3.9790000915527344 -2.5439999103546143,-3.9790000915527344 C-1.694000005722046,-3.9790000915527344 0.12300000339746475,-0.8650000095367432 4.059000015258789,-0.8650000095367432 C4.059000015258789,-0.8650000095367432 4.059000015258789,3.9790000915527344 4.059000015258789,3.9790000915527344z"></path></g></g><g transform="matrix(1.8059998750686646,0,0,1.8059998750686646,-1.0994857549667358,10.057489395141602)" opacity="1" style="display: block;"><g opacity="1" transform="matrix(1,0,0,1,9.407999992370605,15.567999839782715)"><path stroke-linecap="butt" stroke-linejoin="miter" fill-opacity="0" stroke-miterlimit="10" stroke="rgb(255,236,172)" stroke-opacity="1" stroke-width="1.006" d=" M0.37599998712539673,-1.6089999675750732 C0.37599998712539673,-1.6089999675750732 -0.37599998712539673,1.6089999675750732 -0.37599998712539673,1.6089999675750732"></path></g><g opacity="1" transform="matrix(1,0,0,1,9.784000396728516,13.958999633789062)"><path fill="rgb(251,214,74)" fill-opacity="1" d=" M-0.38199999928474426,1.6330000162124634 C-0.38199999928474426,1.6330000162124634 -0.38199999928474426,1.6330000162124634 -0.38199999928474426,1.6330000162124634 C0.23899999260902405,1.777999997138977 0.8669999837875366,1.3899999856948853 1.0119999647140503,0.7680000066757202 C1.0119999647140503,0.7680000066757202 1.246999979019165,-0.23999999463558197 1.246999979019165,-0.23999999463558197 C1.3919999599456787,-0.8610000014305115 1.003999948501587,-1.4869999885559082 0.382999986410141,-1.6330000162124634 C-0.23899999260902405,-1.777999997138977 -0.8669999837875366,-1.3880000114440918 -1.0119999647140503,-0.7670000195503235 C-1.0119999647140503,-0.7670000195503235 -1.246999979019165,0.23999999463558197 -1.246999979019165,0.23999999463558197 C-1.3919999599456787,0.8619999885559082 -1.003999948501587,1.4869999885559082 -0.38199999928474426,1.6330000162124634z"></path></g></g><g transform="matrix(1.4540717601776123,-1.071126103401184,1.071126103401184,1.4540717601776123,-16.265052795410156,25.77684783935547)" opacity="1" style="display: block;"><g opacity="1" transform="matrix(1,0,0,1,0,0)"><path stroke-linecap="round" stroke-linejoin="round" fill-opacity="0" stroke="rgb(255,236,172)" stroke-opacity="1" stroke-width="1.006" d=" M8.157999992370605,17.176000595092773 C8.157999992370605,17.176000595092773 11.458999633789062,17.176000595092773 11.458999633789062,17.176000595092773"></path></g></g><g transform="matrix(1.8059998750686646,0,0,1.8059998750686646,-1.0994857549667358,10.057489395141602)" opacity="1" style="display: block;"><g opacity="1" transform="matrix(1,0,0,1,12.708999633789062,15.567999839782715)"><path stroke-linecap="butt" stroke-linejoin="miter" fill-opacity="0" stroke-miterlimit="10" stroke="rgb(255,236,172)" stroke-opacity="1" stroke-width="1.006" d=" M0.37599998712539673,-1.6089999675750732 C0.37599998712539673,-1.6089999675750732 -0.37599998712539673,1.6089999675750732 -0.37599998712539673,1.6089999675750732"></path></g><g opacity="1" transform="matrix(1,0,0,1,13.083999633789062,13.958999633789062)"><path fill="rgb(251,214,74)" fill-opacity="1" d=" M-0.38199999928474426,1.6330000162124634 C-0.38199999928474426,1.6330000162124634 -0.38199999928474426,1.6330000162124634 -0.38199999928474426,1.6330000162124634 C0.23899999260902405,1.777999997138977 0.8659999966621399,1.3899999856948853 1.0119999647140503,0.7680000066757202 C1.0119999647140503,0.7680000066757202 1.246999979019165,-0.23999999463558197 1.246999979019165,-0.23999999463558197 C1.3919999599456787,-0.8610000014305115 1.003999948501587,-1.4869999885559082 0.382999986410141,-1.6330000162124634 C-0.23899999260902405,-1.777999997138977 -0.8669999837875366,-1.3880000114440918 -1.0119999647140503,-0.7670000195503235 C-1.0119999647140503,-0.7670000195503235 -1.246999979019165,0.23999999463558197 -1.246999979019165,0.23999999463558197 C-1.3919999599456787,0.8619999885559082 -1.003999948501587,1.4869999885559082 -0.38199999928474426,1.6330000162124634z"></path></g></g><g transform="matrix(1.4738236665725708,-1.0437812805175781,1.0437812805175781,1.4738236665725708,-14.88377571105957,28.620956420898438)" opacity="1" style="display: block;"><g opacity="1" transform="matrix(1,0,0,1,0,0)"><path stroke-linecap="round" stroke-linejoin="round" fill-opacity="0" stroke="rgb(255,236,172)" stroke-opacity="1" stroke-width="1.006" d=" M11.458999633789062,17.176000595092773 C11.458999633789062,17.176000595092773 14.758999824523926,17.176000595092773 14.758999824523926,17.176000595092773"></path></g></g><g transform="matrix(1.8059998750686646,0,0,1.8059998750686646,-1.0994857549667358,10.057489395141602)" opacity="1" style="display: block;"><g opacity="1" transform="matrix(1,0,0,1,12.270000457763672,4.060999870300293)"><path fill="rgb(141,124,142)" fill-opacity="1" d=" M-3.1559998989105225,-0.0010000000474974513 C-3.1559998989105225,-1.74399995803833 -1.7419999837875366,-3.1549999713897705 0.0010000000474974513,-3.1549999713897705 C1.7430000305175781,-3.1549999713897705 3.1559998989105225,-1.74399995803833 3.1559998989105225,-0.0010000000474974513 C3.1559998989105225,1.7419999837875366 1.7430000305175781,3.1549999713897705 0.0010000000474974513,3.1549999713897705 C-1.7419999837875366,3.1549999713897705 -3.1559998989105225,1.7419999837875366 -3.1559998989105225,-0.0010000000474974513z"></path></g><g opacity="1" transform="matrix(1,0,0,1,12.270000457763672,4.781000137329102)"><path fill="rgb(251,214,74)" fill-opacity="1" d=" M-2.871000051498413,0 C-2.871000051498413,-1.5859999656677246 -1.5850000381469727,-2.871000051498413 0,-2.871000051498413 C1.5859999656677246,-2.871000051498413 2.871000051498413,-1.5859999656677246 2.871000051498413,0 C2.871000051498413,1.5850000381469727 1.5859999656677246,2.871000051498413 0,2.871000051498413 C-1.5850000381469727,2.871000051498413 -2.871000051498413,1.5850000381469727 -2.871000051498413,0z"></path></g><g opacity="1" transform="matrix(1,0,0,1,13.692999839782715,1.4170000553131104)"><path fill="rgb(141,124,142)" fill-opacity="1" d=" M-1.7319999933242798,0 C-1.7319999933242798,-0.531000018119812 -0.9559999704360962,-0.9620000123977661 0.0010000000474974513,-0.9620000123977661 C0.9570000171661377,-0.9620000123977661 1.7319999933242798,-0.531000018119812 1.7319999933242798,0 C1.7319999933242798,0.5320000052452087 0.9570000171661377,0.9620000123977661 0.0010000000474974513,0.9620000123977661 C-0.9559999704360962,0.9620000123977661 -1.7319999933242798,0.5320000052452087 -1.7319999933242798,0z"></path></g><g opacity="1" transform="matrix(1,0,0,1,10.847999572753906,1.4170000553131104)"><path fill="rgb(141,124,142)" fill-opacity="1" d=" M-1.7330000400543213,0 C-1.7330000400543213,-0.531000018119812 -0.9570000171661377,-0.9620000123977661 0,-0.9620000123977661 C0.9570000171661377,-0.9620000123977661 1.7330000400543213,-0.531000018119812 1.7330000400543213,0 C1.7330000400543213,0.5320000052452087 0.9570000171661377,0.9620000123977661 0,0.9620000123977661 C-0.9570000171661377,0.9620000123977661 -1.7330000400543213,0.5320000052452087 -1.7330000400543213,0z"></path></g><g opacity="1" transform="matrix(1,0,0,1,13.206999778747559,6.473999977111816)"><path fill="rgb(255,236,172)" fill-opacity="1" d=" M2.618000030517578,1.1779999732971191 C2.618000030517578,1.1779999732971191 -0.26600000262260437,1.1779999732971191 -0.26600000262260437,1.1779999732971191 C-1.406999945640564,1.1779999732971191 -2.390000104904175,0.19300000369548798 -2.618000030517578,-1.1779999732971191 C-2.618000030517578,-1.1779999732971191 0.26600000262260437,-1.1779999732971191 0.26600000262260437,-1.1779999732971191 C1.406999945640564,-1.1779999732971191 2.390000104904175,-0.1940000057220459 2.618000030517578,1.1779999732971191z"></path></g><g opacity="1" transform="matrix(0.08211000263690948,0,0,0.11032000184059143,11.618000030517578,4.316999912261963)"><path fill="rgb(163,87,25)" fill-opacity="1" d=" M8.5,0 C8.5,0 8.5,0 8.5,0 C8.5,4.691150188446045 4.691150188446045,8.5 0,8.5 C0,8.5 0,8.5 0,8.5 C-4.691150188446045,8.5 -8.5,4.691150188446045 -8.5,0 C-8.5,0 -8.5,0 -8.5,0 C-8.5,-4.691150188446045 -4.691150188446045,-8.5 0,-8.5 C0,-8.5 0,-8.5 0,-8.5 C4.691150188446045,-8.5 8.5,-4.691150188446045 8.5,0z"></path></g><g opacity="1" transform="matrix(0.08211000263690948,0,0,0.11032000184059143,13.618000030517578,4.316999912261963)"><path fill="rgb(163,87,25)" fill-opacity="1" d=" M8.5,0 C8.5,0 8.5,0 8.5,0 C8.5,4.691150188446045 4.691150188446045,8.5 0,8.5 C0,8.5 0,8.5 0,8.5 C-4.691150188446045,8.5 -8.5,4.691150188446045 -8.5,0 C-8.5,0 -8.5,0 -8.5,0 C-8.5,-4.691150188446045 -4.691150188446045,-8.5 0,-8.5 C0,-8.5 0,-8.5 0,-8.5 C4.691150188446045,-8.5 8.5,-4.691150188446045 8.5,0z"></path></g></g><g transform="matrix(0.6472125053405762,1.6860461235046387,-1.6860461235046387,0.6472125053405762,20.39165496826172,3.2553749084472656)" opacity="1" style="display: block;"><g opacity="1" transform="matrix(1,0,0,1,7.172999858856201,9.559000015258789)"><path fill="rgb(251,214,74)" fill-opacity="1" d=" M1.5529999732971191,-2.8570001125335693 C0.07500000298023224,-1.7860000133514404 -1.6699999570846558,-0.9430000185966492 -3.3929998874664307,-0.2150000035762787 C-3.6589999198913574,-0.10199999809265137 -3.9660000801086426,0.0689999982714653 -3.9800000190734863,0.3580000102519989 C-3.990999937057495,0.5659999847412109 -3.8380000591278076,0.7450000047683716 -3.684000015258789,0.8870000243186951 C-3.1710000038146973,1.3630000352859497 -2.5420000553131104,1.7120000123977661 -1.8669999837875366,1.8969999551773071 C-1.8860000371932983,2.061000108718872 -1.906000018119812,2.2260000705718994 -1.9259999990463257,2.390000104904175 C-0.8320000171661377,2.8570001125335693 0.4650000035762787,2.744999885559082 1.5290000438690186,2.2119998931884766 C2.5929999351501465,1.6799999475479126 3.431999921798706,0.7590000033378601 3.992000102996826,-0.29100000858306885"></path></g></g></g></svg>