<svg xmlns="http://www.w3.org/2000/svg" viewBox="0 0 274 163" width="274" height="163" preserveAspectRatio="xMidYMid meet" style="width: 100%; height: 100%; transform: translate3d(0px, 0px, 0px); content-visibility: visible;"><defs><clipPath id="__lottie_element_204"><rect width="274" height="163" x="0" y="0"></rect></clipPath></defs><g clip-path="url(#__lottie_element_204)"><g transform="matrix(0.3330000042915344,0,0,0.3330000042915344,4.445023059844971,0.21403127908706665)" opacity="1" style="display: block;"><g opacity="1" transform="matrix(1,0,0,1,541.68798828125,368.65399169921875)"><path fill="rgb(0,131,125)" fill-opacity="1" d=" M-56.31999969482422,-106.66000366210938 C-70.48899841308594,-70.4749984741211 -66.96800231933594,-27.823999404907227 -47.05699920654297,5.547999858856201 C-44.88800048828125,9.182999610900879 -42.50699996948242,12.782999992370605 -41.41299819946289,16.871000289916992 C-40.6150016784668,19.856000900268555 -40.5369987487793,22.989999771118164 -39.82400131225586,25.996000289916992 C-37.97999954223633,33.77199935913086 -32.16899871826172,39.86899948120117 -27.868000030517578,46.60499954223633 C-21.25,56.96900177001953 -20.214000701904297,79.19499969482422 -28.42799949645996,89.09700012207031 C-33.82600021362305,95.60299682617188 -32.97600173950195,106.66000366210938 -24.422000885009766,106.66000366210938 C-24.422000885009766,106.66000366210938 19.29400062561035,106.66000366210938 19.29400062561035,106.66000366210938 C30.74799919128418,106.66000366210938 28.56599998474121,93.2770004272461 28.25200080871582,85.74199676513672 C27.743999481201172,73.54499816894531 27.881999969482422,61.617000579833984 34.236000061035156,50.584999084472656 C38.479000091552734,43.21500015258789 44.33700180053711,36.92900085449219 49.37900161743164,30.08099937438965 C61.86899948120117,13.11400032043457 69.30000305175781,-7.5289998054504395 70.48999786376953,-28.56399917602539"></path></g><g opacity="1" transform="matrix(1,0,0,1,354.3330078125,378.2640075683594)"><path fill="rgb(0,131,125)" fill-opacity="1" d=" M72.62100219726562,-52.42900085449219 C70.69300079345703,-26.496000289916992 53.44900131225586,5.997000217437744 26.851999282836914,13.010000228881836 C19.735000610351562,14.88700008392334 12.07699966430664,16.43899917602539 6.770999908447266,21.541000366210938 C-0.48500001430511475,28.520000457763672 -1.0440000295639038,40.01900100708008 1.0410000085830688,49.869998931884766 C2.9049999713897705,58.67900085449219 17.115999221801758,97.05000305175781 -1.628000020980835,97.05000305175781 C-1.628000020980835,97.05000305175781 -45.34600067138672,97.05000305175781 -45.34600067138672,97.05000305175781 C-53.902000427246094,97.05000305175781 -54.75,85.98600006103516 -49.34700012207031,79.48100280761719 C-45.2140007019043,74.50599670410156 -44.340999603271484,70.42500305175781 -44.340999603271484,64.63999938964844 C-44.3390007019043,11.347999572753906 -72.62100219726562,-49.323001861572266 -35.1510009765625,-97.05000305175781"></path></g><g opacity="1" transform="matrix(1,0,0,1,574.4749755859375,379.5830078125)"><path fill="rgb(51,185,157)" fill-opacity="1" d=" M-56.31999969482422,-106.66000366210938 C-70.48899841308594,-70.4739990234375 -66.96800231933594,-27.82200050354004 -47.055999755859375,5.550000190734863 C-44.88800048828125,9.184000015258789 -42.50699996948242,12.784000396728516 -41.41299819946289,16.87299919128418 C-40.6150016784668,19.857999801635742 -40.5369987487793,22.989999771118164 -39.82400131225586,25.996000289916992 C-37.97999954223633,33.77199935913086 -32.16899871826172,39.86899948120117 -27.868000030517578,46.60499954223633 C-21.25,56.970001220703125 -20.214000701904297,79.19599914550781 -28.42799949645996,89.0979995727539 C-33.82600021362305,95.60399627685547 -32.97600173950195,106.66000366210938 -24.422000885009766,106.66000366210938 C-24.422000885009766,106.66000366210938 19.29400062561035,106.66000366210938 19.29400062561035,106.66000366210938 C30.74799919128418,106.66000366210938 28.56599998474121,93.27799987792969 28.25200080871582,85.74199676513672 C27.743999481201172,73.54499816894531 27.881999969482422,61.617000579833984 34.236000061035156,50.584999084472656 C38.479000091552734,43.215999603271484 44.33700180053711,36.93000030517578 49.37900161743164,30.08099937438965 C61.86899948120117,13.11400032043457 69.30000305175781,-7.5289998054504395 70.48999786376953,-28.562999725341797"></path></g><g opacity="1" transform="matrix(1,0,0,1,396.8160095214844,229.5399932861328)"><path fill="rgb(51,185,157)" fill-opacity="1" d=" M18.05900001525879,183.4810028076172 C52.05500030517578,187.27000427246094 87.18399810791016,186.04299926757812 120.88600158691406,180.30999755859375 C159.08700561523438,173.81199645996094 194.70899963378906,154.73599243164062 230.61300659179688,140.2899932861328 C255.36000061035156,130.33299255371094 253.46099853515625,22.79400062561035 224.9980010986328,-10.927000045776367 C187.76400756835938,-55.040000915527344 124.76899719238281,-68.8759994506836 69.4729995727539,-62.465999603271484 C43.959999084472656,-59.507999420166016 18.829999923706055,-53.349998474121094 -5.190999984741211,-44.268001556396484 C-50.64500045776367,-27.08300018310547 -93.22200012207031,7.443999767303467 -138.6959991455078,-28.659000396728516 C-158.06500244140625,-44.0359992980957 -196.218994140625,47.22999954223633 -152.43499755859375,96.38300323486328 C-107.85199737548828,146.4340057373047 -48.09199905395508,176.10899353027344 18.05900001525879,183.4810028076172z"></path></g><g opacity="1" transform="matrix(1,0,0,1,553.2849731445312,479.3039855957031)"><path fill="rgb(235,230,204)" fill-opacity="1" d=" M7.4720001220703125,0.27799999713897705 C5.85099983215332,-3.739000082015991 2.325000047683716,-6.939000129699707 -1.312999963760376,-6.291999816894531 C-3.9860000610351562,-5.816999912261963 -6.2129998207092285,-3.372999906539917 -7.501999855041504,-0.4830000102519989 C-8.170000076293945,1.0149999856948853 -8.619999885559082,2.628999948501587 -8.951000213623047,4.288000106811523 C-7.734000205993652,5.90500020980835 -5.843999862670898,6.938000202178955 -3.2320001125335693,6.938000202178955 C-3.2320001125335693,6.938000202178955 8.951000213623047,6.938000202178955 8.951000213623047,6.938000202178955 C8.743000030517578,4.624000072479248 8.3149995803833,2.364000082015991 7.4720001220703125,0.27799999713897705z"></path></g><g opacity="1" transform="matrix(1,0,0,1,576.4450073242188,479.3039855957031)"><path fill="rgb(235,230,204)" fill-opacity="1" d=" M-1.0959999561309814,-6.291999816894531 C-3.7690000534057617,-5.815999984741211 -5.997000217437744,-3.372999906539917 -7.284999847412109,-0.4819999933242798 C-8.305999755859375,1.805999994277954 -8.821000099182129,4.35699987411499 -9.168000221252441,6.938000202178955 C-9.168000221252441,6.938000202178955 9.168000221252441,6.938000202178955 9.168000221252441,6.938000202178955 C8.960000038146973,4.624000072479248 8.531000137329102,2.364000082015991 7.688000202178955,0.27799999713897705 C6.067999839782715,-3.73799991607666 2.5420000553131104,-6.938000202178955 -1.0959999561309814,-6.291999816894531z"></path></g><g opacity="1" transform="matrix(1,0,0,1,445.04901123046875,344.0559997558594)"><path fill="rgb(255,201,77)" fill-opacity="1" d=" M17.915000915527344,71.02799987792969 C18.52899932861328,71.01399993896484 19.143999099731445,71.00299835205078 19.757999420166016,70.98500061035156 C21.283000946044922,70.94300079345703 22.80900001525879,70.88800048828125 24.333999633789062,70.8280029296875 C24.871000289916992,70.80599975585938 25.409000396728516,70.78700256347656 25.945999145507812,70.76300048828125 C27.545000076293945,70.69300079345703 29.142000198364258,70.60900115966797 30.73900032043457,70.51699829101562 C31.194000244140625,70.49199676513672 31.64900016784668,70.46700286865234 32.104000091552734,70.44000244140625 C33.770999908447266,70.33899688720703 35.4379997253418,70.22599792480469 37.104000091552734,70.10299682617188 C37.483001708984375,70.07499694824219 37.861000061035156,70.0459976196289 38.2400016784668,70.01599884033203 C39.97600173950195,69.88300323486328 41.70899963378906,69.73899841308594 43.439998626708984,69.58200073242188 C43.74100112915039,69.55400085449219 44.04100036621094,69.5260009765625 44.34299850463867,69.4990005493164 C46.143001556396484,69.33100128173828 47.941001892089844,69.1500015258789 49.73699951171875,68.95800018310547 C49.9630012512207,68.93299865722656 50.1870002746582,68.90699768066406 50.41299819946289,68.88200378417969 C52.27399826049805,68.6780014038086 54.13399887084961,68.46399688720703 55.98899841308594,68.23200225830078 C56.143001556396484,68.21299743652344 56.29600143432617,68.19200134277344 56.45000076293945,68.1729965209961 C58.37300109863281,67.93099975585938 60.29399871826172,67.677001953125 62.21099853515625,67.40599822998047 C62.28499984741211,67.3949966430664 62.358001708984375,67.38400268554688 62.43199920654297,67.375 C65.85099792480469,66.88899993896484 69.26200103759766,66.37100219726562 72.65299987792969,65.79399871826172 C78.40699768066406,64.81500244140625 84.0999984741211,63.547000885009766 89.74600219726562,62.055999755859375 C89.6989974975586,61.87900161743164 89.6449966430664,61.70399856567383 89.60299682617188,61.52399826049805 C88.88999938964844,58.518001556396484 88.80999755859375,55.38399887084961 88.01200103759766,52.400001525878906 C86.91899871826172,48.31100082397461 84.53700256347656,44.71099853515625 82.36799621582031,41.07600021362305 C62.457000732421875,7.704999923706055 58.9370002746582,-34.946998596191406 73.10600280761719,-71.13200378417969 C44.827999114990234,-43.840999603271484 46.11000061035156,-0.9340000152587891 51.13199996948242,27.639999389648438 C32.680999755859375,32.8489990234375 13.8100004196167,36.29499816894531 -5.330999851226807,36.749000549316406 C-18.95800018310547,37.071998596191406 -32.76100158691406,35.75600051879883 -46.0620002746582,32.625 C-42.79399871826172,11.092000007629395 -50.861000061035156,-7.291999816894531 -50.861000061035156,-7.291999816894531 C-52.617000579833984,16.32900047302246 -67.08300018310547,45.38399887084961 -89.74600219726562,55.678001403808594 C-84.18699645996094,57.5880012512207 -78.54399871826172,59.29600143432617 -72.83999633789062,60.84600067138672 C-72.84300231933594,60.85300064086914 -72.84500122070312,60.861000061035156 -72.8479995727539,60.86800003051758 C-71.43399810791016,61.25299835205078 -70.01300048828125,61.61899948120117 -68.58999633789062,61.98099899291992 C-68.3219985961914,62.04999923706055 -68.05699920654297,62.12300109863281 -67.78900146484375,62.189998626708984 C-65.625,62.73400115966797 -63.44900131225586,63.24700164794922 -61.266998291015625,63.7400016784668 C-60.63800048828125,63.88199996948242 -60.0099983215332,64.01699829101562 -59.380001068115234,64.15499877929688 C-57.652000427246094,64.53299713134766 -55.91899871826172,64.89399719238281 -54.180999755859375,65.23999786376953 C-53.62300109863281,65.3499984741211 -53.06800079345703,65.46700286865234 -52.50899887084961,65.5739974975586 C-50.305999755859375,65.99800109863281 -48.09199905395508,66.39800262451172 -45.87099838256836,66.77100372314453 C-45.38600158691406,66.85199737548828 -44.89799880981445,66.92500305175781 -44.40999984741211,67.00499725341797 C-42.5880012512207,67.30000305175781 -40.76100158691406,67.5780029296875 -38.928001403808594,67.83999633789062 C-38.29100036621094,67.93000030517578 -37.65599822998047,68.02200317382812 -37.01900100708008,68.10900115966797 C-34.74399948120117,68.41799926757812 -32.465999603271484,68.70800018310547 -30.174999237060547,68.96399688720703 C-28.097000122070312,69.19499969482422 -26.013999938964844,69.40799713134766 -23.92799949645996,69.60199737548828 C-23.14699935913086,69.67500305175781 -22.361000061035156,69.73300170898438 -21.57900047302246,69.80000305175781 C-20.277000427246094,69.91300201416016 -18.97800064086914,70.02899932861328 -17.673999786376953,70.12699890136719 C-16.690000534057617,70.19999694824219 -15.704000473022461,70.25800323486328 -14.720000267028809,70.3239974975586 C-13.619000434875488,70.39700317382812 -12.517999649047852,70.47599792480469 -11.414999961853027,70.54000091552734 C-10.303999900817871,70.60299682617188 -9.190999984741211,70.6500015258789 -8.079000473022461,70.7040023803711 C-7.105999946594238,70.7509994506836 -6.136000156402588,70.8030014038086 -5.163000106811523,70.84200286865234 C-3.9509999752044678,70.88999938964844 -2.739000082015991,70.92500305175781 -1.5260000228881836,70.96099853515625 C-0.6549999713897705,70.98600006103516 0.2160000056028366,71.01599884033203 1.0859999656677246,71.03600311279297 C2.384000062942505,71.06500244140625 3.681999921798706,71.08200073242188 4.980000019073486,71.09700012207031 C5.76200008392334,71.10700225830078 6.541999816894531,71.12100219726562 7.322999954223633,71.125 C8.704000473022461,71.13300323486328 10.086000442504883,71.12699890136719 11.468000411987305,71.12000274658203 C12.15999984741211,71.11599731445312 12.852999687194824,71.11499786376953 13.545999526977539,71.10700225830078 C15.003000259399414,71.09100341796875 16.458999633789062,71.06099700927734 17.915000915527344,71.02799987792969z"></path></g><g opacity="1" transform="matrix(1,0,0,1,493.4419860839844,284.5369873046875)"><path fill="rgb(0,131,125)" fill-opacity="1" d=" M22.902999877929688,-27.3799991607666 C1.86899995803833,-14.708000183105469 -13.675000190734863,6.756999969482422 -19.15399932861328,30.69300079345703 C-19.15399932861328,30.69300079345703 -22.902999877929688,9.602999687194824 -13.267999649047852,-7.261000156402588 C0.11599999666213989,-30.691999435424805 22.902999877929688,-27.3799991607666 22.902999877929688,-27.3799991607666z"></path></g></g><g transform="matrix(0.3330000042915344,0,0,0.3330000042915344,4.445023059844971,0.21403636038303375)" opacity="1" style="display: block;"><g opacity="1" transform="matrix(1,0,0,1,396.8160095214844,229.5399932861328)"><path fill="rgb(51,185,157)" fill-opacity="1" d=" M230.61300659179688,140.2899932861328 C255.36000061035156,130.33299255371094 280.3059997558594,129.9239959716797 306.1340026855469,136.46800231933594 C326.92999267578125,141.73699951171875 347.3370056152344,154.05099487304688 356.0740051269531,174.46299743652344 C366.2959899902344,198.35000610351562 340.52301025390625,212.3470001220703 320.635986328125,202.0959930419922 C314.7439880371094,199.05799865722656 308.8059997558594,195.79299926757812 303.8970031738281,191.40499877929688 C302.2049865722656,189.89300537109375 299.5140075683594,191.3249969482422 299.8909912109375,193.56199645996094 C301.45001220703125,202.822998046875 310.0069885253906,211.26499938964844 317.4159851074219,215.76699829101562 C339.6700134277344,229.2899932861328 375.1860046386719,220.83399963378906 387.4530029296875,197.51199340820312 C392.50201416015625,187.91099548339844 393.3370056152344,176.53599548339844 391.7919921875,165.7969970703125 C385.9159851074219,124.947998046875 347.9800109863281,105.93699645996094 317.9209899902344,83.83499908447266 C282.1419982910156,57.5260009765625 253.46099853515625,22.79400062561035 224.9980010986328,-10.927000045776367 C187.76400756835938,-55.040000915527344 194.70899963378906,154.73599243164062 230.61300659179688,140.2899932861328z"></path></g><g opacity="1" transform="matrix(1,0,0,1,686.7349853515625,364.4049987792969)"><path fill="rgb(255,201,77)" fill-opacity="1" d=" M16.214000701904297,1.6030000448226929 C25.739999771118164,4.015999794006348 35.180999755859375,7.914000034332275 43.459999084472656,13.385000228881836 C11.807999610900879,-10.645000457763672 -41.77199935913086,-13.385000228881836 -41.77199935913086,-13.385000228881836 C-42.03200149536133,-8.772000312805176 -42.611000061035156,-4.179999828338623 -43.459999084472656,0.3619999885559082 C-23.89299964904785,-4.366000175476074 -4.11299991607666,-3.546999931335449 16.214000701904297,1.6030000448226929z"></path></g></g><g transform="matrix(0.3330000042915344,0,0,0.3330000042915344,4.445023059844971,0.21403636038303375)" opacity="1" style="display: block;"><g opacity="1" transform="matrix(1,0,0,1,396.8160095214844,229.5399932861328)"><path fill="rgb(51,185,157)" fill-opacity="1" d=" M-138.6959991455078,-28.659000396728516 C-158.06500244140625,-44.0359992980957 -170.927001953125,-61.86600112915039 -182.45399475097656,-83.4209976196289 C-210.73199462890625,-136.3040008544922 -246.7689971923828,-197.45700073242188 -290.47100830078125,-219.2209930419922 C-312.1520080566406,-226.83799743652344 -337.1520080566406,-188.83799743652344 -310.5159912109375,-168.61900329589844 C-303.4360046386719,-171.2779998779297 -293.19500732421875,-159.68299865722656 -288.4590148925781,-154.9149932861328 C-281.7950134277344,-148.20599365234375 -276.0669860839844,-140.59300231933594 -271.1570129394531,-132.5240020751953 C-260.37799072265625,-114.80999755859375 -253.2429962158203,-95.16999816894531 -245.75799560546875,-75.83100128173828 C-222.2779998779297,-15.15999984741211 -196.218994140625,47.22999954223633 -152.43499755859375,96.38300323486328 C-107.85199737548828,146.4340057373047 -93.22200012207031,7.443999767303467 -138.6959991455078,-28.659000396728516z"></path></g><g opacity="1" transform="matrix(1,0,0,1,195,203.0959930419922)"><path fill="rgb(255,201,77)" fill-opacity="1" d=" M-16.027000427246094,-37.935001373291016 C-33.137001037597656,-80.40899658203125 -53.72999954223633,-124.44400024414062 -91.69400024414062,-150.04600524902344 C-91.69400024414062,-150.04600524902344 -112.83699798583984,-157.8939971923828 -108.70099639892578,-142.1750030517578 C-101.62100219726562,-144.83399963378906 -91.37999725341797,-133.24000549316406 -86.64199829101562,-128.4709930419922 C-79.97899627685547,-121.76300048828125 -74.25199890136719,-114.1500015258789 -69.34100341796875,-106.08100128173828 C-58.5620002746582,-88.36699676513672 -51.426998138427734,-68.72699737548828 -43.94300079345703,-49.38800048828125 C-20.46299934387207,11.282999992370605 5.5970001220703125,73.6719970703125 49.380001068115234,122.82599639892578 C58.176998138427734,132.7030029296875 67.57499694824219,141.77200317382812 77.48600006103516,150.04600524902344 C77.48600006103516,150.04600524902344 108.70099639892578,120.41000366210938 108.70099639892578,120.41000366210938 C47.78099822998047,82.98200225830078 10.20199966430664,27.16900062561035 -16.027000427246094,-37.935001373291016z"></path></g></g><g transform="matrix(0.3330000042915344,0,0,0.3330000042915344,4.445023059844971,0.21403636038303375)" opacity="1" style="display: block;"><g opacity="1" transform="matrix(1,0,0,1,396.8160095214844,229.5399932861328)"><path fill="rgb(51,185,157)" fill-opacity="1" d=" M-290.47100830078125,-219.2209930419922 C-301.6130065917969,-224.77000427246094 -317.1369934082031,-229.2899932861328 -331.4169921875,-229.18600463867188 C-340.3810119628906,-229.1219940185547 -349.64898681640625,-227.01800537109375 -357.56500244140625,-222.75399780273438 C-366.50201416015625,-217.94200134277344 -372.32000732421875,-209.85499572753906 -377.8399963378906,-201.6820068359375 C-378.0639953613281,-201.3509979248047 -378.29400634765625,-201.01400756835938 -378.61199951171875,-200.7729949951172 C-379.12701416015625,-200.3820037841797 -379.79901123046875,-200.29299926757812 -380.4289855957031,-200.1540069580078 C-393.3370056152344,-197.3000030517578 -387.4100036621094,-181.83999633789062 -381.25,-175.26100158691406 C-364.2049865722656,-157.0590057373047 -331.3819885253906,-160.78399658203125 -310.5159912109375,-168.61900329589844 C-303.4360046386719,-171.2779998779297 -264.1520080566406,-186.33799743652344 -290.47100830078125,-219.2209930419922z"></path></g><g opacity="1" transform="matrix(0.5044900178909302,0,0,0.5044900178909302,60.92599868774414,23.742000579833984)"><path fill="rgb(0,131,126)" fill-opacity="1" d=" M15.5,0 C15.5,0 15.5,0 15.5,0 C15.5,8.554450035095215 8.554450035095215,15.5 0,15.5 C0,15.5 0,15.5 0,15.5 C-8.554450035095215,15.5 -15.5,8.554450035095215 -15.5,0 C-15.5,0 -15.5,0 -15.5,0 C-15.5,-8.554450035095215 -8.554450035095215,-15.5 0,-15.5 C0,-15.5 0,-15.5 0,-15.5 C8.554450035095215,-15.5 15.5,-8.554450035095215 15.5,0z"></path></g><g opacity="1" transform="matrix(0.5044900178909302,0,0,0.5044900178909302,31.926000595092773,22.742000579833984)"><path fill="rgb(0,131,126)" fill-opacity="1" d=" M15.5,0 C15.5,0 15.5,0 15.5,0 C15.5,8.554450035095215 8.554450035095215,15.5 0,15.5 C0,15.5 0,15.5 0,15.5 C-8.554450035095215,15.5 -15.5,8.554450035095215 -15.5,0 C-15.5,0 -15.5,0 -15.5,0 C-15.5,-8.554450035095215 -8.554450035095215,-15.5 0,-15.5 C0,-15.5 0,-15.5 0,-15.5 C8.554450035095215,-15.5 15.5,-8.554450035095215 15.5,0z"></path></g><g opacity="1" transform="matrix(1,0,0,1,30.954999923706055,42.018001556396484)"><path fill="rgb(0,131,125)" fill-opacity="1" d=" M-3.194000005722046,-0.0010000000474974513 C-3.194000005722046,-1.3609999418258667 -1.7640000581741333,-2.4639999866485596 0,-2.4639999866485596 C1.7640000581741333,-2.4639999866485596 3.194000005722046,-1.3609999418258667 3.194000005722046,-0.0010000000474974513 C3.194000005722046,1.3600000143051147 1.7640000581741333,2.4639999866485596 0,2.4639999866485596 C-1.7640000581741333,2.4639999866485596 -3.194000005722046,1.3600000143051147 -3.194000005722046,-0.0010000000474974513z"></path></g><g opacity="1" transform="matrix(1,0,0,1,44.665000915527344,43.111000061035156)"><path fill="rgb(0,131,125)" fill-opacity="1" d=" M-3.194000005722046,0 C-3.194000005722046,-1.3609999418258667 -1.7630000114440918,-2.4639999866485596 0,-2.4639999866485596 C1.7649999856948853,-2.4639999866485596 3.194000005722046,-1.3609999418258667 3.194000005722046,0 C3.194000005722046,1.3600000143051147 1.7649999856948853,2.4639999866485596 0,2.4639999866485596 C-1.7630000114440918,2.4639999866485596 -3.194000005722046,1.3600000143051147 -3.194000005722046,0z"></path></g><g opacity="1" transform="matrix(1,0,0,1,50.042999267578125,53.874000549316406)"><path stroke-linecap="round" stroke-linejoin="round" fill-opacity="0" stroke="rgb(193,66,60)" stroke-opacity="1" stroke-width="5.46" d=" M-30.39299964904785,-5.801000118255615 C-24.8799991607666,2.328000068664551 0.12099999934434891,7.328000068664551 16.89299964904785,-2.6419999599456787"></path></g><g opacity="1" transform="matrix(1,0,0,1,94.7969970703125,41.05099868774414)"><path stroke-linecap="round" stroke-linejoin="round" fill-opacity="0" stroke="rgb(0,131,125)" stroke-opacity="1" stroke-width="5.46" d=" M-25.691999435424805,-0.375 C-22.739999771118164,-0.6019999980926514 -19.711000442504883,0.5 -17.594999313354492,2.569999933242798 C-15.477999687194824,4.640999794006348 -14.307999610900879,7.644999980926514 -14.468999862670898,10.60200023651123"></path></g></g><g transform="matrix(0.3330000042915344,0,0,0.3330000042915344,4.445023059844971,0.21403636038303375)" opacity="1" style="display: block;"><g opacity="1" transform="matrix(1,0,0,1,321.5669860839844,389.1929931640625)"><path fill="rgb(51,185,157)" fill-opacity="1" d=" M72.62100219726562,-52.43000030517578 C70.69300079345703,-26.496999740600586 53.44900131225586,5.998000144958496 26.851999282836914,13.01099967956543 C19.735000610351562,14.88700008392334 12.076000213623047,16.440000534057617 6.770999908447266,21.54199981689453 C-0.4860000014305115,28.520000457763672 -1.0440000295639038,40.02000045776367 1.0410000085830688,49.869998931884766 C2.9049999713897705,58.67900085449219 17.115999221801758,97.04900360107422 -1.628000020980835,97.04900360107422 C-1.628000020980835,97.04900360107422 -45.34600067138672,97.04900360107422 -45.34600067138672,97.04900360107422 C-53.902000427246094,97.04900360107422 -54.75,85.98600006103516 -49.34700012207031,79.48100280761719 C-45.2140007019043,74.50599670410156 -44.340999603271484,70.42500305175781 -44.340999603271484,64.63999938964844 C-44.3390007019043,11.348999977111816 -72.62100219726562,-49.321998596191406 -35.1510009765625,-97.04900360107422"></path></g><g opacity="1" transform="matrix(1,0,0,1,279.4549865722656,479.3039855957031)"><path fill="rgb(235,230,204)" fill-opacity="1" d=" M7.4710001945495605,0.27799999713897705 C5.849999904632568,-3.739000082015991 2.325000047683716,-6.939000129699707 -1.312999963760376,-6.291999816894531 C-3.9860000610351562,-5.816999912261963 -6.214000225067139,-3.372999906539917 -7.501999855041504,-0.4830000102519989 C-8.170999526977539,1.0149999856948853 -8.619999885559082,2.628999948501587 -8.951000213623047,4.288000106811523 C-7.734000205993652,5.90500020980835 -5.843999862670898,6.938000202178955 -3.2320001125335693,6.938000202178955 C-3.2320001125335693,6.938000202178955 8.951000213623047,6.938000202178955 8.951000213623047,6.938000202178955 C8.743000030517578,4.624000072479248 8.314000129699707,2.364000082015991 7.4710001945495605,0.27799999713897705z"></path></g><g opacity="1" transform="matrix(1,0,0,1,302.614013671875,479.3039855957031)"><path fill="rgb(235,230,204)" fill-opacity="1" d=" M-1.0950000286102295,-6.291999816894531 C-3.7690000534057617,-5.815999984741211 -5.995999813079834,-3.372999906539917 -7.284999847412109,-0.4819999933242798 C-8.305999755859375,1.805999994277954 -8.819999694824219,4.35699987411499 -9.168000221252441,6.938000202178955 C-9.168000221252441,6.938000202178955 9.168000221252441,6.938000202178955 9.168000221252441,6.938000202178955 C8.960000038146973,4.624000072479248 8.529999732971191,2.364000082015991 7.688000202178955,0.27799999713897705 C6.066999912261963,-3.73799991607666 2.5429999828338623,-6.938000202178955 -1.0950000286102295,-6.291999816894531z"></path></g><g opacity="1" transform="matrix(1,0,0,1,267.91900634765625,320.33599853515625)"><path fill="rgb(255,201,77)" fill-opacity="1" d=" M-18.49799919128418,11.072999954223633 C-12.82699966430664,17.094999313354492 -6.928999900817871,22.804000854492188 -0.8180000185966492,28.19300079345703 C-0.07999999821186066,8.333999633789062 4.835000038146973,-10.789999961853027 18.49799919128418,-28.19300079345703 C18.49799919128418,-28.19300079345703 -0.8069999814033508,-16.763999938964844 -18.49799919128418,11.072999954223633z"></path></g></g><g transform="matrix(0.3330000042915344,0,0,0.3330000042915344,120.21580505371094,85.51398468017578)" opacity="1" style="display: block;"><g opacity="1" transform="matrix(1,0,0,1,14.914999961853027,21.118999481201172)"><path fill="rgb(255,201,77)" fill-opacity="1" d=" M-14.666000366210938,16.864999771118164 C-14.666000366210938,16.864999771118164 -14.666000366210938,-16.864999771118164 -14.666000366210938,-16.864999771118164 C-14.666000366210938,-16.864999771118164 -5.309000015258789,-16.864999771118164 -5.309000015258789,-16.864999771118164 C-2.1419999599456787,-16.864999771118164 0.6830000281333923,-16.510000228881836 3.1619999408721924,-15.803000450134277 C5.638000011444092,-15.095000267028809 7.728000164031982,-14.032999992370605 9.430999755859375,-12.616000175476074 C11.133000373840332,-11.199999809265137 12.430999755859375,-9.439000129699707 13.324999809265137,-7.333000183105469 C14.217000007629395,-5.224999904632568 14.666000366210938,-2.7890000343322754 14.666000366210938,-0.026000000536441803 C14.666000366210938,2.739000082015991 14.217000007629395,5.176000118255615 13.324999809265137,7.281000137329102 C12.430999755859375,9.390000343322754 11.133000373840332,11.151000022888184 9.430999755859375,12.565999984741211 C7.728000164031982,13.982999801635742 5.638000011444092,15.053999900817871 3.1619999408721924,15.779000282287598 C0.6830000281333923,16.503999710083008 -2.1419999599456787,16.864999771118164 -5.309000015258789,16.864999771118164 C-5.309000015258789,16.864999771118164 -14.666000366210938,16.864999771118164 -14.666000366210938,16.864999771118164z M-3.8940000534057617,7.256999969482422 C-1.3650000095367432,7.256999969482422 0.5889999866485596,6.6579999923706055 1.972000002861023,5.460999965667725 C3.3550000190734863,4.264999866485596 4.045000076293945,2.436000108718872 4.045000076293945,-0.026000000536441803 C4.045000076293945,-2.4860000610351562 3.3550000190734863,-4.306000232696533 1.972000002861023,-5.486999988555908 C0.5889999866485596,-6.665999889373779 -1.3650000095367432,-7.256999969482422 -3.8940000534057617,-7.256999969482422 C-3.8940000534057617,-7.256999969482422 -3.8940000534057617,7.256999969482422 -3.8940000534057617,7.256999969482422z"></path></g><g opacity="1" transform="matrix(1,0,0,1,36.9379997253418,20.365999221801758)"><path fill="rgb(255,201,77)" fill-opacity="1" d=" M-4.948999881744385,-14.605999946594238 C-4.948999881744385,-14.605999946594238 4.948999881744385,-14.605999946594238 4.948999881744385,-14.605999946594238 C4.948999881744385,-14.605999946594238 4.948999881744385,14.605999946594238 4.948999881744385,14.605999946594238 C4.948999881744385,14.605999946594238 -4.948999881744385,14.605999946594238 -4.948999881744385,14.605999946594238 C-4.948999881744385,14.605999946594238 -4.948999881744385,-14.605999946594238 -4.948999881744385,-14.605999946594238z"></path></g><g opacity="1" transform="matrix(1,0,0,1,57.39099884033203,21.871999740600586)"><path fill="rgb(255,201,77)" fill-opacity="1" d=" M-12.437999725341797,-14.605999946594238 C-12.437999725341797,-14.605999946594238 -4.7729997634887695,-14.605999946594238 -4.7729997634887695,-14.605999946594238 C-4.7729997634887695,-14.605999946594238 3.2850000858306885,-3.3499999046325684 3.2850000858306885,-3.3499999046325684 C3.2850000858306885,-3.3499999046325684 3.2850000858306885,-14.605999946594238 3.2850000858306885,-14.605999946594238 C3.2850000858306885,-14.605999946594238 12.437999725341797,-14.605999946594238 12.437999725341797,-14.605999946594238 C12.437999725341797,-14.605999946594238 12.437999725341797,14.605999946594238 12.437999725341797,14.605999946594238 C12.437999725341797,14.605999946594238 4.730999946594238,14.605999946594238 4.730999946594238,14.605999946594238 C4.730999946594238,14.605999946594238 -3.2850000858306885,3.3940000534057617 -3.2850000858306885,3.3940000534057617 C-3.2850000858306885,3.3940000534057617 -3.2850000858306885,14.605999946594238 -3.2850000858306885,14.605999946594238 C-3.2850000858306885,14.605999946594238 -12.437999725341797,14.605999946594238 -12.437999725341797,14.605999946594238 C-12.437999725341797,14.605999946594238 -12.437999725341797,-14.605999946594238 -12.437999725341797,-14.605999946594238z"></path></g><g opacity="1" transform="matrix(1,0,0,1,87.56600189208984,20.38800048828125)"><path fill="rgb(255,201,77)" fill-opacity="1" d=" M-15.329999923706055,0 C-15.329999923706055,-2.1029999256134033 -14.928999900817871,-4.0879998207092285 -14.125,-5.955999851226807 C-13.321999549865723,-7.823999881744385 -12.227999687194824,-9.45199966430664 -10.840999603271484,-10.83899974822998 C-9.454000473022461,-12.22599983215332 -7.826000213623047,-13.319999694824219 -5.956999778747559,-14.12399959564209 C-4.0879998207092285,-14.927000045776367 -2.1029999256134033,-15.329000473022461 0,-15.329000473022461 C2.1019999980926514,-15.329000473022461 4.0879998207092285,-14.927000045776367 5.956999778747559,-14.12399959564209 C7.823999881744385,-13.319999694824219 9.45199966430664,-12.22599983215332 10.83899974822998,-10.83899974822998 C12.225000381469727,-9.45199966430664 13.321000099182129,-7.823999881744385 14.125,-5.955999851226807 C14.928000450134277,-4.0879998207092285 15.329999923706055,-2.1029999256134033 15.329999923706055,0 C15.329999923706055,2.1029999256134033 14.928000450134277,4.0879998207092285 14.125,5.956999778747559 C13.321000099182129,7.824999809265137 12.225000381469727,9.454000473022461 10.83899974822998,10.83899974822998 C9.45199966430664,12.22700023651123 7.823999881744385,13.321999549865723 5.956999778747559,14.125 C4.0879998207092285,14.927000045776367 2.1019999980926514,15.329000473022461 0,15.329000473022461 C-2.1029999256134033,15.329000473022461 -4.0879998207092285,14.927000045776367 -5.956999778747559,14.125 C-7.826000213623047,13.321999549865723 -9.454000473022461,12.22700023651123 -10.840999603271484,10.83899974822998 C-12.227999687194824,9.454000473022461 -13.321999549865723,7.824999809265137 -14.125,5.956999778747559 C-14.928999900817871,4.0879998207092285 -15.329999923706055,2.1029999256134033 -15.329999923706055,0z M-6.13100004196167,0 C-6.13100004196167,0.8479999899864197 -5.9710001945495605,1.6430000066757202 -5.64900016784668,2.388000011444092 C-5.328000068664551,3.13100004196167 -4.890999794006348,3.7820000648498535 -4.335000038146973,4.335999965667725 C-3.7809998989105225,4.892000198364258 -3.131999969482422,5.328999996185303 -2.388000011444092,5.64900016784668 C-1.6430000066757202,5.9720001220703125 -0.8479999899864197,6.131999969482422 0,6.131999969482422 C0.8460000157356262,6.131999969482422 1.6419999599456787,5.9720001220703125 2.385999917984009,5.64900016784668 C3.13100004196167,5.328999996185303 3.7799999713897705,4.892000198364258 4.335999965667725,4.335999965667725 C4.888999938964844,3.7820000648498535 5.327000141143799,3.13100004196167 5.64900016784668,2.388000011444092 C5.9710001945495605,1.6430000066757202 6.13100004196167,0.8479999899864197 6.13100004196167,0 C6.13100004196167,-0.8460000157356262 5.9710001945495605,-1.6430000066757202 5.64900016784668,-2.388000011444092 C5.327000141143799,-3.13100004196167 4.888999938964844,-3.7799999713897705 4.335999965667725,-4.335999965667725 C3.7799999713897705,-4.889999866485596 3.13100004196167,-5.327000141143799 2.385999917984009,-5.64900016784668 C1.6419999599456787,-5.9710001945495605 0.8460000157356262,-6.13100004196167 0,-6.13100004196167 C-0.8479999899864197,-6.13100004196167 -1.6430000066757202,-5.9710001945495605 -2.388000011444092,-5.64900016784668 C-3.131999969482422,-5.327000141143799 -3.7809998989105225,-4.889999866485596 -4.335000038146973,-4.335999965667725 C-4.890999794006348,-3.7799999713897705 -5.328000068664551,-3.13100004196167 -5.64900016784668,-2.388000011444092 C-5.9710001945495605,-1.6430000066757202 -6.13100004196167,-0.8460000157356262 -6.13100004196167,0z"></path></g><g opacity="1" transform="matrix(1,0,0,1,111.08300018310547,20.364999771118164)"><path fill="rgb(255,201,77)" fill-opacity="1" d=" M-5.781000137329102,-3.6559998989105225 C-5.781000137329102,-3.6559998989105225 5.781000137329102,-3.6559998989105225 5.781000137329102,-3.6559998989105225 C5.781000137329102,-3.6559998989105225 5.781000137329102,3.6559998989105225 5.781000137329102,3.6559998989105225 C5.781000137329102,3.6559998989105225 -5.781000137329102,3.6559998989105225 -5.781000137329102,3.6559998989105225 C-5.781000137329102,3.6559998989105225 -5.781000137329102,-3.6559998989105225 -5.781000137329102,-3.6559998989105225z"></path></g><g opacity="1" transform="matrix(1,0,0,1,133.72799682617188,21.118999481201172)"><path fill="rgb(255,201,77)" fill-opacity="1" d=" M-14.236000061035156,-16.864999771118164 C-14.236000061035156,-16.864999771118164 -2.6040000915527344,-16.864999771118164 -2.6040000915527344,-16.864999771118164 C-0.4449999928474426,-16.864999771118164 1.5499999523162842,-16.577999114990234 3.388000011444092,-16.003999710083008 C5.223999977111816,-15.430999755859375 6.817999839782715,-14.58899974822998 8.168000221252441,-13.477999687194824 C9.515999794006348,-12.36400032043457 10.569000244140625,-10.98900032043457 11.32800006866455,-9.354999542236328 C12.086999893188477,-7.718999862670898 12.467000007629395,-5.8420000076293945 12.467000007629395,-3.7179999351501465 C12.467000007629395,-2.0309998989105225 12.229999542236328,-0.597000002861023 11.758999824523926,0.5820000171661377 C11.28600025177002,1.7630000114440918 10.762999534606934,2.740000009536743 10.189000129699707,3.515000104904175 C9.515999794006348,4.392000198364258 8.758000373840332,5.133999824523926 7.914999961853027,5.739999771118164 C7.914999961853027,5.739999771118164 14.236000061035156,16.864999771118164 14.236000061035156,16.864999771118164 C14.236000061035156,16.864999771118164 1.593999981880188,16.864999771118164 1.593999981880188,16.864999771118164 C1.593999981880188,16.864999771118164 -3.4639999866485596,8.317999839782715 -3.4639999866485596,8.317999839782715 C-3.4639999866485596,8.317999839782715 -3.4639999866485596,16.864999771118164 -3.4639999866485596,16.864999771118164 C-3.4639999866485596,16.864999771118164 -14.236000061035156,16.864999771118164 -14.236000061035156,16.864999771118164 C-14.236000061035156,16.864999771118164 -14.236000061035156,-16.864999771118164 -14.236000061035156,-16.864999771118164z M-3.4639999866485596,0.4909999966621399 C-3.4639999866485596,0.4909999966621399 -2.7929999828338623,0.4909999966621399 -2.7929999828338623,0.4909999966621399 C-1.2480000257492065,0.4909999966621399 0.061000000685453415,0.14800000190734863 1.1390000581741333,-0.5450000166893005 C2.2160000801086426,-1.2350000143051147 2.756999969482422,-2.3949999809265137 2.756999969482422,-4.020999908447266 C2.756999969482422,-5.644999980926514 2.2160000801086426,-6.804999828338623 1.1390000581741333,-7.495999813079834 C0.061000000685453415,-8.185999870300293 -1.2480000257492065,-8.531000137329102 -2.7929999828338623,-8.531000137329102 C-2.7929999828338623,-8.531000137329102 -3.4639999866485596,-8.531000137329102 -3.4639999866485596,-8.531000137329102 C-3.4639999866485596,-8.531000137329102 -3.4639999866485596,0.4909999966621399 -3.4639999866485596,0.4909999966621399z"></path></g><g opacity="1" transform="matrix(1,0,0,1,193.5330047607422,20.365999221801758)"><path fill="rgb(255,201,77)" fill-opacity="1" d=" M-15.307000160217285,-14.605999946594238 C-15.307000160217285,-14.605999946594238 -7.598999977111816,-14.605999946594238 -7.598999977111816,-14.605999946594238 C-7.598999977111816,-14.605999946594238 0.02199999988079071,-3.3940000534057617 0.02199999988079071,-3.3940000534057617 C0.02199999988079071,-3.3940000534057617 7.598999977111816,-14.605999946594238 7.598999977111816,-14.605999946594238 C7.598999977111816,-14.605999946594238 15.307000160217285,-14.605999946594238 15.307000160217285,-14.605999946594238 C15.307000160217285,-14.605999946594238 15.307000160217285,14.605999946594238 15.307000160217285,14.605999946594238 C15.307000160217285,14.605999946594238 5.978000164031982,14.605999946594238 5.978000164031982,14.605999946594238 C5.978000164031982,14.605999946594238 5.978000164031982,4.09499979019165 5.978000164031982,4.09499979019165 C5.978000164031982,4.09499979019165 0.02199999988079071,12.854999542236328 0.02199999988079071,12.854999542236328 C0.02199999988079071,12.854999542236328 -5.979000091552734,4.09499979019165 -5.979000091552734,4.09499979019165 C-5.979000091552734,4.09499979019165 -5.979000091552734,14.605999946594238 -5.979000091552734,14.605999946594238 C-5.979000091552734,14.605999946594238 -15.307000160217285,14.605999946594238 -15.307000160217285,14.605999946594238 C-15.307000160217285,14.605999946594238 -15.307000160217285,-14.605999946594238 -15.307000160217285,-14.605999946594238z"></path></g><g opacity="1" transform="matrix(1,0,0,1,244.9709930419922,20.364999771118164)"><path fill="rgb(255,201,77)" fill-opacity="1" d=" M-4.992000102996826,-14.604999542236328 C-4.992000102996826,-14.604999542236328 4.992000102996826,-14.604999542236328 4.992000102996826,-14.604999542236328 C4.992000102996826,-14.604999542236328 3.505000114440918,5.979000091552734 3.505000114440918,5.979000091552734 C3.505000114440918,5.979000091552734 -3.503000020980835,5.979000091552734 -3.503000020980835,5.979000091552734 C-3.503000020980835,5.979000091552734 -4.992000102996826,-14.604999542236328 -4.992000102996826,-14.604999542236328z M-4.684000015258789,7.291999816894531 C-4.684000015258789,7.291999816894531 4.688000202178955,7.291999816894531 4.688000202178955,7.291999816894531 C4.688000202178955,7.291999816894531 4.688000202178955,14.604999542236328 4.688000202178955,14.604999542236328 C4.688000202178955,14.604999542236328 -4.684000015258789,14.604999542236328 -4.684000015258789,14.604999542236328 C-4.684000015258789,14.604999542236328 -4.684000015258789,7.291999816894531 -4.684000015258789,7.291999816894531z"></path></g><g opacity="1" transform="matrix(1,0,0,1,162.98599243164062,21.871999740600586)"><path fill="rgb(255,201,77)" fill-opacity="1" d=" M-3.503999948501587,-14.605999946594238 C-3.503999948501587,-14.605999946594238 3.502000093460083,-14.605999946594238 3.502000093460083,-14.605999946594238 C3.502000093460083,-14.605999946594238 14.583999633789062,14.605999946594238 14.583999633789062,14.605999946594238 C14.583999633789062,14.605999946594238 5.386000156402588,14.605999946594238 5.386000156402588,14.605999946594238 C5.386000156402588,14.605999946594238 4.421999931335449,11.979000091552734 4.421999931335449,11.979000091552734 C4.421999931335449,11.979000091552734 -4.423999786376953,11.979000091552734 -4.423999786376953,11.979000091552734 C-4.423999786376953,11.979000091552734 -5.388000011444092,14.605999946594238 -5.388000011444092,14.605999946594238 C-5.388000011444092,14.605999946594238 -14.583999633789062,14.605999946594238 -14.583999633789062,14.605999946594238 C-14.583999633789062,14.605999946594238 -3.503999948501587,-14.605999946594238 -3.503999948501587,-14.605999946594238z M3.3940000534057617,4.4019999504089355 C3.3940000534057617,4.4019999504089355 0,-4.421999931335449 0,-4.421999931335449 C0,-4.421999931335449 -3.3929998874664307,4.4019999504089355 -3.3929998874664307,4.4019999504089355 C-3.3929998874664307,4.4019999504089355 3.3940000534057617,4.4019999504089355 3.3940000534057617,4.4019999504089355z"></path></g><g opacity="1" transform="matrix(1,0,0,1,224.08099365234375,21.871999740600586)"><path fill="rgb(255,201,77)" fill-opacity="1" d=" M-3.503999948501587,-14.605999946594238 C-3.503999948501587,-14.605999946594238 3.503000020980835,-14.605999946594238 3.503000020980835,-14.605999946594238 C3.503000020980835,-14.605999946594238 14.583999633789062,14.605999946594238 14.583999633789062,14.605999946594238 C14.583999633789062,14.605999946594238 5.38700008392334,14.605999946594238 5.38700008392334,14.605999946594238 C5.38700008392334,14.605999946594238 4.422999858856201,11.979000091552734 4.422999858856201,11.979000091552734 C4.422999858856201,11.979000091552734 -4.422999858856201,11.979000091552734 -4.422999858856201,11.979000091552734 C-4.422999858856201,11.979000091552734 -5.38700008392334,14.605999946594238 -5.38700008392334,14.605999946594238 C-5.38700008392334,14.605999946594238 -14.583999633789062,14.605999946594238 -14.583999633789062,14.605999946594238 C-14.583999633789062,14.605999946594238 -3.503999948501587,-14.605999946594238 -3.503999948501587,-14.605999946594238z M3.3940000534057617,4.4019999504089355 C3.3940000534057617,4.4019999504089355 0,-4.421999931335449 0,-4.421999931335449 C0,-4.421999931335449 -3.3919999599456787,4.4019999504089355 -3.3919999599456787,4.4019999504089355 C-3.3919999599456787,4.4019999504089355 3.3940000534057617,4.4019999504089355 3.3940000534057617,4.4019999504089355z"></path></g><g opacity="1" transform="matrix(1,0,0,1,14.914999961853027,17.114999771118164)"><path fill="rgb(193,66,60)" fill-opacity="1" d=" M-14.666000366210938,16.864999771118164 C-14.666000366210938,16.864999771118164 -14.666000366210938,-16.864999771118164 -14.666000366210938,-16.864999771118164 C-14.666000366210938,-16.864999771118164 -5.309000015258789,-16.864999771118164 -5.309000015258789,-16.864999771118164 C-2.1419999599456787,-16.864999771118164 0.6830000281333923,-16.510000228881836 3.1619999408721924,-15.803000450134277 C5.638000011444092,-15.095999717712402 7.728000164031982,-14.032999992370605 9.430999755859375,-12.616999626159668 C11.133000373840332,-11.199999809265137 12.430999755859375,-9.439000129699707 13.324999809265137,-7.331999778747559 C14.217000007629395,-5.223999977111816 14.666000366210938,-2.7890000343322754 14.666000366210938,-0.02500000037252903 C14.666000366210938,2.740000009536743 14.217000007629395,5.177000045776367 13.324999809265137,7.281000137329102 C12.430999755859375,9.390999794006348 11.133000373840332,11.152000427246094 9.430999755859375,12.567000389099121 C7.728000164031982,13.982999801635742 5.638000011444092,15.053999900817871 3.1619999408721924,15.777999877929688 C0.6830000281333923,16.503999710083008 -2.1419999599456787,16.864999771118164 -5.309000015258789,16.864999771118164 C-5.309000015258789,16.864999771118164 -14.666000366210938,16.864999771118164 -14.666000366210938,16.864999771118164z M-3.8940000534057617,7.257999897003174 C-1.3650000095367432,7.257999897003174 0.5889999866485596,6.658999919891357 1.972000002861023,5.460999965667725 C3.3550000190734863,4.265999794006348 4.045000076293945,2.437000036239624 4.045000076293945,-0.02500000037252903 C4.045000076293945,-2.484999895095825 3.3550000190734863,-4.304999828338623 1.972000002861023,-5.486000061035156 C0.5889999866485596,-6.664999961853027 -1.3650000095367432,-7.25600004196167 -3.8940000534057617,-7.25600004196167 C-3.8940000534057617,-7.25600004196167 -3.8940000534057617,7.257999897003174 -3.8940000534057617,7.257999897003174z"></path></g><g opacity="1" transform="matrix(1,0,0,1,36.9379997253418,16.36199951171875)"><path fill="rgb(193,66,60)" fill-opacity="1" d=" M-4.948999881744385,-14.605999946594238 C-4.948999881744385,-14.605999946594238 4.948999881744385,-14.605999946594238 4.948999881744385,-14.605999946594238 C4.948999881744385,-14.605999946594238 4.948999881744385,14.605999946594238 4.948999881744385,14.605999946594238 C4.948999881744385,14.605999946594238 -4.948999881744385,14.605999946594238 -4.948999881744385,14.605999946594238 C-4.948999881744385,14.605999946594238 -4.948999881744385,-14.605999946594238 -4.948999881744385,-14.605999946594238z"></path></g><g opacity="1" transform="matrix(1,0,0,1,57.39099884033203,17.868000030517578)"><path fill="rgb(193,66,60)" fill-opacity="1" d=" M-12.437999725341797,-14.607000350952148 C-12.437999725341797,-14.607000350952148 -4.7729997634887695,-14.607000350952148 -4.7729997634887695,-14.607000350952148 C-4.7729997634887695,-14.607000350952148 3.2850000858306885,-3.3489999771118164 3.2850000858306885,-3.3489999771118164 C3.2850000858306885,-3.3489999771118164 3.2850000858306885,-14.607000350952148 3.2850000858306885,-14.607000350952148 C3.2850000858306885,-14.607000350952148 12.437999725341797,-14.607000350952148 12.437999725341797,-14.607000350952148 C12.437999725341797,-14.607000350952148 12.437999725341797,14.607000350952148 12.437999725341797,14.607000350952148 C12.437999725341797,14.607000350952148 4.730999946594238,14.607000350952148 4.730999946594238,14.607000350952148 C4.730999946594238,14.607000350952148 -3.2850000858306885,3.3949999809265137 -3.2850000858306885,3.3949999809265137 C-3.2850000858306885,3.3949999809265137 -3.2850000858306885,14.607000350952148 -3.2850000858306885,14.607000350952148 C-3.2850000858306885,14.607000350952148 -12.437999725341797,14.607000350952148 -12.437999725341797,14.607000350952148 C-12.437999725341797,14.607000350952148 -12.437999725341797,-14.607000350952148 -12.437999725341797,-14.607000350952148z"></path></g><g opacity="1" transform="matrix(1,0,0,1,87.56600189208984,16.385000228881836)"><path fill="rgb(193,66,60)" fill-opacity="1" d=" M-15.329999923706055,0 C-15.329999923706055,-2.1029999256134033 -14.928999900817871,-4.0879998207092285 -14.125,-5.956999778747559 C-13.321999549865723,-7.823999881744385 -12.227999687194824,-9.45199966430664 -10.840999603271484,-10.83899974822998 C-9.454000473022461,-12.22700023651123 -7.826000213623047,-13.321000099182129 -5.956999778747559,-14.125 C-4.0879998207092285,-14.927000045776367 -2.1029999256134033,-15.329000473022461 0,-15.329000473022461 C2.1019999980926514,-15.329000473022461 4.0879998207092285,-14.927000045776367 5.956999778747559,-14.125 C7.823999881744385,-13.321000099182129 9.45199966430664,-12.22700023651123 10.83899974822998,-10.83899974822998 C12.225000381469727,-9.45199966430664 13.321000099182129,-7.823999881744385 14.125,-5.956999778747559 C14.928000450134277,-4.0879998207092285 15.329999923706055,-2.1029999256134033 15.329999923706055,0 C15.329999923706055,2.1029999256134033 14.928000450134277,4.0879998207092285 14.125,5.955999851226807 C13.321000099182129,7.824999809265137 12.225000381469727,9.45300006866455 10.83899974822998,10.83899974822998 C9.45199966430664,12.22599983215332 7.823999881744385,13.321999549865723 5.956999778747559,14.12399959564209 C4.0879998207092285,14.927000045776367 2.1019999980926514,15.329000473022461 0,15.329000473022461 C-2.1029999256134033,15.329000473022461 -4.0879998207092285,14.927000045776367 -5.956999778747559,14.12399959564209 C-7.826000213623047,13.321999549865723 -9.454000473022461,12.22599983215332 -10.840999603271484,10.83899974822998 C-12.227999687194824,9.45300006866455 -13.321999549865723,7.824999809265137 -14.125,5.955999851226807 C-14.928999900817871,4.0879998207092285 -15.329999923706055,2.1029999256134033 -15.329999923706055,0z M-6.13100004196167,0 C-6.13100004196167,0.8479999899864197 -5.9710001945495605,1.6430000066757202 -5.64900016784668,2.388000011444092 C-5.328000068664551,3.13100004196167 -4.890999794006348,3.7820000648498535 -4.335000038146973,4.335999965667725 C-3.7809998989105225,4.892000198364258 -3.131999969482422,5.328999996185303 -2.388000011444092,5.64900016784668 C-1.6430000066757202,5.9710001945495605 -0.8479999899864197,6.13100004196167 0,6.13100004196167 C0.8460000157356262,6.13100004196167 1.6419999599456787,5.9710001945495605 2.385999917984009,5.64900016784668 C3.13100004196167,5.328999996185303 3.7799999713897705,4.892000198364258 4.335999965667725,4.335999965667725 C4.888999938964844,3.7820000648498535 5.327000141143799,3.13100004196167 5.64900016784668,2.388000011444092 C5.9710001945495605,1.6430000066757202 6.13100004196167,0.8479999899864197 6.13100004196167,0 C6.13100004196167,-0.847000002861023 5.9710001945495605,-1.6430000066757202 5.64900016784668,-2.388000011444092 C5.327000141143799,-3.13100004196167 4.888999938964844,-3.7799999713897705 4.335999965667725,-4.335999965667725 C3.7799999713897705,-4.889999866485596 3.13100004196167,-5.328000068664551 2.385999917984009,-5.64900016784668 C1.6419999599456787,-5.9720001220703125 0.8460000157356262,-6.131999969482422 0,-6.131999969482422 C-0.8479999899864197,-6.131999969482422 -1.6430000066757202,-5.9720001220703125 -2.388000011444092,-5.64900016784668 C-3.131999969482422,-5.328000068664551 -3.7809998989105225,-4.889999866485596 -4.335000038146973,-4.335999965667725 C-4.890999794006348,-3.7799999713897705 -5.328000068664551,-3.13100004196167 -5.64900016784668,-2.388000011444092 C-5.9710001945495605,-1.6430000066757202 -6.13100004196167,-0.847000002861023 -6.13100004196167,0z"></path></g><g opacity="1" transform="matrix(1,0,0,1,111.08300018310547,16.36199951171875)"><path fill="rgb(193,66,60)" fill-opacity="1" d=" M-5.781000137329102,-3.6570000648498535 C-5.781000137329102,-3.6570000648498535 5.781000137329102,-3.6570000648498535 5.781000137329102,-3.6570000648498535 C5.781000137329102,-3.6570000648498535 5.781000137329102,3.6570000648498535 5.781000137329102,3.6570000648498535 C5.781000137329102,3.6570000648498535 -5.781000137329102,3.6570000648498535 -5.781000137329102,3.6570000648498535 C-5.781000137329102,3.6570000648498535 -5.781000137329102,-3.6570000648498535 -5.781000137329102,-3.6570000648498535z"></path></g><g opacity="1" transform="matrix(1,0,0,1,133.72799682617188,17.114999771118164)"><path fill="rgb(193,66,60)" fill-opacity="1" d=" M-14.236000061035156,-16.864999771118164 C-14.236000061035156,-16.864999771118164 -2.6040000915527344,-16.864999771118164 -2.6040000915527344,-16.864999771118164 C-0.4449999928474426,-16.864999771118164 1.5499999523162842,-16.577999114990234 3.388000011444092,-16.0049991607666 C5.223999977111816,-15.432000160217285 6.817999839782715,-14.588000297546387 8.168000221252441,-13.47700023651123 C9.515999794006348,-12.36400032043457 10.569000244140625,-10.989999771118164 11.32800006866455,-9.354999542236328 C12.086999893188477,-7.718999862670898 12.467000007629395,-5.841000080108643 12.467000007629395,-3.7170000076293945 C12.467000007629395,-2.0299999713897705 12.229999542236328,-0.597000002861023 11.758999824523926,0.5820000171661377 C11.28600025177002,1.7630000114440918 10.762999534606934,2.740000009536743 10.189000129699707,3.515000104904175 C9.515999794006348,4.392000198364258 8.758000373840332,5.133999824523926 7.914999961853027,5.738999843597412 C7.914999961853027,5.738999843597412 14.236000061035156,16.864999771118164 14.236000061035156,16.864999771118164 C14.236000061035156,16.864999771118164 1.593999981880188,16.864999771118164 1.593999981880188,16.864999771118164 C1.593999981880188,16.864999771118164 -3.4639999866485596,8.317999839782715 -3.4639999866485596,8.317999839782715 C-3.4639999866485596,8.317999839782715 -3.4639999866485596,16.864999771118164 -3.4639999866485596,16.864999771118164 C-3.4639999866485596,16.864999771118164 -14.236000061035156,16.864999771118164 -14.236000061035156,16.864999771118164 C-14.236000061035156,16.864999771118164 -14.236000061035156,-16.864999771118164 -14.236000061035156,-16.864999771118164z M-3.4639999866485596,0.492000013589859 C-3.4639999866485596,0.492000013589859 -2.7929999828338623,0.492000013589859 -2.7929999828338623,0.492000013589859 C-1.2480000257492065,0.492000013589859 0.061000000685453415,0.14800000190734863 1.1390000581741333,-0.5450000166893005 C2.2160000801086426,-1.2350000143051147 2.756999969482422,-2.3949999809265137 2.756999969482422,-4.020999908447266 C2.756999969482422,-5.644999980926514 2.2160000801086426,-6.804999828338623 1.1390000581741333,-7.495999813079834 C0.061000000685453415,-8.185999870300293 -1.2480000257492065,-8.531000137329102 -2.7929999828338623,-8.531000137329102 C-2.7929999828338623,-8.531000137329102 -3.4639999866485596,-8.531000137329102 -3.4639999866485596,-8.531000137329102 C-3.4639999866485596,-8.531000137329102 -3.4639999866485596,0.492000013589859 -3.4639999866485596,0.492000013589859z"></path></g><g opacity="1" transform="matrix(1,0,0,1,193.5330047607422,16.36199951171875)"><path fill="rgb(193,66,60)" fill-opacity="1" d=" M-15.307000160217285,-14.607000350952148 C-15.307000160217285,-14.607000350952148 -7.598999977111816,-14.607000350952148 -7.598999977111816,-14.607000350952148 C-7.598999977111816,-14.607000350952148 0.02199999988079071,-3.3929998874664307 0.02199999988079071,-3.3929998874664307 C0.02199999988079071,-3.3929998874664307 7.598999977111816,-14.607000350952148 7.598999977111816,-14.607000350952148 C7.598999977111816,-14.607000350952148 15.307000160217285,-14.607000350952148 15.307000160217285,-14.607000350952148 C15.307000160217285,-14.607000350952148 15.307000160217285,14.607000350952148 15.307000160217285,14.607000350952148 C15.307000160217285,14.607000350952148 5.978000164031982,14.607000350952148 5.978000164031982,14.607000350952148 C5.978000164031982,14.607000350952148 5.978000164031982,4.0960001945495605 5.978000164031982,4.0960001945495605 C5.978000164031982,4.0960001945495605 0.02199999988079071,12.855999946594238 0.02199999988079071,12.855999946594238 C0.02199999988079071,12.855999946594238 -5.979000091552734,4.0960001945495605 -5.979000091552734,4.0960001945495605 C-5.979000091552734,4.0960001945495605 -5.979000091552734,14.607000350952148 -5.979000091552734,14.607000350952148 C-5.979000091552734,14.607000350952148 -15.307000160217285,14.607000350952148 -15.307000160217285,14.607000350952148 C-15.307000160217285,14.607000350952148 -15.307000160217285,-14.607000350952148 -15.307000160217285,-14.607000350952148z"></path></g><g opacity="1" transform="matrix(1,0,0,1,244.9709930419922,16.36199951171875)"><path fill="rgb(193,66,60)" fill-opacity="1" d=" M-4.992000102996826,-14.605999946594238 C-4.992000102996826,-14.605999946594238 4.992000102996826,-14.605999946594238 4.992000102996826,-14.605999946594238 C4.992000102996826,-14.605999946594238 3.505000114440918,5.979000091552734 3.505000114440918,5.979000091552734 C3.505000114440918,5.979000091552734 -3.503000020980835,5.979000091552734 -3.503000020980835,5.979000091552734 C-3.503000020980835,5.979000091552734 -4.992000102996826,-14.605999946594238 -4.992000102996826,-14.605999946594238z M-4.684000015258789,7.291999816894531 C-4.684000015258789,7.291999816894531 4.688000202178955,7.291999816894531 4.688000202178955,7.291999816894531 C4.688000202178955,7.291999816894531 4.688000202178955,14.605999946594238 4.688000202178955,14.605999946594238 C4.688000202178955,14.605999946594238 -4.684000015258789,14.605999946594238 -4.684000015258789,14.605999946594238 C-4.684000015258789,14.605999946594238 -4.684000015258789,7.291999816894531 -4.684000015258789,7.291999816894531z"></path></g><g opacity="1" transform="matrix(1,0,0,1,162.98599243164062,17.868000030517578)"><path fill="rgb(193,66,60)" fill-opacity="1" d=" M-3.503999948501587,-14.605999946594238 C-3.503999948501587,-14.605999946594238 3.502000093460083,-14.605999946594238 3.502000093460083,-14.605999946594238 C3.502000093460083,-14.605999946594238 14.583999633789062,14.605999946594238 14.583999633789062,14.605999946594238 C14.583999633789062,14.605999946594238 5.386000156402588,14.605999946594238 5.386000156402588,14.605999946594238 C5.386000156402588,14.605999946594238 4.421999931335449,11.979000091552734 4.421999931335449,11.979000091552734 C4.421999931335449,11.979000091552734 -4.423999786376953,11.979000091552734 -4.423999786376953,11.979000091552734 C-4.423999786376953,11.979000091552734 -5.388000011444092,14.605999946594238 -5.388000011444092,14.605999946594238 C-5.388000011444092,14.605999946594238 -14.583999633789062,14.605999946594238 -14.583999633789062,14.605999946594238 C-14.583999633789062,14.605999946594238 -3.503999948501587,-14.605999946594238 -3.503999948501587,-14.605999946594238z M3.3940000534057617,4.4019999504089355 C3.3940000534057617,4.4019999504089355 0,-4.422999858856201 0,-4.422999858856201 C0,-4.422999858856201 -3.3929998874664307,4.4019999504089355 -3.3929998874664307,4.4019999504089355 C-3.3929998874664307,4.4019999504089355 3.3940000534057617,4.4019999504089355 3.3940000534057617,4.4019999504089355z"></path></g><g opacity="1" transform="matrix(1,0,0,1,224.08099365234375,17.868000030517578)"><path fill="rgb(193,66,60)" fill-opacity="1" d=" M-3.503999948501587,-14.605999946594238 C-3.503999948501587,-14.605999946594238 3.503000020980835,-14.605999946594238 3.503000020980835,-14.605999946594238 C3.503000020980835,-14.605999946594238 14.583999633789062,14.605999946594238 14.583999633789062,14.605999946594238 C14.583999633789062,14.605999946594238 5.38700008392334,14.605999946594238 5.38700008392334,14.605999946594238 C5.38700008392334,14.605999946594238 4.422999858856201,11.979000091552734 4.422999858856201,11.979000091552734 C4.422999858856201,11.979000091552734 -4.422999858856201,11.979000091552734 -4.422999858856201,11.979000091552734 C-4.422999858856201,11.979000091552734 -5.38700008392334,14.605999946594238 -5.38700008392334,14.605999946594238 C-5.38700008392334,14.605999946594238 -14.583999633789062,14.605999946594238 -14.583999633789062,14.605999946594238 C-14.583999633789062,14.605999946594238 -3.503999948501587,-14.605999946594238 -3.503999948501587,-14.605999946594238z M3.3940000534057617,4.4019999504089355 C3.3940000534057617,4.4019999504089355 0,-4.422999858856201 0,-4.422999858856201 C0,-4.422999858856201 -3.3919999599456787,4.4019999504089355 -3.3919999599456787,4.4019999504089355 C-3.3919999599456787,4.4019999504089355 3.3940000534057617,4.4019999504089355 3.3940000534057617,4.4019999504089355z"></path></g></g></g></svg>