<svg xmlns="http://www.w3.org/2000/svg" viewBox="0 0 300 156" width="300" height="156" preserveAspectRatio="xMidYMid meet" style="width: 100%; height: 100%; transform: translate3d(0px, 0px, 0px); content-visibility: visible;"><defs><clipPath id="__lottie_element_988"><rect width="300" height="156" x="0" y="0"></rect></clipPath><mask id="__lottie_element_996" mask-type="alpha"><g transform="matrix(0.257999986410141,0,0,0.257999986410141,-219.03797912597656,-282.27197265625)" opacity="1" style="display: none;"><g opacity="0.3333333333333334" transform="matrix(1,0,0,1,63.138427734375,-223.7725830078125)"><path fill="rgb(255,255,255)" fill-opacity="1" d=" M1325,1635 C1325,1635 1313,1683 1313,1683 C1313,1683 1363,1685 1363,1685 C1363,1685 1373,1638 1373,1638 C1373,1638 1325,1635 1325,1635z"></path><path stroke-linecap="butt" stroke-linejoin="miter" fill-opacity="0" stroke-miterlimit="4" stroke="rgb(184,228,250)" stroke-opacity="1" stroke-width="0" d=" M1325,1635 C1325,1635 1313,1683 1313,1683 C1313,1683 1363,1685 1363,1685 C1363,1685 1373,1638 1373,1638 C1373,1638 1325,1635 1325,1635z"></path></g><g opacity="0.25" transform="matrix(1,0,0,1,1.6749359369277954,5.773602485656738)"><path fill="rgb(255,255,255)" fill-opacity="1" d=" M1479,1399 C1479,1399 1432,1403 1432,1403 C1432,1403 1439,1454 1439,1454 C1439,1454 1491,1450 1491,1450 C1491,1450 1479,1399 1479,1399z"></path><path stroke-linecap="butt" stroke-linejoin="miter" fill-opacity="0" stroke-miterlimit="4" stroke="rgb(184,228,250)" stroke-opacity="1" stroke-width="0" d=" M1479,1399 C1479,1399 1432,1403 1432,1403 C1432,1403 1439,1454 1439,1454 C1439,1454 1491,1450 1491,1450 C1491,1450 1479,1399 1479,1399z"></path></g><g opacity="0.25" transform="matrix(1,0,0,1,175.4727783203125,-271.54168701171875)"><path fill="rgb(255,255,255)" fill-opacity="1" d=" M1173,1678 C1173,1678 1152,1729 1152,1729 C1152,1729 1204,1733 1204,1733 C1204,1733 1226,1681 1226,1681 C1226,1681 1173,1678 1173,1678z"></path><path stroke-linecap="butt" stroke-linejoin="miter" fill-opacity="0" stroke-miterlimit="4" stroke="rgb(184,228,250)" stroke-opacity="1" stroke-width="0" d=" M1173,1678 C1173,1678 1152,1729 1152,1729 C1152,1729 1204,1733 1204,1733 C1204,1733 1226,1681 1226,1681 C1226,1681 1173,1678 1173,1678z"></path></g><g opacity="0.25" transform="matrix(1,0.00008726646046852693,-0.00008726646046852693,1,254.8766632080078,-247.0343017578125)"><path fill="rgb(255,255,255)" fill-opacity="1" d=" M1059,1658 C1059,1658 1028.0009765625,1693 1028.0009765625,1693 C1028.0009765625,1693 1077,1696.9990234375 1077,1696.9990234375 C1077,1696.9990234375 1102,1661 1102,1661 C1102,1661 1059,1658 1059,1658z"></path><path stroke-linecap="butt" stroke-linejoin="miter" fill-opacity="0" stroke-miterlimit="4" stroke="rgb(184,228,250)" stroke-opacity="1" stroke-width="0" d=" M1059,1658 C1059,1658 1028.0009765625,1693 1028.0009765625,1693 C1028.0009765625,1693 1077,1696.9990234375 1077,1696.9990234375 C1077,1696.9990234375 1102,1661 1102,1661 C1102,1661 1059,1658 1059,1658z"></path></g><g opacity="0.25" transform="matrix(1,0,0,1,312.71405029296875,-253.89637756347656)"><path fill="rgb(255,255,255)" fill-opacity="1" d=" M977.25,1667.75 C977.25,1667.75 942.1666870117188,1697.75 942.1666870117188,1697.75 C942.1666870117188,1697.75 973,1701 973,1701 C973,1701 1001,1671 1001,1671 C1001,1671 977.25,1667.75 977.25,1667.75z"></path><path stroke-linecap="butt" stroke-linejoin="miter" fill-opacity="0" stroke-miterlimit="4" stroke="rgb(184,228,250)" stroke-opacity="1" stroke-width="0" d=" M977.25,1667.75 C977.25,1667.75 942.1666870117188,1697.75 942.1666870117188,1697.75 C942.1666870117188,1697.75 973,1701 973,1701 C973,1701 1001,1671 1001,1671 C1001,1671 977.25,1667.75 977.25,1667.75z"></path></g><g opacity="0.25" transform="matrix(1,0,0,1,385.2558898925781,-245.07371520996094)"><path fill="rgb(255,255,255)" fill-opacity="1" d=" M862,1662 C862,1662 830,1688 827,1689 C824,1690 871,1698 871,1698 C871,1698 911,1669 911,1669 C911,1669 862,1662 862,1662z"></path><path stroke-linecap="butt" stroke-linejoin="miter" fill-opacity="0" stroke-miterlimit="4" stroke="rgb(184,228,250)" stroke-opacity="1" stroke-width="0" d=" M862,1662 C862,1662 830,1688 827,1689 C824,1690 871,1698 871,1698 C871,1698 911,1669 911,1669 C911,1669 862,1662 862,1662z"></path></g><g opacity="0.25" transform="matrix(1,0,0,1,236.25106811523438,-148.02452087402344)"><path fill="rgb(255,255,255)" fill-opacity="1" d=" M917,1582 C917,1582 877,1614 877,1614 C877,1614 930,1622 934,1622 C938,1622 975,1593 975,1593 C975,1593 917,1582 917,1582z"></path><path stroke-linecap="butt" stroke-linejoin="miter" fill-opacity="0" stroke-miterlimit="4" stroke="rgb(184,228,250)" stroke-opacity="1" stroke-width="0" d=" M917,1582 C917,1582 877,1614 877,1614 C877,1614 930,1622 934,1622 C938,1622 975,1593 975,1593 C975,1593 917,1582 917,1582z"></path></g><g opacity="0.25" transform="matrix(1,0,0,1,-166.65013122558594,-291.1475830078125)"><path fill="rgb(255,255,255)" fill-opacity="1" d=" M1713,1689 C1713,1689 1639,1692 1639,1692 C1639,1692 1653,1745 1653,1745 C1653,1745 1725,1741 1725,1741 C1725,1741 1713,1689 1713,1689z"></path><path stroke-linecap="butt" stroke-linejoin="miter" fill-opacity="0" stroke-miterlimit="4" stroke="rgb(184,228,250)" stroke-opacity="1" stroke-width="0" d=" M1713,1689 C1713,1689 1639,1692 1639,1692 C1639,1692 1653,1745 1653,1745 C1653,1745 1725,1741 1725,1741 C1725,1741 1713,1689 1713,1689z"></path></g><g opacity="0.25" transform="matrix(1,0,0,1,-284.2855224609375,-278.40374755859375)"><path fill="rgb(255,255,255)" fill-opacity="1" d=" M1828,1681 C1828,1681 1766,1686 1766,1686 C1766,1686 1804,1732 1804,1732 C1804,1732 1873,1723 1873,1723 C1873,1723 1828,1681 1828,1681z"></path><path stroke-linecap="butt" stroke-linejoin="miter" fill-opacity="0" stroke-miterlimit="4" stroke="rgb(184,228,250)" stroke-opacity="1" stroke-width="0" d=" M1828,1681 C1828,1681 1766,1686 1766,1686 C1766,1686 1804,1732 1804,1732 C1804,1732 1873,1723 1873,1723 C1873,1723 1828,1681 1828,1681z"></path></g><g opacity="0.25" transform="matrix(1,0,0,1,-361.72882080078125,-283.3052062988281)"><path fill="rgb(255,255,255)" fill-opacity="1" d=" M1976.2916259765625,1699.0833740234375 C1976.2916259765625,1699.0833740234375 1922.25,1698 1922.25,1698 C1922.25,1698 1951.4583740234375,1733.9166259765625 1951.4583740234375,1733.9166259765625 C1951.4583740234375,1733.9166259765625 2011.125,1730.5 2011.125,1730.5 C2011.125,1730.5 1976.2916259765625,1699.0833740234375 1976.2916259765625,1699.0833740234375z"></path><path stroke-linecap="butt" stroke-linejoin="miter" fill-opacity="0" stroke-miterlimit="4" stroke="rgb(184,228,250)" stroke-opacity="1" stroke-width="0" d=" M1976.2916259765625,1699.0833740234375 C1976.2916259765625,1699.0833740234375 1922.25,1698 1922.25,1698 C1922.25,1698 1951.4583740234375,1733.9166259765625 1951.4583740234375,1733.9166259765625 C1951.4583740234375,1733.9166259765625 2011.125,1730.5 2011.125,1730.5 C2011.125,1730.5 1976.2916259765625,1699.0833740234375 1976.2916259765625,1699.0833740234375z"></path></g><g opacity="0.3333333333333334" transform="matrix(1,0,0,1,-301.9308166503906,-183.3151397705078)"><path fill="rgb(255,255,255)" fill-opacity="1" d=" M1999,1617 C1999,1617 1931,1620 1931,1620 C1931,1620 1977,1652 1977,1652 C1977,1652 2039,1648 2039,1648 C2039,1648 1999,1617 1999,1617z"></path><path stroke-linecap="butt" stroke-linejoin="miter" fill-opacity="0" stroke-miterlimit="4" stroke="rgb(184,228,250)" stroke-opacity="1" stroke-width="0" d=" M1999,1617 C1999,1617 1931,1620 1931,1620 C1931,1620 1977,1652 1977,1652 C1977,1652 2039,1648 2039,1648 C2039,1648 1999,1617 1999,1617z"></path></g></g></mask></defs><g clip-path="url(#__lottie_element_988)"><g transform="matrix(1.8059998750686646,0,0,1.8059998750686646,-43.85599136352539,-0.019994020462036133)" opacity="1" style="display: block;"><g opacity="1" transform="matrix(1,0,0,1,85.08999633789062,34.61899948120117)"><path fill="rgb(186,202,222)" fill-opacity="1" d=" M1.8669999837875366,11.57699966430664 C1.8669999837875366,11.57699966430664 0.675000011920929,-11.57699966430664 0.675000011920929,-11.57699966430664 C0.675000011920929,-11.57699966430664 -1.8669999837875366,1.6030000448226929 -1.8669999837875366,1.6030000448226929 C-1.8669999837875366,1.6030000448226929 1.8669999837875366,11.57699966430664 1.8669999837875366,11.57699966430664z"></path></g><g opacity="1" transform="matrix(1,0,0,1,96.25199890136719,25.777000427246094)"><path fill="rgb(230,235,246)" fill-opacity="1" d=" M2.005000114440918,0.5120000243186951 C2.005000114440918,0.5120000243186951 -2.005000114440918,0.5120000243186951 -2.005000114440918,0.5120000243186951 C-2.005000114440918,0.5120000243186951 -2.005000114440918,-0.5120000243186951 -2.005000114440918,-0.5120000243186951 C-2.005000114440918,-0.5120000243186951 2.005000114440918,-0.5120000243186951 2.005000114440918,-0.5120000243186951 C2.005000114440918,-0.5120000243186951 2.005000114440918,0.5120000243186951 2.005000114440918,0.5120000243186951z"></path></g><g opacity="1" transform="matrix(1,0,0,1,96.25199890136719,29.885000228881836)"><path fill="rgb(230,235,246)" fill-opacity="1" d=" M2.005000114440918,0.5120000243186951 C2.005000114440918,0.5120000243186951 -2.005000114440918,0.5120000243186951 -2.005000114440918,0.5120000243186951 C-2.005000114440918,0.5120000243186951 -2.005000114440918,-0.5120000243186951 -2.005000114440918,-0.5120000243186951 C-2.005000114440918,-0.5120000243186951 2.005000114440918,-0.5120000243186951 2.005000114440918,-0.5120000243186951 C2.005000114440918,-0.5120000243186951 2.005000114440918,0.5120000243186951 2.005000114440918,0.5120000243186951z"></path></g><g opacity="1" transform="matrix(1,0,0,1,92.0250015258789,21.93899917602539)"><path fill="rgb(17,128,195)" fill-opacity="1" d=" M-3.0759999752044678,15.284000396728516 C-3.0759999752044678,15.284000396728516 0.47699999809265137,8.472999572753906 0.47699999809265137,8.472999572753906 C0.47699999809265137,8.472999572753906 3.0759999752044678,-15.284000396728516 3.0759999752044678,-15.284000396728516 C3.0759999752044678,-15.284000396728516 2.4790000915527344,9.84000015258789 2.4790000915527344,9.84000015258789 C2.4790000915527344,9.84000015258789 0.9269999861717224,15.284000396728516 0.9269999861717224,15.284000396728516 C0.9269999861717224,15.284000396728516 -3.0759999752044678,15.284000396728516 -3.0759999752044678,15.284000396728516z"></path></g><g opacity="1" transform="matrix(1,0,0,1,100.5790023803711,22.134000778198242)"><path fill="rgb(17,128,195)" fill-opacity="1" d=" M3.178999900817871,15.479000091552734 C3.178999900817871,15.479000091552734 -0.578000009059906,8.277999877929688 -0.578000009059906,8.277999877929688 C-0.578000009059906,8.277999877929688 -3.178999900817871,-15.479000091552734 -3.178999900817871,-15.479000091552734 C-3.178999900817871,-15.479000091552734 -2.5810000896453857,9.645000457763672 -2.5810000896453857,9.645000457763672 C-2.5810000896453857,9.645000457763672 -1.0290000438690186,15.08899974822998 -1.0290000438690186,15.08899974822998 C-1.0290000438690186,15.08899974822998 3.178999900817871,15.479000091552734 3.178999900817871,15.479000091552734z"></path></g><g opacity="1" transform="matrix(1,0,0,1,96.25199890136719,26.878999710083008)"><path fill="rgb(230,235,246)" fill-opacity="1" d=" M0,-26.628999710083008 C0,-26.628999710083008 -1.4160000085830688,26.628999710083008 -1.4160000085830688,26.628999710083008 C-1.4160000085830688,26.628999710083008 1.4160000085830688,26.628999710083008 1.4160000085830688,26.628999710083008 C1.4160000085830688,26.628999710083008 0,-26.628999710083008 0,-26.628999710083008z"></path></g><g opacity="1" transform="matrix(1,0,0,1,89.5469970703125,35.930999755859375)"><path fill="rgb(186,202,222)" fill-opacity="1" d=" M0.9070000052452087,-13.890000343322754 C0.9070000052452087,-13.890000343322754 -2.5190000534057617,3.881999969482422 -2.5190000534057617,3.881999969482422 C-2.5190000534057617,3.881999969482422 2.5190000534057617,13.890000343322754 2.5190000534057617,13.890000343322754 C2.5190000534057617,13.890000343322754 0.9070000052452087,-13.890000343322754 0.9070000052452087,-13.890000343322754z"></path></g><g opacity="1" transform="matrix(1,0,0,1,80.81099700927734,41.540000915527344)"><path fill="rgb(172,190,210)" fill-opacity="1" d=" M-0.5600000023841858,2.8010001182556152 C-0.5600000023841858,2.8010001182556152 0.5600000023841858,2.8010001182556152 0.5600000023841858,2.8010001182556152 C0.5600000023841858,2.8010001182556152 0.5600000023841858,-2.8010001182556152 0.5600000023841858,-2.8010001182556152 C0.5600000023841858,-2.8010001182556152 -0.5600000023841858,-2.8010001182556152 -0.5600000023841858,-2.8010001182556152 C-0.5600000023841858,-2.8010001182556152 -0.5600000023841858,2.8010001182556152 -0.5600000023841858,2.8010001182556152z"></path></g><g opacity="1" transform="matrix(1,0,0,1,108.04299926757812,42.39799880981445)"><path fill="rgb(172,190,210)" fill-opacity="1" d=" M-22.6560001373291,-3.177999973297119 C-22.6560001373291,-3.177999973297119 -28.40399932861328,3.493000030517578 -28.40399932861328,3.493000030517578 C-28.40399932861328,3.493000030517578 -26.115999221801758,4.877999782562256 -26.115999221801758,4.877999782562256 C-26.115999221801758,4.877999782562256 26.540000915527344,4.877999782562256 26.540000915527344,4.877999782562256 C26.540000915527344,4.877999782562256 28.40399932861328,3.2839999198913574 28.40399932861328,3.2839999198913574 C28.40399932861328,3.2839999198913574 24.576000213623047,-0.6159999966621399 24.576000213623047,-0.6159999966621399 C24.576000213623047,-0.6159999966621399 -8.48900032043457,-4.7769999504089355 -8.48900032043457,-4.7769999504089355 C-8.48900032043457,-4.7769999504089355 -19.732999801635742,-4.877999782562256 -19.732999801635742,-4.877999782562256 C-19.732999801635742,-4.877999782562256 -22.6560001373291,-3.177999973297119 -22.6560001373291,-3.177999973297119z"></path></g><g opacity="1" transform="matrix(1,0,0,1,108.04299926757812,42.39799880981445)"><path fill="rgb(172,190,210)" fill-opacity="1" d=" M-22.6560001373291,-3.177999973297119 C-22.6560001373291,-3.177999973297119 -22.719999313354492,-3.2330000400543213 -22.719999313354492,-3.2330000400543213 C-22.719999313354492,-3.2330000400543213 -28.466999053955078,3.437999963760376 -28.466999053955078,3.437999963760376 C-28.466999053955078,3.437999963760376 -28.488000869750977,3.50600004196167 -28.488000869750977,3.50600004196167 C-28.488000869750977,3.50600004196167 -28.44700050354004,3.565000057220459 -28.44700050354004,3.565000057220459 C-28.44700050354004,3.565000057220459 -26.15999984741211,4.949999809265137 -26.15999984741211,4.949999809265137 C-26.15999984741211,4.949999809265137 -26.115999221801758,4.961999893188477 -26.115999221801758,4.961999893188477 C-26.115999221801758,4.961999893188477 26.540000915527344,4.961999893188477 26.540000915527344,4.961999893188477 C26.540000915527344,4.961999893188477 26.594999313354492,4.941999912261963 26.594999313354492,4.941999912261963 C26.594999313354492,4.941999912261963 28.458999633789062,3.3480000495910645 28.458999633789062,3.3480000495910645 C28.458999633789062,3.3480000495910645 28.488000869750977,3.2880001068115234 28.488000869750977,3.2880001068115234 C28.488000869750977,3.2880001068115234 28.464000701904297,3.2249999046325684 28.464000701904297,3.2249999046325684 C28.464000701904297,3.2249999046325684 24.63599967956543,-0.675000011920929 24.63599967956543,-0.675000011920929 C24.63599967956543,-0.675000011920929 24.586999893188477,-0.699999988079071 24.586999893188477,-0.699999988079071 C24.586999893188477,-0.699999988079071 -8.479999542236328,-4.861000061035156 -8.479999542236328,-4.861000061035156 C-8.479999542236328,-4.861000061035156 -8.48900032043457,-4.861000061035156 -8.48900032043457,-4.861000061035156 C-8.48900032043457,-4.861000061035156 -19.732999801635742,-4.961999893188477 -19.732999801635742,-4.961999893188477 C-19.732999801635742,-4.961999893188477 -19.774999618530273,-4.949999809265137 -19.774999618530273,-4.949999809265137 C-19.774999618530273,-4.949999809265137 -22.698999404907227,-3.250999927520752 -22.698999404907227,-3.250999927520752 C-22.698999404907227,-3.250999927520752 -22.719999313354492,-3.2330000400543213 -22.719999313354492,-3.2330000400543213 C-22.719999313354492,-3.2330000400543213 -22.6560001373291,-3.177999973297119 -22.6560001373291,-3.177999973297119 C-22.6560001373291,-3.177999973297119 -22.61400032043457,-3.1050000190734863 -22.61400032043457,-3.1050000190734863 C-22.61400032043457,-3.1050000190734863 -19.709999084472656,-4.793000221252441 -19.709999084472656,-4.793000221252441 C-19.709999084472656,-4.793000221252441 -8.496000289916992,-4.692999839782715 -8.496000289916992,-4.692999839782715 C-8.496000289916992,-4.692999839782715 24.53700065612793,-0.5360000133514404 24.53700065612793,-0.5360000133514404 C24.53700065612793,-0.5360000133514404 28.280000686645508,3.2790000438690186 28.280000686645508,3.2790000438690186 C28.280000686645508,3.2790000438690186 26.509000778198242,4.794000148773193 26.509000778198242,4.794000148773193 C26.509000778198242,4.794000148773193 -26.093000411987305,4.794000148773193 -26.093000411987305,4.794000148773193 C-26.093000411987305,4.794000148773193 -28.274999618530273,3.4730000495910645 -28.274999618530273,3.4730000495910645 C-28.274999618530273,3.4730000495910645 -22.591999053955078,-3.122999906539917 -22.591999053955078,-3.122999906539917 C-22.591999053955078,-3.122999906539917 -22.6560001373291,-3.177999973297119 -22.6560001373291,-3.177999973297119 C-22.6560001373291,-3.177999973297119 -22.61400032043457,-3.1050000190734863 -22.61400032043457,-3.1050000190734863 C-22.61400032043457,-3.1050000190734863 -22.6560001373291,-3.177999973297119 -22.6560001373291,-3.177999973297119z"></path></g><g opacity="1" transform="matrix(1,0,0,1,109.45899963378906,39.94900131225586)"><path fill="rgb(17,128,195)" fill-opacity="1" d=" M25.666000366210938,4.146999835968018 C25.666000366210938,4.146999835968018 24.527000427246094,3.052000045776367 24.527000427246094,3.052000045776367 C24.527000427246094,3.052000045776367 27.533000946044922,1.4470000267028809 27.533000946044922,1.4470000267028809 C27.533000946044922,1.4470000267028809 -27.533000946044922,-4.146999835968018 -27.533000946044922,-4.146999835968018 C-27.533000946044922,-4.146999835968018 -27.533000946044922,-3.431999921798706 -27.533000946044922,-3.431999921798706 C-27.533000946044922,-3.431999921798706 -24.538000106811523,0.3659999966621399 -24.538000106811523,0.3659999966621399 C-24.538000106811523,0.3659999966621399 25.666000366210938,4.146999835968018 25.666000366210938,4.146999835968018z"></path></g><g opacity="1" transform="matrix(1,0,0,1,82.2040023803711,35.51499938964844)"><path fill="rgb(17,128,195)" fill-opacity="1" d=" M1.3619999885559082,1.6740000247955322 C1.3619999885559082,1.6740000247955322 0.16899999976158142,-11.472999572753906 0.16899999976158142,-11.472999572753906 C0.16899999976158142,-11.472999572753906 -3.513000011444092,11.472999572753906 -3.513000011444092,11.472999572753906 C-3.513000011444092,11.472999572753906 3.513000011444092,3.8919999599456787 3.513000011444092,3.8919999599456787 C3.513000011444092,3.8919999599456787 1.3619999885559082,1.6740000247955322 1.3619999885559082,1.6740000247955322z"></path></g><g opacity="1" transform="matrix(1,0,0,1,109.6510009765625,39.20500183105469)"><path fill="rgb(186,202,222)" fill-opacity="1" d=" M25.089000701904297,4.010000228881836 C25.089000701904297,4.010000228881836 27.725000381469727,2.171999931335449 27.725000381469727,2.171999931335449 C27.725000381469727,2.171999931335449 27.725000381469727,1.4570000171661377 27.725000381469727,1.4570000171661377 C27.725000381469727,1.4570000171661377 -27.725000381469727,-4.010000228881836 -27.725000381469727,-4.010000228881836 C-27.725000381469727,-4.010000228881836 -27.725000381469727,-3.2960000038146973 -27.725000381469727,-3.2960000038146973 C-27.725000381469727,-3.2960000038146973 -23.79599952697754,0.05299999937415123 -23.79599952697754,0.05299999937415123 C-23.79599952697754,0.05299999937415123 25.089000701904297,4.010000228881836 25.089000701904297,4.010000228881836z"></path></g><g opacity="1" transform="matrix(1,0,0,1,83.0979995727539,42.34700012207031)"><path fill="rgb(230,235,246)" fill-opacity="1" d=" M3.01200008392334,-3.6760001182556152 C3.01200008392334,-3.6760001182556152 -3.696000099182129,3.6760001182556152 -3.696000099182129,3.6760001182556152 C-3.696000099182129,3.6760001182556152 -2.503000020980835,3.6760001182556152 -2.503000020980835,3.6760001182556152 C-2.503000020980835,3.6760001182556152 3.696000099182129,-3.618000030517578 3.696000099182129,-3.618000030517578 C3.696000099182129,-3.618000030517578 3.01200008392334,-3.6760001182556152 3.01200008392334,-3.6760001182556152z"></path></g><g opacity="1" transform="matrix(1,0,0,1,135.12399291992188,44.099998474121094)"><path fill="rgb(230,235,246)" fill-opacity="1" d=" M-1.5859999656677246,-1.4589999914169312 C-1.5859999656677246,-1.4589999914169312 0.8500000238418579,1.4470000267028809 0.8500000238418579,1.4470000267028809 C0.8500000238418579,1.4470000267028809 1.5859999656677246,1.4589999914169312 1.5859999656677246,1.4589999914169312 C1.5859999656677246,1.4589999914169312 -1.1820000410079956,-1.4259999990463257 -1.1820000410079956,-1.4259999990463257 C-1.1820000410079956,-1.4259999990463257 -1.5859999656677246,-1.4589999914169312 -1.5859999656677246,-1.4589999914169312z"></path></g><g opacity="1" transform="matrix(1,0,0,1,133.11000061035156,44.49100112915039)"><path fill="rgb(230,235,246)" fill-opacity="1" d=" M-2.0139999389648438,-2.055000066757202 C-2.0139999389648438,-2.055000066757202 0.7789999842643738,1.5880000591278076 0.7789999842643738,1.5880000591278076 C0.7789999842643738,1.5880000591278076 2.0139999389648438,2.055000066757202 2.0139999389648438,2.055000066757202 C2.0139999389648438,2.055000066757202 -1.465999960899353,-2.007999897003174 -1.465999960899353,-2.007999897003174 C-1.465999960899353,-2.007999897003174 -2.0139999389648438,-2.055000066757202 -2.0139999389648438,-2.055000066757202z"></path></g><g opacity="1" transform="matrix(1,0,0,1,130.07699584960938,44.11000061035156)"><path fill="rgb(230,235,246)" fill-opacity="1" d=" M-1.6759999990463257,-1.8990000486373901 C-1.6759999990463257,-1.8990000486373901 0.7889999747276306,1.8009999990463257 0.7889999747276306,1.8009999990463257 C0.7889999747276306,1.8009999990463257 1.6759999990463257,1.8990000486373901 1.6759999990463257,1.8990000486373901 C1.6759999990463257,1.8990000486373901 -1.1699999570846558,-1.8569999933242798 -1.1699999570846558,-1.8569999933242798 C-1.1699999570846558,-1.8569999933242798 -1.6759999990463257,-1.8990000486373901 -1.6759999990463257,-1.8990000486373901z"></path></g><g opacity="1" transform="matrix(1,0,0,1,126.16799926757812,43.9379997253418)"><path fill="rgb(230,235,246)" fill-opacity="1" d=" M-1.4980000257492065,-2.0390000343322754 C-1.4980000257492065,-2.0390000343322754 0.6830000281333923,1.9730000495910645 0.6830000281333923,1.9730000495910645 C0.6830000281333923,1.9730000495910645 1.4980000257492065,2.0390000343322754 1.4980000257492065,2.0390000343322754 C1.4980000257492065,2.0390000343322754 -0.9860000014305115,-1.996000051498413 -0.9860000014305115,-1.996000051498413 C-0.9860000014305115,-1.996000051498413 -1.4980000257492065,-2.0390000343322754 -1.4980000257492065,-2.0390000343322754z"></path></g><g opacity="1" transform="matrix(1,0,0,1,121.65699768066406,43.777000427246094)"><path fill="rgb(230,235,246)" fill-opacity="1" d=" M-1.3569999933242798,-2.244999885559082 C-1.3569999933242798,-2.244999885559082 0.3440000116825104,2.1110000610351562 0.3440000116825104,2.1110000610351562 C0.3440000116825104,2.1110000610351562 1.3569999933242798,2.244999885559082 1.3569999933242798,2.244999885559082 C1.3569999933242798,2.244999885559082 -0.7419999837875366,-2.197000026702881 -0.7419999837875366,-2.197000026702881 C-0.7419999837875366,-2.197000026702881 -1.3569999933242798,-2.244999885559082 -1.3569999933242798,-2.244999885559082z"></path></g><g opacity="1" transform="matrix(1,0,0,1,116.95999908447266,44.43000030517578)"><path fill="rgb(230,235,246)" fill-opacity="1" d=" M-1.5180000066757202,-3.303999900817871 C-1.5180000066757202,-3.303999900817871 0.3070000112056732,3.303999900817871 0.3070000112056732,3.303999900817871 C0.3070000112056732,3.303999900817871 1.5180000066757202,3.303999900817871 1.5180000066757202,3.303999900817871 C1.5180000066757202,3.303999900817871 -0.984000027179718,-3.257999897003174 -0.984000027179718,-3.257999897003174 C-0.984000027179718,-3.257999897003174 -1.5180000066757202,-3.303999900817871 -1.5180000066757202,-3.303999900817871z"></path></g><g opacity="1" transform="matrix(1,0,0,1,111.26300048828125,44.391998291015625)"><path fill="rgb(230,235,246)" fill-opacity="1" d=" M-0.9300000071525574,-3.693000078201294 C-0.9300000071525574,-3.693000078201294 -0.4449999928474426,3.693000078201294 -0.4449999928474426,3.693000078201294 C-0.4449999928474426,3.693000078201294 0.9300000071525574,2.9630000591278076 0.9300000071525574,2.9630000591278076 C0.9300000071525574,2.9630000591278076 -0.2849999964237213,-3.6389999389648438 -0.2849999964237213,-3.6389999389648438 C-0.2849999964237213,-3.6389999389648438 -0.9300000071525574,-3.693000078201294 -0.9300000071525574,-3.693000078201294z"></path></g><g opacity="1" transform="matrix(1,0,0,1,99.75199890136719,42.94900131225586)"><path fill="rgb(230,235,246)" fill-opacity="1" d=" M0.7570000290870667,-3.072999954223633 C0.7570000290870667,-3.072999954223633 -1.406000018119812,3.0429999828338623 -1.406000018119812,3.0429999828338623 C-1.406000018119812,3.0429999828338623 -0.22699999809265137,3.072999954223633 -0.22699999809265137,3.072999954223633 C-0.22699999809265137,3.072999954223633 1.406000018119812,-3.0179998874664307 1.406000018119812,-3.0179998874664307 C1.406000018119812,-3.0179998874664307 0.7570000290870667,-3.072999954223633 0.7570000290870667,-3.072999954223633z"></path></g><g opacity="1" transform="matrix(1,0,0,1,94.75199890136719,42.77399826049805)"><path fill="rgb(230,235,246)" fill-opacity="1" d=" M1.5579999685287476,-3.249000072479248 C1.5579999685287476,-3.249000072479248 -2.1730000972747803,3.249000072479248 -2.1730000972747803,3.249000072479248 C-2.1730000972747803,3.249000072479248 -0.9850000143051147,3.2170000076293945 -0.9850000143051147,3.2170000076293945 C-0.9850000143051147,3.2170000076293945 2.1730000972747803,-3.197000026702881 2.1730000972747803,-3.197000026702881 C2.1730000972747803,-3.197000026702881 1.5579999685287476,-3.249000072479248 1.5579999685287476,-3.249000072479248z"></path></g><g opacity="1" transform="matrix(1,0,0,1,90.50900268554688,42.707000732421875)"><path fill="rgb(230,235,246)" fill-opacity="1" d=" M2.132999897003174,-3.489000082015991 C2.132999897003174,-3.489000082015991 -2.7730000019073486,3.489000082015991 -2.7730000019073486,3.489000082015991 C-2.7730000019073486,3.489000082015991 -1.465999960899353,3.489000082015991 -1.465999960899353,3.489000082015991 C-1.465999960899353,3.489000082015991 2.7730000019073486,-3.434999942779541 2.7730000019073486,-3.434999942779541 C2.7730000019073486,-3.434999942779541 2.132999897003174,-3.489000082015991 2.132999897003174,-3.489000082015991z"></path></g><g opacity="1" transform="matrix(1,0,0,1,86.48200225830078,42.67599868774414)"><path fill="rgb(230,235,246)" fill-opacity="1" d=" M2.4059998989105225,-3.7730000019073486 C2.4059998989105225,-3.7730000019073486 -3.325000047683716,3.7730000019073486 -3.325000047683716,3.7730000019073486 C-3.325000047683716,3.7730000019073486 -1.6729999780654907,3.249000072479248 -1.6729999780654907,3.249000072479248 C-1.6729999780654907,3.249000072479248 3.325000047683716,-3.694999933242798 3.325000047683716,-3.694999933242798 C3.325000047683716,-3.694999933242798 2.4059998989105225,-3.7730000019073486 2.4059998989105225,-3.7730000019073486z"></path></g><g opacity="1" transform="matrix(1,0,0,1,109.6520004272461,38.28499984741211)"><path fill="rgb(230,235,246)" fill-opacity="1" d=" M27.725000381469727,3.0910000801086426 C27.725000381469727,3.0910000801086426 -27.725000381469727,-2.375999927520752 -27.725000381469727,-2.375999927520752 C-27.725000381469727,-2.375999927520752 -27.725000381469727,-3.0910000801086426 -27.725000381469727,-3.0910000801086426 C-27.725000381469727,-3.0910000801086426 27.725000381469727,2.377000093460083 27.725000381469727,2.377000093460083 C27.725000381469727,2.377000093460083 27.725000381469727,3.0910000801086426 27.725000381469727,3.0910000801086426z"></path></g><g opacity="1" transform="matrix(1,0,0,1,100.54900360107422,67.11699676513672)"><path fill="rgb(186,202,222)" fill-opacity="1" d=" M45.95500183105469,-16.253000259399414 C45.95500183105469,-16.253000259399414 49.41999816894531,-9.161999702453613 49.41999816894531,-9.161999702453613 C49.41999816894531,-9.161999702453613 75.7239990234375,6.735000133514404 75.7239990234375,6.735000133514404 C75.7239990234375,6.735000133514404 75.7239990234375,18.860000610351562 75.7239990234375,18.860000610351562 C75.7239990234375,18.860000610351562 -75.7239990234375,18.860000610351562 -75.7239990234375,18.860000610351562 C-75.7239990234375,18.860000610351562 -75.7239990234375,15.281999588012695 -75.7239990234375,15.281999588012695 C-75.7239990234375,15.281999588012695 -23.23699951171875,-16.253000259399414 -23.23699951171875,-16.253000259399414 C-23.23699951171875,-16.253000259399414 -22.416000366210938,-18.860000610351562 -22.416000366210938,-18.860000610351562 C-22.416000366210938,-18.860000610351562 33.95100021362305,-18.860000610351562 33.95100021362305,-18.860000610351562 C33.95100021362305,-18.860000610351562 45.95500183105469,-16.253000259399414 45.95500183105469,-16.253000259399414z"></path></g><g opacity="1" transform="matrix(1,0,0,1,53.98899841308594,55.07899856567383)"><path fill="rgb(17,128,195)" fill-opacity="1" d=" M16.68000030517578,-18.533000946044922 C16.68000030517578,-18.533000946044922 13.29800033569336,-1.4600000381469727 13.29800033569336,-1.4600000381469727 C13.29800033569336,-1.4600000381469727 -20.533000946044922,16.927000045776367 -20.533000946044922,16.927000045776367 C-20.533000946044922,16.927000045776367 -18.569000244140625,18.533000946044922 -18.569000244140625,18.413000106811523 C-18.569000244140625,18.29199981689453 19.16900062561035,-2.2750000953674316 19.208999633789062,-2.4100000858306885 C19.249000549316406,-2.5439999103546143 20.533000946044922,-6.830999851226807 20.533000946044922,-6.830999851226807 C20.533000946044922,-6.830999851226807 17.843000411987305,-8.756999969482422 17.843000411987305,-8.756999969482422 C17.843000411987305,-8.756999969482422 17.22800064086914,-14.076000213623047 17.22800064086914,-14.076000213623047 C17.22800064086914,-14.076000213623047 16.68000030517578,-18.533000946044922 16.68000030517578,-18.533000946044922z"></path></g><g opacity="1" transform="matrix(1,0,0,1,109.53099822998047,49.3129997253418)"><path fill="rgb(17,128,195)" fill-opacity="1" d=" M-34.68899917602539,2.005000114440918 C-34.68899917602539,2.005000114440918 -31.283000946044922,-1.5800000429153442 -31.283000946044922,-1.5800000429153442 C-31.283000946044922,-1.5800000429153442 -32.191001892089844,-2.5769999027252197 -32.191001892089844,-2.5769999027252197 C-32.191001892089844,-2.5769999027252197 34.16600036621094,-3.424999952316284 34.16600036621094,-3.424999952316284 C34.16600036621094,-3.424999952316284 34.68899917602539,3.424999952316284 34.68899917602539,3.424999952316284 C34.68899917602539,3.424999952316284 -33.3650016784668,3.424999952316284 -33.3650016784668,3.424999952316284 C-33.3650016784668,3.424999952316284 -34.68899917602539,2.005000114440918 -34.68899917602539,2.005000114440918z"></path></g><g opacity="1" transform="matrix(1,0,0,1,108.56900024414062,48.02799987792969)"><path fill="rgb(186,202,222)" fill-opacity="1" d=" M-33.72700119018555,2.378999948501587 C-33.72700119018555,2.378999948501587 -36.36199951171875,-1.184999942779541 -36.36199951171875,-1.184999942779541 C-36.36199951171875,-1.184999942779541 -36.36199951171875,-2.2019999027252197 -36.36199951171875,-2.2019999027252197 C-36.36199951171875,-2.2019999027252197 35.66999816894531,-3.061000108718872 35.66999816894531,-3.061000108718872 C35.66999816894531,-3.061000108718872 36.36199951171875,3.061000108718872 36.36199951171875,3.061000108718872 C36.36199951171875,3.061000108718872 -32.40299987792969,3.061000108718872 -32.40299987792969,3.061000108718872 C-32.40299987792969,3.061000108718872 -33.72700119018555,2.378999948501587 -33.72700119018555,2.378999948501587z"></path></g><g opacity="1" transform="matrix(1,0,0,1,51.5620002746582,54.362998962402344)"><path fill="rgb(230,235,246)" fill-opacity="1" d=" M19.10700035095215,-17.81599998474121 C19.10700035095215,-17.81599998474121 14.755999565124512,-0.7440000176429749 14.755999565124512,-0.7440000176429749 C14.755999565124512,-0.7440000176429749 -19.10700035095215,17.64299964904785 -19.10700035095215,17.64299964904785 C-19.10700035095215,17.64299964904785 -18.06599998474121,17.711000442504883 -18.00200080871582,17.81599998474121 C-18.00200080871582,17.81599998474121 16.076000213623047,-0.7440000176429749 16.076000213623047,-0.7440000176429749 C16.076000213623047,-0.7440000176429749 19.10700035095215,-17.81599998474121 19.10700035095215,-17.81599998474121z"></path></g><g opacity="1" transform="matrix(1,0,0,1,160.13800048828125,67.14299774169922)"><path fill="rgb(17,128,195)" fill-opacity="1" d=" M-27.163000106811523,-17.070999145507812 C-27.163000106811523,-17.070999145507812 27.701000213623047,17.070999145507812 27.701000213623047,17.070999145507812 C27.701000213623047,17.070999145507812 23.736000061035156,17.070999145507812 23.736000061035156,17.070999145507812 C23.736000061035156,17.070999145507812 -27.701000213623047,-15.777999877929688 -27.701000213623047,-15.777999877929688 C-27.701000213623047,-15.777999877929688 -27.163000106811523,-17.070999145507812 -27.163000106811523,-17.070999145507812z"></path></g><g opacity="1" transform="matrix(1,0,0,1,160.6510009765625,55.07899856567383)"><path fill="rgb(17,128,195)" fill-opacity="1" d=" M-16.679000854492188,-18.533000946044922 C-16.679000854492188,-18.533000946044922 -13.29800033569336,-1.4600000381469727 -13.29800033569336,-1.4600000381469727 C-13.29800033569336,-1.4600000381469727 20.533000946044922,16.927000045776367 20.533000946044922,16.927000045776367 C20.533000946044922,16.927000045776367 18.569000244140625,18.533000946044922 18.569000244140625,18.413000106811523 C18.569000244140625,18.29199981689453 -19.16900062561035,-2.2750000953674316 -19.208999633789062,-2.4100000858306885 C-19.249000549316406,-2.5439999103546143 -20.533000946044922,-6.830999851226807 -20.533000946044922,-6.830999851226807 C-20.533000946044922,-6.830999851226807 -17.843000411987305,-8.756999969482422 -17.843000411987305,-8.756999969482422 C-17.843000411987305,-8.756999969482422 -17.22800064086914,-14.076000213623047 -17.22800064086914,-14.076000213623047 C-17.22800064086914,-14.076000213623047 -16.679000854492188,-18.533000946044922 -16.679000854492188,-18.533000946044922z"></path></g><g opacity="1" transform="matrix(1,0,0,1,106.5459976196289,45.92499923706055)"><path fill="rgb(230,235,246)" fill-opacity="1" d=" M-34.3390007019043,0.9179999828338623 C-34.3390007019043,0.9179999828338623 34.3390007019043,0.0989999994635582 34.3390007019043,0.0989999994635582 C34.3390007019043,0.0989999994635582 34.22600173950195,-0.9179999828338623 34.22600173950195,-0.9179999828338623 C34.22600173950195,-0.9179999828338623 -34.3390007019043,-0.10000000149011612 -34.3390007019043,-0.10000000149011612 C-34.3390007019043,-0.10000000149011612 -34.3390007019043,0.9179999828338623 -34.3390007019043,0.9179999828338623z"></path></g><g opacity="1" transform="matrix(1,0,0,1,163.07899475097656,54.362998962402344)"><path fill="rgb(230,235,246)" fill-opacity="1" d=" M-19.10700035095215,-17.81599998474121 C-19.10700035095215,-17.81599998474121 -14.755999565124512,-0.7440000176429749 -14.755999565124512,-0.7440000176429749 C-14.755999565124512,-0.7440000176429749 19.10700035095215,17.64299964904785 19.10700035095215,17.64299964904785 C19.10700035095215,17.64299964904785 18.06599998474121,17.711000442504883 18.00200080871582,17.81599998474121 C18.00200080871582,17.81599998474121 -16.076000213623047,-0.7440000176429749 -16.076000213623047,-0.7440000176429749 C-16.076000213623047,-0.7440000176429749 -19.10700035095215,-17.81599998474121 -19.10700035095215,-17.81599998474121z"></path></g><g opacity="1" transform="matrix(1,0,0,1,157.31300354003906,55.72200012207031)"><path fill="rgb(186,202,222)" fill-opacity="1" d=" M-16.951000213623047,-20.2189998626709 C-16.951000213623047,-20.2189998626709 -13.619999885559082,-2.1429998874664307 -13.619999885559082,-2.1429998874664307 C-13.619999885559082,-2.1429998874664307 22.312000274658203,18.371999740600586 22.312000274658203,18.371999740600586 C22.312000274658203,18.371999740600586 17.775999069213867,20.2189998626709 17.775999069213867,20.2189998626709 C17.775999069213867,20.2189998626709 -19.922000885009766,-2.744999885559082 -19.922000885009766,-2.744999885559082 C-19.922000885009766,-2.744999885559082 -22.312000274658203,-4.644000053405762 -22.312000274658203,-4.644000053405762 C-22.312000274658203,-4.644000053405762 -17.55500030517578,-8.91100025177002 -17.55500030517578,-8.91100025177002 C-17.55500030517578,-8.91100025177002 -17.55500030517578,-10.70199966430664 -17.55500030517578,-10.70199966430664 C-17.55500030517578,-10.70199966430664 -18.347999572753906,-10.692000389099121 -18.347999572753906,-10.692000389099121 C-18.347999572753906,-10.692000389099121 -16.951000213623047,-20.2189998626709 -16.951000213623047,-20.2189998626709z"></path></g><g opacity="1" transform="matrix(1,0,0,1,160.4929962158203,54.87699890136719)"><path fill="rgb(230,235,246)" fill-opacity="1" d=" M-20.131999969482422,-19.374000549316406 C-20.131999969482422,-19.374000549316406 -15.727999687194824,-1.2580000162124634 -15.727999687194824,-1.2580000162124634 C-15.727999687194824,-1.2580000162124634 20.131999969482422,19.216999053955078 20.131999969482422,19.216999053955078 C20.131999969482422,19.216999053955078 18.746000289916992,19.374000549316406 18.746000289916992,19.374000549316406 C18.746000289916992,19.374000549316406 -17.32200050354004,-1.2580000162124634 -17.32200050354004,-1.2580000162124634 C-17.32200050354004,-1.2580000162124634 -20.131999969482422,-19.374000549316406 -20.131999969482422,-19.374000549316406z"></path></g><g opacity="1" transform="matrix(1,0,0,1,161.6490020751953,67.14299774169922)"><path fill="rgb(230,235,246)" fill-opacity="1" d=" M-27.819000244140625,-17.069000244140625 C-27.819000244140625,-17.069000244140625 28.67300033569336,16.961999893188477 28.67300033569336,16.961999893188477 C28.67300033569336,16.961999893188477 25.823999404907227,17.06999969482422 25.823999404907227,17.06999969482422 C25.823999404907227,17.06999969482422 -28.67300033569336,-17.06999969482422 -28.67300033569336,-17.06999969482422 C-28.67300033569336,-17.06999969482422 -27.819000244140625,-17.069000244140625 -27.819000244140625,-17.069000244140625z"></path></g><g opacity="1" transform="matrix(1,0,0,1,73.04100036621094,67.30699920654297)"><path fill="rgb(17,128,195)" fill-opacity="1" d=" M18.35099983215332,-17.235000610351562 C18.35099983215332,-17.235000610351562 -19.02400016784668,17.235000610351562 -19.02400016784668,17.235000610351562 C-19.02400016784668,17.235000610351562 -14.173999786376953,17.235000610351562 -14.173999786376953,17.235000610351562 C-14.173999786376953,17.235000610351562 19.02400016784668,-15.942999839782715 19.02400016784668,-15.942999839782715 C19.02400016784668,-15.942999839782715 18.35099983215332,-17.235000610351562 18.35099983215332,-17.235000610351562z"></path></g><g opacity="1" transform="matrix(1,0,0,1,71.92500305175781,67.10299682617188)"><path fill="rgb(230,235,246)" fill-opacity="1" d=" M18.007999420166016,-17.0310001373291 C18.007999420166016,-17.0310001373291 -19.465999603271484,16.94499969482422 -19.465999603271484,16.94499969482422 C-19.465999603271484,16.94499969482422 -15.668999671936035,17.0310001373291 -15.668999671936035,17.0310001373291 C-15.668999671936035,17.0310001373291 19.465999603271484,-17.0310001373291 19.465999603271484,-17.0310001373291 C19.465999603271484,-17.0310001373291 18.007999420166016,-17.0310001373291 18.007999420166016,-17.0310001373291z"></path></g><g opacity="1" transform="matrix(1,0,0,1,57.327999114990234,55.72200012207031)"><path fill="rgb(186,202,222)" fill-opacity="1" d=" M16.95199966430664,-20.2189998626709 C16.95199966430664,-20.2189998626709 13.619000434875488,-2.1429998874664307 13.619000434875488,-2.1429998874664307 C13.619000434875488,-2.1429998874664307 -22.31100082397461,18.371999740600586 -22.31100082397461,18.371999740600586 C-22.31100082397461,18.371999740600586 -17.775999069213867,20.2189998626709 -17.775999069213867,20.2189998626709 C-17.775999069213867,20.2189998626709 19.922000885009766,-2.744999885559082 19.922000885009766,-2.744999885559082 C19.922000885009766,-2.744999885559082 22.31100082397461,-4.644000053405762 22.31100082397461,-4.644000053405762 C22.31100082397461,-4.644000053405762 17.554000854492188,-8.91100025177002 17.554000854492188,-8.91100025177002 C17.554000854492188,-8.91100025177002 17.554000854492188,-9.928999900817871 17.554000854492188,-9.928999900817871 C17.554000854492188,-9.928999900817871 18.457000732421875,-9.939000129699707 18.457000732421875,-9.939000129699707 C18.457000732421875,-9.939000129699707 16.95199966430664,-20.2189998626709 16.95199966430664,-20.2189998626709z"></path></g><g opacity="1" transform="matrix(1,0,0,1,54.50199890136719,67.14299774169922)"><path fill="rgb(17,128,195)" fill-opacity="1" d=" M27.163000106811523,-17.070999145507812 C27.163000106811523,-17.070999145507812 -27.701000213623047,17.070999145507812 -27.701000213623047,17.070999145507812 C-27.701000213623047,17.070999145507812 -23.736000061035156,17.070999145507812 -23.736000061035156,17.070999145507812 C-23.736000061035156,17.070999145507812 27.701000213623047,-15.777999877929688 27.701000213623047,-15.777999877929688 C27.701000213623047,-15.777999877929688 27.163000106811523,-17.070999145507812 27.163000106811523,-17.070999145507812z"></path></g><g opacity="1" transform="matrix(1,0,0,1,52.992000579833984,67.14299774169922)"><path fill="rgb(230,235,246)" fill-opacity="1" d=" M27.81999969482422,-17.069000244140625 C27.81999969482422,-17.069000244140625 -28.67300033569336,16.961999893188477 -28.67300033569336,16.961999893188477 C-28.67300033569336,16.961999893188477 -25.823999404907227,17.06999969482422 -25.823999404907227,17.06999969482422 C-25.823999404907227,17.06999969482422 28.67300033569336,-17.06999969482422 28.67300033569336,-17.06999969482422 C28.67300033569336,-17.06999969482422 27.81999969482422,-17.069000244140625 27.81999969482422,-17.069000244140625z"></path></g><g opacity="1" transform="matrix(1,0,0,1,63.62699890136719,67.14299774169922)"><path fill="rgb(17,128,195)" fill-opacity="1" d=" M22.090999603271484,-17.070999145507812 C22.090999603271484,-17.070999145507812 -22.70599937438965,17.070999145507812 -22.70599937438965,17.070999145507812 C-22.70599937438965,17.070999145507812 -18.197999954223633,17.070999145507812 -18.197999954223633,17.070999145507812 C-18.197999954223633,17.070999145507812 22.70599937438965,-15.777999877929688 22.70599937438965,-15.777999877929688 C22.70599937438965,-15.777999877929688 22.090999603271484,-17.070999145507812 22.090999603271484,-17.070999145507812z"></path></g><g opacity="1" transform="matrix(1,0,0,1,62.143001556396484,67.14299774169922)"><path fill="rgb(230,235,246)" fill-opacity="1" d=" M22.575000762939453,-17.070999145507812 C22.575000762939453,-17.070999145507812 -23.575000762939453,17.070999145507812 -23.575000762939453,17.070999145507812 C-23.575000762939453,17.070999145507812 -19.77400016784668,16.89900016784668 -19.77400016784668,16.89900016784668 C-19.77400016784668,16.89900016784668 23.575000762939453,-17.070999145507812 23.575000762939453,-17.070999145507812 C23.575000762939453,-17.070999145507812 22.575000762939453,-17.070999145507812 22.575000762939453,-17.070999145507812z"></path></g><g opacity="1" transform="matrix(1,0,0,1,54.14699935913086,54.87699890136719)"><path fill="rgb(230,235,246)" fill-opacity="1" d=" M20.131999969482422,-19.374000549316406 C20.131999969482422,-19.374000549316406 15.727999687194824,-1.2580000162124634 15.727999687194824,-1.2580000162124634 C15.727999687194824,-1.2580000162124634 -20.131999969482422,19.216999053955078 -20.131999969482422,19.216999053955078 C-20.131999969482422,19.216999053955078 -18.746000289916992,19.374000549316406 -18.746000289916992,19.374000549316406 C-18.746000289916992,19.374000549316406 17.32200050354004,-1.2580000162124634 17.32200050354004,-1.2580000162124634 C17.32200050354004,-1.2580000162124634 20.131999969482422,-19.374000549316406 20.131999969482422,-19.374000549316406z"></path></g><g opacity="1" transform="matrix(1,0,0,1,99.52400207519531,57.571998596191406)"><path fill="rgb(17,128,195)" fill-opacity="1" d=" M4.300000190734863,-5.639999866485596 C4.300000190734863,-5.639999866485596 -6.374000072479248,26.277999877929688 -6.374000072479248,26.277999877929688 C-6.374000072479248,26.277999877929688 -0.6079999804496765,26.656999588012695 -0.6079999804496765,26.656999588012695 C-0.6079999804496765,26.656999588012695 6.374000072479248,-6.208000183105469 6.374000072479248,-6.208000183105469 C6.374000072479248,-6.208000183105469 5.2769999504089355,-26.656999588012695 5.2769999504089355,-26.656999588012695 C5.2769999504089355,-26.656999588012695 4.300000190734863,-5.639999866485596 4.300000190734863,-5.639999866485596z"></path></g><g opacity="1" transform="matrix(1,0,0,1,98.26100158691406,57.66299819946289)"><path fill="rgb(230,235,246)" fill-opacity="1" d=" M4.563000202178955,-6.73199987411499 C4.563000202178955,-6.73199987411499 -6.539999961853027,26.47100067138672 -6.539999961853027,26.47100067138672 C-6.539999961853027,26.47100067138672 -1.6339999437332153,26.746999740600586 -1.6339999437332153,26.746999740600586 C-1.6339999437332153,26.746999740600586 6.517000198364258,-6.73199987411499 6.517000198364258,-6.73199987411499 C6.517000198364258,-6.73199987411499 6.539999961853027,-26.746999740600586 6.539999961853027,-26.746999740600586 C6.539999961853027,-26.746999740600586 4.563000202178955,-6.73199987411499 4.563000202178955,-6.73199987411499z"></path></g><g opacity="1" transform="matrix(1,0,0,1,86.21700286865234,57.571998596191406)"><path fill="rgb(17,128,195)" fill-opacity="1" d=" M10.680999755859375,-5.639999866485596 C10.680999755859375,-5.639999866485596 -12.909000396728516,26.641000747680664 -12.909000396728516,26.641000747680664 C-12.909000396728516,26.641000747680664 -7.14300012588501,26.656999588012695 -7.14300012588501,26.656999588012695 C-7.14300012588501,26.656999588012695 12.909000396728516,-6.208000183105469 12.909000396728516,-6.208000183105469 C12.909000396728516,-6.208000183105469 12.564000129699707,-26.656999588012695 12.564000129699707,-26.656999588012695 C12.564000129699707,-26.656999588012695 10.680999755859375,-5.639999866485596 10.680999755859375,-5.639999866485596z"></path></g><g opacity="1" transform="matrix(1,0,0,1,85.1719970703125,57.66400146484375)"><path fill="rgb(230,235,246)" fill-opacity="1" d=" M10.725000381469727,-6.73199987411499 C10.725000381469727,-6.73199987411499 -13.607999801635742,26.565000534057617 -13.607999801635742,26.565000534057617 C-13.607999801635742,26.565000534057617 -8.859999656677246,26.74799919128418 -8.859999656677246,26.74799919128418 C-8.859999656677246,26.74799919128418 12.607999801635742,-6.73199987411499 12.607999801635742,-6.73199987411499 C12.607999801635742,-6.73199987411499 13.607999801635742,-26.74799919128418 13.607999801635742,-26.74799919128418 C13.607999801635742,-26.74799919128418 10.725000381469727,-6.73199987411499 10.725000381469727,-6.73199987411499z"></path></g><g opacity="1" transform="matrix(1,0,0,1,143.125,67.30699920654297)"><path fill="rgb(17,128,195)" fill-opacity="1" d=" M-18.35099983215332,-17.235000610351562 C-18.35099983215332,-17.235000610351562 19.02400016784668,17.235000610351562 19.02400016784668,17.235000610351562 C19.02400016784668,17.235000610351562 14.17300033569336,17.235000610351562 14.17300033569336,17.235000610351562 C14.17300033569336,17.235000610351562 -19.02400016784668,-15.942999839782715 -19.02400016784668,-15.942999839782715 C-19.02400016784668,-15.942999839782715 -18.35099983215332,-17.235000610351562 -18.35099983215332,-17.235000610351562z"></path></g><g opacity="1" transform="matrix(1,0,0,1,144.24000549316406,67.10299682617188)"><path fill="rgb(230,235,246)" fill-opacity="1" d=" M-18.006999969482422,-17.0310001373291 C-18.006999969482422,-17.0310001373291 19.466999053955078,16.94499969482422 19.466999053955078,16.94499969482422 C19.466999053955078,16.94499969482422 15.668000221252441,17.0310001373291 15.668000221252441,17.0310001373291 C15.668000221252441,17.0310001373291 -19.466999053955078,-17.0310001373291 -19.466999053955078,-17.0310001373291 C-19.466999053955078,-17.0310001373291 -18.006999969482422,-17.0310001373291 -18.006999969482422,-17.0310001373291z"></path></g><g opacity="1" transform="matrix(1,0,0,1,152.53799438476562,67.14299774169922)"><path fill="rgb(17,128,195)" fill-opacity="1" d=" M-22.09000015258789,-17.070999145507812 C-22.09000015258789,-17.070999145507812 22.70599937438965,17.070999145507812 22.70599937438965,17.070999145507812 C22.70599937438965,17.070999145507812 18.198999404907227,17.070999145507812 18.198999404907227,17.070999145507812 C18.198999404907227,17.070999145507812 -22.70599937438965,-15.777999877929688 -22.70599937438965,-15.777999877929688 C-22.70599937438965,-15.777999877929688 -22.09000015258789,-17.070999145507812 -22.09000015258789,-17.070999145507812z"></path></g><g opacity="1" transform="matrix(1,0,0,1,154.02200317382812,67.14299774169922)"><path fill="rgb(230,235,246)" fill-opacity="1" d=" M-22.573999404907227,-17.070999145507812 C-22.573999404907227,-17.070999145507812 23.573999404907227,17.070999145507812 23.573999404907227,17.070999145507812 C23.573999404907227,17.070999145507812 19.77400016784668,16.89900016784668 19.77400016784668,16.89900016784668 C19.77400016784668,16.89900016784668 -23.573999404907227,-17.070999145507812 -23.573999404907227,-17.070999145507812 C-23.573999404907227,-17.070999145507812 -22.573999404907227,-17.070999145507812 -22.573999404907227,-17.070999145507812z"></path></g><g opacity="1" transform="matrix(1,0,0,1,116.63999938964844,67.1510009765625)"><path fill="rgb(17,128,195)" fill-opacity="1" d=" M-5.460999965667725,-17.07900047302246 C-5.460999965667725,-17.07900047302246 6.375,16.698999404907227 6.375,16.698999404907227 C6.375,16.698999404907227 0.609000027179718,17.07900047302246 0.609000027179718,17.07900047302246 C0.609000027179718,17.07900047302246 -6.375,-15.78600025177002 -6.375,-15.78600025177002 C-6.375,-15.78600025177002 -5.460999965667725,-17.07900047302246 -5.460999965667725,-17.07900047302246z"></path></g><g opacity="1" transform="matrix(1,0,0,1,117.81199645996094,67.24199676513672)"><path fill="rgb(230,235,246)" fill-opacity="1" d=" M-4.756999969482422,-17.170000076293945 C-4.756999969482422,-17.170000076293945 6.633999824523926,16.891000747680664 6.633999824523926,16.891000747680664 C6.633999824523926,16.891000747680664 1.7259999513626099,17.170000076293945 1.7259999513626099,17.170000076293945 C1.7259999513626099,17.170000076293945 -6.633999824523926,-17.170000076293945 -6.633999824523926,-17.170000076293945 C-6.633999824523926,-17.170000076293945 -4.756999969482422,-17.170000076293945 -4.756999969482422,-17.170000076293945z"></path></g><g opacity="1" transform="matrix(1,0,0,1,129.947998046875,67.1510009765625)"><path fill="rgb(17,128,195)" fill-opacity="1" d=" M-12.11299991607666,-17.07900047302246 C-12.11299991607666,-17.07900047302246 12.90999984741211,17.062999725341797 12.90999984741211,17.062999725341797 C12.90999984741211,17.062999725341797 7.144000053405762,17.07900047302246 7.144000053405762,17.07900047302246 C7.144000053405762,17.07900047302246 -12.90999984741211,-15.78600025177002 -12.90999984741211,-15.78600025177002 C-12.90999984741211,-15.78600025177002 -12.11299991607666,-17.07900047302246 -12.11299991607666,-17.07900047302246z"></path></g><g opacity="1" transform="matrix(1,0,0,1,131.21800231933594,67.24199676513672)"><path fill="rgb(230,235,246)" fill-opacity="1" d=" M-11.57800006866455,-17.170000076293945 C-11.57800006866455,-17.170000076293945 13.383000373840332,16.98699951171875 13.383000373840332,16.98699951171875 C13.383000373840332,16.98699951171875 8.635000228881836,17.170000076293945 8.635000228881836,17.170000076293945 C8.635000228881836,17.170000076293945 -13.383000373840332,-17.170000076293945 -13.383000373840332,-17.170000076293945 C-13.383000373840332,-17.170000076293945 -11.57800006866455,-17.170000076293945 -11.57800006866455,-17.170000076293945z"></path></g></g><g mask="url(#__lottie_element_996)" style="display: block;"><g transform="matrix(1.8059998750686646,0,0,1.8059998750686646,-43.85599136352539,-0.019994020462036133)" opacity="1"><g opacity="1" transform="matrix(1,0,0,1,51.5620002746582,54.362998962402344)"><path fill="rgb(255,255,255)" fill-opacity="1" d=" M19.10700035095215,-17.81599998474121 C19.10700035095215,-17.81599998474121 14.755999565124512,-0.7440000176429749 14.755999565124512,-0.7440000176429749 C14.755999565124512,-0.7440000176429749 -19.10700035095215,17.64299964904785 -19.10700035095215,17.64299964904785 C-19.10700035095215,17.64299964904785 -18.06599998474121,17.711000442504883 -18.00200080871582,17.81599998474121 C-18.00200080871582,17.81599998474121 16.076000213623047,-0.7440000176429749 16.076000213623047,-0.7440000176429749 C16.076000213623047,-0.7440000176429749 19.10700035095215,-17.81599998474121 19.10700035095215,-17.81599998474121z"></path></g><g opacity="1" transform="matrix(1,0,0,1,163.07899475097656,54.362998962402344)"><path fill="rgb(255,255,255)" fill-opacity="1" d=" M-19.10700035095215,-17.81599998474121 C-19.10700035095215,-17.81599998474121 -14.755999565124512,-0.7440000176429749 -14.755999565124512,-0.7440000176429749 C-14.755999565124512,-0.7440000176429749 19.10700035095215,17.64299964904785 19.10700035095215,17.64299964904785 C19.10700035095215,17.64299964904785 18.06599998474121,17.711000442504883 18.00200080871582,17.81599998474121 C18.00200080871582,17.81599998474121 -16.076000213623047,-0.7440000176429749 -16.076000213623047,-0.7440000176429749 C-16.076000213623047,-0.7440000176429749 -19.10700035095215,-17.81599998474121 -19.10700035095215,-17.81599998474121z"></path></g><g opacity="1" transform="matrix(1,0,0,1,160.4929962158203,54.87699890136719)"><path fill="rgb(255,255,255)" fill-opacity="1" d=" M-20.131999969482422,-19.374000549316406 C-20.131999969482422,-19.374000549316406 -15.727999687194824,-1.2580000162124634 -15.727999687194824,-1.2580000162124634 C-15.727999687194824,-1.2580000162124634 20.131999969482422,19.216999053955078 20.131999969482422,19.216999053955078 C20.131999969482422,19.216999053955078 18.746000289916992,19.374000549316406 18.746000289916992,19.374000549316406 C18.746000289916992,19.374000549316406 -17.32200050354004,-1.2580000162124634 -17.32200050354004,-1.2580000162124634 C-17.32200050354004,-1.2580000162124634 -20.131999969482422,-19.374000549316406 -20.131999969482422,-19.374000549316406z"></path></g><g opacity="1" transform="matrix(1,0,0,1,161.6490020751953,67.14299774169922)"><path fill="rgb(255,255,255)" fill-opacity="1" d=" M-27.819000244140625,-17.069000244140625 C-27.819000244140625,-17.069000244140625 28.67300033569336,16.961999893188477 28.67300033569336,16.961999893188477 C28.67300033569336,16.961999893188477 25.823999404907227,17.06999969482422 25.823999404907227,17.06999969482422 C25.823999404907227,17.06999969482422 -28.67300033569336,-17.06999969482422 -28.67300033569336,-17.06999969482422 C-28.67300033569336,-17.06999969482422 -27.819000244140625,-17.069000244140625 -27.819000244140625,-17.069000244140625z"></path></g><g opacity="1" transform="matrix(1,0,0,1,71.92500305175781,67.10299682617188)"><path fill="rgb(255,255,255)" fill-opacity="1" d=" M18.007999420166016,-17.0310001373291 C18.007999420166016,-17.0310001373291 -19.465999603271484,16.94499969482422 -19.465999603271484,16.94499969482422 C-19.465999603271484,16.94499969482422 -15.668999671936035,17.0310001373291 -15.668999671936035,17.0310001373291 C-15.668999671936035,17.0310001373291 19.465999603271484,-17.0310001373291 19.465999603271484,-17.0310001373291 C19.465999603271484,-17.0310001373291 18.007999420166016,-17.0310001373291 18.007999420166016,-17.0310001373291z"></path></g><g opacity="1" transform="matrix(1,0,0,1,52.992000579833984,67.14299774169922)"><path fill="rgb(255,255,255)" fill-opacity="1" d=" M27.81999969482422,-17.069000244140625 C27.81999969482422,-17.069000244140625 -28.67300033569336,16.961999893188477 -28.67300033569336,16.961999893188477 C-28.67300033569336,16.961999893188477 -25.823999404907227,17.06999969482422 -25.823999404907227,17.06999969482422 C-25.823999404907227,17.06999969482422 28.67300033569336,-17.06999969482422 28.67300033569336,-17.06999969482422 C28.67300033569336,-17.06999969482422 27.81999969482422,-17.069000244140625 27.81999969482422,-17.069000244140625z"></path></g><g opacity="1" transform="matrix(1,0,0,1,62.143001556396484,67.14299774169922)"><path fill="rgb(255,255,255)" fill-opacity="1" d=" M22.575000762939453,-17.070999145507812 C22.575000762939453,-17.070999145507812 -23.575000762939453,17.070999145507812 -23.575000762939453,17.070999145507812 C-23.575000762939453,17.070999145507812 -19.77400016784668,16.89900016784668 -19.77400016784668,16.89900016784668 C-19.77400016784668,16.89900016784668 23.575000762939453,-17.070999145507812 23.575000762939453,-17.070999145507812 C23.575000762939453,-17.070999145507812 22.575000762939453,-17.070999145507812 22.575000762939453,-17.070999145507812z"></path></g><g opacity="1" transform="matrix(1,0,0,1,54.14699935913086,54.87699890136719)"><path fill="rgb(255,255,255)" fill-opacity="1" d=" M20.131999969482422,-19.374000549316406 C20.131999969482422,-19.374000549316406 15.727999687194824,-1.2580000162124634 15.727999687194824,-1.2580000162124634 C15.727999687194824,-1.2580000162124634 -20.131999969482422,19.216999053955078 -20.131999969482422,19.216999053955078 C-20.131999969482422,19.216999053955078 -18.746000289916992,19.374000549316406 -18.746000289916992,19.374000549316406 C-18.746000289916992,19.374000549316406 17.32200050354004,-1.2580000162124634 17.32200050354004,-1.2580000162124634 C17.32200050354004,-1.2580000162124634 20.131999969482422,-19.374000549316406 20.131999969482422,-19.374000549316406z"></path></g><g opacity="1" transform="matrix(1,0,0,1,98.26100158691406,57.66299819946289)"><path fill="rgb(255,255,255)" fill-opacity="1" d=" M4.563000202178955,-6.73199987411499 C4.563000202178955,-6.73199987411499 -6.539999961853027,26.47100067138672 -6.539999961853027,26.47100067138672 C-6.539999961853027,26.47100067138672 -1.6339999437332153,26.746999740600586 -1.6339999437332153,26.746999740600586 C-1.6339999437332153,26.746999740600586 6.517000198364258,-6.73199987411499 6.517000198364258,-6.73199987411499 C6.517000198364258,-6.73199987411499 6.539999961853027,-26.746999740600586 6.539999961853027,-26.746999740600586 C6.539999961853027,-26.746999740600586 4.563000202178955,-6.73199987411499 4.563000202178955,-6.73199987411499z"></path></g><g opacity="1" transform="matrix(1,0,0,1,85.1719970703125,57.66400146484375)"><path fill="rgb(255,255,255)" fill-opacity="1" d=" M10.725000381469727,-6.73199987411499 C10.725000381469727,-6.73199987411499 -13.607999801635742,26.565000534057617 -13.607999801635742,26.565000534057617 C-13.607999801635742,26.565000534057617 -8.859999656677246,26.74799919128418 -8.859999656677246,26.74799919128418 C-8.859999656677246,26.74799919128418 12.607999801635742,-6.73199987411499 12.607999801635742,-6.73199987411499 C12.607999801635742,-6.73199987411499 13.607999801635742,-26.74799919128418 13.607999801635742,-26.74799919128418 C13.607999801635742,-26.74799919128418 10.725000381469727,-6.73199987411499 10.725000381469727,-6.73199987411499z"></path></g><g opacity="1" transform="matrix(1,0,0,1,144.24000549316406,67.10299682617188)"><path fill="rgb(255,255,255)" fill-opacity="1" d=" M-18.006999969482422,-17.0310001373291 C-18.006999969482422,-17.0310001373291 19.466999053955078,16.94499969482422 19.466999053955078,16.94499969482422 C19.466999053955078,16.94499969482422 15.668000221252441,17.0310001373291 15.668000221252441,17.0310001373291 C15.668000221252441,17.0310001373291 -19.466999053955078,-17.0310001373291 -19.466999053955078,-17.0310001373291 C-19.466999053955078,-17.0310001373291 -18.006999969482422,-17.0310001373291 -18.006999969482422,-17.0310001373291z"></path></g><g opacity="1" transform="matrix(1,0,0,1,154.02200317382812,67.14299774169922)"><path fill="rgb(255,255,255)" fill-opacity="1" d=" M-22.573999404907227,-17.070999145507812 C-22.573999404907227,-17.070999145507812 23.573999404907227,17.070999145507812 23.573999404907227,17.070999145507812 C23.573999404907227,17.070999145507812 19.77400016784668,16.89900016784668 19.77400016784668,16.89900016784668 C19.77400016784668,16.89900016784668 -23.573999404907227,-17.070999145507812 -23.573999404907227,-17.070999145507812 C-23.573999404907227,-17.070999145507812 -22.573999404907227,-17.070999145507812 -22.573999404907227,-17.070999145507812z"></path></g><g opacity="1" transform="matrix(1,0,0,1,117.81199645996094,67.24199676513672)"><path fill="rgb(255,255,255)" fill-opacity="1" d=" M-4.756999969482422,-17.170000076293945 C-4.756999969482422,-17.170000076293945 6.633999824523926,16.891000747680664 6.633999824523926,16.891000747680664 C6.633999824523926,16.891000747680664 1.7259999513626099,17.170000076293945 1.7259999513626099,17.170000076293945 C1.7259999513626099,17.170000076293945 -6.633999824523926,-17.170000076293945 -6.633999824523926,-17.170000076293945 C-6.633999824523926,-17.170000076293945 -4.756999969482422,-17.170000076293945 -4.756999969482422,-17.170000076293945z"></path></g><g opacity="1" transform="matrix(1,0,0,1,131.21800231933594,67.24199676513672)"><path fill="rgb(255,255,255)" fill-opacity="1" d=" M-11.57800006866455,-17.170000076293945 C-11.57800006866455,-17.170000076293945 13.383000373840332,16.98699951171875 13.383000373840332,16.98699951171875 C13.383000373840332,16.98699951171875 8.635000228881836,17.170000076293945 8.635000228881836,17.170000076293945 C8.635000228881836,17.170000076293945 -13.383000373840332,-17.170000076293945 -13.383000373840332,-17.170000076293945 C-13.383000373840332,-17.170000076293945 -11.57800006866455,-17.170000076293945 -11.57800006866455,-17.170000076293945z"></path></g></g></g></g></svg>