<svg xmlns="http://www.w3.org/2000/svg" viewBox="0 0 16 15" width="16" height="15" preserveAspectRatio="xMidYMid meet" style="width: 100%; height: 100%; transform: translate3d(0px, 0px, 0px); content-visibility: visible;"><defs><clipPath id="__lottie_element_1438"><rect width="16" height="15" x="0" y="0"></rect></clipPath></defs><g clip-path="url(#__lottie_element_1438)"><g transform="matrix(1.8059998750686646,0,0,1.8059998750686646,-162.57728576660156,-61.14944839477539)" opacity="1" style="display: block;"><g opacity="1" transform="matrix(1,0,0,1,94.29000091552734,38.05500030517578)"><path fill="rgb(255,238,207)" fill-opacity="1" d=" M4.084000110626221,0 C4.084000110626221,-2.255000114440918 2.25600004196167,-4.083000183105469 0.0010000000474974513,-4.083000183105469 C-2.255000114440918,-4.083000183105469 -4.084000110626221,-2.255000114440918 -4.084000110626221,0 C-4.084000110626221,2.255000114440918 -2.255000114440918,4.083000183105469 0.0010000000474974513,4.083000183105469 C2.25600004196167,4.083000183105469 4.084000110626221,2.255000114440918 4.084000110626221,0z"></path></g><g opacity="1" transform="matrix(1,0,0,1,94.30500030517578,34.97999954223633)"><path fill="rgb(206,143,70)" fill-opacity="1" d=" M0,0.5740000009536743 C-0.31700000166893005,0.5740000009536743 -0.5740000009536743,0.31700000166893005 -0.5740000009536743,0 C-0.5740000009536743,-0.31700000166893005 -0.31700000166893005,-0.5740000009536743 0,-0.5740000009536743 C0.31700000166893005,-0.5740000009536743 0.5740000009536743,-0.31700000166893005 0.5740000009536743,0 C0.5740000009536743,0.31700000166893005 0.31700000166893005,0.5740000009536743 0,0.5740000009536743z"></path></g><g opacity="1" transform="matrix(1,0,0,1,94.30500030517578,41.21200180053711)"><path fill="rgb(206,143,70)" fill-opacity="1" d=" M0,0.5740000009536743 C-0.31700000166893005,0.5740000009536743 -0.5740000009536743,0.31700000166893005 -0.5740000009536743,0 C-0.5740000009536743,-0.31700000166893005 -0.31700000166893005,-0.5740000009536743 0,-0.5740000009536743 C0.31700000166893005,-0.5740000009536743 0.5740000009536743,-0.31700000166893005 0.5740000009536743,0 C0.5740000009536743,0.31700000166893005 0.31700000166893005,0.5740000009536743 0,0.5740000009536743z"></path></g><g opacity="1" transform="matrix(1,0,0,1,91.20099639892578,38.108001708984375)"><path fill="rgb(206,143,70)" fill-opacity="1" d=" M0,0.5740000009536743 C-0.31700000166893005,0.5740000009536743 -0.5740000009536743,0.31700000166893005 -0.5740000009536743,0 C-0.5740000009536743,-0.31700000166893005 -0.31700000166893005,-0.5740000009536743 0,-0.5740000009536743 C0.31700000166893005,-0.5740000009536743 0.5740000009536743,-0.31700000166893005 0.5740000009536743,0 C0.5740000009536743,0.31700000166893005 0.31700000166893005,0.5740000009536743 0,0.5740000009536743z"></path></g><g opacity="1" transform="matrix(1,0,0,1,97.43299865722656,38.108001708984375)"><path fill="rgb(206,143,70)" fill-opacity="1" d=" M0,0.5740000009536743 C-0.31700000166893005,0.5740000009536743 -0.5740000009536743,0.31700000166893005 -0.5740000009536743,0 C-0.5740000009536743,-0.31700000166893005 -0.31700000166893005,-0.5740000009536743 0,-0.5740000009536743 C0.31700000166893005,-0.5740000009536743 0.5740000009536743,-0.31700000166893005 0.5740000009536743,0 C0.5740000009536743,0.31700000166893005 0.31700000166893005,0.5740000009536743 0,0.5740000009536743z"></path></g></g><g transform="matrix(1.2084498405456543,-1.342119574546814,1.342119574546814,1.2084498405456543,-1.647129774093628,3.958329439163208)" opacity="1" style="display: block;"><g opacity="1" transform="matrix(1,0,0,1,2.486999988555908,3.5320000648498535)"><path stroke-linecap="round" stroke-linejoin="round" fill-opacity="0" stroke="rgb(121,36,55)" stroke-opacity="1" stroke-width="0.8" d=" M0.4880000054836273,-1.531999945640564 C0.4880000054836273,-1.531999945640564 -0.4880000054836273,1.531999945640564 -0.4880000054836273,1.531999945640564"></path></g></g></g></svg>