<svg xmlns="http://www.w3.org/2000/svg" viewBox="0 0 31 71" width="31" height="71" preserveAspectRatio="xMidYMid meet" style="width: 100%; height: 100%; transform: translate3d(0px, 0px, 0px); content-visibility: visible;"><defs><clipPath id="__lottie_element_1418"><rect width="31" height="71" x="0" y="0"></rect></clipPath></defs><g clip-path="url(#__lottie_element_1418)"><g transform="matrix(0.22961997985839844,0,0,0.22961997985839844,-20.311874389648438,-1.2341889142990112)" opacity="1" style="display: block;"><g opacity="1" transform="matrix(1,0,0,1,157.0570068359375,248.32200622558594)"><path fill="rgb(78,67,95)" fill-opacity="1" d=" M27.579999923706055,4.3979997634887695 C27.579999923706055,4.3979997634887695 -27.579999923706055,4.3979997634887695 -27.579999923706055,4.3979997634887695 C-27.579999923706055,4.3979997634887695 -27.579999923706055,-4.3979997634887695 -27.579999923706055,-4.3979997634887695 C-27.579999923706055,-4.3979997634887695 27.579999923706055,-4.3979997634887695 27.579999923706055,-4.3979997634887695 C27.579999923706055,-4.3979997634887695 27.579999923706055,4.3979997634887695 27.579999923706055,4.3979997634887695z"></path></g></g><g transform="matrix(0.22961997985839844,0,0,0.22961997985839844,-20.311965942382812,-1.2342755794525146)" opacity="1" style="display: block;"><g opacity="1" transform="matrix(1,0,0,1,157.05599975585938,279.5299987792969)"><path fill="rgb(194,172,185)" fill-opacity="1" d=" M38.21799850463867,30.465999603271484 C38.21799850463867,30.465999603271484 -38.21799850463867,30.465999603271484 -38.21799850463867,30.465999603271484 C-38.21799850463867,30.465999603271484 -26.716999053955078,-30.465999603271484 -26.716999053955078,-30.465999603271484 C-26.716999053955078,-30.465999603271484 26.718000411987305,-30.465999603271484 26.718000411987305,-30.465999603271484 C26.718000411987305,-30.465999603271484 38.21799850463867,30.465999603271484 38.21799850463867,30.465999603271484z"></path></g><g opacity="1" transform="matrix(1,0,0,1,0,0)"><path stroke-linecap="round" stroke-linejoin="round" fill-opacity="0" stroke="rgb(174,153,164)" stroke-opacity="1" stroke-width="3.134" d=" M141.83999633789062,297.4490051269531 C141.83999633789062,297.4490051269531 172.2729949951172,297.4490051269531 172.2729949951172,297.4490051269531"></path></g><g opacity="1" transform="matrix(1,0,0,1,0,0)"><path stroke-linecap="round" stroke-linejoin="round" fill-opacity="0" stroke="rgb(174,153,164)" stroke-opacity="1" stroke-width="3.134" d=" M141.83999633789062,291.5589904785156 C141.83999633789062,291.5589904785156 172.2729949951172,291.5589904785156 172.2729949951172,291.5589904785156"></path></g><g opacity="1" transform="matrix(1,0,0,1,0,0)"><path stroke-linecap="round" stroke-linejoin="round" fill-opacity="0" stroke="rgb(174,153,164)" stroke-opacity="1" stroke-width="3.134" d=" M141.83999633789062,285.6679992675781 C141.83999633789062,285.6679992675781 172.2729949951172,285.6679992675781 172.2729949951172,285.6679992675781"></path></g><g opacity="1" transform="matrix(1,0,0,1,0,0)"><path stroke-linecap="round" stroke-linejoin="round" fill-opacity="0" stroke="rgb(174,153,164)" stroke-opacity="1" stroke-width="3.134" d=" M141.83999633789062,279.7770080566406 C141.83999633789062,279.7770080566406 172.2729949951172,279.7770080566406 172.2729949951172,279.7770080566406"></path></g><g opacity="1" transform="matrix(1,0,0,1,0,0)"><path stroke-linecap="round" stroke-linejoin="round" fill-opacity="0" stroke="rgb(174,153,164)" stroke-opacity="1" stroke-width="3.134" d=" M141.83999633789062,273.885986328125 C141.83999633789062,273.885986328125 172.2729949951172,273.885986328125 172.2729949951172,273.885986328125"></path></g><g opacity="1" transform="matrix(1,0,0,1,0,0)"><path stroke-linecap="round" stroke-linejoin="round" fill-opacity="0" stroke="rgb(174,153,164)" stroke-opacity="1" stroke-width="3.134" d=" M141.83999633789062,267.9960021972656 C141.83999633789062,267.9960021972656 172.2729949951172,267.9960021972656 172.2729949951172,267.9960021972656"></path></g><g opacity="1" transform="matrix(1,0,0,1,157.0570068359375,256.7489929199219)"><path fill="rgb(150,134,146)" fill-opacity="1" d=" M-26.716999053955078,-7.684999942779541 C-26.716999053955078,-7.684999942779541 -29.090999603271484,7.684999942779541 -29.090999603271484,7.684999942779541 C-29.090999603271484,7.684999942779541 29.090999603271484,7.684999942779541 29.090999603271484,7.684999942779541 C29.090999603271484,7.684999942779541 26.716999053955078,-7.684999942779541 26.716999053955078,-7.684999942779541 C26.716999053955078,-7.684999942779541 -26.716999053955078,-7.684999942779541 -26.716999053955078,-7.684999942779541z"></path></g><g opacity="1" transform="matrix(1,0,0,1,0,0)"><path stroke-linecap="round" stroke-linejoin="round" fill-opacity="0" stroke="rgb(135,119,129)" stroke-opacity="1" stroke-width="3.134" d=" M141.83999633789062,262.1050109863281 C141.83999633789062,262.1050109863281 172.2729949951172,262.1050109863281 172.2729949951172,262.1050109863281"></path></g><g opacity="1" transform="matrix(1,0,0,1,0,0)"><path stroke-linecap="round" stroke-linejoin="round" fill-opacity="0" stroke="rgb(135,119,129)" stroke-opacity="1" stroke-width="3.134" d=" M141.83999633789062,256.2139892578125 C141.83999633789062,256.2139892578125 172.2729949951172,256.2139892578125 172.2729949951172,256.2139892578125"></path></g></g><g transform="matrix(0.22961997985839844,0,0,0.22961997985839844,-20.311891555786133,-1.2343109846115112)" opacity="1" style="display: block;"><g opacity="1" transform="matrix(1,0,0,1,184.63600158691406,274.3290100097656)"><path fill="rgb(139,124,141)" fill-opacity="1" d=" M-3.177999973297119,-20.444000244140625 C-3.177999973297119,-20.444000244140625 3.177999973297119,-20.444000244140625 3.177999973297119,-20.444000244140625 C3.177999973297119,-20.444000244140625 3.177999973297119,20.444000244140625 3.177999973297119,20.444000244140625 C3.177999973297119,20.444000244140625 -3.177999973297119,20.444000244140625 -3.177999973297119,20.444000244140625 C-3.177999973297119,20.444000244140625 -3.177999973297119,-20.444000244140625 -3.177999973297119,-20.444000244140625z"></path></g><g opacity="1" transform="matrix(1,0,0,1,184.63600158691406,253.88499450683594)"><path fill="rgb(212,195,206)" fill-opacity="1" d=" M-4.811999797821045,6.355999946594238 C-4.811999797821045,6.355999946594238 4.811999797821045,6.355999946594238 4.811999797821045,6.355999946594238 C4.811999797821045,6.355999946594238 4.811999797821045,-6.355999946594238 4.811999797821045,-6.355999946594238 C4.811999797821045,-6.355999946594238 -4.811999797821045,-6.355999946594238 -4.811999797821045,-6.355999946594238 C-4.811999797821045,-6.355999946594238 -4.811999797821045,6.355999946594238 -4.811999797821045,6.355999946594238z"></path></g><g opacity="1" transform="matrix(1,0,0,1,184.63600158691406,294.77301025390625)"><path fill="rgb(212,195,206)" fill-opacity="1" d=" M-4.811999797821045,6.355999946594238 C-4.811999797821045,6.355999946594238 4.811999797821045,6.355999946594238 4.811999797821045,6.355999946594238 C4.811999797821045,6.355999946594238 4.811999797821045,-6.355999946594238 4.811999797821045,-6.355999946594238 C4.811999797821045,-6.355999946594238 -4.811999797821045,-6.355999946594238 -4.811999797821045,-6.355999946594238 C-4.811999797821045,-6.355999946594238 -4.811999797821045,6.355999946594238 -4.811999797821045,6.355999946594238z"></path></g></g><g transform="matrix(0.22961997985839844,0,0,0.22961997985839844,-20.312110900878906,-1.2343109846115112)" opacity="1" style="display: block;"><g opacity="1" transform="matrix(1,0,0,1,129.4759979248047,274.3290100097656)"><path fill="rgb(139,124,141)" fill-opacity="1" d=" M3.178999900817871,-20.444000244140625 C3.178999900817871,-20.444000244140625 -3.178999900817871,-20.444000244140625 -3.178999900817871,-20.444000244140625 C-3.178999900817871,-20.444000244140625 -3.178999900817871,20.444000244140625 -3.178999900817871,20.444000244140625 C-3.178999900817871,20.444000244140625 3.178999900817871,20.444000244140625 3.178999900817871,20.444000244140625 C3.178999900817871,20.444000244140625 3.178999900817871,-20.444000244140625 3.178999900817871,-20.444000244140625z"></path></g><g opacity="1" transform="matrix(1,0,0,1,129.4759979248047,253.88499450683594)"><path fill="rgb(212,195,206)" fill-opacity="1" d=" M4.811999797821045,6.355999946594238 C4.811999797821045,6.355999946594238 -4.811999797821045,6.355999946594238 -4.811999797821045,6.355999946594238 C-4.811999797821045,6.355999946594238 -4.811999797821045,-6.355999946594238 -4.811999797821045,-6.355999946594238 C-4.811999797821045,-6.355999946594238 4.811999797821045,-6.355999946594238 4.811999797821045,-6.355999946594238 C4.811999797821045,-6.355999946594238 4.811999797821045,6.355999946594238 4.811999797821045,6.355999946594238z"></path></g><g opacity="1" transform="matrix(1,0,0,1,129.4759979248047,294.77301025390625)"><path fill="rgb(212,195,206)" fill-opacity="1" d=" M4.811999797821045,6.355999946594238 C4.811999797821045,6.355999946594238 -4.811999797821045,6.355999946594238 -4.811999797821045,6.355999946594238 C-4.811999797821045,6.355999946594238 -4.811999797821045,-6.355999946594238 -4.811999797821045,-6.355999946594238 C-4.811999797821045,-6.355999946594238 4.811999797821045,-6.355999946594238 4.811999797821045,-6.355999946594238 C4.811999797821045,-6.355999946594238 4.811999797821045,6.355999946594238 4.811999797821045,6.355999946594238z"></path></g></g><g transform="matrix(0.22961997985839844,0,0,0.22961997985839844,-7.99111795425415,-47.88644027709961)" opacity="1" style="display: block;"><g opacity="1" transform="matrix(1.5347100496292114,0,0,1.5347100496292114,51.65700149536133,219.4510040283203)"><path fill="rgb(192,65,61)" fill-opacity="1" d=" M-4.089000225067139,0 C-4.089000225067139,-2.257999897003174 -2.257999897003174,-4.089000225067139 0,-4.089000225067139 C2.257999897003174,-4.089000225067139 4.089000225067139,-2.257999897003174 4.089000225067139,0 C4.089000225067139,2.257999897003174 2.257999897003174,4.089000225067139 0,4.089000225067139 C-2.257999897003174,4.089000225067139 -4.089000225067139,2.257999897003174 -4.089000225067139,0z"></path></g><g opacity="1" transform="matrix(1.5347100496292114,0,0,1.5347100496292114,155.53199768066406,219.4510040283203)"><path fill="rgb(192,65,61)" fill-opacity="1" d=" M-4.089000225067139,0 C-4.089000225067139,-2.257999897003174 -2.257999897003174,-4.089000225067139 0,-4.089000225067139 C2.257999897003174,-4.089000225067139 4.089000225067139,-2.257999897003174 4.089000225067139,0 C4.089000225067139,2.257999897003174 2.257999897003174,4.089000225067139 0,4.089000225067139 C-2.257999897003174,4.089000225067139 -4.089000225067139,2.257999897003174 -4.089000225067139,0z"></path></g><g opacity="1" transform="matrix(1.5347100496292114,0,0,1.5347100496292114,161.9080047607422,505.56500244140625)"><path fill="rgb(192,65,61)" fill-opacity="1" d=" M-4.089000225067139,0 C-4.089000225067139,-2.257999897003174 -2.257999897003174,-4.089000225067139 0,-4.089000225067139 C2.257999897003174,-4.089000225067139 4.089000225067139,-2.257999897003174 4.089000225067139,0 C4.089000225067139,2.257999897003174 2.257999897003174,4.089000225067139 0,4.089000225067139 C-2.257999897003174,4.089000225067139 -4.089000225067139,2.257999897003174 -4.089000225067139,0z"></path></g><g opacity="1" transform="matrix(1.5347100496292114,0,0,1.5347100496292114,44.15800094604492,505.56500244140625)"><path fill="rgb(192,65,61)" fill-opacity="1" d=" M-4.089000225067139,0 C-4.089000225067139,-2.257999897003174 -2.257999897003174,-4.089000225067139 0,-4.089000225067139 C2.257999897003174,-4.089000225067139 4.089000225067139,-2.257999897003174 4.089000225067139,0 C4.089000225067139,2.257999897003174 2.257999897003174,4.089000225067139 0,4.089000225067139 C-2.257999897003174,4.089000225067139 -4.089000225067139,2.257999897003174 -4.089000225067139,0z"></path></g><g opacity="1" transform="matrix(1.1979199647903442,0,0,1.1979199647903442,59.65800094604492,448.56500244140625)"><path fill="rgb(192,65,61)" fill-opacity="1" d=" M-4.089000225067139,0 C-4.089000225067139,-2.257999897003174 -2.257999897003174,-4.089000225067139 0,-4.089000225067139 C2.257999897003174,-4.089000225067139 4.089000225067139,-2.257999897003174 4.089000225067139,0 C4.089000225067139,2.257999897003174 2.257999897003174,4.089000225067139 0,4.089000225067139 C-2.257999897003174,4.089000225067139 -4.089000225067139,2.257999897003174 -4.089000225067139,0z"></path></g><g opacity="1" transform="matrix(1.1979199647903442,0,0,1.1979199647903442,144.6580047607422,448.56500244140625)"><path fill="rgb(192,65,61)" fill-opacity="1" d=" M-4.089000225067139,0 C-4.089000225067139,-2.257999897003174 -2.257999897003174,-4.089000225067139 0,-4.089000225067139 C2.257999897003174,-4.089000225067139 4.089000225067139,-2.257999897003174 4.089000225067139,0 C4.089000225067139,2.257999897003174 2.257999897003174,4.089000225067139 0,4.089000225067139 C-2.257999897003174,4.089000225067139 -4.089000225067139,2.257999897003174 -4.089000225067139,0z"></path></g></g></g></svg>