<svg xmlns="http://www.w3.org/2000/svg" viewBox="0 0 12 12" width="12" height="12" preserveAspectRatio="xMidYMid meet" style="width: 100%; height: 100%; transform: translate3d(0px, 0px, 0px); content-visibility: visible;"><defs><clipPath id="__lottie_element_2380"><rect width="12" height="12" x="0" y="0"></rect></clipPath></defs><g clip-path="url(#__lottie_element_2380)"><g transform="matrix(0.3330000042915344,0,0,0.3330000042915344,-71.93498992919922,-24.505462646484375)" opacity="1" style="display: block;"><g opacity="1" transform="matrix(1,0,0,1,234.1479949951172,91.66300201416016)"><path fill="rgb(189,172,182)" fill-opacity="1" d=" M16.62299919128418,0 C16.62299919128418,-9.180999755859375 9.180999755859375,-16.62299919128418 0,-16.62299919128418 C-9.180000305175781,-16.62299919128418 -16.62299919128418,-9.180999755859375 -16.62299919128418,0 C-16.62299919128418,9.180000305175781 -9.180000305175781,16.62299919128418 0,16.62299919128418 C9.180999755859375,16.62299919128418 16.62299919128418,9.180000305175781 16.62299919128418,0z"></path></g></g><g transform="matrix(0.18136480450630188,-0.2792772948741913,0.2792772948741913,0.18136480450630188,-62.141258239746094,54.78902816772461)" opacity="1" style="display: block;"><g opacity="1" transform="matrix(1,0,0,1,0,0)"><path stroke-linecap="round" stroke-linejoin="round" fill-opacity="0" stroke="rgb(77,67,95)" stroke-opacity="1" stroke-width="5" d=" M234.1490020751953,91.66300201416016 C234.1490020751953,91.66300201416016 234.1490020751953,82.30699920654297 234.1490020751953,82.30699920654297"></path></g></g><g transform="matrix(-0.1354433000087738,-0.3042106330394745,0.3042106330394745,-0.1354433000087738,9.694744110107422,89.76219177246094)" opacity="1" style="display: block;"><g opacity="1" transform="matrix(1,0,0,1,240.15899658203125,94.39800262451172)"><path stroke-linecap="round" stroke-linejoin="round" fill-opacity="0" stroke="rgb(77,67,95)" stroke-opacity="1" stroke-width="3.5" d=" M-6.010000228881836,-2.734999895095825 C-6.010000228881836,-2.734999895095825 6.010000228881836,2.734999895095825 6.010000228881836,2.734999895095825"></path></g></g></g></svg>