<svg xmlns="http://www.w3.org/2000/svg" viewBox="0 0 47 41" width="47" height="41" preserveAspectRatio="xMidYMid meet" style="width: 100%; height: 100%; transform: translate3d(0px, 0px, 0px); content-visibility: visible;"><defs><clipPath id="__lottie_element_899"><rect width="47" height="41" x="0" y="0"></rect></clipPath></defs><g clip-path="url(#__lottie_element_899)"><g transform="matrix(0.3291965126991272,0.052139606326818466,-0.052139606326818466,0.3291965126991272,-53.58187484741211,-44.36151885986328)" opacity="1" style="display: block;"><g opacity="1" transform="matrix(1,0,0,1,266.9830017089844,130.6719970703125)"><path fill="rgb(111,100,78)" fill-opacity="1" d=" M-24.10700035095215,-9.1850004196167 C-13.468000411987305,-7.631999969482422 -8.680999755859375,-8.737000465393066 0.3310000002384186,-7.456999778747559 C6.296000003814697,-6.610000133514404 14.093000411987305,-4.558000087738037 19.540000915527344,-2.005000114440918 C21.42300033569336,-1.1230000257492065 24.10700035095215,0.9150000214576721 22.216999053955078,3.0239999294281006 C20.356000900268555,5.10099983215332 15.593000411987305,4.24399995803833 13.062999725341797,4.507999897003174 C8.984000205993652,4.935999870300293 4.959000110626221,5.890999794006348 1.125,7.3470001220703125 C-0.7400000095367432,8.055000305175781 -3.1429998874664307,9.1850004196167 -5.186999797821045,8.607000350952148 C-7.478000164031982,7.960000038146973 -24.10700035095215,-9.1850004196167 -24.10700035095215,-9.1850004196167z"></path></g></g><g transform="matrix(0.33329999446868896,0,0,0.33329999446868896,-60.95821762084961,-32.12806701660156)" opacity="1" style="display: block;"><g opacity="1" transform="matrix(1,0,0,1,206.4080047607422,156.0489959716797)"><path fill="rgb(111,100,78)" fill-opacity="1" d=" M9.184000015258789,-22.118999481201172 C3.869999885559082,-12.77299976348877 0.0560000017285347,-9.675999641418457 -4.474999904632568,-1.7799999713897705 C-7.4730000495910645,3.444999933242798 -10.647000312805176,10.857000350952148 -11.982000350952148,16.722999572753906 C-12.444000244140625,18.75 -12.484999656677246,22.118999481201172 -9.66100025177002,21.924999237060547 C-6.877999782562256,21.733999252319336 -4.627999782562256,17.448999404907227 -2.86299991607666,15.616999626159668 C-0.01899999938905239,12.661999702453613 3.2090001106262207,10.074999809265137 6.714000225067139,7.945000171661377 C8.418999671936035,6.909999847412109 10.788000106811523,5.708000183105469 11.588000297546387,3.740999937057495 C12.486000061035156,1.534999966621399 9.184000015258789,-22.118999481201172 9.184000015258789,-22.118999481201172z"></path></g></g><g transform="matrix(0.33329999446868896,0,0,0.33329999446868896,-60.95821762084961,-32.12806701660156)" opacity="1" style="display: block;"><g opacity="1" transform="matrix(1,0,0,1,240.08399963378906,146.83099365234375)"><path fill="rgb(111,100,78)" fill-opacity="1" d=" M9.4350004196167,35.71900177001953 C31.51099967956543,28.253000259399414 32.20000076293945,7.295000076293945 29.878000259399414,0.4300000071525574 C25.90999984741211,-11.305000305175781 19.14299964904785,-16.530000686645508 12.677000045776367,-23.607999801635742 C7.620999813079834,-29.143999099731445 5.068999767303467,-34.68000030517578 -0.7710000276565552,-39.49800109863281 C-5.243000030517578,-43.185001373291016 -12.239999771118164,-43.027000427246094 -16.62700080871582,-41.34199905395508 C-21.13599967956543,-40.018001556396484 -26.795000076293945,-35.89699935913086 -28.108999252319336,-30.253000259399414 C-29.82699966430664,-22.8799991607666 -28.4950008392334,-16.93000030517578 -29.152999877929688,-9.461000442504883 C-29.996000289916992,0.08799999952316284 -32.19900131225586,8.347000122070312 -28.229999542236328,20.082000732421875 C-25.909000396728516,26.947999954223633 -12.640000343322754,43.185001373291016 9.4350004196167,35.71900177001953z"></path></g><g opacity="1" transform="matrix(1,0,0,1,230.0709991455078,118.75499725341797)"><path fill="rgb(245,138,70)" fill-opacity="1" d=" M-0.3050000071525574,5.389999866485596 C3.6689999103546143,4.046000003814697 8.03499984741211,5.690999984741211 10.151000022888184,7.372000217437744 C10.109999656677246,7.340000152587891 10.83899974822998,5.681000232696533 10.894000053405762,5.497000217437744 C11.182999610900879,4.539000034332275 11.281000137329102,3.6019999980926514 11.026000022888184,2.6659998893737793 C13.630000114440918,2.944000005722046 16.093000411987305,3.809999942779541 18.14299964904785,5.1539998054504395 C18.4950008392334,5.385000228881836 19.03499984741211,5.0970001220703125 18.988000869750977,4.697000026702881 C18.80699920654297,3.1519999504089355 18.150999069213867,1.444000005722046 16.836999893188477,0.006000000052154064 C16.836999893188477,0.006000000052154064 18.429000854492188,0.0430000014603138 19.92099952697754,0.10199999809265137 C20.356000900268555,0.11999999731779099 21.03700065612793,-0.24799999594688416 20.902000427246094,-0.7649999856948853 C20.809999465942383,-1.11899995803833 20.486000061035156,-1.3559999465942383 20.18600082397461,-1.565000057220459 C17.656999588012695,-3.3320000171661377 14.880999565124512,-6.449999809265137 11.968999862670898,-9.64799976348877 C8.017999649047852,-13.98799991607666 2.2799999713897705,-16.89699935913086 -6.803999900817871,-13.826000213623047 C-15.887999534606934,-10.753999710083008 -18.68199920654297,-4.959000110626221 -19.187999725341797,0.8889999985694885 C-19.56100082397461,5.197000026702881 -19.87299919128418,9.361000061035156 -20.812000274658203,12.300000190734863 C-20.92300033569336,12.64900016784668 -21.03700065612793,13.034000396728516 -20.895999908447266,13.371000289916992 C-20.68899917602539,13.86400032043457 -19.924999237060547,13.741999626159668 -19.589000701904297,13.46399974822998 C-18.440000534057617,12.512999534606934 -17.19700050354004,11.515000343322754 -17.19700050354004,11.515000343322754 C-17.368000030517578,13.454999923706055 -16.854000091552734,15.211999893188477 -16.05900001525879,16.548999786376953 C-15.852999687194824,16.895999908447266 -15.24899959564209,16.79599952697754 -15.111000061035156,16.39900016784668 C-14.29800033569336,14.086000442504883 -12.86400032043457,11.904999732971191 -10.963000297546387,10.104999542236328 C-10.597999572753906,11.001999855041504 -9.951000213623047,11.687000274658203 -9.140000343322754,12.27299976348877 C-8.984999656677246,12.385000228881836 -7.400000095367432,13.26200008392334 -7.4120001792907715,13.312999725341797 C-6.75,10.692999839782715 -4.2789998054504395,6.734000205993652 -0.3050000071525574,5.389999866485596z"></path></g><g opacity="1" transform="matrix(1,0,0,1,241.01100158691406,147.92799377441406)"><path fill="rgb(240,208,154)" fill-opacity="1" d=" M9.317000389099121,36.92499923706055 C16.47800064086914,34.50299835205078 22.166000366210938,28.812999725341797 24.70400047302246,21.08799934387207 C26.535999298095703,15.51099967956543 26.610000610351562,9.112000465393066 25.0939998626709,3.190000057220459 C23.84000015258789,-1.7070000171661377 21.409000396728516,-6.421999931335449 17.743000030517578,-9.765999794006348 C14.055999755859375,-13.130000114440918 9.70199966430664,-14.630999565124512 5.150000095367432,-15.401000022888184 C4.603000164031982,-15.494000434875488 4.038000106811523,-15.586999893188477 3.553999900817871,-15.906999588012695 C2.312999963760376,-16.729000091552734 3.0399999618530273,-17.81599998474121 3.302999973297119,-18.891000747680664 C3.5999999046325684,-20.099000930786133 3.7660000324249268,-21.38599967956543 3.505000114440918,-22.66200065612793 C3.0799999237060547,-24.739999771118164 1.319000005722046,-26.437000274658203 -0.6489999890327454,-26.222999572753906 C-2.2839999198913574,-26.045000076293945 -4.078999996185303,-25.83799934387207 -5.507999897003174,-26.860000610351562 C-7.041999816894531,-27.95800018310547 -8.399999618530273,-28.488000869750977 -9.005999565124512,-30.652999877929688 C-9.762999534606934,-33.35599899291992 -7.820000171661377,-36.654998779296875 -9.253000259399414,-39.21799850463867 C-10.696999549865723,-39.05099868774414 -11.467000007629395,-37.39899826049805 -12.661999702453613,-36.564998626708984 C-12.748000144958496,-36.505001068115234 -12.847000122070312,-36.446998596191406 -12.95300006866455,-36.465999603271484 C-13.081000328063965,-36.48899841308594 -13.173999786376953,-36.617000579833984 -13.255999565124512,-36.733001708984375 C-14.086000442504883,-37.90999984741211 -15.223999977111816,-38.83300018310547 -16.482999801635742,-39.3489990234375 C-17.16900062561035,-38.17599868774414 -17.51300048828125,-36.750999450683594 -17.45800018310547,-35.3120002746582 C-17.45400047302246,-35.17100143432617 -17.450000762939453,-35.012001037597656 -17.53700065612793,-34.915000915527344 C-17.610000610351562,-34.83599853515625 -17.722999572753906,-34.821998596191406 -17.82900047302246,-34.81800079345703 C-19.28499984741211,-34.75600051879883 -20.89900016784668,-35.5989990234375 -22.148000717163086,-34.856998443603516 C-21.73200035095215,-31.950000762939453 -18.184999465942383,-30.507999420166016 -17.145999908447266,-27.899999618530273 C-16.312999725341797,-25.81100082397461 -17.06999969482422,-24.56599998474121 -17.62299919128418,-22.76300048828125 C-18.138999938964844,-21.08300018310547 -19.69099998474121,-20.158000946044922 -21.099000930786133,-19.305999755859375 C-22.79199981689453,-18.283000946044922 -23.16200065612793,-15.866000175476074 -22.23900032043457,-13.956000328063965 C-21.67099952697754,-12.781999588012695 -20.759000778198242,-11.861000061035156 -19.788999557495117,-11.081000328063965 C-18.927000045776367,-10.38700008392334 -17.690000534057617,-9.96399974822998 -18.177000045776367,-8.557000160217285 C-18.367000579833984,-8.010000228881836 -18.760000228881836,-7.5929999351501465 -19.13800048828125,-7.186999797821045 C-22.288000106811523,-3.811000108718872 -24.83799934387207,0.024000000208616257 -25.72599983215332,4.934999942779541 C-26.610000610351562,9.817999839782715 -25.68000030517578,15.039999961853027 -23.70400047302246,19.694000244140625 C-21.315000534057617,25.31999969482422 -17.371000289916992,30.361000061035156 -12.531000137329102,33.68000030517578 C-5.826000213623047,38.27899932861328 2.1489999294281006,39.3489990234375 9.3100004196167,36.926998138427734 C9.3100004196167,36.926998138427734 9.317000389099121,36.92499923706055 9.317000389099121,36.92499923706055z"></path></g><g opacity="1" transform="matrix(1,0,0,1,233.74899291992188,130.8090057373047)"><path fill="rgb(193,66,60)" fill-opacity="1" d=" M6.710999965667725,0.4269999861717224 C6.002999782562256,-1.3029999732971191 4.0920000076293945,-3.7260000705718994 1.9179999828338623,-5.568999767303467 C-0.25600001215934753,-7.4120001792907715 -2.694999933242798,-8.673999786376953 -4.460999965667725,-8.07699966430664 C-5.261000156402588,-7.806000232696533 -5.986999988555908,-6.8420000076293945 -6.547999858856201,-5.504000186920166 C-7.109000205993652,-4.165999889373779 -7.50600004196167,-2.4549999237060547 -7.645999908447266,-0.6930000185966492 C-7.749000072479248,0.5860000252723694 -7.894000053405762,2.3510000705718994 -7.672999858856201,3.9790000915527344 C-7.452000141143799,5.60699987411499 -6.861999988555908,7.0980000495910645 -5.497000217437744,7.827000141143799 C-4.1479997634887695,8.548999786376953 -3.2249999046325684,8.230999946594238 -2.3980000019073486,7.617000102996826 C-1.5709999799728394,7.002999782562256 -0.8399999737739563,6.0920000076293945 0.12700000405311584,5.630000114440918 C1.1749999523162842,5.130000114440918 3.200000047683716,5.0980000495910645 4.803999900817871,4.644000053405762 C6.4079999923706055,4.190000057220459 7.590000152587891,3.312999963760376 6.952000141143799,1.1180000305175781 C6.918000221252441,1 6.880000114440918,0.8830000162124634 6.840000152587891,0.7680000066757202 C6.800000190734863,0.652999997138977 6.756999969482422,0.5389999747276306 6.710999965667725,0.4269999861717224z"></path></g><g opacity="1" transform="matrix(1,0,0,1,223.98599243164062,106.71399688720703)"><path fill="rgb(111,100,78)" fill-opacity="1" d=" M5.801000118255615,-4.296000003814697 C5.540999889373779,-4.01800012588501 5.256999969482422,-3.763000011444092 4.951000213623047,-3.5350000858306885 C4.7789998054504395,-3.4059998989105225 4.5929999351501465,-3.2829999923706055 4.382999897003174,-3.234999895095825 C4.129000186920166,-3.177999973297119 3.868000030517578,-3.253999948501587 3.6110000610351562,-3.2860000133514404 C2.434999942779541,-3.431999921798706 0.7960000038146973,-3.503999948501587 -1.0579999685287476,-2.875999927520752 C-2.9140000343322754,-2.249000072479248 -4.172999858856201,-1.1970000267028809 -5.01800012588501,-0.36800000071525574 C-5.203999996185303,-0.1860000044107437 -5.364999771118164,0.032999999821186066 -5.60099983215332,0.14100000262260437 C-5.797999858856201,0.23000000417232513 -6.01800012588501,0.24500000476837158 -6.232999801635742,0.24799999594688416 C-6.613999843597412,0.25200000405311584 -6.995999813079834,0.22200000286102295 -7.372000217437744,0.15800000727176666 C-7.689000129699707,2.8519999980926514 -5.614999771118164,4.09499979019165 -4.703000068664551,4.296000003814697 C-4.135000228881836,2.305999994277954 -2.7679998874664307,0.3019999861717224 -0.27000001072883606,-0.5440000295639038 C2.2290000915527344,-1.3890000581741333 4.53000020980835,-0.625 6.190999984741211,0.6110000014305115 C6.794000148773193,-0.10199999809265137 7.689000129699707,-2.3480000495910645 5.801000118255615,-4.296000003814697z"></path></g><g opacity="1" transform="matrix(1,0,0,1,223.51499938964844,102.37799835205078)"><path fill="rgb(111,100,78)" fill-opacity="1" d=" M-3.572999954223633,4.0289998054504395 C-3.555000066757202,4.0229997634887695 -3.48799991607666,-1.3839999437332153 -3.4240000247955322,-1.8949999809265137 C-3.3989999294281006,-2.0880000591278076 -3.3389999866485596,-2.322000026702881 -3.1500000953674316,-2.369999885559082 C-2.9779999256134033,-2.4149999618530273 -2.819000005722046,-2.2730000019073486 -2.703000068664551,-2.1389999389648438 C-2.0320000648498535,-1.3660000562667847 -1.5210000276565552,-0.4519999921321869 -1.2139999866485596,0.5239999890327454 C-0.7940000295639038,0.46000000834465027 -0.5019999742507935,0.08699999749660492 -0.24300000071525574,-0.24899999797344208 C0.8510000109672546,-1.6729999780654907 2.138000011444092,-2.9489998817443848 3.572999954223633,-4.0289998054504395 C3.3469998836517334,-2.2230000495910645 3.121000051498413,-0.4169999957084656 2.8949999809265137,1.3890000581741333 C2.8350000381469727,1.8660000562667847 2.7039999961853027,2.434999942779541 2.249000072479248,2.5910000801086426 C1.7949999570846558,2.744999885559082 1.156999945640564,2.6600000858306885 0.6959999799728394,2.7639999389648438 C0.09799999743700027,2.8989999294281006 -0.5619999766349792,3.191999912261963 -1.1759999990463257,3.36299991607666 C-1.9700000286102295,3.5840001106262207 -2.7899999618530273,3.7669999599456787 -3.572999954223633,4.0289998054504395z"></path></g><g opacity="1" transform="matrix(0.25420254468917847,-0.08114593476057053,0.08114593476057053,0.25420254468917847,218.25900268554688,119.86699676513672)"><path fill="rgb(77,67,95)" fill-opacity="1" d=" M19,0 C19,0 19,0 19,0 C19,10.486100196838379 10.486100196838379,19 0,19 C0,19 0,19 0,19 C-10.486100196838379,19 -19,10.486100196838379 -19,0 C-19,0 -19,0 -19,0 C-19,-10.486100196838379 -10.486100196838379,-19 0,-19 C0,-19 0,-19 0,-19 C10.486100196838379,-19 19,-10.486100196838379 19,0z"></path></g><g opacity="1" transform="matrix(0.25420254468917847,-0.08114593476057053,0.08114593476057053,0.25420254468917847,236.50900268554688,113.86699676513672)"><path fill="rgb(77,67,95)" fill-opacity="1" d=" M19,0 C19,0 19,0 19,0 C19,10.486100196838379 10.486100196838379,19 0,19 C0,19 0,19 0,19 C-10.486100196838379,19 -19,10.486100196838379 -19,0 C-19,0 -19,0 -19,0 C-19,-10.486100196838379 -10.486100196838379,-19 0,-19 C0,-19 0,-19 0,-19 C10.486100196838379,-19 19,-10.486100196838379 19,0z"></path></g></g></g></svg>