<svg xmlns="http://www.w3.org/2000/svg" viewBox="0 0 60 28" width="60" height="28" preserveAspectRatio="xMidYMid meet" style="width: 100%; height: 100%; transform: translate3d(0px, 0px, 0px); content-visibility: visible;"><defs><clipPath id="__lottie_element_1436"><rect width="60" height="28" x="0" y="0"></rect></clipPath><mask id="__lottie_element_1448" mask-type="alpha"><g transform="matrix(0.1607561707496643,-0.04775708168745041,0.04775708168745041,0.1607561707496643,23.283437728881836,7.569328308105469)" opacity="1" style="display: block;"><g opacity="1" transform="matrix(1,0,0,1,33.388999938964844,27.836999893188477)"><path fill="rgb(149,133,150)" fill-opacity="1" d=" M31.523000717163086,-4.607999801635742 C24.386999130249023,-20.493000030517578 5.72599983215332,-27.586999893188477 -10.15999984741211,-20.45199966430664 C-26.045000076293945,-13.315999984741211 -33.138999938964844,5.3470001220703125 -26.003000259399414,21.23200035095215 C-26.003000259399414,21.23200035095215 -24.386999130249023,24.83099937438965 -24.386999130249023,24.83099937438965 C-24.386999130249023,24.83099937438965 -12.579000473022461,27.586000442504883 -12.579000473022461,27.586000442504883 C-12.579000473022461,27.586000442504883 27.354999542236328,9.64900016784668 27.354999542236328,9.64900016784668 C27.354999542236328,9.64900016784668 33.138999938964844,-1.0080000162124634 33.138999938964844,-1.0080000162124634 C33.138999938964844,-1.0080000162124634 31.523000717163086,-4.607999801635742 31.523000717163086,-4.607999801635742z"></path></g></g></mask></defs><g clip-path="url(#__lottie_element_1436)"><g transform="matrix(0.11476833373308182,-0.12227638810873032,0.12227638810873032,0.11476833373308182,17.29263687133789,14.121378898620605)" opacity="1" style="display: block;"><g opacity="1" transform="matrix(1,0,0,1,59.520999908447266,105.10800170898438)"><path fill="rgb(237,225,228)" fill-opacity="1" d=" M0,50.41999816894531 C27.847000122070312,50.41999816894531 50.41999816894531,27.847000122070312 50.41999816894531,0 C50.41999816894531,-27.847000122070312 27.847000122070312,-50.41999816894531 0,-50.41999816894531 C-27.847000122070312,-50.41999816894531 -50.41999816894531,-27.847000122070312 -50.41999816894531,0 C-50.41999816894531,27.847000122070312 -27.847000122070312,50.41999816894531 0,50.41999816894531z"></path></g><g opacity="1" transform="matrix(1,0,0,1,0,0)"><path stroke-linecap="round" stroke-linejoin="round" fill-opacity="0" stroke="rgb(201,181,190)" stroke-opacity="1" stroke-width="2" d=" M59.52000045776367,80.18199920654297 C59.52000045776367,80.18199920654297 59.52000045776367,54.6879997253418 59.52000045776367,54.6879997253418"></path></g><g opacity="1" transform="matrix(1,0,0,1,0,0)"><path stroke-linecap="round" stroke-linejoin="round" fill-opacity="0" stroke="rgb(201,181,190)" stroke-opacity="1" stroke-width="2" d=" M34.29600143432617,105.04900360107422 C34.29600143432617,105.04900360107422 14.460000038146973,105.04900360107422 14.460000038146973,105.04900360107422"></path></g><g opacity="1" transform="matrix(1,0,0,1,0,0)"><path stroke-linecap="round" stroke-linejoin="round" fill-opacity="0" stroke="rgb(201,181,190)" stroke-opacity="1" stroke-width="2" d=" M59.52000045776367,130.2740020751953 C59.52000045776367,130.2740020751953 59.52000045776367,150.11000061035156 59.52000045776367,150.11000061035156"></path></g><g opacity="1" transform="matrix(1,0,0,1,0,0)"><path stroke-linecap="round" stroke-linejoin="round" fill-opacity="0" stroke="rgb(201,181,190)" stroke-opacity="1" stroke-width="2" d=" M84.38800048828125,105.10800170898438 C84.38800048828125,105.10800170898438 104.2239990234375,105.10800170898438 104.2239990234375,105.10800170898438"></path></g><g opacity="1" transform="matrix(1,0,0,1,59.52000045776367,105.10800170898438)"><path fill="rgb(243,128,47)" fill-opacity="1" d=" M27.023000717163086,0 C27.023000717163086,-14.923999786376953 14.923999786376953,-27.02199935913086 0,-27.02199935913086 C-14.925000190734863,-27.02199935913086 -27.023000717163086,-14.923999786376953 -27.023000717163086,0 C-27.023000717163086,14.923999786376953 -14.925000190734863,27.02199935913086 0,27.02199935913086 C14.923999786376953,27.02199935913086 27.023000717163086,14.923999786376953 27.023000717163086,0z"></path></g><g opacity="1" transform="matrix(1,0,0,1,59.52000045776367,105.10800170898438)"><path fill="rgb(237,225,228)" fill-opacity="1" d=" M18.756999969482422,0 C18.756999969482422,-10.359000205993652 10.359000205993652,-18.756000518798828 0,-18.756000518798828 C-10.359000205993652,-18.756000518798828 -18.756999969482422,-10.359000205993652 -18.756999969482422,0 C-18.756999969482422,10.359000205993652 -10.359000205993652,18.756000518798828 0,18.756000518798828 C10.359000205993652,18.756000518798828 18.756999969482422,10.359000205993652 18.756999969482422,0z"></path></g><g opacity="1" transform="matrix(1,0,0,1,59.52000045776367,105.10800170898438)"><path fill="rgb(201,181,190)" fill-opacity="1" d=" M9.322999954223633,0 C9.322999954223633,-5.14900016784668 5.14900016784668,-9.322999954223633 0,-9.322999954223633 C-5.14900016784668,-9.322999954223633 -9.322999954223633,-5.14900016784668 -9.322999954223633,0 C-9.322999954223633,5.14900016784668 -5.14900016784668,9.322999954223633 0,9.322999954223633 C5.14900016784668,9.322999954223633 9.322999954223633,5.14900016784668 9.322999954223633,0z"></path></g><g opacity="1" transform="matrix(1,0,0,1,52.891998291015625,98.4469985961914)"><path fill="rgb(201,181,190)" fill-opacity="1" d=" M6.627999782562256,6.660999774932861 C6.627999782562256,6.660999774932861 3.86299991607666,-0.13500000536441803 1.2079999446868896,-6.660999774932861 C-2.319000005722046,-5.224999904632568 -5.14900016784668,-2.431999921798706 -6.627999782562256,1.0720000267028809 C-6.627999782562256,1.0720000267028809 6.627999782562256,6.660999774932861 6.627999782562256,6.660999774932861z"></path></g><g opacity="1" transform="matrix(1,0,0,1,66.14900207519531,111.7699966430664)"><path fill="rgb(201,181,190)" fill-opacity="1" d=" M-6.627999782562256,-6.6620001792907715 C-6.627999782562256,-6.6620001792907715 -3.86299991607666,0.13600000739097595 -1.2089999914169312,6.6620001792907715 C2.318000078201294,5.224999904632568 5.1479997634887695,2.431999921798706 6.627999782562256,-1.0720000267028809 C6.627999782562256,-1.0720000267028809 -6.627999782562256,-6.6620001792907715 -6.627999782562256,-6.6620001792907715z"></path></g><g opacity="1" transform="matrix(1,0,0,1,59.52000045776367,88.44200134277344)"><path fill="rgb(243,128,47)" fill-opacity="1" d=" M2.631999969482422,-5.276000022888184 C2.631999969482422,-5.276000022888184 -2.631999969482422,-5.276000022888184 -2.631999969482422,-5.276000022888184 C-2.631999969482422,-5.276000022888184 -2.631999969482422,2.6449999809265137 -2.631999969482422,2.6449999809265137 C-2.631999969482422,4.0980000495910645 -1.4529999494552612,5.276000022888184 0,5.276000022888184 C1.4539999961853027,5.276000022888184 2.631999969482422,4.0980000495910645 2.631999969482422,2.6449999809265137 C2.631999969482422,2.6449999809265137 2.631999969482422,-5.276000022888184 2.631999969482422,-5.276000022888184z"></path></g><g opacity="1" transform="matrix(1,0,0,1,42.854000091552734,105.10800170898438)"><path fill="rgb(243,128,47)" fill-opacity="1" d=" M-5.276000022888184,-2.631999969482422 C-5.276000022888184,-2.631999969482422 -5.276000022888184,2.631999969482422 -5.276000022888184,2.631999969482422 C-5.276000022888184,2.631999969482422 2.6440000534057617,2.631999969482422 2.6440000534057617,2.631999969482422 C4.0980000495910645,2.631999969482422 5.276000022888184,1.4529999494552612 5.276000022888184,0 C5.276000022888184,-1.4539999961853027 4.0980000495910645,-2.631999969482422 2.6440000534057617,-2.631999969482422 C2.6440000534057617,-2.631999969482422 -5.276000022888184,-2.631999969482422 -5.276000022888184,-2.631999969482422z"></path></g><g opacity="1" transform="matrix(1,0,0,1,59.520999908447266,121.7750015258789)"><path fill="rgb(243,128,47)" fill-opacity="1" d=" M-2.631999969482422,5.276000022888184 C-2.631999969482422,5.276000022888184 2.631999969482422,5.276000022888184 2.631999969482422,5.276000022888184 C2.631999969482422,5.276000022888184 2.631999969482422,-2.6440000534057617 2.631999969482422,-2.6440000534057617 C2.631999969482422,-4.0980000495910645 1.4529999494552612,-5.276000022888184 0,-5.276000022888184 C-1.4539999961853027,-5.276000022888184 -2.631999969482422,-4.0980000495910645 -2.631999969482422,-2.6440000534057617 C-2.631999969482422,-2.6440000534057617 -2.631999969482422,5.276000022888184 -2.631999969482422,5.276000022888184z"></path></g><g opacity="1" transform="matrix(1,0,0,1,76.18699645996094,105.10800170898438)"><path fill="rgb(243,128,47)" fill-opacity="1" d=" M5.276000022888184,2.631999969482422 C5.276000022888184,2.631999969482422 5.276000022888184,-2.631999969482422 5.276000022888184,-2.631999969482422 C5.276000022888184,-2.631999969482422 -2.6440000534057617,-2.631999969482422 -2.6440000534057617,-2.631999969482422 C-4.0980000495910645,-2.631999969482422 -5.276000022888184,-1.4529999494552612 -5.276000022888184,0 C-5.276000022888184,1.4539999961853027 -4.0980000495910645,2.631999969482422 -2.6440000534057617,2.631999969482422 C-2.6440000534057617,2.631999969482422 5.276000022888184,2.631999969482422 5.276000022888184,2.631999969482422z"></path></g><g opacity="1" transform="matrix(1,0,0,1,17.641000747680664,105.10800170898438)"><path fill="rgb(243,128,47)" fill-opacity="1" d=" M-2.509999990463257,-23.929000854492188 C-3.8559999465942383,-21.437000274658203 -4.986000061035156,-18.812000274658203 -5.9029998779296875,-16.09000015258789 C-2.7279999256134033,-12.810999870300293 -0.6019999980926514,-6.834000110626221 -0.6019999980926514,0 C-0.6019999980926514,6.834000110626221 -2.7279999256134033,12.810999870300293 -5.9029998779296875,16.09000015258789 C-4.986000061035156,18.812000274658203 -3.8559999465942383,21.437000274658203 -2.509999990463257,23.929000854492188 C2.490000009536743,19.406999588012695 5.9029998779296875,10.390999794006348 5.9029998779296875,0 C5.9029998779296875,-10.392000198364258 2.490000009536743,-19.408000946044922 -2.509999990463257,-23.929000854492188z"></path></g><g opacity="1" transform="matrix(1,0,0,1,17.541000366210938,105.10800170898438)"><path fill="rgb(243,128,47)" fill-opacity="1" d=" M5.276000022888184,2.631999969482422 C5.276000022888184,2.631999969482422 5.276000022888184,-2.631999969482422 5.276000022888184,-2.631999969482422 C5.276000022888184,-2.631999969482422 -2.6440000534057617,-2.631999969482422 -2.6440000534057617,-2.631999969482422 C-4.0980000495910645,-2.631999969482422 -5.276000022888184,-1.4529999494552612 -5.276000022888184,0 C-5.276000022888184,1.4539999961853027 -4.0980000495910645,2.631999969482422 -2.6440000534057617,2.631999969482422 C-2.6440000534057617,2.631999969482422 5.276000022888184,2.631999969482422 5.276000022888184,2.631999969482422z"></path></g><g opacity="1" transform="matrix(1,0,0,1,102.71900177001953,105.10800170898438)"><path fill="rgb(243,128,47)" fill-opacity="1" d=" M1.190999984741211,23.929000854492188 C-3.809000015258789,19.408000946044922 -7.2210001945495605,10.390999794006348 -7.2210001945495605,0 C-7.2210001945495605,-10.392000198364258 -3.809000015258789,-19.408000946044922 1.190999984741211,-23.929000854492188 C5.0370001792907715,-16.80900001525879 7.2210001945495605,-8.65999984741211 7.2210001945495605,0 C7.2210001945495605,8.65999984741211 5.0370001792907715,16.80900001525879 1.190999984741211,23.929000854492188z"></path></g><g opacity="1" transform="matrix(1,0,0,1,105.97100067138672,105.10800170898438)"><path fill="rgb(237,225,228)" fill-opacity="1" d=" M1.343999981880188,16.10300064086914 C-1.8380000591278076,12.82699966430664 -3.9700000286102295,6.8420000076293945 -3.9700000286102295,0 C-3.9700000286102295,-6.8420000076293945 -1.8380000591278076,-12.82699966430664 1.343999981880188,-16.10300064086914 C3.046999931335449,-11.045999526977539 3.9700000286102295,-5.63100004196167 3.9700000286102295,0 C3.9700000286102295,5.63100004196167 3.046999931335449,11.045999526977539 1.343999981880188,16.10300064086914z"></path></g><g opacity="1" transform="matrix(1,0,0,1,108.99600219726562,105.10800170898438)"><path fill="rgb(174,153,164)" fill-opacity="1" d=" M0.5400000214576721,6.395999908447266 C-0.3779999911785126,4.72599983215332 -0.9440000057220459,2.4790000915527344 -0.9440000057220459,0 C-0.9440000057220459,-2.4790000915527344 -0.3779999911785126,-4.7270002365112305 0.5400000214576721,-6.395999908447266 C0.8050000071525574,-4.302000045776367 0.9440000057220459,-2.1670000553131104 0.9440000057220459,0 C0.9440000057220459,2.1670000553131104 0.8050000071525574,4.301000118255615 0.5400000214576721,6.395999908447266z"></path></g><g opacity="1" transform="matrix(1,0,0,1,101.4990005493164,105.10800170898438)"><path fill="rgb(243,128,47)" fill-opacity="1" d=" M-5.276000022888184,2.631999969482422 C-5.276000022888184,2.631999969482422 -5.276000022888184,-2.631999969482422 -5.276000022888184,-2.631999969482422 C-5.276000022888184,-2.631999969482422 2.6440000534057617,-2.631999969482422 2.6440000534057617,-2.631999969482422 C4.0980000495910645,-2.631999969482422 5.276000022888184,-1.4529999494552612 5.276000022888184,0 C5.276000022888184,1.4539999961853027 4.0980000495910645,2.631999969482422 2.6440000534057617,2.631999969482422 C2.6440000534057617,2.631999969482422 -5.276000022888184,2.631999969482422 -5.276000022888184,2.631999969482422z"></path></g><g opacity="1" transform="matrix(1,0,0,1,59.52000045776367,148.3070068359375)"><path fill="rgb(243,128,47)" fill-opacity="1" d=" M-23.929000854492188,1.190999984741211 C-19.408000946044922,-3.809000015258789 -10.390999794006348,-7.2210001945495605 0,-7.2210001945495605 C10.392000198364258,-7.2210001945495605 19.408000946044922,-3.809000015258789 23.929000854492188,1.190999984741211 C16.809999465942383,5.0370001792907715 8.65999984741211,7.2210001945495605 0,7.2210001945495605 C-8.659000396728516,7.2210001945495605 -16.80900001525879,5.0370001792907715 -23.929000854492188,1.190999984741211z"></path></g><g opacity="1" transform="matrix(1,0,0,1,59.52000045776367,61.90999984741211)"><path fill="rgb(243,128,47)" fill-opacity="1" d=" M-23.929000854492188,-1.1920000314712524 C-19.408000946044922,3.808000087738037 -10.390999794006348,7.2210001945495605 0,7.2210001945495605 C10.392000198364258,7.2210001945495605 19.408000946044922,3.808000087738037 23.929000854492188,-1.1920000314712524 C16.809999465942383,-5.038000106811523 8.65999984741211,-7.2210001945495605 0,-7.2210001945495605 C-8.659000396728516,-7.2210001945495605 -16.80900001525879,-5.038000106811523 -23.929000854492188,-1.1920000314712524z"></path></g></g><g transform="matrix(0.1607561707496643,-0.04775708168745041,0.04775708168745041,0.1607561707496643,22.497703552246094,4.895011901855469)" opacity="1" style="display: block;"><g opacity="1" transform="matrix(1,0,0,1,22.683000564575195,23.097000122070312)"><path stroke-linecap="round" stroke-linejoin="round" fill-opacity="0" stroke="rgb(78,67,95)" stroke-opacity="1" stroke-width="3" d=" M7.00600004196167,15.595999717712402 C7.00600004196167,15.595999717712402 -7.00600004196167,-15.595999717712402 -7.00600004196167,-15.595999717712402"></path></g><g opacity="1" transform="matrix(1,0,0,1,32.58100128173828,41.584999084472656)"><path fill="rgb(237,225,228)" fill-opacity="1" d=" M32.33100128173828,-1.4299999475479126 C25.19499969482422,-17.315000534057617 6.533999919891357,-24.409000396728516 -9.35200023651123,-17.273000717163086 C-25.23699951171875,-10.137999534606934 -32.33100128173828,8.52400016784668 -25.195999145507812,24.409000396728516 C-25.195999145507812,24.409000396728516 32.33100128173828,-1.4299999475479126 32.33100128173828,-1.4299999475479126z"></path></g><g opacity="1" transform="matrix(1,0,0,1,28.816999435424805,35.47200012207031)"><path fill="rgb(243,128,47)" fill-opacity="1" d=" M23.68000030517578,-9.354999542236328 C22,-10.371999740600586 20.233999252319336,-11.229999542236328 18.400999069213867,-11.918000221252441 C18.400999069213867,-11.918000221252441 -22.09000015258789,6.269999980926514 -22.09000015258789,6.269999980926514 C-22.792999267578125,8.095999717712402 -23.323999404907227,9.987000465393066 -23.68000030517578,11.918000221252441 C-23.68000030517578,11.918000221252441 23.68000030517578,-9.354999542236328 23.68000030517578,-9.354999542236328z"></path></g><g opacity="1" transform="matrix(1,0,0,1,34.172000885009766,47.29600143432617)"><path fill="rgb(243,128,47)" fill-opacity="1" d=" M-27.823999404907227,16.062999725341797 C-27.823999404907227,16.062999725341797 29.458999633789062,-9.666999816894531 29.458999633789062,-9.666999816894531 C28.131000518798828,-12.03600025177002 26.535999298095703,-14.175999641418457 24.722999572753906,-16.062999725341797 C24.722999572753906,-16.062999725341797 -29.458999633789062,8.27400016784668 -29.458999633789062,8.27400016784668 C-29.25200080871582,10.883000373840332 -28.71299934387207,13.498000144958496 -27.823999404907227,16.062999725341797z"></path></g><g opacity="1" transform="matrix(1,0,0,1,36.957000732421875,54.875)"><path fill="rgb(201,181,190)" fill-opacity="1" d=" M-29.57200050354004,11.119000434875488 C-29.57200050354004,11.119000434875488 -27.954999923706055,14.718999862670898 -27.954999923706055,14.718999862670898 C-27.954999923706055,14.718999862670898 29.57200050354004,-11.119000434875488 29.57200050354004,-11.119000434875488 C29.57200050354004,-11.119000434875488 27.954999923706055,-14.718999862670898 27.954999923706055,-14.718999862670898 C27.954999923706055,-14.718999862670898 -29.57200050354004,11.119000434875488 -29.57200050354004,11.119000434875488z"></path></g><g opacity="1" transform="matrix(1,0,0,1,37.76499938964844,58.051998138427734)"><path fill="rgb(149,133,150)" fill-opacity="1" d=" M-16.954999923706055,14.29699993133545 C-16.954999923706055,14.29699993133545 -28.76300048828125,11.541999816894531 -28.76300048828125,11.541999816894531 C-28.76300048828125,11.541999816894531 28.76300048828125,-14.29699993133545 28.76300048828125,-14.29699993133545 C28.76300048828125,-14.29699993133545 22.979999542236328,-3.640000104904175 22.979999542236328,-3.640000104904175 C22.979999542236328,-3.640000104904175 -16.954999923706055,14.29699993133545 -16.954999923706055,14.29699993133545z"></path></g><g opacity="1" transform="matrix(1,0,0,1,25.81399917602539,29.34000015258789)"><path fill="rgb(201,181,190)" fill-opacity="1" d=" M-17.26099967956543,8.479000091552734 C-17.26099967956543,8.479000091552734 17.26099967956543,-7.026000022888184 17.26099967956543,-7.026000022888184 C10.831000328063965,-8.479000091552734 3.8919999599456787,-7.936999797821045 -2.5850000381469727,-5.0279998779296875 C-9.062000274658203,-2.11899995803833 -14.076000213623047,2.7070000171661377 -17.26099967956543,8.479000091552734z"></path></g></g><g mask="url(#__lottie_element_1448)" style="display: block;"><g transform="matrix(0.1603332906961441,-0.04915810748934746,0.04915810748934746,0.1603332906961441,21.749956130981445,5.4790167808532715)" opacity="1"><g opacity="1" transform="matrix(1,0,0,1,30.384000778198242,40.242000579833984)"><path fill="rgb(237,225,228)" fill-opacity="1" d=" M-11.53499984741211,5.182000160217285 C-14.392000198364258,-1.1790000200271606 -11.541999816894531,-8.678999900817871 -5.181000232696533,-11.53600025177002 C1.1799999475479126,-14.392999649047852 8.678000450134277,-11.543000221252441 11.53499984741211,-5.182000160217285 C12.0649995803833,-5.370999813079834 -10.934000015258789,5.129000186920166 -11.53499984741211,5.182000160217285z"></path></g><g opacity="1" transform="matrix(1,0,0,1,30.385000228881836,40.242000579833984)"><path fill="rgb(201,181,190)" fill-opacity="1" d=" M4.0229997634887695,8.956999778747559 C-0.9160000085830688,11.175000190734863 -6.738999843597412,8.961999893188477 -8.956999778747559,4.0229997634887695 C-11.175000190734863,-0.9160000085830688 -8.961999893188477,-6.73799991607666 -4.0229997634887695,-8.956999778747559 C0.9160000085830688,-11.175000190734863 6.73799991607666,-8.961999893188477 8.956999778747559,-4.0229997634887695 C11.175000190734863,0.9160000085830688 8.961000442504883,6.73799991607666 4.0229997634887695,8.956999778747559z"></path></g><g opacity="1" transform="matrix(1,0,0,1,34.89799880981445,47.00699996948242)"><path fill="rgb(201,181,190)" fill-opacity="1" d=" M13.470000267028809,2.742000102996826 C13.470000267028809,2.742000102996826 -6.896999835968018,11.890999794006348 -6.896999835968018,11.890999794006348 C-6.896999835968018,11.890999794006348 -13.470000267028809,-2.743000030517578 -13.470000267028809,-2.743000030517578 C-13.470000267028809,-2.743000030517578 6.896999835968018,-11.890999794006348 6.896999835968018,-11.890999794006348 C6.896999835968018,-11.890999794006348 13.470000267028809,2.742000102996826 13.470000267028809,2.742000102996826z"></path></g><g opacity="1" transform="matrix(1,0,0,1,44.99800109863281,42.24800109863281)"><path fill="rgb(201,181,190)" fill-opacity="1" d=" M3.2039999961853027,7.131999969482422 C-0.7289999723434448,8.89799976348877 -5.364999771118164,7.136000156402588 -7.13100004196167,3.203000068664551 C-8.89799976348877,-0.7289999723434448 -7.135000228881836,-5.366000175476074 -3.203000068664551,-7.131999969482422 C0.7289999723434448,-8.89799976348877 5.366000175476074,-7.136000156402588 7.131999969482422,-3.203000068664551 C8.89799976348877,0.7289999723434448 7.136000156402588,5.364999771118164 3.2039999961853027,7.131999969482422z"></path></g><g opacity="1" transform="matrix(1,0,0,1,50.24800109863281,44.39699935913086)"><path fill="rgb(201,181,190)" fill-opacity="1" d=" M-1.8799999952316284,5.3520002365112305 C-1.8799999952316284,5.3520002365112305 5.250999927520752,2.1500000953674316 5.250999927520752,2.1500000953674316 C5.250999927520752,2.1500000953674316 1.8819999694824219,-5.3520002365112305 1.8819999694824219,-5.3520002365112305 C1.8819999694824219,-5.3520002365112305 -5.250999927520752,-2.1489999294281006 -5.250999927520752,-2.1489999294281006 C-5.250999927520752,-2.1489999294281006 -1.8799999952316284,5.3520002365112305 -1.8799999952316284,5.3520002365112305z"></path></g><g opacity="1" transform="matrix(1,0,0,1,30.384000778198242,40.242000579833984)"><path fill="rgb(78,67,95)" fill-opacity="1" d=" M6.961999893188477,-3.127000093460083 C5.235000133514404,-6.9720001220703125 0.7179999947547913,-8.689000129699707 -3.127000093460083,-6.961999893188477 C-6.9720001220703125,-5.235000133514404 -8.689000129699707,-0.7179999947547913 -6.961999893188477,3.127000093460083 C-5.235000133514404,6.9720001220703125 -0.7179999947547913,8.689000129699707 3.128000020980835,6.961999893188477 C6.9720001220703125,5.235000133514404 8.689000129699707,0.7179999947547913 6.961999893188477,-3.127000093460083z"></path></g><g opacity="1" transform="matrix(1,0,0,1,44.99800109863281,42.249000549316406)"><path fill="rgb(78,67,95)" fill-opacity="1" d=" M1.784999966621399,3.9709999561309814 C-0.4050000011920929,4.954999923706055 -2.986999988555908,3.9730000495910645 -3.9709999561309814,1.7829999923706055 C-4.954999923706055,-0.40700000524520874 -3.9739999771118164,-2.989000082015991 -1.784000039100647,-3.9730000495910645 C0.4059999883174896,-4.955999851226807 2.989000082015991,-3.9749999046325684 3.9730000495910645,-1.784999966621399 C4.955999851226807,0.4050000011920929 3.9749999046325684,2.986999988555908 1.784999966621399,3.9709999561309814z"></path></g></g></g></g></svg>