<svg xmlns="http://www.w3.org/2000/svg" viewBox="0 0 122 58" width="122" height="58" preserveAspectRatio="xMidYMid meet" style="width: 100%; height: 100%; transform: translate3d(0px, 0px, 0px); content-visibility: visible;"><defs><clipPath id="__lottie_element_1869"><rect width="122" height="58" x="0" y="0"></rect></clipPath></defs><g clip-path="url(#__lottie_element_1869)"><g transform="matrix(1.8059998750686646,0,0,1.8059998750686646,0.6922433376312256,42.7686882019043)" opacity="1" style="display: block;"><g opacity="1" transform="matrix(1,0,0,1,33.19200134277344,3.053999900817871)"><path fill="rgb(196,133,43)" fill-opacity="1" d=" M-32.94200134277344,-2.803999900817871 C-32.94200134277344,-2.803999900817871 -32.94200134277344,2.803999900817871 -32.94200134277344,2.803999900817871 C-32.94200134277344,2.803999900817871 32.94200134277344,2.803999900817871 32.94200134277344,2.803999900817871 C32.94200134277344,2.803999900817871 28.621999740600586,-2.803999900817871 28.621999740600586,-2.803999900817871 C28.621999740600586,-2.803999900817871 -32.94200134277344,-2.803999900817871 -32.94200134277344,-2.803999900817871z"></path></g></g><g transform="matrix(1.8059998750686646,0,0,1.8059998750686646,0.6917276382446289,42.769203186035156)" opacity="1" style="display: block;"><g opacity="1" transform="matrix(1,0,0,1,13.618000030517578,3.053999900817871)"><path fill="rgb(227,180,119)" fill-opacity="1" d=" M11.277999877929688,-2.803999900817871 C11.277999877929688,-2.803999900817871 -13.368000030517578,-2.803999900817871 -13.368000030517578,-2.803999900817871 C-13.368000030517578,-2.803999900817871 -13.368000030517578,2.803999900817871 -13.368000030517578,2.803999900817871 C-13.368000030517578,2.803999900817871 13.368000030517578,2.803999900817871 13.368000030517578,2.803999900817871 C13.281000137329102,0.6899999976158142 12.520999908447266,-1.1109999418258667 11.277999877929688,-2.803999900817871z"></path></g></g><g transform="matrix(1.8059998750686646,0,0,1.8059998750686646,83.37504577636719,-1.5355852842330933)" opacity="1" style="display: block;"><g opacity="1" transform="matrix(1,0,0,1,14.758000373840332,23.40999984741211)"><path fill="rgb(17,128,195)" fill-opacity="1" d=" M2.6579999923706055,-3.490000009536743 C2.6579999923706055,-3.490000009536743 -3.1500000953674316,-1.7450000047683716 -3.1500000953674316,-1.7450000047683716 C-3.1500000953674316,-1.7450000047683716 -1.0700000524520874,2.125 -1.0700000524520874,2.125 C-0.574999988079071,3.0450000762939453 0.49799999594688416,3.490000009536743 1.4989999532699585,3.190000057220459 C2.499000072479248,2.8889999389648438 3.1500000953674316,1.9259999990463257 3.055000066757202,0.8849999904632568 C3.055000066757202,0.8849999904632568 2.6579999923706055,-3.490000009536743 2.6579999923706055,-3.490000009536743z"></path></g><g opacity="1" transform="matrix(1,0,0,1,16.0310001373291,25.850000381469727)"><path fill="rgb(74,92,148)" fill-opacity="1" d=" M-0.9390000104904175,0.5109999775886536 C-1.2209999561309814,-0.00800000037997961 -1.0290000438690186,-0.6570000052452087 -0.5109999775886536,-0.9390000104904175 C0.00800000037997961,-1.2209999561309814 0.6570000052452087,-1.0290000438690186 0.9390000104904175,-0.5099999904632568 C1.2209999561309814,0.00800000037997961 1.0290000438690186,0.6570000052452087 0.5109999775886536,0.9390000104904175 C-0.00800000037997961,1.2209999561309814 -0.6570000052452087,1.0299999713897705 -0.9390000104904175,0.5109999775886536z"></path></g><g opacity="1" transform="matrix(1,0,0,1,16.0310001373291,27.2189998626709)"><path fill="rgb(230,235,246)" fill-opacity="1" d=" M-2.434000015258789,-1.36899995803833 C-2.434000015258789,-1.36899995803833 2.434000015258789,-1.36899995803833 2.434000015258789,-1.36899995803833 C2.434000015258789,-1.36899995803833 4.320000171661377,1.36899995803833 4.320000171661377,1.36899995803833 C4.320000171661377,1.36899995803833 -4.320000171661377,1.36899995803833 -4.320000171661377,1.36899995803833 C-4.320000171661377,1.36899995803833 -2.434000015258789,-1.36899995803833 -2.434000015258789,-1.36899995803833z"></path></g><g opacity="1" transform="matrix(1,0,0,1,16.031999588012695,29.48900032043457)"><path fill="rgb(181,202,224)" fill-opacity="1" d=" M-4.320000171661377,0.9010000228881836 C-4.320000171661377,0.9010000228881836 4.320000171661377,0.9010000228881836 4.320000171661377,0.9010000228881836 C4.320000171661377,0.9010000228881836 4.320000171661377,-0.9010000228881836 4.320000171661377,-0.9010000228881836 C4.320000171661377,-0.9010000228881836 -4.320000171661377,-0.9010000228881836 -4.320000171661377,-0.9010000228881836 C-4.320000171661377,-0.9010000228881836 -4.320000171661377,0.9010000228881836 -4.320000171661377,0.9010000228881836z"></path></g><g opacity="1" transform="matrix(1,0,0,1,10.45300006866455,12.440999984741211)"><path fill="rgb(181,202,224)" fill-opacity="1" d=" M10.20300006866455,6.3420000076293945 C10.20300006866455,6.3420000076293945 3.6389999389648438,-7.389999866485596 3.6389999389648438,-7.389999866485596 C2.0299999713897705,-10.753999710083008 -2.0380001068115234,-12.1899995803833 -5.4019999504089355,-10.581000328063965 C-8.767000198364258,-8.972999572753906 -10.20300006866455,-4.906000137329102 -8.595000267028809,-1.5410000085830688 C-8.595000267028809,-1.5410000085830688 -2.0309998989105225,12.1899995803833 -2.0309998989105225,12.1899995803833 C-2.0309998989105225,12.1899995803833 10.20300006866455,6.3420000076293945 10.20300006866455,6.3420000076293945z"></path></g><g opacity="1" transform="matrix(1,0,0,1,11.517000198364258,15.38599967956543)"><path fill="rgb(230,235,246)" fill-opacity="1" d=" M-9.138999938964844,-3.3970000743865967 C-9.138999938964844,-3.3970000743865967 -3.0959999561309814,9.244999885559082 -3.0959999561309814,9.244999885559082 C-3.0959999561309814,9.244999885559082 9.138999938964844,3.3959999084472656 9.138999938964844,3.3959999084472656 C9.138999938964844,3.3959999084472656 3.0959999561309814,-9.244999885559082 3.0959999561309814,-9.244999885559082 C3.0959999561309814,-9.244999885559082 -9.138999938964844,-3.3970000743865967 -9.138999938964844,-3.3970000743865967z"></path></g><g opacity="1" transform="matrix(1,0,0,1,14.538999557495117,22.292999267578125)"><path fill="rgb(74,92,148)" fill-opacity="1" d=" M-2.9110000133514404,3.1440000534057617 C-2.9110000133514404,3.1440000534057617 4.730000019073486,-0.5080000162124634 4.730000019073486,-0.5080000162124634 C4.730000019073486,-0.5080000162124634 5.3520002365112305,-3.1440000534057617 5.3520002365112305,-3.1440000534057617 C5.3520002365112305,-3.1440000534057617 -5.3520002365112305,1.972000002861023 -5.3520002365112305,1.972000002861023 C-5.3520002365112305,1.972000002861023 -2.9110000133514404,3.1440000534057617 -2.9110000133514404,3.1440000534057617z"></path></g><g opacity="1" transform="matrix(1,0,0,1,9.451000213623047,5.163000106811523)"><path fill="rgb(17,128,195)" fill-opacity="1" d=" M-0.8709999918937683,2.5230000019073486 C-0.8709999918937683,2.5230000019073486 2.509999990463257,0.9070000052452087 2.509999990463257,0.9070000052452087 C2.509999990463257,0.9070000052452087 0.8709999918937683,-2.5230000019073486 0.8709999918937683,-2.5230000019073486 C0.8709999918937683,-2.5230000019073486 -2.509999990463257,-0.9070000052452087 -2.509999990463257,-0.9070000052452087 C-2.509999990463257,-0.9070000052452087 -0.8709999918937683,2.5230000019073486 -0.8709999918937683,2.5230000019073486z"></path></g><g opacity="1" transform="matrix(1,0,0,1,8.430000305175781,8.927000045776367)"><path fill="rgb(17,128,195)" fill-opacity="1" d=" M5.6620001792907715,-3.875999927520752 C5.6620001792907715,-3.875999927520752 6.572000026702881,-1.972000002861023 6.572000026702881,-1.972000002861023 C6.572000026702881,-1.972000002861023 -5.6620001792907715,3.875999927520752 -5.6620001792907715,3.875999927520752 C-5.6620001792907715,3.875999927520752 -6.572000026702881,1.972000002861023 -6.572000026702881,1.972000002861023 C-6.572000026702881,1.972000002861023 5.6620001792907715,-3.875999927520752 5.6620001792907715,-3.875999927520752z"></path></g><g opacity="1" transform="matrix(1,0,0,1,5.998000144958496,3.499000072479248)"><path fill="rgb(17,128,195)" fill-opacity="1" d=" M-4.48799991607666,2.486999988555908 C-3.9509999752044678,0.7369999885559082 -2.7200000286102295,-0.7940000295639038 -0.9480000138282776,-1.6410000324249268 C0.8240000009536743,-2.48799991607666 2.7880001068115234,-2.4830000400543213 4.48799991607666,-1.8029999732971191 C4.48799991607666,-1.8029999732971191 -4.48799991607666,2.486999988555908 -4.48799991607666,2.486999988555908z"></path></g><g opacity="1" transform="matrix(1,0,0,1,9.451000213623047,5.163000106811523)"><path fill="rgb(47,70,121)" fill-opacity="1" d=" M-1.2680000066757202,0.6060000061988831 C-1.6030000448226929,-0.09399999678134918 -1.3049999475479126,-0.9330000281333923 -0.6050000190734863,-1.2680000066757202 C0.0949999988079071,-1.6019999980926514 0.9340000152587891,-1.305999994277954 1.2680000066757202,-0.6060000061988831 C1.6030000448226929,0.09399999678134918 1.3070000410079956,0.9330000281333923 0.6069999933242798,1.2680000066757202 C-0.09300000220537186,1.6019999980926514 -0.9330000281333923,1.305999994277954 -1.2680000066757202,0.6060000061988831z"></path></g><g opacity="1" transform="matrix(1,0,0,1,15.829999923706055,14.994000434875488)"><path fill="rgb(181,202,224)" fill-opacity="1" d=" M-4.23199987411499,-2.5460000038146973 C-4.23199987411499,-2.5460000038146973 0.6769999861717224,-4.890999794006348 0.6769999861717224,-4.890999794006348 C0.6769999861717224,-4.890999794006348 0.9509999752044678,-4.317999839782715 0.9509999752044678,-4.317999839782715 C0.9509999752044678,-4.317999839782715 -3.384000062942505,-2.246999979019165 -3.384000062942505,-2.246999979019165 C-3.384000062942505,-2.246999979019165 -0.3779999911785126,4.044000148773193 -0.3779999911785126,4.044000148773193 C-0.3779999911785126,4.044000148773193 3.9579999446868896,1.9709999561309814 3.9579999446868896,1.9709999561309814 C3.9579999446868896,1.9709999561309814 4.23199987411499,2.5439999103546143 4.23199987411499,2.5439999103546143 C4.23199987411499,2.5439999103546143 -0.6769999861717224,4.890999794006348 -0.6769999861717224,4.890999794006348 C-0.6769999861717224,4.890999794006348 -4.23199987411499,-2.5460000038146973 -4.23199987411499,-2.5460000038146973z"></path></g><g opacity="1" transform="matrix(1,0,0,1,9.251999855041504,18.13800048828125)"><path fill="rgb(181,202,224)" fill-opacity="1" d=" M4.980000019073486,2.187999963760376 C4.980000019073486,2.187999963760376 -1.4240000247955322,5.249000072479248 -1.4240000247955322,5.249000072479248 C-1.4240000247955322,5.249000072479248 -1.6990000009536743,4.676000118255615 -1.6990000009536743,4.676000118255615 C-1.6990000009536743,4.676000118255615 4.131999969482422,1.8890000581741333 4.131999969482422,1.8890000581741333 C4.131999969482422,1.8890000581741333 1.1260000467300415,-4.401000022888184 1.1260000467300415,-4.401000022888184 C1.1260000467300415,-4.401000022888184 -4.705999851226807,-1.6139999628067017 -4.705999851226807,-1.6139999628067017 C-4.705999851226807,-1.6139999628067017 -4.980000019073486,-2.187999963760376 -4.980000019073486,-2.187999963760376 C-4.980000019073486,-2.187999963760376 1.4240000247955322,-5.249000072479248 1.4240000247955322,-5.249000072479248 C1.4240000247955322,-5.249000072479248 4.980000019073486,2.187999963760376 4.980000019073486,2.187999963760376z"></path></g><g opacity="1" transform="matrix(1,0,0,1,6.2769999504089355,22.74799919128418)"><path fill="rgb(17,128,195)" fill-opacity="1" d=" M-0.27900001406669617,-6.73199987411499 C-0.27900001406669617,-6.73199987411499 3.5199999809265137,-5.744999885559082 3.5199999809265137,-5.744999885559082 C3.5199999809265137,-5.744999885559082 0.27900001406669617,6.73199987411499 0.27900001406669617,6.73199987411499 C0.27900001406669617,6.73199987411499 -3.5199999809265137,5.744999885559082 -3.5199999809265137,5.744999885559082 C-3.5199999809265137,5.744999885559082 -0.27900001406669617,-6.73199987411499 -0.27900001406669617,-6.73199987411499z"></path></g><g opacity="1" transform="matrix(1,0,0,1,6.682000160217285,21.18899917602539)"><path fill="rgb(74,92,148)" fill-opacity="1" d=" M0.37700000405311584,-4.125 C0.37700000405311584,-4.125 1.6779999732971191,-3.7860000133514404 1.6779999732971191,-3.7860000133514404 C1.6779999732971191,-3.7860000133514404 -0.37700000405311584,4.125 -0.37700000405311584,4.125 C-0.37700000405311584,4.125 -1.6779999732971191,3.7860000133514404 -1.6779999732971191,3.7860000133514404 C-1.6779999732971191,3.7860000133514404 0.37700000405311584,-4.125 0.37700000405311584,-4.125z"></path></g><g opacity="1" transform="matrix(1,0,0,1,4.894000053405762,29.479000091552734)"><path fill="rgb(230,235,246)" fill-opacity="1" d=" M-2.434000015258789,-1.36899995803833 C-2.434000015258789,-1.36899995803833 2.434000015258789,-1.36899995803833 2.434000015258789,-1.36899995803833 C2.434000015258789,-1.36899995803833 4.320000171661377,1.36899995803833 4.320000171661377,1.36899995803833 C4.320000171661377,1.36899995803833 -4.320000171661377,1.36899995803833 -4.320000171661377,1.36899995803833 C-4.320000171661377,1.36899995803833 -2.434000015258789,-1.36899995803833 -2.434000015258789,-1.36899995803833z"></path></g><g opacity="1" transform="matrix(1,0,0,1,7.729000091552734,16.67799949645996)"><path fill="rgb(181,202,224)" fill-opacity="1" d=" M1.8320000171661377,5.244999885559082 C1.8320000171661377,5.244999885559082 3.509000062942505,-1.2109999656677246 3.509000062942505,-1.2109999656677246 C3.9200000762939453,-2.7920000553131104 2.9619998931884766,-4.422999858856201 1.3799999952316284,-4.834000110626221 C-0.20200000703334808,-5.244999885559082 -1.8320000171661377,-4.288000106811523 -2.243000030517578,-2.7060000896453857 C-2.243000030517578,-2.7060000896453857 -3.9200000762939453,3.752000093460083 -3.9200000762939453,3.752000093460083 C-3.9200000762939453,3.752000093460083 1.8320000171661377,5.244999885559082 1.8320000171661377,5.244999885559082z"></path></g><g opacity="1" transform="matrix(1,0,0,1,4.894999980926514,31.749000549316406)"><path fill="rgb(181,202,224)" fill-opacity="1" d=" M-4.320000171661377,0.9010000228881836 C-4.320000171661377,0.9010000228881836 4.320000171661377,0.9010000228881836 4.320000171661377,0.9010000228881836 C4.320000171661377,0.9010000228881836 4.320000171661377,-0.9010000228881836 4.320000171661377,-0.9010000228881836 C4.320000171661377,-0.9010000228881836 -4.320000171661377,-0.9010000228881836 -4.320000171661377,-0.9010000228881836 C-4.320000171661377,-0.9010000228881836 -4.320000171661377,0.9010000228881836 -4.320000171661377,0.9010000228881836z"></path></g><g opacity="1" transform="matrix(1,0,0,1,8.362000465393066,14.718999862670898)"><path fill="rgb(17,128,195)" fill-opacity="1" d=" M-1.4620000123977661,-0.3799999952316284 C-1.2519999742507935,-1.187999963760376 -0.4269999861717224,-1.6720000505447388 0.38100001215934753,-1.4630000591278076 C1.187999963760376,-1.253000020980835 1.6729999780654907,-0.42800000309944153 1.4630000591278076,0.3799999952316284 C1.253000020980835,1.187999963760376 0.4269999861717224,1.6720000505447388 -0.3799999952316284,1.4630000591278076 C-1.187999963760376,1.253000020980835 -1.6720000505447388,0.42800000309944153 -1.4620000123977661,-0.3799999952316284z"></path></g><g opacity="1" transform="matrix(1,0,0,1,4.88700008392334,28.097000122070312)"><path fill="rgb(230,235,246)" fill-opacity="1" d=" M-1.069000005722046,0.0010000000474974513 C-1.0700000524520874,-0.5889999866485596 -0.5920000076293945,-1.0679999589920044 -0.0020000000949949026,-1.0679999589920044 C0.5879999995231628,-1.069000005722046 1.0679999589920044,-0.5929999947547913 1.069000005722046,-0.0020000000949949026 C1.0700000524520874,0.5879999995231628 0.5920000076293945,1.0670000314712524 0.0020000000949949026,1.0679999589920044 C-0.5889999866485596,1.069000005722046 -1.0679999589920044,0.5910000205039978 -1.069000005722046,0.0010000000474974513z"></path></g></g></g></svg>