<svg xmlns="http://www.w3.org/2000/svg" viewBox="0 0 17 45" width="17" height="45" preserveAspectRatio="xMidYMid meet" style="width: 100%; height: 100%; transform: translate3d(0px, 0px, 0px); content-visibility: visible;"><defs><clipPath id="__lottie_element_2198"><rect width="17" height="45" x="0" y="0"></rect></clipPath></defs><g clip-path="url(#__lottie_element_2198)"><g transform="matrix(0.17753884196281433,0,0,0.17525464296340942,9.842080116271973,14.029522895812988)" opacity="0.5707546513745765" style="display: block;"><g opacity="1" transform="matrix(0.7071067690849304,0.7071067690849304,-0.7071067690849304,0.7071067690849304,0,0)"><path fill="rgb(188,56,27)" fill-opacity="1" d=" M13.234999656677246,-5.26200008392334 C16.320999145507812,10.369000434875488 17.141000747680664,12.991000175476074 14.925999641418457,15.074000358581543 C12.772000312805176,17.099000930786133 9.807999610900879,16.118000030517578 -5.261000156402588,13.234999656677246 C-7.544000148773193,12.79800033569336 -9.51200008392334,10.890000343322754 -10.26099967956543,8.234999656677246 C-11.010000228881836,5.579999923706055 -17.5,-12.5 -17.5,-12.5 C-18.981000900268555,-16.92099952697754 -16.566999435424805,-18.969999313354492 -12.5,-17.5 C-12.5,-17.5 5.738999843597412,-11.053999900817871 8.234999656677246,-10.26099967956543 C10.730999946594238,-9.468000411987305 12.685999870300293,-8.041000366210938 13.234999656677246,-5.26200008392334z"></path></g></g><g transform="matrix(0.36056196689605713,0,0,0.3421286642551422,6.820093154907227,28.552114486694336)" opacity="0.9169458519081612" style="display: block;"><g opacity="1" transform="matrix(0.7071067690849304,0.7071067690849304,-0.7071067690849304,0.7071067690849304,0,0)"><path fill="rgb(205,71,28)" fill-opacity="1" d=" M13.234999656677246,-5.26200008392334 C16.320999145507812,10.369000434875488 17.141000747680664,12.991000175476074 14.925999641418457,15.074000358581543 C12.772000312805176,17.099000930786133 9.807999610900879,16.118000030517578 -5.261000156402588,13.234999656677246 C-7.544000148773193,12.79800033569336 -9.51200008392334,10.890000343322754 -10.26099967956543,8.234999656677246 C-11.010000228881836,5.579999923706055 -17.5,-12.5 -17.5,-12.5 C-18.981000900268555,-16.92099952697754 -16.566999435424805,-18.969999313354492 -12.5,-17.5 C-12.5,-17.5 5.738999843597412,-11.053999900817871 8.234999656677246,-10.26099967956543 C10.730999946594238,-9.468000411987305 12.685999870300293,-8.041000366210938 13.234999656677246,-5.26200008392334z"></path></g></g><g transform="matrix(0.4311726689338684,0,0,0.40650904178619385,10.624567985534668,34.352081298828125)" opacity="0.9986563070168848" style="display: block;"><g opacity="1" transform="matrix(0.7071067690849304,0.7071067690849304,-0.7071067690849304,0.7071067690849304,0,0)"><path fill="rgb(225,88,30)" fill-opacity="1" d=" M13.234999656677246,-5.26200008392334 C16.320999145507812,10.369000434875488 17.141000747680664,12.991000175476074 14.925999641418457,15.074000358581543 C12.772000312805176,17.099000930786133 9.807999610900879,16.118000030517578 -5.261000156402588,13.234999656677246 C-7.544000148773193,12.79800033569336 -9.51200008392334,10.890000343322754 -10.26099967956543,8.234999656677246 C-11.010000228881836,5.579999923706055 -17.5,-12.5 -17.5,-12.5 C-18.981000900268555,-16.92099952697754 -16.566999435424805,-18.969999313354492 -12.5,-17.5 C-12.5,-17.5 5.738999843597412,-11.053999900817871 8.234999656677246,-10.26099967956543 C10.730999946594238,-9.468000411987305 12.685999870300293,-8.041000366210938 13.234999656677246,-5.26200008392334z"></path></g></g><g transform="matrix(0.4462886452674866,0,0,0.42029130458831787,6.3252177238464355,35.88616180419922)" opacity="1" style="display: block;"><g opacity="1" transform="matrix(0.7071067690849304,0.7071067690849304,-0.7071067690849304,0.7071067690849304,0,0)"><path fill="rgb(235,97,31)" fill-opacity="1" d=" M13.234999656677246,-5.26200008392334 C16.320999145507812,10.369000434875488 17.141000747680664,12.991000175476074 14.925999641418457,15.074000358581543 C12.772000312805176,17.099000930786133 9.807999610900879,16.118000030517578 -5.261000156402588,13.234999656677246 C-7.544000148773193,12.79800033569336 -9.51200008392334,10.890000343322754 -10.26099967956543,8.234999656677246 C-11.010000228881836,5.579999923706055 -17.5,-12.5 -17.5,-12.5 C-18.981000900268555,-16.92099952697754 -16.566999435424805,-18.969999313354492 -12.5,-17.5 C-12.5,-17.5 5.738999843597412,-11.053999900817871 8.234999656677246,-10.26099967956543 C10.730999946594238,-9.468000411987305 12.685999870300293,-8.041000366210938 13.234999656677246,-5.26200008392334z"></path></g></g><g transform="matrix(0.416611909866333,0,0,0.3937353491783142,10.40001106262207,35.504615783691406)" opacity="1" style="display: block;"><g opacity="1" transform="matrix(0.7071067690849304,0.7071067690849304,-0.7071067690849304,0.7071067690849304,0,0)"><path fill="rgb(240,123,42)" fill-opacity="1" d=" M13.234999656677246,-5.26200008392334 C16.320999145507812,10.369000434875488 17.141000747680664,12.991000175476074 14.925999641418457,15.074000358581543 C12.772000312805176,17.099000930786133 9.807999610900879,16.118000030517578 -5.261000156402588,13.234999656677246 C-7.544000148773193,12.79800033569336 -9.51200008392334,10.890000343322754 -10.26099967956543,8.234999656677246 C-11.010000228881836,5.579999923706055 -17.5,-12.5 -17.5,-12.5 C-18.981000900268555,-16.92099952697754 -16.566999435424805,-18.969999313354492 -12.5,-17.5 C-12.5,-17.5 5.738999843597412,-11.053999900817871 8.234999656677246,-10.26099967956543 C10.730999946594238,-9.468000411987305 12.685999870300293,-8.041000366210938 13.234999656677246,-5.26200008392334z"></path></g></g><g transform="matrix(0.30669549107551575,0,0,0.29391252994537354,7.831465721130371,36.46942138671875)" opacity="1" style="display: block;"><g opacity="1" transform="matrix(0.7071067690849304,0.7071067690849304,-0.7071067690849304,0.7071067690849304,0,0)"><path fill="rgb(249,173,64)" fill-opacity="1" d=" M13.234999656677246,-5.26200008392334 C16.320999145507812,10.369000434875488 17.141000747680664,12.991000175476074 14.925999641418457,15.074000358581543 C12.772000312805176,17.099000930786133 9.807999610900879,16.118000030517578 -5.261000156402588,13.234999656677246 C-7.544000148773193,12.79800033569336 -9.51200008392334,10.890000343322754 -10.26099967956543,8.234999656677246 C-11.010000228881836,5.579999923706055 -17.5,-12.5 -17.5,-12.5 C-18.981000900268555,-16.92099952697754 -16.566999435424805,-18.969999313354492 -12.5,-17.5 C-12.5,-17.5 5.738999843597412,-11.053999900817871 8.234999656677246,-10.26099967956543 C10.730999946594238,-9.468000411987305 12.685999870300293,-8.041000366210938 13.234999656677246,-5.26200008392334z"></path></g></g><g transform="matrix(0.12226823717355728,0,0,0.12162672728300095,7.073861122131348,42.48308563232422)" opacity="1" style="display: block;"><g opacity="1" transform="matrix(0.7071067690849304,0.7071067690849304,-0.7071067690849304,0.7071067690849304,0,0)"><path fill="rgb(254,201,76)" fill-opacity="1" d=" M13.234999656677246,-5.26200008392334 C16.320999145507812,10.369000434875488 17.141000747680664,12.991000175476074 14.925999641418457,15.074000358581543 C12.772000312805176,17.099000930786133 9.807999610900879,16.118000030517578 -5.261000156402588,13.234999656677246 C-7.544000148773193,12.79800033569336 -9.51200008392334,10.890000343322754 -10.26099967956543,8.234999656677246 C-11.010000228881836,5.579999923706055 -17.5,-12.5 -17.5,-12.5 C-18.981000900268555,-16.92099952697754 -16.566999435424805,-18.969999313354492 -12.5,-17.5 C-12.5,-17.5 5.738999843597412,-11.053999900817871 8.234999656677246,-10.26099967956543 C10.730999946594238,-9.468000411987305 12.685999870300293,-8.041000366210938 13.234999656677246,-5.26200008392334z"></path></g></g><g transform="matrix(0.1126553863286972,0,0,0.1126553863286972,9.574892044067383,43.19792938232422)" opacity="1" style="display: none;"><g opacity="1" transform="matrix(0.7071067690849304,0.7071067690849304,-0.7071067690849304,0.7071067690849304,0,0)"><path fill="rgb(255,202,77)" fill-opacity="1" d=" M13.234999656677246,-5.26200008392334 C16.320999145507812,10.369000434875488 17.141000747680664,12.991000175476074 14.925999641418457,15.074000358581543 C12.772000312805176,17.099000930786133 9.807999610900879,16.118000030517578 -5.261000156402588,13.234999656677246 C-7.544000148773193,12.79800033569336 -9.51200008392334,10.890000343322754 -10.26099967956543,8.234999656677246 C-11.010000228881836,5.579999923706055 -17.5,-12.5 -17.5,-12.5 C-18.981000900268555,-16.92099952697754 -16.566999435424805,-18.969999313354492 -12.5,-17.5 C-12.5,-17.5 5.738999843597412,-11.053999900817871 8.234999656677246,-10.26099967956543 C10.730999946594238,-9.468000411987305 12.685999870300293,-8.041000366210938 13.234999656677246,-5.26200008392334z"></path></g></g></g></svg>