<svg xmlns="http://www.w3.org/2000/svg" viewBox="0 0 78 77" width="78" height="77" preserveAspectRatio="xMidYMid meet" style="width: 100%; height: 100%; transform: translate3d(0px, 0px, 0px); content-visibility: visible;"><defs><clipPath id="__lottie_element_4411"><rect width="78" height="77" x="0" y="0"></rect></clipPath><mask id="__lottie_element_4420" mask-type="alpha"><g transform="matrix(0.3325749337673187,-0.003733300371095538,0.003733300371095538,0.3325749337673187,2.676431179046631,2.325167417526245)" opacity="1" style="display: block;"><g opacity="1" transform="matrix(1,0,0,1,108.8280029296875,108.89800262451172)"><path fill="rgb(30,70,111)" fill-opacity="1" d=" M-88.04000091552734,0 C-88.04000091552734,-48.62300109863281 -48.62300109863281,-88.04000091552734 0,-88.04000091552734 C48.624000549316406,-88.04000091552734 88.04000091552734,-48.62300109863281 88.04000091552734,0 C88.04000091552734,48.62300109863281 48.624000549316406,88.04000091552734 0,88.04000091552734 C-48.62300109863281,88.04000091552734 -88.04000091552734,48.62300109863281 -88.04000091552734,0z"></path></g></g></mask></defs><g clip-path="url(#__lottie_element_4411)"><g transform="matrix(0.3421265780925751,-0.05025939643383026,0.05025939643383026,0.3421265780925751,-3.4293580055236816,6.347964763641357)" opacity="1" style="display: block;"><g opacity="1" transform="matrix(1,0,0,1,108.8270034790039,108.89900207519531)"><path fill="rgb(30,71,112)" fill-opacity="1" d=" M-88.04000091552734,0 C-88.04000091552734,-48.624000549316406 -48.62300109863281,-88.04100036621094 0,-88.04100036621094 C48.62300109863281,-88.04100036621094 88.04000091552734,-48.624000549316406 88.04000091552734,0 C88.04000091552734,48.62300109863281 48.62300109863281,88.04100036621094 0,88.04100036621094 C-48.62300109863281,88.04100036621094 -88.04000091552734,48.62300109863281 -88.04000091552734,0z"></path></g></g><g mask="url(#__lottie_element_4420)" style="display: block;"><g transform="matrix(0.32639577984809875,0,0,0.32639577984809875,3.769850015640259,6.075162887573242)" opacity="1"><g opacity="1" transform="matrix(1,0,0,1,108.8270034790039,123.06199645996094)"><path fill="rgb(223,226,225)" fill-opacity="1" d=" M86.55500030517578,48.64799880981445 C83.58300018310547,41.07400131225586 77.67500305175781,23.36400032043457 75.9729995727539,15.371000289916992 C74.41100311279297,8.043000221252441 33.249000549316406,-2.7920000553131104 32.659000396728516,-1.8459999561309814 C31.357999801635742,0.23999999463558197 24.31599998474121,3.5290000438690186 22.14699935913086,2.4260001182556152 C17.038000106811523,-0.17000000178813934 17.04199981689453,-6.923999786376953 17.003999710083008,-12.29699993133545 C16.979000091552734,-15.88700008392334 17.14299964904785,-19.23900032043457 15.687999725341797,-22.516000747680664 C14.277000427246094,-25.69300079345703 12.5649995803833,-28.92099952697754 11.10099983215332,-32.137001037597656 C10.781000137329102,-32.840999603271484 3.802999973297119,-47.58000183105469 0.296999990940094,-53.941001892089844 C-0.24300000071525574,-54.91999816894531 -0.7319999933242798,-55.659000396728516 -1.3930000066757202,-56.15800094604492 C-2.055000066757202,-56.65700149536133 -2.878999948501587,-56.89899826049805 -4.046000003814697,-56.89799880981445 C-4.046000003814697,-56.89799880981445 -4.0879998207092285,-56.89799880981445 -4.0879998207092285,-56.89799880981445 C-5.685999870300293,-56.88999938964844 -7.283999919891357,-56.882999420166016 -8.881999969482422,-56.875999450683594 C-8.881999969482422,-56.875999450683594 -9.503000259399414,-56.89099884033203 -9.711999893188477,-57.01100158691406 C-9.937000274658203,-57.138999938964844 -10.098999977111816,-57.39099884033203 -10.255999565124512,-57.654998779296875 C-10.472000122070312,-58.012001037597656 -16.57900047302246,-70.80999755859375 -17.77199935913086,-72.58499908447266 C-18.11400032043457,-73.09300231933594 -18.416000366210938,-73.47000122070312 -18.683000564575195,-73.68599700927734 C-18.825000762939453,-73.80000305175781 -18.959999084472656,-73.8740005493164 -19.107999801635742,-73.8759994506836 C-19.107999801635742,-73.8759994506836 -19.197999954223633,-73.86499786376953 -19.197999954223633,-73.86499786376953 C-23.72100067138672,-72.71600341796875 -27.381000518798828,-69.19200134277344 -30.202999114990234,-65.4469985961914 C-30.356000900268555,-65.24299621582031 -31.893999099731445,-62.48400115966797 -32.46900177001953,-61.39699935913086 C-33.61899948120117,-59.22200012207031 -35.0989990234375,-56.354000091552734 -36.70600128173828,-53.19300079345703 C-39.922000885009766,-46.87200164794922 -43.6510009765625,-39.38199996948242 -46.275001525878906,-33.94499969482422 C-48.0260009765625,-30.316999435424805 -49.28300094604492,-27.61400032043457 -49.57899856567383,-26.750999450683594 C-50.22700119018555,-24.857999801635742 -53.66299819946289,-17.68600082397461 -55.37300109863281,-16.791000366210938 C-56.11899948120117,-16.399999618530273 -61.917999267578125,-16.53499984741211 -63.55799865722656,-15.715999603271484 C-65.10900115966797,-14.9399995803833 -69.51399993896484,-8.263999938964844 -70.97899627685547,-6.078999996185303 C-73.86100006103516,-1.7769999504089355 -77.96399688720703,6.422999858856201 -81.75,9.906999588012695 C-85.44200134277344,13.303999900817871 -91.58599853515625,16.680999755859375 -95.4209976196289,17.454999923706055 C-95.4209976196289,17.454999923706055 -95.5250015258789,17.476999282836914 -95.5250015258789,17.476999282836914 C-95.5250015258789,17.476999282836914 -95.5250015258789,31.816999435424805 -95.5250015258789,31.816999435424805 C-95.5250015258789,31.816999435424805 -95.3949966430664,31.808000564575195 -95.3949966430664,31.808000564575195 C-95.3949966430664,31.808000564575195 -95.3949966430664,88.94599914550781 -95.3949966430664,88.94599914550781 C-95.3949966430664,88.94599914550781 99.61799621582031,88.94599914550781 99.61799621582031,88.94599914550781 C99.61799621582031,88.94599914550781 99.61799621582031,72.5469970703125 99.61799621582031,72.5469970703125 C97.15699768066406,62.9630012512207 88.2760009765625,48.64799880981445 86.55500030517578,48.64799880981445z"></path></g><g opacity="1" transform="matrix(1,0,0,1,123.37000274658203,104.05799865722656)"><path fill="rgb(158,172,182)" fill-opacity="1" d=" M16.683000564575195,17.834999084472656 C16.683000564575195,17.834999084472656 8.855999946594238,20.788000106811523 6.715000152587891,19.7549991607666 C6.375,19.590999603271484 2.499000072479248,12.079999923706055 2.4619998931884766,6.706999778747559 C2.437000036239624,3.115999937057495 2.6010000705718994,-0.23499999940395355 1.1449999809265137,-3.513000011444092 C-0.26499998569488525,-6.689000129699707 -1.9780000448226929,-9.916999816894531 -3.441999912261963,-13.133999824523926 C-4.738999843597412,-15.986000061035156 -6.079999923706055,-18.81800079345703 -7.461999893188477,-21.628999710083008 C-7.461999893188477,-21.628999710083008 -7.464000225067139,-21.589000701904297 -7.464000225067139,-21.589000701904297 C-9.567000389099121,-25.92799949645996 -12.310999870300293,-31.48200035095215 -14.222999572753906,-34.95000076293945 C-14.894000053405762,-36.16699981689453 -15.494999885559082,-37.02399826049805 -16.441999435424805,-37.49700164794922 C-16.441999435424805,-37.49700164794922 -16.683000564575195,-37.617000579833984 -16.683000564575195,-37.617000579833984 C-16.683000564575195,-37.617000579833984 -16.665000915527344,-37.34400177001953 -16.665000915527344,-37.34400177001953 C-16.18600082397461,-30.055999755859375 -15.633000373840332,-12.656000137329102 -15.633000373840332,-12.656000137329102 C-15.633000373840332,-12.656000137329102 -8.187999725341797,-14.810999870300293 -8.187999725341797,-14.810999870300293 C-7.980000019073486,-14.838000297546387 -9.309000015258789,9.270000457763672 -9.309000015258789,9.270000457763672 C-9.309000015258789,9.270000457763672 -3.999000072479248,34.78799819946289 -3.697000026702881,35.1879997253418 C-2.568000078201294,36.678001403808594 8.65999984741211,37.617000579833984 13.638999938964844,35.992000579833984 C14.600000381469727,35.678001403808594 16.683000564575195,17.834999084472656 16.683000564575195,17.834999084472656z"></path></g><g opacity="1" transform="matrix(1,0,0,1,147.4669952392578,125.30999755859375)"><path fill="rgb(223,226,225)" fill-opacity="1" d=" M-5.420000076293945,-7.4039998054504395 C-1.5549999475479126,-12.831999778747559 8.684000015258789,-25.71500015258789 11.489999771118164,-25.204999923706055 C12.972999572753906,-24.934999465942383 14.48900032043457,-24.40399932861328 15.545000076293945,-23.761999130249023 C17.97100067138672,-22.28499984741211 23.746999740600586,-13.753999710083008 23.746999740600586,-13.753999710083008 C23.746999740600586,-13.753999710083008 33.641998291015625,-4.745999813079834 33.641998291015625,-4.745999813079834 C33.641998291015625,-4.745999813079834 37.54100036621094,12.807999610900879 37.54100036621094,12.807999610900879 C37.54100036621094,12.807999610900879 25.125999450683594,25.71500015258789 25.125999450683594,25.71500015258789 C25.125999450683594,25.71500015258789 -37.54100036621094,15.043000221252441 -37.54100036621094,15.043000221252441 C-37.54100036621094,15.043000221252441 -5.420000076293945,-7.4039998054504395 -5.420000076293945,-7.4039998054504395z"></path></g><g opacity="1" transform="matrix(1,0,0,1,164.95399475097656,128.06700134277344)"><path fill="rgb(158,172,182)" fill-opacity="1" d=" M0.9430000185966492,-15.404000282287598 C0.9430000185966492,-15.404000282287598 3.2950000762939453,4.605999946594238 3.2950000762939453,4.605999946594238 C3.2950000762939453,4.605999946594238 -9.628000259399414,1.4980000257492065 -9.628000259399414,1.4980000257492065 C-9.628000259399414,1.4980000257492065 -21.322999954223633,19.81800079345703 -21.322999954223633,19.81800079345703 C-21.322999954223633,19.81800079345703 -3.6470000743865967,7.035999774932861 -3.6470000743865967,7.035999774932861 C-3.6470000743865967,7.035999774932861 21.322999954223633,27.94099998474121 21.322999954223633,27.94099998474121 C21.322999954223633,27.94099998474121 20.05299949645996,10.050000190734863 20.05299949645996,10.050000190734863 C20.05299949645996,10.050000190734863 16.15399932861328,-7.502999782562256 16.15399932861328,-7.502999782562256 C16.15399932861328,-7.502999782562256 6.258999824523926,-16.51099967956543 6.258999824523926,-16.51099967956543 C6.258999824523926,-16.51099967956543 0.4830000102519989,-25.042999267578125 -1.9429999589920044,-26.520000457763672 C-2.9670000076293945,-27.14299964904785 -4.420000076293945,-27.695999145507812 -5.866000175476074,-27.94099998474121 C-5.86899995803833,-27.933000564575195 0.9430000185966492,-15.404000282287598 0.9430000185966492,-15.404000282287598z"></path></g><g opacity="1" transform="matrix(1,0,0,1,58.35900115966797,121.03800201416016)"><path fill="rgb(158,172,182)" fill-opacity="1" d=" M9.241000175476074,6.857999801635742 C9.182999610900879,6.76200008392334 4.447000026702881,1.2869999408721924 4.447000026702881,1.2869999408721924 C4.447000026702881,1.2869999408721924 1.4780000448226929,-10.265999794006348 0.0989999994635582,-12.869999885559082 C0.0989999994635582,-12.869999885559082 -9.746999740600586,-13.3149995803833 -9.746999740600586,-13.3149995803833 C-9.746999740600586,-13.3149995803833 -3.4519999027252197,-8.812000274658203 -3.2730000019073486,-8.494000434875488 C-3.1110000610351562,-8.211000442504883 -2.5950000286102295,10.307000160217285 -2.5950000286102295,10.307000160217285 C-2.5950000286102295,10.307000160217285 8.579999923706055,13.0649995803833 8.579999923706055,13.0649995803833 C8.579999923706055,13.0649995803833 9.241000175476074,6.857999801635742 9.241000175476074,6.857999801635742z"></path></g><g opacity="1" transform="matrix(1,0,0,1,92.75800323486328,63.24599838256836)"><path fill="rgb(158,172,182)" fill-opacity="1" d=" M7.936999797821045,2.9110000133514404 C7.936999797821045,2.9110000133514404 7.638000011444092,2.9130001068115234 7.638000011444092,2.9130001068115234 C7.48799991607666,2.9140000343322754 7.336999893188477,2.9149999618530273 7.188000202178955,2.9149999618530273 C7.188000202178955,2.9149999618530273 7.117000102996826,2.9149999618530273 7.117000102996826,2.9149999618530273 C6.836999893188477,2.9159998893737793 6.572999954223633,2.8989999294281006 6.370999813079834,2.7820000648498535 C6.1529998779296875,2.6600000858306885 5.993000030517578,2.4110000133514404 5.835999965667725,2.1470000743865967 C5.622000217437744,1.7920000553131104 5.186999797821045,0.8899999856948853 4.626999855041504,-0.3009999990463257 C4.065999984741211,-1.49399995803833 3.377000093460083,-2.9839999675750732 2.6419999599456787,-4.5370001792907715 C1.1690000295639038,-7.646999835968018 -0.48500001430511475,-11.005999565124512 -1.680999994277954,-12.782999992370605 C-2.0230000019073486,-13.291999816894531 -2.3259999752044678,-13.670999526977539 -2.5959999561309814,-13.890000343322754 C-2.740999937057495,-14.005000114440918 -2.880000114440918,-14.083000183105469 -3.0380001068115234,-14.085000038146973 C-3.0380001068115234,-14.085000038146973 -3.132999897003174,-14.074000358581543 -3.132999897003174,-14.074000358581543 C-3.2079999446868896,-14.055999755859375 -3.2730000019073486,-14.032999992370605 -3.3320000171661377,-14.017000198364258 C-3.3320000171661377,-14.017000198364258 -3.4649999141693115,-13.979999542236328 -3.4649999141693115,-13.979999542236328 C-3.4649999141693115,-13.979999542236328 -3.446000099182129,-13.842000007629395 -3.446000099182129,-13.842000007629395 C-3.069999933242798,-11.154999732971191 -1.0729999542236328,-3.4619998931884766 -1.180999994277954,-3.0820000171661377 C-1.4279999732971191,-2.200000047683716 -5.738999843597412,0.004000000189989805 -5.738999843597412,0.004000000189989805 C-5.738999843597412,0.004000000189989805 -7.936999797821045,14.085000038146973 -7.936999797821045,14.085000038146973 C-7.936999797821045,14.085000038146973 -3.2850000858306885,7.209000110626221 -3.2850000858306885,7.209000110626221 C-3.2850000858306885,7.209000110626221 5.304999828338623,12.678999900817871 5.304999828338623,12.678999900817871 C5.304999828338623,12.678999900817871 7.936999797821045,2.9110000133514404 7.936999797821045,2.9110000133514404z"></path></g><g opacity="1" transform="matrix(1,0,0,1,70.4209976196289,123.73899841308594)"><path fill="rgb(158,172,182)" fill-opacity="1" d=" M34.77899932861328,-11.29800033569336 C34.77899932861328,-11.29800033569336 28.216999053955078,-18.670000076293945 27.875,-21.402999877929688 C27.73200035095215,-22.552000045776367 27.641000747680664,-47.81800079345703 27.641000747680664,-47.81800079345703 C27.641000747680664,-47.81800079345703 18.726999282836914,-55.50699996948242 18.726999282836914,-55.50699996948242 C18.726999282836914,-55.50699996948242 21.155000686645508,-36.21900177001953 21.155000686645508,-36.21900177001953 C21.155000686645508,-36.21900177001953 1.3289999961853027,5.538000106811523 1.3289999961853027,5.538000106811523 C1.3289999961853027,5.538000106811523 5.172999858856201,14.39900016784668 4.673999786376953,16.677000045776367 C4.540999889373779,17.277999877929688 -34.77899932861328,32.5629997253418 -34.77899932861328,32.5629997253418 C-34.77899932861328,32.5629997253418 15.64900016784668,24.117000579833984 15.64900016784668,24.117000579833984 C15.64900016784668,24.117000579833984 16.7450008392334,-2.7049999237060547 17.16200065612793,-3.436000108718872 C17.565000534057617,-4.144000053405762 34.77899932861328,-11.29800033569336 34.77899932861328,-11.29800033569336z"></path></g><g opacity="1" transform="matrix(1,0,0,1,125.38500213623047,57.983001708984375)"><path fill="rgb(42,99,157)" fill-opacity="1" d=" M3.9040000438690186,0 C3.9040000438690186,-2.1549999713897705 2.1559998989105225,-3.9030001163482666 0.0010000000474974513,-3.9030001163482666 C-2.1549999713897705,-3.9030001163482666 -3.9019999504089355,-2.1549999713897705 -3.9019999504089355,0 C-3.9019999504089355,2.1549999713897705 -2.1549999713897705,3.9030001163482666 0.0010000000474974513,3.9030001163482666 C2.1559998989105225,3.9030001163482666 3.9040000438690186,2.1549999713897705 3.9040000438690186,0z"></path></g><g opacity="1" transform="matrix(1,0,0,1,144.04200744628906,75.80400085449219)"><path fill="rgb(42,99,157)" fill-opacity="1" d=" M2.753000020980835,0 C2.753000020980835,-1.5210000276565552 1.5210000276565552,-2.753999948501587 0,-2.753999948501587 C-1.5199999809265137,-2.753999948501587 -2.753000020980835,-1.5210000276565552 -2.753000020980835,0 C-2.753000020980835,1.5210000276565552 -1.5199999809265137,2.753000020980835 0,2.753000020980835 C1.5210000276565552,2.753000020980835 2.753000020980835,1.5210000276565552 2.753000020980835,0z"></path></g></g></g><g transform="matrix(0.28859415650367737,-0.19049935042858124,0.19049935042858124,0.28859415650367737,-12.875580787658691,27.439481735229492)" opacity="1" style="display: block;"><g opacity="1" transform="matrix(1,0,0,1,109.47200012207031,108.89900207519531)"><path fill="rgb(251,214,74)" fill-opacity="1" d=" M104.44599914550781,-12.135000228881836 C104.44599914550781,-12.135000228881836 95.63300323486328,-0.008999999612569809 95.63300323486328,-0.008999999612569809 C95.63300323486328,-0.008999999612569809 95.63300323486328,-50.715999603271484 95.63300323486328,-50.715999603271484 C95.63300323486328,-52.98899841308594 92.37899780273438,-53.375 91.8479995727539,-51.16400146484375 C91.8479995727539,-51.16400146484375 88.35299682617188,-36.61199951171875 88.35299682617188,-36.61199951171875 C88.35299682617188,-36.61199951171875 74.66999816894531,-69.6449966430664 74.66999816894531,-69.6449966430664 C73.0009994506836,-73.67400360107422 66.95099639892578,-71.96600341796875 67.63600158691406,-67.65899658203125 C67.63600158691406,-67.65899658203125 31.780000686645508,-103.48799896240234 31.780000686645508,-103.48799896240234 C30.172000885009766,-105.09600067138672 27.599000930786133,-103.06600189208984 28.788000106811523,-101.12799835205078 C28.788000106811523,-101.12799835205078 36.59700012207031,-88.39800262451172 36.59700012207031,-88.39800262451172 C36.59700012207031,-88.39800262451172 -10.239999771118164,-107.77899932861328 -10.239999771118164,-107.77899932861328 C-12.342000007629395,-108.64900207519531 -13.940999984741211,-105.78800201416016 -12.10200023651123,-104.4530029296875 C-12.10200023651123,-104.4530029296875 -0.01600000075995922,-95.68099975585938 -0.01600000075995922,-95.68099975585938 C-0.01600000075995922,-95.68099975585938 -35.81700134277344,-95.66799926757812 -35.81700134277344,-95.66799926757812 C-40.178001403808594,-95.66600036621094 -40.915000915527344,-89.42500305175781 -36.67399978637695,-88.40899658203125 C-36.67399978637695,-88.40899658203125 -36.62699890136719,-88.39800262451172 -36.62699890136719,-88.39800262451172 C-36.62699890136719,-88.39800262451172 -83.49099731445312,-68.96700286865234 -83.49099731445312,-68.96700286865234 C-85.58999633789062,-68.09600067138672 -84.70099639892578,-64.94400024414062 -82.45600128173828,-65.29900360107422 C-82.45600128173828,-65.29900360107422 -67.64900207519531,-67.64199829101562 -67.64900207519531,-67.64199829101562 C-67.64900207519531,-67.64199829101562 -92.98999786376953,-42.30099868774414 -92.98999786376953,-42.30099868774414 C-96.072998046875,-39.21799850463867 -92.18299865722656,-34.28300094604492 -88.46499633789062,-36.56100082397461 C-88.46499633789062,-36.56100082397461 -88.38300323486328,-36.61199951171875 -88.38300323486328,-36.61199951171875 C-88.38300323486328,-36.61199951171875 -107.77100372314453,10.196000099182129 -107.77100372314453,10.196000099182129 C-108.64199829101562,12.29699993133545 -105.78099822998047,13.89799976348877 -104.44499969482422,12.057000160217285 C-104.44499969482422,12.057000160217285 -95.68800354003906,-0.008999999612569809 -95.68800354003906,-0.008999999612569809 C-95.68800354003906,-0.008999999612569809 -95.66899871826172,50.722999572753906 -95.66899871826172,50.722999572753906 C-95.66899871826172,52.99599838256836 -92.41500091552734,53.38100051879883 -91.88400268554688,51.17100143432617 C-91.88400268554688,51.17100143432617 -88.38300323486328,36.595001220703125 -88.38300323486328,36.595001220703125 C-88.38300323486328,36.595001220703125 -74.66799926757812,69.7040023803711 -74.66799926757812,69.7040023803711 C-73,73.73200225830078 -66.9520034790039,72.0270004272461 -67.63400268554688,67.72000122070312 C-67.63400268554688,67.72000122070312 -67.64900207519531,67.625 -67.64900207519531,67.625 C-67.64900207519531,67.625 -31.823999404907227,103.45099639892578 -31.823999404907227,103.45099639892578 C-30.215999603271484,105.05899810791016 -27.642000198364258,103.02799987792969 -28.83099937438965,101.08899688720703 C-28.83099937438965,101.08899688720703 -36.62699890136719,88.38099670410156 -36.62699890136719,88.38099670410156 C-36.62699890136719,88.38099670410156 10.25,107.77899932861328 10.25,107.77899932861328 C12.35099983215332,108.64800262451172 13.949999809265137,105.78900146484375 12.111000061035156,104.4530029296875 C12.111000061035156,104.4530029296875 -0.01600000075995922,95.63999938964844 -0.01600000075995922,95.63999938964844 C-0.01600000075995922,95.63999938964844 35.73899841308594,95.63999938964844 35.73899841308594,95.63999938964844 C40.10100173950195,95.63999938964844 40.8380012512207,89.39700317382812 36.59700012207031,88.38099670410156 C36.59700012207031,88.38099670410156 83.4209976196289,68.96700286865234 83.4209976196289,68.96700286865234 C85.52100372314453,68.09500122070312 84.62999725341797,64.94200134277344 82.38400268554688,65.29900360107422 C82.38400268554688,65.29900360107422 67.63600158691406,67.64199829101562 67.63600158691406,67.64199829101562 C67.63600158691406,67.64199829101562 92.94200134277344,42.31700134277344 92.94200134277344,42.31700134277344 C96.02400207519531,39.231998443603516 92.13200378417969,34.29899978637695 88.41500091552734,36.57899856567383 C88.41500091552734,36.57899856567383 88.3740005493164,36.604000091552734 88.3740005493164,36.604000091552734 C88.3740005493164,36.604000091552734 107.77100372314453,-10.27299976348877 107.77100372314453,-10.27299976348877 C108.64199829101562,-12.37399959564209 105.78199768066406,-13.973999977111816 104.44599914550781,-12.135000228881836z M0,84.13700103759766 C-46.46799850463867,84.13700103759766 -84.13800048828125,46.46799850463867 -84.13800048828125,0 C-84.13800048828125,-46.46799850463867 -46.46799850463867,-84.13800048828125 0,-84.13800048828125 C46.46900177001953,-84.13800048828125 84.13800048828125,-46.46799850463867 84.13800048828125,0 C84.13800048828125,46.46799850463867 46.46900177001953,84.13700103759766 0,84.13700103759766z"></path></g></g><g transform="matrix(0.33118879795074463,-0.09945141524076462,0.09945141524076462,0.33118879795074463,-7.595995903015137,12.892500877380371)" opacity="1" style="display: block;"><path stroke-linecap="butt" stroke-linejoin="miter" fill-opacity="0" stroke-miterlimit="10" stroke="rgb(251,214,74)" stroke-opacity="1" stroke-width="2.5" d=" M180.91,116.57 C185.58,102.35 181.8,85.96 173.92,73.6 C166.03,61.24 154.52,52.32 142.69,44.75 C125.92,34.03 106.44,25.3 87.56,30.04 C76.38,32.85 66.56,40.13 57.58,48.03 C40.65,62.92 24.86,82.4 22.55,106.22 C20.09,131.59 33.94,156.12 52.18,171.71 C74.44,190.72 104.62,199.16 131.63,190.58 C158.65,182.01 181.03,155.19 183.65,124.19 C186.73,87.73 163.25,53.76 134.43,35.83 C123.59,29.09 111.57,23.96 99.13,23.86 C77.56,23.7 57.56,39.19 46.24,59.54 C33.53,82.41 30.58,111.83 39.22,136.92 C47.85,162.01 68.11,182 91.78,187.75 C108.38,191.79 125.87,189.05 141.96,182.99 C156.01,177.7 169.91,169.26 177.67,155.25 C184.48,142.97 185.75,127.7 183.93,113.43 C179.64,79.61 158.35,49.5 130.44,35.04 C122.43,30.89 113.74,27.9 104.89,28 C95.2,28.1 85.81,31.89 77.27,36.95 C59.34,47.56 43.92,64.77 37.87,86.28 C32.45,105.5 35.05,127.19 44.36,144.49 C54.39,163.09 72.06,176.41 91.36,179.89 C104.43,182.25 117.9,180.28 130.6,176.14 C148.75,170.24 166.36,159.22 176.48,141.51 C190.86,116.33 186.47,81 168.76,58.58 C151.05,36.16 122.23,26.51 95.6,30.54 C81.03,32.75 66.59,38.97 56.2,50.49 C45.46,62.4 39.83,79.17 38.5,95.94 C37.5,108.35 38.74,121.11 43.16,132.56 C51.43,154.02 70.46,169.02 90.97,174.35 C111.47,179.67 133.21,176.21 153.05,168.39 C166.25,163.18 179.59,155.29 186.35,141.68 C193.91,126.44 191.47,107.27 185.1,91.37 C171.94,58.51 141.23,34.23 108.8,34.57 C76.36,34.92 44.89,62.09 39.49,97.53 C35.03,126.76 48.49,157.81 70.89,174 C93.29,190.19 123.21,191.69 147.69,179.76 C156.32,175.56 164.46,169.69 170.37,161.56 C183.61,143.35 183.47,116.88 176.77,94.7 C169.34,70.09 153.65,47.48 131.77,38.25 C108.98,28.64 81.7,35.35 63.63,53.48 C45.56,71.61 36.85,99.99 39.57,126.83 M115.21,26.1 C99.35,20.9 81.07,25.11 67.29,33.9 C53.51,42.69 43.57,55.53 35.13,68.72 C23.17,87.42 13.45,109.14 18.73,130.19 C21.86,142.65 29.98,153.6 38.78,163.61 C55.39,182.49 77.1,200.1 103.66,202.67 C131.96,205.41 159.3,189.96 176.68,169.63 C197.88,144.82 207.29,111.17 197.73,81.05 C188.17,50.93 158.27,25.97 123.7,23.05 C83.05,19.62 45.18,45.8 25.19,77.92 C17.67,90.02 11.95,103.42 11.84,117.28 C11.66,141.34 28.93,163.63 51.62,176.25 C77.11,190.43 109.92,193.71 137.9,184.08 C165.87,174.46 188.15,151.87 194.57,125.48 C199.07,106.97 196.02,87.48 189.26,69.53 C183.36,53.87 173.96,38.37 158.34,29.72 C144.63,22.13 127.62,20.71 111.7,22.74 C74,27.52 40.43,51.25 24.31,82.37 C19.68,91.31 16.35,100.99 16.46,110.86 C16.57,121.66 20.79,132.14 26.43,141.66 C38.26,161.65 57.46,178.84 81.43,185.59 C102.86,191.63 127.05,188.73 146.33,178.35 C167.07,167.17 181.92,147.47 185.8,125.95 C188.43,111.38 186.23,96.36 181.62,82.2 C175.04,61.97 162.76,42.32 143.01,31.04 C114.94,15.01 75.54,19.91 50.55,39.65 C25.56,59.4 14.8,91.53 19.29,121.23 C21.75,137.46 28.69,153.57 41.53,165.15 C54.81,177.13 73.5,183.39 92.21,184.89 C106.04,185.99 120.27,184.61 133.03,179.69 C156.96,170.47 173.68,149.25 179.62,126.39 C185.56,103.52 181.7,79.29 172.97,57.17 C167.17,42.45 158.37,27.58 143.2,20.05 C126.21,11.61 104.83,14.33 87.11,21.43 C50.48,36.1 23.4,70.34 23.78,106.51 C24.17,142.67 54.46,177.76 93.98,183.78 C126.56,188.75 161.18,173.75 179.23,148.77 C197.28,123.8 198.96,90.44 185.66,63.14 C180.98,53.52 174.43,44.44 165.37,37.85 C145.06,23.09 115.55,23.25 90.82,30.72 C63.38,39 38.17,56.5 27.88,80.9 C17.17,106.3 24.64,136.71 44.86,156.86 C65.07,177.01 96.71,186.73 126.65,183.69 M115.14,26.74 C99.4,21.57 81.27,25.75 67.59,34.48 C53.92,43.2 44.05,55.94 35.68,69.03 C23.81,87.58 14.16,109.13 19.4,130.03 C22.51,142.39 30.57,153.26 39.31,163.19 C55.79,181.92 77.33,199.4 103.68,201.95 C131.76,204.67 158.9,189.34 176.14,169.16 C197.18,144.54 206.51,111.15 197.03,81.26 C187.54,51.37 157.87,26.6 123.57,23.71 C83.22,20.3 45.65,46.28 25.81,78.16 C18.35,90.16 12.67,103.46 12.57,117.22 C12.39,141.09 29.53,163.21 52.05,175.74 C77.34,189.8 109.9,193.06 137.66,183.51 C165.42,173.95 187.53,151.54 193.9,125.35 C198.36,106.98 195.33,87.64 188.63,69.83 C182.77,54.29 173.44,38.91 157.94,30.32 C144.34,22.79 127.46,21.39 111.66,23.4 C74.25,28.15 40.94,51.69 24.94,82.58 C20.35,91.45 17.04,101.05 17.15,110.85 C17.26,121.56 21.45,131.95 27.04,141.41 C38.79,161.24 57.83,178.3 81.62,185 C102.89,190.99 126.89,188.12 146.02,177.81 C166.61,166.72 181.34,147.17 185.19,125.82 C187.8,111.36 185.62,96.46 181.05,82.41 C174.51,62.33 162.33,42.83 142.73,31.64 C114.88,15.73 75.78,20.59 50.98,40.18 C26.18,59.78 15.5,91.66 19.96,121.13 C22.4,137.24 29.28,153.22 42.03,164.72 C55.21,176.6 73.75,182.82 92.32,184.31 C106.04,185.4 120.16,184.03 132.83,179.15 C156.58,169.99 173.17,148.94 179.06,126.25 C184.96,103.57 181.13,79.51 172.47,57.56 C166.7,42.96 157.97,28.2 142.92,20.73 C126.06,12.36 104.85,15.06 87.26,22.1 C50.91,36.66 24.04,70.64 24.42,106.52 C24.8,142.41 54.86,177.23 94.08,183.21 C126.41,188.14 160.76,173.25 178.67,148.47 C196.59,123.68 198.25,90.58 185.05,63.49 C180.4,53.94 173.91,44.94 164.91,38.4 C144.77,23.75 115.48,23.91 90.95,31.32 C63.71,39.54 38.7,56.9 28.48,81.11 C17.85,106.32 25.27,136.5 45.33,156.49 C65.39,176.49 96.79,186.13 126.49,183.12"></path><g opacity="1" transform="matrix(1,0,0,1,107,111.42900085449219)"></g><g opacity="1" transform="matrix(1,0,0,1,109.4729995727539,108.51000213623047)"></g><g opacity="1" transform="matrix(1,0,0,1,109.45099639892578,108.51300048828125)"></g></g><g transform="matrix(0.18067923188209534,-0.2948416769504547,0.2948416769504547,0.18067923188209534,-12.494297981262207,50.54657745361328)" opacity="1" style="display: block;"><g opacity="1" transform="matrix(1,0,0,1,203.5540008544922,170.16900634765625)"><path fill="rgb(251,214,74)" fill-opacity="1" d=" M2.0899999141693115,0 C2.0899999141693115,-1.1540000438690186 1.1540000438690186,-2.0899999141693115 0,-2.0899999141693115 C-1.1540000438690186,-2.0899999141693115 -2.0899999141693115,-1.1540000438690186 -2.0899999141693115,0 C-2.0899999141693115,1.1540000438690186 -1.1540000438690186,2.0899999141693115 0,2.0899999141693115 C1.1540000438690186,2.0899999141693115 2.0899999141693115,1.1540000438690186 2.0899999141693115,0z"></path></g><g opacity="1" transform="matrix(0,0,0,0,165.3260040283203,9.63599967956543)"><path fill="rgb(251,214,74)" fill-opacity="1" d=" M2.0899999141693115,0 C2.0899999141693115,-1.1540000438690186 1.1540000438690186,-2.0899999141693115 0,-2.0899999141693115 C-1.1540000438690186,-2.0899999141693115 -2.0899999141693115,-1.1540000438690186 -2.0899999141693115,0 C-2.0899999141693115,1.1540000438690186 -1.1540000438690186,2.0899999141693115 0,2.0899999141693115 C1.1540000438690186,2.0899999141693115 2.0899999141693115,1.1540000438690186 2.0899999141693115,0z"></path></g><g opacity="1" transform="matrix(0.9944055080413818,0,0,0.9944055080413818,51.47200012207031,13.815999984741211)"><path fill="rgb(251,214,74)" fill-opacity="1" d=" M2.0899999141693115,0 C2.0899999141693115,-1.1540000438690186 1.1540000438690186,-2.0899999141693115 0,-2.0899999141693115 C-1.1540000438690186,-2.0899999141693115 -2.0899999141693115,-1.1540000438690186 -2.0899999141693115,0 C-2.0899999141693115,1.1540000438690186 -1.1540000438690186,2.0899999141693115 0,2.0899999141693115 C1.1540000438690186,2.0899999141693115 2.0899999141693115,1.1540000438690186 2.0899999141693115,0z"></path></g><g opacity="1" transform="matrix(0,0,0,0,69.06600189208984,152.57899475097656)"><path fill="rgb(251,214,74)" fill-opacity="1" d=" M2.0899999141693115,0 C2.0899999141693115,-1.1540000438690186 1.1540000438690186,-2.0899999141693115 0,-2.0899999141693115 C-1.1549999713897705,-2.0899999141693115 -2.0899999141693115,-1.1540000438690186 -2.0899999141693115,0 C-2.0899999141693115,1.1540000438690186 -1.1549999713897705,2.0899999141693115 0,2.0899999141693115 C1.1540000438690186,2.0899999141693115 2.0899999141693115,1.1540000438690186 2.0899999141693115,0z"></path></g><g opacity="1" transform="matrix(0,0,0,0,4.1529998779296875,79.39700317382812)"><path fill="rgb(251,214,74)" fill-opacity="1" d=" M3.9030001163482666,0 C3.9030001163482666,-2.1559998989105225 2.1549999713897705,-3.9030001163482666 0,-3.9030001163482666 C-2.1559998989105225,-3.9030001163482666 -3.9030001163482666,-2.1559998989105225 -3.9030001163482666,0 C-3.9030001163482666,2.1549999713897705 -2.1559998989105225,3.9030001163482666 0,3.9030001163482666 C2.1549999713897705,3.9030001163482666 3.9030001163482666,2.1549999713897705 3.9030001163482666,0z"></path></g><g opacity="1" transform="matrix(0,0,0,0,165.3260040283203,202.98300170898438)"><path fill="rgb(251,214,74)" fill-opacity="1" d=" M3.9040000438690186,0 C3.9040000438690186,-2.1549999713897705 2.1549999713897705,-3.9030001163482666 0,-3.9030001163482666 C-2.1559998989105225,-3.9030001163482666 -3.9040000438690186,-2.1549999713897705 -3.9040000438690186,0 C-3.9040000438690186,2.1559998989105225 -2.1559998989105225,3.9030001163482666 0,3.9030001163482666 C2.1549999713897705,3.9030001163482666 3.9040000438690186,2.1559998989105225 3.9040000438690186,0z"></path></g><g opacity="1" transform="matrix(0.9911602139472961,0,0,0.9911602139472961,47.77899932861328,203.31199645996094)"><path fill="rgb(251,214,74)" fill-opacity="1" d=" M3.9040000438690186,0 C3.9040000438690186,-2.1549999713897705 2.1549999713897705,-3.9030001163482666 0,-3.9030001163482666 C-2.1559998989105225,-3.9030001163482666 -3.9040000438690186,-2.1549999713897705 -3.9040000438690186,0 C-3.9040000438690186,2.1559998989105225 -2.1559998989105225,3.9030001163482666 0,3.9030001163482666 C2.1549999713897705,3.9030001163482666 3.9040000438690186,2.1559998989105225 3.9040000438690186,0z"></path></g><g opacity="1" transform="matrix(0,0,0,0,177.95399475097656,24.76099967956543)"><path fill="rgb(251,214,74)" fill-opacity="1" d=" M3.9040000438690186,0 C3.9040000438690186,-2.1549999713897705 2.1549999713897705,-3.9030001163482666 0,-3.9030001163482666 C-2.1559998989105225,-3.9030001163482666 -3.9040000438690186,-2.1549999713897705 -3.9040000438690186,0 C-3.9040000438690186,2.1559998989105225 -2.1559998989105225,3.9030001163482666 0,3.9030001163482666 C2.1549999713897705,3.9030001163482666 3.9040000438690186,2.1559998989105225 3.9040000438690186,0z"></path></g></g></g></svg>