<svg xmlns="http://www.w3.org/2000/svg" viewBox="0 0 107 121" width="107" height="121" preserveAspectRatio="xMidYMid meet" style="width: 100%; height: 100%; transform: translate3d(0px, 0px, 0px); content-visibility: visible;"><defs><clipPath id="__lottie_element_1688"><rect width="107" height="121" x="0" y="0"></rect></clipPath><mask id="__lottie_element_1729" mask-type="alpha"><g transform="matrix(0.3330000042915344,0,0,0.3330000042915344,-6.642795562744141,0.0758189707994461)" opacity="1" style="display: block;"><g opacity="1" transform="matrix(1,0,0,1,146.85299682617188,49.49300003051758)"><path fill="rgb(96,95,170)" fill-opacity="1" d=" M4.135000228881836,-39.59000015258789 C4.135000228881836,-39.59000015258789 -17.364999771118164,-36.34000015258789 -17.364999771118164,-36.34000015258789 C-31.485000610351562,-34.23699951171875 -53.792999267578125,-15.1899995803833 -46.4630012512207,21.1560001373291 C-46.4630012512207,21.1560001373291 -22.027000427246094,31.474000930786133 -22.027000427246094,31.474000930786133 C-22.027000427246094,31.474000930786133 -14.534000396728516,34.94300079345703 4.314000129699707,32.13600158691406 C23.160999298095703,29.327999114990234 29.31599998474121,23.823999404907227 29.31599998474121,23.823999404907227 C29.31599998474121,23.823999404907227 50.630001068115234,6.257999897003174 50.630001068115234,6.257999897003174 C44.45600128173828,-27.440000534057617 18.2549991607666,-41.694000244140625 4.135000228881836,-39.59000015258789z"></path></g></g></mask></defs><g clip-path="url(#__lottie_element_1688)"><g transform="matrix(0.3330000042915344,0,0,0.3330000042915344,-6.642795562744141,0.0758189707994461)" opacity="1" style="display: block;"><g opacity="1" transform="matrix(1,0,0,1,264.9700012207031,112.3740005493164)"><path fill="rgb(139,124,141)" fill-opacity="1" d=" M-17.714000701904297,-0.0010000000474974513 C-17.714000701904297,-9.784000396728516 -9.782999992370605,-17.71500015258789 0,-17.71500015258789 C9.784000396728516,-17.71500015258789 17.714000701904297,-9.784000396728516 17.714000701904297,-0.0010000000474974513 C17.714000701904297,9.781999588012695 9.784000396728516,17.71500015258789 0,17.71500015258789 C-9.782999992370605,17.71500015258789 -17.714000701904297,9.781999588012695 -17.714000701904297,-0.0010000000474974513z"></path></g><g opacity="1" transform="matrix(1,0,0,1,243.86199951171875,82.83899688720703)"><path fill="rgb(139,124,141)" fill-opacity="1" d=" M34.88199996948242,11.850000381469727 C34.88199996948242,11.850000381469727 3.947000026702881,34.297000885009766 3.947000026702881,34.297000885009766 C3.947000026702881,34.297000885009766 -34.88199996948242,-19.21299934387207 -34.88199996948242,-19.21299934387207 C-34.88199996948242,-19.21299934387207 -26.608999252319336,-25.21500015258789 -26.608999252319336,-25.21500015258789 C-14.093000411987305,-34.297000885009766 3.4159998893737793,-31.513999938964844 12.498000144958496,-18.999000549316406 C12.498000144958496,-18.999000549316406 34.88199996948242,11.850000381469727 34.88199996948242,11.850000381469727z"></path></g><g opacity="1" transform="matrix(1,0,0,1,255.08599853515625,94.6259994506836)"><path fill="rgb(228,234,246)" fill-opacity="1" d=" M-7.276000022888184,22.51099967956543 C-7.276000022888184,22.51099967956543 23.659000396728516,0.06499999761581421 23.659000396728516,0.06499999761581421 C23.659000396728516,0.06499999761581421 7.2769999504089355,-22.51099967956543 7.2769999504089355,-22.51099967956543 C7.2769999504089355,-22.51099967956543 -23.659000396728516,-0.06400000303983688 -23.659000396728516,-0.06400000303983688 C-23.659000396728516,-0.06400000303983688 -7.276000022888184,22.51099967956543 -7.276000022888184,22.51099967956543z"></path></g><g opacity="1" transform="matrix(1,0,0,1,260.52301025390625,86.8270034790039)"><path fill="rgb(181,201,223)" fill-opacity="1" d=" M18.22100067138672,7.86299991607666 C8.781999588012695,14.711999893188477 -9.567000389099121,11.770999908447266 -18.22100067138672,-0.15600000321865082 C-18.22100067138672,-0.15600000321865082 1.840000033378601,-14.713000297546387 1.840000033378601,-14.713000297546387 C1.840000033378601,-14.713000297546387 18.22100067138672,7.86299991607666 18.22100067138672,7.86299991607666z"></path></g></g><g transform="matrix(0.3330000042915344,0,0,0.3330000042915344,-6.642795562744141,0.0758189707994461)" opacity="1" style="display: none;"><g opacity="1" transform="matrix(1,0,0,1,209.8209991455078,164.0970001220703)"><path fill="rgb(228,234,246)" fill-opacity="1" d=" M-5.104000091552734,13.85099983215332 C-5.104000091552734,13.85099983215332 13.359999656677246,6.281000137329102 13.359999656677246,6.281000137329102 C18.562000274658203,4.1479997634887695 21.07200050354004,-1.8519999980926514 18.93899917602539,-7.053999900817871 C18.93899917602539,-7.053999900817871 18.440000534057617,-8.272000312805176 18.440000534057617,-8.272000312805176 C16.30699920654297,-13.473999977111816 10.305999755859375,-15.986000061035156 5.104000091552734,-13.852999687194824 C5.104000091552734,-13.852999687194824 -13.359000205993652,-6.281000137329102 -13.359000205993652,-6.281000137329102 C-18.56100082397461,-4.1479997634887695 -21.07200050354004,1.8519999980926514 -18.93899917602539,7.052999973297119 C-18.93899917602539,7.052999973297119 -18.43899917602539,8.272000312805176 -18.43899917602539,8.272000312805176 C-16.30699920654297,13.472999572753906 -10.305999755859375,15.984999656677246 -5.104000091552734,13.85099983215332z"></path></g><g opacity="1" transform="matrix(1,0,0,1,224.375,160.19500732421875)"><path fill="rgb(155,176,196)" fill-opacity="1" d=" M-2.2730000019073486,2.181999921798706 C-2.565999984741211,-2.3550000190734863 -4.076000213623047,-6.788000106811523 -6.519000053405762,-10.619999885559082 C-2.1670000553131104,-11.015000343322754 2.1459999084472656,-8.61299991607666 3.885999917984009,-4.372000217437744 C3.885999917984009,-4.372000217437744 4.385000228881836,-3.1530001163482666 4.385000228881836,-3.1530001163482666 C6.51800012588501,2.0490000247955322 4.007999897003174,8.050000190734863 -1.1929999589920044,10.182999610900879 C-1.1929999589920044,10.182999610900879 -3.2239999771118164,11.015000343322754 -3.2239999771118164,11.015000343322754 C-2.434999942779541,8.144000053405762 -2.0810000896453857,5.1539998054504395 -2.2730000019073486,2.181999921798706z"></path></g><g opacity="1" transform="matrix(1,0,0,1,210.9530029296875,181.27200317382812)"><path fill="rgb(155,176,196)" fill-opacity="1" d=" M-4.098999977111816,7.559999942779541 C-4.098999977111816,7.559999942779541 8.22599983215332,2.50600004196167 8.22599983215332,2.50600004196167 C10.82699966430664,1.440000057220459 12.083000183105469,-1.559999942779541 11.015999794006348,-4.160999774932861 C11.015999794006348,-4.160999774932861 10.765999794006348,-4.770999908447266 10.765999794006348,-4.770999908447266 C9.699999809265137,-7.372000217437744 6.698999881744385,-8.626999855041504 4.0980000495910645,-7.560999870300293 C4.0980000495910645,-7.560999870300293 -8.22599983215332,-2.50600004196167 -8.22599983215332,-2.50600004196167 C-10.82800006866455,-1.440000057220459 -12.083000183105469,1.559999942779541 -11.015999794006348,4.160999774932861 C-11.015999794006348,4.160999774932861 -10.765999794006348,4.770999908447266 -10.765999794006348,4.770999908447266 C-9.699999809265137,7.372000217437744 -6.699999809265137,8.62600040435791 -4.098999977111816,7.559999942779541z"></path></g><g opacity="1" transform="matrix(1,0,0,1,199.75999450683594,173.68600463867188)"><path fill="rgb(170,95,164)" fill-opacity="1" d=" M-1.0369999408721924,-16.79800033569336 C-1.0369999408721924,-16.79800033569336 -5.114999771118164,-15.12600040435791 -5.114999771118164,-15.12600040435791 C-9.317000389099121,-13.402000427246094 -11.345999717712402,-8.553999900817871 -9.623000144958496,-4.3520002365112305 C-9.623000144958496,-4.3520002365112305 -3.50600004196167,10.565999984741211 -3.50600004196167,10.565999984741211 C-1.7829999923706055,14.769000053405762 3.065999984741211,16.79800033569336 7.269000053405762,15.074000358581543 C7.269000053405762,15.074000358581543 11.345999717712402,13.402000427246094 11.345999717712402,13.402000427246094 C11.345999717712402,13.402000427246094 -1.0369999408721924,-16.79800033569336 -1.0369999408721924,-16.79800033569336z"></path></g><g opacity="1" transform="matrix(1,0,0,1,249.19400024414062,137.75)"><path fill="rgb(228,234,246)" fill-opacity="1" d=" M10.152000427246094,-24.867000579833984 C10.152000427246094,-24.867000579833984 24.92099952697754,-14.291999816894531 24.92099952697754,-14.291999816894531 C32.02899932861328,-9.201000213623047 31.360000610351562,1.5729999542236328 23.674999237060547,5.744999885559082 C23.674999237060547,5.744999885559082 -15.085000038146973,26.785999298095703 -15.085000038146973,26.785999298095703 C-15.085000038146973,26.785999298095703 -32.02899932861328,10.447999954223633 -32.02899932861328,10.447999954223633 C-32.02899932861328,10.447999954223633 1.4919999837875366,-24.089000701904297 1.4919999837875366,-24.089000701904297 C3.7880001068115234,-26.45599937438965 7.4710001945495605,-26.78700065612793 10.152000427246094,-24.867000579833984z"></path></g><g opacity="1" transform="matrix(1,0,0,1,257.2200012207031,126.50900268554688)"><path fill="rgb(107,188,82)" fill-opacity="1" d=" M-6.533999919891357,-12.848999977111816 C-4.23799991607666,-15.21500015258789 -0.5559999942779541,-15.545000076293945 2.125,-13.625 C2.125,-13.625 16.895000457763672,-3.049999952316284 16.895000457763672,-3.049999952316284 C23.29800033569336,1.534999966621399 23.3700008392334,10.71500015258789 17.711000442504883,15.545000076293945 C5.111999988555908,8.798999786376953 -9.065999984741211,5.052999973297119 -23.3700008392334,4.498000144958496 C-23.3700008392334,4.498000144958496 -6.533999919891357,-12.848999977111816 -6.533999919891357,-12.848999977111816z"></path></g></g><g transform="matrix(0.3330000042915344,0,0,0.3330000042915344,-6.642795562744141,0.0758189707994461)" opacity="1" style="display: block;"><g opacity="1" transform="matrix(1,0,0,1,209.8209991455078,164.0970001220703)"><path fill="rgb(228,234,246)" fill-opacity="1" d=" M-5.104000091552734,13.85099983215332 C-5.104000091552734,13.85099983215332 13.359999656677246,6.281000137329102 13.359999656677246,6.281000137329102 C18.562000274658203,4.1479997634887695 21.07200050354004,-1.8519999980926514 18.93899917602539,-7.053999900817871 C18.93899917602539,-7.053999900817871 18.440000534057617,-8.272000312805176 18.440000534057617,-8.272000312805176 C16.30699920654297,-13.473999977111816 10.305999755859375,-15.986000061035156 5.104000091552734,-13.852999687194824 C5.104000091552734,-13.852999687194824 -13.359000205993652,-6.281000137329102 -13.359000205993652,-6.281000137329102 C-18.56100082397461,-4.1479997634887695 -21.07200050354004,1.8519999980926514 -18.93899917602539,7.052999973297119 C-18.93899917602539,7.052999973297119 -18.43899917602539,8.272000312805176 -18.43899917602539,8.272000312805176 C-16.30699920654297,13.472999572753906 -10.305999755859375,15.984999656677246 -5.104000091552734,13.85099983215332z"></path></g><g opacity="1" transform="matrix(1,0,0,1,224.375,160.19500732421875)"><path fill="rgb(155,176,196)" fill-opacity="1" d=" M-2.2730000019073486,2.181999921798706 C-2.565999984741211,-2.3550000190734863 -4.076000213623047,-6.788000106811523 -6.519000053405762,-10.619999885559082 C-2.1670000553131104,-11.015000343322754 2.1459999084472656,-8.61299991607666 3.885999917984009,-4.372000217437744 C3.885999917984009,-4.372000217437744 4.385000228881836,-3.1530001163482666 4.385000228881836,-3.1530001163482666 C6.51800012588501,2.0490000247955322 4.007999897003174,8.050000190734863 -1.1929999589920044,10.182999610900879 C-1.1929999589920044,10.182999610900879 -3.2239999771118164,11.015000343322754 -3.2239999771118164,11.015000343322754 C-2.434999942779541,8.144000053405762 -2.0810000896453857,5.1539998054504395 -2.2730000019073486,2.181999921798706z"></path></g><g opacity="1" transform="matrix(1,0,0,1,210.9530029296875,181.27200317382812)"><path fill="rgb(155,176,196)" fill-opacity="1" d=" M-4.098999977111816,7.559999942779541 C-4.098999977111816,7.559999942779541 8.22599983215332,2.50600004196167 8.22599983215332,2.50600004196167 C10.82699966430664,1.440000057220459 12.083000183105469,-1.559999942779541 11.015999794006348,-4.160999774932861 C11.015999794006348,-4.160999774932861 10.765999794006348,-4.770999908447266 10.765999794006348,-4.770999908447266 C9.699999809265137,-7.372000217437744 6.698999881744385,-8.626999855041504 4.0980000495910645,-7.560999870300293 C4.0980000495910645,-7.560999870300293 -8.22599983215332,-2.50600004196167 -8.22599983215332,-2.50600004196167 C-10.82800006866455,-1.440000057220459 -12.083000183105469,1.559999942779541 -11.015999794006348,4.160999774932861 C-11.015999794006348,4.160999774932861 -10.765999794006348,4.770999908447266 -10.765999794006348,4.770999908447266 C-9.699999809265137,7.372000217437744 -6.699999809265137,8.62600040435791 -4.098999977111816,7.559999942779541z"></path></g><g opacity="1" transform="matrix(1,0,0,1,199.75999450683594,173.68600463867188)"><path fill="rgb(170,95,164)" fill-opacity="1" d=" M-1.0369999408721924,-16.79800033569336 C-1.0369999408721924,-16.79800033569336 -5.114999771118164,-15.12600040435791 -5.114999771118164,-15.12600040435791 C-9.317000389099121,-13.402000427246094 -11.345999717712402,-8.553999900817871 -9.623000144958496,-4.3520002365112305 C-9.623000144958496,-4.3520002365112305 -3.50600004196167,10.565999984741211 -3.50600004196167,10.565999984741211 C-1.7829999923706055,14.769000053405762 3.065999984741211,16.79800033569336 7.269000053405762,15.074000358581543 C7.269000053405762,15.074000358581543 11.345999717712402,13.402000427246094 11.345999717712402,13.402000427246094 C11.345999717712402,13.402000427246094 -1.0369999408721924,-16.79800033569336 -1.0369999408721924,-16.79800033569336z"></path></g><g opacity="1" transform="matrix(1,0,0,1,249.19400024414062,137.75)"><path fill="rgb(228,234,246)" fill-opacity="1" d=" M10.152000427246094,-24.867000579833984 C10.152000427246094,-24.867000579833984 24.92099952697754,-14.291999816894531 24.92099952697754,-14.291999816894531 C32.02899932861328,-9.201000213623047 31.360000610351562,1.5729999542236328 23.674999237060547,5.744999885559082 C23.674999237060547,5.744999885559082 -15.085000038146973,26.785999298095703 -15.085000038146973,26.785999298095703 C-15.085000038146973,26.785999298095703 -32.02899932861328,10.447999954223633 -32.02899932861328,10.447999954223633 C-32.02899932861328,10.447999954223633 1.4919999837875366,-24.089000701904297 1.4919999837875366,-24.089000701904297 C3.7880001068115234,-26.45599937438965 7.4710001945495605,-26.78700065612793 10.152000427246094,-24.867000579833984z"></path></g><g opacity="1" transform="matrix(1,0,0,1,257.2200012207031,126.50900268554688)"><path fill="rgb(107,188,82)" fill-opacity="1" d=" M-6.533999919891357,-12.848999977111816 C-4.23799991607666,-15.21500015258789 -0.5559999942779541,-15.545000076293945 2.125,-13.625 C2.125,-13.625 16.895000457763672,-3.049999952316284 16.895000457763672,-3.049999952316284 C23.29800033569336,1.534999966621399 23.3700008392334,10.71500015258789 17.711000442504883,15.545000076293945 C5.111999988555908,8.798999786376953 -9.065999984741211,5.052999973297119 -23.3700008392334,4.498000144958496 C-23.3700008392334,4.498000144958496 -6.533999919891357,-12.848999977111816 -6.533999919891357,-12.848999977111816z"></path></g></g><g transform="matrix(0.3330000042915344,0,0,0.3330000042915344,-6.642795562744141,0.0758189707994461)" opacity="1" style="display: block;"><g opacity="1" transform="matrix(1,0,0,1,48.65399932861328,134.18800354003906)"><path fill="rgb(139,124,141)" fill-opacity="1" d=" M17.714000701904297,0 C17.714000701904297,-9.782999992370605 9.782999992370605,-17.714000701904297 0,-17.714000701904297 C-9.784000396728516,-17.714000701904297 -17.714000701904297,-9.782999992370605 -17.714000701904297,0 C-17.714000701904297,9.782999992370605 -9.784000396728516,17.714000701904297 0,17.714000701904297 C9.782999992370605,17.714000701904297 17.714000701904297,9.782999992370605 17.714000701904297,0z"></path></g><g opacity="1" transform="matrix(1,0,0,1,69.76200103759766,104.65399932861328)"><path fill="rgb(139,124,141)" fill-opacity="1" d=" M-34.88199996948242,11.848999977111816 C-34.88199996948242,11.848999977111816 -3.947000026702881,34.29800033569336 -3.947000026702881,34.29800033569336 C-3.947000026702881,34.29800033569336 34.88199996948242,-19.211999893188477 34.88199996948242,-19.211999893188477 C34.88199996948242,-19.211999893188477 26.608999252319336,-25.215999603271484 26.608999252319336,-25.215999603271484 C14.093000411987305,-34.29800033569336 -3.4159998893737793,-31.51300048828125 -12.498000144958496,-18.99799919128418 C-12.498000144958496,-18.99799919128418 -34.88199996948242,11.848999977111816 -34.88199996948242,11.848999977111816z"></path></g><g opacity="1" transform="matrix(1,0,0,1,58.53799819946289,116.44000244140625)"><path fill="rgb(228,234,246)" fill-opacity="1" d=" M7.2769999504089355,22.51099967956543 C7.2769999504089355,22.51099967956543 -23.658000946044922,0.06300000101327896 -23.658000946044922,0.06300000101327896 C-23.658000946044922,0.06300000101327896 -7.2769999504089355,-22.51099967956543 -7.2769999504089355,-22.51099967956543 C-7.2769999504089355,-22.51099967956543 23.658000946044922,-0.06400000303983688 23.658000946044922,-0.06400000303983688 C23.658000946044922,-0.06400000303983688 7.2769999504089355,22.51099967956543 7.2769999504089355,22.51099967956543z"></path></g><g opacity="1" transform="matrix(1,0,0,1,53.10100173950195,108.64099884033203)"><path fill="rgb(181,201,223)" fill-opacity="1" d=" M-18.22100067138672,7.861999988555908 C-8.781999588012695,14.711999893188477 9.567999839782715,11.770000457763672 18.22100067138672,-0.15600000321865082 C18.22100067138672,-0.15600000321865082 -1.840000033378601,-14.713000297546387 -1.840000033378601,-14.713000297546387 C-1.840000033378601,-14.713000297546387 -18.22100067138672,7.861999988555908 -18.22100067138672,7.861999988555908z"></path></g></g><g transform="matrix(0.3330000042915344,0,0,0.3330000042915344,-6.642795562744141,0.0758189707994461)" opacity="1" style="display: block;"><g opacity="1" transform="matrix(1,0,0,1,103.8030014038086,185.91099548339844)"><path fill="rgb(228,234,246)" fill-opacity="1" d=" M5.104000091552734,13.85200023651123 C5.104000091552734,13.85200023651123 -13.359999656677246,6.2820000648498535 -13.359999656677246,6.2820000648498535 C-18.562000274658203,4.14900016784668 -21.07200050354004,-1.8519999980926514 -18.93899917602539,-7.053999900817871 C-18.93899917602539,-7.053999900817871 -18.43899917602539,-8.27299976348877 -18.43899917602539,-8.27299976348877 C-16.30699920654297,-13.473999977111816 -10.305999755859375,-15.984999656677246 -5.104000091552734,-13.85200023651123 C-5.104000091552734,-13.85200023651123 13.359999656677246,-6.281000137329102 13.359999656677246,-6.281000137329102 C18.562000274658203,-4.1479997634887695 21.07200050354004,1.8530000448226929 18.93899917602539,7.053999900817871 C18.93899917602539,7.053999900817871 18.43899917602539,8.27299976348877 18.43899917602539,8.27299976348877 C16.30699920654297,13.473999977111816 10.305999755859375,15.984999656677246 5.104000091552734,13.85200023651123z"></path></g><g opacity="1" transform="matrix(1,0,0,1,89.2490005493164,182.00999450683594)"><path fill="rgb(155,176,196)" fill-opacity="1" d=" M2.2739999294281006,2.181999921798706 C2.566999912261963,-2.3550000190734863 4.076000213623047,-6.788000106811523 6.519000053405762,-10.619999885559082 C2.1670000553131104,-11.015000343322754 -2.1470000743865967,-8.61299991607666 -3.885999917984009,-4.372000217437744 C-3.885999917984009,-4.372000217437744 -4.386000156402588,-3.1530001163482666 -4.386000156402588,-3.1530001163482666 C-6.519000053405762,2.0490000247955322 -4.006999969482422,8.050000190734863 1.194000005722046,10.182999610900879 C1.194000005722046,10.182999610900879 3.2230000495910645,11.015000343322754 3.2230000495910645,11.015000343322754 C2.434000015258789,8.144000053405762 2.0820000171661377,5.1539998054504395 2.2739999294281006,2.181999921798706z"></path></g><g opacity="1" transform="matrix(1,0,0,1,102.6719970703125,203.08700561523438)"><path fill="rgb(155,176,196)" fill-opacity="1" d=" M4.098999977111816,7.559999942779541 C4.098999977111816,7.559999942779541 -8.22599983215332,2.50600004196167 -8.22599983215332,2.50600004196167 C-10.82699966430664,1.440000057220459 -12.083000183105469,-1.559999942779541 -11.017000198364258,-4.160999774932861 C-11.017000198364258,-4.160999774932861 -10.767000198364258,-4.770999908447266 -10.767000198364258,-4.770999908447266 C-9.699999809265137,-7.372000217437744 -6.698999881744385,-8.626999855041504 -4.0980000495910645,-7.560999870300293 C-4.0980000495910645,-7.560999870300293 8.22700023651123,-2.50600004196167 8.22700023651123,-2.50600004196167 C10.82800006866455,-1.440000057220459 12.083000183105469,1.559999942779541 11.015999794006348,4.160999774932861 C11.015999794006348,4.160999774932861 10.767000198364258,4.770999908447266 10.767000198364258,4.770999908447266 C9.699999809265137,7.372000217437744 6.699999809265137,8.62600040435791 4.098999977111816,7.559999942779541z"></path></g><g opacity="1" transform="matrix(1,0,0,1,113.86399841308594,195.50100708007812)"><path fill="rgb(170,95,164)" fill-opacity="1" d=" M1.0369999408721924,-16.79800033569336 C1.0369999408721924,-16.79800033569336 5.114999771118164,-15.12600040435791 5.114999771118164,-15.12600040435791 C9.317999839782715,-13.402000427246094 11.345999717712402,-8.553999900817871 9.623000144958496,-4.3520002365112305 C9.623000144958496,-4.3520002365112305 3.50600004196167,10.565999984741211 3.50600004196167,10.565999984741211 C1.7829999923706055,14.769000053405762 -3.065999984741211,16.79800033569336 -7.269000053405762,15.074000358581543 C-7.269000053405762,15.074000358581543 -11.345999717712402,13.402000427246094 -11.345999717712402,13.402000427246094 C-11.345999717712402,13.402000427246094 1.0369999408721924,-16.79800033569336 1.0369999408721924,-16.79800033569336z"></path></g><g opacity="1" transform="matrix(1,0,0,1,64.43099975585938,159.56399536132812)"><path fill="rgb(228,234,246)" fill-opacity="1" d=" M-10.152000427246094,-24.867000579833984 C-10.152000427246094,-24.867000579833984 -24.920000076293945,-14.291999816894531 -24.920000076293945,-14.291999816894531 C-32.02899932861328,-9.20199966430664 -31.360000610351562,1.5729999542236328 -23.674999237060547,5.744999885559082 C-23.674999237060547,5.744999885559082 15.085000038146973,26.785999298095703 15.085000038146973,26.785999298095703 C15.085000038146973,26.785999298095703 32.02899932861328,10.447999954223633 32.02899932861328,10.447999954223633 C32.02899932861328,10.447999954223633 -1.4919999837875366,-24.090999603271484 -1.4919999837875366,-24.090999603271484 C-3.7890000343322754,-26.457000732421875 -7.4710001945495605,-26.78700065612793 -10.152000427246094,-24.867000579833984z"></path></g><g opacity="1" transform="matrix(1,0,0,1,56.40399932861328,148.322998046875)"><path fill="rgb(107,188,82)" fill-opacity="1" d=" M6.535999774932861,-12.848999977111816 C4.238999843597412,-15.21500015258789 0.5569999814033508,-15.545000076293945 -2.125,-13.625 C-2.125,-13.625 -16.89299964904785,-3.049999952316284 -16.89299964904785,-3.049999952316284 C-23.29599952697754,1.534999966621399 -23.3700008392334,10.71399974822998 -17.711000442504883,15.545000076293945 C-5.111000061035156,8.798999786376953 9.065999984741211,5.052000045776367 23.3700008392334,4.497000217437744 C23.3700008392334,4.497000217437744 6.535999774932861,-12.848999977111816 6.535999774932861,-12.848999977111816z"></path></g></g><g transform="matrix(0.3330000042915344,0,0,0.3330000042915344,-6.643130779266357,0.07548869401216507)" opacity="1" style="display: block;"><g opacity="1" transform="matrix(1,0,0,1,121.43399810791016,214.54400634765625)"><path fill="rgb(228,234,246)" fill-opacity="1" d=" M-37.141998291015625,6.313000202178955 C-37.141998291015625,6.313000202178955 -15.737000465393066,33.801998138427734 -15.737000465393066,33.801998138427734 C-15.737000465393066,33.801998138427734 28.18899917602539,-0.4009999930858612 28.18899917602539,-0.4009999930858612 C35.779998779296875,-6.311999797821045 37.141998291015625,-17.257999420166016 31.231000900268555,-24.849000930786133 C25.31999969482422,-32.439998626708984 14.375,-33.801998138427734 6.783999919891357,-27.891000747680664 C6.783999919891357,-27.891000747680664 -37.141998291015625,6.313000202178955 -37.141998291015625,6.313000202178955z"></path></g><g opacity="1" transform="matrix(1,0,0,1,128.61500549316406,225.18099975585938)"><path fill="rgb(155,176,196)" fill-opacity="1" d=" M-27.552000045776367,15.472000122070312 C-27.552000045776367,15.472000122070312 -22.073999404907227,22.507999420166016 -22.073999404907227,22.507999420166016 C-22.073999404907227,22.507999420166016 21.007999420166016,-11.038999557495117 21.007999420166016,-11.038999557495117 C24.73699951171875,-13.942000389099121 26.952999114990234,-18.06100082397461 27.552000045776367,-22.399999618530273 C23.652000427246094,-22.507999420166016 19.691999435424805,-21.31599998474121 16.37299919128418,-18.73200035095215 C16.37299919128418,-18.73200035095215 -27.552000045776367,15.472000122070312 -27.552000045776367,15.472000122070312z"></path></g><g opacity="1" transform="matrix(1,0,0,1,139.4759979248047,197.03599548339844)"><path fill="rgb(155,176,196)" fill-opacity="1" d=" M11.09000015258789,16.292999267578125 C17.82699966430664,10.234999656677246 18.841999053955078,-0.07999999821186066 13.189000129699707,-7.340000152587891 C7.2779998779296875,-14.930999755859375 -3.6670000553131104,-16.292999267578125 -11.258000373840332,-10.381999969482422 C-11.258000373840332,-10.381999969482422 -18.841999053955078,-4.4770002365112305 -18.841999053955078,-4.4770002365112305 C-7.361999988555908,0.3370000123977661 2.7860000133514404,7.47599983215332 11.09000015258789,16.292999267578125z"></path></g></g><g transform="matrix(0.3330000042915344,0,0,0.3330000042915344,-6.643130779266357,0.07548869401216507)" opacity="1" style="display: block;"><g opacity="1" transform="matrix(1,0,0,1,69.98799896240234,316.0509948730469)"><path fill="rgb(228,234,246)" fill-opacity="1" d=" M3.5869998931884766,-12.71500015258789 C-15.067999839782715,-12.71500015258789 -36.00600051879883,1.5479999780654907 -36.00600051879883,12.71500015258789 C-36.00600051879883,12.71500015258789 36.00600051879883,12.71500015258789 36.00600051879883,12.71500015258789 C36.00600051879883,12.71500015258789 36.00600051879883,-12.71500015258789 36.00600051879883,-12.71500015258789 C36.00600051879883,-12.71500015258789 3.5869998931884766,-12.71500015258789 3.5869998931884766,-12.71500015258789z"></path></g><g opacity="1" transform="matrix(1,0,0,1,69.98799896240234,332.43701171875)"><path fill="rgb(170,95,164)" fill-opacity="1" d=" M38.685001373291016,3.6710000038146973 C38.685001373291016,3.6710000038146973 -38.685001373291016,3.6710000038146973 -38.685001373291016,3.6710000038146973 C-38.685001373291016,3.6710000038146973 -38.685001373291016,-3.6710000038146973 -38.685001373291016,-3.6710000038146973 C-38.685001373291016,-3.6710000038146973 38.685001373291016,-3.6710000038146973 38.685001373291016,-3.6710000038146973 C38.685001373291016,-3.6710000038146973 38.685001373291016,3.6710000038146973 38.685001373291016,3.6710000038146973z"></path></g><g opacity="1" transform="matrix(1,0,0,1,49.422000885009766,318.82000732421875)"><path fill="rgb(107,188,82)" fill-opacity="1" d=" M2.562000036239624,-9.946999549865723 C-7.696000099182129,-4.769000053405762 -15.437999725341797,3.1579999923706055 -15.437999725341797,9.946999549865723 C-15.437999725341797,9.946999549865723 15.437999725341797,9.946999549865723 15.437999725341797,9.946999549865723 C13.510000228881836,2.4660000801086426 8.97700023651123,-4.5329999923706055 2.562000036239624,-9.946999549865723z"></path></g></g><g transform="matrix(0.3330000042915344,0,0,0.3330000042915344,-6.643130779266357,0.07548869401216507)" opacity="1" style="display: block;"><g opacity="1" transform="matrix(1,0,0,1,97.49800109863281,231.76499938964844)"><path fill="rgb(155,176,196)" fill-opacity="1" d=" M10.657999992370605,12.439000129699707 C11.272000312805176,10.62399959564209 11.710000038146973,8.685999870300293 11.930000305175781,6.65500020980835 C13.204999923706055,-5.105999946594238 6.830999851226807,-15.442999839782715 -2.308000087738037,-16.433000564575195 C-3.680000066757202,-16.582000732421875 -5.035999774932861,-16.507999420166016 -6.355000019073486,-16.240999221801758 C-6.355000019073486,-16.240999221801758 -13.206000328063965,-10.907999992370605 -13.206000328063965,-10.907999992370605 C-13.206000328063965,-10.907999992370605 8.199999809265137,16.582000732421875 8.199999809265137,16.582000732421875 C8.199999809265137,16.582000732421875 12.734000205993652,13.050000190734863 12.734000205993652,13.050000190734863 C12.734000205993652,13.050000190734863 10.657999992370605,12.439000129699707 10.657999992370605,12.439000129699707z"></path></g><g opacity="1" transform="matrix(1,0,0,1,86.78099822998047,262.4630126953125)"><path fill="rgb(228,234,246)" fill-opacity="1" d=" M27.416000366210938,-18.827999114990234 C27.416000366210938,-18.827999114990234 16.95800018310547,-21.906999588012695 16.95800018310547,-21.906999588012695 C17.572999954223633,-23.722999572753906 18.011999130249023,-25.65999984741211 18.23200035095215,-27.69099998474121 C19.506999969482422,-39.45100021362305 13.131999969482422,-49.78900146484375 3.993000030517578,-50.77899932861328 C-5.146999835968018,-51.77000045776367 -13.58899974822998,-43.04100036621094 -14.86400032043457,-31.280000686645508 C-14.86400032043457,-31.280000686645508 -27.416000366210938,37.534000396728516 -27.416000366210938,37.534000396728516 C-27.416000366210938,37.534000396728516 18.726999282836914,50.79999923706055 18.726999282836914,50.79999923706055 C22.104999542236328,51.770999908447266 25.492000579833984,49.29499816894531 25.590999603271484,45.78099822998047 C25.590999603271484,45.78099822998047 27.416000366210938,-18.827999114990234 27.416000366210938,-18.827999114990234z"></path></g><g opacity="1" transform="matrix(1,0,0,1,86.03800201416016,302.5849914550781)"><path fill="rgb(107,188,82)" fill-opacity="1" d=" M-24.979999542236328,-11.862000465393066 C-24.979999542236328,-11.862000465393066 -26.67099952697754,-2.5880000591278076 -26.67099952697754,-2.5880000591278076 C-26.67099952697754,-2.5880000591278076 20.969999313354492,11.109999656677246 20.969999313354492,11.109999656677246 C23.58799934387207,11.862000465393066 26.21299934387207,9.942999839782715 26.290000915527344,7.21999979019165 C26.290000915527344,7.21999979019165 26.67099952697754,-6.258999824523926 26.67099952697754,-6.258999824523926 C26.67099952697754,-6.258999824523926 -24.979999542236328,-11.862000465393066 -24.979999542236328,-11.862000465393066z"></path></g><g opacity="1" transform="matrix(1,0,0,1,108.0989990234375,303.07598876953125)"><path fill="rgb(107,188,82)" fill-opacity="1" d=" M8.470000267028809,0.9179999828338623 C9.319999694824219,-6.918000221252441 6.2170000076293945,-13.682000160217285 1.5390000343322754,-14.187999725341797 C-3.1389999389648438,-14.696000099182129 -7.619999885559082,-8.755000114440918 -8.470000267028809,-0.9190000295639038 C-9.319999694824219,6.916999816894531 -6.2170000076293945,13.680999755859375 -1.5379999876022339,14.187999725341797 C3.1389999389648438,14.694999694824219 7.619999885559082,8.753999710083008 8.470000267028809,0.9179999828338623z"></path></g></g><g transform="matrix(0.3330000042915344,0,0,0.3330000042915344,-6.643130779266357,0.07548869401216507)" opacity="1" style="display: block;"><g opacity="1" transform="matrix(1,0,0,1,188.25100708007812,225.0590057373047)"><path fill="rgb(228,234,246)" fill-opacity="1" d=" M-12.689000129699707,39.84400177001953 C-12.689000129699707,39.84400177001953 21.843000411987305,35.22100067138672 21.843000411987305,35.22100067138672 C21.843000411987305,35.22100067138672 13.965999603271484,-23.613000869750977 13.965999603271484,-23.613000869750977 C12.689000129699707,-33.14899826049805 3.9240000247955322,-39.84400177001953 -5.611999988555908,-38.56700134277344 C-15.14799976348877,-37.29100036621094 -21.843000411987305,-28.524999618530273 -20.56599998474121,-18.989999771118164 C-20.56599998474121,-18.989999771118164 -12.689000129699707,39.84400177001953 -12.689000129699707,39.84400177001953z"></path></g><g opacity="1" transform="matrix(1,0,0,1,174.42799377441406,230.71400451660156)"><path fill="rgb(155,176,196)" fill-opacity="1" d=" M-0.5329999923706055,-24.386999130249023 C-1.0479999780654907,-28.233999252319336 -2.7960000038146973,-31.604000091552734 -5.307000160217285,-34.18899917602539 C-6.630000114440918,-31.301000595092773 -7.195000171661377,-28.025999069213867 -6.742000102996826,-24.645000457763672 C-6.742000102996826,-24.645000457763672 1.1349999904632568,34.18899917602539 1.1349999904632568,34.18899917602539 C1.1349999904632568,34.18899917602539 7.195000171661377,33.37900161743164 7.195000171661377,33.37900161743164 C7.195000171661377,33.37900161743164 -0.5329999923706055,-24.386999130249023 -0.5329999923706055,-24.386999130249023z"></path></g><g opacity="1" transform="matrix(1,0,0,1,183.1280059814453,198.78199768066406)"><path fill="rgb(155,176,196)" fill-opacity="1" d=" M-0.48899999260902405,-12.289999961853027 C-0.48899999260902405,-12.289999961853027 -0.48899999260902405,-12.289999961853027 -0.48899999260902405,-12.289999961853027 C-10.024999618530273,-11.013999938964844 -16.72100067138672,-2.247999906539917 -15.444000244140625,7.2870001792907715 C-15.444000244140625,7.2870001792907715 -14.647000312805176,13.23799991607666 -14.647000312805176,13.23799991607666 C-5.5970001220703125,5.485000133514404 5.041999816894531,-0.4650000035762787 16.72100067138672,-4.045000076293945 C13.239999771118164,-9.78600025177002 6.5920000076293945,-13.23799991607666 -0.48899999260902405,-12.289999961853027z"></path></g></g><g transform="matrix(0.3330000042915344,0,0,0.3330000042915344,-6.643130779266357,0.07548869401216507)" opacity="1" style="display: block;"><g opacity="1" transform="matrix(1,0,0,1,204.0570068359375,340.6409912109375)"><path fill="rgb(228,234,246)" fill-opacity="1" d=" M-3.5869998931884766,-12.715999603271484 C15.067999839782715,-12.715999603271484 36.00600051879883,1.5490000247955322 36.00600051879883,12.715999603271484 C36.00600051879883,12.715999603271484 -36.00600051879883,12.715999603271484 -36.00600051879883,12.715999603271484 C-36.00600051879883,12.715999603271484 -36.00600051879883,-12.715999603271484 -36.00600051879883,-12.715999603271484 C-36.00600051879883,-12.715999603271484 -3.5869998931884766,-12.715999603271484 -3.5869998931884766,-12.715999603271484z"></path></g><g opacity="1" transform="matrix(1,0,0,1,204.0570068359375,357.0270080566406)"><path fill="rgb(170,95,164)" fill-opacity="1" d=" M-38.685001373291016,3.6710000038146973 C-38.685001373291016,3.6710000038146973 38.685001373291016,3.6710000038146973 38.685001373291016,3.6710000038146973 C38.685001373291016,3.6710000038146973 38.685001373291016,-3.6710000038146973 38.685001373291016,-3.6710000038146973 C38.685001373291016,-3.6710000038146973 -38.685001373291016,-3.6710000038146973 -38.685001373291016,-3.6710000038146973 C-38.685001373291016,-3.6710000038146973 -38.685001373291016,3.6710000038146973 -38.685001373291016,3.6710000038146973z"></path></g><g opacity="1" transform="matrix(1,0,0,1,224.62399291992188,343.4100036621094)"><path fill="rgb(107,188,82)" fill-opacity="1" d=" M-2.561000108718872,-9.946999549865723 C7.697000026702881,-4.769999980926514 15.439000129699707,3.1579999923706055 15.439000129699707,9.946999549865723 C15.439000129699707,9.946999549865723 -15.439000129699707,9.946999549865723 -15.439000129699707,9.946999549865723 C-13.510000228881836,2.4649999141693115 -8.97599983215332,-4.533999919891357 -2.561000108718872,-9.946999549865723z"></path></g></g><g transform="matrix(0.3330000042915344,0,0,0.3330000042915344,-6.643130779266357,0.07548869401216507)" opacity="1" style="display: block;"><g opacity="1" transform="matrix(1,0,0,1,191.3260040283203,251.31700134277344)"><path fill="rgb(155,176,196)" fill-opacity="1" d=" M16.684999465942383,9.241999626159668 C16.684999465942383,9.241999626159668 16.58099937438965,7.833000183105469 16.58099937438965,7.833000183105469 C16.58099937438965,-3.996999979019165 9.128999710083008,-13.586999893188477 -0.06400000303983688,-13.586999893188477 C-8.961999893188477,-13.586999893188477 -16.229999542236328,-4.598999977111816 -16.684999465942383,6.706999778747559 C-16.684999465942383,6.706999778747559 -15.763999938964844,13.586999893188477 -15.763999938964844,13.586999893188477 C-15.763999938964844,13.586999893188477 16.684999465942383,9.241999626159668 16.684999465942383,9.241999626159668z"></path></g><g opacity="1" transform="matrix(1,0,0,1,192.00999450683594,285.3399963378906)"><path fill="rgb(228,234,246)" fill-opacity="1" d=" M-21.50200080871582,-20.759000778198242 C-21.50200080871582,-20.759000778198242 -10.77400016784668,-22.69499969482422 -10.77400016784668,-22.69499969482422 C-11.189000129699707,-24.56599998474121 -11.416000366210938,-26.538000106811523 -11.416000366210938,-28.58099937438965 C-11.416000366210938,-40.40999984741211 -3.9639999866485596,-50 5.229000091552734,-50 C14.42199993133545,-50 21.87299919128418,-40.40999984741211 21.87299919128418,-28.58099937438965 C21.87299919128418,-28.58099937438965 26.933000564575195,41.183998107910156 26.933000564575195,41.183998107910156 C26.933000564575195,41.183998107910156 -20.3700008392334,49.39799880981445 -20.3700008392334,49.39799880981445 C-23.83300018310547,50 -26.933000564575195,47.17399978637695 -26.652999877929688,43.66999816894531 C-26.652999877929688,43.66999816894531 -21.50200080871582,-20.759000778198242 -21.50200080871582,-20.759000778198242z"></path></g><g opacity="1" transform="matrix(1,0,0,1,191.97900390625,326.2969970703125)"><path fill="rgb(107,188,82)" fill-opacity="1" d=" M26.281999588012695,-9.175000190734863 C26.281999588012695,-9.175000190734863 26.964000701904297,0.22599999606609344 26.964000701904297,0.22599999606609344 C26.964000701904297,0.22599999606609344 -21.87700080871582,8.708000183105469 -21.87700080871582,8.708000183105469 C-24.56100082397461,9.173999786376953 -26.96299934387207,6.982999801635742 -26.746000289916992,4.267000198364258 C-26.746000289916992,4.267000198364258 -25.672000885009766,-9.175000190734863 -25.672000885009766,-9.175000190734863 C-25.672000885009766,-9.175000190734863 26.281999588012695,-9.175000190734863 26.281999588012695,-9.175000190734863z"></path></g><g opacity="1" transform="matrix(1,0,0,1,170.16200256347656,324.3330078125)"><path fill="rgb(107,188,82)" fill-opacity="1" d=" M-8.520000457763672,0 C-8.520000457763672,-7.881999969482422 -4.705999851226807,-14.270999908447266 0,-14.270999908447266 C4.704999923706055,-14.270999908447266 8.520000457763672,-7.881999969482422 8.520000457763672,0 C8.520000457763672,7.881999969482422 4.704999923706055,14.270999908447266 0,14.270999908447266 C-4.705999851226807,14.270999908447266 -8.520000457763672,7.881999969482422 -8.520000457763672,0z"></path></g></g><g transform="matrix(0.3330000042915344,0,0,0.3330000042915344,-6.642795562744141,0.0758189707994461)" opacity="1" style="display: block;"><g opacity="1" transform="matrix(1,0,0,1,161.0919952392578,160.87100219726562)"><path fill="rgb(31,30,37)" fill-opacity="1" d=" M35.91999816894531,-5.257999897003174 C35.91999816894531,-5.257999897003174 -35.91899871826172,-5.257999897003174 -35.91899871826172,-5.257999897003174 C-38.81100082397461,-5.257999897003174 -41.176998138427734,-2.8919999599456787 -41.176998138427734,0 C-41.176998138427734,2.8910000324249268 -38.81100082397461,5.257999897003174 -35.91899871826172,5.257999897003174 C-35.91899871826172,5.257999897003174 35.91999816894531,5.257999897003174 35.91999816894531,5.257999897003174 C38.8120002746582,5.257999897003174 41.176998138427734,2.8910000324249268 41.176998138427734,0 C41.176998138427734,-2.8919999599456787 38.8120002746582,-5.257999897003174 35.91999816894531,-5.257999897003174z"></path></g><g opacity="1" transform="matrix(1,0,0,1,161.01199340820312,171.16400146484375)"><path fill="rgb(31,30,37)" fill-opacity="1" d=" M35.91999816894531,-5.257999897003174 C35.91999816894531,-5.257999897003174 -35.91899871826172,-5.257999897003174 -35.91899871826172,-5.257999897003174 C-38.81100082397461,-5.257999897003174 -41.176998138427734,-2.8919999599456787 -41.176998138427734,0 C-41.176998138427734,2.8910000324249268 -38.81100082397461,5.257999897003174 -35.91899871826172,5.257999897003174 C-35.91899871826172,5.257999897003174 35.91999816894531,5.257999897003174 35.91999816894531,5.257999897003174 C38.8120002746582,5.257999897003174 41.176998138427734,2.8910000324249268 41.176998138427734,0 C41.176998138427734,-2.8919999599456787 38.8120002746582,-5.257999897003174 35.91999816894531,-5.257999897003174z"></path></g><g opacity="1" transform="matrix(1,0,0,1,161.01199340820312,150.13499450683594)"><path fill="rgb(31,30,37)" fill-opacity="1" d=" M35.91999816894531,-5.257999897003174 C35.91999816894531,-5.257999897003174 -35.91899871826172,-5.257999897003174 -35.91899871826172,-5.257999897003174 C-38.81100082397461,-5.257999897003174 -41.176998138427734,-2.8919999599456787 -41.176998138427734,0 C-41.176998138427734,2.8910000324249268 -38.81100082397461,5.257999897003174 -35.91899871826172,5.257999897003174 C-35.91899871826172,5.257999897003174 35.91999816894531,5.257999897003174 35.91999816894531,5.257999897003174 C38.8120002746582,5.257999897003174 41.176998138427734,2.8910000324249268 41.176998138427734,0 C41.176998138427734,-2.8919999599456787 38.8120002746582,-5.257999897003174 35.91999816894531,-5.257999897003174z"></path></g><g opacity="1" transform="matrix(1,0,0,1,161.01300048828125,194.40699768066406)"><path fill="rgb(228,234,246)" fill-opacity="1" d=" M0.0010000000474974513,13.074000358581543 C2.2139999866485596,13.074000358581543 4.324999809265137,12.222999572753906 5.953000068664551,10.723999977111816 C12.11299991607666,5.051000118255615 29.52400016784668,-2.816999912261963 36.242000579833984,-2.6510000228881836 C37.11399841308594,-2.628000020980835 37.981998443603516,-2.750999927520752 38.77199935913086,-3.11899995803833 C38.77199935913086,-3.11899995803833 38.91299819946289,-3.184999942779541 38.91299819946289,-3.184999942779541 C40.47600173950195,-3.9130001068115234 41.474998474121094,-5.480999946594238 41.474998474121094,-7.203000068664551 C41.474998474121094,-7.203000068664551 41.474998474121094,-13.074000358581543 41.474998474121094,-13.074000358581543 C41.474998474121094,-13.074000358581543 -41.474998474121094,-13.074000358581543 -41.474998474121094,-13.074000358581543 C-41.474998474121094,-13.074000358581543 -41.474998474121094,-7.203000068664551 -41.474998474121094,-7.203000068664551 C-41.474998474121094,-5.480999946594238 -40.474998474121094,-3.9130001068115234 -38.91299819946289,-3.184999942779541 C-38.91299819946289,-3.184999942779541 -38.77199935913086,-3.11899995803833 -38.77199935913086,-3.11899995803833 C-37.981998443603516,-2.750999927520752 -37.11399841308594,-2.628000020980835 -36.24300003051758,-2.6510000228881836 C-29.524999618530273,-2.816999912261963 -12.112000465393066,5.051000118255615 -5.952000141143799,10.723999977111816 C-4.323999881744385,12.222999572753906 -2.2119998931884766,13.074000358581543 0.0010000000474974513,13.074000358581543z"></path></g><g opacity="1" transform="matrix(1,0,0,1,161.01199340820312,179.81199645996094)"><path fill="rgb(107,188,82)" fill-opacity="1" d=" M41.4739990234375,-4.2820000648498535 C41.4739990234375,-4.2820000648498535 -41.4739990234375,-4.2820000648498535 -41.4739990234375,-4.2820000648498535 C-41.4739990234375,-4.2820000648498535 -41.4739990234375,4.2820000648498535 -41.4739990234375,4.2820000648498535 C-41.4739990234375,4.2820000648498535 41.4739990234375,4.2820000648498535 41.4739990234375,4.2820000648498535 C41.4739990234375,4.2820000648498535 41.4739990234375,-4.2820000648498535 41.4739990234375,-4.2820000648498535z"></path></g></g><g transform="matrix(0.3330000042915344,0,0,0.3330000042915344,-6.642795562744141,0.0758189707994461)" opacity="1" style="display: block;"><g opacity="1" transform="matrix(1,0,0,1,153.7570037841797,112.69200134277344)"><path fill="rgb(228,234,246)" fill-opacity="1" d=" M59.62699890136719,33.70199966430664 C59.62699890136719,33.70199966430664 -43.441001892089844,49.05500030517578 -43.441001892089844,49.05500030517578 C-43.441001892089844,49.05500030517578 -65.95600128173828,23.649999618530273 -65.95600128173828,23.649999618530273 C-65.95600128173828,23.649999618530273 -73.68800354003906,-28.253000259399414 -73.68800354003906,-28.253000259399414 C-73.68800354003906,-28.253000259399414 65.95700073242188,-49.05500030517578 65.95700073242188,-49.05500030517578 C65.95700073242188,-49.05500030517578 73.68800354003906,2.8480000495910645 73.68800354003906,2.8480000495910645 C73.68800354003906,2.8480000495910645 59.62699890136719,33.70199966430664 59.62699890136719,33.70199966430664z"></path></g><g opacity="1" transform="matrix(1,0,0,1,160.9709930419922,150.86199951171875)"><path fill="rgb(155,176,196)" fill-opacity="1" d=" M-50.654998779296875,10.883999824523926 C-50.654998779296875,10.883999824523926 36.9010009765625,-2.1579999923706055 36.9010009765625,-2.1579999923706055 C36.9010009765625,-2.1579999923706055 52.41299819946289,-4.4679999351501465 52.41299819946289,-4.4679999351501465 C52.41299819946289,-4.4679999351501465 55.33700180053711,-10.883999824523926 55.33700180053711,-10.883999824523926 C55.33700180053711,-10.883999824523926 -55.33700180053711,5.6020002365112305 -55.33700180053711,5.6020002365112305 C-55.33700180053711,5.6020002365112305 -50.654998779296875,10.883999824523926 -50.654998779296875,10.883999824523926z"></path></g><g opacity="1" transform="matrix(1,0,0,1,108.18499755859375,139.39999389648438)"><path fill="rgb(170,95,164)" fill-opacity="1" d=" M-2.507999897003174,17.11199951171875 C-2.507999897003174,17.11199951171875 15.569000244140625,-17.11199951171875 15.569000244140625,-17.11199951171875 C15.569000244140625,-17.11199951171875 -9.517000198364258,-10.302000045776367 -9.517000198364258,-10.302000045776367 C-9.517000198364258,-10.302000045776367 -15.569000244140625,2.375 -15.569000244140625,2.375 C-15.569000244140625,2.375 -2.507999897003174,17.11199951171875 -2.507999897003174,17.11199951171875z"></path></g><g opacity="1" transform="matrix(1,0,0,1,206.69400024414062,125.93099975585938)"><path fill="rgb(170,95,164)" fill-opacity="1" d=" M17.738000869750977,-3.7790000438690186 C17.738000869750977,-3.7790000438690186 8.243000030517578,-14.152000427246094 8.243000030517578,-14.152000427246094 C8.243000030517578,-14.152000427246094 -17.738000869750977,-13.354000091552734 -17.738000869750977,-13.354000091552734 C-17.738000869750977,-13.354000091552734 9.567000389099121,14.152000427246094 9.567000389099121,14.152000427246094 C9.567000389099121,14.152000427246094 17.738000869750977,-3.7790000438690186 17.738000869750977,-3.7790000438690186z"></path></g><g opacity="1" transform="matrix(1,0,0,1,149.01300048828125,84.24400329589844)"><path fill="rgb(107,188,82)" fill-opacity="1" d=" M-3.611999988555908,-40.35300064086914 C-54.79800033569336,-32.729000091552734 -70.70099639892578,-11.602999687194824 -70.70099639892578,-11.602999687194824 C-70.70099639892578,-11.602999687194824 -68.94400024414062,0.19499999284744263 -68.94400024414062,0.19499999284744263 C-68.94400024414062,0.19499999284744263 -50.34400177001953,44.854000091552734 -50.34400177001953,44.854000091552734 C-50.34400177001953,44.854000091552734 -7.7179999351501465,47.97800064086914 -7.7179999351501465,47.97800064086914 C-7.7179999351501465,47.97800064086914 8.050000190734863,37.93899917602539 8.050000190734863,37.93899917602539 C8.050000190734863,37.93899917602539 26.059999465942383,42.946998596191406 26.059999465942383,42.946998596191406 C26.059999465942383,42.946998596191406 65.92500305175781,27.53499984741211 65.92500305175781,27.53499984741211 C65.92500305175781,27.53499984741211 70.70099639892578,-20.60700035095215 70.70099639892578,-20.60700035095215 C70.70099639892578,-20.60700035095215 68.94400024414062,-32.40399932861328 68.94400024414062,-32.40399932861328 C68.94400024414062,-32.40399932861328 47.573001861572266,-47.97800064086914 -3.611999988555908,-40.35300064086914z"></path></g><g opacity="1" transform="matrix(1,0,0,1,145.90899658203125,47.50199890136719)"><path fill="rgb(181,201,223)" fill-opacity="1" d=" M59.51599884033203,6.10099983215332 C54.8129997253418,-25.469999313354492 25.406999588012695,-47.25199890136719 -6.164000034332275,-42.54800033569336 C-37.73500061035156,-37.845001220703125 -59.51599884033203,-8.4399995803833 -54.81399917602539,23.131000518798828 C-54.81399917602539,23.131000518798828 -40.560001373291016,47.25199890136719 6.176000118255615,40.29100036621094 C52.9119987487793,33.33000183105469 59.51599884033203,6.10099983215332 59.51599884033203,6.10099983215332z"></path></g><g opacity="1" transform="matrix(1,0,0,1,148.33200073242188,70.79399871826172)"><path fill="rgb(1,132,69)" fill-opacity="1" d=" M-54.13999938964844,-0.125 C-54.13999938964844,-0.125 -42.14899826049805,22.53499984741211 3.562000036239624,15.72700023651123 C49.27399826049805,8.916999816894531 54.13999938964844,-16.2549991607666 54.13999938964844,-16.2549991607666 C54.13999938964844,-16.2549991607666 35.60900115966797,-22.53499984741211 -1.3170000314712524,-17.034000396728516 C-38.24300003051758,-11.534000396728516 -54.13999938964844,-0.125 -54.13999938964844,-0.125z"></path></g><g opacity="1" transform="matrix(1,0,0,1,189.99000549316406,98.1240005493164)"><path fill="rgb(215,27,93)" fill-opacity="1" d=" M9.168999671936035,-1.3660000562667847 C8.414999961853027,-6.428999900817871 3.6989998817443848,-9.92300033569336 -1.3650000095367432,-9.168999671936035 C-6.428999900817871,-8.414999961853027 -9.92199993133545,-3.697999954223633 -9.166999816894531,1.3650000095367432 C-8.413000106811523,6.428999900817871 -3.697999954223633,9.92199993133545 1.3650000095367432,9.168000221252441 C6.428999900817871,8.413000106811523 9.92300033569336,3.697000026702881 9.168999671936035,-1.3660000562667847z"></path></g><g opacity="1" transform="matrix(1,0,0,1,145.90899658203125,46.69499969482422)"><path fill="rgb(228,234,246)" fill-opacity="1" d=" M2.497999906539917,-38.41899871826172 C15.37600040435791,-38.41899871826172 27.89299964904785,-33.78300094604492 37.7400016784668,-25.364999771118164 C47.37799835205078,-17.125999450683594 53.81700134277344,-5.770999908447266 55.959999084472656,6.7179999351501465 C55.237998962402344,8.65999984741211 53.0260009765625,13.579000473022461 47.6349983215332,18.922000885009766 C38.319000244140625,28.15399932861328 23.7810001373291,34.465999603271484 5.5920000076293945,37.17599868774414 C0.054999999701976776,38 -5.291999816894531,38.41899871826172 -10.300000190734863,38.41899871826172 C-37.91299819946289,38.41899871826172 -49.00199890136719,26.038999557495117 -51.4640007019043,22.743000030517578 C-55.17300033569336,-6.438000202178955 -34.81399917602539,-33.4640007019043 -5.578999996185303,-37.819000244140625 C-2.9030001163482666,-38.21699905395508 -0.1850000023841858,-38.41899871826172 2.497999906539917,-38.41899871826172z M2.497999906539917,-43.67599868774414 C-0.421999990940094,-43.67599868774414 -3.378000020980835,-43.46099853515625 -6.354000091552734,-43.018001556396484 C-38.89799880981445,-38.16999816894531 -61.349998474121094,-7.859000205993652 -56.50199890136719,24.68600082397461 C-56.50199890136719,24.68600082397461 -45.277000427246094,43.67599868774414 -10.300000190734863,43.67599868774414 C-5.25,43.67599868774414 0.289000004529953,43.279998779296875 6.366000175476074,42.375 C54.54199981689453,35.198001861572266 61.349998474121094,7.13100004196167 61.349998474121094,7.13100004196167 C56.94499969482422,-22.437999725341797 31.518999099731445,-43.67599868774414 2.497999906539917,-43.67599868774414z"></path></g><g opacity="1" transform="matrix(1,0,0,1,84.99800109863281,71.68599700927734)"><path fill="rgb(170,95,164)" fill-opacity="1" d=" M4.379000186920166,-12.753000259399414 C4.379000186920166,-12.753000259399414 -0.19599999487400055,-12.071000099182129 -0.19599999487400055,-12.071000099182129 C-4.750999927520752,-11.392999649047852 -7.894000053405762,-7.150000095367432 -7.216000080108643,-2.5950000286102295 C-7.216000080108643,-2.5950000286102295 -4.929999828338623,12.753000259399414 -4.929999828338623,12.753000259399414 C-4.929999828338623,12.753000259399414 7.89300012588501,10.843000411987305 7.89300012588501,10.843000411987305 C7.89300012588501,10.843000411987305 4.379000186920166,-12.753000259399414 4.379000186920166,-12.753000259399414z"></path></g><g opacity="1" transform="matrix(1,0,0,1,211.5449981689453,53.06999969482422)"><path fill="rgb(170,95,164)" fill-opacity="1" d=" M-3.5929999351501465,-11.798999786376953 C-3.5929999351501465,-11.798999786376953 -8.168999671936035,-11.116999626159668 -8.168999671936035,-11.116999626159668 C-8.168999671936035,-11.116999626159668 -4.6539998054504395,12.47700023651123 -4.6539998054504395,12.47700023651123 C-4.6539998054504395,12.47700023651123 8.168999671936035,10.567999839782715 8.168999671936035,10.567999839782715 C8.168999671936035,10.567999839782715 5.882999897003174,-4.7789998054504395 5.882999897003174,-4.7789998054504395 C5.203999996185303,-9.333999633789062 0.9620000123977661,-12.477999687194824 -3.5929999351501465,-11.798999786376953z"></path></g><g opacity="1" transform="matrix(1,0,0,1,151.85299682617188,94.55699920654297)"><path fill="rgb(228,234,246)" fill-opacity="1" d=" M17.378000259399414,-9.939000129699707 C17.378000259399414,-9.939000129699707 -17.378000259399414,-4.76200008392334 -17.378000259399414,-4.76200008392334 C-17.378000259399414,-4.76200008392334 -9.996000289916992,9.939000129699707 -9.996000289916992,9.939000129699707 C-9.996000289916992,9.939000129699707 14.598999977111816,6.276000022888184 14.598999977111816,6.276000022888184 C14.598999977111816,6.276000022888184 17.378000259399414,-9.939000129699707 17.378000259399414,-9.939000129699707z"></path></g><g opacity="1" transform="matrix(1,0,0,1,105.39399719238281,110.72599792480469)"><path fill="rgb(0,130,200)" fill-opacity="1" d=" M1.684999942779541,11.314000129699707 C1.684999942779541,11.314000129699707 1.684999942779541,11.314000129699707 1.684999942779541,11.314000129699707 C-0.5,11.638999938964844 -2.552999973297119,10.118000030517578 -2.878000020980835,7.933000087738037 C-2.878000020980835,7.933000087738037 -5.065999984741211,-6.75 -5.065999984741211,-6.75 C-5.390999794006348,-8.9350004196167 -3.869999885559082,-10.98900032043457 -1.6859999895095825,-11.314000129699707 C0.49900001287460327,-11.638999938964844 2.552000045776367,-10.119000434875488 2.878000020980835,-7.934000015258789 C2.878000020980835,-7.934000015258789 5.065000057220459,6.750999927520752 5.065000057220459,6.750999927520752 C5.390999794006348,8.9350004196167 3.869999885559082,10.98799991607666 1.684999942779541,11.314000129699707z"></path></g><g opacity="1" transform="matrix(1,0,0,1,117.69999694824219,108.89299774169922)"><path fill="rgb(1,132,69)" fill-opacity="1" d=" M1.684999942779541,11.314000129699707 C1.684999942779541,11.314000129699707 1.684999942779541,11.314000129699707 1.684999942779541,11.314000129699707 C-0.5,11.638999938964844 -2.552999973297119,10.118000030517578 -2.878000020980835,7.933000087738037 C-2.878000020980835,7.933000087738037 -5.065000057220459,-6.75 -5.065000057220459,-6.75 C-5.390999794006348,-8.9350004196167 -3.869999885559082,-10.98900032043457 -1.6859999895095825,-11.314000129699707 C0.49900001287460327,-11.638999938964844 2.552999973297119,-10.119000434875488 2.878000020980835,-7.934000015258789 C2.878000020980835,-7.934000015258789 5.065000057220459,6.750999927520752 5.065000057220459,6.750999927520752 C5.390999794006348,8.9350004196167 3.869999885559082,10.98799991607666 1.684999942779541,11.314000129699707z"></path></g><g opacity="1" transform="matrix(1,0,0,1,130.0050048828125,107.05999755859375)"><path fill="rgb(215,27,93)" fill-opacity="1" d=" M1.684999942779541,11.314000129699707 C1.684999942779541,11.314000129699707 1.684999942779541,11.314000129699707 1.684999942779541,11.314000129699707 C-0.5,11.638999938964844 -2.552999973297119,10.118000030517578 -2.878000020980835,7.933000087738037 C-2.878000020980835,7.933000087738037 -5.065000057220459,-6.75 -5.065000057220459,-6.75 C-5.390999794006348,-8.9350004196167 -3.869999885559082,-10.98900032043457 -1.6859999895095825,-11.314000129699707 C0.49900001287460327,-11.638999938964844 2.552999973297119,-10.119000434875488 2.878000020980835,-7.934000015258789 C2.878000020980835,-7.934000015258789 5.065000057220459,6.750999927520752 5.065000057220459,6.750999927520752 C5.390999794006348,8.9350004196167 3.869999885559082,10.98799991607666 1.684999942779541,11.314000129699707z"></path></g><g opacity="1" transform="matrix(1,0,0,1,76.95999908447266,101.15799713134766)"><path fill="rgb(78,67,95)" fill-opacity="1" d=" M0.35899999737739563,-35.185001373291016 C0.35899999737739563,-35.185001373291016 -10.840999603271484,-33.51599884033203 -10.840999603271484,-33.51599884033203 C-10.840999603271484,-33.51599884033203 -3.249000072479248,17.45400047302246 -3.249000072479248,17.45400047302246 C-3.249000072479248,17.45400047302246 10.840999603271484,35.185001373291016 10.840999603271484,35.185001373291016 C10.840999603271484,35.185001373291016 0.35899999737739563,-35.185001373291016 0.35899999737739563,-35.185001373291016z"></path></g><g opacity="1" transform="matrix(1,0,0,1,226.35899353027344,79.52200317382812)"><path fill="rgb(78,67,95)" fill-opacity="1" d=" M-9.395999908447266,-34.35100173950195 C-9.395999908447266,-34.35100173950195 1.8029999732971191,-36.018001556396484 1.8029999732971191,-36.018001556396484 C1.8029999732971191,-36.018001556396484 9.395999908447266,14.951000213623047 9.395999908447266,14.951000213623047 C9.395999908447266,14.951000213623047 1.0859999656677246,36.018001556396484 1.0859999656677246,36.018001556396484 C1.0859999656677246,36.018001556396484 -9.395999908447266,-34.35100173950195 -9.395999908447266,-34.35100173950195z"></path></g></g><g mask="url(#__lottie_element_1729)" style="display: block;"><g transform="matrix(0.3330000042915344,0,0,0.3330000042915344,-6.642795562744141,0.0758189707994461)" opacity="1"><g opacity="1" transform="matrix(1,0,0,1,146.85299682617188,49.49300003051758)"><path fill="rgb(170,95,164)" fill-opacity="1" d=" M-5.364999771118164,-32.84000015258789 C-5.364999771118164,-32.84000015258789 -5.364999771118164,-32.84000015258789 -5.364999771118164,-32.84000015258789 C-19.485000610351562,-30.73699951171875 -29.31599998474121,-17.464000701904297 -27.21299934387207,-3.3440001010894775 C-27.21299934387207,-3.3440001010894775 -21.527000427246094,40.2239990234375 -21.527000427246094,40.2239990234375 C-21.527000427246094,40.2239990234375 -14.034000396728516,43.69300079345703 4.814000129699707,40.88600158691406 C23.660999298095703,38.077999114990234 29.81599998474121,32.57400131225586 29.81599998474121,32.57400131225586 C29.81599998474121,32.57400131225586 24.1299991607666,-10.991999626159668 24.1299991607666,-10.991999626159668 C22.027000427246094,-25.111000061035156 8.755000114440918,-34.944000244140625 -5.364999771118164,-32.84000015258789z"></path></g><g opacity="1" transform="matrix(1,0,0,1,152.7270050048828,49.20500183105469)"><path fill="rgb(248,170,110)" fill-opacity="1" d=" M-2.2829999923706055,-26.135000228881836 C-13.720999717712402,-24.430999755859375 -21.687000274658203,-13.678000450134277 -19.982999801635742,-2.239000082015991 C-19.982999801635742,-2.239000082015991 -18.518999099731445,7.5920000076293945 -18.518999099731445,7.5920000076293945 C-16.815000534057617,19.030000686645508 -6.061999797821045,26.9950008392334 5.376999855041504,25.291000366210938 C12.980999946594238,24.159000396728516 18.972000122070312,18.992000579833984 21.68600082397461,12.317999839782715 C21.68600082397461,12.317999839782715 18.256999969482422,-10.70300006866455 18.256999969482422,-10.70300006866455 C17.617000579833984,-14.996000289916992 15.852999687194824,-18.81599998474121 13.439000129699707,-22.101999282836914 C9.088000297546387,-25.37700080871582 3.494999885559082,-26.9950008392334 -2.2829999923706055,-26.135000228881836z"></path></g><g opacity="1" transform="matrix(1,0,0,1,150.78500366210938,55.63600158691406)"><path fill="rgb(228,234,246)" fill-opacity="1" d=" M-7.480000019073486,-4.810999870300293 C-8.126999855041504,-0.5009999871253967 -5.1579999923706055,3.5169999599456787 -0.8479999899864197,4.164999961853027 C3.4619998931884766,4.810999870300293 7.480000019073486,1.8420000076293945 8.126999855041504,-2.4670000076293945 C8.126999855041504,-2.4670000076293945 -7.480000019073486,-4.810999870300293 -7.480000019073486,-4.810999870300293z"></path></g><g opacity="1" transform="matrix(1,0,0,1,122.31199645996094,50.96799850463867)"><path fill="rgb(112,44,128)" fill-opacity="1" d=" M7.0320000648498535,-1.0479999780654907 C6.2179999351501465,-6.517000198364258 2.4079999923706055,-10.479999542236328 -1.475000023841858,-9.901000022888184 C-5.359000205993652,-9.322999954223633 -7.8460001945495605,-4.421000003814697 -7.0320000648498535,1.0479999780654907 C-6.2170000076293945,6.515999794006348 -2.4079999923706055,10.480999946594238 1.475000023841858,9.902999877929688 C5.357999801635742,9.324000358581543 7.8460001945495605,4.421000003814697 7.0320000648498535,-1.0479999780654907z"></path></g><g opacity="1" transform="matrix(1,0,0,1,159.94200134277344,43.224998474121094)"><path fill="rgb(204,131,83)" fill-opacity="1" d=" M-3.7209999561309814,-4.565999984741211 C-3.428999900817871,-3.321000099182129 -2.88100004196167,-2.2690000534057617 -2.2100000381469727,-1.3919999599456787 C-1.5379999876022339,-0.5130000114440918 -0.7549999952316284,0.20100000500679016 0.03500000014901161,0.8519999980926514 C0.38600000739097595,1.1390000581741333 0.8289999961853027,1.5019999742507935 1.1440000534057617,1.8569999933242798 C1.2999999523162842,2.0320000648498535 1.4210000038146973,2.1989998817443848 1.4819999933242798,2.318000078201294 C1.4819999933242798,2.318000078201294 1.5390000343322754,2.4519999027252197 1.5390000343322754,2.4519999027252197 C1.5390000343322754,2.4519999027252197 1.5440000295639038,2.4779999256134033 1.5440000295639038,2.4779999256134033 C1.5440000295639038,2.4779999256134033 1.5440000295639038,2.4790000915527344 1.5440000295639038,2.4790000915527344 C1.5440000295639038,2.4790000915527344 1.6480000019073486,2.4790000915527344 1.6480000019073486,2.4790000915527344 C1.6480000019073486,2.4790000915527344 1.5499999523162842,2.443000078201294 1.5499999523162842,2.443000078201294 C1.5499999523162842,2.443000078201294 1.5440000295639038,2.4790000915527344 1.5440000295639038,2.4790000915527344 C1.5440000295639038,2.4790000915527344 1.6480000019073486,2.4790000915527344 1.6480000019073486,2.4790000915527344 C1.6480000019073486,2.4790000915527344 1.5499999523162842,2.443000078201294 1.5499999523162842,2.443000078201294 C1.5499999523162842,2.443000078201294 1.5490000247955322,2.446000099182129 1.5490000247955322,2.446000099182129 C1.5490000247955322,2.446000099182129 1.5269999504089355,2.4790000915527344 1.5269999504089355,2.4790000915527344 C1.5269999504089355,2.4790000915527344 1.527999997138977,2.4769999980926514 1.527999997138977,2.4769999980926514 C1.503999948501587,2.5160000324249268 1.315000057220459,2.681999921798706 1.0069999694824219,2.8329999446868896 C0.5460000038146973,3.069000005722046 -0.15399999916553497,3.2939999103546143 -0.8709999918937683,3.441999912261963 C-1.5880000591278076,3.5920000076293945 -2.3320000171661377,3.6710000038146973 -2.890000104904175,3.6700000762939453 C-3.628999948501587,3.6700000762939453 -4.228000164031982,4.269000053405762 -4.228000164031982,5.007999897003174 C-4.228000164031982,5.748000144958496 -3.628999948501587,6.34499979019165 -2.890000104904175,6.34499979019165 C-1.8389999866485596,6.3429999351501465 -0.6079999804496765,6.171999931335449 0.5559999942779541,5.8480000495910645 C1.1369999647140503,5.684000015258789 1.6990000009536743,5.480999946594238 2.2160000801086426,5.21999979019165 C2.7309999465942383,4.954999923706055 3.2139999866485596,4.64300012588501 3.615000009536743,4.1519999504089355 C3.615000009536743,4.1519999504089355 3.617000102996826,4.151000022888184 3.617000102996826,4.151000022888184 C4.00600004196167,3.677000045776367 4.229000091552734,3.055000066757202 4.2210001945495605,2.4790000915527344 C4.21999979019165,1.934999942779541 4.054999828338623,1.4639999866485596 3.8519999980926514,1.0770000219345093 C3.5420000553131104,0.49300000071525574 3.138000011444092,0.04800000041723251 2.752000093460083,-0.33000001311302185 C2.365999937057495,-0.7039999961853027 1.9869999885559082,-1.0069999694824219 1.7369999885559082,-1.2139999866485596 C1.0190000534057617,-1.8029999732971191 0.39899998903274536,-2.384999990463257 -0.08100000023841858,-3.0160000324249268 C-0.5619999766349792,-3.6489999294281006 -0.9120000004768372,-4.323999881744385 -1.1169999837875366,-5.181000232696533 C-1.2869999408721924,-5.901000022888184 -2.007999897003174,-6.3460001945495605 -2.7269999980926514,-6.176000118255615 C-3.446000099182129,-6.00600004196167 -3.890000104904175,-5.285999774932861 -3.7209999561309814,-4.565999984741211z"></path></g><g opacity="1" transform="matrix(0.18212608993053436,-0.034847840666770935,0.034847840666770935,0.18212608993053436,146.4340057373047,38.90599822998047)"><path fill="rgb(78,67,95)" fill-opacity="1" d=" M27.5,0 C27.5,0 27.5,0 27.5,0 C27.5,15.177249908447266 15.177249908447266,27.5 0,27.5 C0,27.5 0,27.5 0,27.5 C-15.177249908447266,27.5 -27.5,15.177249908447266 -27.5,0 C-27.5,0 -27.5,0 -27.5,0 C-27.5,-15.177249908447266 -15.177249908447266,-27.5 0,-27.5 C0,-27.5 0,-27.5 0,-27.5 C15.177249908447266,-27.5 27.5,-15.177249908447266 27.5,0z"></path></g><g opacity="1" transform="matrix(0.18212608993053436,-0.034847840666770935,0.034847840666770935,0.18212608993053436,166.1840057373047,35.15599822998047)"><path fill="rgb(78,67,95)" fill-opacity="1" d=" M27.5,0 C27.5,0 27.5,0 27.5,0 C27.5,15.177249908447266 15.177249908447266,27.5 0,27.5 C0,27.5 0,27.5 0,27.5 C-15.177249908447266,27.5 -27.5,15.177249908447266 -27.5,0 C-27.5,0 -27.5,0 -27.5,0 C-27.5,-15.177249908447266 -15.177249908447266,-27.5 0,-27.5 C0,-27.5 0,-27.5 0,-27.5 C15.177249908447266,-27.5 27.5,-15.177249908447266 27.5,0z"></path></g></g></g><g transform="matrix(0.2883864641189575,-0.1665000021457672,0,0,78.9578628540039,50.33018112182617)" opacity="1" style="display: block;"><g opacity="1" transform="matrix(1,0,0,1,0,0)"><path fill="rgb(229,234,246)" fill-opacity="1" d=" M17.729999542236328,-6.179999828338623 C17.729999542236328,-6.179999828338623 11.961000442504883,8.696000099182129 23.097000122070312,20.055999755859375 C23.400999069213867,20.23699951171875 -19.106000900268555,19.416000366210938 -19.28700065612793,19.719999313354492 C-29.930999755859375,10.298999786376953 -24.655000686645508,-6.515999794006348 -24.655000686645508,-6.515999794006348 C-24.655000686645508,-6.515999794006348 17.729999542236328,-6.179999828338623 17.729999542236328,-6.179999828338623z"></path></g></g><g transform="matrix(0.3303505778312683,-0.04192250221967697,0.04192250221967697,0.3303505778312683,-5.813283443450928,21.017377853393555)" opacity="1" style="display: none;"><g opacity="1" transform="matrix(1,0,0,1,209.8209991455078,164.0970001220703)"><path fill="rgb(228,234,246)" fill-opacity="1" d=" M-5.104000091552734,13.85099983215332 C-5.104000091552734,13.85099983215332 13.359999656677246,6.281000137329102 13.359999656677246,6.281000137329102 C18.562000274658203,4.1479997634887695 21.07200050354004,-1.8519999980926514 18.93899917602539,-7.053999900817871 C18.93899917602539,-7.053999900817871 18.440000534057617,-8.272000312805176 18.440000534057617,-8.272000312805176 C16.30699920654297,-13.473999977111816 10.305999755859375,-15.986000061035156 5.104000091552734,-13.852999687194824 C5.104000091552734,-13.852999687194824 -13.359000205993652,-6.281000137329102 -13.359000205993652,-6.281000137329102 C-18.56100082397461,-4.1479997634887695 -21.07200050354004,1.8519999980926514 -18.93899917602539,7.052999973297119 C-18.93899917602539,7.052999973297119 -18.43899917602539,8.272000312805176 -18.43899917602539,8.272000312805176 C-16.30699920654297,13.472999572753906 -10.305999755859375,15.984999656677246 -5.104000091552734,13.85099983215332z"></path></g><g opacity="1" transform="matrix(1,0,0,1,224.375,160.19500732421875)"><path fill="rgb(155,176,196)" fill-opacity="1" d=" M-2.2730000019073486,2.181999921798706 C-2.565999984741211,-2.3550000190734863 -4.076000213623047,-6.788000106811523 -6.519000053405762,-10.619999885559082 C-2.1670000553131104,-11.015000343322754 2.1459999084472656,-8.61299991607666 3.885999917984009,-4.372000217437744 C3.885999917984009,-4.372000217437744 4.385000228881836,-3.1530001163482666 4.385000228881836,-3.1530001163482666 C6.51800012588501,2.0490000247955322 4.007999897003174,8.050000190734863 -1.1929999589920044,10.182999610900879 C-1.1929999589920044,10.182999610900879 -3.2239999771118164,11.015000343322754 -3.2239999771118164,11.015000343322754 C-2.434999942779541,8.144000053405762 -2.0810000896453857,5.1539998054504395 -2.2730000019073486,2.181999921798706z"></path></g><g opacity="1" transform="matrix(1,0,0,1,210.9530029296875,181.27200317382812)"><path fill="rgb(155,176,196)" fill-opacity="1" d=" M-4.098999977111816,7.559999942779541 C-4.098999977111816,7.559999942779541 8.22599983215332,2.50600004196167 8.22599983215332,2.50600004196167 C10.82699966430664,1.440000057220459 12.083000183105469,-1.559999942779541 11.015999794006348,-4.160999774932861 C11.015999794006348,-4.160999774932861 10.765999794006348,-4.770999908447266 10.765999794006348,-4.770999908447266 C9.699999809265137,-7.372000217437744 6.698999881744385,-8.626999855041504 4.0980000495910645,-7.560999870300293 C4.0980000495910645,-7.560999870300293 -8.22599983215332,-2.50600004196167 -8.22599983215332,-2.50600004196167 C-10.82800006866455,-1.440000057220459 -12.083000183105469,1.559999942779541 -11.015999794006348,4.160999774932861 C-11.015999794006348,4.160999774932861 -10.765999794006348,4.770999908447266 -10.765999794006348,4.770999908447266 C-9.699999809265137,7.372000217437744 -6.699999809265137,8.62600040435791 -4.098999977111816,7.559999942779541z"></path></g><g opacity="1" transform="matrix(1,0,0,1,199.75999450683594,173.68600463867188)"><path fill="rgb(170,95,164)" fill-opacity="1" d=" M-1.0369999408721924,-16.79800033569336 C-1.0369999408721924,-16.79800033569336 -5.114999771118164,-15.12600040435791 -5.114999771118164,-15.12600040435791 C-9.317000389099121,-13.402000427246094 -11.345999717712402,-8.553999900817871 -9.623000144958496,-4.3520002365112305 C-9.623000144958496,-4.3520002365112305 -3.50600004196167,10.565999984741211 -3.50600004196167,10.565999984741211 C-1.7829999923706055,14.769000053405762 3.065999984741211,16.79800033569336 7.269000053405762,15.074000358581543 C7.269000053405762,15.074000358581543 11.345999717712402,13.402000427246094 11.345999717712402,13.402000427246094 C11.345999717712402,13.402000427246094 -1.0369999408721924,-16.79800033569336 -1.0369999408721924,-16.79800033569336z"></path></g><g opacity="1" transform="matrix(1,0,0,1,249.19400024414062,137.75)"><path fill="rgb(228,234,246)" fill-opacity="1" d=" M10.152000427246094,-24.867000579833984 C10.152000427246094,-24.867000579833984 24.92099952697754,-14.291999816894531 24.92099952697754,-14.291999816894531 C32.02899932861328,-9.201000213623047 31.360000610351562,1.5729999542236328 23.674999237060547,5.744999885559082 C23.674999237060547,5.744999885559082 -15.085000038146973,26.785999298095703 -15.085000038146973,26.785999298095703 C-15.085000038146973,26.785999298095703 -32.02899932861328,10.447999954223633 -32.02899932861328,10.447999954223633 C-32.02899932861328,10.447999954223633 1.4919999837875366,-24.089000701904297 1.4919999837875366,-24.089000701904297 C3.7880001068115234,-26.45599937438965 7.4710001945495605,-26.78700065612793 10.152000427246094,-24.867000579833984z"></path></g><g opacity="1" transform="matrix(1,0,0,1,257.2200012207031,126.50900268554688)"><path fill="rgb(107,188,82)" fill-opacity="1" d=" M-6.533999919891357,-12.848999977111816 C-4.23799991607666,-15.21500015258789 -0.5559999942779541,-15.545000076293945 2.125,-13.625 C2.125,-13.625 16.895000457763672,-3.049999952316284 16.895000457763672,-3.049999952316284 C23.29800033569336,1.534999966621399 23.3700008392334,10.71500015258789 17.711000442504883,15.545000076293945 C5.111999988555908,8.798999786376953 -9.065999984741211,5.052999973297119 -23.3700008392334,4.498000144958496 C-23.3700008392334,4.498000144958496 -6.533999919891357,-12.848999977111816 -6.533999919891357,-12.848999977111816z"></path></g></g><g transform="matrix(0.33218884468078613,0.02322889305651188,-0.02322889305651188,0.33218884468078613,79.92036437988281,56.587440490722656)" opacity="1" style="display: none;"><g opacity="1" transform="matrix(1,0,0,1,-0.6510000228881836,-0.20200000703334808)"><path fill="rgb(216,27,93)" fill-opacity="1" d=" M-12.125,-6.25 C-9.295000076293945,-6.25 -7,-3.9549999237060547 -7,-1.125 C-7,1.7050000429153442 -9.295000076293945,4 -12.125,4 C-14.954999923706055,4 -17.25,1.7050000429153442 -17.25,-1.125 C-17.25,-3.9549999237060547 -14.954999923706055,-6.25 -12.125,-6.25z"></path></g><g opacity="1" transform="matrix(1,0,0,1,-0.8600000143051147,0.24699999392032623)"><path fill="rgb(140,125,141)" fill-opacity="1" d=" M4.75,-7.75 C4.75,-7.75 14.5,8.5 14.5,8.5 C14.5,8.5 -1.25,6.25 -1.25,6.25 C-1.25,6.25 -4.506999969482422,-8.329999923706055 -4.506999969482422,-8.329999923706055 C-4.506999969482422,-8.329999923706055 4.75,-7.75 4.75,-7.75z"></path><path stroke-linecap="butt" stroke-linejoin="round" fill-opacity="0" stroke="rgb(140,125,141)" stroke-opacity="1" stroke-width="1" d=" M4.75,-7.75 C4.75,-7.75 14.5,8.5 14.5,8.5 C14.5,8.5 -1.25,6.25 -1.25,6.25 C-1.25,6.25 -4.506999969482422,-8.329999923706055 -4.506999969482422,-8.329999923706055 C-4.506999969482422,-8.329999923706055 4.75,-7.75 4.75,-7.75z"></path></g></g></g></svg>