<?xml version="1.0" encoding="UTF-8" standalone="no"?>
<!DOCTYPE svg PUBLIC "-//W3C//DTD SVG 1.1//EN" "http://www.w3.org/Graphics/SVG/1.1/DTD/svg11.dtd">
<svg width="100%" height="100%" viewBox="0 0 68 144" version="1.1" xmlns="http://www.w3.org/2000/svg" xmlns:xlink="http://www.w3.org/1999/xlink" xml:space="preserve" xmlns:serif="http://www.serif.com/" style="fill-rule:evenodd;clip-rule:evenodd;stroke-miterlimit:10;">
    <g>
        <g transform="matrix(0.333,0,0,0.333,-19.5274,-53.1104)">
            <g transform="matrix(1,0,0,1,81.13,191.187)">
                <rect x="-15.004" y="-20.412" width="30.008" height="40.824" style="fill:rgb(255,201,77);fill-rule:nonzero;"/>
            </g>
            <g transform="matrix(1,0,0,1,66.127,170.775)">
                <path d="M5.409,0C5.409,2.987 2.987,5.409 0,5.409C-2.987,5.409 -5.409,2.987 -5.409,0C-5.409,-2.987 -2.987,-5.409 0,-5.409C2.987,-5.409 5.409,-2.987 5.409,0Z" style="fill:rgb(255,201,77);fill-rule:nonzero;"/>
            </g>
            <g transform="matrix(1,0,0,1,96.133,170.775)">
                <path d="M5.409,0C5.409,2.987 2.988,5.409 0,5.409C-2.987,5.409 -5.409,2.987 -5.409,0C-5.409,-2.987 -2.987,-5.409 0,-5.409C2.988,-5.409 5.409,-2.987 5.409,0Z" style="fill:rgb(255,201,77);fill-rule:nonzero;"/>
            </g>
            <g transform="matrix(1,0,0,1,81.13,167.326)">
                <path d="M14.849,2.989C6.993,2.989 6.921,-2.989 -0.001,-2.989C-6.922,-2.989 -6.993,2.989 -14.849,2.989L14.849,2.989Z" style="fill:rgb(255,201,77);fill-rule:nonzero;"/>
            </g>
            <g transform="matrix(1,0,0,1,81.13,167.326)">
                <path d="M14.849,2.989C6.993,2.989 6.921,-2.989 -0.001,-2.989C-6.922,-2.989 -6.993,2.989 -14.849,2.989L14.849,2.989Z" style="fill-opacity:0;fill-rule:nonzero;stroke:rgb(255,201,77);stroke-width:5.41px;"/>
            </g>
            <g transform="matrix(1,0,0,1,81.13,187.345)">
                <path d="M7.78,-9.251C7.78,-13.547 4.297,-17.031 0,-17.031C-4.296,-17.031 -7.78,-13.547 -7.78,-9.251L-7.78,17.031L7.78,17.031L7.78,-9.251Z" style="fill:rgb(179,82,48);fill-rule:nonzero;"/>
            </g>
        </g>
        <g transform="matrix(0.333,0,0,0.333,392.008,491.114)">
            <g>
                <g>
                    <path d="M-1152.46,-1438C-1150.99,-1438.49 -1128.01,-1446.49 -1120,-1329C-1111.95,-1210.93 -1117.23,-1124.33 -1097.5,-1100C-1082.5,-1081.5 -1046.24,-1092.91 -1039.5,-1085.5C-1029.5,-1074.5 -1056.5,-1073 -1050,-1059.5C-1044.86,-1048.82 -1024,-1051 -997.5,-1054.5" style="fill-opacity:0;fill-rule:nonzero;stroke:rgb(255,202,77);stroke-width:15px;stroke-linecap:round;stroke-linejoin:round;stroke-miterlimit:4;"/>
                </g>
            </g>
        </g>
    </g>
</svg>
