<svg xmlns="http://www.w3.org/2000/svg" viewBox="0 0 157 161" width="157" height="161" preserveAspectRatio="xMidYMid meet" style="width: 100%; height: 100%; transform: translate3d(0px, 0px, 0px); content-visibility: visible;"><defs><clipPath id="__lottie_element_102"><rect width="157" height="161" x="0" y="0"></rect></clipPath></defs><g clip-path="url(#__lottie_element_102)"><g transform="matrix(0.3330000042915344,0,0,0.3330000042915344,-60.82719802856445,6.196020603179932)" opacity="1" style="display: block;"><g opacity="1" transform="matrix(1,0,0,1,424.4570007324219,219.1199951171875)"><path stroke-linecap="butt" stroke-linejoin="miter" fill-opacity="0" stroke-miterlimit="10" stroke="rgb(195,121,81)" stroke-opacity="1" stroke-width="6" d=" M-84.17400360107422,93.18099975585938 C-75.45700073242188,121.61900329589844 -40.792999267578125,135.35899353027344 -17.976999282836914,130.7449951171875 C36.250999450683594,119.77999877929688 98.03700256347656,55.775001525878906 93.7300033569336,-95.8010025024414"></path></g></g><g transform="matrix(0.3330000042915344,0,0,0.3330000042915344,-60.82719802856445,10.3585205078125)" opacity="1" style="display: block;"><g opacity="1" transform="matrix(1,0,0,1,381.6929931640625,205.97300720214844)"><path stroke-linecap="round" stroke-linejoin="round" fill-opacity="0" stroke="rgb(113,66,56)" stroke-opacity="1" stroke-width="6" d=" M-68.26599884033203,114.3499984741211 C-53.69200134277344,134.26600646972656 -18.665000915527344,150.09100341796875 11.543000221252441,136.47000122070312 C32.74800109863281,126.90899658203125 47.17399978637695,106.68900299072266 57.292999267578125,85.74500274658203 C86.45999908447266,25.374000549316406 86.7490005493164,-63.99599838256836 88.49800109863281,-131.02099609375"></path></g></g><g transform="matrix(0.3330000042915344,0,0,0.3330000042915344,-60.82719802856445,6.196020603179932)" opacity="1" style="display: block;"><g opacity="1" transform="matrix(1,0,0,1,0,0)"><path stroke-linecap="round" stroke-linejoin="miter" fill-opacity="0" stroke-miterlimit="10" stroke="rgb(195,121,81)" stroke-opacity="1" stroke-width="6" d=" M283.5769958496094,351.3890075683594 C283.5769958496094,351.3890075683594 283.5769958496094,421.3320007324219 283.5769958496094,421.3320007324219"></path></g><g opacity="1" transform="matrix(1,0,0,1,214.8070068359375,250.1820068359375)"><path fill="rgb(0,155,79)" fill-opacity="1" d=" M12.781999588012695,0.0010000000474974513 C12.781999588012695,-7.059000015258789 7.059000015258789,-12.781000137329102 0.0010000000474974513,-12.781000137329102 C-7.058000087738037,-12.781000137329102 -12.781999588012695,-7.059000015258789 -12.781999588012695,0.0010000000474974513 C-12.781999588012695,7.059999942779541 -7.058000087738037,12.781000137329102 0.0010000000474974513,12.781000137329102 C7.059000015258789,12.781000137329102 12.781999588012695,7.059999942779541 12.781999588012695,0.0010000000474974513z"></path></g><g opacity="1" transform="matrix(1,0,0,1,214.8070068359375,250.1820068359375)"><path stroke-linecap="butt" stroke-linejoin="miter" fill-opacity="0" stroke-miterlimit="10" stroke="rgb(0,155,79)" stroke-opacity="1" stroke-width="2" d=" M12.781999588012695,0.0010000000474974513 C12.781999588012695,-7.059000015258789 7.059000015258789,-12.781000137329102 0.0010000000474974513,-12.781000137329102 C-7.058000087738037,-12.781000137329102 -12.781999588012695,-7.059000015258789 -12.781999588012695,0.0010000000474974513 C-12.781999588012695,7.059999942779541 -7.058000087738037,12.781000137329102 0.0010000000474974513,12.781000137329102 C7.059000015258789,12.781000137329102 12.781999588012695,7.059999942779541 12.781999588012695,0.0010000000474974513z"></path></g><g opacity="1" transform="matrix(1,0,0,1,267.41400146484375,308.4440002441406)"><path fill="rgb(223,159,99)" fill-opacity="1" d=" M53.39799880981445,-74.46900177001953 C57.013999938964844,-67.69000244140625 58.31100082397461,-56.987998962402344 57.72700119018555,-49.810001373291016 C65.38899993896484,-49.810001373291016 77.98100280761719,-45.21900177001953 79.21700286865234,-39.20899963378906 C81.8280029296875,-26.507999420166016 82.96099853515625,-12.440999984741211 79.8270034790039,0.2669999897480011 C77.98600006103516,7.730999946594238 75.76799774169922,9.107999801635742 68.97100067138672,11.954000473022461 C67.2249984741211,12.684000015258789 46.7599983215332,19.054000854492188 46.685001373291016,17.985000610351562 C48.17100143432617,39.0359992980957 49.58700180053711,60.70600128173828 43.06100082397461,80.7750015258789 C42.4900016784668,82.52999877929688 41.78300094604492,84.37300109863281 40.29199981689453,85.46199798583984 C38.62900161743164,86.6760025024414 36.400001525878906,86.66300201416016 34.34199905395508,86.5999984741211 C30.343000411987305,86.4800033569336 26.3439998626709,86.35900115966797 22.3439998626709,86.23799896240234 C20.740999221801758,86.19000244140625 19.02400016784668,86.10399627685547 17.738000869750977,85.14399719238281 C16.481000900268555,84.20800018310547 15.904000282287598,82.63500213623047 15.390999794006348,81.15399932861328 C11.50100040435791,69.92500305175781 7.611000061035156,58.69499969482422 3.7209999561309814,47.46699905395508 C3.2070000171661377,45.97999954223633 2.6459999084472656,44.42499923706055 1.468999981880188,43.38199996948242 C-2.8299999237060547,39.569000244140625 -22.506000518798828,46.15700149536133 -28.586000442504883,45.944000244140625 C-29.816999435424805,45.9010009765625 -31.08099937438965,45.81399917602539 -32.19499969482422,45.2869987487793 C-33.50299835205078,44.66699981689453 -34.465999603271484,43.50400161743164 -35.30699920654297,42.32400131225586 C-43.75699996948242,30.469999313354492 -42.3129997253418,15.543000221252441 -48.63100051879883,3.0490000247955322 C-53.89099884033203,-7.353000164031982 -67.11699676513672,-2.361999988555908 -75.3550033569336,-10.29800033569336 C-82.96199798583984,-17.625999450683594 -82.45899963378906,-29.735000610351562 -81.40899658203125,-40.244998931884766 C-81.09500122070312,-43.38600158691406 -80.73799896240234,-46.659000396728516 -79.03199768066406,-49.314998626708984 C-77.21199798583984,-52.150001525878906 -74.11599731445312,-53.875 -71.06999969482422,-55.314998626708984 C-54.6609992980957,-63.06800079345703 -35.89500045776367,-65.74199676513672 -17.974000930786133,-62.882999420166016 C-18.253999710083008,-73.27400207519531 -9.732999801635742,-84.13300323486328 0.6169999837875366,-85.2020034790039 C14.890000343322754,-86.6760025024414 49.21200180053711,-86.31199645996094 52.54100036621094,-75.85600280761719 C52.70500183105469,-75.33999633789062 53.14099884033203,-74.9520034790039 53.39799880981445,-74.46900177001953z"></path></g><g opacity="1" transform="matrix(1,0,0,1,248.46400451660156,325.29400634765625)"><path fill="rgb(195,121,81)" fill-opacity="1" d=" M56.8849983215332,58.95899963378906 C51.124000549316406,59.15599822998047 45.895999908447266,55.02899932861328 43.16699981689453,49.95199966430664 C40.4379997253418,44.874000549316406 39.74700164794922,38.97800064086914 39.292999267578125,33.23099899291992 C38.4739990234375,22.856000900268555 38.27000045776367,12.430999755859375 38.68199920654297,2.0299999713897705 C33.24100112915039,1.9739999771118164 27.799999237060547,1.9170000553131104 22.358999252319336,1.8600000143051147 C18.829999923706055,-16.711000442504883 18.582000732421875,-35.900001525878906 21.628000259399414,-54.55699920654297 C21.628000259399414,-54.55699920654297 5.635000228881836,-69.82599639892578 5.635000228881836,-69.82599639892578 C-16.941999435424805,-66.59700012207031 -39.518001556396484,-63.36600112915039 -62.09400177001953,-60.137001037597656 C-62.24700164794922,-59.125999450683594 -62.35900115966797,-58.104000091552734 -62.459999084472656,-57.09600067138672 C-63.5099983215332,-46.584999084472656 -64.01100158691406,-34.47700119018555 -56.40399932861328,-27.148000717163086 C-48.16600036621094,-19.211999893188477 -34.939998626708984,-24.202999114990234 -29.68000030517578,-13.802000045776367 C-27.81999969482422,-10.123000144958496 -26.635000228881836,-6.23199987411499 -25.66900062561035,-2.2709999084472656 C-24.979999542236328,-4.354000091552734 -24.055999755859375,-6.3429999351501465 -22.591999053955078,-7.953999996185303 C-20.445999145507812,-10.317000389099121 -16.861000061035156,-11.651000022888184 -13.961999893188477,-10.315999984741211 C-10.583000183105469,-8.76099967956543 -9.529000282287598,-4.558000087738037 -8.871999740600586,-0.8960000276565552 C-7.124000072479248,8.857999801635742 -5.375999927520752,18.61400032043457 -3.628000020980835,28.368999481201172 C4.690000057220459,26.825000762939453 17.110000610351562,23.597000122070312 20.41900062561035,26.5310001373291 C21.59600067138672,27.573999404907227 22.155000686645508,29.131000518798828 22.670000076293945,30.617000579833984 C26.559999465942383,41.84600067138672 30.450000762939453,53.07500076293945 34.340999603271484,64.30500030517578 C34.854000091552734,65.78600311279297 35.43199920654297,67.35800170898438 36.68899917602539,68.2959976196289 C37.974998474121094,69.25499725341797 39.691001892089844,69.34100341796875 41.29399871826172,69.38899993896484 C45.29399871826172,69.51000213623047 49.29399871826172,69.62999725341797 53.292999267578125,69.75 C55.35100173950195,69.81300354003906 57.57899856567383,69.82499694824219 59.242000579833984,68.61100006103516 C60.733001708984375,67.52200317382812 61.441001892089844,65.68000030517578 62.012001037597656,63.92499923706055 C62.78900146484375,61.53300094604492 63.446998596191406,59.11800003051758 64.01200103759766,56.68600082397461 C61.805999755859375,57.979000091552734 59.43199920654297,58.87200164794922 56.8849983215332,58.95899963378906z"></path></g><g opacity="1" transform="matrix(1,0,0,1,0,0)"><path stroke-linecap="round" stroke-linejoin="miter" fill-opacity="0" stroke-miterlimit="10" stroke="rgb(195,121,81)" stroke-opacity="1" stroke-width="6" d=" M247.22999572753906,326.63299560546875 C247.22999572753906,326.63299560546875 247.22999572753906,396.5769958496094 247.22999572753906,396.5769958496094"></path></g><g opacity="1" transform="matrix(1,0,0,1,249.42100524902344,267.0379943847656)"><path fill="rgb(113,66,56)" fill-opacity="1" d=" M49.12900161743164,34.42599868774414 C56.816001892089844,31.007999420166016 64.96900177001953,25.003999710083008 64.86699676513672,16.591999053955078 C64.86699676513672,16.591999053955078 54.73099899291992,-6.105999946594238 54.73099899291992,-6.105999946594238 C54.69900131225586,-18.41900062561035 48.374000549316406,-30.551000595092773 38.29800033569336,-37.62699890136719 C34.07500076293945,-40.59400177001953 29.320999145507812,-42.65599822998047 24.386999130249023,-44.222999572753906 C22.243000030517578,-44.11399841308594 20.284000396728516,-43.96900177001953 18.608999252319336,-43.79600143432617 C8.258999824523926,-42.72600173950195 -0.26100000739097595,-31.867000579833984 0.019999999552965164,-21.47599983215332 C-17.902000427246094,-24.336000442504883 -36.667999267578125,-21.66200065612793 -53.07699966430664,-13.909000396728516 C-56.12200164794922,-12.470000267028809 -59.21900177001953,-10.744000434875488 -61.03900146484375,-7.908999919891357 C-62.744998931884766,-5.254000186920166 -63.10300064086914,-1.9789999723434448 -63.41600036621094,1.1610000133514404 C-64.46700286865234,11.67199993133545 -64.96900177001953,23.7810001373291 -57.36199951171875,31.108999252319336 C-49.1879997253418,38.98400115966797 -36.106998443603516,34.138999938964844 -30.767000198364258,44.2239990234375 C-26.222999572753906,40.07400131225586 -22.95400047302246,34.821998596191406 -21.94099998474121,28.665000915527344 C-16.253000259399414,27.485000610351562 -10.564000129699707,26.30500030517578 -4.875999927520752,25.125 C0.1589999943971634,33.7859992980957 9.994000434875488,38.96699905395508 19.954999923706055,40.03799819946289 C29.91699981689453,41.11000061035156 39.9739990234375,38.49599838256836 49.12900161743164,34.42599868774414z"></path></g><g opacity="1" transform="matrix(1,0,0,1,266.9469909667969,260.4530029296875)"><path fill="rgb(0,155,79)" fill-opacity="1" d=" M79.68499755859375,8.781999588012695 C78.4489974975586,2.7720000743865967 65.8550033569336,-1.8179999589920044 58.19300079345703,-1.8179999589920044 C58.777000427246094,-8.994999885559082 57.48099899291992,-19.69700050354004 53.8650016784668,-26.476999282836914 C53.608001708984375,-26.959999084472656 53.17300033569336,-27.349000930786133 53.00899887084961,-27.86400032043457 C49.680999755859375,-38.32099914550781 15.355999946594238,-38.685001373291016 1.0829999446868896,-37.21099853515625 C-9.267000198364258,-36.141998291015625 -17.785999298095703,-25.2810001373291 -17.5049991607666,-14.890999794006348 C-35.426998138427734,-17.75 -54.194000244140625,-15.076000213623047 -70.60299682617188,-7.322999954223633 C-73.64900207519531,-5.883999824523926 -76.74400329589844,-4.1579999923706055 -78.56400299072266,-1.3229999542236328 C-80.2699966430664,1.3320000171661377 -80.62899780273438,4.605000019073486 -80.94200134277344,7.745999813079834 C-81.4530029296875,12.847000122070312 -81.822998046875,18.322999954223633 -81.20999908447266,23.447999954223633 C-67.64800262451172,25.18899917602539 -33.698001861572266,27.089000701904297 -42.6510009765625,10.46399974822998 C-29.850000381469727,12.583000183105469 -16.85300064086914,13.517999649047852 -3.880000114440918,13.258000373840332 C-5.122000217437744,19.30900001525879 -2.6510000228881836,25.969999313354492 2.236999988555908,29.74799919128418 C13.798999786376953,38.683998107910156 41.30799865722656,33.08599853515625 54.57099914550781,31.820999145507812 C56.11899948120117,31.673999786376953 57.67900085449219,31.513999938964844 59.15599822998047,31.027999877929688 C61.37200164794922,30.299999237060547 63.279998779296875,28.8799991607666 65.30500030517578,27.72100067138672 C70.34600067138672,24.836999893188477 75.9990005493164,23.632999420166016 81.822998046875,23.20800018310547 C81.4010009765625,18.304000854492188 80.6449966430664,13.451000213623047 79.68499755859375,8.781999588012695z"></path></g><g opacity="1" transform="matrix(1,0,0,1,266.9469909667969,260.4530029296875)"><path stroke-linecap="butt" stroke-linejoin="miter" fill-opacity="0" stroke-miterlimit="10" stroke="rgb(0,155,79)" stroke-opacity="1" stroke-width="2" d=" M79.68499755859375,8.781999588012695 C78.4489974975586,2.7720000743865967 65.8550033569336,-1.8179999589920044 58.19300079345703,-1.8179999589920044 C58.777000427246094,-8.994999885559082 57.48099899291992,-19.69700050354004 53.8650016784668,-26.476999282836914 C53.608001708984375,-26.959999084472656 53.17300033569336,-27.349000930786133 53.00899887084961,-27.86400032043457 C49.680999755859375,-38.32099914550781 15.355999946594238,-38.685001373291016 1.0829999446868896,-37.21099853515625 C-9.267000198364258,-36.141998291015625 -17.785999298095703,-25.2810001373291 -17.5049991607666,-14.890999794006348 C-35.426998138427734,-17.75 -54.194000244140625,-15.076000213623047 -70.60299682617188,-7.322999954223633 C-73.64900207519531,-5.883999824523926 -76.74400329589844,-4.1579999923706055 -78.56400299072266,-1.3229999542236328 C-80.2699966430664,1.3320000171661377 -80.62899780273438,4.605000019073486 -80.94200134277344,7.745999813079834 C-81.4530029296875,12.847000122070312 -81.822998046875,18.322999954223633 -81.20999908447266,23.447999954223633 C-67.64800262451172,25.18899917602539 -33.698001861572266,27.089000701904297 -42.6510009765625,10.46399974822998 C-29.850000381469727,12.583000183105469 -16.85300064086914,13.517999649047852 -3.880000114440918,13.258000373840332 C-5.122000217437744,19.30900001525879 -2.6510000228881836,25.969999313354492 2.236999988555908,29.74799919128418 C13.798999786376953,38.683998107910156 41.30799865722656,33.08599853515625 54.57099914550781,31.820999145507812 C56.11899948120117,31.673999786376953 57.67900085449219,31.513999938964844 59.15599822998047,31.027999877929688 C61.37200164794922,30.299999237060547 63.279998779296875,28.8799991607666 65.30500030517578,27.72100067138672 C70.34600067138672,24.836999893188477 75.9990005493164,23.632999420166016 81.822998046875,23.20800018310547 C81.4010009765625,18.304000854492188 80.6449966430664,13.451000213623047 79.68499755859375,8.781999588012695z"></path></g><g opacity="1" transform="matrix(1,0,0,1,291.0249938964844,329.0360107421875)"><path fill="rgb(0,155,79)" fill-opacity="1" d=" M-27.30900001525879,-7.896999835968018 C-27.56800079345703,-7.809999942779541 -27.82900047302246,-7.71999979019165 -28.08799934387207,-7.625999927520752 C-30.263999938964844,-6.833000183105469 -32.71799850463867,-5.355000019073486 -32.685001373291016,-3.0399999618530273 C-32.64500045776367,-0.28299999237060547 -29.261999130249023,0.9610000252723694 -26.538000106811523,1.3930000066757202 C-21.28499984741211,2.2260000705718994 -15.98900032043457,2.7880001068115234 -10.677000045776367,3.0739998817443848 C-10.244000434875488,6.13700008392334 -7.3460001945495605,8.378000259399414 -4.323999881744385,9.043000221252441 C2.003000020980835,10.435999870300293 13.782999992370605,8.62600040435791 20.378000259399414,7.382999897003174 C27.6299991607666,6.017000198364258 32.71799850463867,2.2239999771118164 27.545000076293945,-5.103000164031982 C25.84600067138672,-7.508999824523926 23.073999404907227,-8.260000228881836 20.483999252319336,-8.717000007629395 C12.125,-10.194999694824219 -19.704999923706055,-10.435999870300293 -27.30900001525879,-7.896999835968018z"></path></g><g opacity="1" transform="matrix(1,0,0,1,291.0249938964844,329.0360107421875)"><path stroke-linecap="butt" stroke-linejoin="miter" fill-opacity="0" stroke-miterlimit="10" stroke="rgb(0,155,79)" stroke-opacity="1" stroke-width="1.813" d=" M-27.30900001525879,-7.896999835968018 C-27.56800079345703,-7.809999942779541 -27.82900047302246,-7.71999979019165 -28.08799934387207,-7.625999927520752 C-30.263999938964844,-6.833000183105469 -32.71799850463867,-5.355000019073486 -32.685001373291016,-3.0399999618530273 C-32.64500045776367,-0.28299999237060547 -29.261999130249023,0.9610000252723694 -26.538000106811523,1.3930000066757202 C-21.28499984741211,2.2260000705718994 -15.98900032043457,2.7880001068115234 -10.677000045776367,3.0739998817443848 C-10.244000434875488,6.13700008392334 -7.3460001945495605,8.378000259399414 -4.323999881744385,9.043000221252441 C2.003000020980835,10.435999870300293 13.782999992370605,8.62600040435791 20.378000259399414,7.382999897003174 C27.6299991607666,6.017000198364258 32.71799850463867,2.2239999771118164 27.545000076293945,-5.103000164031982 C25.84600067138672,-7.508999824523926 23.073999404907227,-8.260000228881836 20.483999252319336,-8.717000007629395 C12.125,-10.194999694824219 -19.704999923706055,-10.435999870300293 -27.30900001525879,-7.896999835968018z"></path></g><g opacity="1" transform="matrix(1,0,0,1,274.5190124511719,319.2149963378906)"><path fill="rgb(0,155,79)" fill-opacity="1" d=" M7.418000221252441,-0.0010000000474974513 C7.418000221252441,-4.0980000495910645 4.0970001220703125,-7.419000148773193 0,-7.419000148773193 C-4.0970001220703125,-7.419000148773193 -7.418000221252441,-4.0980000495910645 -7.418000221252441,-0.0010000000474974513 C-7.418000221252441,4.0970001220703125 -4.0970001220703125,7.419000148773193 0,7.419000148773193 C4.0970001220703125,7.419000148773193 7.418000221252441,4.0970001220703125 7.418000221252441,-0.0010000000474974513z"></path></g><g opacity="1" transform="matrix(1,0,0,1,274.5190124511719,319.2149963378906)"><path stroke-linecap="butt" stroke-linejoin="miter" fill-opacity="0" stroke-miterlimit="10" stroke="rgb(0,155,79)" stroke-opacity="1" stroke-width="2" d=" M7.418000221252441,-0.0010000000474974513 C7.418000221252441,-4.0980000495910645 4.0970001220703125,-7.419000148773193 0,-7.419000148773193 C-4.0970001220703125,-7.419000148773193 -7.418000221252441,-4.0980000495910645 -7.418000221252441,-0.0010000000474974513 C-7.418000221252441,4.0970001220703125 -4.0970001220703125,7.419000148773193 0,7.419000148773193 C4.0970001220703125,7.419000148773193 7.418000221252441,4.0970001220703125 7.418000221252441,-0.0010000000474974513z"></path></g></g><g transform="matrix(0.3330000042915344,0,0,0.3330000042915344,-60.82719802856445,9.27130126953125)" opacity="1" style="display: block;"><g opacity="1" transform="matrix(1,0,0,1,546.656982421875,17.781999588012695)"><path fill="rgb(0,155,79)" fill-opacity="1" d=" M12.781999588012695,-0.0010000000474974513 C12.781999588012695,-7.059999942779541 7.058000087738037,-12.781000137329102 -0.0010000000474974513,-12.781000137329102 C-7.059999942779541,-12.781000137329102 -12.781999588012695,-7.059999942779541 -12.781999588012695,-0.0010000000474974513 C-12.781999588012695,7.059000015258789 -7.059999942779541,12.781000137329102 -0.0010000000474974513,12.781000137329102 C7.058000087738037,12.781000137329102 12.781999588012695,7.059000015258789 12.781999588012695,-0.0010000000474974513z"></path></g><g opacity="1" transform="matrix(1,0,0,1,546.656982421875,17.781999588012695)"><path stroke-linecap="butt" stroke-linejoin="miter" fill-opacity="0" stroke-miterlimit="10" stroke="rgb(0,155,79)" stroke-opacity="1" stroke-width="2" d=" M12.781999588012695,-0.0010000000474974513 C12.781999588012695,-7.059999942779541 7.058000087738037,-12.781000137329102 -0.0010000000474974513,-12.781000137329102 C-7.059999942779541,-12.781000137329102 -12.781999588012695,-7.059999942779541 -12.781999588012695,-0.0010000000474974513 C-12.781999588012695,7.059000015258789 -7.059999942779541,12.781000137329102 -0.0010000000474974513,12.781000137329102 C7.058000087738037,12.781000137329102 12.781999588012695,7.059000015258789 12.781999588012695,-0.0010000000474974513z"></path></g><g opacity="1" transform="matrix(1,0,0,1,541.2119750976562,81.18599700927734)"><path fill="rgb(223,159,99)" fill-opacity="1" d=" M7.146999835968018,-64.22200012207031 C-3.86299991607666,-64.22200012207031 -15.01099967956543,-63.12799835205078 -25.072999954223633,-58.65999984741211 C-26.96299934387207,-57.821998596191406 -28.861000061035156,-56.88100051879883 -30.917999267578125,-56.66699981689453 C-33.858001708984375,-56.36199951171875 -36.7140007019043,-57.56800079345703 -39.486000061035156,-58.595001220703125 C-57.91600036621094,-65.4280014038086 -78.94400024414062,-64.95999908447266 -97.0530014038086,-57.314998626708984 C-99.38899993896484,-56.32899856567383 -101.802001953125,-55.12099838256836 -103.14600372314453,-52.97200012207031 C-104.5719985961914,-50.69300079345703 -104.51399993896484,-47.821998596191406 -104.40899658203125,-45.1349983215332 C-104.16999816894531,-38.99800109863281 -103.93099975585938,-32.86199951171875 -103.69200134277344,-26.72599983215332 C-103.62899780273438,-25.099000930786133 -103.50700378417969,-23.32200050354004 -102.4010009765625,-22.12700080871582 C-101.51699829101562,-21.172000885009766 -100.18299865722656,-20.79800033569336 -98.91100311279297,-20.523000717163086 C-95.95600128173828,-19.882999420166016 -92.93399810791016,-19.552000045776367 -89.91100311279297,-19.53499984741211 C-87.22699737548828,-19.520999908447266 -84.46099853515625,-19.743000030517578 -81.93299865722656,-18.843000411987305 C-77.14600372314453,-17.141000747680664 -74.5510025024414,-11.913999557495117 -73.55999755859375,-6.931000232696533 C-72.56800079345703,-1.9479999542236328 -72.6760025024414,3.2760000228881836 -70.97000122070312,8.062000274658203 C-69.26499938964844,12.847999572753906 -64.91999816894531,17.301000595092773 -59.86199951171875,16.812000274658203 C-56.99700164794922,16.53499984741211 -53.867000579833984,14.782999992370605 -51.47800064086914,16.38800048828125 C-50.417999267578125,17.100000381469727 -49.834999084472656,18.315000534057617 -49.303001403808594,19.475000381469727 C-42.380001068115234,34.58000183105469 -35.15599822998047,51.314998626708984 -20.281999588012695,58.720001220703125 C-6.809000015258789,65.4280014038086 9.446999549865723,62.505001068115234 23.589000701904297,57.35200119018555 C29.8700008392334,55.06399917602539 36.08000183105469,52.32099914550781 41.319000244140625,48.167999267578125 C46.016998291015625,44.44200134277344 49.83700180053711,39.65800094604492 54.779998779296875,36.26300048828125 C59.722999572753906,32.869998931884766 66.48600006103516,31.072999954223633 71.68000030517578,34.06800079345703 C73.59100341796875,40.38399887084961 75.5009994506836,46.70000076293945 77.41200256347656,53.01499938964844 C77.75,54.13199996948242 78.11599731445312,55.29600143432617 78.93199920654297,56.12900161743164 C80.16300201416016,57.382999420166016 82.08300018310547,57.58000183105469 83.83599853515625,57.70199966430664 C90.74700164794922,58.185001373291016 99.12200164794922,57.95199966430664 102.6760025024414,52.00600051879883 C104.40599822998047,49.111000061035156 104.46299743652344,45.55099868774414 104.47100067138672,42.17900085449219 C104.5009994506836,28.924999237060547 104.52999877929688,15.67199993133545 104.56099700927734,2.4179999828338623 C104.57099914550781,-2.240999937057495 103.927001953125,-7.951000213623047 99.63500213623047,-9.76200008392334 C96.12699890136719,-11.243000030517578 91.31099700927734,-9.404999732971191 88.7490005493164,-12.220999717712402 C87.34400177001953,-13.765000343322754 87.31800079345703,-16.069000244140625 87.23400115966797,-18.15399932861328 C86.73999786376953,-30.46500015258789 81.2300033569336,-56.827999114990234 66.04299926757812,-60.5260009765625 C52.12200164794922,-63.91400146484375 38.72200012207031,-64.22200012207031 7.146999835968018,-64.22200012207031z"></path></g><g opacity="1" transform="matrix(1,0,0,1,465.6730041503906,61.3650016784668)"><path fill="rgb(195,121,81)" fill-opacity="1" d=" M29.031999588012695,-40.99599838256836 C12.411999702453613,-45.37900161743164 -5.668000221252441,-44.183998107910156 -21.513999938964844,-37.49399948120117 C-23.850000381469727,-36.50899887084961 -26.26300048828125,-35.30099868774414 -27.60700035095215,-33.1510009765625 C-29.031999588012695,-30.871999740600586 -28.974000930786133,-28.000999450683594 -28.8700008392334,-25.31399917602539 C-28.631000518798828,-19.17799949645996 -28.391000747680664,-13.041999816894531 -28.152999877929688,-6.906000137329102 C-28.089000701904297,-5.2789998054504395 -27.966999053955078,-3.500999927520752 -26.861000061035156,-2.306999921798706 C-25.97599983215332,-1.3509999513626099 -24.64299964904785,-0.9769999980926514 -23.371000289916992,-0.7020000219345093 C-20.416000366210938,-0.06199999898672104 -17.393999099731445,0.2680000066757202 -14.369999885559082,0.2840000092983246 C-11.687000274658203,0.29899999499320984 -8.92300033569336,0.07800000160932541 -6.394000053405762,0.9779999852180481 C-1.6069999933242798,2.680000066757202 0.9890000224113464,7.90500020980835 1.9800000190734863,12.888999938964844 C2.9709999561309814,17.871999740600586 2.86299991607666,23.097000122070312 4.568999767303467,27.882999420166016 C6.275000095367432,32.66899871826172 10.618000030517578,37.12200164794922 15.675999641418457,36.632999420166016 C18.54199981689453,36.35599899291992 21.67099952697754,34.60300064086914 24.059999465942383,36.20800018310547 C25.118999481201172,36.91999816894531 25.70400047302246,38.1349983215332 26.236000061035156,39.29499816894531 C27.1560001373291,41.303001403808594 28.083999633789062,43.3390007019043 29.031999588012695,45.37799835205078 C29.031999588012695,45.37799835205078 29.031999588012695,-40.99599838256836 29.031999588012695,-40.99599838256836z"></path></g><g opacity="1" transform="matrix(1,0,0,1,533.844970703125,88.84500122070312)"><path fill="rgb(195,121,81)" fill-opacity="1" d=" M84.97899627685547,-4.992000102996826 C75.5739974975586,-5.894999980926514 66.03700256347656,-6.795000076293945 56.72100067138672,-5.2179999351501465 C47.404998779296875,-3.640000104904175 38.17499923706055,0.7369999885559082 32.74300003051758,8.467000007629395 C27.766000747680664,15.552000045776367 26.21500015258789,20.52400016784668 17.235000610351562,21.158000946044922 C9.388999938964844,21.714000701904297 0.8949999809265137,18.19700050354004 -2.181999921798706,10.526000022888184 C-3.5350000858306885,7.1519999504089355 -3.7730000019073486,3.450000047683716 -3.994999885559082,-0.17800000309944153 C-4.795000076293945,-13.239999771118164 -5.59499979019165,-26.302000045776367 -6.394999980926514,-39.36399841308594 C-6.394999980926514,-39.36399841308594 -45.854000091552734,-47.020999908447266 -45.854000091552734,-47.020999908447266 C-45.854000091552734,-27.32900047302246 -44.80799865722656,-13.269000053405762 -43.78300094604492,-0.44600000977516174 C-47.04100036621094,0.9559999704360962 -50.428001403808594,1.4299999475479126 -53.279998779296875,-0.4740000069141388 C-56.74399948120117,-2.7869999408721924 -57.47600173950195,-7.486999988555908 -57.83700180053711,-11.63599967956543 C-58.558998107910156,-19.895999908447266 -59.073001861572266,-28.176000595092773 -59.38199996948242,-36.46200180053711 C-66.57499694824219,-33.75600051879883 -75.72100067138672,-31.42799949645996 -81.08899688720703,-36.928001403808594 C-85.1969985961914,-41.13800048828125 -84.81199645996094,-47.84400177001953 -84.1500015258789,-53.6879997253418 C-84.1500015258789,-53.6879997253418 -96.84600067138672,-57.76900100708008 -96.84600067138672,-57.76900100708008 C-97.14900207519531,-56.1609992980957 -97.1050033569336,-54.44300079345703 -97.04100036621094,-52.79499816894531 C-96.802001953125,-46.65800094604492 -96.56400299072266,-40.520999908447266 -96.32599639892578,-34.38600158691406 C-96.26200103759766,-32.75899887084961 -96.13999938964844,-30.981000900268555 -95.03399658203125,-29.78700065612793 C-94.14900207519531,-28.832000732421875 -92.81600189208984,-28.45800018310547 -91.54399871826172,-28.18199920654297 C-88.58899688720703,-27.542999267578125 -85.56600189208984,-27.211999893188477 -82.54199981689453,-27.19499969482422 C-79.85900115966797,-27.18000030517578 -77.09600067138672,-27.402000427246094 -74.56700134277344,-26.503000259399414 C-69.77999877929688,-24.801000595092773 -67.18499755859375,-19.573999404907227 -66.19300079345703,-14.590999603271484 C-65.2020034790039,-9.607000350952148 -65.30799865722656,-4.383999824523926 -63.60300064086914,0.40299999713897705 C-61.895999908447266,5.189000129699707 -57.553001403808594,9.642000198364258 -52.494998931884766,9.152999877929688 C-49.62900161743164,8.875 -46.5,7.123000144958496 -44.111000061035156,8.729000091552734 C-43.051998138427734,9.440999984741211 -42.46699905395508,10.654999732971191 -41.93600082397461,11.815999984741211 C-35.01300048828125,26.920000076293945 -27.788000106811523,43.654998779296875 -12.914999961853027,51.06100082397461 C0.5590000152587891,57.76900100708008 16.81399917602539,54.845001220703125 30.95599937438965,49.69300079345703 C37.23699951171875,47.40399932861328 43.446998596191406,44.6609992980957 48.68600082397461,40.507999420166016 C53.38399887084961,36.78200149536133 57.20600128173828,31.99799919128418 62.14799880981445,28.604000091552734 C67.09100341796875,25.209999084472656 73.85399627685547,23.413000106811523 79.0469970703125,26.408000946044922 C80.95800018310547,32.724998474121094 82.86799621582031,39.040000915527344 84.77899932861328,45.35599899291992 C85.11699676513672,46.47200012207031 85.48100280761719,47.63600158691406 86.2979965209961,48.46900177001953 C87.52899932861328,49.7239990234375 89.44999694824219,49.91999816894531 91.2030029296875,50.04199981689453 C93.11699676513672,50.17599868774414 95.14299774169922,50.249000549316406 97.14900207519531,50.16699981689453 C89.52999877929688,32.814998626708984 85.3499984741211,13.956999778747559 84.97899627685547,-4.992000102996826z"></path></g><g opacity="1" transform="matrix(1,0,0,1,464.45098876953125,66.19100189208984)"><path fill="rgb(113,66,56)" fill-opacity="1" d=" M25.613000869750977,22.20800018310547 C22.354999542236328,23.610000610351562 18.966999053955078,24.083999633789062 16.11400032043457,22.18000030517578 C12.651000022888184,19.867000579833984 11.918999671936035,15.166999816894531 11.557000160217285,11.019000053405762 C10.836000442504883,2.757999897003174 10.321000099182129,-5.520999908447266 10.01200008392334,-13.807999610900879 C2.819999933242798,-11.10200023651123 -6.326000213623047,-8.77299976348877 -11.694000244140625,-14.27299976348877 C-15.802000045776367,-18.482999801635742 -15.416999816894531,-25.18899917602539 -14.755000114440918,-31.034000396728516 C-14.755000114440918,-31.034000396728516 -27.451000213623047,-35.1150016784668 -27.451000213623047,-35.1150016784668 C-27.7549991607666,-33.50699996948242 -27.709999084472656,-31.788999557495117 -27.645999908447266,-30.141000747680664 C-27.408000946044922,-24.003999710083008 -27.170000076293945,-17.867000579833984 -26.930999755859375,-11.730999946594238 C-26.867000579833984,-10.104999542236328 -26.7450008392334,-8.32699966430664 -25.638999938964844,-7.132999897003174 C-24.7549991607666,-6.177999973297119 -23.42099952697754,-5.803999900817871 -22.14900016784668,-5.5279998779296875 C-19.194000244140625,-4.888999938964844 -16.17300033569336,-4.558000087738037 -13.14900016784668,-4.540999889373779 C-10.465999603271484,-4.526000022888184 -7.699999809265137,-4.748000144958496 -5.171999931335449,-3.8489999771118164 C-0.3840000033378601,-2.1459999084472656 2.2109999656677246,3.0799999237060547 3.2019999027252197,8.062999725341797 C4.193999767303467,13.04699993133545 4.086999893188477,18.270000457763672 5.791999816894531,23.05699920654297 C7.498000144958496,27.843000411987305 11.842000007629395,32.29600143432617 16.899999618530273,31.80699920654297 C19.764999389648438,31.52899932861328 22.893999099731445,29.777000427246094 25.284000396728516,31.382999420166016 C26.343000411987305,32.095001220703125 26.92799949645996,33.310001373291016 27.458999633789062,34.470001220703125 C27.55699920654297,34.683998107910156 27.6560001373291,34.900001525878906 27.7549991607666,35.1150016784668 C27.7549991607666,35.1150016784668 25.613000869750977,22.20800018310547 25.613000869750977,22.20800018310547z"></path></g><g opacity="1" transform="matrix(1,0,0,1,521.968994140625,86.10600280761719)"><path fill="rgb(113,66,56)" fill-opacity="1" d=" M18.75200080871582,-4.166999816894531 C18.990999221801758,-4.235000133514404 19.229999542236328,-4.306000232696533 19.468000411987305,-4.377999782562256 C23.513999938964844,-5.603000164031982 27.533000946044922,-7.486999988555908 30.214000701904297,-10.755000114440918 C32.89500045776367,-14.02299976348877 33.90800094604492,-18.924999237060547 31.7450008392334,-22.55699920654297 C29.868999481201172,-25.704999923706055 26.19300079345703,-27.222000122070312 22.75200080871582,-28.482999801635742 C13.392000198364258,-31.913999557495117 3.884000062942505,-34.77000045776367 -5.245999813079834,-38.619998931884766 C-9.722999572753906,-40.50899887084961 -14.894000053405762,-41.05799865722656 -19.51799964904785,-42.665000915527344 C-21.128999710083008,-43.22600173950195 -33.64400100708008,-47.305999755859375 -33.62200164794922,-48.87300109863281 C-33.90800094604492,-28.868999481201172 -33.65299987792969,-8.859000205993652 -32.87300109863281,11.130999565124512 C-32.65599822998047,11.222999572753906 -32.441001892089844,11.329000473022461 -32.23500061035156,11.468000411987305 C-31.176000595092773,12.180000305175781 -30.590999603271484,13.395999908447266 -30.059999465942383,14.555999755859375 C-24.399999618530273,26.902999877929688 -18.534000396728516,40.33399963378906 -8.456000328063965,48.87300109863281 C-7.3520002365112305,46.15599822998047 -7.019999980926514,43.14500045776367 -6.953999996185303,40.19300079345703 C-6.78000020980835,32.39699935913086 -8.23799991607666,24.702999114990234 -8.909000396728516,16.961999893188477 C-9.29800033569336,12.46500015258789 -11.567999839782715,-0.5770000219345093 -6.281000137329102,-2.568000078201294 C-4.0879998207092285,-3.3949999809265137 -1.6540000438690186,-2.9619998931884766 0.6740000247955322,-2.691999912261963 C6.718999862670898,-1.99399995803833 12.899999618530273,-2.5 18.75200080871582,-4.166999816894531z"></path></g><g opacity="1" transform="matrix(1,0,0,1,530.802978515625,45.698001861572266)"><path fill="rgb(0,155,79)" fill-opacity="1" d=" M28.246000289916992,-1.4229999780654907 C50.54800033569336,-1.3919999599456787 71.9260025024414,-0.20600000023841858 94.16200256347656,-2.433000087738037 C90.97699737548828,-12.82800006866455 85.39299774169922,-22.861000061035156 76.4520034790039,-25.038000106811523 C62.53099822998047,-28.427000045776367 49.13100051879883,-28.735000610351562 17.555999755859375,-28.735000610351562 C6.545000076293945,-28.735000610351562 -4.60099983215332,-27.641000747680664 -14.663999557495117,-23.17300033569336 C-16.55299949645996,-22.333999633789062 -18.451000213623047,-21.393999099731445 -20.507999420166016,-21.18000030517578 C-23.447999954223633,-20.874000549316406 -26.30500030517578,-22.079999923706055 -29.07699966430664,-23.107999801635742 C-47.50699996948242,-29.94099998474121 -68.53399658203125,-29.472999572753906 -86.64299774169922,-21.82699966430664 C-88.97899627685547,-20.841999053955078 -91.39199829101562,-19.634000778198242 -92.73600006103516,-17.485000610351562 C-94.16200256347656,-15.204999923706055 -94.10399627685547,-12.333999633789062 -93.9990005493164,-9.64799976348877 C-93.9990005493164,-9.64799976348877 -93.68099975585938,-1.4769999980926514 -93.68099975585938,-1.4769999980926514 C-76.53299713134766,-1.1080000400543213 -59.88100051879883,-4.11299991607666 -42.8120002746582,-3.874000072479248 C-43.39899826049805,4.479000091552734 -43.41299819946289,14.234000205993652 -36.89699935913086,19.493999481201172 C-28.54800033569336,26.232999801635742 22.045000076293945,29.94099998474121 25.78499984741211,14.89799976348877 C26.902999877929688,10.402999877929688 19.08300018310547,7.813000202178955 19.472999572753906,3.197999954223633 C19.7810001373291,-0.44200000166893005 24.5939998626709,-1.4279999732971191 28.246000289916992,-1.4229999780654907z"></path></g><g opacity="1" transform="matrix(1,0,0,1,530.802978515625,45.698001861572266)"><path stroke-linecap="butt" stroke-linejoin="miter" fill-opacity="0" stroke-miterlimit="10" stroke="rgb(0,155,79)" stroke-opacity="1" stroke-width="2" d=" M28.246000289916992,-1.4229999780654907 C50.54800033569336,-1.3919999599456787 71.9260025024414,-0.20600000023841858 94.16200256347656,-2.433000087738037 C90.97699737548828,-12.82800006866455 85.39299774169922,-22.861000061035156 76.4520034790039,-25.038000106811523 C62.53099822998047,-28.427000045776367 49.13100051879883,-28.735000610351562 17.555999755859375,-28.735000610351562 C6.545000076293945,-28.735000610351562 -4.60099983215332,-27.641000747680664 -14.663999557495117,-23.17300033569336 C-16.55299949645996,-22.333999633789062 -18.451000213623047,-21.393999099731445 -20.507999420166016,-21.18000030517578 C-23.447999954223633,-20.874000549316406 -26.30500030517578,-22.079999923706055 -29.07699966430664,-23.107999801635742 C-47.50699996948242,-29.94099998474121 -68.53399658203125,-29.472999572753906 -86.64299774169922,-21.82699966430664 C-88.97899627685547,-20.841999053955078 -91.39199829101562,-19.634000778198242 -92.73600006103516,-17.485000610351562 C-94.16200256347656,-15.204999923706055 -94.10399627685547,-12.333999633789062 -93.9990005493164,-9.64799976348877 C-93.9990005493164,-9.64799976348877 -93.68099975585938,-1.4769999980926514 -93.68099975585938,-1.4769999980926514 C-76.53299713134766,-1.1080000400543213 -59.88100051879883,-4.11299991607666 -42.8120002746582,-3.874000072479248 C-43.39899826049805,4.479000091552734 -43.41299819946289,14.234000205993652 -36.89699935913086,19.493999481201172 C-28.54800033569336,26.232999801635742 22.045000076293945,29.94099998474121 25.78499984741211,14.89799976348877 C26.902999877929688,10.402999877929688 19.08300018310547,7.813000202178955 19.472999572753906,3.197999954223633 C19.7810001373291,-0.44200000166893005 24.5939998626709,-1.4279999732971191 28.246000289916992,-1.4229999780654907z"></path></g><g opacity="1" transform="matrix(1,0,0,1,624.833984375,80.33100128173828)"><path fill="rgb(0,155,79)" fill-opacity="1" d=" M-24.763999938964844,1.4470000267028809 C-24.121999740600586,4.98199987411499 -20.114999771118164,6.683000087738037 -16.625999450683594,7.552000045776367 C-7.099999904632568,9.925999641418457 20.025999069213867,14.430999755859375 25.424999237060547,3.0250000953674316 C27.643999099731445,-1.6610000133514404 25.16200065612793,-7.974999904632568 20.344999313354492,-9.897000312805176 C18.15999984741211,-10.769000053405762 15.743000030517578,-10.802000045776367 13.390000343322754,-10.824000358581543 C5.408999919891357,-10.895000457763672 -27.64299964904785,-14.430999755859375 -24.763999938964844,1.4470000267028809z"></path></g><g opacity="1" transform="matrix(1,0,0,1,624.833984375,80.33100128173828)"><path stroke-linecap="butt" stroke-linejoin="miter" fill-opacity="0" stroke-miterlimit="10" stroke="rgb(0,155,79)" stroke-opacity="1" stroke-width="2" d=" M-24.763999938964844,1.4470000267028809 C-24.121999740600586,4.98199987411499 -20.114999771118164,6.683000087738037 -16.625999450683594,7.552000045776367 C-7.099999904632568,9.925999641418457 20.025999069213867,14.430999755859375 25.424999237060547,3.0250000953674316 C27.643999099731445,-1.6610000133514404 25.16200065612793,-7.974999904632568 20.344999313354492,-9.897000312805176 C18.15999984741211,-10.769000053405762 15.743000030517578,-10.802000045776367 13.390000343322754,-10.824000358581543 C5.408999919891357,-10.895000457763672 -27.64299964904785,-14.430999755859375 -24.763999938964844,1.4470000267028809z"></path></g><g opacity="1" transform="matrix(1,0,0,1,0,0)"><path stroke-linecap="round" stroke-linejoin="miter" fill-opacity="0" stroke-miterlimit="10" stroke="rgb(195,121,81)" stroke-opacity="1" stroke-width="6" d=" M619.5399780273438,118.76799774169922 C619.5399780273438,118.76799774169922 619.5399780273438,167.1909942626953 619.5399780273438,167.1909942626953"></path></g><g opacity="1" transform="matrix(1,0,0,1,0,0)"><path stroke-linecap="round" stroke-linejoin="round" fill-opacity="0" stroke="rgb(113,66,56)" stroke-opacity="1" stroke-width="6" d=" M492.2049865722656,76.54199981689453 C492.2049865722656,76.54199981689453 492.2049865722656,146.48500061035156 492.2049865722656,146.48500061035156"></path></g></g></g></svg>