<svg xmlns="http://www.w3.org/2000/svg" viewBox="0 0 129 139" width="129" height="139" preserveAspectRatio="xMidYMid meet" style="width: 100%; height: 100%; transform: translate3d(0px, 0px, 0px); content-visibility: visible;"><defs><clipPath id="__lottie_element_3027"><rect width="129" height="139" x="0" y="0"></rect></clipPath></defs><g clip-path="url(#__lottie_element_3027)"><g transform="matrix(0.3330000042915344,0,0,0.3330000042915344,1.635924220085144,1.2523157596588135)" opacity="1" style="display: block;"><g opacity="1" transform="matrix(1,0,0,1,190.54600524902344,224.41900634765625)"><path fill="rgb(170,95,166)" fill-opacity="1" d=" M130.81500244140625,24.354999542236328 C130.81500244140625,24.354999542236328 130.81500244140625,-24.354999542236328 130.81500244140625,-24.354999542236328 C130.81500244140625,-24.354999542236328 102.61499786376953,-27.305999755859375 102.61499786376953,-27.305999755859375 C100.16899871826172,-36.51300048828125 96.55500030517578,-45.220001220703125 91.87899780273438,-53.26599884033203 C91.87899780273438,-53.26599884033203 109.72100067138672,-75.27799987792969 109.72100067138672,-75.27799987792969 C109.72100067138672,-75.27799987792969 75.27899932861328,-109.72200012207031 75.27899932861328,-109.72200012207031 C75.27899932861328,-109.72200012207031 53.26499938964844,-91.87899780273438 53.26499938964844,-91.87899780273438 C45.21900177001953,-96.55500030517578 36.512001037597656,-100.16999816894531 27.30500030517578,-102.61499786376953 C27.30500030517578,-102.61499786376953 24.354999542236328,-130.81500244140625 24.354999542236328,-130.81500244140625 C24.354999542236328,-130.81500244140625 -24.354000091552734,-130.81500244140625 -24.354000091552734,-130.81500244140625 C-24.354000091552734,-130.81500244140625 -27.30500030517578,-102.61499786376953 -27.30500030517578,-102.61499786376953 C-36.51100158691406,-100.16999816894531 -45.21900177001953,-96.55500030517578 -53.26499938964844,-91.87899780273438 C-53.26499938964844,-91.87899780273438 -75.27899932861328,-109.72200012207031 -75.27899932861328,-109.72200012207031 C-75.27899932861328,-109.72200012207031 -109.72100067138672,-75.27799987792969 -109.72100067138672,-75.27799987792969 C-109.72100067138672,-75.27799987792969 -91.87899780273438,-53.26599884033203 -91.87899780273438,-53.26599884033203 C-96.55400085449219,-45.220001220703125 -100.16899871826172,-36.51300048828125 -102.61499786376953,-27.305999755859375 C-102.61499786376953,-27.305999755859375 -130.81500244140625,-24.354999542236328 -130.81500244140625,-24.354999542236328 C-130.81500244140625,-24.354999542236328 -130.81500244140625,24.354999542236328 -130.81500244140625,24.354999542236328 C-130.81500244140625,24.354999542236328 -102.61499786376953,27.305999755859375 -102.61499786376953,27.305999755859375 C-100.16899871826172,36.51300048828125 -96.55400085449219,45.220001220703125 -91.87899780273438,53.26599884033203 C-91.87899780273438,53.26599884033203 -109.72100067138672,75.27799987792969 -109.72100067138672,75.27799987792969 C-109.72100067138672,75.27799987792969 -75.27899932861328,109.72200012207031 -75.27899932861328,109.72200012207031 C-75.27899932861328,109.72200012207031 -53.26499938964844,91.87899780273438 -53.26499938964844,91.87899780273438 C-45.21900177001953,96.55500030517578 -36.51100158691406,100.1709976196289 -27.30500030517578,102.61599731445312 C-27.30500030517578,102.61599731445312 -24.354000091552734,130.81500244140625 -24.354000091552734,130.81500244140625 C-24.354000091552734,130.81500244140625 24.354999542236328,130.81500244140625 24.354999542236328,130.81500244140625 C24.354999542236328,130.81500244140625 27.30500030517578,102.61599731445312 27.30500030517578,102.61599731445312 C36.512001037597656,100.1709976196289 45.21900177001953,96.55500030517578 53.26499938964844,91.87899780273438 C53.26499938964844,91.87899780273438 75.27899932861328,109.72200012207031 75.27899932861328,109.72200012207031 C75.27899932861328,109.72200012207031 109.72100067138672,75.27799987792969 109.72100067138672,75.27799987792969 C109.72100067138672,75.27799987792969 91.87899780273438,53.26599884033203 91.87899780273438,53.26599884033203 C96.55400085449219,45.220001220703125 100.16899871826172,36.51300048828125 102.61499786376953,27.305999755859375 C102.61499786376953,27.305999755859375 130.81500244140625,24.354999542236328 130.81500244140625,24.354999542236328z"></path></g><g opacity="1" transform="matrix(1,0,0,1,190.54600524902344,224.41900634765625)"><path fill="rgb(143,201,94)" fill-opacity="1" d=" M0,-51.2140007019043 C11.050999641418457,-51.2140007019043 21.256999969482422,-47.67900085449219 29.625,-41.72700119018555 C29.625,-41.72700119018555 0,-15.970999717712402 0,-15.970999717712402 C0,-15.970999717712402 -29.624000549316406,-41.72800064086914 -29.624000549316406,-41.72800064086914 C-21.256000518798828,-47.67900085449219 -11.050000190734863,-51.2140007019043 0,-51.2140007019043z"></path></g><g opacity="1" transform="matrix(1,0,0,1,190.54600524902344,224.41900634765625)"><path fill="rgb(143,201,94)" fill-opacity="1" d=" M-41.7400016784668,-29.607999801635742 C-41.7400016784668,-29.607999801635742 -15.986000061035156,0.01600000075995922 -15.986000061035156,0.01600000075995922 C-15.986000061035156,0.01600000075995922 -41.72800064086914,29.62299919128418 -41.72800064086914,29.62299919128418 C-47.67900085449219,21.2549991607666 -51.2140007019043,11.050999641418457 -51.2140007019043,0.0010000000474974513 C-51.2140007019043,-11.041999816894531 -47.683998107910156,-21.243000030517578 -41.7400016784668,-29.607999801635742z"></path></g><g opacity="1" transform="matrix(1,0,0,1,190.54600524902344,224.41900634765625)"><path fill="rgb(143,201,94)" fill-opacity="1" d=" M0,51.2140007019043 C-11.041999816894531,51.2140007019043 -21.243000030517578,47.68600082397461 -29.60700035095215,41.74100112915039 C-29.60700035095215,41.74100112915039 0.0020000000949949026,16 0.0020000000949949026,16 C0.0020000000949949026,16 29.60700035095215,41.74100112915039 29.60700035095215,41.74100112915039 C21.243000030517578,47.68600082397461 11.043000221252441,51.2140007019043 0,51.2140007019043z"></path></g><g opacity="1" transform="matrix(1,0,0,1,190.54600524902344,224.41900634765625)"><path fill="rgb(143,201,94)" fill-opacity="1" d=" M41.729000091552734,29.62299919128418 C41.729000091552734,29.62299919128418 15.984999656677246,0.014999999664723873 15.984999656677246,0.014999999664723873 C15.984999656677246,0.014999999664723873 41.7400016784668,-29.607999801635742 41.7400016784668,-29.607999801635742 C47.683998107910156,-21.243999481201172 51.21500015258789,-11.043000221252441 51.21500015258789,0.0010000000474974513 C51.21500015258789,11.050999641418457 47.680999755859375,21.2549991607666 41.729000091552734,29.62299919128418z"></path></g></g><g transform="matrix(0.3330000042915344,0,0,0.3330000042915344,1.635924220085144,1.2523157596588135)" opacity="1" style="display: block;"><g opacity="1" transform="matrix(1,0,0,1,129.47999572753906,93.60399627685547)"><path fill="rgb(51,185,157)" fill-opacity="1" d=" M56.229000091552734,10.531000137329102 C56.229000091552734,10.531000137329102 56.229000091552734,-10.529999732971191 56.229000091552734,-10.529999732971191 C56.229000091552734,-10.529999732971191 44.095001220703125,-11.720999717712402 44.095001220703125,-11.720999717712402 C43.04499816894531,-15.680999755859375 41.47200012207031,-19.423999786376953 39.46099853515625,-22.884000778198242 C39.46099853515625,-22.884000778198242 47.20600128173828,-32.3129997253418 47.20600128173828,-32.3129997253418 C47.20600128173828,-32.3129997253418 32.3120002746582,-47.20500183105469 32.3120002746582,-47.20500183105469 C32.3120002746582,-47.20500183105469 22.884000778198242,-39.46200180053711 22.884000778198242,-39.46200180053711 C19.423999786376953,-41.472999572753906 15.680000305175781,-43.04600143432617 11.720000267028809,-44.09600067138672 C11.720000267028809,-44.09600067138672 10.531000137329102,-56.22800064086914 10.531000137329102,-56.22800064086914 C10.531000137329102,-56.22800064086914 -10.531999588012695,-56.22800064086914 -10.531999588012695,-56.22800064086914 C-10.531999588012695,-56.22800064086914 -11.720999717712402,-44.09600067138672 -11.720999717712402,-44.09600067138672 C-15.680999755859375,-43.04600143432617 -19.424999237060547,-41.472999572753906 -22.885000228881836,-39.46200180053711 C-22.885000228881836,-39.46200180053711 -32.3120002746582,-47.20500183105469 -32.3120002746582,-47.20500183105469 C-32.3120002746582,-47.20500183105469 -47.20800018310547,-32.3129997253418 -47.20800018310547,-32.3129997253418 C-47.20800018310547,-32.3129997253418 -39.46200180053711,-22.884000778198242 -39.46200180053711,-22.884000778198242 C-41.4739990234375,-19.423999786376953 -43.047000885009766,-15.680999755859375 -44.09700012207031,-11.720999717712402 C-44.09700012207031,-11.720999717712402 -56.229000091552734,-10.529999732971191 -56.229000091552734,-10.529999732971191 C-56.229000091552734,-10.529999732971191 -56.229000091552734,10.531000137329102 -56.229000091552734,10.531000137329102 C-56.229000091552734,10.531000137329102 -44.09700012207031,11.720999717712402 -44.09700012207031,11.720999717712402 C-43.047000885009766,15.680999755859375 -41.4739990234375,19.424999237060547 -39.46200180053711,22.885000228881836 C-39.46200180053711,22.885000228881836 -47.20800018310547,32.3120002746582 -47.20800018310547,32.3120002746582 C-47.20800018310547,32.3120002746582 -32.3120002746582,47.207000732421875 -32.3120002746582,47.207000732421875 C-32.3120002746582,47.207000732421875 -22.885000228881836,39.4630012512207 -22.885000228881836,39.4630012512207 C-19.424999237060547,41.4739990234375 -15.680999755859375,43.04800033569336 -11.720999717712402,44.09700012207031 C-11.720999717712402,44.09700012207031 -10.531999588012695,56.22800064086914 -10.531999588012695,56.22800064086914 C-10.531999588012695,56.22800064086914 10.531000137329102,56.22800064086914 10.531000137329102,56.22800064086914 C10.531000137329102,56.22800064086914 11.720000267028809,44.09700012207031 11.720000267028809,44.09700012207031 C15.680000305175781,43.04800033569336 19.423999786376953,41.4739990234375 22.884000778198242,39.4630012512207 C22.884000778198242,39.4630012512207 32.3120002746582,47.207000732421875 32.3120002746582,47.207000732421875 C32.3120002746582,47.207000732421875 47.20600128173828,32.3120002746582 47.20600128173828,32.3120002746582 C47.20600128173828,32.3120002746582 39.46099853515625,22.885000228881836 39.46099853515625,22.885000228881836 C41.47200012207031,19.424999237060547 43.04499816894531,15.680999755859375 44.095001220703125,11.720999717712402 C44.095001220703125,11.720999717712402 56.229000091552734,10.531000137329102 56.229000091552734,10.531000137329102z"></path></g><g opacity="1" transform="matrix(1,0,0,1,129.47999572753906,93.60399627685547)"><path fill="rgb(132,207,215)" fill-opacity="1" d=" M30.964000701904297,0 C30.964000701904297,-17.10099983215332 17.10099983215332,-30.964000701904297 0,-30.964000701904297 C-17.100000381469727,-30.964000701904297 -30.964000701904297,-17.10099983215332 -30.964000701904297,0 C-30.964000701904297,17.10099983215332 -17.100000381469727,30.964000701904297 0,30.964000701904297 C17.10099983215332,30.964000701904297 30.964000701904297,17.10099983215332 30.964000701904297,0z"></path></g></g><g transform="matrix(0.3330000042915344,0,0,0.3330000042915344,1.635924220085144,1.2523157596588135)" opacity="1" style="display: block;"><g opacity="1" transform="matrix(1,0,0,1,167.7100067138672,38.47999954223633)"><path fill="rgb(255,201,77)" fill-opacity="1" d=" M38.22999954223633,7.160999774932861 C38.22999954223633,7.160999774932861 38.22999954223633,-7.159999847412109 38.22999954223633,-7.159999847412109 C38.22999954223633,-7.159999847412109 29.981000900268555,-7.968999862670898 29.981000900268555,-7.968999862670898 C29.267000198364258,-10.66100025177002 28.197999954223633,-13.206999778747559 26.83099937438965,-15.559000015258789 C26.83099937438965,-15.559000015258789 32.095001220703125,-21.9689998626709 32.095001220703125,-21.9689998626709 C32.095001220703125,-21.9689998626709 21.9689998626709,-32.09600067138672 21.9689998626709,-32.09600067138672 C21.9689998626709,-32.09600067138672 15.559000015258789,-26.829999923706055 15.559000015258789,-26.829999923706055 C13.206999778747559,-28.19700050354004 10.661999702453613,-29.267000198364258 7.968999862670898,-29.981000900268555 C7.968999862670898,-29.981000900268555 7.160999774932861,-38.22999954223633 7.160999774932861,-38.22999954223633 C7.160999774932861,-38.22999954223633 -7.160999774932861,-38.22999954223633 -7.160999774932861,-38.22999954223633 C-7.160999774932861,-38.22999954223633 -7.968999862670898,-29.981000900268555 -7.968999862670898,-29.981000900268555 C-10.661999702453613,-29.267000198364258 -13.208000183105469,-28.19700050354004 -15.5600004196167,-26.829999923706055 C-15.5600004196167,-26.829999923706055 -21.9689998626709,-32.09600067138672 -21.9689998626709,-32.09600067138672 C-21.9689998626709,-32.09600067138672 -32.09600067138672,-21.9689998626709 -32.09600067138672,-21.9689998626709 C-32.09600067138672,-21.9689998626709 -26.83099937438965,-15.559000015258789 -26.83099937438965,-15.559000015258789 C-28.197999954223633,-13.206999778747559 -29.267000198364258,-10.66100025177002 -29.981000900268555,-7.968999862670898 C-29.981000900268555,-7.968999862670898 -38.22999954223633,-7.159999847412109 -38.22999954223633,-7.159999847412109 C-38.22999954223633,-7.159999847412109 -38.22999954223633,7.160999774932861 -38.22999954223633,7.160999774932861 C-38.22999954223633,7.160999774932861 -29.981000900268555,7.96999979019165 -29.981000900268555,7.96999979019165 C-29.267000198364258,10.661999702453613 -28.197999954223633,13.208000183105469 -26.83099937438965,15.559000015258789 C-26.83099937438965,15.559000015258789 -32.09600067138672,21.969999313354492 -32.09600067138672,21.969999313354492 C-32.09600067138672,21.969999313354492 -21.9689998626709,32.09700012207031 -21.9689998626709,32.09700012207031 C-21.9689998626709,32.09700012207031 -15.5600004196167,26.83099937438965 -15.5600004196167,26.83099937438965 C-13.208000183105469,28.197999954223633 -10.661999702453613,29.267000198364258 -7.968999862670898,29.981000900268555 C-7.968999862670898,29.981000900268555 -7.160999774932861,38.22999954223633 -7.160999774932861,38.22999954223633 C-7.160999774932861,38.22999954223633 7.160999774932861,38.22999954223633 7.160999774932861,38.22999954223633 C7.160999774932861,38.22999954223633 7.968999862670898,29.981000900268555 7.968999862670898,29.981000900268555 C10.661999702453613,29.267000198364258 13.206999778747559,28.197999954223633 15.559000015258789,26.83099937438965 C15.559000015258789,26.83099937438965 21.9689998626709,32.09700012207031 21.9689998626709,32.09700012207031 C21.9689998626709,32.09700012207031 32.095001220703125,21.969999313354492 32.095001220703125,21.969999313354492 C32.095001220703125,21.969999313354492 26.83099937438965,15.559000015258789 26.83099937438965,15.559000015258789 C28.197999954223633,13.208000183105469 29.267000198364258,10.661999702453613 29.981000900268555,7.96999979019165 C29.981000900268555,7.96999979019165 38.22999954223633,7.160999774932861 38.22999954223633,7.160999774932861z"></path></g><g opacity="1" transform="matrix(1,0,0,1,167.71099853515625,38.47999954223633)"><path fill="rgb(251,176,21)" fill-opacity="1" d=" M21.052000045776367,0 C21.052000045776367,-11.626999855041504 11.62600040435791,-21.052000045776367 -0.0010000000474974513,-21.052000045776367 C-11.628000259399414,-21.052000045776367 -21.052000045776367,-11.626999855041504 -21.052000045776367,0 C-21.052000045776367,11.62600040435791 -11.628000259399414,21.052000045776367 -0.0010000000474974513,21.052000045776367 C11.62600040435791,21.052000045776367 21.052000045776367,11.62600040435791 21.052000045776367,0z"></path></g></g><g transform="matrix(0.3330000042915344,0,0,0.3330000042915344,1.635924220085144,1.2523157596588135)" opacity="1" style="display: block;"><g opacity="1" transform="matrix(1,0,0,1,190.54600524902344,337.5400085449219)"><path fill="rgb(143,200,94)" fill-opacity="1" d=" M190.29600524902344,73.40799713134766 C190.29600524902344,73.40799713134766 -190.29600524902344,73.40799713134766 -190.29600524902344,73.40799713134766 C-190.29600524902344,73.40799713134766 -190.29600524902344,-73.40799713134766 -190.29600524902344,-73.40799713134766 C-190.29600524902344,-73.40799713134766 190.29600524902344,-73.40799713134766 190.29600524902344,-73.40799713134766 C190.29600524902344,-73.40799713134766 190.29600524902344,73.40799713134766 190.29600524902344,73.40799713134766z"></path></g></g><g transform="matrix(0.3330000042915344,0,0,0.3330000042915344,0.536357581615448,76.51963806152344)" opacity="1" style="display: block;"><g opacity="1" transform="matrix(1,0,0,1,68.73899841308594,66.74700164794922)"><path fill="rgb(106,189,81)" fill-opacity="1" d=" M27.34600067138672,-15.786999702453613 C27.34600067138672,-15.786999702453613 -27.34600067138672,-15.786999702453613 -27.34600067138672,-15.786999702453613 C-27.34600067138672,-15.786999702453613 -27.34600067138672,15.786999702453613 -27.34600067138672,15.786999702453613 C-27.34600067138672,15.786999702453613 27.34600067138672,15.786999702453613 27.34600067138672,15.786999702453613 C27.34600067138672,15.786999702453613 27.34600067138672,-15.786999702453613 27.34600067138672,-15.786999702453613z"></path></g><g opacity="1" transform="matrix(1,0,0,1,96.08499908447266,50.96099853515625)"><path fill="rgb(106,189,81)" fill-opacity="1" d=" M31.573999404907227,-0.0010000000474974513 C31.573999404907227,-17.437999725341797 17.437000274658203,-31.573999404907227 0,-31.573999404907227 C-17.43899917602539,-31.573999404907227 -31.573999404907227,-17.437999725341797 -31.573999404907227,-0.0010000000474974513 C-31.573999404907227,17.437000274658203 -17.43899917602539,31.573999404907227 0,31.573999404907227 C17.437000274658203,31.573999404907227 31.573999404907227,17.437000274658203 31.573999404907227,-0.0010000000474974513z"></path></g><g opacity="1" transform="matrix(1,0,0,1,41.391998291015625,41.393001556396484)"><path fill="rgb(106,189,81)" fill-opacity="1" d=" M41.143001556396484,-0.0010000000474974513 C41.143001556396484,-22.722999572753906 22.722000122070312,-41.141998291015625 0,-41.141998291015625 C-22.722000122070312,-41.141998291015625 -41.143001556396484,-22.722999572753906 -41.143001556396484,-0.0010000000474974513 C-41.143001556396484,22.722000122070312 -22.722000122070312,41.141998291015625 0,41.141998291015625 C22.722000122070312,41.141998291015625 41.143001556396484,22.722000122070312 41.143001556396484,-0.0010000000474974513z"></path></g></g></g></svg>