<svg xmlns="http://www.w3.org/2000/svg" viewBox="0 0 34 98" width="34" height="98" preserveAspectRatio="xMidYMid meet" style="width: 100%; height: 100%; transform: translate3d(0px, 0px, 0px); content-visibility: visible;"><defs><clipPath id="__lottie_element_4198"><rect width="34" height="98" x="0" y="0"></rect></clipPath></defs><g clip-path="url(#__lottie_element_4198)"><g transform="matrix(1.7925382852554321,-0.22009602189064026,0.22009602189064026,1.7925382852554321,-7.549811363220215,0.5260838270187378)" opacity="1" style="display: block;"><g opacity="1" transform="matrix(1,0,0,1,14.765000343322754,7.163000106811523)"><path fill="rgb(238,235,234)" fill-opacity="1" d=" M6.894999980926514,-3.9049999713897705 C6.894999980926514,-3.9049999713897705 -6.894999980926514,-3.9049999713897705 -6.894999980926514,-3.9049999713897705 C-6.894999980926514,-3.9049999713897705 -6.894999980926514,3.9049999713897705 -6.894999980926514,3.9049999713897705 C-6.894999980926514,3.9049999713897705 6.894999980926514,3.9049999713897705 6.894999980926514,3.9049999713897705 C6.894999980926514,3.9049999713897705 6.894999980926514,-3.9049999713897705 6.894999980926514,-3.9049999713897705z"></path></g><g opacity="1" transform="matrix(1,0,0,1,14.765000343322754,4.039000034332275)"><path fill="rgb(239,82,34)" fill-opacity="1" d=" M6.894999980926514,-0.781000018119812 C6.894999980926514,-0.781000018119812 -6.894999980926514,-0.781000018119812 -6.894999980926514,-0.781000018119812 C-6.894999980926514,-0.781000018119812 -6.894999980926514,0.781000018119812 -6.894999980926514,0.781000018119812 C-6.894999980926514,0.781000018119812 6.894999980926514,0.781000018119812 6.894999980926514,0.781000018119812 C6.894999980926514,0.781000018119812 6.894999980926514,-0.781000018119812 6.894999980926514,-0.781000018119812z"></path></g><g opacity="1" transform="matrix(1,0,0,1,14.765000343322754,7.164000034332275)"><path fill="rgb(239,82,34)" fill-opacity="1" d=" M6.894999980926514,-0.781000018119812 C6.894999980926514,-0.781000018119812 -6.894999980926514,-0.781000018119812 -6.894999980926514,-0.781000018119812 C-6.894999980926514,-0.781000018119812 -6.894999980926514,0.781000018119812 -6.894999980926514,0.781000018119812 C-6.894999980926514,0.781000018119812 6.894999980926514,0.781000018119812 6.894999980926514,0.781000018119812 C6.894999980926514,0.781000018119812 6.894999980926514,-0.781000018119812 6.894999980926514,-0.781000018119812z"></path></g><g opacity="1" transform="matrix(1,0,0,1,14.765000343322754,10.288000106811523)"><path fill="rgb(239,82,34)" fill-opacity="1" d=" M6.894999980926514,-0.781000018119812 C6.894999980926514,-0.781000018119812 -6.894999980926514,-0.781000018119812 -6.894999980926514,-0.781000018119812 C-6.894999980926514,-0.781000018119812 -6.894999980926514,0.781000018119812 -6.894999980926514,0.781000018119812 C-6.894999980926514,0.781000018119812 6.894999980926514,0.781000018119812 6.894999980926514,0.781000018119812 C6.894999980926514,0.781000018119812 6.894999980926514,-0.781000018119812 6.894999980926514,-0.781000018119812z"></path></g><g opacity="1" transform="matrix(1,0,0,1,10.857000350952148,5.6020002365112305)"><path fill="rgb(17,128,195)" fill-opacity="1" d=" M-2.986999988555908,2.3429999351501465 C-2.986999988555908,2.3429999351501465 2.986999988555908,2.3429999351501465 2.986999988555908,2.3429999351501465 C2.986999988555908,2.3429999351501465 2.986999988555908,-2.3429999351501465 2.986999988555908,-2.3429999351501465 C2.986999988555908,-2.3429999351501465 -2.986999988555908,-2.3429999351501465 -2.986999988555908,-2.3429999351501465 C-2.986999988555908,-2.3429999351501465 -2.986999988555908,2.3429999351501465 -2.986999988555908,2.3429999351501465z"></path></g><g opacity="1" transform="matrix(1,0,0,1,8.949000358581543,4.303999900817871)"><path fill="rgb(255,255,255)" fill-opacity="1" d=" M0,-0.5170000195503235 C0,-0.5170000195503235 0.1720000058412552,-0.18299999833106995 0.1720000058412552,-0.18299999833106995 C0.1720000058412552,-0.18299999833106995 0.5440000295639038,-0.12200000137090683 0.5440000295639038,-0.12200000137090683 C0.5440000295639038,-0.12200000137090683 0.27900001406669617,0.14499999582767487 0.27900001406669617,0.14499999582767487 C0.27900001406669617,0.14499999582767487 0.335999995470047,0.5170000195503235 0.335999995470047,0.5170000195503235 C0.335999995470047,0.5170000195503235 0,0.3479999899864197 0,0.3479999899864197 C0,0.3479999899864197 -0.335999995470047,0.5170000195503235 -0.335999995470047,0.5170000195503235 C-0.335999995470047,0.5170000195503235 -0.27900001406669617,0.14499999582767487 -0.27900001406669617,0.14499999582767487 C-0.27900001406669617,0.14499999582767487 -0.5440000295639038,-0.12200000137090683 -0.5440000295639038,-0.12200000137090683 C-0.5440000295639038,-0.12200000137090683 -0.1720000058412552,-0.18299999833106995 -0.1720000058412552,-0.18299999833106995 C-0.1720000058412552,-0.18299999833106995 0,-0.5170000195503235 0,-0.5170000195503235z"></path></g><g opacity="1" transform="matrix(1,0,0,1,10.857000350952148,4.303999900817871)"><path fill="rgb(255,255,255)" fill-opacity="1" d=" M0,-0.5170000195503235 C0,-0.5170000195503235 0.1720000058412552,-0.18299999833106995 0.1720000058412552,-0.18299999833106995 C0.1720000058412552,-0.18299999833106995 0.5440000295639038,-0.12200000137090683 0.5440000295639038,-0.12200000137090683 C0.5440000295639038,-0.12200000137090683 0.27900001406669617,0.14499999582767487 0.27900001406669617,0.14499999582767487 C0.27900001406669617,0.14499999582767487 0.335999995470047,0.5170000195503235 0.335999995470047,0.5170000195503235 C0.335999995470047,0.5170000195503235 0,0.3479999899864197 0,0.3479999899864197 C0,0.3479999899864197 -0.335999995470047,0.5170000195503235 -0.335999995470047,0.5170000195503235 C-0.335999995470047,0.5170000195503235 -0.27900001406669617,0.14499999582767487 -0.27900001406669617,0.14499999582767487 C-0.27900001406669617,0.14499999582767487 -0.5440000295639038,-0.12200000137090683 -0.5440000295639038,-0.12200000137090683 C-0.5440000295639038,-0.12200000137090683 -0.1720000058412552,-0.18299999833106995 -0.1720000058412552,-0.18299999833106995 C-0.1720000058412552,-0.18299999833106995 0,-0.5170000195503235 0,-0.5170000195503235z"></path></g><g opacity="1" transform="matrix(1,0,0,1,12.765999794006348,4.303999900817871)"><path fill="rgb(255,255,255)" fill-opacity="1" d=" M0,-0.5170000195503235 C0,-0.5170000195503235 0.1720000058412552,-0.18299999833106995 0.1720000058412552,-0.18299999833106995 C0.1720000058412552,-0.18299999833106995 0.5440000295639038,-0.12200000137090683 0.5440000295639038,-0.12200000137090683 C0.5440000295639038,-0.12200000137090683 0.27900001406669617,0.14499999582767487 0.27900001406669617,0.14499999582767487 C0.27900001406669617,0.14499999582767487 0.335999995470047,0.5170000195503235 0.335999995470047,0.5170000195503235 C0.335999995470047,0.5170000195503235 0,0.3479999899864197 0,0.3479999899864197 C0,0.3479999899864197 -0.335999995470047,0.5170000195503235 -0.335999995470047,0.5170000195503235 C-0.335999995470047,0.5170000195503235 -0.27900001406669617,0.14499999582767487 -0.27900001406669617,0.14499999582767487 C-0.27900001406669617,0.14499999582767487 -0.5440000295639038,-0.12200000137090683 -0.5440000295639038,-0.12200000137090683 C-0.5440000295639038,-0.12200000137090683 -0.1720000058412552,-0.18299999833106995 -0.1720000058412552,-0.18299999833106995 C-0.1720000058412552,-0.18299999833106995 0,-0.5170000195503235 0,-0.5170000195503235z"></path></g><g opacity="1" transform="matrix(1,0,0,1,8.949000358581543,6.831999778747559)"><path fill="rgb(255,255,255)" fill-opacity="1" d=" M0,-0.5170000195503235 C0,-0.5170000195503235 0.1720000058412552,-0.18299999833106995 0.1720000058412552,-0.18299999833106995 C0.1720000058412552,-0.18299999833106995 0.5440000295639038,-0.12200000137090683 0.5440000295639038,-0.12200000137090683 C0.5440000295639038,-0.12200000137090683 0.27900001406669617,0.14499999582767487 0.27900001406669617,0.14499999582767487 C0.27900001406669617,0.14499999582767487 0.335999995470047,0.5170000195503235 0.335999995470047,0.5170000195503235 C0.335999995470047,0.5170000195503235 0,0.3479999899864197 0,0.3479999899864197 C0,0.3479999899864197 -0.335999995470047,0.5170000195503235 -0.335999995470047,0.5170000195503235 C-0.335999995470047,0.5170000195503235 -0.27900001406669617,0.14499999582767487 -0.27900001406669617,0.14499999582767487 C-0.27900001406669617,0.14499999582767487 -0.5440000295639038,-0.12200000137090683 -0.5440000295639038,-0.12200000137090683 C-0.5440000295639038,-0.12200000137090683 -0.1720000058412552,-0.18299999833106995 -0.1720000058412552,-0.18299999833106995 C-0.1720000058412552,-0.18299999833106995 0,-0.5170000195503235 0,-0.5170000195503235z"></path></g><g opacity="1" transform="matrix(1,0,0,1,10.857000350952148,6.831999778747559)"><path fill="rgb(255,255,255)" fill-opacity="1" d=" M0,-0.5170000195503235 C0,-0.5170000195503235 0.1720000058412552,-0.18299999833106995 0.1720000058412552,-0.18299999833106995 C0.1720000058412552,-0.18299999833106995 0.5440000295639038,-0.12200000137090683 0.5440000295639038,-0.12200000137090683 C0.5440000295639038,-0.12200000137090683 0.27900001406669617,0.14499999582767487 0.27900001406669617,0.14499999582767487 C0.27900001406669617,0.14499999582767487 0.335999995470047,0.5170000195503235 0.335999995470047,0.5170000195503235 C0.335999995470047,0.5170000195503235 0,0.3479999899864197 0,0.3479999899864197 C0,0.3479999899864197 -0.335999995470047,0.5170000195503235 -0.335999995470047,0.5170000195503235 C-0.335999995470047,0.5170000195503235 -0.27900001406669617,0.14499999582767487 -0.27900001406669617,0.14499999582767487 C-0.27900001406669617,0.14499999582767487 -0.5440000295639038,-0.12200000137090683 -0.5440000295639038,-0.12200000137090683 C-0.5440000295639038,-0.12200000137090683 -0.1720000058412552,-0.18299999833106995 -0.1720000058412552,-0.18299999833106995 C-0.1720000058412552,-0.18299999833106995 0,-0.5170000195503235 0,-0.5170000195503235z"></path></g><g opacity="1" transform="matrix(1,0,0,1,12.765999794006348,6.831999778747559)"><path fill="rgb(255,255,255)" fill-opacity="1" d=" M0,-0.5170000195503235 C0,-0.5170000195503235 0.1720000058412552,-0.18299999833106995 0.1720000058412552,-0.18299999833106995 C0.1720000058412552,-0.18299999833106995 0.5440000295639038,-0.12200000137090683 0.5440000295639038,-0.12200000137090683 C0.5440000295639038,-0.12200000137090683 0.27900001406669617,0.14499999582767487 0.27900001406669617,0.14499999582767487 C0.27900001406669617,0.14499999582767487 0.335999995470047,0.5170000195503235 0.335999995470047,0.5170000195503235 C0.335999995470047,0.5170000195503235 0,0.3479999899864197 0,0.3479999899864197 C0,0.3479999899864197 -0.335999995470047,0.5170000195503235 -0.335999995470047,0.5170000195503235 C-0.335999995470047,0.5170000195503235 -0.27900001406669617,0.14499999582767487 -0.27900001406669617,0.14499999582767487 C-0.27900001406669617,0.14499999582767487 -0.5440000295639038,-0.12200000137090683 -0.5440000295639038,-0.12200000137090683 C-0.5440000295639038,-0.12200000137090683 -0.1720000058412552,-0.18299999833106995 -0.1720000058412552,-0.18299999833106995 C-0.1720000058412552,-0.18299999833106995 0,-0.5170000195503235 0,-0.5170000195503235z"></path></g><g opacity="1" transform="matrix(1,0,0,1,11.812000274658203,5.567999839782715)"><path fill="rgb(255,255,255)" fill-opacity="1" d=" M0,-0.5170000195503235 C0,-0.5170000195503235 0.1720000058412552,-0.18299999833106995 0.1720000058412552,-0.18299999833106995 C0.1720000058412552,-0.18299999833106995 0.5440000295639038,-0.12200000137090683 0.5440000295639038,-0.12200000137090683 C0.5440000295639038,-0.12200000137090683 0.27900001406669617,0.14499999582767487 0.27900001406669617,0.14499999582767487 C0.27900001406669617,0.14499999582767487 0.335999995470047,0.5170000195503235 0.335999995470047,0.5170000195503235 C0.335999995470047,0.5170000195503235 0,0.3479999899864197 0,0.3479999899864197 C0,0.3479999899864197 -0.335999995470047,0.5170000195503235 -0.335999995470047,0.5170000195503235 C-0.335999995470047,0.5170000195503235 -0.27900001406669617,0.14499999582767487 -0.27900001406669617,0.14499999582767487 C-0.27900001406669617,0.14499999582767487 -0.5440000295639038,-0.12200000137090683 -0.5440000295639038,-0.12200000137090683 C-0.5440000295639038,-0.12200000137090683 -0.1720000058412552,-0.18299999833106995 -0.1720000058412552,-0.18299999833106995 C-0.1720000058412552,-0.18299999833106995 0,-0.5170000195503235 0,-0.5170000195503235z"></path></g><g opacity="1" transform="matrix(1,0,0,1,9.902999877929688,5.567999839782715)"><path fill="rgb(255,255,255)" fill-opacity="1" d=" M0,-0.5170000195503235 C0,-0.5170000195503235 0.1720000058412552,-0.18299999833106995 0.1720000058412552,-0.18299999833106995 C0.1720000058412552,-0.18299999833106995 0.5440000295639038,-0.12200000137090683 0.5440000295639038,-0.12200000137090683 C0.5440000295639038,-0.12200000137090683 0.27900001406669617,0.14499999582767487 0.27900001406669617,0.14499999582767487 C0.27900001406669617,0.14499999582767487 0.335999995470047,0.5170000195503235 0.335999995470047,0.5170000195503235 C0.335999995470047,0.5170000195503235 0,0.3479999899864197 0,0.3479999899864197 C0,0.3479999899864197 -0.335999995470047,0.5170000195503235 -0.335999995470047,0.5170000195503235 C-0.335999995470047,0.5170000195503235 -0.27900001406669617,0.14499999582767487 -0.27900001406669617,0.14499999582767487 C-0.27900001406669617,0.14499999582767487 -0.5440000295639038,-0.12200000137090683 -0.5440000295639038,-0.12200000137090683 C-0.5440000295639038,-0.12200000137090683 -0.1720000058412552,-0.18299999833106995 -0.1720000058412552,-0.18299999833106995 C-0.1720000058412552,-0.18299999833106995 0,-0.5170000195503235 0,-0.5170000195503235z"></path></g></g><g transform="matrix(1.8059998750686646,0,0,1.8059998750686646,-6.077043056488037,-1.306174397468567)" opacity="1" style="display: block;"><g opacity="1" transform="matrix(1,0,0,1,7.875999927520752,51.7599983215332)"><path fill="rgb(235,230,204)" fill-opacity="1" d=" M1.3839999437332153,0.5960000157356262 C1.3839999437332153,0.5960000157356262 -1.3839999437332153,0.5960000157356262 -1.3839999437332153,0.5960000157356262 C-1.3839999437332153,0.5960000157356262 -1.3839999437332153,-0.5960000157356262 -1.3839999437332153,-0.5960000157356262 C-1.3839999437332153,-0.5960000157356262 1.3839999437332153,-0.5960000157356262 1.3839999437332153,-0.5960000157356262 C1.3839999437332153,-0.5960000157356262 1.3839999437332153,0.5960000157356262 1.3839999437332153,0.5960000157356262z"></path></g><g opacity="1" transform="matrix(1,0,0,1,7.875,52.952999114990234)"><path fill="rgb(235,230,204)" fill-opacity="1" d=" M2.578000068664551,0.5960000157356262 C2.578000068664551,0.5960000157356262 -2.578000068664551,0.5960000157356262 -2.578000068664551,0.5960000157356262 C-2.578000068664551,0.5960000157356262 -2.578000068664551,-0.5960000157356262 -2.578000068664551,-0.5960000157356262 C-2.578000068664551,-0.5960000157356262 2.578000068664551,-0.5960000157356262 2.578000068664551,-0.5960000157356262 C2.578000068664551,-0.5960000157356262 2.578000068664551,0.5960000157356262 2.578000068664551,0.5960000157356262z"></path></g><g opacity="1" transform="matrix(1,0,0,1,7.875,54.14799880981445)"><path fill="rgb(235,230,204)" fill-opacity="1" d=" M4.080999851226807,0.5960000157356262 C4.080999851226807,0.5960000157356262 -4.080999851226807,0.5960000157356262 -4.080999851226807,0.5960000157356262 C-4.080999851226807,0.5960000157356262 -4.080999851226807,-0.5960000157356262 -4.080999851226807,-0.5960000157356262 C-4.080999851226807,-0.5960000157356262 4.080999851226807,-0.5960000157356262 4.080999851226807,-0.5960000157356262 C4.080999851226807,-0.5960000157356262 4.080999851226807,0.5960000157356262 4.080999851226807,0.5960000157356262z"></path></g><g opacity="1" transform="matrix(1,0,0,1,0,0)"><path stroke-linecap="butt" stroke-linejoin="miter" fill-opacity="0" stroke-miterlimit="10" stroke="rgb(235,230,204)" stroke-opacity="1" stroke-width="1" d=" M7.867000102996826,52.59400177001953 C7.867000102996826,52.59400177001953 7.867000102996826,2.5 7.867000102996826,2.5"></path></g><g opacity="1" transform="matrix(1,0,0,1,7.869999885559082,2.187999963760376)"><path fill="rgb(235,230,204)" fill-opacity="1" d=" M1.0709999799728394,0 C1.0709999799728394,-0.5910000205039978 0.5910000205039978,-1.0709999799728394 -0.0010000000474974513,-1.0709999799728394 C-0.5920000076293945,-1.0709999799728394 -1.0709999799728394,-0.5910000205039978 -1.0709999799728394,0 C-1.0709999799728394,0.5910000205039978 -0.5920000076293945,1.0709999799728394 -0.0010000000474974513,1.0709999799728394 C0.5910000205039978,1.0709999799728394 1.0709999799728394,0.5910000205039978 1.0709999799728394,0z"></path></g></g></g></svg>