<svg xmlns="http://www.w3.org/2000/svg" viewBox="0 0 26 16" width="26" height="16" preserveAspectRatio="xMidYMid meet" style="width: 100%; height: 100%; transform: translate3d(0px, 0px, 0px); content-visibility: visible;"><defs><clipPath id="__lottie_element_4228"><rect width="26" height="16" x="0" y="0"></rect></clipPath></defs><g clip-path="url(#__lottie_element_4228)"><g transform="matrix(1.8059998750686646,0,0,1.8059998750686646,-63.962432861328125,-25.99886131286621)" opacity="1" style="display: block;"><g opacity="1" transform="matrix(1,0,0,1,38.551998138427734,18.822999954223633)"><path fill="rgb(17,128,195)" fill-opacity="1" d=" M2.921999931335449,-4.193999767303467 C2.921999931335449,-4.193999767303467 -0.41100001335144043,-4.193999767303467 -0.41100001335144043,-4.193999767303467 C-0.41100001335144043,-4.193999767303467 -2.921999931335449,4.193999767303467 -2.921999931335449,4.193999767303467 C-2.921999931335449,4.193999767303467 0.968999981880188,4.193999767303467 0.968999981880188,4.193999767303467 C0.968999981880188,4.193999767303467 2.921999931335449,-4.193999767303467 2.921999931335449,-4.193999767303467z"></path></g><g opacity="1" transform="matrix(1,0,0,1,41.058998107910156,18.822999954223633)"><path fill="rgb(17,128,195)" fill-opacity="1" d=" M-2.9210000038146973,-4.193999767303467 C-2.9210000038146973,-4.193999767303467 0.41100001335144043,-4.193999767303467 0.41100001335144043,-4.193999767303467 C0.41100001335144043,-4.193999767303467 2.9210000038146973,4.193999767303467 2.9210000038146973,4.193999767303467 C2.9210000038146973,4.193999767303467 0.1469999998807907,4.193999767303467 0.1469999998807907,4.193999767303467 C0.1469999998807907,4.193999767303467 -2.9210000038146973,-4.193999767303467 -2.9210000038146973,-4.193999767303467z"></path></g><g opacity="1" transform="matrix(1,0,0,1,44.12799835205078,18.822999954223633)"><path fill="rgb(17,128,195)" fill-opacity="1" d=" M2.921999931335449,-4.193999767303467 C2.921999931335449,-4.193999767303467 -0.41100001335144043,-4.193999767303467 -0.41100001335144043,-4.193999767303467 C-0.41100001335144043,-4.193999767303467 -2.921999931335449,4.193999767303467 -2.921999931335449,4.193999767303467 C-2.921999931335449,4.193999767303467 -0.1469999998807907,4.193999767303467 -0.1469999998807907,4.193999767303467 C-0.1469999998807907,4.193999767303467 2.921999931335449,-4.193999767303467 2.921999931335449,-4.193999767303467z"></path></g><g opacity="1" transform="matrix(1,0,0,1,46.63600158691406,18.822999954223633)"><path fill="rgb(17,128,195)" fill-opacity="1" d=" M-2.9210000038146973,-4.193999767303467 C-2.9210000038146973,-4.193999767303467 0.41100001335144043,-4.193999767303467 0.41100001335144043,-4.193999767303467 C0.41100001335144043,-4.193999767303467 2.9210000038146973,4.193999767303467 2.9210000038146973,4.193999767303467 C2.9210000038146973,4.193999767303467 -0.9700000286102295,4.193999767303467 -0.9700000286102295,4.193999767303467 C-0.9700000286102295,4.193999767303467 -2.9210000038146973,-4.193999767303467 -2.9210000038146973,-4.193999767303467z"></path></g><g opacity="1" transform="matrix(1,0,0,1,42.59400177001953,18.73900032043457)"><path fill="rgb(233,233,210)" fill-opacity="1" d=" M3.3980000019073486,0 C3.3980000019073486,0 1.8769999742507935,-1.9110000133514404 0,-1.9110000133514404 C-1.8760000467300415,-1.9110000133514404 -3.3980000019073486,0 -3.3980000019073486,0 C-3.3980000019073486,0 -1.8760000467300415,1.9110000133514404 0,1.9110000133514404 C1.8769999742507935,1.9110000133514404 3.3980000019073486,0 3.3980000019073486,0z"></path></g><g opacity="1" transform="matrix(0.11858999729156494,0,0,0.11858999729156494,42.60599899291992,18.856000900268555)"><path fill="rgb(77,67,95)" fill-opacity="1" d=" M11,0 C11,0 11,0 11,0 C11,6.070899963378906 6.070899963378906,11 0,11 C0,11 0,11 0,11 C-6.070899963378906,11 -11,6.070899963378906 -11,0 C-11,0 -11,0 -11,0 C-11,-6.070899963378906 -6.070899963378906,-11 0,-11 C0,-11 0,-11 0,-11 C6.070899963378906,-11 11,-6.070899963378906 11,0z"></path></g></g></g></svg>