<svg xmlns="http://www.w3.org/2000/svg" viewBox="0 0 117 100" width="117" height="100" preserveAspectRatio="xMidYMid meet" style="width: 100%; height: 100%; transform: translate3d(0px, 0px, 0px); content-visibility: visible;"><defs><clipPath id="__lottie_element_2356"><rect width="117" height="100" x="0" y="0"></rect></clipPath></defs><g clip-path="url(#__lottie_element_2356)"><g transform="matrix(1.8065251111984253,0,0,1.8065251111984253,0.2038818746805191,13.893523216247559)" opacity="1" style="display: block;"><g opacity="1" transform="matrix(1,0,0,1,32.28099822998047,18.73200035095215)"><path fill="rgb(193,66,60)" fill-opacity="1" d=" M5.688000202178955,-2.1489999294281006 C5.688000202178955,-2.1489999294281006 -0.035999998450279236,-0.4000000059604645 -0.035999998450279236,-0.4000000059604645 C-0.035999998450279236,-0.4000000059604645 -5.760000228881836,-2.1489999294281006 -5.760000228881836,-2.1489999294281006 C-5.760000228881836,-2.1489999294281006 -5.763999938964844,-2.1470000743865967 -5.763999938964844,-2.1470000743865967 C-6.947000026702881,-0.6129999756813049 -8.350000381469727,0.8650000095367432 -10.015000343322754,2.1489999294281006 C-10.015000343322754,2.1489999294281006 0,2.1489999294281006 0,2.1489999294281006 C0,2.1489999294281006 10.015000343322754,2.1489999294281006 10.015000343322754,2.1489999294281006 C8.359999656677246,0.8730000257492065 6.965000152587891,-0.5950000286102295 5.785999774932861,-2.118000030517578 C5.751999855041504,-2.128999948501587 5.7230000495910645,-2.138000011444092 5.688000202178955,-2.1489999294281006z"></path></g><g opacity="1" transform="matrix(1,0,0,1,32.28099822998047,32.803001403808594)"><path fill="rgb(77,67,95)" fill-opacity="1" d=" M16.052000045776367,-7.991000175476074 C16.052000045776367,-7.991000175476074 -16.052000045776367,-7.991000175476074 -16.052000045776367,-7.991000175476074 C-16.052000045776367,-7.991000175476074 -16.052000045776367,7.991000175476074 -16.052000045776367,7.991000175476074 C-16.052000045776367,7.991000175476074 16.052000045776367,7.991000175476074 16.052000045776367,7.991000175476074 C16.052000045776367,7.991000175476074 16.052000045776367,-7.991000175476074 16.052000045776367,-7.991000175476074z"></path></g><g opacity="1" transform="matrix(1,0,0,1,32.28099822998047,23.048999786376953)"><path fill="rgb(217,28,92)" fill-opacity="1" d=" M31.235000610351562,-2.880000114440918 C31.235000610351562,-2.880000114440918 -31.235000610351562,-2.880000114440918 -31.235000610351562,-2.880000114440918 C-31.235000610351562,-2.880000114440918 -28.17300033569336,2.880000114440918 -28.17300033569336,2.880000114440918 C-28.17300033569336,2.880000114440918 28.17300033569336,2.880000114440918 28.17300033569336,2.880000114440918 C28.17300033569336,2.880000114440918 31.235000610351562,-2.880000114440918 31.235000610351562,-2.880000114440918z"></path></g><g opacity="1" transform="matrix(1,0,0,1,32.28099822998047,41.79600143432617)"><path fill="rgb(79,184,79)" fill-opacity="1" d=" M28.464000701904297,-3.239000082015991 C28.464000701904297,-3.239000082015991 -28.46299934387207,-3.239000082015991 -28.46299934387207,-3.239000082015991 C-29.461000442504883,-3.239000082015991 -30.27199935913086,-2.428999900817871 -30.27199935913086,-1.4299999475479126 C-30.27199935913086,-1.4299999475479126 -30.27199935913086,3.239000082015991 -30.27199935913086,3.239000082015991 C-30.27199935913086,3.239000082015991 30.27199935913086,3.239000082015991 30.27199935913086,3.239000082015991 C30.27199935913086,3.239000082015991 30.27199935913086,-1.4299999475479126 30.27199935913086,-1.4299999475479126 C30.27199935913086,-2.428999900817871 29.461999893188477,-3.239000082015991 28.464000701904297,-3.239000082015991z"></path></g><g opacity="1" transform="matrix(1,0,0,1,55.696998596191406,30.90999984741211)"><path fill="rgb(244,134,118)" fill-opacity="1" d=" M0.42399999499320984,10.78499984741211 C0.42399999499320984,10.78499984741211 -0.42399999499320984,10.78499984741211 -0.42399999499320984,10.78499984741211 C-0.42399999499320984,10.78499984741211 -0.42399999499320984,-10.78499984741211 -0.42399999499320984,-10.78499984741211 C-0.42399999499320984,-10.78499984741211 0.42399999499320984,-10.78499984741211 0.42399999499320984,-10.78499984741211 C0.42399999499320984,-10.78499984741211 0.42399999499320984,10.78499984741211 0.42399999499320984,10.78499984741211z"></path></g><g opacity="1" transform="matrix(1,0,0,1,24.530000686645508,30.90999984741211)"><path fill="rgb(244,134,118)" fill-opacity="1" d=" M0.4230000078678131,10.78499984741211 C0.4230000078678131,10.78499984741211 -0.4230000078678131,10.78499984741211 -0.4230000078678131,10.78499984741211 C-0.4230000078678131,10.78499984741211 -0.4230000078678131,-10.78499984741211 -0.4230000078678131,-10.78499984741211 C-0.4230000078678131,-10.78499984741211 0.4230000078678131,-10.78499984741211 0.4230000078678131,-10.78499984741211 C0.4230000078678131,-10.78499984741211 0.4230000078678131,10.78499984741211 0.4230000078678131,10.78499984741211z"></path></g><g opacity="1" transform="matrix(1,0,0,1,8.946000099182129,30.90999984741211)"><path fill="rgb(244,134,118)" fill-opacity="1" d=" M0.4230000078678131,10.78499984741211 C0.4230000078678131,10.78499984741211 -0.4230000078678131,10.78499984741211 -0.4230000078678131,10.78499984741211 C-0.4230000078678131,10.78499984741211 -0.4230000078678131,-10.78499984741211 -0.4230000078678131,-10.78499984741211 C-0.4230000078678131,-10.78499984741211 0.4230000078678131,-10.78499984741211 0.4230000078678131,-10.78499984741211 C0.4230000078678131,-10.78499984741211 0.4230000078678131,10.78499984741211 0.4230000078678131,10.78499984741211z"></path></g><g opacity="1" transform="matrix(1,0,0,1,40.11399841308594,30.90999984741211)"><path fill="rgb(244,134,118)" fill-opacity="1" d=" M0.4230000078678131,10.78499984741211 C0.4230000078678131,10.78499984741211 -0.4230000078678131,10.78499984741211 -0.4230000078678131,10.78499984741211 C-0.4230000078678131,10.78499984741211 -0.4230000078678131,-10.78499984741211 -0.4230000078678131,-10.78499984741211 C-0.4230000078678131,-10.78499984741211 0.4230000078678131,-10.78499984741211 0.4230000078678131,-10.78499984741211 C0.4230000078678131,-10.78499984741211 0.4230000078678131,10.78499984741211 0.4230000078678131,10.78499984741211z"></path></g></g><g transform="matrix(1.8021245002746582,0.12601681053638458,-0.12601681053638458,1.8021245002746582,88.02617645263672,59.50871276855469)" opacity="1" style="display: block;"><g opacity="1" transform="matrix(1,0,0,1,3.5510001182556152,7.348999977111816)"><path fill="rgb(255,201,77)" fill-opacity="1" d=" M-0.34200000762939453,-0.10100000351667404 C-0.34200000762939453,-0.10100000351667404 0.2939999997615814,-1.2369999885559082 1.3009999990463257,-0.8220000267028809 C1.3009999990463257,-0.8220000267028809 1.090999960899353,-0.6000000238418579 1.090999960899353,-0.6000000238418579 C1.034000039100647,-0.621999979019165 0.8700000047683716,-0.5809999704360962 0.4560000002384186,0.0820000022649765 C0.4560000002384186,0.0820000022649765 -0.33799999952316284,1.2369999885559082 -1.3009999990463257,0.734000027179718 C-1.3009999990463257,0.734000027179718 -0.6600000262260437,0.5550000071525574 -0.34200000762939453,-0.10100000351667404z"></path></g><g opacity="1" transform="matrix(1,0,0,1,3.5510001182556152,7.348999977111816)"><path stroke-linecap="butt" stroke-linejoin="miter" fill-opacity="0" stroke-miterlimit="10" stroke="rgb(255,201,77)" stroke-opacity="1" stroke-width="0.9" d=" M-0.34200000762939453,-0.10100000351667404 C-0.34200000762939453,-0.10100000351667404 0.2939999997615814,-1.2369999885559082 1.3009999990463257,-0.8220000267028809 C1.3009999990463257,-0.8220000267028809 1.090999960899353,-0.6000000238418579 1.090999960899353,-0.6000000238418579 C1.034000039100647,-0.621999979019165 0.8700000047683716,-0.5809999704360962 0.4560000002384186,0.0820000022649765 C0.4560000002384186,0.0820000022649765 -0.33799999952316284,1.2369999885559082 -1.3009999990463257,0.734000027179718 C-1.3009999990463257,0.734000027179718 -0.6600000262260437,0.5550000071525574 -0.34200000762939453,-0.10100000351667404z"></path></g><g opacity="1" transform="matrix(1,0,0,1,9.763999938964844,3.9019999504089355)"><path fill="rgb(255,201,77)" fill-opacity="1" d=" M1.534999966621399,-1.2719999551773071 C1.534999966621399,-1.2719999551773071 0.7540000081062317,-1.6519999504089355 -0.013000000268220901,-1.1419999599456787 C-0.40400001406669617,-0.8820000290870667 -1.156000018119812,-0.4090000092983246 -1.534999966621399,1.6419999599456787 C-1.534999966621399,1.6419999599456787 -0.7200000286102295,1.6519999504089355 -0.7200000286102295,1.6519999504089355 C-0.7200000286102295,1.6519999504089355 0.18400000035762787,-0.1809999942779541 0.18400000035762787,-0.1809999942779541 C0.18400000035762787,-0.1809999942779541 1.409999966621399,-1.0529999732971191 1.409999966621399,-1.0529999732971191 C1.409999966621399,-1.0529999732971191 1.534999966621399,-1.2719999551773071 1.534999966621399,-1.2719999551773071z"></path></g><g opacity="1" transform="matrix(1,0,0,1,9.763999938964844,3.9019999504089355)"><path stroke-linecap="butt" stroke-linejoin="miter" fill-opacity="0" stroke-miterlimit="10" stroke="rgb(255,201,77)" stroke-opacity="1" stroke-width="0.9" d=" M1.534999966621399,-1.2719999551773071 C1.534999966621399,-1.2719999551773071 0.7540000081062317,-1.6519999504089355 -0.013000000268220901,-1.1419999599456787 C-0.40400001406669617,-0.8820000290870667 -1.156000018119812,-0.4090000092983246 -1.534999966621399,1.6419999599456787 C-1.534999966621399,1.6419999599456787 -0.7200000286102295,1.6519999504089355 -0.7200000286102295,1.6519999504089355 C-0.7200000286102295,1.6519999504089355 0.18400000035762787,-0.1809999942779541 0.18400000035762787,-0.1809999942779541 C0.18400000035762787,-0.1809999942779541 1.409999966621399,-1.0529999732971191 1.409999966621399,-1.0529999732971191 C1.409999966621399,-1.0529999732971191 1.534999966621399,-1.2719999551773071 1.534999966621399,-1.2719999551773071z"></path></g><g opacity="1" transform="matrix(1,0,0,1,2.447999954223633,11.218999862670898)"><path fill="rgb(252,234,221)" fill-opacity="1" d=" M-0.04600000008940697,-0.40400001406669617 C-0.05400000140070915,-0.40299999713897705 -0.06199999898672104,-0.40299999713897705 -0.06800000369548798,-0.4020000100135803 C-0.11400000005960464,-0.3930000066757202 -0.14800000190734863,-0.35100001096725464 -0.1459999978542328,-0.3009999990463257 C-0.1459999978542328,-0.3009999990463257 -0.11299999803304672,0.34599998593330383 -0.11299999803304672,0.34599998593330383 C-0.11100000143051147,0.3880000114440918 -0.0729999989271164,0.41499999165534973 -0.03500000014901161,0.40799999237060547 C-0.02800000086426735,0.4059999883174896 -0.01899999938905239,0.40299999713897705 -0.012000000104308128,0.39800000190734863 C0.04100000113248825,0.36500000953674316 0.09399999678134918,0.33399999141693115 0.1469999998807907,0.30300000309944153 C0.1469999998807907,0.30300000309944153 0.10300000011920929,-0.41499999165534973 0.10300000011920929,-0.41499999165534973 C0.054999999701976776,-0.40700000524520874 0.006000000052154064,-0.40299999713897705 -0.04600000008940697,-0.40400001406669617z"></path></g><g opacity="1" transform="matrix(1,0,0,1,11.88700008392334,9.597999572753906)"><path fill="rgb(252,234,221)" fill-opacity="1" d=" M-0.06800000369548798,-0.32899999618530273 C-0.0729999989271164,-0.32899999618530273 -0.07800000160932541,-0.328000009059906 -0.08299999684095383,-0.3269999921321869 C-0.13699999451637268,-0.3160000145435333 -0.17499999701976776,-0.2619999945163727 -0.164000004529953,-0.20600000023841858 C-0.164000004529953,-0.20600000023841858 -0.07699999958276749,0.2460000067949295 -0.07699999958276749,0.2460000067949295 C-0.06599999964237213,0.3059999942779541 -0.00800000037997961,0.3400000035762787 0.04600000008940697,0.32899999618530273 C0.05900000035762787,0.3269999921321869 0.07100000232458115,0.32199999690055847 0.0820000022649765,0.3140000104904175 C0.11299999803304672,0.2930000126361847 0.14499999582767487,0.2720000147819519 0.17599999904632568,0.24899999797344208 C0.17599999904632568,0.24899999797344208 0.052000001072883606,-0.3400000035762787 0.052000001072883606,-0.3400000035762787 C0.010999999940395355,-0.33500000834465027 -0.029999999329447746,-0.3319999873638153 -0.06800000369548798,-0.32899999618530273z"></path></g><g opacity="1" transform="matrix(1,0,0,1,7.6570000648498535,6.960999965667725)"><path fill="rgb(255,238,207)" fill-opacity="1" d=" M4.129000186920166,-3.2690000534057617 C4.142000198364258,-3.4790000915527344 4.1479997634887695,-3.736999988555908 3.9749999046325684,-3.8910000324249268 C3.9159998893737793,-3.9860000610351562 3.8980000019073486,-4.119999885559082 3.878999948501587,-4.2270002365112305 C3.865999937057495,-4.298999786376953 3.867000102996826,-4.563000202178955 3.7990000247955322,-4.548999786376953 C3.7839999198913574,-4.546000003814697 3.7639999389648438,-4.5279998779296875 3.740999937057495,-4.493000030517578 C3.674999952316284,-4.389999866485596 3.5199999809265137,-4.111000061035156 3.447999954223633,-4.0960001945495605 C3.444999933242798,-4.09499979019165 3.441999912261963,-4.0960001945495605 3.438999891281128,-4.0960001945495605 C3.305000066757202,-4.119999885559082 3.177000045776367,-4.116000175476074 3.0460000038146973,-4.089000225067139 C3.013000011444092,-4.081999778747559 2.9800000190734863,-4.073999881744385 2.947000026702881,-4.065000057220459 C2.509999990463257,-3.941999912261963 2.0350000858306885,-3.684000015258789 1.7640000581741333,-3.318000078201294 C1.4559999704360962,-2.9030001163482666 1.371999979019165,-2.3970000743865967 1.1629999876022339,-1.9359999895095825 C0.968999981880188,-1.5080000162124634 0.5120000243186951,-1.2920000553131104 0.039000000804662704,-1.1729999780654907 C-0.01899999938905239,-1.159000039100647 -0.07900000363588333,-1.1440000534057617 -0.1379999965429306,-1.1319999694824219 C-0.30399999022483826,-1.0980000495910645 -0.4690000116825104,-1.0750000476837158 -0.6200000047683716,-1.0570000410079956 C-0.652999997138977,-1.0520000457763672 -0.6859999895095825,-1.0490000247955322 -0.7170000076293945,-1.0460000038146973 C-1.0199999809265137,-1.0119999647140503 -1.3270000219345093,-1.0130000114440918 -1.6299999952316284,-0.9819999933242798 C-1.7359999418258667,-0.9700000286102295 -1.840999960899353,-0.9559999704360962 -1.9450000524520874,-0.9350000023841858 C-2.0250000953674316,-0.9179999828338623 -2.1040000915527344,-0.8980000019073486 -2.181999921798706,-0.871999979019165 C-2.8310000896453857,-0.6620000004768372 -3.384000062942505,-0.08799999952316284 -3.436000108718872,0.6069999933242798 C-3.4600000381469727,0.8019999861717224 -3.5169999599456787,1.652999997138977 -3.5139999389648438,1.690000057220459 C-3.489000082015991,1.9709999561309814 -3.7809998989105225,2.1040000915527344 -3.944999933242798,2.2750000953674316 C-4.073999881744385,2.4100000858306885 -4.175000190734863,2.571000099182129 -4.239999771118164,2.744999885559082 C-4.303999900817871,2.9149999618530273 -4.329999923706055,3.0899999141693115 -4.406000137329102,3.25600004196167 C-4.538000106811523,3.546999931335449 -4.769999980926514,3.7769999504089355 -5.073999881744385,3.8389999866485596 C-5.084000110626221,3.8410000801086426 -5.093999862670898,3.8420000076293945 -5.105000019073486,3.8440001010894775 C-5.105000019073486,3.8440001010894775 -5.060999870300293,4.561999797821045 -5.060999870300293,4.561999797821045 C-4.808000087738037,4.416999816894531 -4.553999900817871,4.289999961853027 -4.3480000495910645,4.072000026702881 C-4.203999996185303,3.9200000762939453 -4.081999778747559,3.744999885559082 -3.990999937057495,3.556999921798706 C-3.868000030517578,3.305000066757202 -3.7860000133514404,3.046999931335449 -3.6110000610351562,2.8239998817443848 C-3.433000087738037,2.5959999561309814 -3.2070000171661377,2.4070000648498535 -2.9489998817443848,2.2769999504089355 C-2.7780001163482666,2.184000015258789 -2.5889999866485596,2.122999906539917 -2.427999973297119,2.013000011444092 C-2.188999891281128,1.850000023841858 -2.1010000705718994,1.565000057220459 -1.8799999952316284,1.3869999647140503 C-1.7660000324249268,1.2920000553131104 -1.63100004196167,1.2369999885559082 -1.4900000095367432,1.2079999446868896 C-1.2890000343322754,1.1670000553131104 -1.0729999542236328,1.180999994277954 -0.8740000128746033,1.2200000286102295 C-0.6169999837875366,1.2690000534057617 -0.3709999918937683,1.3539999723434448 -0.11699999868869781,1.4140000343322754 C-0.04500000178813934,1.4299999475479126 0.026000000536441803,1.4450000524520874 0.10100000351667404,1.4570000171661377 C0.257999986410141,1.4800000190734863 0.4189999997615814,1.4919999837875366 0.5820000171661377,1.4900000095367432 C0.7929999828338623,1.4869999885559082 1.00600004196167,1.4630000591278076 1.215999960899353,1.4199999570846558 C1.5579999685287476,1.350000023841858 1.8919999599456787,1.2300000190734863 2.188999891281128,1.0709999799728394 C2.2049999237060547,1.062000036239624 2.2219998836517334,1.055999994277954 2.240999937057495,1.0520000457763672 C2.2750000953674316,1.0449999570846558 2.309000015258789,1.0470000505447388 2.3420000076293945,1.059000015258789 C2.380000114440918,1.0720000267028809 2.4200000762939453,1.0859999656677246 2.430000066757202,1.090000033378601 C2.632999897003174,1.1549999713897705 2.821000099182129,1.1699999570846558 3.009000062942505,1.13100004196167 C3.1110000610351562,1.1100000143051147 3.2119998931884766,1.0740000009536743 3.315999984741211,1.0230000019073486 C3.506999969482422,0.9269999861717224 3.7019999027252197,0.8230000138282776 3.9140000343322754,0.7799999713897705 C3.9140000343322754,0.7799999713897705 3.947000026702881,0.7730000019073486 3.947000026702881,0.7730000019073486 C4.285999774932861,0.7149999737739563 4.485000133514404,0.949999988079071 4.572000026702881,1.2489999532699585 C4.64300012588501,1.4930000305175781 4.771999835968018,2.0209999084472656 4.539000034332275,2.2060000896453857 C4.486999988555908,2.249000072479248 4.421999931335449,2.2720000743865967 4.353000164031982,2.2860000133514404 C4.328999996185303,2.2909998893737793 4.304999828338623,2.2939999103546143 4.281000137329102,2.296999931335449 C4.281000137329102,2.296999931335449 4.40500020980835,2.885999917984009 4.40500020980835,2.885999917984009 C4.631999969482422,2.7239999771118164 4.848999977111816,2.5380001068115234 4.961999893188477,2.2769999504089355 C5.105000019073486,1.9500000476837158 5.026000022888184,1.5640000104904175 4.927000045776367,1.2369999885559082 C4.831999778747559,0.9240000247955322 4.734000205993652,0.5370000004768372 4.473999977111816,0.3179999887943268 C4.261000156402588,0.13699999451637268 3.98799991607666,0.1979999989271164 3.7309999465942383,0.1679999977350235 C3.555999994277954,0.14499999582767487 3.3380000591278076,0.06499999761581421 3.1500000953674316,0.0949999988079071 C3.0980000495910645,0.10300000011920929 3.056999921798706,0.052000001072883606 3.0769999027252197,0.004000000189989805 C3.13700008392334,-0.1459999978542328 3.190000057220459,-0.40400001406669617 3.1410000324249268,-0.8759999871253967 C3.11899995803833,-1.0829999446868896 2.884999990463257,-2.4619998931884766 3.2109999656677246,-2.5280001163482666 C3.2200000286102295,-2.5299999713897705 3.2300000190734863,-2.5309998989105225 3.239000082015991,-2.5309998989105225 C3.374000072479248,-2.5269999504089355 3.3910000324249268,-2.36299991607666 3.4110000133514404,-2.263000011444092 C3.446000099182129,-2.0980000495910645 3.5260000228881836,-1.909999966621399 3.6640000343322754,-1.8070000410079956 C3.736999988555908,-1.7519999742507935 3.8239998817443848,-1.7389999628067017 3.9049999713897705,-1.75600004196167 C4.00600004196167,-1.7769999504089355 4.098999977111816,-1.843999981880188 4.144999980926514,-1.9450000524520874 C4.2820000648498535,-2.243000030517578 4.078999996185303,-2.614000082015991 4.085000038146973,-2.927000045776367 C4.086999893188477,-3.0450000762939453 4.122000217437744,-3.1530001163482666 4.129000186920166,-3.2690000534057617z"></path></g><g opacity="1" transform="matrix(1,0,0,1,7.820000171661377,6.38700008392334)"><path fill="rgb(255,201,77)" fill-opacity="1" d=" M-1.3029999732971191,-0.4779999852180481 C-1.3029999732971191,-0.4779999852180481 -0.8849999904632568,1.2209999561309814 0.20999999344348907,0.8360000252723694 C1.3029999732971191,0.4519999921321869 0.8999999761581421,-1.2209999561309814 0.8999999761581421,-1.2209999561309814 C0.8999999761581421,-1.2209999561309814 0.5569999814033508,-0.8059999942779541 -0.1120000034570694,-0.6380000114440918 C-0.734000027179718,-0.48100000619888306 -1.3029999732971191,-0.4779999852180481 -1.3029999732971191,-0.4779999852180481z"></path></g></g><g transform="matrix(1.8021245002746582,-0.12601681053638458,0.12601681053638458,1.8021245002746582,58.44723129272461,55.796539306640625)" opacity="1" style="display: block;"><g opacity="1" transform="matrix(1,0,0,1,3.5510001182556152,7.348999977111816)"><path fill="rgb(255,201,77)" fill-opacity="1" d=" M-0.34200000762939453,-0.10100000351667404 C-0.34200000762939453,-0.10100000351667404 0.2939999997615814,-1.2369999885559082 1.3009999990463257,-0.8220000267028809 C1.3009999990463257,-0.8220000267028809 1.090999960899353,-0.6000000238418579 1.090999960899353,-0.6000000238418579 C1.034000039100647,-0.621999979019165 0.8700000047683716,-0.5809999704360962 0.4560000002384186,0.0820000022649765 C0.4560000002384186,0.0820000022649765 -0.33799999952316284,1.2369999885559082 -1.3009999990463257,0.734000027179718 C-1.3009999990463257,0.734000027179718 -0.6600000262260437,0.5550000071525574 -0.34200000762939453,-0.10100000351667404z"></path></g><g opacity="1" transform="matrix(1,0,0,1,3.5510001182556152,7.348999977111816)"><path stroke-linecap="butt" stroke-linejoin="miter" fill-opacity="0" stroke-miterlimit="10" stroke="rgb(255,201,77)" stroke-opacity="1" stroke-width="0.9" d=" M-0.34200000762939453,-0.10100000351667404 C-0.34200000762939453,-0.10100000351667404 0.2939999997615814,-1.2369999885559082 1.3009999990463257,-0.8220000267028809 C1.3009999990463257,-0.8220000267028809 1.090999960899353,-0.6000000238418579 1.090999960899353,-0.6000000238418579 C1.034000039100647,-0.621999979019165 0.8700000047683716,-0.5809999704360962 0.4560000002384186,0.0820000022649765 C0.4560000002384186,0.0820000022649765 -0.33799999952316284,1.2369999885559082 -1.3009999990463257,0.734000027179718 C-1.3009999990463257,0.734000027179718 -0.6600000262260437,0.5550000071525574 -0.34200000762939453,-0.10100000351667404z"></path></g><g opacity="1" transform="matrix(1,0,0,1,9.765000343322754,3.9019999504089355)"><path fill="rgb(255,201,77)" fill-opacity="1" d=" M1.534999966621399,-1.2719999551773071 C1.534999966621399,-1.2719999551773071 0.7540000081062317,-1.6519999504089355 -0.013000000268220901,-1.1419999599456787 C-0.40400001406669617,-0.8820000290870667 -1.156000018119812,-0.4090000092983246 -1.534999966621399,1.6419999599456787 C-1.534999966621399,1.6419999599456787 -0.7200000286102295,1.6519999504089355 -0.7200000286102295,1.6519999504089355 C-0.7200000286102295,1.6519999504089355 0.18400000035762787,-0.1809999942779541 0.18400000035762787,-0.1809999942779541 C0.18400000035762787,-0.1809999942779541 1.409999966621399,-1.0529999732971191 1.409999966621399,-1.0529999732971191 C1.409999966621399,-1.0529999732971191 1.534999966621399,-1.2719999551773071 1.534999966621399,-1.2719999551773071z"></path></g><g opacity="1" transform="matrix(1,0,0,1,9.765000343322754,3.9019999504089355)"><path stroke-linecap="butt" stroke-linejoin="miter" fill-opacity="0" stroke-miterlimit="10" stroke="rgb(255,201,77)" stroke-opacity="1" stroke-width="0.9" d=" M1.534999966621399,-1.2719999551773071 C1.534999966621399,-1.2719999551773071 0.7540000081062317,-1.6519999504089355 -0.013000000268220901,-1.1419999599456787 C-0.40400001406669617,-0.8820000290870667 -1.156000018119812,-0.4090000092983246 -1.534999966621399,1.6419999599456787 C-1.534999966621399,1.6419999599456787 -0.7200000286102295,1.6519999504089355 -0.7200000286102295,1.6519999504089355 C-0.7200000286102295,1.6519999504089355 0.18400000035762787,-0.1809999942779541 0.18400000035762787,-0.1809999942779541 C0.18400000035762787,-0.1809999942779541 1.409999966621399,-1.0529999732971191 1.409999966621399,-1.0529999732971191 C1.409999966621399,-1.0529999732971191 1.534999966621399,-1.2719999551773071 1.534999966621399,-1.2719999551773071z"></path></g><g opacity="1" transform="matrix(1,0,0,1,2.447999954223633,11.218999862670898)"><path fill="rgb(252,234,221)" fill-opacity="1" d=" M-0.04600000008940697,-0.40400001406669617 C-0.05400000140070915,-0.40299999713897705 -0.06199999898672104,-0.40299999713897705 -0.06800000369548798,-0.4020000100135803 C-0.11400000005960464,-0.3930000066757202 -0.14800000190734863,-0.35100001096725464 -0.1459999978542328,-0.3009999990463257 C-0.1459999978542328,-0.3009999990463257 -0.11299999803304672,0.34599998593330383 -0.11299999803304672,0.34599998593330383 C-0.11100000143051147,0.3880000114440918 -0.0729999989271164,0.41499999165534973 -0.03500000014901161,0.40799999237060547 C-0.02800000086426735,0.4059999883174896 -0.01899999938905239,0.40299999713897705 -0.012000000104308128,0.39800000190734863 C0.04100000113248825,0.36500000953674316 0.09399999678134918,0.33399999141693115 0.1469999998807907,0.30300000309944153 C0.1469999998807907,0.30300000309944153 0.10300000011920929,-0.41499999165534973 0.10300000011920929,-0.41499999165534973 C0.054999999701976776,-0.40700000524520874 0.006000000052154064,-0.40299999713897705 -0.04600000008940697,-0.40400001406669617z"></path></g><g opacity="1" transform="matrix(1,0,0,1,11.88700008392334,9.597999572753906)"><path fill="rgb(252,234,221)" fill-opacity="1" d=" M-0.06800000369548798,-0.32899999618530273 C-0.0729999989271164,-0.32899999618530273 -0.07800000160932541,-0.328000009059906 -0.08299999684095383,-0.3269999921321869 C-0.13699999451637268,-0.3160000145435333 -0.17499999701976776,-0.2619999945163727 -0.164000004529953,-0.20600000023841858 C-0.164000004529953,-0.20600000023841858 -0.07699999958276749,0.2460000067949295 -0.07699999958276749,0.2460000067949295 C-0.06599999964237213,0.3059999942779541 -0.00800000037997961,0.3400000035762787 0.04600000008940697,0.32899999618530273 C0.05900000035762787,0.3269999921321869 0.07100000232458115,0.32199999690055847 0.0820000022649765,0.3140000104904175 C0.11299999803304672,0.2930000126361847 0.14499999582767487,0.2720000147819519 0.17599999904632568,0.24899999797344208 C0.17599999904632568,0.24899999797344208 0.052000001072883606,-0.3400000035762787 0.052000001072883606,-0.3400000035762787 C0.010999999940395355,-0.33500000834465027 -0.029999999329447746,-0.3319999873638153 -0.06800000369548798,-0.32899999618530273z"></path></g><g opacity="1" transform="matrix(1,0,0,1,7.6570000648498535,6.960999965667725)"><path fill="rgb(255,238,207)" fill-opacity="1" d=" M4.129000186920166,-3.2690000534057617 C4.142000198364258,-3.4790000915527344 4.1479997634887695,-3.736999988555908 3.9749999046325684,-3.8910000324249268 C3.9159998893737793,-3.9860000610351562 3.8989999294281006,-4.119999885559082 3.878999948501587,-4.2270002365112305 C3.865999937057495,-4.298999786376953 3.867000102996826,-4.563000202178955 3.7990000247955322,-4.548999786376953 C3.7839999198913574,-4.546000003814697 3.7639999389648438,-4.5279998779296875 3.740999937057495,-4.493000030517578 C3.674999952316284,-4.389999866485596 3.5199999809265137,-4.111000061035156 3.447999954223633,-4.0960001945495605 C3.444999933242798,-4.09499979019165 3.441999912261963,-4.0960001945495605 3.438999891281128,-4.0960001945495605 C3.305000066757202,-4.119999885559082 3.177000045776367,-4.116000175476074 3.0460000038146973,-4.089000225067139 C3.013000011444092,-4.081999778747559 2.9800000190734863,-4.073999881744385 2.947000026702881,-4.065000057220459 C2.509999990463257,-3.941999912261963 2.0350000858306885,-3.684000015258789 1.7640000581741333,-3.318000078201294 C1.4559999704360962,-2.9030001163482666 1.371999979019165,-2.3970000743865967 1.1629999876022339,-1.9359999895095825 C0.968999981880188,-1.5080000162124634 0.5120000243186951,-1.2920000553131104 0.039000000804662704,-1.1729999780654907 C-0.01899999938905239,-1.159000039100647 -0.07900000363588333,-1.1440000534057617 -0.1379999965429306,-1.1319999694824219 C-0.30399999022483826,-1.0980000495910645 -0.4690000116825104,-1.0750000476837158 -0.6200000047683716,-1.0570000410079956 C-0.652999997138977,-1.0520000457763672 -0.6859999895095825,-1.0490000247955322 -0.7170000076293945,-1.0460000038146973 C-1.0199999809265137,-1.0119999647140503 -1.3270000219345093,-1.0130000114440918 -1.6299999952316284,-0.9819999933242798 C-1.7359999418258667,-0.9700000286102295 -1.840999960899353,-0.9559999704360962 -1.9450000524520874,-0.9350000023841858 C-2.0250000953674316,-0.9179999828338623 -2.1040000915527344,-0.8980000019073486 -2.181999921798706,-0.871999979019165 C-2.8310000896453857,-0.6620000004768372 -3.384000062942505,-0.08799999952316284 -3.436000108718872,0.6069999933242798 C-3.4600000381469727,0.8019999861717224 -3.5169999599456787,1.652999997138977 -3.5139999389648438,1.690000057220459 C-3.489000082015991,1.9709999561309814 -3.7809998989105225,2.1040000915527344 -3.944999933242798,2.2750000953674316 C-4.073999881744385,2.4100000858306885 -4.175000190734863,2.571000099182129 -4.239999771118164,2.744999885559082 C-4.303999900817871,2.9149999618530273 -4.329999923706055,3.0899999141693115 -4.406000137329102,3.25600004196167 C-4.538000106811523,3.546999931335449 -4.769999980926514,3.7769999504089355 -5.073999881744385,3.8389999866485596 C-5.084000110626221,3.8410000801086426 -5.093999862670898,3.8420000076293945 -5.105000019073486,3.8440001010894775 C-5.105000019073486,3.8440001010894775 -5.060999870300293,4.561999797821045 -5.060999870300293,4.561999797821045 C-4.808000087738037,4.416999816894531 -4.553999900817871,4.289999961853027 -4.3480000495910645,4.072000026702881 C-4.203999996185303,3.9200000762939453 -4.081999778747559,3.744999885559082 -3.990999937057495,3.556999921798706 C-3.868000030517578,3.305000066757202 -3.7860000133514404,3.046999931335449 -3.6110000610351562,2.8239998817443848 C-3.433000087738037,2.5959999561309814 -3.2070000171661377,2.4070000648498535 -2.9489998817443848,2.2769999504089355 C-2.7769999504089355,2.184000015258789 -2.5889999866485596,2.122999906539917 -2.427999973297119,2.013000011444092 C-2.188999891281128,1.850000023841858 -2.1010000705718994,1.565000057220459 -1.8799999952316284,1.3869999647140503 C-1.7649999856948853,1.2920000553131104 -1.63100004196167,1.2369999885559082 -1.4900000095367432,1.2079999446868896 C-1.2890000343322754,1.1670000553131104 -1.0729999542236328,1.180999994277954 -0.8740000128746033,1.2200000286102295 C-0.6169999837875366,1.2690000534057617 -0.3709999918937683,1.3539999723434448 -0.11599999666213989,1.4140000343322754 C-0.04500000178813934,1.4299999475479126 0.026000000536441803,1.4450000524520874 0.10100000351667404,1.4570000171661377 C0.257999986410141,1.4800000190734863 0.41999998688697815,1.4919999837875366 0.5820000171661377,1.4900000095367432 C0.7929999828338623,1.4869999885559082 1.0069999694824219,1.4630000591278076 1.215999960899353,1.4199999570846558 C1.5579999685287476,1.350000023841858 1.8919999599456787,1.2300000190734863 2.188999891281128,1.0709999799728394 C2.2049999237060547,1.062000036239624 2.2219998836517334,1.055999994277954 2.240999937057495,1.0520000457763672 C2.2750000953674316,1.0449999570846558 2.309000015258789,1.0470000505447388 2.3420000076293945,1.059000015258789 C2.38100004196167,1.0720000267028809 2.4200000762939453,1.0859999656677246 2.430000066757202,1.090000033378601 C2.632999897003174,1.1549999713897705 2.821000099182129,1.1699999570846558 3.009000062942505,1.13100004196167 C3.1110000610351562,1.1100000143051147 3.2130000591278076,1.0740000009536743 3.315999984741211,1.0230000019073486 C3.506999969482422,0.9269999861717224 3.7019999027252197,0.8230000138282776 3.9140000343322754,0.7799999713897705 C3.9140000343322754,0.7799999713897705 3.947000026702881,0.7730000019073486 3.947000026702881,0.7730000019073486 C4.285999774932861,0.7149999737739563 4.485000133514404,0.949999988079071 4.572000026702881,1.2489999532699585 C4.64300012588501,1.4930000305175781 4.771999835968018,2.0209999084472656 4.539000034332275,2.2060000896453857 C4.486999988555908,2.249000072479248 4.421999931335449,2.2720000743865967 4.353000164031982,2.2860000133514404 C4.328999996185303,2.2909998893737793 4.304999828338623,2.2939999103546143 4.281000137329102,2.296999931335449 C4.281000137329102,2.296999931335449 4.40500020980835,2.885999917984009 4.40500020980835,2.885999917984009 C4.631999969482422,2.7239999771118164 4.848999977111816,2.5380001068115234 4.961999893188477,2.2769999504089355 C5.105000019073486,1.9500000476837158 5.026000022888184,1.5640000104904175 4.927000045776367,1.2369999885559082 C4.831999778747559,0.9240000247955322 4.734000205993652,0.5370000004768372 4.473999977111816,0.3179999887943268 C4.261000156402588,0.13699999451637268 3.98799991607666,0.1979999989271164 3.7309999465942383,0.1679999977350235 C3.555999994277954,0.14499999582767487 3.3380000591278076,0.06499999761581421 3.1500000953674316,0.0949999988079071 C3.0980000495910645,0.10300000011920929 3.056999921798706,0.052000001072883606 3.0769999027252197,0.004000000189989805 C3.13700008392334,-0.1459999978542328 3.190000057220459,-0.40400001406669617 3.1410000324249268,-0.8759999871253967 C3.11899995803833,-1.0829999446868896 2.884999990463257,-2.4619998931884766 3.2119998931884766,-2.5280001163482666 C3.2200000286102295,-2.5299999713897705 3.2309999465942383,-2.5309998989105225 3.240999937057495,-2.5309998989105225 C3.375,-2.5269999504089355 3.3910000324249268,-2.36299991607666 3.4110000133514404,-2.263000011444092 C3.446000099182129,-2.0980000495910645 3.5260000228881836,-1.909999966621399 3.6640000343322754,-1.8070000410079956 C3.736999988555908,-1.7519999742507935 3.8239998817443848,-1.7389999628067017 3.9049999713897705,-1.75600004196167 C4.006999969482422,-1.7769999504089355 4.098999977111816,-1.843999981880188 4.144999980926514,-1.9450000524520874 C4.2820000648498535,-2.243000030517578 4.078999996185303,-2.614000082015991 4.085000038146973,-2.927000045776367 C4.086999893188477,-3.0450000762939453 4.122000217437744,-3.1530001163482666 4.129000186920166,-3.2690000534057617z"></path></g><g opacity="1" transform="matrix(1,0,0,1,7.820000171661377,6.38700008392334)"><path fill="rgb(244,134,118)" fill-opacity="1" d=" M-1.3029999732971191,-0.4779999852180481 C-1.3029999732971191,-0.4779999852180481 -0.8849999904632568,1.2209999561309814 0.20900000631809235,0.8360000252723694 C1.3029999732971191,0.4519999921321869 0.8999999761581421,-1.2209999561309814 0.8999999761581421,-1.2209999561309814 C0.8999999761581421,-1.2209999561309814 0.5569999814033508,-0.8059999942779541 -0.1120000034570694,-0.6380000114440918 C-0.734000027179718,-0.48100000619888306 -1.3029999732971191,-0.4779999852180481 -1.3029999732971191,-0.4779999852180481z"></path></g></g><g transform="matrix(1.8021245002746582,0.12601681053638458,-0.12601681053638458,1.8021245002746582,31.699892044067383,60.02486038208008)" opacity="1" style="display: block;"><g opacity="1" transform="matrix(1,0,0,1,3.5510001182556152,7.348999977111816)"><path fill="rgb(255,201,77)" fill-opacity="1" d=" M-0.34200000762939453,-0.10100000351667404 C-0.34200000762939453,-0.10100000351667404 0.2939999997615814,-1.2369999885559082 1.3009999990463257,-0.8220000267028809 C1.3009999990463257,-0.8220000267028809 1.090999960899353,-0.6000000238418579 1.090999960899353,-0.6000000238418579 C1.034000039100647,-0.621999979019165 0.8700000047683716,-0.5809999704360962 0.4560000002384186,0.0820000022649765 C0.4560000002384186,0.0820000022649765 -0.33799999952316284,1.2369999885559082 -1.3009999990463257,0.734000027179718 C-1.3009999990463257,0.734000027179718 -0.6600000262260437,0.5550000071525574 -0.34200000762939453,-0.10100000351667404z"></path></g><g opacity="1" transform="matrix(1,0,0,1,3.5510001182556152,7.348999977111816)"><path stroke-linecap="butt" stroke-linejoin="miter" fill-opacity="0" stroke-miterlimit="10" stroke="rgb(255,201,77)" stroke-opacity="1" stroke-width="0.9" d=" M-0.34200000762939453,-0.10100000351667404 C-0.34200000762939453,-0.10100000351667404 0.2939999997615814,-1.2369999885559082 1.3009999990463257,-0.8220000267028809 C1.3009999990463257,-0.8220000267028809 1.090999960899353,-0.6000000238418579 1.090999960899353,-0.6000000238418579 C1.034000039100647,-0.621999979019165 0.8700000047683716,-0.5809999704360962 0.4560000002384186,0.0820000022649765 C0.4560000002384186,0.0820000022649765 -0.33799999952316284,1.2369999885559082 -1.3009999990463257,0.734000027179718 C-1.3009999990463257,0.734000027179718 -0.6600000262260437,0.5550000071525574 -0.34200000762939453,-0.10100000351667404z"></path></g><g opacity="1" transform="matrix(1,0,0,1,9.763999938964844,3.9019999504089355)"><path fill="rgb(255,201,77)" fill-opacity="1" d=" M1.534999966621399,-1.2719999551773071 C1.534999966621399,-1.2719999551773071 0.7540000081062317,-1.6519999504089355 -0.013000000268220901,-1.1419999599456787 C-0.40400001406669617,-0.8820000290870667 -1.156000018119812,-0.4090000092983246 -1.534999966621399,1.6419999599456787 C-1.534999966621399,1.6419999599456787 -0.7200000286102295,1.6519999504089355 -0.7200000286102295,1.6519999504089355 C-0.7200000286102295,1.6519999504089355 0.18400000035762787,-0.1809999942779541 0.18400000035762787,-0.1809999942779541 C0.18400000035762787,-0.1809999942779541 1.409999966621399,-1.0529999732971191 1.409999966621399,-1.0529999732971191 C1.409999966621399,-1.0529999732971191 1.534999966621399,-1.2719999551773071 1.534999966621399,-1.2719999551773071z"></path></g><g opacity="1" transform="matrix(1,0,0,1,9.763999938964844,3.9019999504089355)"><path stroke-linecap="butt" stroke-linejoin="miter" fill-opacity="0" stroke-miterlimit="10" stroke="rgb(255,201,77)" stroke-opacity="1" stroke-width="0.9" d=" M1.534999966621399,-1.2719999551773071 C1.534999966621399,-1.2719999551773071 0.7540000081062317,-1.6519999504089355 -0.013000000268220901,-1.1419999599456787 C-0.40400001406669617,-0.8820000290870667 -1.156000018119812,-0.4090000092983246 -1.534999966621399,1.6419999599456787 C-1.534999966621399,1.6419999599456787 -0.7200000286102295,1.6519999504089355 -0.7200000286102295,1.6519999504089355 C-0.7200000286102295,1.6519999504089355 0.18400000035762787,-0.1809999942779541 0.18400000035762787,-0.1809999942779541 C0.18400000035762787,-0.1809999942779541 1.409999966621399,-1.0529999732971191 1.409999966621399,-1.0529999732971191 C1.409999966621399,-1.0529999732971191 1.534999966621399,-1.2719999551773071 1.534999966621399,-1.2719999551773071z"></path></g><g opacity="1" transform="matrix(1,0,0,1,2.447999954223633,11.218999862670898)"><path fill="rgb(252,234,221)" fill-opacity="1" d=" M-0.04600000008940697,-0.40400001406669617 C-0.05400000140070915,-0.40299999713897705 -0.06199999898672104,-0.40299999713897705 -0.06800000369548798,-0.4020000100135803 C-0.11400000005960464,-0.3930000066757202 -0.14800000190734863,-0.35100001096725464 -0.1459999978542328,-0.3009999990463257 C-0.1459999978542328,-0.3009999990463257 -0.11299999803304672,0.34599998593330383 -0.11299999803304672,0.34599998593330383 C-0.11100000143051147,0.3880000114440918 -0.0729999989271164,0.41499999165534973 -0.03500000014901161,0.40799999237060547 C-0.02800000086426735,0.4059999883174896 -0.01899999938905239,0.40299999713897705 -0.012000000104308128,0.39800000190734863 C0.04100000113248825,0.36500000953674316 0.09399999678134918,0.33399999141693115 0.1469999998807907,0.30300000309944153 C0.1469999998807907,0.30300000309944153 0.10300000011920929,-0.41499999165534973 0.10300000011920929,-0.41499999165534973 C0.054999999701976776,-0.40700000524520874 0.006000000052154064,-0.40299999713897705 -0.04600000008940697,-0.40400001406669617z"></path></g><g opacity="1" transform="matrix(1,0,0,1,11.88700008392334,9.597999572753906)"><path fill="rgb(252,234,221)" fill-opacity="1" d=" M-0.06800000369548798,-0.32899999618530273 C-0.0729999989271164,-0.32899999618530273 -0.07800000160932541,-0.328000009059906 -0.08299999684095383,-0.3269999921321869 C-0.13699999451637268,-0.3160000145435333 -0.17499999701976776,-0.2619999945163727 -0.164000004529953,-0.20600000023841858 C-0.164000004529953,-0.20600000023841858 -0.07699999958276749,0.2460000067949295 -0.07699999958276749,0.2460000067949295 C-0.06599999964237213,0.3059999942779541 -0.00800000037997961,0.3400000035762787 0.04600000008940697,0.32899999618530273 C0.05900000035762787,0.3269999921321869 0.07100000232458115,0.32199999690055847 0.0820000022649765,0.3140000104904175 C0.11299999803304672,0.2930000126361847 0.14499999582767487,0.2720000147819519 0.17599999904632568,0.24899999797344208 C0.17599999904632568,0.24899999797344208 0.052000001072883606,-0.3400000035762787 0.052000001072883606,-0.3400000035762787 C0.010999999940395355,-0.33500000834465027 -0.029999999329447746,-0.3319999873638153 -0.06800000369548798,-0.32899999618530273z"></path></g><g opacity="1" transform="matrix(1,0,0,1,7.6579999923706055,6.960999965667725)"><path fill="rgb(255,238,207)" fill-opacity="1" d=" M4.129000186920166,-3.2690000534057617 C4.142000198364258,-3.4790000915527344 4.1479997634887695,-3.736999988555908 3.9749999046325684,-3.8910000324249268 C3.9159998893737793,-3.9860000610351562 3.8989999294281006,-4.119999885559082 3.878999948501587,-4.2270002365112305 C3.865999937057495,-4.298999786376953 3.867000102996826,-4.563000202178955 3.7990000247955322,-4.548999786376953 C3.7839999198913574,-4.546000003814697 3.7639999389648438,-4.5279998779296875 3.740999937057495,-4.493000030517578 C3.674999952316284,-4.389999866485596 3.5199999809265137,-4.111000061035156 3.447999954223633,-4.0960001945495605 C3.444999933242798,-4.09499979019165 3.441999912261963,-4.0960001945495605 3.438999891281128,-4.0960001945495605 C3.305000066757202,-4.119999885559082 3.177000045776367,-4.116000175476074 3.0460000038146973,-4.089000225067139 C3.013000011444092,-4.081999778747559 2.9800000190734863,-4.073999881744385 2.947000026702881,-4.065000057220459 C2.509999990463257,-3.941999912261963 2.0350000858306885,-3.684000015258789 1.7640000581741333,-3.318000078201294 C1.4559999704360962,-2.9030001163482666 1.371999979019165,-2.3970000743865967 1.1629999876022339,-1.9359999895095825 C0.968999981880188,-1.5080000162124634 0.5120000243186951,-1.2920000553131104 0.039000000804662704,-1.1729999780654907 C-0.01899999938905239,-1.159000039100647 -0.07900000363588333,-1.1440000534057617 -0.1379999965429306,-1.1319999694824219 C-0.30399999022483826,-1.0980000495910645 -0.4690000116825104,-1.0750000476837158 -0.6200000047683716,-1.0570000410079956 C-0.652999997138977,-1.0520000457763672 -0.6859999895095825,-1.0490000247955322 -0.7170000076293945,-1.0460000038146973 C-1.0199999809265137,-1.0119999647140503 -1.3270000219345093,-1.0130000114440918 -1.6299999952316284,-0.9819999933242798 C-1.7359999418258667,-0.9700000286102295 -1.840999960899353,-0.9559999704360962 -1.9450000524520874,-0.9350000023841858 C-2.0250000953674316,-0.9179999828338623 -2.1040000915527344,-0.8980000019073486 -2.181999921798706,-0.871999979019165 C-2.8310000896453857,-0.6620000004768372 -3.384000062942505,-0.08799999952316284 -3.436000108718872,0.6069999933242798 C-3.4600000381469727,0.8019999861717224 -3.5169999599456787,1.652999997138977 -3.5139999389648438,1.690000057220459 C-3.489000082015991,1.9709999561309814 -3.7809998989105225,2.1040000915527344 -3.944999933242798,2.2750000953674316 C-4.073999881744385,2.4100000858306885 -4.175000190734863,2.571000099182129 -4.239999771118164,2.744999885559082 C-4.303999900817871,2.9149999618530273 -4.329999923706055,3.0899999141693115 -4.406000137329102,3.25600004196167 C-4.538000106811523,3.546999931335449 -4.769999980926514,3.7769999504089355 -5.073999881744385,3.8389999866485596 C-5.084000110626221,3.8410000801086426 -5.093999862670898,3.8420000076293945 -5.105000019073486,3.8440001010894775 C-5.105000019073486,3.8440001010894775 -5.060999870300293,4.561999797821045 -5.060999870300293,4.561999797821045 C-4.808000087738037,4.416999816894531 -4.553999900817871,4.289999961853027 -4.3480000495910645,4.072000026702881 C-4.203999996185303,3.9200000762939453 -4.081999778747559,3.744999885559082 -3.990999937057495,3.556999921798706 C-3.868000030517578,3.305000066757202 -3.7860000133514404,3.046999931335449 -3.6110000610351562,2.8239998817443848 C-3.433000087738037,2.5959999561309814 -3.2070000171661377,2.4070000648498535 -2.9489998817443848,2.2769999504089355 C-2.7780001163482666,2.184000015258789 -2.5889999866485596,2.122999906539917 -2.427999973297119,2.013000011444092 C-2.188999891281128,1.850000023841858 -2.1010000705718994,1.565000057220459 -1.8799999952316284,1.3869999647140503 C-1.7660000324249268,1.2920000553131104 -1.63100004196167,1.2369999885559082 -1.4900000095367432,1.2079999446868896 C-1.2890000343322754,1.1670000553131104 -1.0729999542236328,1.180999994277954 -0.8740000128746033,1.2200000286102295 C-0.6169999837875366,1.2690000534057617 -0.3709999918937683,1.3539999723434448 -0.11699999868869781,1.4140000343322754 C-0.04500000178813934,1.4299999475479126 0.026000000536441803,1.4450000524520874 0.10100000351667404,1.4570000171661377 C0.257999986410141,1.4800000190734863 0.4189999997615814,1.4919999837875366 0.5820000171661377,1.4900000095367432 C0.7929999828338623,1.4869999885559082 1.0069999694824219,1.4630000591278076 1.215999960899353,1.4199999570846558 C1.5579999685287476,1.350000023841858 1.8919999599456787,1.2300000190734863 2.188999891281128,1.0709999799728394 C2.2049999237060547,1.062000036239624 2.2219998836517334,1.055999994277954 2.240999937057495,1.0520000457763672 C2.2750000953674316,1.0449999570846558 2.309000015258789,1.0470000505447388 2.3420000076293945,1.059000015258789 C2.380000114440918,1.0720000267028809 2.4200000762939453,1.0859999656677246 2.430000066757202,1.090000033378601 C2.632999897003174,1.1549999713897705 2.821000099182129,1.1699999570846558 3.009000062942505,1.13100004196167 C3.1110000610351562,1.1100000143051147 3.2130000591278076,1.0740000009536743 3.315999984741211,1.0230000019073486 C3.506999969482422,0.9269999861717224 3.7019999027252197,0.8230000138282776 3.9140000343322754,0.7799999713897705 C3.9140000343322754,0.7799999713897705 3.947000026702881,0.7730000019073486 3.947000026702881,0.7730000019073486 C4.285999774932861,0.7149999737739563 4.485000133514404,0.949999988079071 4.572000026702881,1.2489999532699585 C4.64300012588501,1.4930000305175781 4.771999835968018,2.0209999084472656 4.539000034332275,2.2060000896453857 C4.486999988555908,2.249000072479248 4.421999931335449,2.2720000743865967 4.353000164031982,2.2860000133514404 C4.328999996185303,2.2909998893737793 4.304999828338623,2.2939999103546143 4.281000137329102,2.296999931335449 C4.281000137329102,2.296999931335449 4.40500020980835,2.885999917984009 4.40500020980835,2.885999917984009 C4.631999969482422,2.7239999771118164 4.848999977111816,2.5380001068115234 4.961999893188477,2.2769999504089355 C5.105000019073486,1.9500000476837158 5.026000022888184,1.5640000104904175 4.927000045776367,1.2369999885559082 C4.831999778747559,0.9240000247955322 4.734000205993652,0.5370000004768372 4.473999977111816,0.3179999887943268 C4.261000156402588,0.13699999451637268 3.98799991607666,0.1979999989271164 3.7309999465942383,0.1679999977350235 C3.555999994277954,0.14499999582767487 3.3380000591278076,0.06499999761581421 3.1500000953674316,0.0949999988079071 C3.0980000495910645,0.10300000011920929 3.056999921798706,0.052000001072883606 3.0769999027252197,0.004000000189989805 C3.13700008392334,-0.1459999978542328 3.190000057220459,-0.40400001406669617 3.1410000324249268,-0.8759999871253967 C3.11899995803833,-1.0829999446868896 2.884999990463257,-2.4619998931884766 3.2109999656677246,-2.5280001163482666 C3.2200000286102295,-2.5299999713897705 3.2300000190734863,-2.5309998989105225 3.239000082015991,-2.5309998989105225 C3.374000072479248,-2.5269999504089355 3.3910000324249268,-2.36299991607666 3.4110000133514404,-2.263000011444092 C3.446000099182129,-2.0980000495910645 3.5260000228881836,-1.909999966621399 3.6640000343322754,-1.8070000410079956 C3.736999988555908,-1.7519999742507935 3.8239998817443848,-1.7389999628067017 3.9049999713897705,-1.75600004196167 C4.006999969482422,-1.7769999504089355 4.098999977111816,-1.843999981880188 4.144999980926514,-1.9450000524520874 C4.2820000648498535,-2.243000030517578 4.078999996185303,-2.614000082015991 4.085000038146973,-2.927000045776367 C4.086999893188477,-3.0450000762939453 4.122000217437744,-3.1530001163482666 4.129000186920166,-3.2690000534057617z"></path></g><g opacity="1" transform="matrix(1,0,0,1,7.820000171661377,6.38700008392334)"><path fill="rgb(17,128,195)" fill-opacity="1" d=" M-1.3029999732971191,-0.4779999852180481 C-1.3029999732971191,-0.4779999852180481 -0.8849999904632568,1.2209999561309814 0.20999999344348907,0.8360000252723694 C1.3029999732971191,0.4519999921321869 0.8999999761581421,-1.2209999561309814 0.8999999761581421,-1.2209999561309814 C0.8999999761581421,-1.2209999561309814 0.5569999814033508,-0.8059999942779541 -0.1120000034570694,-0.6380000114440918 C-0.734000027179718,-0.48100000619888306 -1.3029999732971191,-0.4779999852180481 -1.3029999732971191,-0.4779999852180481z"></path></g></g><g transform="matrix(1.8021245002746582,-0.12601681053638458,0.12601681053638458,1.8021245002746582,2.0701372623443604,55.02219009399414)" opacity="1" style="display: block;"><g opacity="1" transform="matrix(1,0,0,1,3.5510001182556152,7.348999977111816)"><path fill="rgb(255,201,77)" fill-opacity="1" d=" M-0.34200000762939453,-0.10100000351667404 C-0.34200000762939453,-0.10100000351667404 0.2939999997615814,-1.2369999885559082 1.3009999990463257,-0.8220000267028809 C1.3009999990463257,-0.8220000267028809 1.090999960899353,-0.6000000238418579 1.090999960899353,-0.6000000238418579 C1.034000039100647,-0.621999979019165 0.8700000047683716,-0.5809999704360962 0.4560000002384186,0.0820000022649765 C0.4560000002384186,0.0820000022649765 -0.33799999952316284,1.2369999885559082 -1.3009999990463257,0.734000027179718 C-1.3009999990463257,0.734000027179718 -0.6600000262260437,0.5550000071525574 -0.34200000762939453,-0.10100000351667404z"></path></g><g opacity="1" transform="matrix(1,0,0,1,3.5510001182556152,7.348999977111816)"><path stroke-linecap="butt" stroke-linejoin="miter" fill-opacity="0" stroke-miterlimit="10" stroke="rgb(255,201,77)" stroke-opacity="1" stroke-width="0.9" d=" M-0.34200000762939453,-0.10100000351667404 C-0.34200000762939453,-0.10100000351667404 0.2939999997615814,-1.2369999885559082 1.3009999990463257,-0.8220000267028809 C1.3009999990463257,-0.8220000267028809 1.090999960899353,-0.6000000238418579 1.090999960899353,-0.6000000238418579 C1.034000039100647,-0.621999979019165 0.8700000047683716,-0.5809999704360962 0.4560000002384186,0.0820000022649765 C0.4560000002384186,0.0820000022649765 -0.33799999952316284,1.2369999885559082 -1.3009999990463257,0.734000027179718 C-1.3009999990463257,0.734000027179718 -0.6600000262260437,0.5550000071525574 -0.34200000762939453,-0.10100000351667404z"></path></g><g opacity="1" transform="matrix(1,0,0,1,9.763999938964844,3.9019999504089355)"><path fill="rgb(255,201,77)" fill-opacity="1" d=" M1.534999966621399,-1.2719999551773071 C1.534999966621399,-1.2719999551773071 0.7540000081062317,-1.6519999504089355 -0.013000000268220901,-1.1419999599456787 C-0.40400001406669617,-0.8820000290870667 -1.156000018119812,-0.4090000092983246 -1.534999966621399,1.6419999599456787 C-1.534999966621399,1.6419999599456787 -0.7200000286102295,1.6519999504089355 -0.7200000286102295,1.6519999504089355 C-0.7200000286102295,1.6519999504089355 0.18400000035762787,-0.1809999942779541 0.18400000035762787,-0.1809999942779541 C0.18400000035762787,-0.1809999942779541 1.409999966621399,-1.0529999732971191 1.409999966621399,-1.0529999732971191 C1.409999966621399,-1.0529999732971191 1.534999966621399,-1.2719999551773071 1.534999966621399,-1.2719999551773071z"></path></g><g opacity="1" transform="matrix(1,0,0,1,9.763999938964844,3.9019999504089355)"><path stroke-linecap="butt" stroke-linejoin="miter" fill-opacity="0" stroke-miterlimit="10" stroke="rgb(255,201,77)" stroke-opacity="1" stroke-width="0.9" d=" M1.534999966621399,-1.2719999551773071 C1.534999966621399,-1.2719999551773071 0.7540000081062317,-1.6519999504089355 -0.013000000268220901,-1.1419999599456787 C-0.40400001406669617,-0.8820000290870667 -1.156000018119812,-0.4090000092983246 -1.534999966621399,1.6419999599456787 C-1.534999966621399,1.6419999599456787 -0.7200000286102295,1.6519999504089355 -0.7200000286102295,1.6519999504089355 C-0.7200000286102295,1.6519999504089355 0.18400000035762787,-0.1809999942779541 0.18400000035762787,-0.1809999942779541 C0.18400000035762787,-0.1809999942779541 1.409999966621399,-1.0529999732971191 1.409999966621399,-1.0529999732971191 C1.409999966621399,-1.0529999732971191 1.534999966621399,-1.2719999551773071 1.534999966621399,-1.2719999551773071z"></path></g><g opacity="1" transform="matrix(1,0,0,1,2.447999954223633,11.218999862670898)"><path fill="rgb(252,234,221)" fill-opacity="1" d=" M-0.04600000008940697,-0.40400001406669617 C-0.05400000140070915,-0.40299999713897705 -0.06199999898672104,-0.40299999713897705 -0.06800000369548798,-0.4020000100135803 C-0.11400000005960464,-0.3930000066757202 -0.14800000190734863,-0.35100001096725464 -0.1459999978542328,-0.3009999990463257 C-0.1459999978542328,-0.3009999990463257 -0.11299999803304672,0.34599998593330383 -0.11299999803304672,0.34599998593330383 C-0.11100000143051147,0.3880000114440918 -0.0729999989271164,0.41499999165534973 -0.03500000014901161,0.40799999237060547 C-0.02800000086426735,0.4059999883174896 -0.01899999938905239,0.40299999713897705 -0.012000000104308128,0.39800000190734863 C0.04100000113248825,0.36500000953674316 0.09399999678134918,0.33399999141693115 0.1469999998807907,0.30300000309944153 C0.1469999998807907,0.30300000309944153 0.10300000011920929,-0.41499999165534973 0.10300000011920929,-0.41499999165534973 C0.054999999701976776,-0.40700000524520874 0.006000000052154064,-0.40299999713897705 -0.04600000008940697,-0.40400001406669617z"></path></g><g opacity="1" transform="matrix(1,0,0,1,11.88700008392334,9.597999572753906)"><path fill="rgb(252,234,221)" fill-opacity="1" d=" M-0.06800000369548798,-0.32899999618530273 C-0.06800000369548798,-0.32899999618530273 -0.07800000160932541,-0.328000009059906 -0.08299999684095383,-0.3269999921321869 C-0.13699999451637268,-0.3160000145435333 -0.17499999701976776,-0.2619999945163727 -0.164000004529953,-0.20600000023841858 C-0.164000004529953,-0.20600000023841858 -0.07699999958276749,0.2460000067949295 -0.07699999958276749,0.2460000067949295 C-0.06599999964237213,0.3059999942779541 -0.00800000037997961,0.3400000035762787 0.04600000008940697,0.32899999618530273 C0.05900000035762787,0.3269999921321869 0.07100000232458115,0.32199999690055847 0.0820000022649765,0.3140000104904175 C0.11299999803304672,0.2930000126361847 0.14499999582767487,0.2720000147819519 0.17599999904632568,0.24899999797344208 C0.17599999904632568,0.24899999797344208 0.052000001072883606,-0.3400000035762787 0.052000001072883606,-0.3400000035762787 C0.010999999940395355,-0.33500000834465027 -0.029999999329447746,-0.3319999873638153 -0.06800000369548798,-0.32899999618530273z"></path></g><g opacity="1" transform="matrix(1,0,0,1,7.6570000648498535,6.960999965667725)"><path fill="rgb(255,238,207)" fill-opacity="1" d=" M4.129000186920166,-3.2690000534057617 C4.142000198364258,-3.4790000915527344 4.1479997634887695,-3.736999988555908 3.9749999046325684,-3.8910000324249268 C3.9159998893737793,-3.9860000610351562 3.8980000019073486,-4.119999885559082 3.878999948501587,-4.2270002365112305 C3.865999937057495,-4.298999786376953 3.867000102996826,-4.563000202178955 3.7990000247955322,-4.548999786376953 C3.7839999198913574,-4.546000003814697 3.7639999389648438,-4.5279998779296875 3.740999937057495,-4.493000030517578 C3.674999952316284,-4.389999866485596 3.5199999809265137,-4.111000061035156 3.447999954223633,-4.0960001945495605 C3.444999933242798,-4.09499979019165 3.441999912261963,-4.0960001945495605 3.438999891281128,-4.0960001945495605 C3.305000066757202,-4.119999885559082 3.177000045776367,-4.116000175476074 3.0460000038146973,-4.089000225067139 C3.013000011444092,-4.081999778747559 2.9800000190734863,-4.073999881744385 2.947000026702881,-4.065000057220459 C2.509999990463257,-3.941999912261963 2.0350000858306885,-3.684000015258789 1.7640000581741333,-3.318000078201294 C1.4559999704360962,-2.9030001163482666 1.371999979019165,-2.3970000743865967 1.1629999876022339,-1.9359999895095825 C0.968999981880188,-1.5080000162124634 0.5120000243186951,-1.2920000553131104 0.039000000804662704,-1.1729999780654907 C-0.01899999938905239,-1.159000039100647 -0.07900000363588333,-1.1440000534057617 -0.1379999965429306,-1.1319999694824219 C-0.30399999022483826,-1.0980000495910645 -0.4690000116825104,-1.0750000476837158 -0.6200000047683716,-1.0570000410079956 C-0.652999997138977,-1.0520000457763672 -0.6859999895095825,-1.0490000247955322 -0.7170000076293945,-1.0460000038146973 C-1.0199999809265137,-1.0119999647140503 -1.3270000219345093,-1.0130000114440918 -1.6299999952316284,-0.9819999933242798 C-1.7359999418258667,-0.9700000286102295 -1.840999960899353,-0.9559999704360962 -1.9450000524520874,-0.9350000023841858 C-2.0250000953674316,-0.9179999828338623 -2.1040000915527344,-0.8980000019073486 -2.181999921798706,-0.871999979019165 C-2.8310000896453857,-0.6620000004768372 -3.384000062942505,-0.08799999952316284 -3.436000108718872,0.6069999933242798 C-3.4600000381469727,0.8019999861717224 -3.5169999599456787,1.652999997138977 -3.5139999389648438,1.690000057220459 C-3.489000082015991,1.9709999561309814 -3.7809998989105225,2.1040000915527344 -3.944999933242798,2.2750000953674316 C-4.073999881744385,2.4100000858306885 -4.175000190734863,2.571000099182129 -4.239999771118164,2.744999885559082 C-4.303999900817871,2.9149999618530273 -4.329999923706055,3.0899999141693115 -4.406000137329102,3.25600004196167 C-4.538000106811523,3.546999931335449 -4.769999980926514,3.7769999504089355 -5.073999881744385,3.8389999866485596 C-5.084000110626221,3.8410000801086426 -5.093999862670898,3.8420000076293945 -5.105000019073486,3.8440001010894775 C-5.105000019073486,3.8440001010894775 -5.060999870300293,4.561999797821045 -5.060999870300293,4.561999797821045 C-4.808000087738037,4.416999816894531 -4.553999900817871,4.289999961853027 -4.3480000495910645,4.072000026702881 C-4.203999996185303,3.9200000762939453 -4.081999778747559,3.744999885559082 -3.990999937057495,3.556999921798706 C-3.868000030517578,3.305000066757202 -3.7860000133514404,3.046999931335449 -3.6110000610351562,2.8239998817443848 C-3.433000087738037,2.5959999561309814 -3.2070000171661377,2.4070000648498535 -2.9489998817443848,2.2769999504089355 C-2.7780001163482666,2.184000015258789 -2.5889999866485596,2.122999906539917 -2.427999973297119,2.013000011444092 C-2.188999891281128,1.850000023841858 -2.1010000705718994,1.565000057220459 -1.8799999952316284,1.3869999647140503 C-1.7660000324249268,1.2920000553131104 -1.63100004196167,1.2369999885559082 -1.4900000095367432,1.2079999446868896 C-1.2890000343322754,1.1670000553131104 -1.0729999542236328,1.180999994277954 -0.8740000128746033,1.2200000286102295 C-0.6169999837875366,1.2690000534057617 -0.3709999918937683,1.3539999723434448 -0.11699999868869781,1.4140000343322754 C-0.04500000178813934,1.4299999475479126 0.026000000536441803,1.4450000524520874 0.10100000351667404,1.4570000171661377 C0.257999986410141,1.4800000190734863 0.4189999997615814,1.4919999837875366 0.5820000171661377,1.4900000095367432 C0.7929999828338623,1.4869999885559082 1.0069999694824219,1.4630000591278076 1.215999960899353,1.4199999570846558 C1.5579999685287476,1.350000023841858 1.8919999599456787,1.2300000190734863 2.188999891281128,1.0709999799728394 C2.2049999237060547,1.062000036239624 2.2219998836517334,1.055999994277954 2.240999937057495,1.0520000457763672 C2.2750000953674316,1.0449999570846558 2.309000015258789,1.0470000505447388 2.3420000076293945,1.059000015258789 C2.380000114440918,1.0720000267028809 2.4200000762939453,1.0859999656677246 2.430000066757202,1.090000033378601 C2.632999897003174,1.1549999713897705 2.821000099182129,1.1699999570846558 3.009000062942505,1.13100004196167 C3.1110000610351562,1.1100000143051147 3.2130000591278076,1.0740000009536743 3.315999984741211,1.0230000019073486 C3.506999969482422,0.9269999861717224 3.7019999027252197,0.8230000138282776 3.9140000343322754,0.7799999713897705 C3.9140000343322754,0.7799999713897705 3.947000026702881,0.7730000019073486 3.947000026702881,0.7730000019073486 C4.285999774932861,0.7149999737739563 4.485000133514404,0.949999988079071 4.572000026702881,1.2489999532699585 C4.64300012588501,1.4930000305175781 4.771999835968018,2.0209999084472656 4.539000034332275,2.2060000896453857 C4.486999988555908,2.249000072479248 4.421999931335449,2.2720000743865967 4.353000164031982,2.2860000133514404 C4.328999996185303,2.2909998893737793 4.304999828338623,2.2939999103546143 4.281000137329102,2.296999931335449 C4.281000137329102,2.296999931335449 4.40500020980835,2.885999917984009 4.40500020980835,2.885999917984009 C4.631999969482422,2.7239999771118164 4.848999977111816,2.5380001068115234 4.961999893188477,2.2769999504089355 C5.105000019073486,1.9500000476837158 5.026000022888184,1.5640000104904175 4.927000045776367,1.2369999885559082 C4.831999778747559,0.9240000247955322 4.734000205993652,0.5370000004768372 4.473999977111816,0.3179999887943268 C4.261000156402588,0.13699999451637268 3.98799991607666,0.1979999989271164 3.7309999465942383,0.1679999977350235 C3.555999994277954,0.14499999582767487 3.3380000591278076,0.06499999761581421 3.1500000953674316,0.0949999988079071 C3.0980000495910645,0.10300000011920929 3.056999921798706,0.052000001072883606 3.0769999027252197,0.004000000189989805 C3.13700008392334,-0.1459999978542328 3.190000057220459,-0.40400001406669617 3.1410000324249268,-0.8759999871253967 C3.11899995803833,-1.0829999446868896 2.884999990463257,-2.4619998931884766 3.2109999656677246,-2.5280001163482666 C3.2200000286102295,-2.5299999713897705 3.2300000190734863,-2.5309998989105225 3.239000082015991,-2.5309998989105225 C3.374000072479248,-2.5269999504089355 3.3910000324249268,-2.36299991607666 3.4110000133514404,-2.263000011444092 C3.446000099182129,-2.0980000495910645 3.5260000228881836,-1.909999966621399 3.6640000343322754,-1.8070000410079956 C3.736999988555908,-1.7519999742507935 3.8239998817443848,-1.7389999628067017 3.9049999713897705,-1.75600004196167 C4.00600004196167,-1.7769999504089355 4.098999977111816,-1.843999981880188 4.144999980926514,-1.9450000524520874 C4.2820000648498535,-2.243000030517578 4.078999996185303,-2.614000082015991 4.085000038146973,-2.927000045776367 C4.086999893188477,-3.0450000762939453 4.122000217437744,-3.1530001163482666 4.129000186920166,-3.2690000534057617z"></path></g><g opacity="1" transform="matrix(1,0,0,1,7.820000171661377,6.38700008392334)"><path fill="rgb(244,134,118)" fill-opacity="1" d=" M-1.3029999732971191,-0.4779999852180481 C-1.3029999732971191,-0.4779999852180481 -0.8849999904632568,1.2209999561309814 0.20999999344348907,0.8360000252723694 C1.3029999732971191,0.4519999921321869 0.8999999761581421,-1.2209999561309814 0.8999999761581421,-1.2209999561309814 C0.8999999761581421,-1.2209999561309814 0.5569999814033508,-0.8059999942779541 -0.1120000034570694,-0.6380000114440918 C-0.734000027179718,-0.48100000619888306 -1.3029999732971191,-0.4779999852180481 -1.3029999732971191,-0.4779999852180481z"></path></g></g><g transform="matrix(1.8065251111984253,0,0,1.8065251111984253,0.2038818746805191,47.54824447631836)" opacity="1" style="display: block;"><g opacity="1" transform="matrix(1,0,0,1,20.128999710083008,11.529999732971191)"><path fill="rgb(255,202,77)" fill-opacity="1" d=" M0.6460000276565552,9.654000282287598 C0.6460000276565552,9.654000282287598 -0.6460000276565552,9.654000282287598 -0.6460000276565552,9.654000282287598 C-0.6460000276565552,9.654000282287598 -0.6460000276565552,-9.654000282287598 -0.6460000276565552,-9.654000282287598 C-0.6460000276565552,-9.654000282287598 0.6460000276565552,-9.654000282287598 0.6460000276565552,-9.654000282287598 C0.6460000276565552,-9.654000282287598 0.6460000276565552,9.654000282287598 0.6460000276565552,9.654000282287598z"></path></g><g opacity="1" transform="matrix(1,0,0,1,4.291999816894531,11.529999732971191)"><path fill="rgb(255,202,77)" fill-opacity="1" d=" M0.6460000276565552,9.654000282287598 C0.6460000276565552,9.654000282287598 -0.6460000276565552,9.654000282287598 -0.6460000276565552,9.654000282287598 C-0.6460000276565552,9.654000282287598 -0.6460000276565552,-9.654000282287598 -0.6460000276565552,-9.654000282287598 C-0.6460000276565552,-9.654000282287598 0.6460000276565552,-9.654000282287598 0.6460000276565552,-9.654000282287598 C0.6460000276565552,-9.654000282287598 0.6460000276565552,9.654000282287598 0.6460000276565552,9.654000282287598z"></path></g><g opacity="1" transform="matrix(1,0,0,1,60.26900100708008,11.529999732971191)"><path fill="rgb(255,202,77)" fill-opacity="1" d=" M-0.6460000276565552,9.654000282287598 C-0.6460000276565552,9.654000282287598 0.6460000276565552,9.654000282287598 0.6460000276565552,9.654000282287598 C0.6460000276565552,9.654000282287598 0.6460000276565552,-9.654000282287598 0.6460000276565552,-9.654000282287598 C0.6460000276565552,-9.654000282287598 -0.6460000276565552,-9.654000282287598 -0.6460000276565552,-9.654000282287598 C-0.6460000276565552,-9.654000282287598 -0.6460000276565552,9.654000282287598 -0.6460000276565552,9.654000282287598z"></path></g><g opacity="1" transform="matrix(1,0,0,1,44.43199920654297,11.529999732971191)"><path fill="rgb(255,202,77)" fill-opacity="1" d=" M-0.6460000276565552,9.654000282287598 C-0.6460000276565552,9.654000282287598 0.6460000276565552,9.654000282287598 0.6460000276565552,9.654000282287598 C0.6460000276565552,9.654000282287598 0.6460000276565552,-9.654000282287598 0.6460000276565552,-9.654000282287598 C0.6460000276565552,-9.654000282287598 -0.6460000276565552,-9.654000282287598 -0.6460000276565552,-9.654000282287598 C-0.6460000276565552,-9.654000282287598 -0.6460000276565552,9.654000282287598 -0.6460000276565552,9.654000282287598z"></path></g><g opacity="1" transform="matrix(1,0,0,1,4.293000221252441,21.18400001525879)"><path fill="rgb(255,202,77)" fill-opacity="1" d=" M1.1260000467300415,-2.0920000076293945 C1.1260000467300415,-2.0920000076293945 -1.1260000467300415,-2.0920000076293945 -1.1260000467300415,-2.0920000076293945 C-1.1260000467300415,-2.0920000076293945 -1.1260000467300415,2.0920000076293945 -1.1260000467300415,2.0920000076293945 C-1.1260000467300415,2.0920000076293945 1.1260000467300415,2.0920000076293945 1.1260000467300415,2.0920000076293945 C1.1260000467300415,2.0920000076293945 1.1260000467300415,-2.0920000076293945 1.1260000467300415,-2.0920000076293945z"></path></g><g opacity="1" transform="matrix(1,0,0,1,20.128999710083008,21.18400001525879)"><path fill="rgb(255,202,77)" fill-opacity="1" d=" M1.1260000467300415,-2.0920000076293945 C1.1260000467300415,-2.0920000076293945 -1.1260000467300415,-2.0920000076293945 -1.1260000467300415,-2.0920000076293945 C-1.1260000467300415,-2.0920000076293945 -1.1260000467300415,2.0920000076293945 -1.1260000467300415,2.0920000076293945 C-1.1260000467300415,2.0920000076293945 1.1260000467300415,2.0920000076293945 1.1260000467300415,2.0920000076293945 C1.1260000467300415,2.0920000076293945 1.1260000467300415,-2.0920000076293945 1.1260000467300415,-2.0920000076293945z"></path></g><g opacity="1" transform="matrix(1,0,0,1,44.49100112915039,21.18400001525879)"><path fill="rgb(255,202,77)" fill-opacity="1" d=" M1.1260000467300415,-2.0920000076293945 C1.1260000467300415,-2.0920000076293945 -1.1260000467300415,-2.0920000076293945 -1.1260000467300415,-2.0920000076293945 C-1.1260000467300415,-2.0920000076293945 -1.1260000467300415,2.0920000076293945 -1.1260000467300415,2.0920000076293945 C-1.1260000467300415,2.0920000076293945 1.1260000467300415,2.0920000076293945 1.1260000467300415,2.0920000076293945 C1.1260000467300415,2.0920000076293945 1.1260000467300415,-2.0920000076293945 1.1260000467300415,-2.0920000076293945z"></path></g><g opacity="1" transform="matrix(1,0,0,1,60.26900100708008,21.18400001525879)"><path fill="rgb(255,202,77)" fill-opacity="1" d=" M1.1260000467300415,-2.0920000076293945 C1.1260000467300415,-2.0920000076293945 -1.1260000467300415,-2.0920000076293945 -1.1260000467300415,-2.0920000076293945 C-1.1260000467300415,-2.0920000076293945 -1.1260000467300415,2.0920000076293945 -1.1260000467300415,2.0920000076293945 C-1.1260000467300415,2.0920000076293945 1.1260000467300415,2.0920000076293945 1.1260000467300415,2.0920000076293945 C1.1260000467300415,2.0920000076293945 1.1260000467300415,-2.0920000076293945 1.1260000467300415,-2.0920000076293945z"></path></g><g opacity="1" transform="matrix(1,0,0,1,32.28099822998047,24.610000610351562)"><path fill="rgb(141,124,142)" fill-opacity="1" d=" M31.18899917602539,-1.7940000295639038 C31.18899917602539,-1.7940000295639038 -31.18899917602539,-1.7940000295639038 -31.18899917602539,-1.7940000295639038 C-31.18899917602539,-1.7940000295639038 -31.18899917602539,1.7940000295639038 -31.18899917602539,1.7940000295639038 C-31.18899917602539,1.7940000295639038 31.18899917602539,1.7940000295639038 31.18899917602539,1.7940000295639038 C31.18899917602539,1.7940000295639038 31.18899917602539,-1.7940000295639038 31.18899917602539,-1.7940000295639038z"></path></g><g opacity="1" transform="matrix(1,0,0,1,32.28099822998047,24.243000030517578)"><path fill="rgb(190,173,182)" fill-opacity="1" d=" M4.506999969482422,-2.877000093460083 C4.506999969482422,-2.877000093460083 -4.506999969482422,-2.877000093460083 -4.506999969482422,-2.877000093460083 C-4.506999969482422,-2.877000093460083 -7.422999858856201,2.877000093460083 -7.422999858856201,2.877000093460083 C-7.422999858856201,2.877000093460083 7.422999858856201,2.877000093460083 7.422999858856201,2.877000093460083 C7.422999858856201,2.877000093460083 4.506999969482422,-2.877000093460083 4.506999969482422,-2.877000093460083z"></path></g><g opacity="1" transform="matrix(1,0,0,1,32.28099822998047,27.121000289916992)"><path fill="rgb(190,173,182)" fill-opacity="1" d=" M8.116999626159668,-1.6399999856948853 C8.116999626159668,-1.6399999856948853 -8.116999626159668,-1.6399999856948853 -8.116999626159668,-1.6399999856948853 C-8.116999626159668,-1.6399999856948853 -8.116999626159668,1.6399999856948853 -8.116999626159668,1.6399999856948853 C-8.116999626159668,1.6399999856948853 8.116999626159668,1.6399999856948853 8.116999626159668,1.6399999856948853 C8.116999626159668,1.6399999856948853 8.116999626159668,-1.6399999856948853 8.116999626159668,-1.6399999856948853z"></path></g><g opacity="1" transform="matrix(1,0,0,1,32.28300094604492,17.73200035095215)"><path fill="rgb(175,154,166)" fill-opacity="1" d=" M0.6919999718666077,-2.4690001010894775 C0.6919999718666077,-2.4690001010894775 -0.6919999718666077,-2.4690001010894775 -0.6919999718666077,-2.4690001010894775 C-0.6919999718666077,-2.4690001010894775 -0.6919999718666077,2.4690001010894775 -0.6919999718666077,2.4690001010894775 C-0.6919999718666077,2.4690001010894775 0.6919999718666077,2.4690001010894775 0.6919999718666077,2.4690001010894775 C0.6919999718666077,2.4690001010894775 0.6919999718666077,-2.4690001010894775 0.6919999718666077,-2.4690001010894775z"></path></g><g opacity="1" transform="matrix(1,0,0,1,32.28300094604492,19.80699920654297)"><path fill="rgb(255,201,77)" fill-opacity="1" d=" M1.4010000228881836,0 C1.4010000228881836,-0.6110000014305115 2.6760001182556152,-1.1059999465942383 3.2869999408721924,-1.1059999465942383 C3.2869999408721924,-1.1059999465942383 3.2869999408721924,-1.7569999694824219 3.2869999408721924,-1.7569999694824219 C3.2869999408721924,-1.7569999694824219 -3.2869999408721924,-1.7569999694824219 -3.2869999408721924,-1.7569999694824219 C-3.2869999408721924,-1.7569999694824219 -3.2869999408721924,-1.1059999465942383 -3.2869999408721924,-1.1059999465942383 C-2.6760001182556152,-1.1059999465942383 -1.4010000228881836,-0.6110000014305115 -1.4010000228881836,0 C-1.4010000228881836,0.6110000014305115 -2.6760001182556152,1.1059999465942383 -3.2869999408721924,1.1059999465942383 C-3.2869999408721924,1.1059999465942383 -3.2869999408721924,1.7569999694824219 -3.2869999408721924,1.7569999694824219 C-3.2869999408721924,1.7569999694824219 3.2869999408721924,1.7569999694824219 3.2869999408721924,1.7569999694824219 C3.2869999408721924,1.7569999694824219 3.2869999408721924,1.1059999465942383 3.2869999408721924,1.1059999465942383 C2.6760001182556152,1.1059999465942383 1.4010000228881836,0.6110000014305115 1.4010000228881836,0z"></path></g><g opacity="1" transform="matrix(1,0,0,1,32.28300094604492,15.692999839782715)"><path fill="rgb(255,201,77)" fill-opacity="1" d=" M3.3410000801086426,0.17100000381469727 C3.3380000591278076,0.16500000655651093 3.3320000171661377,0.16099999845027924 3.3289999961853027,0.1550000011920929 C3.299999952316284,0.0949999988079071 3.25600004196167,0.04399999976158142 3.2039999961853027,0.004000000189989805 C3.196000099182129,-0.003000000026077032 3.194999933242798,-0.010999999940395355 3.186000108718872,-0.017000000923871994 C2.6389999389648438,-0.4180000126361847 1.319000005722046,-0.7799999713897705 0,-0.7799999713897705 C-1.319000005722046,-0.7799999713897705 -2.6389999389648438,-0.4180000126361847 -3.186000108718872,-0.017000000923871994 C-3.196000099182129,-0.010999999940395355 -3.196000099182129,-0.003000000026077032 -3.2049999237060547,0.004000000189989805 C-3.256999969482422,0.04500000178813934 -3.3010001182556152,0.0949999988079071 -3.3299999237060547,0.1550000011920929 C-3.3320000171661377,0.16099999845027924 -3.3389999866485596,0.16500000655651093 -3.3410000801086426,0.17100000381469727 C-3.36299991607666,0.22300000488758087 -3.375999927520752,0.2809999883174896 -3.375999927520752,0.34200000762939453 C-3.375999927520752,0.5839999914169312 -3.180000066757202,0.7799999713897705 -2.938999891281128,0.7799999713897705 C-2.7269999980926514,0.7799999713897705 -2.559000015258789,0.6269999742507935 -2.5190000534057617,0.42800000309944153 C-2.5160000324249268,0.421999990940094 -2.509999990463257,0.41999998688697815 -2.507999897003174,0.41499999165534973 C-2.444999933242798,0.24899999797344208 -1.6790000200271606,0.15399999916553497 0,0.15399999916553497 C1.6779999732971191,0.15399999916553497 2.444000005722046,0.24899999797344208 2.507999897003174,0.41499999165534973 C2.509999990463257,0.41999998688697815 2.5160000324249268,0.421999990940094 2.5179998874664307,0.42800000309944153 C2.559000015258789,0.6269999742507935 2.7269999980926514,0.7799999713897705 2.938999891281128,0.7799999713897705 C3.180000066757202,0.7799999713897705 3.375999927520752,0.5839999914169312 3.375999927520752,0.34200000762939453 C3.375999927520752,0.2809999883174896 3.36299991607666,0.2240000069141388 3.3410000801086426,0.17100000381469727z"></path></g><g opacity="1" transform="matrix(1,0,0,1,32.28300094604492,13.07800006866455)"><path fill="rgb(255,201,77)" fill-opacity="1" d=" M0.24400000274181366,-2.253000020980835 C0.24400000274181366,-2.253000020980835 -0.24400000274181366,-2.253000020980835 -0.24400000274181366,-2.253000020980835 C-0.24400000274181366,-2.253000020980835 -0.6919999718666077,2.253000020980835 -0.6919999718666077,2.253000020980835 C-0.6919999718666077,2.253000020980835 0.6919999718666077,2.253000020980835 0.6919999718666077,2.253000020980835 C0.6919999718666077,2.253000020980835 0.24400000274181366,-2.253000020980835 0.24400000274181366,-2.253000020980835z"></path></g><g opacity="1" transform="matrix(1,0,0,1,32.284000396728516,10.824999809265137)"><path fill="rgb(255,201,77)" fill-opacity="1" d=" M0.48100000619888306,0 C0.48100000619888306,-0.26600000262260437 0.26600000262260437,-0.48100000619888306 0,-0.48100000619888306 C-0.26600000262260437,-0.48100000619888306 -0.48100000619888306,-0.26600000262260437 -0.48100000619888306,0 C-0.48100000619888306,0.26600000262260437 -0.26600000262260437,0.48100000619888306 0,0.48100000619888306 C0.26600000262260437,0.48100000619888306 0.48100000619888306,0.26600000262260437 0.48100000619888306,0z"></path></g></g><g transform="matrix(0.3344652056694031,0,0,0.3344652056694031,0.5064507126808167,0.4167078733444214)" opacity="1" style="display: block;"><g opacity="1" transform="matrix(1,0,0,1,44.21799850463867,93.71299743652344)"><path fill="rgb(170,95,166)" fill-opacity="1" d=" M12.907999992370605,9.427000045776367 C12.907999992370605,9.427000045776367 -12.907999992370605,9.427000045776367 -12.907999992370605,9.427000045776367 C-12.907999992370605,9.427000045776367 -12.907999992370605,-9.427000045776367 -12.907999992370605,-9.427000045776367 C-12.907999992370605,-9.427000045776367 12.907999992370605,-9.427000045776367 12.907999992370605,-9.427000045776367 C12.907999992370605,-9.427000045776367 12.907999992370605,9.427000045776367 12.907999992370605,9.427000045776367z"></path></g><g opacity="1" transform="matrix(1,0,0,1,328.01300048828125,93.71299743652344)"><path fill="rgb(170,95,166)" fill-opacity="1" d=" M12.907999992370605,9.427000045776367 C12.907999992370605,9.427000045776367 -12.907999992370605,9.427000045776367 -12.907999992370605,9.427000045776367 C-12.907999992370605,9.427000045776367 -12.907999992370605,-9.427000045776367 -12.907999992370605,-9.427000045776367 C-12.907999992370605,-9.427000045776367 12.907999992370605,-9.427000045776367 12.907999992370605,-9.427000045776367 C12.907999992370605,-9.427000045776367 12.907999992370605,9.427000045776367 12.907999992370605,9.427000045776367z"></path></g><g opacity="1" transform="matrix(1,0,0,1,186.27099609375,11.928000450134277)"><path fill="rgb(217,28,92)" fill-opacity="1" d=" M12.907999992370605,9.427000045776367 C12.907999992370605,9.427000045776367 -12.907999992370605,9.427000045776367 -12.907999992370605,9.427000045776367 C-12.907999992370605,9.427000045776367 -12.907999992370605,-9.427000045776367 -12.907999992370605,-9.427000045776367 C-12.907999992370605,-9.427000045776367 12.907999992370605,-9.427000045776367 12.907999992370605,-9.427000045776367 C12.907999992370605,-9.427000045776367 5.408999919891357,0 5.408999919891357,0 C5.408999919891357,0 12.907999992370605,9.427000045776367 12.907999992370605,9.427000045776367z"></path></g><g opacity="1" transform="matrix(1,0,0,1,0,0)"><path stroke-linecap="round" stroke-linejoin="round" fill-opacity="0" stroke="rgb(255,201,77)" stroke-opacity="1" stroke-width="5" d=" M31.30900001525879,133.5399932861328 C31.30900001525879,133.5399932861328 31.30900001525879,83.65799713134766 31.30900001525879,83.65799713134766"></path></g><g opacity="1" transform="matrix(1,0,0,1,253.8939971923828,109.78900146484375)"><path fill="rgb(17,128,195)" fill-opacity="1" d=" M-80.52999877929688,43.242000579833984 C-80.52999877929688,43.242000579833984 -80.52999877929688,-43.242000579833984 -80.52999877929688,-43.242000579833984 C-80.52999877929688,-43.242000579833984 -77.37999725341797,-43.242000579833984 -77.37999725341797,-43.242000579833984 C-57.12200164794922,-1.0420000553131104 -22.5,25.68199920654297 80.52999877929688,43.242000579833984 C80.52999877929688,43.242000579833984 -80.52999877929688,43.242000579833984 -80.52999877929688,43.242000579833984z"></path></g><g opacity="1" transform="matrix(1,0,0,1,244.46299743652344,109.78900146484375)"><path fill="rgb(17,128,195)" fill-opacity="1" d=" M-71.0979995727539,-43.24300003051758 C-71.0979995727539,-43.24300003051758 -68.8949966430664,-43.24100112915039 -68.8949966430664,-43.24100112915039 C-50.99599838256836,-1.1410000324249268 -19.739999771118164,25.70800018310547 71.0979995727539,43.24300003051758 C71.0979995727539,43.24300003051758 -71.0979995727539,43.24300003051758 -71.0979995727539,43.24300003051758 C-71.0979995727539,43.24300003051758 -71.0979995727539,-43.24300003051758 -71.0979995727539,-43.24300003051758z"></path></g><g opacity="1" transform="matrix(1,0,0,1,92.83399963378906,109.78900146484375)"><path fill="rgb(17,128,195)" fill-opacity="1" d=" M80.52999877929688,43.242000579833984 C80.52999877929688,43.242000579833984 80.52999877929688,-43.242000579833984 80.52999877929688,-43.242000579833984 C80.52999877929688,-43.242000579833984 77.37999725341797,-43.242000579833984 77.37999725341797,-43.242000579833984 C57.12200164794922,-1.0420000553131104 22.5,25.68199920654297 -80.52999877929688,43.242000579833984 C-80.52999877929688,43.242000579833984 80.52999877929688,43.242000579833984 80.52999877929688,43.242000579833984z"></path></g><g opacity="1" transform="matrix(1,0,0,1,102.26499938964844,109.78900146484375)"><path fill="rgb(17,128,195)" fill-opacity="1" d=" M71.0989990234375,-43.24300003051758 C71.0989990234375,-43.24300003051758 68.89399719238281,-43.24100112915039 68.89399719238281,-43.24100112915039 C50.994998931884766,-1.1410000324249268 19.73900032043457,25.70800018310547 -71.0989990234375,43.24300003051758 C-71.0989990234375,43.24300003051758 71.0989990234375,43.24300003051758 71.0989990234375,43.24300003051758 C71.0989990234375,43.24300003051758 71.0989990234375,-43.24300003051758 71.0989990234375,-43.24300003051758z"></path></g><g opacity="1" transform="matrix(1,0,0,1,173.36399841308594,107.86000061035156)"><path fill="rgb(17,128,195)" fill-opacity="1" d=" M54.12699890136719,45.172000885009766 C11.076000213623047,11.972999572753906 0,-45.172000885009766 0,-45.172000885009766 C0,-45.172000885009766 -11.07699966430664,11.972999572753906 -54.12699890136719,45.172000885009766 C-54.12699890136719,45.172000885009766 54.12699890136719,45.172000885009766 54.12699890136719,45.172000885009766z"></path></g><g opacity="1" transform="matrix(1,0,0,1,173.36399841308594,91.927001953125)"><path fill="rgb(255,201,77)" fill-opacity="1" d=" M22.496999740600586,25.3799991607666 C30.47100067138672,15.281999588012695 45.25299835205078,23.49799919128418 45.25299835205078,23.49799919128418 C45.25299835205078,23.49799919128418 45.29499816894531,23.49799919128418 45.29499816894531,23.49799919128418 C24.767000198364258,10.048999786376953 12.435999870300293,-6.034999847412109 3.1500000953674316,-25.3799991607666 C3.1500000953674316,-25.3799991607666 0,-25.3799991607666 0,-25.3799991607666 C0,-25.3799991607666 0,-25.375 0,-25.375 C0,-25.375 -0.0010000000474974513,-25.3799991607666 -0.0010000000474974513,-25.3799991607666 C-0.0010000000474974513,-25.3799991607666 -3.1500000953674316,-25.3799991607666 -3.1500000953674316,-25.3799991607666 C-12.437000274658203,-6.034999847412109 -24.767000198364258,10.048999786376953 -45.29499816894531,23.49799919128418 C-45.29499816894531,23.49799919128418 -45.25600051879883,23.49799919128418 -45.25600051879883,23.49799919128418 C-45.25600051879883,23.49799919128418 -30.47100067138672,15.281999588012695 -22.49799919128418,25.3799991607666 C-22.49799919128418,25.3799991607666 -14.156999588012695,19.73900032043457 -0.0010000000474974513,19.73900032043457 C14.156999588012695,19.73900032043457 22.496999740600586,25.3799991607666 22.496999740600586,25.3799991607666z"></path></g><g opacity="1" transform="matrix(1,0,0,1,173.36199951171875,87.33599853515625)"><path fill="rgb(245,150,171)" fill-opacity="1" d=" M16.270999908447266,19.15399932861328 C21.858999252319336,12.076000213623047 31.709999084472656,17.833999633789062 31.709999084472656,17.833999633789062 C31.709999084472656,17.833999633789062 31.715999603271484,17.827999114990234 31.715999603271484,17.827999114990234 C19.43899917602539,7.065000057220459 10.861000061035156,-5.189000129699707 3.9639999866485596,-19.15399932861328 C3.9639999866485596,-19.15399932861328 -3.999000072479248,-19.07699966430664 -3.999000072479248,-19.07699966430664 C-10.888999938964844,-5.14300012588501 -19.458999633789062,7.086999893188477 -31.715999603271484,17.83099937438965 C-31.715999603271484,17.83099937438965 -31.707000732421875,17.833999633789062 -31.707000732421875,17.833999633789062 C-31.707000732421875,17.833999633789062 -21.854999542236328,12.076000213623047 -16.267000198364258,19.15399932861328 C-16.267000198364258,19.15399932861328 -9.920000076293945,15.199999809265137 0.0020000000949949026,15.199999809265137 C9.923999786376953,15.199999809265137 16.270999908447266,19.15399932861328 16.270999908447266,19.15399932861328z"></path></g><g opacity="1" transform="matrix(1,0,0,1,173.36399841308594,55.2869987487793)"><path fill="rgb(245,150,171)" fill-opacity="1" d=" M0.014000000432133675,-25.797000885009766 C0.014000000432133675,-25.797000885009766 -20.347000122070312,25.797000885009766 -20.347000122070312,25.797000885009766 C-20.347000122070312,25.797000885009766 20.347000122070312,25.797000885009766 20.347000122070312,25.797000885009766 C20.347000122070312,25.797000885009766 0.014000000432133675,-25.797000885009766 0.014000000432133675,-25.797000885009766z"></path></g><g opacity="1" transform="matrix(1,0,0,1,173.36399841308594,35.582000732421875)"><path fill="rgb(255,201,77)" fill-opacity="1" d=" M0.004000000189989805,-6.0929999351501465 C0.004000000189989805,-6.0929999351501465 -4.804999828338623,6.0929999351501465 -4.804999828338623,6.0929999351501465 C-4.804999828338623,6.0929999351501465 4.804999828338623,6.0929999351501465 4.804999828338623,6.0929999351501465 C4.804999828338623,6.0929999351501465 0.004000000189989805,-6.0929999351501465 0.004000000189989805,-6.0929999351501465z"></path></g><g opacity="1" transform="matrix(1,0,0,1,173.36399841308594,141.4199981689453)"><path fill="rgb(193,66,60)" fill-opacity="1" d=" M30.743000030517578,-11.612000465393066 C30.743000030517578,-11.612000465393066 -0.19300000369548798,-2.1559998989105225 -0.19300000369548798,-2.1559998989105225 C-0.19300000369548798,-2.1559998989105225 -31.128999710083008,-11.612000465393066 -31.128999710083008,-11.612000465393066 C-31.128999710083008,-11.612000465393066 -31.152000427246094,-11.604000091552734 -31.152000427246094,-11.604000091552734 C-37.547000885009766,-3.315000057220459 -45.130001068115234,4.673999786376953 -54.12699890136719,11.612000465393066 C-54.12699890136719,11.612000465393066 0,11.612000465393066 0,11.612000465393066 C0,11.612000465393066 0,11.611000061035156 0,11.611000061035156 C0,11.611000061035156 0,11.612000465393066 0,11.612000465393066 C0,11.612000465393066 54.12699890136719,11.612000465393066 54.12699890136719,11.612000465393066 C45.185001373291016,4.7170000076293945 37.641998291015625,-3.2149999141693115 31.27199935913086,-11.449999809265137 C31.086999893188477,-11.508999824523926 30.93000030517578,-11.552000045776367 30.743000030517578,-11.612000465393066z"></path></g><g opacity="1" transform="matrix(1,0,0,1,173.36399841308594,83.65799713134766)"><path fill="rgb(170,95,166)" fill-opacity="1" d=" M23.238000869750977,-5.107999801635742 C23.238000869750977,-5.107999801635742 -23.238000869750977,-5.107999801635742 -23.238000869750977,-5.107999801635742 C-23.238000869750977,-5.107999801635742 -23.238000869750977,5.107999801635742 -23.238000869750977,5.107999801635742 C-23.238000869750977,5.107999801635742 23.238000869750977,5.107999801635742 23.238000869750977,5.107999801635742 C23.238000869750977,5.107999801635742 23.238000869750977,-5.107999801635742 23.238000869750977,-5.107999801635742z"></path></g><g opacity="1" transform="matrix(1,0,0,1,0,0)"><path stroke-linecap="round" stroke-linejoin="round" fill-opacity="0" stroke="rgb(255,201,77)" stroke-opacity="1" stroke-width="5" d=" M315.1050109863281,133.5399932861328 C315.1050109863281,133.5399932861328 315.1050109863281,83.65799713134766 315.1050109863281,83.65799713134766"></path></g><g opacity="1" transform="matrix(1,0,0,1,173.36399841308594,154.66700744628906)"><path fill="rgb(170,95,166)" fill-opacity="1" d=" M-173.11399841308594,-12.454000473022461 C-173.11399841308594,-12.454000473022461 -173.11399841308594,12.454000473022461 -173.11399841308594,12.454000473022461 C-173.11399841308594,12.454000473022461 -161.87399291992188,12.454000473022461 -161.87399291992188,12.454000473022461 C-161.87399291992188,12.454000473022461 -161.87399291992188,1.6929999589920044 -161.87399291992188,1.6929999589920044 C-161.87399291992188,-1.0870000123977661 -159.5989990234375,-3.361999988555908 -156.81900024414062,-3.361999988555908 C-154.03799438476562,-3.361999988555908 -151.76300048828125,-1.0870000123977661 -151.76300048828125,1.6929999589920044 C-151.76300048828125,1.6929999589920044 -151.76300048828125,12.454000473022461 -151.76300048828125,12.454000473022461 C-151.76300048828125,12.454000473022461 -57.32899856567383,12.454000473022461 -57.32899856567383,12.454000473022461 C-57.32899856567383,12.454000473022461 -57.32899856567383,1.6929999589920044 -57.32899856567383,1.6929999589920044 C-57.32899856567383,-1.0870000123977661 -55.05400085449219,-3.361999988555908 -52.27299880981445,-3.361999988555908 C-49.492000579833984,-3.361999988555908 -47.21799850463867,-1.0870000123977661 -47.21799850463867,1.6929999589920044 C-47.21799850463867,1.6929999589920044 -47.21799850463867,12.454000473022461 -47.21799850463867,12.454000473022461 C-47.21799850463867,12.454000473022461 47.21699905395508,12.454000473022461 47.21699905395508,12.454000473022461 C47.21699905395508,12.454000473022461 47.21699905395508,1.6929999589920044 47.21699905395508,1.6929999589920044 C47.21699905395508,-1.0870000123977661 49.49100112915039,-3.361999988555908 52.27299880981445,-3.361999988555908 C55.053001403808594,-3.361999988555908 57.327999114990234,-1.0870000123977661 57.327999114990234,1.6929999589920044 C57.327999114990234,1.6929999589920044 57.327999114990234,12.454000473022461 57.327999114990234,12.454000473022461 C57.327999114990234,12.454000473022461 151.76199340820312,12.454000473022461 151.76199340820312,12.454000473022461 C151.76199340820312,12.454000473022461 151.76199340820312,1.6929999589920044 151.76199340820312,1.6929999589920044 C151.76199340820312,-1.0870000123977661 154.03700256347656,-3.361999988555908 156.81900024414062,-3.361999988555908 C159.5989990234375,-3.361999988555908 161.8730010986328,-1.0870000123977661 161.8730010986328,1.6929999589920044 C161.8730010986328,1.6929999589920044 161.8730010986328,12.454000473022461 161.8730010986328,12.454000473022461 C161.8730010986328,12.454000473022461 173.11399841308594,12.454000473022461 173.11399841308594,12.454000473022461 C173.11399841308594,12.454000473022461 173.11399841308594,-12.454000473022461 173.11399841308594,-12.454000473022461 C173.11399841308594,-12.454000473022461 -173.11399841308594,-12.454000473022461 -173.11399841308594,-12.454000473022461z"></path></g><g opacity="1" transform="matrix(1,0,0,1,173.36399841308594,137.906005859375)"><path fill="rgb(255,201,77)" fill-opacity="1" d=" M-173.11399841308594,8.565999984741211 C-173.11399841308594,8.565999984741211 -173.11399841308594,-4.645999908447266 -173.11399841308594,-4.645999908447266 C-173.11399841308594,-6.810999870300293 -171.35899353027344,-8.565999984741211 -169.19500732421875,-8.565999984741211 C-169.19500732421875,-8.565999984741211 -169.19400024414062,-8.565999984741211 -169.19400024414062,-8.565999984741211 C-169.19400024414062,-8.565999984741211 -133.23899841308594,-8.565999984741211 -133.23899841308594,-8.565999984741211 C-131.07400512695312,-8.565999984741211 -129.32000732421875,-6.810999870300293 -129.32000732421875,-4.645999908447266 C-129.32000732421875,-4.645999908447266 -129.32000732421875,-1.1640000343322754 -129.32000732421875,-1.1640000343322754 C-129.32000732421875,0.7480000257492065 -127.75499725341797,2.312999963760376 -125.84300231933594,2.312999963760376 C-123.93000030517578,2.312999963760376 -122.36499786376953,0.7480000257492065 -122.36499786376953,-1.1640000343322754 C-122.36499786376953,-1.1640000343322754 -122.36499786376953,-4.645999908447266 -122.36499786376953,-4.645999908447266 C-122.36499786376953,-6.810999870300293 -120.61000061035156,-8.565999984741211 -118.44599914550781,-8.565999984741211 C-118.44599914550781,-8.565999984741211 -61.32899856567383,-8.565999984741211 -61.32899856567383,-8.565999984741211 C-59.165000915527344,-8.565999984741211 -57.40999984741211,-6.810999870300293 -57.40999984741211,-4.645999908447266 C-57.40999984741211,-4.645999908447266 -57.40999984741211,-1.1640000343322754 -57.40999984741211,-1.1640000343322754 C-57.40999984741211,0.7480000257492065 -55.845001220703125,2.312999963760376 -53.93199920654297,2.312999963760376 C-52.02000045776367,2.312999963760376 -50.45500183105469,0.7480000257492065 -50.45500183105469,-1.1640000343322754 C-50.45500183105469,-1.1640000343322754 -50.45500183105469,-4.645999908447266 -50.45500183105469,-4.645999908447266 C-50.45500183105469,-6.810999870300293 -48.70000076293945,-8.565999984741211 -46.5359992980957,-8.565999984741211 C-46.5359992980957,-8.565999984741211 46.53499984741211,-8.565999984741211 46.53499984741211,-8.565999984741211 C48.69900131225586,-8.565999984741211 50.45399856567383,-6.810999870300293 50.45399856567383,-4.645999908447266 C50.45399856567383,-4.645999908447266 50.45399856567383,-1.1640000343322754 50.45399856567383,-1.1640000343322754 C50.45399856567383,0.7480000257492065 52.02000045776367,2.312999963760376 53.93199920654297,2.312999963760376 C55.845001220703125,2.312999963760376 57.409000396728516,0.7480000257492065 57.409000396728516,-1.1640000343322754 C57.409000396728516,-1.1640000343322754 57.409000396728516,-4.645999908447266 57.409000396728516,-4.645999908447266 C57.409000396728516,-6.810999870300293 59.16400146484375,-8.565999984741211 61.32899856567383,-8.565999984741211 C61.32899856567383,-8.565999984741211 118.44599914550781,-8.565999984741211 118.44599914550781,-8.565999984741211 C120.61000061035156,-8.565999984741211 122.36499786376953,-6.810999870300293 122.36499786376953,-4.645999908447266 C122.36499786376953,-4.645999908447266 122.36499786376953,-1.1640000343322754 122.36499786376953,-1.1640000343322754 C122.36499786376953,0.7480000257492065 123.92900085449219,2.312999963760376 125.84200286865234,2.312999963760376 C127.75499725341797,2.312999963760376 129.32000732421875,0.7480000257492065 129.32000732421875,-1.1640000343322754 C129.32000732421875,-1.1640000343322754 129.32000732421875,-4.645999908447266 129.32000732421875,-4.645999908447266 C129.32000732421875,-6.810999870300293 131.07400512695312,-8.565999984741211 133.23899841308594,-8.565999984741211 C133.23899841308594,-8.565999984741211 169.19400024414062,-8.565999984741211 169.19400024414062,-8.565999984741211 C169.19400024414062,-8.565999984741211 169.19500732421875,-8.565999984741211 169.19500732421875,-8.565999984741211 C171.35899353027344,-8.565999984741211 173.11399841308594,-6.810999870300293 173.11399841308594,-4.645999908447266 C173.11399841308594,-4.645999908447266 173.11399841308594,8.565999984741211 173.11399841308594,8.565999984741211 C173.11399841308594,8.565999984741211 -173.11399841308594,8.565999984741211 -173.11399841308594,8.565999984741211z"></path></g><g opacity="1" transform="matrix(1,0,0,1,0,0)"><path stroke-linecap="round" stroke-linejoin="round" fill-opacity="0" stroke="rgb(255,201,77)" stroke-opacity="1" stroke-width="5" d=" M173.36399841308594,38.61000061035156 C173.36399841308594,38.61000061035156 173.36399841308594,2.5 173.36399841308594,2.5"></path></g></g></g></svg>