<svg xmlns="http://www.w3.org/2000/svg" viewBox="0 0 58 55" width="58" height="55" preserveAspectRatio="xMidYMid meet" style="width: 100%; height: 100%; transform: translate3d(0px, 0px, 0px); content-visibility: visible;"><defs><clipPath id="__lottie_element_3909"><rect width="58" height="55" x="0" y="0"></rect></clipPath></defs><g clip-path="url(#__lottie_element_3909)"><g transform="matrix(1.8059998750686646,0,0,1.8059998750686646,0.35735809803009033,0.2815171480178833)" opacity="1" style="display: block;"><g opacity="1" transform="matrix(1,0,0,1,15.861000061035156,24.024999618530273)"><path fill="rgb(245,138,70)" fill-opacity="1" d=" M0,5.894000053405762 C-3.6619999408721924,5.894000053405762 -15.611000061035156,5.468999862670898 -15.611000061035156,-0.0010000000474974513 C-15.611000061035156,-5.468999862670898 -3.6619999408721924,-5.894000053405762 0,-5.894000053405762 C3.6619999408721924,-5.894000053405762 15.611000061035156,-5.468999862670898 15.611000061035156,-0.0010000000474974513 C15.611000061035156,5.468999862670898 3.6619999408721924,5.894000053405762 0,5.894000053405762z"></path></g><g opacity="1" transform="matrix(1,0,0,1,15.861000061035156,24.02400016784668)"><path fill="rgb(135,211,235)" fill-opacity="1" d=" M13.112000465393066,0 C13.112000465393066,-1.8739999532699585 7.241000175476074,-3.3940000534057617 0,-3.3940000534057617 C-7.241000175476074,-3.3940000534057617 -13.112000465393066,-1.8739999532699585 -13.112000465393066,0 C-13.112000465393066,1.8739999532699585 -7.241000175476074,3.3940000534057617 0,3.3940000534057617 C7.241000175476074,3.3940000534057617 13.112000465393066,1.8739999532699585 13.112000465393066,0z"></path></g></g><g transform="matrix(1.8059998750686646,0,0,1.8059998750686646,16.22022819519043,8.455474853515625)" opacity="1" style="display: block;"><g opacity="1" transform="matrix(1,0,0,1,7.078000068664551,15.656999588012695)"><path stroke-linecap="round" stroke-linejoin="miter" fill-opacity="0" stroke-miterlimit="10" stroke="rgb(135,211,235)" stroke-opacity="1" stroke-width="0.5" d=" M-0.0729999989271164,-3.8410000801086426 C-0.0729999989271164,-3.8410000801086426 5.326000213623047,-3.8410000801086426 5.326000213623047,-3.8410000801086426 C5.603000164031982,-3.8410000801086426 5.828999996185303,-3.615999937057495 5.828999996185303,-3.3389999866485596 C5.828999996185303,-3.3389999866485596 5.936999797821045,4.769999980926514 5.936999797821045,4.769999980926514 M-0.0729999989271164,-3.8410000801086426 C-0.0729999989271164,-3.8410000801086426 -5.327000141143799,-3.8410000801086426 -5.327000141143799,-3.8410000801086426 C-5.604000091552734,-3.8410000801086426 -5.828999996185303,-3.615999937057495 -5.828999996185303,-3.3389999866485596 C-5.828999996185303,-3.3389999866485596 -5.6620001792907715,4.984000205993652 -5.6620001792907715,4.984000205993652"></path></g></g><g transform="matrix(1.337465524673462,0,0,1.337465524673462,7.858551502227783,11.491785049438477)" opacity="1" style="display: block;"><g opacity="1" transform="matrix(1,0,0,1,15.861000061035156,24.02400016784668)"><path fill="rgb(185,229,251)" fill-opacity="1" d=" M13.112000465393066,0 C13.112000465393066,-1.8739999532699585 7.241000175476074,-3.3940000534057617 0,-3.3940000534057617 C-7.241000175476074,-3.3940000534057617 -13.112000465393066,-1.8739999532699585 -13.112000465393066,0 C-13.112000465393066,1.8739999532699585 -7.241000175476074,3.3940000534057617 0,3.3940000534057617 C7.241000175476074,3.3940000534057617 13.112000465393066,1.8739999532699585 13.112000465393066,0z"></path></g></g><g transform="matrix(0.9180397391319275,0,0,0.9180397391319275,14.569363594055176,21.52822494506836)" opacity="1" style="display: block;"><g opacity="1" transform="matrix(1,0,0,1,15.861000061035156,24.02400016784668)"><path fill="rgb(135,211,235)" fill-opacity="1" d=" M13.112000465393066,0 C13.112000465393066,-1.8739999532699585 7.241000175476074,-3.3940000534057617 0,-3.3940000534057617 C-7.241000175476074,-3.3940000534057617 -13.112000465393066,-1.8739999532699585 -13.112000465393066,0 C-13.112000465393066,1.8739999532699585 -7.241000175476074,3.3940000534057617 0,3.3940000534057617 C7.241000175476074,3.3940000534057617 13.112000465393066,1.8739999532699585 13.112000465393066,0z"></path></g></g><g transform="matrix(1.8059998750686646,0,0,1.8059998750686646,0.35735809803009033,0.2815171480178833)" opacity="1" style="display: block;"><g opacity="1" transform="matrix(1,0,0,1,15.861000061035156,6.270999908447266)"><path fill="rgb(0,131,125)" fill-opacity="1" d=" M3.111999988555908,0.49399998784065247 C3.111999988555908,0.49399998784065247 -3.111999988555908,0.49399998784065247 -3.111999988555908,0.49399998784065247 C-3.4519999027252197,0.49399998784065247 -3.7300000190734863,0.21699999272823334 -3.7300000190734863,-0.12300000339746475 C-3.7300000190734863,-0.328000009059906 -3.563999891281128,-0.49399998784065247 -3.359999895095825,-0.49399998784065247 C-3.359999895095825,-0.49399998784065247 3.359999895095825,-0.49399998784065247 3.359999895095825,-0.49399998784065247 C3.563999891281128,-0.49399998784065247 3.7300000190734863,-0.328000009059906 3.7300000190734863,-0.12300000339746475 C3.7300000190734863,0.21699999272823334 3.4519999027252197,0.49399998784065247 3.111999988555908,0.49399998784065247z"></path></g><g opacity="1" transform="matrix(1,0,0,1,15.861000061035156,7.136000156402588)"><path fill="rgb(0,131,125)" fill-opacity="1" d=" M3.7309999465942383,-0.9890000224113464 C3.7309999465942383,0.07400000095367432 1.2569999694824219,-0.12399999797344208 1.2569999694824219,0.9890000224113464 C1.2569999694824219,0.9890000224113464 -1.2569999694824219,0.9890000224113464 -1.2569999694824219,0.9890000224113464 C-1.2569999694824219,-0.12399999797344208 -3.7309999465942383,0.07400000095367432 -3.7309999465942383,-0.9890000224113464 C-3.7309999465942383,-0.9890000224113464 3.7309999465942383,-0.9890000224113464 3.7309999465942383,-0.9890000224113464z"></path></g><g opacity="1" transform="matrix(1,0,0,1,15.861000061035156,10.109999656677246)"><path fill="rgb(0,131,125)" fill-opacity="1" d=" M0.9419999718666077,-0.5830000042915344 C0.9419999718666077,-0.5830000042915344 -0.9419999718666077,-0.5830000042915344 -0.9419999718666077,-0.5830000042915344 C-1.2619999647140503,-0.5830000042915344 -1.524999976158142,-0.32100000977516174 -1.524999976158142,0 C-1.524999976158142,0.32100000977516174 -1.2619999647140503,0.5830000042915344 -0.9419999718666077,0.5830000042915344 C-0.9419999718666077,0.5830000042915344 0.9419999718666077,0.5830000042915344 0.9419999718666077,0.5830000042915344 C1.2630000114440918,0.5830000042915344 1.524999976158142,0.32100000977516174 1.524999976158142,0 C1.524999976158142,-0.32100000977516174 1.2630000114440918,-0.5830000042915344 0.9419999718666077,-0.5830000042915344z"></path></g><g opacity="1" transform="matrix(1,0,0,1,15.861000061035156,9.059000015258789)"><path fill="rgb(0,131,125)" fill-opacity="1" d=" M-1.524999976158142,1.0509999990463257 C-1.524999976158142,0.3199999928474426 -0.8799999952316284,0.3199999928474426 -0.7929999828338623,-0.1080000028014183 C-0.6589999794960022,-0.7730000019073486 -1.4730000495910645,-0.6650000214576721 -1.2569999694824219,-1.0509999990463257 C-1.2569999694824219,-1.0509999990463257 1.2569999694824219,-1.0509999990463257 1.2569999694824219,-1.0509999990463257 C1.4730000495910645,-0.6650000214576721 0.6589999794960022,-0.7730000019073486 0.7929999828338623,-0.1080000028014183 C0.8799999952316284,0.3199999928474426 1.524999976158142,0.3199999928474426 1.524999976158142,1.0509999990463257 C1.524999976158142,1.0509999990463257 -1.524999976158142,1.0509999990463257 -1.524999976158142,1.0509999990463257z"></path></g><g opacity="1" transform="matrix(1,0,0,1,15.861000061035156,11.064000129699707)"><path fill="rgb(0,131,125)" fill-opacity="1" d=" M3.890000104904175,0.6179999709129333 C3.890000104904175,0.6179999709129333 -3.890000104904175,0.6179999709129333 -3.890000104904175,0.6179999709129333 C-4.315000057220459,0.6179999709129333 -4.663000106811523,0.27000001072883606 -4.663000106811523,-0.1550000011920929 C-4.663000106811523,-0.41100001335144043 -4.455999851226807,-0.6179999709129333 -4.199999809265137,-0.6179999709129333 C-4.199999809265137,-0.6179999709129333 4.198999881744385,-0.6179999709129333 4.198999881744385,-0.6179999709129333 C4.454999923706055,-0.6179999709129333 4.663000106811523,-0.41100001335144043 4.663000106811523,-0.1550000011920929 C4.663000106811523,0.27000001072883606 4.315000057220459,0.6179999709129333 3.890000104904175,0.6179999709129333z"></path></g><g opacity="1" transform="matrix(1,0,0,1,15.861000061035156,12.145000457763672)"><path fill="rgb(0,131,125)" fill-opacity="1" d=" M4.663000106811523,-1.2369999885559082 C4.663000106811523,0.09099999815225601 1.5709999799728394,-0.15399999916553497 1.5709999799728394,1.2369999885559082 C1.5709999799728394,1.2369999885559082 -1.5709999799728394,1.2369999885559082 -1.5709999799728394,1.2369999885559082 C-1.5709999799728394,-0.15399999916553497 -4.663000106811523,0.09099999815225601 -4.663000106811523,-1.2369999885559082 C-4.663000106811523,-1.2369999885559082 4.663000106811523,-1.2369999885559082 4.663000106811523,-1.2369999885559082z"></path></g><g opacity="1" transform="matrix(1,0,0,1,15.861000061035156,15.862000465393066)"><path fill="rgb(0,131,125)" fill-opacity="1" d=" M1.1779999732971191,-0.7289999723434448 C1.1779999732971191,-0.7289999723434448 -1.1770000457763672,-0.7289999723434448 -1.1770000457763672,-0.7289999723434448 C-1.5779999494552612,-0.7289999723434448 -1.906000018119812,-0.4009999930858612 -1.906000018119812,0 C-1.906000018119812,0.4009999930858612 -1.5779999494552612,0.7289999723434448 -1.1770000457763672,0.7289999723434448 C-1.1770000457763672,0.7289999723434448 1.1779999732971191,0.7289999723434448 1.1779999732971191,0.7289999723434448 C1.5789999961853027,0.7289999723434448 1.906000018119812,0.4009999930858612 1.906000018119812,0 C1.906000018119812,-0.4009999930858612 1.5789999961853027,-0.7289999723434448 1.1779999732971191,-0.7289999723434448z"></path></g><g opacity="1" transform="matrix(1,0,0,1,15.861000061035156,14.54800033569336)"><path fill="rgb(0,131,125)" fill-opacity="1" d=" M-1.906000018119812,1.3140000104904175 C-1.906000018119812,0.4000000059604645 -1.100000023841858,0.4009999930858612 -0.9909999966621399,-0.13500000536441803 C-0.8230000138282776,-0.9660000205039978 -1.8420000076293945,-0.8309999704360962 -1.5709999799728394,-1.3140000104904175 C-1.5709999799728394,-1.3140000104904175 1.5709999799728394,-1.3140000104904175 1.5709999799728394,-1.3140000104904175 C1.8420000076293945,-0.8309999704360962 0.8230000138282776,-0.9660000205039978 0.9919999837875366,-0.13500000536441803 C1.100000023841858,0.4009999930858612 1.906000018119812,0.4000000059604645 1.906000018119812,1.3140000104904175 C1.906000018119812,1.3140000104904175 -1.906000018119812,1.3140000104904175 -1.906000018119812,1.3140000104904175z"></path></g><g opacity="1" transform="matrix(1,0,0,1,15.861000061035156,17.115999221801758)"><path fill="rgb(0,131,125)" fill-opacity="1" d=" M4.86299991607666,0.7720000147819519 C4.86299991607666,0.7720000147819519 -4.861999988555908,0.7720000147819519 -4.861999988555908,0.7720000147819519 C-5.394000053405762,0.7720000147819519 -5.828000068664551,0.33799999952316284 -5.828000068664551,-0.19300000369548798 C-5.828000068664551,-0.5130000114440918 -5.570000171661377,-0.7720000147819519 -5.25,-0.7720000147819519 C-5.25,-0.7720000147819519 5.25,-0.7720000147819519 5.25,-0.7720000147819519 C5.570000171661377,-0.7720000147819519 5.828000068664551,-0.5130000114440918 5.828000068664551,-0.19300000369548798 C5.828000068664551,0.33799999952316284 5.394000053405762,0.7720000147819519 4.86299991607666,0.7720000147819519z"></path></g><g opacity="1" transform="matrix(1,0,0,1,15.861000061035156,18.468000411987305)"><path fill="rgb(0,131,125)" fill-opacity="1" d=" M5.828999996185303,-1.5460000038146973 C5.828999996185303,0.11400000005960464 1.9630000591278076,-0.19300000369548798 1.9630000591278076,1.5460000038146973 C1.9630000591278076,1.5460000038146973 -1.965000033378601,1.5460000038146973 -1.965000033378601,1.5460000038146973 C-1.965000033378601,-0.19300000369548798 -5.828999996185303,0.11400000005960464 -5.828999996185303,-1.5460000038146973 C-5.828999996185303,-1.5460000038146973 5.828999996185303,-1.5460000038146973 5.828999996185303,-1.5460000038146973z"></path></g><g opacity="1" transform="matrix(1,0,0,1,15.861000061035156,23.11400032043457)"><path fill="rgb(0,131,125)" fill-opacity="1" d=" M1.472000002861023,-0.9110000133514404 C1.472000002861023,-0.9110000133514404 -1.472000002861023,-0.9110000133514404 -1.472000002861023,-0.9110000133514404 C-1.9739999771118164,-0.9110000133514404 -2.381999969482422,-0.5009999871253967 -2.381999969482422,0 C-2.381999969482422,0.5009999871253967 -1.9739999771118164,0.9110000133514404 -1.472000002861023,0.9110000133514404 C-1.472000002861023,0.9110000133514404 1.472000002861023,0.9110000133514404 1.472000002861023,0.9110000133514404 C1.9730000495910645,0.9110000133514404 2.381999969482422,0.5009999871253967 2.381999969482422,0 C2.381999969482422,-0.5009999871253967 1.9730000495910645,-0.9110000133514404 1.472000002861023,-0.9110000133514404z"></path></g><g opacity="1" transform="matrix(1,0,0,1,15.861000061035156,21.47100067138672)"><path fill="rgb(0,131,125)" fill-opacity="1" d=" M-2.381999969482422,1.6419999599456787 C-2.381999969482422,0.5 -1.3760000467300415,0.5019999742507935 -1.2400000095367432,-0.1679999977350235 C-1.0290000438690186,-1.2070000171661377 -2.302000045776367,-1.0379999876022339 -1.9639999866485596,-1.6419999599456787 C-1.9639999866485596,-1.6419999599456787 1.9639999866485596,-1.6419999599456787 1.9639999866485596,-1.6419999599456787 C2.302000045776367,-1.0379999876022339 1.0290000438690186,-1.2070000171661377 1.2389999628067017,-0.1679999977350235 C1.375,0.5019999742507935 2.381999969482422,0.5 2.381999969482422,1.6419999599456787 C2.381999969482422,1.6419999599456787 -2.381999969482422,1.6419999599456787 -2.381999969482422,1.6419999599456787z"></path></g><g opacity="1" transform="matrix(1,0,0,1,15.861000061035156,5.377999782562256)"><path fill="rgb(0,131,125)" fill-opacity="1" d=" M0.4429999887943268,-0.6460000276565552 C0.4429999887943268,-0.6460000276565552 -0.4429999887943268,-0.6460000276565552 -0.4429999887943268,-0.6460000276565552 C-0.4429999887943268,-0.6460000276565552 -0.9380000233650208,0 -0.9380000233650208,0 C-0.9380000233650208,0 -0.4429999887943268,0.6460000276565552 -0.4429999887943268,0.6460000276565552 C-0.4429999887943268,0.6460000276565552 0.4429999887943268,0.6460000276565552 0.4429999887943268,0.6460000276565552 C0.4429999887943268,0.6460000276565552 0.9380000233650208,0 0.9380000233650208,0 C0.9380000233650208,0 0.4429999887943268,-0.6460000276565552 0.4429999887943268,-0.6460000276565552z"></path></g><g opacity="1" transform="matrix(1,0,0,1,15.861000061035156,2.615000009536743)"><path fill="rgb(0,131,125)" fill-opacity="1" d=" M0.4429999887943268,2.365000009536743 C0.8859999775886536,1.75 1.2059999704360962,1.5740000009536743 1.2059999704360962,0.75 C1.2059999704360962,0.01899999938905239 0.5090000033378601,-1.2309999465942383 0.12800000607967377,-2.244999885559082 C0.08299999684095383,-2.365000009536743 -0.08299999684095383,-2.365000009536743 -0.12800000607967377,-2.244999885559082 C-0.5080000162124634,-1.2309999465942383 -1.2059999704360962,0.01899999938905239 -1.2059999704360962,0.75 C-1.2059999704360962,1.5740000009536743 -0.8859999775886536,1.75 -0.4429999887943268,2.365000009536743 C-0.4429999887943268,2.365000009536743 0.4429999887943268,2.365000009536743 0.4429999887943268,2.365000009536743z"></path></g></g><g transform="matrix(1.8059998750686646,0,0,1.8059998750686646,16.22022819519043,8.455474853515625)" opacity="1" style="display: block;"><g opacity="1" transform="matrix(1,0,0,1,7.078000068664551,15.656999588012695)"><path stroke-linecap="round" stroke-linejoin="miter" fill-opacity="0" stroke-miterlimit="10" stroke="rgb(135,211,235)" stroke-opacity="1" stroke-width="0.5" d=" M-0.0729999989271164,-3.8410000801086426 C-0.0729999989271164,-3.8410000801086426 5.326000213623047,-3.8410000801086426 5.326000213623047,-3.8410000801086426 C5.603000164031982,-3.8410000801086426 5.828999996185303,-3.615999937057495 5.828999996185303,-3.3389999866485596 C5.828999996185303,-3.3389999866485596 5.861000061035156,-0.8980000019073486 5.861000061035156,-0.8980000019073486 M-0.0729999989271164,-3.8410000801086426 C-0.0729999989271164,-3.8410000801086426 -5.327000141143799,-3.8410000801086426 -5.327000141143799,-3.8410000801086426 C-5.604000091552734,-3.8410000801086426 -5.828999996185303,-3.615999937057495 -5.828999996185303,-3.3389999866485596 C-5.828999996185303,-3.3389999866485596 -5.78000020980835,-0.8980000019073486 -5.78000020980835,-0.8980000019073486"></path></g></g><g transform="matrix(1.8059998750686646,0,0,1.8059998750686646,16.22022819519043,8.455474853515625)" opacity="1" style="display: block;"><g opacity="1" transform="matrix(1,0,0,1,7.078000068664551,8.868000030517578)"><path stroke-linecap="round" stroke-linejoin="miter" fill-opacity="0" stroke-miterlimit="10" stroke="rgb(135,211,235)" stroke-opacity="1" stroke-width="0.5" d=" M-0.0729999989271164,-2.9489998817443848 C-0.0729999989271164,-2.9489998817443848 4.199999809265137,-2.9489998817443848 4.199999809265137,-2.9489998817443848 C4.454999923706055,-2.9489998817443848 4.663000106811523,-2.740999937057495 4.663000106811523,-2.484999895095825 C4.663000106811523,-2.484999895095825 4.663000106811523,2.9489998817443848 4.663000106811523,2.9489998817443848 M-0.0729999989271164,-2.9489998817443848 C-0.0729999989271164,-2.9489998817443848 -4.199999809265137,-2.9489998817443848 -4.199999809265137,-2.9489998817443848 C-4.454999923706055,-2.9489998817443848 -4.663000106811523,-2.740999937057495 -4.663000106811523,-2.484999895095825 C-4.663000106811523,-2.484999895095825 -4.663000106811523,2.9489998817443848 -4.663000106811523,2.9489998817443848"></path></g></g><g transform="matrix(1.8059998750686646,0,0,1.8059998750686646,16.22022819519043,8.455474853515625)" opacity="1" style="display: block;"><g opacity="1" transform="matrix(1,0,0,1,7.078000068664551,3.5850000381469727)"><path stroke-linecap="round" stroke-linejoin="miter" fill-opacity="0" stroke-miterlimit="10" stroke="rgb(135,211,235)" stroke-opacity="1" stroke-width="0.5" d=" M3.7300000190734863,2.3340001106262207 C3.7300000190734863,2.3340001106262207 3.7300000190734863,-1.9630000591278076 3.7300000190734863,-1.9630000591278076 C3.7300000190734863,-2.1679999828338623 3.563999891281128,-2.3340001106262207 3.3589999675750732,-2.3340001106262207 C3.3589999675750732,-2.3340001106262207 -0.0010000000474974513,-2.3340001106262207 -0.0010000000474974513,-2.3340001106262207 M-3.7300000190734863,2.3340001106262207 C-3.7300000190734863,2.3340001106262207 -3.7300000190734863,-1.9630000591278076 -3.7300000190734863,-1.9630000591278076 C-3.7300000190734863,-2.1679999828338623 -3.565000057220459,-2.3340001106262207 -3.359999895095825,-2.3340001106262207 C-3.359999895095825,-2.3340001106262207 -0.0010000000474974513,-2.3340001106262207 -0.0010000000474974513,-2.3340001106262207"></path></g></g></g></svg>