<svg xmlns="http://www.w3.org/2000/svg" viewBox="0 0 88 93" width="88" height="93" preserveAspectRatio="xMidYMid meet" style="width: 100%; height: 100%; transform: translate3d(0px, 0px, 0px); content-visibility: visible;"><defs><clipPath id="__lottie_element_1896"><rect width="88" height="93" x="0" y="0"></rect></clipPath><clipPath id="__lottie_element_1899"><path d="M0,0 L9100,0 L9100,9100 L0,9100z"></path></clipPath></defs><g clip-path="url(#__lottie_element_1896)"><g clip-path="url(#__lottie_element_1899)" transform="matrix(0.257999986410141,0,0,0.257999986410141,-73.36416625976562,-1502.248046875)" opacity="1" style="display: block;"><g transform="matrix(7,0,0,7,278.4320068359375,5822.71875)" opacity="1" style="display: block;"><g opacity="1" transform="matrix(1,0,0,1,40.999000549316406,36.35100173950195)"><path fill="rgb(143,200,94)" fill-opacity="1" d=" M1.628000020980835,1.6150000095367432 C-0.8519999980926514,0.33799999952316284 -2.742000102996826,-0.6669999957084656 -2.742000102996826,-0.6669999957084656 C-2.742000102996826,-0.6669999957084656 -1.8639999628067017,-2.257999897003174 -1.8639999628067017,-2.257999897003174 C-1.8639999628067017,-2.257999897003174 2.742000102996826,0.2840000092983246 2.742000102996826,0.2840000092983246 C2.742000102996826,0.2840000092983246 3.296999931335449,2.4749999046325684 1.628000020980835,1.6150000095367432z"></path></g></g><g transform="matrix(6.828274250030518,-1.54099702835083,1.54099702835083,6.828274250030518,560.0665283203125,6032.69287109375)" opacity="1" style="display: block;"><g opacity="1" transform="matrix(1,0,0,1,5.125999927520752,1.8980000019073486)"><path fill="rgb(135,211,235)" fill-opacity="1" d=" M-0.6150000095367432,1.6480000019073486 C-0.34299999475479126,1.059999942779541 0.014999999664723873,0.828000009059906 0.42100000381469727,0.7300000190734863 C0.7419999837875366,0.6520000100135803 1.062000036239624,0.6650000214576721 1.3890000581741333,0.6660000085830688 C1.6109999418258667,0.6679999828338623 1.7799999713897705,0.5709999799728394 1.7419999837875366,0.3160000145435333 C1.715000033378601,0.13300000131130219 1.496000051498413,0.04800000041723251 1.3370000123977661,0.017000000923871994 C0.9589999914169312,-0.05700000002980232 0.5649999976158142,-0.04399999976158142 0.19300000369548798,0.054999999701976776 C0.19300000369548798,0.054999999701976776 0.6029999852180481,-0.6100000143051147 0.5789999961853027,-0.7419999837875366 C0.5059999823570251,-1.1460000276565552 -0.4950000047683716,-1.6480000019073486 -1.1180000305175781,-1.444000005722046 C-1.4709999561309814,-1.3279999494552612 -1.6729999780654907,0.5989999771118164 -1.7790000438690186,1.1039999723434448"></path></g><g opacity="1" transform="matrix(1,0,0,1,2.507999897003174,5.691999912261963)"><path fill="rgb(143,200,94)" fill-opacity="1" d=" M2.257999897003174,-2.2100000381469727 C2.257999897003174,-2.2100000381469727 0.7710000276565552,0.7929999828338623 -0.22699999809265137,2.5390000343322754 C-0.9620000123977661,3.7339999675750732 -2.328000068664551,2.671999931335449 -1.8179999589920044,1.6610000133514404 C-0.8980000019073486,-0.16300000250339508 0.6669999957084656,-3.0880000591278076 0.6669999957084656,-3.0880000591278076 C0.6669999957084656,-3.0880000591278076 2.257999897003174,-2.2100000381469727 2.257999897003174,-2.2100000381469727z"></path></g></g><g transform="matrix(7,0,0,7,278.4320068359375,5822.71875)" opacity="1" style="display: block;"><g opacity="1" transform="matrix(1,0,0,1,23.31800079345703,47.48400115966797)"><path fill="rgb(79,184,79)" fill-opacity="1" d=" M1.1890000104904175,-3.0369999408721924 C1.1890000104904175,-3.0369999408721924 -1.1890000104904175,-3.0369999408721924 -1.1890000104904175,-3.0369999408721924 C-1.1890000104904175,-3.0369999408721924 -1.8799999952316284,3.0369999408721924 -1.8799999952316284,3.0369999408721924 C-1.8799999952316284,3.0369999408721924 1.8799999952316284,3.0369999408721924 1.8799999952316284,3.0369999408721924 C1.8799999952316284,3.0369999408721924 1.1890000104904175,-3.0369999408721924 1.1890000104904175,-3.0369999408721924z"></path></g><g opacity="1" transform="matrix(1,0,0,1,0,0)"><path stroke-linecap="round" stroke-linejoin="round" fill-opacity="0" stroke="rgb(79,184,79)" stroke-opacity="1" stroke-width="0.8" d=" M23.31800079345703,46.36000061035156 C23.31800079345703,46.36000061035156 23.31800079345703,42.58599853515625 23.31800079345703,42.58599853515625"></path></g></g><g transform="matrix(7,0,0,7,278.4320068359375,5822.71875)" opacity="1" style="display: block;"><g opacity="1" transform="matrix(1,0,0,1,23.17300033569336,41.922000885009766)"><path fill="rgb(135,211,235)" fill-opacity="1" d=" M0.49300000071525574,-1.6419999599456787 C-0.10000000149011612,-1.149999976158142 -0.7870000004768372,-0.3840000033378601 -1.0509999990463257,0.22599999606609344 C-1.4040000438690186,1.0429999828338623 -0.19300000369548798,1.6419999599456787 0.4560000002384186,1.5089999437332153 C0.8209999799728394,1.434000015258789 1.2410000562667847,-0.4569999873638153 1.4040000438690186,-0.9470000267028809"></path></g><g opacity="1" transform="matrix(1,0,0,1,26.999000549316406,37.17900085449219)"><path fill="rgb(143,200,94)" fill-opacity="1" d=" M2.367000102996826,-4.2769999504089355 C2.367000102996826,-4.2769999504089355 -3.7660000324249268,3.117000102996826 -3.7660000324249268,3.117000102996826 C-3.7660000324249268,3.117000102996826 -2.367000102996826,4.2769999504089355 -2.367000102996826,4.2769999504089355 C-2.367000102996826,4.2769999504089355 3.7660000324249268,-3.117000102996826 3.7660000324249268,-3.117000102996826 C3.7660000324249268,-3.117000102996826 2.367000102996826,-4.2769999504089355 2.367000102996826,-4.2769999504089355z"></path></g></g><g transform="matrix(7,0,0,7,278.4320068359375,5822.71875)" opacity="1" style="display: block;"><g opacity="1" transform="matrix(1,0,0,1,33.79100036621094,37.599998474121094)"><path fill="rgb(143,200,94)" fill-opacity="1" d=" M7.923999786376953,7.124000072479248 C7.923999786376953,-0.7450000047683716 4.375999927520752,-7.124000072479248 -0.0010000000474974513,-7.124000072479248 C-4.376999855041504,-7.124000072479248 -7.923999786376953,-0.7450000047683716 -7.923999786376953,7.124000072479248 C-7.923999786376953,7.124000072479248 7.923999786376953,7.124000072479248 7.923999786376953,7.124000072479248z"></path></g><g opacity="1" transform="matrix(1,0,0,1,33.79100036621094,42.78900146484375)"><path fill="rgb(79,184,79)" fill-opacity="1" d=" M7.923999786376953,1.934999942779541 C7.923999786376953,1.934999942779541 4.375999927520752,-1.934999942779541 -0.0010000000474974513,-1.934999942779541 C-4.376999855041504,-1.934999942779541 -7.923999786376953,1.934999942779541 -7.923999786376953,1.934999942779541 C-7.923999786376953,1.934999942779541 7.923999786376953,1.934999942779541 7.923999786376953,1.934999942779541z"></path></g><g opacity="1" transform="matrix(1,0,0,1,36.2859992980957,37.599998474121094)"><path fill="rgb(143,200,94)" fill-opacity="1" d=" M5.427999973297119,7.124000072479248 C5.427999973297119,7.124000072479248 -0.8960000276565552,7.124000072479248 -2.8589999675750732,4.510000228881836 C-5.428999900817871,1.0880000591278076 -2.494999885559082,-7.124000072479248 -2.494999885559082,-7.124000072479248 C-2.494999885559082,-7.124000072479248 5.427999973297119,7.124000072479248 5.427999973297119,7.124000072479248z"></path></g><g opacity="1" transform="matrix(1,0,0,1,31.29599952697754,37.599998474121094)"><path fill="rgb(143,200,94)" fill-opacity="1" d=" M-5.427999973297119,7.124000072479248 C-5.427999973297119,7.124000072479248 0.8960000276565552,7.124000072479248 2.8589999675750732,4.510000228881836 C5.428999900817871,1.0880000591278076 2.494999885559082,-7.124000072479248 2.494999885559082,-7.124000072479248 C2.494999885559082,-7.124000072479248 -5.427999973297119,7.124000072479248 -5.427999973297119,7.124000072479248z"></path></g><g opacity="1" transform="matrix(1,0,0,1,33.79100036621094,34.79100036621094)"><path fill="rgb(79,184,79)" fill-opacity="1" d=" M0,0 C2.503999948501587,2.503999948501587 7.669000148773193,3.8350000381469727 7.669000148773193,3.8350000381469727 C7.669000148773193,-0.4009999930858612 4.236000061035156,-3.8350000381469727 0,-3.8350000381469727 C-4.236000061035156,-3.8350000381469727 -7.669000148773193,-0.4009999930858612 -7.669000148773193,3.8350000381469727 C-7.669000148773193,3.8350000381469727 -2.503999948501587,2.503999948501587 0,0z"></path></g><g opacity="1" transform="matrix(1,0,0,1,0,0)"><path stroke-linecap="round" stroke-linejoin="round" fill-opacity="0" stroke="rgb(79,184,79)" stroke-opacity="1" stroke-width="0.8" d=" M33.79100036621094,33.994998931884766 C33.79100036621094,33.994998931884766 33.79100036621094,43.59299850463867 33.79100036621094,43.59299850463867"></path></g></g><g transform="matrix(7,0,0,7,278.4320068359375,5822.71875)" opacity="1" style="display: block;"><g opacity="1" transform="matrix(1,0,0,1,37.82400131225586,46.55799865722656)"><path fill="rgb(143,200,94)" fill-opacity="1" d=" M-0.7639999985694885,3.1089999675750732 C-0.7639999985694885,3.1089999675750732 0.7639999985694885,3.1089999675750732 0.7639999985694885,3.1089999675750732 C0.7639999985694885,3.1089999675750732 0.7639999985694885,-3.1089999675750732 0.7639999985694885,-3.1089999675750732 C0.7639999985694885,-3.1089999675750732 -0.7639999985694885,-3.1089999675750732 -0.7639999985694885,-3.1089999675750732 C-0.7639999985694885,-3.1089999675750732 -0.7639999985694885,3.1089999675750732 -0.7639999985694885,3.1089999675750732z"></path></g><g opacity="1" transform="matrix(1,0,0,1,39.05099868774414,49.66699981689453)"><path fill="rgb(79,184,79)" fill-opacity="1" d=" M1.9889999628067017,0 C1.9889999628067017,0 -1.9889999628067017,-0.8539999723434448 -1.9889999628067017,-0.8539999723434448 C-1.9889999628067017,-0.8539999723434448 -1.9889999628067017,0.8539999723434448 -1.9889999628067017,0.8539999723434448 C-1.9889999628067017,0.8539999723434448 1.9889999628067017,0.8539999723434448 1.9889999628067017,0.8539999723434448 C1.9889999628067017,0.8539999723434448 1.9889999628067017,0 1.9889999628067017,0z"></path></g></g><g transform="matrix(7,0,0,7,284.69500732421875,5822.7158203125)" opacity="1" style="display: block;"><g opacity="1" transform="matrix(1,0,0,1,29.756000518798828,46.55799865722656)"><path fill="rgb(143,200,94)" fill-opacity="1" d=" M0.7639999985694885,3.1089999675750732 C0.7639999985694885,3.1089999675750732 -0.7639999985694885,3.1089999675750732 -0.7639999985694885,3.1089999675750732 C-0.7639999985694885,3.1089999675750732 -0.7639999985694885,-3.1089999675750732 -0.7639999985694885,-3.1089999675750732 C-0.7639999985694885,-3.1089999675750732 0.7639999985694885,-3.1089999675750732 0.7639999985694885,-3.1089999675750732 C0.7639999985694885,-3.1089999675750732 0.7639999985694885,3.1089999675750732 0.7639999985694885,3.1089999675750732z"></path></g><g opacity="1" transform="matrix(1,0,0,1,28.5310001373291,49.66699981689453)"><path fill="rgb(79,184,79)" fill-opacity="1" d=" M-1.9889999628067017,0 C-1.9889999628067017,0 1.9889999628067017,-0.8539999723434448 1.9889999628067017,-0.8539999723434448 C1.9889999628067017,-0.8539999723434448 1.9889999628067017,0.8539999723434448 1.9889999628067017,0.8539999723434448 C1.9889999628067017,0.8539999723434448 -1.9889999628067017,0.8539999723434448 -1.9889999628067017,0.8539999723434448 C-1.9889999628067017,0.8539999723434448 -1.9889999628067017,0 -1.9889999628067017,0z"></path></g></g><g transform="matrix(7,0,0,7,278.4320068359375,5822.71875)" opacity="1" style="display: block;"><g opacity="1" transform="matrix(1,0,0,1,33.790000915527344,29.996999740600586)"><path fill="rgb(135,211,235)" fill-opacity="1" d=" M4.074999809265137,0.6290000081062317 C4.074999809265137,-1.246000051498413 2.250999927520752,-3.4760000705718994 0.0010000000474974513,-3.4760000705718994 C-2.249000072479248,-3.4760000705718994 -4.074999809265137,-1.246000051498413 -4.074999809265137,0.6290000081062317 C-4.074999809265137,2.503999948501587 -2.249000072479248,3.4760000705718994 0.0010000000474974513,3.4760000705718994 C2.250999927520752,3.4760000705718994 4.074999809265137,2.503999948501587 4.074999809265137,0.6290000081062317z"></path></g><g opacity="1" transform="matrix(1,0,0,1,32.37300109863281,29.240999221801758)"><path fill="rgb(79,184,79)" fill-opacity="1" d=" M0.7639999985694885,0 C0.7639999985694885,-0.421999990940094 0.42100000381469727,-0.7639999985694885 -0.0010000000474974513,-0.7639999985694885 C-0.421999990940094,-0.7639999985694885 -0.7639999985694885,-0.421999990940094 -0.7639999985694885,0 C-0.7639999985694885,0.421999990940094 -0.421999990940094,0.7639999985694885 -0.0010000000474974513,0.7639999985694885 C0.42100000381469727,0.7639999985694885 0.7639999985694885,0.421999990940094 0.7639999985694885,0z"></path></g><g opacity="1" transform="matrix(1,0,0,1,35.20899963378906,29.240999221801758)"><path fill="rgb(79,184,79)" fill-opacity="1" d=" M-0.7639999985694885,0 C-0.7639999985694885,-0.421999990940094 -0.42100000381469727,-0.7639999985694885 0.0010000000474974513,-0.7639999985694885 C0.421999990940094,-0.7639999985694885 0.7639999985694885,-0.421999990940094 0.7639999985694885,0 C0.7639999985694885,0.421999990940094 0.421999990940094,0.7639999985694885 0.0010000000474974513,0.7639999985694885 C-0.42100000381469727,0.7639999985694885 -0.7639999985694885,0.421999990940094 -0.7639999985694885,0z"></path></g><g opacity="1" transform="matrix(1,0,0,1,33.79100036621094,31.586999893188477)"><path fill="rgb(79,184,79)" fill-opacity="1" d=" M1.7109999656677246,-0.5690000057220459 C1.7109999656677246,-0.5690000057220459 0.8920000195503235,-0.1080000028014183 0,-0.1080000028014183 C-0.8930000066757202,-0.1080000028014183 -1.7109999656677246,-0.5690000057220459 -1.7109999656677246,-0.5690000057220459 C-1.7109999656677246,-0.5690000057220459 -1.2230000495910645,0.5690000057220459 0,0.5690000057220459 C1.222000002861023,0.5690000057220459 1.7109999656677246,-0.5690000057220459 1.7109999656677246,-0.5690000057220459z"></path></g><g opacity="1" transform="matrix(1,0,0,1,33.79100036621094,29.99799919128418)"><path stroke-linecap="butt" stroke-linejoin="miter" fill-opacity="0" stroke-miterlimit="10" stroke="rgb(79,184,79)" stroke-opacity="1" stroke-width="0.5" d=" M0.8960000276565552,-0.7570000290870667 C0.8960000276565552,0.07900000363588333 0.4560000002384186,0.7570000290870667 0,0.7570000290870667 C-0.4569999873638153,0.7570000290870667 -0.8960000276565552,0.07900000363588333 -0.8960000276565552,-0.7570000290870667"></path></g><g opacity="1" transform="matrix(1,0,0,1,29.982999801635742,29.790000915527344)"><path fill="rgb(135,211,235)" fill-opacity="1" d=" M1.0520000457763672,0.4519999921321869 C1.2369999885559082,0.020999999716877937 0.9169999957084656,-0.531000018119812 0.335999995470047,-0.781000018119812 C-0.24500000476837158,-1.0299999713897705 -0.8659999966621399,-0.8830000162124634 -1.0520000457763672,-0.4519999921321869 C-1.2369999885559082,-0.020999999716877937 -0.9160000085830688,0.531000018119812 -0.33500000834465027,0.7799999713897705 C0.2460000067949295,1.0299999713897705 0.8669999837875366,0.8830000162124634 1.0520000457763672,0.4519999921321869z"></path></g><g opacity="1" transform="matrix(1,0,0,1,37.597999572753906,29.790000915527344)"><path fill="rgb(135,211,235)" fill-opacity="1" d=" M-1.0520000457763672,0.4519999921321869 C-1.2369999885559082,0.020999999716877937 -0.9169999957084656,-0.531000018119812 -0.335999995470047,-0.781000018119812 C0.24500000476837158,-1.0299999713897705 0.8659999966621399,-0.8830000162124634 1.0520000457763672,-0.4519999921321869 C1.2369999885559082,-0.020999999716877937 0.9160000085830688,0.531000018119812 0.33500000834465027,0.7799999713897705 C-0.2460000067949295,1.0299999713897705 -0.8669999837875366,0.8830000162124634 -1.0520000457763672,0.4519999921321869z"></path></g></g><g transform="matrix(7,0,0,7,278.4320068359375,5822.71875)" opacity="1" style="display: block;"><g opacity="1" transform="matrix(1,0,0,1,33.79100036621094,23.60099983215332)"><path fill="rgb(143,200,94)" fill-opacity="1" d=" M3.3440001010894775,-4.033999919891357 C3.3440001010894775,-4.033999919891357 -3.3440001010894775,-4.033999919891357 -3.3440001010894775,-4.033999919891357 C-3.3440001010894775,-4.033999919891357 -2.688999891281128,4.033999919891357 -2.688999891281128,4.033999919891357 C-2.688999891281128,4.033999919891357 2.688999891281128,4.033999919891357 2.688999891281128,4.033999919891357 C2.688999891281128,4.033999919891357 3.3440001010894775,-4.033999919891357 3.3440001010894775,-4.033999919891357z"></path></g><g opacity="1" transform="matrix(1,0,0,1,33.79100036621094,25.36400032043457)"><path fill="rgb(79,184,79)" fill-opacity="1" d=" M2.753000020980835,1.496000051498413 C2.753000020980835,1.496000051498413 2.994999885559082,-1.496000051498413 2.994999885559082,-1.496000051498413 C2.994999885559082,-1.496000051498413 -2.994999885559082,-1.496000051498413 -2.994999885559082,-1.496000051498413 C-2.994999885559082,-1.496000051498413 -2.753000020980835,1.496000051498413 -2.753000020980835,1.496000051498413 C-2.753000020980835,1.496000051498413 2.753000020980835,1.496000051498413 2.753000020980835,1.496000051498413z"></path></g><g opacity="1" transform="matrix(1,0,0,1,33.79100036621094,26.861000061035156)"><path fill="rgb(143,200,94)" fill-opacity="1" d=" M3.999000072479248,-0.7749999761581421 C3.999000072479248,-0.7749999761581421 -3.999000072479248,-0.7749999761581421 -3.999000072479248,-0.7749999761581421 C-3.999000072479248,-0.7749999761581421 -3.999000072479248,0.7749999761581421 -3.999000072479248,0.7749999761581421 C-3.999000072479248,0.7749999761581421 3.999000072479248,0.7749999761581421 3.999000072479248,0.7749999761581421 C3.999000072479248,0.7749999761581421 3.999000072479248,-0.7749999761581421 3.999000072479248,-0.7749999761581421z"></path></g></g></g><g transform="matrix(1.8059998750686646,0,0,1.8059998750686646,0.08839916437864304,0.013044685125350952)" opacity="1" style="display: block;"><g opacity="1" transform="matrix(1,0,0,1,0,0)"><path stroke-linecap="butt" stroke-linejoin="miter" fill-opacity="0" stroke-miterlimit="10" stroke="rgb(159,137,60)" stroke-opacity="1" stroke-width="2.5" d=" M14.66100025177002,20.804000854492188 C14.66100025177002,20.804000854492188 14.66100025177002,49.49399948120117 14.66100025177002,49.49399948120117"></path></g><g opacity="1" transform="matrix(1,0,0,1,14.66100025177002,48.393001556396484)"><path fill="rgb(79,184,79)" fill-opacity="1" d=" M0,2.2109999656677246 C-3.7699999809265137,2.2109999656677246 -5.708000183105469,1.9839999675750732 -5.708000183105469,1.8070000410079956 C-5.708000183105469,0.01600000075995922 -3.1519999504089355,-2.2109999656677246 0,-2.2109999656677246 C3.1519999504089355,-2.2109999656677246 5.708000183105469,0.01600000075995922 5.708000183105469,1.8070000410079956 C5.708000183105469,1.9839999675750732 3.7699999809265137,2.2109999656677246 0,2.2109999656677246z"></path></g><g opacity="1" transform="matrix(1,0,0,1,14.66100025177002,20.666000366210938)"><path fill="rgb(79,184,79)" fill-opacity="1" d=" M14.10200023651123,19.236000061035156 C14.10200023651123,19.236000061035156 8.437000274658203,9.6850004196167 8.437000274658203,9.6850004196167 C8.128000259399414,9.163999557495117 8.503999710083008,8.505000114440918 9.109000205993652,8.505000114440918 C9.109000205993652,8.505000114440918 11.592000007629395,8.505000114440918 11.592000007629395,8.505000114440918 C12.197999954223633,8.505000114440918 12.572999954223633,7.8460001945495605 12.263999938964844,7.324999809265137 C12.263999938964844,7.324999809265137 7.482999801635742,-0.7360000014305115 7.482999801635742,-0.7360000014305115 C7.173999786376953,-1.2569999694824219 7.550000190734863,-1.9160000085830688 8.154999732971191,-1.9160000085830688 C8.154999732971191,-1.9160000085830688 9.970000267028809,-1.9160000085830688 9.970000267028809,-1.9160000085830688 C10.576000213623047,-1.9160000085830688 10.951000213623047,-2.575000047683716 10.642000198364258,-3.0959999561309814 C10.642000198364258,-3.0959999561309814 0.671999990940094,-19.9060001373291 0.671999990940094,-19.9060001373291 C0.36899998784065247,-20.416000366210938 -0.36899998784065247,-20.416000366210938 -0.671999990940094,-19.9060001373291 C-0.671999990940094,-19.9060001373291 -10.642000198364258,-3.0959999561309814 -10.642000198364258,-3.0959999561309814 C-10.951000213623047,-2.575000047683716 -10.576000213623047,-1.9160000085830688 -9.970000267028809,-1.9160000085830688 C-9.970000267028809,-1.9160000085830688 -8.154999732971191,-1.9160000085830688 -8.154999732971191,-1.9160000085830688 C-7.550000190734863,-1.9160000085830688 -7.173999786376953,-1.2569999694824219 -7.482999801635742,-0.7360000014305115 C-7.482999801635742,-0.7360000014305115 -12.263999938964844,7.324999809265137 -12.263999938964844,7.324999809265137 C-12.572999954223633,7.8460001945495605 -12.197999954223633,8.505000114440918 -11.592000007629395,8.505000114440918 C-11.592000007629395,8.505000114440918 -9.109000205993652,8.505000114440918 -9.109000205993652,8.505000114440918 C-8.503999710083008,8.505000114440918 -8.128000259399414,9.163999557495117 -8.437000274658203,9.6850004196167 C-8.437000274658203,9.6850004196167 -14.10200023651123,19.236000061035156 -14.10200023651123,19.236000061035156 C-14.41100025177002,19.756999969482422 -14.03499984741211,20.416000366210938 -13.430000305175781,20.416000366210938 C-13.430000305175781,20.416000366210938 13.430000305175781,20.416000366210938 13.430000305175781,20.416000366210938 C14.03600025177002,20.416000366210938 14.41100025177002,19.756999969482422 14.10200023651123,19.236000061035156z"></path></g><g opacity="1" transform="matrix(1,0,0,1,14.66100025177002,31.229999542236328)"><path stroke-linecap="round" stroke-linejoin="round" fill-opacity="0" stroke="rgb(68,169,72)" stroke-opacity="1" stroke-width="1.3" d=" M1.5959999561309814,-0.4350000023841858 C1.5959999561309814,-0.4350000023841858 0.6990000009536743,0.4350000023841858 0.0010000000474974513,0.4350000023841858 C-0.6980000138282776,0.4350000023841858 -1.5959999561309814,-0.4350000023841858 -1.5959999561309814,-0.4350000023841858"></path></g><g opacity="1" transform="matrix(1,0,0,1,9.392000198364258,26.01300048828125)"><path stroke-linecap="round" stroke-linejoin="round" fill-opacity="0" stroke="rgb(68,169,72)" stroke-opacity="1" stroke-width="1.3" d=" M1.5959999561309814,-0.4350000023841858 C1.5959999561309814,-0.4350000023841858 0.6990000009536743,0.4350000023841858 0.0010000000474974513,0.4350000023841858 C-0.6980000138282776,0.4350000023841858 -1.5959999561309814,-0.4350000023841858 -1.5959999561309814,-0.4350000023841858"></path></g><g opacity="1" transform="matrix(1,0,0,1,19.93000030517578,26.01300048828125)"><path stroke-linecap="round" stroke-linejoin="round" fill-opacity="0" stroke="rgb(68,169,72)" stroke-opacity="1" stroke-width="1.3" d=" M1.5959999561309814,-0.4350000023841858 C1.5959999561309814,-0.4350000023841858 0.6990000009536743,0.4350000023841858 0.0010000000474974513,0.4350000023841858 C-0.6980000138282776,0.4350000023841858 -1.5959999561309814,-0.4350000023841858 -1.5959999561309814,-0.4350000023841858"></path></g><g opacity="1" transform="matrix(1,0,0,1,19.93000030517578,36.446998596191406)"><path stroke-linecap="round" stroke-linejoin="round" fill-opacity="0" stroke="rgb(68,169,72)" stroke-opacity="1" stroke-width="1.3" d=" M1.5959999561309814,-0.4350000023841858 C1.5959999561309814,-0.4350000023841858 0.6990000009536743,0.4350000023841858 0.0010000000474974513,0.4350000023841858 C-0.6980000138282776,0.4350000023841858 -1.5959999561309814,-0.4350000023841858 -1.5959999561309814,-0.4350000023841858"></path></g><g opacity="1" transform="matrix(1,0,0,1,9.392000198364258,36.446998596191406)"><path stroke-linecap="round" stroke-linejoin="round" fill-opacity="0" stroke="rgb(68,169,72)" stroke-opacity="1" stroke-width="1.3" d=" M1.5959999561309814,-0.4350000023841858 C1.5959999561309814,-0.4350000023841858 0.6990000009536743,0.4350000023841858 0.0010000000474974513,0.4350000023841858 C-0.6980000138282776,0.4350000023841858 -1.5959999561309814,-0.4350000023841858 -1.5959999561309814,-0.4350000023841858"></path></g><g opacity="1" transform="matrix(1,0,0,1,14.66100025177002,20.79599952697754)"><path stroke-linecap="round" stroke-linejoin="round" fill-opacity="0" stroke="rgb(68,169,72)" stroke-opacity="1" stroke-width="1.3" d=" M1.5959999561309814,-0.4350000023841858 C1.5959999561309814,-0.4350000023841858 0.6990000009536743,0.4350000023841858 0.0010000000474974513,0.4350000023841858 C-0.6980000138282776,0.4350000023841858 -1.5959999561309814,-0.4350000023841858 -1.5959999561309814,-0.4350000023841858"></path></g></g></g></svg>