<svg xmlns="http://www.w3.org/2000/svg" viewBox="0 0 28 102" width="28" height="102" preserveAspectRatio="xMidYMid meet" style="width: 100%; height: 100%; transform: translate3d(0px, 0px, 0px); content-visibility: visible;"><defs><clipPath id="__lottie_element_3063"><rect width="28" height="102" x="0" y="0"></rect></clipPath></defs><g clip-path="url(#__lottie_element_3063)"><g transform="matrix(0.3330000042915344,0,0,0.3330000042915344,-216.0107421875,0.759955644607544)" opacity="1" style="display: block;"><g opacity="1" transform="matrix(1,0,0,1,655.7769775390625,154.61199951171875)"><path fill="rgb(255,238,207)" fill-opacity="1" d=" M3,146.88699340820312 C3,146.88699340820312 3,-146.88699340820312 3,-146.88699340820312 C3,-146.88699340820312 -3,-146.88699340820312 -3,-146.88699340820312 C-3,-146.88699340820312 -3,146.88699340820312 -3,146.88699340820312"></path></g><g opacity="1" transform="matrix(1,0,0,1,655.7930297851562,6.0370001792907715)"><path fill="rgb(255,238,207)" fill-opacity="1" d=" M5.7870001792907715,0 C5.7870001792907715,-3.196000099182129 3.196000099182129,-5.785999774932861 0,-5.785999774932861 C-3.196000099182129,-5.785999774932861 -5.7870001792907715,-3.196000099182129 -5.7870001792907715,0 C-5.7870001792907715,3.194999933242798 -3.196000099182129,5.785999774932861 0,5.785999774932861 C3.196000099182129,5.785999774932861 5.7870001792907715,3.194999933242798 5.7870001792907715,0z"></path></g></g><g transform="matrix(0.33254364132881165,-0.017427872866392136,0.017427872866392136,0.33254364132881165,-216.284912109375,12.203944206237793)" opacity="1" style="display: block;"><g opacity="1" transform="matrix(1,0,0,1,693.0579833984375,32.93000030517578)"><path fill="rgb(238,235,234)" fill-opacity="1" d=" M37.26499938964844,-21.106000900268555 C37.26499938964844,-21.106000900268555 -37.26499938964844,-21.106000900268555 -37.26499938964844,-21.106000900268555 C-37.26499938964844,-21.106000900268555 -37.26499938964844,21.106000900268555 -37.26499938964844,21.106000900268555 C-37.26499938964844,21.106000900268555 37.26499938964844,21.106000900268555 37.26499938964844,21.106000900268555 C37.26499938964844,21.106000900268555 37.26499938964844,-21.106000900268555 37.26499938964844,-21.106000900268555z"></path></g><g opacity="1" transform="matrix(1,0,0,1,693.0579833984375,16.045000076293945)"><path fill="rgb(193,66,60)" fill-opacity="1" d=" M37.26499938964844,-4.2210001945495605 C37.26499938964844,-4.2210001945495605 -37.26499938964844,-4.2210001945495605 -37.26499938964844,-4.2210001945495605 C-37.26499938964844,-4.2210001945495605 -37.26499938964844,4.2210001945495605 -37.26499938964844,4.2210001945495605 C-37.26499938964844,4.2210001945495605 37.26499938964844,4.2210001945495605 37.26499938964844,4.2210001945495605 C37.26499938964844,4.2210001945495605 37.26499938964844,-4.2210001945495605 37.26499938964844,-4.2210001945495605z"></path></g><g opacity="1" transform="matrix(1,0,0,1,693.0579833984375,32.92900085449219)"><path fill="rgb(193,66,60)" fill-opacity="1" d=" M37.26499938964844,-4.2210001945495605 C37.26499938964844,-4.2210001945495605 -37.26499938964844,-4.2210001945495605 -37.26499938964844,-4.2210001945495605 C-37.26499938964844,-4.2210001945495605 -37.26499938964844,4.2210001945495605 -37.26499938964844,4.2210001945495605 C-37.26499938964844,4.2210001945495605 37.26499938964844,4.2210001945495605 37.26499938964844,4.2210001945495605 C37.26499938964844,4.2210001945495605 37.26499938964844,-4.2210001945495605 37.26499938964844,-4.2210001945495605z"></path></g><g opacity="1" transform="matrix(1,0,0,1,693.0579833984375,49.81399917602539)"><path fill="rgb(193,66,60)" fill-opacity="1" d=" M37.26499938964844,-4.2210001945495605 C37.26499938964844,-4.2210001945495605 -37.26499938964844,-4.2210001945495605 -37.26499938964844,-4.2210001945495605 C-37.26499938964844,-4.2210001945495605 -37.26499938964844,4.2210001945495605 -37.26499938964844,4.2210001945495605 C-37.26499938964844,4.2210001945495605 37.26499938964844,4.2210001945495605 37.26499938964844,4.2210001945495605 C37.26499938964844,4.2210001945495605 37.26499938964844,-4.2210001945495605 37.26499938964844,-4.2210001945495605z"></path></g><g opacity="1" transform="matrix(1,0,0,1,671.93798828125,24.48699951171875)"><path fill="rgb(17,128,195)" fill-opacity="1" d=" M-16.145000457763672,12.663999557495117 C-16.145000457763672,12.663999557495117 16.145000457763672,12.663999557495117 16.145000457763672,12.663999557495117 C16.145000457763672,12.663999557495117 16.145000457763672,-12.663999557495117 16.145000457763672,-12.663999557495117 C16.145000457763672,-12.663999557495117 -16.145000457763672,-12.663999557495117 -16.145000457763672,-12.663999557495117 C-16.145000457763672,-12.663999557495117 -16.145000457763672,12.663999557495117 -16.145000457763672,12.663999557495117z"></path></g><g opacity="1" transform="matrix(1,0,0,1,661.625,17.472000122070312)"><path fill="rgb(255,255,255)" fill-opacity="1" d=" M0,-2.7939999103546143 C0,-2.7939999103546143 0.9309999942779541,-0.9860000014305115 0.9309999942779541,-0.9860000014305115 C0.9309999942779541,-0.9860000014305115 2.937999963760376,-0.6600000262260437 2.937999963760376,-0.6600000262260437 C2.937999963760376,-0.6600000262260437 1.50600004196167,0.7839999794960022 1.50600004196167,0.7839999794960022 C1.50600004196167,0.7839999794960022 1.815000057220459,2.7939999103546143 1.815000057220459,2.7939999103546143 C1.815000057220459,2.7939999103546143 0,1.878999948501587 0,1.878999948501587 C0,1.878999948501587 -1.815000057220459,2.7939999103546143 -1.815000057220459,2.7939999103546143 C-1.815000057220459,2.7939999103546143 -1.50600004196167,0.7839999794960022 -1.50600004196167,0.7839999794960022 C-1.50600004196167,0.7839999794960022 -2.937999963760376,-0.6600000262260437 -2.937999963760376,-0.6600000262260437 C-2.937999963760376,-0.6600000262260437 -0.9309999942779541,-0.9860000014305115 -0.9309999942779541,-0.9860000014305115 C-0.9309999942779541,-0.9860000014305115 0,-2.7939999103546143 0,-2.7939999103546143z"></path></g><g opacity="1" transform="matrix(1,0,0,1,671.93798828125,17.472000122070312)"><path fill="rgb(255,255,255)" fill-opacity="1" d=" M0,-2.7939999103546143 C0,-2.7939999103546143 0.9309999942779541,-0.9860000014305115 0.9309999942779541,-0.9860000014305115 C0.9309999942779541,-0.9860000014305115 2.937999963760376,-0.6600000262260437 2.937999963760376,-0.6600000262260437 C2.937999963760376,-0.6600000262260437 1.50600004196167,0.7839999794960022 1.50600004196167,0.7839999794960022 C1.50600004196167,0.7839999794960022 1.8140000104904175,2.7939999103546143 1.8140000104904175,2.7939999103546143 C1.8140000104904175,2.7939999103546143 0,1.878999948501587 0,1.878999948501587 C0,1.878999948501587 -1.815999984741211,2.7939999103546143 -1.815999984741211,2.7939999103546143 C-1.815999984741211,2.7939999103546143 -1.5069999694824219,0.7839999794960022 -1.5069999694824219,0.7839999794960022 C-1.5069999694824219,0.7839999794960022 -2.937999963760376,-0.6600000262260437 -2.937999963760376,-0.6600000262260437 C-2.937999963760376,-0.6600000262260437 -0.9319999814033508,-0.9860000014305115 -0.9319999814033508,-0.9860000014305115 C-0.9319999814033508,-0.9860000014305115 0,-2.7939999103546143 0,-2.7939999103546143z"></path></g><g opacity="1" transform="matrix(1,0,0,1,682.25,17.472000122070312)"><path fill="rgb(255,255,255)" fill-opacity="1" d=" M0,-2.7939999103546143 C0,-2.7939999103546143 0.9319999814033508,-0.9860000014305115 0.9319999814033508,-0.9860000014305115 C0.9319999814033508,-0.9860000014305115 2.937999963760376,-0.6600000262260437 2.937999963760376,-0.6600000262260437 C2.937999963760376,-0.6600000262260437 1.5069999694824219,0.7839999794960022 1.5069999694824219,0.7839999794960022 C1.5069999694824219,0.7839999794960022 1.815000057220459,2.7939999103546143 1.815000057220459,2.7939999103546143 C1.815000057220459,2.7939999103546143 0,1.878999948501587 0,1.878999948501587 C0,1.878999948501587 -1.815000057220459,2.7939999103546143 -1.815000057220459,2.7939999103546143 C-1.815000057220459,2.7939999103546143 -1.50600004196167,0.7839999794960022 -1.50600004196167,0.7839999794960022 C-1.50600004196167,0.7839999794960022 -2.937999963760376,-0.6600000262260437 -2.937999963760376,-0.6600000262260437 C-2.937999963760376,-0.6600000262260437 -0.9309999942779541,-0.9860000014305115 -0.9309999942779541,-0.9860000014305115 C-0.9309999942779541,-0.9860000014305115 0,-2.7939999103546143 0,-2.7939999103546143z"></path></g><g opacity="1" transform="matrix(1,0,0,1,661.625,31.135000228881836)"><path fill="rgb(255,255,255)" fill-opacity="1" d=" M0,-2.7939999103546143 C0,-2.7939999103546143 0.9309999942779541,-0.9860000014305115 0.9309999942779541,-0.9860000014305115 C0.9309999942779541,-0.9860000014305115 2.937999963760376,-0.6589999794960022 2.937999963760376,-0.6589999794960022 C2.937999963760376,-0.6589999794960022 1.50600004196167,0.7839999794960022 1.50600004196167,0.7839999794960022 C1.50600004196167,0.7839999794960022 1.815000057220459,2.7939999103546143 1.815000057220459,2.7939999103546143 C1.815000057220459,2.7939999103546143 0,1.878999948501587 0,1.878999948501587 C0,1.878999948501587 -1.815000057220459,2.7939999103546143 -1.815000057220459,2.7939999103546143 C-1.815000057220459,2.7939999103546143 -1.50600004196167,0.7839999794960022 -1.50600004196167,0.7839999794960022 C-1.50600004196167,0.7839999794960022 -2.937999963760376,-0.6589999794960022 -2.937999963760376,-0.6589999794960022 C-2.937999963760376,-0.6589999794960022 -0.9309999942779541,-0.9860000014305115 -0.9309999942779541,-0.9860000014305115 C-0.9309999942779541,-0.9860000014305115 0,-2.7939999103546143 0,-2.7939999103546143z"></path></g><g opacity="1" transform="matrix(1,0,0,1,671.93798828125,31.135000228881836)"><path fill="rgb(255,255,255)" fill-opacity="1" d=" M0,-2.7939999103546143 C0,-2.7939999103546143 0.9309999942779541,-0.9860000014305115 0.9309999942779541,-0.9860000014305115 C0.9309999942779541,-0.9860000014305115 2.937999963760376,-0.6589999794960022 2.937999963760376,-0.6589999794960022 C2.937999963760376,-0.6589999794960022 1.50600004196167,0.7839999794960022 1.50600004196167,0.7839999794960022 C1.50600004196167,0.7839999794960022 1.8140000104904175,2.7939999103546143 1.8140000104904175,2.7939999103546143 C1.8140000104904175,2.7939999103546143 0,1.878999948501587 0,1.878999948501587 C0,1.878999948501587 -1.815999984741211,2.7939999103546143 -1.815999984741211,2.7939999103546143 C-1.815999984741211,2.7939999103546143 -1.5069999694824219,0.7839999794960022 -1.5069999694824219,0.7839999794960022 C-1.5069999694824219,0.7839999794960022 -2.937999963760376,-0.6589999794960022 -2.937999963760376,-0.6589999794960022 C-2.937999963760376,-0.6589999794960022 -0.9319999814033508,-0.9860000014305115 -0.9319999814033508,-0.9860000014305115 C-0.9319999814033508,-0.9860000014305115 0,-2.7939999103546143 0,-2.7939999103546143z"></path></g><g opacity="1" transform="matrix(1,0,0,1,682.25,31.135000228881836)"><path fill="rgb(255,255,255)" fill-opacity="1" d=" M0,-2.7939999103546143 C0,-2.7939999103546143 0.9319999814033508,-0.9860000014305115 0.9319999814033508,-0.9860000014305115 C0.9319999814033508,-0.9860000014305115 2.937999963760376,-0.6589999794960022 2.937999963760376,-0.6589999794960022 C2.937999963760376,-0.6589999794960022 1.5069999694824219,0.7839999794960022 1.5069999694824219,0.7839999794960022 C1.5069999694824219,0.7839999794960022 1.815000057220459,2.7939999103546143 1.815000057220459,2.7939999103546143 C1.815000057220459,2.7939999103546143 0,1.878999948501587 0,1.878999948501587 C0,1.878999948501587 -1.815000057220459,2.7939999103546143 -1.815000057220459,2.7939999103546143 C-1.815000057220459,2.7939999103546143 -1.50600004196167,0.7839999794960022 -1.50600004196167,0.7839999794960022 C-1.50600004196167,0.7839999794960022 -2.937999963760376,-0.6589999794960022 -2.937999963760376,-0.6589999794960022 C-2.937999963760376,-0.6589999794960022 -0.9309999942779541,-0.9860000014305115 -0.9309999942779541,-0.9860000014305115 C-0.9309999942779541,-0.9860000014305115 0,-2.7939999103546143 0,-2.7939999103546143z"></path></g><g opacity="1" transform="matrix(1,0,0,1,677.093994140625,24.30299949645996)"><path fill="rgb(255,255,255)" fill-opacity="1" d=" M0,-2.7939999103546143 C0,-2.7939999103546143 0.9319999814033508,-0.9869999885559082 0.9319999814033508,-0.9869999885559082 C0.9319999814033508,-0.9869999885559082 2.937999963760376,-0.6589999794960022 2.937999963760376,-0.6589999794960022 C2.937999963760376,-0.6589999794960022 1.5069999694824219,0.7839999794960022 1.5069999694824219,0.7839999794960022 C1.5069999694824219,0.7839999794960022 1.815000057220459,2.7939999103546143 1.815000057220459,2.7939999103546143 C1.815000057220459,2.7939999103546143 0,1.878999948501587 0,1.878999948501587 C0,1.878999948501587 -1.815000057220459,2.7939999103546143 -1.815000057220459,2.7939999103546143 C-1.815000057220459,2.7939999103546143 -1.50600004196167,0.7839999794960022 -1.50600004196167,0.7839999794960022 C-1.50600004196167,0.7839999794960022 -2.937999963760376,-0.6589999794960022 -2.937999963760376,-0.6589999794960022 C-2.937999963760376,-0.6589999794960022 -0.9309999942779541,-0.9869999885559082 -0.9309999942779541,-0.9869999885559082 C-0.9309999942779541,-0.9869999885559082 0,-2.7939999103546143 0,-2.7939999103546143z"></path></g><g opacity="1" transform="matrix(1,0,0,1,666.781982421875,24.30299949645996)"><path fill="rgb(255,255,255)" fill-opacity="1" d=" M0,-2.7939999103546143 C0,-2.7939999103546143 0.9309999942779541,-0.9869999885559082 0.9309999942779541,-0.9869999885559082 C0.9309999942779541,-0.9869999885559082 2.937999963760376,-0.6589999794960022 2.937999963760376,-0.6589999794960022 C2.937999963760376,-0.6589999794960022 1.50600004196167,0.7839999794960022 1.50600004196167,0.7839999794960022 C1.50600004196167,0.7839999794960022 1.815000057220459,2.7939999103546143 1.815000057220459,2.7939999103546143 C1.815000057220459,2.7939999103546143 0,1.878999948501587 0,1.878999948501587 C0,1.878999948501587 -1.815000057220459,2.7939999103546143 -1.815000057220459,2.7939999103546143 C-1.815000057220459,2.7939999103546143 -1.50600004196167,0.7839999794960022 -1.50600004196167,0.7839999794960022 C-1.50600004196167,0.7839999794960022 -2.937999963760376,-0.6589999794960022 -2.937999963760376,-0.6589999794960022 C-2.937999963760376,-0.6589999794960022 -0.9309999942779541,-0.9869999885559082 -0.9309999942779541,-0.9869999885559082 C-0.9309999942779541,-0.9869999885559082 0,-2.7939999103546143 0,-2.7939999103546143z"></path></g></g></g></svg>