<svg xmlns="http://www.w3.org/2000/svg" viewBox="0 0 97 88" width="97" height="88" preserveAspectRatio="xMidYMid meet" style="width: 100%; height: 100%; transform: translate3d(0px, 0px, 0px); content-visibility: visible;"><defs><clipPath id="__lottie_element_2040"><rect width="97" height="88" x="0" y="0"></rect></clipPath><mask id="__lottie_element_2052" mask-type="alpha"><g transform="matrix(1.8059998750686646,0,0,1.8059998750686646,-21.093425750732422,-0.29421132802963257)" opacity="1" style="display: block;"><g opacity="1" transform="matrix(1,0,0,1,38.54999923706055,31.95199966430664)"><path fill="rgb(245,156,156)" fill-opacity="1" d=" M23.548999786376953,0 C23.548999786376953,-7.560999870300293 13.005999565124512,-13.690999984741211 0,-13.690999984741211 C-13.005999565124512,-13.690999984741211 -23.548999786376953,-7.560999870300293 -23.548999786376953,0 C-23.548999786376953,7.560999870300293 -13.005999565124512,13.690999984741211 0,13.690999984741211 C13.005999565124512,13.690999984741211 23.548999786376953,7.560999870300293 23.548999786376953,0z"></path></g></g></mask></defs><g clip-path="url(#__lottie_element_2040)"><g transform="matrix(1.8059998750686646,0,0,1.8059998750686646,-21.093425750732422,-0.29421132802963257)" opacity="1" style="display: block;"><g opacity="1" transform="matrix(1,0,0,1,57.071998596191406,10.878000259399414)"><path fill="rgb(245,156,156)" fill-opacity="1" d=" M-5.275000095367432,7.144000053405762 C-5.250999927520752,5.550000190734863 -6.057000160217285,4.080999851226807 -6.656000137329102,2.6029999256134033 C-7.1519999504089355,1.378000020980835 -7.61899995803833,-0.23899999260902405 -7.059000015258789,-1.524999976158142 C-6.546999931335449,-2.697000026702881 -5.193999767303467,-3.171999931335449 -4.053999900817871,-2.562000036239624 C-3.296999931335449,-2.1570000648498535 -2.75,-1.4539999961853027 -2.2279999256134033,-0.7720000147819519 C-2.2279999256134033,-0.7720000147819519 -3.61899995803833,-5.875 -2.0959999561309814,-8.604999542236328 C-1.4500000476837158,-9.762999534606934 -0.11900000274181366,-10.628000259399414 1.1779999732971191,-10.350000381469727 C1.7369999885559082,-10.229999542236328 2.240999937057495,-9.914999961853027 2.6589999198913574,-9.524999618530273 C3.9670000076293945,-8.305999755859375 4.449999809265137,-6.396999835968018 4.328999996185303,-4.61299991607666 C4.208000183105469,-2.8289999961853027 3.558000087738037,-1.128000020980835 2.8940000534057617,0.5320000052452087 C3.5759999752044678,-0.5320000052452087 5.232999801635742,-0.6660000085830688 6.242000102996826,0.09600000083446503 C7.25,0.8579999804496765 7.61899995803833,2.2660000324249268 7.388999938964844,3.507999897003174 C7.158999919891357,4.750999927520752 6.418000221252441,5.843999862670898 5.556000232696533,6.76800012588501 C4.693999767303467,7.691999912261963 3.444000005722046,8.857000350952148 2.055999994277954,10.628000259399414"></path></g><g opacity="1" transform="matrix(1,0,0,1,56.8390007019043,12.970000267028809)"><path stroke-linecap="round" stroke-linejoin="round" fill-opacity="0" stroke="rgb(141,124,142)" stroke-opacity="1" stroke-width="1" d=" M0.6769999861717224,-6.764999866485596 C0.6980000138282776,-3.1510000228881836 0.10300000011920929,4.083000183105469 -0.6980000138282776,6.764999866485596"></path></g><g opacity="1" transform="matrix(1,0,0,1,57.202999114990234,14.857999801635742)"><path stroke-linecap="round" stroke-linejoin="round" fill-opacity="0" stroke="rgb(141,124,142)" stroke-opacity="1" stroke-width="1" d=" M-3.938999891281128,-2.4019999504089355 C-3.2980000972747803,-0.7490000128746033 -1.8220000267028809,1.1710000038146973 -0.5460000038146973,2.4019999504089355 C-0.5460000038146973,2.4019999504089355 2.2300000190734863,1.3329999446868896 3.938999891281128,-0.5870000123977661"></path></g><g opacity="1" transform="matrix(1,0,0,1,38.54999923706055,31.95199966430664)"><path stroke-linecap="butt" stroke-linejoin="miter" fill-opacity="0" stroke-miterlimit="10" stroke="rgb(143,200,94)" stroke-opacity="1" stroke-width="6" d=" M23.548999786376953,0 C23.548999786376953,-7.560999870300293 13.005999565124512,-13.690999984741211 0,-13.690999984741211 C-13.005999565124512,-13.690999984741211 -23.548999786376953,-7.560999870300293 -23.548999786376953,0 C-23.548999786376953,7.560999870300293 -13.005999565124512,13.690999984741211 0,13.690999984741211 C13.005999565124512,13.690999984741211 23.548999786376953,7.560999870300293 23.548999786376953,0z"></path></g></g><g transform="matrix(1.8059998750686646,0,0,1.8059998750686646,-21.093425750732422,-0.29421132802963257)" opacity="1" style="display: block;"><g opacity="1" transform="matrix(1,0,0,1,38.54999923706055,31.95199966430664)"><path fill="rgb(245,156,156)" fill-opacity="1" d=" M23.548999786376953,0 C23.548999786376953,-7.560999870300293 13.005999565124512,-13.690999984741211 0,-13.690999984741211 C-13.005999565124512,-13.690999984741211 -23.548999786376953,-7.560999870300293 -23.548999786376953,0 C-23.548999786376953,7.560999870300293 -13.005999565124512,13.690999984741211 0,13.690999984741211 C13.005999565124512,13.690999984741211 23.548999786376953,7.560999870300293 23.548999786376953,0z"></path></g></g><g mask="url(#__lottie_element_2052)" style="display: block;"><g transform="matrix(1.9616461992263794,0,0,3.1849558353424072,-27.09343719482422,-46.90522766113281)" opacity="1"><g opacity="1" transform="matrix(1,0,0,1,31.753999710083008,25.31399917602539)"><path fill="rgb(248,190,189)" fill-opacity="1" d=" M1.0360000133514404,-6.638999938964844 C-1.8179999589920044,-6.2220001220703125 -4.4629998207092285,-5.499000072479248 -6.796000003814697,-4.539000034332275 C-0.19499999284744263,-1.3839999437332153 4.9039998054504395,2.4760000705718994 6.796000003814697,6.638999938964844 C6.796000003814697,1.5440000295639038 4.669000148773193,-2.9820001125335693 1.0360000133514404,-6.638999938964844z"></path></g><g opacity="1" transform="matrix(1,0,0,1,26.945999145507812,28.441999435424805)"><path fill="rgb(248,190,189)" fill-opacity="1" d=" M-11.602999687194824,1.1929999589920044 C-3.0980000495910645,0.7099999785423279 5.202000141143799,1.343999981880188 11.602999687194824,3.509999990463257 C5.4070000648498535,-0.09200000017881393 -1.5989999771118164,-2.4170000553131104 -8.616000175476074,-3.509999990463257 C-10.07800006866455,-2.0889999866485596 -11.105999946594238,-0.5009999871253967 -11.602999687194824,1.1929999589920044z"></path></g><g opacity="1" transform="matrix(1,0,0,1,27.131000518798828,35.902000427246094)"><path fill="rgb(248,190,189)" fill-opacity="1" d=" M-7.807000160217285,3.950000047683716 C-2.38100004196167,0.1120000034570694 4.258999824523926,-2.8499999046325684 11.418000221252441,-3.950000047683716 C2.6559998989105225,-3.950000047683716 -5.126999855041504,-2.7139999866485596 -11.418000221252441,-0.6010000109672546 C-10.699999809265137,1.0579999685287476 -9.458999633789062,2.5940001010894775 -7.807000160217285,3.950000047683716z"></path></g><g opacity="1" transform="matrix(1,0,0,1,32.512001037597656,38.698001861572266)"><path fill="rgb(248,190,189)" fill-opacity="1" d=" M-6.0370001792907715,5.007999897003174 C-3.5929999351501465,5.857999801635742 -0.8619999885559082,6.456999778747559 2.052000045776367,6.745999813079834 C1.2209999561309814,1.8020000457763672 2.311000108718872,-3.0250000953674316 6.0370001792907715,-6.745999813079834 C-0.15800000727176666,-3.1449999809265137 -4.1570000648498535,0.9290000200271606 -6.0370001792907715,5.007999897003174z"></path></g><g opacity="1" transform="matrix(1,0,0,1,45.34400177001953,38.59000015258789)"><path fill="rgb(248,190,189)" fill-opacity="1" d=" M-6.795000076293945,-6.638999938964844 C-6.795000076293945,-1.5449999570846558 -4.669000148773193,2.9809999465942383 -1.034999966621399,6.638999938964844 C1.8179999589920044,6.2220001220703125 4.461999893188477,5.5 6.795000076293945,4.539999961853027 C0.1940000057220459,1.3849999904632568 -4.9039998054504395,-2.4769999980926514 -6.795000076293945,-6.638999938964844z"></path></g><g opacity="1" transform="matrix(1,0,0,1,50.15299987792969,35.46200180053711)"><path fill="rgb(248,190,189)" fill-opacity="1" d=" M8.614999771118164,3.509999990463257 C10.07800006866455,2.0889999866485596 11.107000350952148,0.5009999871253967 11.602999687194824,-1.1929999589920044 C3.0980000495910645,-0.7099999785423279 -5.203000068664551,-1.343999981880188 -11.602999687194824,-3.509999990463257 C-5.4079999923706055,0.09200000017881393 1.5980000495910645,2.4170000553131104 8.614999771118164,3.509999990463257z"></path></g><g opacity="1" transform="matrix(1,0,0,1,49.96799850463867,28.000999450683594)"><path fill="rgb(248,190,189)" fill-opacity="1" d=" M-11.418000221252441,3.950000047683716 C-2.6549999713897705,3.950000047683716 5.126999855041504,2.7149999141693115 11.418000221252441,0.6029999852180481 C10.701000213623047,-1.055999994277954 9.460000038146973,-2.5929999351501465 7.807000160217285,-3.950000047683716 C2.38100004196167,-0.1120000034570694 -4.257999897003174,2.8510000705718994 -11.418000221252441,3.950000047683716z"></path></g><g opacity="1" transform="matrix(1,0,0,1,44.5880012512207,25.20599937438965)"><path fill="rgb(248,190,189)" fill-opacity="1" d=" M-2.052000045776367,-6.745999813079834 C-1.2209999561309814,-1.8009999990463257 -2.312999963760376,3.0250000953674316 -6.038000106811523,6.745999813079834 C0.15700000524520874,3.1440000534057617 4.1579999923706055,-0.9290000200271606 6.038000106811523,-5.008999824523926 C3.5940001010894775,-5.859000205993652 0.8619999885559082,-6.456999778747559 -2.052000045776367,-6.745999813079834z"></path></g></g></g><g transform="matrix(1.8059998750686646,0,0,1.8059998750686646,-21.093425750732422,-0.29421132802963257)" opacity="1" style="display: block;"><g opacity="1" transform="matrix(1,0,0,1,38.54899978637695,31.95199966430664)"><path fill="rgb(245,156,156)" fill-opacity="1" d=" M9.967000007629395,0 C9.967000007629395,-3.200000047683716 5.505000114440918,-5.794000148773193 0.0010000000474974513,-5.794000148773193 C-5.504000186920166,-5.794000148773193 -9.967000007629395,-3.200000047683716 -9.967000007629395,0 C-9.967000007629395,3.200000047683716 -5.504000186920166,5.794000148773193 0.0010000000474974513,5.794000148773193 C5.505000114440918,5.794000148773193 9.967000007629395,3.200000047683716 9.967000007629395,0z"></path></g></g><g transform="matrix(1.8059998750686646,0,0,1.8059998750686646,32.21788024902344,31.742677688598633)" opacity="1" style="display: none;"><g opacity="1" transform="matrix(1,0,0,1,7.894999980926514,10.644000053405762)"><path fill="rgb(255,238,207)" fill-opacity="1" d=" M0,2.9570000171661377 C-3.6410000324249268,2.9570000171661377 -7.327000141143799,1.9420000314712524 -7.327000141143799,0.0010000000474974513 C-7.327000141143799,-1.940999984741211 -3.6410000324249268,-2.9570000171661377 0,-2.9570000171661377 C3.6410000324249268,-2.9570000171661377 7.327000141143799,-1.940999984741211 7.327000141143799,0.0010000000474974513 C7.327000141143799,1.9420000314712524 3.6410000324249268,2.9570000171661377 0,2.9570000171661377z"></path></g><g opacity="1" transform="matrix(1,0,0,1,7.894000053405762,10.644000053405762)"><path fill="rgb(255,201,77)" fill-opacity="1" d=" M6.781000137329102,0 C6.781000137329102,-1.3320000171661377 3.744999885559082,-2.4110000133514404 0,-2.4110000133514404 C-3.744999885559082,-2.4110000133514404 -6.781000137329102,-1.3320000171661377 -6.781000137329102,0 C-6.781000137329102,1.3320000171661377 -3.744999885559082,2.4110000133514404 0,2.4110000133514404 C3.744999885559082,2.4110000133514404 6.781000137329102,1.3320000171661377 6.781000137329102,0z"></path></g><g opacity="1" transform="matrix(1,0,0,1,7.894999980926514,10.097999572753906)"><path fill="rgb(255,201,77)" fill-opacity="1" d=" M3.072000026702881,0 C3.072000026702881,-0.6029999852180481 1.6959999799728394,-1.0920000076293945 0,-1.0920000076293945 C-1.6970000267028809,-1.0920000076293945 -3.072000026702881,-0.6029999852180481 -3.072000026702881,0 C-3.072000026702881,0.6029999852180481 -1.6970000267028809,1.0920000076293945 0,1.0920000076293945 C1.6959999799728394,1.0920000076293945 3.072000026702881,0.6029999852180481 3.072000026702881,0z"></path></g><g opacity="1" transform="matrix(1,0,0,1,7.894999980926514,5.320000171661377)"><path fill="rgb(255,238,207)" fill-opacity="1" d=" M7.644999980926514,-3.5490000247955322 C7.644999980926514,-4.377999782562256 4.2210001945495605,-5.051000118255615 0,-5.051000118255615 C-4.2220001220703125,-5.051000118255615 -7.644999980926514,-4.377999782562256 -7.644999980926514,-3.5490000247955322 C-7.644999980926514,-2.7200000286102295 -6.552999973297119,5.051000118255615 0,5.051000118255615 C6.552000045776367,5.051000118255615 7.644999980926514,-2.7200000286102295 7.644999980926514,-3.5490000247955322z"></path></g><g opacity="1" transform="matrix(1,0,0,1,7.894999980926514,1.7710000276565552)"><path fill="rgb(255,201,77)" fill-opacity="1" d=" M7.644999980926514,0 C7.644999980926514,-0.8289999961853027 4.2210001945495605,-1.5019999742507935 0,-1.5019999742507935 C-4.2220001220703125,-1.5019999742507935 -7.644999980926514,-0.8289999961853027 -7.644999980926514,0 C-7.644999980926514,0.8289999961853027 -4.2220001220703125,1.5019999742507935 0,1.5019999742507935 C4.2210001945495605,1.5019999742507935 7.644999980926514,0.8289999961853027 7.644999980926514,0z"></path></g><g opacity="1" transform="matrix(1,0,0,1,15.663000106811523,4.501999855041504)"><path stroke-linecap="round" stroke-linejoin="round" fill-opacity="0" stroke="rgb(255,201,77)" stroke-opacity="1" stroke-width="0.8" d=" M-0.5669999718666077,-2.0799999237060547 C-0.16599999368190765,-2.4800000190734863 0.5789999961853027,-2.502000093460083 1.0529999732971191,-2.1760001182556152 C1.5269999504089355,-1.8489999771118164 1.7170000076293945,-1.2430000305175781 1.5800000429153442,-0.7149999737739563 C1.444000005722046,-0.18700000643730164 1.0169999599456787,0.2549999952316284 0.4959999918937683,0.5149999856948853 C0.06599999964237213,0.7289999723434448 -0.38100001215934753,0.9039999842643738 -0.7900000214576721,1.1510000228881836 C-1.2699999809265137,1.440000057220459 -1.7170000076293945,2.0169999599456787 -1.2359999418258667,2.502000093460083"></path></g><g opacity="1" transform="matrix(1,0,0,1,7.894999980926514,5.316999912261963)"><path fill="rgb(255,201,77)" fill-opacity="1" d=" M1.1419999599456787,0 C1.1419999599456787,-0.6309999823570251 0.6309999823570251,-1.1419999599456787 0,-1.1419999599456787 C-0.6309999823570251,-1.1419999599456787 -1.1419999599456787,-0.6309999823570251 -1.1419999599456787,0 C-1.1419999599456787,0.6309999823570251 -0.6309999823570251,1.1419999599456787 0,1.1419999599456787 C0.6309999823570251,1.1419999599456787 1.1419999599456787,0.6309999823570251 1.1419999599456787,0z"></path></g><g opacity="1" transform="matrix(1,0,0,1,6.883999824523926,6.875999927520752)"><path fill="rgb(255,201,77)" fill-opacity="1" d=" M1.1419999599456787,0 C1.1419999599456787,-0.6309999823570251 0.6309999823570251,-1.1419999599456787 0,-1.1419999599456787 C-0.6309999823570251,-1.1419999599456787 -1.1419999599456787,-0.6309999823570251 -1.1419999599456787,0 C-1.1419999599456787,0.6309999823570251 -0.6309999823570251,1.1419999599456787 0,1.1419999599456787 C0.6309999823570251,1.1419999599456787 1.1419999599456787,0.6309999823570251 1.1419999599456787,0z"></path></g><g opacity="1" transform="matrix(1,0,0,1,8.904999732971191,6.875999927520752)"><path fill="rgb(255,201,77)" fill-opacity="1" d=" M1.1419999599456787,0 C1.1419999599456787,-0.6309999823570251 0.6309999823570251,-1.1419999599456787 0,-1.1419999599456787 C-0.6309999823570251,-1.1419999599456787 -1.1419999599456787,-0.6309999823570251 -1.1419999599456787,0 C-1.1419999599456787,0.6309999823570251 -0.6309999823570251,1.1419999599456787 0,1.1419999599456787 C0.6309999823570251,1.1419999599456787 1.1419999599456787,0.6309999823570251 1.1419999599456787,0z"></path></g><g opacity="1" transform="matrix(1,0,0,1,7.894999980926514,7.732999801635742)"><path fill="rgb(255,201,77)" fill-opacity="1" d=" M1.003999948501587,1.4210000038146973 C0,0.7919999957084656 0,-1.4210000038146973 0,-1.4210000038146973 C0,-1.4210000038146973 0,0.7919999957084656 -1.003999948501587,1.4210000038146973 C-1.003999948501587,1.4210000038146973 1.003999948501587,1.4210000038146973 1.003999948501587,1.4210000038146973z"></path></g></g><g transform="matrix(1.8059998750686646,0,0,1.8059998750686646,53.76087951660156,43.61067581176758)" opacity="1" style="display: none;"><g opacity="1" transform="matrix(1,0,0,1,7.894000053405762,10.644000053405762)"><path fill="rgb(255,238,207)" fill-opacity="1" d=" M0,2.9570000171661377 C-3.6410000324249268,2.9570000171661377 -7.327000141143799,1.9420000314712524 -7.327000141143799,0.0010000000474974513 C-7.327000141143799,-1.940999984741211 -3.6410000324249268,-2.9570000171661377 0,-2.9570000171661377 C3.6410000324249268,-2.9570000171661377 7.327000141143799,-1.940999984741211 7.327000141143799,0.0010000000474974513 C7.327000141143799,1.9420000314712524 3.6410000324249268,2.9570000171661377 0,2.9570000171661377z"></path></g><g opacity="1" transform="matrix(1,0,0,1,7.894000053405762,10.644000053405762)"><path fill="rgb(240,108,94)" fill-opacity="1" d=" M6.781000137329102,0 C6.781000137329102,-1.3320000171661377 3.744999885559082,-2.4110000133514404 0,-2.4110000133514404 C-3.744999885559082,-2.4110000133514404 -6.781000137329102,-1.3320000171661377 -6.781000137329102,0 C-6.781000137329102,1.3320000171661377 -3.744999885559082,2.4110000133514404 0,2.4110000133514404 C3.744999885559082,2.4110000133514404 6.781000137329102,1.3320000171661377 6.781000137329102,0z"></path></g><g opacity="1" transform="matrix(1,0,0,1,7.894999980926514,10.097999572753906)"><path fill="rgb(240,108,94)" fill-opacity="1" d=" M3.072000026702881,0 C3.072000026702881,-0.6029999852180481 1.6959999799728394,-1.0920000076293945 0,-1.0920000076293945 C-1.6970000267028809,-1.0920000076293945 -3.072000026702881,-0.6029999852180481 -3.072000026702881,0 C-3.072000026702881,0.6029999852180481 -1.6970000267028809,1.0920000076293945 0,1.0920000076293945 C1.6959999799728394,1.0920000076293945 3.072000026702881,0.6029999852180481 3.072000026702881,0z"></path></g><g opacity="1" transform="matrix(1,0,0,1,7.894999980926514,5.320000171661377)"><path fill="rgb(255,238,207)" fill-opacity="1" d=" M7.644999980926514,-3.5490000247955322 C7.644999980926514,-4.377999782562256 4.2210001945495605,-5.051000118255615 0,-5.051000118255615 C-4.2220001220703125,-5.051000118255615 -7.644999980926514,-4.377999782562256 -7.644999980926514,-3.5490000247955322 C-7.644999980926514,-2.7200000286102295 -6.552999973297119,5.051000118255615 0,5.051000118255615 C6.552000045776367,5.051000118255615 7.644999980926514,-2.7200000286102295 7.644999980926514,-3.5490000247955322z"></path></g><g opacity="1" transform="matrix(1,0,0,1,7.894999980926514,1.7710000276565552)"><path fill="rgb(240,108,94)" fill-opacity="1" d=" M7.644999980926514,0 C7.644999980926514,-0.8289999961853027 4.2210001945495605,-1.5019999742507935 0,-1.5019999742507935 C-4.2220001220703125,-1.5019999742507935 -7.644999980926514,-0.8289999961853027 -7.644999980926514,0 C-7.644999980926514,0.8289999961853027 -4.2220001220703125,1.5019999742507935 0,1.5019999742507935 C4.2210001945495605,1.5019999742507935 7.644999980926514,0.8289999961853027 7.644999980926514,0z"></path></g><g opacity="1" transform="matrix(1,0,0,1,15.663000106811523,4.501999855041504)"><path stroke-linecap="round" stroke-linejoin="round" fill-opacity="0" stroke="rgb(240,108,94)" stroke-opacity="1" stroke-width="0.8" d=" M-0.5669999718666077,-2.0799999237060547 C-0.16599999368190765,-2.4800000190734863 0.5789999961853027,-2.502000093460083 1.0529999732971191,-2.1760001182556152 C1.5269999504089355,-1.8489999771118164 1.7170000076293945,-1.2430000305175781 1.5800000429153442,-0.7149999737739563 C1.444000005722046,-0.18700000643730164 1.0160000324249268,0.2549999952316284 0.4959999918937683,0.5149999856948853 C0.06599999964237213,0.7289999723434448 -0.38100001215934753,0.9039999842643738 -0.7900000214576721,1.1510000228881836 C-1.2699999809265137,1.440000057220459 -1.7170000076293945,2.0169999599456787 -1.2359999418258667,2.502000093460083"></path></g><g opacity="1" transform="matrix(1,0,0,1,7.894000053405762,6.656000137329102)"><path fill="rgb(240,108,94)" fill-opacity="1" d=" M-1.465000033378601,-2.0999999046325684 C-1.6059999465942383,-2.0999999046325684 -1.7430000305175781,-2.072999954223633 -1.871000051498413,-2.0199999809265137 C-2.2869999408721924,-1.8480000495910645 -2.5350000858306885,-1.4019999504089355 -2.5350000858306885,-0.8270000219345093 C-2.5350000858306885,0.2460000067949295 -0.8399999737739563,1.6430000066757202 0,2.2249999046325684 C0.8389999866485596,1.6419999599456787 2.5350000858306885,0.24500000476837158 2.5350000858306885,-0.8270000219345093 C2.5350000858306885,-1.4019999504089355 2.2880001068115234,-1.8480000495910645 1.871000051498413,-2.0199999809265137 C1.3769999742507935,-2.2249999046325684 0.7590000033378601,-2.0250000953674316 0.2199999988079071,-1.4859999418258667 C0.2199999988079071,-1.4859999418258667 0,-1.2669999599456787 0,-1.2669999599456787 C0,-1.2669999599456787 -0.21899999678134918,-1.4859999418258667 -0.21899999678134918,-1.4859999418258667 C-0.6190000176429749,-1.8860000371932983 -1.0609999895095825,-2.0999999046325684 -1.465000033378601,-2.0999999046325684z"></path></g></g><g transform="matrix(1.8059998750686646,0,0,1.8059998750686646,13.430882453918457,38.20151901245117)" opacity="1" style="display: none;"><g opacity="1" transform="matrix(1,0,0,1,7.894999980926514,10.644000053405762)"><path fill="rgb(255,238,207)" fill-opacity="1" d=" M0,2.9570000171661377 C-3.6410000324249268,2.9570000171661377 -7.327000141143799,1.9420000314712524 -7.327000141143799,0.0010000000474974513 C-7.327000141143799,-1.940999984741211 -3.6410000324249268,-2.9570000171661377 0,-2.9570000171661377 C3.6410000324249268,-2.9570000171661377 7.327000141143799,-1.940999984741211 7.327000141143799,0.0010000000474974513 C7.327000141143799,1.9420000314712524 3.6410000324249268,2.9570000171661377 0,2.9570000171661377z"></path></g><g opacity="1" transform="matrix(1,0,0,1,7.894000053405762,10.644000053405762)"><path fill="rgb(255,201,77)" fill-opacity="1" d=" M6.781000137329102,0 C6.781000137329102,-1.3320000171661377 3.744999885559082,-2.4110000133514404 0,-2.4110000133514404 C-3.744999885559082,-2.4110000133514404 -6.781000137329102,-1.3320000171661377 -6.781000137329102,0 C-6.781000137329102,1.3320000171661377 -3.744999885559082,2.4110000133514404 0,2.4110000133514404 C3.744999885559082,2.4110000133514404 6.781000137329102,1.3320000171661377 6.781000137329102,0z"></path></g><g opacity="1" transform="matrix(1,0,0,1,7.894999980926514,10.097999572753906)"><path fill="rgb(255,201,77)" fill-opacity="1" d=" M3.072000026702881,0 C3.072000026702881,-0.6029999852180481 1.6959999799728394,-1.0920000076293945 0,-1.0920000076293945 C-1.6970000267028809,-1.0920000076293945 -3.072000026702881,-0.6029999852180481 -3.072000026702881,0 C-3.072000026702881,0.6029999852180481 -1.6970000267028809,1.0920000076293945 0,1.0920000076293945 C1.6959999799728394,1.0920000076293945 3.072000026702881,0.6029999852180481 3.072000026702881,0z"></path></g><g opacity="1" transform="matrix(1,0,0,1,7.894999980926514,5.320000171661377)"><path fill="rgb(255,238,207)" fill-opacity="1" d=" M7.644999980926514,-3.5490000247955322 C7.644999980926514,-4.377999782562256 4.2210001945495605,-5.051000118255615 0,-5.051000118255615 C-4.2220001220703125,-5.051000118255615 -7.644999980926514,-4.377999782562256 -7.644999980926514,-3.5490000247955322 C-7.644999980926514,-2.7200000286102295 -6.552999973297119,5.051000118255615 0,5.051000118255615 C6.552000045776367,5.051000118255615 7.644999980926514,-2.7200000286102295 7.644999980926514,-3.5490000247955322z"></path></g><g opacity="1" transform="matrix(1,0,0,1,7.894999980926514,1.7710000276565552)"><path fill="rgb(255,201,77)" fill-opacity="1" d=" M7.644999980926514,0 C7.644999980926514,-0.8289999961853027 4.2210001945495605,-1.5019999742507935 0,-1.5019999742507935 C-4.2220001220703125,-1.5019999742507935 -7.644999980926514,-0.8289999961853027 -7.644999980926514,0 C-7.644999980926514,0.8289999961853027 -4.2220001220703125,1.5019999742507935 0,1.5019999742507935 C4.2210001945495605,1.5019999742507935 7.644999980926514,0.8289999961853027 7.644999980926514,0z"></path></g><g opacity="1" transform="matrix(1,0,0,1,15.663000106811523,4.501999855041504)"><path stroke-linecap="round" stroke-linejoin="round" fill-opacity="0" stroke="rgb(255,201,77)" stroke-opacity="1" stroke-width="0.8" d=" M-0.5669999718666077,-2.0799999237060547 C-0.16599999368190765,-2.4800000190734863 0.5789999961853027,-2.502000093460083 1.0529999732971191,-2.1760001182556152 C1.5269999504089355,-1.8489999771118164 1.7170000076293945,-1.2430000305175781 1.5800000429153442,-0.7149999737739563 C1.444000005722046,-0.18700000643730164 1.0169999599456787,0.2549999952316284 0.4959999918937683,0.5149999856948853 C0.06599999964237213,0.7289999723434448 -0.38100001215934753,0.9039999842643738 -0.7900000214576721,1.1510000228881836 C-1.2699999809265137,1.440000057220459 -1.7170000076293945,2.0169999599456787 -1.2359999418258667,2.502000093460083"></path></g><g opacity="1" transform="matrix(1,0,0,1,7.894999980926514,5.316999912261963)"><path fill="rgb(255,201,77)" fill-opacity="1" d=" M1.1419999599456787,0 C1.1419999599456787,-0.6309999823570251 0.6309999823570251,-1.1419999599456787 0,-1.1419999599456787 C-0.6309999823570251,-1.1419999599456787 -1.1419999599456787,-0.6309999823570251 -1.1419999599456787,0 C-1.1419999599456787,0.6309999823570251 -0.6309999823570251,1.1419999599456787 0,1.1419999599456787 C0.6309999823570251,1.1419999599456787 1.1419999599456787,0.6309999823570251 1.1419999599456787,0z"></path></g><g opacity="1" transform="matrix(1,0,0,1,6.883999824523926,6.875999927520752)"><path fill="rgb(255,201,77)" fill-opacity="1" d=" M1.1419999599456787,0 C1.1419999599456787,-0.6309999823570251 0.6309999823570251,-1.1419999599456787 0,-1.1419999599456787 C-0.6309999823570251,-1.1419999599456787 -1.1419999599456787,-0.6309999823570251 -1.1419999599456787,0 C-1.1419999599456787,0.6309999823570251 -0.6309999823570251,1.1419999599456787 0,1.1419999599456787 C0.6309999823570251,1.1419999599456787 1.1419999599456787,0.6309999823570251 1.1419999599456787,0z"></path></g><g opacity="1" transform="matrix(1,0,0,1,8.904999732971191,6.875999927520752)"><path fill="rgb(255,201,77)" fill-opacity="1" d=" M1.1419999599456787,0 C1.1419999599456787,-0.6309999823570251 0.6309999823570251,-1.1419999599456787 0,-1.1419999599456787 C-0.6309999823570251,-1.1419999599456787 -1.1419999599456787,-0.6309999823570251 -1.1419999599456787,0 C-1.1419999599456787,0.6309999823570251 -0.6309999823570251,1.1419999599456787 0,1.1419999599456787 C0.6309999823570251,1.1419999599456787 1.1419999599456787,0.6309999823570251 1.1419999599456787,0z"></path></g><g opacity="1" transform="matrix(1,0,0,1,7.894999980926514,7.732999801635742)"><path fill="rgb(255,201,77)" fill-opacity="1" d=" M1.003999948501587,1.4210000038146973 C0,0.7919999957084656 0,-1.4210000038146973 0,-1.4210000038146973 C0,-1.4210000038146973 0,0.7919999957084656 -1.003999948501587,1.4210000038146973 C-1.003999948501587,1.4210000038146973 1.003999948501587,1.4210000038146973 1.003999948501587,1.4210000038146973z"></path></g></g><g transform="matrix(1.8059998750686646,0,0,1.8059998750686646,16.136394500732422,49.75469970703125)" opacity="1" style="display: none;"><g opacity="1" transform="matrix(1,0,0,1,7.894999980926514,10.644000053405762)"><path fill="rgb(255,238,207)" fill-opacity="1" d=" M0,2.9570000171661377 C-3.6410000324249268,2.9570000171661377 -7.327000141143799,1.9420000314712524 -7.327000141143799,0.0010000000474974513 C-7.327000141143799,-1.940999984741211 -3.6410000324249268,-2.9570000171661377 0,-2.9570000171661377 C3.6410000324249268,-2.9570000171661377 7.327000141143799,-1.940999984741211 7.327000141143799,0.0010000000474974513 C7.327000141143799,1.9420000314712524 3.6410000324249268,2.9570000171661377 0,2.9570000171661377z"></path></g><g opacity="1" transform="matrix(1,0,0,1,7.894000053405762,10.644000053405762)"><path fill="rgb(17,128,195)" fill-opacity="1" d=" M6.781000137329102,0 C6.781000137329102,-1.3320000171661377 3.744999885559082,-2.4110000133514404 0,-2.4110000133514404 C-3.744999885559082,-2.4110000133514404 -6.781000137329102,-1.3320000171661377 -6.781000137329102,0 C-6.781000137329102,1.3320000171661377 -3.744999885559082,2.4110000133514404 0,2.4110000133514404 C3.744999885559082,2.4110000133514404 6.781000137329102,1.3320000171661377 6.781000137329102,0z"></path></g><g opacity="1" transform="matrix(1,0,0,1,7.894000053405762,10.097999572753906)"><path fill="rgb(17,128,195)" fill-opacity="1" d=" M3.072000026702881,0 C3.072000026702881,-0.6029999852180481 1.6959999799728394,-1.0920000076293945 0,-1.0920000076293945 C-1.6970000267028809,-1.0920000076293945 -3.072000026702881,-0.6029999852180481 -3.072000026702881,0 C-3.072000026702881,0.6029999852180481 -1.6970000267028809,1.0920000076293945 0,1.0920000076293945 C1.6959999799728394,1.0920000076293945 3.072000026702881,0.6029999852180481 3.072000026702881,0z"></path></g><g opacity="1" transform="matrix(1,0,0,1,7.894000053405762,5.320000171661377)"><path fill="rgb(255,238,207)" fill-opacity="1" d=" M7.644999980926514,-3.5490000247955322 C7.644999980926514,-4.377999782562256 4.2220001220703125,-5.051000118255615 0,-5.051000118255615 C-4.2220001220703125,-5.051000118255615 -7.644999980926514,-4.377999782562256 -7.644999980926514,-3.5490000247955322 C-7.644999980926514,-2.7200000286102295 -6.552999973297119,5.051000118255615 0,5.051000118255615 C6.552000045776367,5.051000118255615 7.644999980926514,-2.7200000286102295 7.644999980926514,-3.5490000247955322z"></path></g><g opacity="1" transform="matrix(1,0,0,1,7.894000053405762,1.7710000276565552)"><path fill="rgb(17,128,195)" fill-opacity="1" d=" M7.644999980926514,0 C7.644999980926514,-0.8289999961853027 4.2220001220703125,-1.5019999742507935 0,-1.5019999742507935 C-4.2220001220703125,-1.5019999742507935 -7.644999980926514,-0.8289999961853027 -7.644999980926514,0 C-7.644999980926514,0.8289999961853027 -4.2220001220703125,1.5019999742507935 0,1.5019999742507935 C4.2220001220703125,1.5019999742507935 7.644999980926514,0.8289999961853027 7.644999980926514,0z"></path></g><g opacity="1" transform="matrix(1,0,0,1,15.663000106811523,4.501999855041504)"><path stroke-linecap="round" stroke-linejoin="round" fill-opacity="0" stroke="rgb(15,128,196)" stroke-opacity="1" stroke-width="0.8" d=" M-0.5669999718666077,-2.0799999237060547 C-0.16599999368190765,-2.4800000190734863 0.5789999961853027,-2.502000093460083 1.0529999732971191,-2.1760001182556152 C1.5269999504089355,-1.8489999771118164 1.7170000076293945,-1.2430000305175781 1.5800000429153442,-0.7149999737739563 C1.444000005722046,-0.18700000643730164 1.0169999599456787,0.2549999952316284 0.4959999918937683,0.5149999856948853 C0.06599999964237213,0.7289999723434448 -0.38100001215934753,0.9039999842643738 -0.7900000214576721,1.1510000228881836 C-1.2699999809265137,1.440000057220459 -1.7170000076293945,2.0169999599456787 -1.2359999418258667,2.502000093460083"></path></g><g opacity="1" transform="matrix(1,0,0,1,7.894999980926514,6.5929999351501465)"><path fill="rgb(17,128,195)" fill-opacity="1" d=" M2.6519999504089355,0 C2.6519999504089355,-0.17599999904632568 2.5299999713897705,-0.5860000252723694 1.4179999828338623,-0.5870000123977661 C2.203000068664551,-1.3760000467300415 1.9989999532699585,-1.75 1.8739999532699585,-1.875 C1.7990000247955322,-1.9500000476837158 1.628000020980835,-2.058000087738037 1.3250000476837158,-1.9470000267028809 C1.1069999933242798,-1.8669999837875366 0.8579999804496765,-1.6890000104904175 0.5870000123977661,-1.4179999828338623 C0.5849999785423279,-2.5309998989105225 0.17599999904632568,-2.6519999504089355 -0.0010000000474974513,-2.6519999504089355 C-0.1770000010728836,-2.6519999504089355 -0.5849999785423279,-2.5309998989105225 -0.5870000123977661,-1.4179999828338623 C-0.8579999804496765,-1.6890000104904175 -1.1080000400543213,-1.8669999837875366 -1.3259999752044678,-1.9470000267028809 C-1.628999948501587,-2.058000087738037 -1.7999999523162842,-1.9500000476837158 -1.8739999532699585,-1.875 C-1.9989999532699585,-1.75 -2.203000068664551,-1.3760000467300415 -1.4179999828338623,-0.5870000123977661 C-2.5299999713897705,-0.5860000252723694 -2.6519999504089355,-0.17599999904632568 -2.6519999504089355,0 C-2.6519999504089355,0.17599999904632568 -2.5299999713897705,0.5860000252723694 -1.4179999828338623,0.5870000123977661 C-2.203000068664551,1.375 -1.9989999532699585,1.75 -1.8739999532699585,1.875 C-1.8229999542236328,1.9270000457763672 -1.725000023841858,1.9950000047683716 -1.569000005722046,1.9950000047683716 C-1.5,1.9950000047683716 -1.4199999570846558,1.9809999465942383 -1.3259999752044678,1.9470000267028809 C-1.1080000400543213,1.8669999837875366 -0.8579999804496765,1.687999963760376 -0.5870000123977661,1.4179999828338623 C-0.5849999785423279,2.5309998989105225 -0.1770000010728836,2.6519999504089355 -0.0010000000474974513,2.6519999504089355 C0.17599999904632568,2.6519999504089355 0.5849999785423279,2.5309998989105225 0.5870000123977661,1.4179999828338623 C0.8579999804496765,1.687999963760376 1.1069999933242798,1.8669999837875366 1.3250000476837158,1.9470000267028809 C1.4190000295639038,1.9809999465942383 1.5,1.9950000047683716 1.569000005722046,1.9950000047683716 C1.725000023841858,1.9950000047683716 1.8229999542236328,1.9270000457763672 1.8739999532699585,1.875 C1.9989999532699585,1.75 2.203000068664551,1.375 1.4179999828338623,0.5870000123977661 C2.5299999713897705,0.5860000252723694 2.6519999504089355,0.17599999904632568 2.6519999504089355,0z"></path></g><g opacity="1" transform="matrix(1,0,0,1,7.894999980926514,6.5929999351501465)"><path fill="rgb(255,238,207)" fill-opacity="1" d=" M0.640999972820282,0 C0.640999972820282,-0.3540000021457672 0.3540000021457672,-0.640999972820282 0,-0.640999972820282 C-0.3540000021457672,-0.640999972820282 -0.640999972820282,-0.3540000021457672 -0.640999972820282,0 C-0.640999972820282,0.3540000021457672 -0.3540000021457672,0.640999972820282 0,0.640999972820282 C0.3540000021457672,0.640999972820282 0.640999972820282,0.3540000021457672 0.640999972820282,0z"></path></g></g><g transform="matrix(1.8059998750686646,0,0,1.8059998750686646,32.21788024902344,31.742677688598633)" opacity="1" style="display: block;"><g opacity="1" transform="matrix(1,0,0,1,7.894999980926514,10.644000053405762)"><path fill="rgb(255,238,207)" fill-opacity="1" d=" M0,2.9570000171661377 C-3.6410000324249268,2.9570000171661377 -7.327000141143799,1.9420000314712524 -7.327000141143799,0.0010000000474974513 C-7.327000141143799,-1.940999984741211 -3.6410000324249268,-2.9570000171661377 0,-2.9570000171661377 C3.6410000324249268,-2.9570000171661377 7.327000141143799,-1.940999984741211 7.327000141143799,0.0010000000474974513 C7.327000141143799,1.9420000314712524 3.6410000324249268,2.9570000171661377 0,2.9570000171661377z"></path></g><g opacity="1" transform="matrix(1,0,0,1,7.894000053405762,10.644000053405762)"><path fill="rgb(255,201,77)" fill-opacity="1" d=" M6.781000137329102,0 C6.781000137329102,-1.3320000171661377 3.744999885559082,-2.4110000133514404 0,-2.4110000133514404 C-3.744999885559082,-2.4110000133514404 -6.781000137329102,-1.3320000171661377 -6.781000137329102,0 C-6.781000137329102,1.3320000171661377 -3.744999885559082,2.4110000133514404 0,2.4110000133514404 C3.744999885559082,2.4110000133514404 6.781000137329102,1.3320000171661377 6.781000137329102,0z"></path></g><g opacity="1" transform="matrix(1,0,0,1,7.894999980926514,10.097999572753906)"><path fill="rgb(255,201,77)" fill-opacity="1" d=" M3.072000026702881,0 C3.072000026702881,-0.6029999852180481 1.6959999799728394,-1.0920000076293945 0,-1.0920000076293945 C-1.6970000267028809,-1.0920000076293945 -3.072000026702881,-0.6029999852180481 -3.072000026702881,0 C-3.072000026702881,0.6029999852180481 -1.6970000267028809,1.0920000076293945 0,1.0920000076293945 C1.6959999799728394,1.0920000076293945 3.072000026702881,0.6029999852180481 3.072000026702881,0z"></path></g><g opacity="1" transform="matrix(1,0,0,1,7.894999980926514,5.320000171661377)"><path fill="rgb(255,238,207)" fill-opacity="1" d=" M7.644999980926514,-3.5490000247955322 C7.644999980926514,-4.377999782562256 4.2210001945495605,-5.051000118255615 0,-5.051000118255615 C-4.2220001220703125,-5.051000118255615 -7.644999980926514,-4.377999782562256 -7.644999980926514,-3.5490000247955322 C-7.644999980926514,-2.7200000286102295 -6.552999973297119,5.051000118255615 0,5.051000118255615 C6.552000045776367,5.051000118255615 7.644999980926514,-2.7200000286102295 7.644999980926514,-3.5490000247955322z"></path></g><g opacity="1" transform="matrix(1,0,0,1,7.894999980926514,1.7710000276565552)"><path fill="rgb(255,201,77)" fill-opacity="1" d=" M7.644999980926514,0 C7.644999980926514,-0.8289999961853027 4.2210001945495605,-1.5019999742507935 0,-1.5019999742507935 C-4.2220001220703125,-1.5019999742507935 -7.644999980926514,-0.8289999961853027 -7.644999980926514,0 C-7.644999980926514,0.8289999961853027 -4.2220001220703125,1.5019999742507935 0,1.5019999742507935 C4.2210001945495605,1.5019999742507935 7.644999980926514,0.8289999961853027 7.644999980926514,0z"></path></g><g opacity="1" transform="matrix(1,0,0,1,15.663000106811523,4.501999855041504)"><path stroke-linecap="round" stroke-linejoin="round" fill-opacity="0" stroke="rgb(255,201,77)" stroke-opacity="1" stroke-width="0.8" d=" M-0.5669999718666077,-2.0799999237060547 C-0.16599999368190765,-2.4800000190734863 0.5789999961853027,-2.502000093460083 1.0529999732971191,-2.1760001182556152 C1.5269999504089355,-1.8489999771118164 1.7170000076293945,-1.2430000305175781 1.5800000429153442,-0.7149999737739563 C1.444000005722046,-0.18700000643730164 1.0169999599456787,0.2549999952316284 0.4959999918937683,0.5149999856948853 C0.06599999964237213,0.7289999723434448 -0.38100001215934753,0.9039999842643738 -0.7900000214576721,1.1510000228881836 C-1.2699999809265137,1.440000057220459 -1.7170000076293945,2.0169999599456787 -1.2359999418258667,2.502000093460083"></path></g><g opacity="1" transform="matrix(1,0,0,1,7.894999980926514,5.316999912261963)"><path fill="rgb(255,201,77)" fill-opacity="1" d=" M1.1419999599456787,0 C1.1419999599456787,-0.6309999823570251 0.6309999823570251,-1.1419999599456787 0,-1.1419999599456787 C-0.6309999823570251,-1.1419999599456787 -1.1419999599456787,-0.6309999823570251 -1.1419999599456787,0 C-1.1419999599456787,0.6309999823570251 -0.6309999823570251,1.1419999599456787 0,1.1419999599456787 C0.6309999823570251,1.1419999599456787 1.1419999599456787,0.6309999823570251 1.1419999599456787,0z"></path></g><g opacity="1" transform="matrix(1,0,0,1,6.883999824523926,6.875999927520752)"><path fill="rgb(255,201,77)" fill-opacity="1" d=" M1.1419999599456787,0 C1.1419999599456787,-0.6309999823570251 0.6309999823570251,-1.1419999599456787 0,-1.1419999599456787 C-0.6309999823570251,-1.1419999599456787 -1.1419999599456787,-0.6309999823570251 -1.1419999599456787,0 C-1.1419999599456787,0.6309999823570251 -0.6309999823570251,1.1419999599456787 0,1.1419999599456787 C0.6309999823570251,1.1419999599456787 1.1419999599456787,0.6309999823570251 1.1419999599456787,0z"></path></g><g opacity="1" transform="matrix(1,0,0,1,8.904999732971191,6.875999927520752)"><path fill="rgb(255,201,77)" fill-opacity="1" d=" M1.1419999599456787,0 C1.1419999599456787,-0.6309999823570251 0.6309999823570251,-1.1419999599456787 0,-1.1419999599456787 C-0.6309999823570251,-1.1419999599456787 -1.1419999599456787,-0.6309999823570251 -1.1419999599456787,0 C-1.1419999599456787,0.6309999823570251 -0.6309999823570251,1.1419999599456787 0,1.1419999599456787 C0.6309999823570251,1.1419999599456787 1.1419999599456787,0.6309999823570251 1.1419999599456787,0z"></path></g><g opacity="1" transform="matrix(1,0,0,1,7.894999980926514,7.732999801635742)"><path fill="rgb(255,201,77)" fill-opacity="1" d=" M1.003999948501587,1.4210000038146973 C0,0.7919999957084656 0,-1.4210000038146973 0,-1.4210000038146973 C0,-1.4210000038146973 0,0.7919999957084656 -1.003999948501587,1.4210000038146973 C-1.003999948501587,1.4210000038146973 1.003999948501587,1.4210000038146973 1.003999948501587,1.4210000038146973z"></path></g></g><g transform="matrix(1.8059998750686646,0,0,1.8059998750686646,16.14223289489746,49.759517669677734)" opacity="1" style="display: block;"><g opacity="1" transform="matrix(1,0,0,1,7.894999980926514,10.644000053405762)"><path fill="rgb(255,238,207)" fill-opacity="1" d=" M0,2.9570000171661377 C-3.6410000324249268,2.9570000171661377 -7.327000141143799,1.9420000314712524 -7.327000141143799,0.0010000000474974513 C-7.327000141143799,-1.940999984741211 -3.6410000324249268,-2.9570000171661377 0,-2.9570000171661377 C3.6410000324249268,-2.9570000171661377 7.327000141143799,-1.940999984741211 7.327000141143799,0.0010000000474974513 C7.327000141143799,1.9420000314712524 3.6410000324249268,2.9570000171661377 0,2.9570000171661377z"></path></g><g opacity="1" transform="matrix(1,0,0,1,7.894000053405762,10.644000053405762)"><path fill="rgb(17,128,195)" fill-opacity="1" d=" M6.781000137329102,0 C6.781000137329102,-1.3320000171661377 3.744999885559082,-2.4110000133514404 0,-2.4110000133514404 C-3.744999885559082,-2.4110000133514404 -6.781000137329102,-1.3320000171661377 -6.781000137329102,0 C-6.781000137329102,1.3320000171661377 -3.744999885559082,2.4110000133514404 0,2.4110000133514404 C3.744999885559082,2.4110000133514404 6.781000137329102,1.3320000171661377 6.781000137329102,0z"></path></g><g opacity="1" transform="matrix(1,0,0,1,7.894000053405762,10.097999572753906)"><path fill="rgb(17,128,195)" fill-opacity="1" d=" M3.072000026702881,0 C3.072000026702881,-0.6029999852180481 1.6959999799728394,-1.0920000076293945 0,-1.0920000076293945 C-1.6970000267028809,-1.0920000076293945 -3.072000026702881,-0.6029999852180481 -3.072000026702881,0 C-3.072000026702881,0.6029999852180481 -1.6970000267028809,1.0920000076293945 0,1.0920000076293945 C1.6959999799728394,1.0920000076293945 3.072000026702881,0.6029999852180481 3.072000026702881,0z"></path></g><g opacity="1" transform="matrix(1,0,0,1,7.894000053405762,5.320000171661377)"><path fill="rgb(255,238,207)" fill-opacity="1" d=" M7.644999980926514,-3.5490000247955322 C7.644999980926514,-4.377999782562256 4.2220001220703125,-5.051000118255615 0,-5.051000118255615 C-4.2220001220703125,-5.051000118255615 -7.644999980926514,-4.377999782562256 -7.644999980926514,-3.5490000247955322 C-7.644999980926514,-2.7200000286102295 -6.552999973297119,5.051000118255615 0,5.051000118255615 C6.552000045776367,5.051000118255615 7.644999980926514,-2.7200000286102295 7.644999980926514,-3.5490000247955322z"></path></g><g opacity="1" transform="matrix(1,0,0,1,7.894000053405762,1.7710000276565552)"><path fill="rgb(17,128,195)" fill-opacity="1" d=" M7.644999980926514,0 C7.644999980926514,-0.8289999961853027 4.2220001220703125,-1.5019999742507935 0,-1.5019999742507935 C-4.2220001220703125,-1.5019999742507935 -7.644999980926514,-0.8289999961853027 -7.644999980926514,0 C-7.644999980926514,0.8289999961853027 -4.2220001220703125,1.5019999742507935 0,1.5019999742507935 C4.2220001220703125,1.5019999742507935 7.644999980926514,0.8289999961853027 7.644999980926514,0z"></path></g><g opacity="1" transform="matrix(1,0,0,1,15.663000106811523,4.501999855041504)"><path stroke-linecap="round" stroke-linejoin="round" fill-opacity="0" stroke="rgb(15,128,196)" stroke-opacity="1" stroke-width="0.8" d=" M-0.5669999718666077,-2.0799999237060547 C-0.16599999368190765,-2.4800000190734863 0.5789999961853027,-2.502000093460083 1.0529999732971191,-2.1760001182556152 C1.5269999504089355,-1.8489999771118164 1.7170000076293945,-1.2430000305175781 1.5800000429153442,-0.7149999737739563 C1.444000005722046,-0.18700000643730164 1.0169999599456787,0.2549999952316284 0.4959999918937683,0.5149999856948853 C0.06599999964237213,0.7289999723434448 -0.38100001215934753,0.9039999842643738 -0.7900000214576721,1.1510000228881836 C-1.2699999809265137,1.440000057220459 -1.7170000076293945,2.0169999599456787 -1.2359999418258667,2.502000093460083"></path></g><g opacity="1" transform="matrix(1,0,0,1,7.894999980926514,6.5929999351501465)"><path fill="rgb(17,128,195)" fill-opacity="1" d=" M2.6519999504089355,0 C2.6519999504089355,-0.17599999904632568 2.5299999713897705,-0.5860000252723694 1.4179999828338623,-0.5870000123977661 C2.203000068664551,-1.3760000467300415 1.9989999532699585,-1.75 1.8739999532699585,-1.875 C1.7990000247955322,-1.9500000476837158 1.628000020980835,-2.058000087738037 1.3250000476837158,-1.9470000267028809 C1.1069999933242798,-1.8669999837875366 0.8579999804496765,-1.6890000104904175 0.5870000123977661,-1.4179999828338623 C0.5849999785423279,-2.5309998989105225 0.17599999904632568,-2.6519999504089355 -0.0010000000474974513,-2.6519999504089355 C-0.1770000010728836,-2.6519999504089355 -0.5849999785423279,-2.5309998989105225 -0.5870000123977661,-1.4179999828338623 C-0.8579999804496765,-1.6890000104904175 -1.1080000400543213,-1.8669999837875366 -1.3259999752044678,-1.9470000267028809 C-1.628999948501587,-2.058000087738037 -1.7999999523162842,-1.9500000476837158 -1.8739999532699585,-1.875 C-1.9989999532699585,-1.75 -2.203000068664551,-1.3760000467300415 -1.4179999828338623,-0.5870000123977661 C-2.5299999713897705,-0.5860000252723694 -2.6519999504089355,-0.17599999904632568 -2.6519999504089355,0 C-2.6519999504089355,0.17599999904632568 -2.5299999713897705,0.5860000252723694 -1.4179999828338623,0.5870000123977661 C-2.203000068664551,1.375 -1.9989999532699585,1.75 -1.8739999532699585,1.875 C-1.8229999542236328,1.9270000457763672 -1.725000023841858,1.9950000047683716 -1.569000005722046,1.9950000047683716 C-1.5,1.9950000047683716 -1.4199999570846558,1.9809999465942383 -1.3259999752044678,1.9470000267028809 C-1.1080000400543213,1.8669999837875366 -0.8579999804496765,1.687999963760376 -0.5870000123977661,1.4179999828338623 C-0.5849999785423279,2.5309998989105225 -0.1770000010728836,2.6519999504089355 -0.0010000000474974513,2.6519999504089355 C0.17599999904632568,2.6519999504089355 0.5849999785423279,2.5309998989105225 0.5870000123977661,1.4179999828338623 C0.8579999804496765,1.687999963760376 1.1069999933242798,1.8669999837875366 1.3250000476837158,1.9470000267028809 C1.4190000295639038,1.9809999465942383 1.5,1.9950000047683716 1.569000005722046,1.9950000047683716 C1.725000023841858,1.9950000047683716 1.8229999542236328,1.9270000457763672 1.8739999532699585,1.875 C1.9989999532699585,1.75 2.203000068664551,1.375 1.4179999828338623,0.5870000123977661 C2.5299999713897705,0.5860000252723694 2.6519999504089355,0.17599999904632568 2.6519999504089355,0z"></path></g><g opacity="1" transform="matrix(1,0,0,1,7.894999980926514,6.5929999351501465)"><path fill="rgb(255,238,207)" fill-opacity="1" d=" M0.640999972820282,0 C0.640999972820282,-0.3540000021457672 0.3540000021457672,-0.640999972820282 0,-0.640999972820282 C-0.3540000021457672,-0.640999972820282 -0.640999972820282,-0.3540000021457672 -0.640999972820282,0 C-0.640999972820282,0.3540000021457672 -0.3540000021457672,0.640999972820282 0,0.640999972820282 C0.3540000021457672,0.640999972820282 0.640999972820282,0.3540000021457672 0.640999972820282,0z"></path></g></g><g transform="matrix(1.8059998750686646,0,0,1.8059998750686646,53.76087951660156,43.61067581176758)" opacity="1" style="display: block;"><g opacity="1" transform="matrix(1,0,0,1,7.894000053405762,10.644000053405762)"><path fill="rgb(255,238,207)" fill-opacity="1" d=" M0,2.9570000171661377 C-3.6410000324249268,2.9570000171661377 -7.327000141143799,1.9420000314712524 -7.327000141143799,0.0010000000474974513 C-7.327000141143799,-1.940999984741211 -3.6410000324249268,-2.9570000171661377 0,-2.9570000171661377 C3.6410000324249268,-2.9570000171661377 7.327000141143799,-1.940999984741211 7.327000141143799,0.0010000000474974513 C7.327000141143799,1.9420000314712524 3.6410000324249268,2.9570000171661377 0,2.9570000171661377z"></path></g><g opacity="1" transform="matrix(1,0,0,1,7.894000053405762,10.644000053405762)"><path fill="rgb(240,108,94)" fill-opacity="1" d=" M6.781000137329102,0 C6.781000137329102,-1.3320000171661377 3.744999885559082,-2.4110000133514404 0,-2.4110000133514404 C-3.744999885559082,-2.4110000133514404 -6.781000137329102,-1.3320000171661377 -6.781000137329102,0 C-6.781000137329102,1.3320000171661377 -3.744999885559082,2.4110000133514404 0,2.4110000133514404 C3.744999885559082,2.4110000133514404 6.781000137329102,1.3320000171661377 6.781000137329102,0z"></path></g><g opacity="1" transform="matrix(1,0,0,1,7.894999980926514,10.097999572753906)"><path fill="rgb(240,108,94)" fill-opacity="1" d=" M3.072000026702881,0 C3.072000026702881,-0.6029999852180481 1.6959999799728394,-1.0920000076293945 0,-1.0920000076293945 C-1.6970000267028809,-1.0920000076293945 -3.072000026702881,-0.6029999852180481 -3.072000026702881,0 C-3.072000026702881,0.6029999852180481 -1.6970000267028809,1.0920000076293945 0,1.0920000076293945 C1.6959999799728394,1.0920000076293945 3.072000026702881,0.6029999852180481 3.072000026702881,0z"></path></g><g opacity="1" transform="matrix(1,0,0,1,7.894999980926514,5.320000171661377)"><path fill="rgb(255,238,207)" fill-opacity="1" d=" M7.644999980926514,-3.5490000247955322 C7.644999980926514,-4.377999782562256 4.2210001945495605,-5.051000118255615 0,-5.051000118255615 C-4.2220001220703125,-5.051000118255615 -7.644999980926514,-4.377999782562256 -7.644999980926514,-3.5490000247955322 C-7.644999980926514,-2.7200000286102295 -6.552999973297119,5.051000118255615 0,5.051000118255615 C6.552000045776367,5.051000118255615 7.644999980926514,-2.7200000286102295 7.644999980926514,-3.5490000247955322z"></path></g><g opacity="1" transform="matrix(1,0,0,1,7.894999980926514,1.7710000276565552)"><path fill="rgb(240,108,94)" fill-opacity="1" d=" M7.644999980926514,0 C7.644999980926514,-0.8289999961853027 4.2210001945495605,-1.5019999742507935 0,-1.5019999742507935 C-4.2220001220703125,-1.5019999742507935 -7.644999980926514,-0.8289999961853027 -7.644999980926514,0 C-7.644999980926514,0.8289999961853027 -4.2220001220703125,1.5019999742507935 0,1.5019999742507935 C4.2210001945495605,1.5019999742507935 7.644999980926514,0.8289999961853027 7.644999980926514,0z"></path></g><g opacity="1" transform="matrix(1,0,0,1,15.663000106811523,4.501999855041504)"><path stroke-linecap="round" stroke-linejoin="round" fill-opacity="0" stroke="rgb(240,108,94)" stroke-opacity="1" stroke-width="0.8" d=" M-0.5669999718666077,-2.0799999237060547 C-0.16599999368190765,-2.4800000190734863 0.5789999961853027,-2.502000093460083 1.0529999732971191,-2.1760001182556152 C1.5269999504089355,-1.8489999771118164 1.7170000076293945,-1.2430000305175781 1.5800000429153442,-0.7149999737739563 C1.444000005722046,-0.18700000643730164 1.0160000324249268,0.2549999952316284 0.4959999918937683,0.5149999856948853 C0.06599999964237213,0.7289999723434448 -0.38100001215934753,0.9039999842643738 -0.7900000214576721,1.1510000228881836 C-1.2699999809265137,1.440000057220459 -1.7170000076293945,2.0169999599456787 -1.2359999418258667,2.502000093460083"></path></g><g opacity="1" transform="matrix(1,0,0,1,7.894000053405762,6.656000137329102)"><path fill="rgb(240,108,94)" fill-opacity="1" d=" M-1.465000033378601,-2.0999999046325684 C-1.6059999465942383,-2.0999999046325684 -1.7430000305175781,-2.072999954223633 -1.871000051498413,-2.0199999809265137 C-2.2869999408721924,-1.8480000495910645 -2.5350000858306885,-1.4019999504089355 -2.5350000858306885,-0.8270000219345093 C-2.5350000858306885,0.2460000067949295 -0.8399999737739563,1.6430000066757202 0,2.2249999046325684 C0.8389999866485596,1.6419999599456787 2.5350000858306885,0.24500000476837158 2.5350000858306885,-0.8270000219345093 C2.5350000858306885,-1.4019999504089355 2.2880001068115234,-1.8480000495910645 1.871000051498413,-2.0199999809265137 C1.3769999742507935,-2.2249999046325684 0.7590000033378601,-2.0250000953674316 0.2199999988079071,-1.4859999418258667 C0.2199999988079071,-1.4859999418258667 0,-1.2669999599456787 0,-1.2669999599456787 C0,-1.2669999599456787 -0.21899999678134918,-1.4859999418258667 -0.21899999678134918,-1.4859999418258667 C-0.6190000176429749,-1.8860000371932983 -1.0609999895095825,-2.0999999046325684 -1.465000033378601,-2.0999999046325684z"></path></g></g><g transform="matrix(1.8059998750686646,0,0,1.8059998750686646,17.435606002807617,50.666717529296875)" opacity="1" style="display: none;"><g opacity="1" transform="matrix(1,0,0,1,7.894999980926514,10.644000053405762)"><path fill="rgb(255,238,207)" fill-opacity="1" d=" M0,2.9570000171661377 C-3.6410000324249268,2.9570000171661377 -7.327000141143799,1.9420000314712524 -7.327000141143799,0.0010000000474974513 C-7.327000141143799,-1.940999984741211 -3.6410000324249268,-2.9570000171661377 0,-2.9570000171661377 C3.6410000324249268,-2.9570000171661377 7.327000141143799,-1.940999984741211 7.327000141143799,0.0010000000474974513 C7.327000141143799,1.9420000314712524 3.6410000324249268,2.9570000171661377 0,2.9570000171661377z"></path></g><g opacity="1" transform="matrix(1,0,0,1,7.894000053405762,10.644000053405762)"><path fill="rgb(255,201,77)" fill-opacity="1" d=" M6.781000137329102,0 C6.781000137329102,-1.3320000171661377 3.744999885559082,-2.4110000133514404 0,-2.4110000133514404 C-3.744999885559082,-2.4110000133514404 -6.781000137329102,-1.3320000171661377 -6.781000137329102,0 C-6.781000137329102,1.3320000171661377 -3.744999885559082,2.4110000133514404 0,2.4110000133514404 C3.744999885559082,2.4110000133514404 6.781000137329102,1.3320000171661377 6.781000137329102,0z"></path></g><g opacity="1" transform="matrix(1,0,0,1,7.894999980926514,10.097999572753906)"><path fill="rgb(255,201,77)" fill-opacity="1" d=" M3.072000026702881,0 C3.072000026702881,-0.6029999852180481 1.6959999799728394,-1.0920000076293945 0,-1.0920000076293945 C-1.6970000267028809,-1.0920000076293945 -3.072000026702881,-0.6029999852180481 -3.072000026702881,0 C-3.072000026702881,0.6029999852180481 -1.6970000267028809,1.0920000076293945 0,1.0920000076293945 C1.6959999799728394,1.0920000076293945 3.072000026702881,0.6029999852180481 3.072000026702881,0z"></path></g><g opacity="1" transform="matrix(1,0,0,1,7.894999980926514,5.320000171661377)"><path fill="rgb(255,238,207)" fill-opacity="1" d=" M7.644999980926514,-3.5490000247955322 C7.644999980926514,-4.377999782562256 4.2210001945495605,-5.051000118255615 0,-5.051000118255615 C-4.2220001220703125,-5.051000118255615 -7.644999980926514,-4.377999782562256 -7.644999980926514,-3.5490000247955322 C-7.644999980926514,-2.7200000286102295 -6.552999973297119,5.051000118255615 0,5.051000118255615 C6.552000045776367,5.051000118255615 7.644999980926514,-2.7200000286102295 7.644999980926514,-3.5490000247955322z"></path></g><g opacity="1" transform="matrix(1,0,0,1,7.894999980926514,1.7710000276565552)"><path fill="rgb(255,201,77)" fill-opacity="1" d=" M7.644999980926514,0 C7.644999980926514,-0.8289999961853027 4.2210001945495605,-1.5019999742507935 0,-1.5019999742507935 C-4.2220001220703125,-1.5019999742507935 -7.644999980926514,-0.8289999961853027 -7.644999980926514,0 C-7.644999980926514,0.8289999961853027 -4.2220001220703125,1.5019999742507935 0,1.5019999742507935 C4.2210001945495605,1.5019999742507935 7.644999980926514,0.8289999961853027 7.644999980926514,0z"></path></g><g opacity="1" transform="matrix(1,0,0,1,15.663000106811523,4.501999855041504)"><path stroke-linecap="round" stroke-linejoin="round" fill-opacity="0" stroke="rgb(255,201,77)" stroke-opacity="1" stroke-width="0.8" d=" M-0.5669999718666077,-2.0799999237060547 C-0.16599999368190765,-2.4800000190734863 0.5789999961853027,-2.502000093460083 1.0529999732971191,-2.1760001182556152 C1.5269999504089355,-1.8489999771118164 1.7170000076293945,-1.2430000305175781 1.5800000429153442,-0.7149999737739563 C1.444000005722046,-0.18700000643730164 1.0169999599456787,0.2549999952316284 0.4959999918937683,0.5149999856948853 C0.06599999964237213,0.7289999723434448 -0.38100001215934753,0.9039999842643738 -0.7900000214576721,1.1510000228881836 C-1.2699999809265137,1.440000057220459 -1.7170000076293945,2.0169999599456787 -1.2359999418258667,2.502000093460083"></path></g><g opacity="1" transform="matrix(1,0,0,1,7.894999980926514,5.316999912261963)"><path fill="rgb(255,201,77)" fill-opacity="1" d=" M1.1419999599456787,0 C1.1419999599456787,-0.6309999823570251 0.6309999823570251,-1.1419999599456787 0,-1.1419999599456787 C-0.6309999823570251,-1.1419999599456787 -1.1419999599456787,-0.6309999823570251 -1.1419999599456787,0 C-1.1419999599456787,0.6309999823570251 -0.6309999823570251,1.1419999599456787 0,1.1419999599456787 C0.6309999823570251,1.1419999599456787 1.1419999599456787,0.6309999823570251 1.1419999599456787,0z"></path></g><g opacity="1" transform="matrix(1,0,0,1,6.883999824523926,6.875999927520752)"><path fill="rgb(255,201,77)" fill-opacity="1" d=" M1.1419999599456787,0 C1.1419999599456787,-0.6309999823570251 0.6309999823570251,-1.1419999599456787 0,-1.1419999599456787 C-0.6309999823570251,-1.1419999599456787 -1.1419999599456787,-0.6309999823570251 -1.1419999599456787,0 C-1.1419999599456787,0.6309999823570251 -0.6309999823570251,1.1419999599456787 0,1.1419999599456787 C0.6309999823570251,1.1419999599456787 1.1419999599456787,0.6309999823570251 1.1419999599456787,0z"></path></g><g opacity="1" transform="matrix(1,0,0,1,8.904999732971191,6.875999927520752)"><path fill="rgb(255,201,77)" fill-opacity="1" d=" M1.1419999599456787,0 C1.1419999599456787,-0.6309999823570251 0.6309999823570251,-1.1419999599456787 0,-1.1419999599456787 C-0.6309999823570251,-1.1419999599456787 -1.1419999599456787,-0.6309999823570251 -1.1419999599456787,0 C-1.1419999599456787,0.6309999823570251 -0.6309999823570251,1.1419999599456787 0,1.1419999599456787 C0.6309999823570251,1.1419999599456787 1.1419999599456787,0.6309999823570251 1.1419999599456787,0z"></path></g><g opacity="1" transform="matrix(1,0,0,1,7.894999980926514,7.732999801635742)"><path fill="rgb(255,201,77)" fill-opacity="1" d=" M1.003999948501587,1.4210000038146973 C0,0.7919999957084656 0,-1.4210000038146973 0,-1.4210000038146973 C0,-1.4210000038146973 0,0.7919999957084656 -1.003999948501587,1.4210000038146973 C-1.003999948501587,1.4210000038146973 1.003999948501587,1.4210000038146973 1.003999948501587,1.4210000038146973z"></path></g></g></g></svg>