<svg xmlns="http://www.w3.org/2000/svg" viewBox="0 0 23 23" width="23" height="23" preserveAspectRatio="xMidYMid meet" style="width: 100%; height: 100%; transform: translate3d(0px, 0px, 0px); content-visibility: visible;"><defs><clipPath id="__lottie_element_2533"><rect width="23" height="23" x="0" y="0"></rect></clipPath></defs><g clip-path="url(#__lottie_element_2533)"><g transform="matrix(-0.02354263700544834,0.33216676115989685,-0.33216676115989685,-0.02354263700544834,23.73320960998535,0.826015055179596)" opacity="0.9258487354332691" style="display: block;"><g opacity="1" transform="matrix(1,0,0,1,34.49399948120117,34.494998931884766)"><path fill="rgb(255,238,207)" fill-opacity="1" d=" M1.8980000019073486,0.02800000086426735 C2.303999900817871,-27.270000457763672 1.5570000410079956,-34.2140007019043 0.5080000162124634,-34.229000091552734 C-0.5400000214576721,-34.244998931884766 -1.4930000305175781,-27.325000762939453 -1.8990000486373901,-0.02800000086426735 C-2.303999900817871,27.270000457763672 -1.5570000410079956,34.2140007019043 -0.5090000033378601,34.229000091552734 C0.5400000214576721,34.244998931884766 1.4919999837875366,27.325000762939453 1.8980000019073486,0.02800000086426735z"></path></g><g opacity="1" transform="matrix(1,0,0,1,34.49399948120117,34.494998931884766)"><path fill="rgb(255,238,207)" fill-opacity="1" d=" M0.02800000086426735,-1.8990000486373901 C-27.268999099731445,-2.305000066757202 -34.2130012512207,-1.5579999685287476 -34.229000091552734,-0.5090000033378601 C-34.24399948120117,0.5389999747276306 -27.326000213623047,1.4930000305175781 -0.028999999165534973,1.8980000019073486 C27.268999099731445,2.305000066757202 34.2130012512207,1.5579999685287476 34.22800064086914,0.5090000033378601 C34.24399948120117,-0.5389999747276306 27.326000213623047,-1.4930000305175781 0.02800000086426735,-1.8990000486373901z"></path></g></g></g></svg>