<svg xmlns="http://www.w3.org/2000/svg" viewBox="0 0 76 57" width="76" height="57" preserveAspectRatio="xMidYMid meet" style="width: 100%; height: 100%; transform: translate3d(0px, 0px, 0px); content-visibility: visible;"><defs><clipPath id="__lottie_element_489"><rect width="76" height="57" x="0" y="0"></rect></clipPath></defs><g clip-path="url(#__lottie_element_489)"><g transform="matrix(1.805999994277954,0,0,1.805999994277954,20.96782112121582,13.804123878479004)" opacity="1" style="display: block;"><g opacity="1" transform="matrix(1,0,0,1,9.027000427246094,12.074000358581543)"><path fill="rgb(137,121,131)" fill-opacity="1" d=" M7.248000144958496,0 C7.248000144958496,-0.46700000762939453 4.002999782562256,-0.8460000157356262 0,-0.8460000157356262 C-4.002999782562256,-0.8460000157356262 -7.248000144958496,-0.46700000762939453 -7.248000144958496,0 C-7.248000144958496,0.46700000762939453 -4.002999782562256,0.8460000157356262 0,0.8460000157356262 C4.002999782562256,0.8460000157356262 7.248000144958496,0.46700000762939453 7.248000144958496,0z"></path></g></g><g transform="matrix(1.805999994277954,0,0,1.805999994277954,20.96782112121582,13.804123878479004)" opacity="1" style="display: block;"><g opacity="1" transform="matrix(1,0,0,1,3.571000099182129,10.28499984741211)"><path fill="rgb(77,67,95)" fill-opacity="1" d=" M0.890999972820282,1.7549999952316284 C0.890999972820282,1.7549999952316284 -0.890999972820282,1.7549999952316284 -0.890999972820282,1.7549999952316284 C-1.128000020980835,1.7549999952316284 -1.3200000524520874,1.562999963760376 -1.3200000524520874,1.3259999752044678 C-1.3200000524520874,1.3259999752044678 -1.3200000524520874,-1.3259999752044678 -1.3200000524520874,-1.3259999752044678 C-1.3200000524520874,-1.562999963760376 -1.128000020980835,-1.7549999952316284 -0.890999972820282,-1.7549999952316284 C-0.890999972820282,-1.7549999952316284 0.890999972820282,-1.7549999952316284 0.890999972820282,-1.7549999952316284 C1.128000020980835,-1.7549999952316284 1.3200000524520874,-1.562999963760376 1.3200000524520874,-1.3259999752044678 C1.3200000524520874,-1.3259999752044678 1.3200000524520874,1.3259999752044678 1.3200000524520874,1.3259999752044678 C1.3200000524520874,1.562999963760376 1.128000020980835,1.7549999952316284 0.890999972820282,1.7549999952316284z"></path></g><g opacity="1" transform="matrix(1,0,0,1,14.482000350952148,10.28499984741211)"><path fill="rgb(77,67,95)" fill-opacity="1" d=" M0.890999972820282,1.7549999952316284 C0.890999972820282,1.7549999952316284 -0.890999972820282,1.7549999952316284 -0.890999972820282,1.7549999952316284 C-1.128000020980835,1.7549999952316284 -1.3200000524520874,1.562999963760376 -1.3200000524520874,1.3259999752044678 C-1.3200000524520874,1.3259999752044678 -1.3200000524520874,-1.3259999752044678 -1.3200000524520874,-1.3259999752044678 C-1.3200000524520874,-1.562999963760376 -1.128000020980835,-1.7549999952316284 -0.890999972820282,-1.7549999952316284 C-0.890999972820282,-1.7549999952316284 0.890999972820282,-1.7549999952316284 0.890999972820282,-1.7549999952316284 C1.128000020980835,-1.7549999952316284 1.3200000524520874,-1.562999963760376 1.3200000524520874,-1.3259999752044678 C1.3200000524520874,-1.3259999752044678 1.3200000524520874,1.3259999752044678 1.3200000524520874,1.3259999752044678 C1.3200000524520874,1.562999963760376 1.128000020980835,1.7549999952316284 0.890999972820282,1.7549999952316284z"></path></g><g opacity="1" transform="matrix(1,0,0,1,9.027000427246094,2.947000026702881)"><path fill="rgb(193,66,60)" fill-opacity="1" d=" M4.448999881744385,2.697000026702881 C4.448999881744385,2.697000026702881 -4.448999881744385,2.697000026702881 -4.448999881744385,2.697000026702881 C-4.448999881744385,2.697000026702881 -4.448999881744385,-0.6650000214576721 -4.448999881744385,-0.6650000214576721 C-4.448999881744385,-1.784999966621399 -3.5380001068115234,-2.697000026702881 -2.4179999828338623,-2.697000026702881 C-2.4179999828338623,-2.697000026702881 2.4179999828338623,-2.697000026702881 2.4179999828338623,-2.697000026702881 C3.5380001068115234,-2.697000026702881 4.448999881744385,-1.784999966621399 4.448999881744385,-0.6650000214576721 C4.448999881744385,-0.6650000214576721 4.448999881744385,2.697000026702881 4.448999881744385,2.697000026702881z"></path></g><g opacity="1" transform="matrix(1,0,0,1,9.027000427246094,2.947000026702881)"><path fill="rgb(77,67,95)" fill-opacity="1" d=" M3.4489998817443848,1.6970000267028809 C3.4489998817443848,1.6970000267028809 -3.4489998817443848,1.6970000267028809 -3.4489998817443848,1.6970000267028809 C-3.4489998817443848,1.6970000267028809 -3.4489998817443848,-0.6660000085830688 -3.4489998817443848,-0.6660000085830688 C-3.4489998817443848,-1.2350000143051147 -2.98799991607666,-1.6970000267028809 -2.4179999828338623,-1.6970000267028809 C-2.4179999828338623,-1.6970000267028809 2.4159998893737793,-1.6970000267028809 2.4159998893737793,-1.6970000267028809 C2.9860000610351562,-1.6970000267028809 3.4489998817443848,-1.2350000143051147 3.4489998817443848,-0.6660000085830688 C3.4489998817443848,-0.6660000085830688 3.4489998817443848,1.6970000267028809 3.4489998817443848,1.6970000267028809z"></path></g><g opacity="1" transform="matrix(1,0,0,1,9.027000427246094,6.336999893188477)"><path fill="rgb(193,66,60)" fill-opacity="1" d=" M3.250999927520752,-2.193000078201294 C8.777000427246094,-2.193000078201294 7.776000022888184,2.193000078201294 7.776000022888184,2.193000078201294 C7.776000022888184,2.193000078201294 -7.776000022888184,2.193000078201294 -7.776000022888184,2.193000078201294 C-7.776000022888184,2.193000078201294 -8.777000427246094,-2.193000078201294 -3.252000093460083,-2.193000078201294 C-3.252000093460083,-2.193000078201294 3.250999927520752,-2.193000078201294 3.250999927520752,-2.193000078201294z"></path></g><g opacity="1" transform="matrix(1,0,0,1,9.027000427246094,9.201000213623047)"><path fill="rgb(175,154,166)" fill-opacity="1" d=" M7.776000022888184,0.671999990940094 C7.776000022888184,0.671999990940094 -7.776000022888184,0.671999990940094 -7.776000022888184,0.671999990940094 C-7.776000022888184,0.671999990940094 -7.776000022888184,-0.671999990940094 -7.776000022888184,-0.671999990940094 C-7.776000022888184,-0.671999990940094 7.776000022888184,-0.671999990940094 7.776000022888184,-0.671999990940094 C7.776000022888184,-0.671999990940094 7.776000022888184,0.671999990940094 7.776000022888184,0.671999990940094z"></path></g><g opacity="1" transform="matrix(1,0,0,1,3.318000078201294,7.627999782562256)"><path fill="rgb(230,235,246)" fill-opacity="1" d=" M-2.005000114440918,-0.902999997138977 C-2.259999990463257,0.05000000074505806 -2.068000078201294,0.902999997138977 -2.068000078201294,0.902999997138977 C-2.068000078201294,0.902999997138977 2.259999990463257,0.902999997138977 2.259999990463257,0.902999997138977 C2.259999990463257,0.902999997138977 2.259999990463257,-0.0989999994635582 2.259999990463257,-0.0989999994635582 C2.259999990463257,-0.0989999994635582 0.8029999732971191,-0.8349999785423279 -2.005000114440918,-0.902999997138977z"></path></g><g opacity="1" transform="matrix(1,0,0,1,14.734999656677246,7.627999782562256)"><path fill="rgb(230,235,246)" fill-opacity="1" d=" M2.005000114440918,-0.902999997138977 C-0.8029999732971191,-0.8349999785423279 -2.259999990463257,-0.0989999994635582 -2.259999990463257,-0.0989999994635582 C-2.259999990463257,-0.0989999994635582 -2.259999990463257,0.902999997138977 -2.259999990463257,0.902999997138977 C-2.259999990463257,0.902999997138977 2.068000078201294,0.902999997138977 2.068000078201294,0.902999997138977 C2.068000078201294,0.902999997138977 2.259999990463257,0.05000000074505806 2.005000114440918,-0.902999997138977z"></path></g><g opacity="1" transform="matrix(1,0,0,1,9.027000427246094,8.029000282287598)"><path fill="rgb(77,67,95)" fill-opacity="1" d=" M3.447999954223633,0.5 C3.447999954223633,0.5 -3.447999954223633,0.5 -3.447999954223633,0.5 C-3.447999954223633,0.5 -3.447999954223633,-0.5 -3.447999954223633,-0.5 C-3.447999954223633,-0.5 3.447999954223633,-0.5 3.447999954223633,-0.5 C3.447999954223633,-0.5 3.447999954223633,0.5 3.447999954223633,0.5z"></path></g><g opacity="1" transform="matrix(1,0,0,1,9.026000022888184,5.3520002365112305)"><path fill="rgb(193,66,60)" fill-opacity="1" d=" M1.6770000457763672,-1.812000036239624 C1.6770000457763672,-1.812000036239624 -1.6770000457763672,-1.812000036239624 -1.6770000457763672,-1.812000036239624 C-1.6770000457763672,-1.812000036239624 -1.6770000457763672,1.812000036239624 -1.6770000457763672,1.812000036239624 C-1.6770000457763672,1.812000036239624 1.6770000457763672,1.812000036239624 1.6770000457763672,1.812000036239624 C1.6770000457763672,1.812000036239624 1.6770000457763672,-1.812000036239624 1.6770000457763672,-1.812000036239624z"></path></g></g></g></svg>