<svg xmlns="http://www.w3.org/2000/svg" viewBox="0 0 17 45" width="17" height="45" preserveAspectRatio="xMidYMid meet" style="width: 100%; height: 100%; transform: translate3d(0px, 0px, 0px); content-visibility: visible;"><defs><clipPath id="__lottie_element_2170"><rect width="17" height="45" x="0" y="0"></rect></clipPath></defs><g clip-path="url(#__lottie_element_2170)"><g transform="matrix(0.20318849384784698,0,0,0.1986411213874817,9.983986854553223,17.534095764160156)" opacity="0.6671162341810711" style="display: block;"><g opacity="1" transform="matrix(0.7071067690849304,0.7071067690849304,-0.7071067690849304,0.7071067690849304,0,0)"><path fill="rgb(190,58,27)" fill-opacity="1" d=" M13.234999656677246,-5.26200008392334 C16.320999145507812,10.369000434875488 17.141000747680664,12.991000175476074 14.925999641418457,15.074000358581543 C12.772000312805176,17.099000930786133 9.807999610900879,16.118000030517578 -5.261000156402588,13.234999656677246 C-7.544000148773193,12.79800033569336 -9.51200008392334,10.890000343322754 -10.26099967956543,8.234999656677246 C-11.010000228881836,5.579999923706055 -17.5,-12.5 -17.5,-12.5 C-18.981000900268555,-16.92099952697754 -16.566999435424805,-18.969999313354492 -12.5,-17.5 C-12.5,-17.5 5.738999843597412,-11.053999900817871 8.234999656677246,-10.26099967956543 C10.730999946594238,-9.468000411987305 12.685999870300293,-8.041000366210938 13.234999656677246,-5.26200008392334z"></path></g></g><g transform="matrix(0.3792009651660919,0,0,0.3591230809688568,6.733358383178711,29.931772232055664)" opacity="0.9416946043698464" style="display: block;"><g opacity="1" transform="matrix(0.7071067690849304,0.7071067690849304,-0.7071067690849304,0.7071067690849304,0,0)"><path fill="rgb(208,74,28)" fill-opacity="1" d=" M13.234999656677246,-5.26200008392334 C16.320999145507812,10.369000434875488 17.141000747680664,12.991000175476074 14.925999641418457,15.074000358581543 C12.772000312805176,17.099000930786133 9.807999610900879,16.118000030517578 -5.261000156402588,13.234999656677246 C-7.544000148773193,12.79800033569336 -9.51200008392334,10.890000343322754 -10.26099967956543,8.234999656677246 C-11.010000228881836,5.579999923706055 -17.5,-12.5 -17.5,-12.5 C-18.981000900268555,-16.92099952697754 -16.566999435424805,-18.969999313354492 -12.5,-17.5 C-12.5,-17.5 5.738999843597412,-11.053999900817871 8.234999656677246,-10.26099967956543 C10.730999946594238,-9.468000411987305 12.685999870300293,-8.041000366210938 13.234999656677246,-5.26200008392334z"></path></g></g><g transform="matrix(0.43624773621559143,0,0,0.41113629937171936,10.639941215515137,34.84712219238281)" opacity="1" style="display: block;"><g opacity="1" transform="matrix(0.7071067690849304,0.7071067690849304,-0.7071067690849304,0.7071067690849304,0,0)"><path fill="rgb(228,91,30)" fill-opacity="1" d=" M13.234999656677246,-5.26200008392334 C16.320999145507812,10.369000434875488 17.141000747680664,12.991000175476074 14.925999641418457,15.074000358581543 C12.772000312805176,17.099000930786133 9.807999610900879,16.118000030517578 -5.261000156402588,13.234999656677246 C-7.544000148773193,12.79800033569336 -9.51200008392334,10.890000343322754 -10.26099967956543,8.234999656677246 C-11.010000228881836,5.579999923706055 -17.5,-12.5 -17.5,-12.5 C-18.981000900268555,-16.92099952697754 -16.566999435424805,-18.969999313354492 -12.5,-17.5 C-12.5,-17.5 5.738999843597412,-11.053999900817871 8.234999656677246,-10.26099967956543 C10.730999946594238,-9.468000411987305 12.685999870300293,-8.041000366210938 13.234999656677246,-5.26200008392334z"></path></g></g><g transform="matrix(0.44555696845054626,0,0,0.41964009404182434,6.3308939933776855,35.877098083496094)" opacity="1" style="display: block;"><g opacity="1" transform="matrix(0.7071067690849304,0.7071067690849304,-0.7071067690849304,0.7071067690849304,0,0)"><path fill="rgb(235,98,31)" fill-opacity="1" d=" M13.234999656677246,-5.26200008392334 C16.320999145507812,10.369000434875488 17.141000747680664,12.991000175476074 14.925999641418457,15.074000358581543 C12.772000312805176,17.099000930786133 9.807999610900879,16.118000030517578 -5.261000156402588,13.234999656677246 C-7.544000148773193,12.79800033569336 -9.51200008392334,10.890000343322754 -10.26099967956543,8.234999656677246 C-11.010000228881836,5.579999923706055 -17.5,-12.5 -17.5,-12.5 C-18.981000900268555,-16.92099952697754 -16.566999435424805,-18.969999313354492 -12.5,-17.5 C-12.5,-17.5 5.738999843597412,-11.053999900817871 8.234999656677246,-10.26099967956543 C10.730999946594238,-9.468000411987305 12.685999870300293,-8.041000366210938 13.234999656677246,-5.26200008392334z"></path></g></g><g transform="matrix(0.4048345386981964,0,0,0.38314327597618103,10.259425163269043,35.377052307128906)" opacity="1" style="display: block;"><g opacity="1" transform="matrix(0.7071067690849304,0.7071067690849304,-0.7071067690849304,0.7071067690849304,0,0)"><path fill="rgb(241,132,46)" fill-opacity="1" d=" M13.234999656677246,-5.26200008392334 C16.320999145507812,10.369000434875488 17.141000747680664,12.991000175476074 14.925999641418457,15.074000358581543 C12.772000312805176,17.099000930786133 9.807999610900879,16.118000030517578 -5.261000156402588,13.234999656677246 C-7.544000148773193,12.79800033569336 -9.51200008392334,10.890000343322754 -10.26099967956543,8.234999656677246 C-11.010000228881836,5.579999923706055 -17.5,-12.5 -17.5,-12.5 C-18.981000900268555,-16.92099952697754 -16.566999435424805,-18.969999313354492 -12.5,-17.5 C-12.5,-17.5 5.738999843597412,-11.053999900817871 8.234999656677246,-10.26099967956543 C10.730999946594238,-9.468000411987305 12.685999870300293,-8.041000366210938 13.234999656677246,-5.26200008392334z"></path></g></g><g transform="matrix(0.2781405448913574,0,0,0.26761794090270996,8.034550666809082,37.01132583618164)" opacity="1" style="display: block;"><g opacity="1" transform="matrix(0.7071067690849304,0.7071067690849304,-0.7071067690849304,0.7071067690849304,0,0)"><path fill="rgb(251,180,67)" fill-opacity="1" d=" M13.234999656677246,-5.26200008392334 C16.320999145507812,10.369000434875488 17.141000747680664,12.991000175476074 14.925999641418457,15.074000358581543 C12.772000312805176,17.099000930786133 9.807999610900879,16.118000030517578 -5.261000156402588,13.234999656677246 C-7.544000148773193,12.79800033569336 -9.51200008392334,10.890000343322754 -10.26099967956543,8.234999656677246 C-11.010000228881836,5.579999923706055 -17.5,-12.5 -17.5,-12.5 C-18.981000900268555,-16.92099952697754 -16.566999435424805,-18.969999313354492 -12.5,-17.5 C-12.5,-17.5 5.738999843597412,-11.053999900817871 8.234999656677246,-10.26099967956543 C10.730999946594238,-9.468000411987305 12.685999870300293,-8.041000366210938 13.234999656677246,-5.26200008392334z"></path></g></g><g transform="matrix(0.1126553863286972,0,0,0.1126553863286972,6.866830348968506,43.19792938232422)" opacity="1" style="display: block;"><g opacity="1" transform="matrix(0.7071067690849304,0.7071067690849304,-0.7071067690849304,0.7071067690849304,0,0)"><path fill="rgb(255,202,77)" fill-opacity="1" d=" M13.234999656677246,-5.26200008392334 C16.320999145507812,10.369000434875488 17.141000747680664,12.991000175476074 14.925999641418457,15.074000358581543 C12.772000312805176,17.099000930786133 9.807999610900879,16.118000030517578 -5.261000156402588,13.234999656677246 C-7.544000148773193,12.79800033569336 -9.51200008392334,10.890000343322754 -10.26099967956543,8.234999656677246 C-11.010000228881836,5.579999923706055 -17.5,-12.5 -17.5,-12.5 C-18.981000900268555,-16.92099952697754 -16.566999435424805,-18.969999313354492 -12.5,-17.5 C-12.5,-17.5 5.738999843597412,-11.053999900817871 8.234999656677246,-10.26099967956543 C10.730999946594238,-9.468000411987305 12.685999870300293,-8.041000366210938 13.234999656677246,-5.26200008392334z"></path></g></g><g transform="matrix(0.1126553863286972,0,0,0.1126553863286972,9.574892044067383,43.19792938232422)" opacity="1" style="display: none;"><g opacity="1" transform="matrix(0.7071067690849304,0.7071067690849304,-0.7071067690849304,0.7071067690849304,0,0)"><path fill="rgb(255,202,77)" fill-opacity="1" d=" M13.234999656677246,-5.26200008392334 C16.320999145507812,10.369000434875488 17.141000747680664,12.991000175476074 14.925999641418457,15.074000358581543 C12.772000312805176,17.099000930786133 9.807999610900879,16.118000030517578 -5.261000156402588,13.234999656677246 C-7.544000148773193,12.79800033569336 -9.51200008392334,10.890000343322754 -10.26099967956543,8.234999656677246 C-11.010000228881836,5.579999923706055 -17.5,-12.5 -17.5,-12.5 C-18.981000900268555,-16.92099952697754 -16.566999435424805,-18.969999313354492 -12.5,-17.5 C-12.5,-17.5 5.738999843597412,-11.053999900817871 8.234999656677246,-10.26099967956543 C10.730999946594238,-9.468000411987305 12.685999870300293,-8.041000366210938 13.234999656677246,-5.26200008392334z"></path></g></g></g></svg>