<svg xmlns="http://www.w3.org/2000/svg" viewBox="0 0 308 129" width="308" height="129" preserveAspectRatio="xMidYMid meet" style="width: 100%; height: 100%; transform: translate3d(0px, 0px, 0px); content-visibility: visible;"><defs><clipPath id="__lottie_element_267"><rect width="308" height="129" x="0" y="0"></rect></clipPath></defs><g clip-path="url(#__lottie_element_267)"><g transform="matrix(0.3328676223754883,0.009388954378664494,-0.009388954378664494,0.3328676223754883,-2.093731641769409,-63.71665954589844)" opacity="1" style="display: block;"><g opacity="1" transform="matrix(1,0,0,1,828.7379760742188,292.989990234375)"><path fill="rgb(113,190,68)" fill-opacity="1" d=" M31.69099998474121,-21.68000030517578 C31.69099998474121,-21.68000030517578 5.27400016784668,-28.141000747680664 -12.3100004196167,-15.404000282287598 C-26.07200050354004,-5.434999942779541 -30.334999084472656,13.286999702453613 -31.54199981689453,20.972000122070312 C-31.69099998474121,21.920000076293945 -31.461999893188477,22.882999420166016 -30.89900016784668,23.65999984741211 C-30.336999893188477,24.437000274658203 -29.493000030517578,24.952999114990234 -28.54599952697754,25.10700035095215 C-20.868000030517578,26.356000900268555 -1.75,28.141000747680664 12.01200008392334,18.172000885009766 C29.59600067138672,5.434000015258789 31.69099998474121,-21.68000030517578 31.69099998474121,-21.68000030517578z"></path></g><g opacity="1" transform="matrix(1,0,0,1,884.9559936523438,308.0169982910156)"><path fill="rgb(79,183,79)" fill-opacity="1" d=" M33.7869987487793,-18.450000762939453 C33.7869987487793,-18.450000762939453 8.185999870300293,-27.624000549316406 -10.628000259399414,-16.78499984741211 C-25.351999282836914,-8.302000045776367 -31.541000366210938,9.876999855041504 -33.540000915527344,17.393999099731445 C-33.7869987487793,18.32200050354004 -33.659000396728516,19.302000045776367 -33.18000030517578,20.132999420166016 C-32.70100021362305,20.96500015258789 -31.916000366210938,21.566999435424805 -30.989999771118164,21.819000244140625 C-23.483999252319336,23.858999252319336 -4.65500020980835,27.624000549316406 10.069000244140625,19.139999389648438 C28.882999420166016,8.300000190734863 33.7869987487793,-18.450000762939453 33.7869987487793,-18.450000762939453z"></path></g><g opacity="1" transform="matrix(1,0,0,1,837.56298828125,255.9029998779297)"><path fill="rgb(113,190,68)" fill-opacity="1" d=" M21.13800048828125,-32.077999114990234 C21.13800048828125,-32.077999114990234 -5.934000015258789,-29.496000289916992 -18.354000091552734,-11.685999870300293 C-28.073999404907227,2.253000020980835 -25.94499969482422,21.336999893188477 -24.558000564575195,28.990999221801758 C-24.386999130249023,29.934999465942383 -23.854999542236328,30.768999099731445 -23.06800079345703,31.31800079345703 C-22.280000686645508,31.867000579833984 -21.31399917602539,32.077999114990234 -20.368999481201172,31.91200065612793 C-12.706999778747559,30.566999435424805 5.934999942779541,25.966999053955078 15.654999732971191,12.027999877929688 C28.073999404907227,-5.7829999923706055 21.13800048828125,-32.077999114990234 21.13800048828125,-32.077999114990234z"></path></g></g><g transform="matrix(0.3315680921077728,0.03084803745150566,-0.03084803745150566,0.3315680921077728,5.4246826171875,-82.19812774658203)" opacity="1" style="display: block;"><g opacity="1" transform="matrix(1,0,0,1,897.5330200195312,267.4540100097656)"><path fill="rgb(79,183,79)" fill-opacity="1" d=" M19.40399932861328,-33.21799850463867 C19.40399932861328,-33.21799850463867 -7.480999946594238,-29.121999740600586 -18.881999969482422,-10.642000198364258 C-27.804000854492188,3.819999933242798 -24.608999252319336,22.753000259399414 -22.795000076293945,30.31800079345703 C-22.570999145507812,31.250999450683594 -21.992000579833984,32.05400085449219 -21.176000595092773,32.55799865722656 C-20.358999252319336,33.06100082397461 -19.381999969482422,33.21799850463867 -18.447999954223633,32.999000549316406 C-10.873000144958496,31.226999282836914 7.48199987411499,25.589000701904297 16.40399932861328,11.126999855041504 C27.804000854492188,-7.353000164031982 19.40399932861328,-33.21799850463867 19.40399932861328,-33.21799850463867z"></path></g></g><g transform="matrix(0.33144411444664,0.03215270861983299,-0.03215270861983299,0.33144411444664,4.5298871994018555,-82.98407745361328)" opacity="1" style="display: block;"><g opacity="1" transform="matrix(1,0,0,1,893.4299926757812,221.81500244140625)"><path fill="rgb(113,190,68)" fill-opacity="1" d=" M35.15299987792969,-15.819999694824219 C35.15299987792969,-15.819999694824219 10.371000289916992,-27.018999099731445 -9.251999855041504,-17.725000381469727 C-24.610000610351562,-10.449999809265137 -32.236000061035156,7.171999931335449 -34.832000732421875,14.503999710083008 C-35.15299987792969,15.409000396728516 -35.104000091552734,16.39699935913086 -34.694000244140625,17.264999389648438 C-34.28300094604492,18.131999969482422 -33.54899978637695,18.795000076293945 -32.645999908447266,19.1200008392334 C-25.32699966430664,21.756999969482422 -6.861000061035156,27.018999099731445 8.496000289916992,19.7450008392334 C28.118999481201172,10.449000358581543 35.15299987792969,-15.819999694824219 35.15299987792969,-15.819999694824219z"></path></g></g><g transform="matrix(0.3311938941478729,0.03463539108633995,-0.03463539108633995,0.3311938941478729,5.334359645843506,-84.30216217041016)" opacity="1" style="display: block;"><g opacity="1" transform="matrix(1,0,0,1,845.905029296875,208.66000366210938)"><path fill="rgb(113,190,68)" fill-opacity="1" d=" M16.101999282836914,-35.02000045776367 C16.101999282836914,-35.02000045776367 -10.22599983215332,-28.20800018310547 -19.687999725341797,-8.663999557495117 C-27.090999603271484,6.63100004196167 -21.985000610351562,25.141000747680664 -19.410999298095703,32.481998443603516 C-19.093000411987305,33.387001037597656 -18.43600082397461,34.12699890136719 -17.57200050354004,34.54499816894531 C-16.708999633789062,34.9630012512207 -15.720999717712402,35.02000045776367 -14.814000129699707,34.707000732421875 C-7.459000110626221,32.17300033569336 10.22700023651123,24.695999145507812 17.631000518798828,9.399999618530273 C27.090999603271484,-10.144000053405762 16.101999282836914,-35.02000045776367 16.101999282836914,-35.02000045776367z"></path></g></g><g transform="matrix(0.3328445851802826,0.010173402726650238,-0.010173402726650238,0.3328445851802826,-0.9838806986808777,-64.41505432128906)" opacity="1" style="display: block;"><g opacity="1" transform="matrix(1,0,0,1,815.97998046875,423.7239990234375)"><path fill="rgb(113,190,68)" fill-opacity="1" d=" M27.64900016784668,25.941999435424805 C27.64900016784668,25.941999435424805 29.246000289916992,-1.2059999704360962 13.54800033569336,-16.20800018310547 C1.2630000114440918,-27.947999954223633 -17.92099952697754,-28.76799964904785 -25.697999954223633,-28.570999145507812 C-26.656999588012695,-28.54599952697754 -27.562999725341797,-28.148000717163086 -28.22599983215332,-27.45400047302246 C-28.888999938964844,-26.76099967956543 -29.246000289916992,-25.83799934387207 -29.22599983215332,-24.878000259399414 C-29.070999145507812,-17.10099983215332 -27.381999969482422,2.0260000228881836 -15.097000122070312,13.765999794006348 C0.6019999980926514,28.76799964904785 27.64900016784668,25.941999435424805 27.64900016784668,25.941999435424805z"></path></g><g opacity="1" transform="matrix(1,0,0,1,829.1580200195312,376.6000061035156)"><path fill="rgb(79,183,79)" fill-opacity="1" d=" M36.73500061035156,-11.913000106811523 C36.73500061035156,-11.913000106811523 13.390000343322754,-25.86199951171875 -7.164000034332275,-18.86400032043457 C-23.25,-13.38599967956543 -32.83399963378906,3.253000020980835 -36.249000549316406,10.241999626159668 C-36.66999816894531,11.104000091552734 -36.73500061035156,12.090999603271484 -36.42599868774414,13 C-36.117000579833984,13.907999992370605 -35.46200180053711,14.652000427246094 -34.60300064086914,15.07800006866455 C-27.631999969482422,18.5310001373291 -9.88599967956543,25.86199951171875 6.199999809265137,20.385000228881836 C26.7549991607666,13.385000228881836 36.73500061035156,-11.913000106811523 36.73500061035156,-11.913000106811523z"></path></g><g opacity="1" transform="matrix(1,0,0,1,883.280029296875,391.67999267578125)"><path fill="rgb(79,183,79)" fill-opacity="1" d=" M38.486000061035156,3.822999954223633 C38.486000061035156,3.822999954223633 23.121000289916992,-18.614999771118164 1.524999976158142,-20.86199951171875 C-15.376999855041504,-22.6200008392334 -31.045000076293945,-11.520000457763672 -37.071998596191406,-6.6020002365112305 C-37.814998626708984,-5.994999885559082 -38.2859992980957,-5.126999855041504 -38.38600158691406,-4.171999931335449 C-38.48500061035156,-3.2179999351501465 -38.202999114990234,-2.2699999809265137 -37.599998474121094,-1.5230000019073486 C-32.71500015258789,4.531000137329102 -19.665000915527344,18.617000579833984 -2.7639999389648438,20.375 C18.833999633789062,22.6200008392334 38.486000061035156,3.822999954223633 38.486000061035156,3.822999954223633z"></path></g><g opacity="1" transform="matrix(1,0,0,1,897.22998046875,427.2449951171875)"><path fill="rgb(79,183,79)" fill-opacity="1" d=" M31.437000274658203,22.02400016784668 C31.437000274658203,22.02400016784668 29.6560001373291,-5.111999988555908 12.220000267028809,-18.052000045776367 C-1.4259999990463257,-28.18000030517578 -20.56399917602539,-26.617000579833984 -28.2549991607666,-25.457000732421875 C-29.20400047302246,-25.312999725341797 -30.05299949645996,-24.80500030517578 -30.625,-24.03499984741211 C-31.195999145507812,-23.263999938964844 -31.437000274658203,-22.304000854492188 -31.298999786376953,-21.354000091552734 C-30.18199920654297,-13.656000137329102 -26.135000228881836,5.11299991607666 -12.48900032043457,15.239999771118164 C4.947999954223633,28.18000030517578 31.437000274658203,22.02400016784668 31.437000274658203,22.02400016784668z"></path></g></g><g transform="matrix(0.3328676223754883,0.009388954378664494,-0.009388954378664494,0.3328676223754883,-1.1050769090652466,-57.90857696533203)" opacity="1" style="display: block;"><g opacity="1" transform="matrix(1,0,0,1,83.10800170898438,445.0580139160156)"><path fill="rgb(113,190,68)" fill-opacity="1" d=" M-38.18299865722656,6.1539998054504395 C-38.18299865722656,6.1539998054504395 -17.374000549316406,23.663000106811523 4.035999774932861,20.04800033569336 C20.79199981689453,17.216999053955078 32.91699981689453,2.3299999237060547 37.40700149536133,-4.021999835968018 C37.96099853515625,-4.804999828338623 38.18299865722656,-5.769999980926514 38.02299880981445,-6.716000080108643 C37.862998962402344,-7.6620001792907715 37.3380012512207,-8.5 36.55699920654297,-9.057999610900879 C30.229999542236328,-13.583000183105469 13.88599967956543,-23.663000106811523 -2.869999885559082,-20.83300018310547 C-24.280000686645508,-17.216999053955078 -38.18299865722656,6.1539998054504395 -38.18299865722656,6.1539998054504395z"></path></g><g opacity="1" transform="matrix(1,0,0,1,134.06100463867188,450.7049865722656)"><path fill="rgb(113,190,68)" fill-opacity="1" d=" M-32.51300048828125,20.500999450683594 C-32.51300048828125,20.500999450683594 -6.368000030517578,27.983999252319336 11.697999954223633,15.939000129699707 C25.836000442504883,6.51200008392334 30.822999954223633,-12.031000137329102 32.32699966430664,-19.663000106811523 C32.51300048828125,-20.604000091552734 32.323001861572266,-21.575000762939453 31.791000366210938,-22.374000549316406 C31.257999420166016,-23.172000885009766 30.43400001525879,-23.722000122070312 29.493999481201172,-23.91200065612793 C21.8700008392334,-25.45800018310547 2.8369998931884766,-27.983999252319336 -11.302000045776367,-18.55699920654297 C-29.367000579833984,-6.511000156402588 -32.51300048828125,20.500999450683594 -32.51300048828125,20.500999450683594z"></path></g><g opacity="1" transform="matrix(1,0,0,1,165.50799560546875,399.4519958496094)"><path fill="rgb(113,190,68)" fill-opacity="1" d=" M-30.391000747680664,-23.357999801635742 C-30.391000747680664,-23.357999801635742 -29.851999282836914,3.8329999446868896 -13.026000022888184,17.55699920654297 C0.14300000667572021,28.297000885009766 19.332000732421875,27.608999252319336 27.069000244140625,26.802000045776367 C28.02400016784668,26.70199966430664 28.895000457763672,26.233999252319336 29.50200080871582,25.489999771118164 C30.107999801635742,24.746999740600586 30.391000747680664,23.798999786376953 30.297000885009766,22.8439998626709 C29.531999588012695,15.10200023651123 26.347000122070312,-3.8329999446868896 13.178999900817871,-14.572999954223633 C-3.6480000019073486,-28.29599952697754 -30.391000747680664,-23.357999801635742 -30.391000747680664,-23.357999801635742z"></path></g><g opacity="1" transform="matrix(1,0,0,1,183.25900268554688,451.4580078125)"><path fill="rgb(79,183,79)" fill-opacity="1" d=" M-31.267000198364258,22.24799919128418 C-31.267000198364258,22.24799919128418 -4.732999801635742,28.202999114990234 12.604999542236328,15.130999565124512 C26.17300033569336,4.900000095367432 30.07699966430664,-13.89900016784668 31.136999130249023,-21.604999542236328 C31.267000198364258,-22.555999755859375 31.02199935913086,-23.513999938964844 30.44300079345703,-24.2810001373291 C29.865999221801758,-25.04599952697754 29.011999130249023,-25.547000885009766 28.062000274658203,-25.68400001525879 C20.361000061035156,-26.78499984741211 1.2120000123977661,-28.20400047302246 -12.355999946594238,-17.974000930786133 C-29.69300079345703,-4.901000022888184 -31.267000198364258,22.24799919128418 -31.267000198364258,22.24799919128418z"></path></g></g><g transform="matrix(0.3309062123298645,0.03728383034467697,-0.03728383034467697,0.3309062123298645,10.5997896194458,-60.819419860839844)" opacity="1" style="display: block;"><g opacity="1" transform="matrix(1,0,0,1,97.43499755859375,394.18701171875)"><path fill="rgb(79,183,79)" fill-opacity="1" d=" M-35.6349983215332,-14.741000175476074 C-35.6349983215332,-14.741000175476074 -27.76300048828125,11.288999557495117 -7.85099983215332,19.950000762939453 C7.73199987411499,26.72800064086914 26.018999099731445,20.875 33.249000549316406,18.0049991607666 C34.14099884033203,17.650999069213867 34.854000091552734,16.96500015258789 35.23699951171875,16.084999084472656 C35.61899948120117,15.204999923706055 35.6349983215332,14.217000007629395 35.2859992980957,13.322999954223633 C32.45600128173828,6.077000141143799 24.26799964904785,-11.291999816894531 8.6850004196167,-18.06999969482422 C-11.22700023651123,-26.729000091552734 -35.6349983215332,-14.741000175476074 -35.6349983215332,-14.741000175476074z"></path></g></g><g transform="matrix(0.33125701546669006,0.03402630612254143,-0.03402630612254143,0.33125701546669006,10.760985374450684,-61.41659164428711)" opacity="1" style="display: block;"><g opacity="1" transform="matrix(1,0,0,1,154.70799255371094,514.3690185546875)"><path fill="rgb(79,183,79)" fill-opacity="1" d=" M-17.229000091552734,34.45500183105469 C-17.229000091552734,34.45500183105469 9.315999984741211,28.547000885009766 19.440000534057617,9.338000297546387 C27.36199951171875,-5.695000171661377 22.891000747680664,-24.368999481201172 20.569000244140625,-31.792999267578125 C20.281999588012695,-32.70899963378906 19.652000427246094,-33.47100067138672 18.80299949645996,-33.917999267578125 C17.95400047302246,-34.3650016784668 16.968000411987305,-34.45500183105469 16.051000595092773,-34.17399978637695 C8.61400032043457,-31.89299964904785 -9.315999984741211,-25.02400016784668 -17.23900032043457,-9.991000175476074 C-27.361000061035156,9.218000411987305 -17.229000091552734,34.45500183105469 -17.229000091552734,34.45500183105469z"></path></g></g><g transform="matrix(0.33125701546669006,0.03402630612254143,-0.03402630612254143,0.33125701546669006,10.113816261291504,-60.36763381958008)" opacity="1" style="display: block;"><g opacity="1" transform="matrix(1,0,0,1,61.86000061035156,481.2820129394531)"><path fill="rgb(79,183,79)" fill-opacity="1" d=" M-33.16600036621094,19.486000061035156 C-33.16600036621094,19.486000061035156 -7.2789998054504395,27.819000244140625 11.170999526977539,16.368999481201172 C25.608999252319336,7.408999919891357 31.198999404907227,-10.961000442504883 32.95199966430664,-18.540000915527344 C33.16699981689453,-19.474000930786133 33.00899887084961,-20.45199966430664 32.50199890136719,-21.267000198364258 C31.996999740600586,-22.082000732421875 31.19099998474121,-22.658000946044922 30.256999969482422,-22.878999710083008 C22.687999725341797,-24.673999786376953 3.746000051498413,-27.819000244140625 -10.692000389099121,-18.858999252319336 C-29.142000198364258,-7.408999919891357 -33.16600036621094,19.486000061035156 -33.16600036621094,19.486000061035156z"></path></g></g></g></svg>