<svg xmlns="http://www.w3.org/2000/svg" viewBox="0 0 123 154" width="123" height="154" preserveAspectRatio="xMidYMid meet" style="width: 100%; height: 100%; transform: translate3d(0px, 0px, 0px); content-visibility: visible;"><defs><clipPath id="__lottie_element_339"><rect width="123" height="154" x="0" y="0"></rect></clipPath></defs><g clip-path="url(#__lottie_element_339)"><g transform="matrix(0.33197346329689026,0.026126880198717117,-0.026126880198717117,0.33197346329689026,15.237759590148926,0.2797481119632721)" opacity="1" style="display: block;"><g opacity="1" transform="matrix(1,0,0,1,185.9459991455078,266.3370056152344)"><path fill="rgb(193,66,60)" fill-opacity="1" d=" M40.50899887084961,-33.62200164794922 C27.652999877929688,-32.10900115966797 17.23699951171875,-22.28499984741211 12.461999893188477,-14.77400016784668 C7.688000202178955,-7.263999938964844 3.8949999809265137,1.0099999904632568 -2.315999984741211,7.383999824523926 C-2.4040000438690186,7.473999977111816 -11.17300033569336,3.6659998893737793 -12.104000091552734,3.384000062942505 C-20.698999404907227,0.7739999890327454 -29.187999725341797,1.4010000228881836 -38.027000427246094,1.725000023841858 C-39.13600158691406,1.7649999856948853 -40.26300048828125,1.8029999732971191 -41.33599853515625,1.5219999551773071 C-42.71900177001953,1.159999966621399 -43.90599822998047,0.2980000078678131 -45.14500045776367,-0.414000004529953 C-48.124000549316406,-2.125 -51.566001892089844,-3.0169999599456787 -55.00299835205078,-2.9719998836517334 C-56.29199981689453,-2.9539999961853027 -57.61800003051758,-2.7950000762939453 -58.74800109863281,-2.1730000972747803 C-59.87799835205078,-1.5520000457763672 -60.777000427246094,-0.38600000739097595 -60.77799987792969,0.9049999713897705 C-60.78099822998047,3.4240000247955322 -56.90999984741211,4.164999961853027 -56.89099884033203,5.793000221252441 C-56.869998931884766,7.670000076293945 -60.43000030517578,7.9070000648498535 -59.30400085449219,10.85099983215332 C-58.957000732421875,11.755999565124512 -58.20199966430664,12.449000358581543 -57.37799835205078,12.960000038146973 C-54.34000015258789,14.840999603271484 -50.483001708984375,14.515000343322754 -46.930999755859375,14.123000144958496 C-49.007999420166016,15.868000030517578 -50.27000045776367,18.722000122070312 -49.63800048828125,21.358999252319336 C-49.007999420166016,23.99799919128418 -46.189998626708984,26.06999969482422 -43.55400085449219,25.434999465942383 C-42.14500045776367,25.094999313354492 -40.99399948120117,24.107999801635742 -39.9379997253418,23.11400032043457 C-37.76499938964844,21.02400016784668 -35.77399826049805,18.763999938964844 -33.630001068115234,16.66699981689453 C-26.768999099731445,17.808000564575195 -19.69499969482422,19.02899932861328 -13.845999717712402,22.790000915527344 C-8.543999671936035,26.198999404907227 -4.193999767303467,31.687999725341797 2.0290000438690186,32.6879997253418 C7.8429999351501465,33.62200164794922 13.062999725341797,30.277999877929688 18.469999313354492,28.774999618530273 C24.07699966430664,27.21500015258789 29.8799991607666,27.00200080871582 35.571998596191406,28.280000686645508 C41.547000885009766,29.621999740600586 48.8390007019043,32.30400085449219 51.4900016784668,29.56999969482422 C54.61000061035156,26.35700035095215 60.78099822998047,18.520999908447266 57.481998443603516,-1.9739999771118164 C54.18199920654297,-22.4689998626709 40.50899887084961,-33.62200164794922 40.50899887084961,-33.62200164794922z"></path></g></g><g transform="matrix(0.33051785826683044,0.04058248922228813,-0.04058248922228813,0.33051785826683044,19.451290130615234,-2.8492965698242188)" opacity="1" style="display: block;"><g opacity="1" transform="matrix(1,0,0,1,68.9530029296875,41.722999572753906)"><path fill="rgb(240,208,154)" fill-opacity="1" d=" M-12.045000076293945,18.770000457763672 C-15.307999610900879,19.530000686645508 -18.35300064086914,17.738000869750977 -17.77400016784668,15.36299991607666 C-16.56599998474121,10.409000396728516 -16.565000534057617,5.377999782562256 -17.795000076293945,0.578000009059906 C-18.72100067138672,-3.0360000133514404 -20.326000213623047,-6.500999927520752 -21.927000045776367,-9.954000473022461 C-21.927000045776367,-9.954000473022461 -24.382999420166016,-15.25100040435791 -24.382999420166016,-15.25100040435791 C-25.356000900268555,-17.347999572753906 -22.290000915527344,-19.530000686645508 -19.354999542236328,-18.80900001525879 C-19.33300018310547,-18.80299949645996 -19.312000274658203,-18.79800033569336 -19.290000915527344,-18.792999267578125 C-1.2400000095367432,-14.315999984741211 14.097999572753906,-5.420000076293945 23.827999114990234,6.0920000076293945 C25.356000900268555,7.9019999504089355 23.834999084472656,10.406999588012695 20.827999114990234,11.107999801635742 C20.827999114990234,11.107999801635742 -12.045000076293945,18.770000457763672 -12.045000076293945,18.770000457763672z"></path></g><g opacity="1" transform="matrix(1,0,0,1,26.166000366210938,130.218994140625)"><path fill="rgb(240,208,154)" fill-opacity="1" d=" M-3.884999990463257,-6.257999897003174 C-4.533999919891357,-1.718000054359436 -2.6040000915527344,3.1050000190734863 1,5.941999912261963 C1.1990000009536743,6.098999977111816 1.4270000457763672,6.257999897003174 1.6799999475479126,6.25 C2.1640000343322754,6.234000205993652 2.4049999713897705,5.671000003814697 2.5269999504089355,5.203000068664551 C3.428999900817871,1.7580000162124634 4.10099983215332,-1.746999979019165 4.534999847412109,-5.2820000648498535 C4.534999847412109,-5.2820000648498535 -3.884999990463257,-6.257999897003174 -3.884999990463257,-6.257999897003174z"></path></g><g opacity="1" transform="matrix(1,0,0,1,58.25299835205078,128.58799743652344)"><path fill="rgb(240,208,154)" fill-opacity="1" d=" M-4.497000217437744,-4.940999984741211 C-4.059999942779541,-0.375 -1.0509999990463257,3.8570001125335693 3.11899995803833,5.767000198364258 C3.3510000705718994,5.872000217437744 3.6070001125335693,5.973999977111816 3.8529999256134033,5.906000137329102 C4.317999839782715,5.7779998779296875 4.421999931335449,5.171999931335449 4.431000232696533,4.689000129699707 C4.497000217437744,1.128000020980835 4.323999881744385,-2.436000108718872 3.9140000343322754,-5.973999977111816 C3.9140000343322754,-5.973999977111816 -4.497000217437744,-4.940999984741211 -4.497000217437744,-4.940999984741211z"></path></g><g opacity="1" transform="matrix(1,0,0,1,68.12999725341797,127.20800018310547)"><path fill="rgb(240,208,154)" fill-opacity="1" d=" M-4.577000141143799,-4.745999813079834 C-4.0329999923706055,-0.19200000166893005 -0.9240000247955322,3.9690001010894775 3.2890000343322754,5.78000020980835 C3.5230000019073486,5.88100004196167 3.7820000648498535,5.97599983215332 4.026000022888184,5.9019999504089355 C4.48799991607666,5.763000011444092 4.577000141143799,5.15500020980835 4.573999881744385,4.671999931335449 C4.558000087738037,1.1100000143051147 4.302000045776367,-2.450000047683716 3.808000087738037,-5.97599983215332 C3.808000087738037,-5.97599983215332 -4.577000141143799,-4.745999813079834 -4.577000141143799,-4.745999813079834z"></path></g><g opacity="1" transform="matrix(1,0,0,1,36.819000244140625,130.3769989013672)"><path fill="rgb(240,208,154)" fill-opacity="1" d=" M-4.15500020980835,-5.940999984741211 C-4.320000171661377,-1.3580000400543213 -1.8890000581741333,3.2320001125335693 1.99399995803833,5.671000003814697 C2.2090001106262207,5.807000160217285 2.4509999752044678,5.940999984741211 2.7019999027252197,5.906000137329102 C3.181999921798706,5.839000225067139 3.36299991607666,5.252999782562256 3.434999942779541,4.775000095367432 C3.9670000076293945,1.253999948501587 4.263000011444092,-2.302999973297119 4.320000171661377,-5.863999843597412 C4.320000171661377,-5.863999843597412 -4.15500020980835,-5.940999984741211 -4.15500020980835,-5.940999984741211z"></path></g><g opacity="1" transform="matrix(1,0,0,1,15.812999725341797,129.69700622558594)"><path fill="rgb(240,208,154)" fill-opacity="1" d=" M-4.294000148773193,-9.765000343322754 C-4.820000171661377,-7.13100004196167 -4.627999782562256,-4.4079999923706055 -4.296000003814697,-1.7430000305175781 C-3.8570001125335693,1.7640000581741333 -3.13700008392334,5.35099983215332 -1.152999997138977,8.276000022888184 C-0.6520000100135803,9.015000343322754 0.3319999873638153,9.765000343322754 1.0299999713897705,9.208999633789062 C1.3450000286102295,8.958000183105469 1.4450000524520874,8.531999588012695 1.5260000228881836,8.137999534606934 C2.624000072479248,2.809999942779541 3.7230000495910645,-2.5179998874664307 4.820000171661377,-7.8460001945495605 C4.820000171661377,-7.8460001945495605 -4.294000148773193,-9.765000343322754 -4.294000148773193,-9.765000343322754z"></path></g><g opacity="1" transform="matrix(1,0,0,1,47.60200119018555,131.63600158691406)"><path fill="rgb(240,208,154)" fill-opacity="1" d=" M-4.744999885559082,-9.022000312805176 C-4.701000213623047,-6.335999965667725 -3.934000015258789,-3.7149999141693115 -3.0450000762939453,-1.1820000410079956 C-1.8730000257492065,2.1519999504089355 -0.40700000524520874,5.504000186920166 2.1510000228881836,7.941999912261963 C2.7990000247955322,8.557999610900879 3.9189999103546143,9.081999778747559 4.484000205993652,8.388999938964844 C4.736999988555908,8.07800006866455 4.744999885559082,7.638999938964844 4.741000175476074,7.236999988555908 C4.741000175476074,7.236999988555908 4.567999839782715,-9.081000328063965 4.567999839782715,-9.081000328063965 C4.567999839782715,-9.081000328063965 -4.744999885559082,-9.022000312805176 -4.744999885559082,-9.022000312805176z"></path></g><g opacity="1" transform="matrix(1,0,0,1,79.02300262451172,127.28800201416016)"><path fill="rgb(240,208,154)" fill-opacity="1" d=" M-5.751999855041504,-7.854000091552734 C-5.380000114440918,-5.195000171661377 -4.298999786376953,-2.687000036239624 -3.1059999465942383,-0.2809999883174896 C-1.534000039100647,2.884000062942505 0.3310000002384186,6.0329999923706055 3.1689999103546143,8.137999534606934 C3.885999917984009,8.670000076293945 5.063000202178955,9.053000450134277 5.539000034332275,8.295999526977539 C5.751999855041504,7.956999778747559 5.705999851226807,7.520999908447266 5.6529998779296875,7.123000144958496 C5.6529998779296875,7.123000144958496 3.484999895095825,-9.052000045776367 3.484999895095825,-9.052000045776367 C3.484999895095825,-9.052000045776367 -5.751999855041504,-7.854000091552734 -5.751999855041504,-7.854000091552734z"></path></g><g opacity="1" transform="matrix(1,0,0,1,74.2750015258789,154.89199829101562)"><path fill="rgb(77,67,95)" fill-opacity="1" d=" M-64.61799621582031,-49.242000579833984 C-66.08899688720703,-46.31700134277344 -66.47599792480469,-42.11899948120117 -67.04000091552734,-39.125999450683594 C-70.4000015258789,-21.270999908447266 -5.142000198364258,-31.680999755859375 3.756999969482422,-33.42300033569336 C8.663999557495117,-34.382999420166016 12.192999839782715,-34.382999420166016 14.781000137329102,-29.77899932861328 C22.375999450683594,-16.267000198364258 20.312999725341797,16.32699966430664 7.716000080108643,26.777999877929688 C5.306000232696533,28.777000427246094 63.358001708984375,25.187999725341797 66.01799774169922,15.329999923706055 C70.4000015258789,-0.9110000133514404 62.678001403808594,-23.280000686645508 49.34000015258789,-33.03799819946289 C37.18899917602539,-41.926998138427734 22.542999267578125,-46.95000076293945 7.690000057220459,-49.41299819946289 C-7.1620001792907715,-51.875 -22.304000854492188,-51.88800048828125 -37.35300064086914,-51.52899932861328 C-40.85300064086914,-51.44599914550781 -44.41400146484375,-50.39400100708008 -47.90700149536133,-50.52799987792969 C-51.58100128173828,-50.667999267578125 -55.007999420166016,-52.073001861572266 -58.61600112915039,-52.5890007019043 C-61.67100143432617,-53.025001525878906 -63.47200012207031,-51.51900100708008 -64.61799621582031,-49.242000579833984z"></path></g><g opacity="1" transform="matrix(1,0,0,1,174.34100341796875,208.63400268554688)"><path fill="rgb(193,66,60)" fill-opacity="1" d=" M174.0919952392578,-87.51300048828125 C129.87600708007812,-88.43599700927734 78.63500213623047,-95.32599639892578 44.47600173950195,-115.25299835205078 C26.884000778198242,-125.51499938964844 15.041000366210938,-141.6490020751953 -1.0329999923706055,-153.90199279785156 C-11.62399959564209,-161.9739990234375 -22.97800064086914,-167.42100524902344 -35.68000030517578,-171.22799682617188 C-55.17399978637695,-177.06900024414062 -75.45500183105469,-170.75100708007812 -93.28099822998047,-163.1300048828125 C-110.9739990234375,-155.5659942626953 -130.83299255371094,-153.73399353027344 -147.53199768066406,-143.73599243164062 C-153.5780029296875,-140.11500549316406 -158.29100036621094,-134.36599731445312 -160.7989959716797,-127.79100036621094 C-162.86099243164062,-122.38999938964844 -163.33799743652344,-116.27400207519531 -165.86900329589844,-111.16100311279297 C-166.9149932861328,-109.0479965209961 -168.30599975585938,-107.11299896240234 -169.26199340820312,-104.95600128173828 C-174.09100341796875,-94.06099700927734 -161.15499877929688,-92.125 -153.7449951171875,-91.12999725341797 C-139.93099975585938,-89.27400207519531 -125.83399963378906,-89.5250015258789 -112.09500122070312,-91.87200164794922 C-106.01100158691406,-92.91200256347656 -99.95700073242188,-94.36499786376953 -93.78800201416016,-94.49400329589844 C-87.61599731445312,-94.6240005493164 -81.16500091552734,-93.28500366210938 -76.40599822998047,-89.34300231933594 C-67.98799896240234,-82.36599731445312 -58.696998596191406,-79.9000015258789 -48.297000885009766,-76.26599884033203 C-44.92599868774414,-75.08799743652344 -41.21900177001953,-73.61699676513672 -39.702999114990234,-70.38400268554688 C-37.74599838256836,-66.20899963378906 -40.70600128173828,-61.0629997253418 -44.821998596191406,-58.987998962402344 C-53.15800094604492,-54.78900146484375 -58.94300079345703,-54.729000091552734 -65.58399963378906,-46.26900100708008 C-68.33200073242188,-42.76900100708008 -68.97699737548828,-38.01100158691406 -71.51899719238281,-34.358001708984375 C-74.0770034790039,-30.683000564575195 -6.7230000495910645,13.520000457763672 -3.760999917984009,14.074000358581543 C3.5769999027252197,15.446999549865723 2.9700000286102295,24.65999984741211 4.236000061035156,30.260000228881836 C5.50600004196167,35.882999420166016 9.121000289916992,42.084999084472656 12.654999732971191,46.56399917602539 C17.280000686645508,52.42599868774414 23.160999298095703,57.14400100708008 28.583999633789062,62.27799987792969 C38.63100051879883,71.79199981689453 47.13600158691406,82.79199981689453 54.70600128173828,94.34100341796875 C62.44200134277344,106.14199829101562 67.92900085449219,119.96199798583984 76.18599700927734,131.29600524902344 C83.47599792480469,141.3000030517578 93.93399810791016,150.57899475097656 103.91100311279297,157.8699951171875 C106.5719985961914,159.81399536132812 138.2740020751953,177.06900024414062 138.48500061035156,175.83999633789062 C140.10499572753906,166.3939971923828 141.71299743652344,156.9459991455078 143.3260040283203,147.5 C149.92799377441406,108.86699676513672 174.0919952392578,-87.51300048828125 174.0919952392578,-87.51300048828125z"></path></g><g opacity="1" transform="matrix(1,0,0,1,34.87200164794922,97.75399780273438)"><path fill="rgb(77,67,95)" fill-opacity="1" d=" M-9.718999862670898,1.7949999570846558 C-8.937000274658203,-0.2939999997615814 -7.317999839782715,-2.1670000553131104 -5.639999866485596,-3.4839999675750732 C-2.4600000381469727,-5.98199987411499 2.388000011444092,-8.503000259399414 6.559000015258789,-7.039999961853027 C10.621000289916992,-5.616000175476074 10.206999778747559,0.5419999957084656 7.640999794006348,3.183000087738037 C5.5980000495910645,5.285999774932861 2.7820000648498535,4.698999881744385 0.1509999930858612,4.829999923706055 C-1.1019999980926514,4.89300012588501 -2.4590001106262207,5.091000080108643 -3.4739999771118164,5.888000011444092 C-4.499000072479248,6.691999912261963 -5.144999980926514,7.48799991607666 -6.5370001792907715,7.795000076293945 C-9.741999626159668,8.503000259399414 -10.621000289916992,5.135000228881836 -9.986000061035156,2.6410000324249268 C-9.911999702453613,2.3559999465942383 -9.822999954223633,2.072999954223633 -9.718999862670898,1.7949999570846558z"></path></g><g opacity="1" transform="matrix(1,0,0,1,116.83200073242188,78.79299926757812)"><path fill="rgb(255,202,77)" fill-opacity="1" d=" M13.5,0 C13.5,0 13.5,0 13.5,0 C13.5,7.450650215148926 7.450650215148926,13.5 0,13.5 C0,13.5 0,13.5 0,13.5 C-7.450650215148926,13.5 -13.5,7.450650215148926 -13.5,0 C-13.5,0 -13.5,0 -13.5,0 C-13.5,-7.450650215148926 -7.450650215148926,-13.5 0,-13.5 C0,-13.5 0,-13.5 0,-13.5 C7.450650215148926,-13.5 13.5,-7.450650215148926 13.5,0z"></path></g><g opacity="1" transform="matrix(1,0,0,1,163.2239990234375,213.927001953125)"><path fill="rgb(244,121,92)" fill-opacity="1" d=" M132.4429931640625,84.30799865722656 C121.2750015258789,76.21499633789062 114.3479995727539,62.57400131225586 114.40499877929688,48.78300094604492 C95.48600006103516,52.07500076293945 75.34600067138672,37.35499954223633 72.73999786376953,18.329999923706055 C71.5989990234375,10.015000343322754 72.4469985961914,-0.39399999380111694 65.18800354003906,-4.607999801635742 C60.86399841308594,-7.11899995803833 55.465999603271484,-6.079999923706055 50.46900177001953,-6.293000221252441 C39.832000732421875,-6.748000144958496 29.756999969482422,-13.817999839782715 25.71299934387207,-23.667999267578125 C23.070999145507812,-30.10099983215332 22.84600067138672,-37.4370002746582 19.476999282836914,-43.52199935913086 C10.20300006866455,-60.2760009765625 -7.061999797821045,-40.70000076293945 -19.81100082397461,-47.79100036621094 C-21.27899932861328,-53.19499969482422 -17.47599983215332,-58.42499923706055 -15.458999633789062,-63.650001525878906 C-8.772000312805176,-80.98100280761719 -17.985000610351562,-92.68000030517578 -34.332000732421875,-97.48799896240234 C-40.29600143432617,-99.24199676513672 -47.452999114990234,-100.4209976196289 -52.99599838256836,-103.19400024414062 C-59.034000396728516,-106.21399688720703 -63.37200164794922,-111.85399627685547 -70.04399871826172,-113.80400085449219 C-75.49500274658203,-115.39700317382812 -81.30400085449219,-114.17400360107422 -86.9540023803711,-113.6240005493164 C-92.17900085449219,-113.11499786376953 -97.45999908447266,-113.19499969482422 -102.66699981689453,-113.86299896240234 C-104.38899993896484,-114.08399963378906 -106.23699951171875,-114.43800354003906 -107.4209976196289,-115.70899963378906 C-109.75399780273438,-118.21700286865234 -103.90699768066406,-135.35400390625 -103.08300018310547,-138.57400512695312 C-99.052001953125,-154.3159942626953 -64.58000183105469,-163.29600524902344 -73.86100006103516,-171.7760009765625 C-76.6760025024414,-170.71299743652344 -79.44999694824219,-169.5850067138672 -82.16300201416016,-168.4239959716797 C-99.85700225830078,-160.86000061035156 -119.71700286865234,-159.0279998779297 -136.4149932861328,-149.02999877929688 C-142.46200561523438,-145.40899658203125 -147.17300415039062,-139.66099548339844 -149.6820068359375,-133.08599853515625 C-151.7429962158203,-127.68399810791016 -152.2209930419922,-121.56700134277344 -154.7519989013672,-116.45500183105469 C-155.7989959716797,-114.34100341796875 -157.18899536132812,-112.40699768066406 -158.14500427246094,-110.2509994506836 C-162.9739990234375,-99.3550033569336 -150.03599548339844,-97.41899871826172 -142.6280059814453,-96.4229965209961 C-128.81300354003906,-94.56700134277344 -114.71800231933594,-94.81900024414062 -100.97799682617188,-97.16699981689453 C-94.89399719238281,-98.20700073242188 -88.84100341796875,-99.65899658203125 -82.66899871826172,-99.78900146484375 C-76.4990005493164,-99.91899871826172 -70.0459976196289,-98.58000183105469 -65.28800201416016,-94.63700103759766 C-56.869998931884766,-87.66100311279297 -47.58000183105469,-85.19400024414062 -37.17900085449219,-81.55999755859375 C-33.808998107910156,-80.38200378417969 -30.101999282836914,-78.91200256347656 -28.584999084472656,-75.6780014038086 C-26.628000259399414,-71.50399780273438 -29.586000442504883,-66.35700225830078 -33.70500183105469,-64.28199768066406 C-42.03900146484375,-60.08399963378906 -48.79399871826172,-61.053001403808594 -55.4379997253418,-52.59299850463867 C-58.185001373291016,-49.09299850463867 -57.577999114990234,-44.29600143432617 -60.119998931884766,-40.643001556396484 C-62.68000030517578,-36.96900177001953 4.39300012588501,8.225000381469727 7.35699987411499,8.779999732971191 C14.694999694824219,10.152999877929688 14.088000297546387,19.365999221801758 15.352999687194824,24.965999603271484 C16.624000549316406,30.58799934387207 20.23900032043457,36.790000915527344 23.77199935913086,41.27000045776367 C28.39699935913086,47.13199996948242 34.27899932861328,51.85100173950195 39.70199966430664,56.98500061035156 C49.749000549316406,66.49800109863281 58.25299835205078,77.49800109863281 65.8239974975586,89.0479965209961 C73.55799865722656,100.8489990234375 79.0469970703125,114.66699981689453 87.3030014038086,126.0009994506836 C94.59300231933594,136.00599670410156 105.05000305175781,145.28599548339844 115.02899932861328,152.57699584960938 C117.68900299072266,154.52099609375 149.39100646972656,171.7760009765625 149.6020050048828,170.5449981689453 C151.2220001220703,161.1009979248047 152.8300018310547,151.65199279785156 154.44400024414062,142.2050018310547 C157.28799438476562,125.56199645996094 160.1300048828125,108.91899871826172 162.9739990234375,92.2760009765625 C152.28599548339844,93.41500091552734 141.16099548339844,90.625 132.4429931640625,84.30799865722656z"></path></g><g opacity="1" transform="matrix(1,0,0,1,99.42400360107422,28.180999755859375)"><path fill="rgb(240,208,154)" fill-opacity="1" d=" M-11.347999572753906,27.062999725341797 C-14.605999946594238,27.930999755859375 -17.725000381469727,25.191999435424805 -17.2189998626709,21.860000610351562 C-16.165000915527344,14.90999984741211 -16.32699966430664,7.775000095367432 -17.72100067138672,0.8840000033378601 C-18.770999908447266,-4.301000118255615 -20.496999740600586,-9.321000099182129 -22.2189998626709,-14.322999954223633 C-22.2189998626709,-14.322999954223633 -24.860000610351562,-21.996999740600586 -24.860000610351562,-21.996999740600586 C-25.9060001373291,-25.034000396728516 -22.893999099731445,-27.930999755859375 -19.920000076293945,-26.718000411987305 C-19.89699935913086,-26.708999633789062 -19.875999450683594,-26.701000213623047 -19.854000091552734,-26.691999435424805 C-1.559999942779541,-19.17300033569336 14.152999877929688,-5.563000202178955 24.30900001525879,11.39900016784668 C25.9060001373291,14.0649995803833 24.458999633789062,17.520000457763672 21.457000732421875,18.31999969482422 C21.457000732421875,18.31999969482422 -11.347999572753906,27.062999725341797 -11.347999572753906,27.062999725341797z"></path></g><g opacity="1" transform="matrix(1,0,0,1,170.82899475097656,52.104000091552734)"><path fill="rgb(240,208,154)" fill-opacity="1" d=" M2.111999988555908,10.427000045776367 C1.5490000247955322,10.298999786376953 0.9240000247955322,10.003999710083008 0.23100000619888306,9.501999855041504 C-3.9100000858306885,6.501999855041504 -8.133999824523926,3.5799999237060547 -11.913000106811523,0.22699999809265137 C-12.53600025177002,-0.32600000500679016 -13.65999984741211,-1.222000002861023 -13.326000213623047,-2.1679999828338623 C-13.12399959564209,-2.7360000610351562 -12.61400032043457,-3.128999948501587 -12.119000434875488,-3.4739999771118164 C-8.99899959564209,-5.658999919891357 -5.52400016784668,-7.288000106811523 -1.9930000305175781,-8.717000007629395 C1.3359999656677246,-10.062000274658203 4.914000034332275,-11.253000259399414 8.54699993133545,-11.197999954223633 C11.991999626159668,-11.145999908447266 13.65999984741211,-8.944999694824219 11.52299976348877,-5.947999954223633 C9.369000434875488,-2.9230000972747803 7.599999904632568,0.36399999260902405 6.547999858856201,3.9549999237060547 C5.88100004196167,6.236000061035156 5.771999835968018,11.251999855041504 2.111999988555908,10.427000045776367z"></path></g><g opacity="1" transform="matrix(1,0,0,1,203.94400024414062,81.2020034790039)"><path fill="rgb(240,208,154)" fill-opacity="1" d=" M0.7599999904632568,10.107000350952148 C0.2070000022649765,9.930999755859375 -0.3869999945163727,9.583000183105469 -1.034999966621399,9.022000312805176 C-4.8979997634887695,5.673999786376953 -8.854000091552734,2.3980000019073486 -12.329999923706055,-1.2710000276565552 C-12.899999618530273,-1.8739999532699585 -13.942000389099121,-2.865999937057495 -13.527000427246094,-3.7780001163482666 C-13.277000427246094,-4.327000141143799 -12.734999656677246,-4.673999786376953 -12.21399974822998,-4.97599983215332 C-8.916000366210938,-6.881999969482422 -5.311999797821045,-8.204000473022461 -1.6710000038146973,-9.321000099182129 C1.7630000114440918,-10.373000144958496 5.431000232696533,-11.246999740600586 9.043000221252441,-10.878000259399414 C12.472999572753906,-10.527999877929688 13.942999839782715,-8.190999984741211 11.555999755859375,-5.389999866485596 C9.145999908447266,-2.562999963760376 7.098999977111816,0.5580000281333923 5.739999771118164,4.045000076293945 C4.876999855041504,6.257999897003174 4.334000110626221,11.246999740600586 0.7599999904632568,10.107000350952148z"></path></g><g opacity="1" transform="matrix(1,0,0,1,239.3419952392578,99.81900024414062)"><path fill="rgb(240,208,154)" fill-opacity="1" d=" M6.35699987411499,11.718999862670898 C5.78000020980835,11.753999710083008 5.098999977111816,11.644000053405762 4.294000148773193,11.355999946594238 C-0.5199999809265137,9.630999565124512 -5.392000198364258,8.005000114440918 -9.956999778747559,5.839000225067139 C-10.708999633789062,5.482999801635742 -12.038999557495117,4.935999870300293 -11.980999946594238,3.934999942779541 C-11.946999549865723,3.3329999446868896 -11.567000389099121,2.812999963760376 -11.189000129699707,2.3429999351501465 C-8.800999641418457,-0.6269999742507935 -5.920000076293945,-3.1610000133514404 -2.927000045776367,-5.51800012588501 C-0.10899999737739563,-7.739999771118164 2.996999979019165,-9.880999565124512 6.5,-10.842000007629395 C9.822999954223633,-11.753999710083008 12.038999557495117,-10.104999542236328 10.824999809265137,-6.631999969482422 C9.597999572753906,-3.125 8.819999694824219,0.5249999761581421 8.812000274658203,4.267000198364258 C8.807000160217285,6.64300012588501 10.10200023651123,11.489999771118164 6.35699987411499,11.718999862670898z"></path></g><g opacity="1" transform="matrix(1,0,0,1,285.2510070800781,109.7020034790039)"><path fill="rgb(240,208,154)" fill-opacity="1" d=" M8.121000289916992,11.680000305175781 C7.570000171661377,11.857999801635742 6.883999824523926,11.920000076293945 6.03000020980835,11.840999603271484 C0.9399999976158142,11.36299991607666 -4.183000087738037,10.996000289916992 -9.142999649047852,10.029999732971191 C-9.958999633789062,9.869999885559082 -11.383999824523926,9.670000076293945 -11.574999809265137,8.685999870300293 C-11.692000389099121,8.093999862670898 -11.45199966430664,7.495999813079834 -11.20199966430664,6.947999954223633 C-9.626999855041504,3.4790000915527344 -7.461999893188477,0.3089999854564667 -5.1479997634887695,-2.7170000076293945 C-2.9670000076293945,-5.567999839782715 -0.48899999260902405,-8.41100025177002 2.6659998893737793,-10.211000442504883 C5.6579999923706055,-11.918999671936035 8.21399974822998,-10.871000289916992 7.8979997634887695,-7.203999996185303 C7.581999778747559,-3.503000020980835 7.730000019073486,0.22599999606609344 8.649999618530273,3.8529999256134033 C9.234999656677246,6.156000137329102 11.692000389099121,10.529999732971191 8.121000289916992,11.680000305175781z"></path></g></g><g transform="matrix(0.3327971398830414,0.011621532030403614,-0.011621532030403614,0.3327971398830414,14.293926239013672,1.781484842300415)" opacity="1" style="display: block;"><g opacity="1" transform="matrix(1,0,0,1,68.50599670410156,175.93299865722656)"><path fill="rgb(240,208,154)" fill-opacity="1" d=" M-2.73799991607666,6.896999835968018 C-4.86899995803833,2.8350000381469727 -4.660999774932861,-2.3529999256134033 -2.2139999866485596,-6.23199987411499 C-2.078000068664551,-6.447000026702881 -1.9190000295639038,-6.672999858856201 -1.6770000457763672,-6.75 C-1.2170000076293945,-6.8979997634887695 -0.7990000247955322,-6.446000099182129 -0.5270000100135803,-6.046000003814697 C1.4759999513626099,-3.1010000705718994 3.2799999713897705,-0.02199999988079071 4.869999885559082,3.1649999618530273 C4.869999885559082,3.1649999618530273 -2.73799991607666,6.896999835968018 -2.73799991607666,6.896999835968018z"></path></g><g opacity="1" transform="matrix(1,0,0,1,77.4489974975586,171.58999633789062)"><path fill="rgb(240,208,154)" fill-opacity="1" d=" M-2.8299999237060547,6.877999782562256 C-4.863999843597412,2.7669999599456787 -4.535999774932861,-2.4159998893737793 -1.9980000257492065,-6.236000061035156 C-1.8569999933242798,-6.447999954223633 -1.6920000314712524,-6.670000076293945 -1.4479999542236328,-6.741000175476074 C-0.984000027179718,-6.877999782562256 -0.578000009059906,-6.416999816894531 -0.3160000145435333,-6.01200008392334 C1.6160000562667847,-3.0199999809265137 3.3480000495910645,0.10100000351667404 4.864999771118164,3.322999954223633 C4.864999771118164,3.322999954223633 -2.8299999237060547,6.877999782562256 -2.8299999237060547,6.877999782562256z"></path></g><g opacity="1" transform="matrix(1,0,0,1,49.32899856567383,184.14300537109375)"><path fill="rgb(240,208,154)" fill-opacity="1" d=" M-3.3299999237060547,6.684999942779541 C-4.7789998054504395,2.3329999446868896 -3.740000009536743,-2.753999948501587 -0.7009999752044678,-6.190000057220459 C-0.5320000052452087,-6.380000114440918 -0.3400000035762787,-6.577000141143799 -0.08799999952316284,-6.613999843597412 C0.39100000262260437,-6.684999942779541 0.7300000190734863,-6.172999858856201 0.9340000152587891,-5.735000133514404 C2.436000108718872,-2.50600004196167 3.7230000495910645,0.8230000138282776 4.78000020980835,4.2230000495910645 C4.78000020980835,4.2230000495910645 -3.3299999237060547,6.684999942779541 -3.3299999237060547,6.684999942779541z"></path></g><g opacity="1" transform="matrix(1,0,0,1,38.59199905395508,184.625)"><path fill="rgb(240,208,154)" fill-opacity="1" d=" M-3.7330000400543213,9.998000144958496 C-4.642000198364258,7.4710001945495605 -4.8520002365112305,4.75 -4.915999889373779,2.065000057220459 C-4.999000072479248,-1.468000054359436 -4.814000129699707,-5.122000217437744 -3.2829999923706055,-8.307000160217285 C-2.8959999084472656,-9.111000061035156 -2.0339999198913574,-9.998000144958496 -1.2599999904632568,-9.550000190734863 C-0.9129999876022339,-9.348999977111816 -0.7509999871253967,-8.942999839782715 -0.6119999885559082,-8.5649995803833 C1.2580000162124634,-3.4579999446868896 3.128999948501587,1.6510000228881836 4.999000072479248,6.760000228881836 C4.999000072479248,6.760000228881836 -3.7330000400543213,9.998000144958496 -3.7330000400543213,9.998000144958496z"></path></g><g opacity="1" transform="matrix(1,0,0,1,59.766998291015625,177.3820037841797)"><path fill="rgb(240,208,154)" fill-opacity="1" d=" M-3.9149999618530273,9.972999572753906 C-4.758999824523926,7.422999858856201 -4.8979997634887695,4.697000026702881 -4.89300012588501,2.010999917984009 C-4.885000228881836,-1.5219999551773071 -4.605000019073486,-5.171999931335449 -2.992000102996826,-8.3149995803833 C-2.5850000381469727,-9.109999656677246 -1.6990000009536743,-9.972999572753906 -0.9380000233650208,-9.505999565124512 C-0.5960000157356262,-9.295999526977539 -0.4440000057220459,-8.883999824523926 -0.3160000145435333,-8.505000114440918 C1.4220000505447388,-3.3489999771118164 3.1600000858306885,1.8049999475479126 4.8979997634887695,6.960000038146973 C4.8979997634887695,6.960000038146973 -3.9149999618530273,9.972999572753906 -3.9149999618530273,9.972999572753906z"></path></g><g opacity="1" transform="matrix(1,0,0,1,86.12300109863281,163.531005859375)"><path fill="rgb(240,208,154)" fill-opacity="1" d=" M-2.6040000915527344,10.02400016784668 C-3.8329999446868896,7.636000156402588 -4.394000053405762,4.965000152587891 -4.804999828338623,2.311000108718872 C-5.34499979019165,-1.180999994277954 -5.633999824523926,-4.829999923706055 -4.53000020980835,-8.185999870300293 C-4.25,-9.034000396728516 -3.509999990463257,-10.02400016784668 -2.684999942779541,-9.680000305175781 C-2.315999984741211,-9.524999618530273 -2.1010000705718994,-9.142999649047852 -1.9160000085830688,-8.786999702453613 C0.6019999980926514,-3.9630000591278076 3.11899995803833,0.859000027179718 5.635000228881836,5.682000160217285 C5.635000228881836,5.682000160217285 -2.6040000915527344,10.02400016784668 -2.6040000915527344,10.02400016784668z"></path></g><g opacity="1" transform="matrix(1,0,0,1,74.2750015258789,154.89199829101562)"><path fill="rgb(77,67,95)" fill-opacity="1" d=" M8.489999771118164,17.797000885009766 C6.079999923706055,19.79599952697754 3.253000020980835,21.2189998626709 0.42800000309944153,22.56800079345703 C-7.854000091552734,26.520000457763672 -16.363000869750977,29.999000549316406 -25.04199981689453,32.98699951171875 C-29.39299964904785,34.48500061035156 -45.08399963378906,36.0629997253418 -43.922000885009766,42.86899948120117 C-43.189998626708984,47.150001525878906 -39.43299865722656,50.446998596191406 -35.2869987487793,51.736000061035156 C-31.138999938964844,53.02399826049805 -26.660999298095703,52.62900161743164 -22.38800048828125,51.85499954223633 C-16.381999969482422,50.768001556396484 -10.392999649047852,50.46500015258789 -4.478000164031982,49.400001525878906 C2.5810000896453857,48.12900161743164 9.640999794006348,46.85900115966797 16.70199966430664,45.58700180053711 C26.750999450683594,43.77899932861328 36.952999114990234,41.91899871826172 46.0989990234375,37.382999420166016 C55.24599838256836,32.84700012207031 63.358001708984375,25.187999725341797 66.01799774169922,15.329999923706055 C70.4000015258789,-0.9110000133514404 21.086999893188477,7.3460001945495605 8.489999771118164,17.797000885009766z"></path></g><g opacity="1" transform="matrix(1,0,0,1,34.87200164794922,97.75399780273438)"><path fill="rgb(77,67,95)" fill-opacity="1" d="M0 0"></path></g><g opacity="1" transform="matrix(1,0,0,1,163.2239990234375,213.927001953125)"><path fill="rgb(244,121,92)" fill-opacity="1" d=" M25.71299934387207,-23.667999267578125 C23.070999145507812,-30.10099983215332 22.84600067138672,-37.4370002746582 19.476999282836914,-43.52199935913086 C10.20300006866455,-60.2760009765625 -7.061999797821045,-40.70000076293945 -19.81100082397461,-47.79100036621094 C-21.27899932861328,-53.19499969482422 -51.262001037597656,-62.12900161743164 -57.90599822998047,-53.66899871826172 C-60.65299987792969,-50.16899871826172 -61.29600143432617,-45.40999984741211 -63.8380012512207,-41.75699996948242 C-66.39800262451172,-38.08300018310547 -70.5770034790039,-35.930999755859375 -74.63200378417969,-34.03300094604492 C-92.07099914550781,-25.874000549316406 -110.44499969482422,-19.714000701904297 -129.2779998779297,-15.717000007629395 C-144.6300048828125,-12.458999633789062 -123.01599884033203,-0.3050000071525574 -116.33899688720703,-0.3070000112056732 C-106.52200317382812,-0.3089999854564667 -97.05599975585938,-4.044000148773193 -87.19200134277344,-3.4519999027252197 C-72.14800262451172,-2.549999952316284 -59.59299850463867,8.24899959564209 -45.077999114990234,12.3100004196167 C-30.90999984741211,16.27400016784668 -15.770000457763672,13.586000442504883 -1.5470000505447388,9.821000099182129 C1.3680000305175781,9.04800033569336 4.363999843597412,8.414999961853027 7.35699987411499,8.779999732971191 C21.714000701904297,10.529999732971191 29.756999969482422,-13.817999839782715 25.71299934387207,-23.667999267578125z"></path></g></g><g transform="matrix(0.331989049911499,-0.025928089395165443,0.025928089395165443,0.331989049911499,2.430389642715454,14.630525588989258)" opacity="1" style="display: block;"><g opacity="1" transform="matrix(1,0,0,1,229.72300720214844,281.0889892578125)"><path fill="rgb(193,66,60)" fill-opacity="1" d=" M11.479000091552734,-48.37300109863281 C1.4140000343322754,-40.233001708984375 -2.1549999713897705,-26.368000030517578 -2.184000015258789,-17.4689998626709 C-2.2149999141693115,-8.567999839782715 -1.0069999694824219,0.453000009059906 -2.859999895095825,9.156999588012695 C-2.884999990463257,9.279999732971191 -12.333000183105469,10.739999771118164 -13.270999908447266,10.998000144958496 C-21.933000564575195,13.37600040435791 -28.77899932861328,18.437999725341797 -36.082000732421875,23.427000045776367 C-36.99800109863281,24.05299949645996 -37.928001403808594,24.687000274658203 -38.98699951171875,25.02199935913086 C-40.347999572753906,25.452999114990234 -41.8120002746582,25.357999801635742 -43.242000579833984,25.41699981689453 C-46.67300033569336,25.559999465942383 -50.0620002746582,26.641000747680664 -52.94300079345703,28.513999938964844 C-54.02399826049805,29.215999603271484 -55.06100082397461,30.05900001525879 -55.685001373291016,31.187999725341797 C-56.30799865722656,32.314998626708984 -56.448001861572266,33.78200149536133 -55.7599983215332,34.874000549316406 C-54.417999267578125,37.00600051879883 -50.74800109863281,35.566001892089844 -49.862998962402344,36.933998107910156 C-48.84199905395508,38.5099983215332 -51.72700119018555,40.60900115966797 -49.20500183105469,42.49800109863281 C-48.428001403808594,43.07899856567383 -47.41899871826172,43.263999938964844 -46.45100021362305,43.255001068115234 C-42.87699890136719,43.224998474121094 -39.79100036621094,40.88999938964844 -36.994998931884766,38.66400146484375 C-37.81999969482422,41.24800109863281 -37.3650016784668,44.334999084472656 -35.42300033569336,46.22999954223633 C-33.483001708984375,48.12300109863281 -29.9950008392334,48.37300109863281 -28.10300064086914,46.428001403808594 C-27.093000411987305,45.38999938964844 -26.645000457763672,43.939998626708984 -26.284000396728516,42.5369987487793 C-25.56100082397461,39.60900115966797 -25.08300018310547,36.637001037597656 -24.38800048828125,33.71900177001953 C-17.976999282836914,31.023000717163086 -11.342000007629395,28.27899932861328 -4.388000011444092,28.339000701904297 C1.9149999618530273,28.39299964904785 8.522000312805176,30.714000701904297 14.319000244140625,28.23900032043457 C19.735000610351562,25.927000045776367 22.363000869750977,20.31399917602539 26.134000778198242,16.156999588012695 C30.045000076293945,11.845000267028809 34.8390007019043,8.567999839782715 40.33399963378906,6.611999988555908 C46.10499954223633,4.559999942779541 53.70199966430664,2.937000036239624 54.48699951171875,-0.7900000214576721 C55.40999984741211,-5.172999858856201 56.44900131225586,-15.093999862670898 42.72100067138672,-30.665000915527344 C28.9950008392334,-46.23699951171875 11.479000091552734,-48.37300109863281 11.479000091552734,-48.37300109863281z"></path></g></g></g></svg>