<svg xmlns="http://www.w3.org/2000/svg" viewBox="0 0 80 88" width="80" height="88" preserveAspectRatio="xMidYMid meet" style="width: 100%; height: 100%; transform: translate3d(0px, 0px, 0px); content-visibility: visible;"><defs><clipPath id="__lottie_element_405"><rect width="80" height="88" x="0" y="0"></rect></clipPath></defs><g clip-path="url(#__lottie_element_405)"><g transform="matrix(0.3176032304763794,-0.10008589178323746,0.10008589178323746,0.3176032304763794,48.12261199951172,32.93826675415039)" opacity="1" style="display: block;"><g opacity="1" transform="matrix(1,0,0,1,16.820999145507812,28.785999298095703)"><path fill="rgb(77,67,95)" fill-opacity="1" d=" M8.133999824523926,4.538000106811523 C8.133999824523926,4.538000106811523 6.934999942779541,1.784000039100647 8.470999717712402,-5.861999988555908 C1.4850000143051147,-13.222000122070312 -2.631999969482422,-28.53499984741211 -16.57200050354004,-23.75 C-16.57200050354004,-23.75 -10.187000274658203,-20.20199966430664 -13.329999923706055,-12.887999534606934 C-13.329999923706055,-12.887999534606934 -6.067999839782715,-7.896999835968018 -11.258999824523926,4.460999965667725 C-11.258999824523926,4.460999965667725 5.638999938964844,8.47599983215332 5.046000003814697,22.31100082397461 C5.046000003814697,22.31100082397461 11.175999641418457,21.634000778198242 12.64900016784668,28.53499984741211 C12.64900016784668,28.53499984741211 16.57200050354004,9.020000457763672 16.57200050354004,9.020000457763672 C16.57200050354004,9.020000457763672 13.467000007629395,6.4070000648498535 8.133999824523926,4.538000106811523z"></path></g></g><g transform="matrix(0.17556700110435486,0.2829580008983612,-0.2829580008983612,0.17556700110435486,67.34500122070312,25.562410354614258)" opacity="1" style="display: block;"><g opacity="1" transform="matrix(1,0,0,1,53.047000885009766,33.95399856567383)"><path fill="rgb(77,67,95)" fill-opacity="1" d=" M-10.138999938964844,2.9779999256134033 C-10.138999938964844,2.9779999256134033 -7.9710001945495605,0.9020000100135803 -6.434000015258789,-6.744999885559082 C2.8529999256134033,-10.833000183105469 12.567000389099121,-23.368000030517578 23.576000213623047,-13.569000244140625 C23.576000213623047,-13.569000244140625 16.31599998474121,-12.762999534606934 16.38800048828125,-4.802000045776367 C16.38800048828125,-4.802000045776367 7.76200008392334,-3.005000114440918 7.776000022888184,10.39900016784668 C7.776000022888184,10.39900016784668 -9.359999656677246,7.573999881744385 -14.159000396728516,20.56399917602539 C-14.159000396728516,20.56399917602539 -19.551000595092773,17.570999145507812 -23.576000213623047,23.367000579833984 C-23.576000213623047,23.367000579833984 -19.655000686645508,3.8519999980926514 -19.655000686645508,3.8519999980926514 C-19.655000686645508,3.8519999980926514 -15.781000137329102,2.6419999599456787 -10.138999938964844,2.9779999256134033z"></path></g></g><g transform="matrix(0.3259523808956146,0.06814733147621155,-0.06814733147621155,0.3259523808956146,54.12453842163086,27.169979095458984)" opacity="1" style="display: block;"><g opacity="1" transform="matrix(1,0,0,1,34.74599838256836,33.32400131225586)"><path fill="rgb(77,67,95)" fill-opacity="1" d=" M-5.302000045776367,-6.21999979019165 C-4.389999866485596,-5.631999969482422 -3.819999933242798,-4.085999965667725 -3.7320001125335693,-3.003999948501587 C-3.7320001125335693,-3.003999948501587 -1.9980000257492065,-3.4100000858306885 0.1459999978542328,-2.9790000915527344 C2.2909998893737793,-2.5490000247955322 3.7309999465942383,-1.503999948501587 3.7309999465942383,-1.503999948501587 C4.230999946594238,-2.4679999351501465 5.353000164031982,-3.6730000972747803 6.422999858856201,-3.861999988555908 C6.085999965667725,-0.335999995470047 4.7270002365112305,3.0859999656677246 2.553999900817871,5.883999824523926 C2.553999900817871,5.883999824523926 -1.7029999494552612,6.21999979019165 -1.7029999494552612,6.21999979019165 C-1.7029999494552612,6.21999979019165 -5.5,4.265999794006348 -5.5,4.265999794006348 C-6.422999858856201,0.8460000157356262 -6.354000091552734,-2.8369998931884766 -5.302000045776367,-6.21999979019165z"></path></g></g><g transform="matrix(0.32138893008232117,0.08716747164726257,-0.08716747164726257,0.32138893008232117,8.167832374572754,35.26167678833008)" opacity="1" style="display: block;"><g opacity="1" transform="matrix(1,0,0,1,60.05099868774414,28.785999298095703)"><path fill="rgb(77,67,95)" fill-opacity="1" d=" M-8.133000373840332,4.538000106811523 C-8.133000373840332,4.538000106811523 -6.934999942779541,1.784000039100647 -8.472000122070312,-5.861999988555908 C-1.4859999418258667,-13.222000122070312 2.631999969482422,-28.53499984741211 16.570999145507812,-23.75 C16.570999145507812,-23.75 10.185999870300293,-20.20199966430664 13.329000473022461,-12.887999534606934 C13.329000473022461,-12.887999534606934 6.066999912261963,-7.8979997634887695 11.258999824523926,4.460999965667725 C11.258999824523926,4.460999965667725 -5.639999866485596,8.47599983215332 -5.046000003814697,22.31100082397461 C-5.046000003814697,22.31100082397461 -11.177000045776367,21.634000778198242 -12.64900016784668,28.53499984741211 C-12.64900016784668,28.53499984741211 -16.570999145507812,9.020000457763672 -16.570999145507812,9.020000457763672 C-16.570999145507812,9.020000457763672 -13.465999603271484,6.4070000648498535 -8.133000373840332,4.538000106811523z"></path></g></g><g transform="matrix(0.32761725783348083,-0.05963176488876343,0.05963176488876343,0.32761725783348083,2.3134474754333496,41.37092590332031)" opacity="1" style="display: block;"><g opacity="1" transform="matrix(1,0,0,1,23.826000213623047,33.95399856567383)"><path fill="rgb(77,67,95)" fill-opacity="1" d=" M10.140000343322754,2.9779999256134033 C10.140000343322754,2.9779999256134033 7.96999979019165,0.9020000100135803 6.434000015258789,-6.744999885559082 C-2.8529999256134033,-10.833000183105469 -12.567000389099121,-23.368000030517578 -23.576000213623047,-13.569000244140625 C-23.576000213623047,-13.569000244140625 -16.316999435424805,-12.762999534606934 -16.388999938964844,-4.802000045776367 C-16.388999938964844,-4.802000045776367 -7.763000011444092,-3.005000114440918 -7.776000022888184,10.39900016784668 C-7.776000022888184,10.39900016784668 9.359999656677246,7.573999881744385 14.157999992370605,20.56399917602539 C14.157999992370605,20.56399917602539 19.551000595092773,17.570999145507812 23.576000213623047,23.367000579833984 C23.576000213623047,23.367000579833984 19.65399932861328,3.8510000705718994 19.65399932861328,3.8510000705718994 C19.65399932861328,3.8510000705718994 15.781000137329102,2.6419999599456787 10.140000343322754,2.9779999256134033z"></path></g></g><g transform="matrix(0.33287301659584045,0.009195905178785324,-0.009195905178785324,0.33287301659584045,4.72285270690918,38.21452331542969)" opacity="1" style="display: block;"><g opacity="1" transform="matrix(1,0,0,1,42.125999450683594,33.32400131225586)"><path fill="rgb(77,67,95)" fill-opacity="1" d=" M5.302999973297119,-6.21999979019165 C4.389999866485596,-5.631999969482422 3.819999933242798,-4.085999965667725 3.7309999465942383,-3.003999948501587 C3.7309999465942383,-3.003999948501587 1.996999979019165,-3.4100000858306885 -0.1459999978542328,-2.9790000915527344 C-2.2909998893737793,-2.5490000247955322 -3.7320001125335693,-1.503999948501587 -3.7320001125335693,-1.503999948501587 C-4.230999946594238,-2.4679999351501465 -5.354000091552734,-3.6730000972747803 -6.422999858856201,-3.861999988555908 C-6.085999965667725,-0.335999995470047 -4.728000164031982,3.0859999656677246 -2.555000066757202,5.883999824523926 C-2.555000066757202,5.883999824523926 1.7029999494552612,6.21999979019165 1.7029999494552612,6.21999979019165 C1.7029999494552612,6.21999979019165 5.5,4.265999794006348 5.5,4.265999794006348 C6.422999858856201,0.8460000157356262 6.355000019073486,-2.8369998931884766 5.302999973297119,-6.21999979019165z"></path></g></g></g></svg>