<svg xmlns="http://www.w3.org/2000/svg" viewBox="0 0 264 161" width="264" height="161" preserveAspectRatio="xMidYMid meet" style="width: 100%; height: 100%; transform: translate3d(0px, 0px, 0px); content-visibility: visible;"><defs><clipPath id="__lottie_element_1592"><rect width="264" height="161" x="0" y="0"></rect></clipPath></defs><g clip-path="url(#__lottie_element_1592)"><g transform="matrix(0.33254364132881165,-0.017427872866392136,0.017427872866392136,0.33254364132881165,51.68208312988281,7.924177646636963)" opacity="1" style="display: block;"><g opacity="1" transform="matrix(1,0,0,1,169.91000366210938,135.5229949951172)"><path fill="rgb(26,148,78)" fill-opacity="1" d=" M19.979999542236328,30.85300064086914 C8.770999908447266,25.91699981689453 26.908000946044922,20.128000259399414 28.91900062561035,5.264999866485596 C29.64900016784668,-0.125 27.417999267578125,-7.776000022888184 24.854000091552734,-15.100000381469727 C17.617000579833984,-35.76599884033203 14.642000198364258,-44.09000015258789 1.9880000352859497,-48.361000061035156 C-8.656000137329102,-51.95399856567383 -43.750999450683594,-39.21200180053711 -28.368999481201172,-10.85200023651123 C-23.051000595092773,-1.0479999780654907 -11.604999542236328,4.497000217437744 -11.529999732971191,7.297999858856201 C-11.454999923706055,10.10099983215332 -12.741000175476074,12.85200023651123 -15.36299991607666,16.621999740600586 C-21.08799934387207,27.285999298095703 -22.46299934387207,31.753000259399414 -23.695999145507812,38.62200164794922 C-25.22599983215332,47.145999908447266 -21.976999282836914,49.8120002746582 -18.216999053955078,49.935001373291016 C-18.216999053955078,49.935001373291016 33.470001220703125,51.619998931884766 33.470001220703125,51.619998931884766 C43.750999450683594,51.95500183105469 39.3489990234375,39.38199996948242 19.979999542236328,30.85300064086914z"></path><path fill="rgb(0,129,66)" fill-opacity="1" d=" M19.979999542236328,30.85300064086914 C8.770999908447266,25.91699981689453 26.908000946044922,20.128000259399414 28.91900062561035,5.264999866485596 C29.64900016784668,-0.125 27.417999267578125,-7.776000022888184 24.854000091552734,-15.100000381469727 C17.617000579833984,-35.76599884033203 14.642000198364258,-44.09000015258789 1.9880000352859497,-48.361000061035156 C-8.656000137329102,-51.95399856567383 -43.750999450683594,-39.21200180053711 -28.368999481201172,-10.85200023651123 C-23.051000595092773,-1.0479999780654907 -11.604999542236328,4.497000217437744 -11.529999732971191,7.297999858856201 C-11.454999923706055,10.10099983215332 -12.741000175476074,12.85200023651123 -15.36299991607666,16.621999740600586 C-21.08799934387207,27.285999298095703 -22.46299934387207,31.753000259399414 -23.695999145507812,38.62200164794922 C-25.22599983215332,47.145999908447266 -21.976999282836914,49.8120002746582 -18.216999053955078,49.935001373291016 C-18.216999053955078,49.935001373291016 33.470001220703125,51.619998931884766 33.470001220703125,51.619998931884766 C43.750999450683594,51.95500183105469 39.3489990234375,39.38199996948242 19.979999542236328,30.85300064086914z"></path></g></g><g transform="matrix(0.3330000042915344,0,0,0.3330000042915344,53.82342529296875,5.714200973510742)" opacity="1" style="display: block;"><g opacity="1" transform="matrix(1,0,0,1,87.52100372314453,165.67300415039062)"><path stroke-linecap="round" stroke-linejoin="round" fill-opacity="0" stroke="rgb(77,67,95)" stroke-opacity="1" stroke-width="5" d=" M-29.201000213623047,-16.57699966430664 C-22.496000289916992,-4.984000205993652 -13.03499984741211,4.4029998779296875 -2.617000102996826,9.800000190734863 C7.802000045776367,15.196000099182129 19.125,16.57699966430664 29.201000213623047,13.678000450134277"></path></g></g><g transform="matrix(0.3330000042915344,0,0,0.3330000042915344,53.82342529296875,5.714200973510742)" opacity="1" style="display: block;"><g opacity="1" transform="matrix(1,0,0,1,55.64400100708008,176.4929962158203)"><path fill="rgb(255,201,77)" fill-opacity="1" d=" M-7.333000183105469,-19.410999298095703 C-20.291000366210938,-13.83899974822998 -8.333999633789062,19.410999298095703 -0.0010000000474974513,19.410999298095703 C8.333000183105469,19.410999298095703 20.291000366210938,-13.83899974822998 7.333000183105469,-19.410999298095703 C7.333000183105469,-19.410999298095703 -7.333000183105469,-19.410999298095703 -7.333000183105469,-19.410999298095703z"></path></g><g opacity="1" transform="matrix(1,0,0,1,55.64400100708008,149.302001953125)"><path fill="rgb(77,67,95)" fill-opacity="1" d=" M7.334000110626221,7.7789998054504395 C7.334000110626221,7.7789998054504395 7.334000110626221,-0.44600000977516174 7.334000110626221,-0.44600000977516174 C7.334000110626221,-4.494999885559082 4.050000190734863,-7.7789998054504395 0.0010000000474974513,-7.7789998054504395 C-4.050000190734863,-7.7789998054504395 -7.334000110626221,-4.494999885559082 -7.334000110626221,-0.44600000977516174 C-7.334000110626221,-0.44600000977516174 -7.334000110626221,7.7789998054504395 -7.334000110626221,7.7789998054504395 C-7.334000110626221,7.7789998054504395 7.334000110626221,7.7789998054504395 7.334000110626221,7.7789998054504395z"></path></g></g><g transform="matrix(0.3330000042915344,0,0,0.3330000042915344,53.82342529296875,5.714200973510742)" opacity="1" style="display: block;"><g opacity="1" transform="matrix(1,0,0,1,52.85599899291992,119.91799926757812)"><path fill="rgb(26,148,78)" fill-opacity="1" d=" M42.071998596191406,-33.090999603271484 C16.510000228881836,-22.025999069213867 5.067999839782715,5.0269999504089355 -12.270000457763672,11.696000099182129 C-23.792999267578125,16.128000259399414 -38.86399841308594,12.340999603271484 -49.617000579833984,4.196000099182129 C-50.88999938964844,3.2320001125335693 -52.60599899291992,4.50600004196167 -52.0629997253418,6.007999897003174 C-43.722999572753906,29.115999221801758 -16.214000701904297,33.090999603271484 -4.202000141143799,31.195999145507812 C13.489999771118164,28.40999984741211 34.77399826049805,13.979999542236328 52.60599899291992,13.963000297546387"></path></g></g><g transform="matrix(0.3330000042915344,0,0,0.3330000042915344,53.82342529296875,5.714200973510742)" opacity="1" style="display: block;"><g opacity="1" transform="matrix(1,0,0,1,248.1300048828125,138.92599487304688)"><path fill="rgb(29,153,212)" fill-opacity="1" d=" M-7.333000183105469,-19.410999298095703 C-20.291000366210938,-13.84000015258789 -8.333999633789062,19.410999298095703 -0.0010000000474974513,19.410999298095703 C8.333000183105469,19.410999298095703 20.291000366210938,-13.84000015258789 7.333000183105469,-19.410999298095703 C7.333000183105469,-19.410999298095703 -7.333000183105469,-19.410999298095703 -7.333000183105469,-19.410999298095703z"></path></g><g opacity="1" transform="matrix(1,0,0,1,248.12899780273438,111.73600006103516)"><path fill="rgb(77,67,95)" fill-opacity="1" d=" M7.334000110626221,7.7789998054504395 C7.334000110626221,7.7789998054504395 7.334000110626221,-0.44600000977516174 7.334000110626221,-0.44600000977516174 C7.334000110626221,-4.494999885559082 4.051000118255615,-7.7789998054504395 0.0010000000474974513,-7.7789998054504395 C-4.048999786376953,-7.7789998054504395 -7.334000110626221,-4.494999885559082 -7.334000110626221,-0.44600000977516174 C-7.334000110626221,-0.44600000977516174 -7.334000110626221,7.7789998054504395 -7.334000110626221,7.7789998054504395 C-7.334000110626221,7.7789998054504395 7.334000110626221,7.7789998054504395 7.334000110626221,7.7789998054504395z"></path></g></g><g transform="matrix(0.3330000042915344,0,0,0.3330000042915344,53.82342529296875,5.714200973510742)" opacity="1" style="display: block;"><g opacity="1" transform="matrix(1,0,0,1,218.57200622558594,119.2030029296875)"><path stroke-linecap="round" stroke-linejoin="round" fill-opacity="0" stroke="rgb(77,67,95)" stroke-opacity="1" stroke-width="5" d=" M28.31399917602539,-21.940000534057617 C34.5620002746582,7.492000102996826 20.996000289916992,18.198999404907227 12.654000282287598,19.56599998474121 C-1.8289999961853027,21.940000534057617 -25.41200065612793,5.125 -34.56100082397461,-9.213000297546387"></path></g><g opacity="1" transform="matrix(1,0,0,1,214.03199768066406,102.45600128173828)"><path stroke-linecap="round" stroke-linejoin="round" fill-opacity="0" stroke="rgb(26,148,78)" stroke-opacity="1" stroke-width="8" d=" M27.23900032043457,-3.3380000591278076 C22.302000045776367,-5.736999988555908 16.694000244140625,-4.295000076293945 11.769000053405762,-1.8559999465942383 C4.994999885559082,1.5 -1.309999942779541,5.736999988555908 -8.824999809265137,5.51800012588501 C-15.614999771118164,5.321000099182129 -22.39900016784668,2.009000062942505 -27.23900032043457,-4.011000156402588"></path></g><g opacity="1" transform="matrix(1,0,0,1,214.56300354003906,95.5739974975586)"><path stroke-linecap="round" stroke-linejoin="round" fill-opacity="0" stroke="rgb(26,148,78)" stroke-opacity="1" stroke-width="8" d=" M26.70800018310547,3.5429999828338623 C22.298999786376953,0.2720000147819519 16.520999908447266,0.6549999713897705 11.229999542236328,2.1429998874664307 C3.953000068664551,4.188000202178955 -3.0260000228881836,7.186999797821045 -10.371999740600586,5.583000183105469 C-17.006999969482422,4.133999824523926 -23.062999725341797,-0.37599998712539673 -26.70800018310547,-7.186999797821045"></path></g><g opacity="1" transform="matrix(1,0,0,1,242.19900512695312,101.00599670410156)"><path fill="rgb(26,148,78)" fill-opacity="1" d=" M2.562000036239624,-4.730999946594238 C-2.246000051498413,-7.335000038146973 -7.289999961853027,-7.327000141143799 -8.704999923706055,-4.714000225067139 C-10.119999885559082,-2.1010000705718994 -7.369999885559082,2.127000093460083 -2.562000036239624,4.730999946594238 C2.246000051498413,7.334000110626221 7.289999961853027,7.327000141143799 8.704999923706055,4.7129998207092285 C10.119999885559082,2.1010000705718994 7.369999885559082,-2.127000093460083 2.562000036239624,-4.730999946594238z"></path></g><g opacity="1" transform="matrix(1,0,0,1,242.33799743652344,93.9229965209961)"><path fill="rgb(26,148,78)" fill-opacity="1" d=" M0.8790000081062317,3.566999912261963 C0.8880000114440918,3.2230000495910645 1.0809999704360962,2.802999973297119 0.8510000109672546,3.50600004196167 C0.9380000233650208,3.242000102996826 0.972000002861023,2.950000047683716 1.0540000200271606,2.680000066757202 C1.0800000429153442,2.5950000286102295 1.378999948501587,1.840999960899353 1.1990000009536743,2.246999979019165 C1.0369999408721924,2.611999988555908 1.475000023841858,1.7719999551773071 1.5299999713897705,1.6740000247955322 C1.6369999647140503,1.4859999418258667 1.9550000429153442,1.0640000104904175 1.6490000486373901,1.4450000524520874 C1.8589999675750732,1.1829999685287476 2.1040000915527344,0.9380000233650208 2.3529999256134033,0.7129999995231628 C1.930999994277954,1.093000054359436 2.6649999618530273,0.5210000276565552 2.763000011444092,0.460999995470047 C3.316999912261963,0.11500000208616257 2.561000108718872,0.48399999737739563 3.259000062942505,0.27300000190734863 C5.0879998207092285,-0.2800000011920929 6.244999885559082,-2.2039999961853027 5.730000019073486,-4.078999996185303 C5.23199987411499,-5.890999794006348 3.2139999866485596,-7.104000091552734 1.378999948501587,-6.548999786376953 C-3.0220000743865967,-5.218999862670898 -6.077000141143799,-1.0110000371932983 -6.196000099182129,3.566999912261963 C-6.244999885559082,5.478000164031982 -4.534999847412109,7.104000091552734 -2.6579999923706055,7.104000091552734 C-0.699999988079071,7.104000091552734 0.8289999961853027,5.484000205993652 0.8790000081062317,3.566999912261963z"></path></g><g opacity="1" transform="matrix(1,0,0,1,248.62100219726562,97.78800201416016)"><path fill="rgb(26,148,78)" fill-opacity="1" d=" M-9.659000396728516,3.2709999084472656 C-7.333000183105469,3.505000114440918 -5.863999843597412,5.624000072479248 -3.9539999961853027,6.710000038146973 C-1.6970000267028809,7.997000217437744 1.0520000457763672,8.428999900817871 3.5810000896453857,7.84499979019165 C8.47599983215332,6.716000080108643 11.538000106811523,2.3959999084472656 12.892000198364258,-2.184000015258789 C14.1850004196167,-6.559000015258789 7.360000133514404,-8.428999900817871 6.070000171661377,-4.065999984741211 C5.01200008392334,-0.4869999885559082 2.3420000076293945,2.378000020980835 -1.319000005722046,-0.04899999871850014 C-4.163000106811523,-1.934999942779541 -6.126999855041504,-3.447000026702881 -9.659000396728516,-3.802999973297119 C-14.1850004196167,-4.258999824523926 -14.152999877929688,2.819000005722046 -9.659000396728516,3.2709999084472656z"></path></g><g opacity="1" transform="matrix(1,0,0,1,247.58900451660156,99.32499694824219)"><path fill="rgb(26,148,78)" fill-opacity="1" d=" M-9.430999755859375,-0.8669999837875366 C-9.913999557495117,4.045000076293945 -5.877999782562256,8.029000282287598 -1.065000057220459,8.199999809265137 C4.604000091552734,8.401000022888184 7.8979997634887695,2.825000047683716 8.954999923706055,-2.065000057220459 C9.913999557495117,-6.505000114440918 3.0959999561309814,-8.401000022888184 2.132999897003174,-3.946000099182129 C1.8259999752044678,-2.5269999504089355 1.4490000009536743,-1.0889999866485596 0.5680000185966492,0.0989999994635582 C-0.028999999165534973,0.902999997138977 -0.5249999761581421,1.1349999904632568 -0.6710000038146973,1.1390000581741333 C-1.8459999561309814,1.1720000505447388 -2.503999948501587,0.6259999871253967 -2.3559999465942383,-0.8669999837875366 C-2.1689999103546143,-2.7709999084472656 -4.117000102996826,-4.40500020980835 -5.894000053405762,-4.40500020980835 C-7.9629998207092285,-4.40500020980835 -9.243000030517578,-2.7769999504089355 -9.430999755859375,-0.8669999837875366z"></path></g><g opacity="1" transform="matrix(1,0,0,1,223.13099670410156,117.06099700927734)"><path stroke-linecap="round" stroke-linejoin="round" fill-opacity="0" stroke="rgb(77,67,95)" stroke-opacity="1" stroke-width="5" d=" M-23.7549991607666,14.029999732971191 C0.8980000019073486,19.79800033569336 19.06800079345703,8.25 23.7549991607666,-19.79800033569336"></path></g></g><g transform="matrix(0.3330000042915344,0,0,0.3330000042915344,53.82342529296875,5.714200973510742)" opacity="1" style="display: block;"><g opacity="1" transform="matrix(1,0,0,1,190.7480010986328,73.95899963378906)"><path fill="rgb(26,148,78)" fill-opacity="1" d=" M18.694000244140625,-28.562000274658203 C24.356000900268555,-29.589000701904297 -14.222999572753906,-45.143001556396484 -12.03499984741211,-32.59199905395508 C-10.444000244140625,-23.46500015258789 -8.805000305175781,-11.170000076293945 -15.95199966430664,-5.627999782562256 C-19.301000595092773,-3.0320000648498535 -25.51099967956543,-4.002999782562256 -29.284000396728516,-4.567999839782715 C-33.74300003051758,-5.235000133514404 -39.04899978637695,-5.7230000495910645 -43.904998779296875,-5.928999900817871 C-43.904998779296875,-5.928999900817871 -38.76300048828125,29.577999114990234 -32.409000396728516,45.1349983215332 C-30.235000610351562,50.457000732421875 -24.780000686645508,73.70899963378906 -12.519000053405762,67.78800201416016 C23.033000946044922,50.61600112915039 20.520999908447266,3.99399995803833 18.694000244140625,-28.562000274658203z"></path></g><g opacity="1" transform="matrix(1,0,0,1,138.343994140625,111.49600219726562)"><path fill="rgb(26,148,78)" fill-opacity="1" d=" M-9.159000396728516,-41.77199935913086 C-43.54199981689453,-34.856998443603516 -67.31800079345703,-8.861000061035156 -62.25699996948242,16.28700065612793 C-57.20199966430664,41.439998626708984 -26.742000579833984,48.680999755859375 7.640999794006348,41.76100158691406 C42.02399826049805,34.85100173950195 67.31900024414062,16.39900016784668 62.257999420166016,-8.74899959564209 C57.202999114990234,-33.90299987792969 25.229999542236328,-48.680999755859375 -9.159000396728516,-41.77199935913086z"></path></g><g opacity="1" transform="matrix(1,0,0,1,149.98800659179688,133.1490020751953)"><path fill="rgb(0,108,54)" fill-opacity="1" d=" M-25.871000289916992,22.577999114990234 C-18.92300033569336,22.464000701904297 -11.557999610900879,21.6299991607666 -4.002999782562256,20.108999252319336 C7.158999919891357,17.865999221801758 17.351999282836914,14.39900016784668 25.871000289916992,9.890000343322754 C14.677000045776367,2.130000114440918 6.0929999351501465,-9.454999923706055 2.377000093460083,-22.577999114990234 C2.377000093460083,-22.577999114990234 -23.83799934387207,-4.675000190734863 -23.83799934387207,-4.675000190734863 C-23.83799934387207,-4.675000190734863 -25.871000289916992,22.577999114990234 -25.871000289916992,22.577999114990234z"></path></g><g opacity="1" transform="matrix(1,0,0,1,167.1199951171875,107.68599700927734)"><path fill="rgb(240,183,128)" fill-opacity="1" d=" M-43.74800109863281,27.488000869750977 C-43.74800109863281,27.488000869750977 -43.74800109863281,48.04199981689453 -43.74800109863281,48.04199981689453 C-36.58100128173828,47.979000091552734 -28.96299934387207,47.145999908447266 -21.135000228881836,45.57099914550781 C-8.960000038146973,43.124000549316406 2.063999891281128,39.222999572753906 11.015999794006348,34.09700012207031 C11.04699993133545,34.08300018310547 11.07699966430664,34.07400131225586 11.107999801635742,34.058998107910156 C37.409000396728516,21.356000900268555 42.87900161743164,-7.4629998207092285 43.20500183105469,-34.78300094604492 C43.23699951171875,-37.45000076293945 42.874000549316406,-48.10100173950195 42.821998596191406,-50.722999572753906 C42.821998596191406,-50.722999572753906 36.24599838256836,-54.99300003051758 36.24599838256836,-54.99300003051758 C36.24599838256836,-53.02899932861328 35.108001708984375,-43.86199951171875 34.74300003051758,-41.45500183105469 C31.31599998474121,-18.83799934387207 10.878000259399414,20.68400001525879 -43.74800109863281,27.488000869750977z"></path></g><g opacity="1" transform="matrix(1,0,0,1,112.4489974975586,121.80799865722656)"><path fill="rgb(0,129,66)" fill-opacity="1" d=" M2.3959999084472656,-29.402999877929688 C-15.14900016784668,-34.654998779296875 -41.391998291015625,-10.864999771118164 -22.02400016784668,14.9399995803833 C-15.329999923706055,23.860000610351562 -3.194999933242798,27.670000076293945 -2.7100000381469727,30.430999755859375 C-2.563999891281128,31.267000198364258 -2.555999994277954,32.119998931884766 -2.6540000438690186,33.01300048828125 C8.071999549865723,34.654998779296875 20.520999908447266,34.069000244140625 33.5359992980957,31.450000762939453 C34.999000549316406,31.155000686645508 36.43899917602539,30.832000732421875 37.86800003051758,30.496000289916992 C39.737998962402344,27.464000701904297 41.16299819946289,24.257999420166016 41.249000549316406,21.007999420166016 C41.391998291015625,15.571999549865723 39.29999923706055,6.949999809265137 34.92399978637695,0.37599998712539673 C22.985000610351562,-17.559999465942383 14.413999557495117,-25.80500030517578 2.3959999084472656,-29.402999877929688z"></path></g><g opacity="1" transform="matrix(1,0,0,1,145.60000610351562,141.97999572753906)"><path fill="rgb(223,159,99)" fill-opacity="1" d=" M0.38600000739097595,11.277000427246094 C8.230999946594238,9.699999809265137 15.586000442504883,7.513000011444092 22.22800064086914,4.790999889373779 C19.68000030517578,4.168000221252441 17.072999954223633,3.114000082015991 14.800000190734863,1.3650000095367432 C10.25100040435791,-2.13100004196167 7.159999847412109,-8.531999588012695 4.9730000495910645,-13.748000144958496 C4.9730000495910645,-13.748000144958496 4.966000080108643,-13.744999885559082 4.966000080108643,-13.744999885559082 C4.044000148773193,-13.369000434875488 3.1050000190734863,-13.005999565124512 2.1530001163482666,-12.652000427246094 C2.0169999599456787,-12.60200023651123 1.878999948501587,-12.550999641418457 1.7419999837875366,-12.5 C0.7799999713897705,-12.14799976348877 -0.19300000369548798,-11.803999900817871 -1.1859999895095825,-11.475000381469727 C-1.187000036239624,-11.475000381469727 -1.1890000104904175,-11.475000381469727 -1.190000057220459,-11.473999977111816 C-2.2130000591278076,-11.135000228881836 -3.253999948501587,-10.810999870300293 -4.309999942779541,-10.498000144958496 C-4.441999912261963,-10.458999633789062 -4.578000068664551,-10.42300033569336 -4.710000038146973,-10.383999824523926 C-5.5929999351501465,-10.126999855041504 -6.48799991607666,-9.880000114440918 -7.39300012588501,-9.642999649047852 C-7.619999885559082,-9.583000183105469 -7.8470001220703125,-9.52400016784668 -8.074999809265137,-9.46500015258789 C-9.074000358581543,-9.210000038146973 -10.083999633789062,-8.96399974822998 -11.111000061035156,-8.734000205993652 C-11.156000137329102,-8.723999977111816 -11.199999809265137,-8.711000442504883 -11.246000289916992,-8.701000213623047 C-12.3149995803833,-8.461999893188477 -13.402000427246094,-8.241999626159668 -14.50100040435791,-8.029999732971191 C-14.77299976348877,-7.978000164031982 -15.04800033569336,-7.927999973297119 -15.321999549865723,-7.876999855041504 C-16.165000915527344,-7.7210001945495605 -17.017000198364258,-7.574999809265137 -17.878000259399414,-7.435999870300293 C-18.19300079345703,-7.385000228881836 -18.506999969482422,-7.331999778747559 -18.823999404907227,-7.283999919891357 C-19.945999145507812,-7.111999988555908 -21.076000213623047,-6.948999881744385 -22.22800064086914,-6.804999828338623 C-22.22800064086914,-6.804999828338623 -22.22800064086914,13.739999771118164 -22.22800064086914,13.739999771118164 C-22.218000411987305,13.739999771118164 -22.19499969482422,13.748000144958496 -22.183000564575195,13.748000144958496 C-15.029000282287598,13.680999755859375 -7.426000118255615,12.848999977111816 0.38600000739097595,11.277000427246094z"></path></g></g><g transform="matrix(0.3330000042915344,0,0,0.3330000042915344,53.82342529296875,5.714200973510742)" opacity="1" style="display: block;"><g opacity="1" transform="matrix(1,0,0,1,190.7480010986328,73.95899963378906)"><path fill="rgb(26,148,78)" fill-opacity="1" d=" M18.694000244140625,-28.562000274658203 C24.356000900268555,-29.589000701904297 33.43899917602539,-33.86800003051758 37.698001861572266,-40.4640007019043 C43.111000061035156,-48.849998474121094 43.904998779296875,-58.38199996948242 40.20500183105469,-64.06300354003906 C39.78300094604492,-64.90299987792969 39.22999954223633,-65.66500091552734 38.49300003051758,-66.31300354003906 C30.07900047302246,-73.70800018310547 20.312000274658203,-69.95600128173828 10.348999977111816,-61.731998443603516 C7.7789998054504395,-59.611000061035156 4.300000190734863,-59.08399963378906 1.184999942779541,-57.90399932861328 C-8.553999900817871,-54.215999603271484 -14.222999572753906,-45.143001556396484 -12.03499984741211,-32.59199905395508 C-10.444000244140625,-23.46500015258789 20.520999908447266,3.99399995803833 18.694000244140625,-28.562000274658203z"></path></g><g opacity="1" transform="matrix(1,0,0,1,224.5959930419922,39.75600051879883)"><path fill="rgb(26,148,78)" fill-opacity="1" d=" M8.088000297546387,-14.75100040435791 C-8.550000190734863,-22.805999755859375 -24.87299919128418,-25.393999099731445 -30.84600067138672,-16.14299964904785 C-36.82400131225586,-6.881999969482422 -18.288000106811523,5.864999771118164 1.3519999980926514,16.996999740600586 C8.510000228881836,21.05500030517578 14.803999900817871,24.03700065612793 21.01799964904785,25.31800079345703 C21.385000228881836,25.393999099731445 23.312000274658203,22.746000289916992 23.312000274658203,22.746000289916992 C23.312000274658203,22.746000289916992 24.788999557495117,23.134000778198242 24.788999557495117,23.134000778198242 C27.509000778198242,20.386999130249023 30.319000244140625,16.56999969482422 32.65399932861328,11.5649995803833 C36.82500076293945,2.625 33.56100082397461,-2.4189999103546143 8.088000297546387,-14.75100040435791z"></path></g><g opacity="1" transform="matrix(1,0,0,1,214.21400451660156,59.779998779296875)"><path fill="rgb(26,148,78)" fill-opacity="1" d=" M-16.233999252319336,-20.94300079345703 C-16.95199966430664,-21.66699981689453 -18.17099952697754,-21.437000274658203 -18.58799934387207,-20.506000518798828 C-22.607999801635742,-11.520999908447266 -16.041000366210938,3.0239999294281006 -2.0179998874664307,11.729000091552734 C6.2829999923706055,16.881999969482422 12.774999618530273,19.791000366210938 17.961000442504883,21.01300048828125 C20.733999252319336,21.666000366210938 22.607999801635742,18.238000869750977 20.60300064086914,16.21500015258789 C20.60300064086914,16.21500015258789 -16.233999252319336,-20.94300079345703 -16.233999252319336,-20.94300079345703z"></path></g><g opacity="1" transform="matrix(1,0,0,1,227.72000122070312,53.46500015258789)"><path fill="rgb(0,129,66)" fill-opacity="1" d=" M-18.458999633789062,-11.680999755859375 C-18.458999633789062,-11.680999755859375 -20.16699981689453,-8.189000129699707 -20.16699981689453,-8.189000129699707 C-14.734000205993652,-4.309000015258789 -8.317000389099121,-0.41999998688697815 -1.7730000019073486,3.2890000343322754 C5.385000228881836,7.3460001945495605 11.680000305175781,10.32800006866455 17.893999099731445,11.609000205993652 C18.23900032043457,11.680000305175781 19.96299934387207,9.345000267028809 20.16699981689453,9.065999984741211 C0.014000000432133675,0.6520000100135803 -18.458999633789062,-11.680999755859375 -18.458999633789062,-11.680999755859375z"></path></g><g opacity="1" transform="matrix(1,0,0,1,217.99600219726562,49.404998779296875)"><path fill="rgb(245,244,235)" fill-opacity="1" d=" M-3.4210000038146973,-3.825000047683716 C-3.4210000038146973,-3.825000047683716 -3.430999994277954,3.825000047683716 -3.430999994277954,3.825000047683716 C-3.430999994277954,3.825000047683716 3.430999994277954,0.4740000069141388 3.430999994277954,0.4740000069141388 C1.2359999418258667,-0.8379999995231628 -1.0950000286102295,-2.2980000972747803 -3.4210000038146973,-3.825000047683716z"></path></g><g opacity="1" transform="matrix(1,0,0,1,225.54100036621094,54.053001403808594)"><path fill="rgb(245,244,235)" fill-opacity="1" d=" M-3.066999912261963,-3.5460000038146973 C-3.2139999866485596,-3.632999897003174 -3.368000030517578,-3.7300000190734863 -3.5190000534057617,-3.818000078201294 C-3.5190000534057617,-3.818000078201294 -3.196000099182129,3.818000078201294 -3.196000099182129,3.818000078201294 C-3.196000099182129,3.818000078201294 3.5190000534057617,0.164000004529953 3.5190000534057617,0.164000004529953 C1.2079999446868896,-1.0839999914169312 -1.034000039100647,-2.3469998836517334 -3.066999912261963,-3.5460000038146973z"></path></g><g opacity="1" transform="matrix(1,0,0,1,233.28900146484375,58.340999603271484)"><path fill="rgb(245,244,235)" fill-opacity="1" d=" M-3.6050000190734863,-3.7939999103546143 C-3.6050000190734863,-3.7939999103546143 -2.947999954223633,3.7939999103546143 -2.947999954223633,3.7939999103546143 C-2.947999954223633,3.7939999103546143 3.6050000190734863,-0.15399999916553497 3.6050000190734863,-0.15399999916553497 C1.2319999933242798,-1.2769999504089355 -1.215000033378601,-2.5169999599456787 -3.6050000190734863,-3.7939999103546143z"></path></g><g opacity="1" transform="matrix(1,0,0,1,241.27099609375,62.25199890136719)"><path fill="rgb(245,244,235)" fill-opacity="1" d=" M-3.7219998836517334,-3.759999990463257 C-3.7219998836517334,-3.759999990463257 -2.496000051498413,3.759999990463257 -2.496000051498413,3.759999990463257 C-2.496000051498413,3.759999990463257 3.7219998836517334,-0.6620000004768372 3.7219998836517334,-0.6620000004768372 C1.5099999904632568,-1.4249999523162842 -1.0449999570846558,-2.51200008392334 -3.7219998836517334,-3.759999990463257z"></path></g><g opacity="1" transform="matrix(1,0,0,1,238.8730010986328,37.9630012512207)"><path fill="rgb(0,129,66)" fill-opacity="1" d=" M-6.392000198364258,-0.996999979019165 C-0.5619999766349792,-6.068999767303467 6.392000198364258,-0.6729999780654907 1.4140000343322754,6.067999839782715 C1.4140000343322754,6.067999839782715 -6.392000198364258,-0.996999979019165 -6.392000198364258,-0.996999979019165z"></path></g><g opacity="1" transform="matrix(1,0,0,1,251.00100708007812,44.29100036621094)"><path fill="rgb(0,129,66)" fill-opacity="1" d=" M4.236000061035156,4.763999938964844 C5.10699987411499,-2.246000051498413 -2.5360000133514404,-4.763999938964844 -5.10699987411499,2.4509999752044678 C-5.10699987411499,2.4509999752044678 4.236000061035156,4.763999938964844 4.236000061035156,4.763999938964844z"></path></g><g opacity="1" transform="matrix(1,0,0,1,205.27200317382812,34.792999267578125)"><path fill="rgb(0,129,66)" fill-opacity="1" d=" M5.321000099182129,-8.243000030517578 C9.873000144958496,-5.304999828338623 11.180999755859375,0.7689999938011169 8.241999626159668,5.321000099182129 C5.302999973297119,9.873000144958496 -0.7689999938011169,11.182000160217285 -5.322000026702881,8.241999626159668 C-9.87399959564209,5.303999900817871 -11.180999755859375,-0.7689999938011169 -8.241999626159668,-5.321000099182129 C-5.303999900817871,-9.87399959564209 0.7689999938011169,-11.182000160217285 5.321000099182129,-8.243000030517578z"></path></g><g opacity="1" transform="matrix(1,0,0,1,218.76100158691406,60.112998962402344)"><path fill="rgb(0,129,66)" fill-opacity="1" d=" M16.05699920654297,15.881999969482422 C16.05699920654297,15.881999969482422 -9.029000282287598,-9.420999526977539 -9.029000282287598,-9.420999526977539 C-9.125,-11.218999862670898 -9.220999717712402,-12.989999771118164 -9.317999839782715,-14.715999603271484 C-8.755999565124512,-14.817000389099121 -8.152999877929688,-14.961000442504883 -7.531000137329102,-15.12600040435791 C-7.531000137329102,-15.12600040435791 -7.877999782562256,-17.270999908447266 -7.877999782562256,-17.270999908447266 C-7.877999782562256,-17.270999908447266 -13.237000465393066,-17.698999404907227 -13.237000465393066,-17.698999404907227 C-15.42300033569336,-14.98799991607666 -16.881999969482422,-8.475000381469727 -0.7649999856948853,5.89900016784668 C6.008999824523926,11.940999984741211 13.20199966430664,16.45800018310547 16.882999420166016,17.698999404907227 C16.844999313354492,17.062999725341797 16.593000411987305,16.422000885009766 16.05699920654297,15.881999969482422z"></path></g><g opacity="1" transform="matrix(0.17833517491817474,0.058643970638513565,-0.058643970638513565,0.17833517491817474,217.0229949951172,15.711999893188477)"><path fill="rgb(79,183,78)" fill-opacity="1" d=" M19,0 C19,0 19,0 19,0 C19,10.486100196838379 10.486100196838379,19 0,19 C0,19 0,19 0,19 C-10.486100196838379,19 -19,10.486100196838379 -19,0 C-19,0 -19,0 -19,0 C-19,-10.486100196838379 -10.486100196838379,-19 0,-19 C0,-19 0,-19 0,-19 C10.486100196838379,-19 19,-10.486100196838379 19,0z"></path></g><g opacity="1" transform="matrix(0.17833517491817474,0.058643970638513565,-0.058643970638513565,0.17833517491817474,226.7729949951172,18.711999893188477)"><path fill="rgb(79,183,78)" fill-opacity="1" d=" M19,0 C19,0 19,0 19,0 C19,10.486100196838379 10.486100196838379,19 0,19 C0,19 0,19 0,19 C-10.486100196838379,19 -19,10.486100196838379 -19,0 C-19,0 -19,0 -19,0 C-19,-10.486100196838379 -10.486100196838379,-19 0,-19 C0,-19 0,-19 0,-19 C10.486100196838379,-19 19,-10.486100196838379 19,0z"></path></g></g><g transform="matrix(0.3330000042915344,0,0,0.3330000042915344,53.82342529296875,5.714200973510742)" opacity="1" style="display: block;"><g opacity="1" transform="matrix(1,0,0,1,168.71600341796875,121.71499633789062)"><path stroke-linecap="round" stroke-linejoin="round" fill-opacity="0" stroke="rgb(26,148,78)" stroke-opacity="1" stroke-width="8" d=" M25.270999908447266,10.17300033569336 C21.53700065612793,6.150000095367432 15.78600025177002,5.465000152587891 10.312000274658203,5.955999851226807 C2.7829999923706055,6.631999969482422 -4.627999782562256,8.298999786376953 -11.553999900817871,5.375999927520752 C-17.812000274658203,2.734999895095825 -22.937999725341797,-2.809000015258789 -25.270999908447266,-10.17300033569336"></path></g><g opacity="1" transform="matrix(1,0,0,1,171.031005859375,117.22000122070312)"><path stroke-linecap="round" stroke-linejoin="round" fill-opacity="0" stroke="rgb(26,148,78)" stroke-opacity="1" stroke-width="8" d=" M22.954999923706055,14.668000221252441 C20.02899932861328,10.02299976348877 14.503999710083008,8.288000106811523 9.034000396728516,7.760000228881836 C1.5099999904632568,7.0320000648498535 -6.081999778747559,7.301000118255615 -12.347999572753906,3.1470000743865967 C-18.010000228881836,-0.6039999723434448 -22.023000717163086,-7 -22.954999923706055,-14.668000221252441"></path></g><g opacity="1" transform="matrix(1,0,0,1,194.16700744628906,133.98399353027344)"><path fill="rgb(26,148,78)" fill-opacity="1" d=" M4.10099983215332,-3.4830000400543213 C0.5619999766349792,-7.650000095367432 -4.144999980926514,-9.468000411987305 -6.408999919891357,-7.544000148773193 C-8.673999786376953,-5.620999813079834 -7.640999794006348,-0.6840000152587891 -4.1020002365112305,3.4830000400543213 C-0.5619999766349792,7.650000095367432 4.144000053405762,9.468000411987305 6.408999919891357,7.545000076293945 C8.673999786376953,5.620999813079834 7.640999794006348,0.6840000152587891 4.10099983215332,-3.4830000400543213z"></path></g><g opacity="1" transform="matrix(1,0,0,1,196.49400329589844,127.61599731445312)"><path fill="rgb(26,148,78)" fill-opacity="1" d=" M-0.3479999899864197,3.9639999866485596 C0.1469999998807907,2.7939999103546143 0.3230000138282776,2.5260000228881836 1.315999984741211,1.7960000038146973 C1.156999945640564,1.9119999408721924 1.934999942779541,1.4670000076293945 1.9509999752044678,1.4609999656677246 C2.7690000534057617,1.1440000534057617 2.875,1.2109999656677246 3.6640000343322754,1.2680000066757202 C5.572000026702881,1.4040000438690186 7.201000213623047,-0.4560000002384186 7.201000213623047,-2.2690000534057617 C7.201000213623047,-4.297999858856201 5.577000141143799,-5.670000076293945 3.6640000343322754,-5.807000160217285 C-0.43299999833106995,-6.10099983215332 -4.84499979019165,-3.4140000343322754 -6.456999778747559,0.39399999380111694 C-7.201000213623047,2.1519999504089355 -6.984000205993652,4.183000087738037 -5.188000202178955,5.234000205993652 C-3.7039999961853027,6.10099983215332 -1.097000002861023,5.734000205993652 -0.3479999899864197,3.9639999866485596z"></path></g><g opacity="1" transform="matrix(1,0,0,1,201.55099487304688,133.83200073242188)"><path fill="rgb(26,148,78)" fill-opacity="1" d=" M-10.925999641418457,-1.2130000591278076 C-9.00100040435791,-0.2590000033378601 -8.378000259399414,1.2790000438690186 -7.2769999504089355,2.9779999256134033 C-5.86899995803833,5.14900016784668 -3.88700008392334,6.915999889373779 -1.3860000371932983,7.699999809265137 C3.8299999237060547,9.336000442504883 9.04699993133545,6.586999893188477 12.23900032043457,2.496999979019165 C15.008999824523926,-1.0509999990463257 10.03600025177002,-6.0929999351501465 7.236999988555908,-2.50600004196167 C4.755000114440918,0.6740000247955322 1.13100004196167,2.7639999389648438 -1.5640000104904175,-1.2970000505447388 C-3.2039999961853027,-3.7679998874664307 -4.5970001220703125,-5.953999996185303 -7.355000019073486,-7.321000099182129 C-11.420999526977539,-9.336999893188477 -15.008999824523926,-3.236999988555908 -10.925999641418457,-1.2130000591278076z"></path></g><g opacity="1" transform="matrix(1,0,0,1,206.8260040283203,135.98199462890625)"><path fill="rgb(26,148,78)" fill-opacity="1" d=" M-4.098999977111816,6.046000003814697 C0.7310000061988831,6.261000156402588 4.767000198364258,3.3580000400543213 7.517000198364258,-0.36899998784065247 C8.651000022888184,-1.906999945640564 7.7729997634887695,-4.316999912261963 6.248000144958496,-5.209000110626221 C4.449999809265137,-6.261000156402588 2.5460000038146973,-5.480999946594238 1.4079999923706055,-3.938999891281128 C0.10000000149011612,-2.1659998893737793 -1.8969999551773071,-0.9309999942779541 -4.098999977111816,-1.0290000438690186 C-8.651000022888184,-1.2309999465942383 -8.640999794006348,5.843999862670898 -4.098999977111816,6.046000003814697z"></path></g><g opacity="1" transform="matrix(1,0,0,1,198.23399353027344,134.5260009765625)"><path fill="rgb(26,148,78)" fill-opacity="1" d=" M3.7679998874664307,-2.73799991607666 C2.5940001010894775,-0.9850000143051147 0.3199999928474426,1.8489999771118164 -1.9279999732971191,0.03400000184774399 C-3.2679998874664307,-1.0470000505447388 -3.9100000858306885,-3.2119998931884766 -4.360000133514404,-4.817999839782715 C-5.589000225067139,-9.194999694824219 -12.416999816894531,-7.335999965667725 -11.182999610900879,-2.937000036239624 C-9.979000091552734,1.3509999513626099 -7.703000068664551,5.650000095367432 -3.2790000438690186,7.230000019073486 C2.2200000286102295,9.194999694824219 6.99399995803833,5.13700008392334 9.876999855041504,0.8320000171661377 C12.416999816894531,-2.9609999656677246 6.290999889373779,-6.506999969482422 3.7679998874664307,-2.73799991607666z"></path></g></g><g transform="matrix(0.3330000042915344,0,0,0.3330000042915344,53.54670333862305,6.035880088806152)" opacity="1" style="display: block;"><g opacity="1" transform="matrix(1,0,0,1,109.9219970703125,135.49099731445312)"><path fill="rgb(26,148,78)" fill-opacity="1" d=" M25.638999938964844,27.35300064086914 C13.206999778747559,24.84600067138672 33.84700012207031,10.831999778747559 33.28499984741211,-2.3559999465942383 C33.04399871826172,-7.982999801635742 30.26799964904785,-16.73900032043457 25.27899932861328,-23.216999053955078 C11.664999961853027,-40.895999908447266 2.2219998836517334,-48.801998138427734 -10.449000358581543,-51.6609992980957 C-28.948999404907227,-55.83399963378906 -54.362998962402344,-29.385000228881836 -32.513999938964844,-4.110000133514404 C-24.961000442504883,4.626999855041504 -12.152999877929688,7.697999954223633 -11.456000328063965,10.515999794006348 C-10.758999824523926,13.335000038146973 -11.449000358581543,16.402000427246094 -13.265999794006348,20.79599952697754 C-16.691999435424805,32.85300064086914 -17.091999053955078,37.676998138427734 -16.81599998474121,44.89699935913086 C-16.472999572753906,53.85900115966797 -12.595999717712402,55.834999084472656 -8.765999794006348,55.125 C-8.765999794006348,55.125 43.888999938964844,45.367000579833984 43.888999938964844,45.367000579833984 C54.362998962402344,43.42499923706055 47.12200164794922,31.68400001525879 25.638999938964844,27.35300064086914z"></path></g></g><g transform="matrix(0.3330000042915344,0,0,0.3330000042915344,53.82342529296875,5.714200973510742)" opacity="1" style="display: block;"><g opacity="1" transform="matrix(1,0,0,1,89.88700103759766,152.16600036621094)"><path stroke-linecap="round" stroke-linejoin="round" fill-opacity="0" stroke="rgb(77,67,95)" stroke-opacity="1" stroke-width="5" d=" M-43.93000030517578,-25.253999710083008 C-45.45399856567383,-25.97599983215332 -46.77799987792969,-24.851999282836914 -46.98099899291992,-22.716999053955078 C-50.33599853515625,12.567000389099121 -17.565000534057617,25.975000381469727 12.159000396728516,16.808000564575195 C18.5,14.85099983215332 44.29999923706055,7.547999858856201 50.33599853515625,10.305999755859375"></path></g></g><g transform="matrix(0.3330000042915344,0,0,0.3330000042915344,116.05380249023438,45.20534133911133)" opacity="1" style="display: block;"><g opacity="1" transform="matrix(1,0,0,1,226.7169952392578,177.33399963378906)"><path stroke-linecap="round" stroke-linejoin="round" fill-opacity="0" stroke="rgb(77,67,95)" stroke-opacity="1" stroke-width="5" d=" M214.21800231933594,77.99299621582031 C33.768001556396484,164.83399963378906 -142.66200256347656,101.5770034790039 -214.21800231933594,-164.83399963378906"></path></g></g><g transform="matrix(0.3330000042915344,0,0,0.3330000042915344,116.05380249023438,45.20534133911133)" opacity="1" style="display: block;"><g opacity="1" transform="matrix(1,0,0,1,99.21399688720703,229.0050048828125)"><path fill="rgb(255,201,77)" fill-opacity="1" d=" M-7.333000183105469,-19.410999298095703 C-20.291000366210938,-13.84000015258789 -8.333999633789062,19.410999298095703 -0.0010000000474974513,19.410999298095703 C8.333000183105469,19.410999298095703 20.291000366210938,-13.84000015258789 7.333000183105469,-19.410999298095703 C7.333000183105469,-19.410999298095703 -7.333000183105469,-19.410999298095703 -7.333000183105469,-19.410999298095703z"></path></g><g opacity="1" transform="matrix(1,0,0,1,99.21399688720703,201.81500244140625)"><path fill="rgb(77,67,95)" fill-opacity="1" d=" M7.334000110626221,7.78000020980835 C7.334000110626221,7.78000020980835 7.334000110626221,-0.44600000977516174 7.334000110626221,-0.44600000977516174 C7.334000110626221,-4.495999813079834 4.050000190734863,-7.78000020980835 0.0010000000474974513,-7.78000020980835 C-4.050000190734863,-7.78000020980835 -7.334000110626221,-4.495999813079834 -7.334000110626221,-0.44600000977516174 C-7.334000110626221,-0.44600000977516174 -7.334000110626221,7.78000020980835 -7.334000110626221,7.78000020980835 C-7.334000110626221,7.78000020980835 7.334000110626221,7.78000020980835 7.334000110626221,7.78000020980835z"></path></g></g><g transform="matrix(0.3330000042915344,0,0,0.3330000042915344,116.05380249023438,45.20533752441406)" opacity="1" style="display: block;"><g opacity="1" transform="matrix(1,0,0,1,200.26100158691406,308.29400634765625)"><path fill="rgb(29,153,212)" fill-opacity="1" d=" M-7.333000183105469,-19.410999298095703 C-20.291000366210938,-13.84000015258789 -8.333999633789062,19.410999298095703 -0.0010000000474974513,19.410999298095703 C8.333000183105469,19.410999298095703 20.291000366210938,-13.84000015258789 7.333000183105469,-19.410999298095703 C7.333000183105469,-19.410999298095703 -7.333000183105469,-19.410999298095703 -7.333000183105469,-19.410999298095703z"></path></g><g opacity="1" transform="matrix(1,0,0,1,200.26100158691406,281.10400390625)"><path fill="rgb(77,67,95)" fill-opacity="1" d=" M7.334000110626221,7.78000020980835 C7.334000110626221,7.78000020980835 7.334000110626221,-0.44600000977516174 7.334000110626221,-0.44600000977516174 C7.334000110626221,-4.495999813079834 4.051000118255615,-7.78000020980835 0.0010000000474974513,-7.78000020980835 C-4.048999786376953,-7.78000020980835 -7.334000110626221,-4.495999813079834 -7.334000110626221,-0.44600000977516174 C-7.334000110626221,-0.44600000977516174 -7.334000110626221,7.78000020980835 -7.334000110626221,7.78000020980835 C-7.334000110626221,7.78000020980835 7.334000110626221,7.78000020980835 7.334000110626221,7.78000020980835z"></path></g></g><g transform="matrix(0.3330000042915344,0,0,0.3330000042915344,116.05379486083984,45.20533752441406)" opacity="1" style="display: block;"><g opacity="1" transform="matrix(1,0,0,1,320.4150085449219,325.5830078125)"><path fill="rgb(79,184,79)" fill-opacity="1" d=" M-7.333000183105469,-19.410999298095703 C-20.291000366210938,-13.84000015258789 -8.333999633789062,19.410999298095703 -0.0010000000474974513,19.410999298095703 C8.333000183105469,19.410999298095703 20.291000366210938,-13.84000015258789 7.333000183105469,-19.410999298095703 C7.333000183105469,-19.410999298095703 -7.333000183105469,-19.410999298095703 -7.333000183105469,-19.410999298095703z"></path></g><g opacity="1" transform="matrix(1,0,0,1,320.41400146484375,298.39300537109375)"><path fill="rgb(77,67,95)" fill-opacity="1" d=" M7.334000110626221,7.78000020980835 C7.334000110626221,7.78000020980835 7.334000110626221,-0.44699999690055847 7.334000110626221,-0.44699999690055847 C7.334000110626221,-4.495999813079834 4.051000118255615,-7.78000020980835 0.0010000000474974513,-7.78000020980835 C-4.048999786376953,-7.78000020980835 -7.334000110626221,-4.495999813079834 -7.334000110626221,-0.44699999690055847 C-7.334000110626221,-0.44699999690055847 -7.334000110626221,7.78000020980835 -7.334000110626221,7.78000020980835 C-7.334000110626221,7.78000020980835 7.334000110626221,7.78000020980835 7.334000110626221,7.78000020980835z"></path></g></g><g transform="matrix(0.3330000042915344,0,0,0.3330000042915344,116.05380249023438,45.20534133911133)" opacity="1" style="display: block;"><g opacity="1" transform="matrix(1,0,0,1,34.56800079345703,118.49299621582031)"><path fill="rgb(239,82,34)" fill-opacity="1" d=" M-7.333000183105469,-19.410999298095703 C-20.291000366210938,-13.83899974822998 -8.333999633789062,19.410999298095703 -0.0010000000474974513,19.410999298095703 C8.333000183105469,19.410999298095703 20.291000366210938,-13.83899974822998 7.333000183105469,-19.410999298095703 C7.333000183105469,-19.410999298095703 -7.333000183105469,-19.410999298095703 -7.333000183105469,-19.410999298095703z"></path></g><g opacity="1" transform="matrix(1,0,0,1,34.56800079345703,91.302001953125)"><path fill="rgb(77,67,95)" fill-opacity="1" d=" M7.334000110626221,7.7789998054504395 C7.334000110626221,7.7789998054504395 7.334000110626221,-0.44600000977516174 7.334000110626221,-0.44600000977516174 C7.334000110626221,-4.494999885559082 4.050000190734863,-7.7789998054504395 0.0010000000474974513,-7.7789998054504395 C-4.050000190734863,-7.7789998054504395 -7.334000110626221,-4.494999885559082 -7.334000110626221,-0.44600000977516174 C-7.334000110626221,-0.44600000977516174 -7.334000110626221,7.7789998054504395 -7.334000110626221,7.7789998054504395 C-7.334000110626221,7.7789998054504395 7.334000110626221,7.7789998054504395 7.334000110626221,7.7789998054504395z"></path></g></g><g transform="matrix(0.3330000042915344,0,0,0.3330000042915344,-2.6263978481292725,5.620300769805908)" opacity="1" style="display: block;"><g opacity="1" transform="matrix(1,0,0,1,190.6320037841797,203.2949981689453)"><path stroke-linecap="round" stroke-linejoin="round" fill-opacity="0" stroke="rgb(77,67,95)" stroke-opacity="1" stroke-width="5" d=" M178.1320037841797,-72.2040023803711 C101.19000244140625,16.451000213623047 -55.21900177001953,67.26300048828125 -178.1320037841797,72.2040023803711"></path></g></g><g transform="matrix(0.3330000042915344,0,0,0.3330000042915344,-2.6263978481292725,5.620300769805908)" opacity="1" style="display: block;"><g opacity="1" transform="matrix(1,0,0,1,69.05999755859375,305.052001953125)"><path fill="rgb(29,153,212)" fill-opacity="1" d=" M-7.333000183105469,-19.410999298095703 C-20.291000366210938,-13.84000015258789 -8.333999633789062,19.410999298095703 -0.0010000000474974513,19.410999298095703 C8.333000183105469,19.410999298095703 20.291000366210938,-13.84000015258789 7.333000183105469,-19.410999298095703 C7.333000183105469,-19.410999298095703 -7.333000183105469,-19.410999298095703 -7.333000183105469,-19.410999298095703z"></path></g><g opacity="1" transform="matrix(1,0,0,1,69.05999755859375,277.8609924316406)"><path fill="rgb(77,67,95)" fill-opacity="1" d=" M7.334000110626221,7.78000020980835 C7.334000110626221,7.78000020980835 7.334000110626221,-0.44699999690055847 7.334000110626221,-0.44699999690055847 C7.334000110626221,-4.495999813079834 4.051000118255615,-7.78000020980835 0.0010000000474974513,-7.78000020980835 C-4.048999786376953,-7.78000020980835 -7.334000110626221,-4.495999813079834 -7.334000110626221,-0.44699999690055847 C-7.334000110626221,-0.44699999690055847 -7.334000110626221,7.78000020980835 -7.334000110626221,7.78000020980835 C-7.334000110626221,7.78000020980835 7.334000110626221,7.78000020980835 7.334000110626221,7.78000020980835z"></path></g></g><g transform="matrix(0.3330000042915344,0,0,0.3330000042915344,-2.6263978481292725,5.620300769805908)" opacity="1" style="display: block;"><g opacity="1" transform="matrix(1,0,0,1,191.83799743652344,274.8590087890625)"><path fill="rgb(239,82,34)" fill-opacity="1" d=" M-7.333000183105469,-19.410999298095703 C-20.291000366210938,-13.84000015258789 -8.333999633789062,19.410999298095703 -0.0010000000474974513,19.410999298095703 C8.333000183105469,19.410999298095703 20.291000366210938,-13.84000015258789 7.333000183105469,-19.410999298095703 C7.333000183105469,-19.410999298095703 -7.333000183105469,-19.410999298095703 -7.333000183105469,-19.410999298095703z"></path></g><g opacity="1" transform="matrix(1,0,0,1,191.83799743652344,247.66900634765625)"><path fill="rgb(77,67,95)" fill-opacity="1" d=" M7.334000110626221,7.78000020980835 C7.334000110626221,7.78000020980835 7.334000110626221,-0.44699999690055847 7.334000110626221,-0.44699999690055847 C7.334000110626221,-4.495999813079834 4.051000118255615,-7.78000020980835 0.0010000000474974513,-7.78000020980835 C-4.050000190734863,-7.78000020980835 -7.334000110626221,-4.495999813079834 -7.334000110626221,-0.44699999690055847 C-7.334000110626221,-0.44699999690055847 -7.334000110626221,7.78000020980835 -7.334000110626221,7.78000020980835 C-7.334000110626221,7.78000020980835 7.334000110626221,7.78000020980835 7.334000110626221,7.78000020980835z"></path></g></g><g transform="matrix(0.3330000042915344,0,0,0.3330000042915344,-2.6263978481292725,5.620300769805908)" opacity="1" style="display: block;"><g opacity="1" transform="matrix(1,0,0,1,308.9739990234375,218.60800170898438)"><path fill="rgb(79,184,79)" fill-opacity="1" d=" M-7.333000183105469,-19.410999298095703 C-20.291000366210938,-13.84000015258789 -8.333999633789062,19.410999298095703 -0.0010000000474974513,19.410999298095703 C8.333000183105469,19.410999298095703 20.291000366210938,-13.84000015258789 7.333000183105469,-19.410999298095703 C7.333000183105469,-19.410999298095703 -7.333000183105469,-19.410999298095703 -7.333000183105469,-19.410999298095703z"></path></g><g opacity="1" transform="matrix(1,0,0,1,308.9739990234375,191.41799926757812)"><path fill="rgb(77,67,95)" fill-opacity="1" d=" M7.334000110626221,7.78000020980835 C7.334000110626221,7.78000020980835 7.334000110626221,-0.44699999690055847 7.334000110626221,-0.44699999690055847 C7.334000110626221,-4.495999813079834 4.051000118255615,-7.78000020980835 0.0010000000474974513,-7.78000020980835 C-4.048999786376953,-7.78000020980835 -7.334000110626221,-4.495999813079834 -7.334000110626221,-0.44699999690055847 C-7.334000110626221,-0.44699999690055847 -7.334000110626221,7.78000020980835 -7.334000110626221,7.78000020980835 C-7.334000110626221,7.78000020980835 7.334000110626221,7.78000020980835 7.334000110626221,7.78000020980835z"></path></g></g></g></svg>