<svg xmlns="http://www.w3.org/2000/svg" viewBox="0 0 122 207" width="122" height="207" preserveAspectRatio="xMidYMid meet" style="width: 100%; height: 100%; transform: translate3d(0px, 0px, 0px); content-visibility: visible;"><defs><clipPath id="__lottie_element_183"><rect width="122" height="207" x="0" y="0"></rect></clipPath></defs><g clip-path="url(#__lottie_element_183)"><g transform="matrix(0.3330000042915344,0,0,0.3330000042915344,-1.5706987380981445,-529.7831420898438)" opacity="1" style="display: block;"><g opacity="1" transform="matrix(1,0,0,1,173.9219970703125,1922.8349609375)"><path stroke-linecap="round" stroke-linejoin="round" fill-opacity="0" stroke="rgb(195,121,81)" stroke-opacity="1" stroke-width="6" d=" M26.475000381469727,-154.9055633544922 C26.475000381469727,-101.60055541992188 27.060531616210938,64.14973449707031 -15.963000297546387,98.96600341796875"></path></g></g><g transform="matrix(0.3330000042915344,0,0,0.3330000042915344,-1.5706987380981445,-537.9376220703125)" opacity="1" style="display: block;"><g opacity="1" transform="matrix(1,0,0,1,138.15199279785156,1820.18798828125)"><path stroke-linecap="round" stroke-linejoin="round" fill-opacity="0" stroke="rgb(195,121,81)" stroke-opacity="1" stroke-width="6" d=" M-62.58300018310547,-64.74696350097656 C-40.94499969482422,-1.9009647369384766 20.914875030517578,27.234251022338867 68.54000091552734,-30.04199981689453"></path></g></g><g transform="matrix(0.3330000042915344,0,0,0.3330000042915344,-1.5706987380981445,-529.783203125)" opacity="1" style="display: block;"><g opacity="1" transform="matrix(1,0,0,1,160.39599609375,2015.0379638671875)"><path stroke-linecap="round" stroke-linejoin="round" fill-opacity="0" stroke="rgb(113,66,56)" stroke-opacity="1" stroke-width="6" d=" M63.944000244140625,-185.80606079101562 C63.944000244140625,-149.6900634765625 49.69537353515625,-1.0204613208770752 22.975000381469727,65.19400024414062"></path></g></g><g transform="matrix(0.3330000042915344,0,0,0.3330000042915344,-1.5706987380981445,-535.9523315429688)" opacity="1" style="display: block;"><g opacity="1" transform="matrix(1,0,0,1,0,0)"><path stroke-linecap="round" stroke-linejoin="round" fill-opacity="0" stroke="rgb(195,121,81)" stroke-opacity="1" stroke-width="6" d=" M47.63600158691406,2068.675048828125 C47.63600158691406,2068.675048828125 47.63600158691406,2115.7490234375 47.63600158691406,2115.7490234375"></path></g><g opacity="1" transform="matrix(1,0,0,1,0,0)"><path stroke-linecap="round" stroke-linejoin="round" fill-opacity="0" stroke="rgb(195,121,81)" stroke-opacity="1" stroke-width="6" d=" M53.64099884033203,2081.077880859375 C53.64099884033203,2081.077880859375 53.64099884033203,2159.9560546875 53.64099884033203,2159.9560546875"></path></g><g opacity="1" transform="matrix(1,0,0,1,0,0)"><path stroke-linecap="round" stroke-linejoin="round" fill-opacity="0" stroke="rgb(195,121,81)" stroke-opacity="1" stroke-width="6" d=" M152.5659942626953,2133.799072265625 C152.5659942626953,2133.799072265625 152.5659942626953,2212.677001953125 152.5659942626953,2212.677001953125"></path></g><g opacity="1" transform="matrix(1,0,0,1,81.29900360107422,1990.3289794921875)"><path fill="rgb(0,133,69)" fill-opacity="1" d=" M7.418000221252441,0 C7.418000221252441,-4.0970001220703125 4.0970001220703125,-7.418000221252441 0,-7.418000221252441 C-4.0970001220703125,-7.418000221252441 -7.418000221252441,-4.0970001220703125 -7.418000221252441,0 C-7.418000221252441,4.0970001220703125 -4.0970001220703125,7.418000221252441 0,7.418000221252441 C4.0970001220703125,7.418000221252441 7.418000221252441,4.0970001220703125 7.418000221252441,0z"></path></g><g opacity="1" transform="matrix(1,0,0,1,81.29900360107422,1990.3289794921875)"><path stroke-linecap="butt" stroke-linejoin="miter" fill-opacity="0" stroke-miterlimit="10" stroke="rgb(0,133,69)" stroke-opacity="1" stroke-width="2" d=" M7.418000221252441,0 C7.418000221252441,-4.0970001220703125 4.0970001220703125,-7.418000221252441 0,-7.418000221252441 C-4.0970001220703125,-7.418000221252441 -7.418000221252441,-4.0970001220703125 -7.418000221252441,0 C-7.418000221252441,4.0970001220703125 -4.0970001220703125,7.418000221252441 0,7.418000221252441 C4.0970001220703125,7.418000221252441 7.418000221252441,4.0970001220703125 7.418000221252441,0z"></path></g><g opacity="1" transform="matrix(1,0,0,1,129.18499755859375,1991.3890380859375)"><path fill="rgb(0,133,69)" fill-opacity="1" d=" M7.418000221252441,-0.0010000000474974513 C7.418000221252441,-4.0980000495910645 4.0970001220703125,-7.419000148773193 0,-7.419000148773193 C-4.0970001220703125,-7.419000148773193 -7.418000221252441,-4.0980000495910645 -7.418000221252441,-0.0010000000474974513 C-7.418000221252441,4.0970001220703125 -4.0970001220703125,7.418000221252441 0,7.418000221252441 C4.0970001220703125,7.418000221252441 7.418000221252441,4.0970001220703125 7.418000221252441,-0.0010000000474974513z"></path></g><g opacity="1" transform="matrix(1,0,0,1,129.18499755859375,1991.3890380859375)"><path stroke-linecap="butt" stroke-linejoin="miter" fill-opacity="0" stroke-miterlimit="10" stroke="rgb(0,133,69)" stroke-opacity="1" stroke-width="2" d=" M7.418000221252441,-0.0010000000474974513 C7.418000221252441,-4.0980000495910645 4.0970001220703125,-7.419000148773193 0,-7.419000148773193 C-4.0970001220703125,-7.419000148773193 -7.418000221252441,-4.0980000495910645 -7.418000221252441,-0.0010000000474974513 C-7.418000221252441,4.0970001220703125 -4.0970001220703125,7.418000221252441 0,7.418000221252441 C4.0970001220703125,7.418000221252441 7.418000221252441,4.0970001220703125 7.418000221252441,-0.0010000000474974513z"></path></g><g opacity="1" transform="matrix(1,0,0,1,63.41999816894531,1987.737060546875)"><path fill="rgb(0,133,69)" fill-opacity="1" d=" M12.781999588012695,0 C12.781999588012695,-7.059000015258789 7.058000087738037,-12.781000137329102 -0.0010000000474974513,-12.781000137329102 C-7.059999942779541,-12.781000137329102 -12.781999588012695,-7.059000015258789 -12.781999588012695,0 C-12.781999588012695,7.059999942779541 -7.059999942779541,12.781000137329102 -0.0010000000474974513,12.781000137329102 C7.058000087738037,12.781000137329102 12.781999588012695,7.059999942779541 12.781999588012695,0z"></path></g><g opacity="1" transform="matrix(1,0,0,1,63.41999816894531,1987.737060546875)"><path stroke-linecap="butt" stroke-linejoin="miter" fill-opacity="0" stroke-miterlimit="10" stroke="rgb(0,133,69)" stroke-opacity="1" stroke-width="2" d=" M12.781999588012695,0 C12.781999588012695,-7.059000015258789 7.058000087738037,-12.781000137329102 -0.0010000000474974513,-12.781000137329102 C-7.059999942779541,-12.781000137329102 -12.781999588012695,-7.059000015258789 -12.781999588012695,0 C-12.781999588012695,7.059999942779541 -7.059999942779541,12.781000137329102 -0.0010000000474974513,12.781000137329102 C7.058000087738037,12.781000137329102 12.781999588012695,7.059999942779541 12.781999588012695,0z"></path></g><g opacity="1" transform="matrix(1,0,0,1,101.99700164794922,2092.5830078125)"><path fill="rgb(223,159,99)" fill-opacity="1" d=" M-68.33200073242188,-18.739999771118164 C-63.89500045776367,-18.542999267578125 -59.48899841308594,-17.68000030517578 -55.305999755859375,-16.190000534057617 C-48.14400100708008,8.982000350952148 -37.61600112915039,33.194000244140625 -24.090999603271484,55.5989990234375 C-17.500999450683594,66.51499938964844 -9.062000274658203,77.81999969482422 3.3580000400543213,80.7030029296875 C8.753999710083008,81.95600128173828 14.779999732971191,81.58100128173828 19.326000213623047,84.74700164794922 C25.570999145507812,89.09500122070312 26.884000778198242,98.73899841308594 33.71500015258789,102.09100341796875 C39.98400115966797,105.16799926757812 47.86199951171875,100.88700103759766 51.18199920654297,94.74299621582031 C54.50199890136719,88.5989990234375 54.47800064086914,81.26399993896484 54.37200164794922,74.28099822998047 C54.25899887084961,66.81600189208984 54.145999908447266,59.349998474121094 54.03300094604492,51.8849983215332 C54,49.68199920654297 54.07699966430664,47.20100021362305 55.68000030517578,45.689998626708984 C57.33599853515625,44.125999450683594 59.89799880981445,44.2599983215332 62.13600158691406,43.83300018310547 C72.89399719238281,41.78099822998047 75.22000122070312,27.610000610351562 75.08999633789062,16.658000946044922 C74.85299682617188,-3.302000045776367 74.61499786376953,-23.261999130249023 74.37799835205078,-43.222999572753906 C74.3489990234375,-45.6619987487793 74.19300079345703,-48.39799880981445 72.38600158691406,-50.0359992980957 C70.88099670410156,-51.4010009765625 68.68499755859375,-51.571998596191406 66.73799896240234,-52.15399932861328 C59.48500061035156,-54.32400131225586 55.71500015258789,-62.26900100708008 53.922000885009766,-69.6240005493164 C52.130001068115234,-76.97899627685547 51.24800109863281,-84.98500061035156 46.42900085449219,-90.822998046875 C34.58700180053711,-105.16799926757812 6.770999908447266,-101.59400177001953 -9.54800033569336,-101.68000030517578 C-22.85099983215332,-101.7509994506836 -37.327999114990234,-103.52100372314453 -50.41899871826172,-100.46299743652344 C-61.9109992980957,-97.77799987792969 -68.93399810791016,-91.34500122070312 -72.03299713134766,-79.84200286865234 C-73.67500305175781,-73.74700164794922 -75.22000122070312,-19.04599952697754 -68.33200073242188,-18.739999771118164z"></path></g><g opacity="1" transform="matrix(1,0,0,1,131.6280059814453,2043.0260009765625)"><path fill="rgb(195,121,81)" fill-opacity="1" d=" M-12.345999717712402,-27.21500015258789 C-11.347999572753906,-12.628999710083008 -14.343000411987305,3.196000099182129 -9.973999977111816,16.183000564575195 C-9.119000434875488,18.722999572753906 -7.986000061035156,21.07699966430664 -6.505000114440918,22.774999618530273 C-2.634000062942505,27.215999603271484 3.0899999141693115,26.236000061035156 6.921999931335449,21.714000701904297 C10.753999710083008,17.19099998474121 12.871999740600586,9.821999549865723 13.607999801635742,2.4110000133514404 C14.343999862670898,-5 13.850000381469727,-12.559000015258789 13.348999977111816,-20.01799964904785 C13.348999977111816,-20.01799964904785 -12.345999717712402,-27.21500015258789 -12.345999717712402,-27.21500015258789z"></path></g><g opacity="1" transform="matrix(1,0,0,1,102.37699890136719,2107.069091796875)"><path fill="rgb(195,121,81)" fill-opacity="1" d=" M69.28600311279297,-13.782999992370605 C67.08699798583984,-14.642000198364258 64.69100189208984,-14.82800006866455 62.33700180053711,-15.003999710083008 C54.56800079345703,-15.585000038146973 46.79899978637695,-16.167999267578125 39.02899932861328,-16.749000549316406 C41.35900115966797,-11.354999542236328 37.18199920654297,-4.870999813079834 31.67300033569336,-2.8310000896453857 C26.163000106811523,-0.7900000214576721 19.996999740600586,-2.072000026702881 14.434000015258789,-3.9630000591278076 C14.039999961853027,3.6689999103546143 12.210000038146973,13.17199993133545 4.808000087738037,15.071000099182129 C-1.2929999828338623,16.63800048828125 -7.033999919891357,11.718000411987305 -11.086999893188477,6.895999908447266 C-28.59000015258789,-13.9350004196167 -38.75600051879883,-40.810001373291016 -39.41999816894531,-68.01100158691406 C-39.41999816894531,-68.01100158691406 -34.87699890136719,-90.6050033569336 -34.87699890136719,-90.6050033569336 C-34.87699890136719,-90.6050033569336 -72.94000244140625,-90.68199920654297 -72.94000244140625,-90.68199920654297 C-74.29199981689453,-76.84500122070312 -74.83999633789062,-33.499000549316406 -68.71099853515625,-33.22700119018555 C-64.2750015258789,-33.029998779296875 -59.86800003051758,-32.16699981689453 -55.685001373291016,-30.677000045776367 C-48.52299880981445,-5.505000114440918 -37.99599838256836,18.707000732421875 -24.47100067138672,41.112998962402344 C-17.881000518798828,52.02899932861328 -9.442000389099121,63.33300018310547 2.9790000915527344,66.21700286865234 C8.37600040435791,67.47000122070312 14.399999618530273,67.09500122070312 18.945999145507812,70.26000213623047 C25.19099998474121,74.60900115966797 26.5049991607666,84.2509994506836 33.33599853515625,87.60399627685547 C39.60499954223633,90.68099975585938 47.483001708984375,86.4000015258789 50.803001403808594,80.25599670410156 C51.90399932861328,78.21900177001953 52.63100051879883,76.04900360107422 53.11600112915039,73.80599975585938 C51.125,74.81199645996094 49.00199890136719,75.50800323486328 46.77199935913086,75.76499938964844 C40.867000579833984,76.44499969482422 34.284000396728516,73.27999877929688 32.47999954223633,67.61599731445312 C31.94499969482422,65.93699645996094 31.841999053955078,64.15499877929688 31.773000717163086,62.39400100708008 C31.45599937438965,54.279998779296875 31.781999588012695,46.141998291015625 32.744998931884766,38.07899856567383 C33.47700119018555,31.952999114990234 40.77399826049805,32.14699935913086 44.215999603271484,35.27899932861328 C48.69599914550781,39.35599899291992 52.04499816894531,44.64899826049805 53.85100173950195,50.426998138427734 C53.7859992980957,46.08399963378906 53.720001220703125,41.7400016784668 53.65399932861328,37.39799880981445 C53.62099838256836,35.19499969482422 53.696998596191406,32.7140007019043 55.29999923706055,31.20199966430664 C56.957000732421875,29.638999938964844 59.51900100708008,29.773000717163086 61.75699996948242,29.34600067138672 C72.51499938964844,27.29400062561035 74.84100341796875,13.121999740600586 74.71099853515625,2.1710000038146973 C74.66300201416016,-1.8600000143051147 74.61399841308594,-5.890999794006348 74.56600189208984,-9.92300033569336 C73.13999938964844,-11.602999687194824 71.40899658203125,-12.95300006866455 69.28600311279297,-13.782999992370605z"></path></g><g opacity="1" transform="matrix(1,0,0,1,71.46800231933594,2060.283935546875)"><path fill="rgb(113,66,56)" fill-opacity="1" d=" M-23.142000198364258,-36.50699996948242 C-23.1299991607666,-27.7549991607666 -23.118999481201172,-8.649999618530273 -23.10700035095215,0.10300000011920929 C-23.104000091552734,1.9700000286102295 -22.999000549316406,4.078000068664551 -21.600000381469727,5.313000202178955 C-20.7189998626709,6.0920000076293945 -19.50200080871582,6.34499979019165 -18.339000701904297,6.51200008392334 C-14.265999794006348,7.0970001220703125 -10.093000411987305,6.980000019073486 -6.058000087738037,6.171000003814697 C-5.296000003814697,14.35200023651123 -5.6529998779296875,24.834999084472656 0.3580000102519989,31.236000061035156 C3.553999900817871,34.638999938964844 8.630999565124512,36.50699996948242 13.064000129699707,35.040000915527344 C19.74799919128418,32.827999114990234 22.19700050354004,24.68600082397461 22.731000900268555,17.666000366210938 C23.142000198364258,12.265999794006348 23.006999969482422,6.8429999351501465 22.871999740600586,1.4299999475479126 C22.5939998626709,-9.704000473022461 22.31599998474121,-20.836999893188477 22.038999557495117,-31.97100067138672 C22.038999557495117,-31.97100067138672 -23.142000198364258,-36.50699996948242 -23.142000198364258,-36.50699996948242z"></path></g><g opacity="1" transform="matrix(1,0,0,1,102.65799713134766,2022.3489990234375)"><path fill="rgb(0,133,69)" fill-opacity="1" d=" M71.72599792480469,20.197999954223633 C70.22100067138672,18.83300018310547 68.0250015258789,18.66200065612793 66.0780029296875,18.079999923706055 C58.82500076293945,15.90999984741211 55.05500030517578,7.965000152587891 53.262001037597656,0.6100000143051147 C51.470001220703125,-6.744999885559082 50.58700180053711,-14.75100040435791 45.768001556396484,-20.589000701904297 C33.926998138427734,-34.933998107910156 6.110000133514404,-31.361000061035156 -10.208000183105469,-31.44700050354004 C-23.51099967956543,-31.517000198364258 -37.987998962402344,-33.2869987487793 -51.07899856567383,-30.229000091552734 C-62.57099914550781,-27.54400062561035 -69.59400177001953,-21.11199951171875 -72.69300079345703,-9.607999801635742 C-73.11900329589844,-8.027000427246094 -73.53800201416016,-3.1689999103546143 -73.80599975585938,3.1559998989105225 C-73.80599975585938,3.1559998989105225 -51.0260009765625,5.046000003814697 -51.0260009765625,5.046000003814697 C-51.854000091552734,17.53700065612793 -41.959999084472656,29.81399917602539 -29.577999114990234,31.65999984741211 C-17.19700050354004,33.50699996948242 -4.151000022888184,24.64900016784668 -1.2990000247955322,12.461000442504883 C8.88599967956543,12.366999626159668 19.070999145507812,12.27400016784668 29.256000518798828,12.180000305175781 C32.63199996948242,12.149999618530273 36.16999816894531,12.156999588012695 39.14799880981445,13.748000144958496 C43.04899978637695,15.833000183105469 45.11399841308594,20.124000549316406 47.76499938964844,23.665000915527344 C52.58000183105469,30.094999313354492 60.19200134277344,34.53300094604492 68.22000122070312,34.858001708984375 C70.08999633789062,34.933998107910156 71.96900177001953,34.762001037597656 73.80599975585938,34.38100051879883 C73.7760009765625,31.924999237060547 73.74700164794922,29.468000411987305 73.71800231933594,27.010000228881836 C73.68900299072266,24.57200050354004 73.53299713134766,21.836000442504883 71.72599792480469,20.197999954223633z"></path></g><g opacity="1" transform="matrix(1,0,0,1,102.65799713134766,2022.3489990234375)"><path stroke-linecap="butt" stroke-linejoin="miter" fill-opacity="0" stroke-miterlimit="10" stroke="rgb(0,133,69)" stroke-opacity="1" stroke-width="2" d=" M71.72599792480469,20.197999954223633 C70.22100067138672,18.83300018310547 68.0250015258789,18.66200065612793 66.0780029296875,18.079999923706055 C58.82500076293945,15.90999984741211 55.05500030517578,7.965000152587891 53.262001037597656,0.6100000143051147 C51.470001220703125,-6.744999885559082 50.58700180053711,-14.75100040435791 45.768001556396484,-20.589000701904297 C33.926998138427734,-34.933998107910156 6.110000133514404,-31.361000061035156 -10.208000183105469,-31.44700050354004 C-23.51099967956543,-31.517000198364258 -37.987998962402344,-33.2869987487793 -51.07899856567383,-30.229000091552734 C-62.57099914550781,-27.54400062561035 -69.59400177001953,-21.11199951171875 -72.69300079345703,-9.607999801635742 C-73.11900329589844,-8.027000427246094 -73.53800201416016,-3.1689999103546143 -73.80599975585938,3.1559998989105225 C-73.80599975585938,3.1559998989105225 -51.0260009765625,5.046000003814697 -51.0260009765625,5.046000003814697 C-51.854000091552734,17.53700065612793 -41.959999084472656,29.81399917602539 -29.577999114990234,31.65999984741211 C-17.19700050354004,33.50699996948242 -4.151000022888184,24.64900016784668 -1.2990000247955322,12.461000442504883 C8.88599967956543,12.366999626159668 19.070999145507812,12.27400016784668 29.256000518798828,12.180000305175781 C32.63199996948242,12.149999618530273 36.16999816894531,12.156999588012695 39.14799880981445,13.748000144958496 C43.04899978637695,15.833000183105469 45.11399841308594,20.124000549316406 47.76499938964844,23.665000915527344 C52.58000183105469,30.094999313354492 60.19200134277344,34.53300094604492 68.22000122070312,34.858001708984375 C70.08999633789062,34.933998107910156 71.96900177001953,34.762001037597656 73.80599975585938,34.38100051879883 C73.7760009765625,31.924999237060547 73.74700164794922,29.468000411987305 73.71800231933594,27.010000228881836 C73.68900299072266,24.57200050354004 73.53299713134766,21.836000442504883 71.72599792480469,20.197999954223633z"></path></g><g opacity="1" transform="matrix(1,0,0,1,165.82000732421875,2099.60888671875)"><path fill="rgb(0,155,79)" fill-opacity="1" d=" M-35.569000244140625,-3.430000066757202 C-35.41899871826172,-5.334000110626221 -11.086999893188477,-2.552000045776367 -8.805000305175781,-2.015000104904175 C-16.190000534057617,16.076000213623047 35.569000244140625,19.30299949645996 21.88599967956543,-8.345000267028809 C19.77899932861328,-12.60099983215332 15.229000091552734,-15.22700023651123 10.57800006866455,-16.187999725341797 C-2.934000015258789,-18.979999542236328 -20.464000701904297,-19.30299949645996 -34.13999938964844,-17.02199935913086 C-35.07099914550781,-12.604999542236328 -35.20800018310547,-8 -35.569000244140625,-3.430000066757202z"></path></g><g opacity="1" transform="matrix(1,0,0,1,165.82000732421875,2099.60888671875)"><path stroke-linecap="butt" stroke-linejoin="miter" fill-opacity="0" stroke-miterlimit="10" stroke="rgb(0,155,79)" stroke-opacity="1" stroke-width="2" d=" M-35.569000244140625,-3.430000066757202 C-35.41899871826172,-5.334000110626221 -11.086999893188477,-2.552000045776367 -8.805000305175781,-2.015000104904175 C-16.190000534057617,16.076000213623047 35.569000244140625,19.30299949645996 21.88599967956543,-8.345000267028809 C19.77899932861328,-12.60099983215332 15.229000091552734,-15.22700023651123 10.57800006866455,-16.187999725341797 C-2.934000015258789,-18.979999542236328 -20.464000701904297,-19.30299949645996 -34.13999938964844,-17.02199935913086 C-35.07099914550781,-12.604999542236328 -35.20800018310547,-8 -35.569000244140625,-3.430000066757202z"></path></g></g><g transform="matrix(0.3330000042915344,0,0,0.3330000042915344,-1.5706987380981445,-537.9376220703125)" opacity="1" style="display: block;"><g opacity="1" transform="matrix(1,0,0,1,0,0)"><path stroke-linecap="round" stroke-linejoin="round" fill-opacity="0" stroke="rgb(195,121,81)" stroke-opacity="1" stroke-width="6" d=" M297.9540100097656,1881.531982421875 C297.9540100097656,1881.531982421875 297.9540100097656,1950.4019775390625 297.9540100097656,1950.4019775390625"></path></g><g opacity="1" transform="matrix(1,0,0,1,210.98800659179688,1751.1099853515625)"><path fill="rgb(0,155,79)" fill-opacity="1" d=" M7.418000221252441,0 C7.418000221252441,-4.0970001220703125 4.0970001220703125,-7.418000221252441 0,-7.418000221252441 C-4.0970001220703125,-7.418000221252441 -7.418000221252441,-4.0970001220703125 -7.418000221252441,0 C-7.418000221252441,4.0970001220703125 -4.0970001220703125,7.418000221252441 0,7.418000221252441 C4.0970001220703125,7.418000221252441 7.418000221252441,4.0970001220703125 7.418000221252441,0z"></path></g><g opacity="1" transform="matrix(1,0,0,1,210.98800659179688,1751.1099853515625)"><path stroke-linecap="butt" stroke-linejoin="miter" fill-opacity="0" stroke-miterlimit="10" stroke="rgb(0,155,79)" stroke-opacity="1" stroke-width="2" d=" M7.418000221252441,0 C7.418000221252441,-4.0970001220703125 4.0970001220703125,-7.418000221252441 0,-7.418000221252441 C-4.0970001220703125,-7.418000221252441 -7.418000221252441,-4.0970001220703125 -7.418000221252441,0 C-7.418000221252441,4.0970001220703125 -4.0970001220703125,7.418000221252441 0,7.418000221252441 C4.0970001220703125,7.418000221252441 7.418000221252441,4.0970001220703125 7.418000221252441,0z"></path></g><g opacity="1" transform="matrix(1,0,0,1,294.2330017089844,1733.5379638671875)"><path fill="rgb(0,155,79)" fill-opacity="1" d=" M12.781999588012695,0 C12.781999588012695,-7.059999942779541 7.059999942779541,-12.781000137329102 0.0010000000474974513,-12.781000137329102 C-7.058000087738037,-12.781000137329102 -12.781999588012695,-7.059999942779541 -12.781999588012695,0 C-12.781999588012695,7.059000015258789 -7.058000087738037,12.781000137329102 0.0010000000474974513,12.781000137329102 C7.059999942779541,12.781000137329102 12.781999588012695,7.059000015258789 12.781999588012695,0z"></path></g><g opacity="1" transform="matrix(1,0,0,1,294.2330017089844,1733.5379638671875)"><path stroke-linecap="butt" stroke-linejoin="miter" fill-opacity="0" stroke-miterlimit="10" stroke="rgb(0,155,79)" stroke-opacity="1" stroke-width="2" d=" M12.781999588012695,0 C12.781999588012695,-7.059999942779541 7.059999942779541,-12.781000137329102 0.0010000000474974513,-12.781000137329102 C-7.058000087738037,-12.781000137329102 -12.781999588012695,-7.059999942779541 -12.781999588012695,0 C-12.781999588012695,7.059000015258789 -7.058000087738037,12.781000137329102 0.0010000000474974513,12.781000137329102 C7.059999942779541,12.781000137329102 12.781999588012695,7.059000015258789 12.781999588012695,0z"></path></g><g opacity="1" transform="matrix(1,0,0,1,265.5989990234375,1832.2979736328125)"><path fill="rgb(223,159,99)" fill-opacity="1" d=" M-25.145999908447266,-83.25199890136719 C-25.145999908447266,-83.2300033569336 -25.135000228881836,-83.20800018310547 -25.128999710083008,-83.18699645996094 C-41.38100051879883,-83.18699645996094 -63.71699905395508,-81.24400329589844 -67.22799682617188,-80.88600158691406 C-83.61599731445312,-79.20999908447266 -99.10099792480469,-71.78900146484375 -103.28299713134766,-54.137001037597656 C-104.21099853515625,-50.22200012207031 -104.42900085449219,-45.98699951171875 -102.88700103759766,-42.27199935913086 C-100.33499908447266,-36.11800003051758 -93.57599639892578,-32.750999450683594 -87.03199768066406,-31.5049991607666 C-80.48899841308594,-30.259000778198242 -73.70700073242188,-30.591999053955078 -67.2030029296875,-29.152000427246094 C-63.38999938964844,7.860000133514404 -51.85599899291992,56.047000885009766 -22.183000564575195,80.61100006103516 C-16.739999771118164,85.11799621582031 -18.408000946044922,82.06199645996094 -15.930000305175781,89.48999786376953 C-14.329000473022461,94.28800201416016 -14.498000144958496,100.34700012207031 -13.487000465393066,105.36499786376953 C-13.289999961853027,106.34600067138672 -12.963000297546387,107.4739990234375 -12.031000137329102,107.83599853515625 C-11.324000358581543,108.11100006103516 -10.534000396728516,107.82599639892578 -9.829999923706055,107.54100036621094 C3.5439999103546143,102.13899993896484 16.823999404907227,96.5009994506836 30,90.63200378417969 C31.202999114990234,90.09600067138672 32.448001861572266,89.5250015258789 33.290000915527344,88.51399993896484 C34.34299850463867,87.24800109863281 34.58599853515625,85.51599884033203 34.77399826049805,83.87999725341797 C35.33399963378906,78.98999786376953 35.03099822998047,21.291000366210938 36.76300048828125,21.11400032043457 C42.75,20.46500015258789 48.709999084472656,19.576000213623047 54.625999450683594,18.452999114990234 C66.04399871826172,16.284000396728516 74.21900177001953,6.177000045776367 73.86799621582031,-5.440000057220459 C73.6510009765625,-12.618000030517578 73.43499755859375,-19.79599952697754 73.21800231933594,-26.972999572753906 C72.9739990234375,-35.05500030517578 91.21099853515625,-39.46500015258789 97.11000061035156,-41.667999267578125 C98.77100372314453,-42.28799819946289 100.48899841308594,-42.94499969482422 101.72899627685547,-44.21200180053711 C103.8239974975586,-46.35200119018555 104.04900360107422,-49.64400100708008 104.1520004272461,-52.63600158691406 C104.42900085449219,-60.70600128173828 103.29399871826172,-68.7229995727539 103.29399871826172,-76.7969970703125 C103.29399871826172,-108.11100006103516 21.961999893188477,-101.38700103759766 -4.318999767303467,-98.677001953125 C-17.20800018310547,-97.3479995727539 -25.145999908447266,-91.1449966430664 -25.145999908447266,-83.25199890136719z"></path></g><g opacity="1" transform="matrix(1,0,0,1,231.13699340820312,1836.9739990234375)"><path fill="rgb(195,121,81)" fill-opacity="1" d=" M68.64399719238281,36.154998779296875 C61.03799819946289,37.7400016784668 54.97999954223633,43.17900085449219 52.005001068115234,50.356998443603516 C50.33599853515625,54.38199996948242 46.8129997253418,57.832000732421875 42.551998138427734,58.95100021362305 C34.5989990234375,61.040000915527344 26.034000396728516,56.58700180053711 21.086999893188477,50.018001556396484 C16.141000747680664,43.44900131225586 14.137999534606934,35.15999984741211 12.765999794006348,27.051000595092773 C11.104000091552734,17.233999252319336 10.21500015258789,6.995999813079834 13.032999992370605,-2.555000066757202 C15.85099983215332,-12.104999542236328 23.062000274658203,-20.882999420166016 32.770999908447266,-23.0939998626709 C31.569000244140625,-16.222999572753906 31.576000213623047,-5.558000087738037 37.5369987487793,-1.934999942779541 C37.5369987487793,-1.934999942779541 55.03200149536133,0.02199999988079071 60.577999114990234,-4.209000110626221 C61.46500015258789,-21.466999053955078 61.07899856567383,-40.777000427246094 59.422000885009766,-57.97800064086914 C59.422000885009766,-57.97800064086914 30.952999114990234,-103.43499755859375 30.952999114990234,-103.43499755859375 C30.680999755859375,-103.40699768066406 30.405000686645508,-103.37899780273438 30.143999099731445,-103.35299682617188 C17.2549991607666,-102.02400207519531 9.317000389099121,-95.82099914550781 9.317000389099121,-87.9280014038086 C9.317000389099121,-87.90599822998047 9.329000473022461,-87.88400268554688 9.333999633789062,-87.86299896240234 C-6.919000148773193,-87.86299896240234 -29.253999710083008,-85.91999816894531 -32.76499938964844,-85.56099700927734 C-49.15299987792969,-83.88600158691406 -64.63700103759766,-76.46499633789062 -68.81999969482422,-58.8129997253418 C-69.74800109863281,-54.89799880981445 -69.96600341796875,-50.66299819946289 -68.42400360107422,-46.946998596191406 C-65.87200164794922,-40.79399871826172 -59.112998962402344,-37.426998138427734 -52.569000244140625,-36.180999755859375 C-46.0260009765625,-34.935001373291016 -39.24399948120117,-35.268001556396484 -32.7400016784668,-33.827999114990234 C-28.927000045776367,3.184000015258789 -17.393999099731445,51.37099838256836 12.279999732971191,75.93599700927734 C17.724000930786133,80.44200134277344 16.05500030517578,77.38600158691406 18.533000946044922,84.81400299072266 C20.134000778198242,89.61199951171875 19.965999603271484,95.6709976196289 20.97599983215332,100.68900299072266 C21.17300033569336,101.66999816894531 21.5,102.7979965209961 22.43199920654297,103.16100311279297 C23.139999389648438,103.43499755859375 23.929000854492188,103.1500015258789 24.632999420166016,102.86499786376953 C38.00699996948242,97.46299743652344 51.2869987487793,91.82499694824219 64.46299743652344,85.95600128173828 C65.66600036621094,85.41999816894531 66.91100311279297,84.8499984741211 67.75299835205078,83.83799743652344 C68.80599975585938,82.5719985961914 69.04900360107422,80.83999633789062 69.23699951171875,79.2040023803711 C69.58200073242188,76.19400024414062 69.5999984741211,53.17599868774414 69.96600341796875,35.880001068115234 C69.5250015258789,35.97100067138672 69.08399963378906,36.0629997253418 68.64399719238281,36.154998779296875z"></path></g><g opacity="1" transform="matrix(1,0,0,1,243.16600036621094,1825.7259521484375)"><path fill="rgb(113,66,56)" fill-opacity="1" d=" M21.691999435424805,-45.85900115966797 C25.524999618530273,-27.764999389648438 26.812000274658203,-9.13599967956543 25.506000518798828,9.312000274658203 C5.284999847412109,9.312000274658203 -0.40700000524520874,23.274999618530273 2.075000047683716,45.051998138427734 C-1.1030000448226929,45.86000061035156 -8.604000091552734,45.284000396728516 -11.869999885559082,44.99300003051758 C-15.13599967956543,44.70199966430664 -18.47599983215332,43.0890007019043 -19.957000732421875,40.16299819946289 C-20.82699966430664,38.448001861572266 -20.98200035095215,36.47100067138672 -21.121999740600586,34.551998138427734 C-23.018999099731445,8.494000434875488 -24.915000915527344,-17.562000274658203 -26.812000274658203,-43.619998931884766 C-26.812000274658203,-43.619998931884766 21.691999435424805,-45.85900115966797 21.691999435424805,-45.85900115966797z"></path></g><g opacity="1" transform="matrix(1,0,0,1,265.24798583984375,1774.10302734375)"><path fill="rgb(0,155,79)" fill-opacity="1" d=" M103.64600372314453,-18.601999282836914 C103.64600372314453,-49.91600036621094 22.31399917602539,-43.19200134277344 -3.9679999351501465,-40.481998443603516 C-16.856000900268555,-39.15299987792969 -24.79400062561035,-32.95000076293945 -24.79400062561035,-25.05699920654297 C-24.79400062561035,-25.03499984741211 -24.783000946044922,-25.01300048828125 -24.777000427246094,-24.992000579833984 C-41.029998779296875,-24.992000579833984 -63.36600112915039,-23.048999786376953 -66.8759994506836,-22.690000534057617 C-83.26399993896484,-21.014999389648438 -98.74800109863281,-13.593999862670898 -102.93199920654297,4.058000087738037 C-103.85900115966797,7.9730000495910645 -104.0770034790039,12.208000183105469 -102.53600311279297,15.923999786376953 C-99.98300170898438,22.07699966430664 -93.2239990234375,25.444000244140625 -86.68000030517578,26.690000534057617 C-80.13700103759766,27.93600082397461 -73.3550033569336,27.60300064086914 -66.85099792480469,29.042999267578125 C-66.71800231933594,30.33799934387207 -66.5719985961914,31.649999618530273 -66.41899871826172,32.97100067138672 C-62.40700149536133,35.861000061035156 -59.50699996948242,40.27399826049805 -55.595001220703125,43.40700149536133 C-48.61000061035156,49.000999450683594 -38.220001220703125,49.91600036621094 -30.36400032043457,45.630001068115234 C-22.507999420166016,41.345001220703125 -17.652999877929688,32.112998962402344 -18.575000762939453,23.211000442504883 C-18.756999969482422,21.445999145507812 -19.093000411987305,19.4689998626709 -18.023000717163086,18.05299949645996 C-17.07699966430664,16.80299949645996 -15.371000289916992,16.465999603271484 -13.822999954223633,16.22100067138672 C-13.822999954223633,16.22100067138672 6.373000144958496,13.015999794006348 6.373000144958496,13.015999794006348 C8.579999923706055,12.666000366210938 10.88700008392334,12.322999954223633 13.008000373840332,13.027000427246094 C15.255000114440918,13.77299976348877 16.95400047302246,15.579000473022461 18.78700065612793,17.07900047302246 C31.503000259399414,27.490999221801758 53.97100067138672,20.687000274658203 58.775001525878906,4.968999862670898 C59.57600021362305,2.3489999771118164 60.11000061035156,-0.6549999713897705 62.332000732421875,-2.257999897003174 C63.71200180053711,-3.253000020980835 65.48200225830078,-3.48799991607666 67.1719970703125,-3.691999912261963 C79.4729995727539,-5.178999900817871 91.7750015258789,-6.664999961853027 104.0770034790039,-8.152000427246094 C103.85800170898438,-11.630000114440918 103.64600372314453,-15.111000061035156 103.64600372314453,-18.601999282836914z"></path></g><g opacity="1" transform="matrix(1,0,0,1,265.24798583984375,1774.10302734375)"><path stroke-linecap="butt" stroke-linejoin="miter" fill-opacity="0" stroke-miterlimit="10" stroke="rgb(0,155,79)" stroke-opacity="1" stroke-width="2" d=" M103.64600372314453,-18.601999282836914 C103.64600372314453,-49.91600036621094 22.31399917602539,-43.19200134277344 -3.9679999351501465,-40.481998443603516 C-16.856000900268555,-39.15299987792969 -24.79400062561035,-32.95000076293945 -24.79400062561035,-25.05699920654297 C-24.79400062561035,-25.03499984741211 -24.783000946044922,-25.01300048828125 -24.777000427246094,-24.992000579833984 C-41.029998779296875,-24.992000579833984 -63.36600112915039,-23.048999786376953 -66.8759994506836,-22.690000534057617 C-83.26399993896484,-21.014999389648438 -98.74800109863281,-13.593999862670898 -102.93199920654297,4.058000087738037 C-103.85900115966797,7.9730000495910645 -104.0770034790039,12.208000183105469 -102.53600311279297,15.923999786376953 C-99.98300170898438,22.07699966430664 -93.2239990234375,25.444000244140625 -86.68000030517578,26.690000534057617 C-80.13700103759766,27.93600082397461 -73.3550033569336,27.60300064086914 -66.85099792480469,29.042999267578125 C-66.71800231933594,30.33799934387207 -66.5719985961914,31.649999618530273 -66.41899871826172,32.97100067138672 C-62.40700149536133,35.861000061035156 -59.50699996948242,40.27399826049805 -55.595001220703125,43.40700149536133 C-48.61000061035156,49.000999450683594 -38.220001220703125,49.91600036621094 -30.36400032043457,45.630001068115234 C-22.507999420166016,41.345001220703125 -17.652999877929688,32.112998962402344 -18.575000762939453,23.211000442504883 C-18.756999969482422,21.445999145507812 -19.093000411987305,19.4689998626709 -18.023000717163086,18.05299949645996 C-17.07699966430664,16.80299949645996 -15.371000289916992,16.465999603271484 -13.822999954223633,16.22100067138672 C-13.822999954223633,16.22100067138672 6.373000144958496,13.015999794006348 6.373000144958496,13.015999794006348 C8.579999923706055,12.666000366210938 10.88700008392334,12.322999954223633 13.008000373840332,13.027000427246094 C15.255000114440918,13.77299976348877 16.95400047302246,15.579000473022461 18.78700065612793,17.07900047302246 C31.503000259399414,27.490999221801758 53.97100067138672,20.687000274658203 58.775001525878906,4.968999862670898 C59.57600021362305,2.3489999771118164 60.11000061035156,-0.6549999713897705 62.332000732421875,-2.257999897003174 C63.71200180053711,-3.253000020980835 65.48200225830078,-3.48799991607666 67.1719970703125,-3.691999912261963 C79.4729995727539,-5.178999900817871 91.7750015258789,-6.664999961853027 104.0770034790039,-8.152000427246094 C103.85800170898438,-11.630000114440918 103.64600372314453,-15.111000061035156 103.64600372314453,-18.601999282836914z"></path></g></g><g transform="matrix(0.3330000042915344,0,0,0.3330000042915344,-1.5706987380981445,-540.0094604492188)" opacity="1" style="display: block;"><g opacity="1" transform="matrix(1,0,0,1,29.71299934387207,1662.56298828125)"><path fill="rgb(0,155,79)" fill-opacity="1" d=" M7.418000221252441,0 C7.418000221252441,-4.0970001220703125 4.0970001220703125,-7.418000221252441 0,-7.418000221252441 C-4.0970001220703125,-7.418000221252441 -7.418000221252441,-4.0970001220703125 -7.418000221252441,0 C-7.418000221252441,4.0970001220703125 -4.0970001220703125,7.418000221252441 0,7.418000221252441 C4.0970001220703125,7.418000221252441 7.418000221252441,4.0970001220703125 7.418000221252441,0z"></path></g><g opacity="1" transform="matrix(1,0,0,1,29.71299934387207,1662.56298828125)"><path stroke-linecap="butt" stroke-linejoin="miter" fill-opacity="0" stroke-miterlimit="10" stroke="rgb(0,155,79)" stroke-opacity="1" stroke-width="2" d=" M7.418000221252441,0 C7.418000221252441,-4.0970001220703125 4.0970001220703125,-7.418000221252441 0,-7.418000221252441 C-4.0970001220703125,-7.418000221252441 -7.418000221252441,-4.0970001220703125 -7.418000221252441,0 C-7.418000221252441,4.0970001220703125 -4.0970001220703125,7.418000221252441 0,7.418000221252441 C4.0970001220703125,7.418000221252441 7.418000221252441,4.0970001220703125 7.418000221252441,0z"></path></g><g opacity="1" transform="matrix(1,0,0,1,109.90799713134766,1655.14501953125)"><path fill="rgb(0,155,79)" fill-opacity="1" d=" M7.418000221252441,0 C7.418000221252441,-4.0970001220703125 4.0970001220703125,-7.418000221252441 0,-7.418000221252441 C-4.0970001220703125,-7.418000221252441 -7.418000221252441,-4.0970001220703125 -7.418000221252441,0 C-7.418000221252441,4.0970001220703125 -4.0970001220703125,7.418000221252441 0,7.418000221252441 C4.0970001220703125,7.418000221252441 7.418000221252441,4.0970001220703125 7.418000221252441,0z"></path></g><g opacity="1" transform="matrix(1,0,0,1,109.90799713134766,1655.14501953125)"><path stroke-linecap="butt" stroke-linejoin="miter" fill-opacity="0" stroke-miterlimit="10" stroke="rgb(0,155,79)" stroke-opacity="1" stroke-width="2" d=" M7.418000221252441,0 C7.418000221252441,-4.0970001220703125 4.0970001220703125,-7.418000221252441 0,-7.418000221252441 C-4.0970001220703125,-7.418000221252441 -7.418000221252441,-4.0970001220703125 -7.418000221252441,0 C-7.418000221252441,4.0970001220703125 -4.0970001220703125,7.418000221252441 0,7.418000221252441 C4.0970001220703125,7.418000221252441 7.418000221252441,4.0970001220703125 7.418000221252441,0z"></path></g><g opacity="1" transform="matrix(1,0,0,1,62.553001403808594,1712.699951171875)"><path fill="rgb(195,121,81)" fill-opacity="1" d=" M-53.130001068115234,-45.290000915527344 C-53.53200149536133,-44.90299987792969 -53.9010009765625,-44.47800064086914 -54.233001708984375,-44.012001037597656 C-57.553001403808594,-39.334999084472656 -55.244998931884766,-32.439998626708984 -50.89899826049805,-28.698999404907227 C-49.255001068115234,-27.284000396728516 -47.277000427246094,-26.05699920654297 -46.452999114990234,-24.052000045776367 C-45.854000091552734,-22.597000122070312 -45.96900177001953,-20.961999893188477 -46.04999923706055,-19.391000747680664 C-46.4010009765625,-12.579000473022461 -47.47999954223633,2.2230000495910645 -41.667999267578125,6.709000110626221 C-35.768001556396484,11.262999534606934 -26.39900016784668,5.980999946594238 -20.62700080871582,11.519000053405762 C-18.659000396728516,13.406999588012695 -17.77400016784668,16.128999710083008 -16.961000442504883,18.732999801635742 C-15.342000007629395,23.91200065612793 -13.722999572753906,29.090999603271484 -12.104999542236328,34.270999908447266 C-9.982000350952148,41.06399917602539 -7.796999931335449,47.981998443603516 -3.6730000972747803,53.78300094604492 C0.45100000500679016,59.58300018310547 6.914000034332275,64.18299865722656 14.031000137329102,64.23200225830078 C24.1200008392334,64.3030014038086 32.266998291015625,55.30400085449219 35.39699935913086,45.7130012512207 C38.52799987792969,36.12200164794922 38.0260009765625,25.78499984741211 39.071998596191406,15.75 C45.74599838256836,13.996999740600586 53.40599822998047,8.418999671936035 55.77299880981445,1.8070000410079956 C57.433998107910156,-2.8350000381469727 57.46500015258789,-7.876999855041504 57.47600173950195,-12.807000160217285 C57.49800109863281,-22.288999557495117 57.52000045776367,-31.770999908447266 57.54199981689453,-41.25400161743164 C57.553001403808594,-46.130001068115234 57.332000732421875,-51.584999084472656 53.81700134277344,-54.970001220703125 C45.720001220703125,-62.762001037597656 29.0939998626709,-64.3030014038086 18.674999237060547,-62.4900016784668 C12.722000122070312,-61.45500183105469 6.830999851226807,-58.474998474121094 3.6619999408721924,-53.33000183105469 C3.2290000915527344,-52.62799835205078 2.815999984741211,-51.85599899291992 2.0989999771118164,-51.448001861572266 C1.5759999752044678,-51.150001525878906 0.9559999704360962,-51.08599853515625 0.3580000102519989,-51.02799987792969 C-13.940999984741211,-49.645999908447266 -28.264999389648438,-51.604000091552734 -42.74300003051758,-49.301998138427734 C-46.4630012512207,-48.72700119018555 -50.4900016784668,-47.82899856567383 -53.130001068115234,-45.290000915527344z"></path></g><g opacity="1" transform="matrix(1,0,0,1,55.64899826049805,1725.6739501953125)"><path fill="rgb(167,95,68)" fill-opacity="1" d=" M42.301998138427734,32.737998962402344 C44.27000045776367,26.70800018310547 44.80099868774414,20.381999969482422 45.18600082397461,14.020999908447266 C43.83300018310547,11.395000457763672 42.07500076293945,8.963000297546387 39.60300064086914,7.394999980926514 C34.00699996948242,3.8450000286102295 31.975000381469727,6.796000003814697 29.305999755859375,11.64900016784668 C28.003000259399414,14.019000053405762 26.058000564575195,16.445999145507812 23.36199951171875,16.663999557495117 C20.1560001373291,16.92300033569336 17.474000930786133,14.020000457763672 16.27899932861328,11.03499984741211 C14.35200023651123,6.2220001220703125 13.3149995803833,-0.15299999713897705 13.3149995803833,-17.615999221801758 C13.3149995803833,-26.541000366210938 15.706999778747559,-35.85599899291992 22.058000564575195,-42.53300094604492 C22.058000564575195,-42.53300094604492 -10.173999786376953,-51.327999114990234 -10.173999786376953,-51.327999114990234 C-16.106000900268555,-50.91400146484375 -22.01099967956543,-50.111000061035156 -27.83799934387207,-48.92499923706055 C-33.82099914550781,-47.70800018310547 -39.96900177001953,-45.909000396728516 -45.18600082397461,-42.84700012207031 C-44.80699920654297,-42.43199920654297 -44.41400146484375,-42.034000396728516 -43.99399948120117,-41.67300033569336 C-42.35100173950195,-40.25899887084961 -40.374000549316406,-39.03099822998047 -39.54899978637695,-37.0260009765625 C-38.95000076293945,-35.57099914550781 -39.064998626708984,-33.93600082397461 -39.145999908447266,-32.3650016784668 C-39.49700164794922,-25.55299949645996 -40.57500076293945,-10.75 -34.76300048828125,-6.263999938964844 C-31.655000686645508,-3.865000009536743 -27.58300018310547,-4.197000026702881 -23.582000732421875,-4.236999988555908 C-23.37299919128418,-6.48199987411499 -23.402999877929688,-8.774999618530273 -23.082000732421875,-11.01099967956543 C-21.9060001373291,-19.222999572753906 -14.937000274658203,-22.20400047302246 -11.012999534606934,-14.777000427246094 C-7.261000156402588,-7.670000076293945 -7.5289998054504395,3.615999937057495 -7.960000038146973,12.468000411987305 C-7.040999889373779,15.411999702453613 -6.120999813079834,18.354000091552734 -5.201000213623047,21.29800033569336 C-3.0789999961853027,28.090999603271484 -0.8930000066757202,35.00899887084961 3.2309999465942383,40.808998107910156 C7.355000019073486,46.61000061035156 13.817999839782715,51.20899963378906 20.934999465942383,51.25899887084961 C31.023000717163086,51.32899856567383 39.172000885009766,42.32899856567383 42.301998138427734,32.737998962402344z"></path></g><g opacity="1" transform="matrix(1,0,0,1,0,0)"><path fill="rgb(195,121,81)" fill-opacity="1" d=" M48.768001556396484,1707.06396484375 C48.768001556396484,1707.06396484375 48.768001556396484,1770.2979736328125 48.768001556396484,1770.2979736328125"></path></g><g opacity="1" transform="matrix(1,0,0,1,1.2730000019073486,0)"><path stroke-linecap="round" stroke-linejoin="round" fill-opacity="0" stroke="rgb(167,95,68)" stroke-opacity="1" stroke-width="6" d=" M65.71099853515625,1728.31396484375 C65.71099853515625,1728.31396484375 65.71099853515625,1833.6689453125 65.71099853515625,1833.6689453125"></path></g><g opacity="1" transform="matrix(1,0,0,1,48.89699935913086,1680.552978515625)"><path fill="rgb(113,66,56)" fill-opacity="1" d=" M-3.3929998874664307,15.465999603271484 C6.47599983215332,22.711999893188477 17.990999221801758,27.70199966430664 30.025999069213867,29.947999954223633 C32.87799835205078,20.451000213623047 37.619998931884766,11.527000427246094 43.895999908447266,3.8489999771118164 C43.895999908447266,3.8489999771118164 30.4689998626709,-29.947999954223633 30.4689998626709,-29.947999954223633 C25.177000045776367,-28.65399932861328 20.1560001373291,-25.788999557495117 17.31800079345703,-21.18199920654297 C16.88599967956543,-20.479999542236328 16.472000122070312,-19.709999084472656 15.755000114440918,-19.302000045776367 C15.232000350952148,-19.003999710083008 14.61299991607666,-18.937999725341797 14.015000343322754,-18.881000518798828 C-0.2849999964237213,-17.499000549316406 -14.609000205993652,-19.458999633789062 -29.08799934387207,-17.155000686645508 C-32.80799865722656,-16.579999923706055 -36.83399963378906,-15.680000305175781 -39.4739990234375,-13.140999794006348 C-39.875999450683594,-12.755000114440918 -40.24599838256836,-12.331999778747559 -40.57699966430664,-11.864999771118164 C-43.89699935913086,-7.188000202178955 -41.5890007019043,-0.2930000126361847 -37.242000579833984,3.447999954223633 C-35.5989990234375,4.86299991607666 -33.62200164794922,6.091000080108643 -32.797000885009766,8.095999717712402 C-32.198001861572266,9.550999641418457 -32.31399917602539,11.185999870300293 -32.39500045776367,12.756999969482422 C-32.553001403808594,15.829999923706055 -32.85599899291992,20.527999877929688 -32.611000061035156,25.172000885009766 C-30.94099998474121,25.25200080871582 -29.266000747680664,25.208999633789062 -27.614999771118164,25.040000915527344 C-18.895999908447266,24.150999069213867 -10.751999855041504,20.226999282836914 -3.3929998874664307,15.465999603271484z"></path></g><g opacity="1" transform="matrix(1,0,0,1,62.553001403808594,1671.862060546875)"><path fill="rgb(0,155,79)" fill-opacity="1" d=" M18.674999237060547,-21.650999069213867 C12.722000122070312,-20.615999221801758 6.830999851226807,-17.63599967956543 3.6619999408721924,-12.491999626159668 C3.2290000915527344,-11.789999961853027 2.815999984741211,-11.017999649047852 2.0989999771118164,-10.609999656677246 C1.5759999752044678,-10.312000274658203 0.9570000171661377,-10.248000144958496 0.3580000102519989,-10.1899995803833 C-13.940999984741211,-8.807999610900879 -28.263999938964844,-10.767000198364258 -42.74300003051758,-8.463000297546387 C-46.4640007019043,-7.888000011444092 -50.4900016784668,-6.989999771118164 -53.130001068115234,-4.451000213623047 C-53.53200149536133,-4.064000129699707 -53.9010009765625,-3.640000104904175 -54.233001708984375,-3.1730000972747803 C-57.553001403808594,1.503000020980835 -55.244998931884766,8.39799976348877 -50.89899826049805,12.138999938964844 C-49.25600051879883,13.553000450134277 -47.277000427246094,14.782999992370605 -46.45199966430664,16.78700065612793 C-46.36199951171875,17.006999969482422 -46.29199981689453,17.23200035095215 -46.231998443603516,17.45800018310547 C-35.000999450683594,17.541000366210938 -22.829999923706055,12.109999656677246 -12.595999717712402,9.868000030517578 C-11.866000175476074,9.708000183105469 -11.095999717712402,9.548999786376953 -10.38599967956543,9.777999877929688 C-9.559000015258789,10.043000221252441 -8.984999656677246,10.77299976348877 -8.428999900817871,11.439000129699707 C-1.1990000009536743,20.106000900268555 10.850000381469727,23.46299934387207 22.128999710083008,23.04599952697754 C25.743000030517578,22.913000106811523 29.448999404907227,22.410999298095703 32.599998474121094,20.635000228881836 C35.5260009765625,18.98699951171875 37.7599983215332,16.365999221801758 40.38600158691406,14.269000053405762 C45.0260009765625,10.564000129699707 51.23500061035156,9.598999977111816 57.51900100708008,9.432999610900879 C57.527000427246094,6.151000022888184 57.534000396728516,2.86899995803833 57.54199981689453,-0.41499999165534973 C57.553001403808594,-5.290999889373779 57.332000732421875,-10.746999740600586 53.81700134277344,-14.130999565124512 C45.71900177001953,-21.92300033569336 29.0939998626709,-23.46299934387207 18.674999237060547,-21.650999069213867z"></path></g><g opacity="1" transform="matrix(1,0,0,1,63.82600021362305,1671.862060546875)"><path stroke-linecap="butt" stroke-linejoin="miter" fill-opacity="0" stroke-miterlimit="10" stroke="rgb(0,155,79)" stroke-opacity="1" stroke-width="2" d=" M18.674999237060547,-21.650999069213867 C12.722000122070312,-20.615999221801758 6.830999851226807,-17.63599967956543 3.6619999408721924,-12.491999626159668 C3.2290000915527344,-11.789999961853027 2.815999984741211,-11.017999649047852 2.0989999771118164,-10.609999656677246 C1.5759999752044678,-10.312000274658203 0.9570000171661377,-10.248000144958496 0.3580000102519989,-10.1899995803833 C-13.940999984741211,-8.807999610900879 -28.263999938964844,-10.767000198364258 -42.74300003051758,-8.463000297546387 C-46.4640007019043,-7.888000011444092 -50.4900016784668,-6.989999771118164 -53.130001068115234,-4.451000213623047 C-53.53200149536133,-4.064000129699707 -53.9010009765625,-3.640000104904175 -54.233001708984375,-3.1730000972747803 C-57.553001403808594,1.503000020980835 -55.244998931884766,8.39799976348877 -50.89899826049805,12.138999938964844 C-49.25600051879883,13.553000450134277 -47.277000427246094,14.782999992370605 -46.45199966430664,16.78700065612793 C-46.36199951171875,17.006999969482422 -46.29199981689453,17.23200035095215 -46.231998443603516,17.45800018310547 C-35.000999450683594,17.541000366210938 -22.829999923706055,12.109999656677246 -12.595999717712402,9.868000030517578 C-11.866000175476074,9.708000183105469 -11.095999717712402,9.548999786376953 -10.38599967956543,9.777999877929688 C-9.559000015258789,10.043000221252441 -8.984999656677246,10.77299976348877 -8.428999900817871,11.439000129699707 C-1.1990000009536743,20.106000900268555 10.850000381469727,23.46299934387207 22.128999710083008,23.04599952697754 C25.743000030517578,22.913000106811523 29.448999404907227,22.410999298095703 32.599998474121094,20.635000228881836 C35.5260009765625,18.98699951171875 37.7599983215332,16.365999221801758 40.38600158691406,14.269000053405762 C45.0260009765625,10.564000129699707 51.23500061035156,9.598999977111816 57.51900100708008,9.432999610900879 C57.527000427246094,6.151000022888184 57.534000396728516,2.86899995803833 57.54199981689453,-0.41499999165534973 C57.553001403808594,-5.290999889373779 57.332000732421875,-10.746999740600586 53.81700134277344,-14.130999565124512 C45.71900177001953,-21.92300033569336 29.0939998626709,-23.46299934387207 18.674999237060547,-21.650999069213867z"></path></g></g></g></svg>