<svg xmlns="http://www.w3.org/2000/svg" viewBox="0 0 347 222" width="347" height="222" preserveAspectRatio="xMidYMid meet" style="width: 100%; height: 100%; transform: translate3d(0px, 0px, 0px); content-visibility: visible;"><defs><clipPath id="__lottie_element_3045"><rect width="347" height="222" x="0" y="0"></rect></clipPath><mask id="__lottie_element_3053" mask-type="alpha"><g transform="matrix(0.3330000042915344,0,0,0.3330000042915344,0.34465211629867554,0.46231114864349365)" opacity="1" style="display: block;"><g opacity="1" transform="matrix(1,0,0,1,187.49200439453125,303.4389953613281)"><path fill="rgb(230,235,246)" fill-opacity="1" d=" M103.26599884033203,-94.76100158691406 C103.26599884033203,-94.76100158691406 100.20899963378906,-97.81700134277344 100.20899963378906,-97.81700134277344 C100.20899963378906,-97.81700134277344 79.7509994506836,-2.493000030517578 79.7509994506836,-2.493000030517578 C79.7509994506836,-2.493000030517578 -103.26599884033203,96.88200378417969 -103.26599884033203,96.88200378417969 C-103.26599884033203,96.88200378417969 -97.63700103759766,97.24800109863281 -97.29299926757812,97.81700134277344 C-97.29299926757812,97.81700134277344 86.88300323486328,-2.493000030517578 86.88300323486328,-2.493000030517578 C86.88300323486328,-2.493000030517578 103.26599884033203,-94.76100158691406 103.26599884033203,-94.76100158691406z"></path></g><g opacity="1" transform="matrix(1,0,0,1,790.197021484375,303.4389953613281)"><path fill="rgb(230,235,246)" fill-opacity="1" d=" M-103.26499938964844,-94.76100158691406 C-103.26499938964844,-94.76100158691406 -100.21099853515625,-97.81700134277344 -100.21099853515625,-97.81700134277344 C-100.21099853515625,-97.81700134277344 -79.75199890136719,-2.493000030517578 -79.75199890136719,-2.493000030517578 C-79.75199890136719,-2.493000030517578 103.26499938964844,96.88200378417969 103.26499938964844,96.88200378417969 C103.26499938964844,96.88200378417969 97.63700103759766,97.24800109863281 97.29299926757812,97.81700134277344 C97.29299926757812,97.81700134277344 -86.88400268554688,-2.493000030517578 -86.88400268554688,-2.493000030517578 C-86.88400268554688,-2.493000030517578 -103.26499938964844,-94.76100158691406 -103.26499938964844,-94.76100158691406z"></path></g><g opacity="1" transform="matrix(1,0,0,1,776.2249755859375,306.14801025390625)"><path fill="rgb(230,235,246)" fill-opacity="1" d=" M-108.80599975585938,-103.11199951171875 C-108.80599975585938,-103.11199951171875 -105.75,-106.30500030517578 -105.75,-106.30500030517578 C-105.75,-106.30500030517578 -85.00499725341797,-5.201000213623047 -85.00499725341797,-5.201000213623047 C-85.00499725341797,-5.201000213623047 108.80599975585938,105.45700073242188 108.80599975585938,105.45700073242188 C108.80599975585938,105.45700073242188 101.31400299072266,106.30500030517578 101.31400299072266,106.30500030517578 C101.31400299072266,106.30500030517578 -93.61799621582031,-5.201000213623047 -93.61799621582031,-5.201000213623047 C-93.61799621582031,-5.201000213623047 -108.80599975585938,-103.11199951171875 -108.80599975585938,-103.11199951171875z"></path></g><g opacity="1" transform="matrix(1,0,0,1,201.46400451660156,306.21600341796875)"><path fill="rgb(230,235,246)" fill-opacity="1" d=" M108.80599975585938,-103.18099975585938 C108.80599975585938,-103.18099975585938 105.75,-106.23699951171875 105.75,-106.23699951171875 C105.75,-106.23699951171875 85.00499725341797,-5.269999980926514 85.00499725341797,-5.269999980926514 C85.00499725341797,-5.269999980926514 -108.80599975585938,105.38800048828125 -108.80599975585938,105.38800048828125 C-108.80599975585938,105.38800048828125 -101.31400299072266,106.23699951171875 -101.31400299072266,106.23699951171875 C-101.31400299072266,106.23699951171875 93.61799621582031,-5.269999980926514 93.61799621582031,-5.269999980926514 C93.61799621582031,-5.269999980926514 108.80599975585938,-103.18099975585938 108.80599975585938,-103.18099975585938z"></path></g><g opacity="1" transform="matrix(1,0,0,1,175.22000122070312,385.59100341796875)"><path fill="rgb(230,235,246)" fill-opacity="1" d=" M-174.97000122070312,103.81099700927734 C-174.97000122070312,103.81099700927734 170.35400390625,-103.7979965209961 170.35400390625,-103.7979965209961 C170.35400390625,-103.7979965209961 174.97000122070312,-103.81099700927734 174.97000122070312,-103.81099700927734 C174.97000122070312,-103.81099700927734 -157.1060028076172,103.81099700927734 -157.1060028076172,103.81099700927734 C-157.1060028076172,103.81099700927734 -174.97000122070312,103.81099700927734 -174.97000122070312,103.81099700927734z"></path></g><g opacity="1" transform="matrix(1,0,0,1,229.0679931640625,385.59100341796875)"><path fill="rgb(230,235,246)" fill-opacity="1" d=" M143.0229949951172,-103.81099700927734 C143.0229949951172,-103.81099700927734 137.61700439453125,-103.81099700927734 137.61700439453125,-103.81099700927734 C137.61700439453125,-103.81099700927734 -143.0229949951172,103.81099700927734 -143.0229949951172,103.81099700927734 C-143.0229949951172,103.81099700927734 -121.9219970703125,103.81099700927734 -121.9219970703125,103.81099700927734 C-121.9219970703125,103.81099700927734 143.0229949951172,-103.81099700927734 143.0229949951172,-103.81099700927734z"></path></g><g opacity="1" transform="matrix(1,0,0,1,284.3110046386719,385.59100341796875)"><path fill="rgb(230,235,246)" fill-opacity="1" d=" M118.44400024414062,-103.81099700927734 C118.44400024414062,-103.81099700927734 110.55899810791016,-103.81099700927734 110.55899810791016,-103.81099700927734 C110.55899810791016,-103.81099700927734 -118.44400024414062,103.81099700927734 -118.44400024414062,103.81099700927734 C-118.44400024414062,103.81099700927734 -95.7239990234375,103.81099700927734 -95.7239990234375,103.81099700927734 C-95.7239990234375,103.81099700927734 118.44400024414062,-103.81099700927734 118.44400024414062,-103.81099700927734z"></path></g><g opacity="1" transform="matrix(1,0,0,1,360.7330017089844,332.2959899902344)"><path fill="rgb(230,235,246)" fill-opacity="1" d=" M81.95800018310547,-154.05099487304688 C81.95800018310547,-154.05099487304688 78.9020004272461,-157.10699462890625 78.9020004272461,-157.10699462890625 C78.9020004272461,-157.10699462890625 66.37100219726562,-45.87099838256836 66.37100219726562,-45.87099838256836 C66.37100219726562,-45.87099838256836 -81.95800018310547,157.10699462890625 -81.95800018310547,157.10699462890625 C-81.95800018310547,157.10699462890625 -53.599998474121094,157.10699462890625 -53.599998474121094,157.10699462890625 C-53.599998474121094,157.10699462890625 76.54900360107422,-45.87099838256836 76.54900360107422,-45.87099838256836 C76.54900360107422,-45.87099838256836 81.95800018310547,-154.05099487304688 81.95800018310547,-154.05099487304688z"></path></g><g opacity="1" transform="matrix(1,0,0,1,435.9460144042969,332.2959899902344)"><path fill="rgb(230,235,246)" fill-opacity="1" d=" M36.229000091552734,-157.1060028076172 C36.229000091552734,-157.1060028076172 28.594999313354492,-45.87200164794922 28.594999313354492,-45.87200164794922 C28.594999313354492,-45.87200164794922 -39.28499984741211,157.1060028076172 -39.28499984741211,157.1060028076172 C-39.28499984741211,157.1060028076172 -10.258999824523926,157.1060028076172 -10.258999824523926,157.1060028076172 C-10.258999824523926,157.1060028076172 39.15599822998047,-45.87200164794922 39.15599822998047,-45.87200164794922 C39.15599822998047,-45.87200164794922 39.28499984741211,-154.0500030517578 39.28499984741211,-154.0500030517578 C39.28499984741211,-154.0500030517578 36.229000091552734,-157.1060028076172 36.229000091552734,-157.1060028076172z"></path></g><g opacity="1" transform="matrix(1,0,0,1,549.47998046875,385.59100341796875)"><path fill="rgb(230,235,246)" fill-opacity="1" d=" M-29.645999908447266,-103.81099700927734 C-29.645999908447266,-103.81099700927734 -39.7869987487793,-103.81099700927734 -39.7869987487793,-103.81099700927734 C-39.7869987487793,-103.81099700927734 10.76200008392334,103.81099700927734 10.76200008392334,103.81099700927734 C10.76200008392334,103.81099700927734 39.7869987487793,103.81099700927734 39.7869987487793,103.81099700927734 C39.7869987487793,103.81099700927734 -29.645999908447266,-103.81099700927734 -29.645999908447266,-103.81099700927734z"></path></g><g opacity="1" transform="matrix(1,0,0,1,626.4119873046875,385.59100341796875)"><path fill="rgb(230,235,246)" fill-opacity="1" d=" M80.74199676513672,103.81099700927734 C80.74199676513672,103.81099700927734 63.91899871826172,80.79199981689453 63.91899871826172,80.79199981689453 C63.91899871826172,80.79199981689453 -70.98400115966797,-103.81099700927734 -70.98400115966797,-103.81099700927734 C-70.98400115966797,-103.81099700927734 -80.74199676513672,-103.81099700927734 -80.74199676513672,-103.81099700927734 C-80.74199676513672,-103.81099700927734 52.38199996948242,103.81099700927734 52.38199996948242,103.81099700927734 C52.38199996948242,103.81099700927734 80.74199676513672,103.81099700927734 80.74199676513672,103.81099700927734z"></path></g><g opacity="1" transform="matrix(1,0,0,1,701.6160278320312,385.59100341796875)"><path fill="rgb(230,235,246)" fill-opacity="1" d=" M-110.55899810791016,-103.81099700927734 C-110.55899810791016,-103.81099700927734 -118.44400024414062,-103.81099700927734 -118.44400024414062,-103.81099700927734 C-118.44400024414062,-103.81099700927734 95.7229995727539,103.81099700927734 95.7229995727539,103.81099700927734 C95.7229995727539,103.81099700927734 118.44400024414062,103.81099700927734 118.44400024414062,103.81099700927734 C118.44400024414062,103.81099700927734 -110.55899810791016,-103.81099700927734 -110.55899810791016,-103.81099700927734z"></path></g><g opacity="1" transform="matrix(1,0,0,1,802.469970703125,385.59100341796875)"><path fill="rgb(230,235,246)" fill-opacity="1" d=" M174.97000122070312,103.81099700927734 C174.97000122070312,103.81099700927734 -170.35499572753906,-103.7979965209961 -170.35499572753906,-103.7979965209961 C-170.35499572753906,-103.7979965209961 -174.97000122070312,-103.81099700927734 -174.97000122070312,-103.81099700927734 C-174.97000122070312,-103.81099700927734 157.1060028076172,103.81099700927734 157.1060028076172,103.81099700927734 C157.1060028076172,103.81099700927734 174.97000122070312,103.81099700927734 174.97000122070312,103.81099700927734z"></path></g><g opacity="1" transform="matrix(1,0,0,1,756.8610229492188,385.59100341796875)"><path fill="rgb(230,235,246)" fill-opacity="1" d=" M143.0229949951172,103.81099700927734 C143.0229949951172,103.81099700927734 -137.6179962158203,-103.81099700927734 -137.6179962158203,-103.81099700927734 C-137.6179962158203,-103.81099700927734 -143.0229949951172,-103.81099700927734 -143.0229949951172,-103.81099700927734 C-143.0229949951172,-103.81099700927734 121.9209976196289,103.81099700927734 121.9209976196289,103.81099700927734 C121.9209976196289,103.81099700927734 143.0229949951172,103.81099700927734 143.0229949951172,103.81099700927734z"></path></g></g></mask></defs><g clip-path="url(#__lottie_element_3045)"><g transform="matrix(0.3330000042915344,0,0,0.3330000042915344,0.34465211629867554,0.46231114864349365)" opacity="1" style="display: block;"><g opacity="1" transform="matrix(1,0,0,1,452.2449951171875,373.8970031738281)"><path fill="rgb(186,202,222)" fill-opacity="1" d=" M248.3679962158203,-87.83799743652344 C248.3679962158203,-87.83799743652344 267.10101318359375,-49.512001037597656 267.10101318359375,-49.512001037597656 C267.10101318359375,-49.512001037597656 409.2560119628906,36.40599822998047 409.2560119628906,36.40599822998047 C409.2560119628906,36.40599822998047 409.2560119628906,101.93299865722656 409.2560119628906,101.93299865722656 C409.2560119628906,101.93299865722656 -409.2560119628906,101.93299865722656 -409.2560119628906,101.93299865722656 C-409.2560119628906,101.93299865722656 -409.2560119628906,82.5989990234375 -409.2560119628906,82.5989990234375 C-409.2560119628906,82.5989990234375 -125.58300018310547,-87.83799743652344 -125.58300018310547,-87.83799743652344 C-125.58300018310547,-87.83799743652344 -121.14399719238281,-101.93299865722656 -121.14399719238281,-101.93299865722656 C-121.14399719238281,-101.93299865722656 183.49099731445312,-101.93299865722656 183.49099731445312,-101.93299865722656 C183.49099731445312,-101.93299865722656 248.3679962158203,-87.83799743652344 248.3679962158203,-87.83799743652344z"></path></g><g opacity="1" transform="matrix(1,0,0,1,488.8450012207031,572.4550170898438)"><path fill="rgb(17,128,195)" fill-opacity="1" d=" M449.6130065917969,64.44300079345703 C449.6130065917969,64.44300079345703 -449.614013671875,64.44300079345703 -449.614013671875,64.44300079345703 C-449.614013671875,64.44300079345703 -449.614013671875,-64.44300079345703 -449.614013671875,-64.44300079345703 C-449.614013671875,-64.44300079345703 449.6130065917969,-64.44300079345703 449.6130065917969,-64.44300079345703 C449.6130065917969,-64.44300079345703 449.6130065917969,64.44300079345703 449.6130065917969,64.44300079345703z"></path></g><g opacity="1" transform="matrix(1,0,0,1,50.95100021362305,572.0170288085938)"><path fill="rgb(77,67,95)" fill-opacity="1" d=" M5.197999954223633,-64.88099670410156 C5.197999954223633,-64.88099670410156 -5.197999954223633,-64.88099670410156 -5.197999954223633,-64.88099670410156 C-5.197999954223633,-64.88099670410156 -5.197999954223633,64.88099670410156 -5.197999954223633,64.88099670410156 C-5.197999954223633,64.88099670410156 5.197999954223633,64.88099670410156 5.197999954223633,64.88099670410156 C5.197999954223633,64.88099670410156 5.197999954223633,-64.88099670410156 5.197999954223633,-64.88099670410156z"></path></g><g opacity="1" transform="matrix(1,0,0,1,160.76300048828125,572.0170288085938)"><path fill="rgb(77,67,95)" fill-opacity="1" d=" M5.197999954223633,-64.88099670410156 C5.197999954223633,-64.88099670410156 -5.197999954223633,-64.88099670410156 -5.197999954223633,-64.88099670410156 C-5.197999954223633,-64.88099670410156 -5.197999954223633,64.88099670410156 -5.197999954223633,64.88099670410156 C-5.197999954223633,64.88099670410156 5.197999954223633,64.88099670410156 5.197999954223633,64.88099670410156 C5.197999954223633,64.88099670410156 5.197999954223633,-64.88099670410156 5.197999954223633,-64.88099670410156z"></path></g><g opacity="1" transform="matrix(1,0,0,1,270.5740051269531,572.0170288085938)"><path fill="rgb(77,67,95)" fill-opacity="1" d=" M5.197999954223633,-64.88099670410156 C5.197999954223633,-64.88099670410156 -5.197999954223633,-64.88099670410156 -5.197999954223633,-64.88099670410156 C-5.197999954223633,-64.88099670410156 -5.197999954223633,64.88099670410156 -5.197999954223633,64.88099670410156 C-5.197999954223633,64.88099670410156 5.197999954223633,64.88099670410156 5.197999954223633,64.88099670410156 C5.197999954223633,64.88099670410156 5.197999954223633,-64.88099670410156 5.197999954223633,-64.88099670410156z"></path></g><g opacity="1" transform="matrix(1,0,0,1,380.385986328125,572.0170288085938)"><path fill="rgb(77,67,95)" fill-opacity="1" d=" M5.197999954223633,-64.88099670410156 C5.197999954223633,-64.88099670410156 -5.197999954223633,-64.88099670410156 -5.197999954223633,-64.88099670410156 C-5.197999954223633,-64.88099670410156 -5.197999954223633,64.88099670410156 -5.197999954223633,64.88099670410156 C-5.197999954223633,64.88099670410156 5.197999954223633,64.88099670410156 5.197999954223633,64.88099670410156 C5.197999954223633,64.88099670410156 5.197999954223633,-64.88099670410156 5.197999954223633,-64.88099670410156z"></path></g><g opacity="1" transform="matrix(1,0,0,1,490.1969909667969,572.0170288085938)"><path fill="rgb(77,67,95)" fill-opacity="1" d=" M5.197999954223633,-64.88099670410156 C5.197999954223633,-64.88099670410156 -5.197999954223633,-64.88099670410156 -5.197999954223633,-64.88099670410156 C-5.197999954223633,-64.88099670410156 -5.197999954223633,64.88099670410156 -5.197999954223633,64.88099670410156 C-5.197999954223633,64.88099670410156 5.197999954223633,64.88099670410156 5.197999954223633,64.88099670410156 C5.197999954223633,64.88099670410156 5.197999954223633,-64.88099670410156 5.197999954223633,-64.88099670410156z"></path></g><g opacity="1" transform="matrix(1,0,0,1,600.0089721679688,572.0170288085938)"><path fill="rgb(77,67,95)" fill-opacity="1" d=" M5.197999954223633,-64.88099670410156 C5.197999954223633,-64.88099670410156 -5.197999954223633,-64.88099670410156 -5.197999954223633,-64.88099670410156 C-5.197999954223633,-64.88099670410156 -5.197999954223633,64.88099670410156 -5.197999954223633,64.88099670410156 C-5.197999954223633,64.88099670410156 5.197999954223633,64.88099670410156 5.197999954223633,64.88099670410156 C5.197999954223633,64.88099670410156 5.197999954223633,-64.88099670410156 5.197999954223633,-64.88099670410156z"></path></g><g opacity="1" transform="matrix(1,0,0,1,709.8200073242188,572.0170288085938)"><path fill="rgb(77,67,95)" fill-opacity="1" d=" M5.197999954223633,-64.88099670410156 C5.197999954223633,-64.88099670410156 -5.197999954223633,-64.88099670410156 -5.197999954223633,-64.88099670410156 C-5.197999954223633,-64.88099670410156 -5.197999954223633,64.88099670410156 -5.197999954223633,64.88099670410156 C-5.197999954223633,64.88099670410156 5.197999954223633,64.88099670410156 5.197999954223633,64.88099670410156 C5.197999954223633,64.88099670410156 5.197999954223633,-64.88099670410156 5.197999954223633,-64.88099670410156z"></path></g><g opacity="1" transform="matrix(1,0,0,1,819.6320190429688,572.0170288085938)"><path fill="rgb(77,67,95)" fill-opacity="1" d=" M5.197999954223633,-64.88099670410156 C5.197999954223633,-64.88099670410156 -5.197999954223633,-64.88099670410156 -5.197999954223633,-64.88099670410156 C-5.197999954223633,-64.88099670410156 -5.197999954223633,64.88099670410156 -5.197999954223633,64.88099670410156 C-5.197999954223633,64.88099670410156 5.197999954223633,64.88099670410156 5.197999954223633,64.88099670410156 C5.197999954223633,64.88099670410156 5.197999954223633,-64.88099670410156 5.197999954223633,-64.88099670410156z"></path></g><g opacity="1" transform="matrix(1,0,0,1,929.4420166015625,572.0170288085938)"><path fill="rgb(77,67,95)" fill-opacity="1" d=" M5.197999954223633,-64.88099670410156 C5.197999954223633,-64.88099670410156 -5.197999954223633,-64.88099670410156 -5.197999954223633,-64.88099670410156 C-5.197999954223633,-64.88099670410156 -5.197999954223633,64.88099670410156 -5.197999954223633,64.88099670410156 C-5.197999954223633,64.88099670410156 5.197999954223633,64.88099670410156 5.197999954223633,64.88099670410156 C5.197999954223633,64.88099670410156 5.197999954223633,-64.88099670410156 5.197999954223633,-64.88099670410156z"></path></g><g opacity="1" transform="matrix(1,0,0,1,488.8450012207031,523.4669799804688)"><path fill="rgb(155,176,196)" fill-opacity="1" d=" M449.6130065917969,-20.097999572753906 C449.6130065917969,-20.097999572753906 -449.614013671875,-20.097999572753906 -449.614013671875,-20.097999572753906 C-449.614013671875,-20.097999572753906 -449.614013671875,20.097999572753906 -449.614013671875,20.097999572753906 C-449.614013671875,20.097999572753906 449.6130065917969,20.097999572753906 449.6130065917969,20.097999572753906 C449.6130065917969,20.097999572753906 449.6130065917969,-20.097999572753906 449.6130065917969,-20.097999572753906z"></path></g><g opacity="1" transform="matrix(1,0,0,1,488.8450012207031,489.5669860839844)"><path fill="rgb(132,207,215)" fill-opacity="1" d=" M449.6130065917969,-21.48900032043457 C449.6130065917969,-21.48900032043457 -449.614013671875,-21.48900032043457 -449.614013671875,-21.48900032043457 C-449.614013671875,-21.48900032043457 -449.614013671875,21.48900032043457 -449.614013671875,21.48900032043457 C-449.614013671875,21.48900032043457 449.6130065917969,21.48900032043457 449.6130065917969,21.48900032043457 C449.6130065917969,21.48900032043457 449.6130065917969,-21.48900032043457 449.6130065917969,-21.48900032043457z"></path></g><g opacity="1" transform="matrix(1,0,0,1,488.8450012207031,469.5570068359375)"><path fill="rgb(230,235,246)" fill-opacity="1" d=" M449.6130065917969,5.5329999923706055 C449.6130065917969,5.5329999923706055 -449.614013671875,5.5329999923706055 -449.614013671875,5.5329999923706055 C-449.614013671875,5.5329999923706055 -449.614013671875,-5.5329999923706055 -449.614013671875,-5.5329999923706055 C-449.614013671875,-5.5329999923706055 449.6130065917969,-5.5329999923706055 449.6130065917969,-5.5329999923706055 C449.6130065917969,-5.5329999923706055 449.6130065917969,5.5329999923706055 449.6130065917969,5.5329999923706055z"></path></g><g opacity="1" transform="matrix(1,0,0,1,488.8450012207031,505.52301025390625)"><path fill="rgb(230,235,246)" fill-opacity="1" d=" M449.6130065917969,5.5329999923706055 C449.6130065917969,5.5329999923706055 -449.614013671875,5.5329999923706055 -449.614013671875,5.5329999923706055 C-449.614013671875,5.5329999923706055 -449.614013671875,-5.5329999923706055 -449.614013671875,-5.5329999923706055 C-449.614013671875,-5.5329999923706055 449.6130065917969,-5.5329999923706055 449.6130065917969,-5.5329999923706055 C449.6130065917969,-5.5329999923706055 449.6130065917969,5.5329999923706055 449.6130065917969,5.5329999923706055z"></path></g><g opacity="1" transform="matrix(1,0,0,1,368.70001220703125,198.25900268554688)"><path fill="rgb(186,202,222)" fill-opacity="1" d=" M10.09000015258789,62.57099914550781 C10.09000015258789,62.57099914550781 3.6449999809265137,-62.57099914550781 3.6449999809265137,-62.57099914550781 C3.6449999809265137,-62.57099914550781 -10.09000015258789,8.661999702453613 -10.09000015258789,8.661999702453613 C-10.09000015258789,8.661999702453613 10.09000015258789,62.57099914550781 10.09000015258789,62.57099914550781z"></path></g><g opacity="1" transform="matrix(1,0,0,1,434.42999267578125,150.47300720214844)"><path fill="rgb(230,235,246)" fill-opacity="1" d=" M10.83899974822998,2.7660000324249268 C10.83899974822998,2.7660000324249268 -10.83899974822998,2.7660000324249268 -10.83899974822998,2.7660000324249268 C-10.83899974822998,2.7660000324249268 -10.83899974822998,-2.7660000324249268 -10.83899974822998,-2.7660000324249268 C-10.83899974822998,-2.7660000324249268 10.83899974822998,-2.7660000324249268 10.83899974822998,-2.7660000324249268 C10.83899974822998,-2.7660000324249268 10.83899974822998,2.7660000324249268 10.83899974822998,2.7660000324249268z"></path></g><g opacity="1" transform="matrix(1,0,0,1,416.9989929199219,135.4199981689453)"><path fill="rgb(230,235,246)" fill-opacity="1" d=" M-16.62700080871582,76.91100311279297 C-16.62700080871582,76.91100311279297 2.5789999961853027,40.10100173950195 2.5789999961853027,40.10100173950195 C2.5789999961853027,40.10100173950195 16.62700080871582,-76.91100311279297 16.62700080871582,-76.91100311279297 C16.62700080871582,-76.91100311279297 13.397000312805176,47.49100112915039 13.397000312805176,47.49100112915039 C13.397000312805176,47.49100112915039 5.007999897003174,76.91100311279297 5.007999897003174,76.91100311279297 C5.007999897003174,76.91100311279297 -16.62700080871582,76.91100311279297 -16.62700080871582,76.91100311279297z"></path></g><g opacity="1" transform="matrix(1,0,0,1,425.031005859375,113.45099639892578)"><path stroke-linecap="round" stroke-linejoin="round" fill-opacity="0" stroke="rgb(230,235,246)" stroke-opacity="1" stroke-width="4.324" d=" M-6.6529998779296875,-70.93599700927734 C-6.6529998779296875,-70.93599700927734 -6.6529998779296875,-57.875 -6.6529998779296875,-57.875 C-6.6529998779296875,-57.875 6.6529998779296875,-57.875 6.6529998779296875,-57.875 C6.6529998779296875,-57.875 0.972000002861023,70.93599700927734 0.972000002861023,70.93599700927734"></path></g><g opacity="1" transform="matrix(1,0,0,1,434.42999267578125,172.677001953125)"><path fill="rgb(230,235,246)" fill-opacity="1" d=" M10.83899974822998,2.7660000324249268 C10.83899974822998,2.7660000324249268 -10.83899974822998,2.7660000324249268 -10.83899974822998,2.7660000324249268 C-10.83899974822998,2.7660000324249268 -10.83899974822998,-2.7660000324249268 -10.83899974822998,-2.7660000324249268 C-10.83899974822998,-2.7660000324249268 10.83899974822998,-2.7660000324249268 10.83899974822998,-2.7660000324249268 C10.83899974822998,-2.7660000324249268 10.83899974822998,2.7660000324249268 10.83899974822998,2.7660000324249268z"></path></g><g opacity="1" transform="matrix(1,0,0,1,451.86199951171875,135.4199981689453)"><path fill="rgb(186,202,222)" fill-opacity="1" d=" M16.628000259399414,76.91100311279297 C16.628000259399414,76.91100311279297 -2.5789999961853027,40.10100173950195 -2.5789999961853027,40.10100173950195 C-2.5789999961853027,40.10100173950195 -16.628000259399414,-76.91100311279297 -16.628000259399414,-76.91100311279297 C-16.628000259399414,-76.91100311279297 -13.39799976348877,47.49100112915039 -13.39799976348877,47.49100112915039 C-13.39799976348877,47.49100112915039 -5.008999824523926,76.91100311279297 -5.008999824523926,76.91100311279297 C-5.008999824523926,76.91100311279297 16.628000259399414,76.91100311279297 16.628000259399414,76.91100311279297z"></path></g><g opacity="1" transform="matrix(1,0,0,1,443.8299865722656,113.45099639892578)"><path stroke-linecap="round" stroke-linejoin="round" fill-opacity="0" stroke="rgb(186,202,222)" stroke-opacity="1" stroke-width="4.324" d=" M6.6539998054504395,-70.93599700927734 C6.6539998054504395,-70.93599700927734 6.6539998054504395,-57.875 6.6539998054504395,-57.875 C6.6539998054504395,-57.875 -6.6539998054504395,-57.875 -6.6539998054504395,-57.875 C-6.6539998054504395,-57.875 -0.9710000157356262,70.93599700927734 -0.9710000157356262,70.93599700927734"></path></g><g opacity="1" transform="matrix(1,0,0,1,434.42999267578125,151.4250030517578)"><path fill="rgb(186,202,222)" fill-opacity="1" d=" M0,-148.9250030517578 C0,-148.9250030517578 -7.651000022888184,148.9250030517578 -7.651000022888184,148.9250030517578 C-7.651000022888184,148.9250030517578 7.651000022888184,148.9250030517578 7.651000022888184,148.9250030517578 C7.651000022888184,148.9250030517578 0,-148.9250030517578 0,-148.9250030517578z"></path></g><g opacity="1" transform="matrix(1,0,0,1,392.78399658203125,205.34800720214844)"><path fill="rgb(186,202,222)" fill-opacity="1" d=" M4.9039998054504395,-75.06999969482422 C4.9039998054504395,-75.06999969482422 -13.614999771118164,20.979999542236328 -13.614999771118164,20.979999542236328 C-13.614999771118164,20.979999542236328 13.614999771118164,75.06999969482422 13.614999771118164,75.06999969482422 C13.614999771118164,75.06999969482422 4.9039998054504395,-75.06999969482422 4.9039998054504395,-75.06999969482422z"></path></g><g opacity="1" transform="matrix(1,0,0,1,492.7489929199219,240.30099487304688)"><path fill="rgb(172,190,210)" fill-opacity="1" d=" M-122.447998046875,-17.177000045776367 C-122.447998046875,-17.177000045776367 -153.51100158691406,18.87700080871582 -153.51100158691406,18.87700080871582 C-153.51100158691406,18.87700080871582 -141.1490020751953,26.363000869750977 -141.1490020751953,26.363000869750977 C-141.1490020751953,26.363000869750977 143.43800354003906,26.363000869750977 143.43800354003906,26.363000869750977 C143.43800354003906,26.363000869750977 153.51100158691406,17.749000549316406 153.51100158691406,17.749000549316406 C153.51100158691406,17.749000549316406 132.82400512695312,-3.3320000171661377 132.82400512695312,-3.3320000171661377 C132.82400512695312,-3.3320000171661377 -45.88399887084961,-25.81999969482422 -45.88399887084961,-25.81999969482422 C-45.88399887084961,-25.81999969482422 -106.64800262451172,-26.363000869750977 -106.64800262451172,-26.363000869750977 C-106.64800262451172,-26.363000869750977 -122.447998046875,-17.177000045776367 -122.447998046875,-17.177000045776367z"></path><path stroke-linecap="round" stroke-linejoin="round" fill-opacity="0" stroke="rgb(172,190,210)" stroke-opacity="1" stroke-width="0.91" d=" M-122.447998046875,-17.177000045776367 C-122.447998046875,-17.177000045776367 -153.51100158691406,18.87700080871582 -153.51100158691406,18.87700080871582 C-153.51100158691406,18.87700080871582 -141.1490020751953,26.363000869750977 -141.1490020751953,26.363000869750977 C-141.1490020751953,26.363000869750977 143.43800354003906,26.363000869750977 143.43800354003906,26.363000869750977 C143.43800354003906,26.363000869750977 153.51100158691406,17.749000549316406 153.51100158691406,17.749000549316406 C153.51100158691406,17.749000549316406 132.82400512695312,-3.3320000171661377 132.82400512695312,-3.3320000171661377 C132.82400512695312,-3.3320000171661377 -45.88399887084961,-25.81999969482422 -45.88399887084961,-25.81999969482422 C-45.88399887084961,-25.81999969482422 -106.64800262451172,-26.363000869750977 -106.64800262451172,-26.363000869750977 C-106.64800262451172,-26.363000869750977 -122.447998046875,-17.177000045776367 -122.447998046875,-17.177000045776367z"></path></g><g opacity="1" transform="matrix(1,0,0,1,500.40301513671875,227.0679931640625)"><path fill="rgb(172,190,210)" fill-opacity="1" d=" M138.71099853515625,22.413999557495117 C138.71099853515625,22.413999557495117 132.55499267578125,16.490999221801758 132.55499267578125,16.490999221801758 C132.55499267578125,16.490999221801758 148.80299377441406,7.817999839782715 148.80299377441406,7.817999839782715 C148.80299377441406,7.817999839782715 -148.80299377441406,-22.413999557495117 -148.80299377441406,-22.413999557495117 C-148.80299377441406,-22.413999557495117 -148.80299377441406,-18.55299949645996 -148.80299377441406,-18.55299949645996 C-148.80299377441406,-18.55299949645996 -132.6219940185547,1.9739999771118164 -132.6219940185547,1.9739999771118164 C-132.6219940185547,1.9739999771118164 138.71099853515625,22.413999557495117 138.71099853515625,22.413999557495117z"></path><path stroke-linecap="round" stroke-linejoin="round" fill-opacity="0" stroke="rgb(172,190,210)" stroke-opacity="1" stroke-width="0.91" d=" M138.71099853515625,22.413999557495117 C138.71099853515625,22.413999557495117 132.55499267578125,16.490999221801758 132.55499267578125,16.490999221801758 C132.55499267578125,16.490999221801758 148.80299377441406,7.817999839782715 148.80299377441406,7.817999839782715 C148.80299377441406,7.817999839782715 -148.80299377441406,-22.413999557495117 -148.80299377441406,-22.413999557495117 C-148.80299377441406,-22.413999557495117 -148.80299377441406,-18.55299949645996 -148.80299377441406,-18.55299949645996 C-148.80299377441406,-18.55299949645996 -132.6219940185547,1.9739999771118164 -132.6219940185547,1.9739999771118164 C-132.6219940185547,1.9739999771118164 138.71099853515625,22.413999557495117 138.71099853515625,22.413999557495117z"></path></g><g opacity="1" transform="matrix(1,0,0,1,353.0989990234375,203.10299682617188)"><path fill="rgb(155,176,196)" fill-opacity="1" d=" M7.357999801635742,9.04800033569336 C7.357999801635742,9.04800033569336 0.9120000004768372,-62.00600051879883 0.9120000004768372,-62.00600051879883 C0.9120000004768372,-62.00600051879883 -18.989999771118164,62.00600051879883 -18.989999771118164,62.00600051879883 C-18.989999771118164,62.00600051879883 18.989999771118164,21.033000946044922 18.989999771118164,21.033000946044922 C18.989999771118164,21.033000946044922 7.357999801635742,9.04800033569336 7.357999801635742,9.04800033569336z"></path></g><g opacity="1" transform="matrix(1,0,0,1,501.4429931640625,223.0449981689453)"><path fill="rgb(155,176,196)" fill-opacity="1" d=" M135.59500122070312,21.674999237060547 C135.59500122070312,21.674999237060547 149.84300231933594,11.734000205993652 149.84300231933594,11.734000205993652 C149.84300231933594,11.734000205993652 149.84300231933594,7.875 149.84300231933594,7.875 C149.84300231933594,7.875 -149.84300231933594,-21.674999237060547 -149.84300231933594,-21.674999237060547 C-149.84300231933594,-21.674999237060547 -149.84300231933594,-17.815000534057617 -149.84300231933594,-17.815000534057617 C-149.84300231933594,-17.815000534057617 -128.60699462890625,0.2840000092983246 -128.60699462890625,0.2840000092983246 C-128.60699462890625,0.2840000092983246 135.59500122070312,21.674999237060547 135.59500122070312,21.674999237060547z"></path></g><g opacity="1" transform="matrix(1,0,0,1,357.9339904785156,240.0240020751953)"><path fill="rgb(230,235,246)" fill-opacity="1" d=" M16.277999877929688,-19.86400032043457 C16.277999877929688,-19.86400032043457 -19.976999282836914,19.86400032043457 -19.976999282836914,19.86400032043457 C-19.976999282836914,19.86400032043457 -13.529000282287598,19.86400032043457 -13.529000282287598,19.86400032043457 C-13.529000282287598,19.86400032043457 19.976999282836914,-19.55299949645996 19.976999282836914,-19.55299949645996 C19.976999282836914,-19.55299949645996 16.277999877929688,-19.86400032043457 16.277999877929688,-19.86400032043457z"></path></g><g opacity="1" transform="matrix(1,0,0,1,639.1129760742188,249.49899291992188)"><path fill="rgb(230,235,246)" fill-opacity="1" d=" M-8.571999549865723,-7.882999897003174 C-8.571999549865723,-7.882999897003174 4.5929999351501465,7.816999912261963 4.5929999351501465,7.816999912261963 C4.5929999351501465,7.816999912261963 8.571999549865723,7.882999897003174 8.571999549865723,7.882999897003174 C8.571999549865723,7.882999897003174 -6.390999794006348,-7.709000110626221 -6.390999794006348,-7.709000110626221 C-6.390999794006348,-7.709000110626221 -8.571999549865723,-7.882999897003174 -8.571999549865723,-7.882999897003174z"></path></g><g opacity="1" transform="matrix(1,0,0,1,628.22802734375,251.61599731445312)"><path fill="rgb(230,235,246)" fill-opacity="1" d=" M-10.885000228881836,-11.104999542236328 C-10.885000228881836,-11.104999542236328 4.210999965667725,8.57699966430664 4.210999965667725,8.57699966430664 C4.210999965667725,8.57699966430664 10.885000228881836,11.104999542236328 10.885000228881836,11.104999542236328 C10.885000228881836,11.104999542236328 -7.927000045776367,-10.857000350952148 -7.927000045776367,-10.857000350952148 C-7.927000045776367,-10.857000350952148 -10.885000228881836,-11.104999542236328 -10.885000228881836,-11.104999542236328z"></path></g><g opacity="1" transform="matrix(1,0,0,1,611.8350219726562,249.55499267578125)"><path fill="rgb(230,235,246)" fill-opacity="1" d=" M-9.059000015258789,-10.263999938964844 C-9.059000015258789,-10.263999938964844 4.263999938964844,9.732000350952148 4.263999938964844,9.732000350952148 C4.263999938964844,9.732000350952148 9.059000015258789,10.263999938964844 9.059000015258789,10.263999938964844 C9.059000015258789,10.263999938964844 -6.324999809265137,-10.03499984741211 -6.324999809265137,-10.03499984741211 C-6.324999809265137,-10.03499984741211 -9.059000015258789,-10.263999938964844 -9.059000015258789,-10.263999938964844z"></path></g><g opacity="1" transform="matrix(1,0,0,1,590.7109985351562,248.6230010986328)"><path fill="rgb(230,235,246)" fill-opacity="1" d=" M-8.098999977111816,-11.020000457763672 C-8.098999977111816,-11.020000457763672 3.690999984741211,10.663999557495117 3.690999984741211,10.663999557495117 C3.690999984741211,10.663999557495117 8.098999977111816,11.020000457763672 8.098999977111816,11.020000457763672 C8.098999977111816,11.020000457763672 -5.328000068664551,-10.786999702453613 -5.328000068664551,-10.786999702453613 C-5.328000068664551,-10.786999702453613 -8.098999977111816,-11.020000457763672 -8.098999977111816,-11.020000457763672z"></path></g><g opacity="1" transform="matrix(1,0,0,1,566.3270263671875,247.7570037841797)"><path fill="rgb(230,235,246)" fill-opacity="1" d=" M-7.336999893188477,-12.130999565124512 C-7.336999893188477,-12.130999565124512 1.8559999465942383,11.409000396728516 1.8559999465942383,11.409000396728516 C1.8559999465942383,11.409000396728516 7.336999893188477,12.130999565124512 7.336999893188477,12.130999565124512 C7.336999893188477,12.130999565124512 -4.015999794006348,-11.87600040435791 -4.015999794006348,-11.87600040435791 C-4.015999794006348,-11.87600040435791 -7.336999893188477,-12.130999565124512 -7.336999893188477,-12.130999565124512z"></path></g><g opacity="1" transform="matrix(1,0,0,1,540.9450073242188,251.28500366210938)"><path fill="rgb(230,235,246)" fill-opacity="1" d=" M-8.20199966430664,-17.854999542236328 C-8.20199966430664,-17.854999542236328 1.656999945640564,17.854999542236328 1.656999945640564,17.854999542236328 C1.656999945640564,17.854999542236328 8.20199966430664,17.854999542236328 8.20199966430664,17.854999542236328 C8.20199966430664,17.854999542236328 -5.315999984741211,-17.613000869750977 -5.315999984741211,-17.613000869750977 C-5.315999984741211,-17.613000869750977 -8.20199966430664,-17.854999542236328 -8.20199966430664,-17.854999542236328z"></path></g><g opacity="1" transform="matrix(1,0,0,1,510.1570129394531,251.07899475097656)"><path fill="rgb(230,235,246)" fill-opacity="1" d=" M-5.0269999504089355,-19.961000442504883 C-5.0269999504089355,-19.961000442504883 -2.4049999713897705,19.961000442504883 -2.4049999713897705,19.961000442504883 C-2.4049999713897705,19.961000442504883 5.0269999504089355,16.01300048828125 5.0269999504089355,16.01300048828125 C5.0269999504089355,16.01300048828125 -1.5429999828338623,-19.667999267578125 -1.5429999828338623,-19.667999267578125 C-1.5429999828338623,-19.667999267578125 -5.0269999504089355,-19.961000442504883 -5.0269999504089355,-19.961000442504883z"></path></g><g opacity="1" transform="matrix(1,0,0,1,447.9410095214844,243.281005859375)"><path fill="rgb(230,235,246)" fill-opacity="1" d=" M4.086999893188477,-16.60700035095215 C4.086999893188477,-16.60700035095215 -7.5970001220703125,16.43899917602539 -7.5970001220703125,16.43899917602539 C-7.5970001220703125,16.43899917602539 -1.2300000190734863,16.60700035095215 -1.2300000190734863,16.60700035095215 C-1.2300000190734863,16.60700035095215 7.5970001220703125,-16.31399917602539 7.5970001220703125,-16.31399917602539 C7.5970001220703125,-16.31399917602539 4.086999893188477,-16.60700035095215 4.086999893188477,-16.60700035095215z"></path></g><g opacity="1" transform="matrix(1,0,0,1,420.9179992675781,242.33099365234375)"><path fill="rgb(230,235,246)" fill-opacity="1" d=" M8.420999526977539,-17.55699920654297 C8.420999526977539,-17.55699920654297 -11.743000030517578,17.55699920654297 -11.743000030517578,17.55699920654297 C-11.743000030517578,17.55699920654297 -5.323999881744385,17.389999389648438 -5.323999881744385,17.389999389648438 C-5.323999881744385,17.389999389648438 11.743000030517578,-17.277999877929688 11.743000030517578,-17.277999877929688 C11.743000030517578,-17.277999877929688 8.420999526977539,-17.55699920654297 8.420999526977539,-17.55699920654297z"></path></g><g opacity="1" transform="matrix(1,0,0,1,397.98199462890625,241.97300720214844)"><path fill="rgb(230,235,246)" fill-opacity="1" d=" M11.529000282287598,-18.857999801635742 C11.529000282287598,-18.857999801635742 -14.986000061035156,18.857999801635742 -14.986000061035156,18.857999801635742 C-14.986000061035156,18.857999801635742 -7.920000076293945,18.857999801635742 -7.920000076293945,18.857999801635742 C-7.920000076293945,18.857999801635742 14.986000061035156,-18.56800079345703 14.986000061035156,-18.56800079345703 C14.986000061035156,-18.56800079345703 11.529000282287598,-18.857999801635742 11.529000282287598,-18.857999801635742z"></path></g><g opacity="1" transform="matrix(1,0,0,1,376.22100830078125,241.8070068359375)"><path fill="rgb(230,235,246)" fill-opacity="1" d=" M13.003000259399414,-20.389999389648438 C13.003000259399414,-20.389999389648438 -17.969999313354492,20.389999389648438 -17.969999313354492,20.389999389648438 C-17.969999313354492,20.389999389648438 -9.041999816894531,17.562000274658203 -9.041999816894531,17.562000274658203 C-9.041999816894531,17.562000274658203 17.969999313354492,-19.974000930786133 17.969999313354492,-19.974000930786133 C17.969999313354492,-19.974000930786133 13.003000259399414,-20.389999389648438 13.003000259399414,-20.389999389648438z"></path></g><g opacity="1" transform="matrix(1,0,0,1,501.4429931640625,218.0749969482422)"><path fill="rgb(230,235,246)" fill-opacity="1" d=" M149.843994140625,16.704999923706055 C149.843994140625,16.704999923706055 -149.843994140625,-12.843999862670898 -149.843994140625,-12.843999862670898 C-149.843994140625,-12.843999862670898 -149.843994140625,-16.704999923706055 -149.843994140625,-16.704999923706055 C-149.843994140625,-16.704999923706055 149.843994140625,12.845000267028809 149.843994140625,12.845000267028809 C149.843994140625,12.845000267028809 149.843994140625,16.704999923706055 149.843994140625,16.704999923706055z"></path></g><g opacity="1" transform="matrix(1,0,0,1,200.61199951171875,308.8399963378906)"><path fill="rgb(172,190,210)" fill-opacity="1" d=" M90.14600372314453,-100.16100311279297 C90.14600372314453,-100.16100311279297 71.87100219726562,-7.89300012588501 71.87100219726562,-7.89300012588501 C71.87100219726562,-7.89300012588501 -110.97599792480469,91.48200225830078 -110.97599792480469,91.48200225830078 C-110.97599792480469,91.48200225830078 -100.36000061035156,100.16100311279297 -100.36000061035156,99.51000213623047 C-100.36000061035156,98.86000061035156 103.5989990234375,-12.298999786376953 103.81600189208984,-13.024999618530273 C104.03299713134766,-13.751999855041504 110.97599792480469,-36.92100143432617 110.97599792480469,-36.92100143432617 C110.97599792480469,-36.92100143432617 96.43900299072266,-47.32899856567383 96.43900299072266,-47.32899856567383 C96.43900299072266,-47.32899856567383 93.11199951171875,-76.0780029296875 93.11199951171875,-76.0780029296875 C93.11199951171875,-76.0780029296875 90.14600372314453,-100.16100311279297 90.14600372314453,-100.16100311279297z"></path></g><g opacity="1" transform="matrix(1,0,0,1,500.7919921875,277.6759948730469)"><path fill="rgb(172,190,210)" fill-opacity="1" d=" M-187.48399353027344,10.836999893188477 C-187.48399353027344,10.836999893188477 -169.072998046875,-8.536999702453613 -169.072998046875,-8.536999702453613 C-169.072998046875,-8.536999702453613 -173.98300170898438,-13.925000190734863 -173.98300170898438,-13.925000190734863 C-173.98300170898438,-13.925000190734863 184.656005859375,-18.510000228881836 184.656005859375,-18.510000228881836 C184.656005859375,-18.510000228881836 187.48399353027344,18.510000228881836 187.48399353027344,18.510000228881836 C187.48399353027344,18.510000228881836 -180.32400512695312,18.510000228881836 -180.32400512695312,18.510000228881836 C-180.32400512695312,18.510000228881836 -187.48399353027344,10.836999893188477 -187.48399353027344,10.836999893188477z"></path></g><g opacity="1" transform="matrix(1,0,0,1,500.7919921875,277.6759948730469)"><path stroke-linecap="round" stroke-linejoin="round" fill-opacity="0" stroke="rgb(172,190,210)" stroke-opacity="1" stroke-width="0.91" d=" M-187.48399353027344,10.836999893188477 C-187.48399353027344,10.836999893188477 -169.072998046875,-8.536999702453613 -169.072998046875,-8.536999702453613 C-169.072998046875,-8.536999702453613 -173.98300170898438,-13.925000190734863 -173.98300170898438,-13.925000190734863 C-173.98300170898438,-13.925000190734863 184.656005859375,-18.510000228881836 184.656005859375,-18.510000228881836 C184.656005859375,-18.510000228881836 187.48399353027344,18.510000228881836 187.48399353027344,18.510000228881836 C187.48399353027344,18.510000228881836 -180.32400512695312,18.510000228881836 -180.32400512695312,18.510000228881836 C-180.32400512695312,18.510000228881836 -187.48399353027344,10.836999893188477 -187.48399353027344,10.836999893188477z"></path></g><g opacity="1" transform="matrix(1,0,0,1,495.5929870605469,270.7300109863281)"><path fill="rgb(155,176,196)" fill-opacity="1" d=" M-182.28500366210938,12.857999801635742 C-182.28500366210938,12.857999801635742 -196.52499389648438,-6.401000022888184 -196.52499389648438,-6.401000022888184 C-196.52499389648438,-6.401000022888184 -196.52499389648438,-11.904000282287598 -196.52499389648438,-11.904000282287598 C-196.52499389648438,-11.904000282287598 192.78399658203125,-16.547000885009766 192.78399658203125,-16.547000885009766 C192.78399658203125,-16.547000885009766 196.52499389648438,16.547000885009766 196.52499389648438,16.547000885009766 C196.52499389648438,16.547000885009766 -175.125,16.547000885009766 -175.125,16.547000885009766 C-175.125,16.547000885009766 -182.28500366210938,12.857999801635742 -182.28500366210938,12.857999801635742z"></path></g><g opacity="1" transform="matrix(1,0,0,1,187.49200439453125,303.4389953613281)"><path fill="rgb(230,235,246)" fill-opacity="1" d=" M103.26599884033203,-94.76100158691406 C103.26599884033203,-94.76100158691406 100.20899963378906,-97.81700134277344 100.20899963378906,-97.81700134277344 C100.20899963378906,-97.81700134277344 79.7509994506836,-2.493000030517578 79.7509994506836,-2.493000030517578 C79.7509994506836,-2.493000030517578 -103.26599884033203,96.88200378417969 -103.26599884033203,96.88200378417969 C-103.26599884033203,96.88200378417969 -97.63700103759766,97.24800109863281 -97.29299926757812,97.81700134277344 C-97.29299926757812,97.81700134277344 86.88300323486328,-2.493000030517578 86.88300323486328,-2.493000030517578 C86.88300323486328,-2.493000030517578 103.26599884033203,-94.76100158691406 103.26599884033203,-94.76100158691406z"></path></g><g opacity="1" transform="matrix(1,0,0,1,777.0770263671875,308.8399963378906)"><path fill="rgb(172,190,210)" fill-opacity="1" d=" M-90.14600372314453,-100.16100311279297 C-90.14600372314453,-100.16100311279297 -71.87100219726562,-7.89300012588501 -71.87100219726562,-7.89300012588501 C-71.87100219726562,-7.89300012588501 110.97599792480469,91.48200225830078 110.97599792480469,91.48200225830078 C110.97599792480469,91.48200225830078 100.36000061035156,100.16100311279297 100.36000061035156,99.51000213623047 C100.36000061035156,98.86000061035156 -103.5989990234375,-12.298999786376953 -103.81600189208984,-13.024999618530273 C-104.03299713134766,-13.751999855041504 -110.97599792480469,-36.92100143432617 -110.97599792480469,-36.92100143432617 C-110.97599792480469,-36.92100143432617 -96.43900299072266,-47.32899856567383 -96.43900299072266,-47.32899856567383 C-96.43900299072266,-47.32899856567383 -93.11199951171875,-76.0780029296875 -93.11199951171875,-76.0780029296875 C-93.11199951171875,-76.0780029296875 -90.14600372314453,-100.16100311279297 -90.14600372314453,-100.16100311279297z"></path></g><g opacity="1" transform="matrix(1,0,0,1,484.6570129394531,259.3680114746094)"><path fill="rgb(230,235,246)" fill-opacity="1" d=" M-185.58900451660156,4.960000038146973 C-185.58900451660156,4.960000038146973 185.58900451660156,0.5339999794960022 185.58900451660156,0.5339999794960022 C185.58900451660156,0.5339999794960022 184.97999572753906,-4.960000038146973 184.97999572753906,-4.960000038146973 C184.97999572753906,-4.960000038146973 -185.58900451660156,-0.5419999957084656 -185.58900451660156,-0.5419999957084656 C-185.58900451660156,-0.5419999957084656 -185.58900451660156,4.960000038146973 -185.58900451660156,4.960000038146973z"></path></g><g opacity="1" transform="matrix(1,0,0,1,790.197021484375,303.4389953613281)"><path fill="rgb(230,235,246)" fill-opacity="1" d=" M-103.26499938964844,-94.76100158691406 C-103.26499938964844,-94.76100158691406 -100.21099853515625,-97.81700134277344 -100.21099853515625,-97.81700134277344 C-100.21099853515625,-97.81700134277344 -79.75199890136719,-2.493000030517578 -79.75199890136719,-2.493000030517578 C-79.75199890136719,-2.493000030517578 103.26499938964844,96.88200378417969 103.26499938964844,96.88200378417969 C103.26499938964844,96.88200378417969 97.63700103759766,97.24800109863281 97.29299926757812,97.81700134277344 C97.29299926757812,97.81700134277344 -86.88400268554688,-2.493000030517578 -86.88400268554688,-2.493000030517578 C-86.88400268554688,-2.493000030517578 -103.26499938964844,-94.76100158691406 -103.26499938964844,-94.76100158691406z"></path></g><g opacity="1" transform="matrix(1,0,0,1,759.0369873046875,312.30999755859375)"><path fill="rgb(186,202,222)" fill-opacity="1" d=" M-91.61799621582031,-109.2750015258789 C-91.61799621582031,-109.2750015258789 -73.60900115966797,-11.581000328063965 -73.60900115966797,-11.581000328063965 C-73.60900115966797,-11.581000328063965 120.58499908447266,99.29399871826172 120.58499908447266,99.29399871826172 C120.58499908447266,99.29399871826172 96.06800079345703,109.2750015258789 96.06800079345703,109.2750015258789 C96.06800079345703,109.2750015258789 -107.67500305175781,-14.836000442504883 -107.67500305175781,-14.836000442504883 C-107.67500305175781,-14.836000442504883 -120.58499908447266,-25.100000381469727 -120.58499908447266,-25.100000381469727 C-120.58499908447266,-25.100000381469727 -94.8759994506836,-48.15999984741211 -94.8759994506836,-48.15999984741211 C-94.8759994506836,-48.15999984741211 -94.8759994506836,-57.8380012512207 -94.8759994506836,-57.8380012512207 C-94.8759994506836,-57.8380012512207 -99.16100311279297,-57.7869987487793 -99.16100311279297,-57.7869987487793 C-99.16100311279297,-57.7869987487793 -91.61799621582031,-109.2750015258789 -91.61799621582031,-109.2750015258789z"></path></g><g opacity="1" transform="matrix(1,0,0,1,776.2249755859375,306.14801025390625)"><path fill="rgb(230,235,246)" fill-opacity="1" d=" M-108.80599975585938,-103.11199951171875 C-108.80599975585938,-103.11199951171875 -105.75,-106.30500030517578 -105.75,-106.30500030517578 C-105.75,-106.30500030517578 -85.00499725341797,-5.201000213623047 -85.00499725341797,-5.201000213623047 C-85.00499725341797,-5.201000213623047 108.80599975585938,105.45700073242188 108.80599975585938,105.45700073242188 C108.80599975585938,105.45700073242188 101.31400299072266,106.30500030517578 101.31400299072266,106.30500030517578 C101.31400299072266,106.30500030517578 -93.61799621582031,-5.201000213623047 -93.61799621582031,-5.201000213623047 C-93.61799621582031,-5.201000213623047 -108.80599975585938,-103.11199951171875 -108.80599975585938,-103.11199951171875z"></path></g><g opacity="1" transform="matrix(1,0,0,1,218.65199279785156,312.30999755859375)"><path fill="rgb(186,202,222)" fill-opacity="1" d=" M91.61900329589844,-109.2750015258789 C91.61900329589844,-109.2750015258789 73.60900115966797,-11.581000328063965 73.60900115966797,-11.581000328063965 C73.60900115966797,-11.581000328063965 -120.58499908447266,99.29399871826172 -120.58499908447266,99.29399871826172 C-120.58499908447266,99.29399871826172 -96.06700134277344,109.2750015258789 -96.06700134277344,109.2750015258789 C-96.06700134277344,109.2750015258789 107.67500305175781,-14.836000442504883 107.67500305175781,-14.836000442504883 C107.67500305175781,-14.836000442504883 120.58499908447266,-25.100000381469727 120.58499908447266,-25.100000381469727 C120.58499908447266,-25.100000381469727 94.8759994506836,-48.15999984741211 94.8759994506836,-48.15999984741211 C94.8759994506836,-48.15999984741211 94.8759994506836,-53.66299819946289 94.8759994506836,-53.66299819946289 C94.8759994506836,-53.66299819946289 99.75800323486328,-53.7140007019043 99.75800323486328,-53.7140007019043 C99.75800323486328,-53.7140007019043 91.61900329589844,-109.2750015258789 91.61900329589844,-109.2750015258789z"></path></g><g opacity="1" transform="matrix(1,0,0,1,201.46400451660156,306.21600341796875)"><path fill="rgb(230,235,246)" fill-opacity="1" d=" M108.80599975585938,-103.18099975585938 C108.80599975585938,-103.18099975585938 105.75,-106.23699951171875 105.75,-106.23699951171875 C105.75,-106.23699951171875 85.00499725341797,-5.269999980926514 85.00499725341797,-5.269999980926514 C85.00499725341797,-5.269999980926514 -108.80599975585938,105.38800048828125 -108.80599975585938,105.38800048828125 C-108.80599975585938,105.38800048828125 -101.31400299072266,106.23699951171875 -101.31400299072266,106.23699951171875 C-101.31400299072266,106.23699951171875 93.61799621582031,-5.269999980926514 93.61799621582031,-5.269999980926514 C93.61799621582031,-5.269999980926514 108.80599975585938,-103.18099975585938 108.80599975585938,-103.18099975585938z"></path></g><g opacity="1" transform="matrix(1,0,0,1,0,0)"><path stroke-linecap="round" stroke-linejoin="round" fill-opacity="0" stroke="rgb(186,202,222)" stroke-opacity="1" stroke-width="5" d=" M434.4309997558594,156.4290008544922 C434.4309997558594,156.4290008544922 434.4309997558594,2.5 434.4309997558594,2.5"></path></g><g opacity="1" transform="matrix(1,0,0,1,31.216999053955078,502.10400390625)"><path fill="rgb(155,176,196)" fill-opacity="1" d=" M-30.966999053955078,-12.70199966430664 C-30.966999053955078,-12.70199966430664 14.748000144958496,12.70199966430664 14.748000144958496,12.70199966430664 C14.748000144958496,12.70199966430664 30.966999053955078,12.701000213623047 30.966999053955078,12.701000213623047 C30.966999053955078,12.701000213623047 -13.104000091552734,-12.70199966430664 -13.104000091552734,-12.70199966430664 C-13.104000091552734,-12.70199966430664 -30.966999053955078,-12.70199966430664 -30.966999053955078,-12.70199966430664z"></path></g><g opacity="1" transform="matrix(1,0,0,1,185.86000061035156,398.2929992675781)"><path fill="rgb(172,190,210)" fill-opacity="1" d=" M-132.42799377441406,67.62200164794922 C-132.42799377441406,67.62200164794922 164.33099365234375,-116.51300048828125 164.33099365234375,-116.51300048828125 C164.33099365234375,-116.51300048828125 167.66099548339844,-109.70700073242188 167.66099548339844,-109.70700073242188 C167.74600219726562,-109.50299835205078 167.67100524902344,-109.26699829101562 167.48500061035156,-109.14900207519531 C167.48500061035156,-109.14900207519531 -123.6760025024414,76.7969970703125 -123.6760025024414,76.7969970703125 C-123.6760025024414,76.7969970703125 -123.6760025024414,116.51300048828125 -123.6760025024414,116.51300048828125 C-123.6760025024414,116.51300048828125 -167.74600219726562,91.10900115966797 -167.74600219726562,91.10900115966797 C-167.74600219726562,91.10900115966797 -132.6009979248047,67.72899627685547 -132.42799377441406,67.62200164794922z"></path></g><g opacity="1" transform="matrix(1,0,0,1,175.22000122070312,385.59100341796875)"><path fill="rgb(230,235,246)" fill-opacity="1" d=" M-174.97000122070312,103.81099700927734 C-174.97000122070312,103.81099700927734 170.35400390625,-103.7979965209961 170.35400390625,-103.7979965209961 C170.35400390625,-103.7979965209961 174.97000122070312,-103.81099700927734 174.97000122070312,-103.81099700927734 C174.97000122070312,-103.81099700927734 -157.1060028076172,103.81099700927734 -157.1060028076172,103.81099700927734 C-157.1060028076172,103.81099700927734 -174.97000122070312,103.81099700927734 -174.97000122070312,103.81099700927734z"></path></g><g opacity="1" transform="matrix(1,0,0,1,115.08399963378906,502.0920104980469)"><path fill="rgb(155,176,196)" fill-opacity="1" d=" M-7.938000202178955,-12.6899995803833 C-7.938000202178955,-12.6899995803833 29.038999557495117,12.6899995803833 29.038999557495117,12.6899995803833 C29.038999557495117,12.6899995803833 9.855999946594238,12.689000129699707 9.855999946594238,12.689000129699707 C9.855999946594238,12.689000129699707 -29.038999557495117,-12.6899995803833 -29.038999557495117,-12.6899995803833 C-29.038999557495117,-12.6899995803833 -7.938000202178955,-12.6899995803833 -7.938000202178955,-12.6899995803833z"></path></g><g opacity="1" transform="matrix(1,0,0,1,241.52999877929688,398.2799987792969)"><path fill="rgb(172,190,210)" fill-opacity="1" d=" M134.2949981689453,-109.71499633789062 C134.2949981689453,-109.71499633789062 130.56100463867188,-116.5 130.56100463867188,-116.5 C130.56100463867188,-116.5 -112.03500366210938,67.98200225830078 -111.9729995727539,68.16699981689453 C-111.91000366210938,68.35199737548828 -134.38499450683594,91.12200164794922 -134.38499450683594,91.12200164794922 C-134.38499450683594,91.12200164794922 -97.40599822998047,116.5 -97.40599822998047,116.5 C-97.40599822998047,116.5 -97.40599822998047,76.81099700927734 -97.40599822998047,76.81099700927734 C-97.40599822998047,76.81099700927734 134.16799926757812,-109.16500091552734 134.16799926757812,-109.16500091552734 C134.33200073242188,-109.2969970703125 134.38499450683594,-109.5250015258789 134.2949981689453,-109.71499633789062z"></path></g><g opacity="1" transform="matrix(1,0,0,1,229.0679931640625,385.59100341796875)"><path fill="rgb(230,235,246)" fill-opacity="1" d=" M143.0229949951172,-103.81099700927734 C143.0229949951172,-103.81099700927734 137.61700439453125,-103.81099700927734 137.61700439453125,-103.81099700927734 C137.61700439453125,-103.81099700927734 -143.0229949951172,103.81099700927734 -143.0229949951172,103.81099700927734 C-143.0229949951172,103.81099700927734 -121.9219970703125,103.81099700927734 -121.9219970703125,103.81099700927734 C-121.9219970703125,103.81099700927734 143.0229949951172,-103.81099700927734 143.0229949951172,-103.81099700927734z"></path></g><g opacity="1" transform="matrix(1,0,0,1,193.2270050048828,502.0920104980469)"><path fill="rgb(155,176,196)" fill-opacity="1" d=" M-4.638999938964844,-12.6899995803833 C-4.638999938964844,-12.6899995803833 27.358999252319336,12.6899995803833 27.358999252319336,12.6899995803833 C27.358999252319336,12.6899995803833 6.453999996185303,12.689000129699707 6.453999996185303,12.689000129699707 C6.453999996185303,12.689000129699707 -27.358999252319336,-12.6899995803833 -27.358999252319336,-12.6899995803833 C-27.358999252319336,-12.6899995803833 -4.638999938964844,-12.6899995803833 -4.638999938964844,-12.6899995803833z"></path></g><g opacity="1" transform="matrix(1,0,0,1,297.739990234375,398.2799987792969)"><path fill="rgb(172,190,210)" fill-opacity="1" d=" M109.06099700927734,-109.7300033569336 C109.06099700927734,-109.7300033569336 105.01399993896484,-116.5009994506836 105.01399993896484,-116.5009994506836 C105.01399993896484,-116.5009994506836 -97.4729995727539,69.79000091552734 -97.40499877929688,69.96399688720703 C-97.33599853515625,70.13800048828125 -109.15299987792969,91.12200164794922 -109.15299987792969,91.12200164794922 C-109.15299987792969,91.12200164794922 -77.15299987792969,116.5009994506836 -77.15299987792969,116.5009994506836 C-77.15299987792969,116.5009994506836 -77.13500213623047,76.80899810791016 -77.13500213623047,76.80899810791016 C-77.13500213623047,76.80899810791016 108.97899627685547,-109.1969985961914 108.97899627685547,-109.1969985961914 C109.12000274658203,-109.33699798583984 109.15299987792969,-109.55400085449219 109.06099700927734,-109.7300033569336z"></path></g><g opacity="1" transform="matrix(1,0,0,1,284.3110046386719,385.59100341796875)"><path fill="rgb(230,235,246)" fill-opacity="1" d=" M118.44400024414062,-103.81099700927734 C118.44400024414062,-103.81099700927734 110.55899810791016,-103.81099700927734 110.55899810791016,-103.81099700927734 C110.55899810791016,-103.81099700927734 -118.44400024414062,103.81099700927734 -118.44400024414062,103.81099700927734 C-118.44400024414062,103.81099700927734 -95.7239990234375,103.81099700927734 -95.7239990234375,103.81099700927734 C-95.7239990234375,103.81099700927734 118.44400024414062,-103.81099700927734 118.44400024414062,-103.81099700927734z"></path></g><g opacity="1" transform="matrix(1,0,0,1,304.8210144042969,502.0920104980469)"><path fill="rgb(155,176,196)" fill-opacity="1" d=" M2.312999963760376,-12.6899995803833 C2.312999963760376,-12.6899995803833 26.045000076293945,12.687999725341797 26.045000076293945,12.687999725341797 C26.045000076293945,12.687999725341797 -0.039000000804662704,12.6899995803833 -0.039000000804662704,12.6899995803833 C-0.039000000804662704,12.6899995803833 -26.045000076293945,-12.6899995803833 -26.045000076293945,-12.6899995803833 C-26.045000076293945,-12.6899995803833 2.312999963760376,-12.6899995803833 2.312999963760376,-12.6899995803833z"></path></g><g opacity="1" transform="matrix(1,0,0,1,374.7900085449219,346.51300048828125)"><path fill="rgb(172,190,210)" fill-opacity="1" d=" M69.77300262451172,-57.75199890136719 C69.77300262451172,-57.75199890136719 67.9020004272461,-168.26699829101562 67.9020004272461,-168.26699829101562 C67.9020004272461,-168.26699829101562 57.722999572753906,-54.68000030517578 57.722999572753906,-54.68000030517578 C57.722999572753906,-54.68000030517578 -69.77300262451172,119.78800201416016 -69.77300262451172,119.78800201416016 C-69.77300262451172,119.78800201416016 -67.65599822998047,142.88999938964844 -67.65599822998047,142.88999938964844 C-67.65599822998047,142.88999938964844 -43.92300033569336,168.26699829101562 -43.92300033569336,168.26699829101562 C-43.92300033569336,168.26699829101562 -43.92300033569336,128.57699584960938 -43.92300033569336,128.57699584960938 C-43.92300033569336,128.57699584960938 69.77300262451172,-57.75199890136719 69.77300262451172,-57.75199890136719z"></path></g><g opacity="1" transform="matrix(1,0,0,1,360.7330017089844,332.2959899902344)"><path fill="rgb(230,235,246)" fill-opacity="1" d=" M81.95800018310547,-154.05099487304688 C81.95800018310547,-154.05099487304688 78.9020004272461,-157.10699462890625 78.9020004272461,-157.10699462890625 C78.9020004272461,-157.10699462890625 66.37100219726562,-45.87099838256836 66.37100219726562,-45.87099838256836 C66.37100219726562,-45.87099838256836 -81.95800018310547,157.10699462890625 -81.95800018310547,157.10699462890625 C-81.95800018310547,157.10699462890625 -53.599998474121094,157.10699462890625 -53.599998474121094,157.10699462890625 C-53.599998474121094,157.10699462890625 76.54900360107422,-45.87099838256836 76.54900360107422,-45.87099838256836 C76.54900360107422,-45.87099838256836 81.95800018310547,-154.05099487304688 81.95800018310547,-154.05099487304688z"></path></g><g opacity="1" transform="matrix(1,0,0,1,419.1180114746094,502.09100341796875)"><path fill="rgb(155,176,196)" fill-opacity="1" d=" M6.567999839782715,-12.689000129699707 C6.567999839782715,-12.689000129699707 22.457000732421875,12.689000129699707 22.457000732421875,12.689000129699707 C22.457000732421875,12.689000129699707 -4.258999824523926,12.689000129699707 -4.258999824523926,12.689000129699707 C-4.258999824523926,12.689000129699707 -22.457000732421875,-12.689000129699707 -22.457000732421875,-12.689000129699707 C-22.457000732421875,-12.689000129699707 6.567999839782715,-12.689000129699707 6.567999839782715,-12.689000129699707z"></path></g><g opacity="1" transform="matrix(1,0,0,1,446.71099853515625,346.51300048828125)"><path fill="rgb(172,190,210)" fill-opacity="1" d=" M34.448001861572266,-57.75199890136719 C34.448001861572266,-57.75199890136719 28.518999099731445,-168.26699829101562 28.518999099731445,-168.26699829101562 C28.518999099731445,-168.26699829101562 23.239999771118164,-54.68000030517578 23.239999771118164,-54.68000030517578 C23.239999771118164,-54.68000030517578 -34.448001861572266,117.81700134277344 -34.448001861572266,117.81700134277344 C-34.448001861572266,117.81700134277344 -21.024999618530273,142.88999938964844 -21.024999618530273,142.88999938964844 C-21.024999618530273,142.88999938964844 -5.135000228881836,168.26699829101562 -5.135000228881836,168.26699829101562 C-5.135000228881836,168.26699829101562 -5.135000228881836,128.57699584960938 -5.135000228881836,128.57699584960938 C-5.135000228881836,128.57699584960938 34.448001861572266,-57.75199890136719 34.448001861572266,-57.75199890136719z"></path></g><g opacity="1" transform="matrix(1,0,0,1,435.9460144042969,332.2959899902344)"><path fill="rgb(230,235,246)" fill-opacity="1" d=" M36.229000091552734,-157.1060028076172 C36.229000091552734,-157.1060028076172 28.594999313354492,-45.87200164794922 28.594999313354492,-45.87200164794922 C28.594999313354492,-45.87200164794922 -39.28499984741211,157.1060028076172 -39.28499984741211,157.1060028076172 C-39.28499984741211,157.1060028076172 -10.258999824523926,157.1060028076172 -10.258999824523926,157.1060028076172 C-10.258999824523926,157.1060028076172 39.15599822998047,-45.87200164794922 39.15599822998047,-45.87200164794922 C39.15599822998047,-45.87200164794922 39.28499984741211,-154.0500030517578 39.28499984741211,-154.0500030517578 C39.28499984741211,-154.0500030517578 36.229000091552734,-157.1060028076172 36.229000091552734,-157.1060028076172z"></path></g><g opacity="1" transform="matrix(1,0,0,1,566.5759887695312,502.093994140625)"><path fill="rgb(155,176,196)" fill-opacity="1" d=" M22.690000534057617,-12.692000389099121 C22.690000534057617,-12.692000389099121 4.0289998054504395,12.6850004196167 4.0289998054504395,12.6850004196167 C4.0289998054504395,12.6850004196167 -22.690000534057617,12.692000389099121 -22.690000534057617,12.692000389099121 C-22.690000534057617,12.692000389099121 -6.334000110626221,-12.692000389099121 -6.334000110626221,-12.692000389099121 C-6.334000110626221,-12.692000389099121 22.690000534057617,-12.692000389099121 22.690000534057617,-12.692000389099121z"></path></g><g opacity="1" transform="matrix(1,0,0,1,539.2160034179688,398.2829895019531)"><path fill="rgb(172,190,210)" fill-opacity="1" d=" M34.87900161743164,65.89700317382812 C34.87900161743164,65.89700317382812 -29.52199935913086,-116.50299835205078 -29.52199935913086,-116.50299835205078 C-29.52199935913086,-116.50299835205078 -34.82500076293945,-109.78399658203125 -34.82500076293945,-109.78399658203125 C-34.89799880981445,-109.68099975585938 -34.92599868774414,-109.5510025024414 -34.89899826049805,-109.427001953125 C-34.89899826049805,-109.427001953125 4.671000003814697,76.80699920654297 4.671000003814697,76.80699920654297 C4.671000003814697,76.80699920654297 4.671000003814697,116.50299835205078 4.671000003814697,116.50299835205078 C4.671000003814697,116.50299835205078 21.025999069213867,91.12000274658203 21.025999069213867,91.12000274658203 C21.025999069213867,91.12000274658203 34.92599868774414,66.03099822998047 34.87900161743164,65.89700317382812z"></path></g><g opacity="1" transform="matrix(1,0,0,1,549.47998046875,385.59100341796875)"><path fill="rgb(230,235,246)" fill-opacity="1" d=" M-29.645999908447266,-103.81099700927734 C-29.645999908447266,-103.81099700927734 -39.7869987487793,-103.81099700927734 -39.7869987487793,-103.81099700927734 C-39.7869987487793,-103.81099700927734 10.76200008392334,103.81099700927734 10.76200008392334,103.81099700927734 C10.76200008392334,103.81099700927734 39.7869987487793,103.81099700927734 39.7869987487793,103.81099700927734 C39.7869987487793,103.81099700927734 -29.645999908447266,-103.81099700927734 -29.645999908447266,-103.81099700927734z"></path></g><g opacity="1" transform="matrix(1,0,0,1,680.8410034179688,502.093994140625)"><path fill="rgb(155,176,196)" fill-opacity="1" d=" M26.312000274658203,-12.692000389099121 C26.312000274658203,-12.692000389099121 -0.032999999821186066,12.425000190734863 -0.032999999821186066,12.425000190734863 C-0.032999999821186066,12.425000190734863 -26.312000274658203,12.692000389099121 -26.312000274658203,12.692000389099121 C-26.312000274658203,12.692000389099121 -2.046999931335449,-12.692000389099121 -2.046999931335449,-12.692000389099121 C-2.046999931335449,-12.692000389099121 26.312000274658203,-12.692000389099121 26.312000274658203,-12.692000389099121z"></path></g><g opacity="1" transform="matrix(1,0,0,1,611.1309814453125,398.2829895019531)"><path fill="rgb(172,190,210)" fill-opacity="1" d=" M70.14700317382812,67.7490005493164 C70.14700317382812,67.7490005493164 -65.46099853515625,-116.50299835205078 -65.46099853515625,-116.50299835205078 C-65.46099853515625,-116.50299835205078 -70.15599822998047,-109.76100158691406 -70.15599822998047,-109.76100158691406 C-70.24600219726562,-109.61499786376953 -70.24700164794922,-109.43099975585938 -70.15799713134766,-109.28500366210938 C-70.15799713134766,-109.28500366210938 43.39799880981445,76.80699920654297 43.39799880981445,76.80699920654297 C43.39799880981445,76.80699920654297 43.39799880981445,116.50299835205078 43.39799880981445,116.50299835205078 C43.39799880981445,116.50299835205078 67.66300201416016,91.11900329589844 67.66300201416016,91.11900329589844 C67.66300201416016,91.11900329589844 70.24800109863281,67.88700103759766 70.14700317382812,67.7490005493164z"></path></g><g opacity="1" transform="matrix(1,0,0,1,626.4119873046875,385.59100341796875)"><path fill="rgb(230,235,246)" fill-opacity="1" d=" M80.74199676513672,103.81099700927734 C80.74199676513672,103.81099700927734 63.91899871826172,80.79199981689453 63.91899871826172,80.79199981689453 C63.91899871826172,80.79199981689453 -70.98400115966797,-103.81099700927734 -70.98400115966797,-103.81099700927734 C-70.98400115966797,-103.81099700927734 -80.74199676513672,-103.81099700927734 -80.74199676513672,-103.81099700927734 C-80.74199676513672,-103.81099700927734 52.38199996948242,103.81099700927734 52.38199996948242,103.81099700927734 C52.38199996948242,103.81099700927734 80.74199676513672,103.81099700927734 80.74199676513672,103.81099700927734z"></path></g><g opacity="1" transform="matrix(1,0,0,1,792.7219848632812,502.0849914550781)"><path fill="rgb(155,176,196)" fill-opacity="1" d=" M27.33799934387207,-12.682999610900879 C27.33799934387207,-12.682999610900879 -6.543000221252441,12.682999610900879 -6.543000221252441,12.682999610900879 C-6.543000221252441,12.682999610900879 -27.33799934387207,12.574000358581543 -27.33799934387207,12.574000358581543 C-27.33799934387207,12.574000358581543 4.617000102996826,-12.682999610900879 4.617000102996826,-12.682999610900879 C4.617000102996826,-12.682999610900879 27.33799934387207,-12.682999610900879 27.33799934387207,-12.682999610900879z"></path></g><g opacity="1" transform="matrix(1,0,0,1,688.1909790039062,398.2200012207031)"><path fill="rgb(172,190,210)" fill-opacity="1" d=" M97.28600311279297,69.52400207519531 C97.28600311279297,69.52400207519531 -105.01899719238281,-116.43900299072266 -105.01899719238281,-116.43900299072266 C-105.01899719238281,-116.43900299072266 -109.05599975585938,-109.66799926757812 -109.05599975585938,-109.66799926757812 C-109.14800262451172,-109.49199676513672 -109.11399841308594,-109.2770004272461 -108.9739990234375,-109.13700103759766 C-108.9739990234375,-109.13700103759766 77.13099670410156,76.87000274658203 77.13099670410156,76.87000274658203 C77.13099670410156,76.87000274658203 77.19300079345703,116.43900299072266 77.19300079345703,116.43900299072266 C77.19300079345703,116.43900299072266 109.14800262451172,91.18299865722656 109.14800262451172,91.18299865722656 C109.14800262451172,91.18299865722656 97.42400360107422,69.6510009765625 97.28600311279297,69.52400207519531z"></path></g><g opacity="1" transform="matrix(1,0,0,1,701.6160278320312,385.59100341796875)"><path fill="rgb(230,235,246)" fill-opacity="1" d=" M-110.55899810791016,-103.81099700927734 C-110.55899810791016,-103.81099700927734 -118.44400024414062,-103.81099700927734 -118.44400024414062,-103.81099700927734 C-118.44400024414062,-103.81099700927734 95.7229995727539,103.81099700927734 95.7229995727539,103.81099700927734 C95.7229995727539,103.81099700927734 118.44400024414062,103.81099700927734 118.44400024414062,103.81099700927734 C118.44400024414062,103.81099700927734 -110.55899810791016,-103.81099700927734 -110.55899810791016,-103.81099700927734z"></path></g><g opacity="1" transform="matrix(1,0,0,1,946.4730224609375,502.10400390625)"><path fill="rgb(155,176,196)" fill-opacity="1" d=" M30.968000411987305,-12.70199966430664 C30.968000411987305,-12.70199966430664 -14.74899959564209,12.70199966430664 -14.74899959564209,12.70199966430664 C-14.74899959564209,12.70199966430664 -30.968000411987305,12.701000213623047 -30.968000411987305,12.701000213623047 C-30.968000411987305,12.701000213623047 13.102999687194824,-12.70199966430664 13.102999687194824,-12.70199966430664 C13.102999687194824,-12.70199966430664 30.968000411987305,-12.70199966430664 30.968000411987305,-12.70199966430664z"></path></g><g opacity="1" transform="matrix(1,0,0,1,791.8300170898438,398.2929992675781)"><path fill="rgb(172,190,210)" fill-opacity="1" d=" M132.4290008544922,67.62200164794922 C132.4290008544922,67.62200164794922 -164.33099365234375,-116.51300048828125 -164.33099365234375,-116.51300048828125 C-164.33099365234375,-116.51300048828125 -167.66099548339844,-109.70700073242188 -167.66099548339844,-109.70700073242188 C-167.74600219726562,-109.50299835205078 -167.67100524902344,-109.26699829101562 -167.48500061035156,-109.14900207519531 C-167.48500061035156,-109.14900207519531 123.67500305175781,76.7969970703125 123.67500305175781,76.7969970703125 C123.67500305175781,76.7969970703125 123.67500305175781,116.51300048828125 123.67500305175781,116.51300048828125 C123.67500305175781,116.51300048828125 167.74600219726562,91.10900115966797 167.74600219726562,91.10900115966797 C167.74600219726562,91.10900115966797 132.6020050048828,67.72899627685547 132.4290008544922,67.62200164794922z"></path></g><g opacity="1" transform="matrix(1,0,0,1,802.469970703125,385.59100341796875)"><path fill="rgb(230,235,246)" fill-opacity="1" d=" M174.97000122070312,103.81099700927734 C174.97000122070312,103.81099700927734 -170.35499572753906,-103.7979965209961 -170.35499572753906,-103.7979965209961 C-170.35499572753906,-103.7979965209961 -174.97000122070312,-103.81099700927734 -174.97000122070312,-103.81099700927734 C-174.97000122070312,-103.81099700927734 157.1060028076172,103.81099700927734 157.1060028076172,103.81099700927734 C157.1060028076172,103.81099700927734 174.97000122070312,103.81099700927734 174.97000122070312,103.81099700927734z"></path></g><g opacity="1" transform="matrix(1,0,0,1,870.843017578125,502.0920104980469)"><path fill="rgb(155,176,196)" fill-opacity="1" d=" M29.040000915527344,-12.6899995803833 C29.040000915527344,-12.6899995803833 -9.87399959564209,12.6899995803833 -9.87399959564209,12.6899995803833 C-9.87399959564209,12.6899995803833 -29.040000915527344,12.677000045776367 -29.040000915527344,12.677000045776367 C-29.040000915527344,12.677000045776367 7.938000202178955,-12.6899995803833 7.938000202178955,-12.6899995803833 C7.938000202178955,-12.6899995803833 29.040000915527344,-12.6899995803833 29.040000915527344,-12.6899995803833z"></path></g><g opacity="1" transform="matrix(1,0,0,1,744.39697265625,398.27398681640625)"><path fill="rgb(172,190,210)" fill-opacity="1" d=" M111.81900024414062,67.66500091552734 C111.81900024414062,67.66500091552734 -130.5590057373047,-116.49400329589844 -130.5590057373047,-116.49400329589844 C-130.5590057373047,-116.49400329589844 -134.29400634765625,-109.70899963378906 -134.29400634765625,-109.70899963378906 C-134.38499450683594,-109.51899719238281 -134.33299255371094,-109.29100036621094 -134.16900634765625,-109.15899658203125 C-134.16900634765625,-109.15899658203125 97.40699768066406,76.81500244140625 97.40699768066406,76.81500244140625 C97.40699768066406,76.81500244140625 97.40699768066406,116.49400329589844 97.40699768066406,116.49400329589844 C97.40699768066406,116.49400329589844 134.38499450683594,91.12799835205078 134.38499450683594,91.12799835205078 C134.38499450683594,91.12799835205078 111.9739990234375,67.78299713134766 111.81900024414062,67.66500091552734z"></path></g><g opacity="1" transform="matrix(1,0,0,1,756.8610229492188,385.59100341796875)"><path fill="rgb(230,235,246)" fill-opacity="1" d=" M143.0229949951172,103.81099700927734 C143.0229949951172,103.81099700927734 -137.6179962158203,-103.81099700927734 -137.6179962158203,-103.81099700927734 C-137.6179962158203,-103.81099700927734 -143.0229949951172,-103.81099700927734 -143.0229949951172,-103.81099700927734 C-143.0229949951172,-103.81099700927734 121.9209976196289,103.81099700927734 121.9209976196289,103.81099700927734 C121.9209976196289,103.81099700927734 143.0229949951172,103.81099700927734 143.0229949951172,103.81099700927734z"></path></g></g><g mask="url(#__lottie_element_3053)" style="display: block;"><g transform="matrix(0.3330000042915344,0,0,0.3330000042915344,168.0054931640625,165.44549560546875)" opacity="1"><g opacity="1" transform="matrix(1,0,0,1,0,13)"><path fill="rgb(255,255,255)" fill-opacity="1" d=" M550,-17.5 C550,-17.5 550,17.5 550,17.5 C550,17.5 -550,17.5 -550,17.5 C-550,17.5 -550,-17.5 -550,-17.5 C-550,-17.5 550,-17.5 550,-17.5z"></path></g></g></g><g transform="matrix(0.3330000042915344,0,0,0.3330000042915344,280.51788330078125,124.6500015258789)" opacity="1" style="display: block;"><g opacity="1" transform="matrix(1,0,0,1,0,0)"><path stroke-linecap="butt" stroke-linejoin="miter" fill-opacity="0" stroke-miterlimit="10" stroke="rgb(159,137,60)" stroke-opacity="1" stroke-width="13.512" d=" M99.58399963378906,89.6969985961914 C99.58399963378906,89.6969985961914 99.58399963378906,261.49700927734375 99.58399963378906,261.49700927734375"></path></g><g opacity="1" transform="matrix(1,0,0,1,99.58399963378906,99.58399963378906)"><path fill="rgb(79,184,79)" fill-opacity="1" d=" M99.33399963378906,0 C99.33399963378906,-54.861000061035156 54.86000061035156,-99.33399963378906 0,-99.33399963378906 C-54.861000061035156,-99.33399963378906 -99.33399963378906,-54.861000061035156 -99.33399963378906,0 C-99.33399963378906,54.861000061035156 -54.861000061035156,99.33399963378906 0,99.33399963378906 C54.86000061035156,99.33399963378906 99.33399963378906,54.861000061035156 99.33399963378906,0z"></path></g><g opacity="1" transform="matrix(1,0,0,1,99.58399963378906,254.9080047607422)"><path fill="rgb(79,184,79)" fill-opacity="1" d=" M0,13.241999626159668 C-22.572999954223633,13.241999626159668 -34.178001403808594,11.880000114440918 -34.178001403808594,10.821000099182129 C-34.178001403808594,0.09600000083446503 -18.875999450683594,-13.241999626159668 0,-13.241999626159668 C18.875999450683594,-13.241999626159668 34.178001403808594,0.09600000083446503 34.178001403808594,10.821000099182129 C34.178001403808594,11.880000114440918 22.572999954223633,13.241999626159668 0,13.241999626159668z"></path></g><g opacity="1" transform="matrix(1,0,0,1,99.58399963378906,107.87699890136719)"><path stroke-linecap="round" stroke-linejoin="round" fill-opacity="0" stroke="rgb(68,169,72)" stroke-opacity="1" stroke-width="7.026" d=" M9.553999900817871,-2.6029999256134033 C9.553999900817871,-2.6029999256134033 4.183000087738037,2.6029999256134033 0,2.6029999256134033 C-4.182000160217285,2.6029999256134033 -9.553999900817871,-2.6029999256134033 -9.553999900817871,-2.6029999256134033"></path></g><g opacity="1" transform="matrix(1,0,0,1,68.03099822998047,76.63700103759766)"><path stroke-linecap="round" stroke-linejoin="round" fill-opacity="0" stroke="rgb(68,169,72)" stroke-opacity="1" stroke-width="7.026" d=" M9.553999900817871,-2.6029999256134033 C9.553999900817871,-2.6029999256134033 4.182000160217285,2.6029999256134033 0,2.6029999256134033 C-4.182000160217285,2.6029999256134033 -9.553999900817871,-2.6029999256134033 -9.553999900817871,-2.6029999256134033"></path></g><g opacity="1" transform="matrix(1,0,0,1,131.13699340820312,76.63700103759766)"><path stroke-linecap="round" stroke-linejoin="round" fill-opacity="0" stroke="rgb(68,169,72)" stroke-opacity="1" stroke-width="7.026" d=" M9.553999900817871,-2.6029999256134033 C9.553999900817871,-2.6029999256134033 4.183000087738037,2.6029999256134033 0,2.6029999256134033 C-4.182000160217285,2.6029999256134033 -9.553999900817871,-2.6029999256134033 -9.553999900817871,-2.6029999256134033"></path></g><g opacity="1" transform="matrix(1,0,0,1,36.479000091552734,107.87699890136719)"><path stroke-linecap="round" stroke-linejoin="round" fill-opacity="0" stroke="rgb(68,169,72)" stroke-opacity="1" stroke-width="7.026" d=" M9.553999900817871,-2.6029999256134033 C9.553999900817871,-2.6029999256134033 4.182000160217285,2.6029999256134033 0,2.6029999256134033 C-4.182000160217285,2.6029999256134033 -9.553999900817871,-2.6029999256134033 -9.553999900817871,-2.6029999256134033"></path></g><g opacity="1" transform="matrix(1,0,0,1,99.58399963378906,170.35699462890625)"><path stroke-linecap="round" stroke-linejoin="round" fill-opacity="0" stroke="rgb(68,169,72)" stroke-opacity="1" stroke-width="7.026" d=" M9.553999900817871,-2.6029999256134033 C9.553999900817871,-2.6029999256134033 4.183000087738037,2.6029999256134033 0,2.6029999256134033 C-4.182000160217285,2.6029999256134033 -9.553999900817871,-2.6029999256134033 -9.553999900817871,-2.6029999256134033"></path></g><g opacity="1" transform="matrix(1,0,0,1,131.13699340820312,139.11700439453125)"><path stroke-linecap="round" stroke-linejoin="round" fill-opacity="0" stroke="rgb(68,169,72)" stroke-opacity="1" stroke-width="7.026" d=" M9.553999900817871,-2.6029999256134033 C9.553999900817871,-2.6029999256134033 4.183000087738037,2.6029999256134033 0,2.6029999256134033 C-4.182000160217285,2.6029999256134033 -9.553999900817871,-2.6029999256134033 -9.553999900817871,-2.6029999256134033"></path></g><g opacity="1" transform="matrix(1,0,0,1,68.03099822998047,139.11700439453125)"><path stroke-linecap="round" stroke-linejoin="round" fill-opacity="0" stroke="rgb(68,169,72)" stroke-opacity="1" stroke-width="7.026" d=" M9.553999900817871,-2.6029999256134033 C9.553999900817871,-2.6029999256134033 4.182000160217285,2.6029999256134033 0,2.6029999256134033 C-4.182000160217285,2.6029999256134033 -9.553999900817871,-2.6029999256134033 -9.553999900817871,-2.6029999256134033"></path></g><g opacity="1" transform="matrix(1,0,0,1,162.68899536132812,107.87699890136719)"><path stroke-linecap="round" stroke-linejoin="round" fill-opacity="0" stroke="rgb(68,169,72)" stroke-opacity="1" stroke-width="7.026" d=" M9.553999900817871,-2.6029999256134033 C9.553999900817871,-2.6029999256134033 4.183000087738037,2.6029999256134033 0,2.6029999256134033 C-4.182000160217285,2.6029999256134033 -9.553999900817871,-2.6029999256134033 -9.553999900817871,-2.6029999256134033"></path></g></g><g transform="matrix(0.3330000042915344,0,0,0.3330000042915344,237.19590759277344,194.15643310546875)" opacity="1" style="display: block;"><g opacity="1" transform="matrix(1,0,0,1,140.81900024414062,66.56300354003906)"><path fill="rgb(79,184,79)" fill-opacity="1" d=" M-109.08300018310547,-15.743000030517578 C-109.08300018310547,-15.743000030517578 109.08300018310547,-15.743000030517578 109.08300018310547,-15.743000030517578 C109.08300018310547,-15.743000030517578 109.08300018310547,15.743000030517578 109.08300018310547,15.743000030517578 C109.08300018310547,15.743000030517578 -109.08300018310547,15.743000030517578 -109.08300018310547,15.743000030517578 C-109.08300018310547,15.743000030517578 -109.08300018310547,-15.743000030517578 -109.08300018310547,-15.743000030517578z"></path></g><g opacity="1" transform="matrix(1,0,0,1,249.9010009765625,50.81999969482422)"><path fill="rgb(79,184,79)" fill-opacity="1" d=" M-31.486000061035156,0.0010000000474974513 C-31.486000061035156,-17.388999938964844 -17.388999938964844,-31.486000061035156 0,-31.486000061035156 C17.388999938964844,-31.486000061035156 31.486000061035156,-17.388999938964844 31.486000061035156,0.0010000000474974513 C31.486000061035156,17.389999389648438 17.388999938964844,31.486000061035156 0,31.486000061035156 C-17.388999938964844,31.486000061035156 -31.486000061035156,17.389999389648438 -31.486000061035156,0.0010000000474974513z"></path></g><g opacity="1" transform="matrix(1,0,0,1,140.8179931640625,50.81999969482422)"><path fill="rgb(79,184,79)" fill-opacity="1" d=" M-31.486000061035156,0.0010000000474974513 C-31.486000061035156,-17.388999938964844 -17.388999938964844,-31.486000061035156 0,-31.486000061035156 C17.389999389648438,-31.486000061035156 31.486000061035156,-17.388999938964844 31.486000061035156,0.0010000000474974513 C31.486000061035156,17.389999389648438 17.389999389648438,31.486000061035156 0,31.486000061035156 C-17.388999938964844,31.486000061035156 -31.486000061035156,17.389999389648438 -31.486000061035156,0.0010000000474974513z"></path></g><g opacity="1" transform="matrix(1,0,0,1,86.2770004272461,50.81999969482422)"><path fill="rgb(79,184,79)" fill-opacity="1" d=" M-31.486000061035156,0.0010000000474974513 C-31.486000061035156,-17.388999938964844 -17.388999938964844,-31.486000061035156 0,-31.486000061035156 C17.389999389648438,-31.486000061035156 31.486000061035156,-17.388999938964844 31.486000061035156,0.0010000000474974513 C31.486000061035156,17.389999389648438 17.389999389648438,31.486000061035156 0,31.486000061035156 C-17.388999938964844,31.486000061035156 -31.486000061035156,17.389999389648438 -31.486000061035156,0.0010000000474974513z"></path></g><g opacity="1" transform="matrix(1,0,0,1,31.736000061035156,50.81999969482422)"><path fill="rgb(79,184,79)" fill-opacity="1" d=" M-31.486000061035156,0.0010000000474974513 C-31.486000061035156,-17.388999938964844 -17.388999938964844,-31.486000061035156 0,-31.486000061035156 C17.388999938964844,-31.486000061035156 31.486000061035156,-17.388999938964844 31.486000061035156,0.0010000000474974513 C31.486000061035156,17.389999389648438 17.388999938964844,31.486000061035156 0,31.486000061035156 C-17.388999938964844,31.486000061035156 -31.486000061035156,17.389999389648438 -31.486000061035156,0.0010000000474974513z"></path></g><g opacity="1" transform="matrix(1,0,0,1,195.36000061035156,41.27799987792969)"><path fill="rgb(79,184,79)" fill-opacity="1" d=" M-41.02799987792969,0 C-41.02799987792969,-22.659000396728516 -22.65999984741211,-41.02799987792969 -0.0010000000474974513,-41.02799987792969 C22.659000396728516,-41.02799987792969 41.02799987792969,-22.659000396728516 41.02799987792969,0 C41.02799987792969,22.65999984741211 22.659000396728516,41.02799987792969 -0.0010000000474974513,41.02799987792969 C-22.65999984741211,41.02799987792969 -41.02799987792969,22.65999984741211 -41.02799987792969,0z"></path></g></g></g></svg>