<svg xmlns="http://www.w3.org/2000/svg" viewBox="0 0 109 393" width="109" height="393" preserveAspectRatio="xMidYMid meet" style="width: 100%; height: 100%; transform: translate3d(0px, 0px, 0px); content-visibility: visible;"><defs><clipPath id="__lottie_element_5023"><rect width="109" height="393" x="0" y="0"></rect></clipPath></defs><g clip-path="url(#__lottie_element_5023)"><g transform="matrix(-0.034033991396427155,0.013767513446509838,0.013767513446509838,0.034033991396427155,32.36997604370117,139.61587524414062)" opacity="1" style="display: block;"><g opacity="1" transform="matrix(1,0,0,1,-0.8550000190734863,38.14500045776367)"><path fill="rgb(194,173,187)" fill-opacity="1" d=" M0,-39.144500732421875 C21.603849411010742,-39.144500732421875 39.144500732421875,-21.603849411010742 39.144500732421875,0 C39.144500732421875,21.603849411010742 21.603849411010742,39.144500732421875 0,39.144500732421875 C-21.603849411010742,39.144500732421875 -39.144500732421875,21.603849411010742 -39.144500732421875,0 C-39.144500732421875,-21.603849411010742 -21.603849411010742,-39.144500732421875 0,-39.144500732421875z"></path><path stroke-linecap="butt" stroke-linejoin="miter" fill-opacity="0" stroke-miterlimit="4" stroke="rgb(175,175,175)" stroke-opacity="1" stroke-width="0" d=" M0,-39.144500732421875 C21.603849411010742,-39.144500732421875 39.144500732421875,-21.603849411010742 39.144500732421875,0 C39.144500732421875,21.603849411010742 21.603849411010742,39.144500732421875 0,39.144500732421875 C-21.603849411010742,39.144500732421875 -39.144500732421875,21.603849411010742 -39.144500732421875,0 C-39.144500732421875,-21.603849411010742 -21.603849411010742,-39.144500732421875 0,-39.144500732421875z"></path></g></g><g transform="matrix(-0.18959175050258636,0.07669411599636078,0.07669411599636078,0.18959175050258636,27.416671752929688,147.78634643554688)" opacity="1" style="display: block;"><g opacity="1" transform="matrix(1,0,0,1,-0.8550000190734863,38.14500045776367)"><path fill="rgb(194,173,187)" fill-opacity="1" d=" M0,-39.144500732421875 C21.603849411010742,-39.144500732421875 39.144500732421875,-21.603849411010742 39.144500732421875,0 C39.144500732421875,21.603849411010742 21.603849411010742,39.144500732421875 0,39.144500732421875 C-21.603849411010742,39.144500732421875 -39.144500732421875,21.603849411010742 -39.144500732421875,0 C-39.144500732421875,-21.603849411010742 -21.603849411010742,-39.144500732421875 0,-39.144500732421875z"></path><path stroke-linecap="butt" stroke-linejoin="miter" fill-opacity="0" stroke-miterlimit="4" stroke="rgb(175,175,175)" stroke-opacity="1" stroke-width="0" d=" M0,-39.144500732421875 C21.603849411010742,-39.144500732421875 39.144500732421875,-21.603849411010742 39.144500732421875,0 C39.144500732421875,21.603849411010742 21.603849411010742,39.144500732421875 0,39.144500732421875 C-21.603849411010742,39.144500732421875 -39.144500732421875,21.603849411010742 -39.144500732421875,0 C-39.144500732421875,-21.603849411010742 -21.603849411010742,-39.144500732421875 0,-39.144500732421875z"></path></g></g><g transform="matrix(-0.15018336474895477,0.060752540826797485,0.060752540826797485,0.15018336474895477,22.372535705566406,170.7947998046875)" opacity="1" style="display: block;"><g opacity="1" transform="matrix(1,0,0,1,-0.8550000190734863,38.14500045776367)"><path fill="rgb(194,173,187)" fill-opacity="1" d=" M0,-39.144500732421875 C21.603849411010742,-39.144500732421875 39.144500732421875,-21.603849411010742 39.144500732421875,0 C39.144500732421875,21.603849411010742 21.603849411010742,39.144500732421875 0,39.144500732421875 C-21.603849411010742,39.144500732421875 -39.144500732421875,21.603849411010742 -39.144500732421875,0 C-39.144500732421875,-21.603849411010742 -21.603849411010742,-39.144500732421875 0,-39.144500732421875z"></path><path stroke-linecap="butt" stroke-linejoin="miter" fill-opacity="0" stroke-miterlimit="4" stroke="rgb(175,175,175)" stroke-opacity="1" stroke-width="0" d=" M0,-39.144500732421875 C21.603849411010742,-39.144500732421875 39.144500732421875,-21.603849411010742 39.144500732421875,0 C39.144500732421875,21.603849411010742 21.603849411010742,39.144500732421875 0,39.144500732421875 C-21.603849411010742,39.144500732421875 -39.144500732421875,21.603849411010742 -39.144500732421875,0 C-39.144500732421875,-21.603849411010742 -21.603849411010742,-39.144500732421875 0,-39.144500732421875z"></path></g></g><g transform="matrix(-0.2695159316062927,0.10902523249387741,0.10902523249387741,0.2695159316062927,18.927181243896484,158.79457092285156)" opacity="1" style="display: block;"><g opacity="1" transform="matrix(1,0,0,1,-0.8550000190734863,38.14500045776367)"><path fill="rgb(194,173,187)" fill-opacity="1" d=" M0,-39.144500732421875 C21.603849411010742,-39.144500732421875 39.144500732421875,-21.603849411010742 39.144500732421875,0 C39.144500732421875,21.603849411010742 21.603849411010742,39.144500732421875 0,39.144500732421875 C-21.603849411010742,39.144500732421875 -39.144500732421875,21.603849411010742 -39.144500732421875,0 C-39.144500732421875,-21.603849411010742 -21.603849411010742,-39.144500732421875 0,-39.144500732421875z"></path><path stroke-linecap="butt" stroke-linejoin="miter" fill-opacity="0" stroke-miterlimit="4" stroke="rgb(175,175,175)" stroke-opacity="1" stroke-width="0" d=" M0,-39.144500732421875 C21.603849411010742,-39.144500732421875 39.144500732421875,-21.603849411010742 39.144500732421875,0 C39.144500732421875,21.603849411010742 21.603849411010742,39.144500732421875 0,39.144500732421875 C-21.603849411010742,39.144500732421875 -39.144500732421875,21.603849411010742 -39.144500732421875,0 C-39.144500732421875,-21.603849411010742 -21.603849411010742,-39.144500732421875 0,-39.144500732421875z"></path></g></g><g transform="matrix(-0.04753408953547478,0.019228605553507805,0.019228605553507805,0.04753408953547478,18.668567657470703,188.06790161132812)" opacity="1" style="display: block;"><g opacity="1" transform="matrix(1,0,0,1,-0.8550000190734863,38.14500045776367)"><path fill="rgb(194,173,187)" fill-opacity="1" d=" M0,-39.144500732421875 C21.603849411010742,-39.144500732421875 39.144500732421875,-21.603849411010742 39.144500732421875,0 C39.144500732421875,21.603849411010742 21.603849411010742,39.144500732421875 0,39.144500732421875 C-21.603849411010742,39.144500732421875 -39.144500732421875,21.603849411010742 -39.144500732421875,0 C-39.144500732421875,-21.603849411010742 -21.603849411010742,-39.144500732421875 0,-39.144500732421875z"></path><path stroke-linecap="butt" stroke-linejoin="miter" fill-opacity="0" stroke-miterlimit="4" stroke="rgb(175,175,175)" stroke-opacity="1" stroke-width="0" d=" M0,-39.144500732421875 C21.603849411010742,-39.144500732421875 39.144500732421875,-21.603849411010742 39.144500732421875,0 C39.144500732421875,21.603849411010742 21.603849411010742,39.144500732421875 0,39.144500732421875 C-21.603849411010742,39.144500732421875 -39.144500732421875,21.603849411010742 -39.144500732421875,0 C-39.144500732421875,-21.603849411010742 -21.603849411010742,-39.144500732421875 0,-39.144500732421875z"></path></g></g><g transform="matrix(1.805999755859375,-0.0007702815346419811,0.0007702815346419811,1.805999755859375,0.6274171471595764,182.38597106933594)" opacity="1" style="display: block;"><g opacity="1" transform="matrix(1,0,0,1,5.008999824523926,12.095999717712402)"><path fill="rgb(95,95,85)" fill-opacity="1" d=" M0.9279999732971191,3.257999897003174 C0.9279999732971191,3.257999897003174 -0.9279999732971191,3.257999897003174 -0.9279999732971191,3.257999897003174 C-1.3990000486373901,3.257999897003174 -1.7790000438690186,2.878000020980835 -1.7790000438690186,2.4070000648498535 C-1.7790000438690186,2.4070000648498535 -1.7790000438690186,-2.4070000648498535 -1.7790000438690186,-2.4070000648498535 C-1.7790000438690186,-2.877000093460083 -1.3990000486373901,-3.257999897003174 -0.9279999732971191,-3.257999897003174 C-0.9279999732971191,-3.257999897003174 0.9279999732971191,-3.257999897003174 0.9279999732971191,-3.257999897003174 C1.3990000486373901,-3.257999897003174 1.7790000438690186,-2.877000093460083 1.7790000438690186,-2.4070000648498535 C1.7790000438690186,-2.4070000648498535 1.7790000438690186,2.4070000648498535 1.7790000438690186,2.4070000648498535 C1.7790000438690186,2.878000020980835 1.3990000486373901,3.257999897003174 0.9279999732971191,3.257999897003174z"></path></g><g opacity="1" transform="matrix(1,0,0,1,19.490999221801758,12.095999717712402)"><path fill="rgb(95,95,85)" fill-opacity="1" d=" M0.9279999732971191,3.257999897003174 C0.9279999732971191,3.257999897003174 -0.9279999732971191,3.257999897003174 -0.9279999732971191,3.257999897003174 C-1.3990000486373901,3.257999897003174 -1.7790000438690186,2.878000020980835 -1.7790000438690186,2.4070000648498535 C-1.7790000438690186,2.4070000648498535 -1.7790000438690186,-2.4070000648498535 -1.7790000438690186,-2.4070000648498535 C-1.7790000438690186,-2.877000093460083 -1.3990000486373901,-3.257999897003174 -0.9279999732971191,-3.257999897003174 C-0.9279999732971191,-3.257999897003174 0.9279999732971191,-3.257999897003174 0.9279999732971191,-3.257999897003174 C1.3990000486373901,-3.257999897003174 1.7790000438690186,-2.877000093460083 1.7790000438690186,-2.4070000648498535 C1.7790000438690186,-2.4070000648498535 1.7790000438690186,2.4070000648498535 1.7790000438690186,2.4070000648498535 C1.7790000438690186,2.878000020980835 1.3990000486373901,3.257999897003174 0.9279999732971191,3.257999897003174z"></path></g><g opacity="1" transform="matrix(1,0,0,1,12.25,6.8460001945495605)"><path fill="rgb(239,82,34)" fill-opacity="1" d=" M0,6.5960001945495605 C0,6.5960001945495605 6.678999900817871,6.5960001945495605 6.678999900817871,6.5960001945495605 C8.52400016784668,6.5960001945495605 10.020999908447266,5.099999904632568 10.020999908447266,3.253999948501587 C10.020999908447266,3.253999948501587 10.020999908447266,0.36500000953674316 10.020999908447266,0.36500000953674316 C10.020999908447266,-0.6660000085830688 8.187000274658203,-4.736000061035156 7.651000022888184,-5.367000102996826 C6.609000205993652,-6.5960001945495605 5.010000228881836,-6.5960001945495605 0,-6.5960001945495605 C-5.011000156402588,-6.5960001945495605 -6.610000133514404,-6.5960001945495605 -7.6519999504089355,-5.367000102996826 C-8.187000274658203,-4.736000061035156 -10.020999908447266,-0.6660000085830688 -10.020999908447266,0.36500000953674316 C-10.020999908447266,0.36500000953674316 -10.020999908447266,3.253999948501587 -10.020999908447266,3.253999948501587 C-10.020999908447266,5.099999904632568 -8.524999618530273,6.5960001945495605 -6.679999828338623,6.5960001945495605 C-6.679999828338623,6.5960001945495605 0,6.5960001945495605 0,6.5960001945495605z"></path></g><g opacity="1" transform="matrix(1,0,0,1,12.25,11.166000366210938)"><path fill="rgb(255,236,172)" fill-opacity="1" d=" M2.3970000743865967,1.1979999542236328 C2.3970000743865967,1.1979999542236328 1.3240000009536743,0.3009999990463257 0.0010000000474974513,0.3009999990463257 C-1.3240000009536743,0.3009999990463257 -2.3970000743865967,1.1979999542236328 -2.3970000743865967,1.1979999542236328 C-2.3970000743865967,-0.12600000202655792 -1.3240000009536743,-1.1979999542236328 0.0010000000474974513,-1.1979999542236328 C1.3240000009536743,-1.1979999542236328 2.3970000743865967,-0.12600000202655792 2.3970000743865967,1.1979999542236328z"></path></g><g opacity="1" transform="matrix(1,0,0,1,5.738999843597412,9.225000381469727)"><path fill="rgb(255,236,172)" fill-opacity="1" d=" M2.5460000038146973,0.13600000739097595 C2.5460000038146973,0.9430000185966492 1.4359999895095825,1.3220000267028809 0.06800000369548798,1.3220000267028809 C-1.2999999523162842,1.3220000267028809 -2.239000082015991,1.1050000190734863 -2.4070000648498535,0.13600000739097595 C-2.5450000762939453,-0.6549999713897705 -2.243000030517578,-1.3220000267028809 -0.875,-1.3220000267028809 C0.49300000071525574,-1.3220000267028809 2.5460000038146973,-0.6700000166893005 2.5460000038146973,0.13600000739097595z"></path></g><g opacity="1" transform="matrix(1,0,0,1,18.760000228881836,9.225000381469727)"><path fill="rgb(255,236,172)" fill-opacity="1" d=" M-2.5450000762939453,0.13600000739097595 C-2.5450000762939453,0.9430000185966492 -1.437000036239624,1.3220000267028809 -0.0689999982714653,1.3220000267028809 C1.2990000247955322,1.3220000267028809 2.240999937057495,1.1050000190734863 2.4089999198913574,0.13600000739097595 C2.5460000038146973,-0.6549999713897705 2.242000102996826,-1.3220000267028809 0.8740000128746033,-1.3220000267028809 C-0.49399998784065247,-1.3220000267028809 -2.5450000762939453,-0.6700000166893005 -2.5450000762939453,0.13600000739097595z"></path></g><g opacity="1" transform="matrix(1,0,0,1,12.24899959564209,4.005000114440918)"><path fill="rgb(255,236,172)" fill-opacity="1" d=" M-8.82699966430664,2.500999927520752 C-5.956999778747559,2.568000078201294 -3.01200008392334,2.6050000190734863 0,2.6050000190734863 C3.010999917984009,2.6050000190734863 5.956999778747559,2.568000078201294 8.82699966430664,2.500999927520752 C8.652000427246094,0.9810000061988831 7.929999828338623,-0.5609999895095825 6.816999912261963,-1.7350000143051147 C6.021999835968018,-2.5739998817443848 4.85099983215332,-2.6050000190734863 0.012000000104308128,-2.6050000190734863 C-4.849999904632568,-2.6050000190734863 -6.021999835968018,-2.5739998817443848 -6.815999984741211,-1.7350000143051147 C-7.929999828338623,-0.5609999895095825 -8.652000427246094,0.9810000061988831 -8.82699966430664,2.500999927520752z"></path></g><g opacity="1" transform="matrix(1,0,0,1,9.331000328063965,4.989999771118164)"><path fill="rgb(29,153,212)" fill-opacity="1" d=" M-1.190000057220459,0 C-1.190000057220459,-0.6570000052452087 -0.6589999794960022,-1.190000057220459 -0.0010000000474974513,-1.190000057220459 C0.6570000052452087,-1.190000057220459 1.190000057220459,-0.6570000052452087 1.190000057220459,0 C1.190000057220459,0.6570000052452087 0.6570000052452087,1.190000057220459 -0.0010000000474974513,1.190000057220459 C-0.6589999794960022,1.190000057220459 -1.190000057220459,0.6570000052452087 -1.190000057220459,0z"></path></g><g opacity="1" transform="matrix(1,0,0,1,15.168000221252441,4.989999771118164)"><path fill="rgb(29,153,212)" fill-opacity="1" d=" M1.190999984741211,0 C1.190999984741211,-0.6570000052452087 0.6579999923706055,-1.190000057220459 0,-1.190000057220459 C-0.6579999923706055,-1.190000057220459 -1.190999984741211,-0.6570000052452087 -1.190999984741211,0 C-1.190999984741211,0.6570000052452087 -0.6579999923706055,1.190000057220459 0,1.190000057220459 C0.6579999923706055,1.190000057220459 1.190999984741211,0.6570000052452087 1.190999984741211,0z"></path></g><g opacity="1" transform="matrix(1,0,0,1,1.8359999656677246,6.610000133514404)"><path fill="rgb(239,82,34)" fill-opacity="1" d=" M1.5859999656677246,0 C1.5859999656677246,-0.6169999837875366 1.2280000448226929,-1.1169999837875366 0.22699999809265137,-1.1169999837875366 C-0.7739999890327454,-1.1169999837875366 -1.5859999656677246,-0.6169999837875366 -1.5859999656677246,0 C-1.5859999656677246,0.6159999966621399 -0.7739999890327454,1.1169999837875366 0.22699999809265137,1.1169999837875366 C1.2280000448226929,1.1169999837875366 1.5859999656677246,0.6159999966621399 1.5859999656677246,0z"></path></g><g opacity="1" transform="matrix(1,0,0,1,22.663999557495117,6.610000133514404)"><path fill="rgb(239,82,34)" fill-opacity="1" d=" M-1.5859999656677246,0 C-1.5859999656677246,-0.6169999837875366 -1.2289999723434448,-1.1169999837875366 -0.22699999809265137,-1.1169999837875366 C0.7739999890327454,-1.1169999837875366 1.5859999656677246,-0.6169999837875366 1.5859999656677246,0 C1.5859999656677246,0.6159999966621399 0.7739999890327454,1.1169999837875366 -0.22699999809265137,1.1169999837875366 C-1.2289999723434448,1.1169999837875366 -1.5859999656677246,0.6159999966621399 -1.5859999656677246,0z"></path></g><g opacity="1" transform="matrix(1,0,0,1,11.954999923706055,2.9779999256134033)"><path fill="rgb(239,82,34)" fill-opacity="1" d=" M-8.425999641418457,1.4630000591278076 C-7.573999881744385,0.5569999814033508 -6.63100004196167,0.41100001335144043 -5.418000221252441,0.6869999766349792 C-3.9179999828338623,1.027999997138977 -3.2149999141693115,2.187000036239624 -0.7149999737739563,2.187000036239624 C-0.7149999737739563,2.187000036239624 -0.3400000035762787,1.7259999513626099 -0.3400000035762787,1.7259999513626099 C-0.3400000035762787,1.7259999513626099 0.8519999980926514,2.0399999618530273 2.874000072479248,1.4980000257492065 C4.894000053405762,0.9570000171661377 6.751999855041504,-0.3140000104904175 8.425999641418457,-0.06300000101327896 C7.171000003814697,-2.0260000228881836 5.1539998054504395,-2.068000078201294 5.1539998054504395,-2.068000078201294 C5.1539998054504395,-2.068000078201294 3.2839999198913574,-2.068000078201294 3.2839999198913574,-2.068000078201294 C3.2839999198913574,-2.068000078201294 -2.696000099182129,-2.068000078201294 -2.696000099182129,-2.068000078201294 C-2.696000099182129,-2.068000078201294 -4.565999984741211,-2.068000078201294 -4.565999984741211,-2.068000078201294 C-4.565999984741211,-2.068000078201294 -6.817999839782715,-2.186000108718872 -8.043000221252441,0.14499999582767487 C-8.237000465393066,0.5120000243186951 -8.29699993133545,0.9639999866485596 -8.425999641418457,1.4630000591278076z"></path></g></g></g></svg>