<svg xmlns="http://www.w3.org/2000/svg" viewBox="0 0 41 25" width="41" height="25" preserveAspectRatio="xMidYMid meet" style="width: 100%; height: 100%; transform: translate3d(0px, 0px, 0px); content-visibility: visible;"><defs><clipPath id="__lottie_element_926"><rect width="41" height="25" x="0" y="0"></rect></clipPath><mask id="__lottie_element_940" mask-type="alpha"><g transform="matrix(0.33329999446868896,0,0,0.33329999446868896,-21.66244888305664,-81.99054718017578)" opacity="1" style="display: block;"><g opacity="1" transform="matrix(1,0,0,1,144.34100341796875,261.9620056152344)"><path fill="rgb(239,82,34)" fill-opacity="1" d=" M-15.135000228881836,0 C-15.135000228881836,8.359000205993652 -8.359999656677246,15.13599967956543 0,15.13599967956543 C8.359000205993652,15.13599967956543 15.135000228881836,8.359000205993652 15.135000228881836,0 C15.135000228881836,-8.359000205993652 8.359000205993652,-15.13599967956543 0,-15.13599967956543 C-8.359999656677246,-15.13599967956543 -15.135000228881836,-8.359000205993652 -15.135000228881836,0z"></path></g><g opacity="1" transform="matrix(1,0,0,1,144.34100341796875,261.9620056152344)"><path fill="rgb(235,230,204)" fill-opacity="1" d=" M-12.437999725341797,0 C-12.437999725341797,6.86899995803833 -6.869999885559082,12.437999725341797 0,12.437999725341797 C6.86899995803833,12.437999725341797 12.437999725341797,6.86899995803833 12.437999725341797,0 C12.437999725341797,-6.86899995803833 6.86899995803833,-12.437999725341797 0,-12.437999725341797 C-6.869999885559082,-12.437999725341797 -12.437999725341797,-6.86899995803833 -12.437999725341797,0z"></path></g></g></mask><mask id="__lottie_element_946" mask-type="alpha"><g transform="matrix(0.33329999446868896,0,0,0.33329999446868896,-21.66244888305664,-81.99054718017578)" opacity="1" style="display: block;"><g opacity="1" transform="matrix(1,0,0,1,144.34100341796875,261.9620056152344)"><path fill="rgb(239,82,34)" fill-opacity="1" d=" M-15.135000228881836,0 C-15.135000228881836,8.359000205993652 -8.359999656677246,15.13599967956543 0,15.13599967956543 C8.359000205993652,15.13599967956543 15.135000228881836,8.359000205993652 15.135000228881836,0 C15.135000228881836,-8.359000205993652 8.359000205993652,-15.13599967956543 0,-15.13599967956543 C-8.359999656677246,-15.13599967956543 -15.135000228881836,-8.359000205993652 -15.135000228881836,0z"></path></g><g opacity="1" transform="matrix(1,0,0,1,144.34100341796875,261.9620056152344)"><path fill="rgb(235,230,204)" fill-opacity="1" d=" M-12.437999725341797,0 C-12.437999725341797,6.86899995803833 -6.869999885559082,12.437999725341797 0,12.437999725341797 C6.86899995803833,12.437999725341797 12.437999725341797,6.86899995803833 12.437999725341797,0 C12.437999725341797,-6.86899995803833 6.86899995803833,-12.437999725341797 0,-12.437999725341797 C-6.869999885559082,-12.437999725341797 -12.437999725341797,-6.86899995803833 -12.437999725341797,0z"></path></g></g></mask><mask id="__lottie_element_958" mask-type="alpha"><g transform="matrix(0.33329999446868896,0,0,0.33329999446868896,-21.66244888305664,-81.99054718017578)" opacity="1" style="display: block;"><g opacity="1" transform="matrix(1,0,0,1,108.98300170898438,261.9620056152344)"><path fill="rgb(239,82,34)" fill-opacity="1" d=" M15.13599967956543,0 C15.13599967956543,8.359000205993652 8.359000205993652,15.13599967956543 -0.0010000000474974513,15.13599967956543 C-8.359999656677246,15.13599967956543 -15.13599967956543,8.359000205993652 -15.13599967956543,0 C-15.13599967956543,-8.359000205993652 -8.359999656677246,-15.13599967956543 -0.0010000000474974513,-15.13599967956543 C8.359000205993652,-15.13599967956543 15.13599967956543,-8.359000205993652 15.13599967956543,0z"></path></g><g opacity="1" transform="matrix(1,0,0,1,108.98200225830078,261.9620056152344)"><path fill="rgb(235,230,204)" fill-opacity="1" d=" M12.437999725341797,0 C12.437999725341797,6.86899995803833 6.869999885559082,12.437999725341797 0,12.437999725341797 C-6.86899995803833,12.437999725341797 -12.437999725341797,6.86899995803833 -12.437999725341797,0 C-12.437999725341797,-6.86899995803833 -6.86899995803833,-12.437999725341797 0,-12.437999725341797 C6.869999885559082,-12.437999725341797 12.437999725341797,-6.86899995803833 12.437999725341797,0z"></path></g></g></mask><mask id="__lottie_element_964" mask-type="alpha"><g transform="matrix(0.33329999446868896,0,0,0.33329999446868896,-21.66244888305664,-81.99054718017578)" opacity="1" style="display: block;"><g opacity="1" transform="matrix(1,0,0,1,108.98300170898438,261.9620056152344)"><path fill="rgb(239,82,34)" fill-opacity="1" d=" M15.13599967956543,0 C15.13599967956543,8.359000205993652 8.359000205993652,15.13599967956543 -0.0010000000474974513,15.13599967956543 C-8.359999656677246,15.13599967956543 -15.13599967956543,8.359000205993652 -15.13599967956543,0 C-15.13599967956543,-8.359000205993652 -8.359999656677246,-15.13599967956543 -0.0010000000474974513,-15.13599967956543 C8.359000205993652,-15.13599967956543 15.13599967956543,-8.359000205993652 15.13599967956543,0z"></path></g><g opacity="1" transform="matrix(1,0,0,1,108.98200225830078,261.9620056152344)"><path fill="rgb(235,230,204)" fill-opacity="1" d=" M12.437999725341797,0 C12.437999725341797,6.86899995803833 6.869999885559082,12.437999725341797 0,12.437999725341797 C-6.86899995803833,12.437999725341797 -12.437999725341797,6.86899995803833 -12.437999725341797,0 C-12.437999725341797,-6.86899995803833 -6.86899995803833,-12.437999725341797 0,-12.437999725341797 C6.869999885559082,-12.437999725341797 12.437999725341797,-6.86899995803833 12.437999725341797,0z"></path></g></g></mask></defs><g clip-path="url(#__lottie_element_926)"><g transform="matrix(0.33329999446868896,0,0,0.33329999446868896,-21.66244888305664,-81.99054718017578)" opacity="1" style="display: block;"><g opacity="1" transform="matrix(1,0,0,1,76.46600341796875,309.9119873046875)"><path fill="rgb(235,230,204)" fill-opacity="1" d=" M10.038999557495117,0 C10.038999557495117,5.544000148773193 5.545000076293945,10.038999557495117 0,10.038999557495117 C-5.544000148773193,10.038999557495117 -10.038999557495117,5.544000148773193 -10.038999557495117,0 C-10.038999557495117,-5.545000076293945 -5.544000148773193,-10.038999557495117 0,-10.038999557495117 C5.545000076293945,-10.038999557495117 10.038999557495117,-5.545000076293945 10.038999557495117,0z"></path></g><g opacity="1" transform="matrix(1,0,0,1,96.54399871826172,309.9119873046875)"><path fill="rgb(235,230,204)" fill-opacity="1" d=" M10.038999557495117,0 C10.038999557495117,5.544000148773193 5.545000076293945,10.038999557495117 0,10.038999557495117 C-5.544000148773193,10.038999557495117 -10.038999557495117,5.544000148773193 -10.038999557495117,0 C-10.038999557495117,-5.545000076293945 -5.544000148773193,-10.038999557495117 0,-10.038999557495117 C5.545000076293945,-10.038999557495117 10.038999557495117,-5.545000076293945 10.038999557495117,0z"></path></g><g opacity="1" transform="matrix(1,0,0,1,116.62200164794922,309.9119873046875)"><path fill="rgb(235,230,204)" fill-opacity="1" d=" M10.038999557495117,0 C10.038999557495117,5.544000148773193 5.545000076293945,10.038999557495117 0,10.038999557495117 C-5.544000148773193,10.038999557495117 -10.038999557495117,5.544000148773193 -10.038999557495117,0 C-10.038999557495117,-5.545000076293945 -5.544000148773193,-10.038999557495117 0,-10.038999557495117 C5.545000076293945,-10.038999557495117 10.038999557495117,-5.545000076293945 10.038999557495117,0z"></path></g><g opacity="1" transform="matrix(1,0,0,1,136.6999969482422,309.9119873046875)"><path fill="rgb(235,230,204)" fill-opacity="1" d=" M10.038999557495117,0 C10.038999557495117,5.544000148773193 5.545000076293945,10.038999557495117 0,10.038999557495117 C-5.544000148773193,10.038999557495117 -10.038999557495117,5.544000148773193 -10.038999557495117,0 C-10.038999557495117,-5.545000076293945 -5.544000148773193,-10.038999557495117 0,-10.038999557495117 C5.545000076293945,-10.038999557495117 10.038999557495117,-5.545000076293945 10.038999557495117,0z"></path></g><g opacity="1" transform="matrix(1,0,0,1,156.7779998779297,309.9119873046875)"><path fill="rgb(235,230,204)" fill-opacity="1" d=" M10.038999557495117,0 C10.038999557495117,5.544000148773193 5.545000076293945,10.038999557495117 0,10.038999557495117 C-5.544000148773193,10.038999557495117 -10.038999557495117,5.544000148773193 -10.038999557495117,0 C-10.038999557495117,-5.545000076293945 -5.544000148773193,-10.038999557495117 0,-10.038999557495117 C5.545000076293945,-10.038999557495117 10.038999557495117,-5.545000076293945 10.038999557495117,0z"></path></g><g opacity="1" transform="matrix(1,0,0,1,176.8560028076172,309.9119873046875)"><path fill="rgb(235,230,204)" fill-opacity="1" d=" M10.038999557495117,0 C10.038999557495117,5.544000148773193 5.545000076293945,10.038999557495117 0,10.038999557495117 C-5.544000148773193,10.038999557495117 -10.038999557495117,5.544000148773193 -10.038999557495117,0 C-10.038999557495117,-5.545000076293945 -5.544000148773193,-10.038999557495117 0,-10.038999557495117 C5.545000076293945,-10.038999557495117 10.038999557495117,-5.545000076293945 10.038999557495117,0z"></path></g><g opacity="1" transform="matrix(1,0,0,1,126.66100311279297,296.44000244140625)"><path fill="rgb(239,82,34)" fill-opacity="1" d=" M-60.23400115966797,13.472999572753906 C-60.23400115966797,13.472999572753906 60.23400115966797,13.472999572753906 60.23400115966797,13.472999572753906 C60.23400115966797,13.472999572753906 60.23400115966797,-13.472999572753906 60.23400115966797,-13.472999572753906 C60.23400115966797,-13.472999572753906 -60.23400115966797,-13.472999572753906 -60.23400115966797,-13.472999572753906 C-60.23400115966797,-13.472999572753906 -60.23400115966797,13.472999572753906 -60.23400115966797,13.472999572753906z"></path></g><g opacity="1" transform="matrix(1,0,0,1,126.66100311279297,269.7080078125)"><path fill="rgb(239,82,34)" fill-opacity="1" d=" M60.23500061035156,13.258000373840332 C43.66999816894531,-3.3459999561309814 22.746999740600586,-13.258000373840332 0,-13.258000373840332 C-22.746000289916992,-13.258000373840332 -43.667999267578125,-3.3459999561309814 -60.23500061035156,13.258000373840332 C-60.23500061035156,13.258000373840332 60.23500061035156,13.258000373840332 60.23500061035156,13.258000373840332z"></path></g></g><g transform="matrix(0.33329999446868896,0,0,0.33329999446868896,-21.66244888305664,-81.99054718017578)" opacity="1" style="display: block;"><g opacity="1" transform="matrix(1,0,0,1,144.34100341796875,261.9620056152344)"><path fill="rgb(239,82,34)" fill-opacity="1" d=" M-15.135000228881836,0 C-15.135000228881836,8.359000205993652 -8.359999656677246,15.13599967956543 0,15.13599967956543 C8.359000205993652,15.13599967956543 15.135000228881836,8.359000205993652 15.135000228881836,0 C15.135000228881836,-8.359000205993652 8.359000205993652,-15.13599967956543 0,-15.13599967956543 C-8.359999656677246,-15.13599967956543 -15.135000228881836,-8.359000205993652 -15.135000228881836,0z"></path></g><g opacity="1" transform="matrix(1,0,0,1,144.34100341796875,261.9620056152344)"><path fill="rgb(235,230,204)" fill-opacity="1" d=" M-12.437999725341797,0 C-12.437999725341797,6.86899995803833 -6.869999885559082,12.437999725341797 0,12.437999725341797 C6.86899995803833,12.437999725341797 12.437999725341797,6.86899995803833 12.437999725341797,0 C12.437999725341797,-6.86899995803833 6.86899995803833,-12.437999725341797 0,-12.437999725341797 C-6.869999885559082,-12.437999725341797 -12.437999725341797,-6.86899995803833 -12.437999725341797,0z"></path></g></g><g transform="matrix(0.33329999446868896,0,0,0.33329999446868896,-20.079275131225586,-83.49040222167969)" opacity="1" style="display: block;"><g opacity="1" transform="matrix(1,0,0,1,144.34100341796875,262.9620056152344)"><path fill="rgb(118,82,108)" fill-opacity="1" d=" M-4.616000175476074,0 C-4.616000175476074,2.5490000247955322 -2.549999952316284,4.616000175476074 0,4.616000175476074 C2.549999952316284,4.616000175476074 4.616000175476074,2.5490000247955322 4.616000175476074,0 C4.616000175476074,-2.549999952316284 2.549999952316284,-4.616000175476074 0,-4.616000175476074 C-2.549999952316284,-4.616000175476074 -4.616000175476074,-2.549999952316284 -4.616000175476074,0z"></path></g></g><g mask="url(#__lottie_element_940)" style="display: block;"><g transform="matrix(0.33329999446868896,0,0,0.1299869865179062,14.583925247192383,17.666149139404297)" opacity="1"><path fill="rgb(240,83,35)" fill-opacity="1" d=" M50,-50 C50,-50 50,50 50,50 C50,50 -50,50 -50,50 C-50,50 -50,-50 -50,-50 C-50,-50 50,-50 50,-50z"></path></g></g><g mask="url(#__lottie_element_946)" style="display: block;"><g transform="matrix(0.33329999446868896,0,0,0.1299869865179062,14.750575065612793,-7.2480244636535645)" opacity="1"><path fill="rgb(240,83,35)" fill-opacity="1" d=" M50,-50 C50,-50 50,50 50,50 C50,50 -50,50 -50,50 C-50,50 -50,-50 -50,-50 C-50,-50 50,-50 50,-50z"></path></g></g><g transform="matrix(0.33329999446868896,0,0,0.33329999446868896,-21.66244888305664,-81.99054718017578)" opacity="1" style="display: block;"><g opacity="1" transform="matrix(1,0,0,1,108.98300170898438,261.9620056152344)"><path fill="rgb(239,82,34)" fill-opacity="1" d=" M15.13599967956543,0 C15.13599967956543,8.359000205993652 8.359000205993652,15.13599967956543 -0.0010000000474974513,15.13599967956543 C-8.359999656677246,15.13599967956543 -15.13599967956543,8.359000205993652 -15.13599967956543,0 C-15.13599967956543,-8.359000205993652 -8.359999656677246,-15.13599967956543 -0.0010000000474974513,-15.13599967956543 C8.359000205993652,-15.13599967956543 15.13599967956543,-8.359000205993652 15.13599967956543,0z"></path></g><g opacity="1" transform="matrix(1,0,0,1,108.98200225830078,261.9620056152344)"><path fill="rgb(235,230,204)" fill-opacity="1" d=" M12.437999725341797,0 C12.437999725341797,6.86899995803833 6.869999885559082,12.437999725341797 0,12.437999725341797 C-6.86899995803833,12.437999725341797 -12.437999725341797,6.86899995803833 -12.437999725341797,0 C-12.437999725341797,-6.86899995803833 -6.86899995803833,-12.437999725341797 0,-12.437999725341797 C6.869999885559082,-12.437999725341797 12.437999725341797,-6.86899995803833 12.437999725341797,0z"></path></g></g><g transform="matrix(0.33329999446868896,0,0,0.33329999446868896,-19.829299926757812,-83.49040222167969)" opacity="1" style="display: block;"><g opacity="1" transform="matrix(1,0,0,1,108.98200225830078,262.9620056152344)"><path fill="rgb(118,82,108)" fill-opacity="1" d=" M4.617000102996826,0 C4.617000102996826,2.5490000247955322 2.549999952316284,4.616000175476074 0,4.616000175476074 C-2.549999952316284,4.616000175476074 -4.617000102996826,2.5490000247955322 -4.617000102996826,0 C-4.617000102996826,-2.549999952316284 -2.549999952316284,-4.616000175476074 0,-4.616000175476074 C2.549999952316284,-4.616000175476074 4.617000102996826,-2.549999952316284 4.617000102996826,0z"></path></g></g><g mask="url(#__lottie_element_958)" style="display: block;"><g transform="matrix(0.33329999446868896,0,0,0.1299869865179062,14.583925247192383,17.666149139404297)" opacity="1"><path fill="rgb(240,83,35)" fill-opacity="1" d=" M50,-50 C50,-50 50,50 50,50 C50,50 -50,50 -50,50 C-50,50 -50,-50 -50,-50 C-50,-50 50,-50 50,-50z"></path></g></g><g mask="url(#__lottie_element_964)" style="display: block;"><g transform="matrix(0.33329999446868896,0,0,0.1299869865179062,14.750575065612793,-7.2480244636535645)" opacity="1"><path fill="rgb(240,83,35)" fill-opacity="1" d=" M50,-50 C50,-50 50,50 50,50 C50,50 -50,50 -50,50 C-50,50 -50,-50 -50,-50 C-50,-50 50,-50 50,-50z"></path></g></g><g transform="matrix(0.33329999446868896,0,0,0.33329999446868896,-21.66244888305664,-81.99054718017578)" opacity="1" style="display: block;"><g opacity="1" transform="matrix(1,0,0,1,126.66100311279297,288.8580017089844)"><path fill="rgb(255,201,77)" fill-opacity="1" d=" M15.831999778747559,5.35099983215332 C15.831999778747559,17.656999588012695 8.199999809265137,22.280000686645508 0,22.280000686645508 C-8.199000358581543,22.280000686645508 -15.831999778747559,17.656999588012695 -15.831999778747559,5.35099983215332 C-15.831999778747559,-6.953999996185303 -5.879000186920166,-22.280000686645508 0,-22.280000686645508 C5.880000114440918,-22.280000686645508 15.831999778747559,-6.953999996185303 15.831999778747559,5.35099983215332z"></path></g></g></g></svg>