<svg xmlns="http://www.w3.org/2000/svg" viewBox="0 0 66 78" width="66" height="78" preserveAspectRatio="xMidYMid meet" style="width: 100%; height: 100%; transform: translate3d(0px, 0px, 0px); content-visibility: visible;"><defs><clipPath id="__lottie_element_2545"><rect width="66" height="78" x="0" y="0"></rect></clipPath><mask id="__lottie_element_2553" mask-type="alpha"><g transform="matrix(1.8059998750686646,0,0,1.8059998750686646,-115.76024627685547,-65.98028564453125)" opacity="1" style="display: block;"><g opacity="1" transform="matrix(1,0,0,1,517.97802734375,-8.357000350952148)"><path fill="rgb(136,212,235)" fill-opacity="1" d=" M-453.71099853515625,45.12099838256836 C-453.71099853515625,45.12099838256836 -435.7929992675781,80.87200164794922 -435.7929992675781,80.87200164794922 C-434.0880126953125,84.27300262451172 -431.8210144042969,87.93399810791016 -427.94500732421875,87.93399810791016 C-427.94500732421875,87.93399810791016 -417.802001953125,87.93399810791016 -417.802001953125,87.93399810791016 C-421.6780090332031,87.93399810791016 -423.94500732421875,84.27300262451172 -425.6499938964844,80.87200164794922 C-425.6499938964844,80.87200164794922 -442.77899169921875,46.69599914550781 -442.77899169921875,46.69599914550781 C-443.2619934082031,45.73099899291992 -444.2489929199219,45.12099838256836 -445.3290100097656,45.12099838256836 C-445.3290100097656,45.12099838256836 -453.71099853515625,45.12099838256836 -453.71099853515625,45.12099838256836z"></path></g></g></mask><mask id="__lottie_element_2559" mask-type="alpha"><g transform="matrix(1.8059998750686646,0,0,1.8059998750686646,-115.76024627685547,-65.98028564453125)" opacity="1" style="display: block;"><g opacity="1" transform="matrix(1,0,0,1,517.97802734375,-8.357000350952148)"><path fill="rgb(136,212,235)" fill-opacity="1" d=" M-453.71099853515625,45.12099838256836 C-453.71099853515625,45.12099838256836 -435.7929992675781,80.87200164794922 -435.7929992675781,80.87200164794922 C-434.0880126953125,84.27300262451172 -431.8210144042969,87.93399810791016 -427.94500732421875,87.93399810791016 C-427.94500732421875,87.93399810791016 -417.802001953125,87.93399810791016 -417.802001953125,87.93399810791016 C-421.6780090332031,87.93399810791016 -423.94500732421875,84.27300262451172 -425.6499938964844,80.87200164794922 C-425.6499938964844,80.87200164794922 -442.77899169921875,46.69599914550781 -442.77899169921875,46.69599914550781 C-443.2619934082031,45.73099899291992 -444.2489929199219,45.12099838256836 -445.3290100097656,45.12099838256836 C-445.3290100097656,45.12099838256836 -453.71099853515625,45.12099838256836 -453.71099853515625,45.12099838256836z"></path></g></g></mask></defs><g clip-path="url(#__lottie_element_2545)"><g transform="matrix(1.8059998750686646,0,0,1.8059998750686646,-115.76024627685547,-65.98028564453125)" opacity="1" style="display: block;"><g opacity="1" transform="matrix(1,0,0,1,517.97802734375,-8.357000350952148)"><path fill="rgb(136,212,235)" fill-opacity="1" d=" M-453.71099853515625,45.12099838256836 C-453.71099853515625,45.12099838256836 -435.7929992675781,80.87200164794922 -435.7929992675781,80.87200164794922 C-434.0880126953125,84.27300262451172 -431.8210144042969,87.93399810791016 -427.94500732421875,87.93399810791016 C-427.94500732421875,87.93399810791016 -417.802001953125,87.93399810791016 -417.802001953125,87.93399810791016 C-421.6780090332031,87.93399810791016 -423.94500732421875,84.27300262451172 -425.6499938964844,80.87200164794922 C-425.6499938964844,80.87200164794922 -442.77899169921875,46.69599914550781 -442.77899169921875,46.69599914550781 C-443.2619934082031,45.73099899291992 -444.2489929199219,45.12099838256836 -445.3290100097656,45.12099838256836 C-445.3290100097656,45.12099838256836 -453.71099853515625,45.12099838256836 -453.71099853515625,45.12099838256836z"></path></g></g><g mask="url(#__lottie_element_2553)" style="display: block;"><g transform="matrix(1.8059998750686646,0,0,1.8059998750686646,-147.72413635253906,-128.14796447753906)" opacity="1"><g opacity="1" transform="matrix(1,0,0,1,74.27799987792969,46.902000427246094)"><path fill="rgb(184,228,250)" fill-opacity="1" d=" M6.828000068664551,3.0859999656677246 C7.198999881744385,3.8910000324249268 6.25600004196167,4.429999828338623 4.857999801635742,4.429999828338623 C3.246999979019165,4.429999828338623 2.1679999828338623,4.002999782562256 1.7790000438690186,3.121000051498413 C2.131999969482422,3.950000047683716 1.1979999542236328,4.465000152587891 -0.20000000298023224,4.465000152587891 C-1.8109999895095825,4.465000152587891 -2.8429999351501465,4.0269999504089355 -3.2790000438690186,3.1559998989105225 C-3.2790000438690186,3.1559998989105225 -5.557000160217285,-1.2519999742507935 -5.557000160217285,-1.2519999742507935 C-5.166999816894531,-0.3700000047683716 -4.089000225067139,0.05700000002980232 -2.4769999980926514,0.05700000002980232 C-1.0789999961853027,0.05700000002980232 -0.14499999582767487,-0.4580000042915344 -0.49900001287460327,-1.2869999408721924 C-0.10899999737739563,-0.4059999883174896 0.9700000286102295,0.020999999716877937 2.5820000171661377,0.020999999716877937 C3.9800000190734863,0.020999999716877937 4.934999942779541,-0.5080000162124634 4.552000045776367,-1.3220000267028809 C4.552000045776367,-1.3220000267028809 6.828000068664551,3.0859999656677246 6.828000068664551,3.0859999656677246z"></path></g><g opacity="1" transform="matrix(1,0,0,1,79.87000274658203,58.05099868774414)"><path fill="rgb(184,228,250)" fill-opacity="1" d=" M6.828000068664551,3.0859999656677246 C7.198999881744385,3.8910000324249268 6.25600004196167,4.429999828338623 4.857999801635742,4.429999828338623 C3.246999979019165,4.429999828338623 2.1679999828338623,4.002999782562256 1.7790000438690186,3.121000051498413 C2.131999969482422,3.950000047683716 1.1979999542236328,4.465000152587891 -0.20000000298023224,4.465000152587891 C-1.8109999895095825,4.465000152587891 -2.8429999351501465,4.0269999504089355 -3.2790000438690186,3.1559998989105225 C-3.2790000438690186,3.1559998989105225 -5.557000160217285,-1.2519999742507935 -5.557000160217285,-1.2519999742507935 C-5.166999816894531,-0.3700000047683716 -4.089000225067139,0.05700000002980232 -2.4769999980926514,0.05700000002980232 C-1.0789999961853027,0.05700000002980232 -0.14499999582767487,-0.4580000042915344 -0.49900001287460327,-1.2869999408721924 C-0.10899999737739563,-0.4059999883174896 0.9700000286102295,0.020999999716877937 2.5820000171661377,0.020999999716877937 C3.9800000190734863,0.020999999716877937 4.934999942779541,-0.5080000162124634 4.552000045776367,-1.3220000267028809 C4.552000045776367,-1.3220000267028809 6.828000068664551,3.0859999656677246 6.828000068664551,3.0859999656677246z"></path></g><g opacity="1" transform="matrix(1,0,0,1,85.46099853515625,69.19999694824219)"><path fill="rgb(184,228,250)" fill-opacity="1" d=" M6.828000068664551,3.0859999656677246 C7.198999881744385,3.8910000324249268 6.25600004196167,4.429999828338623 4.857999801635742,4.429999828338623 C3.246999979019165,4.429999828338623 2.1679999828338623,4.002999782562256 1.7790000438690186,3.121000051498413 C2.131999969482422,3.950000047683716 1.1979999542236328,4.465000152587891 -0.20000000298023224,4.465000152587891 C-1.8109999895095825,4.465000152587891 -2.8429999351501465,4.0269999504089355 -3.2790000438690186,3.1559998989105225 C-3.2790000438690186,3.1559998989105225 -5.557000160217285,-1.2519999742507935 -5.557000160217285,-1.2519999742507935 C-5.166999816894531,-0.3700000047683716 -4.089000225067139,0.05700000002980232 -2.4769999980926514,0.05700000002980232 C-1.0789999961853027,0.05700000002980232 -0.14499999582767487,-0.4580000042915344 -0.49900001287460327,-1.2869999408721924 C-0.10899999737739563,-0.4059999883174896 0.9700000286102295,0.02199999988079071 2.5820000171661377,0.02199999988079071 C3.9800000190734863,0.02199999988079071 4.934999942779541,-0.5080000162124634 4.552000045776367,-1.3220000267028809 C4.552000045776367,-1.3220000267028809 6.828000068664551,3.0859999656677246 6.828000068664551,3.0859999656677246z"></path></g></g></g><g mask="url(#__lottie_element_2559)" style="display: block;"><g transform="matrix(1.8059998750686646,0,0,1.8059998750686646,-115.73213958740234,-65.84097290039062)" opacity="1"><g opacity="1" transform="matrix(1,0,0,1,74.27799987792969,46.902000427246094)"><path fill="rgb(184,228,250)" fill-opacity="1" d=" M6.613999843597412,2.799999952316284 C6.985000133514404,3.6050000190734863 6.041999816894531,4.144000053405762 4.644000053405762,4.144000053405762 C3.0329999923706055,4.144000053405762 1.9539999961853027,3.7170000076293945 1.565000057220459,2.8350000381469727 C1.9179999828338623,3.6640000343322754 0.984000027179718,4.178999900817871 -0.414000004529953,4.178999900817871 C-2.0250000953674316,4.178999900817871 -3.056999921798706,3.740999937057495 -3.493000030517578,2.869999885559082 C-3.493000030517578,2.869999885559082 -5.557000160217285,-1.2519999742507935 -5.557000160217285,-1.2519999742507935 C-5.166999816894531,-0.3700000047683716 -4.089000225067139,0.05700000002980232 -2.4769999980926514,0.05700000002980232 C-1.0789999961853027,0.05700000002980232 -0.14499999582767487,-0.4580000042915344 -0.49900001287460327,-1.2869999408721924 C-0.10899999737739563,-0.4059999883174896 0.9700000286102295,0.020999999716877937 2.5820000171661377,0.020999999716877937 C3.9800000190734863,0.020999999716877937 4.934999942779541,-0.5080000162124634 4.552000045776367,-1.3220000267028809 C4.552000045776367,-1.3220000267028809 6.613999843597412,2.799999952316284 6.613999843597412,2.799999952316284z"></path></g><g opacity="1" transform="matrix(1,0,0,1,79.87000274658203,58.05099868774414)"><path fill="rgb(184,228,250)" fill-opacity="1" d=" M6.613999843597412,2.799999952316284 C6.985000133514404,3.6050000190734863 6.041999816894531,4.144000053405762 4.644000053405762,4.144000053405762 C3.0329999923706055,4.144000053405762 1.9539999961853027,3.7170000076293945 1.565000057220459,2.8350000381469727 C1.9179999828338623,3.6640000343322754 0.984000027179718,4.178999900817871 -0.414000004529953,4.178999900817871 C-2.0250000953674316,4.178999900817871 -3.056999921798706,3.740999937057495 -3.493000030517578,2.869999885559082 C-3.493000030517578,2.869999885559082 -5.557000160217285,-1.2519999742507935 -5.557000160217285,-1.2519999742507935 C-5.166999816894531,-0.3700000047683716 -4.089000225067139,0.05700000002980232 -2.4769999980926514,0.05700000002980232 C-1.0789999961853027,0.05700000002980232 -0.14499999582767487,-0.4580000042915344 -0.49900001287460327,-1.2869999408721924 C-0.10899999737739563,-0.4059999883174896 0.9700000286102295,0.020999999716877937 2.5820000171661377,0.020999999716877937 C3.9800000190734863,0.020999999716877937 4.934999942779541,-0.5080000162124634 4.552000045776367,-1.3220000267028809 C4.552000045776367,-1.3220000267028809 6.613999843597412,2.799999952316284 6.613999843597412,2.799999952316284z"></path></g><g opacity="1" transform="matrix(1,0,0,1,85.46099853515625,69.19999694824219)"><path fill="rgb(184,228,250)" fill-opacity="1" d=" M6.613999843597412,2.799999952316284 C6.985000133514404,3.6050000190734863 6.041999816894531,4.144000053405762 4.644000053405762,4.144000053405762 C3.0329999923706055,4.144000053405762 1.9539999961853027,3.7170000076293945 1.565000057220459,2.8350000381469727 C1.9179999828338623,3.6640000343322754 0.984000027179718,4.178999900817871 -0.414000004529953,4.178999900817871 C-2.0250000953674316,4.178999900817871 -3.056999921798706,3.740999937057495 -3.493000030517578,2.869999885559082 C-3.493000030517578,2.869999885559082 -5.557000160217285,-1.2519999742507935 -5.557000160217285,-1.2519999742507935 C-5.166999816894531,-0.3700000047683716 -4.089000225067139,0.05700000002980232 -2.4769999980926514,0.05700000002980232 C-1.0789999961853027,0.05700000002980232 -0.14499999582767487,-0.4580000042915344 -0.49900001287460327,-1.2869999408721924 C-0.10899999737739563,-0.4059999883174896 0.9700000286102295,0.02199999988079071 2.5820000171661377,0.02199999988079071 C3.9800000190734863,0.02199999988079071 4.934999942779541,-0.5080000162124634 4.552000045776367,-1.3220000267028809 C4.552000045776367,-1.3220000267028809 6.613999843597412,2.799999952316284 6.613999843597412,2.799999952316284z"></path></g></g></g></g></svg>