<svg xmlns="http://www.w3.org/2000/svg" viewBox="0 0 62 41" width="62" height="41" preserveAspectRatio="xMidYMid meet" style="width: 100%; height: 100%; transform: translate3d(0px, 0px, 0px); content-visibility: visible;"><defs><clipPath id="__lottie_element_2805"><rect width="62" height="41" x="0" y="0"></rect></clipPath></defs><g clip-path="url(#__lottie_element_2805)"><g transform="matrix(0.3330000042915344,0,0,0.3330000042915344,16.93807601928711,9.084760665893555)" opacity="1" style="display: block;"><g opacity="1" transform="matrix(1,0,0,1,42.27799987792969,64.1520004272461)"><path fill="rgb(119,118,125)" fill-opacity="1" d=" M39.172000885009766,0.0020000000949949026 C39.172000885009766,-2.5230000019073486 21.632999420166016,-4.567999839782715 -0.0020000000949949026,-4.567999839782715 C-21.636999130249023,-4.567999839782715 -39.17499923706055,-2.5230000019073486 -39.17499923706055,0.0020000000949949026 C-39.17499923706055,2.5260000228881836 -21.636999130249023,4.572999954223633 -0.0020000000949949026,4.572999954223633 C21.632999420166016,4.572999954223633 39.172000885009766,2.5260000228881836 39.172000885009766,0.0020000000949949026z"></path></g><g opacity="1" transform="matrix(1,0,0,1,12.793000221252441,54.486000061035156)"><path fill="rgb(77,67,95)" fill-opacity="1" d=" M4.815999984741211,9.484999656677246 C4.815999984741211,9.484999656677246 -4.816999912261963,9.484999656677246 -4.816999912261963,9.484999656677246 C-6.0970001220703125,9.484999656677246 -7.133999824523926,8.446999549865723 -7.133999824523926,7.166999816894531 C-7.133999824523926,7.166999816894531 -7.133999824523926,-7.166999816894531 -7.133999824523926,-7.166999816894531 C-7.133999824523926,-8.446999549865723 -6.0970001220703125,-9.484999656677246 -4.816999912261963,-9.484999656677246 C-4.816999912261963,-9.484999656677246 4.815999984741211,-9.484999656677246 4.815999984741211,-9.484999656677246 C6.0960001945495605,-9.484999656677246 7.133999824523926,-8.446999549865723 7.133999824523926,-7.166999816894531 C7.133999824523926,-7.166999816894531 7.133999824523926,7.166999816894531 7.133999824523926,7.166999816894531 C7.133999824523926,8.446999549865723 6.0960001945495605,9.484999656677246 4.815999984741211,9.484999656677246z"></path></g><g opacity="1" transform="matrix(1,0,0,1,71.76000213623047,54.486000061035156)"><path fill="rgb(77,67,95)" fill-opacity="1" d=" M4.815999984741211,9.484999656677246 C4.815999984741211,9.484999656677246 -4.815999984741211,9.484999656677246 -4.815999984741211,9.484999656677246 C-6.0960001945495605,9.484999656677246 -7.133999824523926,8.446999549865723 -7.133999824523926,7.166999816894531 C-7.133999824523926,7.166999816894531 -7.133999824523926,-7.166999816894531 -7.133999824523926,-7.166999816894531 C-7.133999824523926,-8.446999549865723 -6.0960001945495605,-9.484999656677246 -4.815999984741211,-9.484999656677246 C-4.815999984741211,-9.484999656677246 4.815999984741211,-9.484999656677246 4.815999984741211,-9.484999656677246 C6.0960001945495605,-9.484999656677246 7.133999824523926,-8.446999549865723 7.133999824523926,-7.166999816894531 C7.133999824523926,-7.166999816894531 7.133999824523926,7.166999816894531 7.133999824523926,7.166999816894531 C7.133999824523926,8.446999549865723 6.0960001945495605,9.484999656677246 4.815999984741211,9.484999656677246z"></path></g><g opacity="1" transform="matrix(1,0,0,1,42.277000427246094,14.82699966430664)"><path fill="rgb(189,172,182)" fill-opacity="1" d=" M24.04400062561035,14.576000213623047 C24.04400062561035,14.576000213623047 -24.04400062561035,14.576000213623047 -24.04400062561035,14.576000213623047 C-24.04400062561035,14.576000213623047 -24.04400062561035,-3.5950000286102295 -24.04400062561035,-3.5950000286102295 C-24.04400062561035,-9.64900016784668 -19.1200008392334,-14.576000213623047 -13.065999984741211,-14.576000213623047 C-13.065999984741211,-14.576000213623047 13.065999984741211,-14.576000213623047 13.065999984741211,-14.576000213623047 C19.1200008392334,-14.576000213623047 24.04400062561035,-9.64900016784668 24.04400062561035,-3.5950000286102295 C24.04400062561035,-3.5950000286102295 24.04400062561035,14.576000213623047 24.04400062561035,14.576000213623047z"></path></g><g opacity="1" transform="matrix(1,0,0,1,31.458999633789062,14.82699966430664)"><path fill="rgb(77,67,95)" fill-opacity="1" d=" M7.822000026702881,9.17199993133545 C7.822000026702881,9.17199993133545 -7.822000026702881,9.17199993133545 -7.822000026702881,9.17199993133545 C-7.822000026702881,9.17199993133545 -7.822000026702881,-3.5959999561309814 -7.822000026702881,-3.5959999561309814 C-7.822000026702881,-6.675000190734863 -5.324999809265137,-9.17199993133545 -2.244999885559082,-9.17199993133545 C-2.244999885559082,-9.17199993133545 2.244999885559082,-9.17199993133545 2.244999885559082,-9.17199993133545 C5.324999809265137,-9.17199993133545 7.822000026702881,-6.675000190734863 7.822000026702881,-3.5959999561309814 C7.822000026702881,-3.5959999561309814 7.822000026702881,9.17199993133545 7.822000026702881,9.17199993133545z"></path></g><g opacity="1" transform="matrix(1,0,0,1,53.095001220703125,14.82699966430664)"><path fill="rgb(77,67,95)" fill-opacity="1" d=" M-7.821000099182129,9.17199993133545 C-7.821000099182129,9.17199993133545 7.821000099182129,9.17199993133545 7.821000099182129,9.17199993133545 C7.821000099182129,9.17199993133545 7.821000099182129,-3.5959999561309814 7.821000099182129,-3.5959999561309814 C7.821000099182129,-6.675000190734863 5.324999809265137,-9.17199993133545 2.244999885559082,-9.17199993133545 C2.244999885559082,-9.17199993133545 -2.246000051498413,-9.17199993133545 -2.246000051498413,-9.17199993133545 C-5.326000213623047,-9.17199993133545 -7.821000099182129,-6.675000190734863 -7.821000099182129,-3.5959999561309814 C-7.821000099182129,-3.5959999561309814 -7.821000099182129,9.17199993133545 -7.821000099182129,9.17199993133545z"></path></g><g opacity="1" transform="matrix(1,0,0,1,42.277000427246094,18.868000030517578)"><path fill="rgb(77,67,95)" fill-opacity="1" d=" M18.638999938964844,-5.13100004196167 C18.638999938964844,-5.13100004196167 -18.638999938964844,-5.13100004196167 -18.638999938964844,-5.13100004196167 C-18.638999938964844,-5.13100004196167 -18.638999938964844,5.13100004196167 -18.638999938964844,5.13100004196167 C-18.638999938964844,5.13100004196167 18.638999938964844,5.13100004196167 18.638999938964844,5.13100004196167 C18.638999938964844,5.13100004196167 18.638999938964844,-5.13100004196167 18.638999938964844,-5.13100004196167z"></path></g><g opacity="1" transform="matrix(1,0,0,1,42.277000427246094,33.14799880981445)"><path fill="rgb(17,128,195)" fill-opacity="1" d=" M28.389999389648438,-11.852999687194824 C42.027000427246094,-11.852999687194824 42.027000427246094,11.852999687194824 42.027000427246094,11.852999687194824 C42.027000427246094,11.852999687194824 -42.027000427246094,11.852999687194824 -42.027000427246094,11.852999687194824 C-42.027000427246094,11.852999687194824 -42.027000427246094,-11.852999687194824 -28.389999389648438,-11.852999687194824 C-28.389999389648438,-11.852999687194824 28.389999389648438,-11.852999687194824 28.389999389648438,-11.852999687194824z"></path><path fill="rgb(29,153,212)" fill-opacity="1" d=" M28.389999389648438,-11.852999687194824 C42.027000427246094,-11.852999687194824 42.027000427246094,11.852999687194824 42.027000427246094,11.852999687194824 C42.027000427246094,11.852999687194824 -42.027000427246094,11.852999687194824 -42.027000427246094,11.852999687194824 C-42.027000427246094,11.852999687194824 -42.027000427246094,-11.852999687194824 -28.389999389648438,-11.852999687194824 C-28.389999389648438,-11.852999687194824 28.389999389648438,-11.852999687194824 28.389999389648438,-11.852999687194824z"></path></g><g opacity="1" transform="matrix(1,0,0,1,42.277000427246094,34.422000885009766)"><path fill="rgb(230,235,246)" fill-opacity="1" d=" M35.08399963378906,-10.579000473022461 C35.652000427246094,-4.0370001792907715 35.65700149536133,1.1399999856948853 35.65700149536133,1.1399999856948853 C35.65700149536133,1.1399999856948853 -35.65999984741211,1.1399999856948853 -35.65999984741211,1.1399999856948853 C-35.65999984741211,1.1399999856948853 -35.654998779296875,-4.034999847412109 -35.08700180053711,-10.576000213623047 C-42.00400161743164,-4.46999979019165 -42.027000427246094,10.579000473022461 -42.027000427246094,10.579000473022461 C-42.027000427246094,10.579000473022461 42.027000427246094,10.579000473022461 42.027000427246094,10.579000473022461 C42.027000427246094,10.579000473022461 42.005001068115234,-4.474999904632568 35.08399963378906,-10.579000473022461z"></path></g><g opacity="1" transform="matrix(1,0,0,1,42.277000427246094,48.63100051879883)"><path fill="rgb(189,172,182)" fill-opacity="1" d=" M42.027000427246094,3.630000114440918 C42.027000427246094,3.630000114440918 -42.027000427246094,3.630000114440918 -42.027000427246094,3.630000114440918 C-42.027000427246094,3.630000114440918 -42.027000427246094,-3.630000114440918 -42.027000427246094,-3.630000114440918 C-42.027000427246094,-3.630000114440918 42.027000427246094,-3.630000114440918 42.027000427246094,-3.630000114440918 C42.027000427246094,-3.630000114440918 42.027000427246094,3.630000114440918 42.027000427246094,3.630000114440918z"></path></g><g opacity="1" transform="matrix(1,0,0,1,42.277000427246094,42.297000885009766)"><path fill="rgb(17,128,195)" fill-opacity="1" d=" M-41.619998931884766,-2.7049999237060547 C-42.02399826049805,0.42899999022483826 -42.027000427246094,2.7049999237060547 -42.027000427246094,2.7049999237060547 C-42.027000427246094,2.7049999237060547 42.027000427246094,2.7049999237060547 42.027000427246094,2.7049999237060547 C42.027000427246094,2.7049999237060547 42.025001525878906,0.42899999022483826 41.619998931884766,-2.7049999237060547 C41.619998931884766,-2.7049999237060547 -41.619998931884766,-2.7049999237060547 -41.619998931884766,-2.7049999237060547z"></path></g><g opacity="1" transform="matrix(1,0,0,1,42.277000427246094,27.493999481201172)"><path fill="rgb(230,235,246)" fill-opacity="1" d=" M4.045000076293945,-9.463000297546387 C4.045000076293945,-9.463000297546387 -4.046000003814697,-9.463000297546387 -4.046000003814697,-9.463000297546387 C-6.815000057220459,-9.463000297546387 -9.059000015258789,-7.2170000076293945 -9.059000015258789,-4.447000026702881 C-9.059000015258789,-4.447000026702881 -0.0010000000474974513,9.463000297546387 -0.0010000000474974513,9.463000297546387 C-0.0010000000474974513,9.463000297546387 9.059000015258789,-4.447000026702881 9.059000015258789,-4.447000026702881 C9.059000015258789,-7.2170000076293945 6.815000057220459,-9.463000297546387 4.045000076293945,-9.463000297546387z"></path></g></g></g></svg>