<svg xmlns="http://www.w3.org/2000/svg" viewBox="0 0 11 22" width="11" height="22" preserveAspectRatio="xMidYMid meet" style="width: 100%; height: 100%; transform: translate3d(0px, 0px, 0px); content-visibility: visible;"><defs><clipPath id="__lottie_element_2479"><rect width="11" height="22" x="0" y="0"></rect></clipPath></defs><g clip-path="url(#__lottie_element_2479)"><g transform="matrix(0.257999986410141,0,0,0.257999986410141,-10.607455253601074,1.4619981050491333)" opacity="1" style="display: block;"><g opacity="1" transform="matrix(1,0,0,1,62.31399917602539,25.150999069213867)"><path fill="rgb(243,128,47)" fill-opacity="1" d=" M-15.14900016784668,24.899999618530273 C-15.14900016784668,24.899999618530273 15.14799976348877,24.899999618530273 15.14799976348877,24.899999618530273 C17.31800079345703,24.899999618530273 19.077999114990234,23.142000198364258 19.077999114990234,20.972000122070312 C19.077999114990234,20.972000122070312 19.077999114990234,-20.97100067138672 19.077999114990234,-20.97100067138672 C19.077999114990234,-23.141000747680664 17.31800079345703,-24.899999618530273 15.14799976348877,-24.899999618530273 C15.14799976348877,-24.899999618530273 -15.14900016784668,-24.899999618530273 -15.14900016784668,-24.899999618530273 C-17.319000244140625,-24.899999618530273 -19.077999114990234,-23.141000747680664 -19.077999114990234,-20.97100067138672 C-19.077999114990234,-20.97100067138672 -19.077999114990234,20.972000122070312 -19.077999114990234,20.972000122070312 C-19.077999114990234,23.142000198364258 -17.319000244140625,24.899999618530273 -15.14900016784668,24.899999618530273z"></path></g><g opacity="1" transform="matrix(1,0,0,1,0,0)"><path stroke-linecap="round" stroke-linejoin="round" fill-opacity="0" stroke="rgb(78,67,95)" stroke-opacity="1" stroke-width="3.95" d=" M71.26899719238281,10.260000228881836 C71.26899719238281,10.260000228881836 53.35900115966797,10.260000228881836 53.35900115966797,10.260000228881836"></path></g><g opacity="1" transform="matrix(1,0,0,1,0,0)"><path stroke-linecap="round" stroke-linejoin="round" fill-opacity="0" stroke="rgb(78,67,95)" stroke-opacity="1" stroke-width="3.95" d=" M71.26899719238281,17.72800064086914 C71.26899719238281,17.72800064086914 53.35900115966797,17.72800064086914 53.35900115966797,17.72800064086914"></path></g><g opacity="1" transform="matrix(1,0,0,1,62.31399917602539,37.599998474121094)"><path fill="rgb(188,99,37)" fill-opacity="1" d=" M-13.147000312805176,6.369999885559082 C-13.147000312805176,6.369999885559082 -12.982999801635742,6.369999885559082 -12.982999801635742,6.369999885559082 C-12.982999801635742,6.369999885559082 -7.953999996185303,-12.449000358581543 -7.953999996185303,-12.449000358581543 C-7.953999996185303,-12.449000358581543 -5.1479997634887695,-12.449000358581543 -5.1479997634887695,-12.449000358581543 C-5.1479997634887695,-12.449000358581543 -10.177000045776367,6.369999885559082 -10.177000045776367,6.369999885559082 C-10.177000045776367,6.369999885559082 10.177000045776367,6.369999885559082 10.177000045776367,6.369999885559082 C10.177000045776367,6.369999885559082 5.146999835968018,-12.449000358581543 5.146999835968018,-12.449000358581543 C5.146999835968018,-12.449000358581543 7.953999996185303,-12.449000358581543 7.953999996185303,-12.449000358581543 C7.953999996185303,-12.449000358581543 12.982999801635742,6.369999885559082 12.982999801635742,6.369999885559082 C12.982999801635742,6.369999885559082 13.147000312805176,6.369999885559082 13.147000312805176,6.369999885559082 C15.317000389099121,6.369999885559082 19.077999114990234,4.611000061035156 19.077999114990234,2.440999984741211 C19.077999114990234,2.440999984741211 19.077999114990234,8.522000312805176 19.077999114990234,8.522000312805176 C19.077999114990234,10.692000389099121 17.31800079345703,12.451000213623047 15.14799976348877,12.451000213623047 C15.14799976348877,12.451000213623047 -15.14900016784668,12.451000213623047 -15.14900016784668,12.451000213623047 C-17.31800079345703,12.451000213623047 -19.077999114990234,10.692000389099121 -19.077999114990234,8.522000312805176 C-19.077999114990234,8.522000312805176 -19.077999114990234,2.440999984741211 -19.077999114990234,2.440999984741211 C-19.077999114990234,4.611000061035156 -15.317000389099121,6.369999885559082 -13.147000312805176,6.369999885559082z"></path></g></g></g></svg>