<svg xmlns="http://www.w3.org/2000/svg" viewBox="0 0 82 38" width="82" height="38" preserveAspectRatio="xMidYMid meet" style="width: 100%; height: 100%; transform: translate3d(0px, 0px, 0px); content-visibility: visible;"><defs><clipPath id="__lottie_element_2652"><rect width="82" height="38" x="0" y="0"></rect></clipPath></defs><g clip-path="url(#__lottie_element_2652)"><g transform="matrix(0.33799999952316284,0,0,0.33799999952316284,-25.375761032104492,-2.608002185821533)" opacity="1" style="display: block;"><g opacity="1" transform="matrix(1,0,0,1,185.58299255371094,52.16600036621094)"><path fill="rgb(78,67,95)" fill-opacity="1" d=" M-30.55900001525879,13.484999656677246 C-30.55900001525879,13.484999656677246 33.154998779296875,-4.054999828338623 33.154998779296875,-4.054999828338623 C33.154998779296875,-4.054999828338623 30.55900001525879,-13.484999656677246 30.55900001525879,-13.484999656677246 C30.55900001525879,-13.484999656677246 -33.154998779296875,4.054999828338623 -33.154998779296875,4.054999828338623 C-33.154998779296875,4.054999828338623 -30.55900001525879,13.484999656677246 -30.55900001525879,13.484999656677246z"></path></g><g opacity="1" transform="matrix(1,0,0,1,217.43899536132812,43.395999908447266)"><path fill="rgb(78,67,95)" fill-opacity="1" d=" M5.321000099182129,5.276000022888184 C5.321000099182129,5.276000022888184 -1.86899995803833,7.255000114440918 -1.86899995803833,7.255000114440918 C-1.86899995803833,7.255000114440918 -5.321000099182129,-5.276000022888184 -5.321000099182129,-5.276000022888184 C-5.321000099182129,-5.276000022888184 1.871000051498413,-7.255000114440918 1.871000051498413,-7.255000114440918 C1.871000051498413,-7.255000114440918 5.321000099182129,5.276000022888184 5.321000099182129,5.276000022888184z"></path></g></g><g transform="matrix(0.33799999952316284,0,0,0.33799999952316284,-25.375761032104492,-2.608002185821533)" opacity="1" style="display: block;"><g opacity="1" transform="matrix(1,0,0,1,107.3489990234375,73.7040023803711)"><path fill="rgb(212,195,206)" fill-opacity="1" d=" M30.917999267578125,0 C30.917999267578125,-17.076000213623047 17.076000213623047,-30.917999267578125 0,-30.917999267578125 C-17.076000213623047,-30.917999267578125 -30.917999267578125,-17.076000213623047 -30.917999267578125,0 C-30.917999267578125,17.075000762939453 -17.076000213623047,30.917999267578125 0,30.917999267578125 C17.076000213623047,30.917999267578125 30.917999267578125,17.075000762939453 30.917999267578125,0z"></path></g><g opacity="1" transform="matrix(1,0,0,1,107.3489990234375,73.7040023803711)"><path fill="rgb(174,153,164)" fill-opacity="1" d=" M23.22800064086914,0 C23.22800064086914,-12.829000473022461 12.82800006866455,-23.22800064086914 -0.0010000000474974513,-23.22800064086914 C-12.829000473022461,-23.22800064086914 -23.22800064086914,-12.829000473022461 -23.22800064086914,0 C-23.22800064086914,12.82800006866455 -12.829000473022461,23.22800064086914 -0.0010000000474974513,23.22800064086914 C12.82800006866455,23.22800064086914 23.22800064086914,12.82800006866455 23.22800064086914,0z"></path></g><g opacity="1" transform="matrix(1,0,0,1,107.3489990234375,73.7040023803711)"><path stroke-linecap="butt" stroke-linejoin="miter" fill-opacity="0" stroke-miterlimit="10" stroke="rgb(78,67,95)" stroke-opacity="1" stroke-width="4.256" d=" M23.22800064086914,0 C23.22800064086914,-12.829000473022461 12.82800006866455,-23.22800064086914 -0.0010000000474974513,-23.22800064086914 C-12.829000473022461,-23.22800064086914 -23.22800064086914,-12.829000473022461 -23.22800064086914,0 C-23.22800064086914,12.82800006866455 -12.829000473022461,23.22800064086914 -0.0010000000474974513,23.22800064086914 C12.82800006866455,23.22800064086914 23.22800064086914,12.82800006866455 23.22800064086914,0z"></path></g></g><g transform="matrix(0.33799999952316284,0,0,0.33799999952316284,-25.375761032104492,-2.608002185821533)" opacity="1" style="display: block;"><g opacity="1" transform="matrix(1,0,0,1,139.3990020751953,64.88099670410156)"><path fill="rgb(174,153,164)" fill-opacity="1" d=" M32.95600128173828,-0.7039999961853027 C32.95600128173828,-0.7039999961853027 -28.672000885009766,16.261999130249023 -28.672000885009766,16.261999130249023 C-28.672000885009766,16.261999130249023 -32.95600128173828,0.703000009059906 -32.95600128173828,0.703000009059906 C-32.95600128173828,0.703000009059906 28.67300033569336,-16.261999130249023 28.67300033569336,-16.261999130249023 C28.67300033569336,-16.261999130249023 32.95600128173828,-0.7039999961853027 32.95600128173828,-0.7039999961853027z"></path></g></g><g transform="matrix(0.330613911151886,-0.07027415186166763,0.07027415186166763,0.330613911151886,-31.51730728149414,17.327062606811523)" opacity="1" style="display: block;"><g opacity="1" transform="matrix(1,0,0,1,271.34600830078125,101.97799682617188)"><path fill="rgb(212,195,206)" fill-opacity="1" d=" M0.0010000000474974513,14.803000450134277 C-21.299999237060547,14.803000450134277 -38.90700149536133,3.749000072479248 -39.645999908447266,3.2790000438690186 C-40.10599899291992,2.9860000610351562 -40.3849983215332,2.4779999256134033 -40.3849983215332,1.9320000410079956 C-40.3849983215332,1.9320000410079956 -40.3849983215332,-13.147000312805176 -40.3849983215332,-13.147000312805176 C-40.3849983215332,-13.623000144958496 -40.17100143432617,-14.074999809265137 -39.803001403808594,-14.378999710083008 C-39.435001373291016,-14.682000160217285 -38.948001861572266,-14.803000450134277 -38.481998443603516,-14.713000297546387 C-38.30500030517578,-14.678000450134277 -20.500999450683594,-11.23900032043457 0.0010000000474974513,-11.23900032043457 C20.518999099731445,-11.23900032043457 38.305999755859375,-14.678000450134277 38.483001708984375,-14.713000297546387 C38.95000076293945,-14.803000450134277 39.43600082397461,-14.682000160217285 39.80400085449219,-14.378999710083008 C40.17300033569336,-14.074999809265137 40.3849983215332,-13.623000144958496 40.3849983215332,-13.147000312805176 C40.3849983215332,-13.147000312805176 40.3849983215332,1.9320000410079956 40.3849983215332,1.9320000410079956 C40.3849983215332,2.4779999256134033 40.108001708984375,2.9860000610351562 39.64699935913086,3.2790000438690186 C38.90800094604492,3.749000072479248 21.302000045776367,14.803000450134277 0.0010000000474974513,14.803000450134277z"></path></g><g opacity="1" transform="matrix(1,0,0,1,271.34600830078125,110.87200164794922)"><path fill="rgb(139,124,141)" fill-opacity="1" d=" M39.64699935913086,-5.614999771118164 C39.775001525878906,-5.697000026702881 39.8849983215332,-5.797999858856201 39.983001708984375,-5.908999919891357 C36.21200180053711,-4.144999980926514 23.708999633789062,0.6959999799728394 0,0.6959999799728394 C-23.70800018310547,0.6959999799728394 -36.21099853515625,-4.144999980926514 -39.983001708984375,-5.908999919891357 C-39.8849983215332,-5.797999858856201 -39.775001525878906,-5.697000026702881 -39.645999908447266,-5.614999771118164 C-38.90700149536133,-5.144000053405762 -21.301000595092773,5.908999919891357 0.0010000000474974513,5.908999919891357 C21.301000595092773,5.908999919891357 38.90800094604492,-5.144000053405762 39.64699935913086,-5.614999771118164z"></path></g><g opacity="1" transform="matrix(1,0,0,1,271.34600830078125,99.6500015258789)"><path fill="rgb(78,67,95)" fill-opacity="1" d=" M0,-5.185999870300293 C-16.378000259399414,-5.185999870300293 -30.893999099731445,-7.333000183105469 -36.417999267578125,-8.265999794006348 C-36.417999267578125,-8.265999794006348 -36.417999267578125,3.0429999828338623 -36.417999267578125,3.0429999828338623 C-31.533000946044922,4.751999855041504 -19.163000106811523,8.265999794006348 0,8.265999794006348 C19.163000106811523,8.265999794006348 31.534000396728516,4.751999855041504 36.417999267578125,3.0429999828338623 C36.417999267578125,3.0429999828338623 36.417999267578125,-8.265999794006348 36.417999267578125,-8.265999794006348 C30.895000457763672,-7.334000110626221 16.378000259399414,-5.185999870300293 0,-5.185999870300293z"></path></g></g></g></svg>