<svg xmlns="http://www.w3.org/2000/svg" viewBox="0 0 33 78" width="33" height="78" preserveAspectRatio="xMidYMid meet" style="width: 100%; height: 100%; transform: translate3d(0px, 0px, 0px); content-visibility: visible;"><defs><clipPath id="__lottie_element_2826"><rect width="33" height="78" x="0" y="0"></rect></clipPath></defs><g clip-path="url(#__lottie_element_2826)"><g transform="matrix(0.3330000042915344,0,0,0.3330000042915344,0.20131489634513855,0.38631826639175415)" opacity="1" style="display: block;"><g opacity="1" transform="matrix(1,0,0,1,0,0)"><path stroke-linecap="butt" stroke-linejoin="miter" fill-opacity="0" stroke-miterlimit="10" stroke="rgb(175,154,166)" stroke-opacity="1" stroke-width="6" d=" M22.26099967956543,220.36399841308594 C22.26099967956543,220.36399841308594 22.26099967956543,7.723999977111816 22.26099967956543,7.723999977111816"></path></g><g opacity="1" transform="matrix(1,0,0,1,22.277999877929688,6.0370001792907715)"><path fill="rgb(175,154,166)" fill-opacity="1" d=" M5.7870001792907715,-0.0010000000474974513 C5.7870001792907715,-3.196000099182129 3.194999933242798,-5.785999774932861 0,-5.785999774932861 C-3.196000099182129,-5.785999774932861 -5.7870001792907715,-3.196000099182129 -5.7870001792907715,-0.0010000000474974513 C-5.7870001792907715,3.194999933242798 -3.196000099182129,5.785999774932861 0,5.785999774932861 C3.194999933242798,5.785999774932861 5.7870001792907715,3.194999933242798 5.7870001792907715,-0.0010000000474974513z"></path></g><g opacity="1" transform="matrix(1,0,0,1,22.30500030517578,215.8560028076172)"><path fill="rgb(141,124,142)" fill-opacity="1" d=" M7.48199987411499,3.2249999046325684 C7.48199987411499,3.2249999046325684 -7.48199987411499,3.2249999046325684 -7.48199987411499,3.2249999046325684 C-7.48199987411499,3.2249999046325684 -7.48199987411499,-3.2249999046325684 -7.48199987411499,-3.2249999046325684 C-7.48199987411499,-3.2249999046325684 7.48199987411499,-3.2249999046325684 7.48199987411499,-3.2249999046325684 C7.48199987411499,-3.2249999046325684 7.48199987411499,3.2249999046325684 7.48199987411499,3.2249999046325684z"></path></g><g opacity="1" transform="matrix(1,0,0,1,22.30500030517578,222.30799865722656)"><path fill="rgb(141,124,142)" fill-opacity="1" d=" M13.932000160217285,3.2249999046325684 C13.932000160217285,3.2249999046325684 -13.932000160217285,3.2249999046325684 -13.932000160217285,3.2249999046325684 C-13.932000160217285,3.2249999046325684 -13.932000160217285,-3.2249999046325684 -13.932000160217285,-3.2249999046325684 C-13.932000160217285,-3.2249999046325684 13.932000160217285,-3.2249999046325684 13.932000160217285,-3.2249999046325684 C13.932000160217285,-3.2249999046325684 13.932000160217285,3.2249999046325684 13.932000160217285,3.2249999046325684z"></path></g><g opacity="1" transform="matrix(1,0,0,1,22.30500030517578,228.75799560546875)"><path fill="rgb(141,124,142)" fill-opacity="1" d=" M22.05500030517578,3.2249999046325684 C22.05500030517578,3.2249999046325684 -22.05500030517578,3.2249999046325684 -22.05500030517578,3.2249999046325684 C-22.05500030517578,3.2249999046325684 -22.05500030517578,-3.2249999046325684 -22.05500030517578,-3.2249999046325684 C-22.05500030517578,-3.2249999046325684 22.05500030517578,-3.2249999046325684 22.05500030517578,-3.2249999046325684 C22.05500030517578,-3.2249999046325684 22.05500030517578,3.2249999046325684 22.05500030517578,3.2249999046325684z"></path></g></g><g transform="matrix(0.3327971398830414,0.011621532030403614,-0.011621532030403614,0.3327971398830414,7.790743350982666,4.238241672515869)" opacity="1" style="display: block;"><g opacity="1" transform="matrix(1,0,0,1,37.51499938964844,21.356000900268555)"><path fill="rgb(238,235,234)" fill-opacity="1" d=" M37.263999938964844,-21.106000900268555 C37.263999938964844,-21.106000900268555 -37.263999938964844,-21.106000900268555 -37.263999938964844,-21.106000900268555 C-37.263999938964844,-21.106000900268555 -37.263999938964844,21.106000900268555 -37.263999938964844,21.106000900268555 C-37.263999938964844,21.106000900268555 37.263999938964844,21.106000900268555 37.263999938964844,21.106000900268555 C37.263999938964844,21.106000900268555 37.263999938964844,-21.106000900268555 37.263999938964844,-21.106000900268555z"></path></g><g opacity="1" transform="matrix(1,0,0,1,37.51499938964844,4.4710001945495605)"><path fill="rgb(193,66,60)" fill-opacity="1" d=" M37.263999938964844,-4.2210001945495605 C37.263999938964844,-4.2210001945495605 -37.263999938964844,-4.2210001945495605 -37.263999938964844,-4.2210001945495605 C-37.263999938964844,-4.2210001945495605 -37.263999938964844,4.2210001945495605 -37.263999938964844,4.2210001945495605 C-37.263999938964844,4.2210001945495605 37.263999938964844,4.2210001945495605 37.263999938964844,4.2210001945495605 C37.263999938964844,4.2210001945495605 37.263999938964844,-4.2210001945495605 37.263999938964844,-4.2210001945495605z"></path></g><g opacity="1" transform="matrix(1,0,0,1,37.51499938964844,21.35700035095215)"><path fill="rgb(193,66,60)" fill-opacity="1" d=" M37.263999938964844,-4.2210001945495605 C37.263999938964844,-4.2210001945495605 -37.263999938964844,-4.2210001945495605 -37.263999938964844,-4.2210001945495605 C-37.263999938964844,-4.2210001945495605 -37.263999938964844,4.2210001945495605 -37.263999938964844,4.2210001945495605 C-37.263999938964844,4.2210001945495605 37.263999938964844,4.2210001945495605 37.263999938964844,4.2210001945495605 C37.263999938964844,4.2210001945495605 37.263999938964844,-4.2210001945495605 37.263999938964844,-4.2210001945495605z"></path></g><g opacity="1" transform="matrix(1,0,0,1,37.51499938964844,38.24100112915039)"><path fill="rgb(193,66,60)" fill-opacity="1" d=" M37.263999938964844,-4.2210001945495605 C37.263999938964844,-4.2210001945495605 -37.263999938964844,-4.2210001945495605 -37.263999938964844,-4.2210001945495605 C-37.263999938964844,-4.2210001945495605 -37.263999938964844,4.2210001945495605 -37.263999938964844,4.2210001945495605 C-37.263999938964844,4.2210001945495605 37.263999938964844,4.2210001945495605 37.263999938964844,4.2210001945495605 C37.263999938964844,4.2210001945495605 37.263999938964844,-4.2210001945495605 37.263999938964844,-4.2210001945495605z"></path></g><g opacity="1" transform="matrix(1,0,0,1,16.395000457763672,12.913999557495117)"><path fill="rgb(17,128,195)" fill-opacity="1" d=" M-16.145000457763672,12.663999557495117 C-16.145000457763672,12.663999557495117 16.145000457763672,12.663999557495117 16.145000457763672,12.663999557495117 C16.145000457763672,12.663999557495117 16.145000457763672,-12.663999557495117 16.145000457763672,-12.663999557495117 C16.145000457763672,-12.663999557495117 -16.145000457763672,-12.663999557495117 -16.145000457763672,-12.663999557495117 C-16.145000457763672,-12.663999557495117 -16.145000457763672,12.663999557495117 -16.145000457763672,12.663999557495117z"></path></g><g opacity="1" transform="matrix(1,0,0,1,6.081999778747559,5.89900016784668)"><path fill="rgb(255,255,255)" fill-opacity="1" d=" M0,-2.7939999103546143 C0,-2.7939999103546143 0.9309999942779541,-0.9869999885559082 0.9309999942779541,-0.9869999885559082 C0.9309999942779541,-0.9869999885559082 2.937999963760376,-0.6589999794960022 2.937999963760376,-0.6589999794960022 C2.937999963760376,-0.6589999794960022 1.50600004196167,0.7839999794960022 1.50600004196167,0.7839999794960022 C1.50600004196167,0.7839999794960022 1.815000057220459,2.7939999103546143 1.815000057220459,2.7939999103546143 C1.815000057220459,2.7939999103546143 0,1.8799999952316284 0,1.8799999952316284 C0,1.8799999952316284 -1.815000057220459,2.7939999103546143 -1.815000057220459,2.7939999103546143 C-1.815000057220459,2.7939999103546143 -1.5069999694824219,0.7839999794960022 -1.5069999694824219,0.7839999794960022 C-1.5069999694824219,0.7839999794960022 -2.937999963760376,-0.6589999794960022 -2.937999963760376,-0.6589999794960022 C-2.937999963760376,-0.6589999794960022 -0.9319999814033508,-0.9869999885559082 -0.9319999814033508,-0.9869999885559082 C-0.9319999814033508,-0.9869999885559082 0,-2.7939999103546143 0,-2.7939999103546143z"></path></g><g opacity="1" transform="matrix(1,0,0,1,16.395000457763672,5.89900016784668)"><path fill="rgb(255,255,255)" fill-opacity="1" d=" M0,-2.7939999103546143 C0,-2.7939999103546143 0.9309999942779541,-0.9869999885559082 0.9309999942779541,-0.9869999885559082 C0.9309999942779541,-0.9869999885559082 2.937999963760376,-0.6589999794960022 2.937999963760376,-0.6589999794960022 C2.937999963760376,-0.6589999794960022 1.50600004196167,0.7839999794960022 1.50600004196167,0.7839999794960022 C1.50600004196167,0.7839999794960022 1.815000057220459,2.7939999103546143 1.815000057220459,2.7939999103546143 C1.815000057220459,2.7939999103546143 0,1.8799999952316284 0,1.8799999952316284 C0,1.8799999952316284 -1.815999984741211,2.7939999103546143 -1.815999984741211,2.7939999103546143 C-1.815999984741211,2.7939999103546143 -1.5069999694824219,0.7839999794960022 -1.5069999694824219,0.7839999794960022 C-1.5069999694824219,0.7839999794960022 -2.937999963760376,-0.6589999794960022 -2.937999963760376,-0.6589999794960022 C-2.937999963760376,-0.6589999794960022 -0.9319999814033508,-0.9869999885559082 -0.9319999814033508,-0.9869999885559082 C-0.9319999814033508,-0.9869999885559082 0,-2.7939999103546143 0,-2.7939999103546143z"></path></g><g opacity="1" transform="matrix(1,0,0,1,26.70599937438965,5.89900016784668)"><path fill="rgb(255,255,255)" fill-opacity="1" d=" M0,-2.7939999103546143 C0,-2.7939999103546143 0.9319999814033508,-0.9869999885559082 0.9319999814033508,-0.9869999885559082 C0.9319999814033508,-0.9869999885559082 2.937999963760376,-0.6589999794960022 2.937999963760376,-0.6589999794960022 C2.937999963760376,-0.6589999794960022 1.5069999694824219,0.7839999794960022 1.5069999694824219,0.7839999794960022 C1.5069999694824219,0.7839999794960022 1.815000057220459,2.7939999103546143 1.815000057220459,2.7939999103546143 C1.815000057220459,2.7939999103546143 0,1.8799999952316284 0,1.8799999952316284 C0,1.8799999952316284 -1.815000057220459,2.7939999103546143 -1.815000057220459,2.7939999103546143 C-1.815000057220459,2.7939999103546143 -1.50600004196167,0.7839999794960022 -1.50600004196167,0.7839999794960022 C-1.50600004196167,0.7839999794960022 -2.937999963760376,-0.6589999794960022 -2.937999963760376,-0.6589999794960022 C-2.937999963760376,-0.6589999794960022 -0.9309999942779541,-0.9869999885559082 -0.9309999942779541,-0.9869999885559082 C-0.9309999942779541,-0.9869999885559082 0,-2.7939999103546143 0,-2.7939999103546143z"></path></g><g opacity="1" transform="matrix(1,0,0,1,6.081999778747559,19.562000274658203)"><path fill="rgb(255,255,255)" fill-opacity="1" d=" M0,-2.7939999103546143 C0,-2.7939999103546143 0.9309999942779541,-0.9869999885559082 0.9309999942779541,-0.9869999885559082 C0.9309999942779541,-0.9869999885559082 2.937999963760376,-0.6589999794960022 2.937999963760376,-0.6589999794960022 C2.937999963760376,-0.6589999794960022 1.50600004196167,0.7839999794960022 1.50600004196167,0.7839999794960022 C1.50600004196167,0.7839999794960022 1.815000057220459,2.7939999103546143 1.815000057220459,2.7939999103546143 C1.815000057220459,2.7939999103546143 0,1.878999948501587 0,1.878999948501587 C0,1.878999948501587 -1.815000057220459,2.7939999103546143 -1.815000057220459,2.7939999103546143 C-1.815000057220459,2.7939999103546143 -1.5069999694824219,0.7839999794960022 -1.5069999694824219,0.7839999794960022 C-1.5069999694824219,0.7839999794960022 -2.937999963760376,-0.6589999794960022 -2.937999963760376,-0.6589999794960022 C-2.937999963760376,-0.6589999794960022 -0.9319999814033508,-0.9869999885559082 -0.9319999814033508,-0.9869999885559082 C-0.9319999814033508,-0.9869999885559082 0,-2.7939999103546143 0,-2.7939999103546143z"></path></g><g opacity="1" transform="matrix(1,0,0,1,16.395000457763672,19.562000274658203)"><path fill="rgb(255,255,255)" fill-opacity="1" d=" M0,-2.7939999103546143 C0,-2.7939999103546143 0.9309999942779541,-0.9869999885559082 0.9309999942779541,-0.9869999885559082 C0.9309999942779541,-0.9869999885559082 2.937999963760376,-0.6589999794960022 2.937999963760376,-0.6589999794960022 C2.937999963760376,-0.6589999794960022 1.50600004196167,0.7839999794960022 1.50600004196167,0.7839999794960022 C1.50600004196167,0.7839999794960022 1.815000057220459,2.7939999103546143 1.815000057220459,2.7939999103546143 C1.815000057220459,2.7939999103546143 0,1.878999948501587 0,1.878999948501587 C0,1.878999948501587 -1.815999984741211,2.7939999103546143 -1.815999984741211,2.7939999103546143 C-1.815999984741211,2.7939999103546143 -1.5069999694824219,0.7839999794960022 -1.5069999694824219,0.7839999794960022 C-1.5069999694824219,0.7839999794960022 -2.937999963760376,-0.6589999794960022 -2.937999963760376,-0.6589999794960022 C-2.937999963760376,-0.6589999794960022 -0.9319999814033508,-0.9869999885559082 -0.9319999814033508,-0.9869999885559082 C-0.9319999814033508,-0.9869999885559082 0,-2.7939999103546143 0,-2.7939999103546143z"></path></g><g opacity="1" transform="matrix(1,0,0,1,26.70599937438965,19.562000274658203)"><path fill="rgb(255,255,255)" fill-opacity="1" d=" M0,-2.7939999103546143 C0,-2.7939999103546143 0.9319999814033508,-0.9869999885559082 0.9319999814033508,-0.9869999885559082 C0.9319999814033508,-0.9869999885559082 2.937999963760376,-0.6589999794960022 2.937999963760376,-0.6589999794960022 C2.937999963760376,-0.6589999794960022 1.5069999694824219,0.7839999794960022 1.5069999694824219,0.7839999794960022 C1.5069999694824219,0.7839999794960022 1.815000057220459,2.7939999103546143 1.815000057220459,2.7939999103546143 C1.815000057220459,2.7939999103546143 0,1.878999948501587 0,1.878999948501587 C0,1.878999948501587 -1.815000057220459,2.7939999103546143 -1.815000057220459,2.7939999103546143 C-1.815000057220459,2.7939999103546143 -1.50600004196167,0.7839999794960022 -1.50600004196167,0.7839999794960022 C-1.50600004196167,0.7839999794960022 -2.937999963760376,-0.6589999794960022 -2.937999963760376,-0.6589999794960022 C-2.937999963760376,-0.6589999794960022 -0.9309999942779541,-0.9869999885559082 -0.9309999942779541,-0.9869999885559082 C-0.9309999942779541,-0.9869999885559082 0,-2.7939999103546143 0,-2.7939999103546143z"></path></g><g opacity="1" transform="matrix(1,0,0,1,21.549999237060547,12.730999946594238)"><path fill="rgb(255,255,255)" fill-opacity="1" d=" M0,-2.7939999103546143 C0,-2.7939999103546143 0.9319999814033508,-0.9860000014305115 0.9319999814033508,-0.9860000014305115 C0.9319999814033508,-0.9860000014305115 2.937999963760376,-0.6600000262260437 2.937999963760376,-0.6600000262260437 C2.937999963760376,-0.6600000262260437 1.5069999694824219,0.7850000262260437 1.5069999694824219,0.7850000262260437 C1.5069999694824219,0.7850000262260437 1.815999984741211,2.7939999103546143 1.815999984741211,2.7939999103546143 C1.815999984741211,2.7939999103546143 0,1.878999948501587 0,1.878999948501587 C0,1.878999948501587 -1.815000057220459,2.7939999103546143 -1.815000057220459,2.7939999103546143 C-1.815000057220459,2.7939999103546143 -1.50600004196167,0.7850000262260437 -1.50600004196167,0.7850000262260437 C-1.50600004196167,0.7850000262260437 -2.937999963760376,-0.6600000262260437 -2.937999963760376,-0.6600000262260437 C-2.937999963760376,-0.6600000262260437 -0.9309999942779541,-0.9860000014305115 -0.9309999942779541,-0.9860000014305115 C-0.9309999942779541,-0.9860000014305115 0,-2.7939999103546143 0,-2.7939999103546143z"></path></g><g opacity="1" transform="matrix(1,0,0,1,11.23900032043457,12.730999946594238)"><path fill="rgb(255,255,255)" fill-opacity="1" d=" M0,-2.7939999103546143 C0,-2.7939999103546143 0.9309999942779541,-0.9860000014305115 0.9309999942779541,-0.9860000014305115 C0.9309999942779541,-0.9860000014305115 2.937999963760376,-0.6600000262260437 2.937999963760376,-0.6600000262260437 C2.937999963760376,-0.6600000262260437 1.50600004196167,0.7850000262260437 1.50600004196167,0.7850000262260437 C1.50600004196167,0.7850000262260437 1.815000057220459,2.7939999103546143 1.815000057220459,2.7939999103546143 C1.815000057220459,2.7939999103546143 0,1.878999948501587 0,1.878999948501587 C0,1.878999948501587 -1.815000057220459,2.7939999103546143 -1.815000057220459,2.7939999103546143 C-1.815000057220459,2.7939999103546143 -1.5069999694824219,0.7850000262260437 -1.5069999694824219,0.7850000262260437 C-1.5069999694824219,0.7850000262260437 -2.937999963760376,-0.6600000262260437 -2.937999963760376,-0.6600000262260437 C-2.937999963760376,-0.6600000262260437 -0.9319999814033508,-0.9860000014305115 -0.9319999814033508,-0.9860000014305115 C-0.9319999814033508,-0.9860000014305115 0,-2.7939999103546143 0,-2.7939999103546143z"></path></g></g></g></svg>