<svg xmlns="http://www.w3.org/2000/svg" viewBox="0 0 106 22" width="106" height="22" preserveAspectRatio="xMidYMid meet" style="width: 100%; height: 100%; transform: translate3d(0px, 0px, 0px); content-visibility: visible;"><defs><clipPath id="__lottie_element_2101"><rect width="106" height="22" x="0" y="0"></rect></clipPath><mask id="__lottie_element_2107" mask-type="alpha"><g transform="matrix(0.257999986410141,0,0,0.257999986410141,-411.67218017578125,50.311798095703125)" opacity="1" style="display: block;"><g opacity="1" transform="matrix(1,0,0,1,1798.947021484375,-160.0019989013672)"><path fill="rgb(143,201,94)" fill-opacity="1" d=" M213.94749450683594,-43.99800109863281 C213.94749450683594,-43.99800109863281 213.94749450683594,43.99800109863281 213.94749450683594,43.99800109863281 C213.94749450683594,43.99800109863281 -213.94749450683594,43.99800109863281 -213.94749450683594,43.99800109863281 C-213.94749450683594,43.99800109863281 -213.94749450683594,-43.99800109863281 -213.94749450683594,-43.99800109863281 C-213.94749450683594,-43.99800109863281 213.94749450683594,-43.99800109863281 213.94749450683594,-43.99800109863281z"></path><path stroke-linecap="butt" stroke-linejoin="miter" fill-opacity="0" stroke-miterlimit="4" stroke="rgb(135,207,214)" stroke-opacity="1" stroke-width="0" d=" M213.94749450683594,-43.99800109863281 C213.94749450683594,-43.99800109863281 213.94749450683594,43.99800109863281 213.94749450683594,43.99800109863281 C213.94749450683594,43.99800109863281 -213.94749450683594,43.99800109863281 -213.94749450683594,43.99800109863281 C-213.94749450683594,43.99800109863281 -213.94749450683594,-43.99800109863281 -213.94749450683594,-43.99800109863281 C-213.94749450683594,-43.99800109863281 213.94749450683594,-43.99800109863281 213.94749450683594,-43.99800109863281z"></path></g></g></mask></defs><g clip-path="url(#__lottie_element_2101)"><g mask="url(#__lottie_element_2107)" style="display: block;"><g transform="matrix(1.8059998750686646,0,0,1.8059998750686646,5.474587917327881,-0.2448464334011078)" opacity="1"><g opacity="1" transform="matrix(1,0,0,1,26.54599952697754,7.894000053405762)"><path fill="rgb(255,201,77)" fill-opacity="1" d=" M23.81599998474121,-3.6480000019073486 C23.81599998474121,-3.6480000019073486 23.781999588012695,-1.6369999647140503 23.781999588012695,-1.6369999647140503 C23.781999588012695,-1.6369999647140503 -16.200000762939453,-1.6369999647140503 -16.200000762939453,-1.6369999647140503 C-23.850000381469727,-1.6369999647140503 -26.29599952697754,0.23000000417232513 -26.29599952697754,2.5339999198913574 C-26.29599952697754,2.5339999198913574 -26.29599952697754,3.6480000019073486 -26.29599952697754,3.6480000019073486 C-26.29599952697754,3.6480000019073486 26.29599952697754,3.6480000019073486 26.29599952697754,3.6480000019073486 C26.29599952697754,3.6480000019073486 26.29599952697754,-0.5199999809265137 26.29599952697754,-0.5199999809265137 C26.29599952697754,-0.5199999809265137 25.34600067138672,-3.6480000019073486 25.34600067138672,-3.6480000019073486 C25.34600067138672,-3.6480000019073486 23.81599998474121,-3.6480000019073486 23.81599998474121,-3.6480000019073486z"></path></g><g opacity="1" transform="matrix(1,0,0,1,26.54599952697754,10.723999977111816)"><path fill="rgb(17,128,195)" fill-opacity="1" d=" M-26.246000289916992,-0.8190000057220459 C-26.275999069213867,-0.6470000147819519 -26.29599952697754,-0.4740000069141388 -26.29599952697754,-0.29600000381469727 C-26.29599952697754,-0.29600000381469727 -26.29599952697754,0.8190000057220459 -26.29599952697754,0.8190000057220459 C-26.29599952697754,0.8190000057220459 26.29599952697754,0.8190000057220459 26.29599952697754,0.8190000057220459 C26.29599952697754,0.8190000057220459 26.29599952697754,-0.8190000057220459 26.29599952697754,-0.8190000057220459 C26.29599952697754,-0.8190000057220459 -26.246000289916992,-0.8190000057220459 -26.246000289916992,-0.8190000057220459z"></path></g><g opacity="1" transform="matrix(1,0,0,1,30.979000091552734,3.315000057220459)"><path fill="rgb(255,201,77)" fill-opacity="1" d=" M4.760000228881836,-2.9170000553131104 C4.934000015258789,-2.7960000038146973 5.072999954223633,-2.624000072479248 5.1539998054504395,-2.4189999103546143 C5.1539998054504395,-2.4189999103546143 7.335000038146973,3.065000057220459 7.335000038146973,3.065000057220459 C7.335000038146973,3.065000057220459 -7.335000038146973,3.065000057220459 -7.335000038146973,3.065000057220459 C-7.335000038146973,3.065000057220459 -6.486000061035156,-1.840999960899353 -6.486000061035156,-1.840999960899353 C-6.439000129699707,-2.111999988555908 -6.203000068664551,-2.309999942779541 -5.928999900817871,-2.309999942779541 C-5.928999900817871,-2.309999942779541 -4.307000160217285,-2.309999942779541 -4.307000160217285,-2.309999942779541 C-4.307000160217285,-2.309999942779541 -4.307000160217285,-2.9140000343322754 -4.307000160217285,-2.9140000343322754 C-4.307000160217285,-2.9140000343322754 -4.197999954223633,-3.065000057220459 -4.197999954223633,-3.065000057220459 C-4.197999954223633,-3.065000057220459 4.578000068664551,-3.0439999103546143 4.760000228881836,-2.9170000553131104z"></path></g><g opacity="1" transform="matrix(1,0,0,1,24.618000030517578,3.677000045776367)"><path fill="rgb(49,45,57)" fill-opacity="1" d=" M-0.30399999022483826,-1.1319999694824219 C-0.30399999022483826,-1.1319999694824219 -0.6880000233650208,1.0859999656677246 -0.6880000233650208,1.0859999656677246 C-0.6110000014305115,1.1009999513626099 -0.5400000214576721,1.1319999694824219 -0.46000000834465027,1.1319999694824219 C0.17399999499320984,1.1319999694824219 0.6880000233650208,0.6179999709129333 0.6880000233650208,-0.01600000075995922 C0.6880000233650208,-0.5950000286102295 0.2529999911785126,-1.0529999732971191 -0.30399999022483826,-1.1319999694824219z"></path></g><g opacity="1" transform="matrix(1,0,0,1,27.996000289916992,3.6600000858306885)"><path fill="rgb(49,45,57)" fill-opacity="1" d=" M1.1480000019073486,0 C1.1480000019073486,-0.6340000033378601 0.6330000162124634,-1.1469999551773071 0,-1.1469999551773071 C-0.6340000033378601,-1.1469999551773071 -1.1480000019073486,-0.6340000033378601 -1.1480000019073486,0 C-1.1480000019073486,0.6340000033378601 -0.6340000033378601,1.1469999551773071 0,1.1469999551773071 C0.6330000162124634,1.1469999551773071 1.1480000019073486,0.6340000033378601 1.1480000019073486,0z"></path></g><g opacity="1" transform="matrix(1,0,0,1,31.83300018310547,3.6600000858306885)"><path fill="rgb(49,45,57)" fill-opacity="1" d=" M1.1480000019073486,0 C1.1480000019073486,-0.6340000033378601 0.6340000033378601,-1.1469999551773071 0,-1.1469999551773071 C-0.6330000162124634,-1.1469999551773071 -1.1480000019073486,-0.6340000033378601 -1.1480000019073486,0 C-1.1480000019073486,0.6340000033378601 -0.6330000162124634,1.1469999551773071 0,1.1469999551773071 C0.6340000033378601,1.1469999551773071 1.1480000019073486,0.6340000033378601 1.1480000019073486,0z"></path></g><g opacity="1" transform="matrix(1,0,0,1,28.367000579833984,5.947999954223633)"><path fill="rgb(248,223,128)" fill-opacity="1" d=" M15.826000213623047,-0.6110000014305115 C15.826000213623047,-0.6110000014305115 -15.645000457763672,-0.6110000014305115 -15.645000457763672,-0.6110000014305115 C-15.645000457763672,-0.6110000014305115 -15.826000213623047,0.6110000014305115 -15.826000213623047,0.6110000014305115 C-15.826000213623047,0.6110000014305115 15.826000213623047,0.6110000014305115 15.826000213623047,0.6110000014305115 C15.826000213623047,0.6110000014305115 15.826000213623047,-0.6110000014305115 15.826000213623047,-0.6110000014305115z"></path></g></g></g><g transform="matrix(1.8059998750686646,0,0,1.8059998750686646,-3.571394920349121,14.053764343261719)" opacity="1" style="display: block;"><g opacity="1" transform="matrix(1,0,0,1,7.0920000076293945,3.1659998893737793)"><path stroke-linecap="round" stroke-linejoin="round" fill-opacity="0" stroke="rgb(184,228,250)" stroke-opacity="1" stroke-width="1" d=" M4.5920000076293945,-0.6660000085830688 C4.5920000076293945,-0.6660000085830688 3.563999891281128,0.6660000085830688 2.2960000038146973,0.6660000085830688 C1.027999997138977,0.6660000085830688 0,-0.6660000085830688 0,-0.6660000085830688 C0,-0.6660000085830688 -1.027999997138977,0.6660000085830688 -2.2960000038146973,0.6660000085830688 C-3.563999891281128,0.6660000085830688 -4.5920000076293945,-0.6660000085830688 -4.5920000076293945,-0.6660000085830688"></path></g><g opacity="1" transform="matrix(1,0,0,1,31.091999053955078,3.1659998893737793)"><path stroke-linecap="round" stroke-linejoin="round" fill-opacity="0" stroke="rgb(184,228,250)" stroke-opacity="1" stroke-width="1" d=" M4.5920000076293945,-0.6660000085830688 C4.5920000076293945,-0.6660000085830688 3.563999891281128,0.6660000085830688 2.2960000038146973,0.6660000085830688 C1.027999997138977,0.6660000085830688 0,-0.6660000085830688 0,-0.6660000085830688 C0,-0.6660000085830688 -1.027999997138977,0.6660000085830688 -2.2960000038146973,0.6660000085830688 C-3.563999891281128,0.6660000085830688 -4.5920000076293945,-0.6660000085830688 -4.5920000076293945,-0.6660000085830688"></path></g><g opacity="1" transform="matrix(1,0,0,1,16.591999053955078,3.1659998893737793)"><path stroke-linecap="round" stroke-linejoin="round" fill-opacity="0" stroke="rgb(184,228,250)" stroke-opacity="1" stroke-width="1" d=" M4.5920000076293945,-0.6660000085830688 C4.5920000076293945,-0.6660000085830688 3.563999891281128,0.6660000085830688 2.2960000038146973,0.6660000085830688 C1.027999997138977,0.6660000085830688 0,-0.6660000085830688 0,-0.6660000085830688 C0,-0.6660000085830688 -1.027999997138977,0.6660000085830688 -2.2960000038146973,0.6660000085830688 C-3.563999891281128,0.6660000085830688 -4.5920000076293945,-0.6660000085830688 -4.5920000076293945,-0.6660000085830688"></path></g><g opacity="1" transform="matrix(1,0,0,1,40.59199905395508,3.1659998893737793)"><path stroke-linecap="round" stroke-linejoin="round" fill-opacity="0" stroke="rgb(184,228,250)" stroke-opacity="1" stroke-width="1" d=" M4.5920000076293945,-0.6660000085830688 C4.5920000076293945,-0.6660000085830688 3.563999891281128,0.6660000085830688 2.2960000038146973,0.6660000085830688 C1.027999997138977,0.6660000085830688 0,-0.6660000085830688 0,-0.6660000085830688 C0,-0.6660000085830688 -1.027999997138977,0.6660000085830688 -2.2960000038146973,0.6660000085830688 C-3.563999891281128,0.6660000085830688 -4.5920000076293945,-0.6660000085830688 -4.5920000076293945,-0.6660000085830688"></path></g><g opacity="1" transform="matrix(1,0,0,1,55.09199905395508,3.1659998893737793)"><path stroke-linecap="round" stroke-linejoin="round" fill-opacity="0" stroke="rgb(184,228,250)" stroke-opacity="1" stroke-width="1" d=" M4.5920000076293945,-0.6660000085830688 C4.5920000076293945,-0.6660000085830688 3.563999891281128,0.6660000085830688 2.2960000038146973,0.6660000085830688 C1.027999997138977,0.6660000085830688 0,-0.6660000085830688 0,-0.6660000085830688 C0,-0.6660000085830688 -1.027999997138977,0.6660000085830688 -2.2960000038146973,0.6660000085830688 C-3.563999891281128,0.6660000085830688 -4.5920000076293945,-0.6660000085830688 -4.5920000076293945,-0.6660000085830688"></path></g><g opacity="1" transform="matrix(1,0,0,1,26.091999053955078,3.1659998893737793)"><path stroke-linecap="round" stroke-linejoin="round" fill-opacity="0" stroke="rgb(184,228,250)" stroke-opacity="1" stroke-width="1" d=" M0,-0.6660000085830688 C0,-0.6660000085830688 -1.027999997138977,0.6660000085830688 -2.2960000038146973,0.6660000085830688 C-3.563999891281128,0.6660000085830688 -4.5920000076293945,-0.6660000085830688 -4.5920000076293945,-0.6660000085830688"></path></g><g opacity="1" transform="matrix(1,0,0,1,50.09199905395508,3.1659998893737793)"><path stroke-linecap="round" stroke-linejoin="round" fill-opacity="0" stroke="rgb(184,228,250)" stroke-opacity="1" stroke-width="1" d=" M0,-0.6660000085830688 C0,-0.6660000085830688 -1.027999997138977,0.6660000085830688 -2.2960000038146973,0.6660000085830688 C-3.563999891281128,0.6660000085830688 -4.5920000076293945,-0.6660000085830688 -4.5920000076293945,-0.6660000085830688"></path></g></g></g></svg>