<svg xmlns="http://www.w3.org/2000/svg" viewBox="0 0 134 163" width="134" height="163" preserveAspectRatio="xMidYMid meet" style="width: 100%; height: 100%; transform: translate3d(0px, 0px, 0px); content-visibility: visible;"><defs><clipPath id="__lottie_element_4240"><rect width="134" height="163" x="0" y="0"></rect></clipPath></defs><g clip-path="url(#__lottie_element_4240)"><g transform="matrix(1.8059998750686646,0,0,1.8059998750686646,-9.857006072998047,-4.758783340454102)" opacity="1" style="display: block;"><g opacity="1" transform="matrix(1,0,0,1,17.4950008392334,10.838000297546387)"><path fill="rgb(214,124,42)" fill-opacity="1" d=" M2.2960000038146973,-0.5220000147819519 C2.2960000038146973,-0.5220000147819519 0.9789999723434448,-2.9760000705718994 0.9789999723434448,-2.9760000705718994 C0.5600000023841858,-3.75600004196167 -0.5590000152587891,-3.75600004196167 -0.9779999852180481,-2.9760000705718994 C-0.9779999852180481,-2.9760000705718994 -2.2960000038146973,-0.5220000147819519 -2.2960000038146973,-0.5220000147819519 C-2.2960000038146973,-0.5220000147819519 0,3.756999969482422 0,3.756999969482422 C0,3.756999969482422 2.2960000038146973,-0.5220000147819519 2.2960000038146973,-0.5220000147819519z"></path></g><g opacity="1" transform="matrix(1,0,0,1,22.086000442504883,10.838000297546387)"><path fill="rgb(214,124,42)" fill-opacity="1" d=" M2.2960000038146973,-0.5220000147819519 C2.2960000038146973,-0.5220000147819519 0.9789999723434448,-2.9760000705718994 0.9789999723434448,-2.9760000705718994 C0.5600000023841858,-3.75600004196167 -0.5590000152587891,-3.75600004196167 -0.9779999852180481,-2.9760000705718994 C-0.9779999852180481,-2.9760000705718994 -2.2960000038146973,-0.5220000147819519 -2.2960000038146973,-0.5220000147819519 C-2.2960000038146973,-0.5220000147819519 0,3.756999969482422 0,3.756999969482422 C0,3.756999969482422 2.2960000038146973,-0.5220000147819519 2.2960000038146973,-0.5220000147819519z"></path></g><g opacity="1" transform="matrix(1,0,0,1,26.67799949645996,10.838000297546387)"><path fill="rgb(214,124,42)" fill-opacity="1" d=" M2.2960000038146973,-0.5220000147819519 C2.2960000038146973,-0.5220000147819519 0.9789999723434448,-2.9760000705718994 0.9789999723434448,-2.9760000705718994 C0.5600000023841858,-3.75600004196167 -0.5590000152587891,-3.75600004196167 -0.9779999852180481,-2.9760000705718994 C-0.9779999852180481,-2.9760000705718994 -2.2960000038146973,-0.5220000147819519 -2.2960000038146973,-0.5220000147819519 C-2.2960000038146973,-0.5220000147819519 0,3.756999969482422 0,3.756999969482422 C0,3.756999969482422 2.2960000038146973,-0.5220000147819519 2.2960000038146973,-0.5220000147819519z"></path></g><g opacity="1" transform="matrix(1,0,0,1,31.268999099731445,10.838000297546387)"><path fill="rgb(214,124,42)" fill-opacity="1" d=" M2.2960000038146973,-0.5220000147819519 C2.2960000038146973,-0.5220000147819519 0.9789999723434448,-2.9760000705718994 0.9789999723434448,-2.9760000705718994 C0.5600000023841858,-3.75600004196167 -0.5590000152587891,-3.75600004196167 -0.9779999852180481,-2.9760000705718994 C-0.9779999852180481,-2.9760000705718994 -2.2960000038146973,-0.5220000147819519 -2.2960000038146973,-0.5220000147819519 C-2.2960000038146973,-0.5220000147819519 0,3.756999969482422 0,3.756999969482422 C0,3.756999969482422 2.2960000038146973,-0.5220000147819519 2.2960000038146973,-0.5220000147819519z"></path></g><g opacity="1" transform="matrix(1,0,0,1,35.861000061035156,10.838000297546387)"><path fill="rgb(214,124,42)" fill-opacity="1" d=" M2.2960000038146973,-0.5220000147819519 C2.2960000038146973,-0.5220000147819519 0.9789999723434448,-2.9760000705718994 0.9789999723434448,-2.9760000705718994 C0.5600000023841858,-3.75600004196167 -0.5590000152587891,-3.75600004196167 -0.9779999852180481,-2.9760000705718994 C-0.9779999852180481,-2.9760000705718994 -2.2960000038146973,-0.5220000147819519 -2.2960000038146973,-0.5220000147819519 C-2.2960000038146973,-0.5220000147819519 0,3.756999969482422 0,3.756999969482422 C0,3.756999969482422 2.2960000038146973,-0.5220000147819519 2.2960000038146973,-0.5220000147819519z"></path></g><g opacity="1" transform="matrix(1,0,0,1,40.45199966430664,10.838000297546387)"><path fill="rgb(214,124,42)" fill-opacity="1" d=" M2.2960000038146973,-0.5220000147819519 C2.2960000038146973,-0.5220000147819519 0.9789999723434448,-2.9760000705718994 0.9789999723434448,-2.9760000705718994 C0.5600000023841858,-3.75600004196167 -0.5590000152587891,-3.75600004196167 -0.9779999852180481,-2.9760000705718994 C-0.9779999852180481,-2.9760000705718994 -2.2960000038146973,-0.5220000147819519 -2.2960000038146973,-0.5220000147819519 C-2.2960000038146973,-0.5220000147819519 0,3.756999969482422 0,3.756999969482422 C0,3.756999969482422 2.2960000038146973,-0.5220000147819519 2.2960000038146973,-0.5220000147819519z"></path></g><g opacity="1" transform="matrix(1,0,0,1,45.04399871826172,10.838000297546387)"><path fill="rgb(214,124,42)" fill-opacity="1" d=" M2.2960000038146973,-0.5220000147819519 C2.2960000038146973,-0.5220000147819519 0.9789999723434448,-2.9760000705718994 0.9789999723434448,-2.9760000705718994 C0.5600000023841858,-3.75600004196167 -0.5590000152587891,-3.75600004196167 -0.9779999852180481,-2.9760000705718994 C-0.9779999852180481,-2.9760000705718994 -2.2960000038146973,-0.5220000147819519 -2.2960000038146973,-0.5220000147819519 C-2.2960000038146973,-0.5220000147819519 0,3.756999969482422 0,3.756999969482422 C0,3.756999969482422 2.2960000038146973,-0.5220000147819519 2.2960000038146973,-0.5220000147819519z"></path></g><g opacity="1" transform="matrix(1,0,0,1,27.825000762939453,12.33899974822998)"><path fill="rgb(214,124,42)" fill-opacity="1" d=" M-3.444000005722046,1.152999997138977 C-3.444000005722046,1.152999997138977 3.444000005722046,1.152999997138977 3.444000005722046,1.152999997138977 C3.444000005722046,1.152999997138977 3.444000005722046,-1.152999997138977 3.444000005722046,-1.152999997138977 C3.444000005722046,-1.152999997138977 -3.444000005722046,-1.152999997138977 -3.444000005722046,-1.152999997138977 C-3.444000005722046,-1.152999997138977 -3.444000005722046,1.152999997138977 -3.444000005722046,1.152999997138977z"></path></g><g opacity="1" transform="matrix(1,0,0,1,75.40699768066406,73.19000244140625)"><path stroke-linecap="round" stroke-linejoin="round" fill-opacity="0" stroke="rgb(255,201,77)" stroke-opacity="1" stroke-width="1.5" d=" M1.0750000476837158,18.591999053955078 C1.0750000476837158,18.591999053955078 1.0750000476837158,-12.61299991607666 1.0750000476837158,-12.61299991607666 C1.0750000476837158,-12.61299991607666 -1.0750000476837158,-16.134000778198242 -1.0750000476837158,-16.134000778198242 C-1.0750000476837158,-16.134000778198242 -1.0750000476837158,-36.33700180053711 -1.0750000476837158,-36.33700180053711"></path></g><g opacity="1" transform="matrix(1,0,0,1,67.91300201416016,8.479999542236328)"><path fill="rgb(214,124,42)" fill-opacity="1" d=" M-2.328000068664551,5.193999767303467 C-2.328000068664551,5.193999767303467 2.328000068664551,5.193999767303467 2.328000068664551,5.193999767303467 C2.328000068664551,5.193999767303467 2.2679998874664307,3.1050000190734863 2.2679998874664307,3.1050000190734863 C2.2679998874664307,3.1050000190734863 -2.328000068664551,-5.193999767303467 -2.328000068664551,-5.193999767303467 C-2.328000068664551,-5.193999767303467 -2.328000068664551,5.193999767303467 -2.328000068664551,5.193999767303467z"></path></g><g opacity="1" transform="matrix(1,0,0,1,60.391998291015625,8.479999542236328)"><path fill="rgb(214,124,42)" fill-opacity="1" d=" M2.328000068664551,5.193999767303467 C2.328000068664551,5.193999767303467 -2.328000068664551,5.193999767303467 -2.328000068664551,5.193999767303467 C-2.328000068664551,5.193999767303467 -2.2679998874664307,3.1050000190734863 -2.2679998874664307,3.1050000190734863 C-2.2679998874664307,3.1050000190734863 2.328000068664551,-5.193999767303467 2.328000068664551,-5.193999767303467 C2.328000068664551,-5.193999767303467 2.328000068664551,5.193999767303467 2.328000068664551,5.193999767303467z"></path></g><g opacity="1" transform="matrix(1,0,0,1,12.645999908447266,29.88599967956543)"><path fill="rgb(214,124,42)" fill-opacity="1" d=" M6.815000057220459,9.539999961853027 C6.815000057220459,9.539999961853027 -6.815000057220459,9.539999961853027 -6.815000057220459,9.539999961853027 C-6.815000057220459,9.539999961853027 -6.815000057220459,-9.539999961853027 -6.815000057220459,-9.539999961853027 C-6.815000057220459,-9.539999961853027 6.815000057220459,-9.539999961853027 6.815000057220459,-9.539999961853027 C6.815000057220459,-9.539999961853027 6.815000057220459,9.539999961853027 6.815000057220459,9.539999961853027z"></path></g><g opacity="1" transform="matrix(1,0,0,1,72.56099700927734,29.88599967956543)"><path fill="rgb(214,124,42)" fill-opacity="1" d=" M6.815000057220459,9.539999961853027 C6.815000057220459,9.539999961853027 -6.815000057220459,9.539999961853027 -6.815000057220459,9.539999961853027 C-6.815000057220459,9.539999961853027 -6.815000057220459,-9.539999961853027 -6.815000057220459,-9.539999961853027 C-6.815000057220459,-9.539999961853027 6.815000057220459,-9.539999961853027 6.815000057220459,-9.539999961853027 C6.815000057220459,-9.539999961853027 6.815000057220459,9.539999961853027 6.815000057220459,9.539999961853027z"></path></g><g opacity="1" transform="matrix(1,0,0,1,52.73899841308594,56.27000045776367)"><path fill="rgb(95,49,29)" fill-opacity="1" d=" M-4.197999954223633,33.736000061035156 C-4.197999954223633,33.736000061035156 4.197999954223633,33.736000061035156 4.197999954223633,33.736000061035156 C4.197999954223633,33.736000061035156 4.197999954223633,-33.736000061035156 4.197999954223633,-33.736000061035156 C4.197999954223633,-33.736000061035156 -4.197999954223633,-33.736000061035156 -4.197999954223633,-33.736000061035156 C-4.197999954223633,-33.736000061035156 -4.197999954223633,33.736000061035156 -4.197999954223633,33.736000061035156z"></path></g><g opacity="1" transform="matrix(1,0,0,1,31.121999740600586,68.89199829101562)"><path fill="rgb(250,175,58)" fill-opacity="1" d=" M17.389999389648438,-48.547000885009766 C17.389999389648438,-48.547000885009766 -17.389999389648438,-48.547000885009766 -17.389999389648438,-48.547000885009766 C-17.389999389648438,-48.547000885009766 -17.389999389648438,22.61400032043457 -17.389999389648438,22.61400032043457 C-17.389999389648438,22.61400032043457 17.389999389648438,22.61400032043457 17.389999389648438,22.61400032043457 C17.389999389648438,22.61400032043457 17.389999389648438,-48.547000885009766 17.389999389648438,-48.547000885009766z"></path></g><g opacity="1" transform="matrix(1,0,0,1,31.263999938964844,15.329999923706055)"><path fill="rgb(162,86,24)" fill-opacity="1" d=" M16.065000534057617,5.013999938964844 C16.065000534057617,5.013999938964844 -16.065000534057617,5.013999938964844 -16.065000534057617,5.013999938964844 C-16.065000534057617,5.013999938964844 -15.984000205993652,-5.013999938964844 -15.984000205993652,-5.013999938964844 C-15.984000205993652,-5.013999938964844 16.065000534057617,-5.013999938964844 16.065000534057617,-5.013999938964844 C16.065000534057617,-5.013999938964844 16.065000534057617,5.013999938964844 16.065000534057617,5.013999938964844z"></path></g><g opacity="1" transform="matrix(1,0,0,1,64.20099639892578,51.198001861572266)"><path fill="rgb(250,175,58)" fill-opacity="1" d=" M6.7870001792907715,37.70600128173828 C6.7870001792907715,37.70600128173828 -6.7870001792907715,37.70600128173828 -6.7870001792907715,37.70600128173828 C-6.7870001792907715,37.70600128173828 -6.7870001792907715,-37.70600128173828 -6.7870001792907715,-37.70600128173828 C-6.7870001792907715,-37.70600128173828 6.7870001792907715,-37.70600128173828 6.7870001792907715,-37.70600128173828 C6.7870001792907715,-37.70600128173828 6.7870001792907715,37.70600128173828 6.7870001792907715,37.70600128173828z"></path></g><g opacity="1" transform="matrix(1,0,0,1,21.04400062561035,55.44200134277344)"><path fill="rgb(214,124,42)" fill-opacity="1" d=" M-7.311999797821045,-35.097999572753906 C-7.311999797821045,-35.097999572753906 -7.311999797821045,29.368000030517578 -7.311999797821045,29.368000030517578 C-7.311999797821045,29.368000030517578 7.311999797821045,35.097999572753906 7.311999797821045,35.097999572753906 C7.311999797821045,35.097999572753906 7.311999797821045,-1.4220000505447388 7.311999797821045,-1.4220000505447388 C7.311999797821045,-1.4220000505447388 -5.8460001945495605,-22.981000900268555 -5.8460001945495605,-22.981000900268555 C-5.8460001945495605,-22.981000900268555 -5.8460001945495605,-35.097999572753906 -5.8460001945495605,-35.097999572753906 C-5.8460001945495605,-35.097999572753906 -7.311999797821045,-35.097999572753906 -7.311999797821045,-35.097999572753906z"></path></g><g opacity="1" transform="matrix(1,0,0,1,60.39099884033203,61.36000061035156)"><path fill="rgb(214,124,42)" fill-opacity="1" d=" M-2.2660000324249268,25.270000457763672 C-2.2660000324249268,25.270000457763672 2.2660000324249268,25.270000457763672 2.2660000324249268,25.270000457763672 C2.2660000324249268,25.270000457763672 2.2660000324249268,-17.8439998626709 2.2660000324249268,-17.8439998626709 C2.2660000324249268,-17.8439998626709 -2.2660000324249268,-25.270000457763672 -2.2660000324249268,-25.270000457763672 C-2.2660000324249268,-25.270000457763672 -2.2660000324249268,25.270000457763672 -2.2660000324249268,25.270000457763672z"></path></g><g opacity="1" transform="matrix(1,0,0,1,68.01200103759766,48.8849983215332)"><path fill="rgb(214,124,42)" fill-opacity="1" d=" M2.2660000324249268,25.270000457763672 C2.2660000324249268,25.270000457763672 -2.2660000324249268,25.270000457763672 -2.2660000324249268,25.270000457763672 C-2.2660000324249268,25.270000457763672 -2.2660000324249268,-17.844999313354492 -2.2660000324249268,-17.844999313354492 C-2.2660000324249268,-17.844999313354492 2.2660000324249268,-25.270000457763672 2.2660000324249268,-25.270000457763672 C2.2660000324249268,-25.270000457763672 2.2660000324249268,25.270000457763672 2.2660000324249268,25.270000457763672z"></path></g><g opacity="1" transform="matrix(1,0,0,1,64.09200286865234,70.33399963378906)"><path fill="rgb(214,124,42)" fill-opacity="1" d=" M7.252999782562256,15.723999977111816 C7.252999782562256,15.723999977111816 -7.252999782562256,15.723999977111816 -7.252999782562256,15.723999977111816 C-7.252999782562256,15.723999977111816 -7.252999782562256,-15.723999977111816 -7.252999782562256,-15.723999977111816 C-7.252999782562256,-15.723999977111816 7.252999782562256,-15.723999977111816 7.252999782562256,-15.723999977111816 C7.252999782562256,-15.723999977111816 7.252999782562256,15.723999977111816 7.252999782562256,15.723999977111816z"></path></g><g opacity="1" transform="matrix(1,0,0,1,41.13800048828125,70.33399963378906)"><path fill="rgb(214,124,42)" fill-opacity="1" d=" M7.252999782562256,15.723999977111816 C7.252999782562256,15.723999977111816 -7.252999782562256,15.723999977111816 -7.252999782562256,15.723999977111816 C-7.252999782562256,15.723999977111816 -7.252999782562256,-15.723999977111816 -7.252999782562256,-15.723999977111816 C-7.252999782562256,-15.723999977111816 7.252999782562256,-15.723999977111816 7.252999782562256,-15.723999977111816 C7.252999782562256,-15.723999977111816 7.252999782562256,15.723999977111816 7.252999782562256,15.723999977111816z"></path></g><g opacity="1" transform="matrix(1,0,0,1,45.05799865722656,63.345001220703125)"><path fill="rgb(214,124,42)" fill-opacity="1" d=" M2.2660000324249268,25.270000457763672 C2.2660000324249268,25.270000457763672 -2.2660000324249268,25.270000457763672 -2.2660000324249268,25.270000457763672 C-2.2660000324249268,25.270000457763672 -2.2660000324249268,-17.844999313354492 -2.2660000324249268,-17.844999313354492 C-2.2660000324249268,-17.844999313354492 2.2660000324249268,-25.270000457763672 2.2660000324249268,-25.270000457763672 C2.2660000324249268,-25.270000457763672 2.2660000324249268,25.270000457763672 2.2660000324249268,25.270000457763672z"></path></g></g><g transform="matrix(0.21155484020709991,0,0,0.17543482780456543,30.351778030395508,144.31748962402344)" opacity="1" style="display: block;"><g opacity="1" transform="matrix(1,0,0,1,0,0)"><path fill="rgb(95,50,29)" fill-opacity="1" d=" M0,-50 C0,-50 0,50 0,50 C0,50 0,50 0,50 C0,50 0,-50 0,-50 C0,-50 0,-50 0,-50z"></path></g></g><g transform="matrix(0.21155484020709991,0,0,0.17543482780456543,30.351778030395508,127.29051208496094)" opacity="1" style="display: block;"><g opacity="1" transform="matrix(1,0,0,1,0,0)"><path fill="rgb(95,50,29)" fill-opacity="1" d=" M0,-50 C0,-50 0,50 0,50 C0,50 0,50 0,50 C0,50 0,-50 0,-50 C0,-50 0,-50 0,-50z"></path></g></g><g transform="matrix(0.21155484020709991,0,0,0.17543482780456543,30.351778030395508,110.2617416381836)" opacity="1" style="display: block;"><g opacity="1" transform="matrix(1,0,0,1,0,0)"><path fill="rgb(95,50,29)" fill-opacity="1" d=" M0,-50 C0,-50 0,50 0,50 C0,50 0,50 0,50 C0,50 0,-50 0,-50 C0,-50 0,-50 0,-50z"></path></g></g><g transform="matrix(0.21155484020709991,0,0,0.17543482780456543,62.60151672363281,144.31748962402344)" opacity="1" style="display: block;"><g opacity="1" transform="matrix(1,0,0,1,0,0)"><path fill="rgb(95,50,29)" fill-opacity="1" d=" M49.95366668701172,-50 C49.95366668701172,-50 49.95366668701172,50 49.95366668701172,50 C49.95366668701172,50 -49.95366668701172,50 -49.95366668701172,50 C-49.95366668701172,50 -49.95366668701172,-50 -49.95366668701172,-50 C-49.95366668701172,-50 49.95366668701172,-50 49.95366668701172,-50z"></path></g></g><g transform="matrix(0.21155484020709991,0,0,0.17543482780456543,62.60151672363281,127.29051208496094)" opacity="1" style="display: block;"><g opacity="1" transform="matrix(1,0,0,1,0,0)"><path fill="rgb(95,50,29)" fill-opacity="1" d=" M50,-50 C50,-50 50,50 50,50 C50,50 -50,50 -50,50 C-50,50 -50,-50 -50,-50 C-50,-50 50,-50 50,-50z"></path></g></g><g transform="matrix(0.21155484020709991,0,0,0.17543482780456543,62.60151672363281,110.2617416381836)" opacity="1" style="display: block;"><g opacity="1" transform="matrix(1,0,0,1,0,0)"><path fill="rgb(95,50,29)" fill-opacity="1" d=" M50,-50 C50,-50 50,50 50,50 C50,50 -50,50 -50,50 C-50,50 -50,-50 -50,-50 C-50,-50 50,-50 50,-50z"></path></g></g><g transform="matrix(0.21155484020709991,0,0,0.17543482780456543,106.20377349853516,144.31748962402344)" opacity="1" style="display: block;"><g opacity="1" transform="matrix(1,0,0,1,0,0)"><path fill="rgb(95,50,29)" fill-opacity="1" d=" M0,-50 C0,-50 0,50 0,50 C0,50 0,50 0,50 C0,50 0,-50 0,-50 C0,-50 0,-50 0,-50z"></path></g></g><g transform="matrix(0.21155484020709991,0,0,0.17543482780456543,106.20377349853516,127.29051208496094)" opacity="1" style="display: block;"><g opacity="1" transform="matrix(1,0,0,1,0,0)"><path fill="rgb(95,50,29)" fill-opacity="1" d=" M0,-50 C0,-50 0,50 0,50 C0,50 0,50 0,50 C0,50 0,-50 0,-50 C0,-50 0,-50 0,-50z"></path></g></g><g transform="matrix(0.21155484020709991,0,0,0.17543482780456543,106.20377349853516,110.2617416381836)" opacity="1" style="display: block;"><g opacity="1" transform="matrix(1,0,0,1,0,0)"><path fill="rgb(95,50,29)" fill-opacity="1" d=" M0,-50 C0,-50 0,50 0,50 C0,50 0,50 0,50 C0,50 0,-50 0,-50 C0,-50 0,-50 0,-50z"></path></g></g><g transform="matrix(1.8059998750686646,0,0,1.8059998750686646,-9.857006072998047,-4.758783340454102)" opacity="1" style="display: block;"><g opacity="1" transform="matrix(1,0,0,1,64.09200286865234,58.9010009765625)"><path fill="rgb(239,82,34)" fill-opacity="1" d=" M7.252999782562256,0.8960000276565552 C7.252999782562256,0.8960000276565552 -7.252999782562256,0.8960000276565552 -7.252999782562256,0.8960000276565552 C-7.252999782562256,0.8960000276565552 -7.252999782562256,-0.8960000276565552 -7.252999782562256,-0.8960000276565552 C-7.252999782562256,-0.8960000276565552 7.252999782562256,-0.8960000276565552 7.252999782562256,-0.8960000276565552 C7.252999782562256,-0.8960000276565552 7.252999782562256,0.8960000276565552 7.252999782562256,0.8960000276565552z"></path></g><g opacity="1" transform="matrix(1,0,0,1,64.09200286865234,68.56600189208984)"><path fill="rgb(239,82,34)" fill-opacity="1" d=" M7.252999782562256,0.8960000276565552 C7.252999782562256,0.8960000276565552 -7.252999782562256,0.8960000276565552 -7.252999782562256,0.8960000276565552 C-7.252999782562256,0.8960000276565552 -7.252999782562256,-0.8960000276565552 -7.252999782562256,-0.8960000276565552 C-7.252999782562256,-0.8960000276565552 7.252999782562256,-0.8960000276565552 7.252999782562256,-0.8960000276565552 C7.252999782562256,-0.8960000276565552 7.252999782562256,0.8960000276565552 7.252999782562256,0.8960000276565552z"></path></g><g opacity="1" transform="matrix(1,0,0,1,64.09200286865234,78.23200225830078)"><path fill="rgb(239,82,34)" fill-opacity="1" d=" M7.252999782562256,0.8960000276565552 C7.252999782562256,0.8960000276565552 -7.252999782562256,0.8960000276565552 -7.252999782562256,0.8960000276565552 C-7.252999782562256,0.8960000276565552 -7.252999782562256,-0.8960000276565552 -7.252999782562256,-0.8960000276565552 C-7.252999782562256,-0.8960000276565552 7.252999782562256,-0.8960000276565552 7.252999782562256,-0.8960000276565552 C7.252999782562256,-0.8960000276565552 7.252999782562256,0.8960000276565552 7.252999782562256,0.8960000276565552z"></path></g><g opacity="1" transform="matrix(1,0,0,1,70.29399871826172,49.595001220703125)"><path fill="rgb(162,86,24)" fill-opacity="1" d=" M-1.8869999647140503,39.27799987792969 C-1.8869999647140503,39.27799987792969 1.8869999647140503,39.27799987792969 1.8869999647140503,39.27799987792969 C1.8869999647140503,39.27799987792969 1.8869999647140503,-39.27799987792969 1.8869999647140503,-39.27799987792969 C1.8869999647140503,-39.27799987792969 -0.03500000014901161,-39.27799987792969 -0.03500000014901161,-39.27799987792969 C-0.03500000014901161,-39.27799987792969 -1.8869999647140503,-34.62300109863281 -1.8869999647140503,-34.62300109863281 C-1.8869999647140503,-34.62300109863281 -1.8869999647140503,39.27799987792969 -1.8869999647140503,39.27799987792969z"></path></g><g opacity="1" transform="matrix(1,0,0,1,58.10900115966797,49.595001220703125)"><path fill="rgb(162,86,24)" fill-opacity="1" d=" M1.8880000114440918,39.27799987792969 C1.8880000114440918,39.27799987792969 -1.8880000114440918,39.27799987792969 -1.8880000114440918,39.27799987792969 C-1.8880000114440918,39.27799987792969 -1.8880000114440918,-39.27799987792969 -1.8880000114440918,-39.27799987792969 C-1.8880000114440918,-39.27799987792969 0.03400000184774399,-39.27799987792969 0.03400000184774399,-39.27799987792969 C0.03400000184774399,-39.27799987792969 1.8880000114440918,-34.62300109863281 1.8880000114440918,-34.62300109863281 C1.8880000114440918,-34.62300109863281 1.8880000114440918,39.27799987792969 1.8880000114440918,39.27799987792969z"></path></g><g opacity="1" transform="matrix(1,0,0,1,9.789999961853027,49.645999908447266)"><path stroke-linecap="round" stroke-linejoin="round" fill-opacity="0" stroke="rgb(255,201,77)" stroke-opacity="1" stroke-width="1.5" d=" M-1.0740000009536743,-38.97200012207031 C-1.0740000009536743,-38.97200012207031 -1.0740000009536743,-13.5 -1.0740000009536743,-13.5 C-1.0740000009536743,-13.5 1.0740000009536743,-9.979000091552734 1.0740000009536743,-9.979000091552734 C1.0740000009536743,-9.979000091552734 1.0740000009536743,38.97200012207031 1.0740000009536743,38.97200012207031"></path></g><g opacity="1" transform="matrix(1,0,0,1,0,0)"><path stroke-linecap="round" stroke-linejoin="round" fill-opacity="0" stroke="rgb(17,128,195)" stroke-opacity="1" stroke-width="1.5" d=" M59.99599838256836,33.57099914550781 C59.99599838256836,33.57099914550781 59.99599838256836,87.63500213623047 59.99599838256836,87.63500213623047"></path></g><g opacity="1" transform="matrix(1,0,0,1,28.395999908447266,35.75699996948242)"><path fill="rgb(214,124,42)" fill-opacity="1" d=" M4.296000003814697,7.714000225067139 C4.296000003814697,7.714000225067139 -4.296000003814697,7.714000225067139 -4.296000003814697,7.714000225067139 C-4.296000003814697,7.714000225067139 -6.876999855041504,3.5850000381469727 -6.876999855041504,3.5850000381469727 C-6.876999855041504,3.5850000381469727 0,-7.714000225067139 0,-7.714000225067139 C0,-7.714000225067139 6.876999855041504,3.5850000381469727 6.876999855041504,3.5850000381469727 C6.876999855041504,3.5850000381469727 4.296000003814697,7.714000225067139 4.296000003814697,7.714000225067139z"></path></g><g opacity="1" transform="matrix(1,0,0,1,28.395999908447266,33.55799865722656)"><path fill="rgb(255,201,77)" fill-opacity="1" d=" M1.9819999933242798,0 C1.9819999933242798,-1.093999981880188 1.093999981880188,-1.9809999465942383 0,-1.9809999465942383 C-1.0950000286102295,-1.9809999465942383 -1.9819999933242798,-1.093999981880188 -1.9819999933242798,0 C-1.9819999933242798,1.093999981880188 -1.0950000286102295,1.9809999465942383 0,1.9809999465942383 C1.093999981880188,1.9809999465942383 1.9819999933242798,1.093999981880188 1.9819999933242798,0z"></path></g><g opacity="1" transform="matrix(1,0,0,1,28.39699935913086,38.209999084472656)"><path fill="rgb(255,201,77)" fill-opacity="1" d=" M0.7260000109672546,-4.651000022888184 C0.7260000109672546,-4.651000022888184 -0.7260000109672546,-4.651000022888184 -0.7260000109672546,-4.651000022888184 C-0.7260000109672546,-4.651000022888184 -0.7260000109672546,4.651000022888184 -0.7260000109672546,4.651000022888184 C-0.7260000109672546,4.651000022888184 0.7260000109672546,4.651000022888184 0.7260000109672546,4.651000022888184 C0.7260000109672546,4.651000022888184 0.7260000109672546,-4.651000022888184 0.7260000109672546,-4.651000022888184z"></path></g><g opacity="1" transform="matrix(1,0,0,1,28.395999908447266,39.03799819946289)"><path fill="rgb(255,201,77)" fill-opacity="1" d=" M3.8289999961853027,-3.822999954223633 C3.8289999961853027,-3.822999954223633 2.1029999256134033,0.49000000953674316 2.1029999256134033,0.49000000953674316 C2.1029999256134033,0.49000000953674316 -2.1029999256134033,0.49000000953674316 -2.1029999256134033,0.49000000953674316 C-2.1029999256134033,0.49000000953674316 -3.8289999961853027,-3.822999954223633 -3.8289999961853027,-3.822999954223633 C-3.8289999961853027,-3.822999954223633 -4.335000038146973,-2.990000009536743 -4.335000038146973,-2.990000009536743 C-4.335000038146973,-2.990000009536743 -1.6449999809265137,3.822999954223633 -1.6449999809265137,3.822999954223633 C-1.6449999809265137,3.822999954223633 1.6449999809265137,3.822999954223633 1.6449999809265137,3.822999954223633 C1.6449999809265137,3.822999954223633 4.335000038146973,-2.990000009536743 4.335000038146973,-2.990000009536743 C4.335000038146973,-2.990000009536743 3.8289999961853027,-3.822999954223633 3.8289999961853027,-3.822999954223633z"></path></g><g opacity="1" transform="matrix(1,0,0,1,28.395999908447266,35.96900177001953)"><path stroke-linecap="butt" stroke-linejoin="miter" fill-opacity="0" stroke-miterlimit="10" stroke="rgb(237,108,58)" stroke-opacity="1" stroke-width="0.716" d=" M0,-7.044000148773193 C0,-7.044000148773193 -6.3379998207092285,3.369999885559082 -6.3379998207092285,3.369999885559082 C-6.3379998207092285,3.369999885559082 -4.041999816894531,7.044000148773193 -4.041999816894531,7.044000148773193 C-4.041999816894531,7.044000148773193 4.041999816894531,7.044000148773193 4.041999816894531,7.044000148773193 C4.041999816894531,7.044000148773193 6.3379998207092285,3.369999885559082 6.3379998207092285,3.369999885559082 C6.3379998207092285,3.369999885559082 0,-7.044000148773193 0,-7.044000148773193z"></path></g><g opacity="1" transform="matrix(1,0,0,1,41.13800048828125,58.9010009765625)"><path fill="rgb(239,82,34)" fill-opacity="1" d=" M7.252999782562256,0.8960000276565552 C7.252999782562256,0.8960000276565552 -7.252999782562256,0.8960000276565552 -7.252999782562256,0.8960000276565552 C-7.252999782562256,0.8960000276565552 -7.252999782562256,-0.8960000276565552 -7.252999782562256,-0.8960000276565552 C-7.252999782562256,-0.8960000276565552 7.252999782562256,-0.8960000276565552 7.252999782562256,-0.8960000276565552 C7.252999782562256,-0.8960000276565552 7.252999782562256,0.8960000276565552 7.252999782562256,0.8960000276565552z"></path></g><g opacity="1" transform="matrix(1,0,0,1,41.13800048828125,68.56600189208984)"><path fill="rgb(239,82,34)" fill-opacity="1" d=" M7.252999782562256,0.8960000276565552 C7.252999782562256,0.8960000276565552 -7.252999782562256,0.8960000276565552 -7.252999782562256,0.8960000276565552 C-7.252999782562256,0.8960000276565552 -7.252999782562256,-0.8960000276565552 -7.252999782562256,-0.8960000276565552 C-7.252999782562256,-0.8960000276565552 7.252999782562256,-0.8960000276565552 7.252999782562256,-0.8960000276565552 C7.252999782562256,-0.8960000276565552 7.252999782562256,0.8960000276565552 7.252999782562256,0.8960000276565552z"></path></g><g opacity="1" transform="matrix(1,0,0,1,41.13800048828125,78.23200225830078)"><path fill="rgb(239,82,34)" fill-opacity="1" d=" M7.252999782562256,0.8960000276565552 C7.252999782562256,0.8960000276565552 -7.252999782562256,0.8960000276565552 -7.252999782562256,0.8960000276565552 C-7.252999782562256,0.8960000276565552 -7.252999782562256,-0.8960000276565552 -7.252999782562256,-0.8960000276565552 C-7.252999782562256,-0.8960000276565552 7.252999782562256,-0.8960000276565552 7.252999782562256,-0.8960000276565552 C7.252999782562256,-0.8960000276565552 7.252999782562256,0.8960000276565552 7.252999782562256,0.8960000276565552z"></path></g><g opacity="1" transform="matrix(1,0,0,1,47.34000015258789,55.15599822998047)"><path fill="rgb(162,86,24)" fill-opacity="1" d=" M-1.8869999647140503,33.71699905395508 C-1.8869999647140503,33.71699905395508 1.8869999647140503,33.71699905395508 1.8869999647140503,33.71699905395508 C1.8869999647140503,33.71699905395508 1.8869999647140503,-32.62200164794922 1.8869999647140503,-32.62200164794922 C1.8869999647140503,-32.62200164794922 -1.8869999647140503,-33.71699905395508 -1.8869999647140503,-33.71699905395508 C-1.8869999647140503,-33.71699905395508 -1.8869999647140503,33.71699905395508 -1.8869999647140503,33.71699905395508z"></path></g><g opacity="1" transform="matrix(1,0,0,1,21.104000091552734,58.9010009765625)"><path fill="rgb(239,82,34)" fill-opacity="1" d=" M-7.252999782562256,0.8960000276565552 C-7.252999782562256,0.8960000276565552 7.252999782562256,0.8960000276565552 7.252999782562256,0.8960000276565552 C7.252999782562256,0.8960000276565552 7.252999782562256,-0.8960000276565552 7.252999782562256,-0.8960000276565552 C7.252999782562256,-0.8960000276565552 -7.252999782562256,-0.8960000276565552 -7.252999782562256,-0.8960000276565552 C-7.252999782562256,-0.8960000276565552 -7.252999782562256,0.8960000276565552 -7.252999782562256,0.8960000276565552z"></path></g><g opacity="1" transform="matrix(1,0,0,1,21.104000091552734,68.56600189208984)"><path fill="rgb(239,82,34)" fill-opacity="1" d=" M-7.252999782562256,0.8960000276565552 C-7.252999782562256,0.8960000276565552 7.252999782562256,0.8960000276565552 7.252999782562256,0.8960000276565552 C7.252999782562256,0.8960000276565552 7.252999782562256,-0.8960000276565552 7.252999782562256,-0.8960000276565552 C7.252999782562256,-0.8960000276565552 -7.252999782562256,-0.8960000276565552 -7.252999782562256,-0.8960000276565552 C-7.252999782562256,-0.8960000276565552 -7.252999782562256,0.8960000276565552 -7.252999782562256,0.8960000276565552z"></path></g><g opacity="1" transform="matrix(1,0,0,1,21.104000091552734,78.23200225830078)"><path fill="rgb(239,82,34)" fill-opacity="1" d=" M-7.252999782562256,0.8960000276565552 C-7.252999782562256,0.8960000276565552 7.252999782562256,0.8960000276565552 7.252999782562256,0.8960000276565552 C7.252999782562256,0.8960000276565552 7.252999782562256,-0.8960000276565552 7.252999782562256,-0.8960000276565552 C7.252999782562256,-0.8960000276565552 -7.252999782562256,-0.8960000276565552 -7.252999782562256,-0.8960000276565552 C-7.252999782562256,-0.8960000276565552 -7.252999782562256,0.8960000276565552 -7.252999782562256,0.8960000276565552z"></path></g><g opacity="1" transform="matrix(1,0,0,1,14.902000427246094,54.60900115966797)"><path fill="rgb(162,86,24)" fill-opacity="1" d=" M1.8880000114440918,34.263999938964844 C1.8880000114440918,34.263999938964844 -1.8880000114440918,34.263999938964844 -1.8880000114440918,34.263999938964844 C-1.8880000114440918,34.263999938964844 -1.8880000114440918,-34.263999938964844 -1.8880000114440918,-34.263999938964844 C-1.8880000114440918,-34.263999938964844 1.8880000114440918,-33.16899871826172 1.8880000114440918,-33.16899871826172 C1.8880000114440918,-33.16899871826172 1.8880000114440918,34.263999938964844 1.8880000114440918,34.263999938964844z"></path></g><g opacity="1" transform="matrix(1,0,0,1,31.121999740600586,21.440000534057617)"><path fill="rgb(255,201,77)" fill-opacity="1" d=" M18.10700035095215,1.0950000286102295 C18.10700035095215,1.0950000286102295 -18.10700035095215,1.0950000286102295 -18.10700035095215,1.0950000286102295 C-18.10700035095215,1.0950000286102295 -18.10700035095215,-1.0950000286102295 -18.10700035095215,-1.0950000286102295 C-18.10700035095215,-1.0950000286102295 18.10700035095215,-1.0950000286102295 18.10700035095215,-1.0950000286102295 C18.10700035095215,-1.0950000286102295 18.10700035095215,1.0950000286102295 18.10700035095215,1.0950000286102295z"></path></g><g opacity="1" transform="matrix(1,0,0,1,19.461000442504883,47.14500045776367)"><path stroke-linecap="round" stroke-linejoin="round" fill-opacity="0" stroke="rgb(17,128,195)" stroke-opacity="1" stroke-width="1.5" d=" M-4.26200008392334,-43.39500045776367 C-4.26200008392334,-43.39500045776367 -4.26200008392334,-7.514999866485596 -4.26200008392334,-7.514999866485596 C-4.26200008392334,-7.514999866485596 4.26200008392334,6.452000141143799 4.26200008392334,6.452000141143799 C4.26200008392334,6.452000141143799 4.26200008392334,43.39500045776367 4.26200008392334,43.39500045776367"></path></g><g opacity="1" transform="matrix(1,0,0,1,0,0)"><path stroke-linecap="round" stroke-linejoin="round" fill-opacity="0" stroke="rgb(17,128,195)" stroke-opacity="1" stroke-width="1.5" d=" M47.32899856567383,3.75 C47.32899856567383,3.75 47.32899856567383,86.96299743652344 47.32899856567383,86.96299743652344"></path></g><g opacity="1" transform="matrix(1,0,0,1,0,0)"><path stroke-linecap="round" stroke-linejoin="miter" fill-opacity="0" stroke-miterlimit="10" stroke="rgb(162,86,24)" stroke-opacity="1" stroke-width="1.5" d=" M33.88600158691406,88.04499816894531 C33.88600158691406,88.04499816894531 33.88600158691406,47.14500045776367 33.88600158691406,47.14500045776367"></path></g><g opacity="1" transform="matrix(1,0,0,1,23.538999557495117,52.37699890136719)"><path stroke-linecap="round" stroke-linejoin="round" fill-opacity="0" stroke="rgb(255,201,77)" stroke-opacity="1" stroke-width="1.5" d=" M4.817999839782715,35.667999267578125 C4.817999839782715,35.667999267578125 4.817999839782715,1.6419999599456787 4.817999839782715,1.6419999599456787 C4.817999839782715,1.6419999599456787 -4.817999839782715,-14.142999649047852 -4.817999839782715,-14.142999649047852 C-4.817999839782715,-14.142999649047852 -4.817999839782715,-35.667999267578125 -4.817999839782715,-35.667999267578125"></path></g><g opacity="1" transform="matrix(1,0,0,1,46.49800109863281,89.6500015258789)"><path fill="rgb(255,201,77)" fill-opacity="1" d=" M-5.859000205993652,-1.6050000190734863 C-4.620999813079834,0.3240000009536743 -2.4630000591278076,1.6050000190734863 -0.0010000000474974513,1.6050000190734863 C2.4619998931884766,1.6050000190734863 4.620999813079834,0.3240000009536743 5.859000205993652,-1.6050000190734863 C5.859000205993652,-1.6050000190734863 -5.859000205993652,-1.6050000190734863 -5.859000205993652,-1.6050000190734863z"></path></g></g></g></svg>