<svg xmlns="http://www.w3.org/2000/svg" viewBox="0 0 92 84" width="92" height="84" preserveAspectRatio="xMidYMid meet" style="width: 100%; height: 100%; transform: translate3d(0px, 0px, 0px); content-visibility: visible;"><defs><clipPath id="__lottie_element_1458"><rect width="92" height="84" x="0" y="0"></rect></clipPath><clipPath id="__lottie_element_1467"><path d="M0,0 L500,0 L500,500 L0,500z"></path></clipPath><mask id="__lottie_element_1470" mask-type="alpha"><g transform="matrix(0.4794314205646515,0.009217281825840473,-0.00998538825660944,0.5193840265274048,14.642919540405273,62.187862396240234)" opacity="1" style="display: block;"><path fill="rgb(255,0,0)" fill-opacity="1" d=" M50,-50 C50,-50 50,50 50,50 C50,50 -50,50 -50,50 C-50,50 -50,-50 -50,-50 C-50,-50 50,-50 50,-50z"></path></g></mask><clipPath id="__lottie_element_1474"><path d="M0,0 L500,0 L500,500 L0,500z"></path></clipPath><mask id="__lottie_element_1477" mask-type="alpha"><g transform="matrix(0.4794314205646515,0.009217281825840473,-0.00998538825660944,0.5193840265274048,73.55664825439453,63.25436782836914)" opacity="1" style="display: block;"><path fill="rgb(255,0,0)" fill-opacity="1" d=" M49.900001525878906,-34.28200149536133 C49.900001525878906,-34.28200149536133 50,50 50,50 C50,50 -50,50 -50,50 C-50,50 -50.099998474121094,-34.28200149536133 -50.099998474121094,-34.28200149536133 C-50.099998474121094,-34.28200149536133 49.900001525878906,-34.28200149536133 49.900001525878906,-34.28200149536133z"></path></g></mask></defs><g clip-path="url(#__lottie_element_1458)"><g transform="matrix(0.2902924120426178,0,0,0.2902924120426178,6.404845714569092,17.476770401000977)" opacity="1" style="display: block;"><g opacity="1" transform="matrix(1,0,0,1,136.30599975585938,111.68199920654297)"><path fill="rgb(189,164,99)" fill-opacity="1" d=" M135.38499450683594,-37.297000885009766 C135.40699768066406,-37.380001068115234 135.42799377441406,-37.4630012512207 135.44900512695312,-37.547000885009766 C135.5570068359375,-37.974998474121094 135.656005859375,-38.40399932861328 135.73500061035156,-38.84299850463867 C135.76600646972656,-39.012001037597656 135.78700256347656,-39.185001373291016 135.81300354003906,-39.35599899291992 C135.8719940185547,-39.736000061035156 135.93299865722656,-40.117000579833984 135.968994140625,-40.50600051879883 C136.02000427246094,-41.053001403808594 136.0500030517578,-41.60599899291992 136.05299377441406,-42.165000915527344 C136.05299377441406,-42.165000915527344 136.05299377441406,-42.16899871826172 136.05299377441406,-42.16899871826172 C136.05299377441406,-42.20899963378906 136.05799865722656,-42.244998931884766 136.05799865722656,-42.28200149536133 C136.05799865722656,-45.58000183105469 135.43600463867188,-47.46900177001953 134.0240020751953,-51.62200164794922 C132.76800537109375,-55.31399917602539 130.90899658203125,-59.43000030517578 130.90899658203125,-59.43000030517578 C130.90899658203125,-59.43000030517578 130.906005859375,-59.43199920654297 130.906005859375,-59.43199920654297 C128.71099853515625,-64.52200317382812 123.6520004272461,-68.08599853515625 117.75800323486328,-68.08599853515625 C111.86299896240234,-68.08599853515625 106.80500030517578,-64.52200317382812 104.61100006103516,-59.43299865722656 C104.61100006103516,-59.43299865722656 104.60600280761719,-59.43000030517578 104.60600280761719,-59.43000030517578 C104.60600280761719,-59.43000030517578 100.56999969482422,-52.8129997253418 100.56999969482422,-52.8129997253418 C100.56999969482422,-52.8129997253418 100.56900024414062,-52.8129997253418 100.56900024414062,-52.8129997253418 C100.56900024414062,-52.8129997253418 100.1259994506836,-52.08599853515625 100.1259994506836,-52.08599853515625 C100.1259994506836,-52.08599853515625 99.71099853515625,-51.404998779296875 99.71099853515625,-51.404998779296875 C99.71099853515625,-51.404998779296875 99.71399688720703,-51.400001525878906 99.71399688720703,-51.400001525878906 C98.9530029296875,-49.981998443603516 98.36699676513672,-48.457000732421875 97.97699737548828,-46.85599899291992 C97.97699737548828,-46.85599899291992 97.9749984741211,-46.85900115966797 97.9749984741211,-46.85900115966797 C97.9749984741211,-46.85900115966797 94.46900177001953,-32.69900131225586 94.46900177001953,-32.69900131225586 C94.46900177001953,-32.69900131225586 38.23099899291992,-96.18599700927734 38.23099899291992,-96.18599700927734 C38.23099899291992,-96.18599700927734 21.062999725341797,-96.18599700927734 21.062999725341797,-96.18599700927734 C21.062999725341797,-96.18599700927734 17.746999740600586,-96.18599700927734 17.746999740600586,-96.18599700927734 C17.746999740600586,-96.18599700927734 17.746999740600586,-57.452999114990234 17.746999740600586,-57.452999114990234 C17.746999740600586,-57.452999114990234 -24.243999481201172,-57.452999114990234 -24.243999481201172,-57.452999114990234 C-24.243999481201172,-57.452999114990234 -24.243999481201172,-96.18599700927734 -24.243999481201172,-96.18599700927734 C-24.243999481201172,-96.18599700927734 -27.559999465942383,-96.18599700927734 -27.559999465942383,-96.18599700927734 C-27.559999465942383,-96.18599700927734 -44.72800064086914,-96.18599700927734 -44.72800064086914,-96.18599700927734 C-44.72800064086914,-96.18599700927734 -94.56700134277344,-39.922000885009766 -94.56700134277344,-39.922000885009766 C-94.56700134277344,-39.922000885009766 -97.9209976196289,-39.922000885009766 -97.9209976196289,-39.922000885009766 C-97.9209976196289,-39.922000885009766 -97.9209976196289,-36.13600158691406 -97.9209976196289,-36.13600158691406 C-97.9209976196289,-36.13600158691406 -102.5459976196289,-30.913999557495117 -102.5459976196289,-30.913999557495117 C-102.5459976196289,-30.913999557495117 -102.5260009765625,-30.917999267578125 -102.5260009765625,-30.917999267578125 C-113.0270004272461,-24.798999786376953 -121.36299896240234,-17.702999114990234 -126.94200134277344,-9.930999755859375 C-126.94200134277344,-9.930999755859375 -126.9540023803711,-9.930999755859375 -126.9540023803711,-9.930999755859375 C-131.9810028076172,-9.930999755859375 -136.0570068359375,-0.7549999952316284 -136.0570068359375,10.564000129699707 C-136.0570068359375,21.882999420166016 -131.9810028076172,31.05900001525879 -126.9540023803711,31.05900001525879 C-126.9540023803711,31.05900001525879 -124.58300018310547,31.05900001525879 -124.58300018310547,31.05900001525879 C-124.58300018310547,31.05900001525879 -124.58300018310547,42.38199996948242 -124.58300018310547,42.38199996948242 C-110.99400329589844,73.28800201416016 -61.83399963378906,96.18599700927734 -3.246999979019165,96.18599700927734 C55.3390007019043,96.18599700927734 104.5009994506836,73.28800201416016 118.08899688720703,42.38199996948242 C118.08899688720703,42.38199996948242 118.08899688720703,31.05900001525879 118.08899688720703,31.05900001525879 C118.08899688720703,31.05900001525879 120.45999908447266,31.05900001525879 120.45999908447266,31.05900001525879 C125.48699951171875,31.05900001525879 129.56300354003906,21.882999420166016 129.56300354003906,10.564000129699707 C129.56300354003906,1.7719999551773071 127.0989990234375,-5.703000068664551 123.64600372314453,-8.61400032043457 C125.14299774169922,-9.579999923706055 126.32599639892578,-11.013999938964844 126.93599700927734,-12.767000198364258 C126.93599700927734,-12.767000198364258 134.97999572753906,-35.90800094604492 134.97999572753906,-35.90800094604492 C134.97999572753906,-35.90800094604492 134.95799255371094,-35.904998779296875 134.95799255371094,-35.904998779296875 C134.95799255371094,-35.904998779296875 134.95899963378906,-35.90599822998047 134.95899963378906,-35.90599822998047 C135.1179962158203,-36.36199951171875 135.25999450683594,-36.82500076293945 135.38499450683594,-37.297000885009766z"></path></g></g><g mask="url(#__lottie_element_1470)" style="display: block;"><g clip-path="url(#__lottie_element_1467)" transform="matrix(0.3329384922981262,0.0064008901827037334,-0.0064008901827037334,0.3329384922981262,-60.85274887084961,-38.44896697998047)" opacity="0.7000000000000001"><g transform="matrix(1,0,0,1,176,146.74746704101562)" opacity="1" style="display: block;"><g opacity="1" transform="matrix(1,0,0,1,39.45500183105469,91.15799713134766)"><path fill="rgb(204,221,242)" fill-opacity="1" d=" M-3.319999933242798,66.94200134277344 C-3.319999933242798,66.94200134277344 -11.866999626159668,-65.16500091552734 -11.866999626159668,-65.16500091552734 C-12.204999923706055,-68.2300033569336 -9.805000305175781,-70.90799713134766 -6.7220001220703125,-70.90799713134766 C-6.7220001220703125,-70.90799713134766 6.7220001220703125,-70.90799713134766 6.7220001220703125,-70.90799713134766 C9.805999755859375,-70.90799713134766 12.204999923706055,-68.2300033569336 11.868000030517578,-65.16500091552734 C11.868000030517578,-65.16500091552734 3.321000099182129,66.94200134277344 3.321000099182129,66.94200134277344 C2.884000062942505,70.90799713134766 -2.882999897003174,70.90799713134766 -3.319999933242798,66.94200134277344z"></path></g></g><g transform="matrix(1,0,0,1,218.5,163.12710571289062)" opacity="1" style="display: block;"><g opacity="1" transform="matrix(1,0,0,1,12.454999923706055,71.15799713134766)"><path fill="rgb(204,221,242)" fill-opacity="1" d=" M-3.319999933242798,66.94200134277344 C-3.319999933242798,66.94200134277344 -11.866999626159668,-65.16500091552734 -11.866999626159668,-65.16500091552734 C-12.204999923706055,-68.2300033569336 -9.805000305175781,-70.90799713134766 -6.7220001220703125,-70.90799713134766 C-6.7220001220703125,-70.90799713134766 6.7220001220703125,-70.90799713134766 6.7220001220703125,-70.90799713134766 C9.805999755859375,-70.90799713134766 12.204999923706055,-68.2300033569336 11.868000030517578,-65.16500091552734 C11.868000030517578,-65.16500091552734 3.321000099182129,66.94200134277344 3.321000099182129,66.94200134277344 C2.884000062942505,70.90799713134766 -2.882999897003174,70.90799713134766 -3.319999933242798,66.94200134277344z"></path></g></g><g transform="matrix(1,0,0,1,218.5,151.4830322265625)" opacity="1" style="display: block;"><g opacity="1" transform="matrix(1,0,0,1,28.454999923706055,113.15799713134766)"><path fill="rgb(204,221,242)" fill-opacity="1" d=" M-3.319999933242798,66.94200134277344 C-3.319999933242798,66.94200134277344 -14.866999626159668,-65.16500091552734 -14.866999626159668,-65.16500091552734 C-15.204999923706055,-68.2300033569336 -12.805000305175781,-70.90799713134766 -9.722000122070312,-70.90799713134766 C-9.722000122070312,-70.90799713134766 9.722000122070312,-70.90799713134766 9.722000122070312,-70.90799713134766 C12.805999755859375,-70.90799713134766 15.204999923706055,-68.2300033569336 14.868000030517578,-65.16500091552734 C14.868000030517578,-65.16500091552734 3.321000099182129,66.94200134277344 3.321000099182129,66.94200134277344 C2.884000062942505,70.90799713134766 -2.882999897003174,70.90799713134766 -3.319999933242798,66.94200134277344z"></path></g></g><g transform="matrix(1,0,0,1,238,178.27540588378906)" opacity="1" style="display: block;"><g opacity="1" transform="matrix(1,0,0,1,39.45500183105469,91.15799713134766)"><path fill="rgb(204,221,242)" fill-opacity="1" d=" M-3.319999933242798,66.94200134277344 C-3.319999933242798,66.94200134277344 -11.866999626159668,-65.16500091552734 -11.866999626159668,-65.16500091552734 C-12.204999923706055,-68.2300033569336 -9.805000305175781,-70.90799713134766 -6.7220001220703125,-70.90799713134766 C-6.7220001220703125,-70.90799713134766 6.7220001220703125,-70.90799713134766 6.7220001220703125,-70.90799713134766 C9.805999755859375,-70.90799713134766 12.204999923706055,-68.2300033569336 11.868000030517578,-65.16500091552734 C11.868000030517578,-65.16500091552734 3.321000099182129,66.94200134277344 3.321000099182129,66.94200134277344 C2.884000062942505,70.90799713134766 -2.882999897003174,70.90799713134766 -3.319999933242798,66.94200134277344z"></path></g></g></g></g><g mask="url(#__lottie_element_1477)" style="display: block;"><g clip-path="url(#__lottie_element_1474)" transform="matrix(-0.3329384922981262,-0.0064008901827037334,-0.0064008901827037334,0.3329384922981262,153.93023681640625,-35.50437927246094)" opacity="0.7000000000000001"><g transform="matrix(1,0,0,1,176,146.74746704101562)" opacity="1" style="display: block;"><g opacity="1" transform="matrix(1,0,0,1,39.45500183105469,91.15799713134766)"><path fill="rgb(204,221,242)" fill-opacity="1" d=" M-3.319999933242798,66.94200134277344 C-3.319999933242798,66.94200134277344 -11.866999626159668,-65.16500091552734 -11.866999626159668,-65.16500091552734 C-12.204999923706055,-68.2300033569336 -9.805000305175781,-70.90799713134766 -6.7220001220703125,-70.90799713134766 C-6.7220001220703125,-70.90799713134766 6.7220001220703125,-70.90799713134766 6.7220001220703125,-70.90799713134766 C9.805999755859375,-70.90799713134766 12.204999923706055,-68.2300033569336 11.868000030517578,-65.16500091552734 C11.868000030517578,-65.16500091552734 3.321000099182129,66.94200134277344 3.321000099182129,66.94200134277344 C2.884000062942505,70.90799713134766 -2.882999897003174,70.90799713134766 -3.319999933242798,66.94200134277344z"></path></g></g><g transform="matrix(1,0,0,1,218.5,163.12710571289062)" opacity="1" style="display: block;"><g opacity="1" transform="matrix(1,0,0,1,12.454999923706055,71.15799713134766)"><path fill="rgb(204,221,242)" fill-opacity="1" d=" M-3.319999933242798,66.94200134277344 C-3.319999933242798,66.94200134277344 -11.866999626159668,-65.16500091552734 -11.866999626159668,-65.16500091552734 C-12.204999923706055,-68.2300033569336 -9.805000305175781,-70.90799713134766 -6.7220001220703125,-70.90799713134766 C-6.7220001220703125,-70.90799713134766 6.7220001220703125,-70.90799713134766 6.7220001220703125,-70.90799713134766 C9.805999755859375,-70.90799713134766 12.204999923706055,-68.2300033569336 11.868000030517578,-65.16500091552734 C11.868000030517578,-65.16500091552734 3.321000099182129,66.94200134277344 3.321000099182129,66.94200134277344 C2.884000062942505,70.90799713134766 -2.882999897003174,70.90799713134766 -3.319999933242798,66.94200134277344z"></path></g></g><g transform="matrix(1,0,0,1,218.5,151.4830322265625)" opacity="1" style="display: block;"><g opacity="1" transform="matrix(1,0,0,1,28.454999923706055,113.15799713134766)"><path fill="rgb(204,221,242)" fill-opacity="1" d=" M-3.319999933242798,66.94200134277344 C-3.319999933242798,66.94200134277344 -14.866999626159668,-65.16500091552734 -14.866999626159668,-65.16500091552734 C-15.204999923706055,-68.2300033569336 -12.805000305175781,-70.90799713134766 -9.722000122070312,-70.90799713134766 C-9.722000122070312,-70.90799713134766 9.722000122070312,-70.90799713134766 9.722000122070312,-70.90799713134766 C12.805999755859375,-70.90799713134766 15.204999923706055,-68.2300033569336 14.868000030517578,-65.16500091552734 C14.868000030517578,-65.16500091552734 3.321000099182129,66.94200134277344 3.321000099182129,66.94200134277344 C2.884000062942505,70.90799713134766 -2.882999897003174,70.90799713134766 -3.319999933242798,66.94200134277344z"></path></g></g><g transform="matrix(1,0,0,1,238,178.27540588378906)" opacity="1" style="display: block;"><g opacity="1" transform="matrix(1,0,0,1,39.45500183105469,91.15799713134766)"><path fill="rgb(204,221,242)" fill-opacity="1" d=" M-3.319999933242798,66.94200134277344 C-3.319999933242798,66.94200134277344 -11.866999626159668,-65.16500091552734 -11.866999626159668,-65.16500091552734 C-12.204999923706055,-68.2300033569336 -9.805000305175781,-70.90799713134766 -6.7220001220703125,-70.90799713134766 C-6.7220001220703125,-70.90799713134766 6.7220001220703125,-70.90799713134766 6.7220001220703125,-70.90799713134766 C9.805999755859375,-70.90799713134766 12.204999923706055,-68.2300033569336 11.868000030517578,-65.16500091552734 C11.868000030517578,-65.16500091552734 3.321000099182129,66.94200134277344 3.321000099182129,66.94200134277344 C2.884000062942505,70.90799713134766 -2.882999897003174,70.90799713134766 -3.319999933242798,66.94200134277344z"></path></g></g><g transform="matrix(1,0,0,1,255.5,188.22036743164062)" opacity="1" style="display: block;"><g opacity="1" transform="matrix(1,0,0,1,39.45500183105469,91.15799713134766)"><path fill="rgb(204,221,242)" fill-opacity="1" d=" M-3.319999933242798,66.94200134277344 C-3.319999933242798,66.94200134277344 -11.866999626159668,-65.16500091552734 -11.866999626159668,-65.16500091552734 C-12.204999923706055,-68.2300033569336 -9.805000305175781,-70.90799713134766 -6.7220001220703125,-70.90799713134766 C-6.7220001220703125,-70.90799713134766 6.7220001220703125,-70.90799713134766 6.7220001220703125,-70.90799713134766 C9.805999755859375,-70.90799713134766 12.204999923706055,-68.2300033569336 11.868000030517578,-65.16500091552734 C11.868000030517578,-65.16500091552734 3.321000099182129,66.94200134277344 3.321000099182129,66.94200134277344 C2.884000062942505,70.90799713134766 -2.882999897003174,70.90799713134766 -3.319999933242798,66.94200134277344z"></path></g></g></g></g><g transform="matrix(0.33295896649360657,-0.0052282060496509075,0.0052282060496509075,0.33295896649360657,0.16242949664592743,3.869619369506836)" opacity="1" style="display: block;"><g opacity="1" transform="matrix(1,0,0,1,133.06100463867188,110.41400146484375)"><path fill="rgb(174,153,164)" fill-opacity="1" d=" M-118.83000183105469,-14.685999870300293 C-118.83000183105469,-14.685999870300293 118.83000183105469,-14.685999870300293 118.83000183105469,-14.685999870300293 C118.83000183105469,-14.685999870300293 118.83000183105469,14.685999870300293 118.83000183105469,14.685999870300293 C118.83000183105469,14.685999870300293 -118.83000183105469,14.685999870300293 -118.83000183105469,14.685999870300293 C-118.83000183105469,14.685999870300293 -118.83000183105469,-14.685999870300293 -118.83000183105469,-14.685999870300293z"></path></g><g opacity="1" transform="matrix(1,0,0,1,133.06100463867188,44.875)"><path fill="rgb(78,67,95)" fill-opacity="1" d=" M-22.50200080871582,5.892000198364258 C-22.50200080871582,5.892000198364258 22.50200080871582,5.892000198364258 22.50200080871582,5.892000198364258 C22.50200080871582,5.892000198364258 22.50200080871582,-5.892000198364258 22.50200080871582,-5.892000198364258 C22.50200080871582,-5.892000198364258 -22.50200080871582,-5.892000198364258 -22.50200080871582,-5.892000198364258 C-22.50200080871582,-5.892000198364258 -22.50200080871582,5.892000198364258 -22.50200080871582,5.892000198364258z"></path></g><g opacity="1" transform="matrix(1,0,0,1,193.20599365234375,32.88600158691406)"><path fill="rgb(194,172,185)" fill-opacity="1" d=" M39.1510009765625,32.6349983215332 C39.1510009765625,32.6349983215332 -18.667999267578125,-32.6349983215332 -18.667999267578125,-32.6349983215332 C-18.667999267578125,-32.6349983215332 -39.1510009765625,-32.6349983215332 -39.1510009765625,-32.6349983215332 C-39.1510009765625,-32.6349983215332 -39.1510009765625,15.29800033569336 -39.1510009765625,15.29800033569336 C-39.1510009765625,15.29800033569336 39.1510009765625,32.6349983215332 39.1510009765625,32.6349983215332z"></path></g><g opacity="1" transform="matrix(1,0,0,1,72.91300201416016,32.88600158691406)"><path fill="rgb(194,172,185)" fill-opacity="1" d=" M-39.1510009765625,32.6349983215332 C-39.1510009765625,32.6349983215332 18.667999267578125,-32.6349983215332 18.667999267578125,-32.6349983215332 C18.667999267578125,-32.6349983215332 39.1510009765625,-32.6349983215332 39.1510009765625,-32.6349983215332 C39.1510009765625,-32.6349983215332 39.1510009765625,15.29800033569336 39.1510009765625,15.29800033569336 C39.1510009765625,15.29800033569336 -39.1510009765625,32.6349983215332 -39.1510009765625,32.6349983215332z"></path></g><g opacity="1" transform="matrix(1,0,0,1,133.05999755859375,71.46199798583984)"><path fill="rgb(194,172,185)" fill-opacity="1" d=" M127.71199798583984,21.652000427246094 C127.71199798583984,21.652000427246094 0,28.90399932861328 0,28.90399932861328 C0,28.90399932861328 -127.71199798583984,21.652000427246094 -127.71199798583984,21.652000427246094 C-113.40899658203125,-7.388999938964844 -61.66400146484375,-28.90399932861328 0.0010000000474974513,-28.90399932861328 C61.665000915527344,-28.90399932861328 113.40899658203125,-7.388999938964844 127.71199798583984,21.652000427246094z"></path></g><g opacity="1" transform="matrix(1,0,0,1,133.06100463867188,52.36000061035156)"><path fill="rgb(174,153,164)" fill-opacity="1" d=" M32.3120002746582,-7.763999938964844 C21.972000122070312,-9.08899974822998 11.152000427246094,-9.800999641418457 0,-9.800999641418457 C-11.151000022888184,-9.800999641418457 -21.972000122070312,-9.08899974822998 -32.3120002746582,-7.763999938964844 C-32.3120002746582,-7.763999938964844 -32.3120002746582,9.800999641418457 -32.3120002746582,9.800999641418457 C-32.3120002746582,9.800999641418457 32.3120002746582,9.800999641418457 32.3120002746582,9.800999641418457 C32.3120002746582,9.800999641418457 32.3120002746582,-7.763999938964844 32.3120002746582,-7.763999938964844z"></path></g><g opacity="1" transform="matrix(1,0,0,1,193.20599365234375,32.88600158691406)"><path fill="rgb(194,172,185)" fill-opacity="1" d=" M39.1510009765625,32.6349983215332 C39.1510009765625,32.6349983215332 -18.667999267578125,-32.6349983215332 -18.667999267578125,-32.6349983215332 C-18.667999267578125,-32.6349983215332 -39.1510009765625,-32.6349983215332 -39.1510009765625,-32.6349983215332 C-39.1510009765625,-32.6349983215332 -39.1510009765625,15.29800033569336 -39.1510009765625,15.29800033569336 C-39.1510009765625,15.29800033569336 39.1510009765625,32.6349983215332 39.1510009765625,32.6349983215332z"></path></g><g opacity="1" transform="matrix(1,0,0,1,72.91300201416016,32.88600158691406)"><path fill="rgb(194,172,185)" fill-opacity="1" d=" M-39.1510009765625,32.6349983215332 C-39.1510009765625,32.6349983215332 18.667999267578125,-32.6349983215332 18.667999267578125,-32.6349983215332 C18.667999267578125,-32.6349983215332 39.1510009765625,-32.6349983215332 39.1510009765625,-32.6349983215332 C39.1510009765625,-32.6349983215332 39.1510009765625,15.29800033569336 39.1510009765625,15.29800033569336 C39.1510009765625,15.29800033569336 -39.1510009765625,32.6349983215332 -39.1510009765625,32.6349983215332z"></path></g><g opacity="1" transform="matrix(1,0,0,1,68.92500305175781,45.68600082397461)"><path fill="rgb(174,153,164)" fill-opacity="1" d=" M0,-5.275000095367432 C-5.741000175476074,-5.275000095367432 -10.395999908447266,-2.9140000343322754 -10.395999908447266,-0.0010000000474974513 C-10.395999908447266,2.9130001068115234 -5.741000175476074,5.275000095367432 0,5.275000095367432 C5.742000102996826,5.275000095367432 10.395999908447266,2.9130001068115234 10.395999908447266,-0.0010000000474974513 C10.395999908447266,-2.9140000343322754 5.742000102996826,-5.275000095367432 0,-5.275000095367432z"></path></g><g opacity="1" transform="matrix(1,0,0,1,133.05999755859375,73.4729995727539)"><path fill="rgb(194,172,185)" fill-opacity="1" d=" M118.83000183105469,20.145999908447266 C118.83000183105469,20.145999908447266 0,26.893999099731445 0,26.893999099731445 C0,26.893999099731445 -118.83000183105469,20.145999908447266 -118.83000183105469,20.145999908447266 C-105.52100372314453,-6.875 -57.375999450683594,-26.893999099731445 0,-26.893999099731445 C57.37699890136719,-26.893999099731445 105.52200317382812,-6.875 118.83000183105469,20.145999908447266z"></path></g><g opacity="1" transform="matrix(1,0,0,1,226.1439971923828,71.9000015258789)"><path fill="rgb(194,172,185)" fill-opacity="1" d=" M3.947999954223633,-5.400000095367432 C3.947999954223633,-5.400000095367432 -45.143001556396484,15.803000450134277 -45.143001556396484,15.803000450134277 C-41.7859992980957,17.781999588012695 -38.89699935913086,19.968000411987305 -36.56100082397461,22.322999954223633 C-36.56100082397461,22.322999954223633 30.034000396728516,17.211000442504883 30.034000396728516,17.211000442504883 C33.262001037597656,16.964000701904297 36.0369987487793,14.82699966430664 37.099998474121094,11.767999649047852 C37.099998474121094,11.767999649047852 45.143001556396484,-11.371999740600586 45.143001556396484,-11.371999740600586 C45.143001556396484,-11.371999740600586 18.62299919128418,-7.9710001945495605 18.62299919128418,-7.9710001945495605 C18.62299919128418,-7.9710001945495605 8.138999938964844,-22.322999954223633 8.138999938964844,-22.322999954223633 C8.138999938964844,-22.322999954223633 3.947999954223633,-5.400000095367432 3.947999954223633,-5.400000095367432z"></path></g><g opacity="1" transform="matrix(1,0,0,1,253.0489959716797,52.50699996948242)"><path fill="rgb(194,172,185)" fill-opacity="1" d=" M-19.31599998474121,1.6460000276565552 C-19.31599998474121,12.314000129699707 -10.668999671936035,20.961999893188477 -0.0010000000474974513,20.961999893188477 C10.666999816894531,20.961999893188477 19.31599998474121,12.314000129699707 19.31599998474121,1.6460000276565552 C19.31599998474121,-1.6519999504089355 18.695999145507812,-3.5409998893737793 17.283000946044922,-7.693999767303467 C16.027999877929688,-11.385000228881836 14.168999671936035,-15.50100040435791 14.168999671936035,-15.50100040435791 C14.168999671936035,-15.50100040435791 -0.0010000000474974513,-20.961999893188477 -0.0010000000474974513,-20.961999893188477 C-0.0010000000474974513,-20.961999893188477 -12.13599967956543,-15.50100040435791 -12.13599967956543,-15.50100040435791 C-12.13599967956543,-15.50100040435791 -17.02899932861328,-7.4770002365112305 -17.02899932861328,-7.4770002365112305 C-17.02899932861328,-7.4770002365112305 -17.027999877929688,-7.4710001945495605 -17.027999877929688,-7.4710001945495605 C-18.485000610351562,-4.754000186920166 -19.31599998474121,-1.6519999504089355 -19.31599998474121,1.6460000276565552z"></path></g><g opacity="1" transform="matrix(1,0,0,1,254.06500244140625,42.665000915527344)"><path fill="rgb(194,172,185)" fill-opacity="1" d=" M-14.3149995803833,-0.0010000000474974513 C-14.3149995803833,7.90500020980835 -7.906000137329102,14.314000129699707 0,14.314000129699707 C7.906000137329102,14.314000129699707 14.3149995803833,7.90500020980835 14.3149995803833,-0.0010000000474974513 C14.3149995803833,-7.906000137329102 7.906000137329102,-14.314000129699707 0,-14.314000129699707 C-7.906000137329102,-14.314000129699707 -14.3149995803833,-7.906000137329102 -14.3149995803833,-0.0010000000474974513z"></path><path fill="rgb(194,172,185)" fill-opacity="1" d=" M-14.3149995803833,-0.0010000000474974513 C-14.3149995803833,7.90500020980835 -7.906000137329102,14.314000129699707 0,14.314000129699707 C7.906000137329102,14.314000129699707 14.3149995803833,7.90500020980835 14.3149995803833,-0.0010000000474974513 C14.3149995803833,-7.906000137329102 7.906000137329102,-14.314000129699707 0,-14.314000129699707 C-7.906000137329102,-14.314000129699707 -14.3149995803833,-7.906000137329102 -14.3149995803833,-0.0010000000474974513z"></path></g><g opacity="1" transform="matrix(1,0,0,1,230.37399291992188,66.63300323486328)"><path fill="rgb(174,153,164)" fill-opacity="1" d=" M41.98099899291992,-12.470000267028809 C41.98099899291992,-18.601999282836914 39.11399841308594,-24.054000854492188 34.65700149536133,-27.590999603271484 C34.65700149536133,-27.590999603271484 19.98699951171875,19.003999710083008 19.98699951171875,19.003999710083008 C19.98699951171875,19.003999710083008 -41.986000061035156,26.472999572753906 -41.986000061035156,26.472999572753906 C-41.582000732421875,26.843000411987305 -41.167999267578125,27.211000442504883 -40.79199981689453,27.590999603271484 C-40.79199981689453,27.590999603271484 25.80299949645996,22.479000091552734 25.80299949645996,22.479000091552734 C29.0310001373291,22.23200035095215 31.805999755859375,20.0939998626709 32.86899948120117,17.035999298095703 C32.86899948120117,17.035999298095703 40.91299819946289,-6.105000019073486 40.91299819946289,-6.105000019073486 C40.91299819946289,-6.105000019073486 40.89099884033203,-6.103000164031982 40.89099884033203,-6.103000164031982 C41.57899856567383,-8.067000389099121 41.97200012207031,-10.166999816894531 41.986000061035156,-12.36299991607666 C41.98500061035156,-12.395000457763672 41.98099899291992,-12.440999984741211 41.98099899291992,-12.470000267028809z"></path></g><g opacity="1" transform="matrix(1,0,0,1,214.19400024414062,63.12099838256836)"><path fill="rgb(212,195,206)" fill-opacity="1" d=" M33.194000244140625,-27.41900062561035 C28.827999114990234,-26.079999923706055 25.12700080871582,-23.240999221801758 22.683000564575195,-19.49799919128418 C22.683000564575195,-19.49799919128418 22.03499984741211,-18.43600082397461 22.03499984741211,-18.43600082397461 C21.900999069213867,-18.19700050354004 21.767000198364258,-17.958999633789062 21.642000198364258,-17.714000701904297 C21.575000762939453,-17.58300018310547 21.509000778198242,-17.451000213623047 21.44499969482422,-17.316999435424805 C21.302000045776367,-17.020000457763672 21.170000076293945,-16.716999053955078 21.041000366210938,-16.410999298095703 C20.983999252319336,-16.273000717163086 20.92300033569336,-16.136999130249023 20.868000030517578,-15.996999740600586 C20.70599937438965,-15.583999633789062 20.555999755859375,-15.163000106811523 20.42300033569336,-14.736000061035156 C20.299999237060547,-14.343999862670898 20.18899917602539,-13.944000244140625 20.090999603271484,-13.541000366210938 C20.090999603271484,-13.541000366210938 20.089000701904297,-13.543999671936035 20.089000701904297,-13.543999671936035 C20.089000701904297,-13.543999671936035 15.897000312805176,3.380000114440918 15.897000312805176,3.380000114440918 C15.897000312805176,3.380000114440918 -33.194000244140625,24.58300018310547 -33.194000244140625,24.58300018310547 C-33.194000244140625,24.58300018310547 -28.902999877929688,27.41900062561035 -28.902999877929688,27.41900062561035 C-28.902999877929688,27.41900062561035 1.9170000553131104,21.445999145507812 15.10099983215332,18.891000747680664 C18.69300079345703,18.194000244140625 21.573999404907227,15.515000343322754 22.530000686645508,11.982999801635742 C22.530000686645508,11.982999801635742 33.194000244140625,-27.41900062561035 33.194000244140625,-27.41900062561035z"></path></g><g opacity="1" transform="matrix(1,0,0,1,183.30499267578125,76.90399932861328)"><path fill="rgb(174,153,164)" fill-opacity="1" d=" M4.834000110626221,-14.743000030517578 C4.834000110626221,-14.743000030517578 -25.354000091552734,11.12600040435791 -25.354000091552734,11.12600040435791 C-21.979000091552734,12.142999649047852 -18.868999481201172,13.359000205993652 -16.08099937438965,14.743000030517578 C-16.08099937438965,14.743000030517578 25.354000091552734,-6.738999843597412 25.354000091552734,-6.738999843597412 C19.18600082397461,-9.803000450134277 12.300999641418457,-12.494000434875488 4.834000110626221,-14.743000030517578z"></path></g><g opacity="1" transform="matrix(1,0,0,1,9.352999687194824,107)"><path fill="rgb(149,133,150)" fill-opacity="1" d=" M9.102999687194824,0 C9.102999687194824,-11.319000244140625 5.0269999504089355,-20.4950008392334 0,-20.4950008392334 C-5.0269999504089355,-20.4950008392334 -9.102999687194824,-11.319000244140625 -9.102999687194824,0 C-9.102999687194824,11.319000244140625 -5.0269999504089355,20.4950008392334 0,20.4950008392334 C5.0269999504089355,20.4950008392334 9.102999687194824,11.319000244140625 9.102999687194824,0z"></path></g><g opacity="1" transform="matrix(1,0,0,1,20.41200065612793,107)"><path fill="rgb(149,133,150)" fill-opacity="1" d=" M11.0600004196167,20.4950008392334 C11.0600004196167,20.4950008392334 -11.0600004196167,20.4950008392334 -11.0600004196167,20.4950008392334 C-11.0600004196167,20.4950008392334 -11.0600004196167,-20.4950008392334 -11.0600004196167,-20.4950008392334 C-11.0600004196167,-20.4950008392334 11.0600004196167,-20.4950008392334 11.0600004196167,-20.4950008392334 C11.0600004196167,-20.4950008392334 11.0600004196167,20.4950008392334 11.0600004196167,20.4950008392334z"></path></g><g opacity="1" transform="matrix(1,0,0,1,63.152000427246094,111.09400177001953)"><path fill="rgb(174,153,164)" fill-opacity="1" d=" M-48.000999450683594,-8.961000442504883 C-48.000999450683594,-8.961000442504883 -48.000999450683594,8.961000442504883 -48.000999450683594,8.961000442504883 C-48.000999450683594,8.961000442504883 48.000999450683594,3.8410000801086426 48.000999450683594,3.8410000801086426 C48.000999450683594,3.8410000801086426 35.20199966430664,-8.961000442504883 35.20199966430664,-8.961000442504883 C35.20199966430664,-8.961000442504883 -48.000999450683594,-8.961000442504883 -48.000999450683594,-8.961000442504883z"></path></g><g opacity="1" transform="matrix(1,0,0,1,256.76800537109375,107)"><path fill="rgb(149,133,150)" fill-opacity="1" d=" M-9.102999687194824,0 C-9.102999687194824,-11.319000244140625 -5.0279998779296875,-20.4950008392334 0,-20.4950008392334 C5.0269999504089355,-20.4950008392334 9.102999687194824,-11.319000244140625 9.102999687194824,0 C9.102999687194824,11.319000244140625 5.0269999504089355,20.4950008392334 0,20.4950008392334 C-5.0279998779296875,20.4950008392334 -9.102999687194824,11.319000244140625 -9.102999687194824,0z"></path></g><g opacity="1" transform="matrix(1,0,0,1,245.70799255371094,107)"><path fill="rgb(149,133,150)" fill-opacity="1" d=" M-11.059000015258789,20.4950008392334 C-11.059000015258789,20.4950008392334 11.0600004196167,20.4950008392334 11.0600004196167,20.4950008392334 C11.0600004196167,20.4950008392334 11.0600004196167,-20.4950008392334 11.0600004196167,-20.4950008392334 C11.0600004196167,-20.4950008392334 -11.059000015258789,-20.4950008392334 -11.059000015258789,-20.4950008392334 C-11.059000015258789,-20.4950008392334 -11.059000015258789,20.4950008392334 -11.059000015258789,20.4950008392334z"></path></g><g opacity="1" transform="matrix(1,0,0,1,63.606998443603516,91.50399780273438)"><path fill="rgb(201,181,190)" fill-opacity="1" d=" M-48.457000732421875,10.628999710083008 C-48.457000732421875,10.628999710083008 -41.33599853515625,-10.628999710083008 -41.33599853515625,-10.628999710083008 C-41.33599853515625,-10.628999710083008 48.457000732421875,-5.185999870300293 48.457000732421875,-5.185999870300293 C48.457000732421875,-5.185999870300293 34.74599838256836,10.628999710083008 34.74599838256836,10.628999710083008 C34.74599838256836,10.628999710083008 -48.457000732421875,10.628999710083008 -48.457000732421875,10.628999710083008z"></path></g><g opacity="1" transform="matrix(1,0,0,1,52.22600173950195,88.8270034790039)"><path fill="rgb(174,153,164)" fill-opacity="1" d=" M11.526000022888184,-6.646999835968018 C11.526000022888184,-6.646999835968018 -11.526000022888184,-6.646999835968018 -11.526000022888184,-6.646999835968018 C-11.526000022888184,-6.646999835968018 -11.526000022888184,6.646999835968018 -11.526000022888184,6.646999835968018 C-11.526000022888184,6.646999835968018 11.526000022888184,6.646999835968018 11.526000022888184,6.646999835968018 C11.526000022888184,6.646999835968018 11.526000022888184,-6.646999835968018 11.526000022888184,-6.646999835968018z"></path></g><g opacity="1" transform="matrix(1,0,0,1,52.22600173950195,85.77899932861328)"><path fill="rgb(212,195,206)" fill-opacity="1" d=" M8.47700023651123,-6.646999835968018 C8.47700023651123,-6.646999835968018 -8.47700023651123,-6.646999835968018 -8.47700023651123,-6.646999835968018 C-8.47700023651123,-6.646999835968018 -8.47700023651123,6.646999835968018 -8.47700023651123,6.646999835968018 C-8.47700023651123,6.646999835968018 8.47700023651123,6.646999835968018 8.47700023651123,6.646999835968018 C8.47700023651123,6.646999835968018 8.47700023651123,-6.646999835968018 8.47700023651123,-6.646999835968018z"></path></g><g opacity="1" transform="matrix(1,0,0,1,202.51400756835938,91.50399780273438)"><path fill="rgb(201,181,190)" fill-opacity="1" d=" M48.457000732421875,10.628999710083008 C48.457000732421875,10.628999710083008 41.334999084472656,-10.628999710083008 41.334999084472656,-10.628999710083008 C41.334999084472656,-10.628999710083008 -48.457000732421875,-5.185999870300293 -48.457000732421875,-5.185999870300293 C-48.457000732421875,-5.185999870300293 -34.74599838256836,10.628999710083008 -34.74599838256836,10.628999710083008 C-34.74599838256836,10.628999710083008 48.457000732421875,10.628999710083008 48.457000732421875,10.628999710083008z"></path></g><g opacity="1" transform="matrix(1,0,0,1,202.968994140625,111.09400177001953)"><path fill="rgb(174,153,164)" fill-opacity="1" d=" M48.00199890136719,-8.961000442504883 C48.00199890136719,-8.961000442504883 48.00199890136719,8.961000442504883 48.00199890136719,8.961000442504883 C48.00199890136719,8.961000442504883 -48.00199890136719,3.8410000801086426 -48.00199890136719,3.8410000801086426 C-48.00199890136719,3.8410000801086426 -35.20100021362305,-8.961000442504883 -35.20100021362305,-8.961000442504883 C-35.20100021362305,-8.961000442504883 48.00199890136719,-8.961000442504883 48.00199890136719,-8.961000442504883z"></path></g><g opacity="1" transform="matrix(1,0,0,1,155.71299743652344,48.560001373291016)"><path fill="rgb(174,153,164)" fill-opacity="1" d=" M-1.6579999923706055,-48.310001373291016 C-1.6579999923706055,-48.310001373291016 1.6579999923706055,-48.310001373291016 1.6579999923706055,-48.310001373291016 C1.6579999923706055,-48.310001373291016 1.6579999923706055,48.310001373291016 1.6579999923706055,48.310001373291016 C1.6579999923706055,48.310001373291016 -1.6579999923706055,48.310001373291016 -1.6579999923706055,48.310001373291016 C-1.6579999923706055,48.310001373291016 -1.6579999923706055,-48.310001373291016 -1.6579999923706055,-48.310001373291016z"></path></g><g opacity="1" transform="matrix(1,0,0,1,110.40599822998047,48.560001373291016)"><path fill="rgb(174,153,164)" fill-opacity="1" d=" M-1.6579999923706055,-48.310001373291016 C-1.6579999923706055,-48.310001373291016 1.6579999923706055,-48.310001373291016 1.6579999923706055,-48.310001373291016 C1.6579999923706055,-48.310001373291016 1.6579999923706055,48.310001373291016 1.6579999923706055,48.310001373291016 C1.6579999923706055,48.310001373291016 -1.6579999923706055,48.310001373291016 -1.6579999923706055,48.310001373291016 C-1.6579999923706055,48.310001373291016 -1.6579999923706055,-48.310001373291016 -1.6579999923706055,-48.310001373291016z"></path></g><g opacity="1" transform="matrix(1,0,0,1,88.01499938964844,26.264999389648438)"><path fill="rgb(174,153,164)" fill-opacity="1" d=" M0,-5.275000095367432 C-5.742000102996826,-5.275000095367432 -10.395999908447266,-2.9140000343322754 -10.395999908447266,-0.0010000000474974513 C-10.395999908447266,2.9130001068115234 -5.742000102996826,5.275000095367432 0,5.275000095367432 C5.742000102996826,5.275000095367432 10.395999908447266,2.9130001068115234 10.395999908447266,-0.0010000000474974513 C10.395999908447266,-2.9140000343322754 5.742000102996826,-5.275000095367432 0,-5.275000095367432z"></path></g><g opacity="1" transform="matrix(1,0,0,1,197.19500732421875,45.68600082397461)"><path fill="rgb(174,153,164)" fill-opacity="1" d=" M0,-5.275000095367432 C5.742000102996826,-5.275000095367432 10.395999908447266,-2.9140000343322754 10.395999908447266,-0.0010000000474974513 C10.395999908447266,2.9130001068115234 5.742000102996826,5.275000095367432 0,5.275000095367432 C-5.741000175476074,5.275000095367432 -10.395999908447266,2.9130001068115234 -10.395999908447266,-0.0010000000474974513 C-10.395999908447266,-2.9140000343322754 -5.741000175476074,-5.275000095367432 0,-5.275000095367432z"></path></g><g opacity="1" transform="matrix(1,0,0,1,178.1060028076172,26.264999389648438)"><path fill="rgb(174,153,164)" fill-opacity="1" d=" M0,-5.275000095367432 C5.741000175476074,-5.275000095367432 10.395999908447266,-2.9140000343322754 10.395999908447266,-0.0010000000474974513 C10.395999908447266,2.9130001068115234 5.741000175476074,5.275000095367432 0,5.275000095367432 C-5.742000102996826,5.275000095367432 -10.395999908447266,2.9130001068115234 -10.395999908447266,-0.0010000000474974513 C-10.395999908447266,-2.9140000343322754 -5.742000102996826,-5.275000095367432 0,-5.275000095367432z"></path></g><g opacity="1" transform="matrix(1,0,0,1,133.05999755859375,128.79600524902344)"><path fill="rgb(149,133,150)" fill-opacity="1" d=" M-121.33599853515625,-10.020999908447266 C-121.33599853515625,-10.020999908447266 121.33599853515625,-10.020999908447266 121.33599853515625,-10.020999908447266 C121.33599853515625,-10.020999908447266 121.33599853515625,10.020999908447266 121.33599853515625,10.020999908447266 C121.33599853515625,10.020999908447266 -121.33599853515625,10.020999908447266 -121.33599853515625,10.020999908447266 C-121.33599853515625,10.020999908447266 -121.33599853515625,-10.020999908447266 -121.33599853515625,-10.020999908447266z"></path></g><g opacity="1" transform="matrix(1,0,0,1,133.05999755859375,162.91900634765625)"><path fill="rgb(149,133,150)" fill-opacity="1" d=" M121.33599853515625,-24.101999282836914 C121.33599853515625,-24.101999282836914 -0.0010000000474974513,-29.702999114990234 -0.0010000000474974513,-29.702999114990234 C-0.0010000000474974513,-29.702999114990234 -121.33599853515625,-24.101999282836914 -121.33599853515625,-24.101999282836914 C-107.74800109863281,6.803999900817871 -58.58599853515625,29.702999114990234 0,29.702999114990234 C58.58599853515625,29.702999114990234 107.74800109863281,6.803999900817871 121.33599853515625,-24.101999282836914z"></path></g><g opacity="1" transform="matrix(1,0,0,1,133.05999755859375,142.91400146484375)"><path fill="rgb(201,181,190)" fill-opacity="1" d=" M121.33599853515625,-24.10300064086914 C121.33599853515625,-24.10300064086914 -0.0010000000474974513,-29.702999114990234 -0.0010000000474974513,-29.702999114990234 C-0.0010000000474974513,-29.702999114990234 -121.33599853515625,-24.10300064086914 -121.33599853515625,-24.10300064086914 C-107.74800109863281,6.803999900817871 -58.58599853515625,29.702999114990234 0,29.702999114990234 C58.58599853515625,29.702999114990234 107.74800109863281,6.803999900817871 121.33599853515625,-24.10300064086914z"></path></g><g opacity="1" transform="matrix(1,0,0,1,133.06100463867188,170.51699829101562)"><path stroke-linecap="round" stroke-linejoin="round" fill-opacity="0" stroke="rgb(135,211,235)" stroke-opacity="1" stroke-width="13" d=" M77.78299713134766,-8.095999717712402 C55.349998474121094,2.496999979019165 28.45199966430664,8.095999717712402 0,8.095999717712402 C-28.452999114990234,8.095999717712402 -55.349998474121094,2.496999979019165 -77.78299713134766,-8.095999717712402"></path></g><g opacity="1" transform="matrix(1,0,0,1,57.62300109863281,135.2469940185547)"><path fill="rgb(174,153,164)" fill-opacity="1" d=" M22.31100082397461,-1.9859999418258667 C17.865999221801758,-4.5269999504089355 14.116000175476074,-7.388000011444092 11.218999862670898,-10.494999885559082 C11.218999862670898,-10.494999885559082 -22.31100082397461,-2.4579999446868896 -22.31100082397461,-2.4579999446868896 C-17.899999618530273,2.2709999084472656 -12.192999839782715,6.625999927520752 -5.427000045776367,10.494999885559082 C-5.427000045776367,10.494999885559082 22.31100082397461,-1.9859999418258667 22.31100082397461,-1.9859999418258667z"></path></g><g opacity="1" transform="matrix(1,0,0,1,208.4969940185547,135.2469940185547)"><path fill="rgb(174,153,164)" fill-opacity="1" d=" M-22.31100082397461,-1.9859999418258667 C-17.865999221801758,-4.5269999504089355 -14.116999626159668,-7.388000011444092 -11.218999862670898,-10.494999885559082 C-11.218999862670898,-10.494999885559082 22.31100082397461,-2.4579999446868896 22.31100082397461,-2.4579999446868896 C17.899999618530273,2.2709999084472656 12.192999839782715,6.625999927520752 5.427000045776367,10.494999885559082 C5.427000045776367,10.494999885559082 -22.31100082397461,-1.9859999418258667 -22.31100082397461,-1.9859999418258667z"></path></g><g opacity="1" transform="matrix(1,0,0,1,99.6500015258789,132.95899963378906)"><path fill="rgb(212,195,206)" fill-opacity="1" d=" M0,-6.958000183105469 C-7.572000026702881,-6.958000183105469 -13.711000442504883,-3.8420000076293945 -13.711000442504883,0 C-13.711000442504883,3.8429999351501465 -7.572000026702881,6.958000183105469 0,6.958000183105469 C7.572999954223633,6.958000183105469 13.711000442504883,3.8429999351501465 13.711000442504883,0 C13.711000442504883,-3.8420000076293945 7.572999954223633,-6.958000183105469 0,-6.958000183105469z"></path></g><g opacity="1" transform="matrix(1,0,0,1,99.6500015258789,132.95899963378906)"><path stroke-linecap="butt" stroke-linejoin="miter" fill-opacity="0" stroke-miterlimit="10" stroke="rgb(212,195,206)" stroke-opacity="1" stroke-width="1.154" d=" M0,-6.958000183105469 C-7.572000026702881,-6.958000183105469 -13.711000442504883,-3.8420000076293945 -13.711000442504883,0 C-13.711000442504883,3.8429999351501465 -7.572000026702881,6.958000183105469 0,6.958000183105469 C7.572999954223633,6.958000183105469 13.711000442504883,3.8429999351501465 13.711000442504883,0 C13.711000442504883,-3.8420000076293945 7.572999954223633,-6.958000183105469 0,-6.958000183105469z"></path></g><g opacity="1" transform="matrix(1,0,0,1,99.6500015258789,132.95899963378906)"><path fill="rgb(78,67,95)" fill-opacity="1" d=" M0,-5.275000095367432 C-5.741000175476074,-5.275000095367432 -10.395999908447266,-2.9140000343322754 -10.395999908447266,-0.0010000000474974513 C-10.395999908447266,2.9130001068115234 -5.741000175476074,5.275000095367432 0,5.275000095367432 C5.742000102996826,5.275000095367432 10.395999908447266,2.9130001068115234 10.395999908447266,-0.0010000000474974513 C10.395999908447266,-2.9140000343322754 5.742000102996826,-5.275000095367432 0,-5.275000095367432z"></path></g><g opacity="1" transform="matrix(1,0,0,1,166.4709930419922,132.95899963378906)"><path fill="rgb(212,195,206)" fill-opacity="1" d=" M0,-6.958000183105469 C7.572999954223633,-6.958000183105469 13.711000442504883,-3.8420000076293945 13.711000442504883,0 C13.711000442504883,3.8429999351501465 7.572999954223633,6.958000183105469 0,6.958000183105469 C-7.572000026702881,6.958000183105469 -13.711000442504883,3.8429999351501465 -13.711000442504883,0 C-13.711000442504883,-3.8420000076293945 -7.572000026702881,-6.958000183105469 0,-6.958000183105469z"></path></g><g opacity="1" transform="matrix(1,0,0,1,166.4709930419922,132.95899963378906)"><path stroke-linecap="butt" stroke-linejoin="miter" fill-opacity="0" stroke-miterlimit="10" stroke="rgb(212,195,206)" stroke-opacity="1" stroke-width="1.154" d=" M0,-6.958000183105469 C7.572999954223633,-6.958000183105469 13.711000442504883,-3.8420000076293945 13.711000442504883,0 C13.711000442504883,3.8429999351501465 7.572999954223633,6.958000183105469 0,6.958000183105469 C-7.572000026702881,6.958000183105469 -13.711000442504883,3.8429999351501465 -13.711000442504883,0 C-13.711000442504883,-3.8420000076293945 -7.572000026702881,-6.958000183105469 0,-6.958000183105469z"></path></g><g opacity="1" transform="matrix(1,0,0,1,133.05999755859375,137.42100524902344)"><path fill="rgb(212,195,206)" fill-opacity="1" d=" M0,-6.956999778747559 C-7.572000026702881,-6.956999778747559 -13.711000442504883,-3.8429999351501465 -13.711000442504883,0 C-13.711000442504883,3.8429999351501465 -7.572000026702881,6.956999778747559 0,6.956999778747559 C7.572999954223633,6.956999778747559 13.711000442504883,3.8429999351501465 13.711000442504883,0 C13.711000442504883,-3.8429999351501465 7.572999954223633,-6.956999778747559 0,-6.956999778747559z"></path></g><g opacity="1" transform="matrix(1,0,0,1,133.05999755859375,137.42100524902344)"><path stroke-linecap="butt" stroke-linejoin="miter" fill-opacity="0" stroke-miterlimit="10" stroke="rgb(212,195,206)" stroke-opacity="1" stroke-width="1.154" d=" M0,-6.956999778747559 C-7.572000026702881,-6.956999778747559 -13.711000442504883,-3.8429999351501465 -13.711000442504883,0 C-13.711000442504883,3.8429999351501465 -7.572000026702881,6.956999778747559 0,6.956999778747559 C7.572999954223633,6.956999778747559 13.711000442504883,3.8429999351501465 13.711000442504883,0 C13.711000442504883,-3.8429999351501465 7.572999954223633,-6.956999778747559 0,-6.956999778747559z"></path></g><g opacity="1" transform="matrix(1,0,0,1,133.05999755859375,156.23500061035156)"><path fill="rgb(212,195,206)" fill-opacity="1" d=" M0,-6.956999778747559 C-7.572000026702881,-6.956999778747559 -13.711000442504883,-3.8429999351501465 -13.711000442504883,0 C-13.711000442504883,3.8429999351501465 -7.572000026702881,6.956999778747559 0,6.956999778747559 C7.572999954223633,6.956999778747559 13.711000442504883,3.8429999351501465 13.711000442504883,0 C13.711000442504883,-3.8429999351501465 7.572999954223633,-6.956999778747559 0,-6.956999778747559z"></path></g><g opacity="1" transform="matrix(1,0,0,1,133.05999755859375,156.23500061035156)"><path stroke-linecap="butt" stroke-linejoin="miter" fill-opacity="0" stroke-miterlimit="10" stroke="rgb(212,195,206)" stroke-opacity="1" stroke-width="1.154" d=" M0,-6.956999778747559 C-7.572000026702881,-6.956999778747559 -13.711000442504883,-3.8429999351501465 -13.711000442504883,0 C-13.711000442504883,3.8429999351501465 -7.572000026702881,6.956999778747559 0,6.956999778747559 C7.572999954223633,6.956999778747559 13.711000442504883,3.8429999351501465 13.711000442504883,0 C13.711000442504883,-3.8429999351501465 7.572999954223633,-6.956999778747559 0,-6.956999778747559z"></path></g><g opacity="1" transform="matrix(1,0,0,1,89.25399780273438,150.76499938964844)"><path fill="rgb(212,195,206)" fill-opacity="1" d=" M0.0010000000474974513,-6.958000183105469 C-7.572000026702881,-6.958000183105469 -13.711000442504883,-3.8429999351501465 -13.711000442504883,0 C-13.711000442504883,3.8420000076293945 -7.572000026702881,6.958000183105469 0.0010000000474974513,6.958000183105469 C7.572999954223633,6.958000183105469 13.711000442504883,3.8420000076293945 13.711000442504883,0 C13.711000442504883,-3.8429999351501465 7.572999954223633,-6.958000183105469 0.0010000000474974513,-6.958000183105469z"></path></g><g opacity="1" transform="matrix(1,0,0,1,89.25399780273438,150.76499938964844)"><path stroke-linecap="butt" stroke-linejoin="miter" fill-opacity="0" stroke-miterlimit="10" stroke="rgb(212,195,206)" stroke-opacity="1" stroke-width="1.154" d=" M0.0010000000474974513,-6.958000183105469 C-7.572000026702881,-6.958000183105469 -13.711000442504883,-3.8429999351501465 -13.711000442504883,0 C-13.711000442504883,3.8420000076293945 -7.572000026702881,6.958000183105469 0.0010000000474974513,6.958000183105469 C7.572999954223633,6.958000183105469 13.711000442504883,3.8420000076293945 13.711000442504883,0 C13.711000442504883,-3.8429999351501465 7.572999954223633,-6.958000183105469 0.0010000000474974513,-6.958000183105469z"></path></g><g opacity="1" transform="matrix(1,0,0,1,176.86599731445312,150.76499938964844)"><path fill="rgb(212,195,206)" fill-opacity="1" d=" M0,-6.958000183105469 C-7.572999954223633,-6.958000183105469 -13.711000442504883,-3.8429999351501465 -13.711000442504883,0 C-13.711000442504883,3.8420000076293945 -7.572999954223633,6.958000183105469 0,6.958000183105469 C7.572999954223633,6.958000183105469 13.711000442504883,3.8420000076293945 13.711000442504883,0 C13.711000442504883,-3.8429999351501465 7.572999954223633,-6.958000183105469 0,-6.958000183105469z"></path></g><g opacity="1" transform="matrix(1,0,0,1,176.86599731445312,150.76499938964844)"><path stroke-linecap="butt" stroke-linejoin="miter" fill-opacity="0" stroke-miterlimit="10" stroke="rgb(212,195,206)" stroke-opacity="1" stroke-width="1.154" d=" M0,-6.958000183105469 C-7.572999954223633,-6.958000183105469 -13.711000442504883,-3.8429999351501465 -13.711000442504883,0 C-13.711000442504883,3.8420000076293945 -7.572999954223633,6.958000183105469 0,6.958000183105469 C7.572999954223633,6.958000183105469 13.711000442504883,3.8420000076293945 13.711000442504883,0 C13.711000442504883,-3.8429999351501465 7.572999954223633,-6.958000183105469 0,-6.958000183105469z"></path></g><g opacity="1" transform="matrix(1,0,0,1,133.05999755859375,137.42100524902344)"><path fill="rgb(78,67,95)" fill-opacity="1" d=" M0,-5.276000022888184 C-5.741000175476074,-5.276000022888184 -10.395999908447266,-2.9130001068115234 -10.395999908447266,0 C-10.395999908447266,2.9130001068115234 -5.741000175476074,5.276000022888184 0,5.276000022888184 C5.742000102996826,5.276000022888184 10.395999908447266,2.9130001068115234 10.395999908447266,0 C10.395999908447266,-2.9130001068115234 5.742000102996826,-5.276000022888184 0,-5.276000022888184z"></path></g><g opacity="1" transform="matrix(1,0,0,1,133.05999755859375,156.23599243164062)"><path fill="rgb(78,67,95)" fill-opacity="1" d=" M0,-5.275000095367432 C-5.741000175476074,-5.275000095367432 -10.395999908447266,-2.9140000343322754 -10.395999908447266,-0.0010000000474974513 C-10.395999908447266,2.9130001068115234 -5.741000175476074,5.275000095367432 0,5.275000095367432 C5.742000102996826,5.275000095367432 10.395999908447266,2.9130001068115234 10.395999908447266,-0.0010000000474974513 C10.395999908447266,-2.9140000343322754 5.742000102996826,-5.275000095367432 0,-5.275000095367432z"></path></g><g opacity="1" transform="matrix(1,0,0,1,89.25399780273438,150.76499938964844)"><path fill="rgb(78,67,95)" fill-opacity="1" d=" M0,-5.275000095367432 C-5.742000102996826,-5.275000095367432 -10.395999908447266,-2.9130001068115234 -10.395999908447266,0 C-10.395999908447266,2.9130001068115234 -5.742000102996826,5.275000095367432 0,5.275000095367432 C5.741000175476074,5.275000095367432 10.395999908447266,2.9130001068115234 10.395999908447266,0 C10.395999908447266,-2.9130001068115234 5.741000175476074,-5.275000095367432 0,-5.275000095367432z"></path></g><g opacity="1" transform="matrix(1,0,0,1,166.47000122070312,132.95899963378906)"><path fill="rgb(78,67,95)" fill-opacity="1" d=" M0,-5.275000095367432 C-5.741000175476074,-5.275000095367432 -10.395999908447266,-2.9140000343322754 -10.395999908447266,-0.0010000000474974513 C-10.395999908447266,2.9130001068115234 -5.741000175476074,5.275000095367432 0,5.275000095367432 C5.742000102996826,5.275000095367432 10.395999908447266,2.9130001068115234 10.395999908447266,-0.0010000000474974513 C10.395999908447266,-2.9140000343322754 5.742000102996826,-5.275000095367432 0,-5.275000095367432z"></path></g><g opacity="1" transform="matrix(1,0,0,1,176.86599731445312,150.76499938964844)"><path fill="rgb(78,67,95)" fill-opacity="1" d=" M0,-5.275000095367432 C-5.741000175476074,-5.275000095367432 -10.395999908447266,-2.9130001068115234 -10.395999908447266,0 C-10.395999908447266,2.9130001068115234 -5.741000175476074,5.275000095367432 0,5.275000095367432 C5.742000102996826,5.275000095367432 10.395999908447266,2.9130001068115234 10.395999908447266,0 C10.395999908447266,-2.9130001068115234 5.742000102996826,-5.275000095367432 0,-5.275000095367432z"></path></g><g opacity="1" transform="matrix(1,0,0,1,133.05999755859375,100.21399688720703)"><path fill="rgb(174,153,164)" fill-opacity="1" d=" M0,19.260000228881836 C-20.96299934387207,19.260000228881836 -37.95800018310547,10.637999534606934 -37.95800018310547,0.0010000000474974513 C-37.95800018310547,-10.63599967956543 -20.96299934387207,-19.260000228881836 0,-19.260000228881836 C20.964000701904297,-19.260000228881836 37.95800018310547,-10.63599967956543 37.95800018310547,0.0010000000474974513 C37.95800018310547,10.637999534606934 20.964000701904297,19.260000228881836 0,19.260000228881836z"></path></g><g opacity="1" transform="matrix(1,0,0,1,133.05999755859375,94.86699676513672)"><path fill="rgb(212,195,206)" fill-opacity="1" d=" M0,19.260000228881836 C-20.96299934387207,19.260000228881836 -37.95800018310547,10.637999534606934 -37.95800018310547,0.0010000000474974513 C-37.95800018310547,-10.63599967956543 -20.96299934387207,-19.260000228881836 0,-19.260000228881836 C20.964000701904297,-19.260000228881836 37.95800018310547,-10.63599967956543 37.95800018310547,0.0010000000474974513 C37.95800018310547,10.637999534606934 20.964000701904297,19.260000228881836 0,19.260000228881836z"></path></g><g opacity="1" transform="matrix(1,0,0,1,133.05999755859375,93.58799743652344)"><path fill="rgb(194,172,185)" fill-opacity="1" d=" M0,15.270000457763672 C-16.621000289916992,15.270000457763672 -30.094999313354492,8.432999610900879 -30.094999313354492,-0.0010000000474974513 C-30.094999313354492,-8.434000015258789 -16.621000289916992,-15.270000457763672 0,-15.270000457763672 C16.621000289916992,-15.270000457763672 30.094999313354492,-8.434000015258789 30.094999313354492,-0.0010000000474974513 C30.094999313354492,8.432999610900879 16.621000289916992,15.270000457763672 0,15.270000457763672z"></path></g><g opacity="1" transform="matrix(1,0,0,1,271.6409912109375,49.034000396728516)"><path fill="rgb(78,67,95)" fill-opacity="1" d=" M0.014999999664723873,0.05999999865889549 C0.017999999225139618,0.019999999552965164 0.017999999225139618,-0.019999999552965164 0.020999999716877937,-0.05999999865889549 C0.020999999716877937,-0.05999999865889549 -0.020999999716877937,-0.04800000041723251 -0.020999999716877937,-0.04800000041723251 C-0.009999999776482582,-0.010999999940395355 0.004999999888241291,0.023000000044703484 0.014999999664723873,0.05999999865889549z"></path></g><g opacity="1" transform="matrix(1,0,0,1,254.48199462890625,35.534000396728516)"><path fill="rgb(78,67,95)" fill-opacity="1" d=" M11.48900032043457,2.7170000076293945 C11.48900032043457,2.7170000076293945 11.480999946594238,2.7130000591278076 11.480999946594238,2.7130000591278076 C11.480999946594238,2.7130000591278076 11.222000122070312,2.121000051498413 11.222000122070312,2.121000051498413 C10.890000343322754,1.3550000190734863 10.468999862670898,0.6039999723434448 9.968999862670898,-0.11400000005960464 C9.451000213623047,-0.9089999794960022 8.53600025177002,-2.255000114440918 7.650000095367432,-3.5460000038146973 C5.27400016784668,-4.760000228881836 2.5889999866485596,-5.454999923706055 -0.2639999985694885,-5.454999923706055 C-3.51200008392334,-5.454999923706055 -6.534999847412109,-4.550000190734863 -9.13599967956543,-3.00600004196167 C-9.13599967956543,-3.00600004196167 -12.645999908447266,2.947000026702881 -12.645999908447266,2.947000026702881 C-9.484999656677246,0.6729999780654907 -5.617000102996826,-0.675000011920929 -1.4320000410079956,-0.675000011920929 C4.122000217437744,-0.675000011920929 9.126999855041504,1.6859999895095825 12.645999908447266,5.454999923706055 C12.170000076293945,4.289000034332275 11.744000434875488,3.2990000247955322 11.48900032043457,2.7170000076293945z"></path></g><g opacity="1" transform="matrix(1,0,0,1,247.75999450683594,38.617000579833984)"><path stroke-linecap="butt" stroke-linejoin="miter" fill-opacity="0" stroke-miterlimit="10" stroke="rgb(194,172,185)" stroke-opacity="1" stroke-width="2.193" d=" M2.384999990463257,-8.822999954223633 C2.384999990463257,-8.822999954223633 -2.384999990463257,8.822999954223633 -2.384999990463257,8.822999954223633"></path></g><g opacity="1" transform="matrix(1,0,0,1,259.1889953613281,34.534000396728516)"><path stroke-linecap="butt" stroke-linejoin="miter" fill-opacity="0" stroke-miterlimit="10" stroke="rgb(194,172,185)" stroke-opacity="1" stroke-width="2.193" d=" M-1.621000051498413,-4.854000091552734 C-1.621000051498413,-4.854000091552734 1.621000051498413,4.854000091552734 1.621000051498413,4.854000091552734"></path></g><g opacity="1" transform="matrix(1,0,0,1,133.05999755859375,83.22200012207031)"><path fill="rgb(174,153,164)" fill-opacity="1" d=" M0.0010000000474974513,6.366000175476074 C6.929999828338623,6.366000175476074 12.545000076293945,3.515000104904175 12.545000076293945,0 C12.545000076293945,-3.5160000324249268 6.929999828338623,-6.366000175476074 0.0010000000474974513,-6.366000175476074 C-6.927999973297119,-6.366000175476074 -12.545000076293945,-3.5160000324249268 -12.545000076293945,0 C-12.545000076293945,3.515000104904175 -6.927999973297119,6.366000175476074 0.0010000000474974513,6.366000175476074z"></path></g><g opacity="1" transform="matrix(1,0,0,1,133.05999755859375,80.9990005493164)"><path fill="rgb(78,67,95)" fill-opacity="1" d=" M0,4.5229997634887695 C4.922999858856201,4.5229997634887695 8.913999557495117,2.497999906539917 8.913999557495117,0 C8.913999557495117,-2.497999906539917 4.922999858856201,-4.5229997634887695 0,-4.5229997634887695 C-4.922999858856201,-4.5229997634887695 -8.913999557495117,-2.497999906539917 -8.913999557495117,0 C-8.913999557495117,2.497999906539917 -4.922999858856201,4.5229997634887695 0,4.5229997634887695z"></path></g><g opacity="1" transform="matrix(1,0,0,1,133.05999755859375,78.38800048828125)"><path fill="rgb(78,67,95)" fill-opacity="1" d=" M8.913999557495117,-2.611999988555908 C8.913999557495117,-2.611999988555908 -8.913999557495117,-2.611999988555908 -8.913999557495117,-2.611999988555908 C-8.913999557495117,-2.611999988555908 -8.913999557495117,2.611999988555908 -8.913999557495117,2.611999988555908 C-8.913999557495117,2.611999988555908 8.913999557495117,2.611999988555908 8.913999557495117,2.611999988555908 C8.913999557495117,2.611999988555908 8.913999557495117,-2.611999988555908 8.913999557495117,-2.611999988555908z"></path></g><g opacity="1" transform="matrix(1,0,0,1,0,0)"><path stroke-linecap="round" stroke-linejoin="round" fill-opacity="0" stroke="rgb(174,153,164)" stroke-opacity="1" stroke-width="4.062" d=" M130.01199340820312,63.41899871826172 C130.01199340820312,63.41899871826172 130.01199340820312,75.85700225830078 130.01199340820312,75.85700225830078"></path></g><g opacity="1" transform="matrix(1,0,0,1,0,0)"><path stroke-linecap="round" stroke-linejoin="round" fill-opacity="0" stroke="rgb(174,153,164)" stroke-opacity="1" stroke-width="4.062" d=" M136.10899353027344,63.41899871826172 C136.10899353027344,63.41899871826172 136.10899353027344,75.85700225830078 136.10899353027344,75.85700225830078"></path></g><g opacity="1" transform="matrix(1,0,0,1,133.05999755859375,75.7770004272461)"><path fill="rgb(201,181,190)" fill-opacity="1" d=" M0,4.5229997634887695 C4.922999858856201,4.5229997634887695 8.913999557495117,2.497999906539917 8.913999557495117,0 C8.913999557495117,-2.497999906539917 4.922999858856201,-4.5229997634887695 0,-4.5229997634887695 C-4.922999858856201,-4.5229997634887695 -8.913999557495117,-2.497999906539917 -8.913999557495117,0 C-8.913999557495117,2.497999906539917 -4.922999858856201,4.5229997634887695 0,4.5229997634887695z"></path></g></g><g transform="matrix(0.31497037410736084,-0.004945744294673204,0.0052282060496509075,0.33295896649360657,1.1019035577774048,3.8548688888549805)" opacity="1" style="display: block;"><g opacity="1" transform="matrix(1,0,0,1,52.22600173950195,60.62200164794922)"><path fill="rgb(139,124,141)" fill-opacity="1" d=" M-24.00200080871582,-14.35200023651123 C-24.00200080871582,-14.35200023651123 24.00200080871582,-14.35200023651123 24.00200080871582,-14.35200023651123 C24.00200080871582,-14.35200023651123 24.00200080871582,14.35200023651123 24.00200080871582,14.35200023651123 C24.00200080871582,14.35200023651123 -24.00200080871582,14.35200023651123 -24.00200080871582,14.35200023651123 C-24.00200080871582,14.35200023651123 -24.00200080871582,-14.35200023651123 -24.00200080871582,-14.35200023651123z"></path></g></g><g transform="matrix(0.33295896649360657,-0.0052282060496509075,0.0052282060496509075,0.33295896649360657,0.16242949664592743,3.869619369506836)" opacity="1" style="display: block;"><g opacity="1" transform="matrix(1,0,0,1,52.22600173950195,74.63700103759766)"><path fill="rgb(174,153,164)" fill-opacity="1" d=" M3.4509999752044678,-14.013999938964844 C3.4509999752044678,-14.013999938964844 -3.4509999752044678,-14.013999938964844 -3.4509999752044678,-14.013999938964844 C-3.4509999752044678,-14.013999938964844 -3.4509999752044678,14.013999938964844 -3.4509999752044678,14.013999938964844 C-3.4509999752044678,14.013999938964844 3.4509999752044678,14.013999938964844 3.4509999752044678,14.013999938964844 C3.4509999752044678,14.013999938964844 3.4509999752044678,-14.013999938964844 3.4509999752044678,-14.013999938964844z"></path></g></g></g></svg>