<svg xmlns="http://www.w3.org/2000/svg" viewBox="0 0 90 52" width="90" height="52" preserveAspectRatio="xMidYMid meet" style="width: 100%; height: 100%; transform: translate3d(0px, 0px, 0px); content-visibility: visible;"><defs><clipPath id="__lottie_element_225"><rect width="90" height="52" x="0" y="0"></rect></clipPath></defs><g clip-path="url(#__lottie_element_225)"><g transform="matrix(0.3330000042915344,0,0,0.3330000042915344,-83.1603775024414,-42.20560073852539)" opacity="1" style="display: block;"><g opacity="1" transform="matrix(1,0,0,1,458.9079895019531,212.39500427246094)"><path fill="rgb(239,82,34)" fill-opacity="1" d=" M19.52400016784668,0.9120000004768372 C19.51099967956543,0.875 19.499000549316406,0.8379999995231628 19.486000061035156,0.800000011920929 C19.07200050354004,-0.36399999260902405 18.2549991607666,-1.3600000143051147 17.89900016784668,-2.5429999828338623 C17.165000915527344,-4.984000205993652 18.518999099731445,-7.693999767303467 17.767000198364258,-10.130999565124512 C17.145000457763672,-12.149999618530273 15.25100040435791,-13.461000442504883 13.479999542236328,-14.61299991607666 C13.008999824523926,-14.920000076293945 12.51200008392334,-15.234999656677246 11.95300006866455,-15.279000282287598 C11.46399974822998,-15.315999984741211 10.984000205993652,-15.144000053405762 10.494999885559082,-15.135000228881836 C8.9399995803833,-15.109000205993652 7.9019999504089355,-16.64699935913086 6.684999942779541,-17.614999771118164 C3.984999895095825,-19.766000747680664 -1.1890000104904175,-18.88599967956543 -4.388999938964844,-18.8799991607666 C-5.874000072479248,-18.87700080871582 -7.428999900817871,-18.85700035095215 -8.73799991607666,-18.15399932861328 C-10.355999946594238,-17.28499984741211 -10.62600040435791,-15.543999671936035 -11.892999649047852,-14.503000259399414 C-13.045000076293945,-13.557000160217285 -15.038999557495117,-13.5 -16.374000549316406,-12.717000007629395 C-17.888999938964844,-11.831000328063965 -19.142000198364258,-10.175000190734863 -18.871999740600586,-8.440999984741211 C-18.761999130249023,-7.736000061035156 -18.413999557495117,-7.0879998207092285 -18.270000457763672,-6.388999938964844 C-18.079999923706055,-5.466000080108643 -18.2549991607666,-4.51200008392334 -18.441999435424805,-3.5880000591278076 C-19.11400032043457,-0.2529999911785126 -19.924999237060547,3.1619999408721924 -19.34600067138672,6.514999866485596 C-18.76799964904785,9.866999626159668 -16.3700008392334,13.182000160217285 -12.994999885559082,13.61400032043457 C-12.052000045776367,13.734000205993652 -11.0649995803833,13.631999969482422 -10.178000450134277,13.972999572753906 C-7.945000171661377,14.833000183105469 -7.442999839782715,17.9689998626709 -5.360000133514404,19.145999908447266 C-4.26200008392334,19.766000747680664 -2.9260001182556152,19.725000381469727 -1.6670000553131104,19.66699981689453 C1.0290000438690186,19.54199981689453 3.753000020980835,19.41200065612793 6.349999904632568,18.674999237060547 C8.946999549865723,17.937000274658203 11.442999839782715,16.525999069213867 12.973999977111816,14.303999900817871 C13.553000450134277,13.463000297546387 14.029000282287598,12.479000091552734 14.920000076293945,11.980999946594238 C15.541000366210938,11.63599967956543 16.280000686645508,11.57800006866455 16.937999725341797,11.309000015258789 C19.29400062561035,10.345999717712402 19.742000579833984,7.263999938964844 19.836000442504883,4.7210001945495605 C19.881999969482422,3.440999984741211 19.924999237060547,2.125999927520752 19.52400016784668,0.9120000004768372z"></path></g><g opacity="1" transform="matrix(1,0,0,1,449.3240051269531,218.86000061035156)"><path fill="rgb(193,66,60)" fill-opacity="1" d=" M4.554999828338623,1.1790000200271606 C3.943000078201294,2.1730000972747803 2.7839999198913574,3.006999969482422 1.5180000066757202,3.2829999923706055 C0.09000000357627869,3.5959999561309814 -2.0190000534057617,3.492000102996826 -3.3340001106262207,2.819000005722046 C-4.0879998207092285,2.431999921798706 -4.7170000076293945,1.7309999465942383 -4.848999977111816,0.8939999938011169 C-5.334000110626221,-2.1480000019073486 1.281999945640564,-3.5969998836517334 3.3269999027252197,-2.565000057220459 C5.228000164031982,-1.6059999465942383 5.334000110626221,-0.08500000089406967 4.554999828338623,1.1790000200271606z"></path></g><g opacity="1" transform="matrix(1,0,0,1,467.1449890136719,208.45899963378906)"><path fill="rgb(193,66,60)" fill-opacity="1" d=" M-4.111000061035156,2.4010000228881836 C-8.920000076293945,-2.9809999465942383 1.3830000162124634,-7.389999866485596 5.39900016784668,-6.2230000495910645 C7.098999977111816,-5.729000091552734 8.920000076293945,-3.8499999046325684 8.036999702453613,-1.9809999465942383 C7.691999912261963,-1.2489999532699585 7,-0.7480000257492065 6.307000160217285,-0.3330000042915344 C4.322999954223633,0.8529999852180481 2.078000068664551,1.6039999723434448 -0.2199999988079071,1.8509999513626099 C0.33799999952316284,2.5799999237060547 0.21899999678134918,3.6619999408721924 -0.2770000100135803,4.434000015258789 C-0.7730000019073486,5.206999778747559 -1.5709999799728394,5.728000164031982 -2.369999885559082,6.178999900817871 C-3.3239998817443848,6.7170000076293945 -4.343999862670898,7.197000026702881 -5.434999942779541,7.294000148773193 C-6.5269999504089355,7.389999866485596 -7.710000038146973,7.043000221252441 -8.383999824523926,6.177999973297119 C-8.67300033569336,5.809000015258789 -8.859000205993652,5.335999965667725 -8.788999557495117,4.873000144958496 C-8.701000213623047,4.298999786376953 -8.248000144958496,3.8540000915527344 -7.7729997634887695,3.5209999084472656 C-6.710999965667725,2.7769999504089355 -5.408999919891357,2.378999948501587 -4.111000061035156,2.4010000228881836z"></path></g><g opacity="1" transform="matrix(1,0,0,1,452.802001953125,202.59500122070312)"><path fill="rgb(245,138,70)" fill-opacity="1" d=" M-5.543000221252441,0.11599999666213989 C-6.13700008392334,0.5149999856948853 -6.610000133514404,0.9160000085830688 -6.8379998207092285,1.2200000286102295 C-7.008999824523926,1.4500000476837158 -7.165999889373779,1.7020000219345093 -7.210999965667725,1.9850000143051147 C-7.853000164031982,6.078000068664551 2.36899995803833,3.861999988555908 3.864000082015991,3.447999954223633 C7.853000164031982,2.3450000286102295 6.85099983215332,-1.49399995803833 3.003000020980835,-1.3860000371932983 C3.7009999752044678,-1.8389999866485596 4.427999973297119,-2.3970000743865967 4.824999809265137,-3.1459999084472656 C5.952000141143799,-5.2729997634887695 3.5929999351501465,-6.078000068664551 1.8730000257492065,-5.7820000648498535 C-0.12700000405311584,-5.439000129699707 -4.184999942779541,-3.424999952316284 -0.6779999732971191,-1.3309999704360962 C-0.6779999732971191,-1.3309999704360962 -4.014999866485596,-0.9100000262260437 -5.543000221252441,0.11599999666213989z"></path></g><g opacity="1" transform="matrix(1,0,0,1,459.1629943847656,215.95799255371094)"><path fill="rgb(193,66,60)" fill-opacity="1" d=" M19.231000900268555,-2.7639999389648438 C18.816999435424805,-3.927999973297119 18.000999450683594,-4.923999786376953 17.643999099731445,-6.10699987411499 C16.90999984741211,-8.54800033569336 18.263999938964844,-11.258000373840332 17.511999130249023,-13.694999694824219 C17.209999084472656,-14.678000450134277 16.60099983215332,-15.493000030517578 15.854999542236328,-16.202999114990234 C15.946999549865723,-14.694999694824219 15.961000442504883,-13.177000045776367 15.572999954223633,-11.725000381469727 C15.090999603271484,-9.923999786376953 13.869999885559082,-8.211000442504883 12.092000007629395,-7.65500020980835 C11.25100040435791,-7.390999794006348 10.350000381469727,-7.401000022888184 9.479000091552734,-7.263000011444092 C6.947000026702881,-6.861000061035156 4.670000076293945,-5.10699987411499 3.634000062942505,-2.760999917984009 C6.793000221252441,-1.25 8.067999839782715,3.2279999256134033 6.177999973297119,6.175000190734863 C4.288000106811523,9.123000144958496 -0.3149999976158142,9.833000183105469 -3.005000114440918,7.591000080108643 C-3.1059999465942383,8.944999694824219 -4.675000190734863,9.859999656677246 -6.000999927520752,9.572999954223633 C-7.328000068664551,9.28600025177002 -8.314000129699707,8.093000411987305 -8.718999862670898,6.796999931335449 C-9.12399959564209,5.502999782562256 -9.045999526977539,4.110000133514404 -8.916000366210938,2.759000062942505 C-12.187999725341797,4.664000034332275 -16.468000411987305,4.364999771118164 -19.66900062561035,2.4010000228881836 C-19.645999908447266,2.5850000381469727 -19.632999420166016,2.7679998874664307 -19.60099983215332,2.9509999752044678 C-19.023000717163086,6.302999973297119 -16.624000549316406,9.619000434875488 -13.24899959564209,10.050000190734863 C-12.307000160217285,10.170999526977539 -11.319999694824219,10.067999839782715 -10.432999610900879,10.40999984741211 C-8.199999809265137,11.269000053405762 -7.697999954223633,14.404999732971191 -5.614999771118164,15.583000183105469 C-4.517000198364258,16.202999114990234 -3.180999994277954,16.16200065612793 -1.9220000505447388,16.10300064086914 C0.7739999890327454,15.977999687194824 3.499000072479248,15.848999977111816 6.09499979019165,15.112000465393066 C8.692999839782715,14.375 11.187999725341797,12.963000297546387 12.718999862670898,10.739999771118164 C13.29800033569336,9.89900016784668 13.77400016784668,8.916000366210938 14.664999961853027,8.418000221252441 C15.28600025177002,8.071999549865723 16.024999618530273,8.013999938964844 16.683000564575195,7.745999813079834 C19.038999557495117,6.7820000648498535 19.48699951171875,3.700000047683716 19.58099937438965,1.156999945640564 C19.62700080871582,-0.12200000137090683 19.66900062561035,-1.437999963760376 19.268999099731445,-2.6510000228881836 C19.256999969482422,-2.687999963760376 19.243999481201172,-2.7260000705718994 19.231000900268555,-2.7639999389648438z"></path></g></g><g transform="matrix(0.3330000042915344,0,0,0.3330000042915344,-83.1603775024414,-39.139366149902344)" opacity="1" style="display: block;"><g opacity="1" transform="matrix(1,0,0,1,323,216.98500061035156)"><path fill="rgb(239,82,34)" fill-opacity="1" d=" M13.024999618530273,0.004999999888241291 C12.8100004196167,-0.3499999940395355 12.63599967956543,-0.722000002861023 12.553999900817871,-1.1319999694824219 C12.312999725341797,-2.3350000381469727 12.918000221252441,-3.5220000743865967 13.206999778747559,-4.715000152587891 C14.909000396728516,-11.732999801635742 5.581999778747559,-15.255999565124512 0.14499999582767487,-15.255999565124512 C-1.4709999561309814,-15.255999565124512 -4.267000198364258,-15.336000442504883 -5.71999979019165,-14.654000282287598 C-7.349999904632568,-13.890000343322754 -7.978000164031982,-11.710000038146973 -9.5649995803833,-10.805000305175781 C-10.880000114440918,-10.053999900817871 -12.649999618530273,-10.23900032043457 -13.786999702453613,-9.239999771118164 C-15.303999900817871,-7.90500020980835 -14.746000289916992,-5.497000217437744 -14.628000259399414,-3.4800000190734863 C-14.482999801635742,-0.972000002861023 -15.232000350952148,1.5119999647140503 -15.23900032043457,4.02400016784668 C-15.246000289916992,6.538000106811523 -14.1850004196167,9.376999855041504 -11.805000305175781,10.187000274658203 C-10.008000373840332,10.798999786376953 -8.022000312805176,10.069999694824219 -6.145999908447266,10.361000061035156 C-4.057000160217285,10.685999870300293 -2.3940000534057617,12.20300006866455 -0.6240000128746033,13.359999656677246 C1.1440000534057617,14.517999649047852 3.5190000534057617,15.336000442504883 5.308000087738037,14.208999633789062 C6.3470001220703125,13.555000305175781 6.929999828338623,12.392000198364258 7.734000205993652,11.463000297546387 C9.045999526977539,9.947999954223633 10.934000015258789,9.071999549865723 12.484000205993652,7.801000118255615 C14.032999992370605,6.5289998054504395 15.303999900817871,4.48799991607666 14.654999732971191,2.5920000076293945 C14.326000213623047,1.6299999952316284 13.548999786376953,0.8679999709129333 13.024999618530273,0.004999999888241291z"></path></g><g opacity="1" transform="matrix(1,0,0,1,326.4070129394531,208.58999633789062)"><path fill="rgb(245,138,70)" fill-opacity="1" d=" M4.872000217437744,1.2649999856948853 C3.434000015258789,3.7200000286102295 -4.9019999504089355,1.5299999713897705 -5.239999771118164,-0.9210000038146973 C-5.385000228881836,-1.9700000286102295 -4.466000080108643,-2.933000087738037 -3.441999912261963,-3.2090001106262207 C-1.5269999504089355,-3.7209999561309814 1.4780000448226929,-2.9059998989105225 3.1110000610351562,-1.8849999904632568 C4.452000141143799,-1.0470000505447388 5.385000228881836,0.38999998569488525 4.872000217437744,1.2649999856948853z"></path></g><g opacity="1" transform="matrix(1,0,0,1,319.47601318359375,215.92599487304688)"><path fill="rgb(193,66,60)" fill-opacity="1" d=" M-5.0229997634887695,-2.5380001068115234 C-4.178999900817871,-3.51200008392334 -2.680999994277954,-3.4860000610351562 -1.402999997138977,-3.319999933242798 C-0.550000011920929,-3.2100000381469727 0.3140000104904175,-3.066999912261963 1.0800000429153442,-2.677000045776367 C5.678999900817871,-0.3269999921321869 -0.9760000109672546,3.51200008392334 -4.309999942779541,1.2359999418258667 C-4.88100004196167,0.8460000157356262 -5.388000011444092,0.2980000078678131 -5.533999919891357,-0.3790000081062317 C-5.678999900817871,-1.0570000410079956 -5.4770002365112305,-2.015000104904175 -5.0229997634887695,-2.5380001068115234z"></path></g><g opacity="1" transform="matrix(1,0,0,1,330.1570129394531,220.73800659179688)"><path fill="rgb(193,66,60)" fill-opacity="1" d=" M-2.7330000400543213,2.3570001125335693 C-5.116000175476074,-1.2419999837875366 1.3910000324249268,-5.671999931335449 4.426000118255615,-3.375999927520752 C5.0960001945495605,-2.869999885559082 5.51200008392334,-2.0420000553131104 5.519999980926514,-1.2029999494552612 C5.5320000648498535,0.11999999731779099 4.573999881744385,1.2970000505447388 3.4130001068115234,1.9320000410079956 C2.250999927520752,2.566999912261963 0.9089999794960022,2.763000011444092 -0.4009999930858612,2.9489998817443848 C-0.1679999977350235,3.4089999198913574 -0.2540000081062317,3.989000082015991 -0.5379999876022339,4.420000076293945 C-0.8209999799728394,4.85099983215332 -1.2740000486373901,5.1479997634887695 -1.753999948501587,5.3379998207092285 C-2.3940000534057617,5.591000080108643 -3.1019999980926514,5.671999931335449 -3.7829999923706055,5.570000171661377 C-4.521999835968018,5.459000110626221 -5.316999912261963,5.01800012588501 -5.433000087738037,4.28000020980835 C-5.5320000648498535,3.6570000648498535 -5.089000225067139,3.0490000247955322 -4.5329999923706055,2.753000020980835 C-3.9860000610351562,2.4609999656677246 -3.3410000801086426,2.3929998874664307 -2.7330000400543213,2.3570001125335693z"></path></g><g opacity="1" transform="matrix(1,0,0,1,323,219.6020050048828)"><path fill="rgb(193,66,60)" fill-opacity="1" d=" M14.654999732971191,-0.02500000037252903 C14.536999702453613,-0.3700000047683716 14.352999687194824,-0.6840000152587891 14.152000427246094,-0.9919999837875366 C13.769000053405762,-0.722000002861023 13.371000289916992,-0.47600001096725464 12.935999870300293,-0.2930000126361847 C11.482999801635742,0.32199999690055847 9.595999717712402,0.20399999618530273 8.567999839782715,-0.9919999837875366 C8.763999938964844,1.850000023841858 6.744999885559082,4.665999889373779 4.01200008392334,5.473999977111816 C1.2799999713897705,6.2820000648498535 -1.8969999551773071,5.060999870300293 -3.4579999446868896,2.677999973297119 C-5.019999980926514,0.29499998688697815 -4.895999908447266,-3.0450000762939453 -3.2320001125335693,-5.357999801635742 C-4.964000225067139,-3.694999933242798 -7.956999778747559,-3.7920000553131104 -9.821999549865723,-5.304999828338623 C-11.6850004196167,-6.817999839782715 -12.428999900817871,-9.446999549865723 -12.017000198364258,-11.812000274658203 C-11.96399974822998,-12.118000030517578 -11.885000228881836,-12.420000076293945 -11.791999816894531,-12.718999862670898 C-12.52400016784668,-12.548999786376953 -13.230999946594238,-12.345000267028809 -13.78600025177002,-11.857000350952148 C-15.303999900817871,-10.522000312805176 -14.744999885559082,-8.11400032043457 -14.628000259399414,-6.0970001220703125 C-14.482999801635742,-3.5880000591278076 -15.232000350952148,-1.1050000190734863 -15.23900032043457,1.4079999923706055 C-15.244999885559082,3.9210000038146973 -14.1850004196167,6.760000228881836 -11.805000305175781,7.571000099182129 C-10.008000373840332,8.182000160217285 -8.022000312805176,7.453999996185303 -6.145999908447266,7.744999885559082 C-4.057000160217285,8.069000244140625 -2.3929998874664307,9.586000442504883 -0.6240000128746033,10.744000434875488 C1.1440000534057617,11.901000022888184 3.5190000534057617,12.718999862670898 5.308000087738037,11.592000007629395 C6.3470001220703125,10.937999725341797 6.929999828338623,9.774999618530273 7.734000205993652,8.845999717712402 C9.045999526977539,7.330999851226807 10.934000015258789,6.454999923706055 12.484000205993652,5.184000015258789 C14.032999992370605,3.9130001068115234 15.303999900817871,1.871000051498413 14.654999732971191,-0.02500000037252903z"></path></g></g><g transform="matrix(0.3330000042915344,0,0,0.3330000042915344,-83.1603775024414,-41.863216400146484)" opacity="1" style="display: block;"><g opacity="1" transform="matrix(1,0,0,1,266.7900085449219,220.48300170898438)"><path fill="rgb(239,82,34)" fill-opacity="1" d=" M13.024999618530273,0.004000000189989805 C12.809000015258789,-0.3499999940395355 12.63599967956543,-0.7229999899864197 12.553999900817871,-1.1319999694824219 C12.312999725341797,-2.3350000381469727 12.918000221252441,-3.5220000743865967 13.206999778747559,-4.715000152587891 C14.907999992370605,-11.734000205993652 5.581999778747559,-15.255000114440918 0.14499999582767487,-15.255000114440918 C-1.4709999561309814,-15.255000114440918 -4.267000198364258,-15.336000442504883 -5.71999979019165,-14.654000282287598 C-7.349999904632568,-13.890000343322754 -7.979000091552734,-11.710000038146973 -9.5649995803833,-10.805000305175781 C-10.880000114440918,-10.053999900817871 -12.649999618530273,-10.23900032043457 -13.786999702453613,-9.23900032043457 C-15.303999900817871,-7.9039998054504395 -14.746000289916992,-5.497000217437744 -14.628000259399414,-3.4790000915527344 C-14.482999801635742,-0.9710000157356262 -15.232000350952148,1.5119999647140503 -15.23900032043457,4.026000022888184 C-15.246000289916992,6.539000034332275 -14.1850004196167,9.378000259399414 -11.805000305175781,10.187999725341797 C-10.008000373840332,10.798999786376953 -8.022000312805176,10.071000099182129 -6.145999908447266,10.362000465393066 C-4.057000160217285,10.687000274658203 -2.3940000534057617,12.20300006866455 -0.6240000128746033,13.359999656677246 C1.1440000534057617,14.517999649047852 3.5190000534057617,15.336000442504883 5.308000087738037,14.208999633789062 C6.3470001220703125,13.555000305175781 6.929999828338623,12.392999649047852 7.734000205993652,11.46399974822998 C9.045999526977539,9.947999954223633 10.934000015258789,9.072999954223633 12.482999801635742,7.802000045776367 C14.032999992370605,6.53000020980835 15.303999900817871,4.48799991607666 14.654999732971191,2.5920000076293945 C14.324999809265137,1.6299999952316284 13.548999786376953,0.8669999837875366 13.024999618530273,0.004000000189989805z"></path></g><g opacity="1" transform="matrix(1,0,0,1,273.1400146484375,211.6699981689453)"><path fill="rgb(245,138,70)" fill-opacity="1" d=" M-5.132999897003174,2.119999885559082 C-6.170000076293945,1.090999960899353 -6.644000053405762,-0.7250000238418579 -5.672999858856201,-1.8179999589920044 C-3.4230000972747803,-4.3480000495910645 1.8240000009536743,-2.578000068664551 3.5269999504089355,-0.20100000500679016 C6.644000053405762,4.146999835968018 -2.890000104904175,4.3470001220703125 -5.132999897003174,2.119999885559082z"></path></g><g opacity="1" transform="matrix(1,0,0,1,262.5639953613281,220.04400634765625)"><path fill="rgb(193,66,60)" fill-opacity="1" d=" M-6.590000152587891,0.421999990940094 C-4.127999782562256,1.378000020980835 -1.3140000104904175,1.3910000324249268 1.156000018119812,0.45500001311302185 C0.7269999980926514,1.559000015258789 1.565999984741211,2.7669999599456787 2.5490000247955322,3.427000045776367 C3.6610000133514404,4.172999858856201 5.052999973297119,4.546999931335449 6.36899995803833,4.301000118255615 C7.684999942779541,4.054999828338623 8.892999649047852,3.1440000534057617 9.354999542236328,1.8869999647140503 C9.817000389099121,0.6290000081062317 9.432999610900879,-0.9309999942779541 8.35200023651123,-1.7209999561309814 C7.4710001945495605,-2.365000009536743 6.375999927520752,-2.49399995803833 5.322000026702881,-2.4070000648498535 C5.061999797821045,-2.385999917984009 2.302000045776367,-1.6139999628067017 2.4179999828338623,-1.4579999446868896 C0.48100000619888306,-4.059999942779541 -2.441999912261963,-4.546000003814697 -5.377999782562256,-3.4830000400543213 C-7.414000034332275,-2.746999979019165 -9.817000389099121,-0.7170000076293945 -6.590000152587891,0.421999990940094z"></path></g><g opacity="1" transform="matrix(1,0,0,1,266.2120056152344,223.22500610351562)"><path fill="rgb(193,66,60)" fill-opacity="1" d=" M12.081000328063965,3.377000093460083 C10.66100025177002,3.3580000400543213 9.123000144958496,3.062000036239624 8.182000160217285,1.9980000257492065 C6.127999782562256,4.283999919891357 2.6019999980926514,5.104000091552734 -0.24899999797344208,3.9600000381469727 C-3.1019999980926514,2.815999984741211 -5.083000183105469,-0.21199999749660492 -4.98799991607666,-3.2829999923706055 C-7.611000061035156,-2.010999917984009 -11.055999755859375,-3.51200008392334 -12.324999809265137,-6.13700008392334 C-13.302000045776367,-8.152999877929688 -13.097000122070312,-10.571000099182129 -12.098999977111816,-12.595000267028809 C-12.503000259399414,-12.45300006866455 -12.883999824523926,-12.267000198364258 -13.208999633789062,-11.980999946594238 C-14.72700023651123,-10.645999908447266 -14.168999671936035,-8.23900032043457 -14.050999641418457,-6.2220001220703125 C-13.904999732971191,-3.7130000591278076 -14.654000282287598,-1.2300000190734863 -14.66100025177002,1.2829999923706055 C-14.668000221252441,3.796999931335449 -13.607000350952148,6.635000228881836 -11.227999687194824,7.443999767303467 C-9.430999755859375,8.055999755859375 -7.443999767303467,7.328000068664551 -5.567999839782715,7.61899995803833 C-3.4800000190734863,7.942999839782715 -1.815999984741211,9.461000442504883 -0.04699999839067459,10.618000030517578 C1.722000002861023,11.774999618530273 4.0970001220703125,12.593999862670898 5.886000156402588,11.467000007629395 C6.925000190734863,10.812999725341797 7.508999824523926,9.649999618530273 8.312000274658203,8.722000122070312 C9.62399959564209,7.205999851226807 11.512999534606934,6.329999923706055 13.060999870300293,5.059000015258789 C13.708000183105469,4.5269999504089355 14.295999526977539,3.8589999675750732 14.72700023651123,3.127000093460083 C13.85200023651123,3.2829999923706055 12.970000267028809,3.3889999389648438 12.081000328063965,3.377000093460083z"></path></g></g><g transform="matrix(0.3330000042915344,0,0,0.3330000042915344,-83.1603775024414,-38.95338439941406)" opacity="1" style="display: block;"><g opacity="1" transform="matrix(1,0,0,1,390.9849853515625,232.67599487304688)"><path fill="rgb(239,82,34)" fill-opacity="1" d=" M-35.56999969482422,0.4519999921321869 C-34.95800018310547,-1.1349999904632568 -34.53499984741211,-2.756999969482422 -35.01499938964844,-4.543000221252441 C-35.354000091552734,-5.800000190734863 -36.125999450683594,-6.901000022888184 -36.51499938964844,-8.142000198364258 C-37.22600173950195,-10.409000396728516 -36.5989990234375,-12.854999542236328 -35.97100067138672,-15.147000312805176 C-35.007999420166016,-18.656999588012695 -33.611000061035156,-22.65999984741211 -30.18199920654297,-23.882999420166016 C-29.016000747680664,-24.29800033569336 -27.746000289916992,-24.322999954223633 -26.562999725341797,-24.68600082397461 C-22.368999481201172,-25.969999313354492 -21.066999435424805,-30.608999252319336 -17.499000549316406,-32.60200119018555 C-14.725000381469727,-34.150001525878906 -9.916999816894531,-35.4119987487793 -6.711999893188477,-36.28799819946289 C-3.240999937057495,-37.236000061035156 0.22699999809265137,-37.5359992980957 3.816999912261963,-37.6349983215332 C5.0279998779296875,-37.667999267578125 6.322000026702881,-37.68000030517578 7.340000152587891,-37.025001525878906 C8.600000381469727,-36.21500015258789 9.130000114440918,-34.57600021362305 10.380999565124512,-33.75199890136719 C11.168000221252441,-33.23400115966797 12.140999794006348,-33.10499954223633 13.076000213623047,-33.00299835205078 C15.319999694824219,-32.76100158691406 17.62700080871582,-32.5880012512207 19.66900062561035,-31.6299991607666 C21.711000442504883,-30.672000885009766 23.46500015258789,-28.711000442504883 23.43899917602539,-26.454999923706055 C23.430999755859375,-25.790000915527344 23.27400016784668,-25.108999252319336 23.458999633789062,-24.472000122070312 C23.63599967956543,-23.865999221801758 24.094999313354492,-23.392000198364258 24.53700065612793,-22.941999435424805 C29.724000930786133,-17.69099998474121 33.92499923706055,-12.963000297546387 36.310001373291016,-5.809999942779541 C37.4010009765625,-2.2049999237060547 37.47600173950195,1.8669999837875366 35.67599868774414,5.175000190734863 C34.367000579833984,7.583000183105469 32.16699981689453,9.428999900817871 30.937999725341797,11.878999710083008 C29.969999313354492,13.807999610900879 29.660999298095703,15.998000144958496 28.886999130249023,18.01300048828125 C27.451000213623047,21.75 24.507999420166016,24.674999237060547 21.648000717163086,27.476999282836914 C17.864999771118164,31.184999465942383 13.779000282287598,35.058998107910156 8.58899974822998,36.12200164794922 C0.9829999804496765,37.68000030517578 -6.251999855041504,32.82099914550781 -13.595999717712402,30.30299949645996 C-17.013999938964844,29.131000518798828 -20.604000091552734,28.445999145507812 -23.909000396728516,26.985000610351562 C-31.083999633789062,23.812999725341797 -30.604000091552734,18.332000732421875 -33.930999755859375,12.517000198364258 C-35.3849983215332,9.97599983215332 -37.14799880981445,10.194000244140625 -37.347999572753906,6.723999977111816 C-37.47600173950195,4.507999897003174 -36.36399841308594,2.509999990463257 -35.56999969482422,0.4519999921321869z"></path></g><g opacity="1" transform="matrix(1,0,0,1,401.8840026855469,207.00799560546875)"><path fill="rgb(245,138,70)" fill-opacity="1" d=" M7.445000171661377,-1.7029999494552612 C8.581999778747559,-0.5019999742507935 8.373000144958496,1.1670000553131104 5.541999816894531,2.743000030517578 C1.5110000371932983,4.986999988555908 -4.080999851226807,4.39300012588501 -7.8480000495910645,1.9259999990463257 C-8.053999900817871,1.7910000085830688 -8.26200008392334,1.6449999809265137 -8.392999649047852,1.437000036239624 C-8.560999870300293,1.1710000038146973 -8.581999778747559,0.8349999785423279 -8.53499984741211,0.5249999761581421 C-8.312000274658203,-0.9430000185966492 -6.822000026702881,-1.8240000009536743 -5.46999979019165,-2.438999891281128 C-1.7580000162124634,-4.129000186920166 4.334000110626221,-4.98799991607666 7.445000171661377,-1.7029999494552612z"></path></g><g opacity="1" transform="matrix(1,0,0,1,364.2539978027344,222.4499969482422)"><path fill="rgb(193,66,60)" fill-opacity="1" d=" M-3.9630000591278076,-3.7809998989105225 C-6.433000087738037,-0.8790000081062317 -7.561999797821045,2.7960000038146973 -4.586999893188477,4.961999893188477 C0.26499998569488525,8.494999885559082 5.021999835968018,1.437999963760376 6.559000015258789,-2.171999931335449 C7.563000202178955,-4.5289998054504395 6.484000205993652,-7.7270002365112305 3.7769999504089355,-8.098999977111816 C0.8949999809265137,-8.494999885559082 -2.260999917984009,-5.7829999923706055 -3.9630000591278076,-3.7809998989105225z"></path></g><g opacity="1" transform="matrix(1,0,0,1,365.8659973144531,233.50799560546875)"><path fill="rgb(193,66,60)" fill-opacity="1" d=" M-4.798999786376953,2.6429998874664307 C-5.0980000495910645,3.828000068664551 -4.97599983215332,5.303999900817871 -3.947000026702881,5.965000152587891 C-3.321000099182129,6.36899995803833 -2.5139999389648438,6.359000205993652 -1.781000018119812,6.21999979019165 C1.093999981880188,5.678999900817871 3.503999948501587,3.2179999351501465 3.9839999675750732,0.3319999873638153 C5.0980000495910645,-6.368000030517578 -3.878000020980835,-1.0089999437332153 -4.798999786376953,2.6429998874664307z"></path></g><g opacity="1" transform="matrix(1,0,0,1,383.37701416015625,245.31900024414062)"><path fill="rgb(193,66,60)" fill-opacity="1" d=" M-5.791999816894531,-2.615000009536743 C-11.362000465393066,2.812000036239624 -1.8960000276565552,5.502999782562256 1.9429999589920044,5.308000087738037 C4.9730000495910645,5.1539998054504395 11.362000465393066,0.8740000128746033 7.670000076293945,-2.4649999141693115 C6.866000175476074,-3.191999912261963 5.783999919891357,-3.5220000743865967 4.728000164031982,-3.76200008392334 C1.1950000524520874,-4.563000202178955 -2.8289999961853027,-5.502999782562256 -5.791999816894531,-2.615000009536743z"></path></g><g opacity="1" transform="matrix(1,0,0,1,388.75799560546875,223.3350067138672)"><path fill="rgb(193,66,60)" fill-opacity="1" d=" M-8.529000282287598,-4.558000087738037 C-10.362000465393066,-3.075000047683716 -12.071000099182129,-0.7149999737739563 -11.187000274658203,1.4700000286102295 C-10.506999969482422,3.1530001163482666 -8.571000099182129,3.930999994277954 -6.788000106811523,4.269000053405762 C-4.3979997634887695,4.7230000495910645 -1.9199999570846558,4.709000110626221 0.4650000035762787,4.2270002365112305 C-0.8420000076293945,5.593999862670898 -1.6859999895095825,7.810999870300293 -0.574999988079071,9.34000015258789 C0.17299999296665192,10.371000289916992 1.5759999752044678,10.718999862670898 2.8480000495910645,10.635000228881836 C4.539999961853027,10.522000312805176 6.2829999923706055,9.645999908447266 6.964000225067139,8.090999603271484 C7.644000053405762,6.5370001792907715 6.820000171661377,4.369999885559082 5.156000137329102,4.038000106811523 C6.22599983215332,3.177999973297119 7.296000003814697,2.319000005722046 8.366999626159668,1.4600000381469727 C10.133000373840332,0.041999999433755875 12.071000099182129,-1.7350000143051147 11.954999923706055,-3.996999979019165 C11.869999885559082,-5.670000076293945 10.605999946594238,-7.099999904632568 9.114999771118164,-7.86299991607666 C3.5250000953674316,-10.720000267028809 -3.9709999561309814,-8.248000144958496 -8.529000282287598,-4.558000087738037z"></path></g><g opacity="1" transform="matrix(1,0,0,1,413.1990051269531,240.1959991455078)"><path fill="rgb(193,66,60)" fill-opacity="1" d=" M-7.513000011444092,7.241000175476074 C-7.394999980926514,2.558000087738037 -0.5929999947547913,-10.486000061035156 5.559000015258789,-5.445000171661377 C7.010000228881836,-4.254000186920166 7.5320000648498535,-2.2300000190734863 7.447000026702881,-0.3540000021457672 C7.317999839782715,2.4730000495910645 5.9770002365112305,5.201000213623047 3.9049999713897705,7.127999782562256 C1.8329999446868896,9.055000305175781 -0.9340000152587891,10.185999870300293 -3.75600004196167,10.395999908447266 C-4.974999904632568,10.487000465393066 -6.388999938964844,10.315999984741211 -7.074999809265137,9.305000305175781 C-7.474999904632568,8.71399974822998 -7.5320000648498535,7.955999851226807 -7.513000011444092,7.241000175476074z"></path></g><g opacity="1" transform="matrix(1,0,0,1,390.9849853515625,245.38800048828125)"><path fill="rgb(193,66,60)" fill-opacity="1" d=" M36.310001373291016,-18.52199935913086 C35.513999938964844,-20.90999984741211 34.5,-23.010000228881836 33.33100128173828,-24.966999053955078 C31.143999099731445,-24.652999877929688 28.95599937438965,-24.149999618530273 26.847999572753906,-23.634000778198242 C29.191999435424805,-21.32900047302246 31.64900016784668,-18.820999145507812 32.29899978637695,-15.597999572753906 C32.95000076293945,-12.375 30.81599998474121,-8.39799976348877 27.52899932861328,-8.444000244140625 C27.797000885009766,-6.289000034332275 28.055999755859375,-4.040999889373779 27.332000732421875,-1.99399995803833 C26.607999801635742,0.05400000140070915 24.575000762939453,1.8140000104904175 22.430999755859375,1.4639999866485596 C19.815000534057617,5.632999897003174 15.36400032043457,8.602999687194824 10.508999824523926,9.416999816894531 C5.656000137329102,10.232999801635742 0.4779999852180481,8.878999710083008 -3.3559999465942383,5.793000221252441 C-5.047999858856201,4.432000160217285 -6.548999786376953,2.6070001125335693 -6.769999980926514,0.44699999690055847 C-9.696000099182129,4.104000091552734 -15.295000076293945,5.059999942779541 -19.533000946044922,3.065000057220459 C-23.770999908447266,1.0700000524520874 -26.531999588012695,-3.4539999961853027 -26.969999313354492,-8.116999626159668 C-27.40999984741211,-12.779999732971191 -25.722999572753906,-17.490999221801758 -22.91200065612793,-21.23699951171875 C-27.20400047302246,-18.73900032043457 -33.30400085449219,-20.06100082397461 -36.17499923706055,-24.113000869750977 C-36.35100173950195,-24.361000061035156 -36.51300048828125,-24.6200008392334 -36.6619987487793,-24.881999969482422 C-36.88399887084961,-23.523000717163086 -36.92399978637695,-22.158000946044922 -36.51499938964844,-20.85300064086914 C-36.125999450683594,-19.61199951171875 -35.354000091552734,-18.51099967956543 -35.01499938964844,-17.253999710083008 C-34.53499984741211,-15.468000411987305 -34.95800018310547,-13.845999717712402 -35.56999969482422,-12.258999824523926 C-36.36399841308594,-10.20199966430664 -37.47600173950195,-8.204000473022461 -37.347999572753906,-5.986999988555908 C-37.14799880981445,-2.5179998874664307 -35.3849983215332,-2.734999895095825 -33.930999755859375,-0.1940000057220459 C-30.604000091552734,5.620999813079834 -31.083999633789062,11.10200023651123 -23.909000396728516,14.27400016784668 C-20.604000091552734,15.734999656677246 -17.013999938964844,16.417999267578125 -13.595999717712402,17.59000015258789 C-6.251999855041504,20.108999252319336 0.9829999804496765,24.966999053955078 8.58899974822998,23.40999984741211 C13.779000282287598,22.347000122070312 17.864999771118164,18.474000930786133 21.648000717163086,14.765999794006348 C24.507999420166016,11.963000297546387 27.451000213623047,9.038999557495117 28.886999130249023,5.301000118255615 C29.66200065612793,3.2869999408721924 29.969999313354492,1.097000002861023 30.937999725341797,-0.8330000042915344 C32.16699981689453,-3.2829999923706055 34.367000579833984,-5.129000186920166 35.67599868774414,-7.538000106811523 C37.47600173950195,-10.845000267028809 37.4010009765625,-14.918000221252441 36.310001373291016,-18.52199935913086z"></path></g></g><g transform="matrix(0.3330000042915344,0,0,0.3330000042915344,-83.1603775024414,-44.8032112121582)" opacity="1" style="display: block;"><g opacity="1" transform="matrix(1,0,0,1,509.41900634765625,230.6199951171875)"><path fill="rgb(239,82,34)" fill-opacity="1" d=" M8.60200023651123,2.1600000858306885 C8.46399974822998,2.01200008392334 8.302000045776367,1.8869999647140503 8.119999885559082,1.7940000295639038 C8.531999588012695,-0.10199999809265137 8.829999923706055,-2.9570000171661377 8.16100025177002,-4.815000057220459 C7.434999942779541,-6.824999809265137 6.196000099182129,-6.7820000648498535 4.429999828338623,-7.314000129699707 C3.0190000534057617,-7.73799991607666 1.7949999570846558,-9.119000434875488 0.32600000500679016,-9.270000457763672 C-0.8700000047683716,-9.392000198364258 -3.052000045776367,-7.798999786376953 -4.109000205993652,-7.160999774932861 C-5.421999931335449,-6.368000030517578 -5.7170000076293945,-5.252999782562256 -6.664000034332275,-4.239999771118164 C-7.24399995803833,-3.618000030517578 -8.701000213623047,-3.117000102996826 -9.017000198364258,-2.3519999980926514 C-9.177000045776367,-1.9639999866485596 -9.104000091552734,-1.524999976158142 -9.027999877929688,-1.1119999885559082 C-8.61299991607666,1.1160000562667847 -8.14900016784668,4.053999900817871 -5.623000144958496,4.906000137329102 C-5.328999996185303,5.00600004196167 -4.998000144958496,5.080999851226807 -4.810999870300293,5.328999996185303 C-4.6620001792907715,5.526000022888184 -4.640999794006348,5.789000034332275 -4.6020002365112305,6.033999919891357 C-4.406000137329102,7.256999969482422 -3.569999933242798,8.357999801635742 -2.444999933242798,8.875 C-1.319000005722046,9.390999794006348 0.06199999898672104,9.307999610900879 1.1169999837875366,8.65999984741211 C1.5390000343322754,8.401000022888184 1.9240000247955322,8.053999900817871 2.4070000648498535,7.938000202178955 C2.7850000858306885,7.8480000495910645 3.178999900817871,7.914000034332275 3.566999912261963,7.938000202178955 C5.372000217437744,8.055000305175781 7.210000038146973,7.230000019073486 8.32699966430664,5.807000160217285 C8.798999786376953,5.203999996185303 9.154999732971191,4.474999904632568 9.168000221252441,3.7090001106262207 C9.178000450134277,3.1459999084472656 8.977999687194824,2.566999912261963 8.60200023651123,2.1600000858306885z"></path></g><g opacity="1" transform="matrix(1,0,0,1,509.94000244140625,232.13999938964844)"><path fill="rgb(193,66,60)" fill-opacity="1" d=" M3.0450000762939453,6.416999816894531 C4.849999904632568,6.5329999923706055 6.690000057220459,5.710999965667725 7.806000232696533,4.288000106811523 C8.277999877929688,3.684999942779541 8.633000373840332,2.9560000896453857 8.647000312805176,2.188999891281128 C8.656000137329102,1.6269999742507935 8.456000328063965,1.0470000505447388 8.079999923706055,0.6399999856948853 C7.941999912261963,0.4909999966621399 7.781000137329102,0.3659999966621399 7.598999977111816,0.2720000147819519 C8.01099967956543,-1.621999979019165 8.309000015258789,-4.479000091552734 7.639999866485596,-6.335999965667725 C7.367000102996826,-7.0929999351501465 7.020999908447266,-7.557000160217285 6.6020002365112305,-7.870999813079834 C6.7170000076293945,-7.4710001945495605 6.809999942779541,-7.064000129699707 6.854000091552734,-6.646999835968018 C7.00600004196167,-5.192999839782715 6.611999988555908,-3.631999969482422 5.565999984741211,-2.6110000610351562 C4.506999969482422,-1.5789999961853027 2.9579999446868896,-1.2339999675750732 1.4830000400543213,-1.1299999952316284 C2.0460000038146973,-0.11500000208616257 2.056999921798706,1.184000015258789 1.5119999647140503,2.2079999446868896 C0.9660000205039978,3.2309999465942383 -0.11900000274181366,3.947000026702881 -1.2740000486373901,4.046000003814697 C-1.6629999876022339,4.078000068664551 -2.063999891281128,4.044000148773193 -2.4200000762939453,3.88700008392334 C-2.752000093460083,3.739000082015991 -3.0290000438690186,3.49399995803833 -3.2739999294281006,3.2279999256134033 C-4.295000076293945,2.115999937057495 -4.822000026702881,0.5669999718666077 -4.692999839782715,-0.9359999895095825 C-5.877999782562256,-0.0860000029206276 -7.236000061035156,0.5109999775886536 -8.656000137329102,0.843999981880188 C-8.17300033569336,1.9830000400543213 -7.425000190734863,2.953000068664551 -6.144000053405762,3.384999990463257 C-5.85099983215332,3.4839999675750732 -5.519000053405762,3.561000108718872 -5.333000183105469,3.809000015258789 C-5.184000015258789,4.00600004196167 -5.163000106811523,4.269000053405762 -5.124000072479248,4.513999938964844 C-4.927999973297119,5.736000061035156 -4.091000080108643,6.8379998207092285 -2.9660000801086426,7.354000091552734 C-1.840000033378601,7.870999813079834 -0.45899999141693115,7.788000106811523 0.5960000157356262,7.139999866485596 C1.0190000534057617,6.88100004196167 1.402999997138977,6.5320000648498535 1.8860000371932983,6.416999816894531 C2.2639999389648438,6.327000141143799 2.6570000648498535,6.392000198364258 3.0450000762939453,6.416999816894531z"></path></g></g><g transform="matrix(0.3330000042915344,0,0,0.3330000042915344,-83.1603775024414,-39.874298095703125)" opacity="1" style="display: block;"><g opacity="1" transform="matrix(1,0,0,1,313.0159912109375,134.73599243164062)"><path fill="rgb(239,82,34)" fill-opacity="1" d=" M8.60099983215332,2.1610000133514404 C8.463000297546387,2.013000011444092 8.303000450134277,1.8869999647140503 8.119999885559082,1.7940000295639038 C8.532999992370605,-0.10199999809265137 8.829999923706055,-2.9570000171661377 8.16100025177002,-4.815999984741211 C7.435999870300293,-6.826000213623047 6.196000099182129,-6.781000137329102 4.431000232696533,-7.314000129699707 C3.0199999809265137,-7.73799991607666 1.7949999570846558,-9.119000434875488 0.32600000500679016,-9.270000457763672 C-0.8700000047683716,-9.392000198364258 -3.0510001182556152,-7.800000190734863 -4.107999801635742,-7.160999774932861 C-5.421000003814697,-6.368000030517578 -5.7179999351501465,-5.252999782562256 -6.664000034332275,-4.239999771118164 C-7.244999885559082,-3.61899995803833 -8.70199966430664,-3.118000030517578 -9.017999649047852,-2.3519999980926514 C-9.178000450134277,-1.965000033378601 -9.104000091552734,-1.524999976158142 -9.027000427246094,-1.1119999885559082 C-8.61299991607666,1.1150000095367432 -8.14900016784668,4.053999900817871 -5.623000144958496,4.906000137329102 C-5.328999996185303,5.005000114440918 -4.998000144958496,5.080999851226807 -4.810999870300293,5.328999996185303 C-4.6620001792907715,5.5269999504089355 -4.640999794006348,5.789000034332275 -4.6020002365112305,6.033999919891357 C-4.406000137329102,7.256999969482422 -3.569999933242798,8.357999801635742 -2.444000005722046,8.875 C-1.319000005722046,9.392000198364258 0.06199999898672104,9.307999610900879 1.1180000305175781,8.66100025177002 C1.5390000343322754,8.401000022888184 1.9249999523162842,8.053000450134277 2.4079999923706055,7.938000202178955 C2.7850000858306885,7.8480000495910645 3.178999900817871,7.913000106811523 3.565999984741211,7.936999797821045 C5.370999813079834,8.053999900817871 7.210000038146973,7.230000019073486 8.32699966430664,5.807000160217285 C8.800000190734863,5.203999996185303 9.154000282287598,4.474999904632568 9.168000221252441,3.7090001106262207 C9.178000450134277,3.1470000743865967 8.977999687194824,2.566999912261963 8.60099983215332,2.1610000133514404z"></path></g><g opacity="1" transform="matrix(1,0,0,1,312.9830017089844,137.4340057373047)"><path fill="rgb(193,66,60)" fill-opacity="1" d=" M9.145000457763672,1.4630000591278076 C7.892000198364258,1.6260000467300415 6.593999862670898,1.4429999589920044 5.4670000076293945,0.871999979019165 C3.361999988555908,-0.1940000057220459 1.9609999656677246,-2.5199999809265137 2.003999948501587,-4.880000114440918 C0.07599999755620956,-3.2669999599456787 -2.930999994277954,-3.109999895095825 -5.01800012588501,-4.513000011444092 C-5.829999923706055,-5.058000087738037 -6.4679999351501465,-5.823999881744385 -6.908999919891357,-6.693999767303467 C-7.584000110626221,-6.177999973297119 -8.710000038146973,-5.714000225067139 -8.984999656677246,-5.050000190734863 C-9.145000457763672,-4.663000106811523 -9.071000099182129,-4.2230000495910645 -8.994000434875488,-3.809999942779541 C-8.579999923706055,-1.5829999446868896 -8.116000175476074,1.3559999465942383 -5.590000152587891,2.2079999446868896 C-5.295000076293945,2.306999921798706 -4.964000225067139,2.382999897003174 -4.7779998779296875,2.63100004196167 C-4.629000186920166,2.8289999961853027 -4.607999801635742,3.0910000801086426 -4.568999767303467,3.3359999656677246 C-4.373000144958496,4.559000015258789 -3.5369999408721924,5.659999847412109 -2.4110000133514404,6.177000045776367 C-1.2860000133514404,6.693999767303467 0.0949999988079071,6.610000133514404 1.1510000228881836,5.9629998207092285 C1.5729999542236328,5.703000068664551 1.9579999446868896,5.355000019073486 2.440999984741211,5.239999771118164 C2.818000078201294,5.151000022888184 3.2119998931884766,5.215000152587891 3.5989999771118164,5.238999843597412 C5.4039998054504395,5.355999946594238 7.24399995803833,4.5329999923706055 8.359999656677246,3.1089999675750732 C8.73900032043457,2.627000093460083 9.031999588012695,2.062999963760376 9.145000457763672,1.4630000591278076z"></path></g></g></g></svg>