<svg xmlns="http://www.w3.org/2000/svg" viewBox="0 0 62 26" width="62" height="26" preserveAspectRatio="xMidYMid meet" style="width: 100%; height: 100%; transform: translate3d(0px, 0px, 0px); content-visibility: visible;"><defs><clipPath id="__lottie_element_3267"><rect width="62" height="26" x="0" y="0"></rect></clipPath></defs><g clip-path="url(#__lottie_element_3267)"><g transform="matrix(0.3330000042915344,0,0,0.3330000042915344,-1.1951061487197876,0.534478485584259)" opacity="1" style="display: block;"><g opacity="1" transform="matrix(1,0,0,1,35.37900161743164,28.898000717163086)"><path fill="rgb(77,67,95)" fill-opacity="1" d=" M-26.083999633789062,6.888999938964844 C-21.452999114990234,-2.1710000038146973 -9.791999816894531,-12.975000381469727 23.663999557495117,-12.975000381469727 C23.663999557495117,-12.975000381469727 26.083999633789062,-6.492000102996826 26.083999633789062,-6.492000102996826 C26.083999633789062,-6.492000102996826 -3.4170000553131104,-3.8329999446868896 -3.4170000553131104,-3.8329999446868896 C-3.4170000553131104,-3.8329999446868896 -16.135000228881836,0.3919999897480011 -16.135000228881836,0.3919999897480011 C-16.135000228881836,0.3919999897480011 -26.083999633789062,12.975000381469727 -26.083999633789062,12.975000381469727 C-26.083999633789062,12.975000381469727 -26.083999633789062,6.888999938964844 -26.083999633789062,6.888999938964844z"></path></g><g opacity="1" transform="matrix(1,0,0,1,92.26399993896484,41.87300109863281)"><path fill="rgb(77,67,95)" fill-opacity="1" d=" M69.15799713134766,25.892000198364258 C69.15799713134766,25.892000198364258 41.92499923706055,25.892000198364258 41.92499923706055,25.892000198364258 C41.92499923706055,25.892000198364258 -17.23699951171875,1.4830000400543213 -33.06999969482422,25.892000198364258 C-33.06999969482422,25.892000198364258 -69.15799713134766,25.948999404907227 -69.15799713134766,25.948999404907227 C-69.15799713134766,25.948999404907227 -60.303001403808594,-19.333999633789062 -60.303001403808594,-19.333999633789062 C-60.303001403808594,-19.333999633789062 -30.8799991607666,-12.583000183105469 -30.8799991607666,-12.583000183105469 C-30.8799991607666,-12.583000183105469 12.375,-12.583000183105469 12.375,-12.583000183105469 C12.375,-12.583000183105469 42.07699966430664,-25.948999404907227 42.07699966430664,-25.948999404907227 C42.07699966430664,-25.948999404907227 69.15799713134766,-19.333999633789062 69.15799713134766,-19.333999633789062 C69.15799713134766,-19.333999633789062 69.15799713134766,25.892000198364258 69.15799713134766,25.892000198364258z"></path></g><g opacity="1" transform="matrix(1,0,0,1,161.42100524902344,48.55699920654297)"><path fill="rgb(77,67,95)" fill-opacity="1" d=" M-26.017000198364258,0 C-26.017000198364258,-14.369000434875488 -14.369999885559082,-26.01799964904785 0,-26.01799964904785 C14.369000434875488,-26.01799964904785 26.017000198364258,-14.369000434875488 26.017000198364258,0 C26.017000198364258,14.369000434875488 14.369000434875488,26.01799964904785 0,26.01799964904785 C-14.369999885559082,26.01799964904785 -26.017000198364258,14.369000434875488 -26.017000198364258,0z"></path></g><g opacity="1" transform="matrix(1,0,0,1,159.822998046875,48.555999755859375)"><path fill="rgb(106,189,81)" fill-opacity="1" d=" M-10.949999809265137,0 C-10.949999809265137,-6.047999858856201 -6.047999858856201,-10.949999809265137 0,-10.949999809265137 C6.047999858856201,-10.949999809265137 10.949999809265137,-6.047999858856201 10.949999809265137,0 C10.949999809265137,6.047999858856201 6.047999858856201,10.949999809265137 0,10.949999809265137 C-6.047999858856201,10.949999809265137 -10.949999809265137,6.047999858856201 -10.949999809265137,0z"></path></g><g opacity="1" transform="matrix(1,0,0,1,161.4219970703125,48.555999755859375)"><path stroke-linecap="butt" stroke-linejoin="miter" fill-opacity="0" stroke-miterlimit="10" stroke="rgb(73,194,192)" stroke-opacity="1" stroke-width="5.078" d=" M-19.266000747680664,0 C-19.266000747680664,-10.640999794006348 -10.640000343322754,-19.266000747680664 0,-19.266000747680664 C10.640000343322754,-19.266000747680664 19.266000747680664,-10.640999794006348 19.266000747680664,0 C19.266000747680664,10.640000343322754 10.640000343322754,19.266000747680664 0,19.266000747680664 C-10.640000343322754,19.266000747680664 -19.266000747680664,10.640000343322754 -19.266000747680664,0z"></path></g><g opacity="1" transform="matrix(1,0,0,1,31.961000442504883,48.55699920654297)"><path fill="rgb(77,67,95)" fill-opacity="1" d=" M-26.017000198364258,0 C-26.017000198364258,-14.369000434875488 -14.369999885559082,-26.01799964904785 0,-26.01799964904785 C14.369000434875488,-26.01799964904785 26.017000198364258,-14.369000434875488 26.017000198364258,0 C26.017000198364258,14.369000434875488 14.369000434875488,26.01799964904785 0,26.01799964904785 C-14.369999885559082,26.01799964904785 -26.017000198364258,14.369000434875488 -26.017000198364258,0z"></path></g><g opacity="1" transform="matrix(1,0,0,1,31.961000442504883,48.555999755859375)"><path stroke-linecap="butt" stroke-linejoin="miter" fill-opacity="0" stroke-miterlimit="10" stroke="rgb(73,194,192)" stroke-opacity="1" stroke-width="5.078" d=" M-19.266000747680664,0 C-19.266000747680664,-10.640999794006348 -10.640000343322754,-19.266000747680664 0.0010000000474974513,-19.266000747680664 C10.640999794006348,-19.266000747680664 19.266000747680664,-10.640999794006348 19.266000747680664,0 C19.266000747680664,10.640000343322754 10.640999794006348,19.266000747680664 0.0010000000474974513,19.266000747680664 C-10.640000343322754,19.266000747680664 -19.266000747680664,10.640000343322754 -19.266000747680664,0z"></path></g><g opacity="1" transform="matrix(1,0,0,1,83.74800109863281,16.99799919128418)"><path fill="rgb(77,67,95)" fill-opacity="1" d=" M-7.328999996185303,16.74799919128418 C-14.755000114440918,16.74799919128418 -19.45400047302246,16.018999099731445 -25.06999969482422,13.692000389099121 C-34.74800109863281,9.680999755859375 -31.274999618530273,1.7549999952316284 -22.40399932861328,-2.0759999752044678 C-3.625999927520752,-10.187999725341797 14.729999542236328,-14.541999816894531 34.749000549316406,-16.74799919128418 C34.749000549316406,-16.74799919128418 31.344999313354492,-10.758999824523926 31.344999313354492,-10.758999824523926 C20.415000915527344,-8.756999969482422 5.96999979019165,-5.798999786376953 -5.9679999351501465,1.3350000381469727 C-14.456999778747559,6.409999847412109 -8.307000160217285,12.291999816894531 -0.33399999141693115,12.291999816894531 C5.440000057220459,12.291999816894531 4.488999843597412,15.095999717712402 10.140999794006348,15.095999717712402 C10.140999794006348,15.095999717712402 -7.328999996185303,16.74799919128418 -7.328999996185303,16.74799919128418z"></path></g><g opacity="1" transform="matrix(1,0,0,1,55.882999420166016,20.607999801635742)"><path fill="rgb(77,67,95)" fill-opacity="1" d=" M15.711999893188477,-9.760000228881836 C3.2950000762939453,-5.994999885559082 -1.1019999980926514,-4.684999942779541 -10.456999778747559,-4.684999942779541 C-10.456999778747559,-4.684999942779541 -27.476999282836914,-4.684999942779541 -27.476999282836914,-4.684999942779541 C-27.476999282836914,-4.684999942779541 -27.530000686645508,5.833000183105469 -27.530000686645508,5.833000183105469 C-27.530000686645508,5.833000183105469 -14.079000473022461,6.103000164031982 -1.1430000066757202,11.734999656677246 C-1.1430000066757202,11.734999656677246 8.961000442504883,-2.38100004196167 8.961000442504883,-2.38100004196167 C8.961000442504883,-2.38100004196167 27.530000686645508,-11.734999656677246 27.530000686645508,-11.734999656677246 C27.530000686645508,-11.734999656677246 15.711999893188477,-9.760000228881836 15.711999893188477,-9.760000228881836z"></path></g><g opacity="1" transform="matrix(1,0,0,1,158.00399780273438,28.898000717163086)"><path fill="rgb(77,67,95)" fill-opacity="1" d=" M26.084999084472656,6.888999938964844 C21.45400047302246,-2.1710000038146973 9.791999816894531,-12.975000381469727 -23.663000106811523,-12.975000381469727 C-23.663000106811523,-12.975000381469727 -26.084999084472656,-6.492000102996826 -26.084999084472656,-6.492000102996826 C-26.084999084472656,-6.492000102996826 3.4170000553131104,-3.8329999446868896 3.4170000553131104,-3.8329999446868896 C3.4170000553131104,-3.8329999446868896 16.135000228881836,0.3919999897480011 16.135000228881836,0.3919999897480011 C16.135000228881836,0.3919999897480011 26.084999084472656,12.975000381469727 26.084999084472656,12.975000381469727 C26.084999084472656,12.975000381469727 26.084999084472656,6.888999938964844 26.084999084472656,6.888999938964844z"></path></g><g opacity="1" transform="matrix(1,0,0,1,114.03900146484375,49.93000030517578)"><path fill="rgb(73,194,192)" fill-opacity="1" d=" M1.8489999771118164,-10.197999954223633 C-3.2730000019073486,-12.711999893188477 -11.555999755859375,-14.402000427246094 -20.149999618530273,-16.183000564575195 C-20.149999618530273,-16.183000564575195 -20.149999618530273,-17.836000442504883 -20.149999618530273,-17.836000442504883 C-20.149999618530273,-17.836000442504883 -4.488999843597412,-16.183000564575195 6.177999973297119,-13.230999946594238 C17.68400001525879,-10.04699993133545 20.149999618530273,17.836000442504883 20.149999618530273,17.836000442504883 C20.149999618530273,17.836000442504883 17.166000366210938,16.607999801635742 12.380999565124512,14.982000350952148 C11.225000381469727,6.281000137329102 8.42300033569336,-6.9720001220703125 1.8489999771118164,-10.197999954223633z"></path></g><g opacity="1" transform="matrix(1,0,0,1,33.558998107910156,48.555999755859375)"><path fill="rgb(106,189,81)" fill-opacity="1" d=" M-10.949999809265137,0 C-10.949999809265137,-6.047999858856201 -6.048999786376953,-10.949999809265137 -0.0010000000474974513,-10.949999809265137 C6.046999931335449,-10.949999809265137 10.949999809265137,-6.047999858856201 10.949999809265137,0 C10.949999809265137,6.047999858856201 6.046999931335449,10.949999809265137 -0.0010000000474974513,10.949999809265137 C-6.048999786376953,10.949999809265137 -10.949999809265137,6.047999858856201 -10.949999809265137,0z"></path></g></g><g transform="matrix(0.3330000042915344,0,0,0.3330000042915344,-1.1951061487197876,0.534478485584259)" opacity="1" style="display: none;"><g opacity="1" transform="matrix(1,0,0,1,161.4219970703125,48.555999755859375)"><path stroke-linecap="round" stroke-linejoin="miter" fill-opacity="0" stroke-miterlimit="10" stroke="rgb(114,255,252)" stroke-opacity="1" stroke-width="5.078" d=" M-6.380000114440918,-18.184999465942383 C-4.382999897003174,-18.885000228881836 -2.2360000610351562,-19.266000747680664 0,-19.266000747680664 C8.786999702453613,-19.266000747680664 16.200000762939453,-13.383999824523926 18.516000747680664,-5.3420000076293945"></path></g><g opacity="1" transform="matrix(1,0,0,1,31.961000442504883,48.555999755859375)"><path stroke-linecap="round" stroke-linejoin="miter" fill-opacity="0" stroke-miterlimit="10" stroke="rgb(114,255,252)" stroke-opacity="1" stroke-width="5.078" d=" M-6.379000186920166,-18.184999465942383 C-4.382999897003174,-18.885000228881836 -2.234999895095825,-19.266000747680664 0.0010000000474974513,-19.266000747680664 C8.788000106811523,-19.266000747680664 16.200000762939453,-13.383999824523926 18.516000747680664,-5.3420000076293945"></path></g></g><g transform="matrix(0.3330000042915344,0,0,0.3330000042915344,-1.1951061487197876,0.534478485584259)" opacity="1" style="display: block;"><g opacity="1" transform="matrix(1,0,0,1,114.03900146484375,49.93000030517578)"><path fill="rgb(114,255,252)" fill-opacity="1" d=" M1.8489999771118164,-10.197999954223633 C-3.2730000019073486,-12.711999893188477 -11.555999755859375,-14.402000427246094 -20.149999618530273,-16.183000564575195 C-20.149999618530273,-16.183000564575195 -20.149999618530273,-17.836000442504883 -20.149999618530273,-17.836000442504883 C-20.149999618530273,-17.836000442504883 -4.488999843597412,-16.183000564575195 6.177999973297119,-13.230999946594238 C17.68400001525879,-10.04699993133545 20.149999618530273,17.836000442504883 20.149999618530273,17.836000442504883 C20.149999618530273,17.836000442504883 17.166000366210938,16.607999801635742 12.380999565124512,14.982000350952148 C11.225000381469727,6.281000137329102 8.42300033569336,-6.9720001220703125 1.8489999771118164,-10.197999954223633z"></path><path stroke-linecap="butt" stroke-linejoin="miter" fill-opacity="0" stroke-miterlimit="4" stroke="rgb(115,255,253)" stroke-opacity="1" stroke-width="1.2" d=" M1.8489999771118164,-10.197999954223633 C-3.2730000019073486,-12.711999893188477 -11.555999755859375,-14.402000427246094 -20.149999618530273,-16.183000564575195 C-20.149999618530273,-16.183000564575195 -20.149999618530273,-17.836000442504883 -20.149999618530273,-17.836000442504883 C-20.149999618530273,-17.836000442504883 -4.488999843597412,-16.183000564575195 6.177999973297119,-13.230999946594238 C17.68400001525879,-10.04699993133545 20.149999618530273,17.836000442504883 20.149999618530273,17.836000442504883 C20.149999618530273,17.836000442504883 17.166000366210938,16.607999801635742 12.380999565124512,14.982000350952148 C11.225000381469727,6.281000137329102 8.42300033569336,-6.9720001220703125 1.8489999771118164,-10.197999954223633z"></path></g></g><g transform="matrix(0.3330000042915344,0,0,0.3330000042915344,-1.1951061487197876,0.534478485584259)" opacity="1" style="display: block;"><g opacity="1" transform="matrix(1,0,0,1,161.4219970703125,48.555999755859375)"><path stroke-linecap="round" stroke-linejoin="miter" fill-opacity="0" stroke-miterlimit="10" stroke="rgb(115,255,253)" stroke-opacity="1" stroke-width="6.032816294498123" d=" M-19.266000747680664,0 C-19.266000747680664,-10.640999794006348 -10.640000343322754,-19.266000747680664 0,-19.266000747680664 C10.640000343322754,-19.266000747680664 19.266000747680664,-10.640999794006348 19.266000747680664,0 C19.266000747680664,10.640000343322754 10.640000343322754,19.266000747680664 0,19.266000747680664 C-10.640000343322754,19.266000747680664 -19.266000747680664,10.640000343322754 -19.266000747680664,0z"></path></g><g opacity="1" transform="matrix(1,0,0,1,31.961000442504883,48.555999755859375)"><path stroke-linecap="round" stroke-linejoin="miter" fill-opacity="0" stroke-miterlimit="10" stroke="rgb(115,255,253)" stroke-opacity="1" stroke-width="6.045787518504507" d=" M-19.266000747680664,0 C-19.266000747680664,-10.640999794006348 -10.640000343322754,-19.266000747680664 0.0010000000474974513,-19.266000747680664 C10.640999794006348,-19.266000747680664 19.266000747680664,-10.640999794006348 19.266000747680664,0 C19.266000747680664,10.640000343322754 10.640999794006348,19.266000747680664 0.0010000000474974513,19.266000747680664 C-10.640000343322754,19.266000747680664 -19.266000747680664,10.640000343322754 -19.266000747680664,0z"></path></g></g></g></svg>