<svg xmlns="http://www.w3.org/2000/svg" viewBox="0 0 73 70" width="73" height="70" preserveAspectRatio="xMidYMid meet" style="width: 100%; height: 100%; transform: translate3d(0px, 0px, 0px); content-visibility: visible;"><defs><clipPath id="__lottie_element_911"><rect width="73" height="70" x="0" y="0"></rect></clipPath><mask id="__lottie_element_919" mask-type="alpha"><g transform="matrix(0.33329999446868896,0,0,0.33329999446868896,-56.79066467285156,-19.794517517089844)" opacity="1" style="display: block;"><g opacity="1" transform="matrix(1,0,0,1,280.6659851074219,204.63999938964844)"><path fill="rgb(215,31,53)" fill-opacity="1" d=" M0,-17.266000747680664 C24.159000396728516,-17.266000747680664 46.92399978637695,-22.764999389648438 66.93000030517578,-32.470001220703125 C71.9729995727539,-35.999000549316406 76.68199920654297,-39.9119987487793 81.5009994506836,-43.70500183105469 C81.90499877929688,-44.02399826049805 82.31900024414062,-44.347999572753906 82.80799865722656,-44.5099983215332 C83.85800170898438,-44.86000061035156 84.99800109863281,-44.39400100708008 85.95899963378906,-43.84400177001953 C87.53600311279297,-42.94200134277344 88.96800231933594,-41.7859992980957 90.18399810791016,-40.4370002746582 C90.89099884033203,-39.65299987792969 91.5510025024414,-38.51499938964844 91.01399993896484,-37.606998443603516 C90.72699737548828,-37.12099838256836 90.1729965209961,-36.86800003051758 89.63600158691406,-36.696998596191406 C87.36599731445312,-35.97600173950195 84.78800201416016,-36.297000885009766 82.76499938964844,-37.553001403808594 C82.55899810791016,-37.68000030517578 82.33999633789062,-37.821998596191406 82.0979995727539,-37.80799865722656 C81.9010009765625,-37.797000885009766 81.72899627685547,-37.68299865722656 81.56500244140625,-37.57400131225586 C78.89299774169922,-35.777000427246094 76.18699645996094,39.23099899291992 73.66000366210938,41.25 C72.77899932861328,41.95500183105469 69.53500366210938,43.71699905395508 69.18800354003906,44.82600021362305 C30.833999633789062,62.11000061035156 -18.91699981689453,68.36000061035156 -69.68900299072266,44.82600021362305 C-70.03500366210938,43.71699905395508 -73.27999877929688,41.95500183105469 -74.16100311279297,41.25 C-76.68699645996094,39.23099899291992 -78.89399719238281,-35.777000427246094 -81.56600189208984,-37.57400131225586 C-81.7300033569336,-37.68299865722656 -81.9020004272461,-37.797000885009766 -82.0989990234375,-37.80799865722656 C-82.33999633789062,-37.821998596191406 -82.56099700927734,-37.68000030517578 -82.76599884033203,-37.553001403808594 C-84.78900146484375,-36.297000885009766 -87.36699676513672,-35.97600173950195 -89.63700103759766,-36.696998596191406 C-90.17400360107422,-36.86800003051758 -90.72899627685547,-37.12099838256836 -91.01499938964844,-37.606998443603516 C-91.552001953125,-38.51499938964844 -90.89099884033203,-39.65299987792969 -90.18499755859375,-40.4370002746582 C-88.96800231933594,-41.7859992980957 -87.53500366210938,-42.94200134277344 -85.95800018310547,-43.84400177001953 C-84.99800109863281,-44.39400100708008 -83.85800170898438,-44.86000061035156 -82.80899810791016,-44.5099983215332 C-82.31999969482422,-44.347999572753906 -81.90599822998047,-44.02399826049805 -81.50199890136719,-43.70500183105469 C-76.68299865722656,-39.9119987487793 -71.9739990234375,-35.999000549316406 -66.93199920654297,-32.470001220703125 C-46.92599868774414,-22.764999389648438 -24.158000946044922,-17.266000747680664 0,-17.266000747680664z"></path></g></g></mask></defs><g clip-path="url(#__lottie_element_911)"><g transform="matrix(0.33329999446868896,0,0,0.33329999446868896,-56.79066467285156,-19.794517517089844)" opacity="1" style="display: block;"><g opacity="1" transform="matrix(1,0,0,1,280.1369934082031,164.76699829101562)"><path fill="rgb(126,194,72)" fill-opacity="1" d=" M0,103.72699737548828 C-20.13599967956543,104.0530014038086 -38.25899887084961,89.66699981689453 -53.62300109863281,74.3030014038086 C-53.62300109863281,74.3030014038086 -80.24099731445312,45.0260009765625 -80.24099731445312,45.0260009765625 C-109.83300018310547,11.928999900817871 -107.69100189208984,-3.9630000591278076 -95.44400024414062,-25.923999786376953 C-86.47699737548828,-42.00299835205078 -61.584999084472656,-69.39900207519531 -49.29399871826172,-82.50900268554688 C-39.215999603271484,-93.25900268554688 -25.996999740600586,-100.71800231933594 -11.458000183105469,-103.12000274658203 C-7.724999904632568,-103.73600006103516 -3.9000000953674316,-104.05400085449219 0,-104.05400085449219 C3.8989999294281006,-104.05400085449219 7.723999977111816,-103.73600006103516 11.456999778747559,-103.12000274658203 C25.996000289916992,-100.71800231933594 39.21500015258789,-93.25900268554688 49.292999267578125,-82.50900268554688 C61.58399963378906,-69.39900207519531 86.47699737548828,-42.00299835205078 95.44300079345703,-25.923999786376953 C107.69100189208984,-3.9630000591278076 109.83300018310547,11.928999900817871 80.23999786376953,45.0260009765625 C80.23999786376953,45.0260009765625 53.62300109863281,74.3030014038086 53.62300109863281,74.3030014038086 C38.257999420166016,89.66699981689453 20.13599967956543,104.0530014038086 0,103.72699737548828z"></path></g><g opacity="1" transform="matrix(1,0,0,1,226.6320037841797,90.00199890136719)"><path fill="rgb(237,231,210)" fill-opacity="1" d=" M11.62600040435791,19.04800033569336 C24.513999938964844,10.402000427246094 30.511999130249023,-3.240999937057495 24.805999755859375,-11.744999885559082 C16.159000396728516,-24.632999420166016 -1.2979999780654907,-28.070999145507812 -14.185999870300293,-19.424999237060547 C-27.072999954223633,-10.777999877929688 -30.511999130249023,6.678999900817871 -21.864999771118164,19.566999435424805 C-16.15999984741211,28.070999145507812 -1.2619999647140503,27.69499969482422 11.62600040435791,19.04800033569336z"></path></g><g opacity="1" transform="matrix(1,0,0,1,226.62100219726562,91.47899627685547)"><path fill="rgb(78,67,95)" fill-opacity="1" d=" M7.715000152587891,-5.171000003814697 C4.860000133514404,-9.432000160217285 -0.9100000262260437,-10.569999694824219 -5.171000003814697,-7.715000152587891 C-9.432000160217285,-4.860000133514404 -10.569999694824219,0.9089999794960022 -7.715000152587891,5.169000148773193 C-4.859000205993652,9.430000305175781 0.9089999794960022,10.569000244140625 5.169000148773193,7.7129998207092285 C9.430000305175781,4.857999801635742 10.569999694824219,-0.9110000133514404 7.715000152587891,-5.171000003814697z"></path></g><g opacity="1" transform="matrix(1,0,0,1,227.3249969482422,92.4000015258789)"><path fill="rgb(78,67,95)" fill-opacity="1" d=" M12.873000144958496,-3.4059998989105225 C8.965999603271484,-1.9279999732971191 5.165999889373779,0.00800000037997961 1.5460000038146973,2.434999942779541 C-2.075000047683716,4.861999988555908 -5.309999942779541,7.638999938964844 -8.161999702453613,10.692000389099121 C-9.836000442504883,12.482999801635742 -12.645000457763672,12.57800006866455 -14.435999870300293,10.904999732971191 C-16.22800064086914,9.230999946594238 -16.32200050354004,6.421999931335449 -14.64799976348877,4.63100004196167 C-11.345000267028809,1.093999981880188 -7.590000152587891,-2.13100004196167 -3.3980000019073486,-4.940000057220459 C0.7960000038146973,-7.750999927520752 5.205999851226807,-9.998000144958496 9.732999801635742,-11.710000038146973 C12.026000022888184,-12.57800006866455 14.588000297546387,-11.42199993133545 15.454999923706055,-9.128999710083008 C16.32200050354004,-6.835999965667725 15.166999816894531,-4.2729997634887695 12.873000144958496,-3.4059998989105225z"></path></g><g opacity="1" transform="matrix(1,0,0,1,333.64300537109375,90.00199890136719)"><path fill="rgb(237,231,210)" fill-opacity="1" d=" M-11.62600040435791,19.04800033569336 C-24.513999938964844,10.402000427246094 -30.51099967956543,-3.240999937057495 -24.805999755859375,-11.744999885559082 C-16.159000396728516,-24.632999420166016 1.2970000505447388,-28.070999145507812 14.1850004196167,-19.424999237060547 C27.072999954223633,-10.777999877929688 30.511999130249023,6.678999900817871 21.864999771118164,19.566999435424805 C16.15999984741211,28.070999145507812 1.2619999647140503,27.69499969482422 -11.62600040435791,19.04800033569336z"></path></g><g opacity="1" transform="matrix(1,0,0,1,333.65301513671875,91.47899627685547)"><path fill="rgb(78,67,95)" fill-opacity="1" d=" M-7.715000152587891,-5.171000003814697 C-4.860000133514404,-9.432000160217285 0.9089999794960022,-10.569999694824219 5.170000076293945,-7.715000152587891 C9.430999755859375,-4.860000133514404 10.569000244140625,0.9089999794960022 7.715000152587891,5.169000148773193 C4.859000205993652,9.430000305175781 -0.9100000262260437,10.569000244140625 -5.170000076293945,7.7129998207092285 C-9.430999755859375,4.857999801635742 -10.569000244140625,-0.9110000133514404 -7.715000152587891,-5.171000003814697z"></path></g><g opacity="1" transform="matrix(1,0,0,1,332.9490051269531,92.4000015258789)"><path fill="rgb(78,67,95)" fill-opacity="1" d=" M-12.873000144958496,-3.4059998989105225 C-8.965999603271484,-1.9279999732971191 -5.165999889373779,0.00800000037997961 -1.5460000038146973,2.434999942779541 C2.075000047683716,4.861999988555908 5.309999942779541,7.638999938964844 8.161999702453613,10.692000389099121 C9.836000442504883,12.482999801635742 12.645000457763672,12.57800006866455 14.437000274658203,10.904999732971191 C16.22800064086914,9.230999946594238 16.32200050354004,6.421999931335449 14.64900016784668,4.63100004196167 C11.345000267028809,1.093999981880188 7.590000152587891,-2.13100004196167 3.3980000019073486,-4.940000057220459 C-0.7960000038146973,-7.750999927520752 -5.204999923706055,-9.998000144958496 -9.732000350952148,-11.710000038146973 C-12.026000022888184,-12.57800006866455 -14.588000297546387,-11.42199993133545 -15.454999923706055,-9.128999710083008 C-16.32200050354004,-6.835999965667725 -15.166000366210938,-4.2729997634887695 -12.873000144958496,-3.4059998989105225z"></path></g></g><g mask="url(#__lottie_element_919)" style="display: block;"><g transform="matrix(0.33329999446868896,0,0,0.33329999446868896,-56.79066467285156,-19.794517517089844)" opacity="1"><g opacity="1" transform="matrix(1,0,0,1,280.6659851074219,204.63999938964844)"><path fill="rgb(215,31,53)" fill-opacity="1" d=" M0,-17.266000747680664 C24.159000396728516,-17.266000747680664 46.92399978637695,-22.764999389648438 66.93000030517578,-32.470001220703125 C68.83300018310547,-33.76499938964844 69.78500366210938,-29.033000946044922 69.43800354003906,-27.923999786376953 C57.34299850463867,11.939000129699707 30.52400016784668,44.86000061035156 0,44.86000061035156 C-30.52400016784668,44.86000061035156 -57.34299850463867,11.939000129699707 -69.43900299072266,-27.923999786376953 C-69.78500366210938,-29.033000946044922 -69.66699981689453,-34.38999938964844 -66.93199920654297,-32.470001220703125 C-46.92599868774414,-22.764999389648438 -24.158000946044922,-17.266000747680664 0,-17.266000747680664z"></path></g><g opacity="1" transform="matrix(1,0,0,1,288.3089904785156,195.24099731445312)"><path fill="rgb(139,40,99)" fill-opacity="1" d=" M26.51099967956543,-11.479999542236328 C28.7189998626709,-0.7099999785423279 14.359000205993652,20.634000778198242 0,20.634000778198242 C-13.371000289916992,20.634000778198242 -26.742000579833984,2.127000093460083 -26.73699951171875,-9.116000175476074 C-9.682999610900879,-6.366000175476074 6.065999984741211,-8.241000175476074 26.51099967956543,-11.479999542236328z"></path></g><g opacity="1" transform="matrix(1,0,0,1,280.1369934082031,195.24099731445312)"><path fill="rgb(240,128,177)" fill-opacity="1" d=" M26.690000534057617,-10.237000465393066 C27.652000427246094,0.847000002861023 13.826000213623047,20.634000778198242 0.0010000000474974513,20.634000778198242 C-13.824000358581543,20.634000778198242 -27.650999069213867,0.8500000238418579 -26.690000534057617,-10.234999656677246 C-6.26200008392334,-6.491000175476074 9.73799991607666,-7.116000175476074 26.690000534057617,-10.237000465393066z"></path></g></g></g><g transform="matrix(0.33329999446868896,0,0,0.33329999446868896,-56.79066467285156,-19.794517517089844)" opacity="1" style="display: block;"><g opacity="1" transform="matrix(1,0,0,1,280.6659851074219,204.63999938964844)"><path fill="rgb(215,31,53)" fill-opacity="1" d=" M0,-17.266000747680664 C24.159000396728516,-17.266000747680664 46.92399978637695,-22.764999389648438 66.93000030517578,-32.470001220703125 C71.9729995727539,-35.999000549316406 76.68199920654297,-39.9119987487793 81.5009994506836,-43.70500183105469 C81.90499877929688,-44.02399826049805 82.31900024414062,-44.347999572753906 82.80799865722656,-44.5099983215332 C83.85800170898438,-44.86000061035156 84.99800109863281,-44.39400100708008 85.95899963378906,-43.84400177001953 C87.53600311279297,-42.94200134277344 88.96800231933594,-41.7859992980957 90.18399810791016,-40.4370002746582 C90.89099884033203,-39.65299987792969 91.5510025024414,-38.51499938964844 91.01399993896484,-37.606998443603516 C90.72699737548828,-37.12099838256836 90.1729965209961,-36.86800003051758 89.63600158691406,-36.696998596191406 C87.36599731445312,-35.97600173950195 84.78800201416016,-36.297000885009766 82.76499938964844,-37.553001403808594 C82.55899810791016,-37.68000030517578 82.33999633789062,-37.821998596191406 82.0979995727539,-37.80799865722656 C81.9010009765625,-37.797000885009766 81.72899627685547,-37.68299865722656 81.56500244140625,-37.57400131225586 C78.89299774169922,-35.777000427246094 76.43699645996094,-33.51900100708008 73.91000366210938,-31.5 C73.02899932861328,-30.795000076293945 69.78500366210938,-29.033000946044922 69.43800354003906,-27.923999786376953 C31.083999633789062,-10.640000343322754 -18.66699981689453,-4.389999866485596 -69.43900299072266,-27.923999786376953 C-69.78500366210938,-29.033000946044922 -73.02999877929688,-30.795000076293945 -73.91100311279297,-31.5 C-76.43699645996094,-33.51900100708008 -78.89399719238281,-35.777000427246094 -81.56600189208984,-37.57400131225586 C-81.7300033569336,-37.68299865722656 -81.9020004272461,-37.797000885009766 -82.0989990234375,-37.80799865722656 C-82.33999633789062,-37.821998596191406 -82.56099700927734,-37.68000030517578 -82.76599884033203,-37.553001403808594 C-84.78900146484375,-36.297000885009766 -87.36699676513672,-35.97600173950195 -89.63700103759766,-36.696998596191406 C-90.17400360107422,-36.86800003051758 -90.72899627685547,-37.12099838256836 -91.01499938964844,-37.606998443603516 C-91.552001953125,-38.51499938964844 -90.89099884033203,-39.65299987792969 -90.18499755859375,-40.4370002746582 C-88.96800231933594,-41.7859992980957 -87.53500366210938,-42.94200134277344 -85.95800018310547,-43.84400177001953 C-84.99800109863281,-44.39400100708008 -83.85800170898438,-44.86000061035156 -82.80899810791016,-44.5099983215332 C-82.31999969482422,-44.347999572753906 -81.90599822998047,-44.02399826049805 -81.50199890136719,-43.70500183105469 C-76.68299865722656,-39.9119987487793 -71.9739990234375,-35.999000549316406 -66.93199920654297,-32.470001220703125 C-46.92599868774414,-22.764999389648438 -24.158000946044922,-17.266000747680664 0,-17.266000747680664z"></path></g></g></g></svg>