<svg xmlns="http://www.w3.org/2000/svg" viewBox="0 0 123 79" width="123" height="79" preserveAspectRatio="xMidYMid meet" style="width: 100%; height: 100%; transform: translate3d(0px, 0px, 0px); content-visibility: visible;"><defs><clipPath id="__lottie_element_282"><rect width="123" height="79" x="0" y="0"></rect></clipPath></defs><g clip-path="url(#__lottie_element_282)"><g transform="matrix(-0.029022863134741783,0.331732839345932,-0.331732839345932,-0.029022863134741783,51.01372146606445,64.90825653076172)" opacity="1" style="display: block;"><g opacity="1" transform="matrix(1,0,0,1,20.503999710083008,25.586999893188477)"><path fill="rgb(235,230,204)" fill-opacity="1" d=" M20.253999710083008,3.322000026702881 C20.253999710083008,-10.935999870300293 8.944000244140625,-25.336999893188477 0,-25.336999893188477 C-8.944000244140625,-25.336999893188477 -20.253999710083008,-10.935999870300293 -20.253999710083008,3.322000026702881 C-20.253999710083008,17.579999923706055 -12.72599983215332,25.336999893188477 0,25.336999893188477 C12.725000381469727,25.336999893188477 20.253999710083008,17.579999923706055 20.253999710083008,3.322000026702881z"></path></g></g><g transform="matrix(0.33293020725250244,-0.006817684043198824,0.006817684043198824,0.33293020725250244,60.462257385253906,0.6425081491470337)" opacity="1" style="display: block;"><g opacity="1" transform="matrix(1,0,0,1,48.49700164794922,161.4669952392578)"><path fill="rgb(235,230,204)" fill-opacity="1" d=" M1.444000005722046,-16.106000900268555 C-6.627999782562256,-9.201000213623047 -12.979999542236328,-0.3019999861717224 -16.888999938964844,9.574000358581543 C-17.631999969482422,11.451000213623047 -18.29599952697754,13.41100025177002 -18.26799964904785,15.428999900817871 C-18.23900032043457,17.44700050354004 -17.402000427246094,19.55500030517578 -15.701000213623047,20.642000198364258 C-12.493000030517578,22.691999435424805 -8.324000358581543,20.304000854492188 -5.535999774932861,17.709999084472656 C6.006999969482422,6.96999979019165 12.315999984741211,-8.105999946594238 18.29599952697754,-22.69300079345703 C18.29599952697754,-22.69300079345703 1.444000005722046,-16.106000900268555 1.444000005722046,-16.106000900268555z"></path></g></g><g transform="matrix(0.3329962491989136,-0.0015820626867935061,0.0015820626867935061,0.3329962491989136,61.11134338378906,0.18784698843955994)" opacity="1" style="display: block;"><g opacity="1" transform="matrix(1,0,0,1,35.28099822998047,153.02000427246094)"><path fill="rgb(235,230,204)" fill-opacity="1" d=" M5.114999771118164,-15.87399959564209 C-4.559999942779541,-11.489999771118164 -13.140999794006348,-4.7129998207092285 -19.645999908447266,3.684000015258789 C-20.881999969482422,5.28000020980835 -22.06599998474121,6.9770002365112305 -22.600000381469727,8.92300033569336 C-23.135000228881836,10.869999885559082 -22.917999267578125,13.126999855041504 -21.586999893188477,14.645000457763672 C-19.07699966430664,17.507999420166016 -14.406000137329102,16.374000549316406 -11.005999565124512,14.659000396728516 C3.071000099182129,7.558000087738037 13.32800006866455,-5.1620001792907715 23.135000228881836,-17.507999420166016 C23.135000228881836,-17.507999420166016 5.114999771118164,-15.87399959564209 5.114999771118164,-15.87399959564209z"></path></g></g><g transform="matrix(0.3330000042915344,0,0,0.3330000042915344,61.30885696411133,0.05248443782329559)" opacity="1" style="display: block;"><g opacity="1" transform="matrix(1,0,0,1,26.231000900268555,139.4669952392578)"><path fill="rgb(235,230,204)" fill-opacity="1" d=" M8.081999778747559,-13.380999565124512 C-2.3529999256134033,-11.394000053405762 -12.28499984741211,-6.822000026702881 -20.58099937438965,-0.1889999955892563 C-22.158000946044922,1.0709999799728394 -23.707000732421875,2.443000078201294 -24.68400001525879,4.209000110626221 C-25.66200065612793,5.973999977111816 -25.981000900268555,8.220000267028809 -25.04400062561035,10.008000373840332 C-23.277000427246094,13.380999565124512 -18.472000122070312,13.37600040435791 -14.763999938964844,12.508000373840332 C0.5870000123977661,8.914999961853027 13.54699993133545,-1.0379999876022339 25.981000900268555,-10.732999801635742 C25.981000900268555,-10.732999801635742 8.081999778747559,-13.380999565124512 8.081999778747559,-13.380999565124512z"></path></g></g><g transform="matrix(0.3330000042915344,0,0,0.3330000042915344,60.14336013793945,0.05248443782329559)" opacity="1" style="display: block;"><g opacity="1" transform="matrix(1,0,0,1,96.36900329589844,165.2790069580078)"><path stroke-linecap="butt" stroke-linejoin="miter" fill-opacity="0" stroke-miterlimit="10" stroke="rgb(239,82,34)" stroke-opacity="1" stroke-width="9.695" d=" M7.189000129699707,-16.118000030517578 C0.8309999704360962,-6.165999889373779 -4.0329999923706055,4.73799991607666 -7.189000129699707,16.118000030517578"></path></g><g opacity="1" transform="matrix(1,0,0,1,89.18099975585938,181.3979949951172)"><path fill="rgb(239,82,34)" fill-opacity="1" d=" M9.54800033569336,-0.0010000000474974513 C9.54800033569336,-5.27400016784668 5.271999835968018,-9.54800033569336 -0.0010000000474974513,-9.54800033569336 C-5.27400016784668,-9.54800033569336 -9.54800033569336,-5.27400016784668 -9.54800033569336,-0.0010000000474974513 C-9.54800033569336,5.271999835968018 -5.27400016784668,9.54800033569336 -0.0010000000474974513,9.54800033569336 C5.271999835968018,9.54800033569336 9.54800033569336,5.271999835968018 9.54800033569336,-0.0010000000474974513z"></path></g></g><g transform="matrix(0.3330000042915344,0,0,0.3330000042915344,59.97686004638672,0.05248443782329559)" opacity="1" style="display: block;"><g opacity="1" transform="matrix(1,0,0,1,77.27400207519531,165.2790069580078)"><path stroke-linecap="butt" stroke-linejoin="miter" fill-opacity="0" stroke-miterlimit="10" stroke="rgb(239,82,34)" stroke-opacity="1" stroke-width="9.695" d=" M7.189000129699707,-16.118000030517578 C0.8309999704360962,-6.165999889373779 -4.0329999923706055,4.73799991607666 -7.189000129699707,16.118000030517578"></path></g><g opacity="1" transform="matrix(1,0,0,1,70.08499908447266,181.3979949951172)"><path fill="rgb(239,82,34)" fill-opacity="1" d=" M9.54800033569336,-0.0010000000474974513 C9.54800033569336,-5.27400016784668 5.271999835968018,-9.54800033569336 -0.0010000000474974513,-9.54800033569336 C-5.27400016784668,-9.54800033569336 -9.54800033569336,-5.27400016784668 -9.54800033569336,-0.0010000000474974513 C-9.54800033569336,5.271999835968018 -5.27400016784668,9.54800033569336 -0.0010000000474974513,9.54800033569336 C5.271999835968018,9.54800033569336 9.54800033569336,5.271999835968018 9.54800033569336,-0.0010000000474974513z"></path></g></g><g transform="matrix(0.3330000042915344,0,0,0.3330000042915344,61.30885696411133,0.05248443782329559)" opacity="1" style="display: block;"><g opacity="1" transform="matrix(1,0,0,1,79.02400207519531,123.8219985961914)"><path fill="rgb(77,67,95)" fill-opacity="1" d=" M-24.259000778198242,34.83300018310547 C-41.76900100708008,29.79800033569336 -55.358001708984375,14.604999542236328 -52.125999450683594,-3.9839999675750732 C-49.56999969482422,-18.69099998474121 -37.82899856567383,-28.95800018310547 -24.356000900268555,-33.38999938964844 C-4.376999855041504,-39.96200180053711 18.395999908447266,-38.23500061035156 36.84600067138672,-27.985000610351562 C42.36199951171875,-24.92099952697754 47.64500045776367,-21 50.77299880981445,-15.520000457763672 C55.358001708984375,-7.484000205993652 54.4900016784668,2.9200000762939453 50.04999923706055,11.03600025177002 C45.61000061035156,19.152999877929688 38.04199981689453,25.187999725341797 29.82900047302246,29.447999954223633 C13.354000091552734,37.99399948120117 -6.421000003814697,39.96200180053711 -24.259000778198242,34.83300018310547z"></path></g></g><g transform="matrix(0.3330000042915344,0,0,0.3330000042915344,58.311859130859375,0.05248443782329559)" opacity="1" style="display: block;"><g opacity="1" transform="matrix(1,0,0,1,0,0)"><path stroke-linecap="round" stroke-linejoin="round" fill-opacity="0" stroke="rgb(239,82,34)" stroke-opacity="1" stroke-width="9.695" d=" M85.88899993896484,225.86300659179688 C85.88899993896484,225.86300659179688 130.17999267578125,225.86300659179688 130.17999267578125,225.86300659179688"></path></g></g><g transform="matrix(0.3330000042915344,0,0,0.3330000042915344,59.97686004638672,0.05248443782329559)" opacity="1" style="display: block;"><g opacity="1" transform="matrix(1,0,0,1,96.24800109863281,203.05299377441406)"><path stroke-linecap="butt" stroke-linejoin="miter" fill-opacity="0" stroke-miterlimit="10" stroke="rgb(239,82,34)" stroke-opacity="1" stroke-width="9.695" d=" M-5.708000183105469,-22.809999465942383 C-4.978000164031982,-7.047999858856201 -1.0720000267028809,8.562000274658203 5.708000183105469,22.809999465942383"></path></g></g><g transform="matrix(0.3330000042915344,0,0,0.3330000042915344,59.97686004638672,0.05248443782329559)" opacity="1" style="display: block;"><g opacity="1" transform="matrix(1,0,0,1,0,0)"><path stroke-linecap="round" stroke-linejoin="round" fill-opacity="0" stroke="rgb(239,82,34)" stroke-opacity="1" stroke-width="9.695" d=" M66.79299926757812,225.86300659179688 C66.79299926757812,225.86300659179688 111.08499908447266,225.86300659179688 111.08499908447266,225.86300659179688"></path></g></g><g transform="matrix(0.3330000042915344,0,0,0.3330000042915344,59.97686004638672,0.05248443782329559)" opacity="1" style="display: block;"><g opacity="1" transform="matrix(1,0,0,1,77.15299987792969,203.05299377441406)"><path stroke-linecap="butt" stroke-linejoin="miter" fill-opacity="0" stroke-miterlimit="10" stroke="rgb(239,82,34)" stroke-opacity="1" stroke-width="9.695" d=" M-5.708000183105469,-22.809999465942383 C-4.978000164031982,-7.047999858856201 -1.0720000267028809,8.562000274658203 5.708000183105469,22.809999465942383"></path></g></g><g transform="matrix(0.33073458075523376,-0.0387769415974617,0.0387769415974617,0.33073458075523376,56.65296173095703,3.6420156955718994)" opacity="1" style="display: block;"><g opacity="1" transform="matrix(1,0,0,1,72.0530014038086,134.4320068359375)"><path fill="rgb(235,230,204)" fill-opacity="1" d=" M-10.807999610900879,-15.187999725341797 C-15.496999740600586,-12.769000053405762 -19.67799949645996,-9.369999885559082 -23.003999710083008,-5.27400016784668 C-24.451000213623047,-3.49399995803833 -25.707000732421875,-0.7689999938011169 -24.13599967956543,0.902999997138977 C-23.525999069213867,1.5520000457763672 -22.628999710083008,1.8359999656677246 -21.761999130249023,2.0360000133514404 C-13.545999526977539,3.927999973297119 -5.145999908447266,0.46799999475479126 2.575000047683716,-2.9179999828338623 C-1.6790000200271606,-0.460999995470047 -4.927000045776367,3.683000087738037 -6.296999931335449,8.399999618530273 C-6.684999942779541,9.739999771118164 -6.916999816894531,11.227999687194824 -6.330999851226807,12.494000434875488 C-5.323999881744385,14.67199993133545 -2.4609999656677246,15.187999725341797 -0.06599999964237213,15.03499984741211 C9.873000144958496,14.404000282287598 18.172000885009766,7.565999984741211 25.707000732421875,1.0540000200271606 C25.707000732421875,1.0540000200271606 -10.807999610900879,-15.187999725341797 -10.807999610900879,-15.187999725341797z"></path></g></g><g transform="matrix(0.3330000042915344,0,0,0.3330000042915344,61.30885696411133,0.05248443782329559)" opacity="1" style="display: block;"><g opacity="1" transform="matrix(1,0,0,1,131.81500244140625,76.35099792480469)"><path stroke-linecap="butt" stroke-linejoin="miter" fill-opacity="0" stroke-miterlimit="10" stroke="rgb(240,208,154)" stroke-opacity="1" stroke-width="10" d=" M-1.0290000438690186,-51.35100173950195 C-6.735000133514404,-40.683998107910156 -5.043000221252441,-27.552000045776367 -1.25,-16.06399917602539 C2.5439999103546143,-4.577000141143799 8.284000396728516,6.329999923706055 10.468999862670898,18.229000091552734 C13.711000442504883,35.8849983215332 5.318999767303467,51.66999816894531 -10.694000244140625,52.29800033569336"></path></g><g opacity="1" transform="matrix(1,0,0,1,136.71400451660156,119.15799713134766)"><path fill="rgb(77,67,95)" fill-opacity="1" d=" M-19.371000289916992,-5.053999900817871 C-11.555999755859375,-5.0929999351501465 -1.444000005722046,-9.743000030517578 -1.444000005722046,-25.31800079345703 C-1.444000005722046,-25.31800079345703 12.852999687194824,-25.31800079345703 12.852999687194824,-25.31800079345703 C12.852999687194824,-25.31800079345703 19.371999740600586,-5.892000198364258 14.63700008392334,6.73199987411499 C11.35200023651123,15.48799991607666 4.361999988555908,27.25200080871582 -19.371000289916992,25.31800079345703 C-40.91999816894531,21.80900001525879 -35.44599914550781,-5.835999965667725 -19.371000289916992,-5.053999900817871z"></path></g><g opacity="1" transform="matrix(1,0,0,1,145.0030059814453,34.470001220703125)"><path fill="rgb(240,208,154)" fill-opacity="1" d=" M-21.17300033569336,-17.52199935913086 C-18.996000289916992,-23.163999557495117 -14.779000282287598,-27.183000564575195 -6.840000152587891,-24.76799964904785 C0.8629999756813049,-22.424999237060547 2.4019999504089355,-19.635000228881836 3.6740000247955322,-13.831000328063965 C15.923999786376953,-12.36299991607666 23.009000778198242,-10.592000007629395 23.472000122070312,-7.466000080108643 C23.927000045776367,-4.392000198364258 16.44499969482422,-3.4030001163482666 6.13100004196167,-3.4030001163482666 C0.5139999985694885,-3.4030001163482666 -6.048999786376953,-3.2799999713897705 -9.52299976348877,1.1339999437332153 C-11.3149995803833,3.4110000133514404 -12.451000213623047,5.857999801635742 -12.536999702453613,8.753999710083008 C-12.66100025177002,12.972000122070312 -11.95300006866455,17.650999069213867 -10.442000389099121,22.909000396728516 C-10.178999900817871,23.82200050354004 -15.335000038146973,27.183000564575195 -15.710000038146973,27.034000396728516 C-19.073999404907227,25.701000213623047 -20.26799964904785,23.28700065612793 -21.5310001373291,18.73200035095215 C-23.433000564575195,11.876999855041504 -23.927000045776367,3.002000093460083 -23.8799991607666,-2.0820000171661377 C-23.836999893188477,-6.660999774932861 -23.0310001373291,-12.704000473022461 -21.17300033569336,-17.52199935913086z"></path></g><g opacity="1" transform="matrix(0.28970998525619507,0,0,0.28970998525619507,138.375,21.398000717163086)"><path fill="rgb(77,67,95)" fill-opacity="1" d=" M16,0 C16,0 16,0 16,0 C16,8.830400466918945 8.830400466918945,16 0,16 C0,16 0,16 0,16 C-8.830400466918945,16 -16,8.830400466918945 -16,0 C-16,0 -16,0 -16,0 C-16,-8.830400466918945 -8.830400466918945,-16 0,-16 C0,-16 0,-16 0,-16 C8.830400466918945,-16 16,-8.830400466918945 16,0z"></path></g></g></g></svg>