<svg xmlns="http://www.w3.org/2000/svg" viewBox="0 0 180 262" width="180" height="262" preserveAspectRatio="xMidYMid meet" style="width: 100%; height: 100%; transform: translate3d(0px, 0px, 0px); content-visibility: visible;"><defs><clipPath id="__lottie_element_2114"><rect width="180" height="262" x="0" y="0"></rect></clipPath></defs><g clip-path="url(#__lottie_element_2114)"><g transform="matrix(7,0,0,7,25.81100082397461,16.804000854492188)" opacity="1" style="display: block;"><g opacity="1" transform="matrix(1,0,0,1,4.307000160217285,22.007999420166016)"><path fill="rgb(193,66,60)" fill-opacity="1" d=" M-0.13099999725818634,7.269999980926514 C-0.13099999725818634,7.269999980926514 -1.6740000247955322,7.269999980926514 -1.6740000247955322,7.269999980926514 C-1.6740000247955322,7.269999980926514 0.13199999928474426,-7.269999980926514 0.13199999928474426,-7.269999980926514 C0.13199999928474426,-7.269999980926514 1.6740000247955322,-7.269999980926514 1.6740000247955322,-7.269999980926514 C1.6740000247955322,-7.269999980926514 -0.13099999725818634,7.269999980926514 -0.13099999725818634,7.269999980926514z"></path></g><g opacity="1" transform="matrix(1,0,0,1,13.152999877929688,22.007999420166016)"><path fill="rgb(193,66,60)" fill-opacity="1" d=" M0.13099999725818634,7.269999980926514 C0.13099999725818634,7.269999980926514 1.6740000247955322,7.269999980926514 1.6740000247955322,7.269999980926514 C1.6740000247955322,7.269999980926514 -0.13199999928474426,-7.269999980926514 -0.13199999928474426,-7.269999980926514 C-0.13199999928474426,-7.269999980926514 -1.6740000247955322,-7.269999980926514 -1.6740000247955322,-7.269999980926514 C-1.6740000247955322,-7.269999980926514 0.13099999725818634,7.269999980926514 0.13099999725818634,7.269999980926514z"></path></g><g opacity="1" transform="matrix(1,0,0,1,8.729999542236328,28.733999252319336)"><path fill="rgb(193,66,60)" fill-opacity="1" d=" M8.479999542236328,1.7869999408721924 C8.479999542236328,1.7869999408721924 -8.479999542236328,1.7869999408721924 -8.479999542236328,1.7869999408721924 C-8.479999542236328,1.7869999408721924 -8.479999542236328,-1.7869999408721924 -8.479999542236328,-1.7869999408721924 C-8.479999542236328,-1.7869999408721924 8.479999542236328,-1.7869999408721924 8.479999542236328,-1.7869999408721924 C8.479999542236328,-1.7869999408721924 8.479999542236328,1.7869999408721924 8.479999542236328,1.7869999408721924z"></path></g><g opacity="1" transform="matrix(1,0,0,1,8.729999542236328,16.718000411987305)"><path fill="rgb(193,66,60)" fill-opacity="1" d=" M4.290999889373779,-2.1459999084472656 C4.290999889373779,-2.1459999084472656 -4.290999889373779,-2.1459999084472656 -4.290999889373779,-2.1459999084472656 C-4.290999889373779,-2.1459999084472656 -4.290999889373779,2.1459999084472656 -4.290999889373779,2.1459999084472656 C-4.290999889373779,2.1459999084472656 4.290999889373779,2.1459999084472656 4.290999889373779,2.1459999084472656 C4.290999889373779,2.1459999084472656 4.290999889373779,-2.1459999084472656 4.290999889373779,-2.1459999084472656z"></path></g><g opacity="1" transform="matrix(1,0,0,1,8.729999542236328,14.571999549865723)"><path fill="rgb(255,201,77)" fill-opacity="1" d=" M6.315999984741211,-1.1649999618530273 C6.315999984741211,-1.1649999618530273 -6.315999984741211,-1.1649999618530273 -6.315999984741211,-1.1649999618530273 C-6.956999778747559,-1.1649999618530273 -7.480999946594238,-0.640999972820282 -7.480999946594238,0 C-7.480999946594238,0.640999972820282 -6.956999778747559,1.1649999618530273 -6.315999984741211,1.1649999618530273 C-6.315999984741211,1.1649999618530273 6.315999984741211,1.1649999618530273 6.315999984741211,1.1649999618530273 C6.956999778747559,1.1649999618530273 7.480999946594238,0.640999972820282 7.480999946594238,0 C7.480999946594238,-0.640999972820282 6.956999778747559,-1.1649999618530273 6.315999984741211,-1.1649999618530273z"></path></g><g opacity="1" transform="matrix(1,0,0,1,4.2170000076293945,3.6689999103546143)"><path fill="rgb(230,235,246)" fill-opacity="1" d=" M1.1649999618530273,2.253999948501587 C1.1649999618530273,2.253999948501587 1.1649999618530273,-2.253999948501587 1.1649999618530273,-2.253999948501587 C1.1649999618530273,-2.8940000534057617 0.640999972820282,-3.4189999103546143 0,-3.4189999103546143 C-0.640999972820282,-3.4189999103546143 -1.1649999618530273,-2.8940000534057617 -1.1649999618530273,-2.253999948501587 C-1.1649999618530273,-2.253999948501587 -1.1649999618530273,2.253999948501587 -1.1649999618530273,2.253999948501587 C-1.1649999618530273,2.8949999809265137 -0.640999972820282,3.4189999103546143 0,3.4189999103546143 C0.640999972820282,3.4189999103546143 1.1649999618530273,2.8949999809265137 1.1649999618530273,2.253999948501587z"></path></g><g opacity="1" transform="matrix(1,0,0,1,8.885000228881836,7.4679999351501465)"><path fill="rgb(230,235,246)" fill-opacity="1" d=" M5.834000110626221,0.5809999704360962 C5.834000110626221,-0.8690000176429749 3.3340001106262207,-1.1549999713897705 0.4519999921321869,-1.2100000381469727 C-1.6660000085830688,-1.25 -3.503999948501587,-0.8169999718666077 -3.503999948501587,-2.3929998874664307 C-3.503999948501587,-3.8380000591278076 -5.834000110626221,-2.5 -5.834000110626221,-1.5449999570846558 C-5.834000110626221,1.9259999990463257 -3.9230000972747803,3.8369998931884766 -0.4519999921321869,3.8369998931884766 C3.0190000534057617,3.8369998931884766 5.834000110626221,1.6089999675750732 5.834000110626221,0.5809999704360962z"></path></g><g opacity="1" transform="matrix(1,0,0,1,8.994000434875488,9.121999740600586)"><path stroke-linecap="round" stroke-linejoin="round" fill-opacity="0" stroke="rgb(158,172,182)" stroke-opacity="1" stroke-width="0.722" d=" M-4.0289998054504395,-0.7329999804496765 C-3.4049999713897705,0.3149999976158142 -2.253999948501587,0.8299999833106995 -0.5600000023841858,0.8299999833106995 C1.5360000133514404,0.8299999833106995 3.2780001163482666,-0.15299999713897705 4.0289998054504395,-0.8299999833106995"></path></g><g opacity="1" transform="matrix(1,0,0,1,0,0)"><path stroke-linecap="butt" stroke-linejoin="miter" fill-opacity="0" stroke-miterlimit="10" stroke="rgb(255,201,77)" stroke-opacity="1" stroke-width="1" d=" M8.729999542236328,10.720000267028809 C8.729999542236328,10.720000267028809 8.729999542236328,12.90999984741211 8.729999542236328,12.90999984741211"></path></g><g opacity="1" transform="matrix(1,0,0,1,7.978000164031982,12.876999855041504)"><path fill="rgb(255,201,77)" fill-opacity="1" d=" M2.0350000858306885,0.5299999713897705 C1.5829999446868896,-0.10999999940395355 0.8429999947547913,-0.5299999713897705 -0.0010000000474974513,-0.5299999713897705 C-0.8450000286102295,-0.5299999713897705 -1.5839999914169312,-0.10999999940395355 -2.0350000858306885,0.5299999713897705 C-2.0350000858306885,0.5299999713897705 2.0350000858306885,0.5299999713897705 2.0350000858306885,0.5299999713897705z"></path></g></g><g transform="matrix(1,0,0,1,-1400.5,280)" opacity="1" style="display: block;"><g opacity="1" transform="matrix(1,0,0,1,1456.0550537109375,-247.94500732421875)"><path fill="rgb(50,46,58)" fill-opacity="1" d=" M3.054500102996826,0 C3.054500102996826,0 3.054500102996826,0 3.054500102996826,0 C3.054500102996826,1.6857786178588867 1.6857786178588867,3.054500102996826 0,3.054500102996826 C0,3.054500102996826 0,3.054500102996826 0,3.054500102996826 C-1.6857786178588867,3.054500102996826 -3.054500102996826,1.6857786178588867 -3.054500102996826,0 C-3.054500102996826,0 -3.054500102996826,0 -3.054500102996826,0 C-3.054500102996826,-1.6857786178588867 -1.6857786178588867,-3.054500102996826 0,-3.054500102996826 C0,-3.054500102996826 0,-3.054500102996826 0,-3.054500102996826 C1.6857786178588867,-3.054500102996826 3.054500102996826,-1.6857786178588867 3.054500102996826,0z"></path><path stroke-linecap="butt" stroke-linejoin="miter" fill-opacity="0" stroke-miterlimit="4" stroke="rgb(135,207,214)" stroke-opacity="1" stroke-width="0" d=" M3.054500102996826,0 C3.054500102996826,0 3.054500102996826,0 3.054500102996826,0 C3.054500102996826,1.6857786178588867 1.6857786178588867,3.054500102996826 0,3.054500102996826 C0,3.054500102996826 0,3.054500102996826 0,3.054500102996826 C-1.6857786178588867,3.054500102996826 -3.054500102996826,1.6857786178588867 -3.054500102996826,0 C-3.054500102996826,0 -3.054500102996826,0 -3.054500102996826,0 C-3.054500102996826,-1.6857786178588867 -1.6857786178588867,-3.054500102996826 0,-3.054500102996826 C0,-3.054500102996826 0,-3.054500102996826 0,-3.054500102996826 C1.6857786178588867,-3.054500102996826 3.054500102996826,-1.6857786178588867 3.054500102996826,0z"></path></g></g><g transform="matrix(7.000000953674316,0,0,7.000000476837158,18.69133758544922,34.158935546875)" opacity="1" style="display: block;"><g opacity="1" transform="matrix(1,0,0,1,2.7909998893737793,2.200000047683716)"><path fill="rgb(255,201,77)" fill-opacity="1" d=" M1.6740000247955322,-0.009999999776482582 C1.2879999876022339,-0.057999998331069946 0.8880000114440918,-0.10499999672174454 0.515999972820282,0.00800000037997961 C0.2290000021457672,0.09600000083446503 -0.02800000086426735,0.2750000059604645 -0.3199999928474426,0.3409999907016754 C-0.8870000243186951,0.4699999988079071 -1.5210000276565552,0.09000000357627869 -1.6740000247955322,-0.47099998593330383 C-1.6740000247955322,-0.47099998593330383 1.6740000247955322,-0.47099998593330383 1.6740000247955322,-0.47099998593330383 C1.6740000247955322,-0.47099998593330383 1.6740000247955322,-0.009999999776482582 1.6740000247955322,-0.009999999776482582z"></path></g><g opacity="1" transform="matrix(1,0,0,1,2.3570001125335693,0.30000001192092896)"><path fill="rgb(255,201,77)" fill-opacity="1" d=" M2.1080000400543213,0.012000000104308128 C1.621999979019165,0.07199999690055847 1.1169999837875366,0.13199999928474426 0.6480000019073486,-0.010999999940395355 C0.28700000047683716,-0.12099999934434891 -0.03400000184774399,-0.34599998593330383 -0.4020000100135803,-0.4300000071525574 C-1.1160000562667847,-0.5929999947547913 -1.9160000085830688,-0.11299999803304672 -2.1080000400543213,0.5929999947547913 C-2.1080000400543213,0.5929999947547913 2.1080000400543213,0.5929999947547913 2.1080000400543213,0.5929999947547913 C2.1080000400543213,0.5929999947547913 2.1080000400543213,0.012000000104308128 2.1080000400543213,0.012000000104308128z"></path></g></g></g></svg>