<svg xmlns="http://www.w3.org/2000/svg" viewBox="0 0 33 25" width="33" height="25" preserveAspectRatio="xMidYMid meet" style="width: 100%; height: 100%; transform: translate3d(0px, 0px, 0px); content-visibility: visible;"><defs><clipPath id="__lottie_element_4277"><rect width="33" height="25" x="0" y="0"></rect></clipPath><clipPath id="__lottie_element_4283"><path d="M0,0 L1080,0 L1080,1080 L0,1080z"></path></clipPath><mask id="__lottie_element_4286" mask-type="alpha"><g transform="matrix(0.3333300054073334,0,0,0.3333300054073334,-2.7114744186401367,-5.426154136657715)" opacity="1" style="display: block;"><g opacity="1" transform="matrix(1,0,0,1,57.516998291015625,54.08300018310547)"><path fill="rgb(240,33,97)" fill-opacity="1" d=" M-49.702999114990234,36.58300018310547 C-49.702999114990234,36.58300018310547 49.702999114990234,36.58300018310547 49.702999114990234,36.58300018310547 C49.702999114990234,36.58300018310547 49.702999114990234,-36.58300018310547 49.702999114990234,-36.58300018310547 C49.702999114990234,-36.58300018310547 -49.702999114990234,-36.58300018310547 -49.702999114990234,-36.58300018310547 C-49.702999114990234,-36.58300018310547 -49.702999114990234,36.58300018310547 -49.702999114990234,36.58300018310547z"></path></g></g></mask><clipPath id="__lottie_element_4309"><path d="M0,0 L100,0 L100,100 L0,100z"></path></clipPath><clipPath id="__lottie_element_4313"><path d="M0,0 L100,0 L100,100 L0,100z"></path></clipPath><clipPath id="__lottie_element_4317"><path d="M0,0 L100,0 L100,100 L0,100z"></path></clipPath><clipPath id="__lottie_element_4321"><path d="M0,0 L100,0 L100,100 L0,100z"></path></clipPath><clipPath id="__lottie_element_4325"><path d="M0,0 L100,0 L100,100 L0,100z"></path></clipPath></defs><g clip-path="url(#__lottie_element_4277)"><g transform="matrix(0.3333300054073334,0,0,0.3333300054073334,-2.7114744186401367,-5.426154136657715)" opacity="1" style="display: block;"><g opacity="1" transform="matrix(1,0,0,1,57.516998291015625,54.08300018310547)"><path fill="rgb(79,66,97)" fill-opacity="1" d=" M-49.702999114990234,36.58300018310547 C-49.702999114990234,36.58300018310547 49.702999114990234,36.58300018310547 49.702999114990234,36.58300018310547 C49.702999114990234,36.58300018310547 49.702999114990234,-36.58300018310547 49.702999114990234,-36.58300018310547 C49.702999114990234,-36.58300018310547 -49.702999114990234,-36.58300018310547 -49.702999114990234,-36.58300018310547 C-49.702999114990234,-36.58300018310547 -49.702999114990234,36.58300018310547 -49.702999114990234,36.58300018310547z"></path></g></g><g mask="url(#__lottie_element_4286)" style="display: block;"><g clip-path="url(#__lottie_element_4283)" transform="matrix(0.3333300054073334,0,0,0.3333300054073334,-151.49832153320312,-192.49795532226562)" opacity="1"><g transform="matrix(1,0,0,1,446.364990234375,561.2210083007812)" opacity="1" style="display: block;"><g opacity="1" transform="matrix(1,0,0,1,57.516998291015625,26.388999938964844)"><path fill="rgb(17,128,195)" fill-opacity="1" d=" M49.702999114990234,0.8669999837875366 C49.702999114990234,0.8669999837875366 -49.702999114990234,0.8669999837875366 -49.702999114990234,0.8669999837875366 C-49.702999114990234,0.8669999837875366 -49.702999114990234,-0.8669999837875366 -49.702999114990234,-0.8669999837875366 C-49.702999114990234,-0.8669999837875366 49.702999114990234,-0.8669999837875366 49.702999114990234,-0.8669999837875366 C49.702999114990234,-0.8669999837875366 49.702999114990234,0.8669999837875366 49.702999114990234,0.8669999837875366z"></path></g><g opacity="1" transform="matrix(1,0,0,1,30.96299934387207,40.79899978637695)"><path stroke-linecap="butt" stroke-linejoin="miter" fill-opacity="0" stroke-miterlimit="10" stroke="rgb(146,155,162)" stroke-opacity="1" stroke-width="3" d=" M10.256999969482422,27.038999557495117 C10.256999969482422,27.038999557495117 9.409000396728516,30.392000198364258 9.409000396728516,30.392000198364258 C8.951000213623047,32.202999114990234 7.111000061035156,33.29899978637695 5.300000190734863,32.840999603271484 C5.300000190734863,32.840999603271484 -6.947999954223633,29.746000289916992 -6.947999954223633,29.746000289916992 C-8.892999649047852,29.253999710083008 -10.256999969482422,27.503000259399414 -10.256999969482422,25.496999740600586 C-10.256999969482422,25.496999740600586 -10.256999969482422,-33.29899978637695 -10.256999969482422,-33.29899978637695"></path></g><g opacity="1" transform="matrix(1,0,0,1,84.35800170898438,40.79899978637695)"><path stroke-linecap="butt" stroke-linejoin="miter" fill-opacity="0" stroke-miterlimit="10" stroke="rgb(146,155,162)" stroke-opacity="1" stroke-width="3" d=" M-10.255999565124512,27.038999557495117 C-10.255999565124512,27.038999557495117 -9.409000396728516,30.392000198364258 -9.409000396728516,30.392000198364258 C-8.951000213623047,32.202999114990234 -7.111000061035156,33.29899978637695 -5.300000190734863,32.840999603271484 C-5.300000190734863,32.840999603271484 6.947999954223633,29.746000289916992 6.947999954223633,29.746000289916992 C8.892999649047852,29.253999710083008 10.255999565124512,27.503000259399414 10.255999565124512,25.496999740600586 C10.255999565124512,25.496999740600586 10.255999565124512,-33.29899978637695 10.255999565124512,-33.29899978637695"></path></g><g opacity="1" transform="matrix(1,0,0,1,57.51599884033203,45.11800003051758)"><path fill="rgb(146,155,162)" fill-opacity="1" d=" M29.834999084472656,21.35300064086914 C29.834999084472656,21.35300064086914 9.960000038146973,26.378000259399414 9.960000038146973,26.378000259399414 C6.704999923706055,27.201000213623047 3.359999895095825,27.617000579833984 0.0020000000949949026,27.617000579833984 C-3.3580000400543213,27.617000579833984 -6.704999923706055,27.20199966430664 -9.963000297546387,26.378000259399414 C-9.963000297546387,26.378000259399414 -29.834999084472656,21.35300064086914 -29.834999084472656,21.35300064086914 C-30.889999389648438,21.086000442504883 -31.628999710083008,20.136999130249023 -31.628999710083008,19.048999786376953 C-31.628999710083008,19.048999786376953 -31.628999710083008,-27.617000579833984 -31.628999710083008,-27.617000579833984 C-31.628999710083008,-27.617000579833984 31.628999710083008,-27.617000579833984 31.628999710083008,-27.617000579833984 C31.628999710083008,-27.617000579833984 31.628999710083008,19.048999786376953 31.628999710083008,19.048999786376953 C31.628999710083008,20.136999130249023 30.889999389648438,21.086000442504883 29.834999084472656,21.35300064086914z"></path></g></g><g transform="matrix(1,0,0,1,446.364990234375,561.2219848632812)" opacity="1" style="display: block;"><g opacity="1" transform="matrix(1,0,0,1,57.516998291015625,39.8849983215332)"><path fill="rgb(62,62,58)" fill-opacity="1" d=" M25.2810001373291,18.042999267578125 C25.2810001373291,18.042999267578125 -25.2810001373291,18.042999267578125 -25.2810001373291,18.042999267578125 C-28.288999557495117,18.042999267578125 -30.736000061035156,15.595999717712402 -30.736000061035156,12.586999893188477 C-30.736000061035156,12.586999893188477 -30.736000061035156,-12.588000297546387 -30.736000061035156,-12.588000297546387 C-30.736000061035156,-15.595999717712402 -28.288999557495117,-18.042999267578125 -25.2810001373291,-18.042999267578125 C-25.2810001373291,-18.042999267578125 25.2810001373291,-18.042999267578125 25.2810001373291,-18.042999267578125 C28.288999557495117,-18.042999267578125 30.736000061035156,-15.595999717712402 30.736000061035156,-12.588000297546387 C30.736000061035156,-12.588000297546387 30.736000061035156,12.586999893188477 30.736000061035156,12.586999893188477 C30.736000061035156,15.595999717712402 28.288999557495117,18.042999267578125 25.2810001373291,18.042999267578125z"></path></g><g opacity="1" transform="matrix(1,0,0,1,57.516998291015625,26.388999938964844)"><path fill="rgb(95,95,84)" fill-opacity="1" d=" M-30.733999252319336,0.8669999837875366 C-30.733999252319336,0.8669999837875366 30.733999252319336,0.8669999837875366 30.733999252319336,0.8669999837875366 C30.729000091552734,0.25999999046325684 30.621999740600586,-0.32199999690055847 30.433000564575195,-0.8669999837875366 C30.433000564575195,-0.8669999837875366 -30.43400001525879,-0.8669999837875366 -30.43400001525879,-0.8669999837875366 C-30.621999740600586,-0.32199999690055847 -30.729999542236328,0.25999999046325684 -30.733999252319336,0.8669999837875366z"></path></g></g><g transform="matrix(1,0,0,1,446.364990234375,561.2219848632812)" opacity="1" style="display: block;"><g opacity="1" transform="matrix(1,0,0,1,57.51599884033203,39.8849983215332)"><path stroke-linecap="butt" stroke-linejoin="miter" fill-opacity="0" stroke-miterlimit="10" stroke="rgb(116,121,126)" stroke-opacity="1" stroke-width="1" d=" M-22.557249069213867,-13.80006217956543 C-23.98812484741211,-13.80006217956543 -25.160375595092773,-12.543874740600586 -25.160375595092773,-10.996562957763672 C-25.160375595092773,-10.996562957763672 -25.160375595092773,10.937437057495117 -25.160375595092773,10.937437057495117 C-25.160375595092773,12.478249549865723 -23.98812484741211,13.740249633789062 -22.557249069213867,13.740249633789062 C-22.557249069213867,13.740249633789062 22.720874786376953,13.740249633789062 22.720874786376953,13.740249633789062 C24.154125213623047,13.740249633789062 25.323999404907227,12.478249549865723 25.323999404907227,10.937437057495117 C25.323999404907227,10.937437057495117 25.323999404907227,-10.996562957763672 25.323999404907227,-10.996562957763672 C25.323999404907227,-12.543874740600586 24.154125213623047,-13.80006217956543 22.720874786376953,-13.80006217956543 C22.720874786376953,-13.80006217956543 -22.557249069213867,-13.80006217956543 -22.557249069213867,-13.80006217956543z"></path></g></g><g transform="matrix(1,0,0,1,446.364990234375,561.2219848632812)" opacity="1" style="display: block;"><g opacity="1" transform="matrix(1,0,0,1,57.51599884033203,39.8849983215332)"><path stroke-linecap="butt" stroke-linejoin="miter" fill-opacity="0" stroke-miterlimit="10" stroke="rgb(116,121,126)" stroke-opacity="1" stroke-width="1" d=" M-12.919249534606934,-5.310562610626221 C-13.737125396728516,-5.310562610626221 -14.40737533569336,-4.82687520980835 -14.40737533569336,-4.231062412261963 C-14.40737533569336,-4.231062412261963 -14.40737533569336,4.214937686920166 -14.40737533569336,4.214937686920166 C-14.40737533569336,4.8082499504089355 -13.737125396728516,5.294250011444092 -12.919249534606934,5.294250011444092 C-12.919249534606934,5.294250011444092 12.963874816894531,5.294250011444092 12.963874816894531,5.294250011444092 C13.783124923706055,5.294250011444092 14.45199966430664,4.8082499504089355 14.45199966430664,4.214937686920166 C14.45199966430664,4.214937686920166 14.45199966430664,-4.231062412261963 14.45199966430664,-4.231062412261963 C14.45199966430664,-4.82687520980835 13.783124923706055,-5.310562610626221 12.963874816894531,-5.310562610626221 C12.963874816894531,-5.310562610626221 -12.919249534606934,-5.310562610626221 -12.919249534606934,-5.310562610626221z"></path></g></g><g transform="matrix(1,0,0,1,446.364990234375,561.2219848632812)" opacity="1" style="display: none;"><g opacity="1" transform="matrix(1,0,0,1,57.51599884033203,39.8849983215332)"><path stroke-linecap="butt" stroke-linejoin="miter" fill-opacity="0" stroke-miterlimit="10" stroke="rgb(116,121,126)" stroke-opacity="1" stroke-width="1" d=" M-9.305000305175781,-2.127000093460083 C-9.892999649047852,-2.127000093460083 -10.375,-1.9329999685287476 -10.375,-1.694000005722046 C-10.375,-1.694000005722046 -10.375,1.694000005722046 -10.375,1.694000005722046 C-10.375,1.9320000410079956 -9.892999649047852,2.127000093460083 -9.305000305175781,2.127000093460083 C-9.305000305175781,2.127000093460083 9.305000305175781,2.127000093460083 9.305000305175781,2.127000093460083 C9.894000053405762,2.127000093460083 10.375,1.9320000410079956 10.375,1.694000005722046 C10.375,1.694000005722046 10.375,-1.694000005722046 10.375,-1.694000005722046 C10.375,-1.9329999685287476 9.894000053405762,-2.127000093460083 9.305000305175781,-2.127000093460083 C9.305000305175781,-2.127000093460083 -9.305000305175781,-2.127000093460083 -9.305000305175781,-2.127000093460083z"></path></g></g><g transform="matrix(1,0,0,1,446.364990234375,561.2219848632812)" opacity="1" style="display: none;"><g opacity="1" transform="matrix(1,0,0,1,57.51599884033203,39.8849983215332)"><path stroke-linecap="butt" stroke-linejoin="miter" fill-opacity="0" stroke-miterlimit="10" stroke="rgb(116,121,126)" stroke-opacity="1" stroke-width="1" d=" M-9.305000305175781,-2.127000093460083 C-9.892999649047852,-2.127000093460083 -10.375,-1.9329999685287476 -10.375,-1.694000005722046 C-10.375,-1.694000005722046 -10.375,1.694000005722046 -10.375,1.694000005722046 C-10.375,1.9320000410079956 -9.892999649047852,2.127000093460083 -9.305000305175781,2.127000093460083 C-9.305000305175781,2.127000093460083 9.305000305175781,2.127000093460083 9.305000305175781,2.127000093460083 C9.894000053405762,2.127000093460083 10.375,1.9320000410079956 10.375,1.694000005722046 C10.375,1.694000005722046 10.375,-1.694000005722046 10.375,-1.694000005722046 C10.375,-1.9329999685287476 9.894000053405762,-2.127000093460083 9.305000305175781,-2.127000093460083 C9.305000305175781,-2.127000093460083 -9.305000305175781,-2.127000093460083 -9.305000305175781,-2.127000093460083z"></path></g></g><g transform="matrix(1,0,0,1,446.364990234375,561.2219848632812)" opacity="1" style="display: none;"><g opacity="1" transform="matrix(1,0,0,1,57.51599884033203,39.8849983215332)"><path stroke-linecap="butt" stroke-linejoin="miter" fill-opacity="0" stroke-miterlimit="10" stroke="rgb(116,121,126)" stroke-opacity="1" stroke-width="1" d=" M-9.305000305175781,-2.127000093460083 C-9.892999649047852,-2.127000093460083 -10.375,-1.9329999685287476 -10.375,-1.694000005722046 C-10.375,-1.694000005722046 -10.375,1.694000005722046 -10.375,1.694000005722046 C-10.375,1.9320000410079956 -9.892999649047852,2.127000093460083 -9.305000305175781,2.127000093460083 C-9.305000305175781,2.127000093460083 9.305000305175781,2.127000093460083 9.305000305175781,2.127000093460083 C9.894000053405762,2.127000093460083 10.375,1.9320000410079956 10.375,1.694000005722046 C10.375,1.694000005722046 10.375,-1.694000005722046 10.375,-1.694000005722046 C10.375,-1.9329999685287476 9.894000053405762,-2.127000093460083 9.305000305175781,-2.127000093460083 C9.305000305175781,-2.127000093460083 -9.305000305175781,-2.127000093460083 -9.305000305175781,-2.127000093460083z"></path></g></g><g transform="matrix(1,0,0,1,446.364990234375,561.2219848632812)" opacity="1" style="display: none;"><g opacity="1" transform="matrix(1,0,0,1,57.51599884033203,39.8849983215332)"><path stroke-linecap="butt" stroke-linejoin="miter" fill-opacity="0" stroke-miterlimit="10" stroke="rgb(116,121,126)" stroke-opacity="1" stroke-width="1" d=" M-9.305000305175781,-2.127000093460083 C-9.892999649047852,-2.127000093460083 -10.375,-1.9329999685287476 -10.375,-1.694000005722046 C-10.375,-1.694000005722046 -10.375,1.694000005722046 -10.375,1.694000005722046 C-10.375,1.9320000410079956 -9.892999649047852,2.127000093460083 -9.305000305175781,2.127000093460083 C-9.305000305175781,2.127000093460083 9.305000305175781,2.127000093460083 9.305000305175781,2.127000093460083 C9.894000053405762,2.127000093460083 10.375,1.9320000410079956 10.375,1.694000005722046 C10.375,1.694000005722046 10.375,-1.694000005722046 10.375,-1.694000005722046 C10.375,-1.9329999685287476 9.894000053405762,-2.127000093460083 9.305000305175781,-2.127000093460083 C9.305000305175781,-2.127000093460083 -9.305000305175781,-2.127000093460083 -9.305000305175781,-2.127000093460083z"></path></g></g><g transform="matrix(1,0,0,1,446.364990234375,561.2219848632812)" opacity="1" style="display: none;"><g opacity="1" transform="matrix(1,0,0,1,57.51599884033203,39.8849983215332)"><path stroke-linecap="butt" stroke-linejoin="miter" fill-opacity="0" stroke-miterlimit="10" stroke="rgb(116,121,126)" stroke-opacity="1" stroke-width="1" d=" M-9.305000305175781,-2.127000093460083 C-9.892999649047852,-2.127000093460083 -10.375,-1.9329999685287476 -10.375,-1.694000005722046 C-10.375,-1.694000005722046 -10.375,1.694000005722046 -10.375,1.694000005722046 C-10.375,1.9320000410079956 -9.892999649047852,2.127000093460083 -9.305000305175781,2.127000093460083 C-9.305000305175781,2.127000093460083 9.305000305175781,2.127000093460083 9.305000305175781,2.127000093460083 C9.894000053405762,2.127000093460083 10.375,1.9320000410079956 10.375,1.694000005722046 C10.375,1.694000005722046 10.375,-1.694000005722046 10.375,-1.694000005722046 C10.375,-1.9329999685287476 9.894000053405762,-2.127000093460083 9.305000305175781,-2.127000093460083 C9.305000305175781,-2.127000093460083 -9.305000305175781,-2.127000093460083 -9.305000305175781,-2.127000093460083z"></path></g></g><g transform="matrix(1,0,0,1,1.364990234375,561.2219848632812)" opacity="1" style="display: block;"><g opacity="1" transform="matrix(1,0,0,1,57.516998291015625,29.020000457763672)"><path fill="rgb(160,171,177)" fill-opacity="1" d=" M-1.8969999551773071,2.2179999351501465 C-1.8969999551773071,2.2179999351501465 1.8960000276565552,2.2179999351501465 1.8960000276565552,2.2179999351501465 C3.8329999446868896,2.2179999351501465 5.4039998054504395,0.6480000019073486 5.4039998054504395,-1.2890000343322754 C5.4039998054504395,-1.2890000343322754 5.4039998054504395,-2.2179999351501465 5.4039998054504395,-2.2179999351501465 C5.4039998054504395,-2.2179999351501465 -5.4039998054504395,-2.2179999351501465 -5.4039998054504395,-2.2179999351501465 C-5.4039998054504395,-2.2179999351501465 -5.4039998054504395,-1.2890000343322754 -5.4039998054504395,-1.2890000343322754 C-5.4039998054504395,0.6480000019073486 -3.8340001106262207,2.2179999351501465 -1.8969999551773071,2.2179999351501465z"></path><path stroke-linecap="butt" stroke-linejoin="miter" fill-opacity="0" stroke-miterlimit="10" stroke="rgb(160,171,177)" stroke-opacity="1" stroke-width="1" d=" M-1.8969999551773071,2.2179999351501465 C-1.8969999551773071,2.2179999351501465 1.8960000276565552,2.2179999351501465 1.8960000276565552,2.2179999351501465 C3.8329999446868896,2.2179999351501465 5.4039998054504395,0.6480000019073486 5.4039998054504395,-1.2890000343322754 C5.4039998054504395,-1.2890000343322754 5.4039998054504395,-2.2179999351501465 5.4039998054504395,-2.2179999351501465 C5.4039998054504395,-2.2179999351501465 -5.4039998054504395,-2.2179999351501465 -5.4039998054504395,-2.2179999351501465 C-5.4039998054504395,-2.2179999351501465 -5.4039998054504395,-1.2890000343322754 -5.4039998054504395,-1.2890000343322754 C-5.4039998054504395,0.6480000019073486 -3.8340001106262207,2.2179999351501465 -1.8969999551773071,2.2179999351501465z"></path></g><g opacity="1" transform="matrix(1,0,0,1,107.41699981689453,29.020000457763672)"><path fill="rgb(160,171,177)" fill-opacity="1" d=" M-1.8969999551773071,2.2179999351501465 C-1.8969999551773071,2.2179999351501465 1.8960000276565552,2.2179999351501465 1.8960000276565552,2.2179999351501465 C3.8329999446868896,2.2179999351501465 5.4039998054504395,0.6480000019073486 5.4039998054504395,-1.2890000343322754 C5.4039998054504395,-1.2890000343322754 5.4039998054504395,-2.2179999351501465 5.4039998054504395,-2.2179999351501465 C5.4039998054504395,-2.2179999351501465 -5.4039998054504395,-2.2179999351501465 -5.4039998054504395,-2.2179999351501465 C-5.4039998054504395,-2.2179999351501465 -5.4039998054504395,-1.2890000343322754 -5.4039998054504395,-1.2890000343322754 C-5.4039998054504395,0.6480000019073486 -3.8340001106262207,2.2179999351501465 -1.8969999551773071,2.2179999351501465z"></path><path stroke-linecap="butt" stroke-linejoin="miter" fill-opacity="0" stroke-miterlimit="10" stroke="rgb(160,171,177)" stroke-opacity="1" stroke-width="1" d=" M-1.8969999551773071,2.2179999351501465 C-1.8969999551773071,2.2179999351501465 1.8960000276565552,2.2179999351501465 1.8960000276565552,2.2179999351501465 C3.8329999446868896,2.2179999351501465 5.4039998054504395,0.6480000019073486 5.4039998054504395,-1.2890000343322754 C5.4039998054504395,-1.2890000343322754 5.4039998054504395,-2.2179999351501465 5.4039998054504395,-2.2179999351501465 C5.4039998054504395,-2.2179999351501465 -5.4039998054504395,-2.2179999351501465 -5.4039998054504395,-2.2179999351501465 C-5.4039998054504395,-2.2179999351501465 -5.4039998054504395,-1.2890000343322754 -5.4039998054504395,-1.2890000343322754 C-5.4039998054504395,0.6480000019073486 -3.8340001106262207,2.2179999351501465 -1.8969999551773071,2.2179999351501465z"></path></g><g opacity="1" transform="matrix(1,0,0,1,7.9039998054504395,29.020000457763672)"><path fill="rgb(160,171,177)" fill-opacity="1" d=" M1.8980000019073486,2.2179999351501465 C1.8980000019073486,2.2179999351501465 -1.8960000276565552,2.2179999351501465 -1.8960000276565552,2.2179999351501465 C-3.8329999446868896,2.2179999351501465 -5.4039998054504395,0.6480000019073486 -5.4039998054504395,-1.2890000343322754 C-5.4039998054504395,-1.2890000343322754 -5.4039998054504395,-2.2179999351501465 -5.4039998054504395,-2.2179999351501465 C-5.4039998054504395,-2.2179999351501465 5.4039998054504395,-2.2179999351501465 5.4039998054504395,-2.2179999351501465 C5.4039998054504395,-2.2179999351501465 5.4039998054504395,-1.2890000343322754 5.4039998054504395,-1.2890000343322754 C5.4039998054504395,0.6480000019073486 3.8350000381469727,2.2179999351501465 1.8980000019073486,2.2179999351501465z"></path><path stroke-linecap="butt" stroke-linejoin="miter" fill-opacity="0" stroke-miterlimit="10" stroke="rgb(160,171,177)" stroke-opacity="1" stroke-width="1" d=" M1.8980000019073486,2.2179999351501465 C1.8980000019073486,2.2179999351501465 -1.8960000276565552,2.2179999351501465 -1.8960000276565552,2.2179999351501465 C-3.8329999446868896,2.2179999351501465 -5.4039998054504395,0.6480000019073486 -5.4039998054504395,-1.2890000343322754 C-5.4039998054504395,-1.2890000343322754 -5.4039998054504395,-2.2179999351501465 -5.4039998054504395,-2.2179999351501465 C-5.4039998054504395,-2.2179999351501465 5.4039998054504395,-2.2179999351501465 5.4039998054504395,-2.2179999351501465 C5.4039998054504395,-2.2179999351501465 5.4039998054504395,-1.2890000343322754 5.4039998054504395,-1.2890000343322754 C5.4039998054504395,0.6480000019073486 3.8350000381469727,2.2179999351501465 1.8980000019073486,2.2179999351501465z"></path></g><g opacity="1" transform="matrix(1,0,0,1,206.01699829101562,29.020000457763672)"><path fill="rgb(160,171,177)" fill-opacity="1" d=" M-1.8969999551773071,2.2179999351501465 C-1.8969999551773071,2.2179999351501465 1.8960000276565552,2.2179999351501465 1.8960000276565552,2.2179999351501465 C3.8329999446868896,2.2179999351501465 5.4039998054504395,0.6480000019073486 5.4039998054504395,-1.2890000343322754 C5.4039998054504395,-1.2890000343322754 5.4039998054504395,-2.2179999351501465 5.4039998054504395,-2.2179999351501465 C5.4039998054504395,-2.2179999351501465 -5.4039998054504395,-2.2179999351501465 -5.4039998054504395,-2.2179999351501465 C-5.4039998054504395,-2.2179999351501465 -5.4039998054504395,-1.2890000343322754 -5.4039998054504395,-1.2890000343322754 C-5.4039998054504395,0.6480000019073486 -3.8340001106262207,2.2179999351501465 -1.8969999551773071,2.2179999351501465z"></path><path stroke-linecap="butt" stroke-linejoin="miter" fill-opacity="0" stroke-miterlimit="10" stroke="rgb(160,171,177)" stroke-opacity="1" stroke-width="1" d=" M-1.8969999551773071,2.2179999351501465 C-1.8969999551773071,2.2179999351501465 1.8960000276565552,2.2179999351501465 1.8960000276565552,2.2179999351501465 C3.8329999446868896,2.2179999351501465 5.4039998054504395,0.6480000019073486 5.4039998054504395,-1.2890000343322754 C5.4039998054504395,-1.2890000343322754 5.4039998054504395,-2.2179999351501465 5.4039998054504395,-2.2179999351501465 C5.4039998054504395,-2.2179999351501465 -5.4039998054504395,-2.2179999351501465 -5.4039998054504395,-2.2179999351501465 C-5.4039998054504395,-2.2179999351501465 -5.4039998054504395,-1.2890000343322754 -5.4039998054504395,-1.2890000343322754 C-5.4039998054504395,0.6480000019073486 -3.8340001106262207,2.2179999351501465 -1.8969999551773071,2.2179999351501465z"></path></g><g opacity="1" transform="matrix(1,0,0,1,255.91700744628906,29.020000457763672)"><path fill="rgb(160,171,177)" fill-opacity="1" d=" M-1.8969999551773071,2.2179999351501465 C-1.8969999551773071,2.2179999351501465 1.8960000276565552,2.2179999351501465 1.8960000276565552,2.2179999351501465 C3.8329999446868896,2.2179999351501465 5.4039998054504395,0.6480000019073486 5.4039998054504395,-1.2890000343322754 C5.4039998054504395,-1.2890000343322754 5.4039998054504395,-2.2179999351501465 5.4039998054504395,-2.2179999351501465 C5.4039998054504395,-2.2179999351501465 -5.4039998054504395,-2.2179999351501465 -5.4039998054504395,-2.2179999351501465 C-5.4039998054504395,-2.2179999351501465 -5.4039998054504395,-1.2890000343322754 -5.4039998054504395,-1.2890000343322754 C-5.4039998054504395,0.6480000019073486 -3.8340001106262207,2.2179999351501465 -1.8969999551773071,2.2179999351501465z"></path><path stroke-linecap="butt" stroke-linejoin="miter" fill-opacity="0" stroke-miterlimit="10" stroke="rgb(160,171,177)" stroke-opacity="1" stroke-width="1" d=" M-1.8969999551773071,2.2179999351501465 C-1.8969999551773071,2.2179999351501465 1.8960000276565552,2.2179999351501465 1.8960000276565552,2.2179999351501465 C3.8329999446868896,2.2179999351501465 5.4039998054504395,0.6480000019073486 5.4039998054504395,-1.2890000343322754 C5.4039998054504395,-1.2890000343322754 5.4039998054504395,-2.2179999351501465 5.4039998054504395,-2.2179999351501465 C5.4039998054504395,-2.2179999351501465 -5.4039998054504395,-2.2179999351501465 -5.4039998054504395,-2.2179999351501465 C-5.4039998054504395,-2.2179999351501465 -5.4039998054504395,-1.2890000343322754 -5.4039998054504395,-1.2890000343322754 C-5.4039998054504395,0.6480000019073486 -3.8340001106262207,2.2179999351501465 -1.8969999551773071,2.2179999351501465z"></path></g><g opacity="1" transform="matrix(1,0,0,1,156.4040069580078,29.020000457763672)"><path fill="rgb(160,171,177)" fill-opacity="1" d=" M1.8980000019073486,2.2179999351501465 C1.8980000019073486,2.2179999351501465 -1.8960000276565552,2.2179999351501465 -1.8960000276565552,2.2179999351501465 C-3.8329999446868896,2.2179999351501465 -5.4039998054504395,0.6480000019073486 -5.4039998054504395,-1.2890000343322754 C-5.4039998054504395,-1.2890000343322754 -5.4039998054504395,-2.2179999351501465 -5.4039998054504395,-2.2179999351501465 C-5.4039998054504395,-2.2179999351501465 5.4039998054504395,-2.2179999351501465 5.4039998054504395,-2.2179999351501465 C5.4039998054504395,-2.2179999351501465 5.4039998054504395,-1.2890000343322754 5.4039998054504395,-1.2890000343322754 C5.4039998054504395,0.6480000019073486 3.8350000381469727,2.2179999351501465 1.8980000019073486,2.2179999351501465z"></path><path stroke-linecap="butt" stroke-linejoin="miter" fill-opacity="0" stroke-miterlimit="10" stroke="rgb(160,171,177)" stroke-opacity="1" stroke-width="1" d=" M1.8980000019073486,2.2179999351501465 C1.8980000019073486,2.2179999351501465 -1.8960000276565552,2.2179999351501465 -1.8960000276565552,2.2179999351501465 C-3.8329999446868896,2.2179999351501465 -5.4039998054504395,0.6480000019073486 -5.4039998054504395,-1.2890000343322754 C-5.4039998054504395,-1.2890000343322754 -5.4039998054504395,-2.2179999351501465 -5.4039998054504395,-2.2179999351501465 C-5.4039998054504395,-2.2179999351501465 5.4039998054504395,-2.2179999351501465 5.4039998054504395,-2.2179999351501465 C5.4039998054504395,-2.2179999351501465 5.4039998054504395,-1.2890000343322754 5.4039998054504395,-1.2890000343322754 C5.4039998054504395,0.6480000019073486 3.8350000381469727,2.2179999351501465 1.8980000019073486,2.2179999351501465z"></path></g><g opacity="1" transform="matrix(1,0,0,1,355.8919982910156,29.020000457763672)"><path fill="rgb(160,171,177)" fill-opacity="1" d=" M-1.8969999551773071,2.2179999351501465 C-1.8969999551773071,2.2179999351501465 1.8960000276565552,2.2179999351501465 1.8960000276565552,2.2179999351501465 C3.8329999446868896,2.2179999351501465 5.4039998054504395,0.6480000019073486 5.4039998054504395,-1.2890000343322754 C5.4039998054504395,-1.2890000343322754 5.4039998054504395,-2.2179999351501465 5.4039998054504395,-2.2179999351501465 C5.4039998054504395,-2.2179999351501465 -5.4039998054504395,-2.2179999351501465 -5.4039998054504395,-2.2179999351501465 C-5.4039998054504395,-2.2179999351501465 -5.4039998054504395,-1.2890000343322754 -5.4039998054504395,-1.2890000343322754 C-5.4039998054504395,0.6480000019073486 -3.8340001106262207,2.2179999351501465 -1.8969999551773071,2.2179999351501465z"></path><path stroke-linecap="butt" stroke-linejoin="miter" fill-opacity="0" stroke-miterlimit="10" stroke="rgb(160,171,177)" stroke-opacity="1" stroke-width="1" d=" M-1.8969999551773071,2.2179999351501465 C-1.8969999551773071,2.2179999351501465 1.8960000276565552,2.2179999351501465 1.8960000276565552,2.2179999351501465 C3.8329999446868896,2.2179999351501465 5.4039998054504395,0.6480000019073486 5.4039998054504395,-1.2890000343322754 C5.4039998054504395,-1.2890000343322754 5.4039998054504395,-2.2179999351501465 5.4039998054504395,-2.2179999351501465 C5.4039998054504395,-2.2179999351501465 -5.4039998054504395,-2.2179999351501465 -5.4039998054504395,-2.2179999351501465 C-5.4039998054504395,-2.2179999351501465 -5.4039998054504395,-1.2890000343322754 -5.4039998054504395,-1.2890000343322754 C-5.4039998054504395,0.6480000019073486 -3.8340001106262207,2.2179999351501465 -1.8969999551773071,2.2179999351501465z"></path></g><g opacity="1" transform="matrix(1,0,0,1,404.5419921875,29.020000457763672)"><path fill="rgb(160,171,177)" fill-opacity="1" d=" M-1.8969999551773071,2.2179999351501465 C-1.8969999551773071,2.2179999351501465 1.8960000276565552,2.2179999351501465 1.8960000276565552,2.2179999351501465 C3.8329999446868896,2.2179999351501465 5.4039998054504395,0.6480000019073486 5.4039998054504395,-1.2890000343322754 C5.4039998054504395,-1.2890000343322754 5.4039998054504395,-2.2179999351501465 5.4039998054504395,-2.2179999351501465 C5.4039998054504395,-2.2179999351501465 -5.4039998054504395,-2.2179999351501465 -5.4039998054504395,-2.2179999351501465 C-5.4039998054504395,-2.2179999351501465 -5.4039998054504395,-1.2890000343322754 -5.4039998054504395,-1.2890000343322754 C-5.4039998054504395,0.6480000019073486 -3.8340001106262207,2.2179999351501465 -1.8969999551773071,2.2179999351501465z"></path><path stroke-linecap="butt" stroke-linejoin="miter" fill-opacity="0" stroke-miterlimit="10" stroke="rgb(160,171,177)" stroke-opacity="1" stroke-width="1" d=" M-1.8969999551773071,2.2179999351501465 C-1.8969999551773071,2.2179999351501465 1.8960000276565552,2.2179999351501465 1.8960000276565552,2.2179999351501465 C3.8329999446868896,2.2179999351501465 5.4039998054504395,0.6480000019073486 5.4039998054504395,-1.2890000343322754 C5.4039998054504395,-1.2890000343322754 5.4039998054504395,-2.2179999351501465 5.4039998054504395,-2.2179999351501465 C5.4039998054504395,-2.2179999351501465 -5.4039998054504395,-2.2179999351501465 -5.4039998054504395,-2.2179999351501465 C-5.4039998054504395,-2.2179999351501465 -5.4039998054504395,-1.2890000343322754 -5.4039998054504395,-1.2890000343322754 C-5.4039998054504395,0.6480000019073486 -3.8340001106262207,2.2179999351501465 -1.8969999551773071,2.2179999351501465z"></path></g><g opacity="1" transform="matrix(1,0,0,1,304.90399169921875,29.020000457763672)"><path fill="rgb(160,171,177)" fill-opacity="1" d=" M1.8980000019073486,2.2179999351501465 C1.8980000019073486,2.2179999351501465 -1.8960000276565552,2.2179999351501465 -1.8960000276565552,2.2179999351501465 C-3.8329999446868896,2.2179999351501465 -5.4039998054504395,0.6480000019073486 -5.4039998054504395,-1.2890000343322754 C-5.4039998054504395,-1.2890000343322754 -5.4039998054504395,-2.2179999351501465 -5.4039998054504395,-2.2179999351501465 C-5.4039998054504395,-2.2179999351501465 5.4039998054504395,-2.2179999351501465 5.4039998054504395,-2.2179999351501465 C5.4039998054504395,-2.2179999351501465 5.4039998054504395,-1.2890000343322754 5.4039998054504395,-1.2890000343322754 C5.4039998054504395,0.6480000019073486 3.8350000381469727,2.2179999351501465 1.8980000019073486,2.2179999351501465z"></path><path stroke-linecap="butt" stroke-linejoin="miter" fill-opacity="0" stroke-miterlimit="10" stroke="rgb(160,171,177)" stroke-opacity="1" stroke-width="1" d=" M1.8980000019073486,2.2179999351501465 C1.8980000019073486,2.2179999351501465 -1.8960000276565552,2.2179999351501465 -1.8960000276565552,2.2179999351501465 C-3.8329999446868896,2.2179999351501465 -5.4039998054504395,0.6480000019073486 -5.4039998054504395,-1.2890000343322754 C-5.4039998054504395,-1.2890000343322754 -5.4039998054504395,-2.2179999351501465 -5.4039998054504395,-2.2179999351501465 C-5.4039998054504395,-2.2179999351501465 5.4039998054504395,-2.2179999351501465 5.4039998054504395,-2.2179999351501465 C5.4039998054504395,-2.2179999351501465 5.4039998054504395,-1.2890000343322754 5.4039998054504395,-1.2890000343322754 C5.4039998054504395,0.6480000019073486 3.8350000381469727,2.2179999351501465 1.8980000019073486,2.2179999351501465z"></path></g><g opacity="1" transform="matrix(1,0,0,1,503.0169982910156,29.020000457763672)"><path fill="rgb(160,171,177)" fill-opacity="1" d=" M-1.8969999551773071,2.2179999351501465 C-1.8969999551773071,2.2179999351501465 1.8960000276565552,2.2179999351501465 1.8960000276565552,2.2179999351501465 C3.8329999446868896,2.2179999351501465 5.4039998054504395,0.6480000019073486 5.4039998054504395,-1.2890000343322754 C5.4039998054504395,-1.2890000343322754 5.4039998054504395,-2.2179999351501465 5.4039998054504395,-2.2179999351501465 C5.4039998054504395,-2.2179999351501465 -5.4039998054504395,-2.2179999351501465 -5.4039998054504395,-2.2179999351501465 C-5.4039998054504395,-2.2179999351501465 -5.4039998054504395,-1.2890000343322754 -5.4039998054504395,-1.2890000343322754 C-5.4039998054504395,0.6480000019073486 -3.8340001106262207,2.2179999351501465 -1.8969999551773071,2.2179999351501465z"></path><path stroke-linecap="butt" stroke-linejoin="miter" fill-opacity="0" stroke-miterlimit="10" stroke="rgb(160,171,177)" stroke-opacity="1" stroke-width="1" d=" M-1.8969999551773071,2.2179999351501465 C-1.8969999551773071,2.2179999351501465 1.8960000276565552,2.2179999351501465 1.8960000276565552,2.2179999351501465 C3.8329999446868896,2.2179999351501465 5.4039998054504395,0.6480000019073486 5.4039998054504395,-1.2890000343322754 C5.4039998054504395,-1.2890000343322754 5.4039998054504395,-2.2179999351501465 5.4039998054504395,-2.2179999351501465 C5.4039998054504395,-2.2179999351501465 -5.4039998054504395,-2.2179999351501465 -5.4039998054504395,-2.2179999351501465 C-5.4039998054504395,-2.2179999351501465 -5.4039998054504395,-1.2890000343322754 -5.4039998054504395,-1.2890000343322754 C-5.4039998054504395,0.6480000019073486 -3.8340001106262207,2.2179999351501465 -1.8969999551773071,2.2179999351501465z"></path></g><g opacity="1" transform="matrix(1,0,0,1,552.9169921875,29.020000457763672)"><path fill="rgb(160,171,177)" fill-opacity="1" d=" M-1.8969999551773071,2.2179999351501465 C-1.8969999551773071,2.2179999351501465 1.8960000276565552,2.2179999351501465 1.8960000276565552,2.2179999351501465 C3.8329999446868896,2.2179999351501465 5.4039998054504395,0.6480000019073486 5.4039998054504395,-1.2890000343322754 C5.4039998054504395,-1.2890000343322754 5.4039998054504395,-2.2179999351501465 5.4039998054504395,-2.2179999351501465 C5.4039998054504395,-2.2179999351501465 -5.4039998054504395,-2.2179999351501465 -5.4039998054504395,-2.2179999351501465 C-5.4039998054504395,-2.2179999351501465 -5.4039998054504395,-1.2890000343322754 -5.4039998054504395,-1.2890000343322754 C-5.4039998054504395,0.6480000019073486 -3.8340001106262207,2.2179999351501465 -1.8969999551773071,2.2179999351501465z"></path><path stroke-linecap="butt" stroke-linejoin="miter" fill-opacity="0" stroke-miterlimit="10" stroke="rgb(160,171,177)" stroke-opacity="1" stroke-width="1" d=" M-1.8969999551773071,2.2179999351501465 C-1.8969999551773071,2.2179999351501465 1.8960000276565552,2.2179999351501465 1.8960000276565552,2.2179999351501465 C3.8329999446868896,2.2179999351501465 5.4039998054504395,0.6480000019073486 5.4039998054504395,-1.2890000343322754 C5.4039998054504395,-1.2890000343322754 5.4039998054504395,-2.2179999351501465 5.4039998054504395,-2.2179999351501465 C5.4039998054504395,-2.2179999351501465 -5.4039998054504395,-2.2179999351501465 -5.4039998054504395,-2.2179999351501465 C-5.4039998054504395,-2.2179999351501465 -5.4039998054504395,-1.2890000343322754 -5.4039998054504395,-1.2890000343322754 C-5.4039998054504395,0.6480000019073486 -3.8340001106262207,2.2179999351501465 -1.8969999551773071,2.2179999351501465z"></path></g><g opacity="1" transform="matrix(1,0,0,1,454.406005859375,29.038999557495117)"><path fill="rgb(160,171,177)" fill-opacity="1" d=" M1.8980000019073486,2.2179999351501465 C1.8980000019073486,2.2179999351501465 -1.8960000276565552,2.2179999351501465 -1.8960000276565552,2.2179999351501465 C-3.8329999446868896,2.2179999351501465 -5.4039998054504395,0.6480000019073486 -5.4039998054504395,-1.2890000343322754 C-5.4039998054504395,-1.2890000343322754 -5.4039998054504395,-2.2179999351501465 -5.4039998054504395,-2.2179999351501465 C-5.4039998054504395,-2.2179999351501465 5.4039998054504395,-2.2179999351501465 5.4039998054504395,-2.2179999351501465 C5.4039998054504395,-2.2179999351501465 5.4039998054504395,-1.2890000343322754 5.4039998054504395,-1.2890000343322754 C5.4039998054504395,0.6480000019073486 3.8350000381469727,2.2179999351501465 1.8980000019073486,2.2179999351501465z"></path><path stroke-linecap="butt" stroke-linejoin="miter" fill-opacity="0" stroke-miterlimit="10" stroke="rgb(160,171,177)" stroke-opacity="1" stroke-width="1" d=" M1.8980000019073486,2.2179999351501465 C1.8980000019073486,2.2179999351501465 -1.8960000276565552,2.2179999351501465 -1.8960000276565552,2.2179999351501465 C-3.8329999446868896,2.2179999351501465 -5.4039998054504395,0.6480000019073486 -5.4039998054504395,-1.2890000343322754 C-5.4039998054504395,-1.2890000343322754 -5.4039998054504395,-2.2179999351501465 -5.4039998054504395,-2.2179999351501465 C-5.4039998054504395,-2.2179999351501465 5.4039998054504395,-2.2179999351501465 5.4039998054504395,-2.2179999351501465 C5.4039998054504395,-2.2179999351501465 5.4039998054504395,-1.2890000343322754 5.4039998054504395,-1.2890000343322754 C5.4039998054504395,0.6480000019073486 3.8350000381469727,2.2179999351501465 1.8980000019073486,2.2179999351501465z"></path></g></g><g clip-path="url(#__lottie_element_4309)" transform="matrix(1,0,0,1,307.375,547.3759765625)" opacity="1" style="display: block;"><g transform="matrix(1,0,0,1,-7.256000518798828,8.433998107910156)" opacity="1" style="display: block;"><g opacity="1" transform="matrix(1,0,0,1,57.25600051879883,41.29800033569336)"><path stroke-linecap="round" stroke-linejoin="round" fill-opacity="0" stroke="rgb(214,124,42)" stroke-opacity="1" stroke-width="2" d=" M-7.704999923706055,3.055999994277954 C-7.354000091552734,2.055999994277954 -4.955999851226807,1.4450000524520874 -1.774999976158142,0.2669999897480011 C1.503000020980835,-0.9470000267028809 1.9459999799728394,-4.739999771118164 -1.7860000133514404,-5.928999900817871 C-4.084000110626221,-6.660999774932861 -6.982999801635742,-5.288000106811523 -7.531000137329102,-2.6510000228881836 C-8.567999839782715,2.3489999771118164 -4.456999778747559,6.659999847412109 0,6.659999847412109 C4.458000183105469,6.659999847412109 8.567999839782715,2.3489999771118164 7.531000137329102,-2.6510000228881836 C6.984000205993652,-5.288000106811523 4.085000038146973,-6.660999774932861 1.7860000133514404,-5.928999900817871 C-1.9459999799728394,-4.739999771118164 -1.503000020980835,-0.9470000267028809 1.774999976158142,0.2669999897480011 C4.956999778747559,1.4450000524520874 7.355000019073486,2.055999994277954 7.705999851226807,3.055999994277954"></path></g></g></g><g clip-path="url(#__lottie_element_4313)" transform="matrix(1,0,0,1,355.75,547.3759765625)" opacity="1" style="display: block;"><g transform="matrix(1,0,0,1,-7.256000518798828,8.433998107910156)" opacity="1" style="display: block;"><g opacity="1" transform="matrix(1,0,0,1,57.25600051879883,41.29800033569336)"><path stroke-linecap="round" stroke-linejoin="round" fill-opacity="0" stroke="rgb(214,124,42)" stroke-opacity="1" stroke-width="2" d=" M-7.704999923706055,3.055999994277954 C-7.354000091552734,2.055999994277954 -4.955999851226807,1.4450000524520874 -1.774999976158142,0.2669999897480011 C1.503000020980835,-0.9470000267028809 1.9459999799728394,-4.739999771118164 -1.7860000133514404,-5.928999900817871 C-4.084000110626221,-6.660999774932861 -6.982999801635742,-5.288000106811523 -7.531000137329102,-2.6510000228881836 C-8.567999839782715,2.3489999771118164 -4.456999778747559,6.659999847412109 0,6.659999847412109 C4.458000183105469,6.659999847412109 8.567999839782715,2.3489999771118164 7.531000137329102,-2.6510000228881836 C6.984000205993652,-5.288000106811523 4.085000038146973,-6.660999774932861 1.7860000133514404,-5.928999900817871 C-1.9459999799728394,-4.739999771118164 -1.503000020980835,-0.9470000267028809 1.774999976158142,0.2669999897480011 C4.956999778747559,1.4450000524520874 7.355000019073486,2.055999994277954 7.705999851226807,3.055999994277954"></path></g></g></g><g clip-path="url(#__lottie_element_4317)" transform="matrix(1,0,0,1,405.875,547.3759765625)" opacity="1" style="display: block;"><g transform="matrix(1,0,0,1,-7.256000518798828,8.433998107910156)" opacity="1" style="display: block;"><g opacity="1" transform="matrix(1,0,0,1,57.25600051879883,41.29800033569336)"><path stroke-linecap="round" stroke-linejoin="round" fill-opacity="0" stroke="rgb(214,124,42)" stroke-opacity="1" stroke-width="2" d=" M-7.704999923706055,3.055999994277954 C-7.354000091552734,2.055999994277954 -4.955999851226807,1.4450000524520874 -1.774999976158142,0.2669999897480011 C1.503000020980835,-0.9470000267028809 1.9459999799728394,-4.739999771118164 -1.7860000133514404,-5.928999900817871 C-4.084000110626221,-6.660999774932861 -6.982999801635742,-5.288000106811523 -7.531000137329102,-2.6510000228881836 C-8.567999839782715,2.3489999771118164 -4.456999778747559,6.659999847412109 0,6.659999847412109 C4.458000183105469,6.659999847412109 8.567999839782715,2.3489999771118164 7.531000137329102,-2.6510000228881836 C6.984000205993652,-5.288000106811523 4.085000038146973,-6.660999774932861 1.7860000133514404,-5.928999900817871 C-1.9459999799728394,-4.739999771118164 -1.503000020980835,-0.9470000267028809 1.774999976158142,0.2669999897480011 C4.956999778747559,1.4450000524520874 7.355000019073486,2.055999994277954 7.705999851226807,3.055999994277954"></path></g></g></g><g clip-path="url(#__lottie_element_4321)" transform="matrix(1,0,0,1,454.25,547.3759765625)" opacity="1" style="display: block;"><g transform="matrix(2,0,0,2,-64.63700103759766,-26.882003784179688)" opacity="1" style="display: block;"><g opacity="1" transform="matrix(1,0,0,1,57.25600051879883,41.29800033569336)"><path stroke-linecap="round" stroke-linejoin="round" fill-opacity="0" stroke="rgb(214,124,42)" stroke-opacity="1" stroke-width="2" d=" M-7.704999923706055,3.055999994277954 C-7.354000091552734,2.055999994277954 -4.955999851226807,1.4450000524520874 -1.774999976158142,0.2669999897480011 C1.503000020980835,-0.9470000267028809 1.9459999799728394,-4.739999771118164 -1.7860000133514404,-5.928999900817871 C-4.084000110626221,-6.660999774932861 -6.982999801635742,-5.288000106811523 -7.531000137329102,-2.6510000228881836 C-8.567999839782715,2.3489999771118164 -4.456999778747559,6.659999847412109 0,6.659999847412109 C4.458000183105469,6.659999847412109 8.567999839782715,2.3489999771118164 7.531000137329102,-2.6510000228881836 C6.984000205993652,-5.288000106811523 4.085000038146973,-6.660999774932861 1.7860000133514404,-5.928999900817871 C-1.9459999799728394,-4.739999771118164 -1.503000020980835,-0.9470000267028809 1.774999976158142,0.2669999897480011 C4.956999778747559,1.4450000524520874 7.355000019073486,2.055999994277954 7.705999851226807,3.055999994277954"></path></g></g></g><g clip-path="url(#__lottie_element_4325)" transform="matrix(1,0,0,1,504.25,547.3759765625)" opacity="1" style="display: block;"><g transform="matrix(0.4000000059604645,0,0,0.4000000059604645,27.17259979248047,29.623600006103516)" opacity="1" style="display: block;"><g opacity="1" transform="matrix(1,0,0,1,57.25600051879883,41.29800033569336)"><path stroke-linecap="round" stroke-linejoin="round" fill-opacity="0" stroke="rgb(214,124,42)" stroke-opacity="1" stroke-width="2" d=" M-7.704999923706055,3.055999994277954 C-7.354000091552734,2.055999994277954 -4.955999851226807,1.4450000524520874 -1.774999976158142,0.2669999897480011 C1.503000020980835,-0.9470000267028809 1.9459999799728394,-4.739999771118164 -1.7860000133514404,-5.928999900817871 C-4.084000110626221,-6.660999774932861 -6.982999801635742,-5.288000106811523 -7.531000137329102,-2.6510000228881836 C-8.567999839782715,2.3489999771118164 -4.456999778747559,6.659999847412109 0,6.659999847412109 C4.458000183105469,6.659999847412109 8.567999839782715,2.3489999771118164 7.531000137329102,-2.6510000228881836 C6.984000205993652,-5.288000106811523 4.085000038146973,-6.660999774932861 1.7860000133514404,-5.928999900817871 C-1.9459999799728394,-4.739999771118164 -1.503000020980835,-0.9470000267028809 1.774999976158142,0.2669999897480011 C4.956999778747559,1.4450000524520874 7.355000019073486,2.055999994277954 7.705999851226807,3.055999994277954"></path></g></g></g><g transform="matrix(1,0,0,1,446.364990234375,561.2219848632812)" opacity="0.3" style="display: block;"><g opacity="1" transform="matrix(1,0,0,1,57.516998291015625,39.8849983215332)"><path fill="rgb(63,63,59)" fill-opacity="1" d=" M25.2810001373291,18.042999267578125 C25.2810001373291,18.042999267578125 -25.2810001373291,18.042999267578125 -25.2810001373291,18.042999267578125 C-28.288999557495117,18.042999267578125 -30.736000061035156,15.595999717712402 -30.736000061035156,12.586999893188477 C-30.736000061035156,12.586999893188477 -30.736000061035156,-12.588000297546387 -30.736000061035156,-12.588000297546387 C-30.736000061035156,-15.595999717712402 -28.288999557495117,-18.042999267578125 -25.2810001373291,-18.042999267578125 C-25.2810001373291,-18.042999267578125 25.2810001373291,-18.042999267578125 25.2810001373291,-18.042999267578125 C28.288999557495117,-18.042999267578125 30.736000061035156,-15.595999717712402 30.736000061035156,-12.588000297546387 C30.736000061035156,-12.588000297546387 30.736000061035156,12.586999893188477 30.736000061035156,12.586999893188477 C30.736000061035156,15.595999717712402 28.288999557495117,18.042999267578125 25.2810001373291,18.042999267578125z"></path></g></g><g transform="matrix(1,0,0,1,466.75,578.2509765625)" opacity="1" style="display: block;"><g opacity="1" transform="matrix(1,0,0,1,37.058998107910156,23.500999450683594)"><path fill="rgb(116,121,126)" fill-opacity="1" d=" M32.029998779296875,-23.25 C32.029998779296875,-23.25 -32.029998779296875,-23.25 -32.029998779296875,-23.25 C-34.90599822998047,-21.36199951171875 -36.808998107910156,-18.11400032043457 -36.808998107910156,-14.416000366210938 C-36.808998107910156,-14.416000366210938 -36.808998107910156,12.682999610900879 -36.808998107910156,12.682999610900879 C-36.808998107910156,18.518999099731445 -32.077999114990234,23.25 -26.243000030517578,23.25 C-26.243000030517578,23.25 26.243000030517578,23.25 26.243000030517578,23.25 C32.077999114990234,23.25 36.808998107910156,18.518999099731445 36.808998107910156,12.682999610900879 C36.808998107910156,12.682999610900879 36.808998107910156,-14.416000366210938 36.808998107910156,-14.416000366210938 C36.808998107910156,-18.11400032043457 34.90599822998047,-21.36199951171875 32.029998779296875,-23.25z M30.736000061035156,11.720999717712402 C30.736000061035156,14.729000091552734 28.288999557495117,17.177000045776367 25.2810001373291,17.177000045776367 C25.2810001373291,17.177000045776367 -25.2810001373291,17.177000045776367 -25.2810001373291,17.177000045776367 C-28.288000106811523,17.177000045776367 -30.736000061035156,14.729000091552734 -30.736000061035156,11.720999717712402 C-30.736000061035156,11.720999717712402 -30.736000061035156,-13.45300006866455 -30.736000061035156,-13.45300006866455 C-30.736000061035156,-16.461999893188477 -28.288000106811523,-18.908000946044922 -25.2810001373291,-18.908000946044922 C-25.2810001373291,-18.908000946044922 25.2810001373291,-18.908000946044922 25.2810001373291,-18.908000946044922 C28.288999557495117,-18.908000946044922 30.736000061035156,-16.461999893188477 30.736000061035156,-13.45300006866455 C30.736000061035156,-13.45300006866455 30.736000061035156,11.720999717712402 30.736000061035156,11.720999717712402z"></path></g></g></g></g><g transform="matrix(0.3333300054073334,0,0,0.3333300054073334,-2.7114744186401367,-5.426154136657715)" opacity="0.3" style="display: block;"><g opacity="1" transform="matrix(1,0,0,1,57.51599884033203,32.262001037597656)"><path fill="rgb(9,7,44)" fill-opacity="1" d=" M-49.70399856567383,-4.510000228881836 C-49.70399856567383,-4.510000228881836 49.70399856567383,14.76200008392334 49.70399856567383,14.76200008392334 C49.70399856567383,14.76200008392334 49.70399856567383,-14.76200008392334 49.70399856567383,-14.76200008392334 C49.70399856567383,-14.76200008392334 -49.70399856567383,-14.76200008392334 -49.70399856567383,-14.76200008392334 C-49.70399856567383,-14.76200008392334 -49.70399856567383,-4.510000228881836 -49.70399856567383,-4.510000228881836z"></path></g></g></g></svg>