<svg xmlns="http://www.w3.org/2000/svg" viewBox="0 0 20 33" width="20" height="33" preserveAspectRatio="xMidYMid meet" style="width: 100%; height: 100%; transform: translate3d(0px, 0px, 0px); content-visibility: visible;"><defs><clipPath id="__lottie_element_869"><rect width="20" height="33" x="0" y="0"></rect></clipPath><mask id="__lottie_element_875" mask-type="alpha"><g transform="matrix(0.33329999446868896,0,0,0.4866180121898651,17.032630920410156,19.866329193115234)" opacity="1" style="display: block;"><g opacity="1" transform="matrix(1,0,0,1,0,0)"><path fill="rgb(255,0,0)" fill-opacity="1" d=" M50,-50 C50,-50 50,50 50,50 C50,50 -50,50 -50,50 C-50,50 -50,-50 -50,-50 C-50,-50 50,-50 50,-50z"></path></g></g></mask><mask id="__lottie_element_880" mask-type="alpha"><g transform="matrix(0.33329999446868896,0,0,0.4866180121898651,17.032630920410156,19.866329193115234)" opacity="1" style="display: block;"><g opacity="1" transform="matrix(1,0,0,1,0,0)"><path fill="rgb(255,0,0)" fill-opacity="1" d=" M50,-50 C50,-50 50,50 50,50 C50,50 -50,50 -50,50 C-50,50 -50,-50 -50,-50 C-50,-50 50,-50 50,-50z"></path></g></g></mask></defs><g clip-path="url(#__lottie_element_869)"><g mask="url(#__lottie_element_880)" style="display: block;"><g transform="matrix(0.33329999446868896,0,0,0.33329999446868896,-3.2986702919006348,3.5346298217773438)" opacity="1"><g opacity="1" transform="matrix(1,0,0,1,45.99599838256836,60.93000030517578)"><path fill="rgb(111,100,78)" fill-opacity="1" d=" M9.128000259399414,-24.27199935913086 C9.956999778747559,-18.631000518798828 10.52400016784668,-12.744000434875488 9.821000099182129,-6.348999977111816 C9.118000030517578,0.04500000178813934 7.043000221252441,7.044000148773193 3.2269999980926514,13.114999771118164 C0.39800000190734863,17.614999771118164 -3.4739999771118164,21.493999481201172 -7.361999988555908,23.496999740600586 C-8.866999626159668,24.270999908447266 -10.52400016784668,22.777999877929688 -9.871999740600586,21.21500015258789 C-9.871999740600586,21.21500015258789 9.128000259399414,-24.27199935913086 9.128000259399414,-24.27199935913086z"></path></g></g></g><g mask="url(#__lottie_element_875)" style="display: block;"><g transform="matrix(0.33329999446868896,0,0,0.33329999446868896,-3.2986702919006348,3.5346298217773438)" opacity="1"><g opacity="1" transform="matrix(1,0,0,1,31.20800018310547,44.5989990234375)"><path fill="rgb(111,100,78)" fill-opacity="1" d=" M-20.798999786376953,31.465999603271484 C-23.757999420166016,29.764999389648438 -26.209999084472656,27.868999481201172 -28.229999542236328,25.85300064086914 C-28.229999542236328,25.85300064086914 -29.104999542236328,-14.017000198364258 -29.104999542236328,-14.017000198364258 C-23.98699951171875,-19.886999130249023 -18.235000610351562,-23.097000122070312 -12.444999694824219,-27.360000610351562 C-6.408999919891357,-31.80699920654297 -2.8289999961853027,-36.74300003051758 3.8359999656677246,-40.332000732421875 C8.939000129699707,-43.08100128173828 15.770999908447266,-41.56399917602539 19.746999740600586,-39.05799865722656 C23.913999557495117,-36.88399887084961 28.66200065612793,-31.742000579833984 28.854000091552734,-25.948999404907227 C29.104999542236328,-18.382999420166016 26.642000198364258,-12.805999755859375 25.836000442504883,-5.35099983215332 C24.80500030517578,4.179999828338623 25.36199951171875,12.710000038146973 19.187999725341797,23.448999404907227 C15.576000213623047,29.732999801635742 -0.5960000157356262,43.08100128173828 -20.798999786376953,31.465999603271484z"></path></g><g opacity="1" transform="matrix(1,0,0,1,41.23899841308594,18.586999893188477)"><path fill="rgb(245,138,70)" fill-opacity="1" d=" M-0.0989999994635582,4.0269999504089355 C-3.7360000610351562,1.9359999895095825 -8.338000297546387,2.7019999027252197 -10.741999626159668,3.940000057220459 C-10.694999694824219,3.9159998893737793 -11.086000442504883,2.1459999084472656 -11.104999542236328,1.9559999704360962 C-11.20300006866455,0.9589999914169312 -11.118000030517578,0.02199999988079071 -10.685999870300293,-0.8460000157356262 C-13.293000221252441,-1.0800000429153442 -15.876999855041504,-0.7120000123977661 -18.14900016784668,0.20900000631809235 C-18.538999557495117,0.3659999966621399 -19.01300048828125,-0.019999999552965164 -18.888999938964844,-0.40400001406669617 C-18.41200065612793,-1.8839999437332153 -17.43600082397461,-3.431999921798706 -15.866999626159668,-4.585999965667725 C-15.866999626159668,-4.585999965667725 -17.437000274658203,-4.861000061035156 -18.910999298095703,-5.0929999351501465 C-19.340999603271484,-5.160999774932861 -19.93899917602539,-5.6529998779296875 -19.70599937438965,-6.132999897003174 C-19.547000885009766,-6.461999893188477 -19.18199920654297,-6.63100004196167 -18.847000122070312,-6.7789998054504395 C-16.023000717163086,-8.019000053405762 -12.692999839782715,-10.539999961853027 -9.215999603271484,-13.111000061035156 C-4.495999813079834,-16.600000381469727 1.6979999542236328,-18.336999893188477 10.01099967956543,-13.557999610900879 C18.325000762939453,-8.779000282287598 19.93899917602539,-2.5510001182556152 19.29800033569336,3.2839999198913574 C18.82699966430664,7.583000183105469 18.323999404907227,11.72599983215332 18.67300033569336,14.791999816894531 C18.714000701904297,15.156000137329102 18.75200080871582,15.555000305175781 18.547000885009766,15.857999801635742 C18.249000549316406,16.299999237060547 17.523000717163086,16.033000946044922 17.24799919128418,15.694999694824219 C16.30500030517578,14.538999557495117 15.279000282287598,13.319999694824219 15.279000282287598,13.319999694824219 C15.071000099182129,15.256999969482422 14.223999977111816,16.878999710083008 13.184000015258789,18.03700065612793 C12.914999961853027,18.336000442504883 12.342000007629395,18.121999740600586 12.282999992370605,17.70599937438965 C11.935999870300293,15.279000282287598 10.95300006866455,12.857999801635742 9.437999725341797,10.722999572753906 C8.906000137329102,11.532999992370605 8.138999938964844,12.079000473022461 7.229000091552734,12.496999740600586 C7.054999828338623,12.576000213623047 5.329999923706055,13.128999710083008 5.331999778747559,13.180000305175781 C5.192999839782715,10.480999946594238 3.5380001068115234,6.118000030517578 -0.0989999994635582,4.0269999504089355z"></path></g><g opacity="1" transform="matrix(1,0,0,1,27.118000030517578,44.762001037597656)"><path fill="rgb(240,208,154)" fill-opacity="1" d=" M-17.950000762939453,33.40399932861328 C-17.944000244140625,33.40700149536133 -26.868999481201172,-2.755000114440918 -26.868999481201172,-2.755000114440918 C-24.68600082397461,-7.315000057220459 -21.38599967956543,-11.467000007629395 -17.138999938964844,-14.034000396728516 C-12.869000434875488,-16.617000579833984 -8.305000305175781,-17.242000579833984 -3.690000057220459,-17.11400032043457 C-3.135999917984009,-17.097999572753906 -2.562000036239624,-17.077999114990234 -2.0260000228881836,-17.29800033569336 C-0.6489999890327454,-17.86400032043457 -1.149999976158142,-19.07200050354004 -1.2000000476837158,-20.177000045776367 C-1.2569999694824219,-21.420000076293945 -1.1710000038146973,-22.71500015258789 -0.6660000085830688,-23.916000366210938 C0.1550000011920929,-25.871999740600586 2.2139999866485596,-27.19499969482422 4.1020002365112305,-26.601999282836914 C5.671000003814697,-26.110000610351562 7.392000198364258,-25.555999755859375 8.991999626159668,-26.281999588012695 C10.711000442504883,-27.05900001525879 12.145999908447266,-27.31599998474121 13.16100025177002,-29.322999954223633 C14.428999900817871,-31.826000213623047 13.163000106811523,-35.441001892089844 15.067999839782715,-37.67599868774414 C16.450000762939453,-37.23099899291992 16.88599967956543,-35.46099853515625 17.89699935913086,-34.40999984741211 C17.9689998626709,-34.334999084472656 18.05500030517578,-34.257999420166016 18.16200065612793,-34.25600051879883 C18.292999267578125,-34.25400161743164 18.409000396728516,-34.36199951171875 18.51300048828125,-34.45899963378906 C19.55500030517578,-35.45199966430664 20.85099983215332,-36.13800048828125 22.18600082397461,-36.400001525878906 C22.631000518798828,-35.1150016784668 22.69099998474121,-33.6510009765625 22.35700035095215,-32.249000549316406 C22.323999404907227,-32.11199951171875 22.288999557495117,-31.954999923706055 22.357999801635742,-31.8439998626709 C22.413000106811523,-31.75200080871582 22.523000717163086,-31.718000411987305 22.624000549316406,-31.69300079345703 C24.041000366210938,-31.349000930786133 25.788999557495117,-31.863000869750977 26.868999481201172,-30.891000747680664 C25.895999908447266,-28.1200008392334 22.13599967956543,-27.395999908447266 20.610000610351562,-25.040000915527344 C19.386999130249023,-23.152999877929688 19.88800048828125,-21.783000946044922 20.079999923706055,-19.906999588012695 C20.260000228881836,-18.158000946044922 21.60099983215332,-16.950000762939453 22.816999435424805,-15.842000007629395 C24.277999877929688,-14.508000373840332 24.172000885009766,-12.0649995803833 22.895000457763672,-10.369999885559082 C22.111000061035156,-9.329000473022461 21.035999298095703,-8.604000091552734 19.93400001525879,-8.027000427246094 C18.95199966430664,-7.513999938964844 17.6560001373291,-7.339000225067139 17.861000061035156,-5.864999771118164 C17.94099998474121,-5.289999961853027 18.246000289916992,-4.804999828338623 18.538000106811523,-4.333000183105469 C20.972000122070312,-0.4090000092983246 22.726999282836914,3.8469998836517334 22.643999099731445,8.838000297546387 C22.562000274658203,13.800000190734863 20.634000778198242,18.742000579833984 17.791000366210938,22.922000885009766 C14.354000091552734,27.97599983215332 9.503999710083008,32.15399932861328 4.111000061035156,34.46900177001953 C-3.3610000610351562,37.67599868774414 -11.390000343322754,37.17499923706055 -17.944000244140625,33.40700149536133 C-17.944000244140625,33.40700149536133 -17.950000762939453,33.40399932861328 -17.950000762939453,33.40399932861328z"></path></g><g opacity="1" transform="matrix(1,0,0,1,37.93000030517578,27.56599998474121)"><path fill="rgb(193,66,60)" fill-opacity="1" d=" M-5.953000068664551,-3.2309999465942383 C-5.223999977111816,-4.001999855041504 -4.171000003814697,-4.380000114440918 -3.140000104904175,-4.708000183105469 C-1.1720000505447388,-5.335000038146973 1.4609999656677246,-5.296999931335449 2.924999952316284,-4.456999778747559 C4.388000011444092,-3.615000009536743 5.74399995803833,-1.3580000400543213 6.192999839782715,0.6589999794960022 C6.428999900817871,1.7139999866485596 6.63100004196167,2.813999891281128 6.330999851226807,3.8310000896453857 C6.204999923706055,4.263000011444092 5.992000102996826,4.682000160217285 5.633999824523926,4.958000183105469 C5.276000022888184,5.23199987411499 4.755000114440918,5.334000110626221 4.333000183105469,5.126999855041504 C3.2300000190734863,4.586999893188477 2.941999912261963,3.427000045776367 2.252000093460083,2.5360000133514404 C1.6430000066757202,1.7489999532699585 0.9390000104904175,1.0240000486373901 0.06300000101327896,0.5210000276565552 C-0.8119999766349792,0.017000000923871994 -1.7949999570846558,-0.22699999809265137 -2.7799999713897705,-0.3580000102519989 C-3.8970000743865967,-0.5059999823570251 -5.046000003814697,-0.17000000178813934 -6.067999839782715,-0.8519999980926514 C-6.459000110626221,-1.1130000352859497 -6.63100004196167,-1.6150000095367432 -6.572999954223633,-2.062000036239624 C-6.514999866485596,-2.509000062942505 -6.26200008392334,-2.9049999713897705 -5.953000068664551,-3.2309999465942383z"></path></g><g opacity="1" transform="matrix(1,0,0,1,50.255001068115234,6.5320000648498535)"><path fill="rgb(111,100,78)" fill-opacity="1" d=" M-4.9120001792907715,-5.236000061035156 C-4.710999965667725,-4.9120001792907715 -4.48199987411499,-4.605000019073486 -4.2270002365112305,-4.322999954223633 C-4.083000183105469,-4.163000106811523 -3.9260001182556152,-4.00600004196167 -3.7279999256134033,-3.9189999103546143 C-3.490999937057495,-3.812999963760376 -3.2200000286102295,-3.8369998931884766 -2.9600000381469727,-3.818000078201294 C-1.7790000438690186,-3.7330000400543213 -0.15700000524520874,-3.484999895095825 1.5399999618530273,-2.507999897003174 C3.23799991607666,-1.5329999923706055 4.269000053405762,-0.25699999928474426 4.936999797821045,0.7210000157356262 C5.083000183105469,0.9359999895095825 5.198999881744385,1.1820000410079956 5.409999847412109,1.3339999914169312 C5.585000038146973,1.4600000381469727 5.798999786376953,1.5180000066757202 6.010000228881836,1.562000036239624 C6.382999897003174,1.6399999856948853 6.76200008392334,1.684000015258789 7.14300012588501,1.6950000524520874 C6.931000232696533,4.39900016784668 4.6539998054504395,5.215000152587891 3.7209999561309814,5.236000061035156 C3.549999952316284,3.171999931335449 2.5989999771118164,0.9409999847412109 0.31200000643730164,-0.37400001287460327 C-1.975000023841858,-1.687999963760376 -4.38100004196167,-1.3860000371932983 -6.25,-0.4970000088214874 C-6.703000068664551,-1.312999963760376 -7.142000198364258,-3.691999912261963 -4.9120001792907715,-5.236000061035156z"></path></g><g opacity="1" transform="matrix(1,0,0,1,51.55400085449219,4.144999980926514)"><path fill="rgb(111,100,78)" fill-opacity="1" d=" M2.6710000038146973,2.9790000915527344 C3.174999952316284,1.9839999675750732 3.1440000534057617,0.7379999756813049 2.5910000801086426,-0.23199999332427979 C2.2100000381469727,-0.012000000104308128 1.7410000562667847,0.20999999344348907 1.3509999513626099,0.007000000216066837 C1.190000057220459,-0.07599999755620956 1.0709999799728394,-0.22100000083446503 0.9549999833106995,-0.3610000014305115 C0.16099999845027924,-1.3109999895095825 -0.7429999709129333,-2.1689999103546143 -1.7330000400543213,-2.9140000343322754 C-1.774999976158142,-2.946000099182129 -1.8250000476837158,-2.9790000915527344 -1.8769999742507935,-2.9700000286102295 C-1.934000015258789,-2.9609999656677246 -1.972000002861023,-2.9079999923706055 -1.9989999532699585,-2.8570001125335693 C-2.1489999294281006,-2.578000068664551 -2.2009999752044678,-2.256999969482422 -2.2760000228881836,-1.9479999542236328 C-2.447999954223633,-1.2389999628067017 -2.755000114440918,-0.5630000233650208 -3.174999952316284,0.03400000184774399 C-3.174999952316284,0.03400000184774399 2.6710000038146973,2.9790000915527344 2.6710000038146973,2.9790000915527344z"></path></g><g opacity="1" transform="matrix(0.23200683295726776,0.13181965053081512,-0.13181965053081512,0.23200683295726776,36.67900085449219,11.029999732971191)"><path fill="rgb(77,67,95)" fill-opacity="1" d=" M19,0 C19,0 19,0 19,0 C19,10.486100196838379 10.486100196838379,19 0,19 C0,19 0,19 0,19 C-10.486100196838379,19 -19,10.486100196838379 -19,0 C-19,0 -19,0 -19,0 C-19,-10.486100196838379 -10.486100196838379,-19 0,-19 C0,-19 0,-19 0,-19 C10.486100196838379,-19 19,-10.486100196838379 19,0z"></path></g><g opacity="1" transform="matrix(0.23200683295726776,0.13181965053081512,-0.13181965053081512,0.23200683295726776,53.20399856567383,20.707000732421875)"><path fill="rgb(77,67,95)" fill-opacity="1" d=" M19,0 C19,0 19,0 19,0 C19,10.486100196838379 10.486100196838379,19 0,19 C0,19 0,19 0,19 C-10.486100196838379,19 -19,10.486100196838379 -19,0 C-19,0 -19,0 -19,0 C-19,-10.486100196838379 -10.486100196838379,-19 0,-19 C0,-19 0,-19 0,-19 C10.486100196838379,-19 19,-10.486100196838379 19,0z"></path></g></g></g></g></svg>