<svg xmlns="http://www.w3.org/2000/svg" viewBox="0 0 102 61" width="102" height="61" preserveAspectRatio="xMidYMid meet" style="width: 100%; height: 100%; transform: translate3d(0px, 0px, 0px); content-visibility: visible;"><defs><clipPath id="__lottie_element_458"><rect width="102" height="61" x="0" y="0"></rect></clipPath></defs><g clip-path="url(#__lottie_element_458)"><g transform="matrix(1.8059998750686646,0,0,1.8059998750686646,-9.228658676147461,0.5077791810035706)" opacity="1" style="display: block;"><g opacity="1" transform="matrix(1,0,0,1,0,0)"><g opacity="1" transform="matrix(1,0,0,1,34.29399871826172,10.625)"><path fill="rgb(144,102,39)" fill-opacity="1" d=" M1.4539999961853027,0.6340000033378601 C1.4539999961853027,0.6340000033378601 -1.1080000400543213,1.1339999437332153 -1.1080000400543213,1.1339999437332153 C-1.593999981880188,1.2289999723434448 -2.069999933242798,0.9089999794960022 -2.1649999618530273,0.421999990940094 C-2.259999990463257,-0.06400000303983688 -1.9390000104904175,-0.5400000214576721 -1.4529999494552612,-0.6340000033378601 C-1.4529999494552612,-0.6340000033378601 1.1089999675750732,-1.1339999437332153 1.1089999675750732,-1.1339999437332153 C1.5950000286102295,-1.2289999723434448 2.071000099182129,-0.9089999794960022 2.1659998893737793,-0.4230000078678131 C2.260999917984009,0.06400000303983688 1.940000057220459,0.5389999747276306 1.4539999961853027,0.6340000033378601z"></path></g></g><g opacity="1" transform="matrix(1,0,0,1,33.31800079345703,23.93400001525879)"><path fill="rgb(144,102,39)" fill-opacity="1" d=" M0.6800000071525574,2.5910000801086426 C0.6800000071525574,2.5910000801086426 -0.6800000071525574,2.5910000801086426 -0.6800000071525574,2.5910000801086426 C-0.6800000071525574,2.5910000801086426 -0.6800000071525574,-2.5910000801086426 -0.6800000071525574,-2.5910000801086426 C-0.6800000071525574,-2.5910000801086426 0.6800000071525574,-2.5910000801086426 0.6800000071525574,-2.5910000801086426 C0.6800000071525574,-2.5910000801086426 0.6800000071525574,2.5910000801086426 0.6800000071525574,2.5910000801086426z"></path></g><g opacity="1" transform="matrix(1,0,0,1,33.31800079345703,28.540000915527344)"><path fill="rgb(47,70,121)" fill-opacity="1" d=" M11.211999893188477,-2.884999990463257 C11.211999893188477,-2.884999990463257 -11.211999893188477,-2.884999990463257 -11.211999893188477,-2.884999990463257 C-11.211999893188477,-2.884999990463257 -5.206999778747559,2.884999990463257 -5.206999778747559,2.884999990463257 C-5.206999778747559,2.884999990463257 5.206999778747559,2.884999990463257 5.206999778747559,2.884999990463257 C5.206999778747559,2.884999990463257 11.211999893188477,-2.884999990463257 11.211999893188477,-2.884999990463257z"></path></g><g opacity="1" transform="matrix(1,0,0,1,33.31800079345703,25.57200050354004)"><path fill="rgb(17,128,195)" fill-opacity="1" d=" M10.79699993133545,0.5 C10.79699993133545,0.5 -10.79699993133545,0.5 -10.79699993133545,0.5 C-10.79699993133545,0.5 -10.79699993133545,-0.5 -10.79699993133545,-0.5 C-10.79699993133545,-0.5 10.79699993133545,-0.5 10.79699993133545,-0.5 C10.79699993133545,-0.5 10.79699993133545,0.5 10.79699993133545,0.5z"></path></g><g opacity="1" transform="matrix(1,0,0,1,33.31800079345703,24.753000259399414)"><path fill="rgb(17,128,195)" fill-opacity="1" d=" M2.4700000286102295,-0.8190000057220459 C2.4700000286102295,-0.8190000057220459 -2.4700000286102295,-0.8190000057220459 -2.4700000286102295,-0.8190000057220459 C-2.4700000286102295,-0.8190000057220459 -2.4700000286102295,0.8190000057220459 -2.4700000286102295,0.8190000057220459 C-2.4700000286102295,0.8190000057220459 2.4700000286102295,0.8190000057220459 2.4700000286102295,0.8190000057220459 C2.4700000286102295,0.8190000057220459 2.4700000286102295,-0.8190000057220459 2.4700000286102295,-0.8190000057220459z"></path></g><g opacity="1" transform="matrix(1,0,0,1,33.07500076293945,12.036999702453613)"><path fill="rgb(144,102,39)" fill-opacity="1" d=" M0.5289999842643738,-1.1699999570846558 C0.5289999842643738,-1.1699999570846558 -0.5490000247955322,-1.159000039100647 -0.5490000247955322,-1.159000039100647 C-0.5490000247955322,-1.159000039100647 -0.5289999842643738,1.1699999570846558 -0.5289999842643738,1.1699999570846558 C-0.5289999842643738,1.1699999570846558 0.5490000247955322,1.159000039100647 0.5490000247955322,1.159000039100647 C0.5490000247955322,1.159000039100647 0.5289999842643738,-1.1699999570846558 0.5289999842643738,-1.1699999570846558z"></path></g><g opacity="1" transform="matrix(1,0,0,1,33.31700134277344,13.579999923706055)"><path fill="rgb(17,128,195)" fill-opacity="1" d=" M2.003999948501587,0.8769999742507935 C2.003999948501587,0.8769999742507935 -2.003999948501587,0.8769999742507935 -2.003999948501587,0.8769999742507935 C-2.003999948501587,0.8769999742507935 -2.003999948501587,-0.8769999742507935 -2.003999948501587,-0.8769999742507935 C-2.003999948501587,-0.8769999742507935 2.003999948501587,-0.8769999742507935 2.003999948501587,-0.8769999742507935 C2.003999948501587,-0.8769999742507935 2.003999948501587,0.8769999742507935 2.003999948501587,0.8769999742507935z"></path></g><g opacity="1" transform="matrix(1,0,0,1,33.31800079345703,17.530000686645508)"><path fill="rgb(17,128,195)" fill-opacity="1" d=" M2.4700000286102295,3.072999954223633 C2.4700000286102295,3.072999954223633 -2.4700000286102295,3.072999954223633 -2.4700000286102295,3.072999954223633 C-2.4700000286102295,3.072999954223633 -2.4700000286102295,-3.072999954223633 -2.4700000286102295,-3.072999954223633 C-2.4700000286102295,-3.072999954223633 2.4700000286102295,-3.072999954223633 2.4700000286102295,-3.072999954223633 C2.4700000286102295,-3.072999954223633 2.4700000286102295,3.072999954223633 2.4700000286102295,3.072999954223633z"></path></g><g opacity="1" transform="matrix(1,0,0,1,33.31800079345703,21.07699966430664)"><path fill="rgb(193,66,60)" fill-opacity="1" d=" M2.4690001010894775,0.4729999899864197 C2.4690001010894775,0.4729999899864197 -2.4700000286102295,0.4729999899864197 -2.4700000286102295,0.4729999899864197 C-2.4700000286102295,0.4729999899864197 -3.072999954223633,-0.4729999899864197 -3.072999954223633,-0.4729999899864197 C-3.072999954223633,-0.4729999899864197 3.072999954223633,-0.4729999899864197 3.072999954223633,-0.4729999899864197 C3.072999954223633,-0.4729999899864197 2.4690001010894775,0.4729999899864197 2.4690001010894775,0.4729999899864197z"></path></g><g opacity="1" transform="matrix(1,0,0,1,33.31800079345703,16.218000411987305)"><path fill="rgb(255,201,77)" fill-opacity="1" d=" M2.802999973297119,1.7610000371932983 C2.802999973297119,1.7610000371932983 -2.802999973297119,1.7610000371932983 -2.802999973297119,1.7610000371932983 C-2.802999973297119,1.7610000371932983 -2.802999973297119,-1.7610000371932983 -2.802999973297119,-1.7610000371932983 C-2.802999973297119,-1.7610000371932983 2.802999973297119,-1.7610000371932983 2.802999973297119,-1.7610000371932983 C2.802999973297119,-1.7610000371932983 2.802999973297119,1.7610000371932983 2.802999973297119,1.7610000371932983z"></path></g><g opacity="1" transform="matrix(1,0,0,1,33.31800079345703,14.456999778747559)"><path fill="rgb(193,66,60)" fill-opacity="1" d=" M2.802000045776367,0.5 C2.802000045776367,0.5 -2.802000045776367,0.5 -2.802000045776367,0.5 C-2.802000045776367,0.5 -2.802000045776367,-0.5 -2.802000045776367,-0.5 C-2.802000045776367,-0.5 2.802000045776367,-0.5 2.802000045776367,-0.5 C2.802000045776367,-0.5 2.802000045776367,0.5 2.802000045776367,0.5z"></path></g><g opacity="1" transform="matrix(1,0,0,1,29.18000030517578,19.809999465942383)"><path fill="rgb(175,154,166)" fill-opacity="1" d=" M-0.8920000195503235,3.4839999675750732 C-0.8920000195503235,3.4839999675750732 -0.1340000033378601,1.2669999599456787 1.6679999828338623,0.7940000295639038 C1.6679999828338623,0.7940000295639038 1.6679999828338623,-3.4839999675750732 1.6679999828338623,-3.4839999675750732 C1.6679999828338623,-3.4839999675750732 -1.6679999828338623,3.0439999103546143 -1.6679999828338623,3.0439999103546143 C-1.6679999828338623,3.0439999103546143 -0.8920000195503235,3.4839999675750732 -0.8920000195503235,3.4839999675750732z"></path></g><g opacity="1" transform="matrix(1,0,0,1,27.788000106811523,23.22599983215332)"><path fill="rgb(255,201,77)" fill-opacity="1" d=" M0.0010000000474974513,-1.1330000162124634 C-0.6240000128746033,-1.1330000162124634 -1.1330000162124634,-0.625 -1.1330000162124634,0.0010000000474974513 C-1.1330000162124634,0.6259999871253967 -0.6240000128746033,1.1330000162124634 0.0010000000474974513,1.1330000162124634 C0.6259999871253967,1.1330000162124634 1.1330000162124634,0.6259999871253967 1.1330000162124634,0.0010000000474974513 C1.1330000162124634,-0.625 0.6259999871253967,-1.1330000162124634 0.0010000000474974513,-1.1330000162124634z"></path></g><g opacity="1" transform="matrix(1,0,0,1,28.06100082397461,26.52400016784668)"><path stroke-linecap="round" stroke-linejoin="round" fill-opacity="0" stroke="rgb(144,102,39)" stroke-opacity="1" stroke-width="1.2" d=" M-0.2720000147819519,-3.2980000972747803 C-0.5410000085830688,-0.32100000977516174 0.5419999957084656,3.2980000972747803 0.5419999957084656,3.2980000972747803"></path></g><g opacity="1" transform="matrix(1,0,0,1,37.45600128173828,19.809999465942383)"><path fill="rgb(175,154,166)" fill-opacity="1" d=" M0.8930000066757202,3.4839999675750732 C0.8930000066757202,3.4839999675750732 0.13300000131130219,1.2669999599456787 -1.6679999828338623,0.7940000295639038 C-1.6679999828338623,0.7940000295639038 -1.6679999828338623,-3.4839999675750732 -1.6679999828338623,-3.4839999675750732 C-1.6679999828338623,-3.4839999675750732 1.6679999828338623,3.0439999103546143 1.6679999828338623,3.0439999103546143 C1.6679999828338623,3.0439999103546143 0.8930000066757202,3.4839999675750732 0.8930000066757202,3.4839999675750732z"></path></g><g opacity="1" transform="matrix(1,0,0,1,38.847999572753906,23.22599983215332)"><path fill="rgb(255,201,77)" fill-opacity="1" d=" M0,-1.1330000162124634 C0.625,-1.1330000162124634 1.1330000162124634,-0.625 1.1330000162124634,0.0010000000474974513 C1.1330000162124634,0.6259999871253967 0.625,1.1330000162124634 0,1.1330000162124634 C-0.625,1.1330000162124634 -1.1330000162124634,0.6259999871253967 -1.1330000162124634,0.0010000000474974513 C-1.1330000162124634,-0.625 -0.625,-1.1330000162124634 0,-1.1330000162124634z"></path></g><g opacity="1" transform="matrix(1,0,0,1,38.57500076293945,26.52400016784668)"><path stroke-linecap="round" stroke-linejoin="round" fill-opacity="0" stroke="rgb(144,102,39)" stroke-opacity="1" stroke-width="1.2" d=" M0.27300000190734863,-3.2980000972747803 C0.5419999957084656,-0.32100000977516174 -0.5419999957084656,3.2980000972747803 -0.5419999957084656,3.2980000972747803"></path></g><g opacity="1" transform="matrix(1,0,0,1,33.31800079345703,31.424999237060547)"><path fill="rgb(255,201,77)" fill-opacity="1" d=" M22.381000518798828,-1.812000036239624 C22.381000518798828,-1.812000036239624 -22.381000518798828,-1.812000036239624 -22.381000518798828,-1.812000036239624 C-23.709999084472656,-1.812000036239624 -27.826000213623047,-1.3289999961853027 -27.826000213623047,0 C-27.826000213623047,1.3300000429153442 -23.709999084472656,1.812000036239624 -22.381000518798828,1.812000036239624 C-22.381000518798828,1.812000036239624 22.381000518798828,1.812000036239624 22.381000518798828,1.812000036239624 C23.711000442504883,1.812000036239624 27.826000213623047,1.3300000429153442 27.826000213623047,0 C27.826000213623047,-1.3289999961853027 23.711000442504883,-1.812000036239624 22.381000518798828,-1.812000036239624z"></path></g><g opacity="1" transform="matrix(1,0,0,1,33.31800079345703,32.33100128173828)"><path fill="rgb(144,102,39)" fill-opacity="1" d=" M-22.3799991607666,0.906000018119812 C-22.3799991607666,0.906000018119812 22.381000518798828,0.906000018119812 22.381000518798828,0.906000018119812 C23.709999084472656,0.906000018119812 27.826000213623047,0.4230000078678131 27.826000213623047,-0.906000018119812 C27.826000213623047,-0.906000018119812 -27.826000213623047,-0.906000018119812 -27.826000213623047,-0.906000018119812 C-27.826000213623047,0.4230000078678131 -23.709999084472656,0.906000018119812 -22.3799991607666,0.906000018119812z"></path></g></g><g transform="matrix(1.8059998750686646,0,0,1.8059998750686646,-9.228910446166992,0.5072634816169739)" opacity="1" style="display: block;"><g opacity="1" transform="matrix(1,0,0,1,34.45199966430664,8.597000122070312)"><path fill="rgb(144,102,39)" fill-opacity="1" d=" M-0.6480000019073486,-2.134999990463257 C-0.6480000019073486,-2.134999990463257 -1.5740000009536743,-1.5809999704360962 -1.5740000009536743,-1.5809999704360962 C-1.5740000009536743,-1.5809999704360962 0.6489999890327454,2.134999990463257 0.6489999890327454,2.134999990463257 C0.6489999890327454,2.134999990463257 1.5740000009536743,1.5809999704360962 1.5740000009536743,1.5809999704360962 C1.5740000009536743,1.5809999704360962 -0.6480000019073486,-2.134999990463257 -0.6480000019073486,-2.134999990463257z"></path></g><g opacity="1" transform="matrix(1,0,0,1,26.165000915527344,11.644000053405762)"><path stroke-linecap="round" stroke-linejoin="round" fill-opacity="0" stroke="rgb(206,143,70)" stroke-opacity="1" stroke-width="0.8" d=" M3.2290000915527344,-1.930999994277954 C3.1559998989105225,-1.8869999647140503 -3.2290000915527344,1.930999994277954 -3.2290000915527344,1.930999994277954"></path></g><g opacity="1" transform="matrix(1,0,0,1,28.861000061035156,10.031999588012695)"><path fill="rgb(144,102,39)" fill-opacity="1" d=" M2.7179999351501465,-2.5239999294281006 C2.7179999351501465,-2.5239999294281006 -3.509000062942505,1.2009999752044678 -3.509000062942505,1.2009999752044678 C-3.509000062942505,1.2009999752044678 -2.7179999351501465,2.5239999294281006 -2.7179999351501465,2.5239999294281006 C-2.7179999351501465,2.5239999294281006 3.509000062942505,-1.2020000219345093 3.509000062942505,-1.2020000219345093 C3.509000062942505,-1.2020000219345093 2.7179999351501465,-2.5239999294281006 2.7179999351501465,-2.5239999294281006z"></path></g><g opacity="1" transform="matrix(1,0,0,1,34.04999923706055,6.927999973297119)"><path fill="rgb(175,154,166)" fill-opacity="1" d=" M1.531999945640564,-2.562000036239624 C1.531999945640564,-2.562000036239624 -2.9809999465942383,0.1379999965429306 -2.9809999465942383,0.1379999965429306 C-2.9809999465942383,0.1379999965429306 -1.531999945640564,2.562000036239624 -1.531999945640564,2.562000036239624 C-1.531999945640564,2.562000036239624 2.9809999465942383,-0.1379999965429306 2.9809999465942383,-0.1379999965429306 C2.9809999465942383,-0.1379999965429306 1.531999945640564,-2.562000036239624 1.531999945640564,-2.562000036239624z"></path></g><g opacity="1" transform="matrix(1,0,0,1,29.388999938964844,9.706000328063965)"><path fill="rgb(175,154,166)" fill-opacity="1" d=" M0.052000001072883606,-1.6759999990463257 C0.052000001072883606,-1.6759999990463257 -1.5,-0.7480000257492065 -1.5,-0.7480000257492065 C-1.5,-0.7480000257492065 -0.052000001072883606,1.6759999990463257 -0.052000001072883606,1.6759999990463257 C-0.052000001072883606,1.6759999990463257 1.5,0.746999979019165 1.5,0.746999979019165 C1.5,0.746999979019165 0.052000001072883606,-1.6759999990463257 0.052000001072883606,-1.6759999990463257z"></path></g><g opacity="1" transform="matrix(1,0,0,1,38.37699890136719,4.275000095367432)"><path fill="rgb(255,201,77)" fill-opacity="1" d=" M-4.60099983215332,0.2639999985694885 C-4.60099983215332,0.2639999985694885 -2.3510000705718994,4.025000095367432 -2.3510000705718994,4.025000095367432 C-2.3510000705718994,4.025000095367432 4.60099983215332,-4.025000095367432 4.60099983215332,-4.025000095367432 C4.60099983215332,-4.025000095367432 -0.03200000151991844,-2.4690001010894775 -4.60099983215332,0.2639999985694885z"></path></g><g opacity="1" transform="matrix(1,0,0,1,38.965999603271484,5.260000228881836)"><path fill="rgb(255,201,77)" fill-opacity="1" d=" M-2.940999984741211,3.0399999618530273 C-2.940999984741211,3.0399999618530273 -5.190999984741211,-0.7210000157356262 -5.190999984741211,-0.7210000157356262 C-5.190999984741211,-0.7210000157356262 5.190999984741211,-3.0399999618530273 5.190999984741211,-3.0399999618530273 C5.190999984741211,-3.0399999618530273 1.628000020980835,0.3070000112056732 -2.940999984741211,3.0399999618530273z"></path></g><g opacity="1" transform="matrix(1,0,0,1,39.37300109863281,3.989000082015991)"><path fill="rgb(255,201,77)" fill-opacity="1" d=" M-4.927999973297119,1.6679999828338623 C-4.927999973297119,1.6679999828338623 -4.01800012588501,3.193000078201294 -4.01800012588501,3.193000078201294 C2.805000066757202,-0.8880000114440918 4.927999973297119,-3.193000078201294 4.927999973297119,-3.193000078201294 C4.927999973297119,-3.193000078201294 1.1540000438690186,-1.9700000286102295 -4.927999973297119,1.6679999828338623z"></path></g><g opacity="1" transform="matrix(1,0,0,1,33.077999114990234,10.862000465393066)"><path fill="rgb(206,143,70)" fill-opacity="1" d=" M0.5320000052452087,-0.10400000214576721 C0.4749999940395355,-0.3970000147819519 0.1899999976158142,-0.5879999995231628 -0.10300000011920929,-0.531000018119812 C-0.3959999978542328,-0.4729999899864197 -0.5879999995231628,-0.1889999955892563 -0.531000018119812,0.10400000214576721 C-0.4729999899864197,0.39800000190734863 -0.1889999955892563,0.5879999995231628 0.10400000214576721,0.531000018119812 C0.39800000190734863,0.4740000069141388 0.5889999866485596,0.1889999955892563 0.5320000052452087,-0.10400000214576721z"></path></g><g opacity="1" transform="matrix(1,0,0,1,35.51100158691406,10.387999534606934)"><path fill="rgb(206,143,70)" fill-opacity="1" d=" M-0.531000018119812,0.10300000011920929 C-0.5879999995231628,-0.1899999976158142 -0.39800000190734863,-0.4740000069141388 -0.10400000214576721,-0.531000018119812 C0.1889999955892563,-0.5879999995231628 0.4729999899864197,-0.39800000190734863 0.531000018119812,-0.10400000214576721 C0.5879999995231628,0.1889999955892563 0.3959999978542328,0.4729999899864197 0.10300000011920929,0.531000018119812 C-0.1899999976158142,0.5879999995231628 -0.4740000069141388,0.3959999978542328 -0.531000018119812,0.10300000011920929z"></path></g></g><g transform="matrix(1.7794781923294067,-0.30837151408195496,0.30837151408195496,1.7794781923294067,-16.02265739440918,14.658843994140625)" opacity="1" style="display: block;"><g opacity="1" transform="matrix(1,0,0,1,44.28200149536133,25.572999954223633)"><path fill="rgb(144,102,39)" fill-opacity="1" d=" M0.7080000042915344,2.6040000915527344 C0.7080000042915344,2.6040000915527344 0.7080000042915344,2.6040000915527344 0.7080000042915344,2.6040000915527344 C1.090000033378601,2.5 1.3140000104904175,2.1070001125335693 1.2109999656677246,1.725000023841858 C1.2109999656677246,1.725000023841858 0.1720000058412552,-2.1010000705718994 0.1720000058412552,-2.1010000705718994 C0.06800000369548798,-2.4830000400543213 -0.32600000500679016,-2.7079999446868896 -0.7080000042915344,-2.6050000190734863 C-1.0889999866485596,-2.500999927520752 -1.315000057220459,-2.1070001125335693 -1.2109999656677246,-1.725000023841858 C-1.2109999656677246,-1.725000023841858 -0.1720000058412552,2.0999999046325684 -0.1720000058412552,2.0999999046325684 C-0.0689999982714653,2.4820001125335693 0.32600000500679016,2.7079999446868896 0.7080000042915344,2.6040000915527344z"></path></g><g opacity="1" transform="matrix(1,0,0,1,44.28200149536133,25.572999954223633)"><path fill="rgb(17,128,195)" fill-opacity="1" d=" M-1.2100000381469727,0 C-1.2100000381469727,-0.6679999828338623 -0.6679999828338623,-1.2100000381469727 0,-1.2100000381469727 C0.6679999828338623,-1.2100000381469727 1.2100000381469727,-0.6679999828338623 1.2100000381469727,0 C1.2100000381469727,0.6679999828338623 0.6679999828338623,1.2100000381469727 0,1.2100000381469727 C-0.6679999828338623,1.2100000381469727 -1.2100000381469727,0.6679999828338623 -1.2100000381469727,0z"></path></g><g opacity="1" transform="matrix(1,0,0,1,48.24399948120117,23.93400001525879)"><path fill="rgb(255,201,77)" fill-opacity="1" d=" M-3.6070001125335693,1.8020000457763672 C-4.959000110626221,-0.9039999842643738 -4.440000057220459,-3.9040000438690186 -2.447999954223633,-4.89900016784668 C-0.4560000002384186,-5.894999980926514 2.25600004196167,-4.507999897003174 3.6080000400543213,-1.8020000457763672 C4.960000038146973,0.9039999842643738 4.440999984741211,3.9049999713897705 2.4489998817443848,4.900000095367432 C0.4560000002384186,5.895999908447266 -2.255000114440918,4.507999897003174 -3.6070001125335693,1.8020000457763672z"></path></g><g opacity="1" transform="matrix(1,0,0,1,47.38600158691406,24.363000869750977)"><path fill="rgb(194,132,43)" fill-opacity="1" d=" M-0.9020000100135803,0.44999998807907104 C-1.281999945640564,-0.3109999895095825 -1.187000036239624,-1.128000020980835 -0.6880000233650208,-1.3769999742507935 C-0.1899999976158142,-1.6260000467300415 0.5220000147819519,-1.2109999656677246 0.9020000100135803,-0.44999998807907104 C1.281999945640564,0.3109999895095825 1.187000036239624,1.128000020980835 0.6880000233650208,1.3769999742507935 C0.1899999976158142,1.6260000467300415 -0.5220000147819519,1.2109999656677246 -0.9020000100135803,0.44999998807907104z"></path></g><g opacity="1" transform="matrix(1,0,0,1,50.555999755859375,22.777999877929688)"><path stroke-linecap="round" stroke-linejoin="round" fill-opacity="0" stroke="rgb(194,132,43)" stroke-opacity="1" stroke-width="0.8" d=" M-3.1700000762939453,1.5839999914169312 C-3.1700000762939453,1.5839999914169312 3.1700000762939453,-1.5839999914169312 3.1700000762939453,-1.5839999914169312"></path></g><g opacity="1" transform="matrix(1,0,0,1,53.72600173950195,21.19499969482422)"><path fill="rgb(144,102,39)" fill-opacity="1" d=" M0.953000009059906,0 C0.953000009059906,-0.5260000228881836 0.5260000228881836,-0.953000009059906 0,-0.953000009059906 C-0.5260000228881836,-0.953000009059906 -0.953000009059906,-0.5260000228881836 -0.953000009059906,0 C-0.953000009059906,0.5260000228881836 -0.5260000228881836,0.953000009059906 0,0.953000009059906 C0.5260000228881836,0.953000009059906 0.953000009059906,0.5260000228881836 0.953000009059906,0z"></path></g></g><g transform="matrix(1.7785627841949463,0.3136085867881775,-0.3136085867881775,1.7785627841949463,-0.5149427652359009,-5.94159460067749)" opacity="1" style="display: block;"><g opacity="1" transform="matrix(1,0,0,1,22.354000091552734,25.572999954223633)"><path fill="rgb(144,102,39)" fill-opacity="1" d=" M-0.7070000171661377,2.6040000915527344 C-0.7070000171661377,2.6040000915527344 -0.7070000171661377,2.6040000915527344 -0.7070000171661377,2.6040000915527344 C-1.0889999866485596,2.5 -1.3140000104904175,2.1070001125335693 -1.2109999656677246,1.725000023841858 C-1.2109999656677246,1.725000023841858 -0.1720000058412552,-2.1010000705718994 -0.1720000058412552,-2.1010000705718994 C-0.06800000369548798,-2.4830000400543213 0.32499998807907104,-2.7079999446868896 0.7059999704360962,-2.6050000190734863 C1.0880000591278076,-2.500999927520752 1.315000057220459,-2.1070001125335693 1.2109999656677246,-1.725000023841858 C1.2109999656677246,-1.725000023841858 0.1720000058412552,2.0999999046325684 0.1720000058412552,2.0999999046325684 C0.0689999982714653,2.4820001125335693 -0.32499998807907104,2.7079999446868896 -0.7070000171661377,2.6040000915527344z"></path></g><g opacity="1" transform="matrix(1,0,0,1,22.354000091552734,25.572999954223633)"><path fill="rgb(17,128,195)" fill-opacity="1" d=" M1.2100000381469727,0 C1.2100000381469727,-0.6679999828338623 0.6679999828338623,-1.2100000381469727 0,-1.2100000381469727 C-0.6679999828338623,-1.2100000381469727 -1.2100000381469727,-0.6679999828338623 -1.2100000381469727,0 C-1.2100000381469727,0.6679999828338623 -0.6679999828338623,1.2100000381469727 0,1.2100000381469727 C0.6679999828338623,1.2100000381469727 1.2100000381469727,0.6679999828338623 1.2100000381469727,0z"></path></g><g opacity="1" transform="matrix(1,0,0,1,18.392000198364258,23.93400001525879)"><path fill="rgb(255,201,77)" fill-opacity="1" d=" M3.6080000400543213,1.8020000457763672 C4.960000038146973,-0.9039999842643738 4.440000057220459,-3.9040000438690186 2.447999954223633,-4.89900016784668 C0.4560000002384186,-5.894999980926514 -2.25600004196167,-4.507999897003174 -3.6080000400543213,-1.8020000457763672 C-4.960000038146973,0.9039999842643738 -4.440999984741211,3.9049999713897705 -2.4489998817443848,4.900000095367432 C-0.4560000002384186,5.895999908447266 2.25600004196167,4.507999897003174 3.6080000400543213,1.8020000457763672z"></path></g><g opacity="1" transform="matrix(1,0,0,1,19.25,24.363000869750977)"><path fill="rgb(194,132,43)" fill-opacity="1" d=" M0.9020000100135803,0.44999998807907104 C1.281999945640564,-0.3109999895095825 1.187000036239624,-1.128000020980835 0.6880000233650208,-1.3769999742507935 C0.1899999976158142,-1.6260000467300415 -0.5220000147819519,-1.2109999656677246 -0.9020000100135803,-0.44999998807907104 C-1.281999945640564,0.3109999895095825 -1.187000036239624,1.128000020980835 -0.6880000233650208,1.3769999742507935 C-0.1899999976158142,1.6260000467300415 0.5220000147819519,1.2109999656677246 0.9020000100135803,0.44999998807907104z"></path></g><g opacity="1" transform="matrix(1,0,0,1,16.079999923706055,22.777999877929688)"><path stroke-linecap="round" stroke-linejoin="round" fill-opacity="0" stroke="rgb(194,132,43)" stroke-opacity="1" stroke-width="0.8" d=" M3.1700000762939453,1.5839999914169312 C3.1700000762939453,1.5839999914169312 -3.1700000762939453,-1.5839999914169312 -3.1700000762939453,-1.5839999914169312"></path></g><g opacity="1" transform="matrix(1,0,0,1,12.90999984741211,21.19499969482422)"><path fill="rgb(144,102,39)" fill-opacity="1" d=" M0.953000009059906,0 C0.953000009059906,-0.5260000228881836 0.5260000228881836,-0.953000009059906 0,-0.953000009059906 C-0.5260000228881836,-0.953000009059906 -0.953000009059906,-0.5260000228881836 -0.953000009059906,0 C-0.953000009059906,0.5260000228881836 -0.5260000228881836,0.953000009059906 0,0.953000009059906 C0.5260000228881836,0.953000009059906 0.953000009059906,0.5260000228881836 0.953000009059906,0z"></path></g></g></g></svg>