<svg xmlns="http://www.w3.org/2000/svg" viewBox="0 0 68 144" width="68" height="144" preserveAspectRatio="xMidYMid meet" style="width: 100%; height: 100%; transform: translate3d(0px, 0px, 0px); content-visibility: visible;"><defs><clipPath id="__lottie_element_2398"><rect width="68" height="144" x="0" y="0"></rect></clipPath><mask id="__lottie_element_2406" mask-type="alpha"><g transform="matrix(0.3330000042915344,0,0,0.3330000042915344,-19.52741813659668,-53.11043167114258)" opacity="1" style="display: block;"><g opacity="1" transform="matrix(1,0,0,1,81.13700103759766,187.531005859375)"><path fill="rgb(179,82,48)" fill-opacity="1" d=" M236.02999877929688,-6.500999927520752 C236.02999877929688,-10.79699993133545 4.046999931335449,-17.2810001373291 -0.25,-17.2810001373291 C-4.546000003814697,-17.2810001373291 -8.154999732971191,-13.54699993133545 -8.154999732971191,-9.25100040435791 C-8.154999732971191,-9.25100040435791 -8.029999732971191,28.461999893188477 -8.029999732971191,28.461999893188477 C-8.029999732971191,28.461999893188477 -88.77999877929688,444.031005859375 -88.77999877929688,444.031005859375 C-88.77999877929688,444.031005859375 255.77999877929688,441.531005859375 255.77999877929688,441.531005859375 C255.77999877929688,441.531005859375 236.02999877929688,-6.500999927520752 236.02999877929688,-6.500999927520752z"></path></g></g></mask></defs><g clip-path="url(#__lottie_element_2398)"><g transform="matrix(0.3330000042915344,0,0,0.3330000042915344,-19.52741813659668,-53.11043167114258)" opacity="1" style="display: block;"><g opacity="1" transform="matrix(1,0,0,1,81.12999725341797,191.18699645996094)"><path fill="rgb(255,201,77)" fill-opacity="1" d=" M15.003999710083008,20.41200065612793 C15.003999710083008,20.41200065612793 -15.003999710083008,20.41200065612793 -15.003999710083008,20.41200065612793 C-15.003999710083008,20.41200065612793 -15.003999710083008,-20.41200065612793 -15.003999710083008,-20.41200065612793 C-15.003999710083008,-20.41200065612793 15.003999710083008,-20.41200065612793 15.003999710083008,-20.41200065612793 C15.003999710083008,-20.41200065612793 15.003999710083008,20.41200065612793 15.003999710083008,20.41200065612793z"></path></g><g opacity="1" transform="matrix(1,0,0,1,66.12699890136719,170.77499389648438)"><path fill="rgb(255,201,77)" fill-opacity="1" d=" M5.408999919891357,0 C5.408999919891357,2.986999988555908 2.986999988555908,5.408999919891357 0,5.408999919891357 C-2.986999988555908,5.408999919891357 -5.408999919891357,2.986999988555908 -5.408999919891357,0 C-5.408999919891357,-2.986999988555908 -2.986999988555908,-5.408999919891357 0,-5.408999919891357 C2.986999988555908,-5.408999919891357 5.408999919891357,-2.986999988555908 5.408999919891357,0z"></path></g><g opacity="1" transform="matrix(1,0,0,1,96.13300323486328,170.77499389648438)"><path fill="rgb(255,201,77)" fill-opacity="1" d=" M5.408999919891357,0 C5.408999919891357,2.986999988555908 2.98799991607666,5.408999919891357 0,5.408999919891357 C-2.986999988555908,5.408999919891357 -5.408999919891357,2.986999988555908 -5.408999919891357,0 C-5.408999919891357,-2.986999988555908 -2.986999988555908,-5.408999919891357 0,-5.408999919891357 C2.98799991607666,-5.408999919891357 5.408999919891357,-2.986999988555908 5.408999919891357,0z"></path></g><g opacity="1" transform="matrix(1,0,0,1,81.12999725341797,167.3260040283203)"><path fill="rgb(255,201,77)" fill-opacity="1" d=" M14.848999977111816,2.989000082015991 C6.993000030517578,2.989000082015991 6.921000003814697,-2.989000082015991 -0.0010000000474974513,-2.989000082015991 C-6.921999931335449,-2.989000082015991 -6.993000030517578,2.989000082015991 -14.848999977111816,2.989000082015991 C-14.848999977111816,2.989000082015991 14.848999977111816,2.989000082015991 14.848999977111816,2.989000082015991z"></path></g><g opacity="1" transform="matrix(1,0,0,1,81.12999725341797,167.3260040283203)"><path stroke-linecap="butt" stroke-linejoin="miter" fill-opacity="0" stroke-miterlimit="10" stroke="rgb(255,201,77)" stroke-opacity="1" stroke-width="5.405" d=" M14.848999977111816,2.989000082015991 C6.993000030517578,2.989000082015991 6.921000003814697,-2.989000082015991 -0.0010000000474974513,-2.989000082015991 C-6.921999931335449,-2.989000082015991 -6.993000030517578,2.989000082015991 -14.848999977111816,2.989000082015991 C-14.848999977111816,2.989000082015991 14.848999977111816,2.989000082015991 14.848999977111816,2.989000082015991z"></path></g><g opacity="1" transform="matrix(1,0,0,1,81.12999725341797,187.34500122070312)"><path fill="rgb(179,82,48)" fill-opacity="1" d=" M7.78000020980835,-9.25100040435791 C7.78000020980835,-13.54699993133545 4.296999931335449,-17.0310001373291 0,-17.0310001373291 C-4.296000003814697,-17.0310001373291 -7.78000020980835,-13.54699993133545 -7.78000020980835,-9.25100040435791 C-7.78000020980835,-9.25100040435791 -7.78000020980835,17.0310001373291 -7.78000020980835,17.0310001373291 C-7.78000020980835,17.0310001373291 7.78000020980835,17.0310001373291 7.78000020980835,17.0310001373291 C7.78000020980835,17.0310001373291 7.78000020980835,-9.25100040435791 7.78000020980835,-9.25100040435791z"></path></g></g><g mask="url(#__lottie_element_2406)" style="display: block;"><g transform="matrix(0.3330000042915344,0,0,0.3330000042915344,392.00830078125,491.1138000488281)" opacity="1"><g opacity="1" transform="matrix(1,0,0,1,0,0)"><path stroke-linecap="round" stroke-linejoin="round" fill-opacity="0" stroke="rgb(255,202,77)" stroke-opacity="1" stroke-width="15" d=" M-1191.5,-1438 C-1157,-1444.5 -1122,-1458.5 -1120,-1329 C-1118.1719970703125,-1210.6710205078125 -1117.2259521484375,-1124.3289794921875 -1097.5,-1100 C-1082.5,-1081.5 -1046.2349853515625,-1092.9090576171875 -1039.5,-1085.5 C-1029.5,-1074.5 -1056.5,-1073 -1050,-1059.5 C-1044.8580322265625,-1048.8199462890625 -1024,-1051 -997.5,-1054.5"></path></g></g></g></g></svg>