<svg xmlns="http://www.w3.org/2000/svg" viewBox="0 0 27 27" width="27" height="27" preserveAspectRatio="xMidYMid meet" style="width: 100%; height: 100%; transform: translate3d(0px, 0px, 0px); content-visibility: visible;"><defs><clipPath id="__lottie_element_646"><rect width="27" height="27" x="0" y="0"></rect></clipPath><mask id="__lottie_element_651" mask-type="alpha"><g transform="matrix(0.3330000042915344,0,0,0.3330000042915344,-10.816325187683105,-12.630681037902832)" opacity="1" style="display: block;"><path fill="rgb(255,0,0)" fill-opacity="1" d=" M106.8,78.7 C106.8,59.97 91.62,44.8 72.9,44.8 C54.18,44.8 39,59.97 39,78.7 C39,97.42 54.18,112.59 72.9,112.59 C91.62,112.59 106.8,97.42 106.8,78.7z"></path><g opacity="1" transform="matrix(0.8375200033187866,0,0,0.8375200033187866,72.9010009765625,78.69599914550781)"></g></g></mask><mask id="__lottie_element_657" mask-type="alpha"><g transform="matrix(0.3330000042915344,0,0,0.3330000042915344,-10.816325187683105,-12.630681037902832)" opacity="1" style="display: block;"><path fill="rgb(255,0,0)" fill-opacity="1" d=" M106.8,78.7 C106.8,59.97 91.62,44.8 72.9,44.8 C54.18,44.8 39,59.97 39,78.7 C39,97.42 54.18,112.59 72.9,112.59 C91.62,112.59 106.8,97.42 106.8,78.7z"></path><g opacity="1" transform="matrix(0.8375200033187866,0,0,0.8375200033187866,72.9010009765625,78.69599914550781)"></g></g></mask><mask id="__lottie_element_663" mask-type="alpha"><g transform="matrix(0.3330000042915344,0,0,0.3330000042915344,-10.816325187683105,-12.630681037902832)" opacity="1" style="display: block;"><path fill="rgb(255,0,0)" fill-opacity="1" d=" M106.8,78.7 C106.8,59.97 91.62,44.8 72.9,44.8 C54.18,44.8 39,59.97 39,78.7 C39,97.42 54.18,112.59 72.9,112.59 C91.62,112.59 106.8,97.42 106.8,78.7z"></path><g opacity="1" transform="matrix(0.8375200033187866,0,0,0.8375200033187866,72.9010009765625,78.69599914550781)"></g></g></mask><mask id="__lottie_element_669" mask-type="alpha"><g transform="matrix(0.3330000042915344,0,0,0.3330000042915344,-10.816325187683105,-12.630681037902832)" opacity="1" style="display: block;"><path fill="rgb(255,0,0)" fill-opacity="1" d=" M106.8,78.7 C106.8,59.97 91.62,44.8 72.9,44.8 C54.18,44.8 39,59.97 39,78.7 C39,97.42 54.18,112.59 72.9,112.59 C91.62,112.59 106.8,97.42 106.8,78.7z"></path><g opacity="1" transform="matrix(0.8375200033187866,0,0,0.8375200033187866,72.9010009765625,78.69599914550781)"></g></g></mask><mask id="__lottie_element_675" mask-type="alpha"><g transform="matrix(0.3330000042915344,0,0,0.3330000042915344,-10.816325187683105,-12.630681037902832)" opacity="1" style="display: block;"><path fill="rgb(255,0,0)" fill-opacity="1" d=" M106.8,78.7 C106.8,59.97 91.62,44.8 72.9,44.8 C54.18,44.8 39,59.97 39,78.7 C39,97.42 54.18,112.59 72.9,112.59 C91.62,112.59 106.8,97.42 106.8,78.7z"></path><g opacity="1" transform="matrix(0.8375200033187866,0,0,0.8375200033187866,72.9010009765625,78.69599914550781)"></g></g></mask><mask id="__lottie_element_681" mask-type="alpha"><g transform="matrix(0.3330000042915344,0,0,0.3330000042915344,-10.816325187683105,-12.630681037902832)" opacity="1" style="display: block;"><path fill="rgb(255,0,0)" fill-opacity="1" d=" M106.8,78.7 C106.8,59.97 91.62,44.8 72.9,44.8 C54.18,44.8 39,59.97 39,78.7 C39,97.42 54.18,112.59 72.9,112.59 C91.62,112.59 106.8,97.42 106.8,78.7z"></path><g opacity="1" transform="matrix(0.8375200033187866,0,0,0.8375200033187866,72.9010009765625,78.69599914550781)"></g></g></mask></defs><g clip-path="url(#__lottie_element_646)"><g mask="url(#__lottie_element_651)" style="display: block;"><g transform="matrix(0.3330000042915344,0,0,0.3330000042915344,-10.816325187683105,-12.630678176879883)" opacity="1"><g opacity="1" transform="matrix(1,0,0,1,80.60700225830078,58.000999450683594)"><path fill="rgb(77,67,95)" fill-opacity="1" d=" M28.673999786376953,9.020000457763672 C28.673999786376953,9.020000457763672 -22.007999420166016,9.020000457763672 -22.007999420166016,9.020000457763672 C-22.007999420166016,9.020000457763672 -22.007999420166016,-28.101999282836914 -22.007999420166016,-28.101999282836914 C-22.007999420166016,-28.101999282836914 28.673999786376953,-28.101999282836914 28.673999786376953,-28.101999282836914 C28.673999786376953,-28.101999282836914 28.673999786376953,9.020000457763672 28.673999786376953,9.020000457763672z"></path></g><g opacity="1" transform="matrix(1,0,0,1,83.94000244140625,48.459999084472656)"><path stroke-linecap="butt" stroke-linejoin="miter" fill-opacity="0" stroke-miterlimit="10" stroke="rgb(141,124,142)" stroke-opacity="1" stroke-width="5" d=" M25.340999603271484,18.56100082397461 C25.340999603271484,18.56100082397461 -25.340999603271484,18.56100082397461 -25.340999603271484,18.56100082397461 C-25.340999603271484,18.56100082397461 -25.340999603271484,-18.56100082397461 -25.340999603271484,-18.56100082397461 C-25.340999603271484,-18.56100082397461 25.340999603271484,-18.56100082397461 25.340999603271484,-18.56100082397461 C25.340999603271484,-18.56100082397461 25.340999603271484,18.56100082397461 25.340999603271484,18.56100082397461z"></path></g></g></g><g mask="url(#__lottie_element_657)" style="display: block;"><g transform="matrix(0.3330000042915344,0,0,0.3330000042915344,-10.816327095031738,-12.630678176879883)" opacity="1"><g opacity="1" transform="matrix(1,0,0,1,62.24300003051758,67.03800201416016)"><path fill="rgb(77,67,95)" fill-opacity="1" d=" M19.055999755859375,-25.615999221801758 C19.055999755859375,-25.615999221801758 -6.660999774932861,18.05699920654297 -6.660999774932861,18.05699920654297 C-6.660999774932861,18.05699920654297 -38.64899826049805,-0.7799999713897705 -38.64899826049805,-0.7799999713897705 C-38.64899826049805,-0.7799999713897705 -12.932000160217285,-44.45199966430664 -12.932000160217285,-44.45199966430664 C-12.932000160217285,-44.45199966430664 19.055999755859375,-25.615999221801758 19.055999755859375,-25.615999221801758z"></path></g><g opacity="1" transform="matrix(1,0,0,1,52.446998596191406,53.840999603271484)"><path stroke-linecap="butt" stroke-linejoin="miter" fill-opacity="0" stroke-miterlimit="10" stroke="rgb(141,124,142)" stroke-opacity="1" stroke-width="5" d=" M28.85300064086914,-12.418999671936035 C28.85300064086914,-12.418999671936035 3.134999990463257,31.2549991607666 3.134999990463257,31.2549991607666 C3.134999990463257,31.2549991607666 -28.85300064086914,12.418000221252441 -28.85300064086914,12.418000221252441 C-28.85300064086914,12.418000221252441 -3.134999990463257,-31.2549991607666 -3.134999990463257,-31.2549991607666 C-3.134999990463257,-31.2549991607666 28.85300064086914,-12.418999671936035 28.85300064086914,-12.418999671936035z"></path></g></g></g><g mask="url(#__lottie_element_663)" style="display: block;"><g transform="matrix(0.3330000042915344,0,0,0.3330000042915344,-10.816327095031738,-12.630681037902832)" opacity="1"><g opacity="1" transform="matrix(1,0,0,1,56.5,80.62100219726562)"><path fill="rgb(77,67,95)" fill-opacity="1" d=" M-11.725000381469727,-27.788000106811523 C-11.725000381469727,-27.788000106811523 13.312999725341797,16.275999069213867 13.312999725341797,16.275999069213867 C13.312999725341797,16.275999069213867 -18.961000442504883,34.61600112915039 -18.961000442504883,34.61600112915039 C-18.961000442504883,34.61600112915039 -44,-9.447999954223633 -44,-9.447999954223633 C-44,-9.447999954223633 -11.725000381469727,-27.788000106811523 -11.725000381469727,-27.788000106811523z"></path></g><g opacity="1" transform="matrix(1,0,0,1,41.15700149536133,84.03600311279297)"><path stroke-linecap="butt" stroke-linejoin="miter" fill-opacity="0" stroke-miterlimit="10" stroke="rgb(141,124,142)" stroke-opacity="1" stroke-width="5" d=" M3.618000030517578,-31.20199966430664 C3.618000030517578,-31.20199966430664 28.656999588012695,12.862000465393066 28.656999588012695,12.862000465393066 C28.656999588012695,12.862000465393066 -3.618000030517578,31.20199966430664 -3.618000030517578,31.20199966430664 C-3.618000030517578,31.20199966430664 -28.656999588012695,-12.862000465393066 -28.656999588012695,-12.862000465393066 C-28.656999588012695,-12.862000465393066 3.618000030517578,-31.20199966430664 3.618000030517578,-31.20199966430664z"></path></g></g></g><g mask="url(#__lottie_element_669)" style="display: block;"><g transform="matrix(0.3330000042915344,0,0,0.3330000042915344,-10.816325187683105,-12.630678176879883)" opacity="1"><g opacity="1" transform="matrix(1,0,0,1,65.16400146484375,99.2959976196289)"><path fill="rgb(77,67,95)" fill-opacity="1" d=" M-28.70400047302246,-9.11299991607666 C-28.70400047302246,-9.11299991607666 21.976999282836914,-8.85099983215332 21.976999282836914,-8.85099983215332 C21.976999282836914,-8.85099983215332 21.785999298095703,28.270000457763672 21.785999298095703,28.270000457763672 C21.785999298095703,28.270000457763672 -28.895000457763672,28.009000778198242 -28.895000457763672,28.009000778198242 C-28.895000457763672,28.009000778198242 -28.70400047302246,-9.11299991607666 -28.70400047302246,-9.11299991607666z"></path></g><g opacity="1" transform="matrix(1,0,0,1,61.70399856567383,108.875)"><path stroke-linecap="butt" stroke-linejoin="miter" fill-opacity="0" stroke-miterlimit="10" stroke="rgb(141,124,142)" stroke-opacity="1" stroke-width="5" d=" M-25.2450008392334,-18.69099998474121 C-25.2450008392334,-18.69099998474121 25.43600082397461,-18.43000030517578 25.43600082397461,-18.43000030517578 C25.43600082397461,-18.43000030517578 25.2450008392334,18.69099998474121 25.2450008392334,18.69099998474121 C25.2450008392334,18.69099998474121 -25.43600082397461,18.43000030517578 -25.43600082397461,18.43000030517578 C-25.43600082397461,18.43000030517578 -25.2450008392334,-18.69099998474121 -25.2450008392334,-18.69099998474121z"></path></g></g></g><g mask="url(#__lottie_element_675)" style="display: block;"><g transform="matrix(0.3330000042915344,0,0,0.3330000042915344,-10.816327095031738,-12.630678176879883)" opacity="1"><g opacity="1" transform="matrix(1,0,0,1,83.64299774169922,90.30899810791016)"><path fill="rgb(77,67,95)" fill-opacity="1" d=" M-18.972000122070312,25.691999435424805 C-18.972000122070312,25.691999435424805 6.539999961853027,-18.100000381469727 6.539999961853027,-18.100000381469727 C6.539999961853027,-18.100000381469727 38.61600112915039,0.5860000252723694 38.61600112915039,0.5860000252723694 C38.61600112915039,0.5860000252723694 13.104000091552734,44.37799835205078 13.104000091552734,44.37799835205078 C13.104000091552734,44.37799835205078 -18.972000122070312,25.691999435424805 -18.972000122070312,25.691999435424805z"></path></g><g opacity="1" transform="matrix(1,0,0,1,93.46600341796875,103.4469985961914)"><path stroke-linecap="butt" stroke-linejoin="miter" fill-opacity="0" stroke-miterlimit="10" stroke="rgb(141,124,142)" stroke-opacity="1" stroke-width="5" d=" M-28.79400062561035,12.553000450134277 C-28.79400062561035,12.553000450134277 -3.2820000648498535,-31.23900032043457 -3.2820000648498535,-31.23900032043457 C-3.2820000648498535,-31.23900032043457 28.79400062561035,-12.553000450134277 28.79400062561035,-12.553000450134277 C28.79400062561035,-12.553000450134277 3.2820000648498535,31.23900032043457 3.2820000648498535,31.23900032043457 C3.2820000648498535,31.23900032043457 -28.79400062561035,12.553000450134277 -28.79400062561035,12.553000450134277z"></path></g></g></g><g mask="url(#__lottie_element_681)" style="display: block;"><g transform="matrix(0.3330000042915344,0,0,0.3330000042915344,-10.816327095031738,-12.630681037902832)" opacity="1"><g opacity="1" transform="matrix(1,0,0,1,91.13400268554688,85.71700286865234)"><path fill="rgb(77,67,95)" fill-opacity="1" d=" M10.02299976348877,18.695999145507812 C10.02299976348877,18.695999145507812 -11.479999542236328,-18.695999145507812 -11.479999542236328,-18.695999145507812 C-11.479999542236328,-18.695999145507812 27.347000122070312,-18.695999145507812 27.347000122070312,-18.695999145507812 C27.347000122070312,-18.695999145507812 42.202999114990234,0.19099999964237213 42.202999114990234,0.19099999964237213 C42.202999114990234,0.19099999964237213 10.02299976348877,18.695999145507812 10.02299976348877,18.695999145507812z"></path></g><g opacity="1" transform="matrix(1,0,0,1,106.49600219726562,85.71700286865234)"><path stroke-linecap="butt" stroke-linejoin="miter" fill-opacity="0" stroke-miterlimit="10" stroke="rgb(141,124,142)" stroke-opacity="1" stroke-width="5" d=" M-5.3379998207092285,18.695999145507812 C-5.3379998207092285,18.695999145507812 -26.841999053955078,-18.695999145507812 -26.841999053955078,-18.695999145507812 C-26.841999053955078,-18.695999145507812 11.986000061035156,-18.695999145507812 11.986000061035156,-18.695999145507812 C11.986000061035156,-18.695999145507812 26.841999053955078,0.19099999964237213 26.841999053955078,0.19099999964237213 C26.841999053955078,0.19099999964237213 -5.3379998207092285,18.695999145507812 -5.3379998207092285,18.695999145507812z"></path></g></g></g><g transform="matrix(0.3330000042915344,0,0,0.3330000042915344,-10.816325187683105,-12.630681037902832)" opacity="1" style="display: block;"><g opacity="1" transform="matrix(0.8375200033187866,0,0,0.8375200033187866,72.9010009765625,78.69599914550781)"><path stroke-linecap="butt" stroke-linejoin="miter" fill-opacity="0" stroke-miterlimit="4" stroke="rgb(176,154,166)" stroke-opacity="1" stroke-width="15" d=" M40.472999572753906,-0.0010000000474974513 C40.472999572753906,-22.35300064086914 22.351999282836914,-40.472999572753906 0,-40.472999572753906 C-22.35300064086914,-40.472999572753906 -40.472999572753906,-22.35300064086914 -40.472999572753906,-0.0010000000474974513 C-40.472999572753906,22.351999282836914 -22.35300064086914,40.472999572753906 0,40.472999572753906 C22.351999282836914,40.472999572753906 40.472999572753906,22.351999282836914 40.472999572753906,-0.0010000000474974513z"></path></g></g></g></svg>