<svg xmlns="http://www.w3.org/2000/svg" viewBox="0 0 58 82" width="58" height="82" preserveAspectRatio="xMidYMid meet" style="width: 100%; height: 100%; transform: translate3d(0px, 0px, 0px); content-visibility: visible;"><defs><clipPath id="__lottie_element_4688"><rect width="58" height="82" x="0" y="0"></rect></clipPath></defs><g clip-path="url(#__lottie_element_4688)"><g transform="matrix(0.46661999821662903,0,0,0.46661999821662903,8.835416793823242,6.403660297393799)" opacity="1" style="display: block;"><g opacity="1" transform="matrix(1,0,0,1,25.559999465942383,82.98799896240234)"><path fill="rgb(214,124,42)" fill-opacity="1" d=" M16.288000106811523,8.652000427246094 C8.597999572753906,8.652000427246094 2.697999954223633,4.866000175476074 1.5880000591278076,3.5 C0.9570000171661377,0.3700000047683716 -0.5580000281333923,-2.368000030517578 -2.0250000953674316,-5.019000053405762 C-3.0940001010894775,-6.948999881744385 -4.117000102996826,-8.79800033569336 -4.651000022888184,-10.57699966430664 C-4.702000141143799,-11.26099967956543 -4.749000072479248,-11.954999923706055 -4.7829999923706055,-12.675000190734863 C-4.9029998779296875,-15.225000381469727 -5.479000091552734,-17.30299949645996 -6.539999961853027,-19.027999877929688 C-8.776000022888184,-22.65999984741211 -12.982000350952148,-23.812000274658203 -17.020000457763672,-23.270999908447266 C-18.086999893188477,-23.128000259399414 -19.1560001373291,-22.628999710083008 -19.73900032043457,-21.724000930786133 C-20.250999450683594,-20.930999755859375 -20.32699966430664,-19.905000686645508 -20.066999435424805,-18.996999740600586 C-19.80699920654297,-18.09000015258789 -19.236000061035156,-17.295000076293945 -18.552000045776367,-16.645000457763672 C-21.804000854492188,-12.781000137329102 -16.47599983215332,-9.032999992370605 -12.788000106811523,-9.909000396728516 C-12.66100025177002,-8.057000160217285 -12.430999755859375,-5.734000205993652 -11.956000328063965,-3.2009999752044678 C-10.788000106811523,8.732999801635742 -3.8440001010894775,19.808000564575195 3.7799999713897705,23.53499984741211 C4.164000034332275,23.722999572753906 4.572999954223633,23.812000274658203 4.974999904632568,23.812000274658203 C5.506999969482422,23.812000274658203 12.60200023651123,23.55699920654297 15.868000030517578,19.777000427246094 C21.804000854492188,12.906000137329102 16.99799919128418,8.652000427246094 16.288000106811523,8.652000427246094z"></path></g><g opacity="1" transform="matrix(1,0,0,1,20.767000198364258,85.15899658203125)"><path stroke-linecap="round" stroke-linejoin="round" fill-opacity="0" stroke="rgb(162,86,24)" stroke-opacity="1" stroke-width="5.982" d=" M5.811999797821045,-3.1549999713897705 C2.2769999504089355,1.9819999933242798 -2.930999994277954,3.1549999713897705 -5.811999797821045,2.997999906539917"></path></g></g><g transform="matrix(0.46661999821662903,0,0,0.46661999821662903,8.835416793823242,6.403660297393799)" opacity="1" style="display: block;"><g opacity="1" transform="matrix(1,0,0,1,73.64299774169922,120.18199920654297)"><path fill="rgb(214,124,42)" fill-opacity="1" d=" M22.207000732421875,18.944000244140625 C22.207000732421875,18.917999267578125 22.204999923706055,18.892000198364258 22.20400047302246,18.864999771118164 C22.106000900268555,14.8100004196167 19.202999114990234,11.442000389099121 16.256999969482422,8.928999900817871 C16.014999389648438,8.722000122070312 15.696999549865723,8.45199966430664 15.538000106811523,8.291000366210938 C14.942000389099121,2.9579999446868896 13.795000076293945,-1.4229999780654907 12.300999641418457,-5.050000190734863 C11.154999732971191,-8.690999984741211 9.359999656677246,-12.279999732971191 6.966000080108643,-15.53499984741211 C2.305999994277954,-21.87299919128418 -3.811000108718872,-26.04800033569336 -10.402000427246094,-26.04800033569336 C-11.918000221252441,-26.04800033569336 -22.5310001373291,-9.057999610900879 -21.04800033569336,-9.295000076293945 C-8.38700008392334,-11.184000015258789 1.49399995803833,-5.5320000648498535 6.064000129699707,6.208000183105469 C6.7769999504089355,8.039999961853027 6.78000020980835,9.345000267028809 6.783999919891357,10.72599983215332 C6.789999961853027,13.04699993133545 6.795000076293945,15.678999900817871 9.996000289916992,19.10099983215332 C10.734000205993652,19.892000198364258 12.211000442504883,19.465999603271484 12.66100025177002,20.0939998626709 C12.883999824523926,20.406999588012695 12.883000373840332,20.82200050354004 12.871999740600586,21.20599937438965 C12.838000297546387,22.485000610351562 12.168000221252441,24.485000610351562 13.28499984741211,25.44099998474121 C13.845999717712402,25.92099952697754 14.692999839782715,26.035999298095703 15.362000465393066,25.724000930786133 C16.315000534057617,25.277999877929688 16.733999252319336,24.174999237060547 17.06100082397461,23.174999237060547 C17.222999572753906,23.944000244140625 17.538999557495117,24.707000732421875 18.111000061035156,25.243999481201172 C18.684999465942383,25.7810001373291 19.55299949645996,26.04800033569336 20.284000396728516,25.761999130249023 C22.5310001373291,24.881000518798828 22.249000549316406,20.77899932861328 22.207000732421875,18.944000244140625z"></path></g><g opacity="1" transform="matrix(1,0,0,1,82.822998046875,120.10800170898438)"><path stroke-linecap="round" stroke-linejoin="round" fill-opacity="0" stroke="rgb(162,86,24)" stroke-opacity="1" stroke-width="5.982" d=" M5.048999786376953,-2.131999969482422 C2.806999921798706,0.8700000047683716 -1.4220000505447388,2.131999969482422 -5.048999786376953,2.131999969482422"></path></g></g><g transform="matrix(0.46661999821662903,0,0,0.46661999821662903,8.835416793823242,6.403660297393799)" opacity="1" style="display: block;"><g opacity="1" transform="matrix(1,0,0,1,52.20000076293945,119.98100280761719)"><path fill="rgb(214,124,42)" fill-opacity="1" d=" M11.472000122070312,24.67300033569336 C13.692999839782715,20.36199951171875 14.604000091552734,15.392000198364258 14.081000328063965,10.571999549865723 C14.027999877929688,10.081999778747559 13.960000038146973,9.593000411987305 13.876999855041504,9.107000350952148 C13.758999824523926,8.414999961853027 13.612000465393066,7.705999851226807 13.755999565124512,7.019000053405762 C13.956000328063965,6.068999767303467 14.673999786376953,5.328000068664551 15.329999923706055,4.611999988555908 C19.211000442504883,0.38199999928474426 21.70400047302246,-4.928999900817871 22.68600082397461,-10.592000007629395 C23.81999969482422,-17.125 20.781999588012695,-22.84000015258789 15.454000473022461,-24.084999084472656 C12.937000274658203,-24.673999786376953 10.347999572753906,-24.3799991607666 7.797999858856201,-24.086000442504883 C7.797999858856201,-24.086000442504883 -7.798999786376953,-24.086000442504883 -7.798999786376953,-24.086000442504883 C-10.347999572753906,-24.3799991607666 -12.939000129699707,-24.673999786376953 -15.454999923706055,-24.084999084472656 C-20.783000946044922,-22.84000015258789 -23.81999969482422,-17.125 -22.687000274658203,-10.592000007629395 C-21.70400047302246,-4.928999900817871 -19.211999893188477,0.38199999928474426 -15.331000328063965,4.611999988555908 C-14.673999786376953,5.328000068664551 -13.956000328063965,6.068999767303467 -13.756999969482422,7.019000053405762 C-13.612000465393066,7.705999851226807 -13.758999824523926,8.414999961853027 -13.878000259399414,9.107000350952148 C-13.961000442504883,9.593000411987305 -14.029000282287598,10.081999778747559 -14.083000183105469,10.571999549865723 C-14.605999946594238,15.392000198364258 -13.694000244140625,20.36199951171875 -11.472000122070312,24.67300033569336 C-11.472000122070312,24.67300033569336 11.472000122070312,24.67300033569336 11.472000122070312,24.67300033569336z"></path></g><g opacity="1" transform="matrix(1,0,0,1,48.222999572753906,118.40699768066406)"><path fill="rgb(162,86,24)" fill-opacity="1" d=" M22.909000396728516,-14.116000175476074 C24.238000869750977,-10.491999626159668 23.85700035095215,-4.955999851226807 21.900999069213867,-1.628999948501587 C19.944000244140625,1.6970000267028809 16.450000762939453,4.973999977111816 12.63700008392334,5.572999954223633 C13.196999549865723,8.29699993133545 12.324999809265137,11.274999618530273 10.383000373840332,13.265999794006348 C9.013999938964844,14.668999671936035 7.140999794006348,15.538999557495117 5.197000026702881,15.767000198364258 C5.199999809265137,15.748000144958496 5.203000068664551,15.729999542236328 5.205999851226807,15.711000442504883 C4.879000186920166,15.770000457763672 4.546999931335449,15.805000305175781 4.216000080108643,15.824000358581543 C4.136000156402588,15.824000358581543 4.057000160217285,15.829000473022461 3.9779999256134033,15.82699966430664 C3.8980000019073486,15.829000473022461 3.818000078201294,15.824000358581543 3.73799991607666,15.824000358581543 C3.4070000648498535,15.805000305175781 3.0759999752044678,15.770000457763672 2.749000072479248,15.711000442504883 C2.752000093460083,15.729999542236328 2.755000114440918,15.748000144958496 2.757999897003174,15.767000198364258 C0.8140000104904175,15.538999557495117 -1.059999942779541,14.668999671936035 -2.427999973297119,13.265999794006348 C-4.369999885559082,11.274999618530273 -5.242000102996826,8.29699993133545 -4.682000160217285,5.572999954223633 C-8.494999885559082,4.973999977111816 -11.989999771118164,1.6970000267028809 -13.946999549865723,-1.628999948501587 C-15.904000282287598,-4.955999851226807 -16.281999588012695,-10.491999626159668 -14.95300006866455,-14.116000175476074 C-22.716999053955078,-15.682999610900879 -28.64699935913086,-21.361000061035156 -31.28499984741211,-26.246999740600586 C-28.30699920654297,-19.625999450683594 -23.76099967956543,-14.293999671936035 -18.93199920654297,-11.91100025177002 C-18.94499969482422,-10.972999572753906 -18.8799991607666,-10.006999969482422 -18.70800018310547,-9.017999649047852 C-17.72599983215332,-3.3559999465942383 -15.234999656677246,1.9550000429153442 -11.354000091552734,6.184999942779541 C-10.696999549865723,6.901000022888184 -9.979999542236328,7.642000198364258 -9.779999732971191,8.592000007629395 C-9.635000228881836,9.279000282287598 -9.782999992370605,9.98799991607666 -9.901000022888184,10.680000305175781 C-9.984000205993652,11.166999816894531 -10.050999641418457,11.654999732971191 -10.104000091552734,12.145999908447266 C-10.626999855041504,16.96500015258789 -9.715999603271484,21.937000274658203 -7.494999885559082,26.246999740600586 C-7.494999885559082,26.246999740600586 3.3489999771118164,26.246999740600586 3.3489999771118164,26.246999740600586 C3.3489999771118164,26.246999740600586 4.605000019073486,26.246999740600586 4.605000019073486,26.246999740600586 C4.605000019073486,26.246999740600586 15.449000358581543,26.246999740600586 15.449000358581543,26.246999740600586 C17.670000076293945,21.937000274658203 18.582000732421875,16.96500015258789 18.05900001525879,12.145999908447266 C18.006000518798828,11.654999732971191 17.937999725341797,11.166999816894531 17.854999542236328,10.680000305175781 C17.73699951171875,9.98799991607666 17.589000701904297,9.279000282287598 17.733999252319336,8.592000007629395 C17.933000564575195,7.642000198364258 18.652000427246094,6.901000022888184 19.30900001525879,6.184999942779541 C21.576000213623047,3.7149999141693115 23.35300064086914,0.8679999709129333 24.648000717163086,-2.194999933242798 C26.847999572753906,-0.22599999606609344 28.722000122070312,2.2320001125335693 30.21500015258789,5.15500020980835 C30.281999588012695,4.764999866485596 30.339000701904297,4.374000072479248 30.413000106811523,3.984999895095825 C31.28499984741211,-0.5849999785423279 25.44499969482422,-14.628000259399414 22.909000396728516,-14.116000175476074z"></path></g></g><g transform="matrix(0.46661999821662903,0,0,0.46661999821662903,8.835416793823242,6.403660297393799)" opacity="1" style="display: block;"><g opacity="1" transform="matrix(1,0,0,1,52.20000076293945,146.62399291992188)"><path fill="rgb(250,175,58)" fill-opacity="1" d=" M26.466999053955078,-8.440999984741211 C26.07200050354004,-12.26200008392334 13.071999549865723,-14.58899974822998 0,-14.541000366210938 C-13.071999549865723,-14.58899974822998 -26.07200050354004,-12.26200008392334 -26.466999053955078,-8.440999984741211 C-27.687000274658203,3.371999979019165 -14.87399959564209,14.58899974822998 0,14.58899974822998 C14.875,14.58899974822998 27.687000274658203,3.371999979019165 26.466999053955078,-8.440999984741211z"></path></g><g opacity="1" transform="matrix(1,0,0,1,52.20000076293945,148.6719970703125)"><path fill="rgb(162,86,24)" fill-opacity="1" d=" M26.520999908447266,-9.684000015258789 C21.02899932861328,-11.505999565124512 10.538000106811523,-12.539999961853027 -0.0010000000474974513,-12.510000228881836 C-10.538999557495117,-12.539999961853027 -21.027999877929688,-11.505999565124512 -26.520000457763672,-9.684000015258789 C-27.0939998626709,1.8289999961853027 -14.536999702453613,12.541000366210938 -0.0010000000474974513,12.541000366210938 C14.53600025177002,12.541000366210938 27.094999313354492,1.8289999961853027 26.520999908447266,-9.684000015258789z"></path></g></g><g transform="matrix(0.46661999821662903,0,0,0.46661999821662903,8.835416793823242,6.403660297393799)" opacity="1" style="display: block;"><g opacity="1" transform="matrix(1,0,0,1,58.24599838256836,91.88600158691406)"><path fill="rgb(250,175,58)" fill-opacity="1" d=" M8.536999702453613,13.755999565124512 C5.390999794006348,10.680999755859375 5.763999938964844,-0.2160000056028366 6.2129998207092285,-5.314000129699707 C6.34499979019165,-6.814000129699707 5.978000164031982,-13.755999565124512 -0.9549999833106995,-12.38599967956543 C-0.9549999833106995,-12.38599967956543 -8.536999702453613,4.4019999504089355 -8.536999702453613,4.4019999504089355 C-8.536999702453613,4.4019999504089355 8.536999702453613,13.755999565124512 8.536999702453613,13.755999565124512z"></path></g><g opacity="1" transform="matrix(1,0,0,1,46.15399932861328,91.88600158691406)"><path fill="rgb(250,175,58)" fill-opacity="1" d=" M-8.53600025177002,13.755999565124512 C-5.389999866485596,10.680999755859375 -5.764999866485596,-0.2160000056028366 -6.214000225067139,-5.314000129699707 C-6.3460001945495605,-6.814000129699707 -5.979000091552734,-13.755999565124512 0.9539999961853027,-12.38599967956543 C0.9539999961853027,-12.38599967956543 8.53600025177002,4.4019999504089355 8.53600025177002,4.4019999504089355 C8.53600025177002,4.4019999504089355 -8.53600025177002,13.755999565124512 -8.53600025177002,13.755999565124512z"></path></g><g opacity="1" transform="matrix(1,0,0,1,58.37799835205078,74.8010025024414)"><path fill="rgb(214,124,42)" fill-opacity="1" d=" M8.550000190734863,-7.341000080108643 C8.550000190734863,-7.341000080108643 8.550000190734863,-7.341000080108643 8.550000190734863,-7.341000080108643 C8.972999572753906,-6.818999767303467 8.932999610900879,-6.047999858856201 8.456000328063965,-5.515999794006348 C8.456000328063965,-5.515999794006348 -3.6549999713897705,7.984000205993652 -3.6549999713897705,7.984000205993652 C-3.6549999713897705,7.984000205993652 -8.972999572753906,1.4190000295639038 -8.972999572753906,1.4190000295639038 C-8.972999572753906,1.4190000295639038 6.745999813079834,-7.627999782562256 6.745999813079834,-7.627999782562256 C7.364999771118164,-7.984000205993652 8.126999855041504,-7.86299991607666 8.550000190734863,-7.341000080108643z"></path></g><g opacity="1" transform="matrix(1,0,0,1,52.20000076293945,67.43199920654297)"><path fill="rgb(214,124,42)" fill-opacity="1" d=" M0,-10.659000396728516 C0,-10.659000396728516 0,-10.659000396728516 0,-10.659000396728516 C-0.7490000128746033,-10.659000396728516 -1.3890000581741333,-10.083000183105469 -1.5140000581741333,-9.29699993133545 C-1.5140000581741333,-9.29699993133545 -4.708000183105469,10.659000396728516 -4.708000183105469,10.659000396728516 C-4.708000183105469,10.659000396728516 4.708000183105469,10.659000396728516 4.708000183105469,10.659000396728516 C4.708000183105469,10.659000396728516 1.5140000581741333,-9.29699993133545 1.5140000581741333,-9.29699993133545 C1.3890000581741333,-10.083000183105469 0.7490000128746033,-10.659000396728516 0,-10.659000396728516z"></path></g><g opacity="1" transform="matrix(1,0,0,1,46.02199935913086,74.8010025024414)"><path fill="rgb(214,124,42)" fill-opacity="1" d=" M-8.550000190734863,-7.341000080108643 C-8.550000190734863,-7.341000080108643 -8.550000190734863,-7.341000080108643 -8.550000190734863,-7.341000080108643 C-8.972999572753906,-6.818999767303467 -8.932999610900879,-6.047999858856201 -8.456000328063965,-5.515999794006348 C-8.456000328063965,-5.515999794006348 3.6549999713897705,7.984000205993652 3.6549999713897705,7.984000205993652 C3.6549999713897705,7.984000205993652 8.972999572753906,1.4190000295639038 8.972999572753906,1.4190000295639038 C8.972999572753906,1.4190000295639038 -6.745999813079834,-7.627999782562256 -6.745999813079834,-7.627999782562256 C-7.363999843597412,-7.984000205993652 -8.126999855041504,-7.86299991607666 -8.550000190734863,-7.341000080108643z"></path></g><g opacity="1" transform="matrix(1,0,0,1,43.01499938964844,80.62899780273438)"><path fill="rgb(214,124,42)" fill-opacity="1" d=" M-9.319000244140625,0 C-9.319000244140625,0 -9.319000244140625,0 -9.319000244140625,0 C-9.319000244140625,0.6549999713897705 -8.817000389099121,1.2139999866485596 -8.130000114440918,1.3240000009536743 C-8.130000114440918,1.3240000009536743 9.319000244140625,4.116000175476074 9.319000244140625,4.116000175476074 C9.319000244140625,4.116000175476074 9.319000244140625,-4.116000175476074 9.319000244140625,-4.116000175476074 C9.319000244140625,-4.116000175476074 -8.130000114440918,-1.3240000009536743 -8.130000114440918,-1.3240000009536743 C-8.817000389099121,-1.2139999866485596 -9.319000244140625,-0.6549999713897705 -9.319000244140625,0z"></path></g><g opacity="1" transform="matrix(1,0,0,1,61.3849983215332,80.62899780273438)"><path fill="rgb(214,124,42)" fill-opacity="1" d=" M9.319999694824219,0 C9.319999694824219,0 9.319999694824219,0 9.319999694824219,0 C9.319999694824219,0.6549999713897705 8.817000389099121,1.2139999866485596 8.130000114440918,1.3240000009536743 C8.130000114440918,1.3240000009536743 -9.319999694824219,4.116000175476074 -9.319999694824219,4.116000175476074 C-9.319999694824219,4.116000175476074 -9.319999694824219,-4.116000175476074 -9.319999694824219,-4.116000175476074 C-9.319999694824219,-4.116000175476074 8.130000114440918,-1.3240000009536743 8.130000114440918,-1.3240000009536743 C8.817000389099121,-1.2139999866485596 9.319999694824219,-0.6549999713897705 9.319999694824219,0z"></path></g><g opacity="1" transform="matrix(1,0,0,1,50.6150016784668,113.00900268554688)"><path fill="rgb(162,86,24)" fill-opacity="1" d=" M-7.336999893188477,-7.822999954223633 C-10.213000297546387,-6.197999954223633 -13.09000015258789,-4.573999881744385 -15.967000007629395,-2.9489998817443848 C-16.16900062561035,-2.8350000381469727 -16.391000747680664,-2.696000099182129 -16.444000244140625,-2.4700000286102295 C-16.53700065612793,-2.0769999027252197 -16.082000732421875,-1.7920000553131104 -15.699000358581543,-1.6629999876022339 C-12.64900016784668,-0.6330000162124634 -9.343999862670898,-0.7789999842643738 -6.127999782562256,-0.9350000023841858 C-6.835000038146973,1.659000039100647 -7.215000152587891,4.3420000076293945 -7.260000228881836,7.03000020980835 C-7.267000198364258,7.4039998054504395 -7.252999782562256,7.816999912261963 -6.997000217437744,8.09000015258789 C-6.7729997634887695,8.329999923706055 -6.420000076293945,8.395999908447266 -6.091000080108643,8.42300033569336 C-3.368000030517578,8.64799976348877 -0.8169999718666077,7.201000213623047 1.5329999923706055,5.803999900817871 C2.7669999599456787,7.702000141143799 4.184000015258789,9.480999946594238 5.756999969482422,11.109000205993652 C6.25600004196167,11.625 7.119999885559082,11.473999977111816 7.451000213623047,10.836999893188477 C9.244999885559082,7.369999885559082 9.57699966430664,3.1559998989105225 8.289999961853027,-0.5350000262260437 C10.152999877929688,1.0470000505447388 12.241000175476074,2.36299991607666 14.470999717712402,3.36299991607666 C14.880000114440918,3.5460000038146973 15.366000175476074,3.3489999771118164 15.54800033569336,2.940000057220459 C16.535999298095703,0.7179999947547913 15.8149995803833,-2.052999973297119 14.633000373840332,-4.258999824523926 C13.319000244140625,-6.709000110626221 11.475000381469727,-8.932000160217285 10.788999557495117,-11.62600040435791 C10.788999557495117,-11.62600040435791 -7.336999893188477,-7.822999954223633 -7.336999893188477,-7.822999954223633z"></path></g><g opacity="1" transform="matrix(1,0,0,1,52.20000076293945,89.322998046875)"><path fill="rgb(214,124,42)" fill-opacity="1" d=" M9.428999900817871,-3.509000062942505 C9.428999900817871,-10.321000099182129 5.206999778747559,-12.333000183105469 0,-12.333000183105469 C-5.208000183105469,-12.333000183105469 -9.428999900817871,-10.321000099182129 -9.428999900817871,-3.509000062942505 C-9.428999900817871,3.302999973297119 -5.208000183105469,12.333000183105469 0,12.333000183105469 C5.206999778747559,12.333000183105469 9.428999900817871,3.302999973297119 9.428999900817871,-3.509000062942505z"></path></g><g opacity="1" transform="matrix(1,0,0,1,47.178001403808594,84.86299896240234)"><path fill="rgb(162,86,24)" fill-opacity="1" d=" M-0.45399999618530273,-3.450000047683716 C-1.8530000448226929,-3.450000047683716 -3.1059999465942383,-3.0250000953674316 -3.993000030517578,-2.3540000915527344 C-4.26200008392334,-1.4040000438690186 -4.4079999923706055,-0.3089999854564667 -4.4079999923706055,0.9509999752044678 C-4.4079999923706055,1.3049999475479126 -4.390999794006348,1.6679999828338623 -4.368000030517578,2.0320000648498535 C-3.4830000400543213,2.888000011444092 -2.065000057220459,3.450000047683716 -0.45399999618530273,3.450000047683716 C2.2320001125335693,3.450000047683716 4.4079999923706055,1.9049999713897705 4.4079999923706055,0 C4.4079999923706055,-1.906000018119812 2.2320001125335693,-3.450000047683716 -0.45399999618530273,-3.450000047683716z"></path></g><g opacity="1" transform="matrix(1,0,0,1,57.22100067138672,84.86299896240234)"><path fill="rgb(162,86,24)" fill-opacity="1" d=" M-4.4079999923706055,0 C-4.4079999923706055,1.9049999713897705 -2.2309999465942383,3.450000047683716 0.45500001311302185,3.450000047683716 C2.065999984741211,3.450000047683716 3.4830000400543213,2.888000011444092 4.367000102996826,2.0320000648498535 C4.389999866485596,1.6670000553131104 4.4079999923706055,1.3049999475479126 4.4079999923706055,0.9509999752044678 C4.4079999923706055,-0.3100000023841858 4.26200008392334,-1.4040000438690186 3.993000030517578,-2.3540000915527344 C3.1059999465942383,-3.0250000953674316 1.8539999723434448,-3.450000047683716 0.45500001311302185,-3.450000047683716 C-2.2309999465942383,-3.450000047683716 -4.4079999923706055,-1.906000018119812 -4.4079999923706055,0z"></path></g><g opacity="1" transform="matrix(1,0,0,1,50.44599914550781,105.50499725341797)"><path fill="rgb(250,175,58)" fill-opacity="1" d=" M2.384999990463257,9.840999603271484 C7.690000057220459,7.98799991607666 10.4350004196167,2.134000062942505 12.968999862670898,-2.052999973297119 C14.894000053405762,-5.23199987411499 14.894000053405762,-9.241000175476074 12.612000465393066,-12.201000213623047 C9.696999549865723,-15.982999801635742 5.4029998779296875,-15.20300006866455 1.753999948501587,-12.946000099182129 C1.680999994277954,-12.901000022888184 -1.4889999628067017,-14.461999893188477 -1.9259999990463257,-14.569999694824219 C-3.2060000896453857,-14.885000228881836 -4.559999942779541,-14.958999633789062 -5.834000110626221,-14.567999839782715 C-8.154000282287598,-13.855999946594238 -10.649999618530273,-11.699000358581543 -11.416000366210938,-9.51099967956543 C-11.913999557495117,-8.08899974822998 -11.970999717712402,-6.563000202178955 -11.89799976348877,-5.067999839782715 C-11.819999694824219,-3.4830000400543213 -11.616000175476074,-1.815000057220459 -12.324999809265137,-0.37599998712539673 C-12.906000137329102,0.7990000247955322 -14.031999588012695,1.6670000553131104 -14.64799976348877,2.825000047683716 C-14.784000396728516,3.0799999237060547 -14.894000053405762,3.382999897003174 -14.770999908447266,3.6440000534057617 C-14.642000198364258,3.9200000762939453 -14.303999900817871,4.043000221252441 -13.996000289916992,4.118000030517578 C-11.755000114440918,4.6620001792907715 -9.23900032043457,4.050000190734863 -7.553999900817871,2.5510001182556152 C-8.057000160217285,4.980000019073486 -9.598999977111816,7.0970001220703125 -10.409000396728516,9.449999809265137 C-11.138999938964844,11.571000099182129 -11.062999725341797,14.241000175476074 -9.437000274658203,15.741999626159668 C-9.175999641418457,15.982999801635742 -8.75,15.883000373840332 -8.61299991607666,15.564000129699707 C-7.552999973297119,13.093999862670898 -5.131999969482422,11.168000221252441 -2.3589999675750732,10.64900016784668 C-1.402999997138977,10.470000267028809 -0.4230000078678131,10.446999549865723 0.5389999747276306,10.298999786376953 C1.187000036239624,10.199999809265137 1.8020000457763672,10.045000076293945 2.384999990463257,9.840999603271484z"></path></g><g opacity="1" transform="matrix(1,0,0,1,53.95399856567383,105.50499725341797)"><path fill="rgb(250,175,58)" fill-opacity="1" d=" M-2.384999990463257,9.840999603271484 C-7.690000057220459,7.98799991607666 -10.4350004196167,2.134000062942505 -12.968999862670898,-2.052999973297119 C-14.894000053405762,-5.23199987411499 -14.894000053405762,-9.241000175476074 -12.612000465393066,-12.201000213623047 C-9.696999549865723,-15.982999801635742 -5.4029998779296875,-15.20300006866455 -1.753999948501587,-12.946000099182129 C-1.680999994277954,-12.901000022888184 1.4889999628067017,-14.461999893188477 1.9259999990463257,-14.569999694824219 C3.2070000171661377,-14.885000228881836 4.559999942779541,-14.958999633789062 5.834000110626221,-14.567999839782715 C8.154000282287598,-13.855999946594238 10.651000022888184,-11.699000358581543 11.416000366210938,-9.51099967956543 C11.913999557495117,-8.08899974822998 11.970999717712402,-6.563000202178955 11.89799976348877,-5.067999839782715 C11.819999694824219,-3.4830000400543213 11.616000175476074,-1.815000057220459 12.324999809265137,-0.37599998712539673 C12.906000137329102,0.7990000247955322 14.031999588012695,1.6670000553131104 14.64799976348877,2.825000047683716 C14.784000396728516,3.0799999237060547 14.894000053405762,3.382999897003174 14.770999908447266,3.6440000534057617 C14.642000198364258,3.9200000762939453 14.303999900817871,4.043000221252441 13.996000289916992,4.118000030517578 C11.755000114440918,4.6620001792907715 9.23900032043457,4.050000190734863 7.553999900817871,2.5510001182556152 C8.057000160217285,4.980000019073486 9.598999977111816,7.0970001220703125 10.409000396728516,9.449999809265137 C11.138999938964844,11.571000099182129 11.062999725341797,14.241000175476074 9.437000274658203,15.741999626159668 C9.175999641418457,15.982999801635742 8.75,15.883000373840332 8.61299991607666,15.564000129699707 C7.552999973297119,13.093999862670898 5.131999969482422,11.168000221252441 2.3589999675750732,10.64900016784668 C1.402999997138977,10.470000267028809 0.4230000078678131,10.446999549865723 -0.5389999747276306,10.298999786376953 C-1.187000036239624,10.199999809265137 -1.8020000457763672,10.045000076293945 -2.384999990463257,9.840999603271484z"></path></g><g opacity="1" transform="matrix(1,0,0,1,52.20000076293945,87.30400085449219)"><path fill="rgb(250,175,58)" fill-opacity="1" d=" M0.6579999923706055,-2.9240000247955322 C0.6579999923706055,-2.9240000247955322 -0.6570000052452087,-2.9240000247955322 -0.6570000052452087,-2.9240000247955322 C-0.6570000052452087,-2.9240000247955322 -2.946000099182129,1.8949999809265137 -2.946000099182129,1.8949999809265137 C-2.946000099182129,1.8949999809265137 -0.0010000000474974513,2.9240000247955322 -0.0010000000474974513,2.9240000247955322 C-0.0010000000474974513,2.9240000247955322 2.946000099182129,1.8949999809265137 2.946000099182129,1.8949999809265137 C2.946000099182129,1.8949999809265137 0.6579999923706055,-2.9240000247955322 0.6579999923706055,-2.9240000247955322z"></path></g><g opacity="1" transform="matrix(1,0,0,1,52.20000076293945,90.94000244140625)"><path fill="rgb(162,86,24)" fill-opacity="1" d=" M0.6579999923706055,1.7400000095367432 C0.6579999923706055,1.7400000095367432 -0.6570000052452087,1.7400000095367432 -0.6570000052452087,1.7400000095367432 C-0.6570000052452087,1.7400000095367432 -2.946000099182129,-1.7400000095367432 -2.946000099182129,-1.7400000095367432 C-2.946000099182129,-1.7400000095367432 -0.0010000000474974513,-0.7120000123977661 -0.0010000000474974513,-0.7120000123977661 C-0.0010000000474974513,-0.7120000123977661 2.946000099182129,-1.7400000095367432 2.946000099182129,-1.7400000095367432 C2.946000099182129,-1.7400000095367432 0.6579999923706055,1.7400000095367432 0.6579999923706055,1.7400000095367432z"></path></g><g opacity="1" transform="matrix(1,0,0,1,52.20000076293945,95.52300262451172)"><path fill="rgb(162,86,24)" fill-opacity="1" d=" M3.812999963760376,0.5199999809265137 C3.812999963760376,-0.7630000114440918 2.1059999465942383,-1.8029999732971191 0,-1.8029999732971191 C-2.1059999465942383,-1.8029999732971191 -3.812999963760376,-0.7630000114440918 -3.812999963760376,0.5199999809265137 C-3.812999963760376,1.8029999732971191 3.812999963760376,1.8029999732971191 3.812999963760376,0.5199999809265137z"></path></g><g opacity="1" transform="matrix(1,0,0,1,45.77799987792969,81.51399993896484)"><path fill="rgb(250,175,58)" fill-opacity="1" d=" M-5.836999893188477,5.057000160217285 C-6.421999931335449,-1.6419999599456787 -2.388000011444092,-6.609000205993652 1.6050000190734863,-7.185999870300293 C4.794000148773193,-7.646999835968018 6.421999931335449,-5.886000156402588 6.421999931335449,-2.9670000076293945 C6.421999931335449,-2.9670000076293945 3.681999921798706,-4.589000225067139 0.9459999799728394,-3.2950000762939453 C-1.2480000257492065,-2.256999969482422 -3.5209999084472656,1.0069999694824219 -3.5209999084472656,7.646999835968018"></path></g><g opacity="1" transform="matrix(1,0,0,1,58.62200164794922,81.51399993896484)"><path fill="rgb(250,175,58)" fill-opacity="1" d=" M5.836999893188477,5.057000160217285 C6.421999931335449,-1.6419999599456787 2.388000011444092,-6.609000205993652 -1.6050000190734863,-7.185999870300293 C-4.794000148773193,-7.646999835968018 -6.421999931335449,-5.886000156402588 -6.421999931335449,-2.9670000076293945 C-6.421999931335449,-2.9670000076293945 -3.681999921798706,-4.589000225067139 -0.9459999799728394,-3.2950000762939453 C1.2480000257492065,-2.256999969482422 3.5209999084472656,1.0069999694824219 3.5209999084472656,7.646999835968018"></path></g><g opacity="1" transform="matrix(0.1146399974822998,0,0,0.1146399974822998,47.6609992980957,84.80500030517578)"><path fill="rgb(215,125,42)" fill-opacity="1" d=" M16,0 C16,0 16,0 16,0 C16,8.830400466918945 8.830400466918945,16 0,16 C0,16 0,16 0,16 C-8.830400466918945,16 -16,8.830400466918945 -16,0 C-16,0 -16,0 -16,0 C-16,-8.830400466918945 -8.830400466918945,-16 0,-16 C0,-16 0,-16 0,-16 C8.830400466918945,-16 16,-8.830400466918945 16,0z"></path></g><g opacity="1" transform="matrix(0.1146399974822998,0,0,0.1146399974822998,56.75,84.81199645996094)"><path fill="rgb(215,125,42)" fill-opacity="1" d=" M16,0 C16,0 16,0 16,0 C16,8.830400466918945 8.830400466918945,16 0,16 C0,16 0,16 0,16 C-8.830400466918945,16 -16,8.830400466918945 -16,0 C-16,0 -16,0 -16,0 C-16,-8.830400466918945 -8.830400466918945,-16 0,-16 C0,-16 0,-16 0,-16 C8.830400466918945,-16 16,-8.830400466918945 16,0z"></path></g><g opacity="1" transform="matrix(1,0,0,1,47.18000030517578,81.94599914550781)"><path fill="rgb(250,175,58)" fill-opacity="1" d=" M-3.6489999294281006,-0.6779999732971191 C-4.36299991607666,0.8460000157356262 -4.048999786376953,2.434000015258789 -1.9199999570846558,1.9270000457763672 C0.11599999666213989,1.4429999589920044 1.9550000429153442,1.6019999980926514 4.36299991607666,2.434000015258789 C4.36299991607666,2.434000015258789 3.8929998874664307,-0.6779999732971191 1.7389999628067017,-1.7569999694824219 C0.3880000114440918,-2.434000015258789 -3.0280001163482666,-2.003999948501587 -3.6489999294281006,-0.6779999732971191z"></path></g><g opacity="1" transform="matrix(1,0,0,1,57.220001220703125,81.94599914550781)"><path fill="rgb(250,175,58)" fill-opacity="1" d=" M3.6489999294281006,-0.6779999732971191 C4.36299991607666,0.8460000157356262 4.048999786376953,2.434000015258789 1.9199999570846558,1.9270000457763672 C-0.11599999666213989,1.4429999589920044 -1.9550000429153442,1.6019999980926514 -4.36299991607666,2.434000015258789 C-4.36299991607666,2.434000015258789 -3.8929998874664307,-0.6779999732971191 -1.7389999628067017,-1.7569999694824219 C-0.3880000114440918,-2.434000015258789 3.0280001163482666,-2.003999948501587 3.6489999294281006,-0.6779999732971191z"></path></g><g opacity="1" transform="matrix(1,0,0,1,52.60499954223633,118.45999908447266)"><path fill="rgb(250,175,58)" fill-opacity="1" d=" M-3.9210000038146973,-7.247000217437744 C-4.683000087738037,-6.269000053405762 -4.627999782562256,-4.929999828338623 -4.390999794006348,-3.736999988555908 C-4.0279998779296875,-1.9119999408721924 -3.322000026702881,-0.16500000655651093 -2.8589999675750732,1.6390000581741333 C-2.434999942779541,3.2899999618530273 -2.2219998836517334,5.046000003814697 -2.6670000553131104,6.681000232696533 C-2.740999937057495,6.952000141143799 -2.5439999103546143,7.229000091552734 -2.246999979019165,7.232999801635742 C-1.4479999542236328,7.247000217437744 -0.6430000066757202,6.751999855041504 -0.02500000037252903,6.215000152587891 C3.2799999713897705,3.3440001010894775 4.684000015258789,-1.3350000381469727 3.4660000801086426,-5.418000221252441"></path></g></g><g transform="matrix(0.46661999821662903,0,0,0.46661999821662903,8.835416793823242,6.403660297393799)" opacity="1" style="display: block;"><g opacity="1" transform="matrix(1,0,0,1,12.342000007629395,80.9209976196289)"><path fill="rgb(162,86,24)" fill-opacity="1" d=" M-2.1500000953674316,45.4379997253418 C-2.2009999752044678,45.4379997253418 -2.253000020980835,45.43600082397461 -2.303999900817871,45.433998107910156 C-3.9539999961853027,45.349998474121094 -5.2230000495910645,43.94499969482422 -5.138999938964844,42.29499816894531 C-5.138999938964844,42.29499816894531 -0.8349999785423279,-42.54100036621094 -0.8349999785423279,-42.54100036621094 C-0.7509999871253967,-44.19200134277344 0.6639999747276306,-45.4379997253418 2.303999900817871,-45.37699890136719 C3.9539999961853027,-45.292999267578125 5.2230000495910645,-43.88800048828125 5.138999938964844,-42.23899841308594 C5.138999938964844,-42.23899841308594 0.8339999914169312,42.597999572753906 0.8339999914169312,42.597999572753906 C0.753000020980835,44.196998596191406 -0.5680000185966492,45.4379997253418 -2.1500000953674316,45.4379997253418z"></path></g><g opacity="1" transform="matrix(1,0,0,1,14.704000473022461,21.28499984741211)"><path fill="rgb(214,124,42)" fill-opacity="1" d=" M12.291000366210938,6.823999881744385 C11.987000465393066,6.686999797821045 11.654000282287598,6.616000175476074 11.366000175476074,6.448999881744385 C10.892999649047852,6.176000118255615 10.600000381469727,5.682000160217285 10.32699966430664,5.208000183105469 C9.376999855041504,3.563999891281128 9.708000183105469,2.496999979019165 9.970999717712402,0.7269999980926514 C10.145000457763672,-0.4399999976158142 10.53499984741211,-1.2549999952316284 10.888999938964844,-1.656000018119812 C11.09000015258789,-1.86899995803833 11.284000396728516,-2.003000020980835 11.423999786376953,-2.0799999237060547 C11.562999725341797,-2.1589999198913574 11.649999618530273,-2.1740000247955322 11.64799976348877,-2.178999900817871 C12.024999618530273,-2.3289999961853027 12.206000328063965,-2.6419999599456787 12.157999992370605,-3.0230000019073486 C12.126999855041504,-3.2170000076293945 12.027999877929688,-3.4059998989105225 11.84000015258789,-3.5460000038146973 C11.654000282287598,-3.681999921798706 11.371000289916992,-3.7950000762939453 11.041999816894531,-3.7130000591278076 C11.041999816894531,-3.7130000591278076 10.902000427246094,-3.7039999961853027 10.656999588012695,-3.625 C10.53600025177002,-3.5789999961853027 10.38599967956543,-3.5230000019073486 10.210000038146973,-3.4560000896453857 C10.043999671936035,-3.371000051498413 9.859000205993652,-3.256999969482422 9.64900016784668,-3.128000020980835 C8.803000450134277,-2.5280001163482666 7.995999813079834,-1.378999948501587 7.4730000495910645,0.028999999165534973 C7.203000068664551,0.7350000143051147 6.985000133514404,1.5049999952316284 6.822999954223633,2.3469998836517334 C6.65500020980835,3.197000026702881 6.5929999351501465,4.1519999504089355 6.5929999351501465,5.052000045776367 C6.589000225067139,6.866000175476074 6.791999816894531,8.687999725341797 6.771999835968018,10.293999671936035 C6.763999938964844,11.08899974822998 6.691999912261963,11.826000213623047 6.5320000648498535,12.369999885559082 C6.363999843597412,12.913999557495117 6.130000114440918,13.189000129699707 5.927999973297119,13.319999694824219 C5.718999862670898,13.446999549865723 5.445000171661377,13.538999557495117 5.046999931335449,13.633000373840332 C4.644999980926514,13.718999862670898 4.144000053405762,13.76200008392334 3.6610000133514404,13.781000137329102 C3.5880000591278076,13.781999588012695 3.5160000324249268,13.779999732971191 3.443000078201294,13.781000137329102 C3.2070000171661377,8.140999794006348 2.865999937057495,2.4670000076293945 2.9619998931884766,-3.1410000324249268 C3.3589999675750732,-3.006999969482422 3.7769999504089355,-2.869999885559082 4.190000057220459,-2.940000057220459 C4.604000091552734,-3.009000062942505 5.002999782562256,-3.3610000610351562 4.9730000495910645,-3.7790000438690186 C4.956999778747559,-4.004000186920166 4.826000213623047,-4.201000213623047 4.705999851226807,-4.390999794006348 C2.9049999713897705,-7.249000072479248 3.125999927520752,-10.401000022888184 2.7990000247955322,-13.605999946594238 C2.5989999771118164,-15.567000389099121 2.5510001182556152,-17.55699920654297 2.493000030517578,-19.54400062561035 C2.4509999752044678,-20.961999893188477 1.0099999904632568,-21.03499984741211 0.824999988079071,-19.628000259399414 C0.527999997138977,-17.3700008392334 0.20900000631809235,-15.204999923706055 -0.38600000739097595,-13.003000259399414 C-1.1380000114440918,-10.225000381469727 -1.8949999809265137,-7.431000232696533 -3.109999895095825,-4.822000026702881 C-3.2699999809265137,-4.479000091552734 -3.441999912261963,-4.117000102996826 -3.4149999618530273,-3.740000009536743 C-3.382999897003174,-3.305999994277954 -3.061000108718872,-2.9100000858306885 -2.6440000534057617,-2.7890000343322754 C-2.2260000705718994,-2.6689999103546143 -1.7419999837875366,-2.8340001106262207 -1.4839999675750732,-3.184000015258789 C-1.5750000476837158,-3.059999942779541 -1.4839999675750732,-2.1510000228881836 -1.5010000467300415,-1.934999942779541 C-1.5520000457763672,-1.2929999828338623 -1.6699999570846558,-0.6510000228881836 -1.753999948501587,-0.012000000104308128 C-1.9199999570846558,1.2480000257492065 -2.0850000381469727,2.509000062942505 -2.250999927520752,3.7690000534057617 C-2.5420000553131104,5.985000133514404 -2.8340001106262207,8.201000213623047 -3.125999927520752,10.416999816894531 C-3.125999927520752,10.416999816894531 -3.5209999084472656,13.425000190734863 -3.5209999084472656,13.425000190734863 C-3.5840001106262207,13.418000221252441 -3.6470000743865967,13.414999961853027 -3.7100000381469727,13.406999588012695 C-4.189000129699707,13.34000015258789 -4.683000087738037,13.246999740600586 -5.074999809265137,13.119999885559082 C-5.460999965667725,12.987000465393066 -5.723999977111816,12.866999626159668 -5.919000148773193,12.718999862670898 C-6.105999946594238,12.567999839782715 -6.310999870300293,12.270000457763672 -6.422999858856201,11.711999893188477 C-6.5279998779296875,11.154999732971191 -6.52400016784668,10.413999557495117 -6.453000068664551,9.621999740600586 C-6.309999942779541,8.022000312805176 -5.923999786376953,6.232999801635742 -5.74399995803833,4.427000045776367 C-5.6529998779296875,3.5320000648498535 -5.618000030517578,2.5739998817443848 -5.697999954223633,1.7120000123977661 C-5.77400016784668,0.8579999804496765 -5.914000034332275,0.07100000232458115 -6.110000133514404,-0.6589999794960022 C-6.48799991607666,-2.11299991607666 -7.175000190734863,-3.3399999141693115 -7.955999851226807,-4.0229997634887695 C-8.151000022888184,-4.171000003814697 -8.324000358581543,-4.302000045776367 -8.480999946594238,-4.4039998054504395 C-8.64900016784668,-4.48799991607666 -8.791999816894531,-4.559000015258789 -8.907999992370605,-4.617000102996826 C-9.144000053405762,-4.7210001945495605 -9.282999992370605,-4.74399995803833 -9.282999992370605,-4.74399995803833 C-9.60200023651123,-4.859000205993652 -9.895000457763672,-4.775000095367432 -10.093000411987305,-4.6579999923706055 C-10.293999671936035,-4.539000034332275 -10.413000106811523,-4.360000133514404 -10.461999893188477,-4.171000003814697 C-10.548999786376953,-3.796999931335449 -10.401000022888184,-3.4660000801086426 -10.041000366210938,-3.2790000438690186 C-10.043000221252441,-3.2739999294281006 -9.958999633789062,-3.252000093460083 -9.829000473022461,-3.1579999923706055 C-9.696000099182129,-3.066999912261963 -9.517000198364258,-2.9159998893737793 -9.338000297546387,-2.684000015258789 C-8.036999702453613,-0.9940000176429749 -8.449999809265137,2.6089999675750732 -10,3.990000009536743 C-10.836999893188477,4.736000061035156 -12.031999588012695,5.025000095367432 -12.77299976348877,5.867000102996826 C-12.901000022888184,6.01200008392334 -13.017999649047852,6.188000202178955 -13.005999565124512,6.380000114440918 C-12.977999687194824,6.835000038146973 -12.354999542236328,6.932000160217285 -11.901000022888184,6.894000053405762 C-11.437000274658203,6.855999946594238 -10.975000381469727,6.804999828338623 -10.515000343322754,6.811999797821045 C-11.317999839782715,8.064000129699707 -11.517999649047852,10.378000259399414 -11.60099983215332,11.847000122070312 C-11.663999557495117,13.031999588012695 -11.460000038146973,14.46399974822998 -10.770999908447266,15.737000465393066 C-10.083000183105469,17.011999130249023 -9.045999526977539,17.926000595092773 -8.111000061035156,18.54199981689453 C-7.164000034332275,19.155000686645508 -6.2820000648498535,19.524999618530273 -5.482999801635742,19.827999114990234 C-3.8889999389648438,20.406999588012695 -2.6470000743865967,20.624000549316406 -1.7630000114440918,20.809999465942383 C-0.8970000147819519,20.952999114990234 -0.4020000100135803,21.034000396728516 -0.4020000100135803,21.034000396728516 C-0.4020000100135803,21.034000396728516 0.0989999994635582,21.003000259399414 0.9739999771118164,20.948999404907227 C1.8730000257492065,20.854000091552734 3.130000114440918,20.76300048828125 4.775000095367432,20.349000930786133 C5.60099983215332,20.128000259399414 6.515999794006348,19.847999572753906 7.519999980926514,19.333999633789062 C8.51200008392334,18.815000534057617 9.63599967956543,18.01099967956543 10.449999809265137,16.812000274658203 C11.263999938964844,15.616000175476074 11.612000465393066,14.21399974822998 11.668999671936035,13.029000282287598 C11.746999740600586,11.444000244140625 11.130000114440918,10.027999877929688 11.079999923706055,8.503000259399414 C11.48799991607666,8.552000045776367 11.913999557495117,8.597999572753906 12.300999641418457,8.458000183105469 C12.687999725341797,8.319000244140625 13.017999649047852,7.928999900817871 12.946000099182129,7.52400016784668 C12.888999938964844,7.197000026702881 12.595000267028809,6.960999965667725 12.291000366210938,6.823999881744385z"></path></g><g opacity="1" transform="matrix(1,0,0,1,14.708999633789062,35.0620002746582)"><path fill="rgb(162,86,24)" fill-opacity="1" d=" M11.664999961853027,-0.7490000128746033 C11.668999671936035,-0.828000009059906 11.663999557495117,-0.9039999842643738 11.664999961853027,-0.9810000061988831 C10.9399995803833,-1.0390000343322754 10.187000274658203,-0.7710000276565552 9.704999923706055,-0.22499999403953552 C9.281999588012695,0.2540000081062317 9.072999954223633,0.8830000162124634 8.71500015258789,1.4129999876022339 C8.227999687194824,2.134000062942505 7.484000205993652,2.6429998874664307 6.711999893188477,3.0439999103546143 C5.426000118255615,3.7130000591278076 4.455999851226807,4.2270002365112305 3.053999900817871,3.443000078201294 C2.2639999389648438,3.000999927520752 1.5750000476837158,2.371000051498413 0.7260000109672546,2.055000066757202 C-0.34299999475479126,1.656000018119812 -1.5329999923706055,1.8040000200271606 -2.6519999504089355,2.0280001163482666 C-3.7720000743865967,2.250999927520752 -4.9029998779296875,2.546999931335449 -6.038000106811523,2.427000045776367 C-8.392000198364258,2.1760001182556152 -8.800999641418457,0.23600000143051147 -9.22599983215332,-1.7359999418258667 C-9.618000030517578,-3.553999900817871 -9.361000061035156,-5.505000114440918 -8.51099967956543,-7.158999919891357 C-9.392999649047852,-7.256999969482422 -10.520999908447266,-6.965000152587891 -10.520999908447266,-6.965000152587891 C-11.322999954223633,-5.7129998207092285 -11.52299976348877,-3.3980000019073486 -11.607000350952148,-1.9299999475479126 C-11.668999671936035,-0.7450000047683716 -11.46500015258789,0.6859999895095825 -10.774999618530273,1.9589999914169312 C-10.086999893188477,3.2339999675750732 -9.050999641418457,4.1479997634887695 -8.116999626159668,4.763999938964844 C-7.169000148773193,5.376999855041504 -6.288000106811523,5.748000144958496 -5.48799991607666,6.051000118255615 C-3.8949999809265137,6.629000186920166 -2.6519999504089355,6.8480000495910645 -1.7680000066757202,7.033999919891357 C-0.9020000100135803,7.176000118255615 -0.40799999237060547,7.256999969482422 -0.40799999237060547,7.256999969482422 C-0.40799999237060547,7.256999969482422 0.09300000220537186,7.2270002365112305 0.968999981880188,7.171999931335449 C1.8680000305175781,7.077000141143799 3.125,6.985000133514404 4.769000053405762,6.571000099182129 C5.59499979019165,6.349999904632568 6.510000228881836,6.072000026702881 7.514999866485596,5.557000160217285 C8.506999969482422,5.039000034332275 9.631999969482422,4.234000205993652 10.444999694824219,3.0360000133514404 C11.260000228881836,1.8389999866485596 11.607000350952148,0.4359999895095825 11.664999961853027,-0.7490000128746033z"></path></g></g><g transform="matrix(0.46661999821662903,0,0,0.46661999821662903,8.835416793823242,6.403660297393799)" opacity="1" style="display: block;"><g opacity="1" transform="matrix(1,0,0,1,14.897000312805176,71.10199737548828)"><path fill="rgb(214,124,42)" fill-opacity="1" d=" M3.61299991607666,7.377999782562256 C2.325000047683716,7.495999813079834 1.0989999771118164,6.681000232696533 0.7409999966621399,5.390999794006348 C-0.7329999804496765,0.06800000369548798 -2.7100000381469727,-1.281000018119812 -4.26800012588501,-1.8619999885559082 C-5.677999973297119,-2.388000011444092 -6.395999908447266,-3.9570000171661377 -5.869999885559082,-5.368000030517578 C-5.343999862670898,-6.7789998054504395 -3.7709999084472656,-7.495999813079834 -2.36299991607666,-6.968999862670898 C1.6970000267028809,-5.453999996185303 4.3520002365112305,-1.9900000095367432 5.993000030517578,3.937000036239624 C6.394999980926514,5.388000011444092 5.546000003814697,6.888999938964844 4.09499979019165,7.291999816894531 C3.934999942779541,7.335999965667725 3.7730000019073486,7.36299991607666 3.61299991607666,7.377999782562256z"></path></g></g></g></svg>