<svg xmlns="http://www.w3.org/2000/svg" viewBox="0 0 159 15" width="159" height="15" preserveAspectRatio="xMidYMid meet" style="width: 100%; height: 100%; transform: translate3d(0px, 0px, 0px); content-visibility: visible;"><defs><clipPath id="__lottie_element_2090"><rect width="159" height="15" x="0" y="0"></rect></clipPath><mask id="__lottie_element_2096" mask-type="alpha"><g transform="matrix(1.5148484706878662,0,0,0.33329999446868896,79.61665344238281,11.199629783630371)" opacity="1" style="display: block;"><g opacity="1" transform="matrix(1,0,0,1,0,0)"><path fill="rgb(255,0,0)" fill-opacity="1" d=" M50,-50 C50,-50 50,50 50,50 C50,50 -50,50 -50,50 C-50,50 -50,-50 -50,-50 C-50,-50 50,-50 50,-50z"></path></g></g></mask><mask id="__lottie_element_2101" mask-type="alpha"><g transform="matrix(1.5148484706878662,0,0,0.33329999446868896,79.61665344238281,11.199629783630371)" opacity="1" style="display: block;"><g opacity="1" transform="matrix(1,0,0,1,0,0)"><path fill="rgb(255,0,0)" fill-opacity="1" d=" M50,-50 C50,-50 50,50 50,50 C50,50 -50,50 -50,50 C-50,50 -50,-50 -50,-50 C-50,-50 50,-50 50,-50z"></path></g></g></mask></defs><g clip-path="url(#__lottie_element_2090)"><g mask="url(#__lottie_element_2101)" style="display: block;"><g transform="matrix(0.33329999446868896,0,0,0.33329999446868896,48.37710952758789,0.6330206394195557)" opacity="1"><g opacity="1" transform="matrix(1,0,0,1,21.218000411987305,33.41699981689453)"><path fill="rgb(77,67,95)" fill-opacity="1" d=" M8.16100025177002,-0.0010000000474974513 C8.16100025177002,4.50600004196167 4.507999897003174,8.15999984741211 0,8.15999984741211 C-4.506999969482422,8.15999984741211 -8.16100025177002,4.50600004196167 -8.16100025177002,-0.0010000000474974513 C-8.16100025177002,-4.507999897003174 -4.506999969482422,-8.15999984741211 0,-8.15999984741211 C4.507999897003174,-8.15999984741211 8.16100025177002,-4.507999897003174 8.16100025177002,-0.0010000000474974513z"></path></g><g opacity="1" transform="matrix(1,0,0,1,40.65299987792969,33.41699981689453)"><path fill="rgb(77,67,95)" fill-opacity="1" d=" M8.16100025177002,-0.0010000000474974513 C8.16100025177002,4.50600004196167 4.506999969482422,8.15999984741211 0,8.15999984741211 C-4.506999969482422,8.15999984741211 -8.16100025177002,4.50600004196167 -8.16100025177002,-0.0010000000474974513 C-8.16100025177002,-4.507999897003174 -4.506999969482422,-8.15999984741211 0,-8.15999984741211 C4.506999969482422,-8.15999984741211 8.16100025177002,-4.507999897003174 8.16100025177002,-0.0010000000474974513z"></path></g><g opacity="1" transform="matrix(1,0,0,1,60.08599853515625,33.41699981689453)"><path fill="rgb(77,67,95)" fill-opacity="1" d=" M8.16100025177002,-0.0010000000474974513 C8.16100025177002,4.50600004196167 4.506999969482422,8.15999984741211 0,8.15999984741211 C-4.506999969482422,8.15999984741211 -8.16100025177002,4.50600004196167 -8.16100025177002,-0.0010000000474974513 C-8.16100025177002,-4.507999897003174 -4.506999969482422,-8.15999984741211 0,-8.15999984741211 C4.506999969482422,-8.15999984741211 8.16100025177002,-4.507999897003174 8.16100025177002,-0.0010000000474974513z"></path></g><g opacity="1" transform="matrix(1,0,0,1,79.52100372314453,33.41699981689453)"><path fill="rgb(77,67,95)" fill-opacity="1" d=" M8.16100025177002,-0.0010000000474974513 C8.16100025177002,4.50600004196167 4.507999897003174,8.15999984741211 0,8.15999984741211 C-4.506999969482422,8.15999984741211 -8.16100025177002,4.50600004196167 -8.16100025177002,-0.0010000000474974513 C-8.16100025177002,-4.507999897003174 -4.506999969482422,-8.15999984741211 0,-8.15999984741211 C4.507999897003174,-8.15999984741211 8.16100025177002,-4.507999897003174 8.16100025177002,-0.0010000000474974513z"></path></g><g opacity="1" transform="matrix(1,0,0,1,129.70199584960938,33.41699981689453)"><path fill="rgb(77,67,95)" fill-opacity="1" d=" M8.16100025177002,-0.0010000000474974513 C8.16100025177002,4.50600004196167 4.507999897003174,8.15999984741211 0,8.15999984741211 C-4.506999969482422,8.15999984741211 -8.16100025177002,4.50600004196167 -8.16100025177002,-0.0010000000474974513 C-8.16100025177002,-4.507999897003174 -4.506999969482422,-8.15999984741211 0,-8.15999984741211 C4.507999897003174,-8.15999984741211 8.16100025177002,-4.507999897003174 8.16100025177002,-0.0010000000474974513z"></path></g><g opacity="1" transform="matrix(1,0,0,1,149.13600158691406,33.41699981689453)"><path fill="rgb(77,67,95)" fill-opacity="1" d=" M8.16100025177002,-0.0010000000474974513 C8.16100025177002,4.50600004196167 4.506999969482422,8.15999984741211 0,8.15999984741211 C-4.506999969482422,8.15999984741211 -8.16100025177002,4.50600004196167 -8.16100025177002,-0.0010000000474974513 C-8.16100025177002,-4.507999897003174 -4.506999969482422,-8.15999984741211 0,-8.15999984741211 C4.506999969482422,-8.15999984741211 8.16100025177002,-4.507999897003174 8.16100025177002,-0.0010000000474974513z"></path></g><g opacity="1" transform="matrix(1,0,0,1,168.57000732421875,33.41699981689453)"><path fill="rgb(77,67,95)" fill-opacity="1" d=" M8.16100025177002,-0.0010000000474974513 C8.16100025177002,4.50600004196167 4.506999969482422,8.15999984741211 0,8.15999984741211 C-4.506999969482422,8.15999984741211 -8.16100025177002,4.50600004196167 -8.16100025177002,-0.0010000000474974513 C-8.16100025177002,-4.507999897003174 -4.506999969482422,-8.15999984741211 0,-8.15999984741211 C4.506999969482422,-8.15999984741211 8.16100025177002,-4.507999897003174 8.16100025177002,-0.0010000000474974513z"></path></g><g opacity="1" transform="matrix(1,0,0,1,188.00399780273438,33.41699981689453)"><path fill="rgb(77,67,95)" fill-opacity="1" d=" M8.16100025177002,-0.0010000000474974513 C8.16100025177002,4.50600004196167 4.507999897003174,8.15999984741211 0,8.15999984741211 C-4.506999969482422,8.15999984741211 -8.16100025177002,4.50600004196167 -8.16100025177002,-0.0010000000474974513 C-8.16100025177002,-4.507999897003174 -4.506999969482422,-8.15999984741211 0,-8.15999984741211 C4.507999897003174,-8.15999984741211 8.16100025177002,-4.507999897003174 8.16100025177002,-0.0010000000474974513z"></path></g><g opacity="1" transform="matrix(1,0,0,1,238.18499755859375,33.41699981689453)"><path fill="rgb(77,67,95)" fill-opacity="1" d=" M8.16100025177002,-0.0010000000474974513 C8.16100025177002,4.50600004196167 4.507999897003174,8.15999984741211 0,8.15999984741211 C-4.506999969482422,8.15999984741211 -8.16100025177002,4.50600004196167 -8.16100025177002,-0.0010000000474974513 C-8.16100025177002,-4.507999897003174 -4.506999969482422,-8.15999984741211 0,-8.15999984741211 C4.507999897003174,-8.15999984741211 8.16100025177002,-4.507999897003174 8.16100025177002,-0.0010000000474974513z"></path></g><g opacity="1" transform="matrix(1,0,0,1,257.6199951171875,33.41699981689453)"><path fill="rgb(77,67,95)" fill-opacity="1" d=" M8.16100025177002,-0.0010000000474974513 C8.16100025177002,4.50600004196167 4.506999969482422,8.15999984741211 0,8.15999984741211 C-4.506999969482422,8.15999984741211 -8.16100025177002,4.50600004196167 -8.16100025177002,-0.0010000000474974513 C-8.16100025177002,-4.507999897003174 -4.506999969482422,-8.15999984741211 0,-8.15999984741211 C4.506999969482422,-8.15999984741211 8.16100025177002,-4.507999897003174 8.16100025177002,-0.0010000000474974513z"></path></g><g opacity="1" transform="matrix(1,0,0,1,277.0530090332031,33.41699981689453)"><path fill="rgb(77,67,95)" fill-opacity="1" d=" M8.16100025177002,-0.0010000000474974513 C8.16100025177002,4.50600004196167 4.506999969482422,8.15999984741211 0,8.15999984741211 C-4.506999969482422,8.15999984741211 -8.16100025177002,4.50600004196167 -8.16100025177002,-0.0010000000474974513 C-8.16100025177002,-4.507999897003174 -4.506999969482422,-8.15999984741211 0,-8.15999984741211 C4.506999969482422,-8.15999984741211 8.16100025177002,-4.507999897003174 8.16100025177002,-0.0010000000474974513z"></path></g><g opacity="1" transform="matrix(1,0,0,1,296.4880065917969,33.41699981689453)"><path fill="rgb(77,67,95)" fill-opacity="1" d=" M8.16100025177002,-0.0010000000474974513 C8.16100025177002,4.50600004196167 4.507999897003174,8.15999984741211 0,8.15999984741211 C-4.506999969482422,8.15999984741211 -8.16100025177002,4.50600004196167 -8.16100025177002,-0.0010000000474974513 C-8.16100025177002,-4.507999897003174 -4.506999969482422,-8.15999984741211 0,-8.15999984741211 C4.507999897003174,-8.15999984741211 8.16100025177002,-4.507999897003174 8.16100025177002,-0.0010000000474974513z"></path></g><g opacity="1" transform="matrix(1,0,0,1,50.369998931884766,24.7450008392334)"><path fill="rgb(239,82,34)" fill-opacity="1" d=" M42.417999267578125,9.543999671936035 C42.417999267578125,9.543999671936035 -42.417999267578125,9.543999671936035 -42.417999267578125,9.543999671936035 C-42.417999267578125,9.543999671936035 -42.417999267578125,-9.543999671936035 -42.417999267578125,-9.543999671936035 C-42.417999267578125,-9.543999671936035 42.417999267578125,-9.543999671936035 42.417999267578125,-9.543999671936035 C42.417999267578125,-9.543999671936035 42.417999267578125,9.543999671936035 42.417999267578125,9.543999671936035z"></path></g><g opacity="1" transform="matrix(1,0,0,1,50.369998931884766,15.20199966430664)"><path fill="rgb(235,208,161)" fill-opacity="1" d=" M42.417999267578125,8.930999755859375 C42.417999267578125,8.930999755859375 -42.417999267578125,8.930999755859375 -42.417999267578125,8.930999755859375 C-42.417999267578125,8.930999755859375 -42.417999267578125,-8.930999755859375 -42.417999267578125,-8.930999755859375 C-42.417999267578125,-8.930999755859375 42.417999267578125,-8.930999755859375 42.417999267578125,-8.930999755859375 C42.417999267578125,-8.930999755859375 42.417999267578125,8.930999755859375 42.417999267578125,8.930999755859375z"></path></g><g opacity="1" transform="matrix(1,0,0,1,50.369998931884766,8.229999542236328)"><path fill="rgb(223,159,99)" fill-opacity="1" d=" M42.417999267578125,1.9609999656677246 C42.417999267578125,1.9609999656677246 -42.417999267578125,1.9609999656677246 -42.417999267578125,1.9609999656677246 C-42.417999267578125,1.9609999656677246 -42.417999267578125,-1.9609999656677246 -42.417999267578125,-1.9609999656677246 C-42.417999267578125,-1.9609999656677246 42.417999267578125,-1.9609999656677246 42.417999267578125,-1.9609999656677246 C42.417999267578125,-1.9609999656677246 42.417999267578125,1.9609999656677246 42.417999267578125,1.9609999656677246z"></path></g><g opacity="1" transform="matrix(1,0,0,1,50.36899948120117,3.259999990463257)"><path fill="rgb(141,124,142)" fill-opacity="1" d=" M-50.11899948120117,3.009999990463257 C-50.11899948120117,-0.3140000104904175 -47.42499923706055,-3.009999990463257 -44.099998474121094,-3.009999990463257 C-44.099998474121094,-3.009999990463257 44.099998474121094,-3.009999990463257 44.099998474121094,-3.009999990463257 C47.42399978637695,-3.009999990463257 50.11899948120117,-0.3140000104904175 50.11899948120117,3.009999990463257 C50.11899948120117,3.009999990463257 -50.11899948120117,3.009999990463257 -50.11899948120117,3.009999990463257z"></path></g><g opacity="1" transform="matrix(1,0,0,1,50.369998931884766,34.28799819946289)"><path fill="rgb(77,67,95)" fill-opacity="1" d=" M42.417999267578125,2.9790000915527344 C42.417999267578125,2.9790000915527344 -42.417999267578125,2.9790000915527344 -42.417999267578125,2.9790000915527344 C-42.417999267578125,2.9790000915527344 -42.417999267578125,-2.9790000915527344 -42.417999267578125,-2.9790000915527344 C-42.417999267578125,-2.9790000915527344 42.417999267578125,-2.9790000915527344 42.417999267578125,-2.9790000915527344 C42.417999267578125,-2.9790000915527344 42.417999267578125,2.9790000915527344 42.417999267578125,2.9790000915527344z"></path></g><g opacity="1" transform="matrix(1,0,0,1,40.652000427246094,15.970999717712402)"><path fill="rgb(77,67,95)" fill-opacity="1" d=" M5.565000057220459,-5.781000137329102 C5.565000057220459,-5.781000137329102 -5.565000057220459,-5.781000137329102 -5.565000057220459,-5.781000137329102 C-5.565000057220459,-5.781000137329102 -5.565000057220459,5.781000137329102 -5.565000057220459,5.781000137329102 C-5.565000057220459,5.781000137329102 5.565000057220459,5.781000137329102 5.565000057220459,5.781000137329102 C5.565000057220459,5.781000137329102 5.565000057220459,-5.781000137329102 5.565000057220459,-5.781000137329102z"></path></g><g opacity="1" transform="matrix(1,0,0,1,60.08599853515625,15.970999717712402)"><path fill="rgb(77,67,95)" fill-opacity="1" d=" M5.565999984741211,-5.781000137329102 C5.565999984741211,-5.781000137329102 -5.565999984741211,-5.781000137329102 -5.565999984741211,-5.781000137329102 C-5.565999984741211,-5.781000137329102 -5.565999984741211,5.781000137329102 -5.565999984741211,5.781000137329102 C-5.565999984741211,5.781000137329102 5.565999984741211,5.781000137329102 5.565999984741211,5.781000137329102 C5.565999984741211,5.781000137329102 5.565999984741211,-5.781000137329102 5.565999984741211,-5.781000137329102z"></path></g><g opacity="1" transform="matrix(1,0,0,1,21.2189998626709,15.970999717712402)"><path fill="rgb(77,67,95)" fill-opacity="1" d=" M5.565999984741211,-5.781000137329102 C5.565999984741211,-5.781000137329102 -5.565999984741211,-5.781000137329102 -5.565999984741211,-5.781000137329102 C-5.565999984741211,-5.781000137329102 -5.565999984741211,5.781000137329102 -5.565999984741211,5.781000137329102 C-5.565999984741211,5.781000137329102 5.565999984741211,5.781000137329102 5.565999984741211,5.781000137329102 C5.565999984741211,5.781000137329102 5.565999984741211,-5.781000137329102 5.565999984741211,-5.781000137329102z"></path></g><g opacity="1" transform="matrix(1,0,0,1,79.5199966430664,15.970999717712402)"><path fill="rgb(77,67,95)" fill-opacity="1" d=" M5.565999984741211,-5.781000137329102 C5.565999984741211,-5.781000137329102 -5.565999984741211,-5.781000137329102 -5.565999984741211,-5.781000137329102 C-5.565999984741211,-5.781000137329102 -5.565999984741211,5.781000137329102 -5.565999984741211,5.781000137329102 C-5.565999984741211,5.781000137329102 5.565999984741211,5.781000137329102 5.565999984741211,5.781000137329102 C5.565999984741211,5.781000137329102 5.565999984741211,-5.781000137329102 5.565999984741211,-5.781000137329102z"></path></g><g opacity="1" transform="matrix(1,0,0,1,158.85299682617188,24.7450008392334)"><path fill="rgb(239,82,34)" fill-opacity="1" d=" M42.417999267578125,9.543999671936035 C42.417999267578125,9.543999671936035 -42.417999267578125,9.543999671936035 -42.417999267578125,9.543999671936035 C-42.417999267578125,9.543999671936035 -42.417999267578125,-9.543999671936035 -42.417999267578125,-9.543999671936035 C-42.417999267578125,-9.543999671936035 42.417999267578125,-9.543999671936035 42.417999267578125,-9.543999671936035 C42.417999267578125,-9.543999671936035 42.417999267578125,9.543999671936035 42.417999267578125,9.543999671936035z"></path></g><g opacity="1" transform="matrix(1,0,0,1,158.85299682617188,15.20199966430664)"><path fill="rgb(235,208,161)" fill-opacity="1" d=" M42.417999267578125,8.930999755859375 C42.417999267578125,8.930999755859375 -42.417999267578125,8.930999755859375 -42.417999267578125,8.930999755859375 C-42.417999267578125,8.930999755859375 -42.417999267578125,-8.930999755859375 -42.417999267578125,-8.930999755859375 C-42.417999267578125,-8.930999755859375 42.417999267578125,-8.930999755859375 42.417999267578125,-8.930999755859375 C42.417999267578125,-8.930999755859375 42.417999267578125,8.930999755859375 42.417999267578125,8.930999755859375z"></path></g><g opacity="1" transform="matrix(1,0,0,1,158.85299682617188,8.229999542236328)"><path fill="rgb(223,159,99)" fill-opacity="1" d=" M42.417999267578125,1.9609999656677246 C42.417999267578125,1.9609999656677246 -42.417999267578125,1.9609999656677246 -42.417999267578125,1.9609999656677246 C-42.417999267578125,1.9609999656677246 -42.417999267578125,-1.9609999656677246 -42.417999267578125,-1.9609999656677246 C-42.417999267578125,-1.9609999656677246 42.417999267578125,-1.9609999656677246 42.417999267578125,-1.9609999656677246 C42.417999267578125,-1.9609999656677246 42.417999267578125,1.9609999656677246 42.417999267578125,1.9609999656677246z"></path></g><g opacity="1" transform="matrix(1,0,0,1,158.85299682617188,3.259999990463257)"><path fill="rgb(141,124,142)" fill-opacity="1" d=" M-50.11899948120117,3.009999990463257 C-50.11899948120117,-0.3140000104904175 -47.42499923706055,-3.009999990463257 -44.099998474121094,-3.009999990463257 C-44.099998474121094,-3.009999990463257 44.099998474121094,-3.009999990463257 44.099998474121094,-3.009999990463257 C47.42399978637695,-3.009999990463257 50.11899948120117,-0.3140000104904175 50.11899948120117,3.009999990463257 C50.11899948120117,3.009999990463257 -50.11899948120117,3.009999990463257 -50.11899948120117,3.009999990463257z"></path></g><g opacity="1" transform="matrix(1,0,0,1,158.85299682617188,34.28799819946289)"><path fill="rgb(77,67,95)" fill-opacity="1" d=" M42.417999267578125,2.9790000915527344 C42.417999267578125,2.9790000915527344 -42.417999267578125,2.9790000915527344 -42.417999267578125,2.9790000915527344 C-42.417999267578125,2.9790000915527344 -42.417999267578125,-2.9790000915527344 -42.417999267578125,-2.9790000915527344 C-42.417999267578125,-2.9790000915527344 42.417999267578125,-2.9790000915527344 42.417999267578125,-2.9790000915527344 C42.417999267578125,-2.9790000915527344 42.417999267578125,2.9790000915527344 42.417999267578125,2.9790000915527344z"></path></g><g opacity="1" transform="matrix(1,0,0,1,149.13600158691406,15.970999717712402)"><path fill="rgb(77,67,95)" fill-opacity="1" d=" M5.565000057220459,-5.781000137329102 C5.565000057220459,-5.781000137329102 -5.565000057220459,-5.781000137329102 -5.565000057220459,-5.781000137329102 C-5.565000057220459,-5.781000137329102 -5.565000057220459,5.781000137329102 -5.565000057220459,5.781000137329102 C-5.565000057220459,5.781000137329102 5.565000057220459,5.781000137329102 5.565000057220459,5.781000137329102 C5.565000057220459,5.781000137329102 5.565000057220459,-5.781000137329102 5.565000057220459,-5.781000137329102z"></path></g><g opacity="1" transform="matrix(1,0,0,1,168.57000732421875,15.970999717712402)"><path fill="rgb(77,67,95)" fill-opacity="1" d=" M5.565999984741211,-5.781000137329102 C5.565999984741211,-5.781000137329102 -5.565999984741211,-5.781000137329102 -5.565999984741211,-5.781000137329102 C-5.565999984741211,-5.781000137329102 -5.565999984741211,5.781000137329102 -5.565999984741211,5.781000137329102 C-5.565999984741211,5.781000137329102 5.565999984741211,5.781000137329102 5.565999984741211,5.781000137329102 C5.565999984741211,5.781000137329102 5.565999984741211,-5.781000137329102 5.565999984741211,-5.781000137329102z"></path></g><g opacity="1" transform="matrix(1,0,0,1,129.70199584960938,15.970999717712402)"><path fill="rgb(77,67,95)" fill-opacity="1" d=" M5.565999984741211,-5.781000137329102 C5.565999984741211,-5.781000137329102 -5.565999984741211,-5.781000137329102 -5.565999984741211,-5.781000137329102 C-5.565999984741211,-5.781000137329102 -5.565999984741211,5.781000137329102 -5.565999984741211,5.781000137329102 C-5.565999984741211,5.781000137329102 5.565999984741211,5.781000137329102 5.565999984741211,5.781000137329102 C5.565999984741211,5.781000137329102 5.565999984741211,-5.781000137329102 5.565999984741211,-5.781000137329102z"></path></g><g opacity="1" transform="matrix(1,0,0,1,188.00399780273438,15.970999717712402)"><path fill="rgb(77,67,95)" fill-opacity="1" d=" M5.565999984741211,-5.781000137329102 C5.565999984741211,-5.781000137329102 -5.565999984741211,-5.781000137329102 -5.565999984741211,-5.781000137329102 C-5.565999984741211,-5.781000137329102 -5.565999984741211,5.781000137329102 -5.565999984741211,5.781000137329102 C-5.565999984741211,5.781000137329102 5.565999984741211,5.781000137329102 5.565999984741211,5.781000137329102 C5.565999984741211,5.781000137329102 5.565999984741211,-5.781000137329102 5.565999984741211,-5.781000137329102z"></path></g><g opacity="1" transform="matrix(1,0,0,1,267.33599853515625,20.27899932861328)"><path fill="rgb(239,82,34)" fill-opacity="1" d=" M42.417999267578125,14.010000228881836 C42.417999267578125,14.010000228881836 -42.417999267578125,14.010000228881836 -42.417999267578125,14.010000228881836 C-42.417999267578125,14.010000228881836 -42.417999267578125,-14.010000228881836 -42.417999267578125,-14.010000228881836 C-42.417999267578125,-14.010000228881836 42.417999267578125,-14.010000228881836 42.417999267578125,-14.010000228881836 C42.417999267578125,-14.010000228881836 42.417999267578125,14.010000228881836 42.417999267578125,14.010000228881836z"></path></g><g opacity="1" transform="matrix(1,0,0,1,267.33599853515625,3.259999990463257)"><path fill="rgb(141,124,142)" fill-opacity="1" d=" M-50.11899948120117,3.009999990463257 C-50.11899948120117,-0.3140000104904175 -47.42499923706055,-3.009999990463257 -44.099998474121094,-3.009999990463257 C-44.099998474121094,-3.009999990463257 44.099998474121094,-3.009999990463257 44.099998474121094,-3.009999990463257 C47.42399978637695,-3.009999990463257 50.11899948120117,-0.3140000104904175 50.11899948120117,3.009999990463257 C50.11899948120117,3.009999990463257 -50.11899948120117,3.009999990463257 -50.11899948120117,3.009999990463257z"></path></g><g opacity="1" transform="matrix(1,0,0,1,267.33599853515625,34.28799819946289)"><path fill="rgb(77,67,95)" fill-opacity="1" d=" M42.417999267578125,2.9790000915527344 C42.417999267578125,2.9790000915527344 -42.417999267578125,2.9790000915527344 -42.417999267578125,2.9790000915527344 C-42.417999267578125,2.9790000915527344 -42.417999267578125,-2.9790000915527344 -42.417999267578125,-2.9790000915527344 C-42.417999267578125,-2.9790000915527344 42.417999267578125,-2.9790000915527344 42.417999267578125,-2.9790000915527344 C42.417999267578125,-2.9790000915527344 42.417999267578125,2.9790000915527344 42.417999267578125,2.9790000915527344z"></path></g><g opacity="1" transform="matrix(1,0,0,1,238.18499755859375,15.970999717712402)"><path fill="rgb(77,67,95)" fill-opacity="1" d=" M5.565999984741211,-5.781000137329102 C5.565999984741211,-5.781000137329102 -5.565999984741211,-5.781000137329102 -5.565999984741211,-5.781000137329102 C-5.565999984741211,-5.781000137329102 -5.565999984741211,5.781000137329102 -5.565999984741211,5.781000137329102 C-5.565999984741211,5.781000137329102 5.565999984741211,5.781000137329102 5.565999984741211,5.781000137329102 C5.565999984741211,5.781000137329102 5.565999984741211,-5.781000137329102 5.565999984741211,-5.781000137329102z"></path></g><g opacity="1" transform="matrix(1,0,0,1,296.4880065917969,15.970999717712402)"><path fill="rgb(77,67,95)" fill-opacity="1" d=" M5.565999984741211,-5.781000137329102 C5.565999984741211,-5.781000137329102 -5.565999984741211,-5.781000137329102 -5.565999984741211,-5.781000137329102 C-5.565999984741211,-5.781000137329102 -5.565999984741211,5.781000137329102 -5.565999984741211,5.781000137329102 C-5.565999984741211,5.781000137329102 5.565999984741211,5.781000137329102 5.565999984741211,5.781000137329102 C5.565999984741211,5.781000137329102 5.565999984741211,-5.781000137329102 5.565999984741211,-5.781000137329102z"></path></g><g opacity="1" transform="matrix(1,0,0,1,312.12701416015625,23.55299949645996)"><path fill="rgb(141,124,142)" fill-opacity="1" d=" M2.371999979019165,-7.757999897003174 C2.371999979019165,-7.757999897003174 -2.371999979019165,-7.757999897003174 -2.371999979019165,-7.757999897003174 C-2.371999979019165,-7.757999897003174 -2.371999979019165,7.757999897003174 -2.371999979019165,7.757999897003174 C-2.371999979019165,7.757999897003174 2.371999979019165,7.757999897003174 2.371999979019165,7.757999897003174 C2.371999979019165,7.757999897003174 2.371999979019165,-7.757999897003174 2.371999979019165,-7.757999897003174z"></path></g><g opacity="1" transform="matrix(1,0,0,1,0,0)"><path stroke-linecap="round" stroke-linejoin="round" fill-opacity="0" stroke="rgb(77,67,95)" stroke-opacity="1" stroke-width="3.848" d=" M201.27099609375,31.309999465942383 C201.27099609375,31.309999465942383 224.91700744628906,31.309999465942383 224.91700744628906,31.309999465942383"></path></g><g opacity="1" transform="matrix(1,0,0,1,0,0)"><path stroke-linecap="round" stroke-linejoin="round" fill-opacity="0" stroke="rgb(77,67,95)" stroke-opacity="1" stroke-width="3.848" d=" M92.78800201416016,31.309999465942383 C92.78800201416016,31.309999465942383 116.43399810791016,31.309999465942383 116.43399810791016,31.309999465942383"></path></g></g></g><g mask="url(#__lottie_element_2096)" style="display: block;"><g transform="matrix(0.33329999446868896,0,0,0.33329999446868896,12.130736351013184,0.6330206394195557)" opacity="1"><g opacity="1" transform="matrix(1,0,0,1,21.218000411987305,33.41699981689453)"><path fill="rgb(77,67,95)" fill-opacity="1" d=" M8.16100025177002,-0.0010000000474974513 C8.16100025177002,4.50600004196167 4.507999897003174,8.15999984741211 0,8.15999984741211 C-4.506999969482422,8.15999984741211 -8.16100025177002,4.50600004196167 -8.16100025177002,-0.0010000000474974513 C-8.16100025177002,-4.507999897003174 -4.506999969482422,-8.15999984741211 0,-8.15999984741211 C4.507999897003174,-8.15999984741211 8.16100025177002,-4.507999897003174 8.16100025177002,-0.0010000000474974513z"></path></g><g opacity="1" transform="matrix(1,0,0,1,40.65299987792969,33.41699981689453)"><path fill="rgb(77,67,95)" fill-opacity="1" d=" M8.16100025177002,-0.0010000000474974513 C8.16100025177002,4.50600004196167 4.506999969482422,8.15999984741211 0,8.15999984741211 C-4.506999969482422,8.15999984741211 -8.16100025177002,4.50600004196167 -8.16100025177002,-0.0010000000474974513 C-8.16100025177002,-4.507999897003174 -4.506999969482422,-8.15999984741211 0,-8.15999984741211 C4.506999969482422,-8.15999984741211 8.16100025177002,-4.507999897003174 8.16100025177002,-0.0010000000474974513z"></path></g><g opacity="1" transform="matrix(1,0,0,1,60.08599853515625,33.41699981689453)"><path fill="rgb(77,67,95)" fill-opacity="1" d=" M8.16100025177002,-0.0010000000474974513 C8.16100025177002,4.50600004196167 4.506999969482422,8.15999984741211 0,8.15999984741211 C-4.506999969482422,8.15999984741211 -8.16100025177002,4.50600004196167 -8.16100025177002,-0.0010000000474974513 C-8.16100025177002,-4.507999897003174 -4.506999969482422,-8.15999984741211 0,-8.15999984741211 C4.506999969482422,-8.15999984741211 8.16100025177002,-4.507999897003174 8.16100025177002,-0.0010000000474974513z"></path></g><g opacity="1" transform="matrix(1,0,0,1,79.52100372314453,33.41699981689453)"><path fill="rgb(77,67,95)" fill-opacity="1" d=" M8.16100025177002,-0.0010000000474974513 C8.16100025177002,4.50600004196167 4.507999897003174,8.15999984741211 0,8.15999984741211 C-4.506999969482422,8.15999984741211 -8.16100025177002,4.50600004196167 -8.16100025177002,-0.0010000000474974513 C-8.16100025177002,-4.507999897003174 -4.506999969482422,-8.15999984741211 0,-8.15999984741211 C4.507999897003174,-8.15999984741211 8.16100025177002,-4.507999897003174 8.16100025177002,-0.0010000000474974513z"></path></g><g opacity="1" transform="matrix(1,0,0,1,50.369998931884766,24.7450008392334)"><path fill="rgb(239,82,34)" fill-opacity="1" d=" M42.417999267578125,9.543999671936035 C42.417999267578125,9.543999671936035 -73.04299926757812,9.543999671936035 -73.04299926757812,9.543999671936035 C-73.04299926757812,9.543999671936035 -78.64099884033203,-18.292999267578125 -48.042999267578125,-18.48200035095215 C-26.267000198364258,-18.617000579833984 42.417999267578125,-18.48200035095215 42.417999267578125,-18.48200035095215 C42.417999267578125,-18.48200035095215 42.417999267578125,9.543999671936035 42.417999267578125,9.543999671936035z"></path></g><g opacity="1" transform="matrix(1,0,0,1,50.369998931884766,15.20199966430664)"><path fill="rgb(235,208,161)" fill-opacity="1" d=" M42.417999267578125,8.930999755859375 C42.417999267578125,8.930999755859375 -66.41799926757812,8.930999755859375 -66.41799926757812,8.930999755859375 C-66.41799926757812,8.930999755859375 -64.89099884033203,-3.374000072479248 -48.042999267578125,-3.243000030517578 C-39.51499938964844,-3.177000045776367 42.417999267578125,-3.243000030517578 42.417999267578125,-3.243000030517578 C42.417999267578125,-3.243000030517578 42.417999267578125,8.930999755859375 42.417999267578125,8.930999755859375z"></path></g><g opacity="1" transform="matrix(1,0,0,1,50.369998931884766,8.229999542236328)"><path fill="rgb(175,60,25)" fill-opacity="1" d=" M42.417999267578125,3.8359999656677246 C42.417999267578125,3.8359999656677246 -42.417999267578125,3.8359999656677246 -42.417999267578125,3.8359999656677246 C-42.417999267578125,3.8359999656677246 -42.417999267578125,-1.9609999656677246 -42.417999267578125,-1.9609999656677246 C-42.417999267578125,-1.9609999656677246 42.417999267578125,-1.9609999656677246 42.417999267578125,-1.9609999656677246 C42.417999267578125,-1.9609999656677246 42.417999267578125,3.8359999656677246 42.417999267578125,3.8359999656677246z"></path></g><g opacity="1" transform="matrix(1,0,0,1,50.36899948120117,3.259999990463257)"><path fill="rgb(141,124,142)" fill-opacity="1" d=" M-43.86899948120117,3.009999990463257 C-43.86899948120117,3.009999990463257 -44.099998474121094,-3.009999990463257 -44.099998474121094,-3.009999990463257 C-44.099998474121094,-3.009999990463257 44.099998474121094,-3.009999990463257 44.099998474121094,-3.009999990463257 C47.42399978637695,-3.009999990463257 50.11899948120117,-0.3140000104904175 50.11899948120117,3.009999990463257 C50.11899948120117,3.009999990463257 -43.86899948120117,3.009999990463257 -43.86899948120117,3.009999990463257z"></path></g><g opacity="1" transform="matrix(1,0,0,1,50.369998931884766,34.28799819946289)"><path fill="rgb(77,67,95)" fill-opacity="1" d=" M42.417999267578125,2.9790000915527344 C42.417999267578125,2.9790000915527344 -73.16799926757812,2.9790000915527344 -73.16799926757812,2.9790000915527344 C-73.16799926757812,2.9790000915527344 -73.16799926757812,-2.9790000915527344 -73.16799926757812,-2.9790000915527344 C-73.16799926757812,-2.9790000915527344 42.417999267578125,-2.9790000915527344 42.417999267578125,-2.9790000915527344 C42.417999267578125,-2.9790000915527344 42.417999267578125,2.9790000915527344 42.417999267578125,2.9790000915527344z"></path></g><g opacity="1" transform="matrix(1,0,0,1,60.08599853515625,15.970999717712402)"><path fill="rgb(77,67,95)" fill-opacity="1" d=" M5.565999984741211,-5.781000137329102 C5.565999984741211,-5.781000137329102 -5.565999984741211,-5.781000137329102 -5.565999984741211,-5.781000137329102 C-5.565999984741211,-5.781000137329102 -5.565999984741211,5.781000137329102 -5.565999984741211,5.781000137329102 C-5.565999984741211,5.781000137329102 5.565999984741211,5.781000137329102 5.565999984741211,5.781000137329102 C5.565999984741211,5.781000137329102 5.565999984741211,-5.781000137329102 5.565999984741211,-5.781000137329102z"></path></g><g opacity="1" transform="matrix(1,0,0,1,79.5199966430664,15.970999717712402)"><path fill="rgb(77,67,95)" fill-opacity="1" d=" M5.565999984741211,-5.781000137329102 C5.565999984741211,-5.781000137329102 -5.565999984741211,-5.781000137329102 -5.565999984741211,-5.781000137329102 C-5.565999984741211,-5.781000137329102 -5.565999984741211,5.781000137329102 -5.565999984741211,5.781000137329102 C-5.565999984741211,5.781000137329102 5.565999984741211,5.781000137329102 5.565999984741211,5.781000137329102 C5.565999984741211,5.781000137329102 5.565999984741211,-5.781000137329102 5.565999984741211,-5.781000137329102z"></path></g><g opacity="1" transform="matrix(1,0,0,1,0,0)"><path stroke-linecap="round" stroke-linejoin="round" fill-opacity="0" stroke="rgb(77,67,95)" stroke-opacity="1" stroke-width="3.848" d=" M92.78800201416016,31.309999465942383 C92.78800201416016,31.309999465942383 116.43399810791016,31.309999465942383 116.43399810791016,31.309999465942383"></path></g><g opacity="1" transform="matrix(0.05739999935030937,0,0,0.05739999935030937,19.517000198364258,17.87700080871582)"><path fill="rgb(77,67,95)" fill-opacity="1" d=" M7.330999851226807,-50 C38.99399948120117,-50 64.66200256347656,-24.332000732421875 64.66200256347656,7.330999851226807 C64.66200256347656,38.99399948120117 38.99399948120117,64.66200256347656 7.330999851226807,64.66200256347656 C-24.332000732421875,64.66200256347656 -50,38.99399948120117 -50,7.330999851226807 C-50,-24.332000732421875 -24.332000732421875,-50 7.330999851226807,-50z"></path></g><g opacity="1" transform="matrix(0.05739999935030937,0,0,0.05739999935030937,32.016998291015625,17.87700080871582)"><path fill="rgb(77,67,95)" fill-opacity="1" d=" M7.330999851226807,-50 C38.99399948120117,-50 64.66200256347656,-24.332000732421875 64.66200256347656,7.330999851226807 C64.66200256347656,38.99399948120117 38.99399948120117,64.66200256347656 7.330999851226807,64.66200256347656 C-24.332000732421875,64.66200256347656 -50,38.99399948120117 -50,7.330999851226807 C-50,-24.332000732421875 -24.332000732421875,-50 7.330999851226807,-50z"></path></g></g></g></g></svg>