<svg xmlns="http://www.w3.org/2000/svg" viewBox="0 0 90 45" width="90" height="45" preserveAspectRatio="xMidYMid meet" style="width: 100%; height: 100%; transform: translate3d(0px, 0px, 0px); content-visibility: visible;"><defs><clipPath id="__lottie_element_4030"><rect width="90" height="45" x="0" y="0"></rect></clipPath><mask id="__lottie_element_4035" mask-type="alpha"><g transform="matrix(0.25765153765678406,0.013502945192158222,-0.013502945192158222,0.25765153765678406,881.283447265625,-294.0501403808594)" opacity="1" style="display: block;"><g opacity="1" transform="matrix(1,0,0,0.9498699903488159,-3298.947021484375,1434.33203125)"><path fill="rgb(136,212,235)" fill-opacity="1" d=" M51.0525016784668,-49.332000732421875 C51.0525016784668,-49.332000732421875 51.0525016784668,49.332000732421875 51.0525016784668,49.332000732421875 C51.0525016784668,49.332000732421875 -51.0525016784668,49.332000732421875 -51.0525016784668,49.332000732421875 C-51.0525016784668,49.332000732421875 -51.0525016784668,-49.332000732421875 -51.0525016784668,-49.332000732421875 C-51.0525016784668,-49.332000732421875 51.0525016784668,-49.332000732421875 51.0525016784668,-49.332000732421875z"></path><path stroke-linecap="butt" stroke-linejoin="miter" fill-opacity="0" stroke-miterlimit="4" stroke="rgb(135,207,214)" stroke-opacity="1" stroke-width="0" d=" M51.0525016784668,-49.332000732421875 C51.0525016784668,-49.332000732421875 51.0525016784668,49.332000732421875 51.0525016784668,49.332000732421875 C51.0525016784668,49.332000732421875 -51.0525016784668,49.332000732421875 -51.0525016784668,49.332000732421875 C-51.0525016784668,49.332000732421875 -51.0525016784668,-49.332000732421875 -51.0525016784668,-49.332000732421875 C-51.0525016784668,-49.332000732421875 51.0525016784668,-49.332000732421875 51.0525016784668,-49.332000732421875z"></path></g></g></mask><mask id="__lottie_element_4041" mask-type="alpha"><g transform="matrix(0.25765153765678406,0.013502946123480797,-0.013502946123480797,0.25765153765678406,880.4866943359375,-297.7110290527344)" opacity="1" style="display: block;"><g opacity="1" transform="matrix(1,0,0,1,-3034.658935546875,1357.675048828125)"><path fill="rgb(136,212,235)" fill-opacity="1" d=" M69.34100341796875,-58.67499923706055 C69.34100341796875,-58.67499923706055 69.34100341796875,58.67499923706055 69.34100341796875,58.67499923706055 C69.34100341796875,58.67499923706055 -69.34100341796875,58.67499923706055 -69.34100341796875,58.67499923706055 C-69.34100341796875,58.67499923706055 -69.34100341796875,-58.67499923706055 -69.34100341796875,-58.67499923706055 C-69.34100341796875,-58.67499923706055 69.34100341796875,-58.67499923706055 69.34100341796875,-58.67499923706055z"></path><path stroke-linecap="butt" stroke-linejoin="miter" fill-opacity="0" stroke-miterlimit="4" stroke="rgb(135,207,214)" stroke-opacity="1" stroke-width="0" d=" M69.34100341796875,-58.67499923706055 C69.34100341796875,-58.67499923706055 69.34100341796875,58.67499923706055 69.34100341796875,58.67499923706055 C69.34100341796875,58.67499923706055 -69.34100341796875,58.67499923706055 -69.34100341796875,58.67499923706055 C-69.34100341796875,58.67499923706055 -69.34100341796875,-58.67499923706055 -69.34100341796875,-58.67499923706055 C-69.34100341796875,-58.67499923706055 69.34100341796875,-58.67499923706055 69.34100341796875,-58.67499923706055z"></path></g></g></mask></defs><g clip-path="url(#__lottie_element_4030)"><g mask="url(#__lottie_element_4035)" style="display: block;"><g transform="matrix(1.7925382852554321,0.22009602189064026,-0.22009602189064026,1.7925382852554321,4.742155075073242,20.810184478759766)" opacity="1"><g opacity="1" transform="matrix(1,0,0,1,4.35099983215332,6.26200008392334)"><path fill="rgb(175,154,166)" fill-opacity="1" d=" M3.8389999866485596,6.011000156402588 C3.8389999866485596,6.011000156402588 3.8389999866485596,-2.1730000972747803 3.8389999866485596,-2.1730000972747803 C3.8389999866485596,-4.283999919891357 2.1110000610351562,-6.011000156402588 0,-6.011000156402588 C-2.111999988555908,-6.011000156402588 -3.8389999866485596,-4.283999919891357 -3.8389999866485596,-2.1730000972747803 C-3.8389999866485596,-2.1730000972747803 -3.8389999866485596,6.011000156402588 -3.8389999866485596,6.011000156402588 C-3.8389999866485596,6.011000156402588 3.8389999866485596,6.011000156402588 3.8389999866485596,6.011000156402588z"></path></g><g opacity="1" transform="matrix(1,0,0,1,0,0)"><path stroke-linecap="round" stroke-linejoin="round" fill-opacity="0" stroke="rgb(195,195,194)" stroke-opacity="1" stroke-width="0.8" d=" M2.74399995803833,4.834000110626221 C2.74399995803833,4.834000110626221 5.959000110626221,4.834000110626221 5.959000110626221,4.834000110626221"></path></g><g opacity="1" transform="matrix(1,0,0,1,0,0)"><path stroke-linecap="round" stroke-linejoin="round" fill-opacity="0" stroke="rgb(195,195,194)" stroke-opacity="1" stroke-width="0.8" d=" M2,6.9720001220703125 C2,6.9720001220703125 6.702000141143799,6.9720001220703125 6.702000141143799,6.9720001220703125"></path></g></g></g><g mask="url(#__lottie_element_4041)" style="display: block;"><g transform="matrix(1.8059998750686646,0,0,1.8059998750686646,70.97612762451172,0.9020146131515503)" opacity="1"><g opacity="1" transform="matrix(1,0,0,1,4.761000156402588,7.308000087738037)"><path fill="rgb(175,154,166)" fill-opacity="1" d=" M4.506999969482422,7.057000160217285 C4.506999969482422,7.057000160217285 4.506999969482422,-2.549999952316284 4.506999969482422,-2.549999952316284 C4.506999969482422,-5.0289998054504395 2.4790000915527344,-7.057000160217285 0,-7.057000160217285 C-2.4790000915527344,-7.057000160217285 -4.506999969482422,-5.0289998054504395 -4.506999969482422,-2.549999952316284 C-4.506999969482422,-2.549999952316284 -4.506999969482422,7.057000160217285 -4.506999969482422,7.057000160217285 C-4.506999969482422,7.057000160217285 4.506999969482422,7.057000160217285 4.506999969482422,7.057000160217285z"></path></g><g opacity="1" transform="matrix(1,0,0,1,0,0)"><path stroke-linecap="round" stroke-linejoin="round" fill-opacity="0" stroke="rgb(195,195,194)" stroke-opacity="1" stroke-width="0.8" d=" M2.872999906539917,5.63100004196167 C2.872999906539917,5.63100004196167 6.646999835968018,5.63100004196167 6.646999835968018,5.63100004196167"></path></g><g opacity="1" transform="matrix(1,0,0,1,0,0)"><path stroke-linecap="round" stroke-linejoin="round" fill-opacity="0" stroke="rgb(195,195,194)" stroke-opacity="1" stroke-width="0.8" d=" M2,8.140999794006348 C2,8.140999794006348 7.520999908447266,8.140999794006348 7.520999908447266,8.140999794006348"></path></g></g></g></g></svg>