<svg xmlns="http://www.w3.org/2000/svg" viewBox="0 0 33 106" width="33" height="106" preserveAspectRatio="xMidYMid meet" style="width: 100%; height: 100%; transform: translate3d(0px, 0px, 0px); content-visibility: visible;"><defs><clipPath id="__lottie_element_1027"><rect width="33" height="106" x="0" y="0"></rect></clipPath></defs><g clip-path="url(#__lottie_element_1027)"><g transform="matrix(1.623172402381897,-0.08506686240434647,0.09451872855424881,1.8035247325897217,6.801991939544678,4.262922286987305)" opacity="1" style="display: block;"><g opacity="1" transform="matrix(1,0,0,1,7.144999980926514,4.15500020980835)"><path fill="rgb(238,235,234)" fill-opacity="1" d=" M6.894999980926514,-3.9049999713897705 C6.894999980926514,-3.9049999713897705 -6.894999980926514,-3.9049999713897705 -6.894999980926514,-3.9049999713897705 C-6.894999980926514,-3.9049999713897705 -6.894999980926514,3.9049999713897705 -6.894999980926514,3.9049999713897705 C-6.894999980926514,3.9049999713897705 6.894999980926514,3.9049999713897705 6.894999980926514,3.9049999713897705 C6.894999980926514,3.9049999713897705 6.894999980926514,-3.9049999713897705 6.894999980926514,-3.9049999713897705z"></path></g><g opacity="1" transform="matrix(1,0,0,1,7.144999980926514,1.031000018119812)"><path fill="rgb(193,66,60)" fill-opacity="1" d=" M6.894999980926514,-0.781000018119812 C6.894999980926514,-0.781000018119812 -6.894999980926514,-0.781000018119812 -6.894999980926514,-0.781000018119812 C-6.894999980926514,-0.781000018119812 -6.894999980926514,0.781000018119812 -6.894999980926514,0.781000018119812 C-6.894999980926514,0.781000018119812 6.894999980926514,0.781000018119812 6.894999980926514,0.781000018119812 C6.894999980926514,0.781000018119812 6.894999980926514,-0.781000018119812 6.894999980926514,-0.781000018119812z"></path></g><g opacity="1" transform="matrix(1,0,0,1,7.144999980926514,4.156000137329102)"><path fill="rgb(193,66,60)" fill-opacity="1" d=" M6.894999980926514,-0.781000018119812 C6.894999980926514,-0.781000018119812 -6.894999980926514,-0.781000018119812 -6.894999980926514,-0.781000018119812 C-6.894999980926514,-0.781000018119812 -6.894999980926514,0.781000018119812 -6.894999980926514,0.781000018119812 C-6.894999980926514,0.781000018119812 6.894999980926514,0.781000018119812 6.894999980926514,0.781000018119812 C6.894999980926514,0.781000018119812 6.894999980926514,-0.781000018119812 6.894999980926514,-0.781000018119812z"></path></g><g opacity="1" transform="matrix(1,0,0,1,7.144999980926514,7.28000020980835)"><path fill="rgb(193,66,60)" fill-opacity="1" d=" M6.894999980926514,-0.781000018119812 C6.894999980926514,-0.781000018119812 -6.894999980926514,-0.781000018119812 -6.894999980926514,-0.781000018119812 C-6.894999980926514,-0.781000018119812 -6.894999980926514,0.781000018119812 -6.894999980926514,0.781000018119812 C-6.894999980926514,0.781000018119812 6.894999980926514,0.781000018119812 6.894999980926514,0.781000018119812 C6.894999980926514,0.781000018119812 6.894999980926514,-0.781000018119812 6.894999980926514,-0.781000018119812z"></path></g><g opacity="1" transform="matrix(1,0,0,1,3.236999988555908,2.5940001010894775)"><path fill="rgb(17,128,195)" fill-opacity="1" d=" M-2.986999988555908,2.3429999351501465 C-2.986999988555908,2.3429999351501465 2.986999988555908,2.3429999351501465 2.986999988555908,2.3429999351501465 C2.986999988555908,2.3429999351501465 2.986999988555908,-2.3429999351501465 2.986999988555908,-2.3429999351501465 C2.986999988555908,-2.3429999351501465 -2.986999988555908,-2.3429999351501465 -2.986999988555908,-2.3429999351501465 C-2.986999988555908,-2.3429999351501465 -2.986999988555908,2.3429999351501465 -2.986999988555908,2.3429999351501465z"></path></g><g opacity="1" transform="matrix(1,0,0,1,1.3289999961853027,1.2960000038146973)"><path fill="rgb(255,255,255)" fill-opacity="1" d=" M0,-0.5170000195503235 C0,-0.5170000195503235 0.1720000058412552,-0.18299999833106995 0.1720000058412552,-0.18299999833106995 C0.1720000058412552,-0.18299999833106995 0.5440000295639038,-0.12200000137090683 0.5440000295639038,-0.12200000137090683 C0.5440000295639038,-0.12200000137090683 0.27900001406669617,0.14499999582767487 0.27900001406669617,0.14499999582767487 C0.27900001406669617,0.14499999582767487 0.335999995470047,0.5170000195503235 0.335999995470047,0.5170000195503235 C0.335999995470047,0.5170000195503235 0,0.3479999899864197 0,0.3479999899864197 C0,0.3479999899864197 -0.335999995470047,0.5170000195503235 -0.335999995470047,0.5170000195503235 C-0.335999995470047,0.5170000195503235 -0.27900001406669617,0.14499999582767487 -0.27900001406669617,0.14499999582767487 C-0.27900001406669617,0.14499999582767487 -0.5440000295639038,-0.12200000137090683 -0.5440000295639038,-0.12200000137090683 C-0.5440000295639038,-0.12200000137090683 -0.1720000058412552,-0.18299999833106995 -0.1720000058412552,-0.18299999833106995 C-0.1720000058412552,-0.18299999833106995 0,-0.5170000195503235 0,-0.5170000195503235z"></path></g><g opacity="1" transform="matrix(1,0,0,1,3.236999988555908,1.2960000038146973)"><path fill="rgb(255,255,255)" fill-opacity="1" d=" M0,-0.5170000195503235 C0,-0.5170000195503235 0.1720000058412552,-0.18299999833106995 0.1720000058412552,-0.18299999833106995 C0.1720000058412552,-0.18299999833106995 0.5440000295639038,-0.12200000137090683 0.5440000295639038,-0.12200000137090683 C0.5440000295639038,-0.12200000137090683 0.27900001406669617,0.14499999582767487 0.27900001406669617,0.14499999582767487 C0.27900001406669617,0.14499999582767487 0.335999995470047,0.5170000195503235 0.335999995470047,0.5170000195503235 C0.335999995470047,0.5170000195503235 0,0.3479999899864197 0,0.3479999899864197 C0,0.3479999899864197 -0.335999995470047,0.5170000195503235 -0.335999995470047,0.5170000195503235 C-0.335999995470047,0.5170000195503235 -0.27900001406669617,0.14499999582767487 -0.27900001406669617,0.14499999582767487 C-0.27900001406669617,0.14499999582767487 -0.5440000295639038,-0.12200000137090683 -0.5440000295639038,-0.12200000137090683 C-0.5440000295639038,-0.12200000137090683 -0.1720000058412552,-0.18299999833106995 -0.1720000058412552,-0.18299999833106995 C-0.1720000058412552,-0.18299999833106995 0,-0.5170000195503235 0,-0.5170000195503235z"></path></g><g opacity="1" transform="matrix(1,0,0,1,5.144999980926514,1.2960000038146973)"><path fill="rgb(255,255,255)" fill-opacity="1" d=" M0,-0.5170000195503235 C0,-0.5170000195503235 0.1720000058412552,-0.18299999833106995 0.1720000058412552,-0.18299999833106995 C0.1720000058412552,-0.18299999833106995 0.5440000295639038,-0.12200000137090683 0.5440000295639038,-0.12200000137090683 C0.5440000295639038,-0.12200000137090683 0.27900001406669617,0.14499999582767487 0.27900001406669617,0.14499999582767487 C0.27900001406669617,0.14499999582767487 0.335999995470047,0.5170000195503235 0.335999995470047,0.5170000195503235 C0.335999995470047,0.5170000195503235 0,0.3479999899864197 0,0.3479999899864197 C0,0.3479999899864197 -0.335999995470047,0.5170000195503235 -0.335999995470047,0.5170000195503235 C-0.335999995470047,0.5170000195503235 -0.27900001406669617,0.14499999582767487 -0.27900001406669617,0.14499999582767487 C-0.27900001406669617,0.14499999582767487 -0.5440000295639038,-0.12200000137090683 -0.5440000295639038,-0.12200000137090683 C-0.5440000295639038,-0.12200000137090683 -0.1720000058412552,-0.18299999833106995 -0.1720000058412552,-0.18299999833106995 C-0.1720000058412552,-0.18299999833106995 0,-0.5170000195503235 0,-0.5170000195503235z"></path></g><g opacity="1" transform="matrix(1,0,0,1,1.3289999961853027,3.8239998817443848)"><path fill="rgb(255,255,255)" fill-opacity="1" d=" M0,-0.5170000195503235 C0,-0.5170000195503235 0.1720000058412552,-0.18299999833106995 0.1720000058412552,-0.18299999833106995 C0.1720000058412552,-0.18299999833106995 0.5440000295639038,-0.12200000137090683 0.5440000295639038,-0.12200000137090683 C0.5440000295639038,-0.12200000137090683 0.27900001406669617,0.14499999582767487 0.27900001406669617,0.14499999582767487 C0.27900001406669617,0.14499999582767487 0.335999995470047,0.5170000195503235 0.335999995470047,0.5170000195503235 C0.335999995470047,0.5170000195503235 0,0.3479999899864197 0,0.3479999899864197 C0,0.3479999899864197 -0.335999995470047,0.5170000195503235 -0.335999995470047,0.5170000195503235 C-0.335999995470047,0.5170000195503235 -0.27900001406669617,0.14499999582767487 -0.27900001406669617,0.14499999582767487 C-0.27900001406669617,0.14499999582767487 -0.5440000295639038,-0.12200000137090683 -0.5440000295639038,-0.12200000137090683 C-0.5440000295639038,-0.12200000137090683 -0.1720000058412552,-0.18299999833106995 -0.1720000058412552,-0.18299999833106995 C-0.1720000058412552,-0.18299999833106995 0,-0.5170000195503235 0,-0.5170000195503235z"></path></g><g opacity="1" transform="matrix(1,0,0,1,3.236999988555908,3.8239998817443848)"><path fill="rgb(255,255,255)" fill-opacity="1" d=" M0,-0.5170000195503235 C0,-0.5170000195503235 0.1720000058412552,-0.18299999833106995 0.1720000058412552,-0.18299999833106995 C0.1720000058412552,-0.18299999833106995 0.5440000295639038,-0.12200000137090683 0.5440000295639038,-0.12200000137090683 C0.5440000295639038,-0.12200000137090683 0.27900001406669617,0.14499999582767487 0.27900001406669617,0.14499999582767487 C0.27900001406669617,0.14499999582767487 0.335999995470047,0.5170000195503235 0.335999995470047,0.5170000195503235 C0.335999995470047,0.5170000195503235 0,0.3479999899864197 0,0.3479999899864197 C0,0.3479999899864197 -0.335999995470047,0.5170000195503235 -0.335999995470047,0.5170000195503235 C-0.335999995470047,0.5170000195503235 -0.27900001406669617,0.14499999582767487 -0.27900001406669617,0.14499999582767487 C-0.27900001406669617,0.14499999582767487 -0.5440000295639038,-0.12200000137090683 -0.5440000295639038,-0.12200000137090683 C-0.5440000295639038,-0.12200000137090683 -0.1720000058412552,-0.18299999833106995 -0.1720000058412552,-0.18299999833106995 C-0.1720000058412552,-0.18299999833106995 0,-0.5170000195503235 0,-0.5170000195503235z"></path></g><g opacity="1" transform="matrix(1,0,0,1,5.144999980926514,3.8239998817443848)"><path fill="rgb(255,255,255)" fill-opacity="1" d=" M0,-0.5170000195503235 C0,-0.5170000195503235 0.1720000058412552,-0.18299999833106995 0.1720000058412552,-0.18299999833106995 C0.1720000058412552,-0.18299999833106995 0.5440000295639038,-0.12200000137090683 0.5440000295639038,-0.12200000137090683 C0.5440000295639038,-0.12200000137090683 0.27900001406669617,0.14499999582767487 0.27900001406669617,0.14499999582767487 C0.27900001406669617,0.14499999582767487 0.335999995470047,0.5170000195503235 0.335999995470047,0.5170000195503235 C0.335999995470047,0.5170000195503235 0,0.3479999899864197 0,0.3479999899864197 C0,0.3479999899864197 -0.335999995470047,0.5170000195503235 -0.335999995470047,0.5170000195503235 C-0.335999995470047,0.5170000195503235 -0.27900001406669617,0.14499999582767487 -0.27900001406669617,0.14499999582767487 C-0.27900001406669617,0.14499999582767487 -0.5440000295639038,-0.12200000137090683 -0.5440000295639038,-0.12200000137090683 C-0.5440000295639038,-0.12200000137090683 -0.1720000058412552,-0.18299999833106995 -0.1720000058412552,-0.18299999833106995 C-0.1720000058412552,-0.18299999833106995 0,-0.5170000195503235 0,-0.5170000195503235z"></path></g><g opacity="1" transform="matrix(1,0,0,1,4.190999984741211,2.559999942779541)"><path fill="rgb(255,255,255)" fill-opacity="1" d=" M0,-0.5170000195503235 C0,-0.5170000195503235 0.1720000058412552,-0.18299999833106995 0.1720000058412552,-0.18299999833106995 C0.1720000058412552,-0.18299999833106995 0.5440000295639038,-0.12200000137090683 0.5440000295639038,-0.12200000137090683 C0.5440000295639038,-0.12200000137090683 0.27900001406669617,0.14499999582767487 0.27900001406669617,0.14499999582767487 C0.27900001406669617,0.14499999582767487 0.335999995470047,0.5170000195503235 0.335999995470047,0.5170000195503235 C0.335999995470047,0.5170000195503235 0,0.3479999899864197 0,0.3479999899864197 C0,0.3479999899864197 -0.335999995470047,0.5170000195503235 -0.335999995470047,0.5170000195503235 C-0.335999995470047,0.5170000195503235 -0.27900001406669617,0.14499999582767487 -0.27900001406669617,0.14499999582767487 C-0.27900001406669617,0.14499999582767487 -0.5440000295639038,-0.12200000137090683 -0.5440000295639038,-0.12200000137090683 C-0.5440000295639038,-0.12200000137090683 -0.1720000058412552,-0.18299999833106995 -0.1720000058412552,-0.18299999833106995 C-0.1720000058412552,-0.18299999833106995 0,-0.5170000195503235 0,-0.5170000195503235z"></path></g><g opacity="1" transform="matrix(1,0,0,1,2.2829999923706055,2.559999942779541)"><path fill="rgb(255,255,255)" fill-opacity="1" d=" M0,-0.5170000195503235 C0,-0.5170000195503235 0.1720000058412552,-0.18299999833106995 0.1720000058412552,-0.18299999833106995 C0.1720000058412552,-0.18299999833106995 0.5440000295639038,-0.12200000137090683 0.5440000295639038,-0.12200000137090683 C0.5440000295639038,-0.12200000137090683 0.27900001406669617,0.14499999582767487 0.27900001406669617,0.14499999582767487 C0.27900001406669617,0.14499999582767487 0.335999995470047,0.5170000195503235 0.335999995470047,0.5170000195503235 C0.335999995470047,0.5170000195503235 0,0.3479999899864197 0,0.3479999899864197 C0,0.3479999899864197 -0.335999995470047,0.5170000195503235 -0.335999995470047,0.5170000195503235 C-0.335999995470047,0.5170000195503235 -0.27900001406669617,0.14499999582767487 -0.27900001406669617,0.14499999582767487 C-0.27900001406669617,0.14499999582767487 -0.5440000295639038,-0.12200000137090683 -0.5440000295639038,-0.12200000137090683 C-0.5440000295639038,-0.12200000137090683 -0.1720000058412552,-0.18299999833106995 -0.1720000058412552,-0.18299999833106995 C-0.1720000058412552,-0.18299999833106995 0,-0.5170000195503235 0,-0.5170000195503235z"></path></g></g><g transform="matrix(1.8059998750686646,0,0,1.8059998750686646,-0.21917347609996796,-1.3402156829833984)" opacity="1" style="display: block;"><g opacity="1" transform="matrix(1,0,0,1,4.329999923706055,56.02199935913086)"><path fill="rgb(206,143,70)" fill-opacity="1" d=" M1.3839999437332153,0.5960000157356262 C1.3839999437332153,0.5960000157356262 -1.3839999437332153,0.5960000157356262 -1.3839999437332153,0.5960000157356262 C-1.3839999437332153,0.5960000157356262 -1.3839999437332153,-0.5960000157356262 -1.3839999437332153,-0.5960000157356262 C-1.3839999437332153,-0.5960000157356262 1.3839999437332153,-0.5960000157356262 1.3839999437332153,-0.5960000157356262 C1.3839999437332153,-0.5960000157356262 1.3839999437332153,0.5960000157356262 1.3839999437332153,0.5960000157356262z"></path></g><g opacity="1" transform="matrix(1,0,0,1,4.330999851226807,57.21500015258789)"><path fill="rgb(206,143,70)" fill-opacity="1" d=" M2.578000068664551,0.5960000157356262 C2.578000068664551,0.5960000157356262 -2.578000068664551,0.5960000157356262 -2.578000068664551,0.5960000157356262 C-2.578000068664551,0.5960000157356262 -2.578000068664551,-0.5960000157356262 -2.578000068664551,-0.5960000157356262 C-2.578000068664551,-0.5960000157356262 2.578000068664551,-0.5960000157356262 2.578000068664551,-0.5960000157356262 C2.578000068664551,-0.5960000157356262 2.578000068664551,0.5960000157356262 2.578000068664551,0.5960000157356262z"></path></g><g opacity="1" transform="matrix(1,0,0,1,4.330999851226807,58.409000396728516)"><path fill="rgb(206,143,70)" fill-opacity="1" d=" M4.080999851226807,0.5960000157356262 C4.080999851226807,0.5960000157356262 -4.080999851226807,0.5960000157356262 -4.080999851226807,0.5960000157356262 C-4.080999851226807,0.5960000157356262 -4.080999851226807,-0.5960000157356262 -4.080999851226807,-0.5960000157356262 C-4.080999851226807,-0.5960000157356262 4.080999851226807,-0.5960000157356262 4.080999851226807,-0.5960000157356262 C4.080999851226807,-0.5960000157356262 4.080999851226807,0.5960000157356262 4.080999851226807,0.5960000157356262z"></path></g><g opacity="1" transform="matrix(1,0,0,1,0,0)"><path stroke-linecap="butt" stroke-linejoin="miter" fill-opacity="0" stroke-miterlimit="10" stroke="rgb(206,143,70)" stroke-opacity="1" stroke-width="1" d=" M4.322999954223633,56.85599899291992 C4.322999954223633,56.85599899291992 4.322999954223633,2.5 4.322999954223633,2.5"></path></g><g opacity="1" transform="matrix(1,0,0,1,4.326000213623047,2.187999963760376)"><path fill="rgb(206,143,70)" fill-opacity="1" d=" M1.0709999799728394,0 C1.0709999799728394,-0.5910000205039978 0.5910000205039978,-1.0709999799728394 -0.0010000000474974513,-1.0709999799728394 C-0.5920000076293945,-1.0709999799728394 -1.0709999799728394,-0.5910000205039978 -1.0709999799728394,0 C-1.0709999799728394,0.5910000205039978 -0.5920000076293945,1.0709999799728394 -0.0010000000474974513,1.0709999799728394 C0.5910000205039978,1.0709999799728394 1.0709999799728394,0.5910000205039978 1.0709999799728394,0z"></path></g></g></g></svg>