<?xml version="1.0" encoding="UTF-8" standalone="no"?>
<!DOCTYPE svg PUBLIC "-//W3C//DTD SVG 1.1//EN" "http://www.w3.org/Graphics/SVG/1.1/DTD/svg11.dtd">
<svg width="100%" height="100%" viewBox="0 0 65 79" version="1.1" xmlns="http://www.w3.org/2000/svg" xmlns:xlink="http://www.w3.org/1999/xlink" xml:space="preserve" xmlns:serif="http://www.serif.com/" style="fill-rule:evenodd;clip-rule:evenodd;stroke-linecap:round;stroke-linejoin:round;">
    <g>
        <g transform="matrix(0.332904,0.00798821,-0.00798821,0.332904,-107.52,-95.1009)">
            <g transform="matrix(1,0,0,1,413.711,388.696)">
                <path d="M0.001,-21.493C6.825,-21.493 12.408,-15.91 12.408,-9.086L12.408,21.493L-12.408,21.493L-12.408,-9.086C-12.408,-15.91 -6.823,-21.493 0.001,-21.493Z" style="fill:rgb(77,67,95);fill-rule:nonzero;"/>
            </g>
            <g transform="matrix(1,0,0,1,413.712,361.648)">
                <path d="M-12.407,0C-12.407,-6.853 -6.853,-12.407 0,-12.407C6.852,-12.407 12.407,-6.853 12.407,0C12.407,6.853 6.852,12.407 0,12.407C-6.853,12.407 -12.407,6.853 -12.407,0Z" style="fill:rgb(252,215,190);fill-rule:nonzero;"/>
            </g>
            <g transform="matrix(1,0,0,1,413.712,367.748)">
                <path d="M0,-0.73C2.239,-0.73 4.3,-1.456 5.996,-2.662C5.568,0.327 3.106,2.662 0,2.662C-3.107,2.662 -5.569,0.327 -5.996,-2.662C-4.3,-1.456 -2.24,-0.73 0,-0.73Z" style="fill:rgb(77,67,95);fill-rule:nonzero;"/>
            </g>
            <g transform="matrix(1,0,0,1,411.877,355.792)">
                <path d="M11.504,-1.893C11.504,-1.893 11.445,-3.539 10.975,-3.981C8.575,-6.233 5.379,-7.634 1.835,-7.634C-5.095,-7.634 -10.755,-2.361 -11.504,4.373C-11.404,4.547 -11.313,4.763 -11.208,4.909C-9.252,7.633 -6.598,6.161 -6.598,6.161C-8.76,4.721 -8.473,2.308 -8.473,2.308L11.504,-1.893Z" style="fill:rgb(77,67,95);fill-rule:nonzero;"/>
            </g>
            <g transform="matrix(0.558,0,0,0.558,409.745,359.932)">
                <path d="M3.5,0C3.5,1.932 1.932,3.5 0,3.5C-1.932,3.5 -3.5,1.932 -3.5,0C-3.5,-1.932 -1.932,-3.5 0,-3.5C1.932,-3.5 3.5,-1.932 3.5,0Z" style="fill:rgb(77,67,95);fill-rule:nonzero;"/>
            </g>
            <g transform="matrix(0.558,0,0,0.558,417.495,359.932)">
                <path d="M3.5,0C3.5,1.932 1.932,3.5 0,3.5C-1.932,3.5 -3.5,1.932 -3.5,0C-3.5,-1.932 -1.932,-3.5 0,-3.5C1.932,-3.5 3.5,-1.932 3.5,0Z" style="fill:rgb(77,67,95);fill-rule:nonzero;"/>
            </g>
            <g transform="matrix(1,0,0,1,411.975,355.988)">
                <path d="M-11.704,-0.97L10.878,-4.177L11.704,-1.728L-11.601,4.177L-11.704,-0.97Z" style="fill:rgb(17,128,195);fill-rule:nonzero;"/>
            </g>
            <g transform="matrix(1,0,0,1,423.102,352.235)">
                <path d="M1.419,0C1.419,-0.784 0.783,-1.419 0,-1.419C-0.784,-1.419 -1.419,-0.784 -1.419,0C-1.419,0.783 -0.784,1.419 0,1.419C0.783,1.419 1.419,0.783 1.419,0Z" style="fill:rgb(17,128,195);fill-rule:nonzero;"/>
            </g>
            <g transform="matrix(1,0,0,1,419.927,349.465)">
                <path d="M3.175,2.77C3.175,0.48 1.357,-2.77 -2.491,-2.77C-2.491,-2.77 -3.175,2.77 3.175,2.77Z" style="fill:rgb(17,128,195);fill-rule:nonzero;"/>
            </g>
            <g transform="matrix(1,0,0,1,424.582,348.356)">
                <path d="M0.133,-3.879C-1.796,-2.645 -3.554,0.638 -1.48,3.879C-1.48,3.879 3.555,1.47 0.133,-3.879Z" style="fill:rgb(17,128,195);fill-rule:nonzero;"/>
            </g>
        </g>
        <g transform="matrix(0.332936,0.00653965,-0.00653965,0.332936,-108.128,-94.4632)">
            <g transform="matrix(1,0,0,1,449.098,388.696)">
                <path d="M0,-21.493C-6.824,-21.493 -12.407,-15.91 -12.407,-9.086L-12.407,21.493L12.407,21.493L12.407,-9.086C12.407,-15.91 6.824,-21.493 0,-21.493Z" style="fill:rgb(77,67,95);fill-rule:nonzero;"/>
            </g>
            <g transform="matrix(1,0,0,1,449.098,355.445)">
                <path d="M12.407,6.203C12.407,-0.65 6.852,-6.203 0,-6.203C-6.853,-6.203 -12.407,-0.65 -12.407,6.203" style="fill-opacity:0;fill-rule:nonzero;stroke:rgb(240,108,94);stroke-width:3.61px;"/>
            </g>
            <g transform="matrix(1,0,0,1,449.098,361.648)">
                <path d="M12.407,0C12.407,-6.853 6.852,-12.407 0,-12.407C-6.853,-12.407 -12.407,-6.853 -12.407,0C-12.407,6.853 -6.853,12.407 0,12.407C6.852,12.407 12.407,6.853 12.407,0Z" style="fill:rgb(197,117,46);fill-rule:nonzero;"/>
            </g>
            <g transform="matrix(1,0,0,1,449.098,367.748)">
                <path d="M0,-0.73C-2.239,-0.73 -4.3,-1.456 -5.996,-2.662C-5.568,0.327 -3.106,2.662 0,2.662C3.106,2.662 5.568,0.327 5.996,-2.662C4.3,-1.456 2.239,-0.73 0,-0.73Z" style="fill:rgb(77,67,95);fill-rule:nonzero;"/>
            </g>
            <g transform="matrix(1,0,0,1,443.144,354.88)">
                <path d="M-6.737,5.821C6.737,1.194 5.954,-5.821 5.954,-5.821C-0.72,-5.821 -6.139,-0.697 -6.737,5.821Z" style="fill:rgb(77,67,95);fill-rule:nonzero;"/>
            </g>
            <g transform="matrix(1,0,0,1,455.052,354.88)">
                <path d="M6.737,5.821C6.139,-0.697 0.72,-5.821 -5.954,-5.821C-5.954,-5.821 -6.737,1.194 6.737,5.821Z" style="fill:rgb(77,67,95);fill-rule:nonzero;"/>
            </g>
            <g transform="matrix(1,0,0,1,462.877,372.327)">
                <path d="M-7.39,-22.224L-4.583,8.54L7.39,22.224L0.231,-13.002L-4.341,-20.106L-7.39,-22.224Z" style="fill:rgb(240,108,94);fill-rule:nonzero;"/>
            </g>
            <g>
                <path d="M449.098,349.241L449.098,345.333" style="fill:none;fill-rule:nonzero;stroke:rgb(240,108,94);stroke-width:3.61px;"/>
            </g>
            <g transform="matrix(1,0,0,1,449.098,350.876)">
                <path d="M3.023,0C3.023,-1.669 1.669,-3.023 0,-3.023C-1.67,-3.023 -3.023,-1.669 -3.023,0C-3.023,1.669 -1.67,3.023 0,3.023C1.669,3.023 3.023,1.669 3.023,0Z" style="fill:rgb(240,108,94);fill-rule:nonzero;"/>
            </g>
            <g transform="matrix(1,0,0,1,439.257,362.329)">
                <path d="M-2.85,-1.629C-2.85,0.174 -2.728,1.71 -1.85,2.667C-0.496,4.145 1.234,3.015 1.517,2.319C-0.317,1.999 -0.722,0.485 -0.285,-0.813C0.181,-2.196 1.479,-3.175 2.85,-4.145" style="fill:rgb(77,67,95);fill-rule:nonzero;"/>
            </g>
            <g transform="matrix(0.558,0,0,0.558,445.176,359.974)">
                <path d="M3.5,0C3.5,1.932 1.932,3.5 0,3.5C-1.932,3.5 -3.5,1.932 -3.5,0C-3.5,-1.932 -1.932,-3.5 0,-3.5C1.932,-3.5 3.5,-1.932 3.5,0Z" style="fill:rgb(77,67,95);fill-rule:nonzero;"/>
            </g>
            <g transform="matrix(0.558,0,0,0.558,452.926,359.974)">
                <path d="M3.5,0C3.5,1.932 1.932,3.5 0,3.5C-1.932,3.5 -3.5,1.932 -3.5,0C-3.5,-1.932 -1.932,-3.5 0,-3.5C1.932,-3.5 3.5,-1.932 3.5,0Z" style="fill:rgb(77,67,95);fill-rule:nonzero;"/>
            </g>
        </g>
        <g transform="matrix(0.332991,0.00239456,-0.00239456,0.332991,-109.831,-92.7219)">
            <g transform="matrix(1,0,0,1,431.405,393.37)">
                <path d="M0,-13.208C-6.824,-13.208 -12.408,-7.624 -12.408,-0.8L-12.408,13.208L12.408,13.208L12.408,-0.8C12.408,-7.624 6.824,-13.208 0,-13.208Z" style="fill:rgb(170,95,166);fill-rule:nonzero;"/>
            </g>
            <g transform="matrix(1,0,0,1,431.405,374.565)">
                <path d="M12.408,0C12.408,-6.853 6.852,-12.407 -0.001,-12.407C-6.853,-12.407 -12.408,-6.853 -12.408,0C-12.408,6.853 -6.853,12.407 -0.001,12.407C6.852,12.407 12.408,6.853 12.408,0Z" style="fill:rgb(250,188,150);fill-rule:nonzero;"/>
            </g>
            <g transform="matrix(1,0,0,1,431.405,380.665)">
                <path d="M0,-0.73C-2.239,-0.73 -4.3,-1.456 -5.996,-2.662C-5.568,0.327 -3.106,2.662 0,2.662C3.106,2.662 5.569,0.327 5.996,-2.662C4.3,-1.456 2.24,-0.73 0,-0.73Z" style="fill:rgb(77,67,95);fill-rule:nonzero;"/>
            </g>
            <g transform="matrix(1,0,0,1,421.004,370.744)">
                <path d="M1.136,-2.408C-0.026,-2.955 -1.475,-2.322 -2.102,-0.992C-2.73,0.337 -2.297,1.859 -1.135,2.407C0.026,2.955 1.476,2.321 2.103,0.991C2.73,-0.338 2.297,-1.86 1.136,-2.408Z" style="fill:rgb(240,108,94);fill-rule:nonzero;"/>
            </g>
            <g transform="matrix(1,0,0,1,423.102,367.976)">
                <path d="M2.044,-1.705C1.222,-2.691 -0.361,-2.727 -1.49,-1.785C-2.619,-0.843 -2.867,0.719 -2.044,1.705C-1.222,2.691 0.36,2.727 1.489,1.785C2.618,0.843 2.867,-0.719 2.044,-1.705Z" style="fill:rgb(240,108,94);fill-rule:nonzero;"/>
            </g>
            <g transform="matrix(1,0,0,1,426.691,365.876)">
                <path d="M2.626,-0.439C2.415,-1.705 1.067,-2.536 -0.382,-2.294C-1.832,-2.052 -2.837,-0.828 -2.626,0.439C-2.415,1.706 -1.067,2.536 0.382,2.294C1.833,2.052 2.837,0.828 2.626,-0.439Z" style="fill:rgb(240,108,94);fill-rule:nonzero;"/>
            </g>
            <g transform="matrix(1,0,0,1,441.805,370.744)">
                <path d="M-1.135,-2.408C0.026,-2.955 1.476,-2.322 2.103,-0.992C2.73,0.337 2.297,1.859 1.136,2.407C-0.026,2.955 -1.475,2.321 -2.102,0.991C-2.73,-0.338 -2.297,-1.86 -1.135,-2.408Z" style="fill:rgb(240,108,94);fill-rule:nonzero;"/>
            </g>
            <g transform="matrix(1,0,0,1,439.708,367.976)">
                <path d="M-2.043,-1.705C-1.22,-2.691 0.361,-2.727 1.49,-1.785C2.619,-0.843 2.867,0.719 2.044,1.705C1.222,2.691 -0.36,2.727 -1.489,1.785C-2.617,0.843 -2.866,-0.719 -2.043,-1.705Z" style="fill:rgb(240,108,94);fill-rule:nonzero;"/>
            </g>
            <g transform="matrix(1,0,0,1,436.119,365.876)">
                <path d="M-2.625,-0.439C-2.414,-1.705 -1.068,-2.536 0.382,-2.294C1.832,-2.052 2.837,-0.828 2.625,0.439C2.414,1.706 1.067,2.536 -0.383,2.294C-1.833,2.052 -2.836,0.828 -2.625,-0.439Z" style="fill:rgb(240,108,94);fill-rule:nonzero;"/>
            </g>
            <g>
                <path d="M422.37,365.086L440.441,365.086" style="fill:none;fill-rule:nonzero;stroke:rgb(248,157,28);stroke-width:3.61px;"/>
            </g>
            <g transform="matrix(1,0,0,1,431.405,359.983)">
                <path d="M7.853,5.103L7.853,2.75C7.853,-1.569 4.319,-5.103 0,-5.103C-4.318,-5.103 -7.853,-1.569 -7.853,2.75L-7.853,5.103L7.853,5.103Z" style="fill:rgb(248,157,28);fill-rule:nonzero;"/>
            </g>
            <g transform="matrix(0.558,0,0,0.558,427.623,372.948)">
                <path d="M3.5,0C3.5,1.389 2.373,2.516 0.984,2.516L-0.984,2.516C-2.373,2.516 -3.5,1.389 -3.5,0C-3.5,-1.389 -2.373,-2.516 -0.984,-2.516L0.984,-2.516C2.373,-2.516 3.5,-1.389 3.5,0Z" style="fill:rgb(77,67,95);fill-rule:nonzero;"/>
            </g>
            <g transform="matrix(0.558,0,0,0.558,435.373,372.948)">
                <path d="M3.5,0C3.5,1.389 2.373,2.516 0.984,2.516L-0.984,2.516C-2.373,2.516 -3.5,1.389 -3.5,0C-3.5,-1.389 -2.373,-2.516 -0.984,-2.516L0.984,-2.516C2.373,-2.516 3.5,-1.389 3.5,0Z" style="fill:rgb(77,67,95);fill-rule:nonzero;"/>
            </g>
        </g>
        <g transform="matrix(0.332823,0.0108647,-0.0108647,0.332823,-106.3,-96.3838)">
            <g transform="matrix(1,0,0,1,455.568,403.147)">
                <path d="M0,-7.878C-6.824,-7.878 -12.407,-2.295 -12.407,4.529L-12.407,7.878L12.407,7.878L12.407,4.529C12.407,-2.295 6.824,-7.878 0,-7.878Z" style="fill:rgb(77,67,95);fill-rule:nonzero;"/>
            </g>
            <g transform="matrix(1,0,0,1,467.862,393.657)">
                <path d="M3.28,-1.204C1.357,-6.445 -3.482,-9.49 -3.482,-9.49C-3.482,-9.49 -5.203,-4.037 -3.281,1.203C-1.358,6.444 3.482,9.49 3.482,9.49C3.482,9.49 5.203,4.037 3.28,-1.204Z" style="fill:rgb(247,156,128);fill-rule:nonzero;"/>
            </g>
            <g transform="matrix(1,0,0,1,455.569,389.714)">
                <path d="M12.407,0C12.407,-6.853 6.852,-12.407 0,-12.407C-6.853,-12.407 -12.407,-6.853 -12.407,0C-12.407,6.853 -6.853,12.407 0,12.407C6.852,12.407 12.407,6.853 12.407,0Z" style="fill:rgb(252,215,190);fill-rule:nonzero;"/>
            </g>
            <g transform="matrix(1,0,0,1,455.568,395.814)">
                <path d="M0,-0.73C-2.239,-0.73 -4.3,-1.456 -5.996,-2.662C-5.568,0.327 -3.106,2.662 0,2.662C3.106,2.662 5.568,0.327 5.996,-2.662C4.3,-1.456 2.239,-0.73 0,-0.73Z" style="fill:rgb(77,67,95);fill-rule:nonzero;"/>
            </g>
            <g transform="matrix(1,0,0,1,449.615,382.946)">
                <path d="M-6.737,5.821C6.737,1.194 5.954,-5.821 5.954,-5.821C-0.72,-5.821 -6.139,-0.697 -6.737,5.821Z" style="fill:rgb(247,156,128);fill-rule:nonzero;"/>
            </g>
            <g transform="matrix(1,0,0,1,461.522,382.946)">
                <path d="M6.737,5.821C6.139,-0.697 0.72,-5.821 -5.954,-5.821C-5.954,-5.821 -6.737,1.194 6.737,5.821Z" style="fill:rgb(247,156,128);fill-rule:nonzero;"/>
            </g>
            <g transform="matrix(0.558,0,0,0.558,451.348,388.67)">
                <path d="M3.5,0C3.5,1.932 1.932,3.5 0,3.5C-1.932,3.5 -3.5,1.932 -3.5,0C-3.5,-1.932 -1.932,-3.5 0,-3.5C1.932,-3.5 3.5,-1.932 3.5,0Z" style="fill:rgb(77,67,95);fill-rule:nonzero;"/>
            </g>
            <g transform="matrix(0.558,0,0,0.558,459.098,388.67)">
                <path d="M3.5,0C3.5,1.932 1.932,3.5 0,3.5C-1.932,3.5 -3.5,1.932 -3.5,0C-3.5,-1.932 -1.932,-3.5 0,-3.5C1.932,-3.5 3.5,-1.932 3.5,0Z" style="fill:rgb(77,67,95);fill-rule:nonzero;"/>
            </g>
        </g>
        <g transform="matrix(0.332723,0.0135796,-0.0135796,0.332723,-105.148,-97.3043)">
            <g transform="matrix(1,0,0,1,407.241,403.147)">
                <path d="M0.001,-7.878C-6.823,-7.878 -12.408,-2.295 -12.408,4.529L-12.408,7.878L12.408,7.878L12.408,4.529C12.408,-2.295 6.825,-7.878 0.001,-7.878Z" style="fill:rgb(77,67,95);fill-rule:nonzero;"/>
            </g>
            <g transform="matrix(1,0,0,1,407.241,389.714)">
                <path d="M12.408,0C12.408,-6.853 6.852,-12.407 0,-12.407C-6.853,-12.407 -12.408,-6.853 -12.408,0C-12.408,6.853 -6.853,12.407 0,12.407C6.852,12.407 12.408,6.853 12.408,0Z" style="fill:rgb(247,156,128);fill-rule:nonzero;"/>
            </g>
            <g transform="matrix(1,0,0,1,407.242,395.814)">
                <path d="M0,-0.73C-2.24,-0.73 -4.3,-1.456 -5.996,-2.662C-5.568,0.327 -3.106,2.662 0,2.662C3.106,2.662 5.568,0.327 5.996,-2.662C4.3,-1.456 2.239,-0.73 0,-0.73Z" style="fill:rgb(77,67,95);fill-rule:nonzero;"/>
            </g>
            <g transform="matrix(1,0,0,1,405.683,382.959)">
                <path d="M9.423,-2.767C7.277,-4.541 4.561,-5.651 1.559,-5.651C-3.243,-5.651 -7.36,-2.895 -9.423,1.096L-8.941,5.651L-2.278,-1.441L-2.278,2.105L9.423,-2.767Z" style="fill:rgb(179,82,48);fill-rule:nonzero;"/>
            </g>
            <g transform="matrix(1,0,0,1,407.241,374.498)">
                <rect x="-8.34" y="-5.112" width="16.68" height="10.224" style="fill:rgb(0,131,125);fill-rule:nonzero;"/>
            </g>
            <g transform="matrix(1,0,0,1,407.241,377.053)">
                <rect x="-8.34" y="-2.556" width="16.68" height="5.112" style="fill:rgb(51,185,157);fill-rule:nonzero;"/>
            </g>
            <g>
                <path d="M394.834,379.576L419.649,379.576" style="fill:none;fill-rule:nonzero;stroke:rgb(0,131,125);stroke-width:3.61px;"/>
            </g>
            <g transform="matrix(0.558,0,0,0.558,403.143,387.925)">
                <path d="M3.5,0C3.5,1.932 1.932,3.5 0,3.5C-1.932,3.5 -3.5,1.932 -3.5,0C-3.5,-1.932 -1.932,-3.5 0,-3.5C1.932,-3.5 3.5,-1.932 3.5,0Z" style="fill:rgb(77,67,95);fill-rule:nonzero;"/>
            </g>
            <g transform="matrix(0.558,0,0,0.558,410.893,387.925)">
                <path d="M3.5,0C3.5,1.932 1.932,3.5 0,3.5C-1.932,3.5 -3.5,1.932 -3.5,0C-3.5,-1.932 -1.932,-3.5 0,-3.5C1.932,-3.5 3.5,-1.932 3.5,0Z" style="fill:rgb(77,67,95);fill-rule:nonzero;"/>
            </g>
        </g>
        <g transform="matrix(0.332904,0.00798821,-0.00798821,0.332904,-107.52,-95.1009)">
            <g transform="matrix(1,0,0,1,413.119,419.475)">
                <path d="M18.286,-17.34L-18.286,-8.45C-18.286,-8.45 -14.15,17.34 18.286,17.34L18.286,-17.34Z" style="fill:rgb(79,184,79);fill-rule:nonzero;"/>
            </g>
            <g transform="matrix(1,0,0,1,449.69,419.475)">
                <path d="M-18.285,-17.34L18.285,-8.45C18.285,-8.45 14.152,17.34 -18.285,17.34L-18.285,-17.34Z" style="fill:rgb(17,128,195);fill-rule:nonzero;"/>
            </g>
        </g>
        <g transform="matrix(0.333,0,0,0.333,-111.05,-91.6967)">
            <g transform="matrix(1,0,0,1,431.405,435.771)">
                <path d="M84.132,-15.114L-84.132,-15.114L-74.431,0L-84.132,15.114L84.132,15.114L74.432,0L84.132,-15.114Z" style="fill:rgb(255,238,207);fill-rule:nonzero;"/>
            </g>
            <g transform="matrix(1,0,0,1,367.569,435.628)">
                <path d="M-1.608,-5C-1.608,-5.377 -1.47,-5.696 -1.2,-5.95C-0.926,-6.204 -0.54,-6.33 -0.043,-6.33C0.465,-6.33 0.867,-6.201 1.163,-5.941C1.46,-5.679 1.608,-5.366 1.608,-5C1.608,-4.656 1.46,-4.36 1.163,-4.112C0.867,-3.863 0.465,-3.737 -0.043,-3.737C-0.54,-3.737 -0.926,-3.863 -1.2,-4.112C-1.47,-4.36 -1.608,-4.656 -1.608,-5Z" style="fill:rgb(29,153,212);fill-rule:nonzero;"/>
            </g>
            <g transform="matrix(1,0,0,1,367.569,435.628)">
                <rect x="-1.233" y="-2.992" width="2.486" height="9.322" style="fill:rgb(29,153,212);fill-rule:nonzero;"/>
            </g>
            <g transform="matrix(1,0,0,1,373.225,436.472)">
                <path d="M-3.409,-3.836L-1.99,-3.836L-1.99,-5.115L0.495,-5.771L0.495,-3.836L3.001,-3.836L3.001,-1.76L0.495,-1.76L0.495,1.472C0.495,2.218 0.57,2.755 0.719,3.082C0.867,3.406 1.16,3.567 1.596,3.567C1.87,3.567 2.103,3.547 2.29,3.505C2.48,3.463 2.681,3.396 2.896,3.301L3.409,5.167C3.029,5.332 2.593,5.475 2.104,5.592C1.612,5.709 1.136,5.771 0.675,5.771C-0.25,5.771 -0.924,5.542 -1.351,5.086C-1.776,4.631 -1.99,3.899 -1.99,2.893L-1.99,-1.76L-3.409,-1.76L-3.409,-3.836Z" style="fill:rgb(29,153,212);fill-rule:nonzero;"/>
            </g>
            <g transform="matrix(1,0,0,1,378.089,431.597)">
                <path d="M-1.42,-1.039C-1.42,-1.394 -1.298,-1.682 -1.05,-1.899C-0.801,-2.12 -0.485,-2.229 -0.109,-2.229C0.367,-2.229 0.738,-2.081 1.012,-1.785C1.283,-1.489 1.42,-1.109 1.42,-0.648C1.42,-0.151 1.339,0.266 1.18,0.604C1.02,0.941 0.826,1.221 0.594,1.447C0.365,1.67 0.127,1.847 -0.116,1.969C-0.358,2.095 -0.569,2.182 -0.745,2.229L-1.367,1.182C-1.108,1.087 -0.882,0.953 -0.692,0.782C-0.505,0.609 -0.399,0.388 -0.374,0.115C-0.622,0.14 -0.86,0.05 -1.083,-0.151C-1.31,-0.352 -1.42,-0.648 -1.42,-1.039Z" style="fill:rgb(29,153,212);fill-rule:nonzero;"/>
            </g>
            <g transform="matrix(1,0,0,1,382.414,437.296)">
                <path d="M-3.028,2.246C-2.861,2.329 -2.671,2.413 -2.45,2.495C-2.232,2.578 -1.994,2.657 -1.74,2.726C-1.486,2.799 -1.223,2.857 -0.958,2.905C-0.693,2.953 -0.422,2.975 -0.151,2.975C0.263,2.975 0.587,2.911 0.819,2.779C1.048,2.651 1.165,2.408 1.165,2.053C1.165,1.768 1.009,1.559 0.701,1.422C0.394,1.285 0.014,1.154 -0.436,1.022C-0.765,0.927 -1.111,0.815 -1.472,0.684C-1.835,0.553 -2.165,0.38 -2.466,0.162C-2.768,-0.059 -3.017,-0.346 -3.213,-0.701C-3.408,-1.056 -3.506,-1.506 -3.506,-2.05C-3.506,-2.986 -3.218,-3.699 -2.637,-4.191C-2.056,-4.682 -1.22,-4.928 -0.134,-4.928C0.578,-4.928 1.243,-4.863 1.866,-4.741C2.486,-4.615 2.986,-4.47 3.366,-4.305L2.849,-2.422C2.542,-2.542 2.148,-2.662 1.671,-2.788C1.19,-2.911 0.701,-2.972 0.204,-2.972C-0.21,-2.972 -0.517,-2.911 -0.718,-2.788C-0.919,-2.662 -1.02,-2.447 -1.02,-2.14C-1.02,-1.866 -0.863,-1.662 -0.55,-1.525C-0.237,-1.391 0.145,-1.257 0.595,-1.126C0.928,-1.031 1.274,-0.922 1.634,-0.799C1.994,-0.673 2.324,-0.506 2.62,-0.294C2.916,-0.078 3.162,0.195 3.358,0.534C3.554,0.871 3.648,1.293 3.648,1.805C3.648,2.799 3.327,3.567 2.682,4.112C2.036,4.657 1.07,4.928 -0.22,4.928C-0.919,4.928 -1.57,4.866 -2.176,4.743C-2.779,4.618 -3.271,4.438 -3.648,4.201L-3.028,2.246Z" style="fill:rgb(29,153,212);fill-rule:nonzero;"/>
            </g>
            <g transform="matrix(1,0,0,1,395.058,437.28)">
                <path d="M-3.685,-4.004C-3.151,-4.241 -2.498,-4.437 -1.724,-4.59C-0.947,-4.744 -0.145,-4.822 0.684,-4.822C1.335,-4.822 1.882,-4.744 2.327,-4.59C2.771,-4.437 3.123,-4.216 3.383,-3.925C3.643,-3.635 3.83,-3.286 3.941,-2.878C4.053,-2.47 4.112,-2.017 4.112,-1.52C4.112,-0.913 4.086,-0.315 4.039,0.277C3.992,0.866 3.969,1.494 3.969,2.156C3.969,2.605 3.997,3.044 4.056,3.472C4.117,3.896 4.21,4.308 4.341,4.696L2.315,4.696L1.908,3.313L1.695,3.313C1.388,3.727 0.997,4.082 0.522,4.377C0.05,4.674 -0.559,4.822 -1.305,4.822C-1.754,4.822 -2.168,4.757 -2.54,4.626C-2.914,4.495 -3.232,4.311 -3.498,4.067C-3.766,3.825 -3.973,3.536 -4.121,3.204C-4.269,2.874 -4.341,2.511 -4.341,2.122C-4.341,1.066 -3.989,0.274 -3.285,-0.265C-2.582,-0.804 -1.511,-1.075 -0.081,-1.075C0.251,-1.075 0.584,-1.047 0.913,-0.994C1.246,-0.941 1.478,-0.903 1.606,-0.881C1.642,-1.129 1.659,-1.34 1.659,-1.52C1.659,-1.969 1.547,-2.299 1.324,-2.511C1.098,-2.726 0.676,-2.832 0.061,-2.832C-0.506,-2.832 -1.059,-2.763 -1.598,-2.629C-2.137,-2.493 -2.615,-2.324 -3.028,-2.123L-3.685,-4.004Z" style="fill:rgb(29,153,212);fill-rule:nonzero;"/>
            </g>
            <g transform="matrix(1,0,0,1,395.058,437.382)">
                <path d="M-0.436,2.832C0.12,2.832 0.564,2.702 0.897,2.442C1.229,2.182 1.469,1.908 1.626,1.626L1.626,0.558C1.564,0.536 1.475,0.512 1.349,0.489C1.226,0.464 1.089,0.44 0.941,0.415C0.793,0.393 0.645,0.377 0.497,0.363C0.349,0.352 0.215,0.346 0.098,0.346C-0.542,0.346 -1.014,0.461 -1.324,0.693C-1.631,0.925 -1.785,1.209 -1.785,1.552C-1.785,1.98 -1.665,2.298 -1.422,2.511C-1.179,2.726 -0.85,2.832 -0.436,2.832Z" style="fill:rgb(255,239,207);fill-rule:nonzero;"/>
            </g>
            <g transform="matrix(1,0,0,1,408.231,437.296)">
                <path d="M-3.028,2.246C-2.861,2.329 -2.671,2.413 -2.45,2.495C-2.232,2.578 -1.994,2.657 -1.74,2.726C-1.486,2.799 -1.223,2.857 -0.958,2.905C-0.693,2.953 -0.422,2.975 -0.151,2.975C0.263,2.975 0.587,2.911 0.819,2.779C1.048,2.651 1.165,2.408 1.165,2.053C1.165,1.768 1.009,1.559 0.701,1.422C0.394,1.285 0.014,1.154 -0.436,1.022C-0.765,0.927 -1.111,0.815 -1.472,0.684C-1.835,0.553 -2.165,0.38 -2.466,0.162C-2.768,-0.059 -3.017,-0.346 -3.213,-0.701C-3.408,-1.056 -3.506,-1.506 -3.506,-2.05C-3.506,-2.986 -3.218,-3.699 -2.637,-4.191C-2.056,-4.682 -1.22,-4.928 -0.134,-4.928C0.578,-4.928 1.243,-4.863 1.866,-4.741C2.486,-4.615 2.986,-4.47 3.366,-4.305L2.849,-2.422C2.542,-2.542 2.148,-2.662 1.671,-2.788C1.19,-2.911 0.701,-2.972 0.204,-2.972C-0.21,-2.972 -0.517,-2.911 -0.718,-2.788C-0.919,-2.662 -1.02,-2.447 -1.02,-2.14C-1.02,-1.866 -0.863,-1.662 -0.55,-1.525C-0.237,-1.391 0.145,-1.257 0.595,-1.126C0.928,-1.031 1.274,-0.922 1.634,-0.799C1.994,-0.673 2.324,-0.506 2.62,-0.294C2.916,-0.078 3.162,0.195 3.358,0.534C3.554,0.871 3.648,1.293 3.648,1.805C3.648,2.799 3.327,3.567 2.682,4.112C2.036,4.657 1.07,4.928 -0.22,4.928C-0.919,4.928 -1.57,4.866 -2.176,4.743C-2.779,4.618 -3.271,4.438 -3.648,4.201L-3.028,2.246Z" style="fill:rgb(29,153,212);fill-rule:nonzero;"/>
            </g>
            <g transform="matrix(1,0,0,1,420.156,437.163)">
                <path d="M-1.243,4.795L-1.243,-0.071C-1.243,-0.971 -1.338,-1.616 -1.528,-2.007C-1.718,-2.395 -2.109,-2.591 -2.701,-2.591C-3.198,-2.591 -3.595,-2.471 -3.888,-2.227C-4.184,-1.985 -4.416,-1.669 -4.581,-1.278L-4.581,4.795L-7.068,4.795L-7.068,-4.527L-5.151,-4.527L-4.866,-3.23L-4.634,-3.23C-4.48,-3.432 -4.305,-3.627 -4.103,-3.817C-3.902,-4.007 -3.679,-4.172 -3.435,-4.314C-3.195,-4.457 -2.922,-4.571 -2.62,-4.661C-2.318,-4.75 -1.977,-4.795 -1.597,-4.795C-0.972,-4.795 -0.447,-4.655 -0.028,-4.376C0.394,-4.099 0.726,-3.633 0.974,-2.982C1.318,-3.552 1.738,-3.996 2.227,-4.314C2.718,-4.633 3.291,-4.795 3.942,-4.795C4.509,-4.795 4.992,-4.728 5.389,-4.599C5.785,-4.468 6.107,-4.245 6.355,-3.923C6.604,-3.605 6.785,-3.172 6.897,-2.627C7.012,-2.082 7.068,-1.404 7.068,-0.585L7.068,4.795L4.582,4.795L4.582,-0.194C4.582,-0.585 4.562,-0.929 4.528,-1.225C4.492,-1.521 4.423,-1.772 4.313,-1.979C4.207,-2.185 4.055,-2.339 3.86,-2.44C3.664,-2.54 3.407,-2.591 3.089,-2.591C2.591,-2.591 2.193,-2.465 1.891,-2.211C1.59,-1.956 1.372,-1.605 1.243,-1.155L1.243,4.795L-1.243,4.795Z" style="fill:rgb(29,153,212);fill-rule:nonzero;"/>
            </g>
            <g transform="matrix(1,0,0,1,432.666,437.28)">
                <path d="M-3.685,-4.004C-3.151,-4.241 -2.498,-4.437 -1.724,-4.59C-0.947,-4.744 -0.145,-4.822 0.684,-4.822C1.335,-4.822 1.883,-4.744 2.327,-4.59C2.771,-4.437 3.123,-4.216 3.383,-3.925C3.643,-3.635 3.83,-3.286 3.941,-2.878C4.053,-2.47 4.112,-2.017 4.112,-1.52C4.112,-0.913 4.086,-0.315 4.039,0.277C3.992,0.866 3.969,1.494 3.969,2.156C3.969,2.605 3.997,3.044 4.056,3.472C4.117,3.896 4.21,4.308 4.341,4.696L2.315,4.696L1.908,3.313L1.695,3.313C1.388,3.727 0.997,4.082 0.522,4.377C0.05,4.674 -0.559,4.822 -1.305,4.822C-1.754,4.822 -2.168,4.757 -2.54,4.626C-2.914,4.495 -3.232,4.311 -3.498,4.067C-3.766,3.825 -3.972,3.536 -4.121,3.204C-4.269,2.874 -4.341,2.511 -4.341,2.122C-4.341,1.066 -3.989,0.274 -3.285,-0.265C-2.581,-0.804 -1.511,-1.075 -0.081,-1.075C0.251,-1.075 0.584,-1.047 0.913,-0.994C1.246,-0.941 1.478,-0.903 1.606,-0.881C1.643,-1.129 1.659,-1.34 1.659,-1.52C1.659,-1.969 1.547,-2.299 1.324,-2.511C1.098,-2.726 0.676,-2.832 0.062,-2.832C-0.506,-2.832 -1.059,-2.763 -1.598,-2.629C-2.137,-2.493 -2.615,-2.324 -3.028,-2.123L-3.685,-4.004Z" style="fill:rgb(29,153,212);fill-rule:nonzero;"/>
            </g>
            <g transform="matrix(1,0,0,1,432.666,437.382)">
                <path d="M-0.436,2.832C0.12,2.832 0.564,2.702 0.897,2.442C1.229,2.182 1.469,1.908 1.626,1.626L1.626,0.558C1.564,0.536 1.475,0.512 1.349,0.489C1.226,0.464 1.089,0.44 0.941,0.415C0.793,0.393 0.645,0.377 0.497,0.363C0.349,0.352 0.215,0.346 0.098,0.346C-0.542,0.346 -1.014,0.461 -1.324,0.693C-1.631,0.925 -1.785,1.209 -1.785,1.552C-1.785,1.98 -1.665,2.298 -1.422,2.511C-1.179,2.726 -0.849,2.832 -0.436,2.832Z" style="fill:rgb(255,239,207);fill-rule:nonzero;"/>
            </g>
            <g transform="matrix(1,0,0,1,441.019,435.886)">
                <path d="M0.161,2.805C0.161,3.704 0.452,4.154 1.03,4.154C1.195,4.154 1.353,4.14 1.501,4.112C1.649,4.081 1.822,4.031 2.023,3.961L2.325,5.894C2.088,6.003 1.756,6.107 1.323,6.207C0.89,6.308 0.442,6.358 -0.019,6.358C-0.764,6.358 -1.334,6.19 -1.73,5.861C-2.127,5.529 -2.325,4.984 -2.325,4.227L-2.325,-6.358L0.161,-6.358L0.161,2.805Z" style="fill:rgb(29,153,212);fill-rule:nonzero;"/>
            </g>
            <g transform="matrix(1,0,0,1,446.293,435.886)">
                <path d="M0.161,2.805C0.161,3.704 0.452,4.154 1.03,4.154C1.195,4.154 1.353,4.14 1.501,4.112C1.649,4.081 1.822,4.031 2.023,3.961L2.325,5.894C2.088,6.003 1.756,6.107 1.323,6.207C0.89,6.308 0.442,6.358 -0.019,6.358C-0.764,6.358 -1.333,6.19 -1.73,5.861C-2.127,5.529 -2.325,4.984 -2.325,4.227L-2.325,-6.358L0.161,-6.358L0.161,2.805Z" style="fill:rgb(29,153,212);fill-rule:nonzero;"/>
            </g>
            <g transform="matrix(1,0,0,1,459.195,437.342)">
                <path d="M1.109,-4.706C1.43,-3.926 1.743,-3.138 2.05,-2.344C2.358,-1.551 2.673,-0.763 2.992,0.019L3.346,1.58L3.612,1.58L3.88,-0.001C4.092,-0.794 4.31,-1.577 4.536,-2.354C4.763,-3.13 4.981,-3.913 5.193,-4.706L7.467,-4.706L4.288,4.706L2.494,4.706C2.176,3.888 1.832,3.033 1.463,2.139C1.098,1.245 0.754,0.39 0.436,-0.425L0.187,-1.635L-0.134,-1.635C-0.17,-1.431 -0.21,-1.228 -0.257,-1.021C-0.305,-0.814 -0.347,-0.61 -0.383,-0.409L-2.319,4.706L-4.199,4.706L-7.467,-4.706L-4.768,-4.706L-3.277,-0.107L-3.028,1.617L-2.763,1.617L-2.405,-0.124L-0.721,-4.706L1.109,-4.706Z" style="fill:rgb(29,153,212);fill-rule:nonzero;"/>
            </g>
            <g transform="matrix(1,0,0,1,471.083,437.297)">
                <path d="M-4.724,0.011C-4.724,-1.528 -4.316,-2.738 -3.498,-3.612C-2.682,-4.489 -1.517,-4.928 0,-4.928C0.793,-4.928 1.486,-4.802 2.078,-4.553C2.667,-4.305 3.159,-3.959 3.55,-3.514C3.941,-3.07 4.235,-2.551 4.43,-1.953C4.626,-1.355 4.724,-0.701 4.724,0.011C4.724,0.768 4.618,1.452 4.402,2.061C4.19,2.67 3.883,3.187 3.48,3.615C3.078,4.042 2.584,4.366 1.997,4.592C1.411,4.816 0.746,4.928 0,4.928C-0.805,4.928 -1.503,4.804 -2.095,4.556C-2.688,4.307 -3.179,3.961 -3.57,3.517C-3.961,3.073 -4.251,2.553 -4.439,1.955C-4.629,1.357 -4.724,0.709 -4.724,0.011Z" style="fill:rgb(29,153,212);fill-rule:nonzero;"/>
            </g>
            <g transform="matrix(1,0,0,1,471.083,437.399)">
                <path d="M-2.168,0.011C-2.168,0.399 -2.126,0.768 -2.042,1.112C-1.961,1.455 -1.833,1.754 -1.659,2.008C-1.489,2.262 -1.268,2.466 -0.995,2.62C-0.724,2.774 -0.391,2.852 0,2.852C1.444,2.852 2.165,1.905 2.165,0.011C2.165,-0.406 2.128,-0.785 2.05,-1.135C1.972,-1.484 1.849,-1.788 1.679,-2.042C1.505,-2.297 1.282,-2.495 1.003,-2.637C0.724,-2.777 0.391,-2.849 0,-2.849C-0.676,-2.849 -1.204,-2.623 -1.589,-2.174C-1.975,-1.724 -2.168,-0.997 -2.168,0.011Z" style="fill:rgb(255,239,207);fill-rule:nonzero;"/>
            </g>
            <g transform="matrix(1,0,0,1,480.049,437.19)">
                <path d="M2.574,-2.283C2.22,-2.4 1.865,-2.458 1.51,-2.458C0.988,-2.458 0.56,-2.335 0.222,-2.086C-0.116,-1.838 -0.337,-1.523 -0.443,-1.146L-0.443,4.769L-2.929,4.769L-2.929,-4.554L-0.976,-4.554L-0.711,-3.257L-0.479,-3.257C-0.242,-3.743 0.074,-4.114 0.47,-4.377C0.867,-4.636 1.32,-4.769 1.828,-4.769C2.15,-4.769 2.515,-4.701 2.929,-4.573L2.574,-2.283Z" style="fill:rgb(29,153,212);fill-rule:nonzero;"/>
            </g>
            <g transform="matrix(1,0,0,1,485.999,435.886)">
                <path d="M0.161,2.805C0.161,3.704 0.452,4.154 1.03,4.154C1.195,4.154 1.353,4.14 1.501,4.112C1.649,4.081 1.822,4.031 2.023,3.961L2.325,5.894C2.087,6.003 1.756,6.107 1.323,6.207C0.89,6.308 0.442,6.358 -0.019,6.358C-0.765,6.358 -1.334,6.19 -1.73,5.861C-2.127,5.529 -2.325,4.984 -2.325,4.227L-2.325,-6.358L0.161,-6.358L0.161,2.805Z" style="fill:rgb(29,153,212);fill-rule:nonzero;"/>
            </g>
            <g transform="matrix(1,0,0,1,492.96,435.876)">
                <path d="M4.421,2.815C4.421,3.312 4.426,3.829 4.44,4.359C4.451,4.893 4.505,5.473 4.599,6.099L2.876,6.099L2.521,4.803L2.289,4.803C2.018,5.278 1.63,5.652 1.127,5.931C0.624,6.208 0.024,6.348 -0.675,6.348C-1.918,6.348 -2.884,5.962 -3.569,5.186C-4.256,4.409 -4.599,3.211 -4.599,1.591C-4.599,0.809 -4.502,0.104 -4.306,-0.524C-4.111,-1.15 -3.82,-1.683 -3.437,-2.121C-3.052,-2.56 -2.574,-2.896 -2.007,-3.133C-1.44,-3.371 -0.781,-3.488 -0.035,-3.488C0.379,-3.488 0.736,-3.456 1.038,-3.39C1.34,-3.325 1.638,-3.245 1.934,-3.153L1.934,-6.348L4.421,-6.348L4.421,2.815Z" style="fill:rgb(29,153,212);fill-rule:nonzero;"/>
            </g>
            <g transform="matrix(1,0,0,1,492.96,435.979)">
                <path d="M-0.035,4.272C0.521,4.272 0.951,4.144 1.261,3.889C1.569,3.635 1.792,3.273 1.934,2.798L1.934,-0.931C1.722,-1.096 1.493,-1.22 1.253,-1.295C1.01,-1.374 0.691,-1.412 0.3,-1.412C-0.493,-1.412 -1.08,-1.18 -1.465,-0.719C-1.851,-0.255 -2.043,0.537 -2.043,1.66C-2.043,2.442 -1.879,3.075 -1.555,3.552C-1.228,4.033 -0.722,4.272 -0.035,4.272Z" style="fill:rgb(255,239,207);fill-rule:nonzero;"/>
            </g>
        </g>
    </g>
</svg>
