<svg xmlns="http://www.w3.org/2000/svg" viewBox="0 0 28 34" width="28" height="34" preserveAspectRatio="xMidYMid meet" style="width: 100%; height: 100%; transform: translate3d(0px, 0px, 0px); content-visibility: visible;"><defs><clipPath id="__lottie_element_3071"><rect width="28" height="34" x="0" y="0"></rect></clipPath><mask id="__lottie_element_3088" mask-type="alpha"><g transform="matrix(0.20639999210834503,0,0,0.20639999210834503,10.904876708984375,-0.7925547361373901)" opacity="1" style="display: block;"><g opacity="1" transform="matrix(1,0,0,1,40.117000579833984,37.66600036621094)"><path fill="rgb(255,0,0)" fill-opacity="1" d=" M-37.573001861572266,10.142999649047852 C-37.573001861572266,10.142999649047852 37.573001861572266,10.142999649047852 37.573001861572266,10.142999649047852 C37.573001861572266,10.142999649047852 31.83799934387207,3.878000020980835 31.83799934387207,3.878000020980835 C23.66200065612793,-5.054999828338623 12.109000205993652,-10.142999649047852 -0.0010000000474974513,-10.142999649047852 C-12.112000465393066,-10.142999649047852 -23.666000366210938,-5.053999900817871 -31.841999053955078,3.880000114440918 C-31.841999053955078,3.880000114440918 -37.573001861572266,10.142999649047852 -37.573001861572266,10.142999649047852z"></path></g></g></mask></defs><g clip-path="url(#__lottie_element_3071)"><g transform="matrix(0.20639999210834503,0,0,0.20639999210834503,10.904876708984375,-0.7925547361373901)" opacity="1" style="display: block;"><g opacity="1" transform="matrix(1,0,0,1,0,0)"><path stroke-linecap="round" stroke-linejoin="round" fill-opacity="0" stroke="rgb(72,64,70)" stroke-opacity="1" stroke-width="5" d=" M50.125,37.224998474121094 C50.125,37.224998474121094 50.125,12.5 50.125,12.5"></path></g></g><g transform="matrix(0.20639999210834503,0,0,0.20639999210834503,10.904876708984375,-0.7925547361373901)" opacity="1" style="display: block;"><g opacity="1" transform="matrix(1,0,0,1,40.117000579833984,55.380001068115234)"><path fill="rgb(110,99,100)" fill-opacity="1" d=" M6.561999797821045,-7.579999923706055 C6.561999797821045,-7.579999923706055 -6.561999797821045,-7.579999923706055 -6.561999797821045,-7.579999923706055 C-6.561999797821045,-7.579999923706055 -6.561999797821045,16.44300079345703 -6.561999797821045,16.44300079345703 C-6.561999797821045,16.44300079345703 6.561999797821045,16.44300079345703 6.561999797821045,16.44300079345703 C6.561999797821045,16.44300079345703 6.561999797821045,-7.579999923706055 6.561999797821045,-7.579999923706055z"></path></g><g opacity="1" transform="matrix(1,0,0,1,40.117000579833984,50.72700119018555)"><path fill="rgb(72,64,70)" fill-opacity="1" d=" M37.573001861572266,-2.9189999103546143 C37.573001861572266,-2.9189999103546143 -37.573001861572266,-2.9189999103546143 -37.573001861572266,-2.9189999103546143 C-37.573001861572266,-2.9189999103546143 -37.573001861572266,2.9189999103546143 -37.573001861572266,2.9189999103546143 C-37.573001861572266,2.9189999103546143 37.573001861572266,2.9189999103546143 37.573001861572266,2.9189999103546143 C37.573001861572266,2.9189999103546143 37.573001861572266,-2.9189999103546143 37.573001861572266,-2.9189999103546143z"></path></g><g opacity="1" transform="matrix(1,0,0,1,40.117000579833984,37.66600036621094)"><path fill="rgb(72,64,70)" fill-opacity="1" d=" M-37.573001861572266,10.142999649047852 C-37.573001861572266,10.142999649047852 37.573001861572266,10.142999649047852 37.573001861572266,10.142999649047852 C37.573001861572266,10.142999649047852 31.83799934387207,3.878000020980835 31.83799934387207,3.878000020980835 C23.66200065612793,-5.054999828338623 12.109000205993652,-10.142999649047852 -0.0010000000474974513,-10.142999649047852 C-12.112000465393066,-10.142999649047852 -23.666000366210938,-5.053999900817871 -31.841999053955078,3.880000114440918 C-31.841999053955078,3.880000114440918 -37.573001861572266,10.142999649047852 -37.573001861572266,10.142999649047852z"></path></g></g><g mask="url(#__lottie_element_3088)" style="display: block;"><g transform="matrix(0.20639999210834503,0,0,0.20639999210834503,10.904876708984375,-0.7925547361373901)" opacity="1"><g opacity="1" transform="matrix(1,0,0,1,27.009000778198242,37.66699981689453)"><path fill="rgb(93,82,84)" fill-opacity="1" d=" M-13.107999801635742,-10.00100040435791 C-13.107999801635742,-10.00100040435791 -13.107999801635742,10.142999649047852 -13.107999801635742,10.142999649047852 C-13.107999801635742,10.142999649047852 13.107999801635742,10.142999649047852 13.107999801635742,10.142999649047852 C13.107999801635742,10.142999649047852 13.107999801635742,-10.142999649047852 13.107999801635742,-10.142999649047852 C3.559000015258789,-10.142999649047852 -12.788000106811523,-10.218000411987305 -13.107999801635742,-10.00100040435791z"></path></g></g></g><g transform="matrix(0.20639999210834503,0,0,0.20639999210834503,10.904876708984375,-0.7925547361373901)" opacity="1" style="display: block;"><g opacity="1" transform="matrix(1,0,0,1,42.11899948120117,39.125999450683594)"><path fill="rgb(192,66,60)" fill-opacity="1" d=" M4.578999996185303,0 C4.578999996185303,-2.5290000438690186 2.5290000438690186,-4.578999996185303 0,-4.578999996185303 C-2.5290000438690186,-4.578999996185303 -4.578999996185303,-2.5290000438690186 -4.578999996185303,0 C-4.578999996185303,2.5290000438690186 -2.5290000438690186,4.578999996185303 0,4.578999996185303 C2.5290000438690186,4.578999996185303 4.578999996185303,2.5290000438690186 4.578999996185303,0z"></path></g><g opacity="1" transform="matrix(1,0,0,1,30.034000396728516,39.125999450683594)"><path fill="rgb(110,99,100)" fill-opacity="1" d=" M3.203000068664551,-7.349999904632568 C3.203000068664551,-7.349999904632568 -3.2019999027252197,-7.349999904632568 -3.2019999027252197,-7.349999904632568 C-4.23799991607666,-7.349999904632568 -5.079999923706055,-6.508999824523926 -5.079999923706055,-5.4720001220703125 C-5.079999923706055,-5.4720001220703125 -5.079999923706055,5.4730000495910645 -5.079999923706055,5.4730000495910645 C-5.079999923706055,6.510000228881836 -4.23799991607666,7.349999904632568 -3.2019999027252197,7.349999904632568 C-3.2019999027252197,7.349999904632568 3.203000068664551,7.349999904632568 3.203000068664551,7.349999904632568 C4.239999771118164,7.349999904632568 5.079999923706055,6.510000228881836 5.079999923706055,5.4730000495910645 C5.079999923706055,5.4730000495910645 5.079999923706055,-5.4720001220703125 5.079999923706055,-5.4720001220703125 C5.079999923706055,-6.508999824523926 4.239999771118164,-7.349999904632568 3.203000068664551,-7.349999904632568z"></path></g><g opacity="1" transform="matrix(1,0,0,1,30.034000396728516,39.125)"><path fill="rgb(72,64,70)" fill-opacity="1" d=" M-3.0789999961853027,4.578999996185303 C-3.0789999961853027,4.578999996185303 3.0789999961853027,4.578999996185303 3.0789999961853027,4.578999996185303 C3.0789999961853027,4.578999996185303 3.0789999961853027,-4.578999996185303 3.0789999961853027,-4.578999996185303 C3.0789999961853027,-4.578999996185303 -3.0789999961853027,-4.578999996185303 -3.0789999961853027,-4.578999996185303 C-3.0789999961853027,-4.578999996185303 -3.0789999961853027,4.578999996185303 -3.0789999961853027,4.578999996185303z"></path></g></g><g transform="matrix(0.20639999210834503,0,0,0.20639999210834503,10.904876708984375,-0.7925547361373901)" opacity="1" style="display: block;"><g opacity="1" transform="matrix(1,0,0,1,40.11800003051758,143.96200561523438)"><path fill="rgb(93,82,84)" fill-opacity="1" d=" M34.862998962402344,-4.88100004196167 C34.862998962402344,-4.88100004196167 -34.862998962402344,-4.88100004196167 -34.862998962402344,-4.88100004196167 C-34.862998962402344,-4.88100004196167 -34.862998962402344,4.88100004196167 -34.862998962402344,4.88100004196167 C-34.862998962402344,4.88100004196167 34.862998962402344,4.88100004196167 34.862998962402344,4.88100004196167 C34.862998962402344,4.88100004196167 34.862998962402344,-4.88100004196167 34.862998962402344,-4.88100004196167z"></path></g><g opacity="1" transform="matrix(1,0,0,1,40.117000579833984,156.60499572753906)"><path fill="rgb(110,99,100)" fill-opacity="1" d=" M-36.867000579833984,-9.720999717712402 C-36.867000579833984,-9.720999717712402 36.867000579833984,-9.720999717712402 36.867000579833984,-9.720999717712402 C38.52399826049805,-9.720999717712402 39.867000579833984,-8.378000259399414 39.867000579833984,-6.7210001945495605 C39.867000579833984,-6.7210001945495605 39.867000579833984,6.7210001945495605 39.867000579833984,6.7210001945495605 C39.867000579833984,8.378999710083008 38.52399826049805,9.720999717712402 36.867000579833984,9.720999717712402 C36.867000579833984,9.720999717712402 -36.867000579833984,9.720999717712402 -36.867000579833984,9.720999717712402 C-38.52399826049805,9.720999717712402 -39.867000579833984,8.378999710083008 -39.867000579833984,6.7210001945495605 C-39.867000579833984,6.7210001945495605 -39.867000579833984,-6.7210001945495605 -39.867000579833984,-6.7210001945495605 C-39.867000579833984,-8.378000259399414 -38.52399826049805,-9.720999717712402 -36.867000579833984,-9.720999717712402z"></path></g><g opacity="1" transform="matrix(1,0,0,1,22.593000411987305,69.552001953125)"><path fill="rgb(17,128,194)" fill-opacity="1" d=" M-13.343999862670898,5.77400016784668 C-13.343999862670898,5.77400016784668 -12.640999794006348,-5.77400016784668 -12.640999794006348,-5.77400016784668 C-12.640999794006348,-5.77400016784668 12.642000198364258,-5.77400016784668 12.642000198364258,-5.77400016784668 C12.642000198364258,-5.77400016784668 13.343999862670898,5.77400016784668 13.343999862670898,5.77400016784668 C13.343999862670898,5.77400016784668 -13.343999862670898,5.77400016784668 -13.343999862670898,5.77400016784668z"></path></g><g opacity="1" transform="matrix(1,0,0,1,18.52199935913086,86.97100067138672)"><path fill="rgb(194,172,185)" fill-opacity="1" d=" M-9.57699966430664,-6.642000198364258 C-9.57699966430664,-6.642000198364258 9.57699966430664,-6.642000198364258 9.57699966430664,-6.642000198364258 C9.57699966430664,-6.642000198364258 9.57699966430664,6.642000198364258 9.57699966430664,6.642000198364258 C9.57699966430664,6.642000198364258 -9.57699966430664,6.642000198364258 -9.57699966430664,6.642000198364258 C-9.57699966430664,6.642000198364258 -9.57699966430664,-6.642000198364258 -9.57699966430664,-6.642000198364258z"></path></g><g opacity="1" transform="matrix(1,0,0,1,18.52199935913086,82.02300262451172)"><path fill="rgb(78,67,95)" fill-opacity="1" d=" M-9.57699966430664,-1.6929999589920044 C-9.57699966430664,-1.6929999589920044 9.57699966430664,-1.6929999589920044 9.57699966430664,-1.6929999589920044 C9.57699966430664,-1.6929999589920044 9.57699966430664,1.6929999589920044 9.57699966430664,1.6929999589920044 C9.57699966430664,1.6929999589920044 -9.57699966430664,1.6929999589920044 -9.57699966430664,1.6929999589920044 C-9.57699966430664,1.6929999589920044 -9.57699966430664,-1.6929999589920044 -9.57699966430664,-1.6929999589920044z"></path></g><g opacity="1" transform="matrix(1,0,0,1,40.117000579833984,103.37100219726562)"><path fill="rgb(72,64,70)" fill-opacity="1" d=" M33.194000244140625,22.597999572753906 C33.194000244140625,22.597999572753906 30.44499969482422,-22.597999572753906 30.44499969482422,-22.597999572753906 C30.44499969482422,-22.597999572753906 -30.44499969482422,-22.59600067138672 -30.44499969482422,-22.59600067138672 C-30.44499969482422,-22.59600067138672 -33.194000244140625,22.597999572753906 -33.194000244140625,22.597999572753906 C-33.194000244140625,22.597999572753906 33.194000244140625,22.597999572753906 33.194000244140625,22.597999572753906z"></path></g><g opacity="1" transform="matrix(1,0,0,1,40.117000579833984,82.04199981689453)"><path fill="rgb(72,64,70)" fill-opacity="1" d=" M34.183998107910156,23.270999908447266 C34.183998107910156,23.270999908447266 31.63800048828125,-18.573999404907227 31.63800048828125,-18.573999404907227 C31.476999282836914,-21.21299934387207 29.291000366210938,-23.270999908447266 26.64699935913086,-23.270999908447266 C26.64699935913086,-23.270999908447266 -26.64699935913086,-23.268999099731445 -26.64699935913086,-23.268999099731445 C-29.291000366210938,-23.268999099731445 -31.476999282836914,-21.211000442504883 -31.63800048828125,-18.572999954223633 C-31.63800048828125,-18.572999954223633 -34.183998107910156,23.270999908447266 -34.183998107910156,23.270999908447266 C-34.183998107910156,23.270999908447266 34.183998107910156,23.270999908447266 34.183998107910156,23.270999908447266z"></path></g><g opacity="1" transform="matrix(1,0,0,1,40.117000579833984,125.68199920654297)"><path fill="rgb(72,64,70)" fill-opacity="1" d=" M34.487998962402344,-15.368000030517578 C34.487998962402344,-15.368000030517578 -34.487998962402344,-15.368000030517578 -34.487998962402344,-15.368000030517578 C-34.487998962402344,-15.368000030517578 -36.358001708984375,15.368000030517578 -36.358001708984375,15.368000030517578 C-36.358001708984375,15.368000030517578 36.358001708984375,15.368000030517578 36.358001708984375,15.368000030517578 C36.358001708984375,15.368000030517578 34.487998962402344,-15.368000030517578 34.487998962402344,-15.368000030517578z"></path></g><g opacity="1" transform="matrix(1,0,0,1,40.117000579833984,92.8219985961914)"><path fill="rgb(93,82,84)" fill-opacity="1" d=" M-29.179000854492188,12.491999626159668 C-29.179000854492188,12.491999626159668 29.179000854492188,12.491999626159668 29.179000854492188,12.491999626159668 C29.179000854492188,12.491999626159668 27.65999984741211,-12.491999626159668 27.65999984741211,-12.491999626159668 C27.65999984741211,-12.491999626159668 -27.65999984741211,-12.491999626159668 -27.65999984741211,-12.491999626159668 C-27.65999984741211,-12.491999626159668 -29.179000854492188,12.491999626159668 -29.179000854492188,12.491999626159668z"></path></g><g opacity="1" transform="matrix(1,0,0,1,40.117000579833984,125.68199920654297)"><path fill="rgb(93,82,84)" fill-opacity="1" d=" M23.714000701904297,7.1529998779296875 C27.972000122070312,4.099999904632568 30.36199951171875,-0.9240000247955322 30.04400062561035,-6.1529998779296875 C30.04400062561035,-6.1529998779296875 29.483999252319336,-15.368000030517578 29.483999252319336,-15.368000030517578 C29.483999252319336,-15.368000030517578 -29.483999252319336,-15.368000030517578 -29.483999252319336,-15.368000030517578 C-29.483999252319336,-15.368000030517578 -30.04400062561035,-6.1529998779296875 -30.04400062561035,-6.1529998779296875 C-30.36199951171875,-0.9240000247955322 -27.972000122070312,4.099999904632568 -23.714000701904297,7.1529998779296875 C-23.714000701904297,7.1529998779296875 -12.256999969482422,15.368000030517578 -12.256999969482422,15.368000030517578 C-12.256999969482422,15.368000030517578 12.256999969482422,15.368000030517578 12.256999969482422,15.368000030517578 C12.256999969482422,15.368000030517578 23.714000701904297,7.1529998779296875 23.714000701904297,7.1529998779296875z"></path></g><g opacity="1" transform="matrix(1,0,0,1,61.94200134277344,66.66400146484375)"><path fill="rgb(110,99,100)" fill-opacity="1" d=" M10.184000015258789,2.88700008392334 C10.184000015258789,2.88700008392334 9.833000183105469,-2.88700008392334 9.833000183105469,-2.88700008392334 C9.833000183105469,-2.88700008392334 -10.184000015258789,-2.88700008392334 -10.184000015258789,-2.88700008392334 C-10.184000015258789,-2.88700008392334 -9.833000183105469,2.88700008392334 -9.833000183105469,2.88700008392334 C-9.833000183105469,2.88700008392334 10.184000015258789,2.88700008392334 10.184000015258789,2.88700008392334z"></path></g><g opacity="1" transform="matrix(1,0,0,1,18.292999267578125,66.66400146484375)"><path fill="rgb(110,99,100)" fill-opacity="1" d=" M9.831999778747559,2.88700008392334 C9.831999778747559,2.88700008392334 10.184000015258789,-2.88700008392334 10.184000015258789,-2.88700008392334 C10.184000015258789,-2.88700008392334 -9.833000183105469,-2.88700008392334 -9.833000183105469,-2.88700008392334 C-9.833000183105469,-2.88700008392334 -10.184000015258789,2.88700008392334 -10.184000015258789,2.88700008392334 C-10.184000015258789,2.88700008392334 9.831999778747559,2.88700008392334 9.831999778747559,2.88700008392334z"></path></g><g opacity="1" transform="matrix(1,0,0,1,40.117000579833984,84.5459976196289)"><path fill="rgb(110,99,100)" fill-opacity="1" d=" M-11.267999649047852,20.76799964904785 C-11.267999649047852,20.76799964904785 -8.741999626159668,-20.76799964904785 -8.741999626159668,-20.76799964904785 C-8.741999626159668,-20.76799964904785 8.744000434875488,-20.76799964904785 8.744000434875488,-20.76799964904785 C8.744000434875488,-20.76799964904785 11.267999649047852,20.76799964904785 11.267999649047852,20.76799964904785 C11.267999649047852,20.76799964904785 -11.267999649047852,20.76799964904785 -11.267999649047852,20.76799964904785z"></path></g><g opacity="1" transform="matrix(1,0,0,1,40.11800003051758,93.822998046875)"><path fill="rgb(72,64,70)" fill-opacity="1" d=" M6.901000022888184,6.7170000076293945 C6.901000022888184,6.7170000076293945 6.084000110626221,-6.7170000076293945 6.084000110626221,-6.7170000076293945 C6.084000110626221,-6.7170000076293945 -6.084000110626221,-6.7170000076293945 -6.084000110626221,-6.7170000076293945 C-6.084000110626221,-6.7170000076293945 -6.901000022888184,6.7170000076293945 -6.901000022888184,6.7170000076293945 C-6.901000022888184,6.7170000076293945 6.901000022888184,6.7170000076293945 6.901000022888184,6.7170000076293945z"></path></g><g opacity="1" transform="matrix(1,0,0,1,40.117000579833984,123.18199920654297)"><path fill="rgb(72,64,70)" fill-opacity="1" d=" M-11.269000053405762,17.867000579833984 C-11.269000053405762,17.867000579833984 11.269000053405762,17.867000579833984 11.269000053405762,17.867000579833984 C11.269000053405762,17.867000579833984 11.269000053405762,-17.867000579833984 11.269000053405762,-17.867000579833984 C11.269000053405762,-17.867000579833984 -11.269000053405762,-17.867000579833984 -11.269000053405762,-17.867000579833984 C-11.269000053405762,-17.867000579833984 -11.269000053405762,17.867000579833984 -11.269000053405762,17.867000579833984z"></path></g><g opacity="1" transform="matrix(1,0,0,1,35.617000579833984,120.68000030517578)"><path fill="rgb(110,99,100)" fill-opacity="1" d=" M2.4000000953674316,15.364999771118164 C2.4000000953674316,15.364999771118164 -2.4000000953674316,11.093999862670898 -2.4000000953674316,11.093999862670898 C-2.4000000953674316,11.093999862670898 -2.4000000953674316,-15.364999771118164 -2.4000000953674316,-15.364999771118164 C-2.4000000953674316,-15.364999771118164 2.4000000953674316,-15.364999771118164 2.4000000953674316,-15.364999771118164 C2.4000000953674316,-15.364999771118164 2.4000000953674316,15.364999771118164 2.4000000953674316,15.364999771118164z"></path></g><g opacity="1" transform="matrix(1,0,0,1,44.61800003051758,120.68000030517578)"><path fill="rgb(110,99,100)" fill-opacity="1" d=" M-2.4000000953674316,15.364999771118164 C-2.4000000953674316,15.364999771118164 2.4000000953674316,11.093999862670898 2.4000000953674316,11.093999862670898 C2.4000000953674316,11.093999862670898 2.4000000953674316,-15.364999771118164 2.4000000953674316,-15.364999771118164 C2.4000000953674316,-15.364999771118164 -2.4000000953674316,-15.364999771118164 -2.4000000953674316,-15.364999771118164 C-2.4000000953674316,-15.364999771118164 -2.4000000953674316,15.364999771118164 -2.4000000953674316,15.364999771118164z"></path></g></g></g></svg>