<svg xmlns="http://www.w3.org/2000/svg" viewBox="0 0 61 72" width="61" height="72" preserveAspectRatio="xMidYMid meet" style="width: 100%; height: 100%; transform: translate3d(0px, 0px, 0px); content-visibility: visible;"><defs><clipPath id="__lottie_element_75"><rect width="61" height="72" x="0" y="0"></rect></clipPath></defs><g clip-path="url(#__lottie_element_75)"><g transform="matrix(0.3330000042915344,0,0,0.3330000042915344,67.82929992675781,35.70029830932617)" opacity="1" style="display: block;"><g opacity="1" transform="matrix(0.2540000081062317,0,0,0.29486000537872314,-130.85699462890625,-35.3849983215332)"><path fill="rgb(77,67,95)" fill-opacity="1" d=" M-93.72599792480469,-64.30500030517578 C-81.61799621582031,-92.56900024414062 -24.007999420166016,-99.58200073242188 17.950000762939453,-86.24400329589844 C59.90800094604492,-72.90599822998047 87.51399993896484,-36.731998443603516 77.90399932861328,-7.52400016784668 C64.39800262451172,33.52399826049805 15.187000274658203,45.39400100708008 -27.865999221801758,17.805999755859375 C-64.93599700927734,-5.947999954223633 -105.83399963378906,-36.04100036621094 -93.72599792480469,-64.30500030517578z"></path></g></g><g transform="matrix(0.19612911343574524,-0.03812364116311073,0.03812364116311073,0.19612911343574524,6.992593288421631,-11.472429275512695)" opacity="1" style="display: block;"><g opacity="1" transform="matrix(1,0,0,1,-1,3.9999923706054688)"><path fill="rgb(77,67,95)" fill-opacity="1" d=" M67.08300018310547,110 C73.75599670410156,110 79.16699981689453,115.41000366210938 79.16699981689453,122.08300018310547 C79.16699981689453,128.75599670410156 73.75599670410156,134.16700744628906 67.08300018310547,134.16700744628906 C60.40999984741211,134.16700744628906 55,128.75599670410156 55,122.08300018310547 C55,115.41000366210938 60.40999984741211,110 67.08300018310547,110z"></path></g><g opacity="1" transform="matrix(1,0,0,1,-2,4.499992370605469)"><path fill="rgb(141,125,142)" fill-opacity="1" d=" M66.08300018310547,113.33300018310547 C70.5469970703125,113.33300018310547 74.16699981689453,116.9530029296875 74.16699981689453,121.41699981689453 C74.16699981689453,125.88099670410156 70.5469970703125,129.5 66.08300018310547,129.5 C61.61899948120117,129.5 58,125.88099670410156 58,121.41699981689453 C58,116.9530029296875 61.61899948120117,113.33300018310547 66.08300018310547,113.33300018310547z"></path></g><g opacity="1" transform="matrix(1,0,0,1,-69.5,4)"><path fill="rgb(77,67,95)" fill-opacity="1" d=" M70.16699981689453,110 C77.07099914550781,110 82.66699981689453,115.59600067138672 82.66699981689453,122.5 C82.66699981689453,129.4040069580078 77.07099914550781,135 70.16699981689453,135 C63.26300048828125,135 57.66699981689453,129.4040069580078 57.66699981689453,122.5 C57.66699981689453,115.59600067138672 63.26300048828125,110 70.16699981689453,110z"></path></g><g opacity="1" transform="matrix(1,0,0,1,-65,5.499992370605469)"><path fill="rgb(141,125,142)" fill-opacity="1" d=" M66.08300018310547,113.33300018310547 C70.5469970703125,113.33300018310547 74.16699981689453,116.9530029296875 74.16699981689453,121.41699981689453 C74.16699981689453,125.88099670410156 70.5469970703125,129.5 66.08300018310547,129.5 C61.61899948120117,129.5 58,125.88099670410156 58,121.41699981689453 C58,116.9530029296875 61.61899948120117,113.33300018310547 66.08300018310547,113.33300018310547z"></path></g><g opacity="1" transform="matrix(1,0,0,1,91.59200286865234,145.08299255371094)"><path fill="rgb(75,64,95)" fill-opacity="1" d=" M-68.41400146484375,8.350000381469727 C-81.05999755859375,6.418000221252441 -93.02799987792969,1.4179999828338623 -94.10099792480469,-16.160999298095703 C-94.36799621582031,-20.53700065612793 -91.41300201416016,-24.832000732421875 -89.99600219726562,-28.982999801635742 C-89.5199966430664,-30.37700080871582 -89.62300109863281,-35.89799880981445 -89.48500061035156,-37.233001708984375 C-87.58300018310547,-55.60900115966797 -72.80599975585938,-66.36399841308594 -61.215999603271484,-66.3270034790039 C-47.14699935913086,-66.28199768066406 -39.323001861572266,-59.52799987792969 -34.73899841308594,-51.9900016784668 C-22.981000900268555,-32.65399932861328 -10.111000061035156,9.751999855041504 -68.41400146484375,8.350000381469727z"></path></g><g opacity="1" transform="matrix(1,0,0,1,23.094999313354492,124.06900024414062)"><path fill="rgb(141,124,142)" fill-opacity="1" d=" M24.70400047302246,2.367000102996826 C26.215999603271484,-0.47699999809265137 26.277000427246094,-3.5940001010894775 24.601999282836914,-6.696000099182129 C21.92300033569336,-11.656000137329102 16.889999389648438,-12.107000350952148 11.869999885559082,-12.581999778747559 C5.434000015258789,-13.190999984741211 -1.0670000314712524,-13.734000205993652 -7.513999938964844,-13.222999572753906 C-11.222000122070312,-12.928999900817871 -15.262999534606934,-12.854000091552734 -17.64900016784668,-9.557999610900879 C-20.5939998626709,-5.488999843597412 -19.621999740600586,-0.2840000092983246 -16.89900016784668,3.6040000915527344 C-12.062999725341797,10.508999824523926 -2.253999948501587,10.765000343322754 5.210000038146973,10.493000030517578 C11.902999877929688,10.24899959564209 21.160999298095703,9.029999732971191 24.70400047302246,2.367000102996826z"></path></g><g opacity="1" transform="matrix(1,0,0,1,24.38800048828125,140.75599670410156)"><path fill="rgb(141,124,142)" fill-opacity="1" d=" M-12.781000137329102,-5.170000076293945 C-13.13700008392334,3.1630001068115234 -2.4000000953674316,14.137999534606934 5.9720001220703125,8.923999786376953 C12.682999610900879,4.74399995803833 13.13700008392334,-7.005000114440918 4.986999988555908,-9.871000289916992 C-0.44200000166893005,-11.779999732971191 -11.815999984741211,-14.13700008392334 -12.72700023651123,-5.867000102996826 C-12.753000259399414,-5.632999897003174 -12.770999908447266,-5.4019999504089355 -12.781000137329102,-5.170000076293945z"></path></g><g opacity="1" transform="matrix(0.32133999466896057,0,0,0.32133999466896057,14.097999572753906,121.78700256347656)"><path fill="rgb(77,67,95)" fill-opacity="1" d=" M21,0 C21,0 21,0 21,0 C21,10.72817325592041 12.289555549621582,19.438617706298828 1.5613822937011719,19.438617706298828 C1.5613822937011719,19.438617706298828 -1.5613822937011719,19.438617706298828 -1.5613822937011719,19.438617706298828 C-12.289555549621582,19.438617706298828 -21,10.72817325592041 -21,0 C-21,0 -21,0 -21,0 C-21,-10.72817325592041 -12.289555549621582,-19.438617706298828 -1.5613822937011719,-19.438617706298828 C-1.5613822937011719,-19.438617706298828 1.5613822937011719,-19.438617706298828 1.5613822937011719,-19.438617706298828 C12.289555549621582,-19.438617706298828 21,-10.72817325592041 21,0z"></path></g><g opacity="1" transform="matrix(0.32133999466896057,0,0,0.32133999466896057,36.097999572753906,121.78700256347656)"><path fill="rgb(77,67,95)" fill-opacity="1" d=" M21,0 C21,0 21,0 21,0 C21,10.72817325592041 12.289555549621582,19.438617706298828 1.5613822937011719,19.438617706298828 C1.5613822937011719,19.438617706298828 -1.5613822937011719,19.438617706298828 -1.5613822937011719,19.438617706298828 C-12.289555549621582,19.438617706298828 -21,10.72817325592041 -21,0 C-21,0 -21,0 -21,0 C-21,-10.72817325592041 -12.289555549621582,-19.438617706298828 -1.5613822937011719,-19.438617706298828 C-1.5613822937011719,-19.438617706298828 1.5613822937011719,-19.438617706298828 1.5613822937011719,-19.438617706298828 C12.289555549621582,-19.438617706298828 21,-10.72817325592041 21,0z"></path></g></g><g transform="matrix(0.33237457275390625,-0.020399553701281548,0.020399553701281548,0.33237457275390625,73.25342559814453,31.396442413330078)" opacity="1" style="display: none;"><g opacity="1" transform="matrix(1,0,0,1,0,0)"><path fill="rgb(141,125,142)" fill-opacity="1" d=" M-145.5,-52.5 C-141,-49 -140.5,-30.5 -148,-28.5 C-154.2989959716797,-26.81999969482422 -168,-52.5 -152,-42 C-155,-50.5 -149.20599365234375,-55.38199996948242 -145.5,-52.5z"></path></g></g><g transform="matrix(0.19807597994804382,0.26768434047698975,0.11778110265731812,-0.08715343475341797,56.938865661621094,56.10196304321289)" opacity="1" style="display: none;"><g opacity="1" transform="matrix(1,0,0,1,0,0)"><path fill="rgb(141,125,142)" fill-opacity="1" d=" M-145.5,-52.5 C-141,-49 -140.5,-30.5 -148,-28.5 C-154.2989959716797,-26.81999969482422 -168,-52.5 -152,-42 C-155,-50.5 -149.20599365234375,-55.38199996948242 -145.5,-52.5z"></path></g></g><g transform="matrix(0.20239897072315216,0.26443082094192505,0.11634956300258636,-0.08905554562807083,55.163246154785156,51.50022888183594)" opacity="1" style="display: none;"><g opacity="1" transform="matrix(1,0,0,1,0,0)"><path fill="rgb(141,125,142)" fill-opacity="1" d=" M-145.5,-52.5 C-141,-49 -140.5,-30.5 -148,-28.5 C-154.2989959716797,-26.81999969482422 -168,-52.5 -152,-42 C-155,-50.5 -149.20599365234375,-55.38199996948242 -145.5,-52.5z"></path></g></g><g transform="matrix(0.33174654841423035,0.028865771368145943,-0.028865771368145943,0.33174654841423035,73.8494644165039,37.628936767578125)" opacity="1" style="display: none;"><g opacity="1" transform="matrix(1,0,0,1,0,0)"><path fill="rgb(141,125,142)" fill-opacity="1" d=" M-145.5,-52.5 C-141,-49 -140.5,-30.5 -148,-28.5 C-154.2989959716797,-26.81999969482422 -168,-52.5 -152,-42 C-155,-50.5 -149.20599365234375,-55.38199996948242 -145.5,-52.5z"></path></g></g><g transform="matrix(0.3330000042915344,0,0,0.3330000042915344,0.5632991194725037,-13.583698272705078)" opacity="1" style="display: block;"><g opacity="1" transform="matrix(1,0,0,1,91.11100006103516,145.08200073242188)"><path fill="rgb(77,67,95)" fill-opacity="1" d=" M-59.95899963378906,4.695000171661377 C-62.611000061035156,-17.08099937438965 -49.97100067138672,-56.6349983215332 -39.590999603271484,-49.10900115966797 C-28.391000747680664,-40.98899841308594 -15.748000144958496,-31.263999938964844 -9.003000259399414,-26.06100082397461 C2.993000030517578,-16.80500030517578 18.91200065612793,2.6600000858306885 35.80799865722656,0.47099998593330383 C46.395999908447266,-0.9010000228881836 57.349998474121094,-5.297999858856201 68.00499725341797,-1.9639999866485596 C81.81700134277344,2.3589999675750732 88.4219970703125,12.404999732971191 89.18499755859375,26.525999069213867 C90.86100006103516,57.5890007019043 39.60100173950195,62.9010009765625 17.891000747680664,60.19499969482422 C3.8350000381469727,58.444000244140625 -9.991999626159668,54.698001861572266 -23.03700065612793,49.28300094604492 C-38.12200164794922,43.020999908447266 -57.30699920654297,26.47100067138672 -59.95899963378906,4.695000171661377z"></path></g></g><g transform="matrix(0.3330000042915344,0,0,0.3330000042915344,0.5632991194725037,-13.583698272705078)" opacity="1" style="display: block;"><g opacity="1" transform="matrix(1,0,0,1,153.3979949951172,208.80099487304688)"><path fill="rgb(77,67,95)" fill-opacity="1" d=" M-7.547999858856201,-46.68199920654297 C-12.894000053405762,-29.825000762939453 -27.035999298095703,-20.29400062561035 -24.559999465942383,0 C-22.895999908447266,13.642000198364258 -15.635000228881836,21.916000366210938 -15.635000228881836,35.36600112915039 C-19.242000579833984,35.36600112915039 -22.56399917602539,36.52000045776367 -24.554000854492188,37.946998596191406 C-29.204999923706055,41.284000396728516 -27.04800033569336,46.68199920654297 -20.350000381469727,46.68199920654297 C-20.350000381469727,46.68199920654297 4.0229997634887695,46.68199920654297 4.0229997634887695,46.68199920654297 C18.32200050354004,46.68199920654297 15.019000053405762,20.5939998626709 12.105999946594238,7.545000076293945 C10.026000022888184,-1.7760000228881836 29.204999923706055,-10.812000274658203 26.89900016784668,-37.194000244140625"></path></g></g><g transform="matrix(0.3330000042915344,0,0,0.3330000042915344,0.5632991194725037,-13.583698272705078)" opacity="1" style="display: block;"><g opacity="1" transform="matrix(1,0,0,1,91.11100006103516,145.08200073242188)"><path fill="rgb(77,67,95)" fill-opacity="1" d=" M-50.45899963378906,4.695000171661377 C-57.111000061035156,10.918999671936035 -61.111000061035156,13.918000221252441 -68.25599670410156,15.850000381469727 C-75.98799896240234,10.125 -86.69200134277344,2.6389999389648438 -89.60099792480469,-6.99399995803833 C-90.86100006103516,-11.166999816894531 -89.81600189208984,-15.664999961853027 -88.48699951171875,-19.81599998474121 C-88.04100036621094,-21.209999084472656 -87.55799865722656,-22.618999481201172 -87.50499725341797,-24.082000732421875 C-87.45700073242188,-25.42300033569336 -87.93599700927734,-26.72599983215332 -88.00800323486328,-28.06599998474121 C-88.78900146484375,-42.518001556396484 -69.8030014038086,-62.20399856567383 -61.1619987487793,-62.67100143432617 C-59.15399932861328,-62.77899932861328 -49.891998291015625,-57.49300003051758 -40.24800109863281,-49.58399963378906 C-25.61199951171875,-37.58100128173828 -38.611000061035156,-2.5810000896453857 -50.45899963378906,4.695000171661377z"></path></g><g opacity="1" transform="matrix(1,0,0,1,23.594999313354492,123.56900024414062)"><path fill="rgb(141,124,142)" fill-opacity="1" d=" M18.231000900268555,3.2119998931884766 C19.492000579833984,0.8399999737739563 19.542999267578125,-1.7580000162124634 18.145999908447266,-4.34499979019165 C15.911999702453613,-8.480999946594238 11.71500015258789,-8.859000205993652 7.5289998054504395,-9.253999710083008 C2.1619999408721924,-9.76200008392334 -3.259999990463257,-10.215999603271484 -8.63599967956543,-9.788000106811523 C-11.727999687194824,-9.543000221252441 -15.097999572753906,-9.480999946594238 -17.086999893188477,-6.73199987411499 C-19.542999267578125,-3.3389999866485596 -18.732999801635742,1.0019999742507935 -16.461999893188477,4.24399995803833 C-12.428999900817871,10.001999855041504 -4.249000072479248,10.215999603271484 1.975000023841858,9.98900032043457 C7.556000232696533,9.78600025177002 15.276000022888184,8.767999649047852 18.231000900268555,3.2119998931884766z"></path></g><g opacity="1" transform="matrix(1,0,0,1,23.88800048828125,140.75599670410156)"><path fill="rgb(141,124,142)" fill-opacity="1" d=" M-12.781000137329102,-5.170000076293945 C-13.13700008392334,3.1630001068115234 -2.4000000953674316,14.137999534606934 5.9720001220703125,8.923999786376953 C12.682999610900879,4.74399995803833 13.13700008392334,-7.005000114440918 4.986999988555908,-9.871000289916992 C-0.44200000166893005,-11.779999732971191 -11.815999984741211,-14.13700008392334 -12.72700023651123,-5.867000102996826 C-12.753000259399414,-5.632999897003174 -12.770999908447266,-5.4019999504089355 -12.781000137329102,-5.170000076293945z"></path></g><g opacity="1" transform="matrix(0.32133999466896057,0,0,0.32133999466896057,12.597999572753906,122.28700256347656)"><path fill="rgb(77,67,95)" fill-opacity="1" d=" M16.5,0 C16.5,0 16.5,0 16.5,0 C16.5,9.10634994506836 9.10634994506836,16.5 0,16.5 C0,16.5 0,16.5 0,16.5 C-9.10634994506836,16.5 -16.5,9.10634994506836 -16.5,0 C-16.5,0 -16.5,0 -16.5,0 C-16.5,-9.10634994506836 -9.10634994506836,-16.5 0,-16.5 C0,-16.5 0,-16.5 0,-16.5 C9.10634994506836,-16.5 16.5,-9.10634994506836 16.5,0z"></path></g><g opacity="1" transform="matrix(0.32133999466896057,0,0,0.32133999466896057,33.597999572753906,122.28700256347656)"><path fill="rgb(77,67,95)" fill-opacity="1" d=" M16.5,0 C16.5,0 16.5,0 16.5,0 C16.5,9.10634994506836 9.10634994506836,16.5 0,16.5 C0,16.5 0,16.5 0,16.5 C-9.10634994506836,16.5 -16.5,9.10634994506836 -16.5,0 C-16.5,0 -16.5,0 -16.5,0 C-16.5,-9.10634994506836 -9.10634994506836,-16.5 0,-16.5 C0,-16.5 0,-16.5 0,-16.5 C9.10634994506836,-16.5 16.5,-9.10634994506836 16.5,0z"></path></g></g><g transform="matrix(0.3330000042915344,0,0,0.3330000042915344,0.5632991194725037,-13.583698272705078)" opacity="1" style="display: block;"><g opacity="1" transform="matrix(1,0,0,1,60.45800018310547,190.08299255371094)"><path fill="rgb(77,67,95)" fill-opacity="1" d=" M-23.44499969482422,-6.953999996185303 C-27.499000549316406,1.7239999771118164 -28.16200065612793,11.45300006866455 -26.535999298095703,20.80699920654297 C-25.75200080871582,25.316999435424805 -24.4689998626709,29.731000900268555 -22.867000579833984,34.01499938964844 C-21.099000930786133,38.744998931884766 -18.202999114990234,42.005001068115234 -15.026000022888184,45.89899826049805 C-14.800999641418457,46.17399978637695 -14.571000099182129,46.45800018310547 -14.454000473022461,46.79399871826172 C-14.277999877929688,47.29899978637695 -14.375,47.85200119018555 -14.465999603271484,48.37900161743164 C-14.904999732971191,50.93899917602539 -15.131999969482422,53.5369987487793 -15.142999649047852,56.1349983215332 C-15.164999961853027,61.79100036621094 -13.272000312805176,64.13099670410156 -7.770999908447266,64.85199737548828 C-3.361999988555908,65.43000030517578 1.2059999704360962,65.09300231933594 5.609000205993652,64.61499786376953 C12.960000038146973,63.81700134277344 17.031999588012695,60.084999084472656 13.82800006866455,53.512001037597656 C12.512999534606934,50.8129997253418 10.206000328063965,48.60200119018555 7.942999839782715,46.446998596191406 C7.538000106811523,42.79499816894531 10.458000183105469,41.42100143432617 12.097999572753906,38.04899978637695 C15.407999992370605,31.239999771118164 15.527999877929688,24.274999618530273 14.031999588012695,17.011999130249023 C12.66100025177002,10.355999946594238 7.179999828338623,4.160999774932861 7.179999828338623,-2.4040000438690186 C9.543000221252441,-16.58300018310547 -19.457000732421875,-25.083999633789062 -23.44499969482422,-6.953999996185303z"></path></g></g><g transform="matrix(0.3330000042915344,0,0,0.3330000042915344,0.5632991194725037,-13.583698272705078)" opacity="1" style="display: block;"><g opacity="1" transform="matrix(1,0,0,1,60.45800018310547,190.08299255371094)"><path fill="rgb(77,67,95)" fill-opacity="1" d=" M-5.6020002365112305,-65.43000030517578 C-22.177000045776367,-50.68600082397461 -28.513999938964844,-27.086999893188477 -23.44499969482422,-6.953999996185303 C-24.457000732421875,13.416000366210938 4.043000221252441,14.416999816894531 7.179999828338623,-2.4040000438690186 C7.179999828338623,-12.72700023651123 24.91200065612793,-14.675999641418457 28.514999389648438,-44.73899841308594"></path></g></g><g transform="matrix(0.3231084942817688,-0.08055999130010605,0.08055999130010605,0.3231084942817688,75.5074462890625,28.365440368652344)" opacity="1" style="display: block;"><g opacity="1" transform="matrix(1,0,0,1,0,0)"><path fill="rgb(141,125,142)" fill-opacity="1" d=" M-145.5,-52.5 C-141,-49 -140.5,-30.5 -148,-28.5 C-154.2989959716797,-26.81999969482422 -168,-52.5 -152,-42 C-155,-50.5 -149.20599365234375,-55.38199996948242 -145.5,-52.5z"></path></g></g><g transform="matrix(0.2346590906381607,0.15827956795692444,0.15827956795692444,-0.2346590906381607,58.298946380615234,38.16776657104492)" opacity="1" style="display: block;"><g opacity="1" transform="matrix(1,0,0,1,0,0)"><path fill="rgb(141,125,142)" fill-opacity="1" d=" M-145.5,-52.5 C-141,-49 -140.5,-30.5 -148,-28.5 C-154.2989959716797,-26.81999969482422 -168,-52.5 -152,-42 C-155,-50.5 -149.20599365234375,-55.38199996948242 -145.5,-52.5z"></path></g></g></g></svg>