<svg xmlns="http://www.w3.org/2000/svg" viewBox="0 0 16 56" width="16" height="56" preserveAspectRatio="xMidYMid meet" style="width: 100%; height: 100%; transform: translate3d(0px, 0px, 0px); content-visibility: visible;"><defs><clipPath id="__lottie_element_1015"><rect width="16" height="56" x="0" y="0"></rect></clipPath></defs><g clip-path="url(#__lottie_element_1015)"><g transform="matrix(1.8059998750686646,0,0,1.8059998750686646,-0.035151343792676926,0.41799604892730713)" opacity="1" style="display: block;"><g opacity="1" transform="matrix(1,0,0,1,4.389999866485596,18.51799964904785)"><path fill="rgb(0,131,125)" fill-opacity="1" d=" M0.8569999933242798,-10.506999969482422 C0.8569999933242798,-10.506999969482422 -0.8569999933242798,-10.506999969482422 -0.8569999933242798,-10.506999969482422 C-0.8569999933242798,-10.506999969482422 -0.8569999933242798,10.506999969482422 -0.8569999933242798,10.506999969482422 C-0.8569999933242798,10.506999969482422 0.8569999933242798,10.506999969482422 0.8569999933242798,10.506999969482422 C0.8569999933242798,10.506999969482422 0.8569999933242798,-10.506999969482422 0.8569999933242798,-10.506999969482422z"></path></g><g opacity="1" transform="matrix(1,0,0,1,0,0)"><path stroke-linecap="round" stroke-linejoin="round" fill-opacity="0" stroke="rgb(70,148,120)" stroke-opacity="1" stroke-width="0.677" d=" M3.5339999198913574,9.557999610900879 C3.5339999198913574,9.557999610900879 5.247000217437744,9.557999610900879 5.247000217437744,9.557999610900879"></path></g><g opacity="1" transform="matrix(1,0,0,1,4.389999866485596,4.389999866485596)"><path fill="rgb(0,131,125)" fill-opacity="1" d=" M4.139999866485596,0 C4.139999866485596,-2.2860000133514404 2.2860000133514404,-4.139999866485596 0,-4.139999866485596 C-2.2860000133514404,-4.139999866485596 -4.139999866485596,-2.2860000133514404 -4.139999866485596,0 C-4.139999866485596,2.2860000133514404 -2.2860000133514404,4.139999866485596 0,4.139999866485596 C2.2860000133514404,4.139999866485596 4.139999866485596,2.2860000133514404 4.139999866485596,0z"></path></g><g opacity="1" transform="matrix(1,0,0,1,4.389999866485596,4.389999866485596)"><path fill="rgb(255,201,77)" fill-opacity="1" d=" M2.992000102996826,0 C2.992000102996826,-1.6519999504089355 1.652999997138977,-2.990999937057495 0,-2.990999937057495 C-1.6519999504089355,-2.990999937057495 -2.992000102996826,-1.6519999504089355 -2.992000102996826,0 C-2.992000102996826,1.6519999504089355 -1.6519999504089355,2.990999937057495 0,2.990999937057495 C1.652999997138977,2.990999937057495 2.992000102996826,1.6519999504089355 2.992000102996826,0z"></path></g><g opacity="1" transform="matrix(1,0,0,1,3.8469998836517334,3.8469998836517334)"><path stroke-linecap="round" stroke-linejoin="miter" fill-opacity="0" stroke-miterlimit="10" stroke="rgb(49,45,57)" stroke-opacity="1" stroke-width="0.8" d=" M0.5440000295639038,0.5429999828338623 C0.5440000295639038,0.5429999828338623 -0.5440000295639038,-0.5429999828338623 -0.5440000295639038,-0.5429999828338623"></path></g><g opacity="1" transform="matrix(1,0,0,1,4.389999866485596,29.025999069213867)"><path fill="rgb(0,131,125)" fill-opacity="1" d=" M0.5529999732971191,-1.2200000286102295 C0.5529999732971191,-1.2200000286102295 -0.5529999732971191,-1.2200000286102295 -0.5529999732971191,-1.2200000286102295 C-1.8990000486373901,-1.2200000286102295 -2.990999937057495,-0.12700000405311584 -2.990999937057495,1.2200000286102295 C-2.990999937057495,1.2200000286102295 2.990999937057495,1.2200000286102295 2.990999937057495,1.2200000286102295 C2.990999937057495,-0.12700000405311584 1.899999976158142,-1.2200000286102295 0.5529999732971191,-1.2200000286102295z"></path></g></g><g transform="matrix(1.2770347595214844,-1.2770347595214844,1.2770347595214844,1.2770347595214844,0.6921433210372925,6.1297454833984375)" opacity="1" style="display: block;"><g opacity="1" transform="matrix(1,0,0,1,2.8510000705718994,2.8519999980926514)"><path stroke-linecap="round" stroke-linejoin="miter" fill-opacity="0" stroke-miterlimit="10" stroke="rgb(49,45,57)" stroke-opacity="1" stroke-width="0.8" d=" M-0.8510000109672546,0.8510000109672546 C-0.8510000109672546,0.8510000109672546 0.8510000109672546,-0.8510000109672546 0.8510000109672546,-0.8510000109672546"></path></g></g><g transform="matrix(1.8059998750686646,0,0,1.8059998750686646,0.13100041449069977,0.26500147581100464)" opacity="1" style="display: block;"><g opacity="1" transform="matrix(1,0,0,1,4.389999866485596,4.389999866485596)"><path fill="rgb(0,131,125)" fill-opacity="1" d=" M0.7080000042915344,0 C0.7080000042915344,-0.39100000262260437 0.39100000262260437,-0.7080000042915344 0,-0.7080000042915344 C-0.39100000262260437,-0.7080000042915344 -0.7080000042915344,-0.39100000262260437 -0.7080000042915344,0 C-0.7080000042915344,0.39100000262260437 -0.39100000262260437,0.7080000042915344 0,0.7080000042915344 C0.39100000262260437,0.7080000042915344 0.7080000042915344,0.39100000262260437 0.7080000042915344,0z"></path></g></g></g></svg>