<svg xmlns="http://www.w3.org/2000/svg" viewBox="0 0 32 34" width="32" height="34" preserveAspectRatio="xMidYMid meet" style="width: 100%; height: 100%; transform: translate3d(0px, 0px, 0px); content-visibility: visible;"><defs><clipPath id="__lottie_element_3119"><rect width="32" height="34" x="0" y="0"></rect></clipPath><mask id="__lottie_element_3136" mask-type="alpha"><g transform="matrix(0.20639999210834503,0,0,0.20639999210834503,0.6661316752433777,-0.8371898531913757)" opacity="1" style="display: block;"><g opacity="1" transform="matrix(1,0,0,1,40.117000579833984,37.66600036621094)"><path fill="rgb(255,0,0)" fill-opacity="1" d=" M37.573001861572266,10.142999649047852 C37.573001861572266,10.142999649047852 -37.573001861572266,10.142999649047852 -37.573001861572266,10.142999649047852 C-37.573001861572266,10.142999649047852 -31.83799934387207,3.877000093460083 -31.83799934387207,3.877000093460083 C-23.66200065612793,-5.054999828338623 -12.109000205993652,-10.142999649047852 0.0010000000474974513,-10.142999649047852 C12.112000465393066,-10.142999649047852 23.665000915527344,-5.053999900817871 31.841999053955078,3.880000114440918 C31.841999053955078,3.880000114440918 37.573001861572266,10.142999649047852 37.573001861572266,10.142999649047852z"></path></g></g></mask></defs><g clip-path="url(#__lottie_element_3119)"><g transform="matrix(0.20639999210834503,0,0,0.20639999210834503,0.9938369989395142,-0.8371898531913757)" opacity="1" style="display: block;"><g opacity="1" transform="matrix(1,0,0,1,0,0)"><path stroke-linecap="round" stroke-linejoin="round" fill-opacity="0" stroke="rgb(149,133,150)" stroke-opacity="1" stroke-width="5" d=" M30.108999252319336,37.224998474121094 C30.108999252319336,37.224998474121094 30.108999252319336,12.5 30.108999252319336,12.5"></path></g></g><g transform="matrix(0.20639999210834503,0,0,0.20639999210834503,0.6661316752433777,-0.8371898531913757)" opacity="1" style="display: block;"><g opacity="1" transform="matrix(1,0,0,1,40.117000579833984,55.380001068115234)"><path fill="rgb(139,124,141)" fill-opacity="1" d=" M6.561999797821045,-7.579999923706055 C6.561999797821045,-7.579999923706055 -6.561999797821045,-7.579999923706055 -6.561999797821045,-7.579999923706055 C-6.561999797821045,-7.579999923706055 -6.561999797821045,14.454999923706055 -6.561999797821045,14.454999923706055 C-6.561999797821045,14.454999923706055 6.561999797821045,14.454999923706055 6.561999797821045,14.454999923706055 C6.561999797821045,14.454999923706055 6.561999797821045,-7.579999923706055 6.561999797821045,-7.579999923706055z"></path></g><g opacity="1" transform="matrix(1,0,0,1,40.117000579833984,50.72800064086914)"><path fill="rgb(78,67,95)" fill-opacity="1" d=" M37.573001861572266,-2.9189999103546143 C37.573001861572266,-2.9189999103546143 -37.573001861572266,-2.9189999103546143 -37.573001861572266,-2.9189999103546143 C-37.573001861572266,-2.9189999103546143 -37.573001861572266,2.9189999103546143 -37.573001861572266,2.9189999103546143 C-37.573001861572266,2.9189999103546143 37.573001861572266,2.9189999103546143 37.573001861572266,2.9189999103546143 C37.573001861572266,2.9189999103546143 37.573001861572266,-2.9189999103546143 37.573001861572266,-2.9189999103546143z"></path></g><g opacity="1" transform="matrix(1,0,0,1,40.117000579833984,37.66600036621094)"><path fill="rgb(212,195,206)" fill-opacity="1" d=" M37.573001861572266,10.142999649047852 C37.573001861572266,10.142999649047852 -37.573001861572266,10.142999649047852 -37.573001861572266,10.142999649047852 C-37.573001861572266,10.142999649047852 -31.83799934387207,3.877000093460083 -31.83799934387207,3.877000093460083 C-23.66200065612793,-5.054999828338623 -12.109000205993652,-10.142999649047852 0.0010000000474974513,-10.142999649047852 C12.112000465393066,-10.142999649047852 23.665000915527344,-5.053999900817871 31.841999053955078,3.880000114440918 C31.841999053955078,3.880000114440918 37.573001861572266,10.142999649047852 37.573001861572266,10.142999649047852z"></path></g></g><g mask="url(#__lottie_element_3136)" style="display: block;"><g transform="matrix(0.20639999210834503,0,0,0.20639999210834503,1.3704261779785156,-0.8371898531913757)" opacity="1"><g opacity="1" transform="matrix(1,0,0,1,40.11800003051758,37.66600036621094)"><path fill="rgb(192,66,60)" fill-opacity="1" d=" M-23.700000762939453,-9.916000366210938 C-23.700000762939453,-9.916000366210938 -23.700000762939453,10.142999649047852 -23.700000762939453,10.142999649047852 C-23.700000762939453,10.142999649047852 23.700000762939453,10.142999649047852 23.700000762939453,10.142999649047852 C23.700000762939453,10.142999649047852 23.700000762939453,-9.916999816894531 23.700000762939453,-9.916999816894531 C23.690000534057617,-9.920000076293945 8.501999855041504,-10.142999649047852 0,-10.142999649047852 C-8.50100040435791,-10.142999649047852 -23.559999465942383,-10.420000076293945 -23.700000762939453,-9.916000366210938z"></path></g></g></g><g transform="matrix(0.20639999210834503,0,0,0.20639999210834503,1.3704261779785156,-0.8371898531913757)" opacity="1" style="display: block;"><g opacity="1" transform="matrix(1,0,0,1,40.11800003051758,39.125999450683594)"><path fill="rgb(78,67,95)" fill-opacity="1" d=" M8.803000450134277,-11.602999687194824 C8.803000450134277,-11.602999687194824 -8.803999900817871,-11.602999687194824 -8.803999900817871,-11.602999687194824 C-15.211999893188477,-11.602999687194824 -20.4060001373291,-6.408999919891357 -20.4060001373291,0 C-20.4060001373291,6.4070000648498535 -15.211999893188477,11.602999687194824 -8.803999900817871,11.602999687194824 C-8.803999900817871,11.602999687194824 8.803000450134277,11.602999687194824 8.803000450134277,11.602999687194824 C15.211000442504883,11.602999687194824 20.4060001373291,6.4070000648498535 20.4060001373291,0 C20.4060001373291,-6.408999919891357 15.211000442504883,-11.602999687194824 8.803000450134277,-11.602999687194824z"></path></g><g opacity="1" transform="matrix(1,0,0,1,42.11899948120117,39.125999450683594)"><path fill="rgb(17,128,194)" fill-opacity="1" d=" M4.578999996185303,0 C4.578999996185303,-2.5290000438690186 2.5290000438690186,-4.578999996185303 0,-4.578999996185303 C-2.5280001163482666,-4.578999996185303 -4.578999996185303,-2.5290000438690186 -4.578999996185303,0 C-4.578999996185303,2.5290000438690186 -2.5280001163482666,4.578999996185303 0,4.578999996185303 C2.5290000438690186,4.578999996185303 4.578999996185303,2.5290000438690186 4.578999996185303,0z"></path></g><g opacity="1" transform="matrix(1,0,0,1,30.034000396728516,39.125999450683594)"><path fill="rgb(139,124,141)" fill-opacity="1" d=" M3.203000068664551,-7.349999904632568 C3.203000068664551,-7.349999904632568 -3.2019999027252197,-7.349999904632568 -3.2019999027252197,-7.349999904632568 C-4.238999843597412,-7.349999904632568 -5.078999996185303,-6.508999824523926 -5.078999996185303,-5.4720001220703125 C-5.078999996185303,-5.4720001220703125 -5.078999996185303,5.4730000495910645 -5.078999996185303,5.4730000495910645 C-5.078999996185303,6.508999824523926 -4.238999843597412,7.349999904632568 -3.2019999027252197,7.349999904632568 C-3.2019999027252197,7.349999904632568 3.203000068664551,7.349999904632568 3.203000068664551,7.349999904632568 C4.239999771118164,7.349999904632568 5.078999996185303,6.508999824523926 5.078999996185303,5.4730000495910645 C5.078999996185303,5.4730000495910645 5.078999996185303,-5.4720001220703125 5.078999996185303,-5.4720001220703125 C5.078999996185303,-6.508999824523926 4.239999771118164,-7.349999904632568 3.203000068664551,-7.349999904632568z"></path></g><g opacity="1" transform="matrix(1,0,0,1,30.034000396728516,39.125999450683594)"><path fill="rgb(78,67,95)" fill-opacity="1" d=" M-3.0789999961853027,4.578999996185303 C-3.0789999961853027,4.578999996185303 3.0789999961853027,4.578999996185303 3.0789999961853027,4.578999996185303 C3.0789999961853027,4.578999996185303 3.0789999961853027,-4.578999996185303 3.0789999961853027,-4.578999996185303 C3.0789999961853027,-4.578999996185303 -3.0789999961853027,-4.578999996185303 -3.0789999961853027,-4.578999996185303 C-3.0789999961853027,-4.578999996185303 -3.0789999961853027,4.578999996185303 -3.0789999961853027,4.578999996185303z"></path></g></g><g transform="matrix(0.20639999210834503,0,0,0.20639999210834503,0.6661316752433777,-0.8371898531913757)" opacity="1" style="display: block;"><g opacity="1" transform="matrix(1,0,0,1,40.11800003051758,143.96200561523438)"><path fill="rgb(78,67,95)" fill-opacity="1" d=" M34.862998962402344,-4.88100004196167 C34.862998962402344,-4.88100004196167 -34.862998962402344,-4.88100004196167 -34.862998962402344,-4.88100004196167 C-34.862998962402344,-4.88100004196167 -34.862998962402344,4.88100004196167 -34.862998962402344,4.88100004196167 C-34.862998962402344,4.88100004196167 34.862998962402344,4.88100004196167 34.862998962402344,4.88100004196167 C34.862998962402344,4.88100004196167 34.862998962402344,-4.88100004196167 34.862998962402344,-4.88100004196167z"></path></g><g opacity="1" transform="matrix(1,0,0,1,40.117000579833984,156.60499572753906)"><path fill="rgb(139,124,141)" fill-opacity="1" d=" M36.867000579833984,-9.720999717712402 C36.867000579833984,-9.720999717712402 -36.867000579833984,-9.720999717712402 -36.867000579833984,-9.720999717712402 C-38.52399826049805,-9.720999717712402 -39.867000579833984,-8.378000259399414 -39.867000579833984,-6.7210001945495605 C-39.867000579833984,-6.7210001945495605 -39.867000579833984,6.7210001945495605 -39.867000579833984,6.7210001945495605 C-39.867000579833984,8.378000259399414 -38.52399826049805,9.720999717712402 -36.867000579833984,9.720999717712402 C-36.867000579833984,9.720999717712402 36.867000579833984,9.720999717712402 36.867000579833984,9.720999717712402 C38.52399826049805,9.720999717712402 39.867000579833984,8.378000259399414 39.867000579833984,6.7210001945495605 C39.867000579833984,6.7210001945495605 39.867000579833984,-6.7210001945495605 39.867000579833984,-6.7210001945495605 C39.867000579833984,-8.378000259399414 38.52399826049805,-9.720999717712402 36.867000579833984,-9.720999717712402z"></path></g><g opacity="1" transform="matrix(1,0,0,1,22.5939998626709,69.552001953125)"><path fill="rgb(17,128,194)" fill-opacity="1" d=" M-13.343999862670898,5.77400016784668 C-13.343999862670898,5.77400016784668 -12.642000198364258,-5.77400016784668 -12.642000198364258,-5.77400016784668 C-12.642000198364258,-5.77400016784668 12.640999794006348,-5.77400016784668 12.640999794006348,-5.77400016784668 C12.640999794006348,-5.77400016784668 13.343999862670898,5.77400016784668 13.343999862670898,5.77400016784668 C13.343999862670898,5.77400016784668 -13.343999862670898,5.77400016784668 -13.343999862670898,5.77400016784668z"></path></g><g opacity="1" transform="matrix(1,0,0,1,18.52199935913086,86.97200012207031)"><path fill="rgb(194,172,185)" fill-opacity="1" d=" M-9.576000213623047,-6.642000198364258 C-9.576000213623047,-6.642000198364258 9.576000213623047,-6.642000198364258 9.576000213623047,-6.642000198364258 C9.576000213623047,-6.642000198364258 9.576000213623047,6.642000198364258 9.576000213623047,6.642000198364258 C9.576000213623047,6.642000198364258 -9.576000213623047,6.642000198364258 -9.576000213623047,6.642000198364258 C-9.576000213623047,6.642000198364258 -9.576000213623047,-6.642000198364258 -9.576000213623047,-6.642000198364258z"></path></g><g opacity="1" transform="matrix(1,0,0,1,18.52199935913086,82.02300262451172)"><path fill="rgb(78,67,95)" fill-opacity="1" d=" M-9.576000213623047,-1.6929999589920044 C-9.576000213623047,-1.6929999589920044 9.576000213623047,-1.6929999589920044 9.576000213623047,-1.6929999589920044 C9.576000213623047,-1.6929999589920044 9.576000213623047,1.6929999589920044 9.576000213623047,1.6929999589920044 C9.576000213623047,1.6929999589920044 -9.576000213623047,1.6929999589920044 -9.576000213623047,1.6929999589920044 C-9.576000213623047,1.6929999589920044 -9.576000213623047,-1.6929999589920044 -9.576000213623047,-1.6929999589920044z"></path></g><g opacity="1" transform="matrix(1,0,0,1,40.11800003051758,103.37100219726562)"><path fill="rgb(139,124,141)" fill-opacity="1" d=" M33.194000244140625,22.597999572753906 C33.194000244140625,22.597999572753906 30.44499969482422,-22.597999572753906 30.44499969482422,-22.597999572753906 C30.44499969482422,-22.597999572753906 -30.44499969482422,-22.59600067138672 -30.44499969482422,-22.59600067138672 C-30.44499969482422,-22.59600067138672 -33.194000244140625,22.597999572753906 -33.194000244140625,22.597999572753906 C-33.194000244140625,22.597999572753906 33.194000244140625,22.597999572753906 33.194000244140625,22.597999572753906z"></path></g><g opacity="1" transform="matrix(1,0,0,1,40.117000579833984,82.04199981689453)"><path fill="rgb(212,195,206)" fill-opacity="1" d=" M34.183998107910156,23.270999908447266 C34.183998107910156,23.270999908447266 31.638999938964844,-18.573999404907227 31.638999938964844,-18.573999404907227 C31.47800064086914,-21.21299934387207 29.291000366210938,-23.270999908447266 26.648000717163086,-23.270999908447266 C26.648000717163086,-23.270999908447266 -26.64699935913086,-23.270999908447266 -26.64699935913086,-23.270999908447266 C-29.291000366210938,-23.270000457763672 -31.47800064086914,-21.211000442504883 -31.63800048828125,-18.572999954223633 C-31.63800048828125,-18.572999954223633 -34.183998107910156,23.270999908447266 -34.183998107910156,23.270999908447266 C-34.183998107910156,23.270999908447266 34.183998107910156,23.270999908447266 34.183998107910156,23.270999908447266z"></path></g><g opacity="1" transform="matrix(1,0,0,1,40.117000579833984,125.68199920654297)"><path fill="rgb(212,195,206)" fill-opacity="1" d=" M34.48899841308594,-15.368000030517578 C34.48899841308594,-15.368000030517578 -34.48699951171875,-15.368000030517578 -34.48699951171875,-15.368000030517578 C-34.48699951171875,-15.368000030517578 -36.356998443603516,15.368000030517578 -36.356998443603516,15.368000030517578 C-36.356998443603516,15.368000030517578 36.356998443603516,15.368000030517578 36.356998443603516,15.368000030517578 C36.356998443603516,15.368000030517578 34.48899841308594,-15.368000030517578 34.48899841308594,-15.368000030517578z"></path></g><g opacity="1" transform="matrix(1,0,0,1,62.11800003051758,69.552001953125)"><path fill="rgb(192,66,60)" fill-opacity="1" d=" M-9.656999588012695,5.77400016784668 C-9.656999588012695,5.77400016784668 10.359000205993652,5.77400016784668 10.359000205993652,5.77400016784668 C10.359000205993652,5.77400016784668 9.656999588012695,-5.77400016784668 9.656999588012695,-5.77400016784668 C9.656999588012695,-5.77400016784668 -10.359000205993652,-5.77400016784668 -10.359000205993652,-5.77400016784668 C-10.359000205993652,-5.77400016784668 -9.656999588012695,5.77400016784668 -9.656999588012695,5.77400016784668z"></path></g><g opacity="1" transform="matrix(1,0,0,1,18.117000579833984,69.5510025024414)"><path fill="rgb(192,66,60)" fill-opacity="1" d=" M10.359999656677246,-5.775000095367432 C10.359999656677246,-5.775000095367432 -9.656999588012695,-5.775000095367432 -9.656999588012695,-5.775000095367432 C-9.656999588012695,-5.775000095367432 -10.359999656677246,5.775000095367432 -10.359999656677246,5.775000095367432 C-10.359999656677246,5.775000095367432 9.656999588012695,5.775000095367432 9.656999588012695,5.775000095367432 C9.656999588012695,5.775000095367432 10.359999656677246,-5.775000095367432 10.359999656677246,-5.775000095367432z"></path></g><g opacity="1" transform="matrix(1,0,0,1,40.11800003051758,92.8219985961914)"><path fill="rgb(194,172,185)" fill-opacity="1" d=" M-29.18000030517578,12.491999626159668 C-29.18000030517578,12.491999626159668 29.18000030517578,12.491999626159668 29.18000030517578,12.491999626159668 C29.18000030517578,12.491999626159668 27.65999984741211,-12.491999626159668 27.65999984741211,-12.491999626159668 C27.65999984741211,-12.491999626159668 -27.65999984741211,-12.491999626159668 -27.65999984741211,-12.491999626159668 C-27.65999984741211,-12.491999626159668 -29.18000030517578,12.491999626159668 -29.18000030517578,12.491999626159668z"></path></g><g opacity="1" transform="matrix(1,0,0,1,40.117000579833984,82.02300262451172)"><path fill="rgb(78,67,95)" fill-opacity="1" d=" M27.865999221801758,1.6929999589920044 C27.865999221801758,1.6929999589920044 27.65999984741211,-1.6929999589920044 27.65999984741211,-1.6929999589920044 C27.65999984741211,-1.6929999589920044 -27.65999984741211,-1.6929999589920044 -27.65999984741211,-1.6929999589920044 C-27.65999984741211,-1.6929999589920044 -27.865999221801758,1.6929999589920044 -27.865999221801758,1.6929999589920044 C-27.865999221801758,1.6929999589920044 27.865999221801758,1.6929999589920044 27.865999221801758,1.6929999589920044z"></path></g><g opacity="1" transform="matrix(1,0,0,1,40.11800003051758,117.99800109863281)"><path fill="rgb(192,66,60)" fill-opacity="1" d=" M-7.573999881744385,-7.684000015258789 C-7.573999881744385,-7.684000015258789 -3.760999917984009,7.682000160217285 -3.760999917984009,7.682000160217285 C-3.760999917984009,7.682000160217285 3.76200008392334,7.684000015258789 3.76200008392334,7.684000015258789 C3.76200008392334,7.684000015258789 7.573999881744385,-7.684000015258789 7.573999881744385,-7.684000015258789 C7.573999881744385,-7.684000015258789 -7.573999881744385,-7.684000015258789 -7.573999881744385,-7.684000015258789z"></path></g><g opacity="1" transform="matrix(1,0,0,1,40.117000579833984,92.8219985961914)"><path fill="rgb(192,66,60)" fill-opacity="1" d=" M8.8149995803833,12.491999626159668 C8.8149995803833,12.491999626159668 15.012999534606934,-12.491999626159668 15.012999534606934,-12.491999626159668 C15.012999534606934,-12.491999626159668 -15.012999534606934,-12.491999626159668 -15.012999534606934,-12.491999626159668 C-15.012999534606934,-12.491999626159668 -8.814000129699707,12.491999626159668 -8.814000129699707,12.491999626159668 C-8.814000129699707,12.491999626159668 8.8149995803833,12.491999626159668 8.8149995803833,12.491999626159668z"></path></g><g opacity="1" transform="matrix(1,0,0,1,40.61800003051758,86.97100067138672)"><path fill="rgb(78,67,95)" fill-opacity="1" d=" M6.214000225067139,6.640999794006348 C6.214000225067139,6.640999794006348 9.508000373840332,-6.640999794006348 9.508000373840332,-6.640999794006348 C9.508000373840332,-6.640999794006348 -9.508000373840332,-6.640999794006348 -9.508000373840332,-6.640999794006348 C-9.508000373840332,-6.640999794006348 -6.211999893188477,6.640999794006348 -6.211999893188477,6.640999794006348 C-6.211999893188477,6.640999794006348 6.214000225067139,6.640999794006348 6.214000225067139,6.640999794006348z"></path></g></g></g></svg>