<svg xmlns="http://www.w3.org/2000/svg" viewBox="0 0 27 29" width="27" height="29" preserveAspectRatio="xMidYMid meet" style="width: 100%; height: 100%; transform: translate3d(0px, 0px, 0px); content-visibility: visible;"><defs><clipPath id="__lottie_element_75"><rect width="27" height="29" x="0" y="0"></rect></clipPath></defs><g clip-path="url(#__lottie_element_75)"><g transform="matrix(1.6367918252944946,-0.7632485628128052,0.7632485628128052,1.6367918252944946,-152.82635498046875,40.176212310791016)" opacity="1" style="display: block;"><g opacity="1" transform="matrix(1,0,0,1,89.33499908447266,26.711999893188477)"><path fill="rgb(255,238,207)" fill-opacity="1" d=" M6.823999881744385,0 C6.823999881744385,-3.7690000534057617 3.7690000534057617,-6.823999881744385 0,-6.823999881744385 C-3.7679998874664307,-6.823999881744385 -6.823999881744385,-3.7690000534057617 -6.823999881744385,0 C-6.823999881744385,3.7690000534057617 -3.7679998874664307,6.823999881744385 0,6.823999881744385 C3.7690000534057617,6.823999881744385 6.823999881744385,3.7690000534057617 6.823999881744385,0z"></path></g><g opacity="1" transform="matrix(1,0,0,1,87.1520004272461,25.062000274658203)"><path stroke-linecap="butt" stroke-linejoin="miter" fill-opacity="0" stroke-miterlimit="10" stroke="rgb(255,201,77)" stroke-opacity="1" stroke-width="0.7" d=" M-1.8830000162124634,-2.25 C-1.8830000162124634,-2.25 -1.8830000162124634,0.367000013589859 -1.8830000162124634,0.367000013589859 C-1.8830000162124634,1.402999997138977 -1.0360000133514404,2.25 0,2.25 C1.0360000133514404,2.25 1.8830000162124634,1.402999997138977 1.8830000162124634,0.367000013589859 C1.8830000162124634,0.367000013589859 1.8830000162124634,-2.25 1.8830000162124634,-2.25 C1.8830000162124634,-2.25 -1.8830000162124634,-2.25 -1.8830000162124634,-2.25z"></path></g><g opacity="1" transform="matrix(1,0,0,1,89.33499908447266,25.961999893188477)"><path fill="rgb(255,201,77)" fill-opacity="1" d=" M0.6000000238418579,-2.5490000247955322 C0.6000000238418579,-2.5490000247955322 -0.6000000238418579,-2.5490000247955322 -0.6000000238418579,-2.5490000247955322 C-0.6000000238418579,-2.5490000247955322 -0.6000000238418579,2.5490000247955322 -0.6000000238418579,2.5490000247955322 C-0.6000000238418579,2.5490000247955322 0.6000000238418579,2.5490000247955322 0.6000000238418579,2.5490000247955322 C0.6000000238418579,2.5490000247955322 0.6000000238418579,-2.5490000247955322 0.6000000238418579,-2.5490000247955322z"></path></g><g opacity="1" transform="matrix(1,0,0,1,89.33499908447266,29.03700065612793)"><path fill="rgb(193,66,60)" fill-opacity="1" d=" M0.6000000238418579,0.5249999761581421 C0.6000000238418579,0.5249999761581421 -0.6000000238418579,0.5249999761581421 -0.6000000238418579,0.5249999761581421 C-0.6000000238418579,0.5249999761581421 -0.6000000238418579,-0.5249999761581421 -0.6000000238418579,-0.5249999761581421 C-0.6000000238418579,-0.5249999761581421 0.6000000238418579,-0.5249999761581421 0.6000000238418579,-0.5249999761581421 C0.6000000238418579,-0.5249999761581421 0.6000000238418579,0.5249999761581421 0.6000000238418579,0.5249999761581421z"></path></g><g opacity="1" transform="matrix(1,0,0,1,89.33599853515625,30.423999786376953)"><path stroke-linecap="butt" stroke-linejoin="miter" fill-opacity="0" stroke-miterlimit="10" stroke="rgb(255,201,77)" stroke-opacity="1" stroke-width="0.7" d=" M-4.89300012588501,-1.6119999885559082 C-4.078000068664551,0.2840000092983246 -2.194999933242798,1.6119999885559082 -0.0010000000474974513,1.6119999885559082 C2.194000005722046,1.6119999885559082 4.078000068664551,0.2840000092983246 4.89300012588501,-1.6119999885559082"></path></g><g opacity="1" transform="matrix(1,0,0,1,84.44200134277344,28.812000274658203)"><path fill="rgb(255,201,77)" fill-opacity="1" d=" M1.1349999904632568,0 C1.1349999904632568,-0.6259999871253967 0.6259999871253967,-1.1339999437332153 0,-1.1339999437332153 C-0.6269999742507935,-1.1339999437332153 -1.1349999904632568,-0.6259999871253967 -1.1349999904632568,0 C-1.1349999904632568,0.6269999742507935 -0.6269999742507935,1.1339999437332153 0,1.1339999437332153 C0.6259999871253967,1.1339999437332153 1.1349999904632568,0.6269999742507935 1.1349999904632568,0z"></path></g><g opacity="1" transform="matrix(1,0,0,1,91.51899719238281,25.062000274658203)"><path stroke-linecap="butt" stroke-linejoin="miter" fill-opacity="0" stroke-miterlimit="10" stroke="rgb(255,201,77)" stroke-opacity="1" stroke-width="0.7" d=" M1.8830000162124634,-2.25 C1.8830000162124634,-2.25 1.8830000162124634,0.367000013589859 1.8830000162124634,0.367000013589859 C1.8830000162124634,1.402999997138977 1.0360000133514404,2.25 0,2.25 C-1.0360000133514404,2.25 -1.8830000162124634,1.402999997138977 -1.8830000162124634,0.367000013589859 C-1.8830000162124634,0.367000013589859 -1.8830000162124634,-2.25 -1.8830000162124634,-2.25 C-1.8830000162124634,-2.25 1.8830000162124634,-2.25 1.8830000162124634,-2.25z"></path></g><g opacity="1" transform="matrix(1,0,0,1,87.31099700927734,25.062000274658203)"><path fill="rgb(193,66,60)" fill-opacity="1" d=" M0,-0.8050000071525574 C-0.4429999887943268,-0.8050000071525574 -0.8050000071525574,-0.4440000057220459 -0.8050000071525574,0 C-0.8050000071525574,0.4440000057220459 -0.4429999887943268,0.8050000071525574 0,0.8050000071525574 C0.4429999887943268,0.8050000071525574 0.8050000071525574,0.4440000057220459 0.8050000071525574,0 C0.8050000071525574,-0.4440000057220459 0.4429999887943268,-0.8050000071525574 0,-0.8050000071525574z"></path></g><g opacity="1" transform="matrix(1,0,0,1,91.36000061035156,25.062000274658203)"><path fill="rgb(193,66,60)" fill-opacity="1" d=" M0.0010000000474974513,-0.8050000071525574 C-0.4429999887943268,-0.8050000071525574 -0.8059999942779541,-0.4440000057220459 -0.8059999942779541,0 C-0.8059999942779541,0.4440000057220459 -0.4429999887943268,0.8050000071525574 0.0010000000474974513,0.8050000071525574 C0.4440000057220459,0.8050000071525574 0.8059999942779541,0.4440000057220459 0.8059999942779541,0 C0.8059999942779541,-0.4440000057220459 0.4440000057220459,-0.8050000071525574 0.0010000000474974513,-0.8050000071525574z"></path></g><g opacity="1" transform="matrix(1,0,0,1,94.22899627685547,28.812000274658203)"><path fill="rgb(255,201,77)" fill-opacity="1" d=" M-1.1339999437332153,0 C-1.1339999437332153,-0.6259999871253967 -0.6269999742507935,-1.1339999437332153 -0.0010000000474974513,-1.1339999437332153 C0.6259999871253967,-1.1339999437332153 1.1339999437332153,-0.6259999871253967 1.1339999437332153,0 C1.1339999437332153,0.6269999742507935 0.6259999871253967,1.1339999437332153 -0.0010000000474974513,1.1339999437332153 C-0.6269999742507935,1.1339999437332153 -1.1339999437332153,0.6269999742507935 -1.1339999437332153,0z"></path></g><g opacity="1" transform="matrix(1,0,0,1,89.33599853515625,20.865999221801758)"><path fill="rgb(255,201,77)" fill-opacity="1" d=" M0,-2.0999999046325684 C0,-2.0999999046325684 -5.02400016784668,2.0999999046325684 -5.02400016784668,2.0999999046325684 C-5.02400016784668,2.0999999046325684 5.02400016784668,2.0999999046325684 5.02400016784668,2.0999999046325684 C5.02400016784668,2.0999999046325684 0,-2.0999999046325684 0,-2.0999999046325684z"></path></g></g></g></svg>