<svg xmlns="http://www.w3.org/2000/svg" viewBox="0 0 66 21" width="66" height="21" preserveAspectRatio="xMidYMid meet" style="width: 100%; height: 100%; transform: translate3d(0px, 0px, 0px); content-visibility: visible;"><defs><clipPath id="__lottie_element_3886"><rect width="66" height="21" x="0" y="0"></rect></clipPath></defs><g clip-path="url(#__lottie_element_3886)"><g transform="matrix(1.8059998750686646,0,0,1.8059998750686646,5.400698184967041,0.04562672972679138)" opacity="1" style="display: block;"><g opacity="1" transform="matrix(1,0,0,1,21.65399932861328,4.578999996185303)"><path fill="rgb(113,66,56)" fill-opacity="1" d=" M2.431999921798706,1.8029999732971191 C2.431999921798706,1.8029999732971191 2.431999921798706,-2.9130001068115234 2.431999921798706,-2.9130001068115234 C2.431999921798706,-2.9130001068115234 3.1470000743865967,-4.328999996185303 3.1470000743865967,-4.328999996185303 C3.1470000743865967,-4.328999996185303 -0.6980000138282776,-4.328999996185303 -0.6980000138282776,-4.328999996185303 C-0.6980000138282776,-4.328999996185303 0.017000000923871994,-2.9130001068115234 0.017000000923871994,-2.9130001068115234 C0.017000000923871994,-2.9130001068115234 0.017000000923871994,1.6610000133514404 0.017000000923871994,1.6610000133514404 C0.017000000923871994,1.6610000133514404 -2.0880000591278076,1.6610000133514404 -2.0880000591278076,1.6610000133514404 C-2.671999931335449,1.6610000133514404 -3.1470000743865967,2.13700008392334 -3.1470000743865967,2.7209999561309814 C-3.1470000743865967,2.7209999561309814 -3.1470000743865967,3.2709999084472656 -3.1470000743865967,3.2709999084472656 C-3.1470000743865967,3.8550000190734863 -2.671999931335449,4.328999996185303 -2.0880000591278076,4.328999996185303 C-2.0880000591278076,4.328999996185303 0.017000000923871994,4.328999996185303 0.017000000923871994,4.328999996185303 C0.017000000923871994,4.328999996185303 1.9320000410079956,4.328999996185303 1.9320000410079956,4.328999996185303 C1.9320000410079956,4.328999996185303 2.431999921798706,4.328999996185303 2.431999921798706,4.328999996185303 C2.431999921798706,4.328999996185303 2.431999921798706,4.186999797821045 2.431999921798706,4.186999797821045 C2.759999990463257,4.006999969482422 2.992000102996826,3.6710000038146973 2.992000102996826,3.2709999084472656 C2.992000102996826,3.2709999084472656 2.992000102996826,2.7209999561309814 2.992000102996826,2.7209999561309814 C2.992000102996826,2.321000099182129 2.759999990463257,1.9830000400543213 2.431999921798706,1.8029999732971191z"></path></g><g opacity="1" transform="matrix(1,0,0,1,14.093000411987305,9.154999732971191)"><path fill="rgb(245,138,70)" fill-opacity="1" d=" M-10.902999877929688,1.281000018119812 C-10.902999877929688,1.281000018119812 13.003999710083008,1.281000018119812 13.003999710083008,1.281000018119812 C13.003999710083008,1.281000018119812 13.843000411987305,-1.281000018119812 13.843000411987305,-1.281000018119812 C13.843000411987305,-1.281000018119812 -13.843000411987305,-1.281000018119812 -13.843000411987305,-1.281000018119812 C-13.843000411987305,-1.281000018119812 -10.902999877929688,1.281000018119812 -10.902999877929688,1.281000018119812z"></path></g><g opacity="1" transform="matrix(1,0,0,1,16.052000045776367,5.1620001792907715)"><path fill="rgb(179,82,48)" fill-opacity="1" d=" M0.7099999785423279,2.5480000972747803 C0.7099999785423279,2.5480000972747803 -0.7099999785423279,2.5480000972747803 -0.7099999785423279,2.5480000972747803 C-0.7099999785423279,2.5480000972747803 -0.7099999785423279,-2.5480000972747803 -0.7099999785423279,-2.5480000972747803 C-0.7099999785423279,-2.5480000972747803 0.7099999785423279,-2.5480000972747803 0.7099999785423279,-2.5480000972747803 C0.7099999785423279,-2.5480000972747803 0.7099999785423279,2.5480000972747803 0.7099999785423279,2.5480000972747803z"></path></g><g opacity="1" transform="matrix(1,0,0,1,26.107999801635742,5.1620001792907715)"><path fill="rgb(179,82,48)" fill-opacity="1" d=" M0.7099999785423279,2.5480000972747803 C0.7099999785423279,2.5480000972747803 -0.7099999785423279,2.5480000972747803 -0.7099999785423279,2.5480000972747803 C-0.7099999785423279,2.5480000972747803 -0.7099999785423279,-2.5480000972747803 -0.7099999785423279,-2.5480000972747803 C-0.7099999785423279,-2.5480000972747803 0.7099999785423279,-2.5480000972747803 0.7099999785423279,-2.5480000972747803 C0.7099999785423279,-2.5480000972747803 0.7099999785423279,2.5480000972747803 0.7099999785423279,2.5480000972747803z"></path></g><g opacity="1" transform="matrix(1,0,0,1,5.995999813079834,5.1620001792907715)"><path fill="rgb(179,82,48)" fill-opacity="1" d=" M0.7099999785423279,2.5480000972747803 C0.7099999785423279,2.5480000972747803 -0.7099999785423279,2.5480000972747803 -0.7099999785423279,2.5480000972747803 C-0.7099999785423279,2.5480000972747803 -0.7099999785423279,-2.5480000972747803 -0.7099999785423279,-2.5480000972747803 C-0.7099999785423279,-2.5480000972747803 0.7099999785423279,-2.5480000972747803 0.7099999785423279,-2.5480000972747803 C0.7099999785423279,-2.5480000972747803 0.7099999785423279,2.5480000972747803 0.7099999785423279,2.5480000972747803z"></path></g><g opacity="1" transform="matrix(1,0,0,1,16.611000061035156,3.0350000858306885)"><path fill="rgb(255,238,207)" fill-opacity="1" d=" M-11.326000213623047,0.8479999899864197 C-11.326000213623047,0.8479999899864197 11.326000213623047,0.8479999899864197 11.326000213623047,0.8479999899864197 C11.326000213623047,0.8479999899864197 11.326000213623047,-0.8479999899864197 11.326000213623047,-0.8479999899864197 C11.326000213623047,-0.8479999899864197 -11.326000213623047,-0.8479999899864197 -11.326000213623047,-0.8479999899864197 C-11.326000213623047,-0.8479999899864197 -11.326000213623047,0.8479999899864197 -11.326000213623047,0.8479999899864197z"></path></g><g opacity="1" transform="matrix(1,0,0,1,26.52199935913086,3.882999897003174)"><path fill="rgb(255,238,207)" fill-opacity="1" d=" M-1.4149999618530273,0 C-1.4149999618530273,-0.7820000052452087 -0.7820000052452087,-1.4149999618530273 -0.0010000000474974513,-1.4149999618530273 C0.781000018119812,-1.4149999618530273 1.4149999618530273,-0.7820000052452087 1.4149999618530273,0 C1.4149999618530273,0.7820000052452087 0.781000018119812,1.4149999618530273 -0.0010000000474974513,1.4149999618530273 C-0.7820000052452087,1.4149999618530273 -1.4149999618530273,0.7820000052452087 -1.4149999618530273,0z"></path></g><g opacity="1" transform="matrix(1,0,0,1,23.69099998474121,3.882999897003174)"><path fill="rgb(255,238,207)" fill-opacity="1" d=" M-1.4149999618530273,0 C-1.4149999618530273,-0.7820000052452087 -0.7820000052452087,-1.4149999618530273 -0.0010000000474974513,-1.4149999618530273 C0.781000018119812,-1.4149999618530273 1.4149999618530273,-0.7820000052452087 1.4149999618530273,0 C1.4149999618530273,0.7820000052452087 0.781000018119812,1.4149999618530273 -0.0010000000474974513,1.4149999618530273 C-0.7820000052452087,1.4149999618530273 -1.4149999618530273,0.7820000052452087 -1.4149999618530273,0z"></path></g><g opacity="1" transform="matrix(1,0,0,1,20.860000610351562,3.882999897003174)"><path fill="rgb(255,238,207)" fill-opacity="1" d=" M-1.4149999618530273,0 C-1.4149999618530273,-0.7820000052452087 -0.7820000052452087,-1.4149999618530273 -0.0010000000474974513,-1.4149999618530273 C0.781000018119812,-1.4149999618530273 1.4149999618530273,-0.7820000052452087 1.4149999618530273,0 C1.4149999618530273,0.7820000052452087 0.781000018119812,1.4149999618530273 -0.0010000000474974513,1.4149999618530273 C-0.7820000052452087,1.4149999618530273 -1.4149999618530273,0.7820000052452087 -1.4149999618530273,0z"></path></g><g opacity="1" transform="matrix(1,0,0,1,18.02899932861328,3.882999897003174)"><path fill="rgb(255,238,207)" fill-opacity="1" d=" M-1.4149999618530273,0 C-1.4149999618530273,-0.7820000052452087 -0.7820000052452087,-1.4149999618530273 -0.0010000000474974513,-1.4149999618530273 C0.781000018119812,-1.4149999618530273 1.4149999618530273,-0.7820000052452087 1.4149999618530273,0 C1.4149999618530273,0.7820000052452087 0.781000018119812,1.4149999618530273 -0.0010000000474974513,1.4149999618530273 C-0.7820000052452087,1.4149999618530273 -1.4149999618530273,0.7820000052452087 -1.4149999618530273,0z"></path></g><g opacity="1" transform="matrix(1,0,0,1,15.197999954223633,3.882999897003174)"><path fill="rgb(255,238,207)" fill-opacity="1" d=" M-1.4149999618530273,0 C-1.4149999618530273,-0.7820000052452087 -0.7820000052452087,-1.4149999618530273 -0.0010000000474974513,-1.4149999618530273 C0.781000018119812,-1.4149999618530273 1.4149999618530273,-0.7820000052452087 1.4149999618530273,0 C1.4149999618530273,0.7820000052452087 0.781000018119812,1.4149999618530273 -0.0010000000474974513,1.4149999618530273 C-0.7820000052452087,1.4149999618530273 -1.4149999618530273,0.7820000052452087 -1.4149999618530273,0z"></path></g><g opacity="1" transform="matrix(1,0,0,1,12.366999626159668,3.882999897003174)"><path fill="rgb(255,238,207)" fill-opacity="1" d=" M-1.4149999618530273,0 C-1.4149999618530273,-0.7820000052452087 -0.7820000052452087,-1.4149999618530273 -0.0010000000474974513,-1.4149999618530273 C0.781000018119812,-1.4149999618530273 1.4149999618530273,-0.7820000052452087 1.4149999618530273,0 C1.4149999618530273,0.7820000052452087 0.781000018119812,1.4149999618530273 -0.0010000000474974513,1.4149999618530273 C-0.7820000052452087,1.4149999618530273 -1.4149999618530273,0.7820000052452087 -1.4149999618530273,0z"></path></g><g opacity="1" transform="matrix(1,0,0,1,9.536999702453613,3.882999897003174)"><path fill="rgb(255,238,207)" fill-opacity="1" d=" M-1.4149999618530273,0 C-1.4149999618530273,-0.7820000052452087 -0.7820000052452087,-1.4149999618530273 -0.0010000000474974513,-1.4149999618530273 C0.781000018119812,-1.4149999618530273 1.4149999618530273,-0.7820000052452087 1.4149999618530273,0 C1.4149999618530273,0.7820000052452087 0.781000018119812,1.4149999618530273 -0.0010000000474974513,1.4149999618530273 C-0.7820000052452087,1.4149999618530273 -1.4149999618530273,0.7820000052452087 -1.4149999618530273,0z"></path></g><g opacity="1" transform="matrix(1,0,0,1,6.705999851226807,3.882999897003174)"><path fill="rgb(255,238,207)" fill-opacity="1" d=" M-1.4149999618530273,0 C-1.4149999618530273,-0.7820000052452087 -0.7820000052452087,-1.4149999618530273 -0.0010000000474974513,-1.4149999618530273 C0.781000018119812,-1.4149999618530273 1.4149999618530273,-0.7820000052452087 1.4149999618530273,0 C1.4149999618530273,0.7820000052452087 0.781000018119812,1.4149999618530273 -0.0010000000474974513,1.4149999618530273 C-0.7820000052452087,1.4149999618530273 -1.4149999618530273,0.7820000052452087 -1.4149999618530273,0z"></path></g><g opacity="1" transform="matrix(1,0,0,1,14.093999862670898,7.489999771118164)"><path fill="rgb(245,138,70)" fill-opacity="1" d=" M-13.843999862670898,-0.382999986410141 C-13.843999862670898,-0.382999986410141 13.843999862670898,-0.382999986410141 13.843999862670898,-0.382999986410141 C13.843999862670898,-0.382999986410141 13.843999862670898,0.382999986410141 13.843999862670898,0.382999986410141 C13.843999862670898,0.382999986410141 -13.843999862670898,0.382999986410141 -13.843999862670898,0.382999986410141 C-13.843999862670898,0.382999986410141 -13.843999862670898,-0.382999986410141 -13.843999862670898,-0.382999986410141z"></path></g></g><g transform="matrix(1.5299348831176758,0,0,1.8059998750686646,0.6528939604759216,12.416725158691406)" opacity="1" style="display: block;"><g opacity="1" transform="matrix(1,0,0,1,7.0920000076293945,3.1659998893737793)"><path stroke-linecap="round" stroke-linejoin="round" fill-opacity="0" stroke="rgb(184,228,250)" stroke-opacity="1" stroke-width="1" d=" M-4.5920000076293945,-0.6660000085830688 C-4.5920000076293945,-0.6660000085830688 -3.563999891281128,0.6660000085830688 -2.2960000038146973,0.6660000085830688 C-1.027999997138977,0.6660000085830688 0,-0.6660000085830688 0,-0.6660000085830688 C0,-0.6660000085830688 1.027999997138977,0.6660000085830688 2.2960000038146973,0.6660000085830688 C3.563999891281128,0.6660000085830688 4.5920000076293945,-0.6660000085830688 4.5920000076293945,-0.6660000085830688"></path></g><g opacity="1" transform="matrix(1,0,0,1,16.091999053955078,3.1659998893737793)"><path stroke-linecap="round" stroke-linejoin="round" fill-opacity="0" stroke="rgb(184,228,250)" stroke-opacity="1" stroke-width="1" d=" M-4.5920000076293945,-0.6660000085830688 C-4.5920000076293945,-0.6660000085830688 -3.563999891281128,0.6660000085830688 -2.2960000038146973,0.6660000085830688 C-1.027999997138977,0.6660000085830688 0,-0.6660000085830688 0,-0.6660000085830688 C0,-0.6660000085830688 1.027999997138977,0.6660000085830688 2.2960000038146973,0.6660000085830688 C3.563999891281128,0.6660000085830688 4.5920000076293945,-0.6660000085830688 4.5920000076293945,-0.6660000085830688"></path></g><g opacity="1" transform="matrix(1,0,0,1,25.091999053955078,3.1659998893737793)"><path stroke-linecap="round" stroke-linejoin="round" fill-opacity="0" stroke="rgb(184,228,250)" stroke-opacity="1" stroke-width="1" d=" M-4.5920000076293945,-0.6660000085830688 C-4.5920000076293945,-0.6660000085830688 -3.563999891281128,0.6660000085830688 -2.2960000038146973,0.6660000085830688 C-1.027999997138977,0.6660000085830688 0,-0.6660000085830688 0,-0.6660000085830688 C0,-0.6660000085830688 1.027999997138977,0.6660000085830688 2.2960000038146973,0.6660000085830688 C3.563999891281128,0.6660000085830688 4.5920000076293945,-0.6660000085830688 4.5920000076293945,-0.6660000085830688"></path></g><g opacity="1" transform="matrix(1,0,0,1,34.09199905395508,3.1659998893737793)"><path stroke-linecap="round" stroke-linejoin="round" fill-opacity="0" stroke="rgb(184,228,250)" stroke-opacity="1" stroke-width="1" d=" M-4.5920000076293945,-0.6660000085830688 C-4.5920000076293945,-0.6660000085830688 -3.563999891281128,0.6660000085830688 -2.2960000038146973,0.6660000085830688 C-1.027999997138977,0.6660000085830688 0,-0.6660000085830688 0,-0.6660000085830688 C0,-0.6660000085830688 1.027999997138977,0.6660000085830688 2.2960000038146973,0.6660000085830688 C3.563999891281128,0.6660000085830688 4.5920000076293945,-0.6660000085830688 4.5920000076293945,-0.6660000085830688"></path></g></g></g></svg>