<?xml version="1.0" encoding="UTF-8" standalone="no"?>
<!DOCTYPE svg PUBLIC "-//W3C//DTD SVG 1.1//EN" "http://www.w3.org/Graphics/SVG/1.1/DTD/svg11.dtd">
<svg width="100%" height="100%" viewBox="0 0 363 315" version="1.1" xmlns="http://www.w3.org/2000/svg" xmlns:xlink="http://www.w3.org/1999/xlink" xml:space="preserve" xmlns:serif="http://www.serif.com/" style="fill-rule:evenodd;clip-rule:evenodd;stroke-miterlimit:10;">
    <g transform="matrix(2.9717,0,0,2.9717,181.274,157.5)">
        <g id="ANIM_dlr_fant_matterhorn_waterfall.svg" transform="matrix(1,0,0,1,-61,-53)">
            <g>
                <g transform="matrix(1.806,0,0,1.806,-3.13713,-80.8498)">
                    <g transform="matrix(1,0,0,1,32.791,53.35)">
                        <path d="M1.415,-7.513L-0.552,-8.098L-0.803,-6.134C-0.803,-6.134 -1.414,-6.117 -1.414,-5.103C-1.966,-5.103 -2.296,-4.891 -2.296,-4.649C-2.296,-4.281 -1.474,-3.923 -1.474,-3.923C-1.474,-2.806 -2.217,-2.042 -2.217,-2.042L-1.737,1.249C-1.737,1.249 -2.372,2.478 -2.13,2.9C-1.708,3.635 -0.799,3.337 -0.799,6.651C-0.235,6.545 0.091,7.377 0.559,7.768C0.911,8.061 1.402,8.097 1.78,7.856C1.429,7.603 1.358,7.02 1.45,6.543C1.541,6.067 1.754,5.634 1.838,5.155C1.958,4.469 1.803,3.76 1.648,3.083C1.459,2.255 1.406,1.208 1.507,0.358C1.606,-0.481 2.372,-2.399 1.758,-4.611L2.261,-5.178L1.415,-7.513Z" style="fill:rgb(77,67,95);fill-rule:nonzero;"/>
                    </g>
                    <g transform="matrix(1,0,0,1,37.988,74.844)">
                        <path d="M1.656,-11.643L0.375,-12.215L-1.812,-12.215L-2.851,-10.73L-3.963,-11.957L-4.75,-11.685L-3.661,-8.056L-4.915,-4.761C-4.717,-4.275 -4.408,-3.772 -4.443,-3.25C-4.496,-2.48 -5.14,-1.659 -5.615,-1.095C-5.83,-0.841 -6.07,-0.566 -6.075,-0.232C-6.081,0.195 -5.695,0.528 -5.302,0.694C-4.903,0.862 -4.462,0.929 -4.089,1.147C-3.716,1.366 -3.306,1.879 -3.571,2.221C-5.151,4.264 -5.388,9.958 -2.956,12.215L3.169,12.215C3.169,12.215 4.638,6.458 4.778,6.5C4.918,6.542 5.933,6.5 5.933,6.5L5.618,-1.173L3.309,-0.089L3.588,-2.175L4.795,-2.258L6.081,-5.121L3.669,-6.513L1.656,-11.643Z" style="fill:rgb(77,67,95);fill-rule:nonzero;"/>
                    </g>
                    <g transform="matrix(1,0,0,1,39.117,87.549)">
                        <g>
                            <path d="M-4.624,-7.116C-5.211,-6.348 -6.27,-5.964 -6.758,-5.123C-7.033,-4.648 -6.833,-4.292 -6.965,-3.8C-7.1,-3.297 -7.586,-2.89 -8.003,-2.621C-8.625,-2.219 -9.361,-1.85 -9.612,-1.152C-9.82,-0.573 -9.625,0.062 -9.506,0.666C-9.235,2.032 -9.779,2.855 -10.163,4.084C-10.403,4.853 -10.349,5.196 -9.845,5.731C-9.732,5.85 -8.916,7.048 -8.922,7.047C-7.656,7.283 -6.289,7.027 -5.227,6.356C-4.368,5.813 -3.623,4.982 -2.581,4.903C-1.778,4.842 -1.032,5.256 -0.243,5.407C1.001,5.646 2.265,5.223 3.489,4.91C5.611,4.369 7.831,4.147 10.031,4.258C10.003,3.405 10.402,1.075 9.681,0.435C9.465,0.243 9.172,0.129 8.98,-0.084C8.828,-0.252 8.755,-0.466 8.684,-0.674C8.372,-1.608 8.172,-2.601 7.689,-3.467C7.301,-4.163 6.706,-4.777 5.947,-5.019C5.07,-5.299 4.115,-5.053 3.202,-5.166C2.14,-5.297 1.207,-5.899 0.257,-6.391C-0.693,-6.883 -1.79,-7.283 -2.816,-6.98" style="fill:rgb(77,67,95);fill-rule:nonzero;"/>
                        </g>
                    </g>
                    <g transform="matrix(1,0,0,1,30.997,87.678)">
                        <path d="M2.07,-4.968C-0.411,-4.088 -2.894,-3.21 -5.376,-2.334C-4.014,0.1 -2.651,2.534 -1.289,4.968C0.637,3.889 2.562,2.81 4.487,1.73C4.55,1.695 4.618,1.655 4.645,1.587C4.671,1.523 4.654,1.451 4.636,1.384C4.256,-0.022 3.682,-1.376 2.934,-2.626C3.811,-3.187 4.63,-3.838 5.376,-4.566L2.07,-4.968Z" style="fill:rgb(77,67,95);fill-rule:nonzero;"/>
                    </g>
                    <g transform="matrix(1,0,0,1,40.409,93.111)">
                        <path d="M-4.275,5.206C-4.533,5.892 -3.659,6.43 -1.905,6.43L7.398,6.43C8.14,6.308 9.586,5.649 10.251,5.158C11.201,4.459 11.87,3.125 12.267,1.689C12.638,0.346 12.995,-1.281 12.665,-2.699C12.514,-3.349 12.404,-4.277 12.057,-4.755C11.652,-5.31 10.894,-5.575 10.372,-5.789C8.806,-6.43 8.195,-6.309 7.543,-6.302C6.677,-6.292 -5.917,-6.256 -9.38,-6.068C-10.579,-6.003 -11.543,-5.63 -12.239,-4.057C-12.995,-2.363 -12.784,-0.538 -11.874,0.926C-10.612,2.761 -9.019,3.316 -7.274,3.362C-6.343,3.387 -5.413,3.348 -4.482,3.335C-4.09,3.329 -1.668,3.376 -2.168,4.122C-2.482,4.59 -4.024,4.539 -4.275,5.206Z" style="fill:rgb(135,211,235);fill-rule:nonzero;"/>
                    </g>
                    <g transform="matrix(1,0,0,1,30.997,87.678)">
                        <path d="M2.07,-4.968C-0.411,-4.088 -2.894,-3.21 -5.376,-2.334C-4.014,0.1 -2.651,2.534 -1.289,4.968C0.637,3.889 2.562,2.81 4.487,1.73C4.55,1.695 4.618,1.655 4.645,1.587C4.671,1.523 4.654,1.451 4.636,1.384C4.256,-0.022 3.682,-1.376 2.934,-2.626C3.811,-3.187 4.63,-3.838 5.376,-4.566L2.07,-4.968Z" style="fill:rgb(77,67,95);fill-rule:nonzero;"/>
                    </g>
                    <g transform="matrix(1,0,0,1,39.117,87.549)">
                        <path d="M-4.624,-7.116C-5.211,-6.348 -6.27,-5.964 -6.758,-5.123C-7.033,-4.648 -6.833,-4.292 -6.965,-3.8C-7.1,-3.297 -7.586,-2.89 -8.003,-2.621C-8.625,-2.219 -9.361,-1.85 -9.612,-1.152C-9.82,-0.573 -9.625,0.062 -9.506,0.666C-9.235,2.032 -9.779,2.855 -10.163,4.084C-10.403,4.853 -10.349,5.196 -9.845,5.731C-9.732,5.85 -8.916,7.048 -8.922,7.047C-7.656,7.283 -6.289,7.027 -5.227,6.356C-4.368,5.813 -3.623,4.982 -2.581,4.903C-1.778,4.842 -1.032,5.256 -0.243,5.407C1.001,5.646 2.265,5.223 3.489,4.91C5.611,4.369 7.831,4.147 10.031,4.258C10.003,3.405 10.402,1.075 9.681,0.435C9.465,0.243 9.172,0.129 8.98,-0.084C8.828,-0.252 8.755,-0.466 8.684,-0.674C8.372,-1.608 8.172,-2.601 7.689,-3.467C7.301,-4.163 6.706,-4.777 5.947,-5.019C5.07,-5.299 4.115,-5.053 3.202,-5.166C2.14,-5.297 1.207,-5.899 0.257,-6.391C-0.693,-6.883 -1.79,-7.283 -2.816,-6.98" style="fill:rgb(77,67,95);fill-rule:nonzero;"/>
                    </g>
                </g>
                <g transform="matrix(1.806,0,0,1.806,-3.13713,-80.8498)">
                    <g transform="matrix(1,0,0,1.34,-87.434,99.0032)">
                        <path d="M124.185,-26.867L124.185,-2.787L126.175,-2.787L126.175,-25.85C126.175,-26.411 125.793,-26.867 125.321,-26.867L124.185,-26.867Z" style="fill:rgb(136,212,235);fill-rule:nonzero;"/>
                    </g>
                    <g transform="matrix(1,0,0,1,33.239,53.6)">
                        <path d="M0.715,-7.12L0.786,7.762C0.786,7.762 0.327,7.818 -0.215,7.191C-0.549,6.914 -0.786,6.461 -0.786,6.461L-0.786,-7.762L0.715,-7.12Z" style="fill:rgb(136,212,235);fill-rule:nonzero;"/>
                    </g>
                </g>
                <g transform="matrix(0.49253,0,0,0.49253,22.7192,8.58344)">
                    <g>
                        <g transform="matrix(1.51,0,0,4.3186,85.461,69.2)">
                            <path d="M0.476,0.2C-2.084,1.128 -5.203,0.389 -4.399,-1.234C-3.492,-0.649 -0.322,-0.754 0.458,-1.269C0.986,-0.737 4.005,-0.667 4.853,-1.322C6.823,0.424 1.797,1.249 0.476,0.2Z" style="fill:rgb(184,228,250);fill-rule:nonzero;"/>
                        </g>
                        <g transform="matrix(1.51,0,0,4.3186,85.461,99.2)">
                            <path d="M0.476,0.2C-2.084,1.128 -5.203,0.389 -4.399,-1.234C-3.492,-0.649 -0.322,-0.754 0.458,-1.269C0.986,-0.737 4.005,-0.667 4.853,-1.322C6.823,0.424 1.797,1.249 0.476,0.2Z" style="fill:rgb(184,228,250);fill-rule:nonzero;"/>
                        </g>
                        <g transform="matrix(1.51,0,0,4.3186,85.461,129.2)">
                            <path d="M0.476,0.2C-2.084,1.128 -5.203,0.389 -4.399,-1.234C-3.492,-0.649 -0.322,-0.754 0.458,-1.269C0.986,-0.737 4.005,-0.667 4.853,-1.322C6.823,0.424 1.797,1.249 0.476,0.2Z" style="fill:rgb(184,228,250);fill-rule:nonzero;"/>
                        </g>
                        <g transform="matrix(1.51,0,0,4.3186,85.461,159.2)">
                            <path d="M0.476,0.2C-2.084,1.128 -5.203,0.389 -4.399,-1.234C-3.492,-0.649 -0.322,-0.754 0.458,-1.269C0.986,-0.737 4.005,-0.667 4.853,-1.322C6.823,0.424 1.797,1.249 0.476,0.2Z" style="fill:rgb(184,228,250);fill-rule:nonzero;"/>
                        </g>
                    </g>
                </g>
                <g transform="matrix(0.49253,0,0,0.49253,14.4632,-38.1144)">
                    <g>
                        <g transform="matrix(1.51,0,0,4.3186,85.461,99.2)">
                            <path d="M0.476,0.2C-2.084,1.128 -5.203,0.389 -4.399,-1.234C-3.492,-0.649 -0.322,-0.754 0.458,-1.269C0.986,-0.737 4.005,-0.667 4.853,-1.322C6.823,0.424 1.797,1.249 0.476,0.2Z" style="fill:rgb(184,228,250);fill-rule:nonzero;"/>
                        </g>
                        <g transform="matrix(1.51,0,0,4.3186,85.461,129.2)">
                            <path d="M0.476,0.2C-2.084,1.128 -5.203,0.389 -4.399,-1.234C-3.492,-0.649 -0.322,-0.754 0.458,-1.269C0.986,-0.737 4.005,-0.667 4.853,-1.322C6.823,0.424 1.797,1.249 0.476,0.2Z" style="fill:rgb(184,228,250);fill-rule:nonzero;"/>
                        </g>
                    </g>
                </g>
                <g transform="matrix(1.806,0,0,1.806,-3.13713,-80.8498)">
                    <g transform="matrix(1,0,0,1,43.592,83.616)">
                        <rect x="-2.487" y="-2.487" width="4.974" height="4.974" style="fill:rgb(77,67,95);"/>
                    </g>
                    <g transform="matrix(1,0,0,1,39.006,85.805)">
                        <path d="M-8.611,8.358C-8.611,8.358 -8.609,5.848 -8.609,4.432C-8.609,-0.323 -4.755,-4.177 0,-4.177C4.754,-4.177 8.609,-0.323 8.609,4.432L8.609,8.358L11.473,8.358L11.473,-8.358L-11.473,-8.358L-11.473,8.358L-8.611,8.358Z" style="fill:rgb(248,190,189);fill-rule:nonzero;"/>
                    </g>
                    <g transform="matrix(1,0,0,1,39.005,87.895)">
                        <path d="M-8.61,6.268C-8.61,6.268 -8.608,3.757 -8.608,2.341C-8.608,-2.414 -4.754,-6.268 0.001,-6.268C4.755,-6.268 8.61,-2.414 8.61,2.341L8.61,6.268" style="fill-opacity:0;fill-rule:nonzero;stroke:rgb(248,190,189);stroke-width:1px;"/>
                    </g>
                    <g>
                        <path d="M27.533,78.948L50.479,78.948" style="fill:none;fill-rule:nonzero;stroke:rgb(245,156,156);stroke-width:1px;"/>
                    </g>
                    <g transform="matrix(1,0,0,1,17.354,88.242)">
                        <path d="M3.265,-12.763C5.413,-12.888 6.89,-14.03 7.244,-13.223L7.89,-12.22L9.89,-11.638C9.89,-11.638 11.435,-10.007 11.435,-9.293C11.435,-7.996 10.742,-7.355 11.099,-6.599C11.243,-6.294 11.41,-5.996 11.491,-5.668C11.685,-4.881 10.432,-1.418 10.432,-1.418L10.873,1.216C10.873,1.216 11.781,1.737 11.916,1.835C12.119,1.982 12.129,2.272 12.156,2.52C12.215,3.07 12.455,3.598 12.83,4.005C13.156,4.36 13.591,4.639 13.781,5.082C14.169,5.983 13.37,7.125 13.882,7.962C14.224,8.522 15.08,8.78 15.112,9.436C15.116,9.512 15.105,9.592 15.056,9.65C14.571,10.227 12.745,10.379 12.039,10.572C11.874,10.618 11.705,10.664 11.564,10.762C10.995,11.158 11.243,12.453 10.66,12.59C8.604,13.077 4.775,14.03 4.088,13.478C3.619,13.102 2.426,12.129 1.869,11.905C1.869,11.905 -4.421,12.142 -7.246,12.182C-7.463,12.185 -7.688,12.187 -7.888,12.103C-8.152,11.991 -8.332,11.747 -8.511,11.522C-9.882,9.792 -11.915,8.6 -14.095,8.251C-14.51,8.185 -15.033,8.053 -15.091,7.637C-15.116,7.454 -15.033,7.274 -14.953,7.108C-14.572,6.326 -14.174,5.522 -13.516,4.954C-12.685,4.238 -11.559,3.997 -10.562,3.541C-9.421,3.02 -8.426,2.189 -7.699,1.169C-6.711,-0.218 -7.105,-1.05 -7.695,-2.546C-8.57,-4.767 -8.285,-7.472 -6.757,-9.306C-6.153,-10.032 -5.386,-10.603 -4.601,-11.126C-3.589,-11.8 2.052,-12.692 3.265,-12.763Z" style="fill:rgb(175,154,166);fill-rule:nonzero;"/>
                    </g>
                    <g transform="matrix(1,0,0,1,22.375,77.36)">
                        <path d="M4.869,-0.756L2.869,-1.338L2.422,-2.031L2.223,-2.34C2.176,-2.446 2.108,-2.515 2.023,-2.561C2,-2.573 1.967,-2.574 1.94,-2.582C1.871,-2.605 1.799,-2.623 1.71,-2.621C1.669,-2.62 1.619,-2.61 1.574,-2.605C1.485,-2.595 1.394,-2.585 1.289,-2.561C1.229,-2.547 1.159,-2.526 1.094,-2.509C0.977,-2.477 0.854,-2.445 0.721,-2.405C0.063,-2.206 -0.772,-1.938 -1.756,-1.881C-2.437,-1.841 -4.515,-1.542 -6.385,-1.168C-6.414,-0.929 -6.404,-0.686 -6.341,-0.447C-5.643,-0.556 -4.938,-0.62 -4.231,-0.639C-3.677,-0.653 -3.092,-0.632 -2.618,-0.345C-2.449,-0.243 -2.295,-0.107 -2.104,-0.059C-1.901,-0.007 -1.683,-0.058 -1.491,-0.142C0.007,-0.797 0.647,-0.138 0.798,0.41C0.901,0.781 1.308,0.995 1.692,1.016C2.076,1.038 2.451,0.915 2.826,0.835C3.581,0.673 4.438,0.702 5.037,1.189C5.32,1.418 5.523,1.729 5.739,2.022C5.897,2.236 6.087,2.425 6.265,2.624C6.346,2.325 6.414,1.991 6.414,1.589C6.414,0.875 4.869,-0.756 4.869,-0.756Z" style="fill:rgb(223,226,225);fill-rule:nonzero;"/>
                    </g>
                    <g transform="matrix(1,0,0,1,22.375,77.36)">
                        <path d="M4.869,-0.756L2.869,-1.338L2.422,-2.031L2.223,-2.34C2.176,-2.446 2.108,-2.515 2.023,-2.561C2,-2.573 1.967,-2.574 1.94,-2.582C1.871,-2.605 1.799,-2.623 1.71,-2.621C1.669,-2.62 1.619,-2.61 1.574,-2.605C1.485,-2.595 1.394,-2.585 1.289,-2.561C1.229,-2.547 1.159,-2.526 1.094,-2.509C0.977,-2.477 0.854,-2.445 0.721,-2.405C0.063,-2.206 -0.772,-1.938 -1.756,-1.881C-2.437,-1.841 -4.515,-1.542 -6.385,-1.168C-6.414,-0.929 -6.404,-0.686 -6.341,-0.447C-5.643,-0.556 -4.938,-0.62 -4.231,-0.639C-3.677,-0.653 -3.092,-0.632 -2.618,-0.345C-2.449,-0.243 -2.295,-0.107 -2.104,-0.059C-1.901,-0.007 -1.683,-0.058 -1.491,-0.142C0.007,-0.797 0.647,-0.138 0.798,0.41C0.901,0.781 1.308,0.995 1.692,1.016C2.076,1.038 2.451,0.915 2.826,0.835C3.581,0.673 4.438,0.702 5.037,1.189C5.32,1.418 5.523,1.729 5.739,2.022C5.897,2.236 6.087,2.425 6.265,2.624C6.346,2.325 6.414,1.991 6.414,1.589C6.414,0.875 4.869,-0.756 4.869,-0.756Z" style="fill-opacity:0;fill-rule:nonzero;stroke:rgb(223,226,225);stroke-width:0.19px;"/>
                    </g>
                    <g transform="matrix(1,0,0,1,23.835,88.595)">
                        <path d="M4.392,0.863L3.95,-1.771L1.785,-2.343L0.762,-5.217L-4.392,1.204L-2.613,5.217L0.387,0.87L4.392,0.863Z" style="fill:rgb(141,124,142);fill-rule:nonzero;"/>
                    </g>
                    <g transform="matrix(1,0,0,1,25.94,95.793)">
                        <path d="M4.717,-3.092C4.559,-3.242 4.39,-3.387 4.244,-3.546C3.888,-3.932 3.659,-4.429 3.585,-4.949L1.593,-3.559L-4.717,-1.981L-0.319,-0.148L2.233,4.949C2.609,4.624 2.471,3.564 2.978,3.21C3.119,3.112 3.289,3.065 3.454,3.02C3.628,2.972 3.87,2.927 4.143,2.878L3.061,-1.155L4.717,-3.092Z" style="fill:rgb(141,124,142);fill-rule:nonzero;"/>
                    </g>
                    <g transform="matrix(1,0,0,1,13.995,98.628)">
                        <path d="M-5.216,-3.285L-8.772,-1.569C-7.364,-0.988 -6.098,-0.059 -5.152,1.136C-4.973,1.361 -4.794,1.605 -4.53,1.717C-4.33,1.801 -4.104,1.8 -3.887,1.797C-1.062,1.757 5.228,1.519 5.228,1.519C5.785,1.743 6.979,2.716 7.447,3.092C7.652,3.256 8.139,3.284 8.772,3.233C8.09,1.69 6.603,-1.794 6.603,-1.794L-1.275,-0.085L-5.216,-3.285Z" style="fill:rgb(141,124,142);fill-rule:nonzero;"/>
                    </g>
                    <g transform="matrix(1,0,0,1,56.54,88.46)">
                        <path d="M-9.661,-11.1C-9.661,-11.1 -9.661,-10.299 -8.934,-9.931C-8.934,-9.931 -6.829,-6.422 -7.231,-5.629C-7.231,-5.629 -8.046,-3.887 -7.963,-3.544C-7.815,-2.933 -7.256,-1.644 -7.436,-0.939C-7.741,0.256 -8.413,2.428 -8.413,2.428C-8.583,3.016 -9.886,5.201 -10.236,5.703C-10.598,6.222 -9.858,7.291 -10.358,9.396C-10.54,10.16 -12.472,10.769 -12.472,12.258C-12.472,12.959 -7.898,14.976 -5.986,14.605C-5.169,14.447 -4.334,14.282 -3.616,13.862C-3.036,13.522 -2.558,13.03 -1.978,12.69C-0.38,11.754 1.62,12.133 3.46,12.342C3.738,12.374 4.027,12.4 4.293,12.313C4.625,12.205 4.875,11.939 5.126,11.696C7.104,9.777 9.625,9.189 12.087,8.194C12.208,8.145 12.337,8.088 12.403,7.975C12.471,7.859 12.454,7.715 12.434,7.582C12.156,5.724 11.878,3.866 11.6,2.008C11.56,1.738 11.516,1.457 11.364,1.23C10.961,0.625 10.057,0.687 9.426,0.328C8.739,-0.063 8.461,-0.894 8.239,-1.653C7.957,-2.616 7.81,-3.858 7.327,-4.721C6.819,-5.63 6.11,-6.311 5.73,-7.327C5.661,-7.51 5.592,-7.707 5.438,-7.827C5.323,-7.917 5.175,-7.952 5.033,-7.982C4.141,-8.17 3.228,-8.261 2.317,-8.254C2.014,-8.251 1.684,-8.244 1.441,-8.427C1.307,-8.528 1.216,-8.676 1.129,-8.82C0.278,-10.224 -0.553,-11.641 -1.423,-13.033C-2.04,-14.019 -2.678,-14.977 -4.001,-14.728C-4.846,-14.569 -4.772,-13.5 -5.379,-13.065L-7.861,-13.58C-8.731,-13.522 -9.186,-11.751 -9.661,-11.1Z" style="fill:rgb(175,154,166);fill-rule:nonzero;"/>
                    </g>
                    <g transform="matrix(1,0,0,1,52.045,75.738)">
                        <path d="M3.11,2.255C3.523,2.087 3.949,1.956 4.382,1.852C3.948,1.13 3.518,0.404 3.071,-0.31C2.455,-1.297 1.818,-2.255 0.495,-2.006C-0.351,-1.846 -0.277,-0.777 -0.884,-0.342L-3.366,-0.857C-3.785,-0.829 -4.107,-0.401 -4.382,0.105C-4.341,0.118 -4.298,0.12 -4.257,0.135C-3.525,0.402 -2.962,0.992 -2.28,1.368C-1.597,1.743 -0.618,1.835 -0.142,1.219C-0.193,0.669 0.324,0.177 0.874,0.129C1.424,0.081 1.957,0.389 2.318,0.808C2.678,1.226 2.897,1.745 3.11,2.255Z" style="fill:rgb(223,226,225);fill-rule:nonzero;"/>
                    </g>
                    <g transform="matrix(1,0,0,1,52.045,75.738)">
                        <path d="M3.11,2.255C3.523,2.087 3.949,1.956 4.382,1.852C3.948,1.13 3.518,0.404 3.071,-0.31C2.455,-1.297 1.818,-2.255 0.495,-2.006C-0.351,-1.846 -0.277,-0.777 -0.884,-0.342L-3.366,-0.857C-3.785,-0.829 -4.107,-0.401 -4.382,0.105C-4.341,0.118 -4.298,0.12 -4.257,0.135C-3.525,0.402 -2.962,0.992 -2.28,1.368C-1.597,1.743 -0.618,1.835 -0.142,1.219C-0.193,0.669 0.324,0.177 0.874,0.129C1.424,0.081 1.957,0.389 2.318,0.808C2.678,1.226 2.897,1.745 3.11,2.255Z" style="fill-opacity:0;fill-rule:nonzero;stroke:rgb(223,226,225);stroke-width:0.19px;"/>
                    </g>
                    <g transform="matrix(1,0,0,1,53.255,97.517)">
                        <path d="M-5.3,1.359C-4.022,0.89 -2.56,1.093 -1.346,1.707C-0.382,2.194 0.434,2.924 1.133,3.751C1.192,3.712 1.247,3.67 1.308,3.634C2.493,2.939 3.901,2.969 5.3,3.116C3.705,1.032 0.955,-2.745 0.67,-3.751C-0.012,-3.599 -0.706,-3.511 -1.404,-3.488L-4.305,-1.861L-5.3,1.359Z" style="fill:rgb(141,124,142);fill-rule:nonzero;"/>
                    </g>
                    <g transform="matrix(1,0,0,1,55.301,96.956)">
                        <path d="M2.106,-3.787L-2.615,-1.466L-2.333,0.059L-3.814,0.527L1.126,3.787C1.289,3.569 3.047,1.938 3.047,1.938L3.814,-1.685L1.255,-2.257L2.106,-3.787Z" style="fill:rgb(77,67,95);fill-rule:nonzero;"/>
                    </g>
                    <g transform="matrix(1,0,0,1,58.894,85.327)">
                        <path d="M-1.479,0.524C-2.436,1.137 -3.395,1.749 -4.352,2.362C-2.8,3.006 -1.352,3.9 -0.081,5C1.048,4.137 2.178,3.275 3.307,2.413C3.455,2.3 3.608,2.182 3.698,2.019C3.78,1.87 3.804,1.696 3.826,1.527C4.001,0.173 4.177,-1.181 4.352,-2.535C3.984,-3.049 3.614,-3.555 3.375,-4.194C3.306,-4.377 3.237,-4.574 3.083,-4.694C3.064,-4.709 3.04,-4.715 3.019,-4.727L2.652,-4.853C2.339,-4.919 2.021,-4.959 1.704,-5C0.552,-3.829 -0.766,-2.821 -2.203,-2.026C-1.75,-1.512 -1.404,-0.903 -1.195,-0.25C-1.146,-0.097 -1.105,0.072 -1.167,0.22C-1.224,0.356 -1.354,0.444 -1.479,0.524Z" style="fill:rgb(141,124,142);fill-rule:nonzero;"/>
                    </g>
                </g>
                <g transform="matrix(0.645,0,0,0.645,65.183,86.474)">
                    <g>
                        <path d="M4.592,-0.666C4.592,-0.666 3.564,0.666 2.296,0.666C1.028,0.666 0,-0.666 0,-0.666C0,-0.666 -1.028,0.666 -2.296,0.666C-3.564,0.666 -4.592,-0.666 -4.592,-0.666" style="fill-opacity:0;fill-rule:nonzero;stroke:rgb(184,228,250);stroke-width:2px;stroke-linecap:round;stroke-linejoin:round;stroke-miterlimit:4;"/>
                    </g>
                </g>
            </g>
        </g>
        <g id="ANIM_dlr_fant_matterhorn_waterfall.svg1" serif:id="ANIM_dlr_fant_matterhorn_waterfall.svg">
        </g>
    </g>
</svg>
