<svg xmlns="http://www.w3.org/2000/svg" viewBox="0 0 56 48" width="56" height="48" preserveAspectRatio="xMidYMid meet" style="width: 100%; height: 100%; transform: translate3d(0px, 0px, 0px); content-visibility: visible;"><defs><clipPath id="__lottie_element_826"><rect width="56" height="48" x="0" y="0"></rect></clipPath></defs><g clip-path="url(#__lottie_element_826)"><g transform="matrix(0.33181336522102356,-0.028087638318538666,0.028087638318538666,0.33181336522102356,0.26019418239593506,4.592031002044678)" opacity="1" style="display: block;"><g opacity="1" transform="matrix(1,0,0,1,98.33399963378906,49.08700180053711)"><path fill="rgb(217,28,92)" fill-opacity="1" d=" M38.374000549316406,15.350000381469727 C39.14899826049805,3.7339999675750732 35.12099838256836,-3.4790000915527344 26.43899917602539,-10.916999816894531 C23.586999893188477,-13.359999656677246 22.06999969482422,-15.664999961853027 21.12299919128418,-19.358999252319336 C19.77199935913086,-24.625999450683594 23.020000457763672,-30.31999969482422 19.56800079345703,-35.150001525878906 C15.300999641418457,-41.11899948120117 7.189000129699707,-42.04600143432617 0.7829999923706055,-39.266998291015625 C-2.3580000400543213,-37.90399932861328 -5.202000141143799,-35.65299987792969 -7,-32.709999084472656 C-9.432999610900879,-28.726999282836914 -8.687000274658203,-23.82699966430664 -10.918000221252441,-19.797000885009766 C-13.569000244140625,-15.012999534606934 -19.79199981689453,-13.586000442504883 -23.679000854492188,-9.737000465393066 C-29.125999450683594,-4.343999862670898 -28.882999420166016,4.459000110626221 -27.476999282836914,11.994999885559082 C-26.993999481201172,14.586000442504883 -26.415000915527344,17.21500015258789 -26.7189998626709,19.832000732421875 C-27.089000701904297,23.027000427246094 -28.64699935913086,24.982999801635742 -31.42799949645996,26.19300079345703 C-33.303001403808594,27.007999420166016 -37.09299850463867,26.80900001525879 -37.98500061035156,29.07900047302246 C-39.14899826049805,32.04100036621094 -34.380001068115234,34.52199935913086 -32.42599868774414,35.2400016784668 C-20.777999877929688,39.52199935913086 -7.422999858856201,42.047000885009766 4.999000072479248,41.347999572753906 C14.32699966430664,40.82400131225586 23.799999237060547,37.85100173950195 30.621999740600586,31.4689998626709 C35.59199905395508,26.819000244140625 37.986000061035156,21.16200065612793 38.374000549316406,15.350000381469727z"></path></g></g><g transform="matrix(0.3329996168613434,-0.0005058216047473252,0.0005058216047473252,0.3329996168613434,1.3511024713516235,1.6911821365356445)" opacity="1" style="display: block;"><g opacity="1" transform="matrix(1,0,0,1,103.6240005493164,68.31099700927734)"><path fill="rgb(250,188,150)" fill-opacity="1" d=" M8.043999671936035,-25.239999771118164 C5.406000137329102,-25.535999298095703 -5.406000137329102,-25.535999298095703 -8.043999671936035,-25.239999771118164 C-11.541000366210938,-24.847000122070312 -22.165000915527344,-23.916000366210938 -21.594999313354492,-18.336000442504883 C-21.434999465942383,-16.768999099731445 -20.434999465942383,-15.435999870300293 -19.509000778198242,-14.15999984741211 C-16.937999725341797,-10.616999626159668 -13.21399974822998,-7.60099983215332 -12.074000358581543,-3.296999931335449 C-11.03499984741211,0.6259999871253967 -10.706999778747559,4.745999813079834 -11.595999717712402,8.727999687194824 C-12.805999755859375,14.147000312805176 -13.194999694824219,16.753999710083008 -11.701000213623047,19.261999130249023 C-10.043999671936035,22.041000366210938 -6.428999900817871,23.94099998474121 -3.5260000228881836,25.086000442504883 C-2.385999917984009,25.535999298095703 2.385999917984009,25.535999298095703 3.5260000228881836,25.086000442504883 C6.428999900817871,23.94099998474121 10.045000076293945,22.041000366210938 11.701000213623047,19.261999130249023 C13.194999694824219,16.753999710083008 12.805999755859375,14.147000312805176 11.595999717712402,8.727999687194824 C10.706999778747559,4.745999813079834 11.03499984741211,0.6259999871253967 12.074000358581543,-3.296999931335449 C13.21399974822998,-7.60099983215332 16.93899917602539,-10.616999626159668 19.510000228881836,-14.15999984741211 C20.434999465942383,-15.435999870300293 21.434999465942383,-16.768999099731445 21.594999313354492,-18.336000442504883 C22.165000915527344,-23.916000366210938 11.541999816894531,-24.847000122070312 8.043999671936035,-25.239999771118164z"></path></g><g opacity="1" transform="matrix(1,0,0,1,94.91500091552734,61.391998291015625)"><path fill="rgb(170,95,166)" fill-opacity="1" d=" M-8.708000183105469,0 C-8.708000183105469,2.9700000286102295 -5.158999919891357,3.6440000534057617 -5.158999919891357,3.6440000534057617 C-6.0970001220703125,4.111000061035156 -6.706999778747559,6.363999843597412 -5.28000020980835,7.611999988555908 C-2.068000078201294,10.420999526977539 8.708000183105469,7.4019999504089355 8.708000183105469,0 C8.708000183105469,-7.4019999504089355 -2.068000078201294,-10.420999526977539 -5.28000020980835,-7.611999988555908 C-6.706999778747559,-6.363999843597412 -6.0970001220703125,-4.111000061035156 -5.158999919891357,-3.6440000534057617 C-5.158999919891357,-3.6440000534057617 -8.708000183105469,-2.9700000286102295 -8.708000183105469,0z"></path></g><g opacity="1" transform="matrix(1,0,0,1,112.33300018310547,61.391998291015625)"><path fill="rgb(170,95,166)" fill-opacity="1" d=" M8.708999633789062,0 C8.708999633789062,2.9700000286102295 5.158999919891357,3.6440000534057617 5.158999919891357,3.6440000534057617 C6.0970001220703125,4.111000061035156 6.706999778747559,6.363999843597412 5.2789998054504395,7.611999988555908 C2.066999912261963,10.420999526977539 -8.708999633789062,7.4019999504089355 -8.708999633789062,0 C-8.708999633789062,-7.4019999504089355 2.066999912261963,-10.420999526977539 5.2789998054504395,-7.611999988555908 C6.706999778747559,-6.363999843597412 6.0970001220703125,-4.111000061035156 5.158999919891357,-3.6440000534057617 C5.158999919891357,-3.6440000534057617 8.708999633789062,-2.9700000286102295 8.708999633789062,0z"></path></g></g><g transform="matrix(0.33168837428092957,-0.0295267254114151,0.0295267254114151,0.33168837428092957,0.23859155178070068,4.74397611618042)" opacity="1" style="display: block;"><g opacity="1" transform="matrix(1,0,0,1,103.6240005493164,31.17300033569336)"><path fill="rgb(250,188,150)" fill-opacity="1" d=" M10.960000038146973,-2.3389999866485596 C10.960000038146973,-10.079000473022461 6.052999973297119,-14.015000343322754 0,-14.015000343322754 C-6.052999973297119,-14.015000343322754 -10.960000038146973,-10.079000473022461 -10.960000038146973,-2.3389999866485596 C-10.960000038146973,5.401000022888184 -6.052999973297119,14.015000343322754 0,14.015000343322754 C6.052999973297119,14.015000343322754 10.960000038146973,5.401000022888184 10.960000038146973,-2.3389999866485596z"></path></g><g opacity="1" transform="matrix(1,0,0,1,101.88800048828125,16.663999557495117)"><path fill="rgb(217,28,92)" fill-opacity="1" d=" M-14.428000450134277,3.371999979019165 C-14.663999557495117,9.154999732971191 -5.188000202178955,5.914999961853027 -2.5160000324249268,5.053999900817871 C1.906000018119812,3.628000020980835 13.1899995803833,4.9629998207092285 13.993000030517578,-1.8079999685287476 C14.664999961853027,-7.4720001220703125 5.071000099182129,-9.154999732971191 1.128000020980835,-8.942000389099121 C-4.239999771118164,-8.651000022888184 -9.423999786376953,-5.855000019073486 -12.440999984741211,-1.3769999742507935 C-13.5600004196167,0.2840000092983246 -14.369000434875488,1.9550000429153442 -14.428000450134277,3.371999979019165z"></path></g><g opacity="1" transform="matrix(1,0,0,1,103.9530029296875,38.28200149536133)"><path fill="rgb(217,28,92)" fill-opacity="1" d=" M0,2.822999954223633 C3.7720000743865967,2.822999954223633 4.828999996185303,-2.822999954223633 4.828999996185303,-2.822999954223633 C3.302999973297119,-1.906999945640564 -1.3880000114440918,-0.5799999833106995 -4.828999996185303,-2.803999900817871 C-4.828999996185303,-2.803999900817871 -3.7709999084472656,2.822999954223633 0,2.822999954223633z"></path></g><g opacity="1" transform="matrix(0.18557000160217285,0,0,0.18557000160217285,98.38899993896484,29.17300033569336)"><path fill="rgb(0,131,126)" fill-opacity="1" d=" M13,0 C13,0 13,0 13,0 C13,5.425937652587891 8.594559669494629,9.831377983093262 3.1686220169067383,9.831377983093262 C3.1686220169067383,9.831377983093262 -3.1686220169067383,9.831377983093262 -3.1686220169067383,9.831377983093262 C-8.594559669494629,9.831377983093262 -13,5.425937652587891 -13,0 C-13,0 -13,0 -13,0 C-13,-5.425937652587891 -8.594559669494629,-9.831377983093262 -3.1686220169067383,-9.831377983093262 C-3.1686220169067383,-9.831377983093262 3.1686220169067383,-9.831377983093262 3.1686220169067383,-9.831377983093262 C8.594559669494629,-9.831377983093262 13,-5.425937652587891 13,0z"></path></g><g opacity="1" transform="matrix(0.18557000160217285,0,0,0.18557000160217285,108.88899993896484,29.17300033569336)"><path fill="rgb(0,131,126)" fill-opacity="1" d=" M13,0 C13,0 13,0 13,0 C13,5.425937652587891 8.594559669494629,9.831377983093262 3.1686220169067383,9.831377983093262 C3.1686220169067383,9.831377983093262 -3.1686220169067383,9.831377983093262 -3.1686220169067383,9.831377983093262 C-8.594559669494629,9.831377983093262 -13,5.425937652587891 -13,0 C-13,0 -13,0 -13,0 C-13,-5.425937652587891 -8.594559669494629,-9.831377983093262 -3.1686220169067383,-9.831377983093262 C-3.1686220169067383,-9.831377983093262 3.1686220169067383,-9.831377983093262 3.1686220169067383,-9.831377983093262 C8.594559669494629,-9.831377983093262 13,-5.425937652587891 13,0z"></path></g></g><g transform="matrix(0.3330000042915344,0,0,0.3330000042915344,1.3932991027832031,1.6390491724014282)" opacity="1" style="display: block;"><g opacity="1" transform="matrix(1,0,0,1,95.58399963378906,86.69200134277344)"><path fill="rgb(51,185,157)" fill-opacity="1" d=" M-5.453000068664551,-6.320000171661377 C-6.964000225067139,-6.964000225067139 -9.859000205993652,-6.559000015258789 -10.196000099182129,-4.328000068664551 C-10.78600025177002,-0.414000004529953 -4.159999847412109,3.740999937057495 2.1600000858306885,5.322999954223633 C8.710000038146973,6.9629998207092285 10.78600025177002,3.5439999103546143 8.043999671936035,3.5439999103546143 C5.301000118255615,3.5439999103546143 1.0180000066757202,-3.561000108718872 -5.453000068664551,-6.320000171661377z"></path></g><g opacity="1" transform="matrix(1,0,0,1,111.66500091552734,86.69200134277344)"><path fill="rgb(51,185,157)" fill-opacity="1" d=" M5.453000068664551,-6.320000171661377 C6.9629998207092285,-6.964000225067139 9.859000205993652,-6.559000015258789 10.194999694824219,-4.328000068664551 C10.78600025177002,-0.414000004529953 4.159999847412109,3.740999937057495 -2.1600000858306885,5.322999954223633 C-8.710000038146973,6.9629998207092285 -10.78600025177002,3.5439999103546143 -8.043999671936035,3.5439999103546143 C-5.301000118255615,3.5439999103546143 -1.0180000066757202,-3.561000108718872 5.453000068664551,-6.320000171661377z"></path></g><g opacity="1" transform="matrix(1,0,0,1,85.1719970703125,102.09600067138672)"><path fill="rgb(51,185,157)" fill-opacity="1" d=" M31.985000610351562,-19.256999969482422 C31.985000610351562,-19.256999969482422 27.479999542236328,-11.26099967956543 18.277000427246094,-11.26099967956543 C9.072999954223633,-11.26099967956543 4.567999839782715,-19.256999969482422 4.567999839782715,-19.256999969482422 C3.453000068664551,-15.753999710083008 -0.17499999701976776,-11.949000358581543 -2.684000015258789,-7.611999988555908 C-2.684000015258789,-7.611999988555908 -6.789135932922363,-9.600329399108887 -13.318593978881836,-8.76561164855957 C-21.699142456054688,-7.68589973449707 -28.372926712036133,-2.52866530418396 -38.249149322509766,-5.837985515594482 C-39.10729217529297,-6.125396251678467 -42.18388366699219,-6.53900146484375 -43.06952667236328,-6.348564147949219 C-47.20670700073242,-5.459532737731934 -41.914710998535156,6.7649383544921875 -41.22867202758789,6.705716133117676 C-18.371652603149414,4.640320301055908 -15.746000289916992,15.33899974822998 9.156000137329102,17.701000213623047 C25.5310001373291,19.256000518798828 33.13100051879883,15.805000305175781 38.202999114990234,9.475000381469727 C48.167999267578125,-2.9590001106262207 34.36199951171875,-11.793000221252441 31.985000610351562,-19.256999969482422z"></path></g></g><g transform="matrix(0.3141069710254669,0.11057046800851822,-0.11057046800851822,0.3141069710254669,13.296051979064941,-9.68490219116211)" opacity="1" style="display: block;"><g opacity="1" transform="matrix(1,0,0,1,34.180999755859375,117.21600341796875)"><path fill="rgb(51,185,157)" fill-opacity="1" d=" M28.458999633789062,1.4639999866485596 C21.913999557495117,2.365999937057495 17.020000457763672,-6.061999797821045 11.144000053405762,-9.081999778747559 C3.694000005722046,-12.911999702453613 -5.484000205993652,-13.201000213623047 -13.16100025177002,-9.847000122070312 C-20.83799934387207,-6.493000030517578 -26.86199951171875,0.4359999895095825 -29.11400032043457,8.505000114440918 C-24.398000717163086,2.01200008392334 -15.069000244140625,3.640000104904175 -8.458000183105469,5.581999778747559 C0.31299999356269836,8.159000396728516 15.003999710083008,16.384000778198242 19.645999908447266,4.703000068664551 C19.645999908447266,4.703000068664551 28.458999633789062,1.4639999866485596 28.458999633789062,1.4639999866485596z"></path></g><g opacity="1" transform="matrix(1,0,0,1,42.862998962402344,139.1580047607422)"><path fill="rgb(51,185,157)" fill-opacity="1" d=" M13.449000358581543,-15.399999618530273 C3.694999933242798,-17.815000534057617 -7.26200008392334,-14.48900032043457 -14.029000282287598,-7.060999870300293 C-17.374000549316406,-3.390000104904175 -19.75,1.3109999895095825 -19.989999771118164,6.270999908447266 C-20.229999542236328,11.232000350952148 -18.118999481201172,16.4060001373291 -14.04800033569336,19.25 C-14.717000007629395,13.227999687194824 -9.1899995803833,8.15999984741211 -3.450000047683716,6.2179999351501465 C4.261000156402588,3.6080000400543213 13.307000160217285,3.558000087738037 17.868999481201172,-4.566999912261963 C20.229999542236328,-8.772000312805176 18.677000045776367,-14.649999618530273 18.979000091552734,-19.25 C18.979000091552734,-19.25 13.449000358581543,-15.399999618530273 13.449000358581543,-15.399999618530273z"></path></g></g><g transform="matrix(0.3327491283416748,-0.012924007140100002,0.012924007140100002,0.3327491283416748,0.8051326274871826,3.1091277599334717)" opacity="1" style="display: block;"><g opacity="1" transform="matrix(1,0,0,1,125.94400024414062,63.926998138427734)"><path stroke-linecap="butt" stroke-linejoin="miter" fill-opacity="0" stroke-miterlimit="10" stroke="rgb(250,188,150)" stroke-opacity="1" stroke-width="8.107" d=" M-19.437999725341797,-17.815000534057617 C-5.11299991607666,-17.815000534057617 -1.7259999513626099,-13.218000411987305 2.566999912261963,-3.556999921798706 C9.062999725341797,11.0649995803833 19.437999725341797,17.815000534057617 19.437999725341797,17.815000534057617"></path></g><g opacity="1" transform="matrix(1,0,0,1,149.23300170898438,83.16999816894531)"><path fill="rgb(250,188,150)" fill-opacity="1" d=" M-3.382999897003174,3.9059998989105225 C-1.1649999618530273,5.209000110626221 2.2690000534057617,6.745999813079834 4.933000087738037,6.895999908447266 C8.76200008392334,7.111999988555908 9.720999717712402,4.427000045776367 8.378999710083008,3.072000026702881 C9.321999549865723,3.071000099182129 10.262999534606934,2.7939999103546143 11.055999755859375,2.2839999198913574 C11.494999885559082,2.002000093460083 11.930000305175781,1.534999966621399 11.809000015258789,1.0269999504089355 C11.70199966430664,0.574999988079071 11.21500015258789,0.34200000762939453 10.784000396728516,0.17000000178813934 C10.378999710083008,0.00800000037997961 9.975000381469727,-0.15399999916553497 9.571000099182129,-0.3149999976158142 C4.401000022888184,-2.378999948501587 -2.063999891281128,-7.111999988555908 -7.586999893188477,-3.8420000076293945 C-10.289999961853027,-2.240999937057495 -9.67199993133545,-0.20800000429153442 -10.75100040435791,2.2009999752044678 C-11.062999725341797,2.8989999294281006 -11.515000343322754,3.5369999408721924 -11.722000122070312,4.2729997634887695 C-11.930000305175781,5.007999897003174 -11.819999694824219,5.914999961853027 -11.194999694824219,6.355999946594238 C-10.795000076293945,6.638000011444092 -10.267999649047852,6.671000003814697 -9.781999588012695,6.60699987411499 C-7.729000091552734,6.336999893188477 -6.205999851226807,4.633999824523926 -4.880000114440918,3.0429999828338623 C-4.366000175476074,3.3299999237060547 -3.869999885559082,3.619999885559082 -3.382999897003174,3.9059998989105225z"></path></g></g><g transform="matrix(0.33282554149627686,-0.01077828649431467,0.01077828649431467,0.33282554149627686,0.8687743544578552,2.6369872093200684)" opacity="1" style="display: block;"><g opacity="1" transform="matrix(1,0,0,1,74.85800170898438,35.150001525878906)"><path stroke-linecap="butt" stroke-linejoin="miter" fill-opacity="0" stroke-miterlimit="10" stroke="rgb(250,188,150)" stroke-opacity="1" stroke-width="8.107" d=" M15.960000038146973,13.057000160217285 C6.760000228881836,13.140000343322754 -3.2269999980926514,14.883000373840332 -8.859999656677246,5.9039998054504395 C-12.78600025177002,-0.3540000021457672 -12.805000305175781,-8.274999618530273 -15.960000038146973,-14.883000373840332"></path></g></g><g transform="matrix(0.33264070749282837,-0.015464870259165764,0.015464870259165764,0.33264070749282837,0.7756795883178711,2.924637794494629)" opacity="1" style="display: block;"><g opacity="1" transform="matrix(1,0,0,1,55.7239990234375,14.715999603271484)"><path fill="rgb(250,188,150)" fill-opacity="1" d=" M4.953999996185303,-0.09000000357627869 C2.816999912261963,-3.3610000610351562 -3.1740000247955322,-9.041999816894531 -6.515999794006348,-9.012999534606934 C-10.024999618530273,-8.982000350952148 -10.706000328063965,2.4570000171661377 -0.4059999883174896,7.932000160217285 C1.562999963760376,8.977999687194824 4.811999797821045,9.043000221252441 6.833000183105469,7.620999813079834 C9.17199993133545,5.973999977111816 10.336000442504883,2.7950000762939453 10.574000358581543,-0.08100000023841858 C10.706000328063965,-1.684999942779541 10.555000305175781,-7.132999897003174 8.395999908447266,-7.275000095367432 C6.836999893188477,-7.376999855041504 5.589000225067139,-3.6449999809265137 4.953999996185303,-0.09000000357627869z"></path></g><g opacity="1" transform="matrix(1,0,0,1,52.12699890136719,17.746000289916992)"><path fill="rgb(250,188,150)" fill-opacity="1" d=" M-3.8350000381469727,-4.675000190734863 C-3.937999963760376,-4.76200008392334 -4.040999889373779,-4.848999977111816 -4.144999980926514,-4.934999942779541 C-4.7129998207092285,-5.4079999923706055 -5.705999851226807,-5.583000183105469 -6.098999977111816,-4.956999778747559 C-6.26800012588501,-4.689000129699707 -6.269999980926514,-4.349999904632568 -6.238999843597412,-4.034999847412109 C-6.00600004196167,-1.6649999618530273 -4.257999897003174,0.25999999046325684 -2.4570000171661377,1.819000005722046 C-1.0789999961853027,3.010999917984009 0.42100000381469727,4.114999771118164 2.109999895095825,4.823999881744385 C2.9549999237060547,5.178999900817871 3.928999900817871,5.513000011444092 4.855000019073486,5.540999889373779 C6.269999980926514,5.583000183105469 5.665999889373779,4.882999897003174 5.010000228881836,4.196000099182129 C2.121999979019165,1.1729999780654907 -0.640999972820282,-1.965000033378601 -3.8350000381469727,-4.675000190734863z"></path></g></g></g></svg>