<svg xmlns="http://www.w3.org/2000/svg" viewBox="0 0 23 20" width="23" height="20" preserveAspectRatio="xMidYMid meet" style="width: 100%; height: 100%; transform: translate3d(0px, 0px, 0px); content-visibility: visible;"><defs><clipPath id="__lottie_element_3254"><rect width="23" height="20" x="0" y="0"></rect></clipPath></defs><g clip-path="url(#__lottie_element_3254)"><g transform="matrix(1.8048996925354004,0.063028484582901,-0.063028484582901,1.8048996925354004,1.1608692407608032,10.894841194152832)" opacity="1" style="display: block;"><g opacity="1" transform="matrix(1,0,0,1,5.822999954223633,2.4560000896453857)"><path fill="rgb(255,238,207)" fill-opacity="1" d=" M-5.4720001220703125,0.3440000116825104 C-5.4720001220703125,0.3440000116825104 -4.889999866485596,0.9919999837875366 -4.889999866485596,0.9919999837875366 C-4.323999881744385,1.6200000047683716 -3.5250000953674316,1.9880000352859497 -2.678999900817871,2.009999990463257 C-2.678999900817871,2.009999990463257 4.519999980926514,2.194000005722046 4.519999980926514,2.194000005722046 C4.998000144958496,2.2060000896453857 5.410999774932861,1.8589999675750732 5.480000019073486,1.3849999904632568 C5.480000019073486,1.3849999904632568 5.544000148773193,0.9449999928474426 5.544000148773193,0.9449999928474426 C5.572999954223633,0.7450000047683716 5.436999797821045,0.5590000152587891 5.23799991607666,0.5260000228881836 C5.23799991607666,0.5260000228881836 -0.6150000095367432,-0.4350000023841858 -0.6150000095367432,-0.4350000023841858 C-0.6880000233650208,-0.44600000977516174 -0.7549999952316284,-0.4790000021457672 -0.8090000152587891,-0.5289999842643738 C-0.8090000152587891,-0.5289999842643738 -2.3910000324249268,-2.0179998874664307 -2.3910000324249268,-2.0179998874664307 C-2.4560000896453857,-2.0789999961853027 -2.5420000553131104,-2.115000009536743 -2.631999969482422,-2.118000030517578 C-2.631999969482422,-2.118000030517578 -5.063000202178955,-2.1989998817443848 -5.063000202178955,-2.1989998817443848 C-5.263000011444092,-2.2049999237060547 -5.432000160217285,-2.052000045776367 -5.445000171661377,-1.8519999980926514 C-5.445000171661377,-1.8519999980926514 -5.565999984741211,0.0729999989271164 -5.565999984741211,0.0729999989271164 C-5.572999954223633,0.1720000058412552 -5.539000034332275,0.27000001072883606 -5.4720001220703125,0.3440000116825104z"></path></g><g opacity="1" transform="matrix(1,0,0,1,10.732000350952148,2.880000114440918)"><path fill="rgb(255,238,207)" fill-opacity="1" d=" M-0.30399999022483826,-0.035999998450279236 C-0.2669999897480011,-0.3449999988079071 -0.10100000351667404,-0.5799999833106995 0.06599999964237213,-0.5600000023841858 C0.23399999737739563,-0.5400000214576721 0.3409999907016754,-0.27300000190734863 0.30399999022483826,0.035999998450279236 C0.2669999897480011,0.3449999988079071 0.10199999809265137,0.5799999833106995 -0.06599999964237213,0.5600000023841858 C-0.23399999737739563,0.5400000214576721 -0.3409999907016754,0.27300000190734863 -0.30399999022483826,-0.035999998450279236z"></path></g><g opacity="1" transform="matrix(1,0,0,1,10.039999961853027,2.7739999294281006)"><path fill="rgb(255,238,207)" fill-opacity="1" d=" M-0.30399999022483826,-0.035999998450279236 C-0.2669999897480011,-0.3449999988079071 -0.10100000351667404,-0.5799999833106995 0.06599999964237213,-0.5600000023841858 C0.23399999737739563,-0.5400000214576721 0.3409999907016754,-0.27300000190734863 0.30399999022483826,0.035999998450279236 C0.2669999897480011,0.3449999988079071 0.10199999809265137,0.5799999833106995 -0.06599999964237213,0.5600000023841858 C-0.23399999737739563,0.5400000214576721 -0.3409999907016754,0.27300000190734863 -0.30399999022483826,-0.035999998450279236z"></path></g><g opacity="1" transform="matrix(1,0,0,1,9.347999572753906,2.6649999618530273)"><path fill="rgb(255,238,207)" fill-opacity="1" d=" M-0.30399999022483826,-0.035999998450279236 C-0.2669999897480011,-0.3449999988079071 -0.10100000351667404,-0.5799999833106995 0.06599999964237213,-0.5600000023841858 C0.23399999737739563,-0.5400000214576721 0.3409999907016754,-0.27300000190734863 0.30399999022483826,0.035999998450279236 C0.2669999897480011,0.3449999988079071 0.10199999809265137,0.5799999833106995 -0.06599999964237213,0.5600000023841858 C-0.23399999737739563,0.5400000214576721 -0.3409999907016754,0.27300000190734863 -0.30399999022483826,-0.035999998450279236z"></path></g><g opacity="1" transform="matrix(1,0,0,1,8.654999732971191,2.565999984741211)"><path fill="rgb(255,238,207)" fill-opacity="1" d=" M-0.30399999022483826,-0.035999998450279236 C-0.2669999897480011,-0.3449999988079071 -0.10100000351667404,-0.5799999833106995 0.06599999964237213,-0.5600000023841858 C0.23399999737739563,-0.5400000214576721 0.3409999907016754,-0.27300000190734863 0.30399999022483826,0.035999998450279236 C0.2669999897480011,0.3449999988079071 0.10199999809265137,0.5799999833106995 -0.06599999964237213,0.5600000023841858 C-0.23399999737739563,0.5400000214576721 -0.3409999907016754,0.27300000190734863 -0.30399999022483826,-0.035999998450279236z"></path></g><g opacity="1" transform="matrix(1,0,0,1,7.964000225067139,2.450000047683716)"><path fill="rgb(255,238,207)" fill-opacity="1" d=" M-0.30399999022483826,-0.035999998450279236 C-0.2669999897480011,-0.3449999988079071 -0.10100000351667404,-0.5799999833106995 0.06599999964237213,-0.5600000023841858 C0.23399999737739563,-0.5400000214576721 0.3409999907016754,-0.27300000190734863 0.30399999022483826,0.035999998450279236 C0.2669999897480011,0.3449999988079071 0.10100000351667404,0.5799999833106995 -0.06599999964237213,0.5600000023841858 C-0.23399999737739563,0.5400000214576721 -0.3409999907016754,0.27300000190734863 -0.30399999022483826,-0.035999998450279236z"></path></g><g opacity="1" transform="matrix(1,0,0,1,7.270999908447266,2.3519999980926514)"><path fill="rgb(255,238,207)" fill-opacity="1" d=" M-0.30399999022483826,-0.035999998450279236 C-0.2669999897480011,-0.3449999988079071 -0.10100000351667404,-0.5799999833106995 0.06599999964237213,-0.5600000023841858 C0.23399999737739563,-0.5400000214576721 0.3409999907016754,-0.27300000190734863 0.30399999022483826,0.035999998450279236 C0.2669999897480011,0.3449999988079071 0.10100000351667404,0.5799999833106995 -0.06599999964237213,0.5600000023841858 C-0.23399999737739563,0.5400000214576721 -0.3409999907016754,0.27300000190734863 -0.30399999022483826,-0.035999998450279236z"></path></g></g><g transform="matrix(1.7785627841949463,-0.3136085867881775,0.3136085867881775,1.7785627841949463,-1.2782514095306396,1.8171008825302124)" opacity="1" style="display: block;"><g opacity="1" transform="matrix(1,0,0,1,6.448999881744385,2.50600004196167)"><path fill="rgb(255,238,207)" fill-opacity="1" d=" M-6.177999973297119,0.29600000381469727 C-6.198999881744385,0.03500000014901161 -6.066999912261963,-0.21400000154972076 -5.839000225067139,-0.34200000762939453 C-5.163000106811523,-0.7229999899864197 -3.742000102996826,-1.5180000066757202 -3.0309998989105225,-1.8849999904632568 C-2.427999973297119,-2.196000099182129 -1.7269999980926514,-2.25600004196167 -1.0789999961853027,-2.053999900817871 C-1.0789999961853027,-2.053999900817871 5.385000228881836,-0.039000000804662704 5.385000228881836,-0.039000000804662704 C5.86899995803833,0.1120000034570694 6.199999809265137,0.5609999895095825 6.199999809265137,1.0679999589920044 C6.199999809265137,1.0679999589920044 6.199999809265137,1.8619999885559082 6.199999809265137,1.8619999885559082 C6.199999809265137,2.0810000896453857 6.01800012588501,2.25600004196167 5.798999786376953,2.249000072479248 C4.132999897003174,2.190000057220459 -3.2850000858306885,1.944000005722046 -5.455999851226807,1.8730000257492065 C-5.796999931335449,1.8619999885559082 -6.074999809265137,1.5950000286102295 -6.1020002365112305,1.2549999952316284 C-6.1020002365112305,1.2549999952316284 -6.177999973297119,0.29600000381469727 -6.177999973297119,0.29600000381469727z"></path></g><g opacity="1" transform="matrix(1,0,0,1,5.5289998054504395,2.312000036239624)"><path fill="rgb(133,59,45)" fill-opacity="1" d=" M-1.2599999904632568,0 C-1.2599999904632568,-0.5049999952316284 -0.6959999799728394,-0.9139999747276306 0,-0.9139999747276306 C0.6959999799728394,-0.9139999747276306 1.2599999904632568,-0.5049999952316284 1.2599999904632568,0 C1.2599999904632568,0.5049999952316284 0.6959999799728394,0.9139999747276306 0,0.9139999747276306 C-0.6959999799728394,0.9139999747276306 -1.2599999904632568,0.5049999952316284 -1.2599999904632568,0z"></path></g><g opacity="1" transform="matrix(1,0,0,1,11.20300006866455,3.2239999771118164)"><path fill="rgb(133,59,45)" fill-opacity="1" d=" M-0.4690000116825104,0 C-0.4690000116825104,-0.18799999356269836 -0.2590000033378601,-0.3400000035762787 0,-0.3400000035762787 C0.2590000033378601,-0.3400000035762787 0.4690000116825104,-0.18799999356269836 0.4690000116825104,0 C0.4690000116825104,0.18799999356269836 0.2590000033378601,0.3400000035762787 0,0.3400000035762787 C-0.2590000033378601,0.3400000035762787 -0.4690000116825104,0.18799999356269836 -0.4690000116825104,0z"></path></g><g opacity="1" transform="matrix(1,0,0,1,11.977999687194824,4.744999885559082)"><path fill="rgb(255,238,207)" fill-opacity="1" d=" M-0.3059999942779541,0 C-0.3059999942779541,-0.31200000643730164 -0.16899999976158142,-0.5640000104904175 0,-0.5640000104904175 C0.16899999976158142,-0.5640000104904175 0.3059999942779541,-0.31200000643730164 0.3059999942779541,0 C0.3059999942779541,0.31200000643730164 0.16899999976158142,0.5640000104904175 0,0.5640000104904175 C-0.16899999976158142,0.5640000104904175 -0.3059999942779541,0.31200000643730164 -0.3059999942779541,0z"></path></g><g opacity="1" transform="matrix(1,0,0,1,11.277999877929688,4.7210001945495605)"><path fill="rgb(255,238,207)" fill-opacity="1" d=" M-0.3059999942779541,0 C-0.3059999942779541,-0.31200000643730164 -0.16899999976158142,-0.5640000104904175 0,-0.5640000104904175 C0.16899999976158142,-0.5640000104904175 0.3059999942779541,-0.31200000643730164 0.3059999942779541,0 C0.3059999942779541,0.31200000643730164 0.16899999976158142,0.5640000104904175 0,0.5640000104904175 C-0.16899999976158142,0.5640000104904175 -0.3059999942779541,0.31200000643730164 -0.3059999942779541,0z"></path></g><g opacity="1" transform="matrix(1,0,0,1,10.57800006866455,4.695000171661377)"><path fill="rgb(255,238,207)" fill-opacity="1" d=" M-0.3059999942779541,0 C-0.3059999942779541,-0.31200000643730164 -0.16899999976158142,-0.5640000104904175 0,-0.5640000104904175 C0.16899999976158142,-0.5640000104904175 0.3059999942779541,-0.31200000643730164 0.3059999942779541,0 C0.3059999942779541,0.31200000643730164 0.16899999976158142,0.5640000104904175 0,0.5640000104904175 C-0.16899999976158142,0.5640000104904175 -0.3059999942779541,0.31200000643730164 -0.3059999942779541,0z"></path></g><g opacity="1" transform="matrix(1,0,0,1,9.878999710083008,4.677999973297119)"><path fill="rgb(255,238,207)" fill-opacity="1" d=" M-0.3059999942779541,0 C-0.3059999942779541,-0.31200000643730164 -0.16899999976158142,-0.5640000104904175 0,-0.5640000104904175 C0.16899999976158142,-0.5640000104904175 0.3059999942779541,-0.31200000643730164 0.3059999942779541,0 C0.3059999942779541,0.31200000643730164 0.16899999976158142,0.5640000104904175 0,0.5640000104904175 C-0.16899999976158142,0.5640000104904175 -0.3059999942779541,0.31200000643730164 -0.3059999942779541,0z"></path></g><g opacity="1" transform="matrix(1,0,0,1,9.178999900817871,4.644000053405762)"><path fill="rgb(255,238,207)" fill-opacity="1" d=" M-0.3059999942779541,0 C-0.3059999942779541,-0.31200000643730164 -0.16899999976158142,-0.5640000104904175 0,-0.5640000104904175 C0.16899999976158142,-0.5640000104904175 0.3059999942779541,-0.31200000643730164 0.3059999942779541,0 C0.3059999942779541,0.31200000643730164 0.16899999976158142,0.5640000104904175 0,0.5640000104904175 C-0.16899999976158142,0.5640000104904175 -0.3059999942779541,0.31200000643730164 -0.3059999942779541,0z"></path></g><g opacity="1" transform="matrix(1,0,0,1,8.479000091552734,4.627999782562256)"><path fill="rgb(255,238,207)" fill-opacity="1" d=" M-0.3059999942779541,0 C-0.3059999942779541,-0.31200000643730164 -0.16899999976158142,-0.5640000104904175 0,-0.5640000104904175 C0.16899999976158142,-0.5640000104904175 0.3059999942779541,-0.31200000643730164 0.3059999942779541,0 C0.3059999942779541,0.31200000643730164 0.16899999976158142,0.5640000104904175 0,0.5640000104904175 C-0.16899999976158142,0.5640000104904175 -0.3059999942779541,0.31200000643730164 -0.3059999942779541,0z"></path></g></g></g></svg>