<svg xmlns="http://www.w3.org/2000/svg" viewBox="0 0 30 20" width="30" height="20" preserveAspectRatio="xMidYMid meet" style="width: 100%; height: 100%; transform: translate3d(0px, 0px, 0px); content-visibility: visible;"><defs><clipPath id="__lottie_element_3848"><rect width="30" height="20" x="0" y="0"></rect></clipPath></defs><g clip-path="url(#__lottie_element_3848)"><g transform="matrix(1.8035249710083008,0.0945187360048294,-0.0945187360048294,1.8035249710083008,-50.64841079711914,-4.736762046813965)" opacity="1" style="display: block;"><g opacity="1" transform="matrix(1,0,0,1,36.75600051879883,6.914000034332275)"><path fill="rgb(113,66,56)" fill-opacity="1" d=" M7.323999881744385,4.156000137329102 C7.323999881744385,4.156000137329102 -7.323999881744385,4.156000137329102 -7.323999881744385,4.156000137329102 C-7.323999881744385,4.156000137329102 -7.323999881744385,-4.156000137329102 -7.323999881744385,-4.156000137329102 C-7.323999881744385,-4.156000137329102 7.323999881744385,-4.156000137329102 7.323999881744385,-4.156000137329102 C7.323999881744385,-4.156000137329102 7.323999881744385,4.156000137329102 7.323999881744385,4.156000137329102z"></path></g><g opacity="1" transform="matrix(1,0,0,1,36.75600051879883,7.614999771118164)"><path fill="rgb(238,235,234)" fill-opacity="1" d=" M0.8100000023841858,-0.32600000500679016 C0.8100000023841858,-0.32600000500679016 -0.8100000023841858,-0.32600000500679016 -0.8100000023841858,-0.32600000500679016 C-0.8100000023841858,-0.32600000500679016 -1.0770000219345093,-0.4449999928474426 -1.0770000219345093,-0.4449999928474426 C-0.9660000205039978,0.05900000035762787 -0.5379999876022339,0.4449999928474426 0,0.4449999928474426 C0.5370000004768372,0.4449999928474426 0.9660000205039978,0.05900000035762787 1.0770000219345093,-0.4449999928474426 C1.0770000219345093,-0.4449999928474426 0.8100000023841858,-0.32600000500679016 0.8100000023841858,-0.32600000500679016z"></path></g><g opacity="1" transform="matrix(1,0,0,1,36.75600051879883,5.242000102996826)"><path fill="rgb(238,235,234)" fill-opacity="1" d=" M-0.6069999933242798,1.7680000066757202 C-0.6069999933242798,1.7680000066757202 0.6079999804496765,1.7680000066757202 0.6079999804496765,1.7680000066757202 C1.3140000104904175,1.5169999599456787 1.8240000009536743,0.8489999771118164 1.8240000009536743,0.0560000017285347 C1.8240000009536743,-0.9509999752044678 1.0069999694824219,-1.7680000066757202 0,-1.7680000066757202 C-1.0069999694824219,-1.7680000066757202 -1.8240000009536743,-0.9509999752044678 -1.8240000009536743,0.0560000017285347 C-1.8240000009536743,0.8489999771118164 -1.3140000104904175,1.5169999599456787 -0.6069999933242798,1.7680000066757202z"></path></g><g opacity="1" transform="matrix(1,0,0,1,35.94300079345703,5.682000160217285)"><path fill="rgb(113,66,56)" fill-opacity="1" d=" M0.550000011920929,-0.20000000298023224 C0.4950000047683716,-0.5040000081062317 -0.6039999723434448,-0.3050000071525574 -0.550000011920929,-0.0010000000474974513 C-0.4950000047683716,0.30300000309944153 -0.20600000023841858,0.5040000081062317 0.09799999743700027,0.44999998807907104 C0.4020000100135803,0.39500001072883606 0.6050000190734863,0.10400000214576721 0.550000011920929,-0.20000000298023224z"></path></g><g opacity="1" transform="matrix(1,0,0,1,37.569000244140625,5.682000160217285)"><path fill="rgb(113,66,56)" fill-opacity="1" d=" M-0.5490000247955322,-0.20000000298023224 C-0.49399998784065247,-0.5040000081062317 0.6039999723434448,-0.3050000071525574 0.550000011920929,-0.0010000000474974513 C0.4950000047683716,0.30300000309944153 0.20600000023841858,0.5040000081062317 -0.09799999743700027,0.44999998807907104 C-0.4020000100135803,0.39500001072883606 -0.6039999723434448,0.10400000214576721 -0.5490000247955322,-0.20000000298023224z"></path></g><g opacity="1" transform="matrix(1,0,0,1,36.75600051879883,6.321000099182129)"><path fill="rgb(113,66,56)" fill-opacity="1" d=" M0,-0.3009999990463257 C0,-0.3009999990463257 -0.43700000643730164,0.3009999990463257 -0.43700000643730164,0.3009999990463257 C-0.43700000643730164,0.3009999990463257 0.43700000643730164,0.3009999990463257 0.43700000643730164,0.3009999990463257 C0.43700000643730164,0.3009999990463257 0,-0.3009999990463257 0,-0.3009999990463257z"></path></g><g opacity="1" transform="matrix(1,0,0,1,36.54399871826172,7.567999839782715)"><path fill="rgb(238,235,234)" fill-opacity="1" d=" M3.996999979019165,2.5409998893737793 C3.9800000190734863,2.5409998893737793 3.9639999866485596,2.5390000343322754 3.947999954223633,2.5360000133514404 C3.947999954223633,2.5360000133514404 2.188999891281128,2.186000108718872 2.188999891281128,2.186000108718872 C-2.437000036239624,1.684999942779541 -4.26800012588501,-2.4260001182556152 -4.14300012588501,-2.4839999675750732 C-4.017000198364258,-2.5409998893737793 -3.86899995803833,-2.48799991607666 -3.811000108718872,-2.36299991607666 C-3.7950000762939453,-2.3269999027252197 -2.0929999351501465,1.218999981880188 2.265000104904175,1.690999984741211 C2.265000104904175,1.690999984741211 4.045000076293945,2.0460000038146973 4.045000076293945,2.0460000038146973 C4.181000232696533,2.072999954223633 4.26800012588501,2.2039999961853027 4.242000102996826,2.3399999141693115 C4.2179999351501465,2.4590001106262207 4.113999843597412,2.5409998893737793 3.996999979019165,2.5409998893737793z"></path></g><g opacity="1" transform="matrix(1,0,0,1,38.71900177001953,9.425999641418457)"><path fill="rgb(238,235,234)" fill-opacity="1" d=" M-0.609000027179718,1.0099999904632568 C-0.6269999742507935,1.0099999904632568 -0.6439999938011169,1.0110000371932983 -0.6620000004768372,1.0089999437332153 C-0.7990000247955322,0.9980000257492065 -0.9020000100135803,0.878000020980835 -0.890999972820282,0.7400000095367432 C-0.8799999952316284,0.6029999852180481 -0.7609999775886536,0.4950000047683716 -0.621999979019165,0.5099999904632568 C-0.49399998784065247,0.5059999823570251 -0.28299999237060547,0.3499999940395355 -0.17499999701976776,0.00800000037997961 C0.014000000432133675,-0.5860000252723694 0.37299999594688416,-0.8629999756813049 0.4779999852180481,-0.9340000152587891 C0.5920000076293945,-1.0099999904632568 0.7480000257492065,-0.9800000190734863 0.824999988079071,-0.8659999966621399 C0.9020000100135803,-0.7509999871253967 0.8709999918937683,-0.5950000286102295 0.7570000290870667,-0.5180000066757202 C0.6159999966621399,-0.42500001192092896 0.41200000047683716,-0.1899999976158142 0.3019999861717224,0.15800000727176666 C0.1379999965429306,0.6759999990463257 -0.22300000488758087,1.0099999904632568 -0.609000027179718,1.0099999904632568z"></path></g><g opacity="1" transform="matrix(1,0,0,1,36.98899841308594,7.585000038146973)"><path stroke-linecap="butt" stroke-linejoin="miter" fill-opacity="0" stroke-miterlimit="10" stroke="rgb(86,65,65)" stroke-opacity="1" stroke-width="1" d=" M4.017000198364258,-2.2750000953674316 C4.017000198364258,-2.2750000953674316 2.302000045776367,1.4279999732971191 -2.259000062942505,1.9240000247955322 C-2.259000062942505,1.9240000247955322 -4.017000198364258,2.2750000953674316 -4.017000198364258,2.2750000953674316"></path></g><g opacity="1" transform="matrix(1,0,0,1,36.96799850463867,7.567999839782715)"><path fill="rgb(238,235,234)" fill-opacity="1" d=" M-3.996999979019165,2.5409998893737793 C-4.113999843597412,2.5409998893737793 -4.218999862670898,2.4590001106262207 -4.243000030517578,2.3399999141693115 C-4.269000053405762,2.2039999961853027 -4.181000232696533,2.072999954223633 -4.045000076293945,2.0460000038146973 C-4.045000076293945,2.0460000038146973 -2.2869999408721924,1.6950000524520874 -2.2869999408721924,1.6950000524520874 C2.1050000190734863,1.218000054359436 3.7950000762939453,-2.3269999027252197 3.811000108718872,-2.36299991607666 C3.86899995803833,-2.48799991607666 4.01800012588501,-2.5409998893737793 4.14300012588501,-2.4839999675750732 C4.269000053405762,-2.427000045776367 2.436000108718872,1.684999942779541 -2.2119998931884766,2.188999891281128 C-2.2119998931884766,2.188999891281128 -3.9489998817443848,2.5360000133514404 -3.9489998817443848,2.5360000133514404 C-3.9649999141693115,2.5390000343322754 -3.9800000190734863,2.5409998893737793 -3.996999979019165,2.5409998893737793z"></path></g><g opacity="1" transform="matrix(1,0,0,1,34.792999267578125,9.425999641418457)"><path fill="rgb(238,235,234)" fill-opacity="1" d=" M0.609000027179718,1.0099999904632568 C0.22300000488758087,1.0099999904632568 -0.1379999965429306,0.6759999990463257 -0.3019999861717224,0.15800000727176666 C-0.41200000047683716,-0.1899999976158142 -0.6159999966621399,-0.42500001192092896 -0.7570000290870667,-0.5180000066757202 C-0.8709999918937683,-0.5950000286102295 -0.9020000100135803,-0.7509999871253967 -0.824999988079071,-0.8659999966621399 C-0.7490000128746033,-0.9789999723434448 -0.5920000076293945,-1.0099999904632568 -0.4779999852180481,-0.9340000152587891 C-0.3720000088214874,-0.8629999756813049 -0.013000000268220901,-0.5860000252723694 0.17399999499320984,0.00800000037997961 C0.27900001406669617,0.33899998664855957 0.4740000069141388,0.5099999904632568 0.6100000143051147,0.5099999904632568 C0.6190000176429749,0.5099999904632568 0.6299999952316284,0.5090000033378601 0.6420000195503235,0.5099999904632568 C0.7710000276565552,0.5099999904632568 0.8799999952316284,0.6100000143051147 0.890999972820282,0.7400000095367432 C0.9020000100135803,0.878000020980835 0.7990000247955322,0.9980000257492065 0.6610000133514404,1.0089999437332153 C0.6439999938011169,1.0110000371932983 0.6269999742507935,1.0099999904632568 0.609000027179718,1.0099999904632568z"></path></g></g></g></svg>