<svg xmlns="http://www.w3.org/2000/svg" viewBox="0 0 170 25" width="170" height="25" preserveAspectRatio="xMidYMid meet" style="width: 100%; height: 100%; transform: translate3d(0px, 0px, 0px); content-visibility: visible;"><defs><clipPath id="__lottie_element_3982"><rect width="170" height="25" x="0" y="0"></rect></clipPath><mask id="__lottie_element_3987" mask-type="alpha"><g transform="matrix(0.2579987049102783,0.0018239956116303802,-0.0018239956116303802,0.2579987049102783,946.21435546875,-336.891845703125)" opacity="1" style="display: block;"><g opacity="1" transform="matrix(1,0,0,1,-3034.658935546875,1357.675048828125)"><path fill="rgb(136,212,235)" fill-opacity="1" d=" M69.34100341796875,-58.67499923706055 C69.34100341796875,-58.67499923706055 69.34100341796875,58.67499923706055 69.34100341796875,58.67499923706055 C69.34100341796875,58.67499923706055 -69.34100341796875,58.67499923706055 -69.34100341796875,58.67499923706055 C-69.34100341796875,58.67499923706055 -69.34100341796875,-58.67499923706055 -69.34100341796875,-58.67499923706055 C-69.34100341796875,-58.67499923706055 69.34100341796875,-58.67499923706055 69.34100341796875,-58.67499923706055z"></path><path stroke-linecap="butt" stroke-linejoin="miter" fill-opacity="0" stroke-miterlimit="4" stroke="rgb(135,207,214)" stroke-opacity="1" stroke-width="0" d=" M69.34100341796875,-58.67499923706055 C69.34100341796875,-58.67499923706055 69.34100341796875,58.67499923706055 69.34100341796875,58.67499923706055 C69.34100341796875,58.67499923706055 -69.34100341796875,58.67499923706055 -69.34100341796875,58.67499923706055 C-69.34100341796875,58.67499923706055 -69.34100341796875,-58.67499923706055 -69.34100341796875,-58.67499923706055 C-69.34100341796875,-58.67499923706055 69.34100341796875,-58.67499923706055 69.34100341796875,-58.67499923706055z"></path></g></g></mask><mask id="__lottie_element_3993" mask-type="alpha"><g transform="matrix(0.255007803440094,0.03921300917863846,-0.03921300917863846,0.255007803440094,839.2069702148438,-219.4486846923828)" opacity="1" style="display: block;"><g opacity="1" transform="matrix(1,0,0,1,-3034.658935546875,1357.675048828125)"><path fill="rgb(136,212,235)" fill-opacity="1" d=" M69.34100341796875,-58.67499923706055 C69.34100341796875,-58.67499923706055 69.34100341796875,58.67499923706055 69.34100341796875,58.67499923706055 C69.34100341796875,58.67499923706055 -69.34100341796875,58.67499923706055 -69.34100341796875,58.67499923706055 C-69.34100341796875,58.67499923706055 -69.34100341796875,-58.67499923706055 -69.34100341796875,-58.67499923706055 C-69.34100341796875,-58.67499923706055 69.34100341796875,-58.67499923706055 69.34100341796875,-58.67499923706055z"></path><path stroke-linecap="butt" stroke-linejoin="miter" fill-opacity="0" stroke-miterlimit="4" stroke="rgb(135,207,214)" stroke-opacity="1" stroke-width="0" d=" M69.34100341796875,-58.67499923706055 C69.34100341796875,-58.67499923706055 69.34100341796875,58.67499923706055 69.34100341796875,58.67499923706055 C69.34100341796875,58.67499923706055 -69.34100341796875,58.67499923706055 -69.34100341796875,58.67499923706055 C-69.34100341796875,58.67499923706055 -69.34100341796875,-58.67499923706055 -69.34100341796875,-58.67499923706055 C-69.34100341796875,-58.67499923706055 69.34100341796875,-58.67499923706055 69.34100341796875,-58.67499923706055z"></path></g></g></mask></defs><g clip-path="url(#__lottie_element_3982)"><g mask="url(#__lottie_element_3987)" style="display: block;"><g transform="matrix(1.5456653833389282,0.08498361706733704,-0.08498361706733704,1.5456653833389282,154.69317626953125,1.0091841220855713)" opacity="1"><g opacity="1" transform="matrix(1,0,0,1,4.761000156402588,7.308000087738037)"><path fill="rgb(175,154,166)" fill-opacity="1" d=" M4.506999969482422,7.057000160217285 C4.506999969482422,7.057000160217285 4.506999969482422,-2.549999952316284 4.506999969482422,-2.549999952316284 C4.506999969482422,-5.0289998054504395 2.4790000915527344,-7.057000160217285 0,-7.057000160217285 C-2.4790000915527344,-7.057000160217285 -4.506999969482422,-5.0289998054504395 -4.506999969482422,-2.549999952316284 C-4.506999969482422,-2.549999952316284 -4.506999969482422,7.057000160217285 -4.506999969482422,7.057000160217285 C-4.506999969482422,7.057000160217285 4.506999969482422,7.057000160217285 4.506999969482422,7.057000160217285z"></path></g><g opacity="1" transform="matrix(1,0,0,1,0,0)"><path stroke-linecap="round" stroke-linejoin="round" fill-opacity="0" stroke="rgb(195,195,194)" stroke-opacity="1" stroke-width="0.8" d=" M2.872999906539917,5.63100004196167 C2.872999906539917,5.63100004196167 6.646999835968018,5.63100004196167 6.646999835968018,5.63100004196167"></path></g><g opacity="1" transform="matrix(1,0,0,1,0,0)"><path stroke-linecap="round" stroke-linejoin="round" fill-opacity="0" stroke="rgb(195,195,194)" stroke-opacity="1" stroke-width="0.8" d=" M2,8.140999794006348 C2,8.140999794006348 7.520999908447266,8.140999794006348 7.520999908447266,8.140999794006348"></path></g></g></g><g mask="url(#__lottie_element_3993)" style="display: block;"><g transform="matrix(1.5395197868347168,0.16181005537509918,-0.16181005537509918,1.5395197868347168,4.832661151885986,0.4822911322116852)" opacity="1"><g opacity="1" transform="matrix(1,0,0,1,4.761000156402588,7.308000087738037)"><path fill="rgb(175,154,166)" fill-opacity="1" d=" M4.506999969482422,7.057000160217285 C4.506999969482422,7.057000160217285 4.506999969482422,-2.549999952316284 4.506999969482422,-2.549999952316284 C4.506999969482422,-5.0289998054504395 2.4790000915527344,-7.057000160217285 0,-7.057000160217285 C-2.4790000915527344,-7.057000160217285 -4.506999969482422,-5.0289998054504395 -4.506999969482422,-2.549999952316284 C-4.506999969482422,-2.549999952316284 -4.506999969482422,7.057000160217285 -4.506999969482422,7.057000160217285 C-4.506999969482422,7.057000160217285 4.506999969482422,7.057000160217285 4.506999969482422,7.057000160217285z"></path></g><g opacity="1" transform="matrix(1,0,0,1,0,0)"><path stroke-linecap="round" stroke-linejoin="round" fill-opacity="0" stroke="rgb(195,195,194)" stroke-opacity="1" stroke-width="0.8" d=" M2.872999906539917,5.63100004196167 C2.872999906539917,5.63100004196167 6.646999835968018,5.63100004196167 6.646999835968018,5.63100004196167"></path></g><g opacity="1" transform="matrix(1,0,0,1,0,0)"><path stroke-linecap="round" stroke-linejoin="round" fill-opacity="0" stroke="rgb(195,195,194)" stroke-opacity="1" stroke-width="0.8" d=" M2,8.140999794006348 C2,8.140999794006348 7.520999908447266,8.140999794006348 7.520999908447266,8.140999794006348"></path></g></g></g></g></svg>