<svg xmlns="http://www.w3.org/2000/svg" viewBox="0 0 323 232" width="323" height="232" preserveAspectRatio="xMidYMid meet" style="width: 100%; height: 100%; transform: translate3d(0px, 0px, 0px); content-visibility: visible;"><defs><clipPath id="__lottie_element_297"><rect width="323" height="232" x="0" y="0"></rect></clipPath></defs><g clip-path="url(#__lottie_element_297)"><g transform="matrix(0.18136480450630188,-0.2792772948741913,0.2792772948741913,0.18136480450630188,-204.2618408203125,346.3283386230469)" opacity="1" style="display: block;"><g opacity="1" transform="matrix(1,0,0,1,928.60400390625,429.26800537109375)"><path fill="rgb(0,155,79)" fill-opacity="1" d=" M37.61600112915039,8.923999786376953 C37.61600112915039,8.923999786376953 25.538999557495117,-15.442999839782715 4.468999862670898,-20.687000274658203 C-12.020999908447266,-24.790000915527344 -29.086999893188477,-15.989999771118164 -35.742000579833984,-11.961999893188477 C-36.5629997253418,-11.46500015258789 -37.152000427246094,-10.670000076293945 -37.382999420166016,-9.73799991607666 C-37.6150016784668,-8.807000160217285 -37.46799850463867,-7.828999996185303 -36.97600173950195,-7.00600004196167 C-32.98500061035156,-0.328000009059906 -22.031999588012695,15.444000244140625 -5.541999816894531,19.547000885009766 C15.529000282287598,24.790000915527344 37.61600112915039,8.923999786376953 37.61600112915039,8.923999786376953z"></path></g></g><g transform="matrix(0.3330000042915344,0,0,0.3330000042915344,0.8621312379837036,2.7383735179901123)" opacity="1" style="display: block;"><g opacity="1" transform="matrix(1,0,0,1,157.94000244140625,444.6319885253906)"><path fill="rgb(0,155,79)" fill-opacity="1" d=" M-23.891000747680664,29.941999435424805 C-23.891000747680664,29.941999435424805 3.302999973297119,29.915000915527344 17.340999603271484,13.350000381469727 C28.32699966430664,0.38499999046325684 28.000999450683594,-18.812999725341797 27.339000701904297,-26.56399917602539 C27.256999969482422,-27.520000457763672 26.80500030517578,-28.399999618530273 26.07200050354004,-29.020999908447266 C25.34000015258789,-29.641000747680664 24.398000717163086,-29.941999435424805 23.44099998474121,-29.865999221801758 C15.687000274658203,-29.246000289916992 -3.305000066757202,-26.41900062561035 -14.289999961853027,-13.454000473022461 C-28.327999114990234,3.1110000610351562 -23.891000747680664,29.941999435424805 -23.891000747680664,29.941999435424805z"></path></g><g opacity="1" transform="matrix(1,0,0,1,106.5530014038086,426.0469970703125)"><path fill="rgb(0,155,79)" fill-opacity="1" d=" M-38.4739990234375,-3.937999963760376 C-38.4739990234375,-3.937999963760376 -23.180999755859375,18.548999786376953 -1.590999960899353,20.863000869750977 C15.305000305175781,22.67300033569336 31.006999969482422,11.623000144958496 37.04899978637695,6.7230000495910645 C37.79399871826172,6.118000030517578 38.26900100708008,5.25 38.37099838256836,4.296000003814697 C38.4739990234375,3.3420000076293945 38.19300079345703,2.3919999599456787 37.59299850463867,1.6440000534057617 C32.72600173950195,-4.425000190734863 19.72100067138672,-18.551000595092773 2.825000047683716,-20.361000061035156 C-18.764999389648438,-22.67300033569336 -38.4739990234375,-3.937999963760376 -38.4739990234375,-3.937999963760376z"></path></g><g opacity="1" transform="matrix(1,0,0,1,141.50100708007812,403.4159851074219)"><path fill="rgb(0,155,79)" fill-opacity="1" d=" M-30.39699935913086,-23.350000381469727 C-30.39699935913086,-23.350000381469727 -29.85099983215332,3.8399999141693115 -13.022000312805176,17.55900001525879 C0.15000000596046448,28.29599952697754 19.339000701904297,27.604000091552734 27.076000213623047,26.79400062561035 C28.030000686645508,26.694000244140625 28.902000427246094,26.22599983215332 29.507999420166016,25.48200035095215 C30.11400032043457,24.738000869750977 30.39699935913086,23.790000915527344 30.30299949645996,22.836000442504883 C29.535999298095703,15.093999862670898 26.34600067138672,-3.8399999141693115 13.175000190734863,-14.57699966430664 C-3.6559998989105225,-28.29599952697754 -30.39699935913086,-23.350000381469727 -30.39699935913086,-23.350000381469727z"></path></g><g opacity="1" transform="matrix(1,0,0,1,102.98600006103516,481.37298583984375)"><path fill="rgb(0,155,79)" fill-opacity="1" d=" M-23.891000747680664,29.941999435424805 C-23.891000747680664,29.941999435424805 3.303999900817871,29.916000366210938 17.340999603271484,13.350000381469727 C28.32699966430664,0.38600000739097595 28.000999450683594,-18.812999725341797 27.33799934387207,-26.56399917602539 C27.256999969482422,-27.520000457763672 26.80500030517578,-28.399999618530273 26.072999954223633,-29.020999908447266 C25.340999603271484,-29.641000747680664 24.39900016784668,-29.941999435424805 23.441999435424805,-29.865999221801758 C15.687999725341797,-29.246000289916992 -3.303999900817871,-26.41900062561035 -14.289999961853027,-13.454000473022461 C-28.32699966430664,3.111999988555908 -23.891000747680664,29.941999435424805 -23.891000747680664,29.941999435424805z"></path></g><g opacity="1" transform="matrix(1,0,0,1,145.16299438476562,482.52301025390625)"><path fill="rgb(0,155,79)" fill-opacity="1" d=" M-23.891000747680664,29.941999435424805 C-23.891000747680664,29.941999435424805 3.303999900817871,29.916000366210938 17.341999053955078,13.350000381469727 C28.32699966430664,0.38499999046325684 28.000999450683594,-18.812999725341797 27.339000701904297,-26.56399917602539 C27.256999969482422,-27.520000457763672 26.80500030517578,-28.399999618530273 26.072999954223633,-29.020999908447266 C25.340999603271484,-29.641000747680664 24.39900016784668,-29.941999435424805 23.441999435424805,-29.865999221801758 C15.687999725341797,-29.246000289916992 -3.303999900817871,-26.41900062561035 -14.289999961853027,-13.454000473022461 C-28.32699966430664,3.111999988555908 -23.891000747680664,29.941999435424805 -23.891000747680664,29.941999435424805z"></path></g></g><g transform="matrix(0.32980459928512573,0.04602092131972313,-0.04602092131972313,0.32980459928512573,21.69964027404785,-33.21211242675781)" opacity="1" style="display: block;"><g opacity="1" transform="matrix(1,0,0,1,862.7449951171875,457.64898681640625)"><path fill="rgb(0,155,79)" fill-opacity="1" d=" M15.598999977111816,35.255001068115234 C15.598999977111816,35.255001068115234 26.961999893188477,10.54699993133545 17.797000885009766,-9.13700008392334 C10.623000144958496,-24.541000366210938 -6.947999954223633,-32.284000396728516 -14.262999534606934,-34.92900085449219 C-15.166000366210938,-35.255001068115234 -16.15399932861328,-35.2130012512207 -17.024999618530273,-34.80799865722656 C-17.893999099731445,-34.40299987792969 -18.562000274658203,-33.67300033569336 -18.89299964904785,-32.77299880981445 C-21.577999114990234,-25.472000122070312 -26.961999893188477,-7.039999961853027 -19.788999557495117,8.36400032043457 C-10.623000144958496,28.04800033569336 15.598999977111816,35.255001068115234 15.598999977111816,35.255001068115234z"></path></g><g opacity="1" transform="matrix(1,0,0,1,865.5549926757812,426.75)"><path fill="rgb(79,183,79)" fill-opacity="1" d=" M35.827999114990234,14.281999588012695 C35.827999114990234,14.281999588012695 27.604999542236328,-11.640000343322754 7.578000068664551,-20.031999588012695 C-8.093999862670898,-26.599000930786133 -26.302000045776367,-20.5 -33.49300003051758,-17.533000946044922 C-34.38100051879883,-17.16699981689453 -35.08399963378906,-16.47100067138672 -35.45500183105469,-15.586000442504883 C-35.82500076293945,-14.701000213623047 -35.827999114990234,-13.711000442504883 -35.46699905395508,-12.821000099182129 C-32.53900146484375,-5.613999843597412 -24.118000030517578,11.640000343322754 -8.444999694824219,18.20800018310547 C11.581000328063965,26.597999572753906 35.827999114990234,14.281999588012695 35.827999114990234,14.281999588012695z"></path></g><g opacity="1" transform="matrix(1,0,0,1,872.9559936523438,375.9049987792969)"><path fill="rgb(113,190,68)" fill-opacity="1" d=" M29.02899932861328,-24.641000747680664 C29.02899932861328,-24.641000747680664 2.0969998836517334,-28.422000885009766 -14.121999740600586,-13.986000061035156 C-26.815000534057617,-2.687000036239624 -29.179000854492188,16.368000030517578 -29.610000610351562,24.135000228881836 C-29.66200065612793,25.093000411987305 -29.339000701904297,26.027999877929688 -28.700000762939453,26.7450008392334 C-28.062999725341797,27.461000442504883 -27.17099952697754,27.891000747680664 -26.214000701904297,27.950000762939453 C-18.448999404907227,28.422000885009766 0.7509999871253967,28.2810001373291 13.444000244140625,16.983999252319336 C29.66200065612793,2.5460000038146973 29.02899932861328,-24.641000747680664 29.02899932861328,-24.641000747680664z"></path></g></g><g transform="matrix(0.32369065284729004,0.07818799465894699,-0.07818799465894699,0.32369065284729004,40.7069091796875,-59.37017059326172)" opacity="1" style="display: block;"><g opacity="1" transform="matrix(1,0,0,1,928.60400390625,429.26800537109375)"><path fill="rgb(0,155,79)" fill-opacity="1" d=" M37.61600112915039,8.923999786376953 C37.61600112915039,8.923999786376953 25.538999557495117,-15.442999839782715 4.468999862670898,-20.687000274658203 C-12.020999908447266,-24.790000915527344 -29.086999893188477,-15.989999771118164 -35.742000579833984,-11.961999893188477 C-36.5629997253418,-11.46500015258789 -37.152000427246094,-10.670000076293945 -37.382999420166016,-9.73799991607666 C-37.6150016784668,-8.807000160217285 -37.46799850463867,-7.828999996185303 -36.97600173950195,-7.00600004196167 C-32.98500061035156,-0.328000009059906 -22.031999588012695,15.444000244140625 -5.541999816894531,19.547000885009766 C15.529000282287598,24.790000915527344 37.61600112915039,8.923999786376953 37.61600112915039,8.923999786376953z"></path></g></g><g transform="matrix(0.3238973021507263,0.07732744514942169,-0.07732744514942169,0.3238973021507263,39.99570846557617,-58.84920883178711)" opacity="1" style="display: block;"><g opacity="1" transform="matrix(1,0,0,1,925.0770263671875,388.9230041503906)"><path fill="rgb(113,190,68)" fill-opacity="1" d=" M29.02899932861328,-24.641000747680664 C29.02899932861328,-24.641000747680664 2.0969998836517334,-28.422000885009766 -14.121999740600586,-13.986000061035156 C-26.815000534057617,-2.687000036239624 -29.179000854492188,16.368000030517578 -29.608999252319336,24.135000228881836 C-29.66200065612793,25.093000411987305 -29.339000701904297,26.027999877929688 -28.700000762939453,26.7450008392334 C-28.062999725341797,27.461999893188477 -27.17099952697754,27.891000747680664 -26.214000701904297,27.950000762939453 C-18.448999404907227,28.422000885009766 0.7509999871253967,28.281999588012695 13.444000244140625,16.983999252319336 C29.66200065612793,2.5460000038146973 29.02899932861328,-24.641000747680664 29.02899932861328,-24.641000747680664z"></path></g></g><g transform="matrix(0.32369065284729004,0.07818799465894699,-0.07818799465894699,0.32369065284729004,40.673404693603516,-58.84329605102539)" opacity="1" style="display: block;"><g opacity="1" transform="matrix(1,0,0,1,903.1489868164062,448.77899169921875)"><path fill="rgb(79,183,79)" fill-opacity="1" d=" M26.208999633789062,27.358999252319336 C26.208999633789062,27.358999252319336 28.834999084472656,0.29100000858306885 13.720000267028809,-15.29699993133545 C1.8890000581741333,-27.4950008392334 -17.249000549316406,-29.04400062561035 -25.027999877929688,-29.142000198364258 C-25.98699951171875,-29.15399932861328 -26.908000946044922,-28.790000915527344 -27.597000122070312,-28.121999740600586 C-28.28499984741211,-27.45400047302246 -28.677000045776367,-26.545000076293945 -28.694000244140625,-25.586000442504883 C-28.834999084472656,-17.808000564575195 -27.874000549316406,1.36899995803833 -16.042999267578125,13.567000389099121 C-0.9259999990463257,29.15399932861328 26.208999633789062,27.358999252319336 26.208999633789062,27.358999252319336z"></path></g></g><g transform="matrix(0.3328457772731781,-0.010133501142263412,0.010133501142263412,0.3328457772731781,-0.9013318419456482,4.825172424316406)" opacity="1" style="display: block;"><g opacity="1" transform="matrix(1,0,0,1,182.072998046875,149.77699279785156)"><path fill="rgb(113,190,68)" fill-opacity="1" d=" M-21.349000930786133,-31.929000854492188 C-21.349000930786133,-31.929000854492188 -28.10099983215332,-5.585999965667725 -15.557999610900879,12.137999534606934 C-5.742000102996826,26.009000778198242 12.932000160217285,30.479000091552734 20.60300064086914,31.770000457763672 C21.548999786376953,31.929000854492188 22.514999389648438,31.711000442504883 23.29800033569336,31.156999588012695 C24.08099937438965,30.60300064086914 24.607999801635742,29.764999389648438 24.77199935913086,28.81999969482422 C26.106000900268555,21.155000686645508 28.10099983215332,2.058000087738037 18.284000396728516,-11.812999725341797 C5.739999771118164,-29.535999298095703 -21.349000930786133,-31.929000854492188 -21.349000930786133,-31.929000854492188z"></path></g></g><g transform="matrix(0.3330000042915344,0,0,0.3330000042915344,0.8621312379837036,2.7383735179901123)" opacity="1" style="display: block;"><g opacity="1" transform="matrix(1,0,0,1,217.1999969482422,148.72799682617188)"><path fill="rgb(0,155,79)" fill-opacity="1" d=" M-27.819000244140625,-25.785999298095703 C-27.819000244140625,-25.785999298095703 -29.29800033569336,1.3700000047683716 -13.53600025177002,16.304000854492188 C-1.2000000476837158,27.990999221801758 17.98699951171875,28.72800064086914 25.76300048828125,28.496999740600586 C26.722000122070312,28.468000411987305 27.625999450683594,28.06599998474121 28.285999298095703,27.368999481201172 C28.945999145507812,26.67300033569336 29.29800033569336,25.749000549316406 29.274999618530273,24.788999557495117 C29.086999893188477,17.011999130249023 27.315000534057617,-2.1070001125335693 14.979000091552734,-13.793999671936035 C-0.7839999794960022,-28.726999282836914 -27.819000244140625,-25.785999298095703 -27.819000244140625,-25.785999298095703z"></path></g><g opacity="1" transform="matrix(1,0,0,1,182.8939971923828,189.13999938964844)"><path fill="rgb(113,190,68)" fill-opacity="1" d=" M-35.917999267578125,-14.062999725341797 C-35.917999267578125,-14.062999725341797 -27.527999877929688,11.805999755859375 -7.447999954223633,20.06800079345703 C8.265999794006348,26.53499984741211 26.433000564575195,20.319000244140625 33.604000091552734,17.305999755859375 C34.48899841308594,16.93400001525879 35.1879997253418,16.233999252319336 35.553001403808594,15.345999717712402 C35.917999267578125,14.458999633789062 35.91400146484375,13.468999862670898 35.54800033569336,12.583000183105469 C32.57400131225586,5.394999980926514 24.04199981689453,-11.807000160217285 8.32699966430664,-18.273000717163086 C-11.753000259399414,-26.53499984741211 -35.917999267578125,-14.062999725341797 -35.917999267578125,-14.062999725341797z"></path></g><g opacity="1" transform="matrix(1,0,0,1,249.06399536132812,163.74400329589844)"><path fill="rgb(0,155,79)" fill-opacity="1" d=" M-10.809000015258789,-37.09400177001953 C-10.809000015258789,-37.09400177001953 -25.483999252319336,-14.196999549865723 -19.132999420166016,6.566999912261963 C-14.163000106811523,22.816999435424805 2.1670000553131104,32.917999267578125 9.045999526977539,36.54999923706055 C9.895000457763672,36.99800109863281 10.878999710083008,37.09400177001953 11.79699993133545,36.8129997253418 C12.71500015258789,36.53200149536133 13.477999687194824,35.902000427246094 13.930000305175781,35.055999755859375 C17.600000381469727,28.19700050354004 25.483999252319336,10.689000129699707 20.513999938964844,-5.559999942779541 C14.161999702453613,-26.323999404907227 -10.809000015258789,-37.09400177001953 -10.809000015258789,-37.09400177001953z"></path></g></g><g transform="matrix(0.33290693163871765,-0.00787248183041811,0.00787248183041811,0.33290693163871765,-0.11797696352005005,4.826503276824951)" opacity="1" style="display: block;"><g opacity="1" transform="matrix(1,0,0,1,252.71600341796875,94.27999877929688)"><path fill="rgb(79,183,79)" fill-opacity="1" d=" M-11.185999870300293,-36.97600173950195 C-11.185999870300293,-36.97600173950195 -25.614999771118164,-13.925000190734863 -19.042999267578125,6.770999908447266 C-13.89900016784668,22.965999603271484 2.5380001068115234,32.893001556396484 9.454999923706055,36.45100021362305 C10.309000015258789,36.88999938964844 11.293000221252441,36.97600173950195 12.208000183105469,36.685001373291016 C13.123000144958496,36.39500045776367 13.878999710083008,35.75600051879883 14.322999954223633,34.904998779296875 C17.91900062561035,28.007999420166016 25.615999221801758,10.416999816894531 20.472000122070312,-5.7789998054504395 C13.89900016784668,-26.474000930786133 -11.185999870300293,-36.97600173950195 -11.185999870300293,-36.97600173950195z"></path></g></g><g transform="matrix(0.3328387439250946,-0.010362442582845688,0.010362442582845688,0.3328387439250946,-0.6871703863143921,5.496090888977051)" opacity="1" style="display: block;"><g opacity="1" transform="matrix(1,0,0,1,237.52999877929688,127.98200225830078)"><path fill="rgb(113,190,68)" fill-opacity="1" d=" M-26.746000289916992,-26.77199935913086 C-26.746000289916992,-26.77199935913086 -28.966999053955078,0.3319999873638153 -13.619999885559082,15.690999984741211 C-1.6080000400543213,27.711000442504883 17.552000045776367,28.974000930786133 25.33099937438965,28.954999923706055 C26.291000366210938,28.952999114990234 27.204999923706055,28.575000762939453 27.884000778198242,27.89699935913086 C28.562999725341797,27.2189998626709 28.94099998474121,26.304000854492188 28.944000244140625,25.344999313354492 C28.968000411987305,17.56599998474121 27.7189998626709,-1.5950000286102295 15.708000183105469,-13.614999771118164 C0.35899999737739563,-28.974000930786133 -26.746000289916992,-26.77199935913086 -26.746000289916992,-26.77199935913086z"></path></g></g><g transform="matrix(0.33288854360580444,-0.00861488189548254,0.00861488189548254,0.33288854360580444,0.07551424950361252,8.529970169067383)" opacity="1" style="display: block;"><g opacity="1" transform="matrix(1,0,0,1,683.1710205078125,72.71700286865234)"><path fill="rgb(113,190,68)" fill-opacity="1" d=" M14.187999725341797,-35.86600112915039 C14.187999725341797,-35.86600112915039 -11.711000442504883,-27.570999145507812 -20.047000885009766,-7.520999908447266 C-26.570999145507812,8.170000076293945 -20.422000885009766,26.360000610351562 -17.434999465942383,33.54199981689453 C-17.06599998474121,34.428001403808594 -16.368999481201172,35.130001068115234 -15.482000350952148,35.49800109863281 C-14.597000122070312,35.86600112915039 -13.607000350952148,35.86600112915039 -12.718999862670898,35.50299835205078 C-5.519999980926514,32.55500030517578 11.711999893188477,24.086000442504883 18.236000061035156,8.395000457763672 C26.570999145507812,-11.654999732971191 14.187999725341797,-35.86600112915039 14.187999725341797,-35.86600112915039z"></path></g></g><g transform="matrix(0.3329263925552368,-0.007001599296927452,0.007001599296927452,0.3329263925552368,0.009723168797791004,7.287236213684082)" opacity="1" style="display: block;"><g opacity="1" transform="matrix(1,0,0,1,647.3690185546875,99.43699645996094)"><path fill="rgb(113,190,68)" fill-opacity="1" d=" M1.0759999752044678,-38.64099884033203 C1.0759999752044678,-38.64099884033203 -20.156999588012695,-21.64900016784668 -20.788999557495117,0.054999999701976776 C-21.283000946044922,17.041000366210938 -9.04800033569336,31.839000701904297 -3.694000005722046,37.483001708984375 C-3.0329999923706055,38.178001403808594 -2.13100004196167,38.584999084472656 -1.1720000505447388,38.61199951171875 C-0.21299999952316284,38.64099884033203 0.7120000123977661,38.2869987487793 1.4110000133514404,37.63100051879883 C7.084000110626221,32.30799865722656 20.15999984741211,18.246999740600586 20.65399932861328,1.2610000371932983 C21.284000396728516,-20.44300079345703 1.0759999752044678,-38.64099884033203 1.0759999752044678,-38.64099884033203z"></path></g></g><g transform="matrix(0.3328702449798584,-0.009295445866882801,0.009295445866882801,0.3328702449798584,-0.12740762531757355,8.94114875793457)" opacity="1" style="display: block;"><g opacity="1" transform="matrix(1,0,0,1,695.364990234375,112.3280029296875)"><path fill="rgb(113,190,68)" fill-opacity="1" d=" M38.06999969482422,-6.811999797821045 C38.06999969482422,-6.811999797821045 16.94700050354004,-23.941999435424805 -4.394000053405762,-19.940000534057617 C-21.09600067138672,-16.808000564575195 -32.95000076293945,-1.7029999494552612 -37.32500076293945,4.729000091552734 C-37.86399841308594,5.521999835968018 -38.06999969482422,6.491000175476074 -37.893001556396484,7.434000015258789 C-37.715999603271484,8.376999855041504 -37.17399978637695,9.204999923706055 -36.38399887084961,9.74899959564209 C-29.97599983215332,14.159000396728516 -13.45300006866455,23.941999435424805 3.247999906539917,20.809999465942383 C24.59000015258789,16.80699920654297 38.06999969482422,-6.811999797821045 38.06999969482422,-6.811999797821045z"></path></g></g><g transform="matrix(0.3329998552799225,0.0003268787113483995,-0.0003268787113483995,0.3329998552799225,0.9230647087097168,2.5343542098999023)" opacity="1" style="display: block;"><g opacity="1" transform="matrix(1,0,0,1,628.8909912109375,80.5770034790039)"><path fill="rgb(0,155,79)" fill-opacity="1" d=" M22.55699920654297,-31.031999588012695 C22.55699920654297,-31.031999588012695 -4.609000205993652,-29.740999221801758 -17.861000061035156,-12.541999816894531 C-28.233999252319336,0.9190000295639038 -27.014999389648438,20.08099937438965 -25.993999481201172,27.792999267578125 C-25.868000030517578,28.743999481201172 -25.375999450683594,29.60300064086914 -24.615999221801758,30.18899917602539 C-23.856000900268555,30.77400016784668 -22.900999069213867,31.031999588012695 -21.948999404907227,30.910999298095703 C-14.232000350952148,29.933000564575195 4.609000205993652,26.225000381469727 14.979999542236328,12.765000343322754 C28.232999801635742,-4.434999942779541 22.55699920654297,-31.031999588012695 22.55699920654297,-31.031999588012695z"></path></g><g opacity="1" transform="matrix(1,0,0,1,613.3400268554688,158.88999938964844)"><path fill="rgb(0,155,79)" fill-opacity="1" d=" M-6.7829999923706055,-38.07500076293945 C-6.7829999923706055,-38.07500076293945 -23.93000030517578,-16.966999053955078 -19.94499969482422,4.377999782562256 C-16.825000762939453,21.082000732421875 -1.7300000190734863,32.95000076293945 4.698999881744385,37.33000183105469 C5.492000102996826,37.869998931884766 6.459000110626221,38.07400131225586 7.4029998779296875,37.89799880981445 C8.345000267028809,37.72200012207031 9.175000190734863,37.18199920654297 9.720000267028809,36.391998291015625 C14.135000228881836,29.988000869750977 23.930999755859375,13.472999572753906 20.81100082397461,-3.2320001125335693 C16.825000762939453,-24.576000213623047 -6.7829999923706055,-38.07500076293945 -6.7829999923706055,-38.07500076293945z"></path></g><g opacity="1" transform="matrix(1,0,0,1,595.1630249023438,107.33699798583984)"><path fill="rgb(0,155,79)" fill-opacity="1" d=" M0.9589999914169312,-38.643001556396484 C0.9589999914169312,-38.643001556396484 -20.22100067138672,-21.58300018310547 -20.784000396728516,0.12300000339746475 C-21.225000381469727,17.110000610351562 -8.942000389099121,31.868999481201172 -3.571000099182129,37.49599838256836 C-2.9079999923706055,38.189998626708984 -2.005000114440918,38.59299850463867 -1.0449999570846558,38.61800003051758 C-0.0860000029206276,38.643001556396484 0.8370000123977661,38.2869987487793 1.534999966621399,37.62900161743164 C7.190999984741211,32.28799819946289 20.222000122070312,18.184999465942383 20.663000106811523,1.1979999542236328 C21.225000381469727,-20.507999420166016 0.9589999914169312,-38.643001556396484 0.9589999914169312,-38.643001556396484z"></path></g><g opacity="1" transform="matrix(1,0,0,1,655.3820190429688,148.13600158691406)"><path fill="rgb(79,183,79)" fill-opacity="1" d=" M21.049999237060547,-32.138999938964844 C21.049999237060547,-32.138999938964844 -6.013999938964844,-29.479000091552734 -18.382999420166016,-11.633000373840332 C-28.062000274658203,2.3340001106262207 -25.878999710083008,21.410999298095703 -24.469999313354492,29.06100082397461 C-24.29599952697754,30.0049991607666 -23.761999130249023,30.836999893188477 -22.972000122070312,31.384000778198242 C-22.18400001525879,31.93000030517578 -21.216999053955078,32.138999938964844 -20.27199935913086,31.969999313354492 C-12.614999771118164,30.60300064086914 6.014999866485596,25.950000762939453 15.694000244140625,11.982999801635742 C28.062000274658203,-5.863999843597412 21.049999237060547,-32.138999938964844 21.049999237060547,-32.138999938964844z"></path></g><g opacity="1" transform="matrix(1,0,0,1,694.9710083007812,146.51199340820312)"><path fill="rgb(79,183,79)" fill-opacity="1" d=" M-7.072999954223633,-38.020999908447266 C-7.072999954223633,-38.020999908447266 -24.051000595092773,-16.774999618530273 -19.895999908447266,4.5370001792907715 C-16.64299964904785,21.21500015258789 -1.4529999494552612,32.96099853515625 5.010000228881836,37.290000915527344 C5.807000160217285,37.823001861572266 6.7769999504089355,38.020999908447266 7.718999862670898,37.83700180053711 C8.66100025177002,37.65399932861328 9.484999656677246,37.10599899291992 10.02299976348877,36.3120002746582 C14.38700008392334,29.871999740600586 24.051000595092773,13.279999732971191 20.798999786376953,-3.3989999294281006 C16.642000198364258,-24.711000442504883 -7.072999954223633,-38.020999908447266 -7.072999954223633,-38.020999908447266z"></path></g><g opacity="1" transform="matrix(1,0,0,1,624.8619995117188,116.99500274658203)"><path fill="rgb(79,183,79)" fill-opacity="1" d=" M-12.324000358581543,-36.590999603271484 C-12.324000358581543,-36.590999603271484 -25.996999740600586,-13.083000183105469 -18.756000518798828,7.388000011444092 C-13.08899974822998,23.408000946044922 3.6600000858306885,32.79499816894531 10.6899995803833,36.12699890136719 C11.557000160217285,36.5369987487793 12.545999526977539,36.590999603271484 13.451000213623047,36.270999908447266 C14.354999542236328,35.95100021362305 15.08899974822998,35.28799819946289 15.505000114440918,34.42300033569336 C18.875,27.41200065612793 25.99799919128418,9.579999923706055 20.33099937438965,-6.440000057220459 C13.08899974822998,-26.90999984741211 -12.324000358581543,-36.590999603271484 -12.324000358581543,-36.590999603271484z"></path></g></g><g transform="matrix(0.3330000042915344,0,0,0.3330000042915344,0.8621312379837036,2.7383735179901123)" opacity="1" style="display: block;"><g opacity="1" transform="matrix(1,0,0,1,860.3660278320312,324.864990234375)"><path fill="rgb(0,155,79)" fill-opacity="1" d=" M37.292999267578125,10.137999534606934 C37.292999267578125,10.137999534606934 26.052000045776367,-14.625 5.171999931335449,-20.582000732421875 C-11.168999671936035,-25.243000030517578 -28.524999618530273,-17.027999877929688 -35.3129997253418,-13.229000091552734 C-36.150001525878906,-12.760000228881836 -36.766998291015625,-11.986000061035156 -37.029998779296875,-11.062000274658203 C-37.292999267578125,-10.140000343322754 -37.178001403808594,-9.156999588012695 -36.7140007019043,-8.317000389099121 C-32.95199966430664,-1.5080000162124634 -22.54199981689453,14.626999855041504 -6.201000213623047,19.288000106811523 C14.680000305175781,25.243000030517578 37.292999267578125,10.137999534606934 37.292999267578125,10.137999534606934z"></path></g><g opacity="1" transform="matrix(1,0,0,1,828.301025390625,315.69500732421875)"><path fill="rgb(0,155,79)" fill-opacity="1" d=" M15.605999946594238,-35.25199890136719 C15.605999946594238,-35.25199890136719 -10.618000030517578,-28.049999237060547 -19.78700065612793,-8.368000030517578 C-26.96299934387207,7.035999774932861 -21.58300018310547,25.468000411987305 -18.89900016784668,32.76900100708008 C-18.56800079345703,33.66999816894531 -17.899999618530273,34.400001525878906 -17.030000686645508,34.805999755859375 C-16.160999298095703,35.21099853515625 -15.170999526977539,35.25199890136719 -14.269000053405762,34.92599868774414 C-6.953000068664551,32.28300094604492 10.619999885559082,24.542999267578125 17.795000076293945,9.140000343322754 C26.964000701904297,-10.543000221252441 15.605999946594238,-35.25199890136719 15.605999946594238,-35.25199890136719z"></path></g><g opacity="1" transform="matrix(1,0,0,1,862.2379760742188,281.0559997558594)"><path fill="rgb(0,155,79)" fill-opacity="1" d=" M28.871000289916992,-24.79400062561035 C28.871000289916992,-24.79400062561035 1.9240000247955322,-28.464000701904297 -14.236000061035156,-13.961999893188477 C-26.882999420166016,-2.611999988555908 -29.170000076293945,16.452999114990234 -29.56800079345703,24.222000122070312 C-29.617000579833984,25.18000030517578 -29.288999557495117,26.11400032043457 -28.648000717163086,26.827999114990234 C-28.006999969482422,27.54199981689453 -27.11400032043457,27.968000411987305 -26.1560001373291,28.023000717163086 C-18.388999938964844,28.464000701904297 0.8109999895095825,28.243999481201172 13.456999778747559,16.893999099731445 C29.617000579833984,2.390000104904175 28.871000289916992,-24.79400062561035 28.871000289916992,-24.79400062561035z"></path></g><g opacity="1" transform="matrix(1,0,0,1,894.5059814453125,340.531005859375)"><path fill="rgb(0,155,79)" fill-opacity="1" d=" M37.292999267578125,10.13700008392334 C37.292999267578125,10.13700008392334 26.052000045776367,-14.625 5.171999931335449,-20.582000732421875 C-11.168999671936035,-25.243000030517578 -28.524999618530273,-17.027999877929688 -35.3129997253418,-13.227999687194824 C-36.150001525878906,-12.758999824523926 -36.766998291015625,-11.984999656677246 -37.029998779296875,-11.062000274658203 C-37.292999267578125,-10.140000343322754 -37.178001403808594,-9.157999992370605 -36.7140007019043,-8.317999839782715 C-32.95199966430664,-1.5089999437332153 -22.54199981689453,14.62600040435791 -6.201000213623047,19.28700065612793 C14.680000305175781,25.243000030517578 37.292999267578125,10.13700008392334 37.292999267578125,10.13700008392334z"></path></g><g opacity="1" transform="matrix(1,0,0,1,916.426025390625,296.75299072265625)"><path fill="rgb(0,155,79)" fill-opacity="1" d=" M37.292999267578125,10.13700008392334 C37.292999267578125,10.13700008392334 26.052000045776367,-14.62600040435791 5.171999931335449,-20.58300018310547 C-11.168999671936035,-25.243999481201172 -28.524999618530273,-17.02899932861328 -35.3129997253418,-13.229000091552734 C-36.1510009765625,-12.760000228881836 -36.766998291015625,-11.984999656677246 -37.029998779296875,-11.062000274658203 C-37.292999267578125,-10.140000343322754 -37.178001403808594,-9.156999588012695 -36.7140007019043,-8.317000389099121 C-32.952999114990234,-1.5080000162124634 -22.54199981689453,14.626999855041504 -6.201000213623047,19.288000106811523 C14.680000305175781,25.243999481201172 37.292999267578125,10.13700008392334 37.292999267578125,10.13700008392334z"></path></g><g opacity="1" transform="matrix(1,0,0,1,874.1900024414062,248.8159942626953)"><path fill="rgb(0,155,79)" fill-opacity="1" d=" M23.88599967956543,-29.947999954223633 C23.88599967956543,-29.947999954223633 -3.309000015258789,-29.913999557495117 -17.343000411987305,-13.345000267028809 C-28.326000213623047,-0.3790000081062317 -27.996000289916992,18.81999969482422 -27.33300018310547,26.570999145507812 C-27.250999450683594,27.525999069213867 -26.79800033569336,28.406999588012695 -26.06599998474121,29.027000427246094 C-25.333999633789062,29.64699935913086 -24.392000198364258,29.947999954223633 -23.43600082397461,29.871000289916992 C-15.680999755859375,29.250999450683594 3.309999942779541,26.417999267578125 14.293000221252441,13.451000213623047 C28.326000213623047,-3.117000102996826 23.88599967956543,-29.947999954223633 23.88599967956543,-29.947999954223633z"></path></g><g opacity="1" transform="matrix(1,0,0,1,802.43701171875,278.8550109863281)"><path fill="rgb(0,155,79)" fill-opacity="1" d=" M11.21500015258789,-36.96699905395508 C11.21500015258789,-36.96699905395508 -13.878999710083008,-26.485000610351562 -20.4689998626709,-5.796000003814697 C-25.625,10.395999908447266 -17.941999435424805,27.993000030517578 -14.35099983215332,34.89400100708008 C-13.909000396728516,35.744998931884766 -13.152999877929688,36.3849983215332 -12.23799991607666,36.67599868774414 C-11.324999809265137,36.96699905395508 -10.338000297546387,36.88199996948242 -9.484999656677246,36.444000244140625 C-2.565000057220459,32.89099884033203 13.880000114440918,22.97800064086914 19.03700065612793,6.785999774932861 C25.625,-13.904000282287598 11.21500015258789,-36.96699905395508 11.21500015258789,-36.96699905395508z"></path></g></g><g transform="matrix(0.3318011164665222,-0.028231605887413025,0.028231605887413025,0.3318011164665222,-0.6044895052909851,19.763517379760742)" opacity="1" style="display: block;"><g opacity="1" transform="matrix(1,0,0,1,604.8070068359375,51.71900177001953)"><path fill="rgb(113,190,68)" fill-opacity="1" d=" M12.758000373840332,-36.433998107910156 C12.758000373840332,-36.433998107910156 -12.774999618530273,-27.069000244140625 -20.270999908447266,-6.690000057220459 C-26.136999130249023,9.258000373840332 -19.238000869750977,27.177000045776367 -15.954000473022461,34.229000091552734 C-15.550000190734863,35.0989990234375 -14.822999954223633,35.770999908447266 -13.92199993133545,36.10200119018555 C-13.022000312805176,36.433998107910156 -12.032999992370605,36.391998291015625 -11.16100025177002,35.992000579833984 C-4.091000080108643,32.74800109863281 12.774999618530273,23.56999969482422 18.641000747680664,7.622000217437744 C26.13599967956543,-12.756999969482422 12.758000373840332,-36.433998107910156 12.758000373840332,-36.433998107910156z"></path></g></g><g transform="matrix(0.3320062458515167,-0.025707080960273743,0.025707080960273743,0.3320062458515167,-0.662750244140625,17.333271026611328)" opacity="1" style="display: block;"><g opacity="1" transform="matrix(1,0,0,1,565.1179809570312,52.62900161743164)"><path fill="rgb(113,190,68)" fill-opacity="1" d=" M4.789000034332275,-38.380001068115234 C4.789000034332275,-38.380001068115234 -18.04800033569336,-23.611000061035156 -20.861000061035156,-2.0799999237060547 C-23.062999725341797,14.769000053405762 -12.378999710083008,30.724000930786133 -7.619999885559082,36.87799835205078 C-7.0329999923706055,37.637001037597656 -6.176000118255615,38.13199996948242 -5.223999977111816,38.25600051879883 C-4.2729997634887695,38.380001068115234 -3.318000078201294,38.12200164794922 -2.555999994277954,37.53900146484375 C3.624000072479248,32.81399917602539 18.048999786376953,20.141000747680664 20.25,3.2909998893737793 C23.062000274658203,-18.239999771118164 4.789000034332275,-38.380001068115234 4.789000034332275,-38.380001068115234z"></path></g></g><g transform="matrix(0.33163487911224365,-0.030121589079499245,0.030121589079499245,0.33163487911224365,-0.34786972403526306,17.18953514099121)" opacity="1" style="display: block;"><g opacity="1" transform="matrix(1,0,0,1,469.2669982910156,36.90800094604492)"><path fill="rgb(113,190,68)" fill-opacity="1" d=" M-12.133999824523926,-36.65800094604492 C-12.133999824523926,-36.65800094604492 -25.93600082397461,-13.225000381469727 -18.805999755859375,7.284999847412109 C-13.22599983215332,23.336000442504883 3.4719998836517334,32.81399917602539 10.484000205993652,36.183998107910156 C11.347999572753906,36.5989990234375 12.336999893188477,36.65800094604492 13.244000434875488,36.34299850463867 C14.149999618530273,36.02799987792969 14.887999534606934,35.36899948120117 15.309000015258789,34.50699996948242 C18.718000411987305,27.513999938964844 25.934999465942383,9.720999717712402 20.354999542236328,-6.328999996185303 C13.225000381469727,-26.839000701904297 -12.133999824523926,-36.65800094604492 -12.133999824523926,-36.65800094604492z"></path></g></g><g transform="matrix(0.332985520362854,0.0031054653227329254,-0.0031054653227329254,0.332985520362854,1.2986652851104736,1.1061674356460571)" opacity="1" style="display: block;"><g opacity="1" transform="matrix(1,0,0,1,537.6610107421875,70.96800231933594)"><path fill="rgb(0,155,79)" fill-opacity="1" d=" M-6.241000175476074,-38.16899871826172 C-6.241000175476074,-38.16899871826172 -23.700000762939453,-17.319000244140625 -20.034000396728516,4.083000183105469 C-17.165000915527344,20.832000732421875 -2.247999906539917,32.922000885009766 4.114999771118164,37.39699935913086 C4.900000095367432,37.95000076293945 5.863999843597412,38.16899871826172 6.810999870300293,38.00699996948242 C7.75600004196167,37.84600067138672 8.592000007629395,37.31700134277344 9.14900016784668,36.53499984741211 C13.659000396728516,30.19700050354004 23.700000762939453,13.831000328063965 20.83099937438965,-2.9189999103546143 C17.163000106811523,-24.31999969482422 -6.241000175476074,-38.16899871826172 -6.241000175476074,-38.16899871826172z"></path></g><g opacity="1" transform="matrix(1,0,0,1,506.9930114746094,54.0099983215332)"><path fill="rgb(79,183,79)" fill-opacity="1" d=" M10.407999992370605,-37.2140007019043 C10.407999992370605,-37.2140007019043 -14.440999984741211,-26.16200065612793 -20.555999755859375,-5.328000068664551 C-25.341999053955078,10.97700023651123 -17.259000778198242,28.393999099731445 -13.51099967956543,35.21099853515625 C-13.048999786376953,36.051998138427734 -12.277999877929688,36.67399978637695 -11.357000350952148,36.944000244140625 C-10.437000274658203,37.2140007019043 -9.45300006866455,37.106998443603516 -8.609999656677246,36.650001525878906 C-1.7719999551773071,32.93899917602539 14.442000389099121,22.652999877929688 19.226999282836914,6.3480000495910645 C25.341999053955078,-14.486000061035156 10.407999992370605,-37.2140007019043 10.407999992370605,-37.2140007019043z"></path></g><g opacity="1" transform="matrix(1,0,0,1,499.40301513671875,83.9520034790039)"><path fill="rgb(113,190,68)" fill-opacity="1" d=" M-17.027999877929688,-34.558998107910156 C-17.027999877929688,-34.558998107910156 -27.31599998474121,-9.385000228881836 -17.31100082397461,9.88599967956543 C-9.480999946594238,24.968000411987305 8.409000396728516,31.945999145507812 15.831000328063965,34.27299880981445 C16.746999740600586,34.558998107910156 17.73200035095215,34.474998474121094 18.583999633789062,34.03300094604492 C19.434999465942383,33.590999603271484 20.070999145507812,32.83300018310547 20.363000869750977,31.91900062561035 C22.731000900268555,24.509000778198242 27.315000534057617,5.86299991607666 19.485000610351562,-9.218000411987305 C9.479000091552734,-28.48900032043457 -17.027999877929688,-34.558998107910156 -17.027999877929688,-34.558998107910156z"></path></g><g opacity="1" transform="matrix(1,0,0,1,569.3140258789062,81.10399627685547)"><path fill="rgb(79,183,79)" fill-opacity="1" d=" M0.9589999914169312,-38.643001556396484 C0.9589999914169312,-38.643001556396484 -20.219999313354492,-21.58300018310547 -20.784000396728516,0.12300000339746475 C-21.225000381469727,17.110000610351562 -8.942000389099121,31.868999481201172 -3.571000099182129,37.49599838256836 C-2.9079999923706055,38.189998626708984 -2.003999948501587,38.59299850463867 -1.0449999570846558,38.61800003051758 C-0.0860000029206276,38.643001556396484 0.8370000123977661,38.2869987487793 1.534999966621399,37.62900161743164 C7.190999984741211,32.28799819946289 20.222000122070312,18.184999465942383 20.663000106811523,1.1979999542236328 C21.225000381469727,-20.507999420166016 0.9589999914169312,-38.643001556396484 0.9589999914169312,-38.643001556396484z"></path></g><g opacity="1" transform="matrix(1,0,0,1,540.10302734375,110.65599822998047)"><path fill="rgb(113,190,68)" fill-opacity="1" d=" M-16.107999801635742,-35.016998291015625 C-16.107999801635742,-35.016998291015625 -27.093000411987305,-10.137999534606934 -17.6299991607666,9.404000282287598 C-10.222999572753906,24.697999954223633 7.465000152587891,32.172000885009766 14.821000099182129,34.70500183105469 C15.72700023651123,35.016998291015625 16.715999603271484,34.96099853515625 17.579999923706055,34.54199981689453 C18.44300079345703,34.124000549316406 19.100000381469727,33.38399887084961 19.41699981689453,32.479000091552734 C21.989999771118164,25.136999130249023 27.093000411987305,6.626999855041504 19.68600082397461,-8.666999816894531 C10.220999717712402,-28.208999633789062 -16.107999801635742,-35.016998291015625 -16.107999801635742,-35.016998291015625z"></path></g></g><g transform="matrix(0.33147600293159485,0.03182250261306763,-0.03182250261306763,0.33147600293159485,13.22299861907959,1.1220613718032837)" opacity="1" style="display: block;"><g opacity="1" transform="matrix(1,0,0,1,38.191001892089844,391.6789855957031)"><path fill="rgb(0,155,79)" fill-opacity="1" d=" M-37.941001892089844,7.473999977111816 C-37.941001892089844,7.473999977111816 -16.51099967956543,24.215999603271484 4.754000186920166,19.825000762939453 C21.395000457763672,16.38800048828125 32.972999572753906,1.069000005722046 37.229000091552734,-5.442999839782715 C37.75400161743164,-6.245999813079834 37.94200134277344,-7.2170000076293945 37.74800109863281,-8.156999588012695 C37.55400085449219,-9.097000122070312 36.99700164794922,-9.914999961853027 36.196998596191406,-10.444000244140625 C29.708999633789062,-14.736000061035156 13.010000228881836,-24.215999603271484 -3.63100004196167,-20.77899932861328 C-24.895999908447266,-16.386999130249023 -37.941001892089844,7.473999977111816 -37.941001892089844,7.473999977111816z"></path></g></g><g transform="matrix(0.3312568962574005,0.034027669578790665,-0.034027669578790665,0.3312568962574005,12.447041511535645,-0.22434887290000916)" opacity="1" style="display: block;"><g opacity="1" transform="matrix(1,0,0,1,72.93800354003906,331.12298583984375)"><path fill="rgb(113,190,68)" fill-opacity="1" d=" M-38.5,-3.6640000343322754 C-38.5,-3.6640000343322754 -23.040000915527344,18.708999633789062 -1.4329999685287476,20.86199951171875 C15.47599983215332,22.54599952697754 31.09600067138672,11.378000259399414 37.10100173950195,6.434000015258789 C37.84199905395508,5.823999881744385 38.31100082397461,4.952000141143799 38.404998779296875,3.996999979019165 C38.5,3.0429999828338623 38.2130012512207,2.0959999561309814 37.606998443603516,1.3519999980926514 C32.69599914550781,-4.681000232696533 19.586000442504883,-18.709999084472656 2.677000045776367,-20.393999099731445 C-18.93000030517578,-22.54599952697754 -38.5,-3.6640000343322754 -38.5,-3.6640000343322754z"></path></g></g><g transform="matrix(0.3330000042915344,0,0,0.3330000042915344,0.8621312379837036,2.7383735179901123)" opacity="1" style="display: block;"><g opacity="1" transform="matrix(1,0,0,1,148.4929962158203,312.4729919433594)"><path fill="rgb(113,190,68)" fill-opacity="1" d=" M-6.945000171661377,-38.04499816894531 C-6.945000171661377,-38.04499816894531 -23.99799919128418,-16.858999252319336 -19.917999267578125,4.4670000076293945 C-16.724000930786133,21.156999588012695 -1.5759999752044678,32.95500183105469 4.872000217437744,37.30699920654297 C5.668000221252441,37.84299850463867 6.63700008392334,38.04499816894531 7.578999996185303,37.8650016784668 C8.520999908447266,37.685001373291016 9.347999572753906,37.13999938964844 9.888999938964844,36.347999572753906 C14.276000022888184,29.92300033569336 23.99799919128418,13.364999771118164 20.80500030517578,-3.325000047683716 C16.722999572753906,-24.650999069213867 -6.945000171661377,-38.04499816894531 -6.945000171661377,-38.04499816894531z"></path></g><g opacity="1" transform="matrix(1,0,0,1,111.42400360107422,354.7130126953125)"><path fill="rgb(113,190,68)" fill-opacity="1" d=" M-37.637001037597656,8.833999633789062 C-37.637001037597656,8.833999633789062 -15.59000015258789,24.756000518798828 5.49399995803833,19.565000534057617 C21.993999481201172,15.503000259399414 32.98500061035156,-0.24300000071525574 36.992000579833984,-6.909999847412109 C37.48699951171875,-7.73199987411499 37.637001037597656,-8.708999633789062 37.40700149536133,-9.642000198364258 C37.178001403808594,-10.572999954223633 36.590999603271484,-11.369999885559082 35.770999908447266,-11.869000434875488 C29.125999450683594,-15.913999557495117 12.083000183105469,-24.7549991607666 -4.416999816894531,-20.69300079345703 C-25.500999450683594,-15.50100040435791 -37.637001037597656,8.833999633789062 -37.637001037597656,8.833999633789062z"></path></g><g opacity="1" transform="matrix(1,0,0,1,125.64399719238281,266.72601318359375)"><path fill="rgb(113,190,68)" fill-opacity="1" d=" M-8.098999977111816,-37.808998107910156 C-8.098999977111816,-37.808998107910156 -24.466999053955078,-16.091999053955078 -19.708999633789062,5.093999862670898 C-15.984999656677246,21.673999786376953 -0.46799999475479126,32.98400115966797 6.116000175476074,37.12799835205078 C6.927999973297119,37.638999938964844 7.9019999504089355,37.808998107910156 8.83899974822998,37.5989990234375 C9.774999618530273,37.38800048828125 10.583000183105469,36.81700134277344 11.098999977111816,36.007999420166016 C15.277999877929688,29.44700050354004 24.466999053955078,12.588000297546387 20.743000030517578,-3.992000102996826 C15.984000205993652,-25.17799949645996 -8.098999977111816,-37.808998107910156 -8.098999977111816,-37.808998107910156z"></path></g><g opacity="1" transform="matrix(1,0,0,1,138.51300048828125,334.0610046386719)"><path fill="rgb(0,155,79)" fill-opacity="1" d=" M-38.5,-3.6640000343322754 C-38.5,-3.6640000343322754 -23.040000915527344,18.708999633789062 -1.434000015258789,20.86199951171875 C15.47599983215332,22.54599952697754 31.094999313354492,11.378000259399414 37.10100173950195,6.434000015258789 C37.840999603271484,5.823999881744385 38.310001373291016,4.952000141143799 38.404998779296875,3.996999979019165 C38.5,3.0429999828338623 38.21200180053711,2.0959999561309814 37.606998443603516,1.3519999980926514 C32.69499969482422,-4.681000232696533 19.584999084472656,-18.709999084472656 2.6760001182556152,-20.393999099731445 C-18.93000030517578,-22.54599952697754 -38.5,-3.6640000343322754 -38.5,-3.6640000343322754z"></path></g><g opacity="1" transform="matrix(1,0,0,1,164.15699768066406,337.23699951171875)"><path fill="rgb(113,190,68)" fill-opacity="1" d=" M-21.179000854492188,-32.04999923706055 C-21.179000854492188,-32.04999923706055 -28.07900047302246,-5.74399995803833 -15.63700008392334,12.050999641418457 C-5.8979997634887695,25.97599983215332 12.75,30.551000595092773 20.413999557495117,31.885000228881836 C21.358999252319336,32.04999923706055 22.326000213623047,31.836999893188477 23.113000869750977,31.28700065612793 C23.89900016784668,30.738000869750977 24.43000030517578,29.902999877929688 24.599000930786133,28.95800018310547 C25.97599983215332,21.302000045776367 28.07900047302246,2.2160000801086426 18.34000015258789,-11.710000038146973 C5.895999908447266,-29.503999710083008 -21.179000854492188,-32.04999923706055 -21.179000854492188,-32.04999923706055z"></path></g><g opacity="1" transform="matrix(1,0,0,1,76.677001953125,367.7359924316406)"><path fill="rgb(113,190,68)" fill-opacity="1" d=" M-37.637001037597656,8.835000038146973 C-37.637001037597656,8.835000038146973 -15.590999603271484,24.7549991607666 5.493000030517578,19.565000534057617 C21.993999481201172,15.503000259399414 32.98500061035156,-0.24199999868869781 36.992000579833984,-6.908999919891357 C37.48699951171875,-7.730999946594238 37.637001037597656,-8.708999633789062 37.40700149536133,-9.642000198364258 C37.178001403808594,-10.572999954223633 36.590999603271484,-11.369999885559082 35.770999908447266,-11.868000030517578 C29.125999450683594,-15.913000106811523 12.083000183105469,-24.7549991607666 -4.416999816894531,-20.69300079345703 C-25.500999450683594,-15.50100040435791 -37.637001037597656,8.835000038146973 -37.637001037597656,8.835000038146973z"></path></g><g opacity="1" transform="matrix(1,0,0,1,130.19200134277344,367.7359924316406)"><path fill="rgb(113,190,68)" fill-opacity="1" d=" M-37.637001037597656,8.835000038146973 C-37.637001037597656,8.835000038146973 -15.590999603271484,24.7549991607666 5.493000030517578,19.565000534057617 C21.993999481201172,15.503000259399414 32.98500061035156,-0.24199999868869781 36.992000579833984,-6.908999919891357 C37.48699951171875,-7.730999946594238 37.637001037597656,-8.708999633789062 37.40700149536133,-9.642000198364258 C37.178001403808594,-10.572999954223633 36.590999603271484,-11.369999885559082 35.770999908447266,-11.868000030517578 C29.125999450683594,-15.913000106811523 12.083000183105469,-24.7549991607666 -4.416999816894531,-20.69300079345703 C-25.500999450683594,-15.50100040435791 -37.637001037597656,8.835000038146973 -37.637001037597656,8.835000038146973z"></path></g></g><g transform="matrix(0.33131662011146545,0.033440910279750824,-0.033440910279750824,0.33131662011146545,10.619047164916992,-0.5332234501838684)" opacity="1" style="display: block;"><g opacity="1" transform="matrix(1,0,0,1,91.20600128173828,257.73199462890625)"><path fill="rgb(79,183,79)" fill-opacity="1" d=" M-21.082000732421875,-32.117000579833984 C-21.082000732421875,-32.117000579833984 -28.06599998474121,-5.834000110626221 -15.680000305175781,12 C-5.986000061035156,25.957000732421875 12.64799976348877,30.590999603271484 20.30699920654297,31.948999404907227 C21.25200080871582,32.117000579833984 22.2189998626709,31.906999588012695 23.006999969482422,31.360000610351562 C23.795000076293945,30.812999725341797 24.32900047302246,29.979000091552734 24.50200080871582,29.035999298095703 C25.902999877929688,21.384000778198242 28.06599998474121,2.303999900817871 18.371999740600586,-11.652000427246094 C5.985000133514404,-29.485000610351562 -21.082000732421875,-32.117000579833984 -21.082000732421875,-32.117000579833984z"></path></g></g><g transform="matrix(0.33147600293159485,0.03182250261306763,-0.03182250261306763,0.33147600293159485,11.23092269897461,-1.2379217147827148)" opacity="1" style="display: block;"><g opacity="1" transform="matrix(1,0,0,1,110.26599884033203,305.5799865722656)"><path fill="rgb(79,183,79)" fill-opacity="1" d=" M-36.11899948120117,-13.572999954223633 C-36.11899948120117,-13.572999954223633 -27.360000610351562,12.173999786376953 -7.164000034332275,20.14900016784668 C8.642000198364258,26.388999938964844 26.718000411987305,19.913999557495117 33.84600067138672,16.79800033569336 C34.724998474121094,16.413999557495117 35.41400146484375,15.704000473022461 35.766998291015625,14.812000274658203 C36.11899948120117,13.918999671936035 36.10100173950195,12.928999900817871 35.72200012207031,12.04800033569336 C32.64500045776367,4.9029998779296875 23.868000030517578,-12.173999786376953 8.062000274658203,-18.415000915527344 C-12.133999824523926,-26.38800048828125 -36.11899948120117,-13.572999954223633 -36.11899948120117,-13.572999954223633z"></path></g></g></g></svg>