<svg xmlns="http://www.w3.org/2000/svg" viewBox="0 0 18 19" width="18" height="19" preserveAspectRatio="xMidYMid meet" style="width: 100%; height: 100%; transform: translate3d(0px, 0px, 0px); content-visibility: visible;"><defs><clipPath id="__lottie_element_2420"><rect width="18" height="19" x="0" y="0"></rect></clipPath><clipPath id="__lottie_element_2426"><path d="M0,0 L5000,0 L5000,4710 L0,4710z"></path></clipPath><mask id="__lottie_element_2429" mask-type="alpha"><g transform="matrix(0.257999986410141,0,0,0.257999986410141,-5.834999084472656,-23.26599884033203)" opacity="1" style="display: block;"><g opacity="1" transform="matrix(1,0,0,1,57.42499923706055,127.04299926757812)"><path fill="rgb(255,0,0)" fill-opacity="1" d=" M22.815000534057617,-35.909000396728516 C22.815000534057617,-35.909000396728516 -22.81399917602539,-35.909000396728516 -22.81399917602539,-35.909000396728516 C-27.128999710083008,-35.909000396728516 -30.687999725341797,-32.529998779296875 -30.91200065612793,-28.222000122070312 C-30.91200065612793,-28.222000122070312 -34.24100112915039,35.909000396728516 -34.24100112915039,35.909000396728516 C-34.24100112915039,35.909000396728516 34.24100112915039,35.909000396728516 34.24100112915039,35.909000396728516 C34.24100112915039,35.909000396728516 30.91200065612793,-28.222000122070312 30.91200065612793,-28.222000122070312 C30.687999725341797,-32.529998779296875 27.128999710083008,-35.909000396728516 22.815000534057617,-35.909000396728516z"></path></g></g></mask><clipPath id="__lottie_element_2448"><path d="M0,0 L5000,0 L5000,4710 L0,4710z"></path></clipPath><mask id="__lottie_element_2451" mask-type="alpha"><g transform="matrix(0.257999986410141,0,0,0.257999986410141,-5.834999084472656,-23.26599884033203)" opacity="1" style="display: none;"><g opacity="1" transform="matrix(1,0,0,1,57.42499923706055,127.04299926757812)"><path fill="rgb(255,0,0)" fill-opacity="1" d=" M22.815000534057617,-35.909000396728516 C22.815000534057617,-35.909000396728516 -22.81399917602539,-35.909000396728516 -22.81399917602539,-35.909000396728516 C-27.128999710083008,-35.909000396728516 -30.687999725341797,-32.529998779296875 -30.91200065612793,-28.222000122070312 C-30.91200065612793,-28.222000122070312 -34.24100112915039,35.909000396728516 -34.24100112915039,35.909000396728516 C-34.24100112915039,35.909000396728516 34.24100112915039,35.909000396728516 34.24100112915039,35.909000396728516 C34.24100112915039,35.909000396728516 30.91200065612793,-28.222000122070312 30.91200065612793,-28.222000122070312 C30.687999725341797,-32.529998779296875 27.128999710083008,-35.909000396728516 22.815000534057617,-35.909000396728516z"></path></g></g></mask></defs><g clip-path="url(#__lottie_element_2420)"><g transform="matrix(0.257999986410141,0,0,0.257999986410141,-5.834999084472656,-23.26599884033203)" opacity="1" style="display: block;"><g opacity="1" transform="matrix(1,0,0,1,57.42499923706055,127.04299926757812)"><path fill="rgb(89,52,45)" fill-opacity="1" d=" M22.815000534057617,-35.909000396728516 C22.815000534057617,-35.909000396728516 -22.81399917602539,-35.909000396728516 -22.81399917602539,-35.909000396728516 C-27.128999710083008,-35.909000396728516 -30.687999725341797,-32.529998779296875 -30.91200065612793,-28.222000122070312 C-30.91200065612793,-28.222000122070312 -34.24100112915039,35.909000396728516 -34.24100112915039,35.909000396728516 C-34.24100112915039,35.909000396728516 34.24100112915039,35.909000396728516 34.24100112915039,35.909000396728516 C34.24100112915039,35.909000396728516 30.91200065612793,-28.222000122070312 30.91200065612793,-28.222000122070312 C30.687999725341797,-32.529998779296875 27.128999710083008,-35.909000396728516 22.815000534057617,-35.909000396728516z"></path></g></g><g mask="url(#__lottie_element_2451)" style="display: none;"><g clip-path="url(#__lottie_element_2448)" transform="matrix(0.257999986410141,0,0,0.257999986410141,-307.9529724121094,-128.0139923095703)" opacity="1"><g transform="matrix(1.25,0,0,1.25,1193.7933349609375,541.0962524414062)" opacity="1" style="display: block;"><g opacity="1" transform="matrix(1,0,0,1,27.82699966430664,40.722999572753906)"><path fill="rgb(121,36,55)" fill-opacity="1" d=" M27.57699966430664,17.368999481201172 C27.57699966430664,17.368999481201172 25.954999923706055,-13.869000434875488 25.954999923706055,-13.869000434875488 C25.954999923706055,-13.869000434875488 23.18400001525879,-13.869000434875488 23.18400001525879,-13.869000434875488 C23.18400001525879,-13.869000434875488 20.766000747680664,-17.368999481201172 20.766000747680664,-17.368999481201172 C20.766000747680664,-17.368999481201172 10.475000381469727,-17.368999481201172 10.475000381469727,-17.368999481201172 C10.475000381469727,-17.368999481201172 7.934000015258789,-13.869000434875488 7.934000015258789,-13.869000434875488 C7.934000015258789,-13.869000434875488 -9.065999984741211,-13.869000434875488 -9.065999984741211,-13.869000434875488 C-9.065999984741211,-13.869000434875488 -11.232999801635742,-17.368999481201172 -11.232999801635742,-17.368999481201172 C-11.232999801635742,-17.368999481201172 -21.69099998474121,-17.368999481201172 -21.69099998474121,-17.368999481201172 C-21.69099998474121,-17.368999481201172 -24.02400016784668,-13.869000434875488 -24.02400016784668,-13.869000434875488 C-24.02400016784668,-13.869000434875488 -25.954999923706055,-13.869000434875488 -25.954999923706055,-13.869000434875488 C-25.954999923706055,-13.869000434875488 -27.57699966430664,17.368999481201172 -27.57699966430664,17.368999481201172 C-27.57699966430664,17.368999481201172 27.57699966430664,17.368999481201172 27.57699966430664,17.368999481201172z"></path></g><g opacity="1" transform="matrix(1,0,0,1,44.3849983215332,41.52000045776367)"><path fill="rgb(139,124,141)" fill-opacity="1" d=" M6.375999927520752,7.918000221252441 C6.375999927520752,7.918000221252441 5.375999927520752,-8.33899974822998 5.375999927520752,-8.33899974822998 C5.375999927520752,-9.026000022888184 4.817999839782715,-9.583000183105469 4.130000114440918,-9.583000183105469 C4.130000114440918,-9.583000183105469 -5.5329999923706055,-9.583000183105469 -5.5329999923706055,-9.583000183105469 C-5.999000072479248,-9.583000183105469 -6.375999927520752,-9.20300006866455 -6.374000072479248,-8.737000465393066 C-6.374000072479248,-8.737000465393066 -6.35699987411499,-5.867000102996826 -6.35699987411499,-5.867000102996826 C-6.355000019073486,-5.47599983215332 -6.2270002365112305,-5.0970001220703125 -5.991000175476074,-4.783999919891357 C-5.991000175476074,-4.783999919891357 4.25,8.798999786376953 4.25,8.798999786376953 C5.033999919891357,9.583000183105469 6.375999927520752,9.027000427246094 6.375999927520752,7.918000221252441z"></path></g><g opacity="1" transform="matrix(1,0,0,1,11.470000267028809,41.52000045776367)"><path fill="rgb(139,124,141)" fill-opacity="1" d=" M-6.375999927520752,7.918000221252441 C-6.375999927520752,7.918000221252441 -5.744999885559082,-8.33899974822998 -5.744999885559082,-8.33899974822998 C-5.744999885559082,-9.026000022888184 -5.188000202178955,-9.583000183105469 -4.5,-9.583000183105469 C-4.5,-9.583000183105469 5.5329999923706055,-9.583000183105469 5.5329999923706055,-9.583000183105469 C5.999000072479248,-9.583000183105469 6.375999927520752,-9.20300006866455 6.374000072479248,-8.737000465393066 C6.374000072479248,-8.737000465393066 6.35699987411499,-5.867000102996826 6.35699987411499,-5.867000102996826 C6.355000019073486,-5.47599983215332 6.2270002365112305,-5.0970001220703125 5.991000175476074,-4.783999919891357 C5.991000175476074,-4.783999919891357 -4.25,8.798999786376953 -4.25,8.798999786376953 C-5.033999919891357,9.583000183105469 -6.375999927520752,9.027000427246094 -6.375999927520752,7.918000221252441z"></path></g><g opacity="1" transform="matrix(1,0,0,1,40.38600158691406,46.604000091552734)"><path fill="rgb(139,124,141)" fill-opacity="1" d=" M-6.375,-6.419000148773193 C-6.375,-6.419000148773193 -6.791999816894531,6.839000225067139 -6.791999816894531,6.839000225067139 C-6.791999816894531,7.526000022888184 -6.234000205993652,8.083000183105469 -5.546000003814697,8.083000183105469 C-5.546000003814697,8.083000183105469 5.126999855041504,8.083000183105469 5.126999855041504,8.083000183105469 C6.236000061035156,8.083000183105469 6.791999816894531,6.741000175476074 6.006999969482422,5.956999778747559 C6.006999969482422,5.956999778747559 -4.249000072479248,-7.298999786376953 -4.249000072479248,-7.298999786376953 C-5.033999919891357,-8.083000183105469 -6.375,-7.5279998779296875 -6.375,-6.419000148773193z"></path></g><g opacity="1" transform="matrix(1,0,0,1,15.468999862670898,46.604000091552734)"><path fill="rgb(139,124,141)" fill-opacity="1" d=" M6.375,-6.419000148773193 C6.375,-6.419000148773193 6.791999816894531,6.839000225067139 6.791999816894531,6.839000225067139 C6.791999816894531,7.526000022888184 6.234000205993652,8.083000183105469 5.546000003814697,8.083000183105469 C5.546000003814697,8.083000183105469 -5.126999855041504,8.083000183105469 -5.126999855041504,8.083000183105469 C-6.236000061035156,8.083000183105469 -6.791999816894531,6.741000175476074 -6.006999969482422,5.956999778747559 C-6.006999969482422,5.956999778747559 4.249000072479248,-7.298999786376953 4.249000072479248,-7.298999786376953 C5.033999919891357,-8.083000183105469 6.375,-7.5279998779296875 6.375,-6.419000148773193z"></path></g><g opacity="1" transform="matrix(1,0,0,1,28.634000778198242,42.30099868774414)"><path fill="rgb(95,29,43)" fill-opacity="1" d=" M7.376999855041504,-15.791999816894531 C7.376999855041504,-15.791999816894531 7.376999855041504,-15.791999816894531 7.376999855041504,-15.791999816894531 C7.376999855041504,-15.791999816894531 7.126999855041504,-15.446999549865723 7.126999855041504,-15.446999549865723 C7.126999855041504,-15.446999549865723 -7.376999855041504,-15.446999549865723 -7.376999855041504,-15.446999549865723 C-7.376999855041504,-15.446999549865723 -7.376999855041504,-9.58899974822998 -7.376999855041504,-9.58899974822998 C-7.376999855041504,-8.359999656677246 -6.38100004196167,-7.36299991607666 -5.1529998779296875,-7.36299991607666 C-5.1529998779296875,-7.36299991607666 -3.802999973297119,-7.36299991607666 -3.802999973297119,-7.36299991607666 C-3.802999973297119,-7.36299991607666 -3.802999973297119,15.791999816894531 -3.802999973297119,15.791999816894531 C-3.802999973297119,15.791999816894531 1.3109999895095825,15.791999816894531 1.3109999895095825,15.791999816894531 C1.3109999895095825,15.791999816894531 1.3109999895095825,-7.36299991607666 1.3109999895095825,-7.36299991607666 C1.3109999895095825,-7.36299991607666 5.1519999504089355,-7.36299991607666 5.1519999504089355,-7.36299991607666 C6.38100004196167,-7.36299991607666 7.376999855041504,-8.359999656677246 7.376999855041504,-9.58899974822998 C7.376999855041504,-9.58899974822998 7.376999855041504,-15.791999816894531 7.376999855041504,-15.791999816894531z"></path></g></g><g transform="matrix(1.25,0,0,1.25,1193.5433349609375,462.05999755859375)" opacity="1" style="display: block;"><g opacity="1" transform="matrix(1,0,0,1,27.82699966430664,13.552000045776367)"><path fill="rgb(121,36,55)" fill-opacity="1" d=" M-21.69099998474121,9.800999641418457 C-21.69099998474121,9.800999641418457 -11.232999801635742,9.800999641418457 -11.232999801635742,9.800999641418457 C-11.232999801635742,9.800999641418457 -9.065999984741211,13.300999641418457 -9.065999984741211,13.300999641418457 C-9.065999984741211,13.300999641418457 7.934000015258789,13.300999641418457 7.934000015258789,13.300999641418457 C7.934000015258789,13.300999641418457 10.47599983215332,9.800999641418457 10.47599983215332,9.800999641418457 C10.47599983215332,9.800999641418457 20.767000198364258,9.800999641418457 20.767000198364258,9.800999641418457 C20.767000198364258,9.800999641418457 23.18400001525879,13.300999641418457 23.18400001525879,13.300999641418457 C23.18400001525879,13.300999641418457 25.954999923706055,13.300999641418457 25.954999923706055,13.300999641418457 C25.954999923706055,13.300999641418457 24.895999908447266,-7.109000205993652 24.895999908447266,-7.109000205993652 C24.715999603271484,-10.579000473022461 21.85099983215332,-13.300999641418457 18.375,-13.300999641418457 C18.375,-13.300999641418457 -18.375,-13.300999641418457 -18.375,-13.300999641418457 C-21.849000930786133,-13.300999641418457 -24.71500015258789,-10.579000473022461 -24.895999908447266,-7.109000205993652 C-24.895999908447266,-7.109000205993652 -25.954999923706055,13.300999641418457 -25.954999923706055,13.300999641418457 C-25.954999923706055,13.300999641418457 -24.02400016784668,13.300999641418457 -24.02400016784668,13.300999641418457 C-24.02400016784668,13.300999641418457 -21.69099998474121,9.800999641418457 -21.69099998474121,9.800999641418457z"></path></g><g opacity="1" transform="matrix(1,0,0,1,16.67799949645996,10.020000457763672)"><path fill="rgb(139,124,141)" fill-opacity="1" d=" M6.084000110626221,4.418000221252441 C6.084000110626221,4.418000221252441 6.084000110626221,-4.8379998207092285 6.084000110626221,-4.8379998207092285 C6.084000110626221,-5.526000022888184 5.526000022888184,-6.083000183105469 4.8379998207092285,-6.083000183105469 C4.8379998207092285,-6.083000183105469 -4.419000148773193,-6.083000183105469 -4.419000148773193,-6.083000183105469 C-5.5289998054504395,-6.083000183105469 -6.084000110626221,-4.742000102996826 -5.300000190734863,-3.9570000171661377 C-5.300000190734863,-3.9570000171661377 3.9579999446868896,5.298999786376953 3.9579999446868896,5.298999786376953 C4.742000102996826,6.083000183105469 6.084000110626221,5.5269999504089355 6.084000110626221,4.418000221252441z"></path></g><g opacity="1" transform="matrix(1,0,0,1,12.88599967956543,13.604000091552734)"><path fill="rgb(139,124,141)" fill-opacity="1" d=" M-5.875,-4.419000148773193 C-5.875,-4.419000148773193 -6.291999816894531,4.839000225067139 -6.291999816894531,4.839000225067139 C-6.291999816894531,5.526000022888184 -5.734000205993652,6.083000183105469 -5.046000003814697,6.083000183105469 C-5.046000003814697,6.083000183105469 4.626999855041504,6.083000183105469 4.626999855041504,6.083000183105469 C5.736000061035156,6.083000183105469 6.291999816894531,4.742000102996826 5.506999969482422,3.9579999446868896 C5.506999969482422,3.9579999446868896 -3.749000072479248,-5.297999858856201 -3.749000072479248,-5.297999858856201 C-4.533999919891357,-6.083000183105469 -5.875,-5.5279998779296875 -5.875,-4.419000148773193z"></path></g><g opacity="1" transform="matrix(1,0,0,1,39.095001220703125,10.020000457763672)"><path fill="rgb(139,124,141)" fill-opacity="1" d=" M-6.083000183105469,4.418000221252441 C-6.083000183105469,4.418000221252441 -6.083000183105469,-4.8379998207092285 -6.083000183105469,-4.8379998207092285 C-6.083000183105469,-5.526000022888184 -5.526000022888184,-6.083000183105469 -4.839000225067139,-6.083000183105469 C-4.839000225067139,-6.083000183105469 4.418000221252441,-6.083000183105469 4.418000221252441,-6.083000183105469 C5.5269999504089355,-6.083000183105469 6.083000183105469,-4.742000102996826 5.297999858856201,-3.9570000171661377 C5.297999858856201,-3.9570000171661377 -3.9579999446868896,5.298999786376953 -3.9579999446868896,5.298999786376953 C-4.743000030517578,6.083000183105469 -6.083000183105469,5.5269999504089355 -6.083000183105469,4.418000221252441z"></path></g><g opacity="1" transform="matrix(1,0,0,1,42.88600158691406,13.604000091552734)"><path fill="rgb(139,124,141)" fill-opacity="1" d=" M5.875,-4.419000148773193 C5.875,-4.419000148773193 6.291999816894531,4.839000225067139 6.291999816894531,4.839000225067139 C6.291999816894531,5.526000022888184 5.734000205993652,6.083000183105469 5.046000003814697,6.083000183105469 C5.046000003814697,6.083000183105469 -4.626999855041504,6.083000183105469 -4.626999855041504,6.083000183105469 C-5.736999988555908,6.083000183105469 -6.291999816894531,4.742000102996826 -5.507999897003174,3.9579999446868896 C-5.507999897003174,3.9579999446868896 3.749000072479248,-5.297999858856201 3.749000072479248,-5.297999858856201 C4.5329999923706055,-6.083000183105469 5.875,-5.5279998779296875 5.875,-4.419000148773193z"></path></g><g opacity="1" transform="matrix(1,0,0,1,28.634000778198242,13.552000045776367)"><path fill="rgb(95,29,43)" fill-opacity="1" d=" M1.3109999895095825,-13.302000045776367 C1.3109999895095825,-13.302000045776367 -3.802999973297119,-13.302000045776367 -3.802999973297119,-13.302000045776367 C-3.802999973297119,-13.302000045776367 -3.802999973297119,6.176000118255615 -3.802999973297119,6.176000118255615 C-3.802999973297119,6.176000118255615 -5.1529998779296875,6.176000118255615 -5.1529998779296875,6.176000118255615 C-6.38100004196167,6.176000118255615 -7.376999855041504,7.170000076293945 -7.376999855041504,8.39799976348877 C-7.376999855041504,8.39799976348877 -7.376999855041504,13.302000045776367 -7.376999855041504,13.302000045776367 C-7.376999855041504,13.302000045776367 7.126999855041504,13.302000045776367 7.126999855041504,13.302000045776367 C7.126999855041504,13.302000045776367 7.376999855041504,12.956999778747559 7.376999855041504,12.956999778747559 C7.376999855041504,12.956999778747559 7.376999855041504,8.39799976348877 7.376999855041504,8.39799976348877 C7.376999855041504,7.170000076293945 6.38100004196167,6.176000118255615 5.1519999504089355,6.176000118255615 C5.1519999504089355,6.176000118255615 1.3109999895095825,6.176000118255615 1.3109999895095825,6.176000118255615 C1.3109999895095825,6.176000118255615 1.3109999895095825,-13.302000045776367 1.3109999895095825,-13.302000045776367z"></path></g></g></g></g><g mask="url(#__lottie_element_2429)" style="display: block;"><g clip-path="url(#__lottie_element_2426)" transform="matrix(0.257999986410141,0,0,0.257999986410141,-307.9529724121094,-128.0139923095703)" opacity="1"><g transform="matrix(0.4830230176448822,0.06591688096523285,-0.06591688096523285,0.4830230176448822,1177.8980712890625,496.1739501953125)" opacity="1" style="display: block;"><g opacity="1" transform="matrix(1,0,0,1,141.31900024414062,118.7979965209961)"><path fill="rgb(165,87,62)" fill-opacity="1" d=" M21.930999755859375,-4.041999816894531 C21.930999755859375,-4.041999816894531 15.531999588012695,-6.584000110626221 13.640000343322754,-10.39799976348877 C11.748000144958496,-14.21399974822998 11.182999610900879,-18.187999725341797 9.291000366210938,-20.187000274658203 C13.038999557495117,-19.347999572753906 14.956999778747559,-16.365999221801758 14.956999778747559,-16.365999221801758 C14.956999778747559,-16.365999221801758 15.972999572753906,-22.145000457763672 5.380000114440918,-28.55299949645996 C10.880999565124512,-28.35099983215332 10.33899974822998,-32.25899887084961 10.33899974822998,-32.25899887084961 C10.33899974822998,-32.25899887084961 3.3269999027252197,-29.94099998474121 -0.041999999433755875,-34.87799835205078 C-3.0429999828338623,-39.275001525878906 1.940000057220459,-40.72700119018555 2.61899995803833,-39.81100082397461 C2.496000051498413,-43.18000030517578 -3.7960000038146973,-44.483001708984375 -3.7960000038146973,-44.483001708984375 C-3.7960000038146973,-44.483001708984375 -18.875,-42.12699890136719 -18.875,-42.12699890136719 C-18.875,-42.12699890136719 -22.6299991607666,-28.21500015258789 -22.6299991607666,-28.21500015258789 C-22.6299991607666,-28.21500015258789 -22.665000915527344,-16.222999572753906 -22.665000915527344,-16.222999572753906 C-16.13800048828125,-7.520999908447266 -9.989999771118164,2.4019999504089355 -13.47700023651123,7.988999843597412 C-11.644000053405762,8.692000389099121 -9.135000228881836,5.248000144958496 -9.135000228881836,5.248000144958496 C-9.135000228881836,5.248000144958496 -16.093000411987305,16.025999069213867 -11.984999656677246,22.572999954223633 C-11.791999816894531,19.562000274658203 -8.800000190734863,17.683000564575195 -8.800000190734863,17.683000564575195 C-8.800000190734863,17.683000564575195 -7.21999979019165,20.915000915527344 -9.82699966430664,26.208999633789062 C-12.432999610900879,31.50200080871582 -13.652000427246094,31.80500030517578 -13.652000427246094,31.80500030517578 C-13.652000427246094,31.80500030517578 0.5260000228881836,44.483001708984375 0.5260000228881836,44.483001708984375 C0.5260000228881836,44.483001708984375 7.223999977111816,36.54800033569336 5.946000099182129,23.402000427246094 C7.421999931335449,26.916000366210938 12.777000427246094,28.2810001373291 12.777000427246094,28.2810001373291 C12.777000427246094,28.2810001373291 7.675000190734863,18.663000106811523 13.409000396728516,8.555999755859375 C14.875,10.508999824523926 15.043000221252441,16.770000457763672 15.043000221252441,16.770000457763672 C15.043000221252441,16.770000457763672 22.665000915527344,8.994000434875488 15.373000144958496,-2.6549999713897705 C18.509000778198242,-1.690000057220459 21.930999755859375,-4.041999816894531 21.930999755859375,-4.041999816894531z"></path></g><g opacity="1" transform="matrix(1,0,0,1,134.76400756835938,148.7030029296875)"><path fill="rgb(72,64,70)" fill-opacity="1" d=" M-12.982000350952148,2.7720000743865967 C-11.767000198364258,3.5369999408721924 -10.291999816894531,3.503999948501587 -9.12600040435791,2.8420000076293945 C-10.088000297546387,4.577000141143799 -9.552000045776367,6.7769999504089355 -7.853000164031982,7.8460001945495605 C-6.546000003814697,8.668000221252441 -4.929999828338623,8.585000038146973 -3.7309999465942383,7.767000198364258 C-3.7950000762939453,7.8520002365112305 -3.868000030517578,7.925000190734863 -3.9260001182556152,8.017000198364258 C-5.0320000648498535,9.774999618530273 -4.502999782562256,12.095999717712402 -2.744999885559082,13.20300006866455 C-1.3600000143051147,14.074000358581543 0.36500000953674316,13.918999671936035 1.5800000429153442,12.961000442504883 C1.340999960899353,14.017000198364258 1.7640000581741333,15.154000282287598 2.7320001125335693,15.762999534606934 C3.4630000591278076,16.222999572753906 4.329999923706055,16.268999099731445 5.078000068664551,15.979999542236328 C5.078000068664551,15.979999542236328 5.079999923706055,15.982999801635742 5.079999923706055,15.982999801635742 C5.079999923706055,15.982999801635742 5.123000144958496,15.96500015258789 5.123000144958496,15.96500015258789 C5.158999919891357,15.95199966430664 5.192999839782715,15.939000129699707 5.2270002365112305,15.92300033569336 C5.2270002365112305,15.92300033569336 11.892999649047852,13.197999954223633 11.892999649047852,13.197999954223633 C11.892999649047852,13.197999954223633 11.890000343322754,13.184000015258789 11.890000343322754,13.184000015258789 C12.628000259399414,12.904999732971191 13.288999557495117,12.404000282287598 13.741999626159668,11.684000015258789 C14.819999694824219,9.970000267028809 14.336000442504883,7.729000091552734 12.684000015258789,6.591000080108643 C13.154999732971191,6.250999927520752 13.572999954223633,5.824999809265137 13.901000022888184,5.302000045776367 C15.269000053405762,3.128000020980835 14.616000175476074,0.25600001215934753 12.440999984741211,-1.1130000352859497 C11.215999603271484,-1.8830000162124634 9.777000427246094,-1.9919999837875366 8.503000259399414,-1.5700000524520874 C8.564000129699707,-1.6519999504089355 8.640999794006348,-1.7200000286102295 8.696000099182129,-1.809000015258789 C10.064000129699707,-3.9839999675750732 9.107999801635742,-7.045000076293945 6.559999942779541,-8.64799976348877 C4.823999881744385,-9.739999771118164 2.809999942779541,-9.852999687194824 1.2630000114440918,-9.140999794006348 C1.6829999685287476,-11.109000205993652 0.6890000104904175,-13.366000175476074 -1.378999948501587,-14.666999816894531 C-3.927000045776367,-16.270000457763672 -7.1020002365112305,-15.807000160217285 -8.470000267028809,-13.631999969482422 C-8.470000267028809,-13.631999969482422 -14.163000106811523,-2.4140000343322754 -14.163000106811523,-2.4140000343322754 C-15.269000053405762,-0.656000018119812 -14.739999771118164,1.6660000085830688 -12.982000350952148,2.7720000743865967z"></path></g><g opacity="1" transform="matrix(1,0,0,1,120.75399780273438,146.2050018310547)"><path fill="rgb(72,64,70)" fill-opacity="1" d=" M-5.288000106811523,-1.9759999513626099 C-5.238999843597412,-1.5379999876022339 -5.098999977111816,-1.1319999694824219 -4.919000148773193,-0.7459999918937683 C-4.919000148773193,-0.7459999918937683 -4.943999767303467,-0.7419999837875366 -4.943999767303467,-0.7419999837875366 C-4.943999767303467,-0.7419999837875366 -2.0360000133514404,5.1519999504089355 -2.0360000133514404,5.1519999504089355 C-2.0360000133514404,5.1519999504089355 -2.0209999084472656,5.1479997634887695 -2.0209999084472656,5.1479997634887695 C-1.5219999551773071,6.0929999351501465 -0.6420000195503235,6.831999778747559 0.4819999933242798,7.085999965667725 C2.5220000743865967,7.545000076293945 4.546999931335449,6.265999794006348 5.007999897003174,4.22599983215332 C5.065999984741211,3.9679999351501465 5.0970001220703125,3.7109999656677246 5.10099983215332,3.4570000171661377 C5.10099983215332,3.4570000171661377 5.551000118255615,-2.3610000610351562 5.551000118255615,-2.3610000610351562 C5.551000118255615,-2.3610000610351562 5.539999961853027,-2.3589999675750732 5.539999961853027,-2.3589999675750732 C5.565999984741211,-2.634000062942505 5.577000141143799,-2.9130001068115234 5.545000076293945,-3.196000099182129 C5.257999897003174,-5.748000144958496 2.5989999771118164,-7.545000076293945 -0.3930000066757202,-7.208000183105469 C-3.384000062942505,-6.872000217437744 -5.576000213623047,-4.53000020980835 -5.288000106811523,-1.9759999513626099z"></path></g></g><g transform="matrix(0.46420419216156006,0.14889845252037048,-0.14889845252037048,0.46420419216156006,1185.2294921875,490.2718811035156)" opacity="1" style="display: block;"><g opacity="1" transform="matrix(1,0,0,1,58.14799880981445,55.465999603271484)"><path fill="rgb(165,87,62)" fill-opacity="1" d=" M23.15399932861328,3.818000078201294 C33.025001525878906,28.933000564575195 19.819000244140625,35.89799880981445 8.416000366210938,37.1510009765625 C8.416000366210938,37.1510009765625 -4.831999778747559,36.11199951171875 -5.565000057220459,32.96500015258789 C-4.757999897003174,33.70199966430664 -0.335999995470047,31.42300033569336 -3.9660000801086426,27.834999084472656 C-8.041000366210938,23.80699920654297 -14.21399974822998,27.27400016784668 -14.21399974822998,27.27400016784668 C-14.21399974822998,27.27400016784668 -13.105999946594238,23.954999923706055 -10.22599983215332,22.87700080871582 C-21.3700008392334,18.788000106811523 -21.472000122070312,13.164999961853027 -21.472000122070312,13.164999961853027 C-21.472000122070312,13.164999961853027 -19.121000289916992,15.618000030517578 -15.440999984741211,15.720999717712402 C-17.58799934387207,14.187000274658203 -18.507999420166016,12.755999565124512 -20.98699951171875,9.51200008392334 C-23.466999053955078,6.269000053405762 -30.367000579833984,4.781000137329102 -30.367000579833984,4.781000137329102 C-30.367000579833984,4.781000137329102 -27.81100082397461,1.7139999866485596 -24.027999877929688,3.8459999561309814 C-33.025001525878906,-5.7789998054504395 -28.014999389648438,-12.508999824523926 -28.014999389648438,-12.508999824523926 C-28.014999389648438,-12.508999824523926 -28.014999389648438,-8.100000381469727 -26.277999877929688,-6.531000137329102 C-24.334999084472656,-17.128000259399414 -31.349000930786133,-25.98200035095215 -31.349000930786133,-25.98200035095215 C-31.349000930786133,-25.98200035095215 -28.541000366210938,-26.576000213623047 -26.509000778198242,-23.541000366210938 C-29.350000381469727,-28.606000900268555 -27.743999481201172,-35.895999908447266 -27.743999481201172,-35.895999908447266 C-27.743999481201172,-35.895999908447266 -5.679999828338623,-41.97999954223633 -5.679999828338623,-41.97999954223633 C-5.679999828338623,-41.97999954223633 -5.8979997634887695,-37.185001373291016 -5.8979997634887695,-32.185001373291016 C-5.8979997634887695,-26.52899932861328 -5.357999801635742,-23.229999542236328 -5.357999801635742,-23.229999542236328 C-4.809999942779541,-17.44099998474121 2.490000009536743,9.670999526977539 23.15399932861328,3.818000078201294z"></path></g><g opacity="1" transform="matrix(1,0,0,1,62.86000061035156,41.696998596191406)"><path fill="rgb(185,112,75)" fill-opacity="1" d=" M29.388999938964844,19.2189998626709 C29.388999938964844,19.2189998626709 21.500999450683594,16.660999298095703 21.500999450683594,16.660999298095703 C12.831999778747559,17.10099983215332 10.045999526977539,13.378000259399414 9.861000061035156,9.232000350952148 C7.671999931335449,10.810999870300293 6.372000217437744,14.303999900817871 7.690999984741211,16.691999435424805 C0.5720000267028809,10.378999710083008 -4.831999778747559,3.1630001068115234 -2.3269999027252197,-3.380000114440918 C-4.304999828338623,-3.7269999980926514 -6.1519999504089355,0.22100000083446503 -6.1519999504089355,0.22100000083446503 C-6.1519999504089355,0.22100000083446503 -1.2730000019073486,-11.961000442504883 -6.677999973297119,-17.73200035095215 C-6.2820000648498535,-14.670000076293945 -8.918999671936035,-12.197999954223633 -8.918999671936035,-12.197999954223633 C-8.918999671936035,-12.197999954223633 -10.611000061035156,-14.380999565124512 -10.611000061035156,-20.41699981689453 C-10.611000061035156,-20.41699981689453 -10.611000061035156,-31.41699981689453 -10.611000061035156,-31.41699981689453 C-10.611000061035156,-31.41699981689453 -22.488000869750977,-28.55699920654297 -22.488000869750977,-28.55699920654297 C-29.389999389648438,-20.395000457763672 -27.625,-11.609000205993652 -24.54400062561035,-5.800000190734863 C-21.847999572753906,-9.079000473022461 -24.67300033569336,-13.081000328063965 -24.67300033569336,-13.081000328063965 C-24.67300033569336,-13.081000328063965 -19.31399917602539,-9.833000183105469 -22.073999404907227,-1.8910000324249268 C-24.833999633789062,6.050000190734863 -21.777999877929688,11.451000213623047 -16.402000427246094,8.201000213623047 C-17.3799991607666,10.692999839782715 -18.481000900268555,18.06399917602539 -9.684000015258789,22.503000259399414 C-8.706999778747559,16.434999465942383 -12.73799991607666,15.4399995803833 -12.73799991607666,15.4399995803833 C-12.73799991607666,15.4399995803833 -8.609000205993652,14.930999755859375 -5.60699987411499,21.843000411987305 C-2.6040000915527344,28.753999710083008 -1.6970000267028809,30.226999282836914 0.17299999296665192,31.41699981689453 C-1.809999942779541,27.565000534057617 -0.9610000252723694,23.711000442504883 -0.9610000252723694,23.711000442504883 C-0.9610000252723694,23.711000442504883 2.305999994277954,31.023000717163086 13.567999839782715,27.59600067138672 C23.836000442504883,23.357999801635742 29.388999938964844,19.2189998626709 29.388999938964844,19.2189998626709z"></path></g></g><g transform="matrix(0.48061832785606384,0.08162283897399902,-0.08162283897399902,0.48061832785606384,1179.5087890625,494.2907409667969)" opacity="1" style="display: block;"><g opacity="1" transform="matrix(1,0,0,1,81.3740005493164,116.4739990234375)"><path fill="rgb(165,88,61)" fill-opacity="1" d=" M-2.308000087738037,-55.80699920654297 C-2.308000087738037,-55.80699920654297 -23.23900032043457,-24.764999389648438 -23.23900032043457,-24.764999389648438 C-21.27899932861328,-16.55900001525879 -28.437000274658203,-11.362000465393066 -33.915000915527344,-11.362000465393066 C-29.38599967956543,-8.208999633789062 -23.422000885009766,-10.173999786376953 -23.0049991607666,-10.317000389099121 C-23.70800018310547,-10.072999954223633 -40.68600082397461,-4.046000003814697 -41.38999938964844,8.265999794006348 C-38.30699920654297,2.444999933242798 -31.038000106811523,0.2709999978542328 -31.038000106811523,0.2709999978542328 C-31.038000106811523,0.2709999978542328 -38.30699920654297,17.191999435424805 -48.0369987487793,17.343000411987305 C-42.108001708984375,19.472000122070312 -30.85700035095215,13.086999893188477 -30.85700035095215,13.086999893188477 C-30.85700035095215,13.086999893188477 -43.999000549316406,21.52899932861328 -43.08700180053711,31.764999389648438 C-41.41400146484375,25.58300018310547 -34.69599914550781,24.545000076293945 -34.69599914550781,24.545000076293945 C-34.69599914550781,24.545000076293945 -36.84000015258789,36.93299865722656 -44.44200134277344,38.82600021362305 C-52.042999267578125,40.71799850463867 -56.854000091552734,44.99300003051758 -58.222999572753906,49.86800003051758 C-52.597999572753906,46.077999114990234 -42.012001037597656,47.09000015258789 -42.012001037597656,47.09000015258789 C-42.012001037597656,47.09000015258789 -43.93199920654297,51.702999114990234 -38.611000061035156,55.80699920654297 C-34.65800094604492,48.20600128173828 -24.016000747680664,43.34000015258789 -24.016000747680664,43.34000015258789 C-24.016000747680664,43.34000015258789 -21.27899932861328,48.20600128173828 -23.86400032043457,51.854000091552734 C-17.32699966430664,49.72600173950195 -13.866999626159668,41.58100128173828 -13.866999626159668,41.58100128173828 C-13.866999626159668,41.58100128173828 -13.829999923706055,45.46900177001953 -10.182000160217285,48.053001403808594 C-6.5329999923706055,50.63800048828125 -7.9679999351501465,55.80699920654297 -7.9679999351501465,55.80699920654297 C-7.9679999351501465,55.80699920654297 -1.6829999685287476,49.895999908447266 0.1289999932050705,42.06800079345703 C0.7269999980926514,44.07699966430664 0.8550000190734863,46.23500061035156 -0.4830000102519989,48.9900016784668 C3.0329999923706055,45.952999114990234 4.409999847412109,40.4010009765625 4.836999893188477,38.17599868774414 C4.580999851226807,40.4640007019043 4.63700008392334,46.59600067138672 10.784000396728516,53.861000061035156 C8.92300033569336,44.35900115966797 12.637999534606934,40.34000015258789 12.809000015258789,33.4109992980957 C12.88599967956543,40.5359992980957 16.773000717163086,41.58100128173828 16.773000717163086,41.58100128173828 C14.843999862670898,34.27199935913086 20.440000534057617,32.52799987792969 19.628000259399414,23.4950008392334 C23.992000579833984,27.250999450683594 22.065000534057617,33.84600067138672 22.065000534057617,33.84600067138672 C22.065000534057617,33.84600067138672 27.339000701904297,25.947999954223633 25,16.101999282836914 C26.820999145507812,22.090999603271484 30.77899932861328,21.989999771118164 30.77899932861328,21.989999771118164 C27.632999420166016,13.869999885559082 33.41899871826172,8.288999557495117 34.23099899291992,2.503000020980835 C37.58000183105469,7.171999931335449 36.93000030517578,11.734999656677246 36.93000030517578,11.734999656677246 C44.237998962402344,8.182999610900879 37.902000427246094,-3.321000099182129 43.93299865722656,-7.361999988555908 C43.93299865722656,-7.361999988555908 58.222999572753906,-36.17499923706055 58.222999572753906,-36.17499923706055 C58.222999572753906,-36.17499923706055 -2.308000087738037,-55.80699920654297 -2.308000087738037,-55.80699920654297z"></path></g><g opacity="1" transform="matrix(1,0,0,1,94.15599822998047,150.06700134277344)"><path fill="rgb(223,159,99)" fill-opacity="1" d=" M-0.041999999433755875,0.9449999928474426 C0.007000000216066837,0.33500000834465027 0.041999999433755875,-0.28700000047683716 0.032999999821186066,-0.9449999928474426 C-0.012000000104308128,-0.2879999876022339 -0.03500000014901161,0.33799999952316284 -0.041999999433755875,0.9449999928474426z"></path></g><g opacity="1" transform="matrix(1,0,0,1,73.41999816894531,116.40599822998047)"><path fill="rgb(223,159,99)" fill-opacity="1" d=" M0.014000000432133675,0.020999999716877937 C0.014000000432133675,0.020999999716877937 -0.014000000432133675,-0.020999999716877937 -0.014000000432133675,-0.020999999716877937 C-0.014000000432133675,-0.020999999716877937 0.014000000432133675,0.020999999716877937 0.014000000432133675,0.020999999716877937z"></path></g><g opacity="1" transform="matrix(1,0,0,1,90.6259994506836,98.06500244140625)"><path fill="rgb(72,64,70)" fill-opacity="1" d=" M51.630001068115234,-20.58300018310547 C31.815000534057617,2.7829999923706055 -8.267999649047852,32.595001220703125 -51.36800003051758,30.097000122070312 C-51.630001068115234,25.031999588012695 -45.435001373291016,14.706000328063965 -43.03799819946289,13.744999885559082 C-27.054000854492188,14.619000434875488 9.164999961853027,5.066999912261963 42.39899826049805,-32.595001220703125 C44.45899963378906,-32.33100128173828 51.37300109863281,-24.604999542236328 51.630001068115234,-20.58300018310547z"></path></g><g opacity="1" transform="matrix(1,0,0,1,130.15499877929688,80.5)"><path fill="rgb(255,238,207)" fill-opacity="1" d=" M1.409000039100647,9.895999908447266 C1.409000039100647,9.895999908447266 -9.895999908447266,-1.409000039100647 -9.895999908447266,-1.409000039100647 C-10.435999870300293,-1.9490000009536743 -10.435999870300293,-2.825000047683716 -9.895999908447266,-3.365000009536743 C-9.895999908447266,-3.365000009536743 -3.365000009536743,-9.895999908447266 -3.365000009536743,-9.895999908447266 C-2.825000047683716,-10.435999870300293 -1.9490000009536743,-10.435999870300293 -1.409000039100647,-9.895999908447266 C-1.409000039100647,-9.895999908447266 9.895999908447266,1.409000039100647 9.895999908447266,1.409000039100647 C10.435999870300293,1.9490000009536743 10.435999870300293,2.825000047683716 9.895999908447266,3.365000009536743 C9.895999908447266,3.365000009536743 3.365999937057495,9.895999908447266 3.365999937057495,9.895999908447266 C2.825000047683716,10.435999870300293 1.9490000009536743,10.435999870300293 1.409000039100647,9.895999908447266z"></path></g><g opacity="1" transform="matrix(1,0,0,1,115.72200012207031,93.08300018310547)"><path fill="rgb(255,238,207)" fill-opacity="1" d=" M-0.5870000123977661,10.36400032043457 C-0.5870000123977661,10.36400032043457 -9.734000205993652,-3.6059999465942383 -9.734000205993652,-3.6059999465942383 C-10.161999702453613,-4.258999824523926 -9.979999542236328,-5.135000228881836 -9.32699966430664,-5.563000202178955 C-9.32699966430664,-5.563000202178955 -1.3700000047683716,-10.77299976348877 -1.3700000047683716,-10.77299976348877 C-0.7170000076293945,-11.199999809265137 0.1599999964237213,-11.017000198364258 0.5879999995231628,-10.364999771118164 C0.5879999995231628,-10.364999771118164 9.734999656677246,3.6059999465942383 9.734999656677246,3.6059999465942383 C10.163000106811523,4.260000228881836 9.979999542236328,5.135000228881836 9.32699966430664,5.563000202178955 C9.32699966430664,5.563000202178955 1.3700000047683716,10.772000312805176 1.3700000047683716,10.772000312805176 C0.7170000076293945,11.199999809265137 -0.1589999943971634,11.017000198364258 -0.5870000123977661,10.36400032043457z"></path></g><g opacity="1" transform="matrix(1,0,0,1,97.73500061035156,104.9469985961914)"><path fill="rgb(255,238,207)" fill-opacity="1" d=" M-0.9380000233650208,10.614999771118164 C-0.9380000233650208,10.614999771118164 -9.661999702453613,-4.494999885559082 -9.661999702453613,-4.494999885559082 C-10.059000015258789,-5.182000160217285 -9.822999954223633,-6.061999797821045 -9.13599967956543,-6.458000183105469 C-9.13599967956543,-6.458000183105469 -1.0240000486373901,-11.140999794006348 -1.0240000486373901,-11.140999794006348 C-0.3370000123977661,-11.536999702453613 0.5410000085830688,-11.303000450134277 0.9380000233650208,-10.614999771118164 C0.9380000233650208,-10.614999771118164 9.661999702453613,4.494999885559082 9.661999702453613,4.494999885559082 C10.059000015258789,5.181000232696533 9.822999954223633,6.059999942779541 9.13599967956543,6.456999778747559 C9.13599967956543,6.456999778747559 1.0240000486373901,11.138999938964844 1.0240000486373901,11.138999938964844 C0.3370000123977661,11.536999702453613 -0.5419999957084656,11.302000045776367 -0.9380000233650208,10.614999771118164z"></path></g><g opacity="1" transform="matrix(1,0,0,1,78.322998046875,114.54199981689453)"><path fill="rgb(255,238,207)" fill-opacity="1" d=" M-3.563999891281128,9.869999885559082 C-3.563999891281128,9.869999885559082 -8.5600004196167,-6.072000026702881 -8.5600004196167,-6.072000026702881 C-8.795000076293945,-6.823999881744385 -8.37600040435791,-7.625999927520752 -7.625,-7.861000061035156 C-7.625,-7.861000061035156 1.774999976158142,-10.807000160217285 1.774999976158142,-10.807000160217285 C2.5269999504089355,-11.041999816894531 3.328000068664551,-10.623000144958496 3.563999891281128,-9.871000289916992 C3.563999891281128,-9.871000289916992 8.5600004196167,6.072000026702881 8.5600004196167,6.072000026702881 C8.795000076293945,6.823999881744385 8.376999855041504,7.625 7.624000072479248,7.860000133514404 C7.624000072479248,7.860000133514404 -1.774999976158142,10.805999755859375 -1.774999976158142,10.805999755859375 C-2.5269999504089355,11.041000366210938 -3.328000068664551,10.621999740600586 -3.563999891281128,9.869999885559082z"></path></g><g opacity="1" transform="matrix(1,0,0,1,56.88399887084961,119.70500183105469)"><path fill="rgb(255,238,207)" fill-opacity="1" d=" M-5.36899995803833,9.29800033569336 C-5.36899995803833,9.29800033569336 -7.506999969482422,-7.676000118255615 -7.506999969482422,-7.676000118255615 C-7.607999801635742,-8.473999977111816 -7.041999816894531,-9.204999923706055 -6.243000030517578,-9.305000305175781 C-6.243000030517578,-9.305000305175781 3.740999937057495,-10.560999870300293 3.740999937057495,-10.560999870300293 C4.539999961853027,-10.661999702453613 5.269000053405762,-10.097999572753906 5.369999885559082,-9.298999786376953 C5.369999885559082,-9.298999786376953 7.507999897003174,7.676000118255615 7.507999897003174,7.676000118255615 C7.609000205993652,8.473999977111816 7.041999816894531,9.20300006866455 6.243000030517578,9.303999900817871 C6.243000030517578,9.303999900817871 -3.742000102996826,10.562000274658203 -3.742000102996826,10.562000274658203 C-4.539999961853027,10.661999702453613 -5.26800012588501,10.095999717712402 -5.36899995803833,9.29800033569336z"></path></g><g opacity="1" transform="matrix(1,0,0,1,92.31300354003906,97.63800048828125)"><path fill="rgb(72,64,70)" fill-opacity="1" d=" M-46.43199920654297,25.194000244140625 C-46.077999114990234,25.198999404907227 -45.7239990234375,25.201000213623047 -45.369998931884766,25.201000213623047 C-34.849998474121094,25.200000762939453 -24.173999786376953,23.20800018310547 -13.857000350952148,19.788999557495117 C1.61899995803833,14.656999588012695 16.29400062561035,6.320000171661377 28.44499969482422,-3.4830000400543213 C34.52000045776367,-8.38599967956543 39.9630012512207,-13.659000396728516 44.553001403808594,-19.099000930786133 C45.141998291015625,-19.797000885009766 45.71699905395508,-20.49799919128418 46.277000427246094,-21.201000213623047 C46.430999755859375,-20.924999237060547 42.36399841308594,-24.990999221801758 42.44200134277344,-25.201000213623047 C40.42300033569336,-22.621999740600586 38.18000030517578,-20.058000564575195 35.742000579833984,-17.540000915527344 C25.972999572753906,-7.440999984741211 13.067999839782715,1.9160000085830688 -1.0870000123977661,8.70300006866455 C-15.241999626159668,15.496999740600586 -30.636999130249023,19.71500015258789 -45.369998931884766,19.711999893188477 C-45.70100021362305,19.711999893188477 -46.03099822998047,19.708999633789062 -46.361000061035156,19.704999923706055 C-46.361000061035156,19.704999923706055 -46.43199920654297,25.194000244140625 -46.43199920654297,25.194000244140625z"></path></g></g><g transform="matrix(0.48061832785606384,0.08162283897399902,-0.08162283897399902,0.48061832785606384,1179.5087890625,494.2907409667969)" opacity="1" style="display: block;"><g opacity="1" transform="matrix(1,0,0,1,107.93699645996094,80.98699951171875)"><path fill="rgb(184,111,76)" fill-opacity="1" d=" M-22.01799964904785,-30.285999298095703 C-25.261999130249023,-23.535999298095703 -39.3380012512207,-24.923999786376953 -41.6870002746582,-11.281999588012695 C-37.08000183105469,-17.06399917602539 -32.76100158691406,-15.946000099182129 -29.327999114990234,-17.66200065612793 C-36.555999755859375,-13.687000274658203 -37.00699996948242,-7.36299991607666 -37.00699996948242,-7.36299991607666 C-37.00699996948242,-7.36299991607666 -33.12200164794922,-11.699999809265137 -27.34000015258789,-11.699999809265137 C-28.423999786376953,-4.290999889373779 -34.20600128173828,0.6769999861717224 -36.736000061035156,1.5809999704360962 C-30.593000411987305,3.296999931335449 -23.906999588012695,-2.6610000133514404 -22.01799964904785,-6.7769999504089355 C-22.593000411987305,3.378999948501587 -30.773000717163086,4.111000061035156 -25.714000701904297,20.01300048828125 C-24.809999465942383,15.043000221252441 -19.298999786376953,12.062000274658203 -19.298999786376953,12.062000274658203 C-19.298999786376953,12.062000274658203 -17.22100067138672,23.44499969482422 -23.18400001525879,29.31800079345703 C-16.49799919128418,29.136999130249023 -11.800000190734863,20.916000366210938 -11.800000190734863,20.916000366210938 C-11.800000190734863,20.916000366210938 -10.354000091552734,29.229000091552734 -6.559999942779541,33.29399871826172 C-8.456999778747559,25.253000259399414 -1.0479999780654907,22.090999603271484 0.9390000104904175,16.128000259399414 C-0.9580000042915344,24.892000198364258 4.914999961853027,30.94499969482422 4.914999961853027,30.94499969482422 C4.914999961853027,30.94499969482422 4.26200008392334,20.59000015258789 11.59000015258789,9.730999946594238 C14.039999961853027,15.043000221252441 12.564000129699707,20.47100067138672 12.564000129699707,20.47100067138672 C12.564000129699707,20.47100067138672 17.743999481201172,17.121000289916992 17.11199951171875,4.291999816894531 C19.82200050354004,10.616000175476074 29.69499969482422,9.730999946594238 29.69499969482422,9.730999946594238 C22.71299934387207,6.190000057220459 24.43000030517578,-1.4900000095367432 21.7189998626709,-3.8389999866485596 C28.496000289916992,3.4790000915527344 41.6870002746582,0.7689999938011169 41.6870002746582,0.7689999938011169 C31.115999221801758,-1.128999948501587 23.948999404907227,-9.279999732971191 24.280000686645508,-19.840999603271484 C17.924999237060547,-22.541000366210938 -19.118000030517578,-33.29399871826172 -19.118000030517578,-33.29399871826172 C-19.118000030517578,-33.29399871826172 -22.01799964904785,-30.285999298095703 -22.01799964904785,-30.285999298095703z"></path></g><g opacity="1" transform="matrix(1,0,0,1,93.21299743652344,47.327999114990234)"><path fill="rgb(165,87,62)" fill-opacity="1" d=" M-1.38100004196167,-12.730999946594238 C-6.3460001945495605,-7.894000053405762 -9.520000457763672,4.334000110626221 -17.56800079345703,5.803999900817871 C-12.072999954223633,7.041999816894531 -8.204000473022461,3.947000026702881 -8.204000473022461,3.947000026702881 C-8.204000473022461,3.947000026702881 -13.234000205993652,7.584000110626221 -12.305999755859375,14.472000122070312 C-7.119999885559082,3.7149999141693115 8.04800033569336,-0.6190000176429749 13.85200023651123,1.8569999933242798 C16.4060001373291,0.07699999958276749 17.56800079345703,-2.940999984741211 17.56800079345703,-2.940999984741211 C17.56800079345703,-2.940999984741211 12.305000305175781,-13.621000289916992 12.305000305175781,-13.621000289916992 C12.305000305175781,-13.621000289916992 -1.7029999494552612,-14.472000122070312 -1.7029999494552612,-14.472000122070312 C-1.7029999494552612,-14.472000122070312 -1.38100004196167,-12.730999946594238 -1.38100004196167,-12.730999946594238z"></path></g><g opacity="1" transform="matrix(1,0,0,1,123.42900085449219,57.01100158691406)"><path fill="rgb(165,87,62)" fill-opacity="1" d=" M-6.775000095367432,-5.49399995803833 C7.256999969482422,0.3409999907016754 3.6670000553131104,15.649999618530273 2.9110000133514404,18.04400062561035 C7.697999954223633,11.491999626159668 6.689000129699707,3.428999900817871 6.689000129699707,3.428999900817871 C6.689000129699707,3.428999900817871 7.901000022888184,6.138000011444092 12.39799976348877,9.413999557495117 C7.13100004196167,1.034999966621399 10.961999893188477,-8.515000343322754 10.961999893188477,-8.515000343322754 C10.961999893188477,-8.515000343322754 10.720999717712402,-14.187000274658203 10.720999717712402,-14.187000274658203 C10.720999717712402,-14.187000274658203 -5.2789998054504395,-18.04400062561035 -5.2789998054504395,-18.04400062561035 C-5.2789998054504395,-18.04400062561035 -10.696999549865723,-14.187000274658203 -10.696999549865723,-14.187000274658203 C-10.696999549865723,-14.187000274658203 -12.39799976348877,-7.945000171661377 -12.39799976348877,-7.945000171661377 C-12.39799976348877,-7.945000171661377 -6.775000095367432,-5.49399995803833 -6.775000095367432,-5.49399995803833z"></path></g><g opacity="1" transform="matrix(1,0,0,1,104.2979965209961,74.0979995727539)"><path fill="rgb(165,87,62)" fill-opacity="1" d=" M-14.585000038146973,-11.156999588012695 C-16.78499984741211,-5.216000080108643 -12.128999710083008,9.347000122070312 -18.34600067138672,15.331000328063965 C-12.960000038146973,14.746999740600586 -10.041999816894531,4.383999824523926 -10.041999816894531,4.383999824523926 C-10.04800033569336,10.182999610900879 -7.047999858856201,18.18400001525879 -1.5759999752044678,24.089000701904297 C-2.2709999084472656,23.34000015258789 -0.6850000023841858,8.178999900817871 2.0439999103546143,4.383999824523926 C4.48199987411499,10.586999893188477 0.10300000011920929,17.599000930786133 0.10300000011920929,17.599000930786133 C0.10300000011920929,17.599000930786133 7.035999774932861,14.3100004196167 6.5980000495910645,1.9769999980926514 C8.567999839782715,11.902000427246094 5.502999782562256,22.045000076293945 5.502999782562256,22.045000076293945 C5.502999782562256,22.045000076293945 8.350000381469727,19.344999313354492 9.809000015258789,12.557999610900879 C11.269000053405762,5.770999908447266 14.130999565124512,3.186000108718872 16.23900032043457,-2.63700008392334 C18.347000122070312,-8.460000038146973 17.98200035095215,-14.305999755859375 17.98200035095215,-14.305999755859375 C17.98200035095215,-14.305999755859375 13.04699993133545,-21.56999969482422 13.04699993133545,-21.56999969482422 C13.04699993133545,-21.56999969482422 -2.305000066757202,-24.089000701904297 -2.305000066757202,-24.089000701904297 C-2.305000066757202,-24.089000701904297 -14.585000038146973,-16.70599937438965 -14.585000038146973,-16.70599937438965 C-14.585000038146973,-16.70599937438965 -14.585000038146973,-11.156999588012695 -14.585000038146973,-11.156999588012695z"></path></g><g opacity="1" transform="matrix(1,0,0,1,104.81800079345703,63.308998107910156)"><path fill="rgb(121,75,60)" fill-opacity="1" d=" M21.81800079345703,-0.6769999861717224 C21.166000366210938,-5.906000137329102 17.516000747680664,-9.196999549865723 13.779000282287598,-11.22700023651123 C16.464000701904297,-10.871999740600586 18.910999298095703,-12.118000030517578 19.538000106811523,-14.326000213623047 C20.256999969482422,-16.860000610351562 18.30900001525879,-19.695999145507812 15.187000274658203,-20.66200065612793 C12.425000190734863,-21.516000747680664 9.67199993133545,-20.618000030517578 8.574999809265137,-18.648000717163086 C8.574999809265137,-18.648000717163086 8.168999671936035,-19.945999145507812 8.168999671936035,-19.945999145507812 C8.168999671936035,-19.945999145507812 3.822999954223633,-19.766000747680664 3.822999954223633,-19.766000747680664 C3.7060000896453857,-22.198999404907227 1.3040000200271606,-24.20199966430664 -1.7769999504089355,-24.333999633789062 C-5.043000221252441,-24.474000930786133 -7.830999851226807,-22.457000732421875 -8.005000114440918,-19.82900047302246 C-8.170999526977539,-17.312000274658203 -5.875999927520752,-15.154000282287598 -2.812999963760376,-14.852999687194824 C-12.031000137329102,-14.862000465393066 -23.22800064086914,-9.406000137329102 -20.875,14.423999786376953 C-18.631999969482422,-0.4449999928474426 -11.003000259399414,-12.559000015258789 3.8299999237060547,-9.201000213623047 C18.663000106811523,-5.843999862670898 16.836000442504883,5.703000068664551 15.090999603271484,12.182000160217285 C13.347000122070312,18.660999298095703 13.75,21.89900016784668 14.753000259399414,24.474000930786133 C15.505999565124512,15.503999710083008 23.22800064086914,10.63599967956543 21.81800079345703,-0.6769999861717224z"></path></g><g opacity="1" transform="matrix(1,0,0,1,115.66400146484375,27.621000289916992)"><path fill="rgb(184,111,76)" fill-opacity="1" d=" M-5.035999774932861,-19.343000411987305 C4.355999946594238,-24.94700050354004 14.807000160217285,-17.37299919128418 18.139999389648438,-13.586000442504883 C21.472000122070312,-9.798999786376953 22.836000442504883,-8.890999794006348 26.319000244140625,-7.98199987411499 C23.743999481201172,-5.25600004196167 19.073999404907227,-6.781000137329102 19.073999404907227,-6.781000137329102 C19.073999404907227,-6.781000137329102 23.78499984741211,-5.236000061035156 25.18400001525879,0.06499999761581421 C26.58300018310547,5.364999771118164 28.716999053955078,6.321000099182129 28.716999053955078,6.321000099182129 C28.716999053955078,6.321000099182129 25.993999481201172,6.908999919891357 23.63800048828125,4.039000034332275 C27.319000244140625,9.854000091552734 25.18400001525879,17.80500030517578 25.18400001525879,17.80500030517578 C25.18400001525879,17.80500030517578 24.299999237060547,11.843000411987305 20.104000091552734,9.487000465393066 C19.736000061035156,13.3149995803833 24.374000549316406,19.865999221801758 19.073999404907227,24.945999145507812 C20.770999908447266,13.75100040435791 0.7160000205039978,6.961999893188477 -3.7699999809265137,20.035999298095703 C-4.468999862670898,21.135000228881836 -7.296999931335449,19.76099967956543 -7.296999931335449,19.76099967956543 C-4.203999996185303,6.5879998207092285 -22.729999542236328,2.5739998817443848 -28.018999099731445,9.958000183105469 C-28.718000411987305,2.374000072479248 -19.038000106811523,-0.5210000276565552 -19.038000106811523,-0.5210000276565552 C-19.038000106811523,-0.5210000276565552 -24.426000595092773,0.6779999732971191 -27.1200008392334,-1.0190000534057617 C-22.530000686645508,-1.8170000314712524 -21.56599998474121,-5.835999965667725 -16.990999221801758,-6.493000030517578 C-17.799999237060547,-8.064000129699707 -21.336999893188477,-9.07800006866455 -22.979999542236328,-7.670000076293945 C-18.860000610351562,-15.572999954223633 -8.65999984741211,-13.791999816894531 -8.65999984741211,-13.791999816894531 C-8.65999984741211,-13.791999816894531 -9.956999778747559,-17.485000610351562 -16.444000244140625,-16.38599967956543 C-11.852999687194824,-21.875 -5.035999774932861,-19.343000411987305 -5.035999774932861,-19.343000411987305z"></path></g><g opacity="1" transform="matrix(1,0,0,1,109.82599639892578,50.077999114990234)"><path fill="rgb(72,64,70)" fill-opacity="1" d=" M-0.4480000138282776,-3.8910000324249268 C-0.4480000138282776,-3.8910000324249268 -4.620999813079834,-1.812000036239624 -4.620999813079834,-1.812000036239624 C-6.494999885559082,-0.8790000081062317 -6.1539998054504395,1.8930000066757202 -4.109000205993652,2.3440001010894775 C-4.109000205993652,2.3440001010894775 2.9739999771118164,3.9059998989105225 2.9739999771118164,3.9059998989105225 C5.019000053405762,4.357999801635742 6.494999885559082,1.9869999885559082 5.188000202178955,0.35199999809265137 C5.188000202178955,0.35199999809265137 2.2769999504089355,-3.2899999618530273 2.2769999504089355,-3.2899999618530273 C1.6239999532699585,-4.10699987411499 0.48899999260902405,-4.357999801635742 -0.4480000138282776,-3.8910000324249268z"></path></g><g opacity="1" transform="matrix(1,0,0,1,105.6240005493164,61.73500061035156)"><path fill="rgb(116,48,77)" fill-opacity="1" d=" M-10.545999526977539,-2.9779999256134033 C-10.545999526977539,-2.9779999256134033 -4.416999816894531,-9.026000022888184 2.2320001125335693,-6.9070000648498535 C8.881999969482422,-4.7870001792907715 11.701000213623047,-1.6009999513626099 12.23900032043457,0.7549999952316284 C12.777000427246094,3.1110000610351562 13.234999656677246,9.026000022888184 7.427999973297119,6.322000026702881 C1.621000051498413,3.615999937057495 -2.99399995803833,1.4170000553131104 -7.0370001792907715,2.5369999408721924 C-10.588000297546387,2.0190000534057617 -13.234999656677246,-0.4880000054836273 -10.545999526977539,-2.9779999256134033z"></path></g><g opacity="1" transform="matrix(1,0,0,1,107.84100341796875,58.770999908447266)"><path fill="rgb(255,238,207)" fill-opacity="1" d=" M6.5329999923706055,-1.0720000267028809 C6.5329999923706055,-1.0720000267028809 6.581999778747559,-1.2359999418258667 6.581999778747559,-1.2359999418258667 C6.696000099182129,-1.6130000352859497 6.48199987411499,-2.009000062942505 6.105999946594238,-2.121999979019165 C6.105999946594238,-2.121999979019165 -4.791999816894531,-4.828999996185303 -4.791999816894531,-4.828999996185303 C-5.168000221252441,-4.942999839782715 -5.565000057220459,-4.729000091552734 -5.677999973297119,-4.353000164031982 C-5.677999973297119,-4.353000164031982 -5.880000114440918,-4.205999851226807 -5.880000114440918,-4.205999851226807 C-5.880000114440918,-4.205999851226807 -8.614999771118164,-3.5269999504089355 -8.614999771118164,-3.5269999504089355 C-8.614999771118164,-3.5269999504089355 -7.364999771118164,1.4110000133514404 -7.364999771118164,1.4110000133514404 C-7.302000045776367,1.6360000371932983 -7.0980000495910645,1.7890000343322754 -6.864999771118164,1.7910000085830688 C-6.864999771118164,1.7910000085830688 -6.86299991607666,1.7910000085830688 -6.86299991607666,1.7910000085830688 C-6.630000114440918,1.7910000085830688 -6.426000118255615,1.6380000114440918 -6.361000061035156,1.4149999618530273 C-6.361000061035156,1.4149999618530273 -5.480999946594238,-1.5750000476837158 -5.480999946594238,-1.5750000476837158 C-5.480999946594238,-1.5750000476837158 5.497000217437744,1.1160000562667847 5.497000217437744,1.1160000562667847 C5.497000217437744,1.1160000562667847 4.568999767303467,4.271999835968018 4.568999767303467,4.271999835968018 C4.502999782562256,4.494999885559082 4.5929999351501465,4.736000061035156 4.789999961853027,4.861000061035156 C4.877999782562256,4.915999889373779 4.9730000495910645,4.942999839782715 5.072000026702881,4.942999839782715 C5.196000099182129,4.942999839782715 5.318999767303467,4.8979997634887695 5.416999816894531,4.811999797821045 C5.416999816894531,4.811999797821045 8.614999771118164,1.4579999446868896 8.614999771118164,1.4579999446868896 C8.614999771118164,1.4579999446868896 6.5329999923706055,-1.0720000267028809 6.5329999923706055,-1.0720000267028809z"></path></g><g opacity="1" transform="matrix(1,0,0,1,106.0770034790039,63.41600036621094)"><path fill="rgb(255,238,207)" fill-opacity="1" d=" M6.322000026702881,3.5339999198913574 C6.322000026702881,3.5339999198913574 5.256999969482422,-0.9390000104904175 5.256999969482422,-0.9390000104904175 C5.181000232696533,-1.1829999685287476 4.953000068664551,-1.343999981880188 4.697999954223633,-1.340000033378601 C4.697999954223633,-1.340000033378601 4.697000026702881,-1.340000033378601 4.697000026702881,-1.340000033378601 C4.441999912261963,-1.3329999446868896 4.2230000495910645,-1.159000039100647 4.1579999923706055,-0.9139999747276306 C4.1579999923706055,-0.9139999747276306 4.0279998779296875,-0.4189999997615814 4.0279998779296875,-0.4189999997615814 C4.0279998779296875,-0.4189999997615814 -2.5320000648498535,-2.2090001106262207 -2.5320000648498535,-2.2090001106262207 C-2.5320000648498535,-2.2090001106262207 -2.371999979019165,-2.813999891281128 -2.371999979019165,-2.813999891281128 C-2.306999921798706,-3.059000015258789 -2.4119999408721924,-3.319999933242798 -2.63100004196167,-3.450000047683716 C-2.7279999256134033,-3.507999897003174 -2.8340001106262207,-3.5339999198913574 -2.940999984741211,-3.5309998989105225 C-3.0769999027252197,-3.5280001163482666 -3.2100000381469727,-3.4749999046325684 -3.313999891281128,-3.378000020980835 C-3.313999891281128,-3.378000020980835 -6.322000026702881,0.49300000071525574 -6.322000026702881,0.49300000071525574 C-6.322000026702881,0.49300000071525574 -3.069000005722046,0.890999972820282 -3.069000005722046,0.890999972820282 C-3.069000005722046,0.890999972820282 -3.0490000247955322,0.8159999847412109 -3.0490000247955322,0.8159999847412109 C-2.4130001068115234,1.1180000305175781 -1.718000054359436,1.3890000581741333 -1.5390000343322754,1.437999963760376 C-1.5390000343322754,1.437999963760376 1.7879999876022339,2.3380000591278076 1.7879999876022339,2.3380000591278076 C1.9900000095367432,2.3929998874664307 2.822999954223633,2.5179998874664307 3.5250000953674316,2.552999973297119 C3.5250000953674316,2.552999973297119 3.375,3.121999979019165 3.375,3.121999979019165 C3.375,3.121999979019165 6.322000026702881,3.5339999198913574 6.322000026702881,3.5339999198913574z"></path></g><g opacity="1" transform="matrix(1,0,0,1,106.35199737548828,61.37099838256836)"><path fill="rgb(240,182,162)" fill-opacity="1" d=" M12.555000305175781,0.3449999988079071 C12.555000305175781,0.3449999988079071 12.553999900817871,0.3449999988079071 12.553999900817871,0.3449999988079071 C11.77400016784668,-1.409000039100647 10.519000053405762,-3.071000099182129 8.92300033569336,-4.461999893188477 C7.083000183105469,-6.061999797821045 4.860000133514404,-7.203999996185303 2.494999885559082,-7.763000011444092 C0.8740000128746033,-8.145999908447266 -0.4830000102519989,-8.324000358581543 -1.7730000019073486,-8.324000358581543 C-1.7730000019073486,-8.324000358581543 -1.7790000438690186,-8.324000358581543 -1.7790000438690186,-8.324000358581543 C-3.2279999256134033,-8.324000358581543 -4.59499979019165,-8.095999717712402 -5.956999778747559,-7.624000072479248 C-7.392000198364258,-7.129000186920166 -8.821999549865723,-6.366000175476074 -10.329000473022461,-5.293000221252441 C-11.281000137329102,-4.616000175476074 -12.02299976348877,-3.8399999141693115 -12.53600025177002,-2.98799991607666 C-13.041999816894531,-2.1480000019073486 -13.309000015258789,-1.2380000352859497 -13.307999610900879,-0.3610000014305115 C-13.312999725341797,0.9039999842643738 -12.75100040435791,2.0980000495910645 -11.767999649047852,2.9149999618530273 C-10.788999557495117,3.7330000400543213 -9.460000038146973,4.166999816894531 -7.925000190734863,4.166999816894531 C-7.565000057220459,4.15500020980835 -7.183000087738037,4.142000198364258 -6.790999889373779,4.0920000076293945 C-6.284999847412109,4.0279998779296875 -5.73799991607666,3.996000051498413 -5.166999816894531,3.996000051498413 C-5.166999816894531,3.996000051498413 -5.160999774932861,3.996000051498413 -5.160999774932861,3.996000051498413 C-3.5859999656677246,3.996000051498413 -1.8289999961853027,4.249000072479248 -0.21199999749660492,4.710000038146973 C1.5429999828338623,5.208000183105469 3.119999885559082,5.936999797821045 4.349999904632568,6.818999767303467 C5.7210001945495605,7.802999973297119 7.172999858856201,8.322999954223633 8.550000190734863,8.324000358581543 C8.550000190734863,8.324000358581543 8.5600004196167,8.324000358581543 8.5600004196167,8.324000358581543 C9.765999794006348,8.324000358581543 10.894000053405762,7.908999919891357 11.734999656677246,7.15500020980835 C12.581000328063965,6.4029998779296875 13.128000259399414,5.320000171661377 13.277000427246094,4.10699987411499 C13.302000045776367,3.9130001068115234 13.312999725341797,3.7139999866485596 13.312999725341797,3.51200008392334 C13.312000274658203,2.5460000038146973 13.055999755859375,1.4800000190734863 12.555000305175781,0.3449999988079071z M10.791000366210938,3.51200008392334 C10.791000366210938,3.611999988555908 10.78600025177002,3.7070000171661377 10.774999618530273,3.7920000553131104 C10.694999694824219,4.420000076293945 10.45300006866455,4.919000148773193 10.057000160217285,5.27400016784668 C9.663999557495117,5.623000144958496 9.156999588012695,5.801000118255615 8.550000190734863,5.802999973297119 C8.550000190734863,5.802999973297119 8.54800033569336,5.802999973297119 8.54800033569336,5.802999973297119 C7.959000110626221,5.802999973297119 7.007999897003174,5.623000144958496 5.820000171661377,4.770999908447266 C4.335000038146973,3.7079999446868896 2.5390000343322754,2.869999885559082 0.4779999852180481,2.2829999923706055 C-1.3869999647140503,1.753999948501587 -3.3380000591278076,1.4739999771118164 -5.166999816894531,1.4730000495910645 C-5.848999977111816,1.4730000495910645 -6.501999855041504,1.5130000114440918 -7.111000061035156,1.5920000076293945 C-8.72599983215332,1.7970000505447388 -9.711000442504883,1.3480000495910645 -10.14799976348877,0.9829999804496765 C-10.572999954223633,0.621999979019165 -10.782999992370605,0.18199999630451202 -10.78600025177002,-0.3580000102519989 C-10.78600025177002,-0.7850000262260437 -10.647000312805176,-1.2339999675750732 -10.375,-1.6890000104904175 C-10.045999526977539,-2.2339999675750732 -9.524999618530273,-2.7690000534057617 -8.866000175476074,-3.23799991607666 C-7.559999942779541,-4.169000148773193 -6.339000225067139,-4.822000026702881 -5.133999824523926,-5.238999843597412 C-3.01200008392334,-5.9720001220703125 -1.0360000133514404,-6.006999969482422 1.9149999618530273,-5.309000015258789 C4.468999862670898,-4.705999851226807 6.822999954223633,-3.2739999294281006 8.541000366210938,-1.2799999713897705 C9.260000228881836,-0.4449999928474426 9.85099983215332,0.47099998593330383 10.24899959564209,1.3700000047683716 C10.595000267028809,2.1459999084472656 10.793000221252441,2.9260001182556152 10.791000366210938,3.51200008392334z"></path></g><g opacity="1" transform="matrix(0.19276109337806702,0.04696514084935188,-0.04696514084935188,0.19276109337806702,104.83000183105469,43.67100143432617)"><path fill="rgb(240,211,170)" fill-opacity="1" d=" M17.5,0 C17.5,0 17.5,0 17.5,0 C17.5,9.658249855041504 9.658249855041504,17.5 0,17.5 C0,17.5 0,17.5 0,17.5 C-9.658249855041504,17.5 -17.5,9.658249855041504 -17.5,0 C-17.5,0 -17.5,0 -17.5,0 C-17.5,-9.658249855041504 -9.658249855041504,-17.5 0,-17.5 C0,-17.5 0,-17.5 0,-17.5 C9.658249855041504,-17.5 17.5,-9.658249855041504 17.5,0z"></path></g><g opacity="1" transform="matrix(0.19276109337806702,0.04696514084935188,-0.04696514084935188,0.19276109337806702,117.53299713134766,46.7760009765625)"><path fill="rgb(240,211,170)" fill-opacity="1" d=" M17.5,0 C17.5,0 17.5,0 17.5,0 C17.5,9.658249855041504 9.658249855041504,17.5 0,17.5 C0,17.5 0,17.5 0,17.5 C-9.658249855041504,17.5 -17.5,9.658249855041504 -17.5,0 C-17.5,0 -17.5,0 -17.5,0 C-17.5,-9.658249855041504 -9.658249855041504,-17.5 0,-17.5 C0,-17.5 0,-17.5 0,-17.5 C9.658249855041504,-17.5 17.5,-9.658249855041504 17.5,0z"></path></g></g><g transform="matrix(0.48520147800445557,0.04728411138057709,-0.04728411138057709,0.48520147800445557,1182.160888671875,493.8709411621094)" opacity="1" style="display: block;"><g opacity="1" transform="matrix(1,0,0,1,44.43199920654297,17.895999908447266)"><path fill="rgb(140,125,141)" fill-opacity="1" d=" M37.632999420166016,-7.179999828338623 C37.632999420166016,-7.179999828338623 34.84400177001953,-9.944000244140625 34.84400177001953,-9.944000244140625 C34.84400177001953,-9.944000244140625 35.722999572753906,-14.013999938964844 35.722999572753906,-14.013999938964844 C35.722999572753906,-14.013999938964844 41.31999969482422,-15.529999732971191 41.31999969482422,-15.529999732971191 C39.82899856567383,-16.84600067138672 37.86899948120117,-17.645000457763672 35.722999572753906,-17.645000457763672 C31.95800018310547,-17.645000457763672 28.80299949645996,-15.170999526977539 27.70800018310547,-11.770000457763672 C27.70800018310547,-11.770000457763672 -29.26099967956543,3.7639999389648438 -29.26099967956543,3.7639999389648438 C-30.81100082397461,1.9160000085830688 -33.12200164794922,0.7279999852180481 -35.722999572753906,0.7279999852180481 C-40.39500045776367,0.7279999852180481 -44.18199920654297,4.513999938964844 -44.18199920654297,9.185999870300293 C-44.18199920654297,9.185999870300293 -37.632999420166016,7.178999900817871 -37.632999420166016,7.178999900817871 C-37.632999420166016,7.178999900817871 -34.84299850463867,9.944000244140625 -34.84299850463867,9.944000244140625 C-34.84299850463867,9.944000244140625 -35.722999572753906,14.015000343322754 -35.722999572753906,14.015000343322754 C-35.722999572753906,14.015000343322754 -41.31999969482422,15.529999732971191 -41.31999969482422,15.529999732971191 C-39.82899856567383,16.84600067138672 -37.86899948120117,17.645000457763672 -35.722999572753906,17.645000457763672 C-31.534000396728516,17.645000457763672 -28.065000534057617,14.597000122070312 -27.391000747680664,10.600000381469727 C-27.391000747680664,10.600000381469727 28.59600067138672,-4.664999961853027 28.59600067138672,-4.664999961853027 C30.097000122070312,-2.303999900817871 32.71900177001953,-0.7269999980926514 35.722999572753906,-0.7269999980926514 C40.39500045776367,-0.7269999980926514 44.18199920654297,-4.513999938964844 44.18199920654297,-9.185999870300293 C44.18199920654297,-9.185999870300293 37.632999420166016,-7.179999828338623 37.632999420166016,-7.179999828338623z"></path></g><g opacity="1" transform="matrix(1,0,0,1,38.2130012512207,18.496999740600586)"><path fill="rgb(72,64,70)" fill-opacity="1" d=" M10.447999954223633,-11.883999824523926 C8.0600004196167,-11.883999824523926 6.063000202178955,-10.534000396728516 5.386000156402588,-8.687000274658203 C4.4770002365112305,-10.081999778747559 2.752000093460083,-11.038000106811523 0.7480000257492065,-11.038000106811523 C-2.194000005722046,-11.038000106811523 -4.578999996185303,-9.001999855041504 -4.578999996185303,-6.489999771118164 C-4.578999996185303,-6.388000011444092 -4.552000045776367,-6.293000221252441 -4.544000148773193,-6.192999839782715 C-5.377999782562256,-7.204999923706055 -6.625,-7.863999843597412 -8.038999557495117,-7.863999843597412 C-10.550999641418457,-7.863999843597412 -12.586000442504883,-5.828999996185303 -12.586000442504883,-3.318000078201294 C-12.586000442504883,-2.7149999141693115 -12.463000297546387,-2.1429998874664307 -12.25,-1.6169999837875366 C-14.208999633789062,-1.5360000133514404 -15.776000022888184,0.06599999964237213 -15.776000022888184,2.0450000762939453 C-15.776000022888184,2.875999927520752 -15.489999771118164,3.634000062942505 -15.024999618530273,4.25 C-15.024999618530273,4.25 -15.03499984741211,4.258999824523926 -15.03499984741211,4.258999824523926 C-15.03499984741211,4.258999824523926 -10.939000129699707,9.982999801635742 -10.939000129699707,9.982999801635742 C-10.939000129699707,9.982999801635742 -10.875,10.072999954223633 -10.875,10.072999954223633 C-10.875,10.072999954223633 -10.848999977111816,10.109999656677246 -10.848999977111816,10.109999656677246 C-10.848999977111816,10.109999656677246 -10.845000267028809,10.109000205993652 -10.845000267028809,10.109000205993652 C-10.378000259399414,10.737000465393066 -9.635000228881836,11.149999618530273 -8.791999816894531,11.149999618530273 C-7.672999858856201,11.149999618530273 -6.730999946594238,10.428999900817871 -6.380000114440918,9.430999755859375 C-5.874000072479248,10.857000350952148 -4.5269999504089355,11.883999824523926 -2.927999973297119,11.883999824523926 C-0.8970000147819519,11.883999824523926 0.7480000257492065,10.23799991607666 0.7480000257492065,8.206999778747559 C0.7480000257492065,8.10099983215332 0.7260000109672546,8.001999855041504 0.7179999947547913,7.89900016784668 C1.284000039100647,9.199000358581543 2.5769999027252197,10.109999656677246 4.085999965667725,10.109999656677246 C6.047999858856201,10.109999656677246 7.636000156402588,8.569000244140625 7.743000030517578,6.633999824523926 C8.36299991607666,7.788000106811523 9.567000389099121,8.581999778747559 10.968999862670898,8.581999778747559 C13,8.581999778747559 14.645999908447266,6.935999870300293 14.645999908447266,4.906000137329102 C14.645999908447266,4.906000137329102 15.776000022888184,-7.336999893188477 15.776000022888184,-7.336999893188477 C15.776000022888184,-9.847999572753906 13.390999794006348,-11.883999824523926 10.447999954223633,-11.883999824523926z"></path></g><g opacity="1" transform="matrix(1,0,0,1,60.8849983215332,12.680999755859375)"><path fill="rgb(72,64,70)" fill-opacity="1" d=" M1.621999979019165,-6.236999988555908 C-1.156999945640564,-7.202000141143799 -4.078999996185303,-6.060999870300293 -4.9019999504089355,-3.688999891281128 C-4.993000030517578,-3.4260001182556152 -5.044000148773193,-3.1579999923706055 -5.078000068664551,-2.890000104904175 C-5.078000068664551,-2.890000104904175 -5.0879998207092285,-2.8949999809265137 -5.0879998207092285,-2.8949999809265137 C-5.0879998207092285,-2.8949999809265137 -5.910999774932861,2.747999906539917 -5.910999774932861,2.747999906539917 C-5.960999965667725,2.992000102996826 -5.98799991607666,3.243000030517578 -5.98799991607666,3.502000093460083 C-5.98799991607666,5.546000003814697 -4.330999851226807,7.202000141143799 -2.2880001068115234,7.202000141143799 C-1.1610000133514404,7.202000141143799 -0.164000004529953,6.689000129699707 0.5139999985694885,5.894000053405762 C0.5139999985694885,5.894000053405762 0.527999997138977,5.901000022888184 0.527999997138977,5.901000022888184 C0.527999997138977,5.901000022888184 4.568999767303467,0.9089999794960022 4.568999767303467,0.9089999794960022 C4.568999767303467,0.9089999794960022 4.546999931335449,0.8999999761581421 4.546999931335449,0.8999999761581421 C4.801000118255615,0.5690000057220459 5.021999835968018,0.21299999952316284 5.164000034332275,-0.1940000057220459 C5.98799991607666,-2.566999912261963 4.4019999504089355,-5.271999835968018 1.621999979019165,-6.236999988555908z"></path></g></g></g></g></g></svg>