<svg xmlns="http://www.w3.org/2000/svg" viewBox="0 0 16 39" width="16" height="39" preserveAspectRatio="xMidYMid meet" style="width: 100%; height: 100%; transform: translate3d(0px, 0px, 0px); content-visibility: visible;"><defs><clipPath id="__lottie_element_3659"><rect width="16" height="39" x="0" y="0"></rect></clipPath></defs><g clip-path="url(#__lottie_element_3659)"><g transform="matrix(1.8059998750686646,0,0,1.8059998750686646,-31.761674880981445,-31.67460060119629)" opacity="1" style="display: block;"><g opacity="1" transform="matrix(1,0,0,1,22.177000045776367,37.159000396728516)"><path stroke-linecap="round" stroke-linejoin="round" fill-opacity="0" stroke="rgb(179,82,48)" stroke-opacity="1" stroke-width="1" d=" M3.686000108718872,-0.9860000014305115 C3.686000108718872,-0.9860000014305115 -3.686000108718872,0.9860000014305115 -3.686000108718872,0.9860000014305115"></path></g><g opacity="1" transform="matrix(1,0,0,1,22.177000045776367,37.159000396728516)"><path stroke-linecap="round" stroke-linejoin="round" fill-opacity="0" stroke="rgb(179,82,48)" stroke-opacity="1" stroke-width="1" d=" M-3.684999942779541,-0.9860000014305115 C-3.684999942779541,-0.9860000014305115 3.684999942779541,0.9860000014305115 3.684999942779541,0.9860000014305115"></path></g></g><g transform="matrix(1.8059998750686646,0,0,2.3644511699676514,-32.01967239379883,-51.647010803222656)" opacity="0.6" style="display: block;"><g opacity="1" transform="matrix(1,0,0,1,21.71299934387207,29.600000381469727)"><path fill="rgb(255,238,207)" fill-opacity="1" d=" M0.17800000309944153,7.39300012588501 C-0.2669999897480011,6.934000015258789 -0.37299999594688416,6.4770002365112305 -0.2680000066757202,6.0289998054504395 C0.032999999821186066,4.73799991607666 2.075000047683716,3.505000114440918 2.75,2.4100000858306885 C3.736999988555908,0.8090000152587891 3.63100004196167,-1.2289999723434448 2.3580000400543213,-2.6710000038146973 C0.9509999752044678,-4.264999866485596 -0.09399999678134918,-5.045000076293945 -0.3619999885559082,-6.357999801635742 C-0.48100000619888306,-6.940999984741211 0.16500000655651093,-7.538000106811523 0.5370000004768372,-7.682000160217285 C-0.6919999718666077,-7.482999801635742 -0.9300000071525574,-7.480999946594238 -1.565999984741211,-7.01200008392334 C-2.4059998989105225,-6.392000198364258 -4.048999786376953,-4.427999973297119 -1.4839999675750732,-1.1540000438690186 C-0.47699999809265137,0.13199999928474426 -0.9309999942779541,1.7020000219345093 -1.715000033378601,2.6510000228881836 C-2.763000011444092,3.9189999103546143 -3.4769999980926514,5.283999919891357 0.17800000309944153,7.39300012588501z"></path></g></g></g></svg>