<svg xmlns="http://www.w3.org/2000/svg" viewBox="0 0 97 92" width="97" height="92" preserveAspectRatio="xMidYMid meet" style="width: 100%; height: 100%; transform: translate3d(0px, 0px, 0px); content-visibility: visible;"><defs><clipPath id="__lottie_element_1881"><rect width="97" height="92" x="0" y="0"></rect></clipPath></defs><g clip-path="url(#__lottie_element_1881)"><g transform="matrix(1.8059998750686646,0,0,1.8059998750686646,21.60716438293457,3.2726597785949707)" opacity="1" style="display: block;"><g opacity="1" transform="matrix(1,0,0,1,30.954999923706055,12.628000259399414)"><path fill="rgb(255,201,77)" fill-opacity="1" d=" M-10.83899974822998,-11.869000434875488 C-10.83899974822998,-11.869000434875488 -11.916999816894531,-9.348999977111816 -10.968999862670898,-7.985000133514404 C-10.836999893188477,-7.795000076293945 -6.625,-6.534999847412109 -6.447000026702881,-6.348999977111816 C-2.1019999980926514,-1.8220000267028809 -6.238999843597412,2.5439999103546143 -3.9800000190734863,5.86899995803833 C-3.2690000534057617,6.915999889373779 -7.025000095367432,7.544000148773193 -6.629000186920166,9.42199993133545 C-6.205999851226807,11.427000045776367 9.791999816894531,11.255999565124512 10.395999908447266,9.472999572753906 C10.904000282287598,7.9730000495910645 8.118000030517578,5.686999797821045 6.706999778747559,6.0329999923706055 C4.6479997634887695,6.538000106811523 3.9749999046325684,6.614999771118164 3.4600000381469727,5.4029998779296875 C1.9329999685287476,1.809000015258789 0.7609999775886536,4.9730000495910645 -0.28600001335144043,4.1479997634887695 C-3.867000102996826,1.3270000219345093 -0.09600000083446503,-4.955999851226807 -1.503999948501587,-6.497000217437744 C-1.4529999494552612,-7.383999824523926 -2.239000082015991,-6.5269999504089355 -2.7119998931884766,-8.866999626159668 C-3.0409998893737793,-10.493000030517578 -5.309999942779541,-9.170000076293945 -6.238999843597412,-11.72599983215332 C-6.684000015258789,-12.949999809265137 -10.83899974822998,-11.869000434875488 -10.83899974822998,-11.869000434875488z"></path></g></g><g transform="matrix(1.8059998750686646,0,0,1.8059998750686646,21.60716438293457,3.2726597785949707)" opacity="1" style="display: block;"><g opacity="1" transform="matrix(1,0,0,1,18.58799934387207,10.109999656677246)"><path fill="rgb(240,108,94)" fill-opacity="1" d=" M7.888999938964844,-1.4980000257492065 C7.585999965667725,2.00600004196167 5.7789998054504395,4.333000183105469 3.4820001125335693,5.677999973297119 C1.184999942779541,7.02400016784668 -2.247999906539917,7.888999938964844 -3.0179998874664307,7.11899995803833 C-3.0179998874664307,7.11899995803833 -7.119999885559082,3.0169999599456787 -7.119999885559082,3.0169999599456787 C-7.889999866485596,2.246999979019165 -7.025000095367432,-1.184000015258789 -5.679999828338623,-3.4809999465942383 C-4.334000110626221,-5.7779998779296875 -2.006999969482422,-7.585999965667725 1.496999979019165,-7.888999938964844 C1.496999979019165,-7.888999938964844 7.888999938964844,-1.4980000257492065 7.888999938964844,-1.4980000257492065z"></path></g><g opacity="1" transform="matrix(1,0,0,1,23.68400001525879,5.014999866485596)"><path fill="rgb(240,108,94)" fill-opacity="1" d=" M4.298999786376953,2.6110000610351562 C4.298999786376953,2.6110000610351562 -2.6110000610351562,-4.297999858856201 -2.6110000610351562,-4.297999858856201 C-3.0769999027252197,-4.763999938964844 -3.8329999446868896,-4.763999938964844 -4.298999786376953,-4.297999858856201 C-4.764999866485596,-3.8320000171661377 -4.764999866485596,-3.0769999027252197 -4.298999786376953,-2.6110000610351562 C-4.298999786376953,-2.6110000610351562 2.6110000610351562,4.297999858856201 2.6110000610351562,4.297999858856201 C3.0769999027252197,4.763999938964844 3.8329999446868896,4.763999938964844 4.298999786376953,4.297999858856201 C4.764999866485596,3.8320000171661377 4.764999866485596,3.0769999027252197 4.298999786376953,2.6110000610351562z"></path></g><g opacity="1" transform="matrix(1,0,0,1,17.687999725341797,11.010000228881836)"><path fill="rgb(193,66,60)" fill-opacity="1" d=" M-4.7789998054504395,-4.381999969482422 C-6.124000072479248,-2.0850000381469727 -6.989999771118164,1.347000002861023 -6.21999979019165,2.117000102996826 C-6.21999979019165,2.117000102996826 -2.117000102996826,6.218999862670898 -2.117000102996826,6.218999862670898 C-1.347000002861023,6.988999843597412 2.0840001106262207,6.124000072479248 4.381999969482422,4.7789998054504395 C5.368000030517578,4.201000213623047 6.263999938964844,3.441999912261963 6.989999771118164,2.486999988555908 C6.989999771118164,2.486999988555908 -2.4860000610351562,-6.989999771118164 -2.4860000610351562,-6.989999771118164 C-3.441999912261963,-6.263999938964844 -4.201000213623047,-5.36899995803833 -4.7789998054504395,-4.381999969482422z"></path></g></g><g transform="matrix(1.8059998750686646,0,0,1.8059998750686646,21.607168197631836,3.2726597785949707)" opacity="1" style="display: block;"><g opacity="1" transform="matrix(1,0,0,1,12.92199993133545,20.79800033569336)"><path fill="rgb(79,184,79)" fill-opacity="1" d=" M5.059999942779541,-2.9210000038146973 C5.059999942779541,-2.9210000038146973 -5.059999942779541,-2.9210000038146973 -5.059999942779541,-2.9210000038146973 C-5.059999942779541,-2.9210000038146973 -5.059999942779541,2.9210000038146973 -5.059999942779541,2.9210000038146973 C-5.059999942779541,2.9210000038146973 5.059999942779541,2.9210000038146973 5.059999942779541,2.9210000038146973 C5.059999942779541,2.9210000038146973 5.059999942779541,-2.9210000038146973 5.059999942779541,-2.9210000038146973z"></path></g><g opacity="1" transform="matrix(1,0,0,1,17.98200035095215,17.875999450683594)"><path fill="rgb(79,184,79)" fill-opacity="1" d=" M5.8420000076293945,0 C5.8420000076293945,-3.2260000705718994 3.2260000705718994,-5.8420000076293945 0,-5.8420000076293945 C-3.2269999980926514,-5.8420000076293945 -5.8420000076293945,-3.2260000705718994 -5.8420000076293945,0 C-5.8420000076293945,3.2269999980926514 -3.2269999980926514,5.8420000076293945 0,5.8420000076293945 C3.2260000705718994,5.8420000076293945 5.8420000076293945,3.2269999980926514 5.8420000076293945,0z"></path></g><g opacity="1" transform="matrix(1,0,0,1,7.861999988555908,16.106000900268555)"><path fill="rgb(79,184,79)" fill-opacity="1" d=" M7.61299991607666,0 C7.61299991607666,-4.203999996185303 4.204999923706055,-7.611999988555908 0.0010000000474974513,-7.611999988555908 C-4.203999996185303,-7.611999988555908 -7.61299991607666,-4.203999996185303 -7.61299991607666,0 C-7.61299991607666,4.203999996185303 -4.203999996185303,7.611999988555908 0.0010000000474974513,7.611999988555908 C4.204999923706055,7.611999988555908 7.61299991607666,4.203999996185303 7.61299991607666,0z"></path></g></g><g transform="matrix(1.8059998750686646,0,0,1.8059998750686646,0.684138834476471,54.439476013183594)" opacity="1" style="display: block;"><g opacity="1" transform="matrix(1,0,0,1,24.011999130249023,11.75100040435791)"><path fill="rgb(255,201,77)" fill-opacity="1" d=" M-2.4649999141693115,-1.6749999523162842 C-3.36899995803833,-1.3420000076293945 -4.011000156402588,-0.8130000233650208 -3.992000102996826,-0.052000001072883606 C-3.9820001125335693,0.36800000071525574 -3.756999969482422,0.7549999952316284 -3.4600000381469727,1.0190000534057617 C-1.996000051498413,2.318000078201294 0.6710000038146973,2.1659998893737793 2.3499999046325684,1.4980000257492065 C3.734999895095825,0.9480000138282776 4.011000156402588,-0.8460000157356262 2.828000068664551,-1.659000039100647 C2,-2.2279999256134033 -0.7200000286102295,-2.318000078201294 -2.4649999141693115,-1.6749999523162842z"></path></g><g opacity="1" transform="matrix(1,0,0,1,29.777999877929688,2.568000078201294)"><path fill="rgb(255,201,77)" fill-opacity="1" d=" M-2.4649999141693115,-1.6749999523162842 C-3.36899995803833,-1.3420000076293945 -4.011000156402588,-0.8130000233650208 -3.992000102996826,-0.052000001072883606 C-3.9820001125335693,0.36800000071525574 -3.756999969482422,0.7549999952316284 -3.4600000381469727,1.0190000534057617 C-1.996000051498413,2.318000078201294 0.6710000038146973,2.1659998893737793 2.3499999046325684,1.4980000257492065 C3.734999895095825,0.9480000138282776 4.011000156402588,-0.8460000157356262 2.828000068664551,-1.659000039100647 C2,-2.2279999256134033 -0.7200000286102295,-2.318000078201294 -2.4649999141693115,-1.6749999523162842z"></path></g><g opacity="1" transform="matrix(1,0,0,1,4.261000156402588,18.45599937438965)"><path fill="rgb(255,201,77)" fill-opacity="1" d=" M-2.4649999141693115,-1.6749999523162842 C-3.36899995803833,-1.3420000076293945 -4.011000156402588,-0.8130000233650208 -3.992000102996826,-0.052000001072883606 C-3.9820001125335693,0.36800000071525574 -3.756999969482422,0.7549999952316284 -3.4600000381469727,1.0190000534057617 C-1.996000051498413,2.318000078201294 0.6710000038146973,2.1659998893737793 2.3499999046325684,1.4980000257492065 C3.734999895095825,0.9480000138282776 4.011000156402588,-0.8460000157356262 2.828000068664551,-1.659000039100647 C2,-2.2279999256134033 -0.7200000286102295,-2.318000078201294 -2.4649999141693115,-1.6749999523162842z"></path></g><g opacity="1" transform="matrix(1,0,0,1,10.027000427246094,9.27299976348877)"><path fill="rgb(255,201,77)" fill-opacity="1" d=" M-2.4649999141693115,-1.6749999523162842 C-3.36899995803833,-1.3420000076293945 -4.011000156402588,-0.8130000233650208 -3.992000102996826,-0.052000001072883606 C-3.9820001125335693,0.36800000071525574 -3.756999969482422,0.7549999952316284 -3.4600000381469727,1.0180000066757202 C-1.996000051498413,2.318000078201294 0.6710000038146973,2.1659998893737793 2.3499999046325684,1.4980000257492065 C3.734999895095825,0.9480000138282776 4.011000156402588,-0.8460000157356262 2.828000068664551,-1.659000039100647 C2,-2.2279999256134033 -0.7200000286102295,-2.318000078201294 -2.4649999141693115,-1.6749999523162842z"></path></g></g></g></svg>