<svg xmlns="http://www.w3.org/2000/svg" viewBox="0 0 238 139" width="238" height="139" preserveAspectRatio="xMidYMid meet" style="width: 100%; height: 100%; transform: translate3d(0px, 0px, 0px); content-visibility: visible;"><defs><clipPath id="__lottie_element_162"><rect width="238" height="139" x="0" y="0"></rect></clipPath></defs><g clip-path="url(#__lottie_element_162)"><g transform="matrix(0.3330000042915344,0,0,0.3330000042915344,-476.5372009277344,-659.985595703125)" opacity="1" style="display: block;"><g opacity="1" transform="matrix(1,0,0,1,1942.43994140625,2234.761962890625)"><path stroke-linecap="round" stroke-linejoin="round" fill-opacity="0" stroke="rgb(167,95,68)" stroke-opacity="1" stroke-width="6" d=" M-108.41300201416016,66.87899780273438 C-38.39547348022461,128.1902618408203 98.5360336303711,77.10420989990234 129.28199768066406,-119.89672088623047"></path></g></g><g transform="matrix(0.3330000042915344,0,0,0.3330000042915344,-476.5372009277344,-659.985595703125)" opacity="1" style="display: block;"><g opacity="1" transform="matrix(1,0,0,1,1601.823974609375,2248.93408203125)"><path stroke-linecap="round" stroke-linejoin="round" fill-opacity="0" stroke="rgb(113,66,56)" stroke-opacity="1" stroke-width="6" d=" M-36.013999938964844,17.491464614868164 C-9.6899995803833,66.30646514892578 38.128700256347656,80.84056091308594 65.33000183105469,10.652000427246094"></path></g></g><g transform="matrix(0.3330000042915344,0,0,0.3330000042915344,-476.5372009277344,-659.985595703125)" opacity="1" style="display: block;"><g opacity="1" transform="matrix(1,0,0,1,1620.385986328125,2212.15087890625)"><path stroke-linecap="round" stroke-linejoin="round" fill-opacity="0" stroke="rgb(167,95,68)" stroke-opacity="1" stroke-width="6" d=" M-59.67100143432617,-36.45672607421875 C-56.30099868774414,-15.249724388122559 -49.150001525878906,4.393275737762451 -35.29399871826172,22.794275283813477 C-11.161999702453613,54.84127426147461 26.59048843383789,58.78986358642578 59.67100143432617,33.18899917602539"></path></g></g><g transform="matrix(0.3330000042915344,0,0,0.3330000042915344,-476.5372009277344,-660.403564453125)" opacity="1" style="display: block;"><g opacity="1" transform="matrix(1,0,0,1,2051.6669921875,2042.8409423828125)"><path fill="rgb(0,155,79)" fill-opacity="1" d=" M7.418000221252441,0 C7.418000221252441,-4.0970001220703125 4.0970001220703125,-7.418000221252441 0,-7.418000221252441 C-4.0970001220703125,-7.418000221252441 -7.418000221252441,-4.0970001220703125 -7.418000221252441,0 C-7.418000221252441,4.0970001220703125 -4.0970001220703125,7.418000221252441 0,7.418000221252441 C4.0970001220703125,7.418000221252441 7.418000221252441,4.0970001220703125 7.418000221252441,0z"></path></g><g opacity="1" transform="matrix(1,0,0,1,2051.6669921875,2042.8409423828125)"><path stroke-linecap="butt" stroke-linejoin="miter" fill-opacity="0" stroke-miterlimit="10" stroke="rgb(0,155,79)" stroke-opacity="1" stroke-width="2" d=" M7.418000221252441,0 C7.418000221252441,-4.0970001220703125 4.0970001220703125,-7.418000221252441 0,-7.418000221252441 C-4.0970001220703125,-7.418000221252441 -7.418000221252441,-4.0970001220703125 -7.418000221252441,0 C-7.418000221252441,4.0970001220703125 -4.0970001220703125,7.418000221252441 0,7.418000221252441 C4.0970001220703125,7.418000221252441 7.418000221252441,4.0970001220703125 7.418000221252441,0z"></path></g><g opacity="1" transform="matrix(1,0,0,1,2131.862060546875,2035.4219970703125)"><path fill="rgb(0,155,79)" fill-opacity="1" d=" M7.418000221252441,0 C7.418000221252441,-4.0980000495910645 4.0970001220703125,-7.419000148773193 0,-7.419000148773193 C-4.0970001220703125,-7.419000148773193 -7.418000221252441,-4.0980000495910645 -7.418000221252441,0 C-7.418000221252441,4.0970001220703125 -4.0970001220703125,7.418000221252441 0,7.418000221252441 C4.0970001220703125,7.418000221252441 7.418000221252441,4.0970001220703125 7.418000221252441,0z"></path></g><g opacity="1" transform="matrix(1,0,0,1,2131.862060546875,2035.4219970703125)"><path stroke-linecap="butt" stroke-linejoin="miter" fill-opacity="0" stroke-miterlimit="10" stroke="rgb(0,155,79)" stroke-opacity="1" stroke-width="2" d=" M7.418000221252441,0 C7.418000221252441,-4.0980000495910645 4.0970001220703125,-7.419000148773193 0,-7.419000148773193 C-4.0970001220703125,-7.419000148773193 -7.418000221252441,-4.0980000495910645 -7.418000221252441,0 C-7.418000221252441,4.0970001220703125 -4.0970001220703125,7.418000221252441 0,7.418000221252441 C4.0970001220703125,7.418000221252441 7.418000221252441,4.0970001220703125 7.418000221252441,0z"></path></g><g opacity="1" transform="matrix(1,0,0,1,2084.507080078125,2092.97705078125)"><path fill="rgb(223,159,99)" fill-opacity="1" d=" M-53.130001068115234,-45.28900146484375 C-53.53200149536133,-44.90299987792969 -53.9010009765625,-44.47800064086914 -54.233001708984375,-44.012001037597656 C-57.553001403808594,-39.334999084472656 -55.24599838256836,-32.439998626708984 -50.89899826049805,-28.698999404907227 C-49.25600051879883,-27.28499984741211 -47.277000427246094,-26.05699920654297 -46.452999114990234,-24.051000595092773 C-45.854000091552734,-22.59600067138672 -45.970001220703125,-20.961000442504883 -46.04999923706055,-19.389999389648438 C-46.4010009765625,-12.57800006866455 -47.47999954223633,2.2230000495910645 -41.667999267578125,6.709000110626221 C-35.768001556396484,11.262999534606934 -26.39900016784668,5.980999946594238 -20.62700080871582,11.519000053405762 C-18.659000396728516,13.406999588012695 -17.77400016784668,16.128999710083008 -16.961000442504883,18.73200035095215 C-15.342000007629395,23.91200065612793 -13.722999572753906,29.091999053955078 -12.104999542236328,34.27199935913086 C-9.982000350952148,41.06399917602539 -7.797999858856201,47.983001708984375 -3.6730000972747803,53.78300094604492 C0.45100000500679016,59.58300018310547 6.914000034332275,64.18299865722656 14.031000137329102,64.23200225830078 C24.1200008392334,64.302001953125 32.266998291015625,55.303001403808594 35.39699935913086,45.71200180053711 C38.52799987792969,36.12099838256836 38.0260009765625,25.784000396728516 39.071998596191406,15.75 C45.74599838256836,13.996999740600586 53.404998779296875,8.418999671936035 55.77299880981445,1.805999994277954 C57.433998107910156,-2.8350000381469727 57.46500015258789,-7.877999782562256 57.47600173950195,-12.807999610900879 C57.49800109863281,-22.288999557495117 57.52000045776367,-31.770000457763672 57.54199981689453,-41.25299835205078 C57.553001403808594,-46.130001068115234 57.332000732421875,-51.58599853515625 53.81700134277344,-54.97100067138672 C45.720001220703125,-62.762001037597656 29.0939998626709,-64.302001953125 18.674999237060547,-62.4900016784668 C12.722000122070312,-61.45500183105469 6.830999851226807,-58.474998474121094 3.6619999408721924,-53.33100128173828 C3.2290000915527344,-52.62799835205078 2.815999984741211,-51.85599899291992 2.0989999771118164,-51.448001861572266 C1.5759999752044678,-51.150001525878906 0.9559999704360962,-51.08700180053711 0.3580000102519989,-51.02799987792969 C-13.940999984741211,-49.645999908447266 -28.264999389648438,-51.60499954223633 -42.74300003051758,-49.301998138427734 C-46.4630012512207,-48.72700119018555 -50.4900016784668,-47.82899856567383 -53.130001068115234,-45.28900146484375z"></path></g><g opacity="1" transform="matrix(1,0,0,1,2077.60302734375,2105.950927734375)"><path fill="rgb(167,95,68)" fill-opacity="1" d=" M42.301998138427734,32.737998962402344 C44.27000045776367,26.707000732421875 44.80099868774414,20.381000518798828 45.18600082397461,14.020000457763672 C43.83300018310547,11.395000457763672 42.07500076293945,8.963000297546387 39.60300064086914,7.394000053405762 C34.00699996948242,3.8450000286102295 31.975000381469727,6.796000003814697 29.305999755859375,11.64900016784668 C28.003000259399414,14.019000053405762 26.05699920654297,16.445999145507812 23.361000061035156,16.663999557495117 C20.155000686645508,16.92300033569336 17.472999572753906,14.019000053405762 16.277999877929688,11.034000396728516 C14.35099983215332,6.2210001945495605 13.3149995803833,-0.15299999713897705 13.3149995803833,-17.615999221801758 C13.3149995803833,-26.541000366210938 15.706000328063965,-35.85599899291992 22.05699920654297,-42.534000396728516 C22.05699920654297,-42.534000396728516 -10.173999786376953,-51.327999114990234 -10.173999786376953,-51.327999114990234 C-16.106000900268555,-50.91400146484375 -22.011999130249023,-50.111000061035156 -27.839000701904297,-48.92499923706055 C-33.821998596191406,-47.70800018310547 -39.970001220703125,-45.909000396728516 -45.1870002746582,-42.847999572753906 C-44.80799865722656,-42.43299865722656 -44.415000915527344,-42.034000396728516 -43.994998931884766,-41.67300033569336 C-42.35200119018555,-40.25899887084961 -40.374000549316406,-39.03099822998047 -39.54899978637695,-37.025001525878906 C-38.95000076293945,-35.56999969482422 -39.064998626708984,-33.935001373291016 -39.145999908447266,-32.36399841308594 C-39.49700164794922,-25.552000045776367 -40.57600021362305,-10.75 -34.763999938964844,-6.264999866485596 C-31.6560001373291,-3.865999937057495 -27.583999633789062,-4.197000026702881 -23.58300018310547,-4.236999988555908 C-23.374000549316406,-6.48199987411499 -23.40399932861328,-8.774999618530273 -23.08300018310547,-11.01099967956543 C-21.906999588012695,-19.224000930786133 -14.937000274658203,-22.204999923706055 -11.012999534606934,-14.777000427246094 C-7.261000156402588,-7.670000076293945 -7.5289998054504395,3.615999937057495 -7.960000038146973,12.468000411987305 C-7.040999889373779,15.411999702453613 -6.120999813079834,18.354000091552734 -5.201000213623047,21.29800033569336 C-3.0789999961853027,28.09000015258789 -0.8939999938011169,35.00899887084961 3.2300000190734863,40.808998107910156 C7.354000091552734,46.60900115966797 13.817999839782715,51.20899963378906 20.934999465942383,51.25899887084961 C31.023000717163086,51.327999114990234 39.172000885009766,42.32899856567383 42.301998138427734,32.737998962402344z"></path></g><g opacity="1" transform="matrix(1,0,0,1,0,1.9450000524520874)"><path stroke-linecap="round" stroke-linejoin="round" fill-opacity="0" stroke="rgb(167,95,68)" stroke-opacity="1" stroke-width="6" d=" M2087.6650390625,2108.591064453125 C2087.6650390625,2108.591064453125 2087.6650390625,2181.826904296875 2087.6650390625,2181.826904296875"></path></g><g opacity="1" transform="matrix(1,0,0,1,2070.85107421875,2062.77490234375)"><path fill="rgb(113,66,56)" fill-opacity="1" d=" M-3.3929998874664307,15.467000007629395 C6.47599983215332,22.71299934387207 17.990999221801758,27.70199966430664 30.025999069213867,29.947999954223633 C32.87799835205078,20.451000213623047 37.619998931884766,11.526000022888184 43.895999908447266,3.8469998836517334 C43.895999908447266,3.8469998836517334 30.4689998626709,-29.947999954223633 30.4689998626709,-29.947999954223633 C25.177000045776367,-28.655000686645508 20.1560001373291,-25.788999557495117 17.31800079345703,-21.183000564575195 C16.88599967956543,-20.479999542236328 16.472000122070312,-19.709999084472656 15.755000114440918,-19.302000045776367 C15.232000350952148,-19.003999710083008 14.61299991607666,-18.93899917602539 14.015000343322754,-18.881000518798828 C-0.2849999964237213,-17.499000549316406 -14.607999801635742,-19.458999633789062 -29.086999893188477,-17.155000686645508 C-32.80699920654297,-16.579999923706055 -36.83300018310547,-15.680999755859375 -39.472999572753906,-13.140999794006348 C-39.875,-12.755999565124512 -40.244998931884766,-12.331999778747559 -40.57600021362305,-11.864999771118164 C-43.895999908447266,-7.188000202178955 -41.5890007019043,-0.2930000126361847 -37.242000579833984,3.447999954223633 C-35.5989990234375,4.86299991607666 -33.62099838256836,6.090000152587891 -32.79600143432617,8.095999717712402 C-32.196998596191406,9.550999641418457 -32.31399917602539,11.187000274658203 -32.39500045776367,12.758000373840332 C-32.553001403808594,15.829999923706055 -32.85599899291992,20.52899932861328 -32.611000061035156,25.17300033569336 C-30.94099998474121,25.253000259399414 -29.266000747680664,25.20800018310547 -27.614999771118164,25.040000915527344 C-18.895999908447266,24.150999069213867 -10.751999855041504,20.22800064086914 -3.3929998874664307,15.467000007629395z"></path></g><g opacity="1" transform="matrix(1,0,0,1,2084.507080078125,2052.138916015625)"><path fill="rgb(0,155,79)" fill-opacity="1" d=" M18.674999237060547,-21.652000427246094 C12.722000122070312,-20.617000579833984 6.830999851226807,-17.63599967956543 3.6619999408721924,-12.493000030517578 C3.2290000915527344,-11.789999961853027 2.815999984741211,-11.017999649047852 2.0989999771118164,-10.609999656677246 C1.5759999752044678,-10.312000274658203 0.9570000171661377,-10.24899959564209 0.3580000102519989,-10.1899995803833 C-13.940999984741211,-8.807999610900879 -28.263999938964844,-10.767000198364258 -42.74300003051758,-8.46399974822998 C-46.4640007019043,-7.888000011444092 -50.4900016784668,-6.991000175476074 -53.130001068115234,-4.451000213623047 C-53.53200149536133,-4.065000057220459 -53.9010009765625,-3.640000104904175 -54.233001708984375,-3.1730000972747803 C-57.553001403808594,1.503000020980835 -55.244998931884766,8.39799976348877 -50.89899826049805,12.138999938964844 C-49.25600051879883,13.553000450134277 -47.277000427246094,14.781999588012695 -46.45199966430664,16.78700065612793 C-46.36199951171875,17.006999969482422 -46.29199981689453,17.23200035095215 -46.231998443603516,17.45800018310547 C-35.000999450683594,17.541000366210938 -22.829999923706055,12.109999656677246 -12.595999717712402,9.868000030517578 C-11.866000175476074,9.706999778747559 -11.095999717712402,9.548999786376953 -10.38599967956543,9.777999877929688 C-9.559000015258789,10.043000221252441 -8.984999656677246,10.772000312805176 -8.428999900817871,11.439000129699707 C-1.1990000009536743,20.106000900268555 10.850000381469727,23.46299934387207 22.128999710083008,23.04599952697754 C25.743000030517578,22.913000106811523 29.448999404907227,22.40999984741211 32.599998474121094,20.635000228881836 C35.5260009765625,18.986000061035156 37.7599983215332,16.364999771118164 40.38600158691406,14.267999649047852 C45.0260009765625,10.564000129699707 51.23500061035156,9.598999977111816 57.51900100708008,9.432999610900879 C57.527000427246094,6.150000095367432 57.534000396728516,2.868000030517578 57.54199981689453,-0.41499999165534973 C57.553001403808594,-5.291999816894531 57.332000732421875,-10.748000144958496 53.81700134277344,-14.131999969482422 C45.71900177001953,-21.92300033569336 29.0939998626709,-23.464000701904297 18.674999237060547,-21.652000427246094z"></path></g><g opacity="1" transform="matrix(1,0,0,1,2084.507080078125,2052.138916015625)"><path stroke-linecap="butt" stroke-linejoin="miter" fill-opacity="0" stroke-miterlimit="10" stroke="rgb(0,155,79)" stroke-opacity="1" stroke-width="2" d=" M18.674999237060547,-21.652000427246094 C12.722000122070312,-20.617000579833984 6.830999851226807,-17.63599967956543 3.6619999408721924,-12.493000030517578 C3.2290000915527344,-11.789999961853027 2.815999984741211,-11.017999649047852 2.0989999771118164,-10.609999656677246 C1.5759999752044678,-10.312000274658203 0.9570000171661377,-10.24899959564209 0.3580000102519989,-10.1899995803833 C-13.940999984741211,-8.807999610900879 -28.263999938964844,-10.767000198364258 -42.74300003051758,-8.46399974822998 C-46.4640007019043,-7.888000011444092 -50.4900016784668,-6.991000175476074 -53.130001068115234,-4.451000213623047 C-53.53200149536133,-4.065000057220459 -53.9010009765625,-3.640000104904175 -54.233001708984375,-3.1730000972747803 C-57.553001403808594,1.503000020980835 -55.244998931884766,8.39799976348877 -50.89899826049805,12.138999938964844 C-49.25600051879883,13.553000450134277 -47.277000427246094,14.781999588012695 -46.45199966430664,16.78700065612793 C-46.36199951171875,17.006999969482422 -46.29199981689453,17.23200035095215 -46.231998443603516,17.45800018310547 C-35.000999450683594,17.541000366210938 -22.829999923706055,12.109999656677246 -12.595999717712402,9.868000030517578 C-11.866000175476074,9.706999778747559 -11.095999717712402,9.548999786376953 -10.38599967956543,9.777999877929688 C-9.559000015258789,10.043000221252441 -8.984999656677246,10.772000312805176 -8.428999900817871,11.439000129699707 C-1.1990000009536743,20.106000900268555 10.850000381469727,23.46299934387207 22.128999710083008,23.04599952697754 C25.743000030517578,22.913000106811523 29.448999404907227,22.40999984741211 32.599998474121094,20.635000228881836 C35.5260009765625,18.986000061035156 37.7599983215332,16.364999771118164 40.38600158691406,14.267999649047852 C45.0260009765625,10.564000129699707 51.23500061035156,9.598999977111816 57.51900100708008,9.432999610900879 C57.527000427246094,6.150000095367432 57.534000396728516,2.868000030517578 57.54199981689453,-0.41499999165534973 C57.553001403808594,-5.291999816894531 57.332000732421875,-10.748000144958496 53.81700134277344,-14.131999969482422 C45.71900177001953,-21.92300033569336 29.0939998626709,-23.464000701904297 18.674999237060547,-21.652000427246094z"></path></g></g><g transform="matrix(0.3330000042915344,0,0,0.3330000042915344,-476.5372009277344,-663.718505859375)" opacity="1" style="display: block;"><g opacity="1" transform="matrix(1,0,0,1,0,1.9450000524520874)"><path stroke-linecap="round" stroke-linejoin="round" fill-opacity="0" stroke="rgb(167,95,68)" stroke-opacity="1" stroke-width="6" d=" M1570.9940185546875,2235.3369140625 C1570.9940185546875,2235.3369140625 1570.9940185546875,2304.2080078125 1570.9940185546875,2304.2080078125"></path></g><g opacity="1" transform="matrix(1,0,0,1,0,0)"><path stroke-linecap="round" stroke-linejoin="round" fill-opacity="0" stroke="rgb(167,95,68)" stroke-opacity="1" stroke-width="6" d=" M1475.009033203125,2148.035888671875 C1475.009033203125,2148.035888671875 1475.009033203125,2226.9140625 1475.009033203125,2226.9140625"></path></g><g opacity="1" transform="matrix(1,0,0,1,1484.0279541015625,2104.916015625)"><path fill="rgb(0,155,79)" fill-opacity="1" d=" M7.418000221252441,0 C7.418000221252441,-4.0970001220703125 4.0970001220703125,-7.418000221252441 0,-7.418000221252441 C-4.0970001220703125,-7.418000221252441 -7.418000221252441,-4.0970001220703125 -7.418000221252441,0 C-7.418000221252441,4.0970001220703125 -4.0970001220703125,7.418000221252441 0,7.418000221252441 C4.0970001220703125,7.418000221252441 7.418000221252441,4.0970001220703125 7.418000221252441,0z"></path></g><g opacity="1" transform="matrix(1,0,0,1,1484.0279541015625,2104.916015625)"><path stroke-linecap="butt" stroke-linejoin="miter" fill-opacity="0" stroke-miterlimit="10" stroke="rgb(0,155,79)" stroke-opacity="1" stroke-width="2" d=" M7.418000221252441,0 C7.418000221252441,-4.0970001220703125 4.0970001220703125,-7.418000221252441 0,-7.418000221252441 C-4.0970001220703125,-7.418000221252441 -7.418000221252441,-4.0970001220703125 -7.418000221252441,0 C-7.418000221252441,4.0970001220703125 -4.0970001220703125,7.418000221252441 0,7.418000221252441 C4.0970001220703125,7.418000221252441 7.418000221252441,4.0970001220703125 7.418000221252441,0z"></path></g><g opacity="1" transform="matrix(1,0,0,1,1567.27294921875,2087.343994140625)"><path fill="rgb(0,155,79)" fill-opacity="1" d=" M12.781999588012695,0 C12.781999588012695,-7.059999942779541 7.059999942779541,-12.781000137329102 0.0010000000474974513,-12.781000137329102 C-7.058000087738037,-12.781000137329102 -12.781999588012695,-7.059999942779541 -12.781999588012695,0 C-12.781999588012695,7.059000015258789 -7.058000087738037,12.781000137329102 0.0010000000474974513,12.781000137329102 C7.059999942779541,12.781000137329102 12.781999588012695,7.059000015258789 12.781999588012695,0z"></path></g><g opacity="1" transform="matrix(1,0,0,1,1567.27294921875,2087.343994140625)"><path stroke-linecap="butt" stroke-linejoin="miter" fill-opacity="0" stroke-miterlimit="10" stroke="rgb(0,155,79)" stroke-opacity="1" stroke-width="2" d=" M12.781999588012695,0 C12.781999588012695,-7.059999942779541 7.059999942779541,-12.781000137329102 0.0010000000474974513,-12.781000137329102 C-7.058000087738037,-12.781000137329102 -12.781999588012695,-7.059999942779541 -12.781999588012695,0 C-12.781999588012695,7.059000015258789 -7.058000087738037,12.781000137329102 0.0010000000474974513,12.781000137329102 C7.059999942779541,12.781000137329102 12.781999588012695,7.059000015258789 12.781999588012695,0z"></path></g><g opacity="1" transform="matrix(1,0,0,1,1538.6400146484375,2186.10302734375)"><path fill="rgb(223,159,99)" fill-opacity="1" d=" M-25.145999908447266,-83.25199890136719 C-25.145999908447266,-83.2300033569336 -25.135000228881836,-83.20800018310547 -25.128999710083008,-83.18699645996094 C-41.38100051879883,-83.18699645996094 -63.71699905395508,-81.24400329589844 -67.22799682617188,-80.88500213623047 C-83.61599731445312,-79.20999908447266 -99.10099792480469,-71.78900146484375 -103.28299713134766,-54.137001037597656 C-104.21099853515625,-50.22200012207031 -104.42900085449219,-45.98699951171875 -102.88700103759766,-42.270999908447266 C-100.33499908447266,-36.11800003051758 -93.57599639892578,-32.750999450683594 -87.03199768066406,-31.5049991607666 C-80.48899841308594,-30.259000778198242 -73.70700073242188,-30.591999053955078 -67.2030029296875,-29.152000427246094 C-63.38999938964844,7.860000133514404 -51.85599899291992,56.047000885009766 -22.183000564575195,80.61199951171875 C-16.739999771118164,85.11799621582031 -18.408000946044922,82.06199645996094 -15.930000305175781,89.48999786376953 C-14.329000473022461,94.28800201416016 -14.498000144958496,100.34700012207031 -13.487000465393066,105.36499786376953 C-13.289999961853027,106.34600067138672 -12.963000297546387,107.4749984741211 -12.031000137329102,107.83699798583984 C-11.324000358581543,108.11100006103516 -10.534000396728516,107.82599639892578 -9.829999923706055,107.54100036621094 C3.5439999103546143,102.13899993896484 16.823999404907227,96.5009994506836 30,90.63200378417969 C31.202999114990234,90.09600067138672 32.448001861572266,89.5260009765625 33.290000915527344,88.51399993896484 C34.34299850463867,87.24800109863281 34.58599853515625,85.51599884033203 34.77399826049805,83.87999725341797 C35.33399963378906,78.98999786376953 35.03099822998047,21.291000366210938 36.76300048828125,21.11400032043457 C42.75,20.46500015258789 48.709999084472656,19.576000213623047 54.625999450683594,18.452999114990234 C66.04399871826172,16.284000396728516 74.21900177001953,6.177000045776367 73.86799621582031,-5.440000057220459 C73.6510009765625,-12.618000030517578 73.43499755859375,-19.79599952697754 73.21800231933594,-26.972999572753906 C72.9739990234375,-35.05400085449219 91.21099853515625,-39.46500015258789 97.11000061035156,-41.667999267578125 C98.77100372314453,-42.28799819946289 100.48899841308594,-42.94499969482422 101.72899627685547,-44.21200180053711 C103.8239974975586,-46.35200119018555 104.04900360107422,-49.64400100708008 104.1520004272461,-52.63600158691406 C104.42900085449219,-60.70500183105469 103.29399871826172,-68.7229995727539 103.29399871826172,-76.7969970703125 C103.29399871826172,-108.11100006103516 21.961000442504883,-101.38700103759766 -4.318999767303467,-98.677001953125 C-17.20800018310547,-97.3479995727539 -25.145999908447266,-91.1449966430664 -25.145999908447266,-83.25199890136719z"></path></g><g opacity="1" transform="matrix(1,0,0,1,1504.177001953125,2190.779052734375)"><path fill="rgb(167,95,68)" fill-opacity="1" d=" M68.64399719238281,36.154998779296875 C61.03799819946289,37.7400016784668 54.97999954223633,43.17900085449219 52.005001068115234,50.356998443603516 C50.33599853515625,54.38199996948242 46.8129997253418,57.832000732421875 42.551998138427734,58.95100021362305 C34.5989990234375,61.040000915527344 26.034000396728516,56.58700180053711 21.086999893188477,50.018001556396484 C16.141000747680664,43.44900131225586 14.137999534606934,35.15999984741211 12.765999794006348,27.051000595092773 C11.104000091552734,17.233999252319336 10.21500015258789,6.995999813079834 13.032999992370605,-2.555000066757202 C15.85099983215332,-12.104999542236328 23.062000274658203,-20.882999420166016 32.770999908447266,-23.0939998626709 C31.569000244140625,-16.222999572753906 31.576000213623047,-5.558000087738037 37.5369987487793,-1.934999942779541 C37.5369987487793,-1.934999942779541 55.03200149536133,0.02199999988079071 60.577999114990234,-4.209000110626221 C61.46500015258789,-21.466999053955078 61.07899856567383,-40.777000427246094 59.422000885009766,-57.97800064086914 C59.422000885009766,-57.97800064086914 30.952999114990234,-103.43499755859375 30.952999114990234,-103.43499755859375 C30.680999755859375,-103.40699768066406 30.405000686645508,-103.37899780273438 30.143999099731445,-103.35299682617188 C17.2549991607666,-102.02400207519531 9.317000389099121,-95.82099914550781 9.317000389099121,-87.9280014038086 C9.317000389099121,-87.90599822998047 9.329000473022461,-87.88400268554688 9.333999633789062,-87.86299896240234 C-6.919000148773193,-87.86299896240234 -29.253999710083008,-85.91999816894531 -32.76499938964844,-85.56099700927734 C-49.15299987792969,-83.88600158691406 -64.63700103759766,-76.46499633789062 -68.81999969482422,-58.8129997253418 C-69.74800109863281,-54.89799880981445 -69.96600341796875,-50.66299819946289 -68.42400360107422,-46.946998596191406 C-65.87200164794922,-40.79399871826172 -59.112998962402344,-37.426998138427734 -52.569000244140625,-36.180999755859375 C-46.0260009765625,-34.935001373291016 -39.24399948120117,-35.268001556396484 -32.7400016784668,-33.827999114990234 C-28.927000045776367,3.184000015258789 -17.393999099731445,51.37099838256836 12.279999732971191,75.93599700927734 C17.724000930786133,80.44200134277344 16.05500030517578,77.38600158691406 18.533000946044922,84.81400299072266 C20.134000778198242,89.61199951171875 19.965999603271484,95.6709976196289 20.97599983215332,100.68900299072266 C21.17300033569336,101.66999816894531 21.5,102.7979965209961 22.43199920654297,103.16100311279297 C23.139999389648438,103.43499755859375 23.929000854492188,103.1500015258789 24.632999420166016,102.86499786376953 C38.00699996948242,97.46299743652344 51.2869987487793,91.82499694824219 64.46299743652344,85.95600128173828 C65.66600036621094,85.41999816894531 66.91100311279297,84.8499984741211 67.75299835205078,83.83799743652344 C68.80599975585938,82.5719985961914 69.04900360107422,80.83999633789062 69.23699951171875,79.2040023803711 C69.58200073242188,76.19400024414062 69.5999984741211,53.17599868774414 69.96600341796875,35.880001068115234 C69.5250015258789,35.97100067138672 69.08399963378906,36.0629997253418 68.64399719238281,36.154998779296875z"></path></g><g opacity="1" transform="matrix(1,0,0,1,1516.20703125,2181.47802734375)"><path fill="rgb(113,66,56)" fill-opacity="1" d=" M21.691999435424805,-45.86000061035156 C25.524999618530273,-27.766000747680664 26.812999725341797,-9.13599967956543 25.506999969482422,9.312000274658203 C5.285999774932861,9.312000274658203 -0.40700000524520874,23.27400016784668 2.075000047683716,45.051998138427734 C-1.1030000448226929,45.85900115966797 -8.602999687194824,45.28300094604492 -11.869000434875488,44.992000579833984 C-15.135000228881836,44.70100021362305 -18.47599983215332,43.0890007019043 -19.957000732421875,40.16299819946289 C-20.82699966430664,38.448001861572266 -20.98200035095215,36.47100067138672 -21.121999740600586,34.551998138427734 C-23.018999099731445,8.494000434875488 -24.915000915527344,-17.562000274658203 -26.812000274658203,-43.619998931884766 C-26.812000274658203,-43.619998931884766 21.691999435424805,-45.86000061035156 21.691999435424805,-45.86000061035156z"></path></g><g opacity="1" transform="matrix(1,0,0,1,1538.2889404296875,2129.85400390625)"><path fill="rgb(0,155,79)" fill-opacity="1" d=" M103.64600372314453,-18.601999282836914 C103.64600372314453,-49.91600036621094 22.312999725341797,-43.19200134277344 -3.9679999351501465,-40.481998443603516 C-16.856000900268555,-39.15299987792969 -24.79400062561035,-32.95000076293945 -24.79400062561035,-25.05699920654297 C-24.79400062561035,-25.03499984741211 -24.783000946044922,-25.01300048828125 -24.777000427246094,-24.992000579833984 C-41.029998779296875,-24.992000579833984 -63.36600112915039,-23.048999786376953 -66.8759994506836,-22.690000534057617 C-83.26399993896484,-21.014999389648438 -98.7490005493164,-13.593999862670898 -102.93199920654297,4.058000087738037 C-103.85900115966797,7.9730000495910645 -104.0770034790039,12.208000183105469 -102.53600311279297,15.923999786376953 C-99.98300170898438,22.07699966430664 -93.2239990234375,25.444000244140625 -86.68000030517578,26.690000534057617 C-80.13700103759766,27.93600082397461 -73.3550033569336,27.60300064086914 -66.85099792480469,29.042999267578125 C-66.71800231933594,30.33799934387207 -66.5719985961914,31.649999618530273 -66.41899871826172,32.97100067138672 C-62.40700149536133,35.861000061035156 -59.50699996948242,40.27399826049805 -55.595001220703125,43.40700149536133 C-48.61000061035156,49.000999450683594 -38.220001220703125,49.91600036621094 -30.36400032043457,45.630001068115234 C-22.507999420166016,41.345001220703125 -17.652999877929688,32.112998962402344 -18.575000762939453,23.211000442504883 C-18.756999969482422,21.445999145507812 -19.093000411987305,19.4689998626709 -18.023000717163086,18.05299949645996 C-17.07699966430664,16.80299949645996 -15.371000289916992,16.465999603271484 -13.822999954223633,16.22100067138672 C-13.822999954223633,16.22100067138672 6.373000144958496,13.015999794006348 6.373000144958496,13.015999794006348 C8.579999923706055,12.666000366210938 10.88700008392334,12.322999954223633 13.008000373840332,13.027000427246094 C15.255000114440918,13.77299976348877 16.95400047302246,15.579000473022461 18.78700065612793,17.07900047302246 C31.503000259399414,27.490999221801758 53.97100067138672,20.687000274658203 58.775001525878906,4.968999862670898 C59.57600021362305,2.3489999771118164 60.11000061035156,-0.6549999713897705 62.332000732421875,-2.257999897003174 C63.71200180053711,-3.253000020980835 65.48200225830078,-3.48799991607666 67.1709976196289,-3.691999912261963 C79.4729995727539,-5.178999900817871 91.7750015258789,-6.664999961853027 104.0770034790039,-8.152000427246094 C103.85800170898438,-11.630000114440918 103.64600372314453,-15.111000061035156 103.64600372314453,-18.601999282836914z"></path></g><g opacity="1" transform="matrix(1,0,0,1,1538.2889404296875,2127.907958984375)"><path stroke-linecap="butt" stroke-linejoin="miter" fill-opacity="0" stroke-miterlimit="10" stroke="rgb(0,155,79)" stroke-opacity="1" stroke-width="2" d=" M103.64600372314453,-18.601999282836914 C103.64600372314453,-49.91600036621094 22.312999725341797,-43.19200134277344 -3.9679999351501465,-40.481998443603516 C-16.856000900268555,-39.15299987792969 -24.79400062561035,-32.95000076293945 -24.79400062561035,-25.05699920654297 C-24.79400062561035,-25.03499984741211 -24.783000946044922,-25.01300048828125 -24.777000427246094,-24.992000579833984 C-41.029998779296875,-24.992000579833984 -63.36600112915039,-23.048999786376953 -66.8759994506836,-22.690000534057617 C-83.26399993896484,-21.014999389648438 -98.7490005493164,-13.593999862670898 -102.93199920654297,4.058000087738037 C-103.85900115966797,7.9730000495910645 -104.0770034790039,12.208000183105469 -102.53600311279297,15.923999786376953 C-99.98300170898438,22.07699966430664 -93.2239990234375,25.444000244140625 -86.68000030517578,26.690000534057617 C-80.13700103759766,27.93600082397461 -73.3550033569336,27.60300064086914 -66.85099792480469,29.042999267578125 C-66.71800231933594,30.33799934387207 -66.5719985961914,31.649999618530273 -66.41899871826172,32.97100067138672 C-62.40700149536133,35.861000061035156 -59.50699996948242,40.27399826049805 -55.595001220703125,43.40700149536133 C-48.61000061035156,49.000999450683594 -38.220001220703125,49.91600036621094 -30.36400032043457,45.630001068115234 C-22.507999420166016,41.345001220703125 -17.652999877929688,32.112998962402344 -18.575000762939453,23.211000442504883 C-18.756999969482422,21.445999145507812 -19.093000411987305,19.4689998626709 -18.023000717163086,18.05299949645996 C-17.07699966430664,16.80299949645996 -15.371000289916992,16.465999603271484 -13.822999954223633,16.22100067138672 C-13.822999954223633,16.22100067138672 6.373000144958496,13.015999794006348 6.373000144958496,13.015999794006348 C8.579999923706055,12.666000366210938 10.88700008392334,12.322999954223633 13.008000373840332,13.027000427246094 C15.255000114440918,13.77299976348877 16.95400047302246,15.579000473022461 18.78700065612793,17.07900047302246 C31.503000259399414,27.490999221801758 53.97100067138672,20.687000274658203 58.775001525878906,4.968999862670898 C59.57600021362305,2.3489999771118164 60.11000061035156,-0.6549999713897705 62.332000732421875,-2.257999897003174 C63.71200180053711,-3.253000020980835 65.48200225830078,-3.48799991607666 67.1709976196289,-3.691999912261963 C79.4729995727539,-5.178999900817871 91.7750015258789,-6.664999961853027 104.0770034790039,-8.152000427246094 C103.85800170898438,-11.630000114440918 103.64600372314453,-15.111000061035156 103.64600372314453,-18.601999282836914z"></path></g></g><g transform="matrix(0.3330000042915344,0,0,0.3330000042915344,-476.5372009277344,-666.89501953125)" opacity="1" style="display: block;"><g opacity="1" transform="matrix(1,0,0,1,1744.1500244140625,2208.242919921875)"><path fill="rgb(0,155,79)" fill-opacity="1" d=" M12.781999588012695,0 C12.781999588012695,-7.059000015258789 7.059000015258789,-12.781000137329102 0.0010000000474974513,-12.781000137329102 C-7.058000087738037,-12.781000137329102 -12.781999588012695,-7.059000015258789 -12.781999588012695,0 C-12.781999588012695,7.059000015258789 -7.058000087738037,12.781000137329102 0.0010000000474974513,12.781000137329102 C7.059000015258789,12.781000137329102 12.781999588012695,7.059000015258789 12.781999588012695,0z"></path></g><g opacity="1" transform="matrix(1,0,0,1,1744.1500244140625,2208.242919921875)"><path stroke-linecap="butt" stroke-linejoin="miter" fill-opacity="0" stroke-miterlimit="10" stroke="rgb(0,155,79)" stroke-opacity="1" stroke-width="2" d=" M12.781999588012695,0 C12.781999588012695,-7.059000015258789 7.059000015258789,-12.781000137329102 0.0010000000474974513,-12.781000137329102 C-7.058000087738037,-12.781000137329102 -12.781999588012695,-7.059000015258789 -12.781999588012695,0 C-12.781999588012695,7.059000015258789 -7.058000087738037,12.781000137329102 0.0010000000474974513,12.781000137329102 C7.059000015258789,12.781000137329102 12.781999588012695,7.059000015258789 12.781999588012695,0z"></path></g><g opacity="1" transform="matrix(1,0,0,1,1738.7060546875,2271.64697265625)"><path fill="rgb(195,121,81)" fill-opacity="1" d=" M7.145999908447266,-64.22200012207031 C-3.864000082015991,-64.22200012207031 -15.010000228881836,-63.12799835205078 -25.072999954223633,-58.65999984741211 C-26.96299934387207,-57.82099914550781 -28.861000061035156,-56.88100051879883 -30.91699981689453,-56.66699981689453 C-33.858001708984375,-56.36199951171875 -36.7140007019043,-57.56800079345703 -39.486000061035156,-58.595001220703125 C-57.91699981689453,-65.427001953125 -78.94400024414062,-64.95899963378906 -97.0530014038086,-57.314998626708984 C-99.38899993896484,-56.327999114990234 -101.802001953125,-55.119998931884766 -103.14600372314453,-52.97100067138672 C-104.57099914550781,-50.69200134277344 -104.51300048828125,-47.82099914550781 -104.40899658203125,-45.1349983215332 C-104.40899658203125,-45.1349983215332 -103.69200134277344,-26.72599983215332 -103.69200134277344,-26.72599983215332 C-103.62899780273438,-25.099000930786133 -103.50599670410156,-23.32200050354004 -102.4000015258789,-22.12700080871582 C-101.51599884033203,-21.172000885009766 -100.18299865722656,-20.797000885009766 -98.91100311279297,-20.52199935913086 C-95.95600128173828,-19.882999420166016 -92.93399810791016,-19.551000595092773 -89.91000366210938,-19.53499984741211 C-87.22699737548828,-19.520999908447266 -84.46199798583984,-19.743000030517578 -81.93399810791016,-18.843000411987305 C-77.14600372314453,-17.141000747680664 -74.5510025024414,-11.913000106811523 -73.55999755859375,-6.929999828338623 C-72.56900024414062,-1.9470000267028809 -72.6760025024414,3.2760000228881836 -70.97000122070312,8.062000274658203 C-69.26399993896484,12.847999572753906 -64.91999816894531,17.301000595092773 -59.862998962402344,16.812000274658203 C-56.99700164794922,16.53499984741211 -53.86800003051758,14.781999588012695 -51.479000091552734,16.38800048828125 C-50.41899871826172,17.099000930786133 -49.83399963378906,18.31599998474121 -49.303001403808594,19.47599983215332 C-42.380001068115234,34.58100128173828 -35.15599822998047,51.314998626708984 -20.281999588012695,58.71900177001953 C-6.809000015258789,65.427001953125 9.446999549865723,62.50600051879883 23.589000701904297,57.35300064086914 C29.871000289916992,55.06399917602539 36.08100128173828,52.32099914550781 41.319000244140625,48.16699981689453 C46.016998291015625,44.44200134277344 49.83700180053711,39.65700149536133 54.779998779296875,36.26300048828125 C59.722999572753906,32.869998931884766 66.48600006103516,31.073999404907227 71.68000030517578,34.069000244140625 C73.58999633789062,40.38399887084961 75.5009994506836,46.70000076293945 77.41200256347656,53.01599884033203 C77.75,54.13199996948242 78.11499786376953,55.29499816894531 78.93199920654297,56.12799835205078 C80.16200256347656,57.382999420166016 82.08200073242188,57.58000183105469 83.83499908447266,57.702999114990234 C90.74600219726562,58.18600082397461 99.12200164794922,57.952999114990234 102.6760025024414,52.00699996948242 C104.40599822998047,49.111000061035156 104.46299743652344,45.55099868774414 104.47100067138672,42.17900085449219 C104.5,28.924999237060547 104.53099822998047,15.67199993133545 104.56099700927734,2.4179999828338623 C104.57099914550781,-2.240999937057495 103.927001953125,-7.951000213623047 99.63500213623047,-9.76200008392334 C96.12699890136719,-11.241999626159668 91.31099700927734,-9.404000282287598 88.7490005493164,-12.220000267028809 C87.34500122070312,-13.763999938964844 87.31900024414062,-16.069000244140625 87.23500061035156,-18.155000686645508 C86.73999786376953,-30.465999603271484 81.2300033569336,-56.827999114990234 66.04199981689453,-60.525001525878906 C52.12099838256836,-63.91299819946289 38.72200012207031,-64.22200012207031 7.145999908447266,-64.22200012207031z"></path></g><g opacity="1" transform="matrix(1,0,0,1,1663.166015625,2251.826904296875)"><path fill="rgb(167,95,68)" fill-opacity="1" d=" M29.031999588012695,-40.994998931884766 C12.411999702453613,-45.37900161743164 -5.668000221252441,-44.183998107910156 -21.513999938964844,-37.494998931884766 C-23.850000381469727,-36.50899887084961 -26.26300048828125,-35.30099868774414 -27.60700035095215,-33.1510009765625 C-29.031999588012695,-30.871999740600586 -28.974000930786133,-28.000999450683594 -28.8700008392334,-25.315000534057617 C-28.8700008392334,-25.315000534057617 -28.152999877929688,-6.90500020980835 -28.152999877929688,-6.90500020980835 C-28.089000701904297,-5.2779998779296875 -27.966999053955078,-3.502000093460083 -26.861000061035156,-2.306999921798706 C-25.97599983215332,-1.3519999980926514 -24.64299964904785,-0.9769999980926514 -23.371000289916992,-0.703000009059906 C-20.416000366210938,-0.06300000101327896 -17.393999099731445,0.26899999380111694 -14.369999885559082,0.2840000092983246 C-11.687000274658203,0.29899999499320984 -8.92300033569336,0.07800000160932541 -6.394000053405762,0.9769999980926514 C-1.6069999933242798,2.680000066757202 0.9890000224113464,7.906000137329102 1.9800000190734863,12.890000343322754 C2.9709999561309814,17.87299919128418 2.86299991607666,23.09600067138672 4.568999767303467,27.882999420166016 C6.275000095367432,32.66899871826172 10.618000030517578,37.12200164794922 15.675999641418457,36.632999420166016 C18.54199981689453,36.35599899291992 21.67099952697754,34.60300064086914 24.059999465942383,36.20899963378906 C25.118999481201172,36.91999816894531 25.70400047302246,38.13600158691406 26.236000061035156,39.29600143432617 C27.1560001373291,41.303001403808594 28.083999633789062,43.34000015258789 29.031999588012695,45.37900161743164 C29.031999588012695,45.37900161743164 29.031999588012695,-40.994998931884766 29.031999588012695,-40.994998931884766z"></path></g><g opacity="1" transform="matrix(1,0,0,1,1731.3389892578125,2279.306884765625)"><path fill="rgb(167,95,68)" fill-opacity="1" d=" M84.97899627685547,-4.991000175476074 C75.5739974975586,-5.894000053405762 66.03700256347656,-6.796000003814697 56.72100067138672,-5.218999862670898 C47.404998779296875,-3.640000104904175 38.17499923706055,0.7369999885559082 32.74300003051758,8.468000411987305 C27.766000747680664,15.552000045776367 26.21500015258789,20.523000717163086 17.235000610351562,21.158000946044922 C9.388999938964844,21.714000701904297 0.8949999809265137,18.19700050354004 -2.181999921798706,10.526000022888184 C-3.5350000858306885,7.1519999504089355 -3.7730000019073486,3.4509999752044678 -3.994999885559082,-0.17800000309944153 C-4.795000076293945,-13.23900032043457 -5.59499979019165,-26.30299949645996 -6.394999980926514,-39.36399841308594 C-6.394999980926514,-39.36399841308594 -45.854000091552734,-47.020999908447266 -45.854000091552734,-47.020999908447266 C-45.854000091552734,-27.32900047302246 -44.80799865722656,-13.269000053405762 -43.78300094604492,-0.44600000977516174 C-47.04100036621094,0.9559999704360962 -50.428001403808594,1.4290000200271606 -53.279998779296875,-0.4749999940395355 C-56.74399948120117,-2.7869999408721924 -57.47600173950195,-7.486000061035156 -57.83700180053711,-11.635000228881836 C-58.558998107910156,-19.895000457763672 -59.073001861572266,-28.174999237060547 -59.38199996948242,-36.46099853515625 C-66.57499694824219,-33.755001068115234 -75.72100067138672,-31.42799949645996 -81.08899688720703,-36.928001403808594 C-85.1969985961914,-41.137001037597656 -84.81199645996094,-47.845001220703125 -84.1500015258789,-53.6879997253418 C-84.1500015258789,-53.6879997253418 -96.84600067138672,-57.76900100708008 -96.84600067138672,-57.76900100708008 C-97.14900207519531,-56.1609992980957 -97.1050033569336,-54.44300079345703 -97.04100036621094,-52.79499816894531 C-97.04100036621094,-52.79499816894531 -96.32599639892578,-34.3849983215332 -96.32599639892578,-34.3849983215332 C-96.26200103759766,-32.757999420166016 -96.13999938964844,-30.98200035095215 -95.03399658203125,-29.788000106811523 C-94.14900207519531,-28.83300018310547 -92.81600189208984,-28.45800018310547 -91.54399871826172,-28.183000564575195 C-88.58899688720703,-27.54400062561035 -85.56600189208984,-27.211999893188477 -82.54199981689453,-27.195999145507812 C-79.85900115966797,-27.180999755859375 -77.09600067138672,-27.400999069213867 -74.56700134277344,-26.503000259399414 C-69.77999877929688,-24.799999237060547 -67.18499755859375,-19.573999404907227 -66.19300079345703,-14.590999603271484 C-65.2020034790039,-9.607000350952148 -65.30799865722656,-4.383999824523926 -63.60300064086914,0.40400001406669617 C-61.895999908447266,5.190000057220459 -57.553001403808594,9.642999649047852 -52.494998931884766,9.154000282287598 C-49.62900161743164,8.87600040435791 -46.5,7.122000217437744 -44.111000061035156,8.729000091552734 C-43.051998138427734,9.4399995803833 -42.46699905395508,10.654999732971191 -41.93600082397461,11.815999984741211 C-35.01300048828125,26.91900062561035 -27.788000106811523,43.65599822998047 -12.914999961853027,51.06100082397461 C0.5590000152587891,57.76900100708008 16.81399917602539,54.84600067138672 30.95599937438965,49.694000244140625 C37.23699951171875,47.404998779296875 43.446998596191406,44.6619987487793 48.68600082397461,40.507999420166016 C53.38399887084961,36.78300094604492 57.20600128173828,31.996999740600586 62.14799880981445,28.604000091552734 C67.09100341796875,25.209999084472656 73.85399627685547,23.413000106811523 79.0469970703125,26.408000946044922 C80.95800018310547,32.7239990234375 82.86799621582031,39.03900146484375 84.77899932861328,45.35599899291992 C85.11699676513672,46.47200012207031 85.48100280761719,47.63600158691406 86.2979965209961,48.46900177001953 C87.52899932861328,49.7239990234375 89.44999694824219,49.91899871826172 91.2030029296875,50.04199981689453 C93.11699676513672,50.17599868774414 95.14299774169922,50.249000549316406 97.14900207519531,50.16699981689453 C89.52999877929688,32.816001892089844 85.3499984741211,13.956999778747559 84.97899627685547,-4.991000175476074z"></path></g><g opacity="1" transform="matrix(1,0,0,1,1661.9439697265625,2256.653076171875)"><path fill="rgb(113,66,56)" fill-opacity="1" d=" M25.613000869750977,22.20800018310547 C22.354999542236328,23.610000610351562 18.966999053955078,24.08300018310547 16.11400032043457,22.179000854492188 C12.651000022888184,19.867000579833984 11.918999671936035,15.166999816894531 11.557000160217285,11.019000053405762 C10.836000442504883,2.757999897003174 10.321000099182129,-5.520999908447266 10.01200008392334,-13.807999610900879 C2.819999933242798,-11.10200023651123 -6.326000213623047,-8.77400016784668 -11.694000244140625,-14.27400016784668 C-15.802000045776367,-18.482999801635742 -15.416999816894531,-25.190000534057617 -14.755000114440918,-31.034000396728516 C-14.755000114440918,-31.034000396728516 -27.451000213623047,-35.1150016784668 -27.451000213623047,-35.1150016784668 C-27.7549991607666,-33.50699996948242 -27.709999084472656,-31.790000915527344 -27.645999908447266,-30.142000198364258 C-27.645999908447266,-30.142000198364258 -26.930999755859375,-11.730999946594238 -26.930999755859375,-11.730999946594238 C-26.867000579833984,-10.104999542236328 -26.7450008392334,-8.32800006866455 -25.638999938964844,-7.133999824523926 C-24.7549991607666,-6.178999900817871 -23.42099952697754,-5.803999900817871 -22.14900016784668,-5.5289998054504395 C-19.194000244140625,-4.889999866485596 -16.17300033569336,-4.558000087738037 -13.14900016784668,-4.541999816894531 C-10.465999603271484,-4.5269999504089355 -7.699999809265137,-4.748000144958496 -5.171999931335449,-3.8499999046325684 C-0.3840000033378601,-2.1459999084472656 2.2109999656677246,3.0799999237060547 3.2019999027252197,8.062999725341797 C4.193999767303467,13.04699993133545 4.086999893188477,18.270000457763672 5.791999816894531,23.05699920654297 C7.498000144958496,27.843000411987305 11.842000007629395,32.29600143432617 16.899999618530273,31.80699920654297 C19.764999389648438,31.52899932861328 22.893999099731445,29.775999069213867 25.284000396728516,31.382999420166016 C26.343000411987305,32.09400177001953 26.92799949645996,33.310001373291016 27.458999633789062,34.470001220703125 C27.55699920654297,34.683998107910156 27.6560001373291,34.900001525878906 27.7549991607666,35.1150016784668 C27.7549991607666,35.1150016784668 25.613000869750977,22.20800018310547 25.613000869750977,22.20800018310547z"></path></g><g opacity="1" transform="matrix(1,0,0,1,1719.4630126953125,2278.512939453125)"><path fill="rgb(113,66,56)" fill-opacity="1" d=" M18.75200080871582,-4.166999816894531 C18.992000579833984,-4.235000133514404 19.229999542236328,-4.304999828338623 19.468000411987305,-4.376999855041504 C23.513999938964844,-5.6020002365112305 27.533000946044922,-7.486000061035156 30.214000701904297,-10.755000114440918 C32.89500045776367,-14.022000312805176 33.90800094604492,-18.924999237060547 31.7450008392334,-22.55699920654297 C29.8700008392334,-25.70599937438965 26.19300079345703,-27.22100067138672 22.75200080871582,-28.48200035095215 C13.392000198364258,-31.913000106811523 3.884000062942505,-34.77000045776367 -5.245999813079834,-38.62099838256836 C-9.722000122070312,-40.50899887084961 -14.894000053405762,-41.058998107910156 -19.51799964904785,-42.665000915527344 C-21.128999710083008,-43.22600173950195 -33.64400100708008,-47.30699920654297 -33.62200164794922,-48.87300109863281 C-33.90800094604492,-28.868999481201172 -33.65299987792969,-8.857999801635742 -32.87300109863281,11.131999969482422 C-32.65599822998047,11.223999977111816 -32.441001892089844,11.329000473022461 -32.23500061035156,11.468999862670898 C-31.176000595092773,12.180000305175781 -30.590999603271484,13.395000457763672 -30.059999465942383,14.555999755859375 C-24.399999618530273,26.902999877929688 -18.534000396728516,40.334999084472656 -8.456000328063965,48.874000549316406 C-7.3520002365112305,46.15599822998047 -7.019999980926514,43.14400100708008 -6.953999996185303,40.19300079345703 C-6.78000020980835,32.395999908447266 -8.23799991607666,24.702999114990234 -8.909000396728516,16.961999893188477 C-9.29800033569336,12.46399974822998 -11.567000389099121,-0.5770000219345093 -6.281000137329102,-2.568000078201294 C-4.0879998207092285,-3.3949999809265137 -1.652999997138977,-2.9609999656677246 0.6740000247955322,-2.691999912261963 C6.718999862670898,-1.99399995803833 12.899999618530273,-2.499000072479248 18.75200080871582,-4.166999816894531z"></path></g><g opacity="1" transform="matrix(1,0,0,1,1728.2960205078125,2236.159912109375)"><path fill="rgb(0,155,79)" fill-opacity="1" d=" M28.246000289916992,-1.4229999780654907 C50.54800033569336,-1.3930000066757202 71.9260025024414,-0.20600000023841858 94.16200256347656,-2.433000087738037 C90.97699737548828,-12.829000473022461 85.39299774169922,-22.86199951171875 76.4520034790039,-25.038000106811523 C62.53099822998047,-28.427000045776367 49.13100051879883,-28.735000610351562 17.555999755859375,-28.735000610351562 C6.545000076293945,-28.735000610351562 -4.60099983215332,-27.642000198364258 -14.663999557495117,-23.173999786376953 C-16.55299949645996,-22.333999633789062 -18.451000213623047,-21.393999099731445 -20.507999420166016,-21.18000030517578 C-23.447999954223633,-20.874000549316406 -26.30500030517578,-22.08099937438965 -29.07699966430664,-23.108999252319336 C-47.50699996948242,-29.94099998474121 -68.53399658203125,-29.472999572753906 -86.64299774169922,-21.827999114990234 C-88.97899627685547,-20.841999053955078 -91.39199829101562,-19.634000778198242 -92.73600006103516,-17.485000610351562 C-94.16200256347656,-15.204999923706055 -94.10399627685547,-12.333999633789062 -93.9990005493164,-9.64900016784668 C-93.89299774169922,-6.925000190734863 -93.78700256347656,-4.201000213623047 -93.68099975585938,-1.4769999980926514 C-76.53299713134766,-1.1089999675750732 -59.88100051879883,-4.11299991607666 -42.8120002746582,-3.874000072479248 C-43.39899826049805,4.479000091552734 -43.41299819946289,14.234000205993652 -36.89699935913086,19.493999481201172 C-28.54800033569336,26.23200035095215 22.045000076293945,29.940000534057617 25.78499984741211,14.89799976348877 C26.902999877929688,10.402000427246094 19.08300018310547,7.813000202178955 19.472999572753906,3.197000026702881 C19.7810001373291,-0.44200000166893005 24.5939998626709,-1.4290000200271606 28.246000289916992,-1.4229999780654907z"></path></g><g opacity="1" transform="matrix(1,0,0,1,1728.2960205078125,2236.159912109375)"><path stroke-linecap="butt" stroke-linejoin="miter" fill-opacity="0" stroke-miterlimit="10" stroke="rgb(0,155,79)" stroke-opacity="1" stroke-width="2" d=" M28.246000289916992,-1.4229999780654907 C50.54800033569336,-1.3930000066757202 71.9260025024414,-0.20600000023841858 94.16200256347656,-2.433000087738037 C90.97699737548828,-12.829000473022461 85.39299774169922,-22.86199951171875 76.4520034790039,-25.038000106811523 C62.53099822998047,-28.427000045776367 49.13100051879883,-28.735000610351562 17.555999755859375,-28.735000610351562 C6.545000076293945,-28.735000610351562 -4.60099983215332,-27.642000198364258 -14.663999557495117,-23.173999786376953 C-16.55299949645996,-22.333999633789062 -18.451000213623047,-21.393999099731445 -20.507999420166016,-21.18000030517578 C-23.447999954223633,-20.874000549316406 -26.30500030517578,-22.08099937438965 -29.07699966430664,-23.108999252319336 C-47.50699996948242,-29.94099998474121 -68.53399658203125,-29.472999572753906 -86.64299774169922,-21.827999114990234 C-88.97899627685547,-20.841999053955078 -91.39199829101562,-19.634000778198242 -92.73600006103516,-17.485000610351562 C-94.16200256347656,-15.204999923706055 -94.10399627685547,-12.333999633789062 -93.9990005493164,-9.64900016784668 C-93.89299774169922,-6.925000190734863 -93.78700256347656,-4.201000213623047 -93.68099975585938,-1.4769999980926514 C-76.53299713134766,-1.1089999675750732 -59.88100051879883,-4.11299991607666 -42.8120002746582,-3.874000072479248 C-43.39899826049805,4.479000091552734 -43.41299819946289,14.234000205993652 -36.89699935913086,19.493999481201172 C-28.54800033569336,26.23200035095215 22.045000076293945,29.940000534057617 25.78499984741211,14.89799976348877 C26.902999877929688,10.402000427246094 19.08300018310547,7.813000202178955 19.472999572753906,3.197000026702881 C19.7810001373291,-0.44200000166893005 24.5939998626709,-1.4290000200271606 28.246000289916992,-1.4229999780654907z"></path></g><g opacity="1" transform="matrix(1,0,0,1,1822.3270263671875,2270.7919921875)"><path fill="rgb(0,155,79)" fill-opacity="1" d=" M-24.763999938964844,1.4470000267028809 C-24.121999740600586,4.982999801635742 -20.114999771118164,6.683000087738037 -16.625999450683594,7.552000045776367 C-7.099999904632568,9.925999641418457 20.027000427246094,14.430999755859375 25.424999237060547,3.0250000953674316 C27.643999099731445,-1.6619999408721924 25.16200065612793,-7.974999904632568 20.34600067138672,-9.895999908447266 C18.15999984741211,-10.767999649047852 15.744000434875488,-10.800999641418457 13.390999794006348,-10.822999954223633 C5.408999919891357,-10.895000457763672 -27.64299964904785,-14.430999755859375 -24.763999938964844,1.4470000267028809z"></path></g><g opacity="1" transform="matrix(1,0,0,1,1822.3270263671875,2272.738037109375)"><path stroke-linecap="butt" stroke-linejoin="miter" fill-opacity="0" stroke-miterlimit="10" stroke="rgb(0,155,79)" stroke-opacity="1" stroke-width="2" d=" M-24.763999938964844,1.4470000267028809 C-24.121999740600586,4.982999801635742 -20.114999771118164,6.683000087738037 -16.625999450683594,7.552000045776367 C-7.099999904632568,9.925999641418457 20.027000427246094,14.430999755859375 25.424999237060547,3.0250000953674316 C27.643999099731445,-1.6619999408721924 25.16200065612793,-7.974999904632568 20.34600067138672,-9.895999908447266 C18.15999984741211,-10.767999649047852 15.744000434875488,-10.800999641418457 13.390999794006348,-10.822999954223633 C5.408999919891357,-10.895000457763672 -27.64299964904785,-14.430999755859375 -24.763999938964844,1.4470000267028809z"></path></g><g opacity="1" transform="matrix(1,0,0,1,0,1.9450000524520874)"><path stroke-linecap="round" stroke-linejoin="round" fill-opacity="0" stroke="rgb(167,95,68)" stroke-opacity="1" stroke-width="6" d=" M1818.0350341796875,2308.22900390625 C1818.0350341796875,2308.22900390625 1818.0350341796875,2356.652099609375 1818.0350341796875,2356.652099609375"></path></g><g opacity="1" transform="matrix(1,0,0,1,0,0)"><path stroke-linecap="round" stroke-linejoin="round" fill-opacity="0" stroke="rgb(113,66,56)" stroke-opacity="1" stroke-width="6" d=" M1689.697998046875,2267.0029296875 C1689.697998046875,2267.0029296875 1689.697998046875,2336.947021484375 1689.697998046875,2336.947021484375"></path></g><g opacity="1" transform="matrix(1,0,0,1,0,0)"><path stroke-linecap="round" stroke-linejoin="round" fill-opacity="0" stroke="rgb(113,66,56)" stroke-opacity="1" stroke-width="6" d=" M1667.155029296875,2249.677978515625 C1667.155029296875,2249.677978515625 1667.155029296875,2303.85009765625 1667.155029296875,2303.85009765625"></path></g></g></g></svg>