<svg xmlns="http://www.w3.org/2000/svg" viewBox="0 0 47 114" width="47" height="114" preserveAspectRatio="xMidYMid meet" style="width: 100%; height: 100%; transform: translate3d(0px, 0px, 0px); content-visibility: visible;"><defs><clipPath id="__lottie_element_2086"><rect width="47" height="114" x="0" y="0"></rect></clipPath></defs><g clip-path="url(#__lottie_element_2086)"><g transform="matrix(0.33539995551109314,0,0,0.33539995551109314,7.271800518035889,0.6528045535087585)" opacity="1" style="display: block;"><g opacity="1" transform="matrix(1,0,0,1,48.52799987792969,30.20199966430664)"><path fill="rgb(114,66,56)" fill-opacity="1" d=" M-9.187000274658203,-7.688000202178955 C-9.187000274658203,-7.688000202178955 9.187000274658203,-7.688000202178955 9.187000274658203,-7.688000202178955 C9.187000274658203,-7.688000202178955 9.187000274658203,7.688000202178955 9.187000274658203,7.688000202178955 C9.187000274658203,7.688000202178955 -9.187000274658203,7.688000202178955 -9.187000274658203,7.688000202178955 C-9.187000274658203,7.688000202178955 -9.187000274658203,-7.688000202178955 -9.187000274658203,-7.688000202178955z"></path></g><g opacity="1" transform="matrix(1,0,0,1,23.621999740600586,36.025001525878906)"><path fill="rgb(114,66,56)" fill-opacity="1" d=" M-9.187000274658203,-7.688000202178955 C-9.187000274658203,-7.688000202178955 9.187000274658203,-7.688000202178955 9.187000274658203,-7.688000202178955 C9.187000274658203,-7.688000202178955 9.187000274658203,7.688000202178955 9.187000274658203,7.688000202178955 C9.187000274658203,7.688000202178955 -9.187000274658203,7.688000202178955 -9.187000274658203,7.688000202178955 C-9.187000274658203,7.688000202178955 -9.187000274658203,-7.688000202178955 -9.187000274658203,-7.688000202178955z"></path></g><g opacity="1" transform="matrix(1,0,0,1,48.70199966430664,14.64900016784668)"><path fill="rgb(114,66,56)" fill-opacity="1" d=" M-6.7729997634887695,-3.187999963760376 C-6.7729997634887695,-3.187999963760376 6.7729997634887695,-3.187999963760376 6.7729997634887695,-3.187999963760376 C6.7729997634887695,-3.187999963760376 6.7729997634887695,3.187999963760376 6.7729997634887695,3.187999963760376 C6.7729997634887695,3.187999963760376 -6.7729997634887695,3.187999963760376 -6.7729997634887695,3.187999963760376 C-6.7729997634887695,3.187999963760376 -6.7729997634887695,-3.187999963760376 -6.7729997634887695,-3.187999963760376z"></path></g><g opacity="1" transform="matrix(1,0,0,1,12.118000030517578,41.17599868774414)"><path fill="rgb(114,66,56)" fill-opacity="1" d=" M-11.642000198364258,10.654999732971191 C-11.642000198364258,10.654999732971191 -3.2320001125335693,-10.654999732971191 -3.2320001125335693,-10.654999732971191 C-3.2320001125335693,-10.654999732971191 11.642000198364258,2.194999933242798 11.642000198364258,2.194999933242798 C11.642000198364258,2.194999933242798 11.467000007629395,10.654999732971191 11.467000007629395,10.654999732971191 C11.467000007629395,10.654999732971191 -11.642000198364258,10.654999732971191 -11.642000198364258,10.654999732971191z"></path></g><g opacity="1" transform="matrix(1,0,0,1,48.70199966430664,34.779998779296875)"><path fill="rgb(114,66,56)" fill-opacity="1" d=" M0.9909999966621399,-26.983999252319336 C0.9909999966621399,-26.983999252319336 -0.9909999966621399,-26.983999252319336 -0.9909999966621399,-26.983999252319336 C-0.9909999966621399,-26.983999252319336 -2.73799991607666,26.983999252319336 -2.73799991607666,26.983999252319336 C-2.73799991607666,26.983999252319336 2.73799991607666,26.983999252319336 2.73799991607666,26.983999252319336 C2.73799991607666,26.983999252319336 0.9909999966621399,-26.983999252319336 0.9909999966621399,-26.983999252319336z"></path></g><g opacity="1" transform="matrix(1,0,0,1,23.62299919128418,44.81999969482422)"><path fill="rgb(114,66,56)" fill-opacity="1" d=" M0.9919999837875366,-26.983999252319336 C0.9919999837875366,-26.983999252319336 -0.9919999837875366,-26.983999252319336 -0.9919999837875366,-26.983999252319336 C-0.9919999837875366,-26.983999252319336 -2.736999988555908,26.983999252319336 -2.736999988555908,26.983999252319336 C-2.736999988555908,26.983999252319336 2.736999988555908,26.983999252319336 2.736999988555908,26.983999252319336 C2.736999988555908,26.983999252319336 0.9919999837875366,-26.983999252319336 0.9919999837875366,-26.983999252319336z"></path></g><g opacity="1" transform="matrix(1,0,0,1,73.71099853515625,36.025001525878906)"><path fill="rgb(114,66,56)" fill-opacity="1" d=" M-9.187999725341797,-7.688000202178955 C-9.187999725341797,-7.688000202178955 9.187999725341797,-7.688000202178955 9.187999725341797,-7.688000202178955 C9.187999725341797,-7.688000202178955 9.187999725341797,7.688000202178955 9.187999725341797,7.688000202178955 C9.187999725341797,7.688000202178955 -9.187999725341797,7.688000202178955 -9.187999725341797,7.688000202178955 C-9.187999725341797,7.688000202178955 -9.187999725341797,-7.688000202178955 -9.187999725341797,-7.688000202178955z"></path></g><g opacity="1" transform="matrix(1,0,0,1,73.78199768066406,25.99799919128418)"><path fill="rgb(114,66,56)" fill-opacity="1" d=" M4.293000221252441,-2.3389999866485596 C4.293000221252441,-2.3389999866485596 -4.293000221252441,-2.3389999866485596 -4.293000221252441,-2.3389999866485596 C-4.293000221252441,-2.3389999866485596 -4.293000221252441,-0.035999998450279236 -4.293000221252441,-0.035999998450279236 C-4.293000221252441,1.2760000228881836 -3.2300000190734863,2.3389999866485596 -1.9190000295639038,2.3389999866485596 C-1.9190000295639038,2.3389999866485596 1.9190000295639038,2.3389999866485596 1.9190000295639038,2.3389999866485596 C3.2309999465942383,2.3389999866485596 4.293000221252441,1.2760000228881836 4.293000221252441,-0.035999998450279236 C4.293000221252441,-0.035999998450279236 4.293000221252441,-2.3389999866485596 4.293000221252441,-2.3389999866485596z"></path></g><g opacity="1" transform="matrix(1,0,0,1,48.52899932861328,20.174999237060547)"><path fill="rgb(114,66,56)" fill-opacity="1" d=" M4.294000148773193,-2.3389999866485596 C4.294000148773193,-2.3389999866485596 -4.294000148773193,-2.3389999866485596 -4.294000148773193,-2.3389999866485596 C-4.294000148773193,-2.3389999866485596 -4.294000148773193,-0.035999998450279236 -4.294000148773193,-0.035999998450279236 C-4.294000148773193,1.2760000228881836 -3.2300000190734863,2.3389999866485596 -1.9190000295639038,2.3389999866485596 C-1.9190000295639038,2.3389999866485596 1.9199999570846558,2.3389999866485596 1.9199999570846558,2.3389999866485596 C3.2320001125335693,2.3389999866485596 4.294000148773193,1.2760000228881836 4.294000148773193,-0.035999998450279236 C4.294000148773193,-0.035999998450279236 4.294000148773193,-2.3389999866485596 4.294000148773193,-2.3389999866485596z"></path></g><g opacity="1" transform="matrix(1,0,0,1,48.52899932861328,40.229000091552734)"><path fill="rgb(114,66,56)" fill-opacity="1" d=" M4.294000148773193,-2.3389999866485596 C4.294000148773193,-2.3389999866485596 -4.294000148773193,-2.3389999866485596 -4.294000148773193,-2.3389999866485596 C-4.294000148773193,-2.3389999866485596 -4.294000148773193,-0.035999998450279236 -4.294000148773193,-0.035999998450279236 C-4.294000148773193,1.2760000228881836 -3.2300000190734863,2.3389999866485596 -1.9190000295639038,2.3389999866485596 C-1.9190000295639038,2.3389999866485596 1.9199999570846558,2.3389999866485596 1.9199999570846558,2.3389999866485596 C3.2320001125335693,2.3389999866485596 4.294000148773193,1.2760000228881836 4.294000148773193,-0.035999998450279236 C4.294000148773193,-0.035999998450279236 4.294000148773193,-2.3389999866485596 4.294000148773193,-2.3389999866485596z"></path></g><g opacity="1" transform="matrix(1,0,0,1,86.25700378417969,40.51599884033203)"><path fill="rgb(114,66,56)" fill-opacity="1" d=" M-19.115999221801758,-12.131999969482422 C-19.115999221801758,-12.131999969482422 19.115999221801758,7.190000057220459 19.115999221801758,7.190000057220459 C19.115999221801758,7.190000057220459 -10.574000358581543,12.131999969482422 -10.574000358581543,12.131999969482422 C-10.574000358581543,12.131999969482422 -19.115999221801758,-12.131999969482422 -19.115999221801758,-12.131999969482422z"></path></g><g opacity="1" transform="matrix(1,0,0,1,73.78099822998047,20.472000122070312)"><path fill="rgb(114,66,56)" fill-opacity="1" d=" M-6.7729997634887695,-3.187999963760376 C-6.7729997634887695,-3.187999963760376 6.7729997634887695,-3.187999963760376 6.7729997634887695,-3.187999963760376 C6.7729997634887695,-3.187999963760376 6.7729997634887695,3.187999963760376 6.7729997634887695,3.187999963760376 C6.7729997634887695,3.187999963760376 -6.7729997634887695,3.187999963760376 -6.7729997634887695,3.187999963760376 C-6.7729997634887695,3.187999963760376 -6.7729997634887695,-3.187999963760376 -6.7729997634887695,-3.187999963760376z"></path></g><g opacity="1" transform="matrix(1,0,0,1,73.78199768066406,34.779998779296875)"><path fill="rgb(114,66,56)" fill-opacity="1" d=" M0.9909999966621399,-26.983999252319336 C0.9909999966621399,-26.983999252319336 -0.9909999966621399,-26.983999252319336 -0.9909999966621399,-26.983999252319336 C-0.9909999966621399,-26.983999252319336 -2.73799991607666,26.983999252319336 -2.73799991607666,26.983999252319336 C-2.73799991607666,26.983999252319336 2.73799991607666,26.983999252319336 2.73799991607666,26.983999252319336 C2.73799991607666,26.983999252319336 0.9909999966621399,-26.983999252319336 0.9909999966621399,-26.983999252319336z"></path></g><g opacity="1" transform="matrix(1,0,0,1,14.979000091552734,35.777000427246094)"><path stroke-linecap="round" stroke-linejoin="round" fill-opacity="0" stroke="rgb(114,66,56)" stroke-opacity="1" stroke-width="3" d=" M7.479000091552734,6.451000213623047 C7.479000091552734,6.451000213623047 -7.479000091552734,-6.451000213623047 -7.479000091552734,-6.451000213623047"></path></g><g opacity="1" transform="matrix(1,0,0,1,51.2400016784668,64.10399627685547)"><path fill="rgb(114,66,56)" fill-opacity="1" d=" M-36.79100036621094,-9.892000198364258 C-36.79100036621094,-9.892000198364258 -31.66900062561035,-9.892000198364258 -31.66900062561035,-9.892000198364258 C-31.66900062561035,-9.892000198364258 -9.35099983215332,-9.892000198364258 -9.35099983215332,-9.892000198364258 C-9.35099983215332,-9.892000198364258 -9.35099983215332,-6.980000019073486 -9.35099983215332,-6.980000019073486 C-9.35099983215332,-6.980000019073486 11.069999694824219,-6.980000019073486 11.069999694824219,-6.980000019073486 C11.069999694824219,-6.980000019073486 11.069999694824219,-9.892000198364258 11.069999694824219,-9.892000198364258 C11.069999694824219,-9.892000198364258 39.819000244140625,-9.892000198364258 39.819000244140625,-9.892000198364258 C40.37900161743164,-9.892000198364258 41.78799819946289,-10.020000457763672 41.78799819946289,-9.470999717712402 C41.78799819946289,-7.078000068664551 37.8129997253418,-7.50600004196167 34.691001892089844,-4.328000068664551 C29.660999298095703,0.7919999957084656 31.05699920654297,10.020999908447266 19.35300064086914,10.020999908447266 C19.35300064086914,10.020999908447266 -28.06800079345703,10.020999908447266 -28.06800079345703,10.020999908447266 C-29.700000762939453,10.020999908447266 -31.232999801635742,9.098999977111816 -32.000999450683594,7.658999919891357 C-32.82899856567383,6.105000019073486 -32.66899871826172,4.440999984741211 -32.81800079345703,2.746999979019165 C-33.349998474121094,-3.2880001068115234 -37.13999938964844,-7.553999900817871 -41.78799819946289,-7.553999900817871 C-41.78799819946289,-7.553999900817871 -41.78799819946289,-9.892000198364258 -41.78799819946289,-9.892000198364258 C-41.78799819946289,-9.892000198364258 -36.79100036621094,-9.892000198364258 -36.79100036621094,-9.892000198364258z"></path></g><g opacity="1" transform="matrix(1,0,0,1,96.70800018310547,52.89400100708008)"><path stroke-linecap="round" stroke-linejoin="round" fill-opacity="0" stroke="rgb(114,66,56)" stroke-opacity="1" stroke-width="3" d=" M-10.451000213623047,1.7389999628067017 C-10.451000213623047,1.7389999628067017 10.451000213623047,-1.7389999628067017 10.451000213623047,-1.7389999628067017"></path></g><g opacity="1" transform="matrix(1,0,0,1,73.78199768066406,46.051998138427734)"><path fill="rgb(114,66,56)" fill-opacity="1" d=" M4.293000221252441,-2.3389999866485596 C4.293000221252441,-2.3389999866485596 -4.293000221252441,-2.3389999866485596 -4.293000221252441,-2.3389999866485596 C-4.293000221252441,-2.3389999866485596 -4.293000221252441,-0.035999998450279236 -4.293000221252441,-0.035999998450279236 C-4.293000221252441,1.274999976158142 -3.2300000190734863,2.3389999866485596 -1.9190000295639038,2.3389999866485596 C-1.9190000295639038,2.3389999866485596 1.9190000295639038,2.3389999866485596 1.9190000295639038,2.3389999866485596 C3.2309999465942383,2.3389999866485596 4.293000221252441,1.274999976158142 4.293000221252441,-0.035999998450279236 C4.293000221252441,-0.035999998450279236 4.293000221252441,-2.3389999866485596 4.293000221252441,-2.3389999866485596z"></path></g><g opacity="1" transform="matrix(1,0,0,1,23.621999740600586,46.051998138427734)"><path fill="rgb(114,66,56)" fill-opacity="1" d=" M4.294000148773193,-2.3389999866485596 C4.294000148773193,-2.3389999866485596 -4.294000148773193,-2.3389999866485596 -4.294000148773193,-2.3389999866485596 C-4.294000148773193,-2.3389999866485596 -4.294000148773193,-0.035999998450279236 -4.294000148773193,-0.035999998450279236 C-4.294000148773193,1.274999976158142 -3.2300000190734863,2.3389999866485596 -1.9190000295639038,2.3389999866485596 C-1.9190000295639038,2.3389999866485596 1.9190000295639038,2.3389999866485596 1.9190000295639038,2.3389999866485596 C3.2309999465942383,2.3389999866485596 4.294000148773193,1.274999976158142 4.294000148773193,-0.035999998450279236 C4.294000148773193,-0.035999998450279236 4.294000148773193,-2.3389999866485596 4.294000148773193,-2.3389999866485596z"></path></g><g opacity="1" transform="matrix(1,0,0,1,41.75600051879883,4.400000095367432)"><path fill="rgb(114,66,56)" fill-opacity="1" d=" M7.936999797821045,4.150000095367432 C7.936999797821045,4.150000095367432 7.936999797821045,-4.150000095367432 7.936999797821045,-4.150000095367432 C7.936999797821045,-4.150000095367432 -7.936999797821045,0 -7.936999797821045,0 C-7.936999797821045,0 7.936999797821045,4.150000095367432 7.936999797821045,4.150000095367432z"></path></g><g opacity="1" transform="matrix(1,0,0,1,16.677000045776367,21.274999618530273)"><path fill="rgb(114,66,56)" fill-opacity="1" d=" M7.938000202178955,4.150000095367432 C7.938000202178955,4.150000095367432 7.938000202178955,-4.150000095367432 7.938000202178955,-4.150000095367432 C7.938000202178955,-4.150000095367432 -7.938000202178955,0 -7.938000202178955,0 C-7.938000202178955,0 7.938000202178955,4.150000095367432 7.938000202178955,4.150000095367432z"></path></g><g opacity="1" transform="matrix(1,0,0,1,66.83599853515625,10.222999572753906)"><path fill="rgb(114,66,56)" fill-opacity="1" d=" M7.936999797821045,4.150000095367432 C7.936999797821045,4.150000095367432 7.936999797821045,-4.150000095367432 7.936999797821045,-4.150000095367432 C7.936999797821045,-4.150000095367432 -7.936999797821045,0 -7.936999797821045,0 C-7.936999797821045,0 7.936999797821045,4.150000095367432 7.936999797821045,4.150000095367432z"></path></g></g><g transform="matrix(0.33539995551109314,0,0,0.33539995551109314,0.3575575053691864,21.795669555664062)" opacity="1" style="display: block;"><g opacity="1" transform="matrix(1,0,0,1,69.13800048828125,97.04299926757812)"><path fill="rgb(0,130,125)" fill-opacity="1" d=" M-21.167999267578125,96.79199981689453 C-21.167999267578125,96.79199981689453 -3.619999885559082,-96.79199981689453 -3.619999885559082,-96.79199981689453 C-3.619999885559082,-96.79199981689453 3.614000082015991,-96.79199981689453 3.614000082015991,-96.79199981689453 C3.614000082015991,-96.79199981689453 21.167999267578125,96.79199981689453 21.167999267578125,96.79199981689453 C21.167999267578125,96.79199981689453 -21.167999267578125,96.79199981689453 -21.167999267578125,96.79199981689453z"></path></g></g><g transform="matrix(0.33539995551109314,0,0,0.33539995551109314,0.4090012311935425,21.138010025024414)" opacity="1" style="display: block;"><g opacity="1" transform="matrix(1,0,0,1,113.86699676513672,225.5760040283203)"><path fill="rgb(175,153,165)" fill-opacity="1" d=" M-12.607999801635742,0 C-12.607999801635742,-6.9629998207092285 -6.9629998207092285,-12.607999801635742 -0.0010000000474974513,-12.607999801635742 C6.961999893188477,-12.607999801635742 12.607999801635742,-6.9629998207092285 12.607999801635742,0 C12.607999801635742,6.9629998207092285 6.961999893188477,12.607999801635742 -0.0010000000474974513,12.607999801635742 C-6.9629998207092285,12.607999801635742 -12.607999801635742,6.9629998207092285 -12.607999801635742,0z"></path></g><g opacity="1" transform="matrix(1,0,0,1,113.86699676513672,206.8730010986328)"><path fill="rgb(175,153,165)" fill-opacity="1" d=" M-6.302999973297119,0 C-6.302999973297119,-3.4820001125335693 -3.4820001125335693,-6.303999900817871 0,-6.303999900817871 C3.4809999465942383,-6.303999900817871 6.302999973297119,-3.4820001125335693 6.302999973297119,0 C6.302999973297119,3.4809999465942383 3.4809999465942383,6.303999900817871 0,6.303999900817871 C-3.4820001125335693,6.303999900817871 -6.302999973297119,3.4809999465942383 -6.302999973297119,0z"></path></g><g opacity="1" transform="matrix(1,0,0,1,24.410999298095703,225.5760040283203)"><path fill="rgb(175,153,165)" fill-opacity="1" d=" M12.607999801635742,0 C12.607999801635742,-6.9629998207092285 6.9629998207092285,-12.607999801635742 0.0010000000474974513,-12.607999801635742 C-6.9629998207092285,-12.607999801635742 -12.607999801635742,-6.9629998207092285 -12.607999801635742,0 C-12.607999801635742,6.9629998207092285 -6.9629998207092285,12.607999801635742 0.0010000000474974513,12.607999801635742 C6.9629998207092285,12.607999801635742 12.607999801635742,6.9629998207092285 12.607999801635742,0z"></path></g><g opacity="1" transform="matrix(1,0,0,1,24.410999298095703,206.8730010986328)"><path fill="rgb(175,153,165)" fill-opacity="1" d=" M6.303999900817871,0 C6.303999900817871,-3.4820001125335693 3.4820001125335693,-6.303999900817871 0,-6.303999900817871 C-3.4820001125335693,-6.303999900817871 -6.303999900817871,-3.4820001125335693 -6.303999900817871,0 C-6.303999900817871,3.4809999465942383 -3.4820001125335693,6.303999900817871 0,6.303999900817871 C3.4820001125335693,6.303999900817871 6.303999900817871,3.4809999465942383 6.303999900817871,0z"></path></g><g opacity="1" transform="matrix(1,0,0,1,69.13800048828125,104.48100280761719)"><path fill="rgb(0,130,125)" fill-opacity="1" d=" M-19.945999145507812,91.20600128173828 C-19.945999145507812,91.20600128173828 -3.4110000133514404,-91.20600128173828 -3.4110000133514404,-91.20600128173828 C-3.4110000133514404,-91.20600128173828 3.4059998989105225,-91.20600128173828 3.4059998989105225,-91.20600128173828 C3.4059998989105225,-91.20600128173828 19.945999145507812,91.20600128173828 19.945999145507812,91.20600128173828 C19.945999145507812,91.20600128173828 -19.945999145507812,91.20600128173828 -19.945999145507812,91.20600128173828z"></path></g><g opacity="1" transform="matrix(1,0,0,1,69.13899993896484,215.9770050048828)"><path fill="rgb(244,155,155)" fill-opacity="1" d=" M38.52899932861328,54.82500076293945 C38.52899932861328,54.82500076293945 -38.52899932861328,54.82500076293945 -38.52899932861328,54.82500076293945 C-38.52899932861328,54.82500076293945 -38.52899932861328,-46.685001373291016 -38.52899932861328,-46.685001373291016 C-38.52899932861328,-46.685001373291016 0,-54.82500076293945 0,-54.82500076293945 C0,-54.82500076293945 38.52899932861328,-46.685001373291016 38.52899932861328,-46.685001373291016 C38.52899932861328,-46.685001373291016 38.52899932861328,54.82500076293945 38.52899932861328,54.82500076293945z"></path></g><g opacity="1" transform="matrix(1,0,0,1,69.13899993896484,209.77699279785156)"><path fill="rgb(255,237,206)" fill-opacity="1" d=" M30.55900001525879,0 C30.55900001525879,-16.87700080871582 16.87700080871582,-30.558000564575195 0,-30.558000564575195 C-16.87700080871582,-30.558000564575195 -30.55900001525879,-16.87700080871582 -30.55900001525879,0 C-30.55900001525879,16.87700080871582 -16.87700080871582,30.558000564575195 0,30.558000564575195 C16.87700080871582,30.558000564575195 30.55900001525879,16.87700080871582 30.55900001525879,0z"></path></g><g opacity="1" transform="matrix(1,0,0,1,69.13899993896484,215.87399291992188)"><path fill="rgb(175,153,165)" fill-opacity="1" d=" M0,-54.722999572753906 C0,-54.722999572753906 38.52799987792969,-46.582000732421875 38.52799987792969,-46.582000732421875 C38.52799987792969,-46.582000732421875 38.52799987792969,54.928001403808594 38.52799987792969,54.928001403808594 C38.52799987792969,54.928001403808594 -38.52799987792969,54.928001403808594 -38.52799987792969,54.928001403808594 C-38.52799987792969,54.928001403808594 -38.52799987792969,-46.582000732421875 -38.52799987792969,-46.582000732421875 C-38.52799987792969,-46.582000732421875 0,-54.722999572753906 0,-54.722999572753906z M0,-64.22000122070312 C0,-64.22000122070312 -1.9210000038146973,-63.83399963378906 -1.9210000038146973,-63.83399963378906 C-1.9210000038146973,-63.83399963378906 -40.44900131225586,-56.11000061035156 -40.44900131225586,-56.11000061035156 C-40.44900131225586,-56.11000061035156 -47.81999969482422,-54.63199996948242 -47.81999969482422,-54.63199996948242 C-47.81999969482422,-54.63199996948242 -47.81999969482422,-47.483001708984375 -47.81999969482422,-47.483001708984375 C-47.81999969482422,-47.483001708984375 -47.81999969482422,48.84700012207031 -47.81999969482422,48.84700012207031 C-47.81999969482422,48.84700012207031 -47.81999969482422,57.66400146484375 -47.81999969482422,57.66400146484375 C-47.81999969482422,57.66400146484375 -38.52799987792969,57.66400146484375 -38.52799987792969,57.66400146484375 C-38.52799987792969,57.66400146484375 38.52799987792969,57.66400146484375 38.52799987792969,57.66400146484375 C38.52799987792969,57.66400146484375 47.81999969482422,57.66400146484375 47.81999969482422,57.66400146484375 C47.81999969482422,57.66400146484375 47.81999969482422,48.84700012207031 47.81999969482422,48.84700012207031 C47.81999969482422,48.84700012207031 47.81999969482422,-47.483001708984375 47.81999969482422,-47.483001708984375 C47.81999969482422,-47.483001708984375 47.81999969482422,-54.63199996948242 47.81999969482422,-54.63199996948242 C47.81999969482422,-54.63199996948242 40.44900131225586,-56.11000061035156 40.44900131225586,-56.11000061035156 C40.44900131225586,-56.11000061035156 1.9210000038146973,-63.83399963378906 1.9210000038146973,-63.83399963378906 C1.9210000038146973,-63.83399963378906 0,-64.22000122070312 0,-64.22000122070312z"></path></g><g opacity="1" transform="matrix(1,0,0,1,69.13700103759766,165.37899780273438)"><path fill="rgb(113,66,56)" fill-opacity="1" d=" M-3766.049072265625,-2885.818115234375 C-3766.049072265625,-2885.818115234375 3259.950927734375,-2885.818115234375 3259.950927734375,-2885.818115234375 C3259.950927734375,-2885.818115234375 3259.950927734375,4140.18212890625 3259.950927734375,4140.18212890625 C3259.950927734375,4140.18212890625 -3766.049072265625,4140.18212890625 -3766.049072265625,4140.18212890625 C-3766.049072265625,4140.18212890625 -3766.049072265625,-2885.818115234375 -3766.049072265625,-2885.818115234375z M-3766.049072265625,4140.18212890625 C-3766.049072265625,4140.18212890625 3259.950927734375,4140.18212890625 3259.950927734375,4140.18212890625 C3259.950927734375,4140.18212890625 3259.950927734375,-2885.818115234375 3259.950927734375,-2885.818115234375 C3259.950927734375,-2885.818115234375 -3766.049072265625,-2885.818115234375 -3766.049072265625,-2885.818115234375 C-3766.049072265625,-2885.818115234375 -3766.049072265625,4140.18212890625 -3766.049072265625,4140.18212890625z M1.9199999570846558,-15.170999526977539 C1.9199999570846558,-15.170999526977539 0,-15.57699966430664 0,-15.57699966430664 C0,-15.57699966430664 -1.9210000038146973,-15.170999526977539 -1.9210000038146973,-15.170999526977539 C-1.9210000038146973,-15.170999526977539 -40.44900131225586,-7.031000137329102 -40.44900131225586,-7.031000137329102 C-40.44900131225586,-7.031000137329102 -47.81999969482422,-5.473999977111816 -47.81999969482422,-5.473999977111816 C-47.81999969482422,-5.473999977111816 -47.81999969482422,2.059999942779541 -47.81999969482422,2.059999942779541 C-47.81999969482422,2.059999942779541 -47.81999969482422,15.57699966430664 -47.81999969482422,15.57699966430664 C-47.81999969482422,15.57699966430664 0.003000000026077032,5.61899995803833 0.003000000026077032,5.61899995803833 C0.003000000026077032,5.61899995803833 47.81999969482422,15.57699966430664 47.81999969482422,15.57699966430664 C47.81999969482422,15.57699966430664 47.81999969482422,2.059999942779541 47.81999969482422,2.059999942779541 C47.81999969482422,2.059999942779541 47.81999969482422,-5.473999977111816 47.81999969482422,-5.473999977111816 C47.81999969482422,-5.473999977111816 40.44900131225586,-7.031000137329102 40.44900131225586,-7.031000137329102 C40.44900131225586,-7.031000137329102 1.9199999570846558,-15.170999526977539 1.9199999570846558,-15.170999526977539z"></path><g opacity="1" transform="matrix(1,0,0,1,0,0)"></g></g><g opacity="1" transform="matrix(1,0,0,1,69.13899993896484,153.3280029296875)"><path fill="rgb(192,66,60)" fill-opacity="1" d=" M62.555999755859375,20.81399917602539 C62.555999755859375,20.81399917602539 18.55699920654297,-20.81399917602539 18.55699920654297,-20.81399917602539 C18.55699920654297,-20.81399917602539 -18.56100082397461,-20.812000274658203 -18.56100082397461,-20.812000274658203 C-18.56100082397461,-20.812000274658203 -62.555999755859375,20.81399917602539 -62.555999755859375,20.81399917602539 C-62.555999755859375,20.81399917602539 -0.0010000000474974513,7.822999954223633 -0.0010000000474974513,7.822999954223633 C-0.0010000000474974513,7.822999954223633 62.555999755859375,20.81399917602539 62.555999755859375,20.81399917602539z"></path></g><g opacity="1" transform="matrix(1,0,0,1,75.3010025024414,215.70599365234375)"><path stroke-linecap="round" stroke-linejoin="round" fill-opacity="0" stroke="rgb(118,82,108)" stroke-opacity="1" stroke-width="8.107" d=" M-6.160999774932861,-5.928999900817871 C-6.160999774932861,-5.928999900817871 6.160999774932861,5.928999900817871 6.160999774932861,5.928999900817871"></path></g><g opacity="1" transform="matrix(1,0,0,1,69.13800048828125,121.0530014038086)"><path fill="rgb(0,130,125)" fill-opacity="1" d=" M-20.415000915527344,-13.218999862670898 C-20.415000915527344,-13.218999862670898 20.415000915527344,-13.220999717712402 20.415000915527344,-13.220999717712402 C20.415000915527344,-13.220999717712402 20.415000915527344,13.218999862670898 20.415000915527344,13.218999862670898 C20.415000915527344,13.218999862670898 -20.415000915527344,13.220999717712402 -20.415000915527344,13.220999717712402 C-20.415000915527344,13.220999717712402 -20.415000915527344,-13.218999862670898 -20.415000915527344,-13.218999862670898z"></path></g><g opacity="1" transform="matrix(1,0,0,1,69.13700103759766,153.85000610351562)"><path fill="rgb(195,121,81)" fill-opacity="1" d=" M68.88800048828125,26.339000701904297 C68.88800048828125,26.339000701904297 64.75299835205078,-9.343000411987305 64.75299835205078,-9.343000411987305 C64.61100006103516,-10.57699966430664 63.566001892089844,-11.506999969482422 62.32400131225586,-11.506999969482422 C60.9739990234375,-11.506999969482422 59.880001068115234,-10.411999702453613 59.880001068115234,-9.062000274658203 C59.880001068115234,-9.062000274658203 59.880001068115234,15.081000328063965 59.880001068115234,15.081000328063965 C59.880001068115234,15.081000328063965 5.874000072479248,3.8340001106262207 5.874000072479248,3.8340001106262207 C5.874000072479248,3.8340001106262207 2.569000005722046,-24.18199920654297 2.569000005722046,-24.18199920654297 C2.4230000972747803,-25.41200065612793 1.3799999952316284,-26.339000701904297 0.14100000262260437,-26.339000701904297 C0.14100000262260437,-26.339000701904297 -0.1379999965429306,-26.339000701904297 -0.1379999965429306,-26.339000701904297 C-1.378000020980835,-26.339000701904297 -2.421999931335449,-25.41200065612793 -2.566999912261963,-24.18199920654297 C-2.566999912261963,-24.18199920654297 -5.872000217437744,3.8340001106262207 -5.872000217437744,3.8340001106262207 C-5.872000217437744,3.8340001106262207 -59.87699890136719,15.081000328063965 -59.87699890136719,15.081000328063965 C-59.87699890136719,15.081000328063965 -59.87699890136719,-9.062000274658203 -59.87699890136719,-9.062000274658203 C-59.87699890136719,-10.411999702453613 -60.97100067138672,-11.506999969482422 -62.321998596191406,-11.506999969482422 C-63.5629997253418,-11.506999969482422 -64.60800170898438,-10.57699966430664 -64.7509994506836,-9.343000411987305 C-64.7509994506836,-9.343000411987305 -68.88800048828125,26.339000701904297 -68.88800048828125,26.339000701904297 C-68.88800048828125,26.339000701904297 0.003000000026077032,11.994000434875488 0.003000000026077032,11.994000434875488 C0.003000000026077032,11.994000434875488 68.88800048828125,26.339000701904297 68.88800048828125,26.339000701904297z"></path></g><g opacity="1" transform="matrix(1,0,0,1,7.045000076293945,254.63800048828125)"><path fill="rgb(0,130,125)" fill-opacity="1" d=" M3.1419999599456787,17.229000091552734 C3.1419999599456787,17.229000091552734 -3.1419999599456787,17.229000091552734 -3.1419999599456787,17.229000091552734 C-3.1419999599456787,17.229000091552734 -3.1419999599456787,-17.229000091552734 -3.1419999599456787,-17.229000091552734 C-3.1419999599456787,-17.229000091552734 3.1419999599456787,-17.229000091552734 3.1419999599456787,-17.229000091552734 C3.1419999599456787,-17.229000091552734 3.1419999599456787,17.229000091552734 3.1419999599456787,17.229000091552734z"></path></g><g opacity="1" transform="matrix(1,0,0,1,18.724000930786133,253.7760009765625)"><path fill="rgb(0,130,125)" fill-opacity="1" d=" M-10.458999633789062,-12.781000137329102 C-10.458999633789062,-12.781000137329102 7.394999980926514,14.473999977111816 7.394999980926514,14.473999977111816 C7.394999980926514,14.473999977111816 10.458999633789062,12.779999732971191 10.458999633789062,12.779999732971191 C10.458999633789062,12.779999732971191 -7.390999794006348,-14.473999977111816 -7.390999794006348,-14.473999977111816 C-7.390999794006348,-14.473999977111816 -10.458999633789062,-12.781000137329102 -10.458999633789062,-12.781000137329102z"></path></g><g opacity="1" transform="matrix(1,0,0,1,18.724000930786133,253.7760009765625)"><path fill="rgb(0,130,125)" fill-opacity="1" d=" M-10.458999633789062,12.779999732971191 C-10.458999633789062,12.779999732971191 -7.390999794006348,14.473999977111816 -7.390999794006348,14.473999977111816 C-7.390999794006348,14.473999977111816 10.458999633789062,-12.779999732971191 10.458999633789062,-12.779999732971191 C10.458999633789062,-12.779999732971191 7.394999980926514,-14.473999977111816 7.394999980926514,-14.473999977111816 C7.394999980926514,-14.473999977111816 -10.458999633789062,12.779999732971191 -10.458999633789062,12.779999732971191z"></path></g><g opacity="1" transform="matrix(1,0,0,1,35.52799987792969,253.7760009765625)"><path fill="rgb(0,130,125)" fill-opacity="1" d=" M-10.458000183105469,-12.781000137329102 C-10.458000183105469,-12.781000137329102 7.394999980926514,14.473999977111816 7.394999980926514,14.473999977111816 C7.394999980926514,14.473999977111816 10.458000183105469,12.779999732971191 10.458000183105469,12.779999732971191 C10.458000183105469,12.779999732971191 -7.390999794006348,-14.473999977111816 -7.390999794006348,-14.473999977111816 C-7.390999794006348,-14.473999977111816 -10.458000183105469,-12.781000137329102 -10.458000183105469,-12.781000137329102z"></path></g><g opacity="1" transform="matrix(1,0,0,1,35.52799987792969,253.7760009765625)"><path fill="rgb(0,130,125)" fill-opacity="1" d=" M-10.458000183105469,12.779999732971191 C-10.458000183105469,12.779999732971191 -7.390999794006348,14.473999977111816 -7.390999794006348,14.473999977111816 C-7.390999794006348,14.473999977111816 10.458000183105469,-12.779999732971191 10.458000183105469,-12.779999732971191 C10.458000183105469,-12.779999732971191 7.394999980926514,-14.473999977111816 7.394999980926514,-14.473999977111816 C7.394999980926514,-14.473999977111816 -10.458000183105469,12.779999732971191 -10.458000183105469,12.779999732971191z"></path></g><g opacity="1" transform="matrix(1,0,0,1,52.33300018310547,253.7760009765625)"><path fill="rgb(0,130,125)" fill-opacity="1" d=" M-10.458000183105469,-12.781000137329102 C-10.458000183105469,-12.781000137329102 7.394999980926514,14.473999977111816 7.394999980926514,14.473999977111816 C7.394999980926514,14.473999977111816 10.458000183105469,12.779999732971191 10.458000183105469,12.779999732971191 C10.458000183105469,12.779999732971191 -7.390999794006348,-14.473999977111816 -7.390999794006348,-14.473999977111816 C-7.390999794006348,-14.473999977111816 -10.458000183105469,-12.781000137329102 -10.458000183105469,-12.781000137329102z"></path></g><g opacity="1" transform="matrix(1,0,0,1,52.33300018310547,253.7760009765625)"><path fill="rgb(0,130,125)" fill-opacity="1" d=" M-10.458000183105469,12.779999732971191 C-10.458000183105469,12.779999732971191 -7.390999794006348,14.473999977111816 -7.390999794006348,14.473999977111816 C-7.390999794006348,14.473999977111816 10.458000183105469,-12.779999732971191 10.458000183105469,-12.779999732971191 C10.458000183105469,-12.779999732971191 7.394999980926514,-14.473999977111816 7.394999980926514,-14.473999977111816 C7.394999980926514,-14.473999977111816 -10.458000183105469,12.779999732971191 -10.458000183105469,12.779999732971191z"></path></g><g opacity="1" transform="matrix(1,0,0,1,69.13800048828125,253.7760009765625)"><path fill="rgb(0,130,125)" fill-opacity="1" d=" M-10.458000183105469,-12.781000137329102 C-10.458000183105469,-12.781000137329102 7.394999980926514,14.473999977111816 7.394999980926514,14.473999977111816 C7.394999980926514,14.473999977111816 10.458000183105469,12.779999732971191 10.458000183105469,12.779999732971191 C10.458000183105469,12.779999732971191 -7.390999794006348,-14.473999977111816 -7.390999794006348,-14.473999977111816 C-7.390999794006348,-14.473999977111816 -10.458000183105469,-12.781000137329102 -10.458000183105469,-12.781000137329102z"></path></g><g opacity="1" transform="matrix(1,0,0,1,69.13800048828125,253.7760009765625)"><path fill="rgb(0,130,125)" fill-opacity="1" d=" M-10.458000183105469,12.779999732971191 C-10.458000183105469,12.779999732971191 -7.390999794006348,14.473999977111816 -7.390999794006348,14.473999977111816 C-7.390999794006348,14.473999977111816 10.458000183105469,-12.779999732971191 10.458000183105469,-12.779999732971191 C10.458000183105469,-12.779999732971191 7.394999980926514,-14.473999977111816 7.394999980926514,-14.473999977111816 C7.394999980926514,-14.473999977111816 -10.458000183105469,12.779999732971191 -10.458000183105469,12.779999732971191z"></path></g><g opacity="1" transform="matrix(1,0,0,1,85.94200134277344,253.7760009765625)"><path fill="rgb(0,130,125)" fill-opacity="1" d=" M-10.458000183105469,-12.781000137329102 C-10.458000183105469,-12.781000137329102 7.394999980926514,14.473999977111816 7.394999980926514,14.473999977111816 C7.394999980926514,14.473999977111816 10.458000183105469,12.779999732971191 10.458000183105469,12.779999732971191 C10.458000183105469,12.779999732971191 -7.390999794006348,-14.473999977111816 -7.390999794006348,-14.473999977111816 C-7.390999794006348,-14.473999977111816 -10.458000183105469,-12.781000137329102 -10.458000183105469,-12.781000137329102z"></path></g><g opacity="1" transform="matrix(1,0,0,1,85.94200134277344,253.7760009765625)"><path fill="rgb(0,130,125)" fill-opacity="1" d=" M-10.458000183105469,12.779999732971191 C-10.458000183105469,12.779999732971191 -7.390999794006348,14.473999977111816 -7.390999794006348,14.473999977111816 C-7.390999794006348,14.473999977111816 10.458000183105469,-12.779999732971191 10.458000183105469,-12.779999732971191 C10.458000183105469,-12.779999732971191 7.394999980926514,-14.473999977111816 7.394999980926514,-14.473999977111816 C7.394999980926514,-14.473999977111816 -10.458000183105469,12.779999732971191 -10.458000183105469,12.779999732971191z"></path></g><g opacity="1" transform="matrix(1,0,0,1,102.74700164794922,253.7760009765625)"><path fill="rgb(0,130,125)" fill-opacity="1" d=" M-10.458000183105469,-12.781000137329102 C-10.458000183105469,-12.781000137329102 7.394999980926514,14.473999977111816 7.394999980926514,14.473999977111816 C7.394999980926514,14.473999977111816 10.458000183105469,12.779999732971191 10.458000183105469,12.779999732971191 C10.458000183105469,12.779999732971191 -7.390999794006348,-14.473999977111816 -7.390999794006348,-14.473999977111816 C-7.390999794006348,-14.473999977111816 -10.458000183105469,-12.781000137329102 -10.458000183105469,-12.781000137329102z"></path></g><g opacity="1" transform="matrix(1,0,0,1,102.74700164794922,253.7760009765625)"><path fill="rgb(0,130,125)" fill-opacity="1" d=" M-10.458000183105469,12.779999732971191 C-10.458000183105469,12.779999732971191 -7.390999794006348,14.473999977111816 -7.390999794006348,14.473999977111816 C-7.390999794006348,14.473999977111816 10.458000183105469,-12.779999732971191 10.458000183105469,-12.779999732971191 C10.458000183105469,-12.779999732971191 7.394999980926514,-14.473999977111816 7.394999980926514,-14.473999977111816 C7.394999980926514,-14.473999977111816 -10.458000183105469,12.779999732971191 -10.458000183105469,12.779999732971191z"></path></g><g opacity="1" transform="matrix(1,0,0,1,119.5510025024414,253.7760009765625)"><path fill="rgb(0,130,125)" fill-opacity="1" d=" M-10.458999633789062,-12.781000137329102 C-10.458999633789062,-12.781000137329102 7.394999980926514,14.473999977111816 7.394999980926514,14.473999977111816 C7.394999980926514,14.473999977111816 10.458999633789062,12.779999732971191 10.458999633789062,12.779999732971191 C10.458999633789062,12.779999732971191 -7.389999866485596,-14.473999977111816 -7.389999866485596,-14.473999977111816 C-7.389999866485596,-14.473999977111816 -10.458999633789062,-12.781000137329102 -10.458999633789062,-12.781000137329102z"></path></g><g opacity="1" transform="matrix(1,0,0,1,119.5510025024414,253.7760009765625)"><path fill="rgb(0,130,125)" fill-opacity="1" d=" M-10.458999633789062,12.779999732971191 C-10.458999633789062,12.779999732971191 -7.389999866485596,14.473999977111816 -7.389999866485596,14.473999977111816 C-7.389999866485596,14.473999977111816 10.458999633789062,-12.779999732971191 10.458999633789062,-12.779999732971191 C10.458999633789062,-12.779999732971191 7.394999980926514,-14.473999977111816 7.394999980926514,-14.473999977111816 C7.394999980926514,-14.473999977111816 -10.458999633789062,12.779999732971191 -10.458999633789062,12.779999732971191z"></path></g><g opacity="1" transform="matrix(1,0,0,1,131.23399353027344,254.63800048828125)"><path fill="rgb(0,130,125)" fill-opacity="1" d=" M3.1419999599456787,17.229000091552734 C3.1419999599456787,17.229000091552734 -3.1419999599456787,17.229000091552734 -3.1419999599456787,17.229000091552734 C-3.1419999599456787,17.229000091552734 -3.1419999599456787,-17.229000091552734 -3.1419999599456787,-17.229000091552734 C-3.1419999599456787,-17.229000091552734 3.1419999599456787,-17.229000091552734 3.1419999599456787,-17.229000091552734 C3.1419999599456787,-17.229000091552734 3.1419999599456787,17.229000091552734 3.1419999599456787,17.229000091552734z"></path></g><g opacity="1" transform="matrix(1,0,0,1,69.13899993896484,240.33599853515625)"><path fill="rgb(0,130,125)" fill-opacity="1" d=" M65.23600006103516,2.927000045776367 C65.23600006103516,2.927000045776367 -65.23600006103516,2.927000045776367 -65.23600006103516,2.927000045776367 C-65.23600006103516,2.927000045776367 -65.23600006103516,-2.927000045776367 -65.23600006103516,-2.927000045776367 C-65.23600006103516,-2.927000045776367 65.23600006103516,-2.927000045776367 65.23600006103516,-2.927000045776367 C65.23600006103516,-2.927000045776367 65.23600006103516,2.927000045776367 65.23600006103516,2.927000045776367z"></path></g><g opacity="1" transform="matrix(1,0,0,1,69.13899993896484,269.6159973144531)"><path fill="rgb(0,130,126)" fill-opacity="1" d=" M65.23600006103516,5.327000141143799 C65.23600006103516,5.327000141143799 -65.23600006103516,5.327000141143799 -65.23600006103516,5.327000141143799 C-65.23600006103516,5.327000141143799 -65.23600006103516,-5.327000141143799 -65.23600006103516,-5.327000141143799 C-65.23600006103516,-5.327000141143799 65.23600006103516,-5.327000141143799 65.23600006103516,-5.327000141143799 C65.23600006103516,-5.327000141143799 65.23600006103516,5.327000141143799 65.23600006103516,5.327000141143799z"></path></g></g><g transform="matrix(1.7837650775909424,-0.2825206220149994,0.2825206220149994,1.7837650775909424,18.17697525024414,80.39498138427734)" opacity="1" style="display: block;"><g opacity="1" transform="matrix(1,0,0,1,2.319000005722046,4.322999954223633)"><path stroke-linecap="round" stroke-linejoin="round" fill-opacity="0" stroke="rgb(118,82,108)" stroke-opacity="1" stroke-width="0.8" d=" M-0.3190000057220459,2.322999954223633 C-0.3190000057220459,2.322999954223633 0.3190000057220459,-2.322999954223633 0.3190000057220459,-2.322999954223633"></path></g></g></g></svg>