<svg xmlns="http://www.w3.org/2000/svg" viewBox="0 0 64 22" width="64" height="22" preserveAspectRatio="xMidYMid meet" style="width: 100%; height: 100%; transform: translate3d(0px, 0px, 0px); content-visibility: visible;"><defs><clipPath id="__lottie_element_3877"><rect width="64" height="22" x="0" y="0"></rect></clipPath></defs><g clip-path="url(#__lottie_element_3877)"><g transform="matrix(1.8059998750686646,0,0,1.8059998750686646,9.696022987365723,0.823714554309845)" opacity="1" style="display: block;"><g opacity="1" transform="matrix(1,0,0,1,6.5329999923706055,4.578999996185303)"><path fill="rgb(113,66,56)" fill-opacity="1" d=" M2.0880000591278076,1.659999966621399 C2.0880000591278076,1.659999966621399 -0.01600000075995922,1.659999966621399 -0.01600000075995922,1.659999966621399 C-0.01600000075995922,1.659999966621399 -0.01600000075995922,-2.9130001068115234 -0.01600000075995922,-2.9130001068115234 C-0.01600000075995922,-2.9130001068115234 0.6980000138282776,-4.328999996185303 0.6980000138282776,-4.328999996185303 C0.6980000138282776,-4.328999996185303 -3.1470000743865967,-4.328999996185303 -3.1470000743865967,-4.328999996185303 C-3.1470000743865967,-4.328999996185303 -2.431999921798706,-2.9130001068115234 -2.431999921798706,-2.9130001068115234 C-2.431999921798706,-2.9130001068115234 -2.431999921798706,1.8029999732971191 -2.431999921798706,1.8029999732971191 C-2.759999990463257,1.9830000400543213 -2.990999937057495,2.321000099182129 -2.990999937057495,2.7209999561309814 C-2.990999937057495,2.7209999561309814 -2.990999937057495,3.2709999084472656 -2.990999937057495,3.2709999084472656 C-2.990999937057495,3.6710000038146973 -2.759999990463257,4.00600004196167 -2.431999921798706,4.185999870300293 C-2.431999921798706,4.185999870300293 -2.431999921798706,4.328999996185303 -2.431999921798706,4.328999996185303 C-2.431999921798706,4.328999996185303 -1.9320000410079956,4.328999996185303 -1.9320000410079956,4.328999996185303 C-1.9320000410079956,4.328999996185303 -0.01600000075995922,4.328999996185303 -0.01600000075995922,4.328999996185303 C-0.01600000075995922,4.328999996185303 2.0880000591278076,4.328999996185303 2.0880000591278076,4.328999996185303 C2.671999931335449,4.328999996185303 3.1470000743865967,3.8550000190734863 3.1470000743865967,3.2709999084472656 C3.1470000743865967,3.2709999084472656 3.1470000743865967,2.7209999561309814 3.1470000743865967,2.7209999561309814 C3.1470000743865967,2.13700008392334 2.671999931335449,1.659999966621399 2.0880000591278076,1.659999966621399z"></path></g><g opacity="1" transform="matrix(1,0,0,1,14.093999862670898,9.154000282287598)"><path fill="rgb(245,138,70)" fill-opacity="1" d=" M10.904000282287598,1.281000018119812 C10.904000282287598,1.281000018119812 -13.003000259399414,1.281000018119812 -13.003000259399414,1.281000018119812 C-13.003000259399414,1.281000018119812 -13.843000411987305,-1.281000018119812 -13.843000411987305,-1.281000018119812 C-13.843000411987305,-1.281000018119812 13.843000411987305,-1.281000018119812 13.843000411987305,-1.281000018119812 C13.843000411987305,-1.281000018119812 10.904000282287598,1.281000018119812 10.904000282287598,1.281000018119812z"></path></g><g opacity="1" transform="matrix(1,0,0,1,12.13599967956543,5.160999774932861)"><path fill="rgb(179,82,48)" fill-opacity="1" d=" M-0.7099999785423279,2.5480000972747803 C-0.7099999785423279,2.5480000972747803 0.7099999785423279,2.5480000972747803 0.7099999785423279,2.5480000972747803 C0.7099999785423279,2.5480000972747803 0.7099999785423279,-2.5480000972747803 0.7099999785423279,-2.5480000972747803 C0.7099999785423279,-2.5480000972747803 -0.7099999785423279,-2.5480000972747803 -0.7099999785423279,-2.5480000972747803 C-0.7099999785423279,-2.5480000972747803 -0.7099999785423279,2.5480000972747803 -0.7099999785423279,2.5480000972747803z"></path></g><g opacity="1" transform="matrix(1,0,0,1,2.0799999237060547,5.160999774932861)"><path fill="rgb(179,82,48)" fill-opacity="1" d=" M-0.7099999785423279,2.5480000972747803 C-0.7099999785423279,2.5480000972747803 0.7099999785423279,2.5480000972747803 0.7099999785423279,2.5480000972747803 C0.7099999785423279,2.5480000972747803 0.7099999785423279,-2.5480000972747803 0.7099999785423279,-2.5480000972747803 C0.7099999785423279,-2.5480000972747803 -0.7099999785423279,-2.5480000972747803 -0.7099999785423279,-2.5480000972747803 C-0.7099999785423279,-2.5480000972747803 -0.7099999785423279,2.5480000972747803 -0.7099999785423279,2.5480000972747803z"></path></g><g opacity="1" transform="matrix(1,0,0,1,22.191999435424805,5.160999774932861)"><path fill="rgb(179,82,48)" fill-opacity="1" d=" M-0.7099999785423279,2.5480000972747803 C-0.7099999785423279,2.5480000972747803 0.7099999785423279,2.5480000972747803 0.7099999785423279,2.5480000972747803 C0.7099999785423279,2.5480000972747803 0.7099999785423279,-2.5480000972747803 0.7099999785423279,-2.5480000972747803 C0.7099999785423279,-2.5480000972747803 -0.7099999785423279,-2.5480000972747803 -0.7099999785423279,-2.5480000972747803 C-0.7099999785423279,-2.5480000972747803 -0.7099999785423279,2.5480000972747803 -0.7099999785423279,2.5480000972747803z"></path></g><g opacity="1" transform="matrix(1,0,0,1,11.57699966430664,3.0350000858306885)"><path fill="rgb(255,238,207)" fill-opacity="1" d=" M11.326000213623047,0.8479999899864197 C11.326000213623047,0.8479999899864197 -11.326000213623047,0.8479999899864197 -11.326000213623047,0.8479999899864197 C-11.326000213623047,0.8479999899864197 -11.326000213623047,-0.8479999899864197 -11.326000213623047,-0.8479999899864197 C-11.326000213623047,-0.8479999899864197 11.326000213623047,-0.8479999899864197 11.326000213623047,-0.8479999899864197 C11.326000213623047,-0.8479999899864197 11.326000213623047,0.8479999899864197 11.326000213623047,0.8479999899864197z"></path></g><g opacity="1" transform="matrix(1,0,0,1,1.6660000085830688,3.882999897003174)"><path fill="rgb(255,238,207)" fill-opacity="1" d=" M1.4160000085830688,0 C1.4160000085830688,-0.7820000052452087 0.7820000052452087,-1.4149999618530273 0.0010000000474974513,-1.4149999618530273 C-0.781000018119812,-1.4149999618530273 -1.4160000085830688,-0.7820000052452087 -1.4160000085830688,0 C-1.4160000085830688,0.7820000052452087 -0.781000018119812,1.4149999618530273 0.0010000000474974513,1.4149999618530273 C0.7820000052452087,1.4149999618530273 1.4160000085830688,0.7820000052452087 1.4160000085830688,0z"></path></g><g opacity="1" transform="matrix(1,0,0,1,4.497000217437744,3.882999897003174)"><path fill="rgb(255,238,207)" fill-opacity="1" d=" M1.4160000085830688,0 C1.4160000085830688,-0.7820000052452087 0.7820000052452087,-1.4149999618530273 0.0010000000474974513,-1.4149999618530273 C-0.781000018119812,-1.4149999618530273 -1.4160000085830688,-0.7820000052452087 -1.4160000085830688,0 C-1.4160000085830688,0.7820000052452087 -0.781000018119812,1.4149999618530273 0.0010000000474974513,1.4149999618530273 C0.7820000052452087,1.4149999618530273 1.4160000085830688,0.7820000052452087 1.4160000085830688,0z"></path></g><g opacity="1" transform="matrix(1,0,0,1,7.328000068664551,3.882999897003174)"><path fill="rgb(255,238,207)" fill-opacity="1" d=" M1.4160000085830688,0 C1.4160000085830688,-0.7820000052452087 0.7820000052452087,-1.4149999618530273 0.0010000000474974513,-1.4149999618530273 C-0.781000018119812,-1.4149999618530273 -1.4160000085830688,-0.7820000052452087 -1.4160000085830688,0 C-1.4160000085830688,0.7820000052452087 -0.781000018119812,1.4149999618530273 0.0010000000474974513,1.4149999618530273 C0.7820000052452087,1.4149999618530273 1.4160000085830688,0.7820000052452087 1.4160000085830688,0z"></path></g><g opacity="1" transform="matrix(1,0,0,1,10.159000396728516,3.882999897003174)"><path fill="rgb(255,238,207)" fill-opacity="1" d=" M1.4160000085830688,0 C1.4160000085830688,-0.7820000052452087 0.7820000052452087,-1.4149999618530273 0.0010000000474974513,-1.4149999618530273 C-0.781000018119812,-1.4149999618530273 -1.4160000085830688,-0.7820000052452087 -1.4160000085830688,0 C-1.4160000085830688,0.7820000052452087 -0.781000018119812,1.4149999618530273 0.0010000000474974513,1.4149999618530273 C0.7820000052452087,1.4149999618530273 1.4160000085830688,0.7820000052452087 1.4160000085830688,0z"></path></g><g opacity="1" transform="matrix(1,0,0,1,12.98900032043457,3.882999897003174)"><path fill="rgb(255,238,207)" fill-opacity="1" d=" M1.4160000085830688,0 C1.4160000085830688,-0.7820000052452087 0.7820000052452087,-1.4149999618530273 0.0010000000474974513,-1.4149999618530273 C-0.781000018119812,-1.4149999618530273 -1.4160000085830688,-0.7820000052452087 -1.4160000085830688,0 C-1.4160000085830688,0.7820000052452087 -0.781000018119812,1.4149999618530273 0.0010000000474974513,1.4149999618530273 C0.7820000052452087,1.4149999618530273 1.4160000085830688,0.7820000052452087 1.4160000085830688,0z"></path></g><g opacity="1" transform="matrix(1,0,0,1,15.819999694824219,3.882999897003174)"><path fill="rgb(255,238,207)" fill-opacity="1" d=" M1.4160000085830688,0 C1.4160000085830688,-0.7820000052452087 0.7820000052452087,-1.4149999618530273 0.0010000000474974513,-1.4149999618530273 C-0.781000018119812,-1.4149999618530273 -1.4160000085830688,-0.7820000052452087 -1.4160000085830688,0 C-1.4160000085830688,0.7820000052452087 -0.781000018119812,1.4149999618530273 0.0010000000474974513,1.4149999618530273 C0.7820000052452087,1.4149999618530273 1.4160000085830688,0.7820000052452087 1.4160000085830688,0z"></path></g><g opacity="1" transform="matrix(1,0,0,1,18.650999069213867,3.882999897003174)"><path fill="rgb(255,238,207)" fill-opacity="1" d=" M1.4160000085830688,0 C1.4160000085830688,-0.7820000052452087 0.7820000052452087,-1.4149999618530273 0.0010000000474974513,-1.4149999618530273 C-0.781000018119812,-1.4149999618530273 -1.4160000085830688,-0.7820000052452087 -1.4160000085830688,0 C-1.4160000085830688,0.7820000052452087 -0.781000018119812,1.4149999618530273 0.0010000000474974513,1.4149999618530273 C0.7820000052452087,1.4149999618530273 1.4160000085830688,0.7820000052452087 1.4160000085830688,0z"></path></g><g opacity="1" transform="matrix(1,0,0,1,21.48200035095215,3.882999897003174)"><path fill="rgb(255,238,207)" fill-opacity="1" d=" M1.4160000085830688,0 C1.4160000085830688,-0.7820000052452087 0.7820000052452087,-1.4149999618530273 0.0010000000474974513,-1.4149999618530273 C-0.781000018119812,-1.4149999618530273 -1.4160000085830688,-0.7820000052452087 -1.4160000085830688,0 C-1.4160000085830688,0.7820000052452087 -0.781000018119812,1.4149999618530273 0.0010000000474974513,1.4149999618530273 C0.7820000052452087,1.4149999618530273 1.4160000085830688,0.7820000052452087 1.4160000085830688,0z"></path></g><g opacity="1" transform="matrix(1,0,0,1,14.093999862670898,7.488999843597412)"><path fill="rgb(245,138,70)" fill-opacity="1" d=" M13.843999862670898,-0.382999986410141 C13.843999862670898,-0.382999986410141 -13.843999862670898,-0.382999986410141 -13.843999862670898,-0.382999986410141 C-13.843999862670898,-0.382999986410141 -13.843999862670898,0.382999986410141 -13.843999862670898,0.382999986410141 C-13.843999862670898,0.382999986410141 13.843999862670898,0.382999986410141 13.843999862670898,0.382999986410141 C13.843999862670898,0.382999986410141 13.843999862670898,-0.382999986410141 13.843999862670898,-0.382999986410141z"></path></g></g><g transform="matrix(1.5299348831176758,0,0,1.8059998750686646,1.332605004310608,13.554206848144531)" opacity="1" style="display: block;"><g opacity="1" transform="matrix(1,0,0,1,7.0920000076293945,3.1659998893737793)"><path stroke-linecap="round" stroke-linejoin="round" fill-opacity="0" stroke="rgb(184,228,250)" stroke-opacity="1" stroke-width="1" d=" M-4.5920000076293945,-0.6660000085830688 C-4.5920000076293945,-0.6660000085830688 -3.563999891281128,0.6660000085830688 -2.2960000038146973,0.6660000085830688 C-1.027999997138977,0.6660000085830688 0,-0.6660000085830688 0,-0.6660000085830688 C0,-0.6660000085830688 1.027999997138977,0.6660000085830688 2.2960000038146973,0.6660000085830688 C3.563999891281128,0.6660000085830688 4.5920000076293945,-0.6660000085830688 4.5920000076293945,-0.6660000085830688"></path></g><g opacity="1" transform="matrix(1,0,0,1,16.091999053955078,3.1659998893737793)"><path stroke-linecap="round" stroke-linejoin="round" fill-opacity="0" stroke="rgb(184,228,250)" stroke-opacity="1" stroke-width="1" d=" M-4.5920000076293945,-0.6660000085830688 C-4.5920000076293945,-0.6660000085830688 -3.563999891281128,0.6660000085830688 -2.2960000038146973,0.6660000085830688 C-1.027999997138977,0.6660000085830688 0,-0.6660000085830688 0,-0.6660000085830688 C0,-0.6660000085830688 1.027999997138977,0.6660000085830688 2.2960000038146973,0.6660000085830688 C3.563999891281128,0.6660000085830688 4.5920000076293945,-0.6660000085830688 4.5920000076293945,-0.6660000085830688"></path></g><g opacity="1" transform="matrix(1,0,0,1,25.091999053955078,3.1659998893737793)"><path stroke-linecap="round" stroke-linejoin="round" fill-opacity="0" stroke="rgb(184,228,250)" stroke-opacity="1" stroke-width="1" d=" M-4.5920000076293945,-0.6660000085830688 C-4.5920000076293945,-0.6660000085830688 -3.563999891281128,0.6660000085830688 -2.2960000038146973,0.6660000085830688 C-1.027999997138977,0.6660000085830688 0,-0.6660000085830688 0,-0.6660000085830688 C0,-0.6660000085830688 1.027999997138977,0.6660000085830688 2.2960000038146973,0.6660000085830688 C3.563999891281128,0.6660000085830688 4.5920000076293945,-0.6660000085830688 4.5920000076293945,-0.6660000085830688"></path></g><g opacity="1" transform="matrix(1,0,0,1,34.09199905395508,3.1659998893737793)"><path stroke-linecap="round" stroke-linejoin="round" fill-opacity="0" stroke="rgb(184,228,250)" stroke-opacity="1" stroke-width="1" d=" M-4.5920000076293945,-0.6660000085830688 C-4.5920000076293945,-0.6660000085830688 -3.563999891281128,0.6660000085830688 -2.2960000038146973,0.6660000085830688 C-1.027999997138977,0.6660000085830688 0,-0.6660000085830688 0,-0.6660000085830688 C0,-0.6660000085830688 1.027999997138977,0.6660000085830688 2.2960000038146973,0.6660000085830688 C3.563999891281128,0.6660000085830688 4.5920000076293945,-0.6660000085830688 4.5920000076293945,-0.6660000085830688"></path></g></g></g></svg>