<svg xmlns="http://www.w3.org/2000/svg" viewBox="0 0 116 127" width="116" height="127" preserveAspectRatio="xMidYMid meet" style="width: 100%; height: 100%; transform: translate3d(0px, 0px, 0px); content-visibility: visible;"><defs><clipPath id="__lottie_element_2007"><rect width="116" height="127" x="0" y="0"></rect></clipPath></defs><g clip-path="url(#__lottie_element_2007)"><g transform="matrix(0.33329999446868896,0,0,0.33329999446868896,17.819019317626953,43.98861312866211)" opacity="1" style="display: block;"><g opacity="1" transform="matrix(1,0,0,1,168.43600463867188,68.69000244140625)"><path fill="rgb(197,96,164)" fill-opacity="1" d=" M-15.82699966430664,33.03099822998047 C3.815000057220459,22.631000518798828 10.864999771118164,8.869000434875488 13.317999839782715,5.810999870300293 C16.089000701904297,2.3570001125335693 18.993000030517578,-0.1469999998807907 20.898000717163086,-3.4600000381469727 C24.167999267578125,-9.151000022888184 26.700000762939453,-19.187000274658203 19.475000381469727,-22.966999053955078 C19.17300033569336,-23.124000549316406 18.83799934387207,-23.291000366210938 18.70800018310547,-23.606000900268555 C18.527000427246094,-24.048999786376953 18.839000701904297,-24.523000717163086 19.10300064086914,-24.92099952697754 C20.288000106811523,-26.71299934387207 20.732999801635742,-28.979000091552734 20.31399917602539,-31.086000442504883 C20.200000762939453,-31.656999588012695 19.986000061035156,-32.268001556396484 19.483999252319336,-32.5629997253418 C18.684999465942383,-33.03099822998047 17.694000244140625,-32.45100021362305 16.982999801635742,-31.858999252319336 C11.980999946594238,-27.69499969482422 8.954999923706055,-21.38800048828125 5.568999767303467,-15.928999900817871 C5.568999767303467,-15.928999900817871 1.875,-20.749000549316406 -0.6539999842643738,-18.243999481201172 C-1.7289999723434448,-17.179000854492188 2.000999927520752,-10.515999794006348 1.774999976158142,-7.13100004196167 C1.6380000114440918,-5.076000213623047 0.27900001406669617,-3.322999954223633 -1.128000020980835,-1.8209999799728394 C-7.801000118255615,5.302000045776367 -17.013999938964844,9.994000434875488 -26.700000762939453,11.201000213623047"></path></g><g opacity="1" transform="matrix(1,0,0,1,136.9770050048828,95.64099884033203)"><path fill="rgb(255,200,77)" fill-opacity="1" d=" M-19.264999389648438,9.081000328063965 C-14.727999687194824,19.527999877929688 6.440999984741211,17.385000228881836 19.264999389648438,11.322999954223633 C14.01099967956543,1.6490000486373901 10.137999534606934,-8.77299976348877 7.798999786376953,-19.52899932861328 C1.4190000295639038,-16.801000595092773 -4.961999893188477,-14.071999549865723 -11.343000411987305,-11.343999862670898"></path></g><g opacity="1" transform="matrix(1,0,0,1,150.71499633789062,91.45899963378906)"><path fill="rgb(239,82,34)" fill-opacity="1" d=" M9.15999984741211,14.137999534606934 C9.15999984741211,14.137999534606934 2.305000066757202,16.878999710083008 2.305000066757202,16.878999710083008 C-3.119999885559082,6.890999794006348 -6.744999885559082,-2.86299991607666 -9.15999984741211,-13.968999862670898 C-9.15999984741211,-13.968999862670898 -2.369999885559082,-16.878999710083008 -2.369999885559082,-16.878999710083008 C-0.09799999743700027,-6.427000045776367 4.054999828338623,4.738999843597412 9.15999984741211,14.137999534606934z"></path></g></g><g transform="matrix(0.33329999446868896,0,0,0.33329999446868896,17.819019317626953,43.98861312866211)" opacity="1" style="display: block;"><g opacity="1" transform="matrix(1,0,0,1,44.99700164794922,139.70199584960938)"><path fill="rgb(197,96,164)" fill-opacity="1" d=" M30.94499969482422,18.038000106811523 C21.618999481201172,17.114999771118164 11.895000457763672,12.215999603271484 8.651000022888184,3.4240000247955322 C5.675000190734863,-4.640999794006348 8.791999816894531,-13.532999992370605 9.006999969482422,-22.125999450683594 C9.392999649047852,-37.61000061035156 0.414000004529953,-53.42599868774414 -15.230999946594238,-58.279998779296875 C-16.413999557495117,-58.64699935913086 -17.68899917602539,-58.08700180053711 -18.261999130249023,-56.98899841308594 C-18.87700080871582,-55.8120002746582 -18.509000778198242,-54.354000091552734 -17.398000717163086,-53.625 C-12.991999626159668,-50.72999954223633 -2.947000026702881,-42.11899948120117 -3.819000005722046,-24.152000427246094 C-4.7769999504089355,-4.435999870300293 -30.94499969482422,46.25199890136719 23.499000549316406,58.645999908447266 C23.499000549316406,58.645999908447266 30.94499969482422,18.038000106811523 30.94499969482422,18.038000106811523z"></path></g></g><g transform="matrix(0.33329999446868896,0,0,0.33329999446868896,17.819019317626953,43.98861312866211)" opacity="1" style="display: block;"><g opacity="1" transform="matrix(1,0,0,1,27.180999755859375,70.5459976196289)"><path fill="rgb(244,121,68)" fill-opacity="1" d=" M4.552999973297119,15.074000358581543 C4.552999973297119,15.074000358581543 8.32800006866455,7.455999851226807 5.567999839782715,-1.680999994277954 C2.809000015258789,-10.819000244140625 -4.552999973297119,-15.074000358581543 -4.552999973297119,-15.074000358581543 C-4.552999973297119,-15.074000358581543 -8.32800006866455,-7.455999851226807 -5.567999839782715,1.680999994277954 C-2.809000015258789,10.819000244140625 4.552999973297119,15.074000358581543 4.552999973297119,15.074000358581543z"></path></g><g opacity="1" transform="matrix(1,0,0,1,15.992000579833984,85.97599792480469)"><path fill="rgb(239,108,94)" fill-opacity="1" d=" M15.741999626159668,-0.35600000619888306 C15.741999626159668,-0.35600000619888306 9.41100025177002,-6.031000137329102 -0.13199999928474426,-5.815000057220459 C-9.675000190734863,-5.599999904632568 -15.741999626159668,0.35600000619888306 -15.741999626159668,0.35600000619888306 C-15.741999626159668,0.35600000619888306 -9.41100025177002,6.031000137329102 0.13099999725818634,5.815000057220459 C9.673999786376953,5.599999904632568 15.741999626159668,-0.35600000619888306 15.741999626159668,-0.35600000619888306z"></path></g></g><g transform="matrix(0.33329999446868896,0,0,0.33329999446868896,17.819019317626953,43.98861312866211)" opacity="1" style="display: block;"><g opacity="1" transform="matrix(1,0,0,1,142.92799377441406,214.20799255371094)"><path fill="rgb(160,80,159)" fill-opacity="1" d=" M-19.551000595092773,-5.374000072479248 C-24.952999114990234,-4.132999897003174 -28.26099967956543,3.4730000495910645 -23.26099967956543,7.53000020980835 C-21.350000381469727,9.081000328063965 -19.707000732421875,9.156000137329102 -14.5,9.156000137329102 C-14.5,9.156000137329102 26.954999923706055,9.156000137329102 26.954999923706055,9.156000137329102 C28.26099967956543,6.007999897003174 27.964000701904297,1.652999997138977 25.99799919128418,-1.1299999952316284 C20.33099937438965,-9.156999588012695 7.458000183105469,-6.553999900817871 0.296999990940094,-1.8539999723434448 C0.296999990940094,-1.8539999723434448 -19.551000595092773,-5.374000072479248 -19.551000595092773,-5.374000072479248z"></path></g><g opacity="1" transform="matrix(1,0,0,1,170.7429962158203,219.5019989013672)"><path fill="rgb(244,121,68)" fill-opacity="1" d=" M-1.2660000324249268,-3.861999988555908 C-1.2660000324249268,-3.861999988555908 -1.2660000324249268,-3.861999988555908 -1.2660000324249268,-3.861999988555908 C-3.253000020980835,-3.861999988555908 -4.863999843597412,-2.25 -4.863999843597412,-0.2630000114440918 C-4.863999843597412,-0.2630000114440918 -4.863999843597412,3.861999988555908 -4.863999843597412,3.861999988555908 C-4.863999843597412,3.861999988555908 4.863999843597412,3.861999988555908 4.863999843597412,3.861999988555908 C4.863999843597412,3.861999988555908 4.863999843597412,2.2690000534057617 4.863999843597412,2.2690000534057617 C4.863999843597412,-1.1160000562667847 2.119999885559082,-3.861999988555908 -1.2660000324249268,-3.861999988555908z"></path></g></g><g transform="matrix(0.33329999446868896,0,0,0.33329999446868896,17.819019317626953,43.98861312866211)" opacity="1" style="display: block;"><g opacity="1" transform="matrix(1,0,0,1,138.3769989013672,186.38699340820312)"><path fill="rgb(160,80,159)" fill-opacity="1" d=" M9.079000473022461,-29.253999710083008 C6.198999881744385,-18.381999969482422 10.35200023651123,-13.315999984741211 16.677000045776367,-4.732999801635742 C20.16200065612793,-0.003000000026077032 21.476999282836914,5.750999927520752 20.840999603271484,11.461000442504883 C19.652999877929688,22.128000259399414 6.489999771118164,29.253999710083008 6.489999771118164,29.253999710083008 C6.489999771118164,29.253999710083008 -9.102999687194824,29.253999710083008 -9.102999687194824,29.253999710083008 C-9.102999687194824,29.253999710083008 -11.54800033569336,27.499000549316406 -12.699000358581543,26.10099983215332 C-14.36299991607666,24.079999923706055 -15.520000457763672,21.461999893188477 -15.520000457763672,21.461999893188477 C-15.520000457763672,21.461999893188477 -21.92300033569336,-29.253999710083008 -21.92300033569336,-29.253999710083008 C-21.92300033569336,-29.253999710083008 9.079000473022461,-29.253999710083008 9.079000473022461,-29.253999710083008z"></path></g></g><g transform="matrix(0.33329999446868896,0,0,0.33329999446868896,17.819019317626953,43.98861312866211)" opacity="1" style="display: block;"><g opacity="1" transform="matrix(1,0,0,1,75.19200134277344,84.44999694824219)"><path fill="rgb(244,121,68)" fill-opacity="1" d=" M24.322999954223633,-3.2160000801086426 C22.07699966430664,-1.9800000190734863 19.77899932861328,-0.7250000238418579 17.253999710083008,-0.27799999713897705 C9.404999732971191,1.1130000352859497 9.258999824523926,-5.144999980926514 7.7210001945495605,-10.838000297546387 C6.8979997634887695,-13.885000228881836 5.263999938964844,-17.009000778198242 2.3570001125335693,-18.239999771118164 C-0.421999990940094,-19.416000366210938 -3.6389999389648438,-18.55900001525879 -6.380000114440918,-17.295000076293945 C-15.890999794006348,-12.906000137329102 -22.88800048828125,-3.4679999351501465 -24.322999954223633,6.9079999923706055 C-18.888999938964844,2.4000000953674316 -11.506999969482422,0.3089999854564667 -6.434999942779541,5.257999897003174 C-5.039000034332275,6.619999885559082 -4.308000087738037,11.199000358581543 -4.229000091552734,13.14799976348877 C0.9049999713897705,9.473999977111816 10.11400032043457,7.23199987411499 15.20199966430664,10.232000350952148 C18.18400001525879,11.989999771118164 21.354999542236328,15.947999954223633 22.3799991607666,19.416000366210938 C22.3799991607666,19.416000366210938 24.322999954223633,-3.2160000801086426 24.322999954223633,-3.2160000801086426z"></path></g></g><g transform="matrix(0.33329999446868896,0,0,0.33329999446868896,17.819019317626953,43.98861312866211)" opacity="1" style="display: block;"><g opacity="1" transform="matrix(1,0,0,1,112.87699890136719,123.86499786376953)"><path fill="rgb(197,96,164)" fill-opacity="1" d=" M2.8410000801086426,85.35299682617188 C19.208999633789062,85.51499938964844 34.702999114990234,77.41200256347656 43.43899917602539,63.56800079345703 C59.645999908447266,37.882999420166016 48.112998962402344,2.8559999465942383 30.17300033569336,-24.090999603271484 C21.333999633789062,-37.367000579833984 -2.5829999446868896,-64.50599670410156 2.4679999351501465,-82.30899810791016 C2.4679999351501465,-82.30899810791016 -22.788999557495117,-85.51499938964844 -22.788999557495117,-85.51499938964844 C-27.20400047302246,-64.50599670410156 -18.38599967956543,-58.63600158691406 -18.38599967956543,-40.9630012512207 C-18.38599967956543,2.368000030517578 -51.52299880981445,-1.8600000143051147 -57.23400115966797,42.8380012512207 C-59.645999908447266,61.715999603271484 -52.25299835205078,70.31500244140625 -39.84199905395508,79.9520034790039 C-24.490999221801758,91.87200164794922 2.8410000801086426,85.35299682617188 2.8410000801086426,85.35299682617188z"></path></g><g opacity="1" transform="matrix(1,0,0,1,135.65699768066406,124.77200317382812)"><path fill="rgb(246,150,128)" fill-opacity="1" d=" M-20.309999465942383,-83.21600341796875 C-20.309999465942383,-83.21600341796875 -31.04800033569336,-84.5790023803711 -31.04800033569336,-84.5790023803711 C-33.0359992980957,-68.82599639892578 -30.927000045776367,-51.59000015258789 -23.117000579833984,-38.257999420166016 C-11.168000221252441,-17.86199951171875 -9.932000160217285,6.39300012588501 -22.867000579833984,26.23900032043457 C-30.54800033569336,38.02199935913086 -38.90399932861328,46.415000915527344 -39.1879997253418,61.071998596191406 C-39.349998474121094,69.41100311279297 -36.79800033569336,78.01300048828125 -31.4689998626709,84.33499908447266 C-31.4689998626709,84.33499908447266 -18.917999267578125,84.45800018310547 -18.917999267578125,84.45800018310547 C-6.494999885559082,84.5790023803711 5.559999942779541,79.78199768066406 14.199000358581543,70.85399627685547 C39.349998474121094,44.86000061035156 27.326000213623047,4.942999839782715 7.392000198364258,-24.99799919128418 C-1.4470000267028809,-38.275001525878906 -25.36199951171875,-65.41400146484375 -20.309999465942383,-83.21600341796875z"></path></g><g opacity="1" transform="matrix(1,0,0,1,114.94400024414062,119.38400268554688)"><path fill="rgb(160,80,159)" fill-opacity="1" d=" M48.46799850463867,30.198999404907227 C46.18600082397461,13.10200023651123 38.152000427246094,-4.519000053405762 28.106000900268555,-19.608999252319336 C28.106000900268555,-19.608999252319336 -20.45199966430664,-36.48099899291992 -20.45199966430664,-36.48099899291992 C-20.45199966430664,-6.081999778747559 -36.76100158691406,0.9110000133514404 -48.46799850463867,17.81100082397461 C-18.249000549316406,32.207000732421875 15.984999656677246,36.48099899291992 48.46799850463867,30.198999404907227z"></path></g><g opacity="1" transform="matrix(1,0,0,1,116.68000030517578,108.50599670410156)"><path fill="rgb(255,200,77)" fill-opacity="1" d=" M-46.792999267578125,23.261999130249023 C-17.889999389648438,36.2239990234375 15.166000366210938,39.75600051879883 46.20100021362305,33.43000030517578 C47.777000427246094,33.108001708984375 48.77399826049805,31.535999298095703 48.37799835205078,29.976999282836914 C45.02899932861328,16.80699920654297 38.66999816894531,2.9079999923706055 29.523000717163086,-10.831999778747559 C27.868999481201172,-13.315999984741211 25.785999298095703,-16.1560001373291 23.374000549316406,-19.44499969482422 C19.40999984741211,-24.85300064086914 14.628999710083008,-31.37700080871582 10.571999549865723,-38.07500076293945 C9.984999656677246,-39.042999267578125 8.880000114440918,-39.56100082397461 7.75600004196167,-39.43000030517578 C-2.9719998836517334,-38.180999755859375 -13.85099983215332,-38.21699905395508 -24.56999969482422,-39.54499816894531 C-26.257999420166016,-39.755001068115234 -27.65399932861328,-38.23699951171875 -27.270999908447266,-36.57899856567383 C-26.513999938964844,-33.314998626708984 -25.976999282836914,-29.840999603271484 -25.976999282836914,-25.604000091552734 C-25.976999282836914,-4.745999813079834 -33.909000396728516,4.007999897003174 -43.095001220703125,14.142000198364258 C-44.599998474121094,15.803999900817871 -46.13999938964844,17.50200080871582 -47.67300033569336,19.29199981689453 C-48.775001525878906,20.577999114990234 -48.3390007019043,22.569000244140625 -46.792999267578125,23.261999130249023z"></path></g><g opacity="1" transform="matrix(1,0,0,1,114.91500091552734,84.06400299072266)"><path fill="rgb(239,82,34)" fill-opacity="1" d=" M16.496000289916992,-7.160999774932861 C2.9100000858306885,-4.998000144958496 -10.687999725341797,-4.923999786376953 -24.56800079345703,-6.939000129699707 C-24.3439998626709,-5.1539998054504395 -24.21299934387207,-3.250999927520752 -24.21299934387207,-1.1610000133514404 C-24.21299934387207,1.3320000171661377 -24.32900047302246,3.6480000019073486 -24.54400062561035,5.817999839782715 C-17.86400032043457,6.710000038146973 -11.239999771118164,7.160999774932861 -4.645999908447266,7.160999774932861 C5.130000114440918,7.160999774932861 14.84000015258789,6.176000118255615 24.56800079345703,4.214000225067139 C22.038999557495117,0.7630000114440918 19.229999542236328,-3.1010000705718994 16.496000289916992,-7.160999774932861z"></path></g><g opacity="1" transform="matrix(1,0,0,1,133.83099365234375,118.04499816894531)"><path fill="rgb(239,82,34)" fill-opacity="1" d=" M-9.515999794006348,-12.748000144958496 C-9.515999794006348,-12.748000144958496 8.798999786376953,-15.345000267028809 8.798999786376953,-15.345000267028809 C8.798999786376953,-15.345000267028809 9.336000442504883,-11.557000160217285 9.336000442504883,-11.557000160217285 C9.336000442504883,-11.557000160217285 -2.8329999446868896,-9.829999923706055 -2.8329999446868896,-9.829999923706055 C-2.8329999446868896,-9.829999923706055 -1.625,-1.3079999685287476 -1.625,-1.3079999685287476 C-1.625,-1.3079999685287476 8.979000091552734,-2.812000036239624 8.979000091552734,-2.812000036239624 C8.979000091552734,-2.812000036239624 9.515999794006348,0.9750000238418579 9.515999794006348,0.9750000238418579 C9.515999794006348,0.9750000238418579 -1.0880000591278076,2.4790000915527344 -1.0880000591278076,2.4790000915527344 C-1.0880000591278076,2.4790000915527344 0.6129999756813049,14.473999977111816 0.6129999756813049,14.473999977111816 C0.6129999756813049,14.473999977111816 -5.5320000648498535,15.345000267028809 -5.5320000648498535,15.345000267028809 C-5.5320000648498535,15.345000267028809 -9.515999794006348,-12.748000144958496 -9.515999794006348,-12.748000144958496z"></path></g></g><g transform="matrix(0.33329999446868896,0,0,0.33329999446868896,2.3205718994140625,43.98861312866211)" opacity="1" style="display: block;"><g opacity="1" transform="matrix(1,0,0,1,142.92799377441406,214.20799255371094)"><path fill="rgb(198,97,165)" fill-opacity="1" d=" M-19.551000595092773,-5.374000072479248 C-24.952999114990234,-4.132999897003174 -28.26099967956543,3.4730000495910645 -23.26099967956543,7.53000020980835 C-21.350000381469727,9.081000328063965 -19.707000732421875,9.156000137329102 -14.5,9.156000137329102 C-14.5,9.156000137329102 26.954999923706055,9.156000137329102 26.954999923706055,9.156000137329102 C28.26099967956543,6.007999897003174 27.964000701904297,1.652999997138977 25.99799919128418,-1.1299999952316284 C20.33099937438965,-9.156999588012695 7.458000183105469,-6.553999900817871 0.296999990940094,-1.8539999723434448 C0.296999990940094,-1.8539999723434448 -19.551000595092773,-5.374000072479248 -19.551000595092773,-5.374000072479248z"></path></g><g opacity="1" transform="matrix(1,0,0,1,170.7429962158203,219.5019989013672)"><path fill="rgb(244,121,68)" fill-opacity="1" d=" M-1.2660000324249268,-3.861999988555908 C-1.2660000324249268,-3.861999988555908 -1.2660000324249268,-3.861999988555908 -1.2660000324249268,-3.861999988555908 C-3.253000020980835,-3.861999988555908 -4.863999843597412,-2.25 -4.863999843597412,-0.2630000114440918 C-4.863999843597412,-0.2630000114440918 -4.863999843597412,3.861999988555908 -4.863999843597412,3.861999988555908 C-4.863999843597412,3.861999988555908 4.863999843597412,3.861999988555908 4.863999843597412,3.861999988555908 C4.863999843597412,3.861999988555908 4.863999843597412,2.2690000534057617 4.863999843597412,2.2690000534057617 C4.863999843597412,-1.1160000562667847 2.119999885559082,-3.861999988555908 -1.2660000324249268,-3.861999988555908z"></path></g></g><g transform="matrix(0.33329999446868896,0,0,0.33329999446868896,2.3205718994140625,43.98861312866211)" opacity="1" style="display: block;"><g opacity="1" transform="matrix(1,0,0,1,138.3769989013672,186.38699340820312)"><path fill="rgb(198,97,165)" fill-opacity="1" d=" M9.079000473022461,-29.253999710083008 C6.198999881744385,-18.381999969482422 10.35200023651123,-13.315999984741211 16.677000045776367,-4.732999801635742 C20.16200065612793,-0.003000000026077032 21.59000015258789,5.764999866485596 20.840999603271484,11.461000442504883 C19.483999252319336,21.777000427246094 6.489999771118164,29.253999710083008 6.489999771118164,29.253999710083008 C6.489999771118164,29.253999710083008 -6.5929999351501465,29.253999710083008 -6.5929999351501465,29.253999710083008 C-6.5929999351501465,29.253999710083008 -10.234999656677246,28.920000076293945 -12.26200008392334,26.884000778198242 C-14.288999557495117,24.847999572753906 -15.395999908447266,22.445999145507812 -15.395999908447266,22.445999145507812 C-15.395999908447266,22.445999145507812 -21.92300033569336,-29.253999710083008 -21.92300033569336,-29.253999710083008 C-21.92300033569336,-29.253999710083008 9.079000473022461,-29.253999710083008 9.079000473022461,-29.253999710083008z"></path></g></g><g transform="matrix(0.33329999446868896,0,0,0.33329999446868896,17.819019317626953,43.98861312866211)" opacity="1" style="display: block;"><g opacity="1" transform="matrix(1,0,0,1,112.6989974975586,145.58900451660156)"><path fill="rgb(197,96,164)" fill-opacity="1" d=" M-25.764999389648438,-20.850000381469727 C-19.135000228881836,0.3630000054836273 -6.894999980926514,9.812999725341797 -4.3379998207092285,12.784000396728516 C-1.4500000476837158,16.139999389648438 0.48100000619888306,19.45400047302246 3.390000104904175,21.933000564575195 C7.189000129699707,25.170000076293945 13.404000282287598,27.54400062561035 15.673999786376953,26.91900062561035 C17.136999130249023,26.514999389648438 23.75200080871582,20.14699935913086 24.759000778198242,19.076000213623047 C25.559999465942383,18.224000930786133 25.764999389648438,17.562000274658203 25.29400062561035,16.511999130249023 C24.950000762939453,15.744999885559082 22.86199951171875,13.164999961853027 18.452999114990234,9.145000457763672 C18.452999114990234,9.145000457763672 23.868000030517578,6.394999980926514 21.868000030517578,3.4519999027252197 C21.01799964904785,2.1989998817443848 13.78499984741211,4.646999835968018 10.498000144958496,3.805000066757202 C8.503999710083008,3.2950000762939453 7.0289998054504395,1.6380000114440918 5.809000015258789,-0.020999999716877937 C0.02800000086426735,-7.885000228881836 -2.8989999294281006,-17.801000595092773 -2.312999963760376,-27.54400062561035"></path></g><g opacity="1" transform="matrix(1,0,0,1,95.5250015258789,108.61699676513672)"><path fill="rgb(255,200,77)" fill-opacity="1" d=" M-5.1529998779296875,-18.735000610351562 C-16.535999298095703,-15.647000312805176 -18.020999908447266,5.01800012588501 -14.409000396728516,18.735000610351562 C-3.937000036239624,15.34000015258789 7.01800012588501,13.4399995803833 18.020999908447266,13.109000205993652 C16.506999969482422,6.336999893188477 15.805999755859375,2.11899995803833 13.477999687194824,-7.206999778747559 C11.149999618530273,-16.533000946044922 3.940000057220459,-21.201000213623047 -5.1529998779296875,-18.735000610351562z"></path></g><g opacity="1" transform="matrix(1,0,0,1,97.37699890136719,124.73899841308594)"><path fill="rgb(239,82,34)" fill-opacity="1" d=" M-15.581000328063965,6.433000087738037 C-15.581000328063965,6.433000087738037 -17.020999908447266,-0.8069999814033508 -17.020999908447266,-0.8069999814033508 C-6.209000110626221,-4.313000202178955 4.043000221252441,-6.091000080108643 15.402999877929688,-6.433000087738037 C15.402999877929688,-6.433000087738037 17.020999908447266,0.7749999761581421 17.020999908447266,0.7749999761581421 C6.329999923706055,1.0959999561309814 -5.406000137329102,3.134999990463257 -15.581000328063965,6.433000087738037z"></path></g></g><g transform="matrix(0.33329999446868896,0,0,0.33329999446868896,17.819019317626953,43.98861312866211)" opacity="1" style="display: block;"><g opacity="1" transform="matrix(1,0,0,1,112.83300018310547,14.473999977111816)"><path fill="rgb(244,121,68)" fill-opacity="1" d=" M6.998000144958496,14.223999977111816 C8.473999977111816,1.156000018119812 4.23199987411499,-10.270000457763672 -7.150000095367432,-14.223999977111816 C-7.150000095367432,-14.223999977111816 -0.597000002861023,-0.8389999866485596 -8.473999977111816,13.656000137329102 C-8.473999977111816,13.656000137329102 6.998000144958496,14.223999977111816 6.998000144958496,14.223999977111816z"></path></g><g opacity="1" transform="matrix(1,0,0,1,91.86100006103516,13.762999534606934)"><path fill="rgb(244,121,68)" fill-opacity="1" d=" M15.576000213623047,0.7730000019073486 C9.442999839782715,-8.965999603271484 -5.072000026702881,-12.652999877929688 -15.576000213623047,-5.4770002365112305 C-15.576000213623047,-5.4770002365112305 0.7009999752044678,-5.1579999923706055 5.644999980926514,12.652999877929688 C5.644999980926514,12.652999877929688 15.576000213623047,0.7730000019073486 15.576000213623047,0.7730000019073486z"></path></g><g opacity="1" transform="matrix(1,0,0,1,113.54499816894531,47.676998138427734)"><path fill="rgb(197,96,164)" fill-opacity="1" d=" M13.611000061035156,-5.533999919891357 C13.611000061035156,-5.533999919891357 -13.609000205993652,-5.533999919891357 -13.609000205993652,-5.533999919891357 C-16.652999877929688,-5.533999919891357 -19.143999099731445,-3.0439999103546143 -19.143999099731445,0 C-19.143999099731445,3.0429999828338623 -16.652999877929688,5.533999919891357 -13.609000205993652,5.533999919891357 C-13.609000205993652,5.533999919891357 13.611000061035156,5.533999919891357 13.611000061035156,5.533999919891357 C16.65399932861328,5.533999919891357 19.143999099731445,3.0429999828338623 19.143999099731445,0 C19.143999099731445,-3.0439999103546143 16.65399932861328,-5.533999919891357 13.611000061035156,-5.533999919891357z"></path></g><g opacity="1" transform="matrix(1,0,0,1,117.98899841308594,31.413999557495117)"><path fill="rgb(197,96,164)" fill-opacity="1" d=" M13.743000030517578,-0.8679999709129333 C9.616000175476074,-1.0759999752044678 4.9720001220703125,1.3250000476837158 0.9269999861717224,-0.07000000029802322 C-4.3520002365112305,-1.8919999599456787 -1.7890000343322754,-4.964000225067139 -2.3489999771118164,-9.1850004196167 C-3.4240000247955322,-17.27899932861328 -12.345999717712402,-21.540000915527344 -18.832000732421875,-16.156999588012695 C-22.29599952697754,-13.281000137329102 -23.874000549316406,-8.319999694824219 -22.70800018310547,-3.9709999561309814 C-22.70800018310547,-3.9709999561309814 -31.937000274658203,-6.947000026702881 -35.084999084472656,2.2839999198913574 C-37.62200164794922,9.725000381469727 -31.20599937438965,15.715999603271484 -24.40999984741211,16.714000701904297 C-15.817000389099121,17.97599983215332 -7.676000118255615,12.92300033569336 0.9369999766349792,14.166000366210938 C7.757999897003174,15.152000427246094 37.62200164794922,21.540000915527344 27.483999252319336,5.681000232696533 C24.945999145507812,1.7100000381469727 18.628999710083008,-2.0810000896453857 13.743000030517578,-0.8679999709129333z"></path></g><g opacity="1" transform="matrix(1,0,0,1,118.60099792480469,24.11199951171875)"><path fill="rgb(197,96,164)" fill-opacity="1" d=" M-11.185999870300293,3.3310000896453857 C-12.352999687194824,-1.0180000066757202 -10.774999618530273,-5.979000091552734 -7.310999870300293,-8.854999542236328 C-0.824999988079071,-14.23799991607666 8.097000122070312,-9.97700023651123 9.170999526977539,-1.8830000162124634 C9.730999946594238,2.3380000591278076 7.169000148773193,5.409999847412109 12.446999549865723,7.23199987411499 C12.446999549865723,7.23199987411499 16.364999771118164,14.23799991607666 16.364999771118164,14.23799991607666 C16.364999771118164,14.23799991607666 -4.880000114440918,14.23799991607666 -4.880000114440918,14.23799991607666 C-4.880000114440918,14.23799991607666 -16.364999771118164,11.755000114440918 -16.364999771118164,11.755000114440918 C-16.364999771118164,11.755000114440918 -11.185999870300293,3.3310000896453857 -11.185999870300293,3.3310000896453857z"></path></g><g opacity="1" transform="matrix(0.2538299858570099,0,0,0.2538299858570099,109.697998046875,27.402000427246094)"><path fill="rgb(255,201,77)" fill-opacity="1" d=" M22.5,0 C22.5,0 22.5,0 22.5,0 C22.5,12.417750358581543 12.417750358581543,22.5 0,22.5 C0,22.5 0,22.5 0,22.5 C-12.417750358581543,22.5 -22.5,12.417750358581543 -22.5,0 C-22.5,0 -22.5,0 -22.5,0 C-22.5,-12.417750358581543 -12.417750358581543,-22.5 0,-22.5 C0,-22.5 0,-22.5 0,-22.5 C12.417750358581543,-22.5 22.5,-12.417750358581543 22.5,0z"></path></g><g opacity="1" transform="matrix(0.2538299858570099,0,0,0.2538299858570099,124.197998046875,27.152000427246094)"><path fill="rgb(255,201,77)" fill-opacity="1" d=" M22.5,0 C22.5,0 22.5,0 22.5,0 C22.5,12.417750358581543 12.417750358581543,22.5 0,22.5 C0,22.5 0,22.5 0,22.5 C-12.417750358581543,22.5 -22.5,12.417750358581543 -22.5,0 C-22.5,0 -22.5,0 -22.5,0 C-22.5,-12.417750358581543 -12.417750358581543,-22.5 0,-22.5 C0,-22.5 0,-22.5 0,-22.5 C12.417750358581543,-22.5 22.5,-12.417750358581543 22.5,0z"></path></g></g><g transform="matrix(0.006807172670960426,0,0,0.006807172670960426,15.840205192565918,29.015270233154297)" opacity="0.02970700077245953" style="display: none;"><g opacity="1" transform="matrix(1,0,0,1,0,0)"><path fill="rgb(255,255,255)" fill-opacity="1" d=" M0,-50 C27.61400032043457,-50 50,-27.61400032043457 50,0 C50,27.61400032043457 27.61400032043457,50 0,50 C-27.61400032043457,50 -50,27.61400032043457 -50,0 C-50,-27.61400032043457 -27.61400032043457,-50 0,-50z"></path></g></g><g transform="matrix(0.049389880150556564,0,0,0.049389880150556564,54.450355529785156,57.20063018798828)" opacity="0.08781301959167231" style="display: none;"><g opacity="1" transform="matrix(1,0,0,1,0,0)"><path fill="rgb(255,255,255)" fill-opacity="1" d=" M0,-50 C27.61400032043457,-50 50,-27.61400032043457 50,0 C50,27.61400032043457 27.61400032043457,50 0,50 C-27.61400032043457,50 -50,27.61400032043457 -50,0 C-50,-27.61400032043457 -27.61400032043457,-50 0,-50z"></path></g></g><g transform="matrix(0.015464132651686668,0,0,0.015464132651686668,47.024688720703125,4.167408466339111)" opacity="0.057104044276113" style="display: none;"><g opacity="1" transform="matrix(1,0,0,1,0,0)"><path fill="rgb(255,255,255)" fill-opacity="1" d=" M0,-50 C27.61400032043457,-50 50,-27.61400032043457 50,0 C50,27.61400032043457 27.61400032043457,50 0,50 C-27.61400032043457,50 -50,27.61400032043457 -50,0 C-50,-27.61400032043457 -27.61400032043457,-50 0,-50z"></path></g></g><g transform="matrix(0.018980002030730247,0,0,0.018980002030730247,73.37024688720703,23.933944702148438)" opacity="0.15185521346218842" style="display: none;"><g opacity="1" transform="matrix(1,0,0,1,0,0)"><path fill="rgb(255,255,255)" fill-opacity="1" d=" M0,-50 C27.61400032043457,-50 50,-27.61400032043457 50,0 C50,27.61400032043457 27.61400032043457,50 0,50 C-27.61400032043457,50 -50,27.61400032043457 -50,0 C-50,-27.61400032043457 -27.61400032043457,-50 0,-50z"></path></g></g><g transform="matrix(0.015703659504652023,0,0,0.015703659504652023,114.53949737548828,43.610626220703125)" opacity="0.04009846189630319" style="display: none;"><g opacity="1" transform="matrix(1,0,0,1,0,0)"><path fill="rgb(255,255,255)" fill-opacity="1" d=" M0,-50 C27.61400032043457,-50 50,-27.61400032043457 50,0 C50,27.61400032043457 27.61400032043457,50 0,50 C-27.61400032043457,50 -50,27.61400032043457 -50,0 C-50,-27.61400032043457 -27.61400032043457,-50 0,-50z"></path></g></g><g transform="matrix(0.003338339738547802,0,0,0.003338339738547802,74.35374450683594,99.39350128173828)" opacity="0.022893764723425473" style="display: none;"><g opacity="1" transform="matrix(1,0,0,1,0,0)"><path fill="rgb(255,255,255)" fill-opacity="1" d=" M0,-50 C27.61400032043457,-50 50,-27.61400032043457 50,0 C50,27.61400032043457 27.61400032043457,50 0,50 C-27.61400032043457,50 -50,27.61400032043457 -50,0 C-50,-27.61400032043457 -27.61400032043457,-50 0,-50z"></path></g></g><g transform="matrix(0.014988311566412449,0,0,0.014988311566412449,42.889122009277344,108.47553253173828)" opacity="0.057104044276113" style="display: none;"><g opacity="1" transform="matrix(1,0,0,1,0,0)"><path fill="rgb(255,255,255)" fill-opacity="1" d=" M0,-50 C27.61400032043457,-50 50,-27.61400032043457 50,0 C50,27.61400032043457 27.61400032043457,50 0,50 C-27.61400032043457,50 -50,27.61400032043457 -50,0 C-50,-27.61400032043457 -27.61400032043457,-50 0,-50z"></path></g></g><g transform="matrix(0.03922533988952637,0,0,0.03922533988952637,99.91088104248047,82.4979019165039)" opacity="0.15185521346218842" style="display: none;"><g opacity="1" transform="matrix(1,0,0,1,0,0)"><path fill="rgb(255,255,255)" fill-opacity="1" d=" M0,-50 C27.61400032043457,-50 50,-27.61400032043457 50,0 C50,27.61400032043457 27.61400032043457,50 0,50 C-27.61400032043457,50 -50,27.61400032043457 -50,0 C-50,-27.61400032043457 -27.61400032043457,-50 0,-50z"></path></g></g><g transform="matrix(0.01927068829536438,0,0,0.01927068829536438,5.938648700714111,68.65159606933594)" opacity="0.057104044276113" style="display: none;"><g opacity="1" transform="matrix(1,0,0,1,0,0)"><path fill="rgb(255,255,255)" fill-opacity="1" d=" M0,-50 C27.61400032043457,-50 50,-27.61400032043457 50,0 C50,27.61400032043457 27.61400032043457,50 0,50 C-27.61400032043457,50 -50,27.61400032043457 -50,0 C-50,-27.61400032043457 -27.61400032043457,-50 0,-50z"></path></g></g></g></svg>