<svg xmlns="http://www.w3.org/2000/svg" viewBox="0 0 36 43" width="36" height="43" preserveAspectRatio="xMidYMid meet" style="width: 100%; height: 100%; transform: translate3d(0px, 0px, 0px); content-visibility: visible;"><defs><clipPath id="__lottie_element_2811"><rect width="36" height="43" x="0" y="0"></rect></clipPath></defs><g clip-path="url(#__lottie_element_2811)"><g transform="matrix(0.3330000042915344,0,0,0.3330000042915344,3.50612735748291,9.876172065734863)" opacity="1" style="display: block;"><g opacity="1" transform="matrix(1,0,0,1,42.27799987792969,64.15399932861328)"><path fill="rgb(119,118,125)" fill-opacity="1" d=" M39.17300033569336,-0.0010000000474974513 C39.17300033569336,-2.5250000953674316 21.635000228881836,-4.572000026702881 0,-4.572000026702881 C-21.635000228881836,-4.572000026702881 -39.17300033569336,-2.5250000953674316 -39.17300033569336,-0.0010000000474974513 C-39.17300033569336,2.5239999294281006 -21.635000228881836,4.571000099182129 0,4.571000099182129 C21.635000228881836,4.571000099182129 39.17300033569336,2.5239999294281006 39.17300033569336,-0.0010000000474974513z"></path></g><g opacity="1" transform="matrix(1,0,0,1,12.793000221252441,54.486000061035156)"><path fill="rgb(77,67,95)" fill-opacity="1" d=" M4.815999984741211,9.484999656677246 C4.815999984741211,9.484999656677246 -4.815999984741211,9.484999656677246 -4.815999984741211,9.484999656677246 C-6.0960001945495605,9.484999656677246 -7.133999824523926,8.446999549865723 -7.133999824523926,7.166999816894531 C-7.133999824523926,7.166999816894531 -7.133999824523926,-7.166999816894531 -7.133999824523926,-7.166999816894531 C-7.133999824523926,-8.446999549865723 -6.0960001945495605,-9.484999656677246 -4.815999984741211,-9.484999656677246 C-4.815999984741211,-9.484999656677246 4.815999984741211,-9.484999656677246 4.815999984741211,-9.484999656677246 C6.0960001945495605,-9.484999656677246 7.133999824523926,-8.446999549865723 7.133999824523926,-7.166999816894531 C7.133999824523926,-7.166999816894531 7.133999824523926,7.166999816894531 7.133999824523926,7.166999816894531 C7.133999824523926,8.446999549865723 6.0960001945495605,9.484999656677246 4.815999984741211,9.484999656677246z"></path></g><g opacity="1" transform="matrix(1,0,0,1,71.76200103759766,54.486000061035156)"><path fill="rgb(77,67,95)" fill-opacity="1" d=" M4.815999984741211,9.484999656677246 C4.815999984741211,9.484999656677246 -4.816999912261963,9.484999656677246 -4.816999912261963,9.484999656677246 C-6.0970001220703125,9.484999656677246 -7.133999824523926,8.446999549865723 -7.133999824523926,7.166999816894531 C-7.133999824523926,7.166999816894531 -7.133999824523926,-7.166999816894531 -7.133999824523926,-7.166999816894531 C-7.133999824523926,-8.446999549865723 -6.0970001220703125,-9.484999656677246 -4.816999912261963,-9.484999656677246 C-4.816999912261963,-9.484999656677246 4.815999984741211,-9.484999656677246 4.815999984741211,-9.484999656677246 C6.0960001945495605,-9.484999656677246 7.133999824523926,-8.446999549865723 7.133999824523926,-7.166999816894531 C7.133999824523926,-7.166999816894531 7.133999824523926,7.166999816894531 7.133999824523926,7.166999816894531 C7.133999824523926,8.446999549865723 6.0960001945495605,9.484999656677246 4.815999984741211,9.484999656677246z"></path></g><g opacity="1" transform="matrix(1,0,0,1,42.27799987792969,14.82699966430664)"><path fill="rgb(189,172,182)" fill-opacity="1" d=" M24.04400062561035,14.576000213623047 C24.04400062561035,14.576000213623047 -24.04400062561035,14.576000213623047 -24.04400062561035,14.576000213623047 C-24.04400062561035,14.576000213623047 -24.04400062561035,-3.5950000286102295 -24.04400062561035,-3.5950000286102295 C-24.04400062561035,-9.64900016784668 -19.118999481201172,-14.576000213623047 -13.0649995803833,-14.576000213623047 C-13.0649995803833,-14.576000213623047 13.0649995803833,-14.576000213623047 13.0649995803833,-14.576000213623047 C19.118999481201172,-14.576000213623047 24.04400062561035,-9.64900016784668 24.04400062561035,-3.5950000286102295 C24.04400062561035,-3.5950000286102295 24.04400062561035,14.576000213623047 24.04400062561035,14.576000213623047z"></path></g><g opacity="1" transform="matrix(1,0,0,1,31.458999633789062,14.82699966430664)"><path fill="rgb(77,67,95)" fill-opacity="1" d=" M7.822000026702881,9.17199993133545 C7.822000026702881,9.17199993133545 -7.822000026702881,9.17199993133545 -7.822000026702881,9.17199993133545 C-7.822000026702881,9.17199993133545 -7.822000026702881,-3.5959999561309814 -7.822000026702881,-3.5959999561309814 C-7.822000026702881,-6.675000190734863 -5.324999809265137,-9.17199993133545 -2.244999885559082,-9.17199993133545 C-2.244999885559082,-9.17199993133545 2.246000051498413,-9.17199993133545 2.246000051498413,-9.17199993133545 C5.324999809265137,-9.17199993133545 7.822000026702881,-6.675000190734863 7.822000026702881,-3.5959999561309814 C7.822000026702881,-3.5959999561309814 7.822000026702881,9.17199993133545 7.822000026702881,9.17199993133545z"></path></g><g opacity="1" transform="matrix(1,0,0,1,53.095001220703125,14.82699966430664)"><path fill="rgb(77,67,95)" fill-opacity="1" d=" M-7.821000099182129,9.17199993133545 C-7.821000099182129,9.17199993133545 7.821000099182129,9.17199993133545 7.821000099182129,9.17199993133545 C7.821000099182129,9.17199993133545 7.821000099182129,-3.5959999561309814 7.821000099182129,-3.5959999561309814 C7.821000099182129,-6.675000190734863 5.324999809265137,-9.17199993133545 2.246000051498413,-9.17199993133545 C2.246000051498413,-9.17199993133545 -2.246000051498413,-9.17199993133545 -2.246000051498413,-9.17199993133545 C-5.324999809265137,-9.17199993133545 -7.821000099182129,-6.675000190734863 -7.821000099182129,-3.5959999561309814 C-7.821000099182129,-3.5959999561309814 -7.821000099182129,9.17199993133545 -7.821000099182129,9.17199993133545z"></path></g><g opacity="1" transform="matrix(1,0,0,1,42.27799987792969,18.868000030517578)"><path fill="rgb(77,67,95)" fill-opacity="1" d=" M18.638999938964844,-5.13100004196167 C18.638999938964844,-5.13100004196167 -18.638999938964844,-5.13100004196167 -18.638999938964844,-5.13100004196167 C-18.638999938964844,-5.13100004196167 -18.638999938964844,5.13100004196167 -18.638999938964844,5.13100004196167 C-18.638999938964844,5.13100004196167 18.638999938964844,5.13100004196167 18.638999938964844,5.13100004196167 C18.638999938964844,5.13100004196167 18.638999938964844,-5.13100004196167 18.638999938964844,-5.13100004196167z"></path></g><g opacity="1" transform="matrix(1,0,0,1,42.277000427246094,33.14799880981445)"><path fill="rgb(255,201,77)" fill-opacity="1" d=" M28.391000747680664,-11.852999687194824 C42.027000427246094,-11.852999687194824 42.027000427246094,11.852999687194824 42.027000427246094,11.852999687194824 C42.027000427246094,11.852999687194824 -42.027000427246094,11.852999687194824 -42.027000427246094,11.852999687194824 C-42.027000427246094,11.852999687194824 -42.027000427246094,-11.852999687194824 -28.389999389648438,-11.852999687194824 C-28.389999389648438,-11.852999687194824 28.391000747680664,-11.852999687194824 28.391000747680664,-11.852999687194824z"></path></g><g opacity="1" transform="matrix(1,0,0,1,42.277000427246094,48.63100051879883)"><path fill="rgb(189,172,182)" fill-opacity="1" d=" M42.027000427246094,3.630000114440918 C42.027000427246094,3.630000114440918 -42.027000427246094,3.630000114440918 -42.027000427246094,3.630000114440918 C-42.027000427246094,3.630000114440918 -42.027000427246094,-3.630000114440918 -42.027000427246094,-3.630000114440918 C-42.027000427246094,-3.630000114440918 42.027000427246094,-3.630000114440918 42.027000427246094,-3.630000114440918 C42.027000427246094,-3.630000114440918 42.027000427246094,3.630000114440918 42.027000427246094,3.630000114440918z"></path></g><g opacity="1" transform="matrix(1,0,0,1,42.277000427246094,42.297000885009766)"><path fill="rgb(251,176,21)" fill-opacity="1" d=" M-41.619998931884766,-2.7049999237060547 C-42.02299880981445,0.42899999022483826 -42.027000427246094,2.7049999237060547 -42.027000427246094,2.7049999237060547 C-42.027000427246094,2.7049999237060547 42.027000427246094,2.7049999237060547 42.027000427246094,2.7049999237060547 C42.027000427246094,2.7049999237060547 42.025001525878906,0.42899999022483826 41.619998931884766,-2.7049999237060547 C41.619998931884766,-2.7049999237060547 -41.619998931884766,-2.7049999237060547 -41.619998931884766,-2.7049999237060547z"></path></g><g opacity="1" transform="matrix(1,0,0,1,42.27799987792969,27.827999114990234)"><path fill="rgb(255,201,77)" fill-opacity="1" d=" M4.045000076293945,-9.795999526977539 C4.045000076293945,-9.795999526977539 -4.046000003814697,-9.795999526977539 -4.046000003814697,-9.795999526977539 C-6.815000057220459,-9.795999526977539 -9.059000015258789,-7.551000118255615 -9.059000015258789,-4.781000137329102 C-9.059000015258789,-4.781000137329102 -9.059000015258789,9.795999526977539 -9.059000015258789,9.795999526977539 C-9.059000015258789,9.795999526977539 9.059000015258789,9.795999526977539 9.059000015258789,9.795999526977539 C9.059000015258789,9.795999526977539 9.059000015258789,-4.781000137329102 9.059000015258789,-4.781000137329102 C9.059000015258789,-7.551000118255615 6.815000057220459,-9.795999526977539 4.045000076293945,-9.795999526977539z"></path></g><g opacity="1" transform="matrix(1,0,0,1,22.67300033569336,30.44300079345703)"><path fill="rgb(230,235,246)" fill-opacity="1" d=" M3.9110000133514404,-9.14900016784668 C3.9110000133514404,-9.14900016784668 -8.78600025177002,-9.14900016784668 -8.78600025177002,-9.14900016784668 C-8.78600025177002,-9.14900016784668 -2.746000051498413,9.14900016784668 -2.746000051498413,9.14900016784668 C-2.746000051498413,9.14900016784668 8.78600025177002,9.14900016784668 8.78600025177002,9.14900016784668 C8.78600025177002,9.14900016784668 3.9110000133514404,-9.14900016784668 3.9110000133514404,-9.14900016784668z"></path></g><g opacity="1" transform="matrix(1,0,0,1,61.88100051879883,30.44300079345703)"><path fill="rgb(230,235,246)" fill-opacity="1" d=" M-3.9100000858306885,-9.14900016784668 C-3.9100000858306885,-9.14900016784668 8.786999702453613,-9.14900016784668 8.786999702453613,-9.14900016784668 C8.786999702453613,-9.14900016784668 2.746999979019165,9.14900016784668 2.746999979019165,9.14900016784668 C2.746999979019165,9.14900016784668 -8.786999702453613,9.14900016784668 -8.786999702453613,9.14900016784668 C-8.786999702453613,9.14900016784668 -3.9100000858306885,-9.14900016784668 -3.9100000858306885,-9.14900016784668z"></path></g></g></g></svg>