<svg xmlns="http://www.w3.org/2000/svg" viewBox="0 0 76 42" width="76" height="42" preserveAspectRatio="xMidYMid meet" style="width: 100%; height: 100%; transform: translate3d(0px, 0px, 0px); content-visibility: visible;"><defs><clipPath id="__lottie_element_3093"><rect width="76" height="42" x="0" y="0"></rect></clipPath><mask id="__lottie_element_3110" mask-type="alpha"><g transform="matrix(0.3330000042915344,0,0,0.3330000042915344,13.189167022705078,-2.448195695877075)" opacity="1" style="display: block;"><g opacity="1" transform="matrix(1,0,0,1,105.177001953125,35.43600082397461)"><path fill="rgb(113,66,56)" fill-opacity="1" d=" M61.35300064086914,21.92300033569336 C61.35300064086914,21.92300033569336 -61.35300064086914,21.92300033569336 -61.35300064086914,21.92300033569336 C-61.35300064086914,21.92300033569336 -61.35300064086914,-8.621000289916992 -61.35300064086914,-8.621000289916992 C-61.35300064086914,-15.968000411987305 -55.39699935913086,-21.92300033569336 -48.04999923706055,-21.92300033569336 C-48.04999923706055,-21.92300033569336 48.05099868774414,-21.92300033569336 48.05099868774414,-21.92300033569336 C55.39699935913086,-21.92300033569336 61.35300064086914,-15.968000411987305 61.35300064086914,-8.621000289916992 C61.35300064086914,-8.621000289916992 61.35300064086914,21.92300033569336 61.35300064086914,21.92300033569336z"></path></g><g opacity="1" transform="matrix(1,0,0,1,105.177001953125,35.43600082397461)"><path stroke-linecap="butt" stroke-linejoin="miter" fill-opacity="0" stroke-miterlimit="10" stroke="rgb(251,176,21)" stroke-opacity="1" stroke-width="6" d=" M61.35300064086914,21.92300033569336 C61.35300064086914,21.92300033569336 -61.35300064086914,21.92300033569336 -61.35300064086914,21.92300033569336 C-61.35300064086914,21.92300033569336 -61.35300064086914,-8.621000289916992 -61.35300064086914,-8.621000289916992 C-61.35300064086914,-15.968000411987305 -55.39699935913086,-21.92300033569336 -48.04999923706055,-21.92300033569336 C-48.04999923706055,-21.92300033569336 48.05099868774414,-21.92300033569336 48.05099868774414,-21.92300033569336 C55.39699935913086,-21.92300033569336 61.35300064086914,-15.968000411987305 61.35300064086914,-8.621000289916992 C61.35300064086914,-8.621000289916992 61.35300064086914,21.92300033569336 61.35300064086914,21.92300033569336z"></path></g><g opacity="1" transform="matrix(1,0,0,1,105.177001953125,13.51200008392334)"><path fill="rgb(175,154,166)" fill-opacity="1" d=" M-15.59000015258789,-5.021999835968018 C-15.59000015258789,-5.021999835968018 15.59000015258789,-5.021999835968018 15.59000015258789,-5.021999835968018 C15.59000015258789,-5.021999835968018 15.59000015258789,5.021999835968018 15.59000015258789,5.021999835968018 C15.59000015258789,5.021999835968018 -15.59000015258789,5.021999835968018 -15.59000015258789,5.021999835968018 C-15.59000015258789,5.021999835968018 -15.59000015258789,-5.021999835968018 -15.59000015258789,-5.021999835968018z"></path></g></g></mask></defs><g clip-path="url(#__lottie_element_3093)"><g transform="matrix(0.3330000042915344,0,0,0.3330000042915344,0.2817537188529968,5.794887065887451)" opacity="1" style="display: block;"><g opacity="1" transform="matrix(1,0,0,1,49.61899948120117,66.74700164794922)"><path fill="rgb(68,169,72)" fill-opacity="1" d=" M27.34600067138672,-15.786999702453613 C27.34600067138672,-15.786999702453613 -27.34600067138672,-15.786999702453613 -27.34600067138672,-15.786999702453613 C-27.34600067138672,-15.786999702453613 -27.34600067138672,15.786999702453613 -27.34600067138672,15.786999702453613 C-27.34600067138672,15.786999702453613 27.34600067138672,15.786999702453613 27.34600067138672,15.786999702453613 C27.34600067138672,15.786999702453613 27.34600067138672,-15.786999702453613 27.34600067138672,-15.786999702453613z"></path></g><g opacity="1" transform="matrix(1,0,0,1,76.96499633789062,50.96099853515625)"><path fill="rgb(68,169,72)" fill-opacity="1" d=" M31.573999404907227,-0.0010000000474974513 C31.573999404907227,-17.437999725341797 17.437999725341797,-31.573999404907227 0,-31.573999404907227 C-17.437999725341797,-31.573999404907227 -31.573999404907227,-17.437999725341797 -31.573999404907227,-0.0010000000474974513 C-31.573999404907227,17.437000274658203 -17.437999725341797,31.573999404907227 0,31.573999404907227 C17.437999725341797,31.573999404907227 31.573999404907227,17.437000274658203 31.573999404907227,-0.0010000000474974513z"></path></g><g opacity="1" transform="matrix(1,0,0,1,31.840999603271484,41.391998291015625)"><path fill="rgb(68,169,72)" fill-opacity="1" d=" M-9.569000244140625,-41.141998291015625 C-17.679000854492188,-41.141998291015625 -25.2189998626709,-38.76300048828125 -31.590999603271484,-34.71099853515625 C-31.590999603271484,-34.71099853515625 -31.590999603271484,34.71200180053711 -31.590999603271484,34.71200180053711 C-25.2189998626709,38.76300048828125 -17.679000854492188,41.141998291015625 -9.569000244140625,41.141998291015625 C13.154000282287598,41.141998291015625 31.573999404907227,22.722000122070312 31.573999404907227,0 C31.573999404907227,-22.722000122070312 13.154000282287598,-41.141998291015625 -9.569000244140625,-41.141998291015625z"></path></g></g><g transform="matrix(0.3330000042915344,0,0,0.3330000042915344,13.189167022705078,-2.448195695877075)" opacity="1" style="display: block;"><g opacity="1" transform="matrix(1,0,0,1,38.099998474121094,67.3030014038086)"><path stroke-linecap="butt" stroke-linejoin="miter" fill-opacity="0" stroke-miterlimit="10" stroke="rgb(251,176,21)" stroke-opacity="1" stroke-width="8.107" d=" M11.119999885559082,-8.432999610900879 C11.119999885559082,-8.432999610900879 -2.687000036239624,-8.432999610900879 -2.687000036239624,-8.432999610900879 C-7.324999809265137,-8.432999610900879 -11.119999885559082,-4.638000011444092 -11.119999885559082,0 C-11.119999885559082,4.638000011444092 -7.324999809265137,8.432999610900879 -2.687000036239624,8.432999610900879 C-2.687000036239624,8.432999610900879 11.119999885559082,8.432999610900879 11.119999885559082,8.432999610900879 C11.119999885559082,8.432999610900879 11.119999885559082,-8.432999610900879 11.119999885559082,-8.432999610900879z"></path></g><g opacity="1" transform="matrix(1,0,0,1,172.2530059814453,67.3030014038086)"><path stroke-linecap="butt" stroke-linejoin="miter" fill-opacity="0" stroke-miterlimit="10" stroke="rgb(251,176,21)" stroke-opacity="1" stroke-width="8.107" d=" M-11.119999885559082,-8.432999610900879 C-11.119999885559082,-8.432999610900879 2.687000036239624,-8.432999610900879 2.687000036239624,-8.432999610900879 C7.324999809265137,-8.432999610900879 11.119999885559082,-4.638000011444092 11.119999885559082,0 C11.119999885559082,4.638000011444092 7.324999809265137,8.432999610900879 2.687000036239624,8.432999610900879 C2.687000036239624,8.432999610900879 -11.119999885559082,8.432999610900879 -11.119999885559082,8.432999610900879 C-11.119999885559082,8.432999610900879 -11.119999885559082,-8.432999610900879 -11.119999885559082,-8.432999610900879z"></path></g><g opacity="1" transform="matrix(1,0,0,1,105.1760025024414,85.11699676513672)"><path fill="rgb(179,82,48)" fill-opacity="1" d=" M61.35300064086914,27.756999969482422 C61.35300064086914,27.756999969482422 -61.35300064086914,27.756999969482422 -61.35300064086914,27.756999969482422 C-61.35300064086914,27.756999969482422 -61.35300064086914,-27.756999969482422 -61.35300064086914,-27.756999969482422 C-61.35300064086914,-27.756999969482422 61.35300064086914,-27.756999969482422 61.35300064086914,-27.756999969482422 C61.35300064086914,-27.756999969482422 61.35300064086914,27.756999969482422 61.35300064086914,27.756999969482422z"></path></g><g opacity="1" transform="matrix(1,0,0,1,105.177001953125,110.13899993896484)"><path fill="rgb(251,176,21)" fill-opacity="1" d=" M66.76200103759766,-8.142999649047852 C66.76200103759766,-8.142999649047852 -66.76200103759766,-8.142999649047852 -66.76200103759766,-8.142999649047852 C-66.76200103759766,-8.142999649047852 -66.76200103759766,8.142999649047852 -66.76200103759766,8.142999649047852 C-66.76200103759766,8.142999649047852 66.76200103759766,8.142999649047852 66.76200103759766,8.142999649047852 C66.76200103759766,8.142999649047852 66.76200103759766,-8.142999649047852 66.76200103759766,-8.142999649047852z"></path></g><g opacity="1" transform="matrix(1,0,0,1,105.1760025024414,74.75900268554688)"><path fill="rgb(194,172,186)" fill-opacity="1" d=" M0.0010000000474974513,15.58899974822998 C0.0010000000474974513,15.58899974822998 0.0010000000474974513,15.58899974822998 0.0010000000474974513,15.58899974822998 C-8.574000358581543,15.58899974822998 -15.59000015258789,8.574999809265137 -15.59000015258789,0.0010000000474974513 C-15.59000015258789,0.0010000000474974513 -15.59000015258789,-15.58899974822998 -15.59000015258789,-15.58899974822998 C-15.59000015258789,-15.58899974822998 15.59000015258789,-15.58899974822998 15.59000015258789,-15.58899974822998 C15.59000015258789,-15.58899974822998 15.59000015258789,0.0010000000474974513 15.59000015258789,0.0010000000474974513 C15.59000015258789,8.574999809265137 8.574999809265137,15.58899974822998 0.0010000000474974513,15.58899974822998z"></path></g><g opacity="1" transform="matrix(1,0,0,1,45.915000915527344,83.75)"><path fill="rgb(251,176,21)" fill-opacity="1" d=" M4.794000148773193,26.389999389648438 C4.794000148773193,26.389999389648438 -4.794000148773193,26.389999389648438 -4.794000148773193,26.389999389648438 C-4.794000148773193,26.389999389648438 -4.794000148773193,-26.389999389648438 -4.794000148773193,-26.389999389648438 C-4.794000148773193,-26.389999389648438 4.794000148773193,-26.389999389648438 4.794000148773193,-26.389999389648438 C4.794000148773193,-26.389999389648438 4.794000148773193,26.389999389648438 4.794000148773193,26.389999389648438z"></path></g><g opacity="1" transform="matrix(1,0,0,1,164.44000244140625,83.75)"><path fill="rgb(251,176,21)" fill-opacity="1" d=" M4.794000148773193,26.389999389648438 C4.794000148773193,26.389999389648438 -4.795000076293945,26.389999389648438 -4.795000076293945,26.389999389648438 C-4.795000076293945,26.389999389648438 -4.795000076293945,-26.389999389648438 -4.795000076293945,-26.389999389648438 C-4.795000076293945,-26.389999389648438 4.794000148773193,-26.389999389648438 4.794000148773193,-26.389999389648438 C4.794000148773193,-26.389999389648438 4.794000148773193,26.389999389648438 4.794000148773193,26.389999389648438z"></path></g><g opacity="1" transform="matrix(1,0,0,1,105.177001953125,70.11199951171875)"><path fill="rgb(77,67,95)" fill-opacity="1" d=" M5.5329999923706055,-0.0010000000474974513 C5.5329999923706055,-3.056999921798706 3.055999994277954,-5.5329999923706055 0,-5.5329999923706055 C-3.055000066757202,-5.5329999923706055 -5.5329999923706055,-3.056999921798706 -5.5329999923706055,-0.0010000000474974513 C-5.5329999923706055,3.055000066757202 -3.055000066757202,5.5329999923706055 0,5.5329999923706055 C3.055999994277954,5.5329999923706055 5.5329999923706055,3.055000066757202 5.5329999923706055,-0.0010000000474974513z"></path></g><g opacity="1" transform="matrix(1,0,0,1,105.1760025024414,76.2699966430664)"><path fill="rgb(77,67,95)" fill-opacity="1" d=" M2.7269999980926514,-7.568999767303467 C2.7269999980926514,-7.568999767303467 -2.7269999980926514,-7.568999767303467 -2.7269999980926514,-7.568999767303467 C-2.7269999980926514,-7.568999767303467 -2.7269999980926514,7.568999767303467 -2.7269999980926514,7.568999767303467 C-2.7269999980926514,7.568999767303467 2.7269999980926514,7.568999767303467 2.7269999980926514,7.568999767303467 C2.7269999980926514,7.568999767303467 2.7269999980926514,-7.568999767303467 2.7269999980926514,-7.568999767303467z"></path></g><g opacity="1" transform="matrix(1,0,0,1,0,0)"><path stroke-linecap="butt" stroke-linejoin="miter" fill-opacity="0" stroke-miterlimit="10" stroke="rgb(251,176,21)" stroke-opacity="1" stroke-width="5.405" d=" M77.13899993896484,57.36000061035156 C77.13899993896484,57.36000061035156 77.13899993896484,110.13999938964844 77.13899993896484,110.13999938964844"></path></g><g opacity="1" transform="matrix(1,0,0,1,0,0)"><path stroke-linecap="butt" stroke-linejoin="miter" fill-opacity="0" stroke-miterlimit="10" stroke="rgb(251,176,21)" stroke-opacity="1" stroke-width="5.405" d=" M135.3040008544922,57.36000061035156 C135.3040008544922,57.36000061035156 135.3040008544922,110.13999938964844 135.3040008544922,110.13999938964844"></path></g><g opacity="1" transform="matrix(1,0,0,1,0,0)"><path stroke-linecap="butt" stroke-linejoin="miter" fill-opacity="0" stroke-miterlimit="10" stroke="rgb(251,176,21)" stroke-opacity="1" stroke-width="5.405" d=" M43.82400131225586,57.36000061035156 C43.82400131225586,57.36000061035156 166.52999877929688,57.36000061035156 166.52999877929688,57.36000061035156"></path></g><g opacity="1" transform="matrix(1,0,0,1,37.275001525878906,118.28299713134766)"><path fill="rgb(255,201,77)" fill-opacity="1" d=" M8.638999938964844,-0.0010000000474974513 C8.638999938964844,-4.771999835968018 4.770999908447266,-8.640000343322754 0,-8.640000343322754 C-4.770999908447266,-8.640000343322754 -8.638999938964844,-4.771999835968018 -8.638999938964844,-0.0010000000474974513 C-8.638999938964844,4.769999980926514 -4.770999908447266,8.640000343322754 0,8.640000343322754 C4.770999908447266,8.640000343322754 8.638999938964844,4.769999980926514 8.638999938964844,-0.0010000000474974513z"></path></g><g opacity="1" transform="matrix(1,0,0,1,95.74700164794922,118.28299713134766)"><path fill="rgb(255,201,77)" fill-opacity="1" d=" M8.638999938964844,-0.0010000000474974513 C8.638999938964844,-4.771999835968018 4.770999908447266,-8.640000343322754 0,-8.640000343322754 C-4.770999908447266,-8.640000343322754 -8.638999938964844,-4.771999835968018 -8.638999938964844,-0.0010000000474974513 C-8.638999938964844,4.769999980926514 -4.770999908447266,8.640000343322754 0,8.640000343322754 C4.770999908447266,8.640000343322754 8.638999938964844,4.769999980926514 8.638999938964844,-0.0010000000474974513z"></path></g><g opacity="1" transform="matrix(1,0,0,1,8.888999938964844,118.28299713134766)"><path fill="rgb(255,201,77)" fill-opacity="1" d=" M8.638999938964844,-0.0010000000474974513 C8.638999938964844,-4.771999835968018 4.770999908447266,-8.640000343322754 0,-8.640000343322754 C-4.770999908447266,-8.640000343322754 -8.638999938964844,-4.771999835968018 -8.638999938964844,-0.0010000000474974513 C-8.638999938964844,4.769999980926514 -4.770999908447266,8.640000343322754 0,8.640000343322754 C4.770999908447266,8.640000343322754 8.638999938964844,4.769999980926514 8.638999938964844,-0.0010000000474974513z"></path></g><g opacity="1" transform="matrix(1,0,0,1,49.220001220703125,123.89199829101562)"><path fill="rgb(255,238,207)" fill-opacity="1" d=" M8.638999938964844,0 C8.638999938964844,-4.770999908447266 4.770999908447266,-8.638999938964844 0,-8.638999938964844 C-4.770999908447266,-8.638999938964844 -8.638999938964844,-4.770999908447266 -8.638999938964844,0 C-8.638999938964844,4.770999908447266 -4.770999908447266,8.638999938964844 0,8.638999938964844 C4.770999908447266,8.638999938964844 8.638999938964844,4.770999908447266 8.638999938964844,0z"></path></g><g opacity="1" transform="matrix(1,0,0,1,116.9219970703125,115.25299835205078)"><path fill="rgb(255,201,77)" fill-opacity="1" d=" M8.638999938964844,0 C8.638999938964844,-4.770999908447266 4.770999908447266,-8.638999938964844 0,-8.638999938964844 C-4.770999908447266,-8.638999938964844 -8.638999938964844,-4.770999908447266 -8.638999938964844,0 C-8.638999938964844,4.770999908447266 -4.770999908447266,8.638999938964844 0,8.638999938964844 C4.770999908447266,8.638999938964844 8.638999938964844,4.770999908447266 8.638999938964844,0z"></path></g><g opacity="1" transform="matrix(1,0,0,1,129.16400146484375,106.61399841308594)"><path fill="rgb(255,238,207)" fill-opacity="1" d=" M8.638999938964844,0 C8.638999938964844,-4.770999908447266 4.770999908447266,-8.640000343322754 0,-8.640000343322754 C-4.770999908447266,-8.640000343322754 -8.638999938964844,-4.770999908447266 -8.638999938964844,0 C-8.638999938964844,4.770999908447266 -4.770999908447266,8.640000343322754 0,8.640000343322754 C4.770999908447266,8.640000343322754 8.638999938964844,4.770999908447266 8.638999938964844,0z"></path></g><g opacity="1" transform="matrix(1,0,0,1,125.77999877929688,119.63200378417969)"><path fill="rgb(255,201,77)" fill-opacity="1" d=" M8.638999938964844,0 C8.638999938964844,-4.770999908447266 4.770999908447266,-8.638999938964844 0,-8.638999938964844 C-4.770999908447266,-8.638999938964844 -8.638999938964844,-4.770999908447266 -8.638999938964844,0 C-8.638999938964844,4.770999908447266 -4.770999908447266,8.638999938964844 0,8.638999938964844 C4.770999908447266,8.638999938964844 8.638999938964844,4.770999908447266 8.638999938964844,0z"></path></g><g opacity="1" transform="matrix(1,0,0,1,139.4290008544922,118.77899932861328)"><path fill="rgb(255,201,77)" fill-opacity="1" d=" M8.638999938964844,0 C8.638999938964844,-4.770999908447266 4.770999908447266,-8.638999938964844 0,-8.638999938964844 C-4.770999908447266,-8.638999938964844 -8.638999938964844,-4.770999908447266 -8.638999938964844,0 C-8.638999938964844,4.770999908447266 -4.770999908447266,8.638999938964844 0,8.638999938964844 C4.770999908447266,8.638999938964844 8.638999938964844,4.770999908447266 8.638999938964844,0z"></path></g><g opacity="1" transform="matrix(1,0,0,1,172.2530059814453,119.63200378417969)"><path fill="rgb(255,201,77)" fill-opacity="1" d=" M8.638999938964844,0 C8.638999938964844,-4.770999908447266 4.770999908447266,-8.638999938964844 0,-8.638999938964844 C-4.770999908447266,-8.638999938964844 -8.638999938964844,-4.770999908447266 -8.638999938964844,0 C-8.638999938964844,4.770999908447266 -4.770999908447266,8.638999938964844 0,8.638999938964844 C4.770999908447266,8.638999938964844 8.638999938964844,4.770999908447266 8.638999938964844,0z"></path></g><g opacity="1" transform="matrix(1,0,0,1,150.70899963378906,123.89199829101562)"><path fill="rgb(255,238,207)" fill-opacity="1" d=" M8.638999938964844,0 C8.638999938964844,-4.770999908447266 4.770999908447266,-8.638999938964844 0,-8.638999938964844 C-4.770999908447266,-8.638999938964844 -8.638999938964844,-4.770999908447266 -8.638999938964844,0 C-8.638999938964844,4.770999908447266 -4.770999908447266,8.638999938964844 0,8.638999938964844 C4.770999908447266,8.638999938964844 8.638999938964844,4.770999908447266 8.638999938964844,0z"></path></g></g><g transform="matrix(0.3330000042915344,0,0,0.1665000021457672,13.154869079589844,10.376300811767578)" opacity="1" style="display: block;"><g opacity="1" transform="matrix(1,0,0,1,105.1760025024414,21.43199920654297)"><path fill="rgb(179,82,48)" fill-opacity="1" d=" M61.35300064086914,15.27299976348877 C61.35300064086914,15.27299976348877 -61.35300064086914,15.27299976348877 -61.35300064086914,15.27299976348877 C-61.35300064086914,15.27299976348877 -61.35300064086914,-15.27299976348877 -61.35300064086914,-15.27299976348877 C-61.35300064086914,-15.27299976348877 61.35300064086914,-15.27299976348877 61.35300064086914,-15.27299976348877 C61.35300064086914,-15.27299976348877 61.35300064086914,15.27299976348877 61.35300064086914,15.27299976348877z"></path></g><g opacity="1" transform="matrix(1,0,0,1,45.91400146484375,19.70400047302246)"><path fill="rgb(251,176,21)" fill-opacity="1" d=" M4.795000076293945,17 C4.795000076293945,17 -4.795000076293945,17 -4.795000076293945,17 C-4.795000076293945,17 -4.795000076293945,-17 -4.795000076293945,-17 C-4.795000076293945,-17 4.795000076293945,-17 4.795000076293945,-17 C4.795000076293945,-17 4.795000076293945,17 4.795000076293945,17z"></path></g><g opacity="1" transform="matrix(1,0,0,1,164.43899536132812,19.70400047302246)"><path fill="rgb(251,176,21)" fill-opacity="1" d=" M4.794000148773193,17 C4.794000148773193,17 -4.794000148773193,17 -4.794000148773193,17 C-4.794000148773193,17 -4.794000148773193,-17 -4.794000148773193,-17 C-4.794000148773193,-17 4.794000148773193,-17 4.794000148773193,-17 C4.794000148773193,-17 4.794000148773193,17 4.794000148773193,17z"></path></g><g opacity="1" transform="matrix(1,0,0,1,0,0)"><path stroke-linecap="butt" stroke-linejoin="miter" fill-opacity="0" stroke-miterlimit="10" stroke="rgb(251,176,21)" stroke-opacity="1" stroke-width="5.405" d=" M77.13899993896484,36.70399856567383 C77.13899993896484,36.70399856567383 77.13899993896484,2.703000068664551 77.13899993896484,2.703000068664551"></path></g><g opacity="1" transform="matrix(1,0,0,1,0,0)"><path stroke-linecap="butt" stroke-linejoin="miter" fill-opacity="0" stroke-miterlimit="10" stroke="rgb(251,176,21)" stroke-opacity="1" stroke-width="5.405" d=" M135.3040008544922,36.70399856567383 C135.3040008544922,36.70399856567383 135.3040008544922,2.703000068664551 135.3040008544922,2.703000068664551"></path></g></g><g transform="matrix(0.3330000042915344,0,0,0.3330000042915344,13.189167022705078,-2.448195695877075)" opacity="1" style="display: block;"><g opacity="1" transform="matrix(1,0,0,1,105.177001953125,35.43600082397461)"><path fill="rgb(113,66,56)" fill-opacity="1" d=" M61.35300064086914,21.92300033569336 C61.35300064086914,21.92300033569336 -61.35300064086914,21.92300033569336 -61.35300064086914,21.92300033569336 C-61.35300064086914,21.92300033569336 -61.35300064086914,-8.621000289916992 -61.35300064086914,-8.621000289916992 C-61.35300064086914,-15.968000411987305 -55.39699935913086,-21.92300033569336 -48.04999923706055,-21.92300033569336 C-48.04999923706055,-21.92300033569336 48.05099868774414,-21.92300033569336 48.05099868774414,-21.92300033569336 C55.39699935913086,-21.92300033569336 61.35300064086914,-15.968000411987305 61.35300064086914,-8.621000289916992 C61.35300064086914,-8.621000289916992 61.35300064086914,21.92300033569336 61.35300064086914,21.92300033569336z"></path></g></g><g mask="url(#__lottie_element_3110)" style="display: block;"><g transform="matrix(0.3330000042915344,0,0,0.3330000042915344,13.189167022705078,-2.448195695877075)" opacity="1"><g opacity="1" transform="matrix(1,0,0,1,61.52000045776367,52.18000030517578)"><path fill="rgb(255,201,77)" fill-opacity="1" d=" M8.638999938964844,0 C8.638999938964844,-4.770999908447266 4.770999908447266,-8.640000343322754 0,-8.640000343322754 C-4.770999908447266,-8.640000343322754 -8.638999938964844,-4.770999908447266 -8.638999938964844,0 C-8.638999938964844,4.770999908447266 -4.770999908447266,8.640000343322754 0,8.640000343322754 C4.770999908447266,8.640000343322754 8.638999938964844,4.770999908447266 8.638999938964844,0z"></path></g><g opacity="1" transform="matrix(1,0,0,1,143.05799865722656,46.80400085449219)"><path fill="rgb(255,238,207)" fill-opacity="1" d=" M8.638999938964844,0 C8.638999938964844,-4.770999908447266 4.770999908447266,-8.638999938964844 0,-8.638999938964844 C-4.770999908447266,-8.638999938964844 -8.638999938964844,-4.770999908447266 -8.638999938964844,0 C-8.638999938964844,4.770999908447266 -4.770999908447266,8.638999938964844 0,8.638999938964844 C4.770999908447266,8.638999938964844 8.638999938964844,4.770999908447266 8.638999938964844,0z"></path></g><g opacity="1" transform="matrix(1,0,0,1,148.83299255371094,52.18000030517578)"><path fill="rgb(255,201,77)" fill-opacity="1" d=" M-8.638999938964844,0 C-8.638999938964844,-4.770999908447266 -4.770999908447266,-8.640000343322754 0,-8.640000343322754 C4.770999908447266,-8.640000343322754 8.638999938964844,-4.770999908447266 8.638999938964844,0 C8.638999938964844,4.770999908447266 4.770999908447266,8.640000343322754 0,8.640000343322754 C-4.770999908447266,8.640000343322754 -8.638999938964844,4.770999908447266 -8.638999938964844,0z"></path></g><g opacity="1" transform="matrix(1,0,0,1,95.74700164794922,23.358999252319336)"><path fill="rgb(255,201,77)" fill-opacity="1" d=" M8.638999938964844,0 C8.638999938964844,-4.770999908447266 4.770999908447266,-8.638999938964844 0,-8.638999938964844 C-4.770999908447266,-8.638999938964844 -8.638999938964844,-4.770999908447266 -8.638999938964844,0 C-8.638999938964844,4.770999908447266 -4.770999908447266,8.638999938964844 0,8.638999938964844 C4.770999908447266,8.638999938964844 8.638999938964844,4.770999908447266 8.638999938964844,0z"></path></g><g opacity="1" transform="matrix(1,0,0,1,103.24700164794922,33.25299835205078)"><path fill="rgb(255,201,77)" fill-opacity="1" d=" M8.638999938964844,0 C8.638999938964844,-4.770999908447266 4.770999908447266,-8.638999938964844 0,-8.638999938964844 C-4.770999908447266,-8.638999938964844 -8.638999938964844,-4.770999908447266 -8.638999938964844,0 C-8.638999938964844,4.770999908447266 -4.770999908447266,8.638999938964844 0,8.638999938964844 C4.770999908447266,8.638999938964844 8.638999938964844,4.770999908447266 8.638999938964844,0z"></path></g><g opacity="1" transform="matrix(1,0,0,1,75.12100219726562,38.165000915527344)"><path fill="rgb(255,201,77)" fill-opacity="1" d=" M8.638999938964844,0 C8.638999938964844,-4.770999908447266 4.770999908447266,-8.638999938964844 0,-8.638999938964844 C-4.770999908447266,-8.638999938964844 -8.638999938964844,-4.770999908447266 -8.638999938964844,0 C-8.638999938964844,4.770999908447266 -4.770999908447266,8.638999938964844 0,8.638999938964844 C4.770999908447266,8.638999938964844 8.638999938964844,4.770999908447266 8.638999938964844,0z"></path></g><g opacity="1" transform="matrix(1,0,0,1,87.89900207519531,35.43600082397461)"><path fill="rgb(255,238,207)" fill-opacity="1" d=" M8.638999938964844,-0.0010000000474974513 C8.638999938964844,-4.771999835968018 4.770999908447266,-8.640000343322754 0,-8.640000343322754 C-4.770999908447266,-8.640000343322754 -8.638999938964844,-4.771999835968018 -8.638999938964844,-0.0010000000474974513 C-8.638999938964844,4.769999980926514 -4.770999908447266,8.640000343322754 0,8.640000343322754 C4.770999908447266,8.640000343322754 8.638999938964844,4.769999980926514 8.638999938964844,-0.0010000000474974513z"></path></g><g opacity="1" transform="matrix(1,0,0,1,71.08699798583984,48.72100067138672)"><path fill="rgb(255,238,207)" fill-opacity="1" d=" M8.638999938964844,0 C8.638999938964844,-4.770999908447266 4.770999908447266,-8.638999938964844 0,-8.638999938964844 C-4.770999908447266,-8.638999938964844 -8.638999938964844,-4.770999908447266 -8.638999938964844,0 C-8.638999938964844,4.770999908447266 -4.770999908447266,8.638999938964844 0,8.638999938964844 C4.770999908447266,8.638999938964844 8.638999938964844,4.770999908447266 8.638999938964844,0z"></path></g><g opacity="1" transform="matrix(1,0,0,1,122.1510009765625,35.43600082397461)"><path fill="rgb(255,201,77)" fill-opacity="1" d=" M8.638999938964844,-0.0010000000474974513 C8.638999938964844,-4.771999835968018 4.770999908447266,-8.640000343322754 0,-8.640000343322754 C-4.770999908447266,-8.640000343322754 -8.638999938964844,-4.771999835968018 -8.638999938964844,-0.0010000000474974513 C-8.638999938964844,4.769999980926514 -4.770999908447266,8.640000343322754 0,8.640000343322754 C4.770999908447266,8.640000343322754 8.638999938964844,4.769999980926514 8.638999938964844,-0.0010000000474974513z"></path></g><g opacity="1" transform="matrix(1,0,0,1,94.60800170898438,41.891998291015625)"><path fill="rgb(255,201,77)" fill-opacity="1" d=" M8.638999938964844,0 C8.638999938964844,-4.770999908447266 4.770999908447266,-8.638999938964844 0,-8.638999938964844 C-4.770999908447266,-8.638999938964844 -8.638999938964844,-4.770999908447266 -8.638999938964844,0 C-8.638999938964844,4.770999908447266 -4.770999908447266,8.638999938964844 0,8.638999938964844 C4.770999908447266,8.638999938964844 8.638999938964844,4.770999908447266 8.638999938964844,0z"></path></g><g opacity="1" transform="matrix(1,0,0,1,108.28299713134766,40.082000732421875)"><path fill="rgb(255,238,207)" fill-opacity="1" d=" M8.638999938964844,0 C8.638999938964844,-4.770999908447266 4.770999908447266,-8.640000343322754 0,-8.640000343322754 C-4.770999908447266,-8.640000343322754 -8.638999938964844,-4.770999908447266 -8.638999938964844,0 C-8.638999938964844,4.770999908447266 -4.770999908447266,8.640000343322754 0,8.640000343322754 C4.770999908447266,8.640000343322754 8.638999938964844,4.770999908447266 8.638999938964844,0z"></path></g><g opacity="1" transform="matrix(1,0,0,1,129.16400146484375,47.301998138427734)"><path fill="rgb(255,238,207)" fill-opacity="1" d=" M8.638999938964844,-0.0010000000474974513 C8.638999938964844,-4.771999835968018 4.770999908447266,-8.640000343322754 0,-8.640000343322754 C-4.770999908447266,-8.640000343322754 -8.638999938964844,-4.771999835968018 -8.638999938964844,-0.0010000000474974513 C-8.638999938964844,4.769999980926514 -4.770999908447266,8.640000343322754 0,8.640000343322754 C4.770999908447266,8.640000343322754 8.638999938964844,4.769999980926514 8.638999938964844,-0.0010000000474974513z"></path></g><g opacity="1" transform="matrix(1,0,0,1,120.5250015258789,49.79199981689453)"><path fill="rgb(255,201,77)" fill-opacity="1" d=" M8.638999938964844,0 C8.638999938964844,-4.770999908447266 4.770999908447266,-8.638999938964844 0,-8.638999938964844 C-4.770999908447266,-8.638999938964844 -8.638999938964844,-4.770999908447266 -8.638999938964844,0 C-8.638999938964844,4.770999908447266 -4.770999908447266,8.638999938964844 0,8.638999938964844 C4.770999908447266,8.638999938964844 8.638999938964844,4.770999908447266 8.638999938964844,0z"></path></g><g opacity="1" transform="matrix(1,0,0,1,134.41900634765625,55.939998626708984)"><path fill="rgb(255,201,77)" fill-opacity="1" d=" M8.638999938964844,0 C8.638999938964844,-4.770999908447266 4.770999908447266,-8.640000343322754 0,-8.640000343322754 C-4.770999908447266,-8.640000343322754 -8.638999938964844,-4.770999908447266 -8.638999938964844,0 C-8.638999938964844,4.770999908447266 -4.770999908447266,8.640000343322754 0,8.640000343322754 C4.770999908447266,8.640000343322754 8.638999938964844,4.770999908447266 8.638999938964844,0z"></path></g><g opacity="1" transform="matrix(1,0,0,1,107.90399932861328,50.53099822998047)"><path fill="rgb(255,201,77)" fill-opacity="1" d=" M8.638999938964844,-0.0010000000474974513 C8.638999938964844,-4.771999835968018 4.770999908447266,-8.640000343322754 0,-8.640000343322754 C-4.770999908447266,-8.640000343322754 -8.638999938964844,-4.771999835968018 -8.638999938964844,-0.0010000000474974513 C-8.638999938964844,4.769999980926514 -4.770999908447266,8.640000343322754 0,8.640000343322754 C4.770999908447266,8.640000343322754 8.638999938964844,4.769999980926514 8.638999938964844,-0.0010000000474974513z"></path></g><g opacity="1" transform="matrix(1,0,0,1,96.53800201416016,53.301998138427734)"><path fill="rgb(255,238,207)" fill-opacity="1" d=" M8.638999938964844,0 C8.638999938964844,-4.770999908447266 4.770999908447266,-8.638999938964844 0,-8.638999938964844 C-4.770999908447266,-8.638999938964844 -8.638999938964844,-4.770999908447266 -8.638999938964844,0 C-8.638999938964844,4.770999908447266 -4.770999908447266,8.638999938964844 0,8.638999938964844 C4.770999908447266,8.638999938964844 8.638999938964844,4.770999908447266 8.638999938964844,0z"></path></g><g opacity="1" transform="matrix(1,0,0,1,82.18499755859375,50.53099822998047)"><path fill="rgb(255,201,77)" fill-opacity="1" d=" M8.638999938964844,-0.0010000000474974513 C8.638999938964844,-4.771999835968018 4.770999908447266,-8.640000343322754 0,-8.640000343322754 C-4.770999908447266,-8.640000343322754 -8.638999938964844,-4.771999835968018 -8.638999938964844,-0.0010000000474974513 C-8.638999938964844,4.769999980926514 -4.770999908447266,8.640000343322754 0,8.640000343322754 C4.770999908447266,8.640000343322754 8.638999938964844,4.769999980926514 8.638999938964844,-0.0010000000474974513z"></path></g></g></g><g transform="matrix(0.3330000042915344,0,0,0.3330000042915344,13.189167022705078,-2.448195695877075)" opacity="1" style="display: block;"><g opacity="1" transform="matrix(1,0,0,1,105.177001953125,35.43600082397461)"><path stroke-linecap="butt" stroke-linejoin="miter" fill-opacity="0" stroke-miterlimit="10" stroke="rgb(251,176,21)" stroke-opacity="1" stroke-width="6" d=" M61.35300064086914,21.92300033569336 C61.35300064086914,21.92300033569336 -61.35300064086914,21.92300033569336 -61.35300064086914,21.92300033569336 C-61.35300064086914,21.92300033569336 61.35300064086914,21.92300033569336 61.35300064086914,21.92300033569336z"></path></g></g><g transform="matrix(0.3330000042915344,0,0,0.3330000042915344,13.189167022705078,-2.448195695877075)" opacity="1" style="display: block;"><g opacity="1" transform="matrix(1,0,0,1,105.177001953125,35.43600082397461)"><path stroke-linecap="butt" stroke-linejoin="miter" fill-opacity="0" stroke-miterlimit="10" stroke="rgb(251,176,21)" stroke-opacity="1" stroke-width="5.4" d=" M61.35300064086914,21.92300033569336 C61.35300064086914,21.92300033569336 -61.35300064086914,21.92300033569336 -61.35300064086914,21.92300033569336 C-61.35300064086914,21.92300033569336 -61.35300064086914,-8.621000289916992 -61.35300064086914,-8.621000289916992 C-61.35300064086914,-15.968000411987305 -55.39699935913086,-21.92300033569336 -48.04999923706055,-21.92300033569336 C-48.04999923706055,-21.92300033569336 48.05099868774414,-21.92300033569336 48.05099868774414,-21.92300033569336 C55.39699935913086,-21.92300033569336 61.35300064086914,-15.968000411987305 61.35300064086914,-8.621000289916992 C61.35300064086914,-8.621000289916992 61.35300064086914,21.92300033569336 61.35300064086914,21.92300033569336z"></path></g><g opacity="1" transform="matrix(1,0,0,1,105.177001953125,13.51200008392334)"><path fill="rgb(175,154,166)" fill-opacity="1" d=" M-15.59000015258789,-5.021999835968018 C-15.59000015258789,-5.021999835968018 15.59000015258789,-5.021999835968018 15.59000015258789,-5.021999835968018 C15.59000015258789,-5.021999835968018 15.59000015258789,5.021999835968018 15.59000015258789,5.021999835968018 C15.59000015258789,5.021999835968018 -15.59000015258789,5.021999835968018 -15.59000015258789,5.021999835968018 C-15.59000015258789,5.021999835968018 -15.59000015258789,-5.021999835968018 -15.59000015258789,-5.021999835968018z"></path></g></g><g transform="matrix(-0.0755983367562294,-0.18494576215744019,0.18494576215744019,-0.0755983367562294,36.21384811401367,21.81938362121582)" opacity="0.03433910665246003" style="display: none;"><g opacity="1" transform="matrix(1,0,0,1,34.49399948120117,34.494998931884766)"><path fill="rgb(255,246,228)" fill-opacity="1" d=" M1.8980000019073486,0.02800000086426735 C2.303999900817871,-27.270000457763672 1.5570000410079956,-34.2140007019043 0.5080000162124634,-34.229000091552734 C-0.5400000214576721,-34.244998931884766 -1.4930000305175781,-27.325000762939453 -1.8990000486373901,-0.02800000086426735 C-2.303999900817871,27.270000457763672 -1.5570000410079956,34.2140007019043 -0.5090000033378601,34.229000091552734 C0.5400000214576721,34.244998931884766 1.4919999837875366,27.325000762939453 1.8980000019073486,0.02800000086426735z"></path></g><g opacity="1" transform="matrix(1,0,0,1,34.49399948120117,34.494998931884766)"><path fill="rgb(255,246,228)" fill-opacity="1" d=" M0.02800000086426735,-1.8990000486373901 C-27.268999099731445,-2.305000066757202 -34.2130012512207,-1.5579999685287476 -34.229000091552734,-0.5090000033378601 C-34.24399948120117,0.5389999747276306 -27.326000213623047,1.4930000305175781 -0.028999999165534973,1.8980000019073486 C27.268999099731445,2.305000066757202 34.2130012512207,1.5579999685287476 34.22800064086914,0.5090000033378601 C34.24399948120117,-0.5389999747276306 27.326000213623047,-1.4930000305175781 0.02800000086426735,-1.8990000486373901z"></path></g></g><g transform="matrix(-0.050398893654346466,-0.12329717725515366,0.12329717725515366,-0.050398893654346466,60.614627838134766,19.656147003173828)" opacity="0.03433910665246003" style="display: none;"><g opacity="1" transform="matrix(1,0,0,1,34.49399948120117,34.494998931884766)"><path fill="rgb(255,246,229)" fill-opacity="1" d=" M1.8980000019073486,0.02800000086426735 C2.303999900817871,-27.270000457763672 1.5570000410079956,-34.2140007019043 0.5080000162124634,-34.229000091552734 C-0.5400000214576721,-34.244998931884766 -1.4930000305175781,-27.325000762939453 -1.8990000486373901,-0.02800000086426735 C-2.303999900817871,27.270000457763672 -1.5570000410079956,34.2140007019043 -0.5090000033378601,34.229000091552734 C0.5400000214576721,34.244998931884766 1.4919999837875366,27.325000762939453 1.8980000019073486,0.02800000086426735z"></path></g><g opacity="1" transform="matrix(1,0,0,1,34.49399948120117,34.494998931884766)"><path fill="rgb(255,246,229)" fill-opacity="1" d=" M0.02800000086426735,-1.8990000486373901 C-27.268999099731445,-2.305000066757202 -34.2130012512207,-1.5579999685287476 -34.229000091552734,-0.5090000033378601 C-34.24399948120117,0.5389999747276306 -27.326000213623047,1.4930000305175781 -0.028999999165534973,1.8980000019073486 C27.268999099731445,2.305000066757202 34.2130012512207,1.5579999685287476 34.22800064086914,0.5090000033378601 C34.24399948120117,-0.5389999747276306 27.326000213623047,-1.4930000305175781 0.02800000086426735,-1.8990000486373901z"></path></g></g><g transform="matrix(-0.050398893654346466,-0.12329717725515366,0.12329717725515366,-0.050398893654346466,51.12412643432617,13.82864761352539)" opacity="0.03433910665246003" style="display: none;"><g opacity="1" transform="matrix(1,0,0,1,34.49399948120117,34.494998931884766)"><path fill="rgb(255,246,229)" fill-opacity="1" d=" M1.8980000019073486,0.02800000086426735 C2.303999900817871,-27.270000457763672 1.5570000410079956,-34.2140007019043 0.5080000162124634,-34.229000091552734 C-0.5400000214576721,-34.244998931884766 -1.4930000305175781,-27.325000762939453 -1.8990000486373901,-0.02800000086426735 C-2.303999900817871,27.270000457763672 -1.5570000410079956,34.2140007019043 -0.5090000033378601,34.229000091552734 C0.5400000214576721,34.244998931884766 1.4919999837875366,27.325000762939453 1.8980000019073486,0.02800000086426735z"></path></g><g opacity="1" transform="matrix(1,0,0,1,34.49399948120117,34.494998931884766)"><path fill="rgb(255,246,229)" fill-opacity="1" d=" M0.02800000086426735,-1.8990000486373901 C-27.268999099731445,-2.305000066757202 -34.2130012512207,-1.5579999685287476 -34.229000091552734,-0.5090000033378601 C-34.24399948120117,0.5389999747276306 -27.326000213623047,1.4930000305175781 -0.028999999165534973,1.8980000019073486 C27.268999099731445,2.305000066757202 34.2130012512207,1.5579999685287476 34.22800064086914,0.5090000033378601 C34.24399948120117,-0.5389999747276306 27.326000213623047,-1.4930000305175781 0.02800000086426735,-1.8990000486373901z"></path></g></g><g transform="matrix(0.1663735955953598,0.006486685946583748,-0.006486685946583748,0.1663735955953598,40.298038482666016,30.179534912109375)" opacity="0.03433910665246012" style="display: none;"><g opacity="1" transform="matrix(1,0,0,1,34.49399948120117,34.494998931884766)"><path fill="rgb(255,246,229)" fill-opacity="1" d=" M1.8980000019073486,0.02800000086426735 C2.303999900817871,-27.270000457763672 1.5570000410079956,-34.2140007019043 0.5080000162124634,-34.229000091552734 C-0.5400000214576721,-34.244998931884766 -1.4930000305175781,-27.325000762939453 -1.8990000486373901,-0.02800000086426735 C-2.303999900817871,27.270000457763672 -1.5570000410079956,34.2140007019043 -0.5090000033378601,34.229000091552734 C0.5400000214576721,34.244998931884766 1.4919999837875366,27.325000762939453 1.8980000019073486,0.02800000086426735z"></path></g><g opacity="1" transform="matrix(1,0,0,1,34.49399948120117,34.494998931884766)"><path fill="rgb(255,246,229)" fill-opacity="1" d=" M0.02800000086426735,-1.8990000486373901 C-27.268999099731445,-2.305000066757202 -34.2130012512207,-1.5579999685287476 -34.229000091552734,-0.5090000033378601 C-34.24399948120117,0.5389999747276306 -27.326000213623047,1.4930000305175781 -0.028999999165534973,1.8980000019073486 C27.268999099731445,2.305000066757202 34.2130012512207,1.5579999685287476 34.22800064086914,0.5090000033378601 C34.24399948120117,-0.5389999747276306 27.326000213623047,-1.4930000305175781 0.02800000086426735,-1.8990000486373901z"></path></g></g></g></svg>