<svg xmlns="http://www.w3.org/2000/svg" viewBox="0 0 42 44" width="42" height="44" preserveAspectRatio="xMidYMid meet" style="width: 100%; height: 100%; transform: translate3d(0px, 0px, 0px); content-visibility: visible;"><defs><clipPath id="__lottie_element_1544"><rect width="42" height="44" x="0" y="0"></rect></clipPath><mask id="__lottie_element_1558" mask-type="alpha"><g transform="matrix(-0.266400009393692,0,0,0.266400009393692,36.343441009521484,-0.7826605439186096)" opacity="1" style="display: block;"><g opacity="1" transform="matrix(1,0,0,1,11.531999588012695,37.6609992980957)"><path fill="rgb(255,0,0)" fill-opacity="1" d=" M3.2760000228881836,-10.138999938964844 C3.2760000228881836,-10.138999938964844 47.40700149536133,-10.138999938964844 47.40700149536133,-10.138999938964844 C47.40700149536133,-10.138999938964844 62.03200149536133,10.26099967956543 62.03200149536133,10.26099967956543 C62.03200149536133,10.26099967956543 -11.281999588012695,10.138999938964844 -11.281999588012695,10.138999938964844 C-11.281999588012695,10.138999938964844 3.2760000228881836,-10.138999938964844 3.2760000228881836,-10.138999938964844z"></path></g></g></mask></defs><g clip-path="url(#__lottie_element_1544)"><g transform="matrix(-0.266400009393692,0,0,0.266400009393692,36.343441009521484,-0.7826605439186096)" opacity="1" style="display: block;"><g opacity="1" transform="matrix(1,0,0,1,55.108001708984375,42.73699951171875)"><path fill="rgb(139,124,141)" fill-opacity="1" d=" M-18.285999298095703,-5.072000026702881 C-18.285999298095703,-5.072000026702881 18.285999298095703,-5.072000026702881 18.285999298095703,-5.072000026702881 C18.285999298095703,-5.072000026702881 18.285999298095703,5.072000026702881 18.285999298095703,5.072000026702881 C18.285999298095703,5.072000026702881 -18.285999298095703,5.072000026702881 -18.285999298095703,5.072000026702881 C-18.285999298095703,5.072000026702881 -18.285999298095703,-5.072000026702881 -18.285999298095703,-5.072000026702881z"></path></g><g opacity="1" transform="matrix(1,0,0,1,76.5260009765625,45.65599822998047)"><path fill="rgb(78,67,95)" fill-opacity="1" d=" M-3.131999969482422,-7.991000175476074 C-3.131999969482422,-7.991000175476074 -3.131999969482422,-7.991000175476074 -3.131999969482422,-7.991000175476074 C-3.131999969482422,-7.991000175476074 -3.131999969482422,7.991000175476074 -3.131999969482422,7.991000175476074 C0.328000009059906,7.991000175476074 3.131999969482422,5.186999797821045 3.131999969482422,1.7269999980926514 C3.131999969482422,1.7269999980926514 3.131999969482422,-1.7269999980926514 3.131999969482422,-1.7269999980926514 C3.131999969482422,-5.185999870300293 0.328000009059906,-7.991000175476074 -3.131999969482422,-7.991000175476074z"></path></g></g><g transform="matrix(-0.266400009393692,0,0,0.266400009393692,36.343441009521484,-0.7826605439186096)" opacity="1" style="display: none;"><g opacity="1" transform="matrix(1,0,0,1,55.108001708984375,42.73699951171875)"><path fill="rgb(139,124,141)" fill-opacity="1" d=" M-18.285999298095703,-5.072000026702881 C-18.285999298095703,-5.072000026702881 18.285999298095703,-5.072000026702881 18.285999298095703,-5.072000026702881 C18.285999298095703,-5.072000026702881 18.285999298095703,5.072000026702881 18.285999298095703,5.072000026702881 C18.285999298095703,5.072000026702881 -18.285999298095703,5.072000026702881 -18.285999298095703,5.072000026702881 C-18.285999298095703,5.072000026702881 -18.285999298095703,-5.072000026702881 -18.285999298095703,-5.072000026702881z"></path></g><g opacity="1" transform="matrix(1,0,0,1,76.5260009765625,45.65599822998047)"><path fill="rgb(78,67,95)" fill-opacity="1" d=" M-3.131999969482422,-7.991000175476074 C-3.131999969482422,-7.991000175476074 -3.131999969482422,-7.991000175476074 -3.131999969482422,-7.991000175476074 C-3.131999969482422,-7.991000175476074 -3.131999969482422,7.991000175476074 -3.131999969482422,7.991000175476074 C0.328000009059906,7.991000175476074 3.131999969482422,5.186999797821045 3.131999969482422,1.7269999980926514 C3.131999969482422,1.7269999980926514 3.131999969482422,-1.7269999980926514 3.131999969482422,-1.7269999980926514 C3.131999969482422,-5.185999870300293 0.328000009059906,-7.991000175476074 -3.131999969482422,-7.991000175476074z"></path></g></g><g transform="matrix(-0.266400009393692,0,0,0.266400009393692,36.343441009521484,-0.7826605439186096)" opacity="1" style="display: block;"><g opacity="1" transform="matrix(1,0,0,1,62.108001708984375,37.6609992980957)"><path fill="rgb(213,195,205)" fill-opacity="1" d=" M11.281000137329102,10.137999534606934 C11.281000137329102,10.137999534606934 -20.655000686645508,-10.137999534606934 -20.655000686645508,-10.137999534606934 C-20.655000686645508,-10.137999534606934 -3.2750000953674316,-10.137999534606934 -3.2750000953674316,-10.137999534606934 C-3.2750000953674316,-10.137999534606934 11.281000137329102,10.137999534606934 11.281000137329102,10.137999534606934z"></path></g><g opacity="1" transform="matrix(1,0,0,1,11.531999588012695,37.6609992980957)"><path fill="rgb(213,195,205)" fill-opacity="1" d=" M3.2760000228881836,-10.138999938964844 C3.2760000228881836,-10.138999938964844 19.875999450683594,-10.137999534606934 19.875999450683594,-10.137999534606934 C19.875999450683594,-10.137999534606934 -11.281999588012695,10.138999938964844 -11.281999588012695,10.138999938964844 C-11.281999588012695,10.138999938964844 3.2760000228881836,-10.138999938964844 3.2760000228881836,-10.138999938964844z"></path></g><g opacity="1" transform="matrix(1,0,0,1,0,0)"><path stroke-linecap="round" stroke-linejoin="round" fill-opacity="0" stroke="rgb(149,133,150)" stroke-opacity="1" stroke-width="5" d=" M27.084999084472656,37.2239990234375 C27.084999084472656,37.2239990234375 27.084999084472656,12.5 27.084999084472656,12.5"></path></g><g opacity="1" transform="matrix(1,0,0,1,36.82600021362305,55.37900161743164)"><path fill="rgb(139,124,141)" fill-opacity="1" d=" M6.561999797821045,16.57900047302246 C6.561999797821045,16.57900047302246 6.561999797821045,-7.578999996185303 6.561999797821045,-7.578999996185303 C6.561999797821045,-7.578999996185303 -6.561999797821045,-7.578999996185303 -6.561999797821045,-7.578999996185303 C-6.561999797821045,-7.578999996185303 -6.561999797821045,16.57900047302246 -6.561999797821045,16.57900047302246 C-6.561999797821045,16.57900047302246 6.561999797821045,16.57900047302246 6.561999797821045,16.57900047302246z"></path></g><g opacity="1" transform="matrix(1,0,0,1,36.821998596191406,50.72700119018555)"><path fill="rgb(78,67,95)" fill-opacity="1" d=" M36.571998596191406,-2.9189999103546143 C36.571998596191406,-2.9189999103546143 -36.571998596191406,-2.9189999103546143 -36.571998596191406,-2.9189999103546143 C-36.571998596191406,-2.9189999103546143 -36.571998596191406,2.9189999103546143 -36.571998596191406,2.9189999103546143 C-36.571998596191406,2.9189999103546143 36.571998596191406,2.9189999103546143 36.571998596191406,2.9189999103546143 C36.571998596191406,2.9189999103546143 36.571998596191406,-2.9189999103546143 36.571998596191406,-2.9189999103546143z"></path></g><g opacity="1" transform="matrix(1,0,0,1,36.821998596191406,37.66600036621094)"><path fill="rgb(212,195,206)" fill-opacity="1" d=" M36.571998596191406,10.142999649047852 C36.571998596191406,10.142999649047852 -36.571998596191406,10.142999649047852 -36.571998596191406,10.142999649047852 C-36.571998596191406,10.142999649047852 -14.001999855041504,-10.142999649047852 -14.001999855041504,-10.142999649047852 C-14.001999855041504,-10.142999649047852 14.005000114440918,-10.142999649047852 14.005000114440918,-10.142999649047852 C14.005000114440918,-10.142999649047852 36.571998596191406,10.142999649047852 36.571998596191406,10.142999649047852z"></path></g></g><g mask="url(#__lottie_element_1558)" style="display: block;"><g transform="matrix(-0.266400009393692,0,0,0.266400009393692,36.343441009521484,-0.7826605439186096)" opacity="1"><g opacity="1" transform="matrix(1,0,0,1,62.108001708984375,37.6609992980957)"><path fill="rgb(17,128,194)" fill-opacity="1" d=" M11.281000137329102,10.137999534606934 C11.281000137329102,10.137999534606934 11.300000190734863,10.17199993133545 11.300000190734863,10.17199993133545 C11.300000190734863,10.17199993133545 -11.281000137329102,-10.137999534606934 -11.281000137329102,-10.137999534606934 C-11.281000137329102,-10.137999534606934 -3.2750000953674316,-10.137999534606934 -3.2750000953674316,-10.137999534606934 C-3.2750000953674316,-10.137999534606934 11.281000137329102,10.137999534606934 11.281000137329102,10.137999534606934z"></path></g><g opacity="1" transform="matrix(1,0,0,1,36.823001861572266,37.6609992980957)"><path fill="rgb(194,172,185)" fill-opacity="1" d=" M14.005000114440918,-10.138999938964844 C14.005000114440918,-10.138999938964844 0,10.138999938964844 0,10.138999938964844 C0,10.138999938964844 -14.005000114440918,-10.138999938964844 -14.005000114440918,-10.138999938964844 C-14.005000114440918,-10.138999938964844 14.005000114440918,-10.138999938964844 14.005000114440918,-10.138999938964844z"></path></g><g opacity="1" transform="matrix(1,0,0,1,11.531999588012695,37.6609992980957)"><path fill="rgb(17,128,194)" fill-opacity="1" d=" M3.2760000228881836,-10.138999938964844 C3.2760000228881836,-10.138999938964844 11.281999588012695,-10.138999938964844 11.281999588012695,-10.138999938964844 C11.281999588012695,-10.138999938964844 -11.281999588012695,10.138999938964844 -11.281999588012695,10.138999938964844 C-11.281999588012695,10.138999938964844 3.2760000228881836,-10.138999938964844 3.2760000228881836,-10.138999938964844z"></path></g></g></g><g transform="matrix(-0.266400009393692,0,0,0.266400009393692,36.343441009521484,-0.7826605439186096)" opacity="1" style="display: block;"><g opacity="1" transform="matrix(1,0,0,1,32.757999420166016,109.69100189208984)"><path fill="rgb(139,124,141)" fill-opacity="1" d=" M-21.645000457763672,20.893999099731445 C-21.645000457763672,20.893999099731445 -19.10300064086914,-20.893999099731445 -19.10300064086914,-20.893999099731445 C-19.10300064086914,-20.893999099731445 21.645000457763672,-20.893999099731445 21.645000457763672,-20.893999099731445 C21.645000457763672,-20.893999099731445 21.645000457763672,20.893999099731445 21.645000457763672,20.893999099731445 C21.645000457763672,20.893999099731445 -21.645000457763672,20.893999099731445 -21.645000457763672,20.893999099731445z"></path></g><g opacity="1" transform="matrix(1,0,0,1,45.3390007019043,143.96200561523438)"><path fill="rgb(78,67,95)" fill-opacity="1" d=" M34.862998962402344,-4.88100004196167 C34.862998962402344,-4.88100004196167 -34.862998962402344,-4.88100004196167 -34.862998962402344,-4.88100004196167 C-34.862998962402344,-4.88100004196167 -34.862998962402344,4.88100004196167 -34.862998962402344,4.88100004196167 C-34.862998962402344,4.88100004196167 34.862998962402344,4.88100004196167 34.862998962402344,4.88100004196167 C34.862998962402344,4.88100004196167 34.862998962402344,-4.88100004196167 34.862998962402344,-4.88100004196167z"></path></g><g opacity="1" transform="matrix(1,0,0,1,45.33599853515625,99.91000366210938)"><path fill="rgb(212,195,206)" fill-opacity="1" d=" M-39.86600112915039,41.1349983215332 C-39.86600112915039,41.1349983215332 -38.457000732421875,17.975000381469727 -38.457000732421875,17.975000381469727 C-38.361000061035156,16.391000747680664 -37.04999923706055,15.156999588012695 -35.4640007019043,15.156999588012695 C-35.4640007019043,15.156999588012695 -28.68600082397461,15.156999588012695 -28.68600082397461,15.156999588012695 C-28.68600082397461,15.156999588012695 -24.645999908447266,10.404000282287598 -24.645999908447266,10.404000282287598 C-24.645999908447266,10.404000282287598 4.089000225067139,10.404000282287598 4.089000225067139,10.404000282287598 C4.089000225067139,10.404000282287598 4.089000225067139,5.4039998054504395 4.089000225067139,5.4039998054504395 C4.089000225067139,5.4039998054504395 -24.645999908447266,5.4039998054504395 -24.645999908447266,5.4039998054504395 C-24.645999908447266,5.4039998054504395 -28.68600082397461,0.6510000228881836 -28.68600082397461,0.6510000228881836 C-28.68600082397461,0.6510000228881836 -34.215999603271484,0.6510000228881836 -34.215999603271484,0.6510000228881836 C-35.944000244140625,0.6510000228881836 -37.316001892089844,-0.8059999942779541 -37.21099853515625,-2.5320000648498535 C-37.21099853515625,-2.5320000648498535 -35.14899826049805,-36.44200134277344 -35.14899826049805,-36.44200134277344 C-34.987998962402344,-39.08000183105469 -32.80099868774414,-41.13800048828125 -30.156999588012695,-41.13800048828125 C-30.156999588012695,-41.13800048828125 13.130000114440918,-41.138999938964844 13.130000114440918,-41.138999938964844 C15.77400016784668,-41.138999938964844 17.959999084472656,-39.082000732421875 18.1200008392334,-36.44300079345703 C18.1200008392334,-36.44300079345703 22.141000747680664,29.67300033569336 22.141000747680664,29.67300033569336 C22.141000747680664,29.67300033569336 36.57899856567383,34.93600082397461 36.57899856567383,34.93600082397461 C38.553001403808594,35.65599822998047 39.86800003051758,37.53200149536133 39.86800003051758,39.63399887084961 C39.86800003051758,39.63399887084961 39.86800003051758,41.13800048828125 39.86800003051758,41.13800048828125 C39.86800003051758,41.13800048828125 -39.86800003051758,41.138999938964844 -39.86800003051758,41.138999938964844 C-39.86800003051758,41.138999938964844 -39.86600112915039,41.1349983215332 -39.86600112915039,41.1349983215332z"></path></g><g opacity="1" transform="matrix(1,0,0,1,45.3380012512207,156.60400390625)"><path fill="rgb(139,124,141)" fill-opacity="1" d=" M36.867000579833984,-9.722000122070312 C36.867000579833984,-9.722000122070312 -36.867000579833984,-9.722000122070312 -36.867000579833984,-9.722000122070312 C-38.52399826049805,-9.722000122070312 -39.867000579833984,-8.378999710083008 -39.867000579833984,-6.7220001220703125 C-39.867000579833984,-6.7220001220703125 -39.867000579833984,6.7220001220703125 -39.867000579833984,6.7220001220703125 C-39.867000579833984,8.378999710083008 -38.52399826049805,9.722000122070312 -36.867000579833984,9.722000122070312 C-36.867000579833984,9.722000122070312 36.867000579833984,9.722000122070312 36.867000579833984,9.722000122070312 C38.52399826049805,9.722000122070312 39.867000579833984,8.378999710083008 39.867000579833984,6.7220001220703125 C39.867000579833984,6.7220001220703125 39.867000579833984,-6.7220001220703125 39.867000579833984,-6.7220001220703125 C39.867000579833984,-8.378999710083008 38.52399826049805,-9.722000122070312 36.867000579833984,-9.722000122070312z"></path></g><g opacity="1" transform="matrix(1,0,0,1,65.18000030517578,99.90699768066406)"><path fill="rgb(194,172,185)" fill-opacity="1" d=" M20.02400016784668,41.13600158691406 C20.02400016784668,41.13600158691406 20.02400016784668,41.13600158691406 20.02400016784668,41.13600158691406 C20.02400016784668,41.13600158691406 -15.814000129699707,28.07200050354004 -15.814000129699707,28.07200050354004 C-15.814000129699707,28.07200050354004 -20.02400016784668,-41.13600158691406 -20.02400016784668,-41.13600158691406 C-20.02400016784668,-41.13600158691406 -6.714000225067139,-41.13600158691406 -6.714000225067139,-41.13600158691406 C-4.070000171661377,-41.13600158691406 -1.8839999437332153,-39.07899856567383 -1.7239999771118164,-36.439998626708984 C-1.7239999771118164,-36.439998626708984 2.296999931335449,29.676000595092773 2.296999931335449,29.676000595092773 C2.296999931335449,29.676000595092773 16.735000610351562,34.93899917602539 16.735000610351562,34.93899917602539 C18.709999084472656,35.65800094604492 20.02400016784668,37.53499984741211 20.02400016784668,39.63600158691406 C20.02400016784668,39.63600158691406 20.02400016784668,41.13600158691406 20.02400016784668,41.13600158691406z"></path></g><g opacity="1" transform="matrix(1,0,0,1,55.005001068115234,105.50599670410156)"><path fill="rgb(139,124,141)" fill-opacity="1" d=" M5.473999977111816,-25.177000045776367 C5.473999977111816,-25.177000045776367 8.536999702453613,25.177000045776367 8.536999702453613,25.177000045776367 C8.536999702453613,25.177000045776367 1.777999997138977,25.177000045776367 1.777999997138977,25.177000045776367 C1.777999997138977,25.177000045776367 -5.638999938964844,22.472999572753906 -5.638999938964844,22.472999572753906 C-5.638999938964844,22.472999572753906 -8.536999702453613,-25.177000045776367 -8.536999702453613,-25.177000045776367 C-8.536999702453613,-25.177000045776367 5.473999977111816,-25.177000045776367 5.473999977111816,-25.177000045776367z"></path></g><g opacity="1" transform="matrix(1,0,0,1,27.815000534057617,69.5510025024414)"><path fill="rgb(17,128,194)" fill-opacity="1" d=" M-13.343999862670898,5.77400016784668 C-13.343999862670898,5.77400016784668 -12.642000198364258,-5.77400016784668 -12.642000198364258,-5.77400016784668 C-12.642000198364258,-5.77400016784668 12.640999794006348,-5.77400016784668 12.640999794006348,-5.77400016784668 C12.640999794006348,-5.77400016784668 13.343999862670898,5.77400016784668 13.343999862670898,5.77400016784668 C13.343999862670898,5.77400016784668 -13.343999862670898,5.77400016784668 -13.343999862670898,5.77400016784668z"></path></g><g opacity="1" transform="matrix(1,0,0,1,23.743000030517578,86.97100067138672)"><path fill="rgb(194,172,185)" fill-opacity="1" d=" M-9.57699966430664,-6.642000198364258 C-9.57699966430664,-6.642000198364258 9.57699966430664,-6.642000198364258 9.57699966430664,-6.642000198364258 C9.57699966430664,-6.642000198364258 9.57699966430664,6.642000198364258 9.57699966430664,6.642000198364258 C9.57699966430664,6.642000198364258 -9.57699966430664,6.642000198364258 -9.57699966430664,6.642000198364258 C-9.57699966430664,6.642000198364258 -9.57699966430664,-6.642000198364258 -9.57699966430664,-6.642000198364258z"></path></g><g opacity="1" transform="matrix(1,0,0,1,23.743000030517578,82.02300262451172)"><path fill="rgb(78,67,95)" fill-opacity="1" d=" M-9.57699966430664,-1.6929999589920044 C-9.57699966430664,-1.6929999589920044 9.57699966430664,-1.6929999589920044 9.57699966430664,-1.6929999589920044 C9.57699966430664,-1.6929999589920044 9.57699966430664,1.6929999589920044 9.57699966430664,1.6929999589920044 C9.57699966430664,1.6929999589920044 -9.57699966430664,1.6929999589920044 -9.57699966430664,1.6929999589920044 C-9.57699966430664,1.6929999589920044 -9.57699966430664,-1.6929999589920044 -9.57699966430664,-1.6929999589920044z"></path></g></g><g transform="matrix(-0.266400009393692,0,0,0.266400009393692,26.777545928955078,0.8184043169021606)" opacity="1" style="display: none;"><g opacity="1" transform="matrix(1,0,0,1,30.034000396728516,39.125999450683594)"><path fill="rgb(78,67,94)" fill-opacity="1" d=" M3.203000068664551,-7.349999904632568 C3.203000068664551,-7.349999904632568 -3.2019999027252197,-7.349999904632568 -3.2019999027252197,-7.349999904632568 C-4.23799991607666,-7.349999904632568 -5.079999923706055,-6.508999824523926 -5.079999923706055,-5.4720001220703125 C-5.079999923706055,-5.4720001220703125 -5.079999923706055,5.4730000495910645 -5.079999923706055,5.4730000495910645 C-5.079999923706055,6.510000228881836 -4.23799991607666,7.349999904632568 -3.2019999027252197,7.349999904632568 C-3.2019999027252197,7.349999904632568 3.203000068664551,7.349999904632568 3.203000068664551,7.349999904632568 C4.239999771118164,7.349999904632568 5.079999923706055,6.510000228881836 5.079999923706055,5.4730000495910645 C5.079999923706055,5.4730000495910645 5.079999923706055,-5.4720001220703125 5.079999923706055,-5.4720001220703125 C5.079999923706055,-6.508999824523926 4.239999771118164,-7.349999904632568 3.203000068664551,-7.349999904632568z"></path></g><g opacity="1" transform="matrix(1,0,0,1,30.034000396728516,39.125)"><path fill="rgb(140,125,141)" fill-opacity="1" d=" M-3.0789999961853027,4.578999996185303 C-3.0789999961853027,4.578999996185303 3.0789999961853027,4.578999996185303 3.0789999961853027,4.578999996185303 C3.0789999961853027,4.578999996185303 3.0789999961853027,-4.578999996185303 3.0789999961853027,-4.578999996185303 C3.0789999961853027,-4.578999996185303 -3.0789999961853027,-4.578999996185303 -3.0789999961853027,-4.578999996185303 C-3.0789999961853027,-4.578999996185303 -3.0789999961853027,4.578999996185303 -3.0789999961853027,4.578999996185303z"></path></g></g><g transform="matrix(-0.266400009393692,0,0,0.266400009393692,26.777545928955078,0.8184043169021606)" opacity="1" style="display: none;"><g opacity="1" transform="matrix(1,0,0,1,42.11899948120117,39.125999450683594)"><path fill="rgb(97,194,237)" fill-opacity="1" d=" M4.578999996185303,0 C4.578999996185303,-2.5290000438690186 2.5290000438690186,-4.578999996185303 0,-4.578999996185303 C-2.5290000438690186,-4.578999996185303 -4.578999996185303,-2.5290000438690186 -4.578999996185303,0 C-4.578999996185303,2.5290000438690186 -2.5290000438690186,4.578999996185303 0,4.578999996185303 C2.5290000438690186,4.578999996185303 4.578999996185303,2.5290000438690186 4.578999996185303,0z"></path></g></g></g></svg>