<svg xmlns="http://www.w3.org/2000/svg" viewBox="0 0 165 108" width="165" height="108" preserveAspectRatio="xMidYMid meet" style="width: 100%; height: 100%; transform: translate3d(0px, 0px, 0px); content-visibility: visible;"><defs><clipPath id="__lottie_element_688"><rect width="165" height="108" x="0" y="0"></rect></clipPath></defs><g clip-path="url(#__lottie_element_688)"><g transform="matrix(0.3418707549571991,0.2563760578632355,-0.2702772319316864,0.36040759086608887,130.03302001953125,22.78700828552246)" opacity="1" style="display: block;"><g opacity="1" transform="matrix(0.29346999526023865,0,0,0.14337000250816345,0,0)"><path fill="rgb(51,186,157)" fill-opacity="1" d=" M50,-9 C50,-9 50,9 50,9 C50,31.643999099731445 31.643999099731445,50 9,50 C9,50 -9,50 -9,50 C-23.39699935913086,49.85100173950195 -40.66699981689453,42.025001525878906 -57.374000549316406,32.85200119018555 C-57.374000549316406,32.85200119018555 -59.12799835205078,-6.442999839782715 -59.12799835205078,-6.442999839782715 C-59.12799835205078,-29.086999893188477 -31.643999099731445,-50 -9,-50 C-9,-50 9,-50 9,-50 C31.643999099731445,-50 50,-31.643999099731445 50,-9z"></path></g></g><g transform="matrix(0.3330000042915344,0,0,0.3330000042915344,0.4125010371208191,4.631748199462891)" opacity="1" style="display: block;"><g opacity="1" transform="matrix(1,0,0,1,210.16299438476562,154.36900329589844)"><path fill="rgb(51,185,157)" fill-opacity="1" d=" M-209.91299438476562,154.11900329589844 C-202.8090057373047,131.26199340820312 -201.6699981689453,109.94300079345703 -194.21600341796875,87.51899719238281 C-186.79100036621094,65.18399810791016 -175.31199645996094,43.981998443603516 -159.4029998779297,26.538000106811523 C-138.38699340820312,3.494999885559082 -110.65899658203125,-16.437999725341797 -78.64299774169922,-18.839000701904297 C-43.65599822998047,-21.461999893188477 -15.522000312805176,-4.058000087738037 8.329999923706055,19.73699951171875 C19.884000778198242,31.26300048828125 41.6609992980957,49.310001373291016 54.5260009765625,44.507999420166016 C71.53800201416016,38.159000396728516 76.5510025024414,22.02899932861328 73.78800201416016,-1.2760000228881836 C70.15599822998047,-31.916000366210938 51.349998474121094,-103.04100036621094 86.78800201416016,-132.3249969482422 C113.16300201416016,-154.11900329589844 131.5540008544922,-150.6300048828125 154.41299438476562,-144.96600341796875 C158.16600036621094,-144.03599548339844 165.4219970703125,-145.05499267578125 169.03799438476562,-146.5989990234375 C175.9080047607422,-149.53199768066406 185.75999450683594,-148.41299438476562 192.66299438476562,-140.96600341796875 C209.66299438476562,-122.625 209.91299438476562,-97.34100341796875 206.24200439453125,-91.37300109863281 C205.42999267578125,-90.0530014038086 202.59800720214844,-88.13600158691406 201.20799255371094,-87.45099639892578 C179.4320068359375,-76.7040023803711 169.04800415039062,-97.8280029296875 159.95599365234375,-105.10199737548828 C147.3260040283203,-115.20700073242188 127.37799835205078,-115.46700286865234 114.51799774169922,-104.33499908447266 C103.19999694824219,-94.53900146484375 105.15499877929688,-71.07099914550781 108.46900177001953,-56.025001525878906 C117.2020034790039,-16.374000549316406 136.54400634765625,24.08799934387207 131.9980010986328,65.49099731445312 C127.93900299072266,102.45500183105469 105.68399810791016,136.947998046875 72.51100158691406,154.08700561523438 C72.51100158691406,154.08700561523438 -209.91299438476562,154.11900329589844 -209.91299438476562,154.11900329589844z"></path></g></g><g transform="matrix(0.3330000042915344,0,0,0.3330000042915344,100.14000701904297,3.6667160987854004)" opacity="1" style="display: block;"><g opacity="1" transform="matrix(1,0,0,1,39.98400115966797,11.451000213623047)"><path fill="rgb(235,230,204)" fill-opacity="1" d=" M19.80500030517578,3.260999917984009 C15.041999816894531,4.443999767303467 10.17300033569336,-0.4059999883174896 5.5,1.093999981880188 C2.884999990463257,1.9329999685287476 0.8370000123977661,4.63100004196167 -1.902999997138977,4.419000148773193 C-5.132999897003174,4.169000148773193 -7.369999885559082,0.8980000019073486 -10.784000396728516,1.1089999675750732 C-14.803999900817871,1.3580000400543213 -19.18000030517578,3.4570000171661377 -22.510000228881836,5.5970001220703125 C-25.465999603271484,7.497000217437744 -26.535999298095703,9.859000205993652 -29.9950008392334,9.241000175476074 C-34.6619987487793,8.407999992370605 -39.65299987792969,11.201000213623047 -39.65299987792969,11.201000213623047 C-39.73400115966797,5.974999904632568 -33.16999816894531,7.294000148773193 -24.266000747680664,-2.441999912261963 C-18.85700035095215,-8.355999946594238 -8.95199966430664,-7.958000183105469 -6.494999885559082,-7.508999824523926 C-1.190999984741211,-6.538000106811523 2.6510000228881836,-5.775000095367432 7.317999839782715,-7.775000095367432 C15.312000274658203,-11.201000213623047 19.676000595092773,-4.624000072479248 30.650999069213867,-1.9420000314712524 C34.4010009765625,-1.024999976158142 37.9010009765625,-2.8580000400543213 39.73400115966797,-0.7829999923706055 C39.73400115966797,-0.7829999923706055 38.99399948120117,1.2799999713897705 34.4109992980957,2.0920000076293945 C30.06100082397461,2.861999988555908 27.985000610351562,1.2300000190734863 19.80500030517578,3.260999917984009z"></path></g></g><g transform="matrix(0.3330000042915344,0,0,0.3330000042915344,35.04317092895508,46.23177719116211)" opacity="1" style="display: block;"><g opacity="1" transform="matrix(1,0,0,1,61.70000076293945,27.78700065612793)"><path fill="rgb(235,230,204)" fill-opacity="1" d=" M-29.615999221801758,-2.2060000896453857 C-27.783000946044922,-0.9739999771118164 -25.951000213623047,0.41999998688697815 -23.77899932861328,0.8180000185966492 C-18.909000396728516,1.7120000123977661 -14.743000030517578,-2.549999952316284 -10.038000106811523,-4.090000152587891 C-5.60699987411499,-5.539999961853027 -0.4189999997615814,-4.355999946594238 2.944000005722046,-1.1269999742507935 C4.7129998207092285,0.5699999928474426 6.150000095367432,2.868000030517578 8.51099967956543,3.5309998989105225 C10.213000297546387,4.008999824523926 12.005999565124512,3.4260001182556152 13.772000312805176,3.3310000896453857 C19.945999145507812,3 25.993999481201172,4.690999984741211 31.599000930786133,7.158999919891357 C36.74100112915039,9.42300033569336 40.516998291015625,12.338000297546387 43.645999908447266,16.916000366210938 C47.40700149536133,22.420000076293945 52.52899932861328,26.17099952697754 59.05400085449219,27.53700065612793 C61.44900131225586,23.91200065612793 50.7869987487793,17.559999465942383 48.87099838256836,11.289999961853027 C47.39699935913086,6.4670000076293945 43.53200149536133,3.746999979019165 39.762001037597656,1.871000051498413 C36.19499969482422,0.09700000286102295 34.16999816894531,-0.30399999022483826 31.47800064086914,-3.4000000953674316 C27.874000549316406,-7.546999931335449 24.77400016784668,-14.95300006866455 18.388999938964844,-15.090999603271484 C16.27199935913086,-15.13599967956543 14.258999824523926,-14.253000259399414 12.175999641418457,-13.875 C4.0229997634887695,-12.39799976348877 -0.08399999886751175,-18.291000366210938 -6.23799991607666,-22.013999938964844 C-9.616999626159668,-24.058000564575195 -15,-27.53700065612793 -19.149999618530273,-26.625 C-23.11400032043457,-25.753999710083008 -25.297000885009766,-22.461000442504883 -29.945999145507812,-22.065000534057617 C-45.970001220703125,-20.698999404907227 -61.44900131225586,-15.788000106811523 -61.44900131225586,-10.79800033569336 C-61.44900131225586,-10.79800033569336 -38.92300033569336,-8.41100025177002 -29.615999221801758,-2.2060000896453857z"></path></g></g><g transform="matrix(0.3330000042915344,0,0,0.3330000042915344,17.33555793762207,52.049285888671875)" opacity="1" style="display: block;"><g opacity="1" transform="matrix(1,0,0,1,23.558000564575195,18.024999618530273)"><path fill="rgb(235,230,204)" fill-opacity="1" d=" M-21.097000122070312,17.77400016784668 C-23.308000564575195,13.718999862670898 -15.843999862670898,7.339000225067139 -15.072999954223633,4.438000202178955 C-14.515000343322754,2.3399999141693115 -15.244999885559082,0.03799999877810478 -14.567999839782715,-2.0239999294281006 C-13.232999801635742,-6.085000038146973 -7.798999786376953,-6.63700008392334 -3.5290000438690186,-6.438000202178955 C-3.046999931335449,-6.414999961853027 -0.04699999839067459,-11.402999877929688 0.550000011920929,-12.005000114440918 C2.5880000591278076,-14.060999870300293 5.064000129699707,-15.312999725341797 7.843999862670898,-16.125 C13.484000205993652,-17.774999618530273 19.570999145507812,-16.825000762939453 23.308000564575195,-15.668999671936035 C23.308000564575195,-15.668999671936035 15.010000228881836,-11.335000038146973 12.73900032043457,-7.307000160217285 C9.956999778747559,-2.371999979019165 7.321000099182129,0.7789999842643738 3.690999984741211,0.9480000138282776 C2.986999988555908,0.9800000190734863 2.2699999809265137,0.8370000123977661 1.5850000381469727,1 C0.10100000351667404,1.3530000448226929 -0.6740000247955322,2.938999891281128 -1.3179999589920044,4.322000026702881 C-2.9140000343322754,7.755000114440918 -4.9079999923706055,11.001999855041504 -7.24399995803833,13.982000350952148 C-7.665999889373779,14.517999649047852 -8.154000282287598,15.083000183105469 -8.824999809265137,15.206000328063965 C-9.625,15.352999687194824 -10.373000144958496,14.829000473022461 -11.130000114440918,14.532999992370605 C-13.932999610900879,13.434000015258789 -19.148000717163086,15.479000091552734 -21.097000122070312,17.77400016784668z"></path></g></g><g transform="matrix(0.3330000042915344,0,0,0.3330000042915344,128.65113830566406,12.814558982849121)" opacity="1" style="display: block;"><g opacity="1" transform="matrix(0.039315175265073776,-0.024737009778618813,0.024737009778618813,0.039315175265073776,28.261999130249023,32.57099914550781)"><path fill="rgb(0,131,125)" fill-opacity="1" d=" M0,-56 C27.594999313354492,-56 50,-30.906400680541992 50,0 C50,30.906400680541992 27.594999313354492,56 0,56 C-27.594999313354492,56 -50,30.906400680541992 -50,0 C-50,-30.906400680541992 -27.594999313354492,-56 0,-56z"></path></g><g opacity="1" transform="matrix(0.3788500130176544,0,0,0.3788500130176544,7.289000034332275,7.202000141143799)"><path fill="rgb(0,131,125)" fill-opacity="1" d=" M19,0 C19,0 19,0 19,0 C19,10.486100196838379 10.486100196838379,19 0,19 C0,19 0,19 0,19 C-10.486100196838379,19 -19,10.486100196838379 -19,0 C-19,0 -19,0 -19,0 C-19,-10.486100196838379 -10.486100196838379,-19 0,-19 C0,-19 0,-19 0,-19 C10.486100196838379,-19 19,-10.486100196838379 19,0z"></path></g></g><g transform="matrix(0.3330000042915344,0,0,0.3330000042915344,126.96849060058594,19.644054412841797)" opacity="1" style="display: block;"><g opacity="1" transform="matrix(1,0,0,1,15.517999649047852,12.484999656677246)"><path fill="rgb(0,131,125)" fill-opacity="1" d=" M15.267999649047852,9.595999717712402 C13.682999610900879,9.63599967956543 12.121000289916992,9.473999977111816 10.638999938964844,8.876999855041504 C7.122000217437744,7.461999893188477 4.284999847412109,3.7950000762939453 1.281999945640564,-0.08699999749660492 C-2.265000104904175,-4.671000003814697 -5.932000160217285,-9.411999702453613 -11.473999977111816,-11.706000328063965 C-12.74899959564209,-12.234999656677246 -14.211999893188477,-11.628000259399414 -14.739999771118164,-10.35200023651123 C-15.267999649047852,-9.076000213623047 -14.663000106811523,-7.613999843597412 -13.38700008392334,-7.085999965667725 C-9.072999954223633,-5.300000190734863 -5.818999767303467,-1.0950000286102295 -2.6730000972747803,2.9719998836517334 C0.008999999612569809,6.439000129699707 2.7669999599456787,10.00100040435791 6.295000076293945,12.234999656677246 C9.053000450134277,11.963000297546387 12.036999702453613,11.12600040435791 15.267999649047852,9.595999717712402z"></path></g></g><g transform="matrix(0.3330000042915344,0,0,0.3330000042915344,131.27584838867188,26.50818634033203)" opacity="1" style="display: block;"><g opacity="1" transform="matrix(1,0,0,1,14.78600025177002,21.48200035095215)"><path fill="rgb(79,184,79)" fill-opacity="1" d=" M-5.71999979019165,-2.247999906539917 C-2.138000011444092,7.576000213623047 -5.8520002365112305,21.23200035095215 -5.8520002365112305,21.23200035095215 C3.759999990463257,13.07800006866455 3.236999988555908,2.7960000038146973 3.236999988555908,2.7960000038146973 C5.132999897003174,5.821000099182129 5.988999843597412,9.062999725341797 6.810999870300293,13.741000175476074 C14.536999702453613,-2.0269999504089355 3.063999891281128,-20.01300048828125 3.063999891281128,-20.01300048828125 C-2.7100000381469727,-17.507999420166016 -7.6519999504089355,-21.23200035095215 -7.6519999504089355,-21.23200035095215 C-7.6519999504089355,-21.23200035095215 -5.985000133514404,-17.81599998474121 -9.583999633789062,-12.461000442504883 C-13.505000114440918,-6.626999855041504 -14.536999702453613,2.4049999713897705 -12.03600025177002,7.642000198364258 C-12.03600025177002,7.642000198364258 -8.32800006866455,-0.3310000002384186 -5.71999979019165,-2.247999906539917z"></path></g></g><g transform="matrix(0,0,0,0,137.07421875,16.713260650634766)" opacity="1" style="display: none;"><g opacity="1" transform="matrix(1,0,0,1,-0.8550000190734863,38.14500045776367)"><path fill="rgb(204,221,242)" fill-opacity="1" d=" M0,-39.144500732421875 C21.603849411010742,-39.144500732421875 39.144500732421875,-21.603849411010742 39.144500732421875,0 C39.144500732421875,21.603849411010742 21.603849411010742,39.144500732421875 0,39.144500732421875 C-21.603849411010742,39.144500732421875 -39.144500732421875,21.603849411010742 -39.144500732421875,0 C-39.144500732421875,-21.603849411010742 -21.603849411010742,-39.144500732421875 0,-39.144500732421875z"></path><path stroke-linecap="butt" stroke-linejoin="miter" fill-opacity="0" stroke-miterlimit="4" stroke="rgb(175,175,175)" stroke-opacity="1" stroke-width="0" d=" M0,-39.144500732421875 C21.603849411010742,-39.144500732421875 39.144500732421875,-21.603849411010742 39.144500732421875,0 C39.144500732421875,21.603849411010742 21.603849411010742,39.144500732421875 0,39.144500732421875 C-21.603849411010742,39.144500732421875 -39.144500732421875,21.603849411010742 -39.144500732421875,0 C-39.144500732421875,-21.603849411010742 -21.603849411010742,-39.144500732421875 0,-39.144500732421875z"></path></g></g><g transform="matrix(0,0,0,0,139.2753448486328,15.753440856933594)" opacity="1" style="display: none;"><g opacity="1" transform="matrix(1,0,0,1,-0.8550000190734863,38.14500045776367)"><path fill="rgb(204,221,242)" fill-opacity="1" d=" M0,-39.144500732421875 C21.603849411010742,-39.144500732421875 39.144500732421875,-21.603849411010742 39.144500732421875,0 C39.144500732421875,21.603849411010742 21.603849411010742,39.144500732421875 0,39.144500732421875 C-21.603849411010742,39.144500732421875 -39.144500732421875,21.603849411010742 -39.144500732421875,0 C-39.144500732421875,-21.603849411010742 -21.603849411010742,-39.144500732421875 0,-39.144500732421875z"></path><path stroke-linecap="butt" stroke-linejoin="miter" fill-opacity="0" stroke-miterlimit="4" stroke="rgb(175,175,175)" stroke-opacity="1" stroke-width="0" d=" M0,-39.144500732421875 C21.603849411010742,-39.144500732421875 39.144500732421875,-21.603849411010742 39.144500732421875,0 C39.144500732421875,21.603849411010742 21.603849411010742,39.144500732421875 0,39.144500732421875 C-21.603849411010742,39.144500732421875 -39.144500732421875,21.603849411010742 -39.144500732421875,0 C-39.144500732421875,-21.603849411010742 -21.603849411010742,-39.144500732421875 0,-39.144500732421875z"></path></g></g><g transform="matrix(0,0,0,0,140.15867614746094,14.747601509094238)" opacity="1" style="display: none;"><g opacity="1" transform="matrix(1,0,0,1,-0.8550000190734863,38.14500045776367)"><path fill="rgb(204,221,242)" fill-opacity="1" d=" M0,-39.144500732421875 C21.603849411010742,-39.144500732421875 39.144500732421875,-21.603849411010742 39.144500732421875,0 C39.144500732421875,21.603849411010742 21.603849411010742,39.144500732421875 0,39.144500732421875 C-21.603849411010742,39.144500732421875 -39.144500732421875,21.603849411010742 -39.144500732421875,0 C-39.144500732421875,-21.603849411010742 -21.603849411010742,-39.144500732421875 0,-39.144500732421875z"></path><path stroke-linecap="butt" stroke-linejoin="miter" fill-opacity="0" stroke-miterlimit="4" stroke="rgb(175,175,175)" stroke-opacity="1" stroke-width="0" d=" M0,-39.144500732421875 C21.603849411010742,-39.144500732421875 39.144500732421875,-21.603849411010742 39.144500732421875,0 C39.144500732421875,21.603849411010742 21.603849411010742,39.144500732421875 0,39.144500732421875 C-21.603849411010742,39.144500732421875 -39.144500732421875,21.603849411010742 -39.144500732421875,0 C-39.144500732421875,-21.603849411010742 -21.603849411010742,-39.144500732421875 0,-39.144500732421875z"></path></g></g><g transform="matrix(0,0,0,0,137.7008514404297,16.311044692993164)" opacity="1" style="display: none;"><g opacity="1" transform="matrix(1,0,0,1,-0.8550000190734863,38.14500045776367)"><path fill="rgb(204,221,242)" fill-opacity="1" d=" M0,-39.144500732421875 C21.603849411010742,-39.144500732421875 39.144500732421875,-21.603849411010742 39.144500732421875,0 C39.144500732421875,21.603849411010742 21.603849411010742,39.144500732421875 0,39.144500732421875 C-21.603849411010742,39.144500732421875 -39.144500732421875,21.603849411010742 -39.144500732421875,0 C-39.144500732421875,-21.603849411010742 -21.603849411010742,-39.144500732421875 0,-39.144500732421875z"></path><path stroke-linecap="butt" stroke-linejoin="miter" fill-opacity="0" stroke-miterlimit="4" stroke="rgb(175,175,175)" stroke-opacity="1" stroke-width="0" d=" M0,-39.144500732421875 C21.603849411010742,-39.144500732421875 39.144500732421875,-21.603849411010742 39.144500732421875,0 C39.144500732421875,21.603849411010742 21.603849411010742,39.144500732421875 0,39.144500732421875 C-21.603849411010742,39.144500732421875 -39.144500732421875,21.603849411010742 -39.144500732421875,0 C-39.144500732421875,-21.603849411010742 -21.603849411010742,-39.144500732421875 0,-39.144500732421875z"></path></g></g><g transform="matrix(0,0,0,0,139.92977905273438,18.603612899780273)" opacity="1" style="display: none;"><g opacity="1" transform="matrix(1,0,0,1,-0.8550000190734863,38.14500045776367)"><path fill="rgb(204,221,242)" fill-opacity="1" d=" M0,-39.144500732421875 C21.603849411010742,-39.144500732421875 39.144500732421875,-21.603849411010742 39.144500732421875,0 C39.144500732421875,21.603849411010742 21.603849411010742,39.144500732421875 0,39.144500732421875 C-21.603849411010742,39.144500732421875 -39.144500732421875,21.603849411010742 -39.144500732421875,0 C-39.144500732421875,-21.603849411010742 -21.603849411010742,-39.144500732421875 0,-39.144500732421875z"></path><path stroke-linecap="butt" stroke-linejoin="miter" fill-opacity="0" stroke-miterlimit="4" stroke="rgb(175,175,175)" stroke-opacity="1" stroke-width="0" d=" M0,-39.144500732421875 C21.603849411010742,-39.144500732421875 39.144500732421875,-21.603849411010742 39.144500732421875,0 C39.144500732421875,21.603849411010742 21.603849411010742,39.144500732421875 0,39.144500732421875 C-21.603849411010742,39.144500732421875 -39.144500732421875,21.603849411010742 -39.144500732421875,0 C-39.144500732421875,-21.603849411010742 -21.603849411010742,-39.144500732421875 0,-39.144500732421875z"></path></g></g><g transform="matrix(-0.001940209767781198,0.0018092747777700424,-0.0018092747777700424,-0.001940209767781198,140.40737915039062,18.783832550048828)" opacity="1" style="display: none;"><g opacity="1" transform="matrix(1,0,0,1,-0.8550000190734863,38.14500045776367)"><path fill="rgb(204,221,242)" fill-opacity="1" d=" M0,-39.144500732421875 C21.603849411010742,-39.144500732421875 39.144500732421875,-21.603849411010742 39.144500732421875,0 C39.144500732421875,21.603849411010742 21.603849411010742,39.144500732421875 0,39.144500732421875 C-21.603849411010742,39.144500732421875 -39.144500732421875,21.603849411010742 -39.144500732421875,0 C-39.144500732421875,-21.603849411010742 -21.603849411010742,-39.144500732421875 0,-39.144500732421875z"></path><path stroke-linecap="butt" stroke-linejoin="miter" fill-opacity="0" stroke-miterlimit="4" stroke="rgb(175,175,175)" stroke-opacity="1" stroke-width="0" d=" M0,-39.144500732421875 C21.603849411010742,-39.144500732421875 39.144500732421875,-21.603849411010742 39.144500732421875,0 C39.144500732421875,21.603849411010742 21.603849411010742,39.144500732421875 0,39.144500732421875 C-21.603849411010742,39.144500732421875 -39.144500732421875,21.603849411010742 -39.144500732421875,0 C-39.144500732421875,-21.603849411010742 -21.603849411010742,-39.144500732421875 0,-39.144500732421875z"></path></g></g><g transform="matrix(0,0,0,0,141.7806854248047,16.877613067626953)" opacity="1" style="display: none;"><g opacity="1" transform="matrix(1,0,0,1,-0.8550000190734863,38.14500045776367)"><path fill="rgb(204,221,242)" fill-opacity="1" d=" M0,-39.144500732421875 C21.603849411010742,-39.144500732421875 39.144500732421875,-21.603849411010742 39.144500732421875,0 C39.144500732421875,21.603849411010742 21.603849411010742,39.144500732421875 0,39.144500732421875 C-21.603849411010742,39.144500732421875 -39.144500732421875,21.603849411010742 -39.144500732421875,0 C-39.144500732421875,-21.603849411010742 -21.603849411010742,-39.144500732421875 0,-39.144500732421875z"></path><path stroke-linecap="butt" stroke-linejoin="miter" fill-opacity="0" stroke-miterlimit="4" stroke="rgb(175,175,175)" stroke-opacity="1" stroke-width="0" d=" M0,-39.144500732421875 C21.603849411010742,-39.144500732421875 39.144500732421875,-21.603849411010742 39.144500732421875,0 C39.144500732421875,21.603849411010742 21.603849411010742,39.144500732421875 0,39.144500732421875 C-21.603849411010742,39.144500732421875 -39.144500732421875,21.603849411010742 -39.144500732421875,0 C-39.144500732421875,-21.603849411010742 -21.603849411010742,-39.144500732421875 0,-39.144500732421875z"></path></g></g><g transform="matrix(0,0,0,0,137.23080444335938,14.92809009552002)" opacity="1" style="display: none;"><g opacity="1" transform="matrix(1,0,0,1,-0.8550000190734863,38.14500045776367)"><path fill="rgb(204,221,242)" fill-opacity="1" d=" M0,-39.144500732421875 C21.603849411010742,-39.144500732421875 39.144500732421875,-21.603849411010742 39.144500732421875,0 C39.144500732421875,21.603849411010742 21.603849411010742,39.144500732421875 0,39.144500732421875 C-21.603849411010742,39.144500732421875 -39.144500732421875,21.603849411010742 -39.144500732421875,0 C-39.144500732421875,-21.603849411010742 -21.603849411010742,-39.144500732421875 0,-39.144500732421875z"></path><path stroke-linecap="butt" stroke-linejoin="miter" fill-opacity="0" stroke-miterlimit="4" stroke="rgb(175,175,175)" stroke-opacity="1" stroke-width="0" d=" M0,-39.144500732421875 C21.603849411010742,-39.144500732421875 39.144500732421875,-21.603849411010742 39.144500732421875,0 C39.144500732421875,21.603849411010742 21.603849411010742,39.144500732421875 0,39.144500732421875 C-21.603849411010742,39.144500732421875 -39.144500732421875,21.603849411010742 -39.144500732421875,0 C-39.144500732421875,-21.603849411010742 -21.603849411010742,-39.144500732421875 0,-39.144500732421875z"></path></g></g><g transform="matrix(-0.04286317527294159,0.039970558136701584,-0.039970558136701584,-0.04286317527294159,143.33953857421875,18.54927635192871)" opacity="1" style="display: none;"><g opacity="1" transform="matrix(1,0,0,1,-0.8550000190734863,38.14500045776367)"><path fill="rgb(204,221,242)" fill-opacity="1" d=" M0,-39.144500732421875 C21.603849411010742,-39.144500732421875 39.144500732421875,-21.603849411010742 39.144500732421875,0 C39.144500732421875,21.603849411010742 21.603849411010742,39.144500732421875 0,39.144500732421875 C-21.603849411010742,39.144500732421875 -39.144500732421875,21.603849411010742 -39.144500732421875,0 C-39.144500732421875,-21.603849411010742 -21.603849411010742,-39.144500732421875 0,-39.144500732421875z"></path><path stroke-linecap="butt" stroke-linejoin="miter" fill-opacity="0" stroke-miterlimit="4" stroke="rgb(175,175,175)" stroke-opacity="1" stroke-width="0" d=" M0,-39.144500732421875 C21.603849411010742,-39.144500732421875 39.144500732421875,-21.603849411010742 39.144500732421875,0 C39.144500732421875,21.603849411010742 21.603849411010742,39.144500732421875 0,39.144500732421875 C-21.603849411010742,39.144500732421875 -39.144500732421875,21.603849411010742 -39.144500732421875,0 C-39.144500732421875,-21.603849411010742 -21.603849411010742,-39.144500732421875 0,-39.144500732421875z"></path></g></g><g transform="matrix(-0.0077933045104146,0.007267374079674482,-0.007267374079674482,-0.0077933045104146,137.6663360595703,16.274024963378906)" opacity="1" style="display: none;"><g opacity="1" transform="matrix(1,0,0,1,-0.8550000190734863,38.14500045776367)"><path fill="rgb(204,221,242)" fill-opacity="1" d=" M0,-39.144500732421875 C21.603849411010742,-39.144500732421875 39.144500732421875,-21.603849411010742 39.144500732421875,0 C39.144500732421875,21.603849411010742 21.603849411010742,39.144500732421875 0,39.144500732421875 C-21.603849411010742,39.144500732421875 -39.144500732421875,21.603849411010742 -39.144500732421875,0 C-39.144500732421875,-21.603849411010742 -21.603849411010742,-39.144500732421875 0,-39.144500732421875z"></path><path stroke-linecap="butt" stroke-linejoin="miter" fill-opacity="0" stroke-miterlimit="4" stroke="rgb(175,175,175)" stroke-opacity="1" stroke-width="0" d=" M0,-39.144500732421875 C21.603849411010742,-39.144500732421875 39.144500732421875,-21.603849411010742 39.144500732421875,0 C39.144500732421875,21.603849411010742 21.603849411010742,39.144500732421875 0,39.144500732421875 C-21.603849411010742,39.144500732421875 -39.144500732421875,21.603849411010742 -39.144500732421875,0 C-39.144500732421875,-21.603849411010742 -21.603849411010742,-39.144500732421875 0,-39.144500732421875z"></path></g></g><g transform="matrix(-0.021431587636470795,0.019985279068350792,-0.019985279068350792,-0.021431587636470795,139.4636993408203,17.322582244873047)" opacity="1" style="display: none;"><g opacity="1" transform="matrix(1,0,0,1,-0.8550000190734863,38.14500045776367)"><path fill="rgb(204,221,242)" fill-opacity="1" d=" M0,-39.144500732421875 C21.603849411010742,-39.144500732421875 39.144500732421875,-21.603849411010742 39.144500732421875,0 C39.144500732421875,21.603849411010742 21.603849411010742,39.144500732421875 0,39.144500732421875 C-21.603849411010742,39.144500732421875 -39.144500732421875,21.603849411010742 -39.144500732421875,0 C-39.144500732421875,-21.603849411010742 -21.603849411010742,-39.144500732421875 0,-39.144500732421875z"></path><path stroke-linecap="butt" stroke-linejoin="miter" fill-opacity="0" stroke-miterlimit="4" stroke="rgb(175,175,175)" stroke-opacity="1" stroke-width="0" d=" M0,-39.144500732421875 C21.603849411010742,-39.144500732421875 39.144500732421875,-21.603849411010742 39.144500732421875,0 C39.144500732421875,21.603849411010742 21.603849411010742,39.144500732421875 0,39.144500732421875 C-21.603849411010742,39.144500732421875 -39.144500732421875,21.603849411010742 -39.144500732421875,0 C-39.144500732421875,-21.603849411010742 -21.603849411010742,-39.144500732421875 0,-39.144500732421875z"></path></g></g><g transform="matrix(-0.015273679047822952,0.014242936857044697,-0.014242936857044697,-0.015273679047822952,139.102783203125,18.83491325378418)" opacity="1" style="display: none;"><g opacity="1" transform="matrix(1,0,0,1,-0.8550000190734863,38.14500045776367)"><path fill="rgb(204,221,242)" fill-opacity="1" d=" M0,-39.144500732421875 C21.603849411010742,-39.144500732421875 39.144500732421875,-21.603849411010742 39.144500732421875,0 C39.144500732421875,21.603849411010742 21.603849411010742,39.144500732421875 0,39.144500732421875 C-21.603849411010742,39.144500732421875 -39.144500732421875,21.603849411010742 -39.144500732421875,0 C-39.144500732421875,-21.603849411010742 -21.603849411010742,-39.144500732421875 0,-39.144500732421875z"></path><path stroke-linecap="butt" stroke-linejoin="miter" fill-opacity="0" stroke-miterlimit="4" stroke="rgb(175,175,175)" stroke-opacity="1" stroke-width="0" d=" M0,-39.144500732421875 C21.603849411010742,-39.144500732421875 39.144500732421875,-21.603849411010742 39.144500732421875,0 C39.144500732421875,21.603849411010742 21.603849411010742,39.144500732421875 0,39.144500732421875 C-21.603849411010742,39.144500732421875 -39.144500732421875,21.603849411010742 -39.144500732421875,0 C-39.144500732421875,-21.603849411010742 -21.603849411010742,-39.144500732421875 0,-39.144500732421875z"></path></g></g><g transform="matrix(-0.013638284057378769,0.012717905454337597,-0.012717905454337597,-0.013638284057378769,138.7154083251953,18.693527221679688)" opacity="1" style="display: none;"><g opacity="1" transform="matrix(1,0,0,1,-0.8550000190734863,38.14500045776367)"><path fill="rgb(204,221,242)" fill-opacity="1" d=" M0,-39.144500732421875 C21.603849411010742,-39.144500732421875 39.144500732421875,-21.603849411010742 39.144500732421875,0 C39.144500732421875,21.603849411010742 21.603849411010742,39.144500732421875 0,39.144500732421875 C-21.603849411010742,39.144500732421875 -39.144500732421875,21.603849411010742 -39.144500732421875,0 C-39.144500732421875,-21.603849411010742 -21.603849411010742,-39.144500732421875 0,-39.144500732421875z"></path><path stroke-linecap="butt" stroke-linejoin="miter" fill-opacity="0" stroke-miterlimit="4" stroke="rgb(175,175,175)" stroke-opacity="1" stroke-width="0" d=" M0,-39.144500732421875 C21.603849411010742,-39.144500732421875 39.144500732421875,-21.603849411010742 39.144500732421875,0 C39.144500732421875,21.603849411010742 21.603849411010742,39.144500732421875 0,39.144500732421875 C-21.603849411010742,39.144500732421875 -39.144500732421875,21.603849411010742 -39.144500732421875,0 C-39.144500732421875,-21.603849411010742 -21.603849411010742,-39.144500732421875 0,-39.144500732421875z"></path></g></g><g transform="matrix(0,0,0,0,137.17820739746094,16.434158325195312)" opacity="1" style="display: none;"><g opacity="1" transform="matrix(1,0,0,1,-0.8550000190734863,38.14500045776367)"><path fill="rgb(204,221,242)" fill-opacity="1" d=" M0,-39.144500732421875 C21.603849411010742,-39.144500732421875 39.144500732421875,-21.603849411010742 39.144500732421875,0 C39.144500732421875,21.603849411010742 21.603849411010742,39.144500732421875 0,39.144500732421875 C-21.603849411010742,39.144500732421875 -39.144500732421875,21.603849411010742 -39.144500732421875,0 C-39.144500732421875,-21.603849411010742 -21.603849411010742,-39.144500732421875 0,-39.144500732421875z"></path><path stroke-linecap="butt" stroke-linejoin="miter" fill-opacity="0" stroke-miterlimit="4" stroke="rgb(175,175,175)" stroke-opacity="1" stroke-width="0" d=" M0,-39.144500732421875 C21.603849411010742,-39.144500732421875 39.144500732421875,-21.603849411010742 39.144500732421875,0 C39.144500732421875,21.603849411010742 21.603849411010742,39.144500732421875 0,39.144500732421875 C-21.603849411010742,39.144500732421875 -39.144500732421875,21.603849411010742 -39.144500732421875,0 C-39.144500732421875,-21.603849411010742 -21.603849411010742,-39.144500732421875 0,-39.144500732421875z"></path></g></g><g transform="matrix(-0.0006717554642818868,0.0006264221156015992,-0.0006264221156015992,-0.0006717554642818868,138.5229949951172,22.936622619628906)" opacity="1" style="display: none;"><g opacity="1" transform="matrix(1,0,0,1,-0.8550000190734863,38.14500045776367)"><path fill="rgb(204,221,242)" fill-opacity="1" d=" M0,-39.144500732421875 C21.603849411010742,-39.144500732421875 39.144500732421875,-21.603849411010742 39.144500732421875,0 C39.144500732421875,21.603849411010742 21.603849411010742,39.144500732421875 0,39.144500732421875 C-21.603849411010742,39.144500732421875 -39.144500732421875,21.603849411010742 -39.144500732421875,0 C-39.144500732421875,-21.603849411010742 -21.603849411010742,-39.144500732421875 0,-39.144500732421875z"></path><path stroke-linecap="butt" stroke-linejoin="miter" fill-opacity="0" stroke-miterlimit="4" stroke="rgb(175,175,175)" stroke-opacity="1" stroke-width="0" d=" M0,-39.144500732421875 C21.603849411010742,-39.144500732421875 39.144500732421875,-21.603849411010742 39.144500732421875,0 C39.144500732421875,21.603849411010742 21.603849411010742,39.144500732421875 0,39.144500732421875 C-21.603849411010742,39.144500732421875 -39.144500732421875,21.603849411010742 -39.144500732421875,0 C-39.144500732421875,-21.603849411010742 -21.603849411010742,-39.144500732421875 0,-39.144500732421875z"></path></g></g></g></svg>