<svg xmlns="http://www.w3.org/2000/svg" viewBox="0 0 118 43" width="118" height="43" preserveAspectRatio="xMidYMid meet" style="width: 100%; height: 100%; transform: translate3d(0px, 0px, 0px); content-visibility: visible;"><defs><clipPath id="__lottie_element_986"><rect width="118" height="43" x="0" y="0"></rect></clipPath><mask id="__lottie_element_994" mask-type="alpha"><g transform="matrix(-0.12820500135421753,0,0,0.19314000010490417,90.83480072021484,36.6015510559082)" opacity="1" style="display: block;"><g opacity="1" transform="matrix(1,0,0,1,0,0)"><path fill="rgb(255,0,0)" fill-opacity="1" d=" M50,-50 C50,-50 50,50 50,50 C50,50 -50,50 -50,50 C-50,50 -50,-50 -50,-50 C-50,-50 50,-50 50,-50z"></path></g></g></mask><clipPath id="__lottie_element_998"><path d="M0,0 L120,0 L120,200 L0,200z"></path></clipPath><clipPath id="__lottie_element_1039"><path d="M0,0 L120,0 L120,200 L0,200z"></path></clipPath><clipPath id="__lottie_element_1080"><path d="M0,0 L120,0 L120,200 L0,200z"></path></clipPath></defs><g clip-path="url(#__lottie_element_986)"><g clip-path="url(#__lottie_element_998)" transform="matrix(-0.0004440319025889039,0.13319925963878632,0.13319925963878632,0.0004440319025889039,0.02470637857913971,19.384716033935547)" opacity="1" style="display: block;"><g transform="matrix(1.4250507354736328,0,0,1.3610076904296875,64.56771850585938,156.77603149414062)" opacity="1" style="display: block;"><g opacity="1" transform="matrix(0.7071067690849304,0.7071067690849304,-0.7071067690849304,0.7071067690849304,0,0)"><path fill="rgb(248,166,61)" fill-opacity="1" d=" M13.234999656677246,-5.26200008392334 C16.320999145507812,10.369000434875488 17.141000747680664,12.991000175476074 14.925999641418457,15.074000358581543 C12.772000312805176,17.099000930786133 9.807999610900879,16.118000030517578 -5.261000156402588,13.234999656677246 C-7.544000148773193,12.79800033569336 -9.51200008392334,10.890000343322754 -10.26099967956543,8.234999656677246 C-11.010000228881836,5.579999923706055 -17.5,-12.5 -17.5,-12.5 C-18.981000900268555,-16.92099952697754 -16.566999435424805,-18.969999313354492 -12.5,-17.5 C-12.5,-17.5 5.738999843597412,-11.053999900817871 8.234999656677246,-10.26099967956543 C10.730999946594238,-9.468000411987305 12.685999870300293,-8.041000366210938 13.234999656677246,-5.26200008392334z"></path></g></g><g transform="matrix(0.6288040280342102,0,0,0.6199948787689209,63.51285934448242,177.95193481445312)" opacity="1" style="display: block;"><g opacity="1" transform="matrix(0.7071067690849304,0.7071067690849304,-0.7071067690849304,0.7071067690849304,0,0)"><path fill="rgb(254,199,75)" fill-opacity="1" d=" M13.234999656677246,-5.26200008392334 C16.320999145507812,10.369000434875488 17.141000747680664,12.991000175476074 14.925999641418457,15.074000358581543 C12.772000312805176,17.099000930786133 9.807999610900879,16.118000030517578 -5.261000156402588,13.234999656677246 C-7.544000148773193,12.79800033569336 -9.51200008392334,10.890000343322754 -10.26099967956543,8.234999656677246 C-11.010000228881836,5.579999923706055 -17.5,-12.5 -17.5,-12.5 C-18.981000900268555,-16.92099952697754 -16.566999435424805,-18.969999313354492 -12.5,-17.5 C-12.5,-17.5 5.738999843597412,-11.053999900817871 8.234999656677246,-10.26099967956543 C10.730999946594238,-9.468000411987305 12.685999870300293,-8.041000366210938 13.234999656677246,-5.26200008392334z"></path></g></g><g transform="matrix(0.48333999514579773,0,0,0.48333999514579773,53.98800277709961,187.63800048828125)" opacity="1" style="display: none;"><g opacity="1" transform="matrix(0.7071067690849304,0.7071067690849304,-0.7071067690849304,0.7071067690849304,0,0)"><path fill="rgb(255,202,77)" fill-opacity="1" d=" M13.234999656677246,-5.26200008392334 C16.320999145507812,10.369000434875488 17.141000747680664,12.991000175476074 14.925999641418457,15.074000358581543 C12.772000312805176,17.099000930786133 9.807999610900879,16.118000030517578 -5.261000156402588,13.234999656677246 C-7.544000148773193,12.79800033569336 -9.51200008392334,10.890000343322754 -10.26099967956543,8.234999656677246 C-11.010000228881836,5.579999923706055 -17.5,-12.5 -17.5,-12.5 C-18.981000900268555,-16.92099952697754 -16.566999435424805,-18.969999313354492 -12.5,-17.5 C-12.5,-17.5 5.738999843597412,-11.053999900817871 8.234999656677246,-10.26099967956543 C10.730999946594238,-9.468000411987305 12.685999870300293,-8.041000366210938 13.234999656677246,-5.26200008392334z"></path></g></g><g transform="matrix(0.48333999514579773,0,0,0.48333999514579773,65.60675048828125,187.63800048828125)" opacity="1" style="display: none;"><g opacity="1" transform="matrix(0.7071067690849304,0.7071067690849304,-0.7071067690849304,0.7071067690849304,0,0)"><path fill="rgb(255,202,77)" fill-opacity="1" d=" M13.234999656677246,-5.26200008392334 C16.320999145507812,10.369000434875488 17.141000747680664,12.991000175476074 14.925999641418457,15.074000358581543 C12.772000312805176,17.099000930786133 9.807999610900879,16.118000030517578 -5.261000156402588,13.234999656677246 C-7.544000148773193,12.79800033569336 -9.51200008392334,10.890000343322754 -10.26099967956543,8.234999656677246 C-11.010000228881836,5.579999923706055 -17.5,-12.5 -17.5,-12.5 C-18.981000900268555,-16.92099952697754 -16.566999435424805,-18.969999313354492 -12.5,-17.5 C-12.5,-17.5 5.738999843597412,-11.053999900817871 8.234999656677246,-10.26099967956543 C10.730999946594238,-9.468000411987305 12.685999870300293,-8.041000366210938 13.234999656677246,-5.26200008392334z"></path></g></g><g transform="matrix(0.48333999514579773,0,0,0.48333999514579773,53.98800277709961,187.63800048828125)" opacity="1" style="display: none;"><g opacity="1" transform="matrix(0.7071067690849304,0.7071067690849304,-0.7071067690849304,0.7071067690849304,0,0)"><path fill="rgb(255,202,77)" fill-opacity="1" d=" M13.234999656677246,-5.26200008392334 C16.320999145507812,10.369000434875488 17.141000747680664,12.991000175476074 14.925999641418457,15.074000358581543 C12.772000312805176,17.099000930786133 9.807999610900879,16.118000030517578 -5.261000156402588,13.234999656677246 C-7.544000148773193,12.79800033569336 -9.51200008392334,10.890000343322754 -10.26099967956543,8.234999656677246 C-11.010000228881836,5.579999923706055 -17.5,-12.5 -17.5,-12.5 C-18.981000900268555,-16.92099952697754 -16.566999435424805,-18.969999313354492 -12.5,-17.5 C-12.5,-17.5 5.738999843597412,-11.053999900817871 8.234999656677246,-10.26099967956543 C10.730999946594238,-9.468000411987305 12.685999870300293,-8.041000366210938 13.234999656677246,-5.26200008392334z"></path></g></g><g transform="matrix(0.48333999514579773,0,0,0.48333999514579773,65.60675048828125,187.63800048828125)" opacity="1" style="display: none;"><g opacity="1" transform="matrix(0.7071067690849304,0.7071067690849304,-0.7071067690849304,0.7071067690849304,0,0)"><path fill="rgb(255,202,77)" fill-opacity="1" d=" M13.234999656677246,-5.26200008392334 C16.320999145507812,10.369000434875488 17.141000747680664,12.991000175476074 14.925999641418457,15.074000358581543 C12.772000312805176,17.099000930786133 9.807999610900879,16.118000030517578 -5.261000156402588,13.234999656677246 C-7.544000148773193,12.79800033569336 -9.51200008392334,10.890000343322754 -10.26099967956543,8.234999656677246 C-11.010000228881836,5.579999923706055 -17.5,-12.5 -17.5,-12.5 C-18.981000900268555,-16.92099952697754 -16.566999435424805,-18.969999313354492 -12.5,-17.5 C-12.5,-17.5 5.738999843597412,-11.053999900817871 8.234999656677246,-10.26099967956543 C10.730999946594238,-9.468000411987305 12.685999870300293,-8.041000366210938 13.234999656677246,-5.26200008392334z"></path></g></g><g transform="matrix(0.48333999514579773,0,0,0.48333999514579773,53.98800277709961,187.63800048828125)" opacity="1" style="display: none;"><g opacity="1" transform="matrix(0.7071067690849304,0.7071067690849304,-0.7071067690849304,0.7071067690849304,0,0)"><path fill="rgb(255,202,77)" fill-opacity="1" d=" M13.234999656677246,-5.26200008392334 C16.320999145507812,10.369000434875488 17.141000747680664,12.991000175476074 14.925999641418457,15.074000358581543 C12.772000312805176,17.099000930786133 9.807999610900879,16.118000030517578 -5.261000156402588,13.234999656677246 C-7.544000148773193,12.79800033569336 -9.51200008392334,10.890000343322754 -10.26099967956543,8.234999656677246 C-11.010000228881836,5.579999923706055 -17.5,-12.5 -17.5,-12.5 C-18.981000900268555,-16.92099952697754 -16.566999435424805,-18.969999313354492 -12.5,-17.5 C-12.5,-17.5 5.738999843597412,-11.053999900817871 8.234999656677246,-10.26099967956543 C10.730999946594238,-9.468000411987305 12.685999870300293,-8.041000366210938 13.234999656677246,-5.26200008392334z"></path></g></g><g transform="matrix(0.48333999514579773,0,0,0.48333999514579773,65.60675048828125,187.63800048828125)" opacity="1" style="display: none;"><g opacity="1" transform="matrix(0.7071067690849304,0.7071067690849304,-0.7071067690849304,0.7071067690849304,0,0)"><path fill="rgb(255,202,77)" fill-opacity="1" d=" M13.234999656677246,-5.26200008392334 C16.320999145507812,10.369000434875488 17.141000747680664,12.991000175476074 14.925999641418457,15.074000358581543 C12.772000312805176,17.099000930786133 9.807999610900879,16.118000030517578 -5.261000156402588,13.234999656677246 C-7.544000148773193,12.79800033569336 -9.51200008392334,10.890000343322754 -10.26099967956543,8.234999656677246 C-11.010000228881836,5.579999923706055 -17.5,-12.5 -17.5,-12.5 C-18.981000900268555,-16.92099952697754 -16.566999435424805,-18.969999313354492 -12.5,-17.5 C-12.5,-17.5 5.738999843597412,-11.053999900817871 8.234999656677246,-10.26099967956543 C10.730999946594238,-9.468000411987305 12.685999870300293,-8.041000366210938 13.234999656677246,-5.26200008392334z"></path></g></g><g transform="matrix(0.48333999514579773,0,0,0.48333999514579773,53.98800277709961,187.63800048828125)" opacity="1" style="display: none;"><g opacity="1" transform="matrix(0.7071067690849304,0.7071067690849304,-0.7071067690849304,0.7071067690849304,0,0)"><path fill="rgb(255,202,77)" fill-opacity="1" d=" M13.234999656677246,-5.26200008392334 C16.320999145507812,10.369000434875488 17.141000747680664,12.991000175476074 14.925999641418457,15.074000358581543 C12.772000312805176,17.099000930786133 9.807999610900879,16.118000030517578 -5.261000156402588,13.234999656677246 C-7.544000148773193,12.79800033569336 -9.51200008392334,10.890000343322754 -10.26099967956543,8.234999656677246 C-11.010000228881836,5.579999923706055 -17.5,-12.5 -17.5,-12.5 C-18.981000900268555,-16.92099952697754 -16.566999435424805,-18.969999313354492 -12.5,-17.5 C-12.5,-17.5 5.738999843597412,-11.053999900817871 8.234999656677246,-10.26099967956543 C10.730999946594238,-9.468000411987305 12.685999870300293,-8.041000366210938 13.234999656677246,-5.26200008392334z"></path></g></g><g transform="matrix(0.48333999514579773,0,0,0.48333999514579773,65.60675048828125,187.63800048828125)" opacity="1" style="display: none;"><g opacity="1" transform="matrix(0.7071067690849304,0.7071067690849304,-0.7071067690849304,0.7071067690849304,0,0)"><path fill="rgb(255,202,77)" fill-opacity="1" d=" M13.234999656677246,-5.26200008392334 C16.320999145507812,10.369000434875488 17.141000747680664,12.991000175476074 14.925999641418457,15.074000358581543 C12.772000312805176,17.099000930786133 9.807999610900879,16.118000030517578 -5.261000156402588,13.234999656677246 C-7.544000148773193,12.79800033569336 -9.51200008392334,10.890000343322754 -10.26099967956543,8.234999656677246 C-11.010000228881836,5.579999923706055 -17.5,-12.5 -17.5,-12.5 C-18.981000900268555,-16.92099952697754 -16.566999435424805,-18.969999313354492 -12.5,-17.5 C-12.5,-17.5 5.738999843597412,-11.053999900817871 8.234999656677246,-10.26099967956543 C10.730999946594238,-9.468000411987305 12.685999870300293,-8.041000366210938 13.234999656677246,-5.26200008392334z"></path></g></g><g transform="matrix(0.48333999514579773,0,0,0.48333999514579773,53.98800277709961,187.63800048828125)" opacity="1" style="display: none;"><g opacity="1" transform="matrix(0.7071067690849304,0.7071067690849304,-0.7071067690849304,0.7071067690849304,0,0)"><path fill="rgb(255,202,77)" fill-opacity="1" d=" M13.234999656677246,-5.26200008392334 C16.320999145507812,10.369000434875488 17.141000747680664,12.991000175476074 14.925999641418457,15.074000358581543 C12.772000312805176,17.099000930786133 9.807999610900879,16.118000030517578 -5.261000156402588,13.234999656677246 C-7.544000148773193,12.79800033569336 -9.51200008392334,10.890000343322754 -10.26099967956543,8.234999656677246 C-11.010000228881836,5.579999923706055 -17.5,-12.5 -17.5,-12.5 C-18.981000900268555,-16.92099952697754 -16.566999435424805,-18.969999313354492 -12.5,-17.5 C-12.5,-17.5 5.738999843597412,-11.053999900817871 8.234999656677246,-10.26099967956543 C10.730999946594238,-9.468000411987305 12.685999870300293,-8.041000366210938 13.234999656677246,-5.26200008392334z"></path></g></g><g transform="matrix(0.6288040280342102,0,0,0.6199948787689209,63.51285934448242,177.95193481445312)" opacity="1" style="display: none;"><g opacity="1" transform="matrix(0.7071067690849304,0.7071067690849304,-0.7071067690849304,0.7071067690849304,0,0)"><path fill="rgb(254,199,75)" fill-opacity="1" d=" M13.234999656677246,-5.26200008392334 C16.320999145507812,10.369000434875488 17.141000747680664,12.991000175476074 14.925999641418457,15.074000358581543 C12.772000312805176,17.099000930786133 9.807999610900879,16.118000030517578 -5.261000156402588,13.234999656677246 C-7.544000148773193,12.79800033569336 -9.51200008392334,10.890000343322754 -10.26099967956543,8.234999656677246 C-11.010000228881836,5.579999923706055 -17.5,-12.5 -17.5,-12.5 C-18.981000900268555,-16.92099952697754 -16.566999435424805,-18.969999313354492 -12.5,-17.5 C-12.5,-17.5 5.738999843597412,-11.053999900817871 8.234999656677246,-10.26099967956543 C10.730999946594238,-9.468000411987305 12.685999870300293,-8.041000366210938 13.234999656677246,-5.26200008392334z"></path></g></g></g><g clip-path="url(#__lottie_element_1039)" transform="matrix(0.0018684176029637456,0.13318689167499542,0.13318689167499542,-0.0018684176029637456,-0.17580194771289825,14.028523445129395)" opacity="1" style="display: none;"><g transform="matrix(1.0202869176864624,0,0,0.987671971321106,67.86534118652344,90.1212158203125)" opacity="0.7414239841794157" style="display: block;"><g opacity="1" transform="matrix(0.7071067690849304,0.7071067690849304,-0.7071067690849304,0.7071067690849304,0,0)"><path fill="rgb(192,60,27)" fill-opacity="1" d=" M13.234999656677246,-5.26200008392334 C16.320999145507812,10.369000434875488 17.141000747680664,12.991000175476074 14.925999641418457,15.074000358581543 C12.772000312805176,17.099000930786133 9.807999610900879,16.118000030517578 -5.261000156402588,13.234999656677246 C-7.544000148773193,12.79800033569336 -9.51200008392334,10.890000343322754 -10.26099967956543,8.234999656677246 C-11.010000228881836,5.579999923706055 -17.5,-12.5 -17.5,-12.5 C-18.981000900268555,-16.92099952697754 -16.566999435424805,-18.969999313354492 -12.5,-17.5 C-12.5,-17.5 5.738999843597412,-11.053999900817871 8.234999656677246,-10.26099967956543 C10.730999946594238,-9.468000411987305 12.685999870300293,-8.041000366210938 13.234999656677246,-5.26200008392334z"></path></g></g><g transform="matrix(1.6918615102767944,0,0,1.599989891052246,53.091251373291016,135.8259735107422)" opacity="0.9611842460765163" style="display: block;"><g opacity="1" transform="matrix(0.7071067690849304,0.7071067690849304,-0.7071067690849304,0.7071067690849304,0,0)"><path fill="rgb(212,77,29)" fill-opacity="1" d=" M13.234999656677246,-5.26200008392334 C16.320999145507812,10.369000434875488 17.141000747680664,12.991000175476074 14.925999641418457,15.074000358581543 C12.772000312805176,17.099000930786133 9.807999610900879,16.118000030517578 -5.261000156402588,13.234999656677246 C-7.544000148773193,12.79800033569336 -9.51200008392334,10.890000343322754 -10.26099967956543,8.234999656677246 C-11.010000228881836,5.579999923706055 -17.5,-12.5 -17.5,-12.5 C-18.981000900268555,-16.92099952697754 -16.566999435424805,-18.969999313354492 -12.5,-17.5 C-12.5,-17.5 5.738999843597412,-11.053999900817871 8.234999656677246,-10.26099967956543 C10.730999946594238,-9.468000411987305 12.685999870300293,-8.041000366210938 13.234999656677246,-5.26200008392334z"></path></g></g><g transform="matrix(1.8883272409439087,0,0,1.7791205644607544,70.22373962402344,153.4827423095703)" opacity="1" style="display: block;"><g opacity="1" transform="matrix(0.7071067690849304,0.7071067690849304,-0.7071067690849304,0.7071067690849304,0,0)"><path fill="rgb(230,93,30)" fill-opacity="1" d=" M13.234999656677246,-5.26200008392334 C16.320999145507812,10.369000434875488 17.141000747680664,12.991000175476074 14.925999641418457,15.074000358581543 C12.772000312805176,17.099000930786133 9.807999610900879,16.118000030517578 -5.261000156402588,13.234999656677246 C-7.544000148773193,12.79800033569336 -9.51200008392334,10.890000343322754 -10.26099967956543,8.234999656677246 C-11.010000228881836,5.579999923706055 -17.5,-12.5 -17.5,-12.5 C-18.981000900268555,-16.92099952697754 -16.566999435424805,-18.969999313354492 -12.5,-17.5 C-12.5,-17.5 5.738999843597412,-11.053999900817871 8.234999656677246,-10.26099967956543 C10.730999946594238,-9.468000411987305 12.685999870300293,-8.041000366210938 13.234999656677246,-5.26200008392334z"></path></g></g><g transform="matrix(1.9019272327423096,0,0,1.7917896509170532,51.764896392822266,156.1082763671875)" opacity="1" style="display: block;"><g opacity="1" transform="matrix(0.7071067690849304,0.7071067690849304,-0.7071067690849304,0.7071067690849304,0,0)"><path fill="rgb(236,100,32)" fill-opacity="1" d=" M13.234999656677246,-5.26200008392334 C16.320999145507812,10.369000434875488 17.141000747680664,12.991000175476074 14.925999641418457,15.074000358581543 C12.772000312805176,17.099000930786133 9.807999610900879,16.118000030517578 -5.261000156402588,13.234999656677246 C-7.544000148773193,12.79800033569336 -9.51200008392334,10.890000343322754 -10.26099967956543,8.234999656677246 C-11.010000228881836,5.579999923706055 -17.5,-12.5 -17.5,-12.5 C-18.981000900268555,-16.92099952697754 -16.566999435424805,-18.969999313354492 -12.5,-17.5 C-12.5,-17.5 5.738999843597412,-11.053999900817871 8.234999656677246,-10.26099967956543 C10.730999946594238,-9.468000411987305 12.685999870300293,-8.041000366210938 13.234999656677246,-5.26200008392334z"></path></g></g><g transform="matrix(1.6762127876281738,0,0,1.589112401008606,67.60778045654297,153.77322387695312)" opacity="1" style="display: block;"><g opacity="1" transform="matrix(0.7071067690849304,0.7071067690849304,-0.7071067690849304,0.7071067690849304,0,0)"><path fill="rgb(243,140,50)" fill-opacity="1" d=" M13.234999656677246,-5.26200008392334 C16.320999145507812,10.369000434875488 17.141000747680664,12.991000175476074 14.925999641418457,15.074000358581543 C12.772000312805176,17.099000930786133 9.807999610900879,16.118000030517578 -5.261000156402588,13.234999656677246 C-7.544000148773193,12.79800033569336 -9.51200008392334,10.890000343322754 -10.26099967956543,8.234999656677246 C-11.010000228881836,5.579999923706055 -17.5,-12.5 -17.5,-12.5 C-18.981000900268555,-16.92099952697754 -16.566999435424805,-18.969999313354492 -12.5,-17.5 C-12.5,-17.5 5.738999843597412,-11.053999900817871 8.234999656677246,-10.26099967956543 C10.730999946594238,-9.468000411987305 12.685999870300293,-8.041000366210938 13.234999656677246,-5.26200008392334z"></path></g></g><g transform="matrix(1.0583418607711792,0,0,1.0230942964553833,59.92839050292969,163.9703369140625)" opacity="1" style="display: block;"><g opacity="1" transform="matrix(0.7071067690849304,0.7071067690849304,-0.7071067690849304,0.7071067690849304,0,0)"><path fill="rgb(252,187,70)" fill-opacity="1" d=" M13.234999656677246,-5.26200008392334 C16.320999145507812,10.369000434875488 17.141000747680664,12.991000175476074 14.925999641418457,15.074000358581543 C12.772000312805176,17.099000930786133 9.807999610900879,16.118000030517578 -5.261000156402588,13.234999656677246 C-7.544000148773193,12.79800033569336 -9.51200008392334,10.890000343322754 -10.26099967956543,8.234999656677246 C-11.010000228881836,5.579999923706055 -17.5,-12.5 -17.5,-12.5 C-18.981000900268555,-16.92099952697754 -16.566999435424805,-18.969999313354492 -12.5,-17.5 C-12.5,-17.5 5.738999843597412,-11.053999900817871 8.234999656677246,-10.26099967956543 C10.730999946594238,-9.468000411987305 12.685999870300293,-8.041000366210938 13.234999656677246,-5.26200008392334z"></path></g></g><g transform="matrix(0.48333999514579773,0,0,0.48333999514579773,53.98800277709961,187.63800048828125)" opacity="1" style="display: none;"><g opacity="1" transform="matrix(0.7071067690849304,0.7071067690849304,-0.7071067690849304,0.7071067690849304,0,0)"><path fill="rgb(255,202,77)" fill-opacity="1" d=" M13.234999656677246,-5.26200008392334 C16.320999145507812,10.369000434875488 17.141000747680664,12.991000175476074 14.925999641418457,15.074000358581543 C12.772000312805176,17.099000930786133 9.807999610900879,16.118000030517578 -5.261000156402588,13.234999656677246 C-7.544000148773193,12.79800033569336 -9.51200008392334,10.890000343322754 -10.26099967956543,8.234999656677246 C-11.010000228881836,5.579999923706055 -17.5,-12.5 -17.5,-12.5 C-18.981000900268555,-16.92099952697754 -16.566999435424805,-18.969999313354492 -12.5,-17.5 C-12.5,-17.5 5.738999843597412,-11.053999900817871 8.234999656677246,-10.26099967956543 C10.730999946594238,-9.468000411987305 12.685999870300293,-8.041000366210938 13.234999656677246,-5.26200008392334z"></path></g></g><g transform="matrix(0.48333999514579773,0,0,0.48333999514579773,65.60675048828125,187.63800048828125)" opacity="1" style="display: none;"><g opacity="1" transform="matrix(0.7071067690849304,0.7071067690849304,-0.7071067690849304,0.7071067690849304,0,0)"><path fill="rgb(255,202,77)" fill-opacity="1" d=" M13.234999656677246,-5.26200008392334 C16.320999145507812,10.369000434875488 17.141000747680664,12.991000175476074 14.925999641418457,15.074000358581543 C12.772000312805176,17.099000930786133 9.807999610900879,16.118000030517578 -5.261000156402588,13.234999656677246 C-7.544000148773193,12.79800033569336 -9.51200008392334,10.890000343322754 -10.26099967956543,8.234999656677246 C-11.010000228881836,5.579999923706055 -17.5,-12.5 -17.5,-12.5 C-18.981000900268555,-16.92099952697754 -16.566999435424805,-18.969999313354492 -12.5,-17.5 C-12.5,-17.5 5.738999843597412,-11.053999900817871 8.234999656677246,-10.26099967956543 C10.730999946594238,-9.468000411987305 12.685999870300293,-8.041000366210938 13.234999656677246,-5.26200008392334z"></path></g></g><g transform="matrix(0.48333999514579773,0,0,0.48333999514579773,53.98800277709961,187.63800048828125)" opacity="1" style="display: none;"><g opacity="1" transform="matrix(0.7071067690849304,0.7071067690849304,-0.7071067690849304,0.7071067690849304,0,0)"><path fill="rgb(255,202,77)" fill-opacity="1" d=" M13.234999656677246,-5.26200008392334 C16.320999145507812,10.369000434875488 17.141000747680664,12.991000175476074 14.925999641418457,15.074000358581543 C12.772000312805176,17.099000930786133 9.807999610900879,16.118000030517578 -5.261000156402588,13.234999656677246 C-7.544000148773193,12.79800033569336 -9.51200008392334,10.890000343322754 -10.26099967956543,8.234999656677246 C-11.010000228881836,5.579999923706055 -17.5,-12.5 -17.5,-12.5 C-18.981000900268555,-16.92099952697754 -16.566999435424805,-18.969999313354492 -12.5,-17.5 C-12.5,-17.5 5.738999843597412,-11.053999900817871 8.234999656677246,-10.26099967956543 C10.730999946594238,-9.468000411987305 12.685999870300293,-8.041000366210938 13.234999656677246,-5.26200008392334z"></path></g></g><g transform="matrix(0.48333999514579773,0,0,0.48333999514579773,65.60675048828125,187.63800048828125)" opacity="1" style="display: none;"><g opacity="1" transform="matrix(0.7071067690849304,0.7071067690849304,-0.7071067690849304,0.7071067690849304,0,0)"><path fill="rgb(255,202,77)" fill-opacity="1" d=" M13.234999656677246,-5.26200008392334 C16.320999145507812,10.369000434875488 17.141000747680664,12.991000175476074 14.925999641418457,15.074000358581543 C12.772000312805176,17.099000930786133 9.807999610900879,16.118000030517578 -5.261000156402588,13.234999656677246 C-7.544000148773193,12.79800033569336 -9.51200008392334,10.890000343322754 -10.26099967956543,8.234999656677246 C-11.010000228881836,5.579999923706055 -17.5,-12.5 -17.5,-12.5 C-18.981000900268555,-16.92099952697754 -16.566999435424805,-18.969999313354492 -12.5,-17.5 C-12.5,-17.5 5.738999843597412,-11.053999900817871 8.234999656677246,-10.26099967956543 C10.730999946594238,-9.468000411987305 12.685999870300293,-8.041000366210938 13.234999656677246,-5.26200008392334z"></path></g></g><g transform="matrix(1.6045417785644531,0,0,1.524286150932312,66.50212097167969,154.22572326660156)" opacity="1" style="display: none;"><g opacity="1" transform="matrix(0.7071067690849304,0.7071067690849304,-0.7071067690849304,0.7071067690849304,0,0)"><path fill="rgb(245,149,53)" fill-opacity="1" d=" M13.234999656677246,-5.26200008392334 C16.320999145507812,10.369000434875488 17.141000747680664,12.991000175476074 14.925999641418457,15.074000358581543 C12.772000312805176,17.099000930786133 9.807999610900879,16.118000030517578 -5.261000156402588,13.234999656677246 C-7.544000148773193,12.79800033569336 -9.51200008392334,10.890000343322754 -10.26099967956543,8.234999656677246 C-11.010000228881836,5.579999923706055 -17.5,-12.5 -17.5,-12.5 C-18.981000900268555,-16.92099952697754 -16.566999435424805,-18.969999313354492 -12.5,-17.5 C-12.5,-17.5 5.738999843597412,-11.053999900817871 8.234999656677246,-10.26099967956543 C10.730999946594238,-9.468000411987305 12.685999870300293,-8.041000366210938 13.234999656677246,-5.26200008392334z"></path></g></g><g transform="matrix(0.9136873483657837,0,0,0.8881227970123291,60.956722259521484,167.55844116210938)" opacity="1" style="display: none;"><g opacity="1" transform="matrix(0.7071067690849304,0.7071067690849304,-0.7071067690849304,0.7071067690849304,0,0)"><path fill="rgb(253,192,72)" fill-opacity="1" d=" M13.234999656677246,-5.26200008392334 C16.320999145507812,10.369000434875488 17.141000747680664,12.991000175476074 14.925999641418457,15.074000358581543 C12.772000312805176,17.099000930786133 9.807999610900879,16.118000030517578 -5.261000156402588,13.234999656677246 C-7.544000148773193,12.79800033569336 -9.51200008392334,10.890000343322754 -10.26099967956543,8.234999656677246 C-11.010000228881836,5.579999923706055 -17.5,-12.5 -17.5,-12.5 C-18.981000900268555,-16.92099952697754 -16.566999435424805,-18.969999313354492 -12.5,-17.5 C-12.5,-17.5 5.738999843597412,-11.053999900817871 8.234999656677246,-10.26099967956543 C10.730999946594238,-9.468000411987305 12.685999870300293,-8.041000366210938 13.234999656677246,-5.26200008392334z"></path></g></g></g><g clip-path="url(#__lottie_element_1080)" transform="matrix(-0.00027906434843316674,0.13319970667362213,0.13319970667362213,0.00027906434843316674,0.009732149541378021,19.442901611328125)" opacity="1" style="display: none;"><g transform="matrix(0.6602869629859924,0,0,0.6594366431236267,65.00753784179688,20.67342758178711)" opacity="0.23603041484507103" style="display: none;"><g opacity="1" transform="matrix(0.7071067690849304,0.7071067690849304,-0.7071067690849304,0.7071067690849304,0,0)"><path fill="rgb(185,54,27)" fill-opacity="1" d=" M13.234999656677246,-5.26200008392334 C16.320999145507812,10.369000434875488 17.141000747680664,12.991000175476074 14.925999641418457,15.074000358581543 C12.772000312805176,17.099000930786133 9.807999610900879,16.118000030517578 -5.261000156402588,13.234999656677246 C-7.544000148773193,12.79800033569336 -9.51200008392334,10.890000343322754 -10.26099967956543,8.234999656677246 C-11.010000228881836,5.579999923706055 -17.5,-12.5 -17.5,-12.5 C-18.981000900268555,-16.92099952697754 -16.566999435424805,-18.969999313354492 -12.5,-17.5 C-12.5,-17.5 5.738999843597412,-11.053999900817871 8.234999656677246,-10.26099967956543 C10.730999946594238,-9.468000411987305 12.685999870300293,-8.041000366210938 13.234999656677246,-5.26200008392334z"></path></g></g><g transform="matrix(0.6602869629859924,0,0,0.6594366431236267,60.03461837768555,20.693511962890625)" opacity="0.23603041484507103" style="display: none;"><g opacity="1" transform="matrix(0.7071067690849304,0.7071067690849304,-0.7071067690849304,0.7071067690849304,0,0)"><path fill="rgb(185,54,27)" fill-opacity="1" d=" M13.234999656677246,-5.26200008392334 C16.320999145507812,10.369000434875488 17.141000747680664,12.991000175476074 14.925999641418457,15.074000358581543 C12.772000312805176,17.099000930786133 9.807999610900879,16.118000030517578 -5.261000156402588,13.234999656677246 C-7.544000148773193,12.79800033569336 -9.51200008392334,10.890000343322754 -10.26099967956543,8.234999656677246 C-11.010000228881836,5.579999923706055 -17.5,-12.5 -17.5,-12.5 C-18.981000900268555,-16.92099952697754 -16.566999435424805,-18.969999313354492 -12.5,-17.5 C-12.5,-17.5 5.738999843597412,-11.053999900817871 8.234999656677246,-10.26099967956543 C10.730999946594238,-9.468000411987305 12.685999870300293,-8.041000366210938 13.234999656677246,-5.26200008392334z"></path></g></g><g transform="matrix(0.6602869629859924,0,0,0.6594366431236267,65.00753784179688,20.67342758178711)" opacity="0.23603041484507103" style="display: none;"><g opacity="1" transform="matrix(0.7071067690849304,0.7071067690849304,-0.7071067690849304,0.7071067690849304,0,0)"><path fill="rgb(185,54,27)" fill-opacity="1" d=" M13.234999656677246,-5.26200008392334 C16.320999145507812,10.369000434875488 17.141000747680664,12.991000175476074 14.925999641418457,15.074000358581543 C12.772000312805176,17.099000930786133 9.807999610900879,16.118000030517578 -5.261000156402588,13.234999656677246 C-7.544000148773193,12.79800033569336 -9.51200008392334,10.890000343322754 -10.26099967956543,8.234999656677246 C-11.010000228881836,5.579999923706055 -17.5,-12.5 -17.5,-12.5 C-18.981000900268555,-16.92099952697754 -16.566999435424805,-18.969999313354492 -12.5,-17.5 C-12.5,-17.5 5.738999843597412,-11.053999900817871 8.234999656677246,-10.26099967956543 C10.730999946594238,-9.468000411987305 12.685999870300293,-8.041000366210938 13.234999656677246,-5.26200008392334z"></path></g></g><g transform="matrix(0.6602869629859924,0,0,0.6594366431236267,60.03461837768555,20.693511962890625)" opacity="0.23603041484507103" style="display: none;"><g opacity="1" transform="matrix(0.7071067690849304,0.7071067690849304,-0.7071067690849304,0.7071067690849304,0,0)"><path fill="rgb(185,54,27)" fill-opacity="1" d=" M13.234999656677246,-5.26200008392334 C16.320999145507812,10.369000434875488 17.141000747680664,12.991000175476074 14.925999641418457,15.074000358581543 C12.772000312805176,17.099000930786133 9.807999610900879,16.118000030517578 -5.261000156402588,13.234999656677246 C-7.544000148773193,12.79800033569336 -9.51200008392334,10.890000343322754 -10.26099967956543,8.234999656677246 C-11.010000228881836,5.579999923706055 -17.5,-12.5 -17.5,-12.5 C-18.981000900268555,-16.92099952697754 -16.566999435424805,-18.969999313354492 -12.5,-17.5 C-12.5,-17.5 5.738999843597412,-11.053999900817871 8.234999656677246,-10.26099967956543 C10.730999946594238,-9.468000411987305 12.685999870300293,-8.041000366210938 13.234999656677246,-5.26200008392334z"></path></g></g><g transform="matrix(0.6602869629859924,0,0,0.6594366431236267,65.00753784179688,20.67342758178711)" opacity="0.23603041484507103" style="display: none;"><g opacity="1" transform="matrix(0.7071067690849304,0.7071067690849304,-0.7071067690849304,0.7071067690849304,0,0)"><path fill="rgb(185,54,27)" fill-opacity="1" d=" M13.234999656677246,-5.26200008392334 C16.320999145507812,10.369000434875488 17.141000747680664,12.991000175476074 14.925999641418457,15.074000358581543 C12.772000312805176,17.099000930786133 9.807999610900879,16.118000030517578 -5.261000156402588,13.234999656677246 C-7.544000148773193,12.79800033569336 -9.51200008392334,10.890000343322754 -10.26099967956543,8.234999656677246 C-11.010000228881836,5.579999923706055 -17.5,-12.5 -17.5,-12.5 C-18.981000900268555,-16.92099952697754 -16.566999435424805,-18.969999313354492 -12.5,-17.5 C-12.5,-17.5 5.738999843597412,-11.053999900817871 8.234999656677246,-10.26099967956543 C10.730999946594238,-9.468000411987305 12.685999870300293,-8.041000366210938 13.234999656677246,-5.26200008392334z"></path></g></g><g transform="matrix(0.6602869629859924,0,0,0.6594366431236267,60.03461837768555,20.693511962890625)" opacity="0.23603041484507103" style="display: none;"><g opacity="1" transform="matrix(0.7071067690849304,0.7071067690849304,-0.7071067690849304,0.7071067690849304,0,0)"><path fill="rgb(185,54,27)" fill-opacity="1" d=" M13.234999656677246,-5.26200008392334 C16.320999145507812,10.369000434875488 17.141000747680664,12.991000175476074 14.925999641418457,15.074000358581543 C12.772000312805176,17.099000930786133 9.807999610900879,16.118000030517578 -5.261000156402588,13.234999656677246 C-7.544000148773193,12.79800033569336 -9.51200008392334,10.890000343322754 -10.26099967956543,8.234999656677246 C-11.010000228881836,5.579999923706055 -17.5,-12.5 -17.5,-12.5 C-18.981000900268555,-16.92099952697754 -16.566999435424805,-18.969999313354492 -12.5,-17.5 C-12.5,-17.5 5.738999843597412,-11.053999900817871 8.234999656677246,-10.26099967956543 C10.730999946594238,-9.468000411987305 12.685999870300293,-8.041000366210938 13.234999656677246,-5.26200008392334z"></path></g></g><g transform="matrix(0.6602869629859924,0,0,0.6594366431236267,65.00753784179688,20.67342758178711)" opacity="0.23603041484507103" style="display: none;"><g opacity="1" transform="matrix(0.7071067690849304,0.7071067690849304,-0.7071067690849304,0.7071067690849304,0,0)"><path fill="rgb(185,54,27)" fill-opacity="1" d=" M13.234999656677246,-5.26200008392334 C16.320999145507812,10.369000434875488 17.141000747680664,12.991000175476074 14.925999641418457,15.074000358581543 C12.772000312805176,17.099000930786133 9.807999610900879,16.118000030517578 -5.261000156402588,13.234999656677246 C-7.544000148773193,12.79800033569336 -9.51200008392334,10.890000343322754 -10.26099967956543,8.234999656677246 C-11.010000228881836,5.579999923706055 -17.5,-12.5 -17.5,-12.5 C-18.981000900268555,-16.92099952697754 -16.566999435424805,-18.969999313354492 -12.5,-17.5 C-12.5,-17.5 5.738999843597412,-11.053999900817871 8.234999656677246,-10.26099967956543 C10.730999946594238,-9.468000411987305 12.685999870300293,-8.041000366210938 13.234999656677246,-5.26200008392334z"></path></g></g><g transform="matrix(0.6602869629859924,0,0,0.6594366431236267,60.03461837768555,20.693511962890625)" opacity="0.23603041484507103" style="display: none;"><g opacity="1" transform="matrix(0.7071067690849304,0.7071067690849304,-0.7071067690849304,0.7071067690849304,0,0)"><path fill="rgb(185,54,27)" fill-opacity="1" d=" M13.234999656677246,-5.26200008392334 C16.320999145507812,10.369000434875488 17.141000747680664,12.991000175476074 14.925999641418457,15.074000358581543 C12.772000312805176,17.099000930786133 9.807999610900879,16.118000030517578 -5.261000156402588,13.234999656677246 C-7.544000148773193,12.79800033569336 -9.51200008392334,10.890000343322754 -10.26099967956543,8.234999656677246 C-11.010000228881836,5.579999923706055 -17.5,-12.5 -17.5,-12.5 C-18.981000900268555,-16.92099952697754 -16.566999435424805,-18.969999313354492 -12.5,-17.5 C-12.5,-17.5 5.738999843597412,-11.053999900817871 8.234999656677246,-10.26099967956543 C10.730999946594238,-9.468000411987305 12.685999870300293,-8.041000366210938 13.234999656677246,-5.26200008392334z"></path></g></g><g transform="matrix(0.6602869629859924,0,0,0.6594366431236267,65.00753784179688,20.67342758178711)" opacity="0.23603041484507103" style="display: none;"><g opacity="1" transform="matrix(0.7071067690849304,0.7071067690849304,-0.7071067690849304,0.7071067690849304,0,0)"><path fill="rgb(185,54,27)" fill-opacity="1" d=" M13.234999656677246,-5.26200008392334 C16.320999145507812,10.369000434875488 17.141000747680664,12.991000175476074 14.925999641418457,15.074000358581543 C12.772000312805176,17.099000930786133 9.807999610900879,16.118000030517578 -5.261000156402588,13.234999656677246 C-7.544000148773193,12.79800033569336 -9.51200008392334,10.890000343322754 -10.26099967956543,8.234999656677246 C-11.010000228881836,5.579999923706055 -17.5,-12.5 -17.5,-12.5 C-18.981000900268555,-16.92099952697754 -16.566999435424805,-18.969999313354492 -12.5,-17.5 C-12.5,-17.5 5.738999843597412,-11.053999900817871 8.234999656677246,-10.26099967956543 C10.730999946594238,-9.468000411987305 12.685999870300293,-8.041000366210938 13.234999656677246,-5.26200008392334z"></path></g></g><g transform="matrix(0.6602869629859924,0,0,0.6594366431236267,60.03461837768555,20.693511962890625)" opacity="0.23603041484507103" style="display: none;"><g opacity="1" transform="matrix(0.7071067690849304,0.7071067690849304,-0.7071067690849304,0.7071067690849304,0,0)"><path fill="rgb(185,54,27)" fill-opacity="1" d=" M13.234999656677246,-5.26200008392334 C16.320999145507812,10.369000434875488 17.141000747680664,12.991000175476074 14.925999641418457,15.074000358581543 C12.772000312805176,17.099000930786133 9.807999610900879,16.118000030517578 -5.261000156402588,13.234999656677246 C-7.544000148773193,12.79800033569336 -9.51200008392334,10.890000343322754 -10.26099967956543,8.234999656677246 C-11.010000228881836,5.579999923706055 -17.5,-12.5 -17.5,-12.5 C-18.981000900268555,-16.92099952697754 -16.566999435424805,-18.969999313354492 -12.5,-17.5 C-12.5,-17.5 5.738999843597412,-11.053999900817871 8.234999656677246,-10.26099967956543 C10.730999946594238,-9.468000411987305 12.685999870300293,-8.041000366210938 13.234999656677246,-5.26200008392334z"></path></g></g><g transform="matrix(0.6602869629859924,0,0,0.6594366431236267,65.00753784179688,20.67342758178711)" opacity="0.23603041484507103" style="display: none;"><g opacity="1" transform="matrix(0.7071067690849304,0.7071067690849304,-0.7071067690849304,0.7071067690849304,0,0)"><path fill="rgb(185,54,27)" fill-opacity="1" d=" M13.234999656677246,-5.26200008392334 C16.320999145507812,10.369000434875488 17.141000747680664,12.991000175476074 14.925999641418457,15.074000358581543 C12.772000312805176,17.099000930786133 9.807999610900879,16.118000030517578 -5.261000156402588,13.234999656677246 C-7.544000148773193,12.79800033569336 -9.51200008392334,10.890000343322754 -10.26099967956543,8.234999656677246 C-11.010000228881836,5.579999923706055 -17.5,-12.5 -17.5,-12.5 C-18.981000900268555,-16.92099952697754 -16.566999435424805,-18.969999313354492 -12.5,-17.5 C-12.5,-17.5 5.738999843597412,-11.053999900817871 8.234999656677246,-10.26099967956543 C10.730999946594238,-9.468000411987305 12.685999870300293,-8.041000366210938 13.234999656677246,-5.26200008392334z"></path></g></g><g transform="matrix(0.6941766142845154,0,0,0.6903361082077026,58.67141342163086,44.119319915771484)" opacity="0.43885499025767694" style="display: block;"><g opacity="1" transform="matrix(0.7071067690849304,0.7071067690849304,-0.7071067690849304,0.7071067690849304,0,0)"><path fill="rgb(186,55,27)" fill-opacity="1" d=" M13.234999656677246,-5.26200008392334 C16.320999145507812,10.369000434875488 17.141000747680664,12.991000175476074 14.925999641418457,15.074000358581543 C12.772000312805176,17.099000930786133 9.807999610900879,16.118000030517578 -5.261000156402588,13.234999656677246 C-7.544000148773193,12.79800033569336 -9.51200008392334,10.890000343322754 -10.26099967956543,8.234999656677246 C-11.010000228881836,5.579999923706055 -17.5,-12.5 -17.5,-12.5 C-18.981000900268555,-16.92099952697754 -16.566999435424805,-18.969999313354492 -12.5,-17.5 C-12.5,-17.5 5.738999843597412,-11.053999900817871 8.234999656677246,-10.26099967956543 C10.730999946594238,-9.468000411987305 12.685999870300293,-8.041000366210938 13.234999656677246,-5.26200008392334z"></path></g></g></g><g mask="url(#__lottie_element_994)" style="display: block;"><g transform="matrix(-0.3330000042915344,0,0,0.3330000042915344,117.46381378173828,10.091419219970703)" opacity="1"><g opacity="1" transform="matrix(1,0,0,1,82.22000122070312,69.3479995727539)"><path stroke-linecap="round" stroke-linejoin="round" fill-opacity="0" stroke="rgb(78,67,95)" stroke-opacity="1" stroke-width="6" d=" M5.017000198364258,-25.336000442504883 C5.017000198364258,-25.336000442504883 5.017000198364258,-5.4730000495910645 5.017000198364258,-5.4730000495910645 C5.017000198364258,-5.4730000495910645 -5.017000198364258,25.336000442504883 -5.017000198364258,25.336000442504883"></path></g><g opacity="1" transform="matrix(1,0,0,1,0,0)"><path stroke-linecap="round" stroke-linejoin="round" fill-opacity="0" stroke="rgb(78,67,95)" stroke-opacity="1" stroke-width="6" d=" M68.1969985961914,94.68399810791016 C68.1969985961914,94.68399810791016 87.31099700927734,94.68399810791016 87.31099700927734,94.68399810791016"></path></g></g></g><g transform="matrix(-0.3330000042915344,0,0,0.3330000042915344,117.46381378173828,10.091419219970703)" opacity="1" style="display: block;"><g opacity="1" transform="matrix(1,0,0,1,0,0)"><path stroke-linecap="round" stroke-linejoin="round" fill-opacity="0" stroke="rgb(78,67,95)" stroke-opacity="1" stroke-width="6" d=" M258.32000732421875,64.66100311279297 C258.32000732421875,64.66100311279297 258.32000732421875,94.68599700927734 258.32000732421875,94.68599700927734"></path></g><g opacity="1" transform="matrix(1,0,0,1,0,0)"><path stroke-linecap="round" stroke-linejoin="round" fill-opacity="0" stroke="rgb(78,67,95)" stroke-opacity="1" stroke-width="6" d=" M240.48399353027344,64.66100311279297 C240.48399353027344,64.66100311279297 240.48399353027344,94.68599700927734 240.48399353027344,94.68599700927734"></path></g><g opacity="1" transform="matrix(1,0,0,1,68.70899963378906,42.303001403808594)"><path fill="rgb(192,66,60)" fill-opacity="1" d=" M26.434999465942383,3.2750000953674316 C26.434999465942383,3.2750000953674316 26.434999465942383,-5.361999988555908 26.434999465942383,-5.361999988555908 C26.434999465942383,-5.361999988555908 -26.434999465942383,5.361999988555908 -26.434999465942383,5.361999988555908 C-26.434999465942383,5.361999988555908 26.434999465942383,3.2750000953674316 26.434999465942383,3.2750000953674316z"></path></g><g opacity="1" transform="matrix(1,0,0,1,191.51600646972656,27.535999298095703)"><path fill="rgb(212,195,206)" fill-opacity="1" d=" M-19.309999465942383,-12.748000144958496 C-19.309999465942383,-12.748000144958496 19.309999465942383,-12.748000144958496 19.309999465942383,-12.748000144958496 C19.309999465942383,-12.748000144958496 19.309999465942383,12.748000144958496 19.309999465942383,12.748000144958496 C19.309999465942383,12.748000144958496 -19.309999465942383,12.748000144958496 -19.309999465942383,12.748000144958496 C-19.309999465942383,12.748000144958496 -19.309999465942383,-12.748000144958496 -19.309999465942383,-12.748000144958496z"></path></g><g opacity="1" transform="matrix(1,0,0,1,138.0330047607422,31.226999282836914)"><path fill="rgb(212,195,206)" fill-opacity="1" d=" M34.17399978637695,-16.43899917602539 C-6.946000099182129,-16.43899917602539 -34.17399978637695,16.43899917602539 -34.17399978637695,16.43899917602539 C-34.17399978637695,16.43899917602539 34.17399978637695,16.43899917602539 34.17399978637695,16.43899917602539 C34.17399978637695,16.43899917602539 34.17399978637695,-16.43899917602539 34.17399978637695,-16.43899917602539z"></path></g><g opacity="1" transform="matrix(1,0,0,1,156.83399963378906,29.225000381469727)"><path fill="rgb(78,67,95)" fill-opacity="1" d=" M40.034000396728516,4.373000144958496 C40.034000396728516,4.373000144958496 40.034000396728516,-10.954000473022461 40.034000396728516,-10.954000473022461 C40.034000396728516,-10.954000473022461 15.371999740600586,-10.954000473022461 15.371999740600586,-10.954000473022461 C-9.369999885559082,-10.954000473022461 -29.025999069213867,1.7389999628067017 -40.034000396728516,10.954000473022461 C-40.034000396728516,10.954000473022461 15.015000343322754,10.954000473022461 15.015000343322754,10.954000473022461 C15.015000343322754,10.954000473022461 40.034000396728516,4.373000144958496 40.034000396728516,4.373000144958496z"></path></g><g opacity="1" transform="matrix(1,0,0,1,175.2790069580078,28.53700065612793)"><path fill="rgb(212,195,206)" fill-opacity="1" d=" M-3.072999954223633,-12.748000144958496 C-3.072999954223633,-12.748000144958496 3.072999954223633,-12.748000144958496 3.072999954223633,-12.748000144958496 C3.072999954223633,-12.748000144958496 3.072999954223633,12.748000144958496 3.072999954223633,12.748000144958496 C3.072999954223633,12.748000144958496 -3.072999954223633,12.748000144958496 -3.072999954223633,12.748000144958496 C-3.072999954223633,12.748000144958496 -3.072999954223633,-12.748000144958496 -3.072999954223633,-12.748000144958496z"></path></g><g opacity="1" transform="matrix(1,0,0,1,230.92799377441406,45.97200012207031)"><path fill="rgb(192,66,60)" fill-opacity="1" d=" M3.4140000343322754,-23.01300048828125 C3.4140000343322754,-23.01300048828125 -56.81800079345703,-17.94099998474121 -56.81800079345703,-17.94099998474121 C-61.441001892089844,-17.552000045776367 -65.01399993896484,-13.282999992370605 -65.01399993896484,-8.145999908447266 C-65.01399993896484,-8.145999908447266 -65.01399993896484,2.765000104904175 -65.01399993896484,2.765000104904175 C-65.01399993896484,2.765000104904175 -54.5620002746582,23.01300048828125 -54.5620002746582,23.01300048828125 C-54.5620002746582,23.01300048828125 41.183998107910156,-9.031000137329102 41.183998107910156,-9.031000137329102 C41.183998107910156,-9.031000137329102 65.01399993896484,-12.034000396728516 65.01399993896484,-12.034000396728516 C65.01399993896484,-12.034000396728516 3.4140000343322754,-23.01300048828125 3.4140000343322754,-23.01300048828125z"></path></g><g opacity="1" transform="matrix(1,0,0,1,157.91400146484375,47.70800018310547)"><path fill="rgb(78,67,95)" fill-opacity="1" d=" M17.364999771118164,5.079999923706055 C17.364999771118164,5.079999923706055 -17.364999771118164,5.079999923706055 -17.364999771118164,5.079999923706055 C-17.364999771118164,5.079999923706055 -17.364999771118164,-5.079999923706055 -17.364999771118164,-5.079999923706055 C-17.364999771118164,-5.079999923706055 17.364999771118164,-5.079999923706055 17.364999771118164,-5.079999923706055 C17.364999771118164,-5.079999923706055 17.364999771118164,5.079999923706055 17.364999771118164,5.079999923706055z"></path></g><g opacity="1" transform="matrix(1,0,0,1,262.95098876953125,17.0939998626709)"><path fill="rgb(192,66,60)" fill-opacity="1" d=" M32.99100112915039,16.8439998626709 C32.99100112915039,16.8439998626709 -32.99100112915039,16.8439998626709 -32.99100112915039,16.8439998626709 C-32.99100112915039,16.8439998626709 -28.239999771118164,-16.8439998626709 -28.239999771118164,-16.8439998626709 C-28.239999771118164,-16.8439998626709 28.240999221801758,-16.8439998626709 28.240999221801758,-16.8439998626709 C28.240999221801758,-16.8439998626709 32.99100112915039,16.8439998626709 32.99100112915039,16.8439998626709z"></path></g><g opacity="1" transform="matrix(1,0,0,1,276.1300048828125,52.28900146484375)"><path fill="rgb(78,67,95)" fill-opacity="1" d=" M4.019000053405762,10.812000274658203 C4.019000053405762,10.812000274658203 -4.019000053405762,15.347999572753906 -4.019000053405762,15.347999572753906 C-4.019000053405762,15.347999572753906 -4.019000053405762,-15.347999572753906 -4.019000053405762,-15.347999572753906 C-4.019000053405762,-15.347999572753906 4.019000053405762,-10.812999725341797 4.019000053405762,-10.812999725341797 C4.019000053405762,-10.812999725341797 4.019000053405762,10.812000274658203 4.019000053405762,10.812000274658203z"></path></g><g opacity="1" transform="matrix(1,0,0,1,199.03500366210938,70.73300170898438)"><path fill="rgb(78,67,95)" fill-opacity="1" d=" M35.553001403808594,3.0950000286102295 C35.553001403808594,3.0950000286102295 -29.36199951171875,3.0950000286102295 -29.36199951171875,3.0950000286102295 C-32.78099822998047,3.0950000286102295 -35.553001403808594,0.3240000009536743 -35.553001403808594,-3.0950000286102295 C-35.553001403808594,-3.0950000286102295 35.553001403808594,-3.0950000286102295 35.553001403808594,-3.0950000286102295 C35.553001403808594,-3.0950000286102295 35.553001403808594,3.0950000286102295 35.553001403808594,3.0950000286102295z"></path></g><g opacity="1" transform="matrix(1,0,0,1,260.9590148925781,76.90499877929688)"><path fill="rgb(78,67,95)" fill-opacity="1" d=" M28.31800079345703,9.267000198364258 C28.31800079345703,9.267000198364258 -25.058000564575195,9.267000198364258 -25.058000564575195,9.267000198364258 C-27.88599967956543,9.267000198364258 -30.483999252319336,7.708000183105469 -31.812000274658203,5.210999965667725 C-31.812000274658203,5.210999965667725 -39.516998291015625,-9.267000198364258 -39.516998291015625,-9.267000198364258 C-39.516998291015625,-9.267000198364258 39.516998291015625,-9.267000198364258 39.516998291015625,-9.267000198364258 C39.516998291015625,-9.267000198364258 39.516998291015625,-1.930999994277954 39.516998291015625,-1.930999994277954 C39.516998291015625,4.254000186920166 34.50299835205078,9.267000198364258 28.31800079345703,9.267000198364258z"></path></g><g opacity="1" transform="matrix(1,0,0,1,246.3350067138672,52.28799819946289)"><path fill="rgb(209,105,94)" fill-opacity="1" d=" M-25.777000427246094,15.347999572753906 C-25.777000427246094,15.347999572753906 25.777000427246094,15.347999572753906 25.777000427246094,15.347999572753906 C25.777000427246094,15.347999572753906 25.777000427246094,-15.347999572753906 25.777000427246094,-15.347999572753906 C25.777000427246094,-15.347999572753906 -25.777000427246094,-15.347999572753906 -25.777000427246094,-15.347999572753906 C-25.777000427246094,-15.347999572753906 -25.777000427246094,15.347999572753906 -25.777000427246094,15.347999572753906z"></path></g><g opacity="1" transform="matrix(1,0,0,1,246.3350067138672,62.35499954223633)"><path fill="rgb(192,66,60)" fill-opacity="1" d=" M-25.777000427246094,5.281000137329102 C-25.777000427246094,5.281000137329102 25.777000427246094,5.281000137329102 25.777000427246094,5.281000137329102 C25.777000427246094,5.281000137329102 25.777000427246094,-5.281000137329102 25.777000427246094,-5.281000137329102 C25.777000427246094,-5.281000137329102 -25.777000427246094,-5.281000137329102 -25.777000427246094,-5.281000137329102 C-25.777000427246094,-5.281000137329102 -25.777000427246094,5.281000137329102 -25.777000427246094,5.281000137329102z"></path></g><g opacity="1" transform="matrix(1,0,0,1,196.99000549316406,52.28799819946289)"><path fill="rgb(174,153,164)" fill-opacity="1" d=" M23.56800079345703,15.347999572753906 C23.56800079345703,15.347999572753906 -23.56800079345703,15.347999572753906 -23.56800079345703,15.347999572753906 C-23.56800079345703,15.347999572753906 -23.56800079345703,-15.347999572753906 -23.56800079345703,-15.347999572753906 C-23.56800079345703,-15.347999572753906 23.56800079345703,-15.347999572753906 23.56800079345703,-15.347999572753906 C23.56800079345703,-15.347999572753906 23.56800079345703,15.347999572753906 23.56800079345703,15.347999572753906z"></path></g><g opacity="1" transform="matrix(1,0,0,1,182.4149932861328,47.72200012207031)"><path fill="rgb(139,124,141)" fill-opacity="1" d=" M-8.994000434875488,10.781000137329102 C-8.994000434875488,10.781000137329102 8.994000434875488,10.781000137329102 8.994000434875488,10.781000137329102 C8.994000434875488,10.781000137329102 8.994000434875488,-10.781000137329102 8.994000434875488,-10.781000137329102 C8.994000434875488,-10.781000137329102 -8.994000434875488,-10.781000137329102 -8.994000434875488,-10.781000137329102 C-8.994000434875488,-10.781000137329102 -8.994000434875488,10.781000137329102 -8.994000434875488,10.781000137329102z"></path></g><g opacity="1" transform="matrix(1,0,0,1,196.99000549316406,62.35499954223633)"><path fill="rgb(139,124,141)" fill-opacity="1" d=" M23.56800079345703,5.281000137329102 C23.56800079345703,5.281000137329102 -23.56800079345703,5.281000137329102 -23.56800079345703,5.281000137329102 C-23.56800079345703,5.281000137329102 -23.56800079345703,-5.281000137329102 -23.56800079345703,-5.281000137329102 C-23.56800079345703,-5.281000137329102 23.56800079345703,-5.281000137329102 23.56800079345703,-5.281000137329102 C23.56800079345703,-5.281000137329102 23.56800079345703,5.281000137329102 23.56800079345703,5.281000137329102z"></path></g><g opacity="1" transform="matrix(1,0,0,1,95.14399719238281,51.349998474121094)"><path fill="rgb(209,105,94)" fill-opacity="1" d=" M94.89399719238281,-7.626999855041504 C94.89399719238281,-7.626999855041504 94.89399719238281,-17.635000228881836 94.89399719238281,-17.635000228881836 C94.89399719238281,-17.635000228881836 -94.89399719238281,-1.656000018119812 -94.89399719238281,-1.656000018119812 C-94.89399719238281,-1.656000018119812 -94.89399719238281,1.6260000467300415 -94.89399719238281,1.6260000467300415 C-94.89399719238281,1.6260000467300415 81.2229995727539,17.635000228881836 81.2229995727539,17.635000228881836 C81.2229995727539,17.635000228881836 81.2229995727539,2.381999969482422 81.2229995727539,2.381999969482422 C81.2229995727539,2.381999969482422 46.85499954223633,2.381999969482422 46.85499954223633,2.381999969482422 C46.85499954223633,2.381999969482422 46.85499954223633,-7.626999855041504 46.85499954223633,-7.626999855041504 C46.85499954223633,-7.626999855041504 94.89399719238281,-7.626999855041504 94.89399719238281,-7.626999855041504z"></path></g><g opacity="1" transform="matrix(1,0,0,1,88.30799865722656,60.97999954223633)"><path fill="rgb(192,66,60)" fill-opacity="1" d=" M-88.05799865722656,-8.005000114440918 C-88.05799865722656,-8.005000114440918 88.05799865722656,8.005000114440918 88.05799865722656,8.005000114440918 C88.05799865722656,8.005000114440918 88.05799865722656,-5.247000217437744 88.05799865722656,-5.247000217437744 C88.05799865722656,-5.247000217437744 -88.05799865722656,-8.005000114440918 -88.05799865722656,-8.005000114440918z"></path></g><g opacity="1" transform="matrix(1,0,0,1,122.42400360107422,53.89899826049805)"><path fill="rgb(78,67,95)" fill-opacity="1" d=" M-17.639999389648438,-1.406000018119812 C-17.639999389648438,-1.406000018119812 18.979999542236328,-3.174999952316284 18.979999542236328,-3.174999952316284 C18.979999542236328,-3.174999952316284 18.979999542236328,3.174999952316284 18.979999542236328,3.174999952316284 C18.979999542236328,3.174999952316284 -17.639999389648438,1.4049999713897705 -17.639999389648438,1.4049999713897705 C-18.389999389648438,1.36899995803833 -18.979999542236328,0.75 -18.979999542236328,0 C-18.979999542236328,-0.7509999871253967 -18.389999389648438,-1.3700000047683716 -17.639999389648438,-1.406000018119812z"></path></g><g opacity="1" transform="matrix(1,0,0,1,160.81100463867188,53.89899826049805)"><path fill="rgb(194,172,185)" fill-opacity="1" d=" M19.409000396728516,-5.75 C19.409000396728516,-5.75 -19.409000396728516,-5.75 -19.409000396728516,-5.75 C-19.409000396728516,-5.75 -19.409000396728516,5.75 -19.409000396728516,5.75 C-19.409000396728516,5.75 19.409000396728516,5.75 19.409000396728516,5.75 C19.409000396728516,5.75 19.409000396728516,-5.75 19.409000396728516,-5.75z"></path></g><g opacity="1" transform="matrix(1,0,0,1,216.81199645996094,52.76499938964844)"><path fill="rgb(139,124,141)" fill-opacity="1" d=" M-3.746000051498413,-1.4290000200271606 C-3.746000051498413,-1.4290000200271606 3.746000051498413,-1.4290000200271606 3.746000051498413,-1.4290000200271606 C3.746000051498413,-1.4290000200271606 3.746000051498413,1.4290000200271606 3.746000051498413,1.4290000200271606 C3.746000051498413,1.4290000200271606 -3.746000051498413,1.4290000200271606 -3.746000051498413,1.4290000200271606 C-3.746000051498413,1.4290000200271606 -3.746000051498413,-1.4290000200271606 -3.746000051498413,-1.4290000200271606z"></path></g><g opacity="1" transform="matrix(1,0,0,1,216.81199645996094,47.00699996948242)"><path fill="rgb(139,124,141)" fill-opacity="1" d=" M-3.746000051498413,-1.4290000200271606 C-3.746000051498413,-1.4290000200271606 3.746000051498413,-1.4290000200271606 3.746000051498413,-1.4290000200271606 C3.746000051498413,-1.4290000200271606 3.746000051498413,1.4290000200271606 3.746000051498413,1.4290000200271606 C3.746000051498413,1.4290000200271606 -3.746000051498413,1.4290000200271606 -3.746000051498413,1.4290000200271606 C-3.746000051498413,1.4290000200271606 -3.746000051498413,-1.4290000200271606 -3.746000051498413,-1.4290000200271606z"></path></g><g opacity="1" transform="matrix(1,0,0,1,216.81199645996094,41.24800109863281)"><path fill="rgb(139,124,141)" fill-opacity="1" d=" M-3.746000051498413,-1.4290000200271606 C-3.746000051498413,-1.4290000200271606 3.746000051498413,-1.4290000200271606 3.746000051498413,-1.4290000200271606 C3.746000051498413,-1.4290000200271606 3.746000051498413,1.4290000200271606 3.746000051498413,1.4290000200271606 C3.746000051498413,1.4290000200271606 -3.746000051498413,1.4290000200271606 -3.746000051498413,1.4290000200271606 C-3.746000051498413,1.4290000200271606 -3.746000051498413,-1.4290000200271606 -3.746000051498413,-1.4290000200271606z"></path></g><g opacity="1" transform="matrix(1,0,0,1,212.3800048828125,47.72200012207031)"><path fill="rgb(139,124,141)" fill-opacity="1" d=" M-0.6859999895095825,10.781000137329102 C-0.6859999895095825,10.781000137329102 0.6859999895095825,10.781000137329102 0.6859999895095825,10.781000137329102 C0.6859999895095825,10.781000137329102 0.6859999895095825,-10.781000137329102 0.6859999895095825,-10.781000137329102 C0.6859999895095825,-10.781000137329102 -0.6859999895095825,-10.781000137329102 -0.6859999895095825,-10.781000137329102 C-0.6859999895095825,-10.781000137329102 -0.6859999895095825,10.781000137329102 -0.6859999895095825,10.781000137329102z"></path></g><g opacity="1" transform="matrix(1,0,0,1,195.15499877929688,52.76499938964844)"><path fill="rgb(139,124,141)" fill-opacity="1" d=" M-3.746000051498413,-1.4290000200271606 C-3.746000051498413,-1.4290000200271606 3.746000051498413,-1.4290000200271606 3.746000051498413,-1.4290000200271606 C3.746000051498413,-1.4290000200271606 3.746000051498413,1.4290000200271606 3.746000051498413,1.4290000200271606 C3.746000051498413,1.4290000200271606 -3.746000051498413,1.4290000200271606 -3.746000051498413,1.4290000200271606 C-3.746000051498413,1.4290000200271606 -3.746000051498413,-1.4290000200271606 -3.746000051498413,-1.4290000200271606z"></path></g><g opacity="1" transform="matrix(1,0,0,1,195.15499877929688,47.00699996948242)"><path fill="rgb(139,124,141)" fill-opacity="1" d=" M-3.746000051498413,-1.4290000200271606 C-3.746000051498413,-1.4290000200271606 3.746000051498413,-1.4290000200271606 3.746000051498413,-1.4290000200271606 C3.746000051498413,-1.4290000200271606 3.746000051498413,1.4290000200271606 3.746000051498413,1.4290000200271606 C3.746000051498413,1.4290000200271606 -3.746000051498413,1.4290000200271606 -3.746000051498413,1.4290000200271606 C-3.746000051498413,1.4290000200271606 -3.746000051498413,-1.4290000200271606 -3.746000051498413,-1.4290000200271606z"></path></g><g opacity="1" transform="matrix(1,0,0,1,195.15499877929688,41.24800109863281)"><path fill="rgb(139,124,141)" fill-opacity="1" d=" M-3.746000051498413,-1.4290000200271606 C-3.746000051498413,-1.4290000200271606 3.746000051498413,-1.4290000200271606 3.746000051498413,-1.4290000200271606 C3.746000051498413,-1.4290000200271606 3.746000051498413,1.4290000200271606 3.746000051498413,1.4290000200271606 C3.746000051498413,1.4290000200271606 -3.746000051498413,1.4290000200271606 -3.746000051498413,1.4290000200271606 C-3.746000051498413,1.4290000200271606 -3.746000051498413,-1.4290000200271606 -3.746000051498413,-1.4290000200271606z"></path></g><g opacity="1" transform="matrix(1,0,0,1,205.29800415039062,47.00699996948242)"><path fill="rgb(194,172,185)" fill-opacity="1" d=" M-6.395999908447266,10.065999984741211 C-6.395999908447266,10.065999984741211 6.395999908447266,10.065999984741211 6.395999908447266,10.065999984741211 C6.395999908447266,10.065999984741211 6.395999908447266,-10.065999984741211 6.395999908447266,-10.065999984741211 C6.395999908447266,-10.065999984741211 -6.395999908447266,-10.065999984741211 -6.395999908447266,-10.065999984741211 C-6.395999908447266,-10.065999984741211 -6.395999908447266,10.065999984741211 -6.395999908447266,10.065999984741211z"></path></g><g opacity="1" transform="matrix(1,0,0,1,185.1280059814453,53.89899826049805)"><path fill="rgb(194,172,185)" fill-opacity="1" d=" M-4.908999919891357,-3.174999952316284 C-4.908999919891357,-3.174999952316284 4.908999919891357,-3.174999952316284 4.908999919891357,-3.174999952316284 C4.908999919891357,-3.174999952316284 4.908999919891357,3.174999952316284 4.908999919891357,3.174999952316284 C4.908999919891357,3.174999952316284 -4.908999919891357,3.174999952316284 -4.908999919891357,3.174999952316284 C-4.908999919891357,3.174999952316284 -4.908999919891357,-3.174999952316284 -4.908999919891357,-3.174999952316284z"></path></g></g></g></svg>