<svg xmlns="http://www.w3.org/2000/svg" viewBox="0 0 74 42" width="74" height="42" preserveAspectRatio="xMidYMid meet" style="width: 100%; height: 100%; transform: translate3d(0px, 0px, 0px); content-visibility: visible;"><defs><clipPath id="__lottie_element_1838"><rect width="74" height="42" x="0" y="0"></rect></clipPath><mask id="__lottie_element_1843" mask-type="alpha"><g transform="matrix(0.257999986410141,0,0,0.257999986410141,-1094.18896484375,46.474998474121094)" opacity="1" style="display: block;"><g opacity="1" transform="matrix(1.008239984512329,0,0,1.051069974899292,4362.36279296875,-169.15199279785156)"><path fill="rgb(106,166,186)" fill-opacity="1" d=" M154.36349487304688,-124.84750366210938 C154.36349487304688,-124.84750366210938 154.36349487304688,124.84750366210938 154.36349487304688,124.84750366210938 C154.36349487304688,124.84750366210938 -154.36349487304688,124.84750366210938 -154.36349487304688,124.84750366210938 C-154.36349487304688,124.84750366210938 -154.36349487304688,-124.84750366210938 -154.36349487304688,-124.84750366210938 C-154.36349487304688,-124.84750366210938 154.36349487304688,-124.84750366210938 154.36349487304688,-124.84750366210938z"></path><path stroke-linecap="butt" stroke-linejoin="miter" fill-opacity="0" stroke-miterlimit="4" stroke="rgb(255,202,77)" stroke-opacity="1" stroke-width="0" d=" M154.36349487304688,-124.84750366210938 C154.36349487304688,-124.84750366210938 154.36349487304688,124.84750366210938 154.36349487304688,124.84750366210938 C154.36349487304688,124.84750366210938 -154.36349487304688,124.84750366210938 -154.36349487304688,124.84750366210938 C-154.36349487304688,124.84750366210938 -154.36349487304688,-124.84750366210938 -154.36349487304688,-124.84750366210938 C-154.36349487304688,-124.84750366210938 154.36349487304688,-124.84750366210938 154.36349487304688,-124.84750366210938z"></path></g></g></mask></defs><g clip-path="url(#__lottie_element_1838)"><g mask="url(#__lottie_element_1843)" style="display: block;"><g transform="matrix(1.7705752849578857,-0.3559478521347046,0.3559478521347046,1.7705752849578857,29.01493263244629,5.971698760986328)" opacity="1"><g opacity="1" transform="matrix(1,0,0,1,7.795000076293945,2.6500000953674316)"><path fill="rgb(245,138,70)" fill-opacity="1" d=" M-2.8589999675750732,0.07699999958276749 C-2.2149999141693115,-0.7179999947547913 -1.309000015258789,-1.4529999494552612 -0.5009999871253967,-1.8960000276565552 C0.41999998688697815,-2.4000000953674316 0.7440000176429749,-1.7630000114440918 0.8339999914169312,-0.8299999833106995 C0.8730000257492065,-0.41999998688697815 1.1929999589920044,-0.19300000369548798 1.5110000371932983,-0.09399999678134918 C1.8289999961853027,0.004999999888241291 2.180000066757202,0.027000000700354576 2.446000099182129,0.23999999463558197 C2.7090001106262207,0.44999998807907104 2.8589999675750732,0.8429999947547913 2.8369998931884766,1.2630000114440918 C2.813999891281128,1.6829999685287476 2.619999885559082,2.119999885559082 2.3310000896453857,2.4000000953674316"></path></g><g opacity="1" transform="matrix(1,0,0,1,5.341000080108643,9.13700008392334)"><path fill="rgb(245,138,70)" fill-opacity="1" d=" M-1.402999997138977,-1.6260000467300415 C-1.2690000534057617,-0.9509999752044678 -1.1339999437332153,-0.27000001072883606 -0.8610000014305115,0.3619999885559082 C-0.6110000014305115,0.9430000185966492 -0.17000000178813934,1.5240000486373901 0.4580000042915344,1.6050000190734863 C0.621999979019165,1.6260000467300415 0.796999990940094,1.6080000400543213 0.9359999895095825,1.5190000534057617 C1.100000023841858,1.4140000343322754 1.1920000314712524,1.2280000448226929 1.2549999952316284,1.0440000295639038 C1.3589999675750732,0.7390000224113464 1.402999997138977,0.414000004529953 1.3860000371932983,0.09300000220537186"></path></g><g opacity="1" transform="matrix(1,0,0,1,6.034999847412109,6.034999847412109)"><path fill="rgb(245,138,70)" fill-opacity="1" d=" M5.198999881744385,1.7940000295639038 C5.784999847412109,0.09700000286102295 3.931999921798706,-2.0810000896453857 1.0609999895095825,-3.072000026702881 C-1.8109999895095825,-4.063000202178955 -4.61299991607666,-3.492000102996826 -5.198999881744385,-1.7949999570846558 C-5.784999847412109,-0.0989999994635582 -3.931999921798706,2.0810000896453857 -1.059999942779541,3.072000026702881 C1.8109999895095825,4.064000129699707 4.61299991607666,3.490999937057495 5.198999881744385,1.7940000295639038z"></path></g><g opacity="1" transform="matrix(1,0,0,1,3.38700008392334,4.504000186920166)"><path fill="rgb(255,238,207)" fill-opacity="1" d=" M0.8790000081062317,0.30300000309944153 C1.0470000505447388,-0.18199999630451202 0.7879999876022339,-0.7110000252723694 0.30300000309944153,-0.8790000081062317 C-0.18299999833106995,-1.0460000038146973 -0.7120000123977661,-0.7889999747276306 -0.8790000081062317,-0.30399999022483826 C-1.0470000505447388,0.18199999630451202 -0.7879999876022339,0.7110000252723694 -0.30300000309944153,0.878000020980835 C0.18199999630451202,1.0460000038146973 0.7120000123977661,0.7879999876022339 0.8790000081062317,0.30300000309944153z"></path></g><g opacity="1" transform="matrix(1,0,0,1,11.916000366210938,8.114999771118164)"><path fill="rgb(245,138,70)" fill-opacity="1" d=" M-1.8569999933242798,-1.8079999685287476 C-0.6940000057220459,-1.812999963760376 0.04800000041723251,-2.953000068664551 1.5820000171661377,-2.4240000247955322 C2.0460000038146973,-2.2639999389648438 2.5460000038146973,-1.6679999828338623 2.4110000133514404,-1.1510000228881836 C2.1740000247955322,-0.24199999868869781 1.3320000171661377,-0.43299999833106995 1.0720000267028809,0.3199999928474426 C0.8119999766349792,1.0720000267028809 1.593000054359436,1.4420000314712524 1.218999981880188,2.303999900817871 C1.0069999694824219,2.7939999103546143 0.24500000476837158,2.953000068664551 -0.21899999678134918,2.7929999828338623 C-1.753000020980835,2.2639999389648438 -1.6339999437332153,0.9089999794960022 -2.546999931335449,0.18700000643730164 C-2.546999931335449,0.18700000643730164 -1.8569999933242798,-1.8079999685287476 -1.8569999933242798,-1.8079999685287476z"></path></g><g opacity="1" transform="matrix(1,0,0,1,7.164000034332275,6.381999969482422)"><path fill="rgb(255,238,207)" fill-opacity="1" d=" M0.46700000762939453,0.2029999941587448 C0.8420000076293945,-0.8830000162124634 1.218999981880188,-1.8669999837875366 1.5549999475479126,-2.6589999198913574 C1.2730000019073486,-2.8259999752044678 0.9810000061988831,-2.98799991607666 0.6639999747276306,-3.128000020980835 C0.11100000143051147,-2.61899995803833 -0.5019999742507935,-1.5759999752044678 -0.9480000138282776,-0.2840000092983246 C-1.3940000534057617,1.0069999694824219 -1.5540000200271606,2.2060000896453857 -1.4329999685287476,2.947000026702881 C-1.097000002861023,3.0320000648498535 -0.7680000066757202,3.0850000381469727 -0.44200000166893005,3.128000020980835 C-0.21799999475479126,2.296999931335449 0.09200000017881393,1.2890000343322754 0.46700000762939453,0.2029999941587448z"></path></g><g opacity="1" transform="matrix(1,0,0,1,9.734999656677246,7.158999919891357)"><path fill="rgb(255,238,207)" fill-opacity="1" d=" M1.2589999437332153,-1.246999979019165 C1.0540000200271606,-1.6330000162124634 0.7390000224113464,-2.006999969482422 0.37599998712539673,-2.367000102996826 C0.0949999988079071,-1.5809999704360962 -0.25699999928474426,-0.5809999704360962 -0.4560000002384186,-0.004999999888241291 C-0.6539999842643738,0.5709999799728394 -0.9959999918937683,1.5759999752044678 -1.2589999437332153,2.367000102996826 C-0.7509999871253967,2.308000087738037 -0.2720000147819519,2.2079999446868896 0.12700000405311584,2.0309998989105225 C0.2549999952316284,1.5230000019073486 0.41999998688697815,0.9629999995231628 0.625,0.36899998784065247 C0.8299999833106995,-0.22499999403953552 1.0470000505447388,-0.7689999938011169 1.2589999437332153,-1.246999979019165z"></path></g></g></g><g transform="matrix(0.5364897847175598,-0.6393636465072632,0.6393636465072632,0.5364897847175598,64.84019470214844,32.38777160644531)" opacity="1" style="display: block;"><g opacity="1" transform="matrix(1,0,0,1,3.5969998836517334,2.615999937057495)"><path fill="rgb(184,228,250)" fill-opacity="1" d=" M3.1059999465942383,-0.33799999952316284 C3.3480000495910645,0.3919999897480011 2.992000102996826,1.246999979019165 2.3519999980926514,1.6740000247955322 C1.3170000314712524,2.365000009536743 -0.06199999898672104,1.8849999904632568 -0.7580000162124634,0.9819999933242798 C-1.1399999856948853,0.4880000054836273 -1.1540000438690186,-0.20200000703334808 -1.6640000343322754,-0.6230000257492065 C-1.8140000104904175,-0.746999979019165 -3.249000072479248,-1.3769999742507935 -3.3469998836517334,-1.3259999752044678 C-2.5980000495910645,-1.7200000286102295 -1.8140000104904175,-2.072999954223633 -0.9769999980926514,-2.190000057220459 C0.26899999380111694,-2.365000009536743 2.6540000438690186,-1.7020000219345093 3.1059999465942383,-0.33799999952316284z"></path></g></g><g transform="matrix(0.28165683150291443,-1.0761622190475464,1.0761622190475464,0.28165683150291443,58.185150146484375,33.86566162109375)" opacity="1" style="display: block;"><g opacity="1" transform="matrix(1,0,0,1,3.5969998836517334,2.615999937057495)"><path fill="rgb(184,228,250)" fill-opacity="1" d=" M3.1059999465942383,-0.33799999952316284 C3.3480000495910645,0.3919999897480011 2.992000102996826,1.246999979019165 2.3519999980926514,1.6740000247955322 C1.3170000314712524,2.365000009536743 -0.06199999898672104,1.8849999904632568 -0.7580000162124634,0.9819999933242798 C-1.1399999856948853,0.4880000054836273 -1.1540000438690186,-0.20200000703334808 -1.6640000343322754,-0.6230000257492065 C-1.8140000104904175,-0.746999979019165 -3.249000072479248,-1.3769999742507935 -3.3469998836517334,-1.3259999752044678 C-2.5980000495910645,-1.7200000286102295 -1.8140000104904175,-2.072999954223633 -0.9769999980926514,-2.190000057220459 C0.26899999380111694,-2.365000009536743 2.6540000438690186,-1.7020000219345093 3.1059999465942383,-0.33799999952316284z"></path></g></g><g transform="matrix(1.2512998580932617,0,0,-1.2512998580932617,56.6265869140625,38.201866149902344)" opacity="1" style="display: block;"><g opacity="1" transform="matrix(-0.203400120139122,0.7771568894386292,-0.7771568894386292,-0.203400120139122,1.5180000066757202,3.5813333988189697)"><path fill="rgb(184,228,250)" fill-opacity="1" d=" M3.1059999465942383,-0.33799999952316284 C3.3480000495910645,0.3919999897480011 2.992000102996826,1.246999979019165 2.3519999980926514,1.6740000247955322 C1.3170000314712524,2.365000009536743 -0.06199999898672104,1.8849999904632568 -0.7580000162124634,0.9819999933242798 C-1.1399999856948853,0.4880000054836273 -1.1540000438690186,-0.20200000703334808 -1.6640000343322754,-0.6230000257492065 C-1.8140000104904175,-0.746999979019165 -3.249000072479248,-1.3769999742507935 -3.3469998836517334,-1.3259999752044678 C-2.5980000495910645,-1.7200000286102295 -1.8140000104904175,-2.072999954223633 -0.9769999980926514,-2.190000057220459 C0.26899999380111694,-2.365000009536743 2.6540000438690186,-1.7020000219345093 3.1059999465942383,-0.33799999952316284z"></path></g></g><g transform="matrix(0.04366973787546158,-1.250537633895874,1.250537633895874,0.04366973787546158,9.453032493591309,37.11941146850586)" opacity="1" style="display: none;"><g opacity="1" transform="matrix(1,0,0,1,3.5969998836517334,2.615999937057495)"><path fill="rgb(184,228,250)" fill-opacity="1" d=" M3.1059999465942383,-0.33799999952316284 C3.3480000495910645,0.3919999897480011 2.992000102996826,1.246999979019165 2.3519999980926514,1.6740000247955322 C1.3170000314712524,2.365000009536743 -0.06199999898672104,1.8849999904632568 -0.7580000162124634,0.9819999933242798 C-1.1399999856948853,0.4880000054836273 -1.1540000438690186,-0.20200000703334808 -1.6640000343322754,-0.6230000257492065 C-1.8140000104904175,-0.746999979019165 -3.249000072479248,-1.3769999742507935 -3.3469998836517334,-1.3259999752044678 C-2.5980000495910645,-1.7200000286102295 -1.8140000104904175,-2.072999954223633 -0.9769999980926514,-2.190000057220459 C0.26899999380111694,-2.365000009536743 2.6540000438690186,-1.7020000219345093 3.1059999465942383,-0.33799999952316284z"></path></g></g><g transform="matrix(0.04366973787546158,-1.250537633895874,1.250537633895874,0.04366973787546158,4.938032627105713,34.66841125488281)" opacity="1" style="display: none;"><g opacity="1" transform="matrix(1,0,0,1,3.5969998836517334,2.615999937057495)"><path fill="rgb(184,228,250)" fill-opacity="1" d=" M3.1059999465942383,-0.33799999952316284 C3.3480000495910645,0.3919999897480011 2.992000102996826,1.246999979019165 2.3519999980926514,1.6740000247955322 C1.3170000314712524,2.365000009536743 -0.06199999898672104,1.8849999904632568 -0.7580000162124634,0.9819999933242798 C-1.1399999856948853,0.4880000054836273 -1.1540000438690186,-0.20200000703334808 -1.6640000343322754,-0.6230000257492065 C-1.8140000104904175,-0.746999979019165 -3.249000072479248,-1.3769999742507935 -3.3469998836517334,-1.3259999752044678 C-2.5980000495910645,-1.7200000286102295 -1.8140000104904175,-2.072999954223633 -0.9769999980926514,-2.190000057220459 C0.26899999380111694,-2.365000009536743 2.6540000438690186,-1.7020000219345093 3.1059999465942383,-0.33799999952316284z"></path></g></g><g transform="matrix(1.2512998580932617,0,0,-1.2512998580932617,3.478593111038208,36.13786697387695)" opacity="1" style="display: none;"><g opacity="0" transform="matrix(0.3420201539993286,0.9396926164627075,-0.9396926164627075,0.3420201539993286,3.5969998836517334,2.615999937057495)"><path fill="rgb(184,228,250)" fill-opacity="1" d=" M3.1059999465942383,-0.33799999952316284 C3.3480000495910645,0.3919999897480011 2.992000102996826,1.246999979019165 2.3519999980926514,1.6740000247955322 C1.3170000314712524,2.365000009536743 -0.06199999898672104,1.8849999904632568 -0.7580000162124634,0.9819999933242798 C-1.1399999856948853,0.4880000054836273 -1.1540000438690186,-0.20200000703334808 -1.6640000343322754,-0.6230000257492065 C-1.8140000104904175,-0.746999979019165 -3.249000072479248,-1.3769999742507935 -3.3469998836517334,-1.3259999752044678 C-2.5980000495910645,-1.7200000286102295 -1.8140000104904175,-2.072999954223633 -0.9769999980926514,-2.190000057220459 C0.26899999380111694,-2.365000009536743 2.6540000438690186,-1.7020000219345093 3.1059999465942383,-0.33799999952316284z"></path></g></g><g transform="matrix(0.9184799194335938,0,0,0.9184799194335938,31.837860107421875,38.585357666015625)" opacity="0.86" style="display: block;"><g opacity="1" transform="matrix(1,0,0,1,7.954999923706055,1.625)"><path fill="rgb(106,166,186)" fill-opacity="1" d=" M7.960000038146973,0 C7.960000038146973,-0.8970000147819519 4.395999908447266,-1.625 0,-1.625 C-4.395999908447266,-1.625 -7.959000110626221,-0.8970000147819519 -7.959000110626221,0 C-7.959000110626221,0.8970000147819519 -4.395999908447266,1.625 0,1.625 C4.395999908447266,1.625 7.960000038146973,0.8970000147819519 7.960000038146973,0z"></path></g></g></g></svg>