<svg xmlns="http://www.w3.org/2000/svg" viewBox="0 0 75 117" width="75" height="117" preserveAspectRatio="xMidYMid meet" style="width: 100%; height: 100%; transform: translate3d(0px, 0px, 0px); content-visibility: visible;"><defs><clipPath id="__lottie_element_246"><rect width="75" height="117" x="0" y="0"></rect></clipPath></defs><g clip-path="url(#__lottie_element_246)"><g transform="matrix(0.3330000042915344,0,0,0.3330000042915344,2.6741933822631836,10.174039840698242)" opacity="1" style="display: block;"><g opacity="1" transform="matrix(1,0,0,1,134.6179962158203,129.38800048828125)"><path fill="rgb(0,168,229)" fill-opacity="1" d=" M-28.937000274658203,-47.665000915527344 C-50.9370002746582,-48.665000915527344 -33.63399887084961,-22.202999114990234 -33.63399887084961,-22.202999114990234 C-33.63399887084961,-22.202999114990234 -34.505001068115234,8.675000190734863 -33.7400016784668,13.932000160217285 C-33.15399932861328,17.959999084472656 -33.060001373291016,21.68199920654297 -28.829999923706055,22.822999954223633 C-17.541000366210938,25.868999481201172 -17.12700080871582,12.458999633789062 -21.194000244140625,11.006999969482422 C-24.0310001373291,2.0829999446868896 -14.461999893188477,-20.93000030517578 -14.461999893188477,-34.64099884033203 C-14.461999893188477,-34.64099884033203 -11.427000045776367,-46.86899948120117 -28.937000274658203,-47.665000915527344z"></path></g><g opacity="1" transform="matrix(1,0,0,1,109.51399993896484,127.02200317382812)"><path fill="rgb(17,128,195)" fill-opacity="1" d=" M3.9100000858306885,13.371999740600586 C2.9719998836517334,10.420999526977539 3.3940000534057617,5.925000190734863 4.374000072479248,0.7390000224113464 C4.294000148773193,0.6129999756813049 4.2129998207092285,0.4880000054836273 4.135000228881836,0.3619999885559082 C-0.7049999833106995,-7.455999851226807 -1.6480000019073486,-17.232999801635742 1.6180000305175781,-25.715999603271484 C1.6180000305175781,-25.715999603271484 0.3970000147819519,-25.628000259399414 0.3970000147819519,-25.628000259399414 C0.3970000147819519,-25.628000259399414 -8.529999732971191,-19.836000442504883 -8.529999732971191,-19.836000442504883 C-8.529999732971191,-19.836000442504883 -9.401000022888184,11.041999816894531 -8.63599967956543,16.298999786376953 C-8.050000190734863,20.32699966430664 -7.956999778747559,24.04800033569336 -3.7260000705718994,25.190000534057617 C-3.0220000743865967,25.378999710083008 5.730999946594238,14.02299976348877 3.9100000858306885,13.371999740600586z"></path></g><g opacity="1" transform="matrix(1,0,0,1,117.01100158691406,101.15599822998047)"><path fill="rgb(17,128,195)" fill-opacity="1" d=" M-1.8480000495910645,-0.296999990940094 C-2.499000072479248,0.4819999933242798 -3.0759999752044678,1.4509999752044678 -2.828000068664551,2.4079999923706055 C-2.3940000534057617,4.086999893188477 0.01600000075995922,4.395999908447266 1.8919999599456787,4.242000102996826 C2.4830000400543213,1.1829999685287476 2.9210000038146973,-1.7400000095367432 3.0769999027252197,-4.395999908447266 C1.25,-3.193000078201294 -0.4950000047683716,-1.9149999618530273 -1.8480000495910645,-0.296999990940094z"></path></g></g><g transform="matrix(0.3330000042915344,0,0,0.3330000042915344,2.6741933822631836,10.174039840698242)" opacity="1" style="display: block;"><g opacity="1" transform="matrix(1,0,0,1,134.6179962158203,129.38800048828125)"><path fill="rgb(0,168,229)" fill-opacity="1" d=" M-33.7400016784668,13.932000160217285 C-33.15399932861328,17.959999084472656 -33.060001373291016,21.68199920654297 -28.829999923706055,22.822999954223633 C-17.541000366210938,25.868999481201172 -6.548999786376953,25.097999572753906 -0.546999990940094,25.452999114990234 C2.4489998817443848,25.631000518798828 5.3460001945495605,26.07900047302246 8.220000267028809,26.79400062561035 C11.065999984741211,27.500999450683594 13.574999809265137,29.06599998474121 16.035999298095703,30.5049991607666 C18.138999938964844,31.736000061035156 19.740999221801758,34.13100051879883 22.437000274658203,34.39899826049805 C24.878999710083008,34.64099884033203 27.316999435424805,32.71500015258789 27.433000564575195,30.452999114990234 C28.913999557495117,30.136999130249023 30.375999450683594,29.40999984741211 31.115999221801758,28.184999465942383 C31.854999542236328,26.959999084472656 31.62299919128418,25.19300079345703 30.344999313354492,24.43199920654297 C31.489999771118164,24.165000915527344 32.69900131225586,23.864999771118164 33.51300048828125,23.07699966430664 C34.32699966430664,22.288000106811523 34.505001068115234,20.840999603271484 33.560001373291016,20.187999725341797 C33.00299835205078,19.80299949645996 32.249000549316406,19.798999786376953 31.552000045776367,19.812000274658203 C28.225000381469727,19.875 24.89699935913086,19.940000534057617 21.56999969482422,20.00200080871582 C22.325000762939453,18.22800064086914 23.079999923706055,16.45199966430664 23.834999084472656,14.677000045776367 C24.166000366210938,13.901000022888184 24.354999542236328,12.777000427246094 23.523000717163086,12.446999549865723 C23.160999298095703,12.303999900817871 22.742000579833984,12.39900016784668 22.375,12.529000282287598 C19.634000778198242,13.505000114440918 17.8799991607666,16.023000717163086 15.343999862670898,17.344999313354492 C12.831000328063965,18.65399932861328 10.295000076293945,18.902000427246094 7.441999912261963,18.718000411987305 C1.8600000143051147,18.358999252319336 -3.614000082015991,16.749000549316406 -8.883999824523926,15.102999687194824 C-13.013999938964844,13.812000274658203 -17.12700080871582,12.458999633789062 -21.194000244140625,11.006999969482422 C-24.0310001373291,2.0829999446868896 -34.505001068115234,8.675000190734863 -33.7400016784668,13.932000160217285z"></path></g><g opacity="1" transform="matrix(1,0,0,1,109.51399993896484,127.02200317382812)"><path fill="rgb(17,128,195)" fill-opacity="1" d=" M9.401000022888184,15.26099967956543 C7.564000129699707,14.647000312805176 5.730999946594238,14.02299976348877 3.9100000858306885,13.371999740600586 C1.6670000553131104,4.699999809265137 -9.401000022888184,11.041999816894531 -8.63599967956543,16.298999786376953 C-8.050000190734863,20.32699966430664 -7.956999778747559,24.04800033569336 -3.7260000705718994,25.190000534057617 C-3.0220000743865967,25.378999710083008 -2.319000005722046,25.55500030517578 -1.61899995803833,25.715999603271484 C-0.46799999475479126,25.316999435424805 0.6359999775886536,24.739999771118164 1.6549999713897705,24.113000869750977 C5.125,21.972999572753906 8.248000144958496,18.85099983215332 9.401000022888184,15.26099967956543z"></path></g><g opacity="1" transform="matrix(1,0,0,1,122.56600189208984,148.12399291992188)"><path fill="rgb(179,82,48)" fill-opacity="1" d=" M-7.500999927520752,-9.104999542236328 C-12.11299991607666,-3.7939999103546143 -17.319000244140625,1.2319999933242798 -22.45199966430664,6.11899995803833 C-22.45199966430664,6.11899995803833 12.777999877929688,8.9350004196167 21.312000274658203,9.104999542236328 C21.691999435424805,5.618000030517578 22.07200050354004,2.128999948501587 22.45199966430664,-1.3589999675750732 C22.45199966430664,-1.3589999675750732 -7.500999927520752,-9.104999542236328 -7.500999927520752,-9.104999542236328z"></path></g></g><g transform="matrix(0.3330000042915344,0,0,0.3330000042915344,2.2019996643066406,10.011533737182617)" opacity="1" style="display: block;"><g opacity="1" transform="matrix(1,0,0,1,157.41799926757812,175.56500244140625)"><path stroke-linecap="round" stroke-linejoin="round" fill-opacity="0" stroke="rgb(179,82,48)" stroke-opacity="1" stroke-width="5" d=" M9.20199966430664,-129.35400390625 C9.20199966430664,-129.35400390625 -9.20199966430664,129.35400390625 -9.20199966430664,129.35400390625"></path></g><g opacity="1" transform="matrix(1,0,0,1,165.84500122070312,28.875)"><path fill="rgb(240,208,154)" fill-opacity="1" d=" M-6.758999824523926,27.808000564575195 C-6.758999824523926,27.808000564575195 4.043000221252441,-28.625 4.043000221252441,-28.625 C4.043000221252441,-28.625 6.758999824523926,28.625 6.758999824523926,28.625 C6.758999824523926,28.625 -6.758999824523926,27.808000564575195 -6.758999824523926,27.808000564575195z"></path></g><g opacity="1" transform="matrix(1,0,0,1,165.84500122070312,57.09299850463867)"><path stroke-linecap="butt" stroke-linejoin="miter" fill-opacity="0" stroke-miterlimit="10" stroke="rgb(239,82,34)" stroke-opacity="1" stroke-width="7.258" d=" M0.7739999890327454,-10.881999969482422 C0.7739999890327454,-10.881999969482422 -0.7739999890327454,10.881999969482422 -0.7739999890327454,10.881999969482422"></path></g></g><g transform="matrix(0.3330000042915344,0,0,0.3330000042915344,2.6741933822631836,10.17404556274414)" opacity="1" style="display: block;"><g opacity="1" transform="matrix(1,0,0,1,78.76699829101562,83.30500030517578)"><path fill="rgb(77,67,95)" fill-opacity="1" d=" M-1.1299999952316284,-14.032999992370605 C-11.206999778747559,-11.378999710083008 -12.13700008392334,0.3240000009536743 -7.078000068664551,7.10099983215332 C-2.1510000228881836,13.70199966430664 10.748000144958496,14.031999588012695 12.13700008392334,4.1539998054504395 C12.13700008392334,4.1539998054504395 -1.1299999952316284,-14.032999992370605 -1.1299999952316284,-14.032999992370605z"></path></g><g opacity="1" transform="matrix(1,0,0,1,86.63800048828125,51.9900016784668)"><path fill="rgb(77,67,95)" fill-opacity="1" d=" M2.51200008392334,25.899999618530273 C-15.871999740600586,29.423999786376953 -20.44700050354004,8.27400016784668 -18.95400047302246,-3.880000114440918 C-17.82900047302246,-13.029000282287598 -13.590999603271484,-23.351999282836914 -3.0490000247955322,-26.139999389648438 C9.371999740600586,-29.423999786376953 18.242000579833984,-17.459999084472656 19.239999771118164,-7.531000137329102 C20.447999954223633,4.48799991607666 18.450000762939453,22.8439998626709 2.51200008392334,25.899999618530273z"></path></g></g><g transform="matrix(0.3330000042915344,0,0,0.3330000042915344,2.6741933822631836,10.17404556274414)" opacity="1" style="display: block;"><g opacity="1" transform="matrix(1,0,0,1,0,0)"><path stroke-linecap="round" stroke-linejoin="miter" fill-opacity="0" stroke-miterlimit="4" stroke="rgb(77,67,95)" stroke-opacity="1" stroke-width="8" d=" M77.18199920654297,106.7229995727539 C58.68199920654297,127.7229995727539 79.68199920654297,147.72300720214844 69.68199920654297,164.72300720214844 C56.584999084472656,186.98800659179688 11.182000160217285,200.72300720214844 14.682000160217285,229.22300720214844"></path></g></g><g transform="matrix(0.3330000042915344,0,0,0.3330000042915344,2.6741933822631836,10.17404556274414)" opacity="1" style="display: block;"><g opacity="1" transform="matrix(1,0,0,1,15.366000175476074,241.08900451660156)"><path fill="rgb(77,67,95)" fill-opacity="1" d=" M2.7799999713897705,-16.209999084472656 C2.7799999713897705,-12.270000457763672 4.379000186920166,-10.180999755859375 5.48799991607666,-9.385000228881836 C9.017999649047852,-6.848999977111816 11.097999572753906,-2.686000108718872 11.005999565124512,1.656999945640564 C10.937999725341797,4.872000217437744 9.751999855041504,8.100000381469727 9.795999526977539,11.305999755859375 C9.848999977111816,15.220999717712402 11.852999687194824,17.27199935913086 15.116999626159668,19.47599983215332 C1.687000036239624,20.93600082397461 -15.116000175476074,6.901000022888184 -5.093999862670898,-13.378999710083008 C-3.9619998931884766,-15.668999671936035 -3.4649999141693115,-18.079999923706055 -2.9130001068115234,-20.93600082397461"></path></g></g><g transform="matrix(0.3330000042915344,0,0,0.3330000042915344,2.6741933822631836,10.174039840698242)" opacity="1" style="display: block;"><g opacity="1" transform="matrix(1,0,0,1,50.64899826049805,230.15699768066406)"><path fill="rgb(17,128,195)" fill-opacity="1" d=" M26.100000381469727,-59.12900161743164 C15.579999923706055,-51.069000244140625 12.996999740600586,-5.656000137329102 4.107999801635742,17.847999572753906 C0.6539999842643738,26.976999282836914 -3.552999973297119,36.1619987487793 -10.881999969482422,43.077999114990234 C-19.20199966430664,50.92900085449219 -30.895000457763672,54.95399856567383 -42.86899948120117,55.50299835205078 C-44.71900177001953,55.5880012512207 -44.790000915527344,58.06100082397461 -42.944000244140625,58.21799850463867 C-32.17100143432617,59.12900161743164 -17.621999740600586,57.08700180053711 -3.7230000495910645,44.641998291015625 C23.038000106811523,20.68400001525879 17.864999771118164,-9.732000350952148 44.790000915527344,-39.73899841308594"></path></g></g><g transform="matrix(0.3330000042915344,0,0,0.3330000042915344,2.6741933822631836,10.174039840698242)" opacity="1" style="display: block;"><g opacity="1" transform="matrix(1,0,0,1,89.46399688720703,193.6739959716797)"><path fill="rgb(0,168,229)" fill-opacity="1" d=" M30.691999435424805,-98.927001953125 C30.691999435424805,-102.28500366210938 29.610000610351562,-105.8219985961914 26.8439998626709,-108.00700378417969 C22.90399932861328,-111.12000274658203 16.386999130249023,-111.1449966430664 11.765999794006348,-113.3489990234375 C8.303999900817871,-115 5.6570000648498535,-122.2249984741211 4.658999919891357,-125.697998046875 C4.658999919891357,-125.697998046875 -4.7870001792907715,-125.697998046875 -4.7870001792907715,-125.697998046875 C-5.785999774932861,-122.2249984741211 -8.432999610900879,-115 -11.894000053405762,-113.3489990234375 C-19.516000747680664,-109.71399688720703 -25.648000717163086,-110.97200012207031 -32.604000091552734,-105.87000274658203 C-38.17399978637695,-101.78500366210938 -34.78300094604492,-79.95099639892578 -24.95199966430664,-82.4010009765625 C-24.95199966430664,-82.4010009765625 -13.472000122070312,-50.459999084472656 -14.468999862670898,-44.698001861572266 C-17.12700080871582,-29.336000442504883 -21.481000900268555,-32.8120002746582 -23.19300079345703,-17.334999084472656 C-25.399999618530273,2.609999895095825 -18.743999481201172,35.145999908447266 -17.41200065612793,55.21500015258789 C-15.939000129699707,77.41200256347656 -17.038000106811523,99.95800018310547 -23.795000076293945,121.4209976196289 C-24.047000885009766,122.22100067138672 -24.292999267578125,123.13600158691406 -23.81999969482422,123.84600067138672 C-23.257999420166016,124.69200134277344 -21.996999740600586,124.8030014038086 -20.92099952697754,124.822998046875 C-11.133000373840332,125.00299835205078 -1.3459999561309814,125.18299865722656 8.442000389099121,125.36399841308594 C8.442000389099121,117.57599639892578 -2.997999906539917,114.96900177001953 -10.795999526977539,114.84400177001953 C2.2269999980926514,68.91300201416016 6.60699987411499,29.847999572753906 4.813000202178955,-8.255000114440918 C4.813000202178955,-8.255000114440918 15.616000175476074,44.196998596191406 16.676000595092773,52.34400177001953 C20.74799919128418,83.63500213623047 16.565000534057617,108.71900177001953 12.770999908447266,122.37000274658203 C12.54699993133545,123.1780014038086 12.333000183105469,124.0979995727539 12.829000473022461,124.79499816894531 C13.420999526977539,125.6240005493164 14.6850004196167,125.6989974975586 15.76099967956543,125.68699645996094 C25.549999237060547,125.58200073242188 35.3380012512207,125.4749984741211 45.12699890136719,125.36900329589844 C45.12699890136719,118.95099639892578 33.33599853515625,115.31400299072266 25.53700065612793,115.41699981689453 C55.553001403808594,-14.022000312805176 11.864999771118164,-33.90399932861328 15.159000396728516,-54.840999603271484 C15.984000205993652,-60.08100128173828 19.29599952697754,-81.1719970703125 22.375,-86.48799896240234 C22.375,-86.48799896240234 30.691999435424805,-98.927001953125 30.691999435424805,-98.927001953125z"></path></g><g opacity="1" transform="matrix(1,0,0,1,90.53700256347656,162.6739959716797)"><path stroke-linecap="round" stroke-linejoin="round" fill-opacity="0" stroke="rgb(0,131,125)" stroke-opacity="1" stroke-width="5" d=" M-21.3799991607666,-2.494999885559082 C-6.931000232696533,1.718000054359436 10.928000450134277,3.546999931335449 21.3799991607666,-3.5460000038146973"></path></g><g opacity="1" transform="matrix(1,0,0,1,96.6780014038086,198.1719970703125)"><path fill="rgb(0,131,125)" fill-opacity="1" d=" M9.800999641418457,34.36399841308594 C9.800999641418457,34.36399841308594 -9.800999641418457,34.36399841308594 -9.800999641418457,34.36399841308594 C-9.800999641418457,34.36399841308594 -9.800999641418457,-34.36399841308594 -9.800999641418457,-34.36399841308594 C-9.800999641418457,-34.36399841308594 9.800999641418457,-34.36399841308594 9.800999641418457,-34.36399841308594 C9.800999641418457,-34.36399841308594 9.800999641418457,34.36399841308594 9.800999641418457,34.36399841308594z"></path></g><g opacity="1" transform="matrix(1,0,0,1,87.49400329589844,74.87799835205078)"><path fill="rgb(17,128,195)" fill-opacity="1" d=" M3.065999984741211,5.994999885559082 C5.90500020980835,5.440999984741211 8.569999694824219,4.341000080108643 11.140999794006348,3.0820000171661377 C8.972999572753906,0.1770000010728836 7.359000205993652,-4.36299991607666 6.629000186920166,-6.9029998779296875 C6.629000186920166,-6.9029998779296875 -2.818000078201294,-6.9029998779296875 -2.818000078201294,-6.9029998779296875 C-3.815000057220459,-3.430000066757202 -6.4629998207092285,3.7960000038146973 -9.923999786376953,5.447000026702881 C-10.335000038146973,5.642000198364258 -10.73900032043457,5.817999839782715 -11.140999794006348,5.986999988555908 C-6.36899995803833,6.300000190734863 -1.5889999866485596,6.9029998779296875 3.065999984741211,5.994999885559082z"></path></g><g opacity="1" transform="matrix(1,0,0,1,90.5459976196289,96.4749984741211)"><path stroke-linecap="round" stroke-linejoin="round" fill-opacity="0" stroke="rgb(0,131,125)" stroke-opacity="1" stroke-width="3" d=" M-14.17300033569336,-18.326000213623047 C-18.070999145507812,-6.9120001792907715 -9.390000343322754,8.352999687194824 -2.884999990463257,12.831000328063965 C5.0980000495910645,18.326000213623047 12.387999534606934,15.5600004196167 15.413000106811523,6.955999851226807 C18.070999145507812,-0.6019999980926514 16.75,-9.258999824523926 11.934000015258789,-15.847000122070312"></path></g><g opacity="1" transform="matrix(1,0,0,1,76.35299682617188,91.23500061035156)"><path fill="rgb(250,175,58)" fill-opacity="1" d=" M3.9159998893737793,0 C3.9159998893737793,-1.99399995803833 2.1619999408721924,-3.609999895095825 -0.0010000000474974513,-3.609999895095825 C-2.1630001068115234,-3.609999895095825 -3.9159998893737793,-1.99399995803833 -3.9159998893737793,0 C-3.9159998893737793,1.9930000305175781 -2.1630001068115234,3.609999895095825 -0.0010000000474974513,3.609999895095825 C2.1619999408721924,3.609999895095825 3.9159998893737793,1.9930000305175781 3.9159998893737793,0z"></path></g><g opacity="1" transform="matrix(1,0,0,1,82.8290023803711,104.31199645996094)"><path fill="rgb(250,175,58)" fill-opacity="1" d=" M3.9159998893737793,-0.0010000000474974513 C3.9159998893737793,-1.99399995803833 2.1619999408721924,-3.6089999675750732 -0.0010000000474974513,-3.6089999675750732 C-2.1630001068115234,-3.6089999675750732 -3.9159998893737793,-1.99399995803833 -3.9159998893737793,-0.0010000000474974513 C-3.9159998893737793,1.9930000305175781 -2.1630001068115234,3.6089999675750732 -0.0010000000474974513,3.6089999675750732 C2.1619999408721924,3.6089999675750732 3.9159998893737793,1.9930000305175781 3.9159998893737793,-0.0010000000474974513z"></path></g><g opacity="1" transform="matrix(1,0,0,1,95.27200317382812,112.14299774169922)"><path fill="rgb(250,175,58)" fill-opacity="1" d=" M3.9159998893737793,0 C3.9159998893737793,-1.99399995803833 2.1619999408721924,-3.6089999675750732 -0.0010000000474974513,-3.6089999675750732 C-2.1630001068115234,-3.6089999675750732 -3.9159998893737793,-1.99399995803833 -3.9159998893737793,0 C-3.9159998893737793,1.9930000305175781 -2.1630001068115234,3.6089999675750732 -0.0010000000474974513,3.6089999675750732 C2.1619999408721924,3.6089999675750732 3.9159998893737793,1.9930000305175781 3.9159998893737793,0z"></path></g><g opacity="1" transform="matrix(1,0,0,1,106.02899932861328,102.875)"><path fill="rgb(250,175,58)" fill-opacity="1" d=" M3.9159998893737793,-0.0010000000474974513 C3.9159998893737793,-1.99399995803833 2.1619999408721924,-3.6089999675750732 -0.0010000000474974513,-3.6089999675750732 C-2.1630001068115234,-3.6089999675750732 -3.9159998893737793,-1.99399995803833 -3.9159998893737793,-0.0010000000474974513 C-3.9159998893737793,1.9930000305175781 -2.1630001068115234,3.6089999675750732 -0.0010000000474974513,3.6089999675750732 C2.1619999408721924,3.6089999675750732 3.9159998893737793,1.9930000305175781 3.9159998893737793,-0.0010000000474974513z"></path></g><g opacity="1" transform="matrix(1,0,0,1,106.46600341796875,88.71700286865234)"><path fill="rgb(250,175,58)" fill-opacity="1" d=" M3.9159998893737793,0 C3.9159998893737793,-1.99399995803833 2.1619999408721924,-3.609999895095825 -0.0010000000474974513,-3.609999895095825 C-2.1630001068115234,-3.609999895095825 -3.9159998893737793,-1.99399995803833 -3.9159998893737793,0 C-3.9159998893737793,1.9930000305175781 -2.1630001068115234,3.609999895095825 -0.0010000000474974513,3.609999895095825 C2.1619999408721924,3.609999895095825 3.9159998893737793,1.9930000305175781 3.9159998893737793,0z"></path></g><g opacity="1" transform="matrix(1,0,0,1,64.18599700927734,111.8010025024414)"><path fill="rgb(17,128,195)" fill-opacity="1" d=" M0.023000000044703484,-0.017000000923871994 C0.008999999612569809,-0.03200000151991844 -0.008999999612569809,-0.0430000014603138 -0.023000000044703484,-0.05900000035762787 C-0.023000000044703484,-0.05900000035762787 -0.023000000044703484,0.05900000035762787 -0.023000000044703484,0.05900000035762787 C-0.00800000037997961,0.03400000184774399 0.00800000037997961,0.00800000037997961 0.023000000044703484,-0.017000000923871994z"></path></g><g opacity="1" transform="matrix(1,0,0,1,74.51200103759766,118.97699737548828)"><path fill="rgb(17,128,195)" fill-opacity="1" d=" M8.404000282287598,3.9719998836517334 C8.852999687194824,3.7009999752044678 9.307999610900879,3.3589999675750732 9.432000160217285,2.877000093460083 C9.579000473022461,2.308000087738037 9.197999954223633,1.7130000591278076 8.675000190734863,1.38100004196167 C8.152999877929688,1.0479999780654907 7.513000011444092,0.9210000038146973 6.894000053405762,0.7940000295639038 C0.8560000061988831,-0.4399999976158142 -5.2789998054504395,-2.4760000705718994 -9.579000473022461,-6.519999980926514 C-8.848999977111816,-4.453000068664551 -7.251999855041504,0.12200000137090683 -5.533999919891357,5.4039998054504395 C-0.8420000076293945,6.519000053405762 4.440000057220459,6.375 8.404000282287598,3.9719998836517334z"></path></g><g opacity="1" transform="matrix(1,0,0,1,78.40299987792969,135.78900146484375)"><path fill="rgb(17,128,195)" fill-opacity="1" d=" M-7.261000156402588,-4.554999828338623 C-6.295000076293945,-1.3769999742507935 -5.395999908447266,1.7710000276565552 -4.703000068664551,4.554999828338623 C-2.3340001106262207,4.5329999923706055 0.02500000037252903,4.380000114440918 2.3540000915527344,3.9690001010894775 C3.428999900817871,3.7799999713897705 4.514999866485596,3.5299999713897705 5.440000057220459,2.990999937057495 C6.366000175476074,2.4519999027252197 7.118000030517578,1.5779999494552612 7.2220001220703125,0.5730000138282776 C7.261000156402588,0.19699999690055847 7.201000213623047,-0.20200000703334808 6.959000110626221,-0.5070000290870667 C6.609000205993652,-0.9480000138282776 5.973999977111816,-1.0889999866485596 5.39300012588501,-1.1979999542236328 C1.1009999513626099,-1.9980000257492065 -3.4040000438690186,-2.7760000228881836 -7.261000156402588,-4.554999828338623z"></path></g><g opacity="1" transform="matrix(1,0,0,1,75.23500061035156,184.67999267578125)"><path fill="rgb(17,128,195)" fill-opacity="1" d=" M4.422999858856201,5.711999893188477 C5.863999843597412,5.201000213623047 7.285999774932861,4.500999927520752 8.220000267028809,3.368000030517578 C9.154999732971191,2.2360000610351562 9.487000465393066,0.5899999737739563 8.685999870300293,-0.625 C7.816999912261963,-1.9420000314712524 6.002999782562256,-2.36299991607666 4.389999866485596,-2.7669999599456787 C1.100000023841858,-3.5920000076293945 -4.519999980926514,-5.070000171661377 -9.0600004196167,-7.328000068664551 C-9.460000038146973,-3.0789999961853027 -9.487000465393066,1.694000005722046 -9.265000343322754,6.776000022888184 C-4.617000102996826,7.328000068664551 0.09000000357627869,7.247000217437744 4.422999858856201,5.711999893188477z"></path></g><g opacity="1" transform="matrix(1,0,0,1,116.33999633789062,184.18800354003906)"><path fill="rgb(17,128,195)" fill-opacity="1" d=" M-1.4199999570846558,-2.8340001106262207 C-2.7960000038146973,-1.9609999656677246 -4.357999801635742,-1.0099999904632568 -4.704999923706055,0.49799999594688416 C-5.026000022888184,1.8899999856948853 -4.122000217437744,3.3420000076293945 -2.8340001106262207,4.125 C-1.5460000038146973,4.908999919891357 0.04699999839067459,5.136000156402588 1.590000033378601,5.178999900817871 C2.746000051498413,5.210000038146973 3.8929998874664307,5.14900016784668 5.0269999504089355,5.011000156402588 C4.1579999923706055,1.3259999752044678 3.2009999752044678,-2.0739998817443848 2.191999912261963,-5.210000038146973 C0.8389999866485596,-4.2789998054504395 -0.4180000126361847,-3.4690001010894775 -1.4199999570846558,-2.8340001106262207z"></path></g><g opacity="1" transform="matrix(1,0,0,1,75.43699645996094,209.1790008544922)"><path fill="rgb(17,128,195)" fill-opacity="1" d=" M-8.654999732971191,-6.38700008392334 C-8.256999969482422,-2.177000045776367 -7.764999866485596,2.117000102996826 -7.241000175476074,6.38700008392334 C-2.687000036239624,6.1570000648498535 1.812999963760376,5.031000137329102 5.823999881744385,3.0269999504089355 C6.853000164031982,2.513000011444092 7.929999828338623,1.8539999723434448 8.258999824523926,0.8190000057220459 C8.654999732971191,-0.4259999990463257 7.765999794006348,-1.7669999599456787 6.568999767303467,-2.447999954223633 C5.372000217437744,-3.130000114440918 3.933000087738037,-3.315000057220459 2.5460000038146973,-3.5309998989105225 C-1.2799999713897705,-4.126999855041504 -5.035999774932861,-5.0960001945495605 -8.654999732971191,-6.38700008392334z"></path></g><g opacity="1" transform="matrix(1,0,0,1,120.09500122070312,206.822998046875)"><path fill="rgb(17,128,195)" fill-opacity="1" d=" M-0.03400000184774399,-2.803999900817871 C-1.277999997138977,-2.197000026702881 -2.5820000171661377,-1.6059999465942383 -3.486999988555908,-0.6119999885559082 C-4.390999794006348,0.38199999928474426 -4.7779998779296875,1.9119999408721924 -3.9790000915527344,2.9790000915527344 C-3.313999891281128,3.867000102996826 -2.066999912261963,4.181000232696533 -0.9150000214576721,4.372000217437744 C0.9639999866485596,4.681000232696533 2.871999979019165,4.810999870300293 4.7789998054504395,4.789000034332275 C4.489999771118164,1.4179999828338623 4.120999813079834,-1.7799999713897705 3.684999942779541,-4.811999797821045 C2.4700000286102295,-4.104000091552734 1.2359999418258667,-3.4240000247955322 -0.03400000184774399,-2.803999900817871z"></path></g><g opacity="1" transform="matrix(1,0,0,1,76.52400207519531,232.302001953125)"><path fill="rgb(17,128,195)" fill-opacity="1" d=" M-6.822000026702881,-4.916999816894531 C-6.38700008392334,-1.534000039100647 -5.968999862670898,1.7619999647140503 -5.599999904632568,4.916999816894531 C-2.934999942779541,4.603000164031982 -0.3070000112056732,4.021999835968018 2.2090001106262207,3.1540000438690186 C3.4000000953674316,2.743000030517578 4.60099983215332,2.250999927520752 5.473999977111816,1.3990000486373901 C6.3470001220703125,0.546999990940094 6.822000026702881,-0.7459999918937683 6.335000038146973,-1.8279999494552612 C5.646999835968018,-3.3589999675750732 3.5450000762939453,-3.7679998874664307 1.7610000371932983,-3.9649999141693115 C-1.100000023841858,-4.2820000648498535 -3.9609999656677246,-4.599999904632568 -6.822000026702881,-4.916999816894531z"></path></g><g opacity="1" transform="matrix(1,0,0,1,122.25499725341797,229.88400268554688)"><path fill="rgb(17,128,195)" fill-opacity="1" d=" M-3.2780001163482666,0.7009999752044678 C-3.3420000076293945,1.871999979019165 -2.424999952316284,2.943000078201294 -1.2920000553131104,3.4749999046325684 C-0.1599999964237213,4.008999824523926 1.149999976158142,4.10099983215332 2.4210000038146973,4.119999885559082 C2.7049999237060547,4.125 2.98799991607666,4.111000061035156 3.2709999084472656,4.109000205993652 C3.3329999446868896,1.2680000066757202 3.3420000076293945,-1.4730000495910645 3.305000066757202,-4.125 C2.2880001068115234,-3.6589999198913574 1.2710000276565552,-3.193000078201294 0.2540000081062317,-2.7269999980926514 C-1.3550000190734863,-1.9880000352859497 -3.187000036239624,-0.953000009059906 -3.2780001163482666,0.7009999752044678z"></path></g><g opacity="1" transform="matrix(1,0,0,1,76.34700012207031,278.22601318359375)"><path fill="rgb(17,128,195)" fill-opacity="1" d=" M4.081999778747559,0.6129999756813049 C4.419000148773193,-1.069000005722046 2.7019999027252197,-2.515000104904175 0.9829999804496765,-3.1579999923706055 C-0.5400000214576721,-3.7279999256134033 -2.2149999141693115,-3.98799991607666 -3.888000011444092,-4.224999904632568 C-4.001999855041504,-1.4049999713897705 -4.177999973297119,1.4140000343322754 -4.418000221252441,4.224999904632568 C-2.812000036239624,4.077000141143799 -1.2200000286102295,3.806999921798706 0.3310000002384186,3.3949999809265137 C1.9579999446868896,2.9630000591278076 3.7739999294281006,2.1480000019073486 4.081999778747559,0.6129999756813049z"></path></g><g opacity="1" transform="matrix(1,0,0,1,118.30899810791016,278.0880126953125)"><path fill="rgb(17,128,195)" fill-opacity="1" d=" M-3.1470000743865967,0.7509999871253967 C-2.8389999866485596,2.2860000133514404 -1.0230000019073486,3.1019999980926514 0.6039999723434448,3.5339999198913574 C1.1339999437332153,3.674999952316284 1.6740000247955322,3.7760000228881836 2.2119998931884766,3.884999990463257 C2.6710000038146973,1.2410000562667847 3.0940001010894775,-1.3489999771118164 3.4839999675750732,-3.884999990463257 C2.265000104904175,-3.687000036239624 1.065999984741211,-3.437000036239624 -0.04899999871850014,-3.0199999809265137 C-1.7680000066757202,-2.377000093460083 -3.4839999675750732,-0.9309999942779541 -3.1470000743865967,0.7509999871253967z"></path></g><g opacity="1" transform="matrix(1,0,0,1,81.22000122070312,248.61599731445312)"><path stroke-linecap="round" stroke-linejoin="round" fill-opacity="0" stroke="rgb(179,82,48)" stroke-opacity="1" stroke-width="5" d=" M-10.961000442504883,-0.7609999775886536 C-3.805000066757202,0.953000009059906 3.8420000076293945,0.8849999904632568 10.961000442504883,-0.9539999961853027"></path></g></g><g transform="matrix(0.33254364132881165,-0.017427872866392136,0.017427872866392136,0.33254364132881165,1.0931953191757202,11.277214050292969)" opacity="1" style="display: block;"><g opacity="1" transform="matrix(1,0,0,1,89.46399688720703,193.6739959716797)"><path fill="rgb(0,168,229)" fill-opacity="1" d=" M-32.604000091552734,-105.87000274658203 C-38.17399978637695,-101.78500366210938 -40.48400115966797,-92.58000183105469 -41.98500061035156,-86.44300079345703 C-44.19499969482422,-77.40299987792969 -47.040000915527344,-68.52999877929688 -49.875999450683594,-59.60599899291992 C-48.78300094604492,-54.95000076293945 -43.28300094604492,-52.45100021362305 -41.415000915527344,-56.98699951171875 C-41.28300094604492,-58.95100021362305 -41.053001403808594,-58.729000091552734 -40.36399841308594,-59.25699996948242 C-34.83399963378906,-63.505001068115234 -29.354000091552734,-75.14900207519531 -24.95199966430664,-82.4010009765625 C-24.95199966430664,-82.4010009765625 -12.782999992370605,-116.94999694824219 -32.604000091552734,-105.87000274658203z"></path></g><g opacity="1" transform="matrix(1,0,0,1,57.007999420166016,98.95500183105469)"><path fill="rgb(17,128,195)" fill-opacity="1" d=" M8.175000190734863,4.609000205993652 C8.42199993133545,3.6519999504089355 7.8460001945495605,2.683000087738037 7.195000171661377,1.9040000438690186 C4.218999862670898,-1.6549999713897705 -0.628000020980835,-3.5929999351501465 -4.156000137329102,-6.60699987411499 C-6.117000102996826,-3.431999921798706 -7.439000129699707,0.4309999942779541 -8.42199993133545,3.9779999256134033 C-4.613999843597412,5.238999843597412 -0.6439999938011169,6.079999923706055 3.382999897003174,6.439000129699707 C5.269000053405762,6.60699987411499 7.736000061035156,6.308000087738037 8.175000190734863,4.609000205993652z"></path></g></g><g transform="matrix(0.33254364132881165,-0.017427872866392136,0.017427872866392136,0.33254364132881165,1.0931953191757202,11.277214050292969)" opacity="1" style="display: block;"><g opacity="1" transform="matrix(1,0,0,1,89.46399688720703,193.6739959716797)"><path fill="rgb(0,168,229)" fill-opacity="1" d=" M-49.875999450683594,-59.60599899291992 C-51.33599853515625,-55.013999938964844 -52.805999755859375,-50.361000061035156 -52.95000076293945,-45.577999114990234 C-53.07400131225586,-41.45000076293945 -52.20600128173828,-37.36000061035156 -51.604000091552734,-33.268001556396484 C-50.4630012512207,-25.496999740600586 -50.1870002746582,-17.506000518798828 -51.07400131225586,-9.699000358581543 C-51.7869987487793,-3.421999931335449 -55.553001403808594,1.1180000305175781 -50.55400085449219,7.104000091552734 C-49.9379997253418,7.8429999351501465 -49.20500183105469,8.538999557495117 -48.26900100708008,8.888999938964844 C-47.33300018310547,9.241000175476074 -46.15800094604492,9.17300033569336 -45.43299865722656,8.52299976348877 C-44.04800033569336,11.145000457763672 -41.53499984741211,13.244000434875488 -38.56700134277344,14.255000114440918 C-37.6609992980957,14.562999725341797 -36.50400161743164,14.722000122070312 -35.8489990234375,14.067999839782715 C-35.01499938964844,13.234999656677246 -35.70399856567383,11.904000282287598 -36.4370002746582,10.993000030517578 C-40.11199951171875,6.428999900817871 -42.694000244140625,2.615999937057495 -41.98099899291992,-3.3289999961853027 C-40.00199890136719,-2.434000015258789 -38.494998931884766,-0.6970000267028809 -37.98099899291992,1.2799999713897705 C-37.77399826049805,2.0759999752044678 -37.72100067138672,2.9019999504089355 -37.487998962402344,3.691999912261963 C-37.17300033569336,4.763999938964844 -36.52199935913086,5.750999927520752 -35.6349983215332,6.502999782562256 C-35.36000061035156,6.736000061035156 -35.0359992980957,6.956999778747559 -34.6619987487793,6.973999977111816 C-34.047000885009766,7.002999782562256 -33.553001403808594,6.447999954223633 -33.45899963378906,5.88700008392334 C-33.36600112915039,5.324999809265137 -33.560001373291016,4.76200008392334 -33.71799850463867,4.211999893188477 C-34.279998779296875,2.250999927520752 -34.38999938964844,0.17800000309944153 -34.0359992980957,-1.8240000009536743 C-33.93899917602539,-2.372999906539917 -33.80699920654297,-2.9210000038146973 -33.819000244140625,-3.4769999980926514 C-33.89099884033203,-6.864999771118164 -38.435001373291016,-9.70199966430664 -40.59299850463867,-12.090999603271484 C-42.96799850463867,-14.720000267028809 -43.891998291015625,-17.429000854492188 -43.51900100708008,-20.860000610351562 C-42.965999603271484,-25.94499969482422 -40.8390007019043,-30.76300048828125 -39.992000579833984,-35.801998138427734 C-38.95399856567383,-41.970001220703125 -40.560001373291016,-48.31800079345703 -41.37200164794922,-54.45100021362305 C-41.48400115966797,-55.29399871826172 -40.69200134277344,-56.54899978637695 -41.415000915527344,-56.98699951171875 C-38.28300094604492,-62.45100021362305 -47.040000915527344,-68.52999877929688 -49.875999450683594,-59.60599899291992z"></path></g><g opacity="1" transform="matrix(1,0,0,1,40.224998474121094,160.5189971923828)"><path fill="rgb(179,82,48)" fill-opacity="1" d=" M10.67300033569336,-16.96299934387207 C3.677000045776367,-18.50200080871582 -3.4860000610351562,-19.39900016784668 -10.67300033569336,-19.63599967956543 C-8.70300006866455,-6.421000003814697 -5.953999996185303,6.696000099182129 -2.440000057220459,19.63599967956543 C1.0809999704360962,19.18000030517578 4.603000164031982,18.724000930786133 8.125,18.266000747680664 C8.125,18.266000747680664 10.67300033569336,-16.96299934387207 10.67300033569336,-16.96299934387207z"></path></g></g><g transform="matrix(0.3330000042915344,0,0,0.3330000042915344,2.6741933822631836,10.17404556274414)" opacity="1" style="display: block;"><g opacity="1" transform="matrix(1,0,0,1,99.83499908447266,47.722999572753906)"><path fill="rgb(17,128,195)" fill-opacity="1" d=" M-6.679999828338623,2.6579999923706055 C-4.605999946594238,-3.621999979019165 1.6990000009536743,-8.527999877929688 8.762999534606934,-9.357000350952148 C8.918000221252441,-4.810999870300293 7.146999835968018,-0.23100000619888306 3.9059998989105225,3.1989998817443848 C0.6660000085830688,6.629000186920166 -4.01200008392334,8.875 -8.918000221252441,9.357000350952148"></path></g><g opacity="1" transform="matrix(1,0,0,1,91.99800109863281,55.5890007019043)"><path fill="rgb(0,168,229)" fill-opacity="1" d=" M-17.20400047302246,-7.4670000076293945 C-18.25,0.4440000057220459 -14.682000160217285,8.677000045776367 -8.107999801635742,13.835000038146973 C-2.756999969482422,18.033000946044922 8.902000427246094,22.740999221801758 12.22599983215332,14.121000289916992 C15.907999992370605,4.571000099182129 18.25,-13.743000030517578 6.2870001792907715,-18.84000015258789 C-2.869999885559082,-22.740999221801758 -13.331000328063965,-20.820999145507812 -16.406999588012695,-11.057000160217285 C-16.781999588012695,-9.864999771118164 -17.04599952697754,-8.664999961853027 -17.20400047302246,-7.4670000076293945z"></path></g><g opacity="1" transform="matrix(1,0,0,1,72.14900207519531,47.722999572753906)"><path fill="rgb(0,168,229)" fill-opacity="1" d=" M6.681000232696533,2.6579999923706055 C4.60699987411499,-3.621999979019165 -1.6990000009536743,-8.527999877929688 -8.76200008392334,-9.357000350952148 C-8.918000221252441,-4.810999870300293 -7.146999835968018,-0.23100000619888306 -3.9059998989105225,3.1989998817443848 C-0.6660000085830688,6.629000186920166 4.01200008392334,8.875 8.918000221252441,9.357000350952148"></path></g><g opacity="1" transform="matrix(1,0,0,1,100.21600341796875,56.082000732421875)"><path stroke-linecap="round" stroke-linejoin="round" fill-opacity="0" stroke="rgb(17,128,195)" stroke-opacity="1" stroke-width="2" d=" M0.08699999749660492,-7.078999996185303 C1.7979999780654907,-2.796999931335449 3.5380001068115234,1.6990000009536743 2.871999979019165,6.2210001945495605 C0.718999981880188,6.38700008392334 -1.4229999780654907,6.672999858856201 -3.5380001068115234,7.078999996185303"></path></g><g opacity="1" transform="matrix(1,0,0,1,86.8280029296875,48.358001708984375)"><path fill="rgb(77,67,95)" fill-opacity="1" d=" M-4.265999794006348,-15.892000198364258 C-7.289000034332275,-15.508000373840332 -9.972999572753906,-13.394000053405762 -10.854999542236328,-10.699999809265137 C-11.270000457763672,-9.432000160217285 -11.307999610900879,-8.088000297546387 -11.343999862670898,-6.763999938964844 C-11.567999839782715,1.6130000352859497 -11.791999816894531,7.514999866485596 -12.015999794006348,15.892000198364258 C-10.42300033569336,15.01200008392334 -6.875,14.803999900817871 -6.875,2.125 C-6.875,-9.991000175476074 -1.180999994277954,-13.406000137329102 4.5279998779296875,-13.406000137329102 C8.399999618530273,-13.406000137329102 12.015999794006348,-15.892000198364258 12.015999794006348,-15.892000198364258 C12.015999794006348,-15.892000198364258 -4.265999794006348,-15.892000198364258 -4.265999794006348,-15.892000198364258z"></path></g><g opacity="1" transform="matrix(0.1929599940776825,0,0,0.1929599940776825,93.02300262451172,52.6619987487793)"><path fill="rgb(77,67,95)" fill-opacity="1" d=" M15.5,0 C15.5,0 15.5,0 15.5,0 C15.5,8.554450035095215 8.554450035095215,15.5 0,15.5 C0,15.5 0,15.5 0,15.5 C-8.554450035095215,15.5 -15.5,8.554450035095215 -15.5,0 C-15.5,0 -15.5,0 -15.5,0 C-15.5,-8.554450035095215 -8.554450035095215,-15.5 0,-15.5 C0,-15.5 0,-15.5 0,-15.5 C8.554450035095215,-15.5 15.5,-8.554450035095215 15.5,0z"></path></g><g opacity="1" transform="matrix(0.1929599940776825,0,0,0.1929599940776825,105.02300262451172,52.1619987487793)"><path fill="rgb(77,67,95)" fill-opacity="1" d=" M15.5,0 C15.5,0 15.5,0 15.5,0 C15.5,8.554450035095215 8.554450035095215,15.5 0,15.5 C0,15.5 0,15.5 0,15.5 C-8.554450035095215,15.5 -15.5,8.554450035095215 -15.5,0 C-15.5,0 -15.5,0 -15.5,0 C-15.5,-8.554450035095215 -8.554450035095215,-15.5 0,-15.5 C0,-15.5 0,-15.5 0,-15.5 C8.554450035095215,-15.5 15.5,-8.554450035095215 15.5,0z"></path></g></g></g></svg>