<svg xmlns="http://www.w3.org/2000/svg" viewBox="0 0 69 32" width="69" height="32" preserveAspectRatio="xMidYMid meet" style="width: 100%; height: 100%; transform: translate3d(0px, 0px, 0px); content-visibility: visible;"><defs><clipPath id="__lottie_element_83"><rect width="69" height="32" x="0" y="0"></rect></clipPath></defs><g clip-path="url(#__lottie_element_83)"><g transform="matrix(1.0000001192092896,0,0,1.0000001192092896,38.600807189941406,29.074905395507812)" opacity="1" style="display: block;"><path fill="rgb(193,180,114)" fill-opacity="1" d=" M0,-2.5 C15.177249908447266,-2.5 27.5,-1.3797500133514404 27.5,0 C27.5,1.3797500133514404 15.177249908447266,2.5 0,2.5 C-15.177249908447266,2.5 -27.5,1.3797500133514404 -27.5,0 C-27.5,-1.3797500133514404 -15.177249908447266,-2.5 0,-2.5z"></path></g><g transform="matrix(1.8059998750686646,0,0,1.8059998750686646,5.910403728485107,-32.995506286621094)" opacity="1" style="display: block;"><g opacity="1" transform="matrix(1,0,0,1,27.389999389648438,31.176000595092773)"><path fill="rgb(77,67,95)" fill-opacity="1" d=" M3.319999933242798,0 C3.319999933242798,-2.007999897003174 1.8329999446868896,-3.635999917984009 0,-3.635999917984009 C-1.8339999914169312,-3.635999917984009 -3.319999933242798,-2.007999897003174 -3.319999933242798,0 C-3.319999933242798,2.007999897003174 -1.8339999914169312,3.635999917984009 0,3.635999917984009 C1.8329999446868896,3.635999917984009 3.319999933242798,2.007999897003174 3.319999933242798,0z"></path></g><g opacity="1" transform="matrix(1,0,0,1,13.324999809265137,22.06800079345703)"><path fill="rgb(240,108,94)" fill-opacity="1" d=" M2.0810000896453857,0 C2.0810000896453857,-1.7130000591278076 1.1490000486373901,-3.1019999980926514 0,-3.1019999980926514 C-1.149999976158142,-3.1019999980926514 -2.0810000896453857,-1.7130000591278076 -2.0810000896453857,0 C-2.0810000896453857,1.7130000591278076 -1.149999976158142,3.1019999980926514 0,3.1019999980926514 C1.1490000486373901,3.1019999980926514 2.0810000896453857,1.7130000591278076 2.0810000896453857,0z"></path></g><g opacity="1" transform="matrix(1,0,0,1,16.8439998626709,27.250999450683594)"><path fill="rgb(240,108,94)" fill-opacity="1" d=" M0,2.0810000896453857 C2.7869999408721924,2.0810000896453857 5.046000003814697,1.1490000486373901 5.046000003814697,0 C5.046000003814697,-1.149999976158142 2.7869999408721924,-2.0810000896453857 0,-2.0810000896453857 C-2.7869999408721924,-2.0810000896453857 -5.046000003814697,-1.149999976158142 -5.046000003814697,0 C-5.046000003814697,1.1490000486373901 -2.7869999408721924,2.0810000896453857 0,2.0810000896453857z"></path></g><g opacity="1" transform="matrix(1,0,0,1,9.428999900817871,31.176000595092773)"><path fill="rgb(77,67,95)" fill-opacity="1" d=" M3.319999933242798,0 C3.319999933242798,-2.007999897003174 1.8329999446868896,-3.635999917984009 0,-3.635999917984009 C-1.8339999914169312,-3.635999917984009 -3.319999933242798,-2.007999897003174 -3.319999933242798,0 C-3.319999933242798,2.007999897003174 -1.8339999914169312,3.635999917984009 0,3.635999917984009 C1.8329999446868896,3.635999917984009 3.319999933242798,2.007999897003174 3.319999933242798,0z"></path></g><g opacity="1" transform="matrix(1,0,0,1,9.428999900817871,31.176000595092773)"><path fill="rgb(255,201,77)" fill-opacity="1" d=" M1.815000057220459,0 C1.815000057220459,-1.0980000495910645 1.0019999742507935,-1.9869999885559082 0,-1.9869999885559082 C-1.003000020980835,-1.9869999885559082 -1.815000057220459,-1.0980000495910645 -1.815000057220459,0 C-1.815000057220459,1.0980000495910645 -1.003000020980835,1.9869999885559082 0,1.9869999885559082 C1.0019999742507935,1.9869999885559082 1.815000057220459,1.0980000495910645 1.815000057220459,0z"></path></g><g opacity="1" transform="matrix(1,0,0,1,27.389999389648438,31.176000595092773)"><path fill="rgb(255,201,77)" fill-opacity="1" d=" M1.815000057220459,0 C1.815000057220459,-1.0980000495910645 1.003000020980835,-1.9869999885559082 0,-1.9869999885559082 C-1.0019999742507935,-1.9869999885559082 -1.815000057220459,-1.0980000495910645 -1.815000057220459,0 C-1.815000057220459,1.0980000495910645 -1.0019999742507935,1.9869999885559082 0,1.9869999885559082 C1.003000020980835,1.9869999885559082 1.815000057220459,1.0980000495910645 1.815000057220459,0z"></path></g><g opacity="1" transform="matrix(1,0,0,1,22.229000091552734,21.917999267578125)"><path fill="rgb(255,201,77)" fill-opacity="1" d=" M0,-2.882999897003174 C0,-2.882999897003174 0,-2.882999897003174 0,-2.882999897003174 C-0.4490000009536743,-2.882999897003174 -0.8169999718666077,-2.5160000324249268 -0.8169999718666077,-2.065999984741211 C-0.8169999718666077,-2.065999984741211 -0.8169999718666077,2.065999984741211 -0.8169999718666077,2.065999984741211 C-0.8169999718666077,2.515000104904175 -0.4490000009536743,2.882999897003174 0,2.882999897003174 C0.4490000009536743,2.882999897003174 0.8169999718666077,2.515000104904175 0.8169999718666077,2.065999984741211 C0.8169999718666077,2.065999984741211 0.8169999718666077,-2.065999984741211 0.8169999718666077,-2.065999984741211 C0.8169999718666077,-2.5160000324249268 0.4490000009536743,-2.882999897003174 0,-2.882999897003174z"></path></g><g opacity="1" transform="matrix(1,0,0,1,33.34700012207031,26.174999237060547)"><path fill="rgb(255,201,77)" fill-opacity="1" d=" M0,-2.427999973297119 C0,-2.427999973297119 0,-2.427999973297119 0,-2.427999973297119 C-0.4490000009536743,-2.427999973297119 -0.8169999718666077,-2.059999942779541 -0.8169999718666077,-1.6109999418258667 C-0.8169999718666077,-1.6109999418258667 -0.8169999718666077,1.6109999418258667 -0.8169999718666077,1.6109999418258667 C-0.8169999718666077,2.059999942779541 -0.4490000009536743,2.427999973297119 0,2.427999973297119 C0.4490000009536743,2.427999973297119 0.8169999718666077,2.059999942779541 0.8169999718666077,1.6109999418258667 C0.8169999718666077,1.6109999418258667 0.8169999718666077,-1.6109999418258667 0.8169999718666077,-1.6109999418258667 C0.8169999718666077,-2.059999942779541 0.4490000009536743,-2.427999973297119 0,-2.427999973297119z"></path></g><g opacity="1" transform="matrix(1,0,0,1,3.4719998836517334,26.174999237060547)"><path fill="rgb(255,201,77)" fill-opacity="1" d=" M0,-2.427999973297119 C0,-2.427999973297119 0,-2.427999973297119 0,-2.427999973297119 C-0.4490000009536743,-2.427999973297119 -0.8169999718666077,-2.059999942779541 -0.8169999718666077,-1.6109999418258667 C-0.8169999718666077,-1.6109999418258667 -0.8169999718666077,1.6109999418258667 -0.8169999718666077,1.6109999418258667 C-0.8169999718666077,2.059999942779541 -0.4490000009536743,2.427999973297119 0,2.427999973297119 C0.4490000009536743,2.427999973297119 0.8169999718666077,2.059999942779541 0.8169999718666077,1.6109999418258667 C0.8169999718666077,1.6109999418258667 0.8169999718666077,-1.6109999418258667 0.8169999718666077,-1.6109999418258667 C0.8169999718666077,-2.059999942779541 0.4490000009536743,-2.427999973297119 0,-2.427999973297119z"></path></g><g opacity="1" transform="matrix(1,0,0,1,18.409000396728516,26.16699981689453)"><path fill="rgb(51,185,157)" fill-opacity="1" d=" M4.952000141143799,4.098999977111816 C5.367000102996826,2.9230000972747803 7.01200008392334,2.0439999103546143 8.980999946594238,2.0439999103546143 C10.949000358581543,2.0439999103546143 12.593999862670898,2.9230000972747803 13.008999824523926,4.098999977111816 C13.008999824523926,4.098999977111816 14.121000289916992,4.098999977111816 14.121000289916992,4.098999977111816 C14.121000289916992,4.098999977111816 14.121000289916992,-0.05700000002980232 14.121000289916992,-0.05700000002980232 C14.121000289916992,-1.5779999494552612 13.557000160217285,-2.0409998893737793 12.559000015258789,-2.3389999866485596 C10.656000137329102,-2.9079999923706055 7.172999858856201,-3.7880001068115234 3.003999948501587,-4.098999977111816 C3.003999948501587,-4.098999977111816 3.003999948501587,-4.0980000495910645 3.003999948501587,-4.0980000495910645 C3.003999948501587,-4.0980000495910645 3.003999948501587,-0.5120000243186951 3.003999948501587,-0.5120000243186951 C3.003999948501587,1.1399999856948853 1.6519999504089355,2.492000102996826 0,2.492000102996826 C-1.6519999504089355,2.492000102996826 -3.003000020980835,1.1399999856948853 -3.003000020980835,-0.5120000243186951 C-3.003000020980835,-0.5120000243186951 -3.003000020980835,-4.098999977111816 -3.003000020980835,-4.098999977111816 C-7.171999931335449,-3.7880001068115234 -10.654999732971191,-2.9079999923706055 -12.559000015258789,-2.3389999866485596 C-13.557000160217285,-2.0409998893737793 -14.121000289916992,-1.5779999494552612 -14.121000289916992,-0.05700000002980232 C-14.121000289916992,-0.05700000002980232 -14.121000289916992,4.098999977111816 -14.121000289916992,4.098999977111816 C-14.121000289916992,4.098999977111816 -13.008999824523926,4.098999977111816 -13.008999824523926,4.098999977111816 C-12.593000411987305,2.9230000972747803 -10.949000358581543,2.0439999103546143 -8.979999542236328,2.0439999103546143 C-7.011000156402588,2.0439999103546143 -5.367000102996826,2.9230000972747803 -4.952000141143799,4.098999977111816 C-4.952000141143799,4.098999977111816 4.952000141143799,4.098999977111816 4.952000141143799,4.098999977111816z"></path></g><g opacity="1" transform="matrix(1,0,0,1,4.679999828338623,30.266000747680664)"><path fill="rgb(255,238,207)" fill-opacity="1" d=" M-0.628000020980835,-1.3969999551773071 C-1.3960000276565552,-1.3969999551773071 -2.0250000953674316,-0.7680000066757202 -2.0250000953674316,0 C-2.0250000953674316,0.7680000066757202 -1.3960000276565552,1.3969999551773071 -0.628000020980835,1.3969999551773071 C-0.628000020980835,1.3969999551773071 0.7210000157356262,1.3969999551773071 0.7210000157356262,1.3969999551773071 C0.7210000157356262,1.3969999551773071 0.7210000157356262,0 0.7210000157356262,0 C0.9160000085830688,-0.5509999990463257 1.3830000162124634,-1.0360000133514404 2.0250000953674316,-1.3969999551773071 C2.0250000953674316,-1.3969999551773071 -0.628000020980835,-1.3969999551773071 -0.628000020980835,-1.3969999551773071z"></path></g><g opacity="1" transform="matrix(1,0,0,1,32.138999938964844,30.266000747680664)"><path fill="rgb(255,238,207)" fill-opacity="1" d=" M0.6290000081062317,-1.3969999551773071 C1.3969999551773071,-1.3969999551773071 2.0250000953674316,-0.7680000066757202 2.0250000953674316,0 C2.0250000953674316,0.7680000066757202 1.3969999551773071,1.3969999551773071 0.6290000081062317,1.3969999551773071 C0.6290000081062317,1.3969999551773071 -0.7210000157356262,1.3969999551773071 -0.7210000157356262,1.3969999551773071 C-0.7210000157356262,1.3969999551773071 -0.7210000157356262,0 -0.7210000157356262,0 C-0.9160000085830688,-0.5509999990463257 -1.3830000162124634,-1.0360000133514404 -2.0250000953674316,-1.3969999551773071 C-2.0250000953674316,-1.3969999551773071 0.6290000081062317,-1.3969999551773071 0.6290000081062317,-1.3969999551773071z"></path></g><g opacity="1" transform="matrix(1,0,0,1,18.40999984741211,30.266000747680664)"><path fill="rgb(255,238,207)" fill-opacity="1" d=" M-6.255000114440918,-1.3969999551773071 C-5.61299991607666,-1.0360000133514404 -5.146999835968018,-0.5509999990463257 -4.952000141143799,0 C-4.952000141143799,0 -4.952000141143799,1.3969999551773071 -4.952000141143799,1.3969999551773071 C-4.952000141143799,1.3969999551773071 4.951000213623047,1.3969999551773071 4.951000213623047,1.3969999551773071 C4.951000213623047,1.3969999551773071 4.951000213623047,0 4.951000213623047,0 C5.145999908447266,-0.5509999990463257 5.61299991607666,-1.0360000133514404 6.255000114440918,-1.3969999551773071 C6.255000114440918,-1.3969999551773071 -6.255000114440918,-1.3969999551773071 -6.255000114440918,-1.3969999551773071z"></path></g><g opacity="1" transform="matrix(1,0,0,1,9.428999900817871,27.225000381469727)"><path stroke-linecap="round" stroke-linejoin="round" fill-opacity="0" stroke="rgb(0,131,125)" stroke-opacity="1" stroke-width="0.682" d=" M2.8989999294281006,0.3799999952316284 C2.1540000438690186,-0.09000000357627869 1.13100004196167,-0.3799999952316284 0.0010000000474974513,-0.3799999952316284 C-1.1299999952316284,-0.3799999952316284 -2.1540000438690186,-0.09000000357627869 -2.8989999294281006,0.3799999952316284"></path></g><g opacity="1" transform="matrix(1,0,0,1,27.389999389648438,27.225000381469727)"><path stroke-linecap="round" stroke-linejoin="round" fill-opacity="0" stroke="rgb(0,131,125)" stroke-opacity="1" stroke-width="0.682" d=" M-2.8980000019073486,0.3799999952316284 C-2.1530001163482666,-0.09000000357627869 -1.13100004196167,-0.3799999952316284 -0.0010000000474974513,-0.3799999952316284 C1.1299999952316284,-0.3799999952316284 2.1530001163482666,-0.09000000357627869 2.8980000019073486,0.3799999952316284"></path></g></g></g></svg>