<svg xmlns="http://www.w3.org/2000/svg" viewBox="0 0 144 89" width="144" height="89" preserveAspectRatio="xMidYMid meet" style="width: 100%; height: 100%; transform: translate3d(0px, 0px, 0px); content-visibility: visible;"><defs><clipPath id="__lottie_element_2440"><rect width="144" height="89" x="0" y="0"></rect></clipPath></defs><g clip-path="url(#__lottie_element_2440)"><g transform="matrix(0.3330000042915344,0,0,0.3330000042915344,1.1652345657348633,0.3481962978839874)" opacity="1" style="display: block;"><g opacity="1" transform="matrix(1,0,0,1,114.44100189208984,142.38900756835938)"><path fill="rgb(17,128,195)" fill-opacity="1" d=" M-45.5629997253418,-19.461000442504883 C-45.5629997253418,-19.461000442504883 45.5629997253418,11.32800006866455 45.5629997253418,11.32800006866455 C45.5629997253418,11.32800006866455 45.5629997253418,19.461000442504883 45.5629997253418,19.461000442504883 C45.5629997253418,19.461000442504883 -45.5629997253418,-11.32800006866455 -45.5629997253418,-11.32800006866455 C-45.5629997253418,-11.32800006866455 -45.5629997253418,-19.461000442504883 -45.5629997253418,-19.461000442504883z"></path></g></g><g transform="matrix(0.3330000042915344,0,0,0.3330000042915344,1.1652345657348633,0.3481962978839874)" opacity="1" style="display: block;"><g opacity="1" transform="matrix(1,0,0,1,88.51599884033203,122.55699920654297)"><path fill="rgb(141,124,142)" fill-opacity="1" d=" M15.821000099182129,-8.748000144958496 C15.821000099182129,-8.748000144958496 -15.821000099182129,-8.748000144958496 -15.821000099182129,-8.748000144958496 C-15.821000099182129,-8.748000144958496 -15.821000099182129,8.748000144958496 -15.821000099182129,8.748000144958496 C-15.821000099182129,8.748000144958496 1.0099999904632568,8.748000144958496 1.0099999904632568,8.748000144958496 C1.0099999904632568,8.748000144958496 15.821000099182129,-6.486999988555908 15.821000099182129,-6.486999988555908 C15.821000099182129,-6.486999988555908 15.821000099182129,-8.748000144958496 15.821000099182129,-8.748000144958496z"></path></g><g opacity="1" transform="matrix(1,0,0,1,49.2239990234375,104.0989990234375)"><path fill="rgb(255,201,77)" fill-opacity="1" d=" M-4.918000221252441,5.040999889373779 C-6.15500020980835,0.9079999923706055 -2.496999979019165,-2.9820001125335693 1.0729999542236328,-4.390999794006348 C2.2720000743865967,-4.863999843597412 3.635999917984009,-5.040999889373779 4.853000164031982,-4.616000175476074 C5.382999897003174,-4.431000232696533 6.15500020980835,-3.9089999198913574 5.808000087738037,-3.252000093460083 C5.690999984741211,-3.0329999923706055 5.495999813079834,-2.869999885559082 5.306000232696533,-2.7119998931884766 C4.461999893188477,-2.0160000324249268 2.799999952316284,-1.3550000190734863 2.4619998931884766,-0.2199999988079071 C2.234999895095825,0.5400000214576721 2.686000108718872,2.302999973297119 3.305000066757202,2.7730000019073486"></path></g><g opacity="1" transform="matrix(1,0,0,1,48.94499969482422,108.48200225830078)"><path fill="rgb(255,201,77)" fill-opacity="1" d=" M-4.622000217437744,4.822000026702881 C-4.622000217437744,4.822000026702881 -5.822000026702881,3.7760000228881836 -6.6579999923706055,2.2799999713897705 C-7.124000072479248,1.4470000267028809 -6.867000102996826,0.3959999978542328 -6.079999923706055,-0.14399999380111694 C-4.1570000648498535,-1.4639999866485596 -0.03799999877810478,-3.859999895095825 5.583000183105469,-4.764999866485596 C5.931000232696533,-4.822000026702881 6.26200008392334,-4.591000080108643 6.3379998207092285,-4.247000217437744 C6.3379998207092285,-4.247000217437744 7.124000072479248,-0.6800000071525574 7.124000072479248,-0.6800000071525574 C7.124000072479248,-0.6800000071525574 -0.26499998569488525,1.0839999914169312 -4.622000217437744,4.822000026702881z"></path></g><g opacity="1" transform="matrix(1,0,0,1,44.77199935913086,122.26300048828125)"><path fill="rgb(175,154,166)" fill-opacity="1" d=" M15.081000328063965,8.508999824523926 C13.942999839782715,10.116000175476074 9.625,12.557000160217285 5.23199987411499,11.994999885559082 C4.328000068664551,11.880000114440918 3.302999973297119,11.869999885559082 2.5940001010894775,12.442999839782715 C1.8329999446868896,13.057000160217285 0.9179999828338623,13.918999671936035 0.33799999952316284,12.446999549865723 C-0.06199999898672104,11.437000274658203 0.9769999980926514,10.72700023651123 1.2710000276565552,9.833999633789062 C1.4170000553131104,9.394000053405762 1.371999979019165,8.847999572753906 1.0180000066757202,8.550000190734863 C0.48399999737739563,9.215999603271484 -0.18700000643730164,9.770999908447266 -0.9399999976158142,10.170000076293945 C-1.9290000200271606,10.692000389099121 -2.8320000171661377,11.109999656677246 -3.9509999752044678,11.3149995803833 C-5.390999794006348,11.57800006866455 -6.882999897003174,11.585000038146973 -8.324999809265137,11.338000297546387 C-11.09000015258789,10.86299991607666 -13.77400016784668,9.388999938964844 -15.114999771118164,6.8420000076293945 C-16.256000518798828,4.676000118255615 -16.649999618530273,1.7170000076293945 -15.281999588012695,-0.4429999887943268 C-14.529999732971191,-1.6299999952316284 -11.916999816894531,-2.3610000610351562 -11.579000473022461,-0.4819999933242798 C-11.343000411987305,0.8240000009536743 -12.519000053405762,0.17599999904632568 -13.08899974822998,0.9079999923706055 C-13.440999984741211,1.3609999418258667 -13.375,2.2269999980926514 -13.244999885559082,2.739000082015991 C-12.932000160217285,3.9820001125335693 -11.829999923706055,5.000999927520752 -10.62600040435791,5.373000144958496 C-8.569999694824219,6.007999897003174 -6.7129998207092285,5.920000076293945 -5.126999855041504,4.341000080108643 C-4.171000003814697,3.388000011444092 -3.4119999408721924,2.249000072479248 -3.447999954223633,0.8989999890327454 C-3.490999937057495,-0.7680000066757202 -3.927999973297119,-2.510999917984009 -3.509999990463257,-4.160999774932861 C-3.009000062942505,-6.139999866485596 -2.2279999256134033,-8.274999618530273 -0.5550000071525574,-9.567000389099121 C1.5089999437332153,-11.15999984741211 4.00600004196167,-12.218000411987305 6.453999996185303,-13.0600004196167 C8.157999992370605,-13.645999908447266 9.595999717712402,-13.918999671936035 11.383000373840332,-13.678999900817871 C13.168999671936035,-13.4399995803833 14.89900016784668,-12.902000427246094 16.649999618530273,-12.47700023651123"></path></g><g opacity="1" transform="matrix(1,0,0,1,84.06600189208984,124.09700012207031)"><path fill="rgb(175,154,166)" fill-opacity="1" d=" M-16.23699951171875,-16.89900016784668 C-16.23699951171875,-16.89900016784668 -9.503000259399414,-16.89900016784668 -9.503000259399414,-16.89900016784668 C-9.333999633789062,-16.89900016784668 -9.196999549865723,-16.761999130249023 -9.196999549865723,-16.5939998626709 C-9.196999549865723,-14.57800006866455 -7.548999786376953,-12.928000450134277 -5.5329999923706055,-12.928000450134277 C-5.5329999923706055,-12.928000450134277 -5.5320000648498535,-12.928000450134277 -5.5320000648498535,-12.928000450134277 C-5.017000198364258,-12.928000450134277 -4.598999977111816,-12.510000228881836 -4.598999977111816,-11.994999885559082 C-4.598999977111816,-11.994999885559082 -4.598999977111816,-2.617000102996826 -4.598999977111816,-2.617000102996826 C-4.598999977111816,0.5 -2.0490000247955322,3.0510001182556152 1.069000005722046,3.0510001182556152 C4.185999870300293,3.0510001182556152 6.736999988555908,0.5 6.736999988555908,-2.617000102996826 C6.736999988555908,-2.617000102996826 6.736999988555908,-11.994999885559082 6.736999988555908,-11.994999885559082 C6.736999988555908,-12.510000228881836 7.15500020980835,-12.928000450134277 7.670000076293945,-12.928000450134277 C7.670000076293945,-12.928000450134277 16.628000259399414,-12.928000450134277 16.628000259399414,-12.928000450134277 C18.549999237060547,-12.928000450134277 20.135000228881836,-14.428999900817871 20.27899932861328,-16.31599998474121 C26.277999877929688,-14.555999755859375 30.69300079345703,-8.991999626159668 30.69300079345703,-2.443000078201294 C30.69300079345703,-2.443000078201294 30.69300079345703,2.444000005722046 30.69300079345703,2.444000005722046 C30.69300079345703,10.394000053405762 24.187999725341797,16.89900016784668 16.23699951171875,16.89900016784668 C16.23699951171875,16.89900016784668 -16.23699951171875,16.89900016784668 -16.23699951171875,16.89900016784668 C-24.187999725341797,16.89900016784668 -30.69300079345703,10.394000053405762 -30.69300079345703,2.444000005722046 C-30.69300079345703,2.444000005722046 -30.69300079345703,-2.443000078201294 -30.69300079345703,-2.443000078201294 C-30.69300079345703,-10.394000053405762 -24.187999725341797,-16.89900016784668 -16.23699951171875,-16.89900016784668z"></path></g><g opacity="1" transform="matrix(1,0,0,1,85.60199737548828,142.0590057373047)"><path fill="rgb(175,154,166)" fill-opacity="1" d=" M-15.869000434875488,-1.7339999675750732 C-11.020000457763672,0.7289999723434448 -5.504000186920166,1.7339999675750732 -0.06499999761581421,1.6019999980926514 C5.372000217437744,1.4700000286102295 10.741000175476074,0.23499999940395355 15.869000434875488,-1.5800000429153442"></path></g><g opacity="1" transform="matrix(1,0,0,1,108.85700225830078,138.3699951171875)"><path fill="rgb(175,154,166)" fill-opacity="1" d=" M-12.579999923706055,3.11899995803833 C-9.668000221252441,2.765000104904175 -8.494999885559082,5.061999797821045 -6.135000228881836,6.073999881744385 C-4,6.988999843597412 -1.4639999866485596,7.064000129699707 0.75,6.59499979019165 C2.3499999046325684,6.25600004196167 3.7049999237060547,5.084000110626221 5.3460001945495605,4.9120001792907715 C6.208000183105469,4.821000099182129 6.427999973297119,5.105999946594238 7.09499979019165,5.453999996185303 C9.20199966430664,6.554999828338623 12.581000328063965,6.26800012588501 12.321000099182129,3.25 C12.121000289916992,0.9179999828338623 10.366999626159668,-1.340999960899353 8.371999740600586,-2.4549999237060547 C7.140999794006348,-3.1440000534057617 6.447000026702881,-3.0840001106262207 5.326000213623047,-2.4860000610351562 C3.5269999504089355,-1.5269999504089355 3.134999990463257,-6.211999893188477 2.4100000858306885,-7.064000129699707"></path></g><g opacity="1" transform="matrix(1,0,0,1,65.22799682617188,139.77000427246094)"><path fill="rgb(175,154,166)" fill-opacity="1" d=" M12.756999969482422,0.25200000405311584 C11.40999984741211,0.03099999949336052 10.071999549865723,0.699999988079071 8.993000030517578,1.534999966621399 C7.914000034332275,2.369999885559082 7.361000061035156,3.9579999446868896 6.181000232696533,4.642000198364258 C3.611999988555908,6.131999969482422 1.2410000562667847,5.3470001220703125 -1.3309999704360962,4.451000213623047 C-2.4019999504089355,4.077000141143799 -3.438999891281128,3.9200000762939453 -4.341000080108643,4.613999843597412 C-5.015999794006348,5.135000228881836 -5.159999847412109,5.556000232696533 -6.13700008392334,5.376999855041504 C-7.546999931335449,5.119999885559082 -8.930000305175781,3.816999912261963 -9.847999572753906,2.7829999923706055 C-10.60099983215332,1.934999942779541 -12.756999969482422,-1.2330000400543213 -11.060999870300293,-2.134999990463257 C-10.376999855041504,-2.497999906539917 -8.977999687194824,-2.049999952316284 -8.281000137329102,-1.8359999656677246 C-8.722000122070312,-1.972000002861023 -7.0970001220703125,-3.75600004196167 -6.986000061035156,-3.8299999237060547 C-5.13100004196167,-5.068999767303467 -2.9089999198913574,-4.271999835968018 -0.949999988079071,-3.7039999961853027 C-0.7139999866485596,-3.635999917984009 -0.4390000104904175,-3.575000047683716 -0.23899999260902405,-3.7170000076293945 C-0.10400000214576721,-3.812000036239624 -0.039000000804662704,-3.9769999980926514 -0.010999999940395355,-4.139999866485596 C0.05299999937415123,-4.507999897003174 -0.03999999910593033,-4.88700008392334 -0.020999999716877937,-5.260000228881836 C-0.004000000189989805,-5.633999824523926 0.18299999833106995,-6.052999973297119 0.5479999780654907,-6.132999897003174"></path></g><g opacity="1" transform="matrix(1,0,0,1,117.06199645996094,126.49199676513672)"><path stroke-linecap="round" stroke-linejoin="round" fill-opacity="0" stroke="rgb(175,154,166)" stroke-opacity="1" stroke-width="3.5" d=" M3.9839999675750732,0.515999972820282 C2.7219998836517334,-0.2750000059604645 1.128000020980835,-0.515999972820282 -0.31299999356269836,-0.13500000536441803 C-0.949999988079071,0.03400000184774399 -1.5579999685287476,0.3179999887943268 -2.2100000381469727,0.4059999883174896 C-2.864000082015991,0.49399998784065247 -3.609999895095825,0.3330000042915344 -3.9839999675750732,-0.20999999344348907"></path></g><g opacity="1" transform="matrix(1,0,0,1,61.66899871826172,108.18000030517578)"><path fill="rgb(141,124,142)" fill-opacity="1" d=" M-10.468000411987305,6.668000221252441 C-10.126999855041504,6.23199987411499 -9.668999671936035,5.708000183105469 -9.694999694824219,4.906000137329102 C-9.71399974822998,4.281000137329102 -10.473999977111816,3.325000047683716 -10.890999794006348,2.8919999599456787 C-11.236000061035156,2.5339999198913574 -11.628000259399414,2.2149999141693115 -11.87399959564209,1.7719999551773071 C-13.446000099182129,-1.0509999990463257 -10.093999862670898,-2.7269999980926514 -8.119000434875488,-3.4619998931884766 C-4.710000038146973,-4.73199987411499 -1.5210000276565552,-5.182000160217285 2.078000068664551,-5.300000190734863 C4.15500020980835,-5.36899995803833 6.138999938964844,-6.1620001792907715 8.192999839782715,-6.434000015258789 C9.251999855041504,-6.574999809265137 10.420000076293945,-6.668000221252441 11.435999870300293,-6.241000175476074 C12.119999885559082,-5.954999923706055 13.446000099182129,-5.234000205993652 13.16100025177002,-4.188000202178955 C13.059000015258789,-3.815999984741211 12.781999588012695,-3.5350000858306885 12.508999824523926,-3.2850000858306885 C11.543000221252441,-2.4049999713897705 10.739999771118164,-1.402999997138977 9.857000350952148,-0.42800000309944153 C8.944000244140625,0.5820000171661377 6.775000095367432,4.723999977111816 6.566999912261963,6.119999885559082 C6.566999912261963,6.119999885559082 -10.468000411987305,6.668000221252441 -10.468000411987305,6.668000221252441z"></path></g><g opacity="1" transform="matrix(1,0,0,1,42.86199951171875,121.63099670410156)"><path fill="rgb(252,234,221)" fill-opacity="1" d=" M-0.8899999856948853,0 C-0.8899999856948853,-1.1119999885559082 -0.492000013589859,-2.013000011444092 0,-2.013000011444092 C0.492000013589859,-2.013000011444092 0.8899999856948853,-1.1119999885559082 0.8899999856948853,0 C0.8899999856948853,1.1109999418258667 0.492000013589859,2.013000011444092 0,2.013000011444092 C-0.492000013589859,2.013000011444092 -0.8899999856948853,1.1109999418258667 -0.8899999856948853,0z"></path></g><g opacity="1" transform="matrix(1,0,0,1,69.27999877929688,117.24800109863281)"><path fill="rgb(252,234,221)" fill-opacity="1" d=" M-3.0299999713897705,13.017000198364258 C-1.5360000133514404,13.017000198364258 -0.328000009059906,11.807999610900879 -0.328000009059906,10.314000129699707 C-0.328000009059906,-2.5850000381469727 4.676000118255615,-8.140000343322754 4.723999977111816,-8.194999694824219 C5.73199987411499,-9.281999588012695 5.684000015258789,-10.987000465393066 4.607999801635742,-12.005999565124512 C3.5309998989105225,-13.017000198364258 1.847000002861023,-12.996000289916992 0.8130000233650208,-11.927000045776367 C0.5479999780654907,-11.647000312805176 -5.73199987411499,-4.956999778747559 -5.73199987411499,10.314000129699707 C-5.73199987411499,11.807999610900879 -4.5229997634887695,13.017000198364258 -3.0299999713897705,13.017000198364258z"></path></g></g><g transform="matrix(0.3330000042915344,0,0,0.3330000042915344,1.165239691734314,0.3481962978839874)" opacity="1" style="display: block;"><g opacity="1" transform="matrix(1,0,0,1,310.3760070800781,142.38900756835938)"><path fill="rgb(17,128,195)" fill-opacity="1" d=" M45.56399917602539,-19.461000442504883 C45.56399917602539,-19.461000442504883 -45.56399917602539,11.32800006866455 -45.56399917602539,11.32800006866455 C-45.56399917602539,11.32800006866455 -45.56399917602539,19.461000442504883 -45.56399917602539,19.461000442504883 C-45.56399917602539,19.461000442504883 45.56399917602539,-11.32800006866455 45.56399917602539,-11.32800006866455 C45.56399917602539,-11.32800006866455 45.56399917602539,-19.461000442504883 45.56399917602539,-19.461000442504883z"></path></g></g><g transform="matrix(0.3330000042915344,0,0,0.3330000042915344,1.165239691734314,0.3481962978839874)" opacity="1" style="display: block;"><g opacity="1" transform="matrix(1,0,0,1,361.7090148925781,122.80000305175781)"><path fill="rgb(141,124,142)" fill-opacity="1" d=" M15.819999694824219,-8.748000144958496 C15.819999694824219,-8.748000144958496 -15.819999694824219,-8.748000144958496 -15.819999694824219,-8.748000144958496 C-15.819999694824219,-8.748000144958496 -15.819999694824219,8.748000144958496 -15.819999694824219,8.748000144958496 C-15.819999694824219,8.748000144958496 1.0099999904632568,8.748000144958496 1.0099999904632568,8.748000144958496 C1.0099999904632568,8.748000144958496 15.819999694824219,-6.486999988555908 15.819999694824219,-6.486999988555908 C15.819999694824219,-6.486999988555908 15.819999694824219,-8.748000144958496 15.819999694824219,-8.748000144958496z"></path></g><g opacity="1" transform="matrix(1,0,0,1,322.4159851074219,104.34200286865234)"><path fill="rgb(68,169,72)" fill-opacity="1" d=" M-4.918000221252441,5.040999889373779 C-6.15500020980835,0.9079999923706055 -2.496000051498413,-2.9820001125335693 1.0729999542236328,-4.390999794006348 C2.2720000743865967,-4.863999843597412 3.635999917984009,-5.040999889373779 4.853000164031982,-4.616000175476074 C5.382999897003174,-4.431000232696533 6.15500020980835,-3.9089999198913574 5.808000087738037,-3.252000093460083 C5.690999984741211,-3.0329999923706055 5.495999813079834,-2.869999885559082 5.306000232696533,-2.7119998931884766 C4.461999893188477,-2.0160000324249268 2.799999952316284,-1.3550000190734863 2.4619998931884766,-0.2199999988079071 C2.234999895095825,0.5400000214576721 2.686000108718872,2.302999973297119 3.305000066757202,2.7730000019073486"></path></g><g opacity="1" transform="matrix(1,0,0,1,322.1369934082031,108.72599792480469)"><path fill="rgb(68,169,72)" fill-opacity="1" d=" M-4.622000217437744,4.822000026702881 C-4.622000217437744,4.822000026702881 -5.821000099182129,3.7760000228881836 -6.6579999923706055,2.2799999713897705 C-7.124000072479248,1.4470000267028809 -6.867000102996826,0.3959999978542328 -6.079999923706055,-0.14399999380111694 C-4.1570000648498535,-1.4639999866485596 -0.03799999877810478,-3.859999895095825 5.583000183105469,-4.764999866485596 C5.931000232696533,-4.822000026702881 6.26200008392334,-4.591000080108643 6.3379998207092285,-4.247000217437744 C6.3379998207092285,-4.247000217437744 7.124000072479248,-0.6800000071525574 7.124000072479248,-0.6800000071525574 C7.124000072479248,-0.6800000071525574 -0.26499998569488525,1.0839999914169312 -4.622000217437744,4.822000026702881z"></path></g><g opacity="1" transform="matrix(1,0,0,1,317.9649963378906,122.26300048828125)"><path fill="rgb(175,154,166)" fill-opacity="1" d=" M15.081999778747559,8.508999824523926 C13.942999839782715,10.116000175476074 9.625,12.557000160217285 5.23199987411499,11.994999885559082 C4.328000068664551,11.880000114440918 3.302999973297119,11.869999885559082 2.5940001010894775,12.442999839782715 C1.8339999914169312,13.057000160217285 0.9179999828338623,13.918999671936035 0.33799999952316284,12.446999549865723 C-0.06199999898672104,11.437000274658203 0.9769999980926514,10.72700023651123 1.2710000276565552,9.833999633789062 C1.4170000553131104,9.394000053405762 1.3730000257492065,8.847999572753906 1.0180000066757202,8.550000190734863 C0.48399999737739563,9.215999603271484 -0.18700000643730164,9.770999908447266 -0.9399999976158142,10.170000076293945 C-1.9279999732971191,10.692000389099121 -2.8320000171661377,11.109999656677246 -3.9509999752044678,11.3149995803833 C-5.390999794006348,11.57800006866455 -6.882999897003174,11.585000038146973 -8.324999809265137,11.338000297546387 C-11.09000015258789,10.86299991607666 -13.77400016784668,9.388999938964844 -15.114999771118164,6.8420000076293945 C-16.256000518798828,4.676000118255615 -16.649999618530273,1.7170000076293945 -15.281999588012695,-0.4429999887943268 C-14.529999732971191,-1.6299999952316284 -11.916999816894531,-2.3610000610351562 -11.57800006866455,-0.4819999933242798 C-11.343000411987305,0.8240000009536743 -12.517999649047852,0.17599999904632568 -13.08899974822998,0.9079999923706055 C-13.440999984741211,1.3609999418258667 -13.375,2.2269999980926514 -13.244999885559082,2.739000082015991 C-12.932000160217285,3.9820001125335693 -11.829999923706055,5.000999927520752 -10.62600040435791,5.373000144958496 C-8.569999694824219,6.007999897003174 -6.7129998207092285,5.920000076293945 -5.126999855041504,4.341000080108643 C-4.171000003814697,3.388000011444092 -3.4119999408721924,2.249000072479248 -3.447000026702881,0.8989999890327454 C-3.490999937057495,-0.7680000066757202 -3.927999973297119,-2.510999917984009 -3.509999990463257,-4.160999774932861 C-3.009000062942505,-6.139999866485596 -2.2279999256134033,-8.274999618530273 -0.5550000071525574,-9.567000389099121 C1.5089999437332153,-11.15999984741211 4.00600004196167,-12.218000411987305 6.453999996185303,-13.0600004196167 C8.159000396728516,-13.645999908447266 9.597000122070312,-13.918999671936035 11.383000373840332,-13.678999900817871 C13.168999671936035,-13.4399995803833 14.89900016784668,-12.902000427246094 16.649999618530273,-12.47700023651123"></path></g><g opacity="1" transform="matrix(1,0,0,1,357.25799560546875,124.09700012207031)"><path fill="rgb(175,154,166)" fill-opacity="1" d=" M-16.23699951171875,-16.89900016784668 C-16.23699951171875,-16.89900016784668 -9.503000259399414,-16.89900016784668 -9.503000259399414,-16.89900016784668 C-9.333999633789062,-16.89900016784668 -9.196999549865723,-16.761999130249023 -9.196999549865723,-16.5939998626709 C-9.196999549865723,-14.57800006866455 -7.547999858856201,-12.928000450134277 -5.5320000648498535,-12.928000450134277 C-5.015999794006348,-12.928000450134277 -4.5980000495910645,-12.510000228881836 -4.5980000495910645,-11.994999885559082 C-4.5980000495910645,-11.994999885559082 -4.5980000495910645,-2.617000102996826 -4.5980000495910645,-2.617000102996826 C-4.5980000495910645,0.5 -2.0490000247955322,3.0510001182556152 1.069000005722046,3.0510001182556152 C4.185999870300293,3.0510001182556152 6.736999988555908,0.5 6.736999988555908,-2.617000102996826 C6.736999988555908,-2.617000102996826 6.736999988555908,-11.994999885559082 6.736999988555908,-11.994999885559082 C6.736999988555908,-12.510000228881836 7.15500020980835,-12.928000450134277 7.670000076293945,-12.928000450134277 C7.670000076293945,-12.928000450134277 16.628000259399414,-12.928000450134277 16.628000259399414,-12.928000450134277 C18.549999237060547,-12.928000450134277 20.135000228881836,-14.428999900817871 20.27899932861328,-16.31599998474121 C26.277999877929688,-14.555999755859375 30.69300079345703,-8.991999626159668 30.69300079345703,-2.443000078201294 C30.69300079345703,-2.443000078201294 30.69300079345703,2.444000005722046 30.69300079345703,2.444000005722046 C30.69300079345703,10.394000053405762 24.187999725341797,16.89900016784668 16.23699951171875,16.89900016784668 C16.23699951171875,16.89900016784668 -16.23699951171875,16.89900016784668 -16.23699951171875,16.89900016784668 C-24.187000274658203,16.89900016784668 -30.69300079345703,10.394000053405762 -30.69300079345703,2.444000005722046 C-30.69300079345703,2.444000005722046 -30.69300079345703,-2.443000078201294 -30.69300079345703,-2.443000078201294 C-30.69300079345703,-10.394000053405762 -24.187000274658203,-16.89900016784668 -16.23699951171875,-16.89900016784668z"></path></g><g opacity="1" transform="matrix(1,0,0,1,358.7950134277344,142.0590057373047)"><path fill="rgb(175,154,166)" fill-opacity="1" d=" M-15.869000434875488,-1.7339999675750732 C-11.020000457763672,0.7289999723434448 -5.502999782562256,1.7339999675750732 -0.06499999761581421,1.6019999980926514 C5.372000217437744,1.4700000286102295 10.741999626159668,0.23499999940395355 15.869000434875488,-1.5800000429153442"></path></g><g opacity="1" transform="matrix(1,0,0,1,382.04901123046875,138.3699951171875)"><path fill="rgb(175,154,166)" fill-opacity="1" d=" M-12.579999923706055,3.11899995803833 C-9.668000221252441,2.765000104904175 -8.494000434875488,5.061999797821045 -6.135000228881836,6.073999881744385 C-4,6.988999843597412 -1.4639999866485596,7.064000129699707 0.7509999871253967,6.59499979019165 C2.3499999046325684,6.25600004196167 3.7049999237060547,5.084000110626221 5.3460001945495605,4.9120001792907715 C6.208000183105469,4.821000099182129 6.427999973297119,5.105999946594238 7.09499979019165,5.453999996185303 C9.20199966430664,6.554999828338623 12.581000328063965,6.26800012588501 12.321000099182129,3.25 C12.121000289916992,0.9179999828338623 10.366999626159668,-1.340999960899353 8.371999740600586,-2.4549999237060547 C7.140999794006348,-3.1440000534057617 6.447000026702881,-3.0840001106262207 5.326000213623047,-2.4860000610351562 C3.5269999504089355,-1.5269999504089355 3.134999990463257,-6.211999893188477 2.4100000858306885,-7.064000129699707"></path></g><g opacity="1" transform="matrix(1,0,0,1,338.4209899902344,139.77000427246094)"><path fill="rgb(175,154,166)" fill-opacity="1" d=" M12.756999969482422,0.25200000405311584 C11.40999984741211,0.03099999949336052 10.071999549865723,0.699999988079071 8.993000030517578,1.534999966621399 C7.914000034332275,2.369999885559082 7.361000061035156,3.9579999446868896 6.181000232696533,4.642000198364258 C3.611999988555908,6.131999969482422 1.2410000562667847,5.3470001220703125 -1.3309999704360962,4.451000213623047 C-2.4019999504089355,4.077000141143799 -3.437999963760376,3.9200000762939453 -4.341000080108643,4.613999843597412 C-5.014999866485596,5.135000228881836 -5.159999847412109,5.556000232696533 -6.13700008392334,5.376999855041504 C-7.546999931335449,5.119999885559082 -8.930000305175781,3.816999912261963 -9.847999572753906,2.7829999923706055 C-10.60099983215332,1.934999942779541 -12.756999969482422,-1.2330000400543213 -11.060999870300293,-2.134999990463257 C-10.376999855041504,-2.497999906539917 -8.97700023651123,-2.049999952316284 -8.281000137329102,-1.8359999656677246 C-8.722000122070312,-1.972000002861023 -7.0970001220703125,-3.75600004196167 -6.986000061035156,-3.8299999237060547 C-5.13100004196167,-5.068999767303467 -2.9089999198913574,-4.271999835968018 -0.949999988079071,-3.7039999961853027 C-0.7139999866485596,-3.635999917984009 -0.4390000104904175,-3.575000047683716 -0.23899999260902405,-3.7170000076293945 C-0.10400000214576721,-3.812000036239624 -0.039000000804662704,-3.9769999980926514 -0.010999999940395355,-4.139999866485596 C0.05299999937415123,-4.507999897003174 -0.039000000804662704,-4.88700008392334 -0.020999999716877937,-5.260000228881836 C-0.004000000189989805,-5.633999824523926 0.18299999833106995,-6.052999973297119 0.5479999780654907,-6.132999897003174"></path></g><g opacity="1" transform="matrix(1,0,0,1,390.2550048828125,126.49199676513672)"><path stroke-linecap="round" stroke-linejoin="round" fill-opacity="0" stroke="rgb(175,154,166)" stroke-opacity="1" stroke-width="3.5" d=" M3.9839999675750732,0.515999972820282 C2.7219998836517334,-0.2750000059604645 1.128000020980835,-0.515999972820282 -0.31299999356269836,-0.13500000536441803 C-0.949999988079071,0.03400000184774399 -1.5579999685287476,0.3179999887943268 -2.2100000381469727,0.4059999883174896 C-2.864000082015991,0.49399998784065247 -3.609999895095825,0.3330000042915344 -3.9839999675750732,-0.20999999344348907"></path></g><g opacity="1" transform="matrix(1,0,0,1,334.8609924316406,108.18000030517578)"><path fill="rgb(141,124,142)" fill-opacity="1" d=" M-10.468000411987305,6.668000221252441 C-10.126999855041504,6.23199987411499 -9.668999671936035,5.708000183105469 -9.694999694824219,4.906000137329102 C-9.71399974822998,4.281000137329102 -10.473999977111816,3.325000047683716 -10.890999794006348,2.8919999599456787 C-11.236000061035156,2.5339999198913574 -11.628000259399414,2.2149999141693115 -11.87399959564209,1.7719999551773071 C-13.446000099182129,-1.0509999990463257 -10.093999862670898,-2.7269999980926514 -8.119000434875488,-3.4619998931884766 C-4.710000038146973,-4.73199987411499 -1.5210000276565552,-5.182000160217285 2.078000068664551,-5.300000190734863 C4.15500020980835,-5.36899995803833 6.138999938964844,-6.1620001792907715 8.192999839782715,-6.434000015258789 C9.251999855041504,-6.574999809265137 10.420000076293945,-6.668000221252441 11.435999870300293,-6.241000175476074 C12.119999885559082,-5.954999923706055 13.446000099182129,-5.234000205993652 13.16100025177002,-4.188000202178955 C13.059000015258789,-3.815999984741211 12.781999588012695,-3.5350000858306885 12.508999824523926,-3.2850000858306885 C11.543000221252441,-2.4049999713897705 10.739999771118164,-1.402999997138977 9.857000350952148,-0.42800000309944153 C8.944999694824219,0.5820000171661377 6.776000022888184,4.723999977111816 6.566999912261963,6.119999885559082 C6.566999912261963,6.119999885559082 -10.468000411987305,6.668000221252441 -10.468000411987305,6.668000221252441z"></path></g><g opacity="1" transform="matrix(1,0,0,1,316.05499267578125,121.8740005493164)"><path fill="rgb(252,234,221)" fill-opacity="1" d=" M-0.8899999856948853,0 C-0.8899999856948853,-1.1119999885559082 -0.492000013589859,-2.013000011444092 0,-2.013000011444092 C0.492000013589859,-2.013000011444092 0.8899999856948853,-1.1119999885559082 0.8899999856948853,0 C0.8899999856948853,1.1109999418258667 0.492000013589859,2.013000011444092 0,2.013000011444092 C-0.492000013589859,2.013000011444092 -0.8899999856948853,1.1109999418258667 -0.8899999856948853,0z"></path></g><g opacity="1" transform="matrix(1,0,0,1,342.45001220703125,117.49099731445312)"><path fill="rgb(252,234,221)" fill-opacity="1" d=" M-3.0290000438690186,13.017000198364258 C-1.5360000133514404,13.017000198364258 -0.328000009059906,11.807999610900879 -0.328000009059906,10.314000129699707 C-0.328000009059906,-2.5850000381469727 4.673999786376953,-8.140000343322754 4.723999977111816,-8.194999694824219 C5.73199987411499,-9.281999588012695 5.684000015258789,-10.987000465393066 4.605000019073486,-12.005999565124512 C3.5309998989105225,-13.017000198364258 1.8389999866485596,-12.987000465393066 0.8149999976158142,-11.927000045776367 C0.5450000166893005,-11.647000312805176 -5.730999946594238,-4.956999778747559 -5.730999946594238,10.314000129699707 C-5.730999946594238,11.807999610900879 -4.5229997634887695,13.017000198364258 -3.0290000438690186,13.017000198364258z"></path></g></g><g transform="matrix(0.3330000042915344,0,0,0.3330000042915344,1.1652345657348633,0.3481962978839874)" opacity="1" style="display: block;"><g opacity="1" transform="matrix(1,0,0,1,0,0)"><path stroke-linecap="round" stroke-linejoin="round" fill-opacity="0" stroke="rgb(237,162,31)" stroke-opacity="1" stroke-width="4.324" d=" M212.4080047607422,58.49700164794922 C212.4080047607422,58.49700164794922 212.4080047607422,28.059999465942383 212.4080047607422,28.059999465942383"></path></g><g opacity="1" transform="matrix(1,0,0,1,0,0)"><path stroke-linecap="round" stroke-linejoin="round" fill-opacity="0" stroke="rgb(217,28,92)" stroke-opacity="1" stroke-width="5.405" d=" M212.4080047607422,80.13200378417969 C212.4080047607422,80.13200378417969 212.4080047607422,49.69599914550781 212.4080047607422,49.69599914550781"></path></g><g opacity="1" transform="matrix(1,0,0,1,212.40899658203125,97.48600006103516)"><path fill="rgb(17,128,195)" fill-opacity="1" d=" M-29.114999771118164,-17.354000091552734 C-29.114999771118164,-17.354000091552734 29.114999771118164,-17.354000091552734 29.114999771118164,-17.354000091552734 C29.114999771118164,-17.354000091552734 29.114999771118164,17.354000091552734 29.114999771118164,17.354000091552734 C29.114999771118164,17.354000091552734 -29.114999771118164,17.354000091552734 -29.114999771118164,17.354000091552734 C-29.114999771118164,17.354000091552734 -29.114999771118164,-17.354000091552734 -29.114999771118164,-17.354000091552734z"></path></g><g opacity="1" transform="matrix(1,0,0,1,212.40899658203125,166.4340057373047)"><path fill="rgb(77,67,95)" fill-opacity="1" d=" M-42.08000183105469,53.45600128173828 C-57.88800048828125,40.994998931884766 -68.04900360107422,21.69099998474121 -68.04900360107422,0 C-68.04900360107422,-21.690000534057617 -57.88800048828125,-40.994998931884766 -42.08000183105469,-53.45600128173828 C-42.08000183105469,-53.45600128173828 42.07899856567383,-53.45600128173828 42.07899856567383,-53.45600128173828 C57.88800048828125,-40.994998931884766 68.04900360107422,-21.690000534057617 68.04900360107422,0 C68.04900360107422,21.69099998474121 57.887001037597656,40.994998931884766 42.07899856567383,53.45600128173828 C42.07899856567383,53.45600128173828 -42.08000183105469,53.45600128173828 -42.08000183105469,53.45600128173828z"></path></g><g opacity="1" transform="matrix(1,0,0,1,256.77301025390625,145.13900756835938)"><path fill="rgb(17,128,195)" fill-opacity="1" d=" M-15.128999710083008,-26.72800064086914 C-15.128999710083008,-26.72800064086914 -7.604000091552734,-26.72800064086914 -7.604000091552734,-26.72800064086914 C6.232999801635742,-14.27400016784668 15.128999710083008,5.0329999923706055 15.128999710083008,26.72800064086914 C15.128999710083008,26.72800064086914 2.950000047683716,26.72800064086914 2.950000047683716,26.72800064086914 C2.950000047683716,5.0329999923706055 -4.124000072479248,-14.27400016784668 -15.128999710083008,-26.72800064086914z"></path></g><g opacity="1" transform="matrix(1,0,0,1,168.04400634765625,145.13900756835938)"><path fill="rgb(17,128,195)" fill-opacity="1" d=" M7.604000091552734,-26.72800064086914 C7.604000091552734,-26.72800064086914 15.128000259399414,-26.72800064086914 15.128000259399414,-26.72800064086914 C4.125,-14.27400016784668 -2.9509999752044678,5.0329999923706055 -2.9509999752044678,26.72800064086914 C-2.9509999752044678,26.72800064086914 -15.128000259399414,26.72800064086914 -15.128000259399414,26.72800064086914 C-15.128000259399414,5.0329999923706055 -6.232999801635742,-14.27400016784668 7.604000091552734,-26.72800064086914z"></path></g><g opacity="1" transform="matrix(1,0,0,1,192.91600036621094,145.13900756835938)"><path fill="rgb(17,128,195)" fill-opacity="1" d=" M12.022000312805176,-26.72800064086914 C9.208999633789062,-14.27400016784668 7.4019999504089355,5.0329999923706055 7.4019999504089355,26.72800064086914 C7.4019999504089355,26.72800064086914 -12.022000312805176,26.72800064086914 -12.022000312805176,26.72800064086914 C-12.022000312805176,5.0329999923706055 -7.309999942779541,-14.27400016784668 0.019999999552965164,-26.72800064086914 C0.019999999552965164,-26.72800064086914 12.022000312805176,-26.72800064086914 12.022000312805176,-26.72800064086914z"></path></g><g opacity="1" transform="matrix(1,0,0,1,231.9010009765625,145.13900756835938)"><path fill="rgb(17,128,195)" fill-opacity="1" d=" M-12.020999908447266,-26.72800064086914 C-12.020999908447266,-26.72800064086914 -0.019999999552965164,-26.72800064086914 -0.019999999552965164,-26.72800064086914 C7.309000015258789,-14.27400016784668 12.020999908447266,5.0329999923706055 12.020999908447266,26.72800064086914 C12.020999908447266,26.72800064086914 -7.401000022888184,26.72800064086914 -7.401000022888184,26.72800064086914 C-7.401000022888184,5.0329999923706055 -9.208999633789062,-14.27400016784668 -12.020999908447266,-26.72800064086914z"></path></g><g opacity="1" transform="matrix(1,0,0,1,168.04400634765625,183.96099853515625)"><path fill="rgb(17,128,195)" fill-opacity="1" d=" M-2.6530001163482666,-30.496000289916992 C-2.8429999351501465,-28.020999908447266 -2.9509999752044678,-25.509000778198242 -2.9509999752044678,-22.959999084472656 C-2.9509999752044678,-1.2660000324249268 4.124000072479248,18.04199981689453 15.128000259399414,30.496000289916992 C15.128000259399414,30.496000289916992 7.604000091552734,30.496000289916992 7.604000091552734,30.496000289916992 C-6.232999801635742,18.04199981689453 -15.128000259399414,-1.2660000324249268 -15.128000259399414,-22.959999084472656 C-15.128000259399414,-25.509000778198242 -14.994999885559082,-28.020999908447266 -14.755999565124512,-30.496000289916992 C-14.755999565124512,-30.496000289916992 -2.6530001163482666,-30.496000289916992 -2.6530001163482666,-30.496000289916992z"></path></g><g opacity="1" transform="matrix(1,0,0,1,192.91600036621094,183.96099853515625)"><path fill="rgb(17,128,195)" fill-opacity="1" d=" M7.4770002365112305,-30.496000289916992 C7.427999973297119,-28.020999908447266 7.401000022888184,-25.509000778198242 7.401000022888184,-22.959999084472656 C7.401000022888184,-1.2660000324249268 9.208000183105469,18.04199981689453 12.020999908447266,30.496000289916992 C12.020999908447266,30.496000289916992 0.020999999716877937,30.496000289916992 0.020999999716877937,30.496000289916992 C-7.309000015258789,18.04199981689453 -12.020999908447266,-1.2660000324249268 -12.020999908447266,-22.959999084472656 C-12.020999908447266,-25.509000778198242 -11.95199966430664,-28.020999908447266 -11.824999809265137,-30.496000289916992 C-11.824999809265137,-30.496000289916992 7.4770002365112305,-30.496000289916992 7.4770002365112305,-30.496000289916992z"></path></g><g opacity="1" transform="matrix(1,0,0,1,231.9010009765625,183.96099853515625)"><path fill="rgb(17,128,195)" fill-opacity="1" d=" M-7.4770002365112305,-30.496000289916992 C-7.4770002365112305,-30.496000289916992 11.824000358581543,-30.496000289916992 11.824000358581543,-30.496000289916992 C11.951000213623047,-28.020999908447266 12.020999908447266,-25.509000778198242 12.020999908447266,-22.959999084472656 C12.020999908447266,-1.2660000324249268 7.309000015258789,18.04199981689453 -0.019999999552965164,30.496000289916992 C-0.019999999552965164,30.496000289916992 -12.020999908447266,30.496000289916992 -12.020999908447266,30.496000289916992 C-9.208999633789062,18.04199981689453 -7.401000022888184,-1.2660000324249268 -7.401000022888184,-22.959999084472656 C-7.401000022888184,-25.509000778198242 -7.427999973297119,-28.020999908447266 -7.4770002365112305,-30.496000289916992z"></path></g><g opacity="1" transform="matrix(1,0,0,1,256.77301025390625,183.96099853515625)"><path fill="rgb(17,128,195)" fill-opacity="1" d=" M2.6540000438690186,-30.496000289916992 C2.6540000438690186,-30.496000289916992 14.755999565124512,-30.496000289916992 14.755999565124512,-30.496000289916992 C14.994999885559082,-28.020999908447266 15.128999710083008,-25.509000778198242 15.128999710083008,-22.959999084472656 C15.128999710083008,-1.2660000324249268 6.232999801635742,18.04199981689453 -7.604000091552734,30.496000289916992 C-7.604000091552734,30.496000289916992 -15.128999710083008,30.496000289916992 -15.128999710083008,30.496000289916992 C-4.124000072479248,18.04199981689453 2.950000047683716,-1.2660000324249268 2.950000047683716,-22.959999084472656 C2.950000047683716,-25.509000778198242 2.8440001010894775,-28.020999908447266 2.6540000438690186,-30.496000289916992z"></path></g><g opacity="1" transform="matrix(1,0,0,1,264.81298828125,166.4340057373047)"><path fill="rgb(217,28,92)" fill-opacity="1" d=" M7.0879998207092285,0 C7.0879998207092285,-21.69499969482422 -1.8079999685287476,-41.00199890136719 -15.644000053405762,-53.457000732421875 C-15.644000053405762,-53.457000732421875 -10.324999809265137,-53.457000732421875 -10.324999809265137,-53.457000732421875 C5.484000205993652,-40.99599838256836 15.644000053405762,-21.690000534057617 15.644000053405762,0 C15.644000053405762,21.690000534057617 5.482999801635742,40.99599838256836 -10.324999809265137,53.457000732421875 C-10.324999809265137,53.457000732421875 -15.644000053405762,53.457000732421875 -15.644000053405762,53.457000732421875 C-1.8079999685287476,41.00299835205078 7.0879998207092285,21.69499969482422 7.0879998207092285,0z"></path></g><g opacity="1" transform="matrix(1,0,0,1,160.00399780273438,166.4340057373047)"><path fill="rgb(217,28,92)" fill-opacity="1" d=" M10.324000358581543,-53.457000732421875 C10.324000358581543,-53.457000732421875 15.644000053405762,-53.457000732421875 15.644000053405762,-53.457000732421875 C1.8070000410079956,-41.00299835205078 -7.0879998207092285,-21.69499969482422 -7.0879998207092285,0 C-7.0879998207092285,21.69499969482422 1.8070000410079956,41.00299835205078 15.644000053405762,53.457000732421875 C15.644000053405762,53.457000732421875 10.324000358581543,53.457000732421875 10.324000358581543,53.457000732421875 C-5.484000205993652,40.99599838256836 -15.644000053405762,21.690000534057617 -15.644000053405762,0 C-15.644000053405762,-21.69099998474121 -5.484000205993652,-40.99599838256836 10.324000358581543,-53.457000732421875z"></path></g><g opacity="1" transform="matrix(1,0,0,1,245.802001953125,166.4340057373047)"><path fill="rgb(217,28,92)" fill-opacity="1" d=" M-13.920999526977539,-53.457000732421875 C-13.920999526977539,-53.457000732421875 -4.1579999923706055,-53.457000732421875 -4.1579999923706055,-53.457000732421875 C6.8470001220703125,-41.00299835205078 13.920999526977539,-21.69499969482422 13.920999526977539,0 C13.920999526977539,21.69499969482422 6.8470001220703125,41.00299835205078 -4.1579999923706055,53.457000732421875 C-4.1579999923706055,53.457000732421875 -13.920999526977539,53.457000732421875 -13.920999526977539,53.457000732421875 C-6.5920000076293945,41.00299835205078 -1.8799999952316284,21.69499969482422 -1.8799999952316284,0 C-1.8799999952316284,-21.69499969482422 -6.5920000076293945,-41.00299835205078 -13.920999526977539,-53.457000732421875z"></path></g><g opacity="1" transform="matrix(1,0,0,1,179.01499938964844,166.4340057373047)"><path fill="rgb(217,28,92)" fill-opacity="1" d=" M1.8799999952316284,0 C1.8799999952316284,21.69499969482422 6.5920000076293945,41.00299835205078 13.92199993133545,53.457000732421875 C13.92199993133545,53.457000732421875 4.1570000648498535,53.457000732421875 4.1570000648498535,53.457000732421875 C-6.8470001220703125,41.00299835205078 -13.92199993133545,21.69499969482422 -13.92199993133545,0 C-13.92199993133545,-21.69499969482422 -6.8470001220703125,-41.00199890136719 4.1570000648498535,-53.457000732421875 C4.1570000648498535,-53.457000732421875 13.92199993133545,-53.457000732421875 13.92199993133545,-53.457000732421875 C6.5920000076293945,-41.00199890136719 1.8799999952316284,-21.69499969482422 1.8799999952316284,0z"></path></g><g opacity="1" transform="matrix(1,0,0,1,212.4080047607422,166.4340057373047)"><path fill="rgb(217,28,92)" fill-opacity="1" d=" M-7.4710001945495605,-53.457000732421875 C-7.4710001945495605,-53.457000732421875 7.4710001945495605,-53.457000732421875 7.4710001945495605,-53.457000732421875 C10.282999992370605,-41.00299835205078 12.090999603271484,-21.69499969482422 12.090999603271484,0 C12.090999603271484,21.69499969482422 10.282999992370605,41.00299835205078 7.4710001945495605,53.457000732421875 C7.4710001945495605,53.457000732421875 -7.4710001945495605,53.457000732421875 -7.4710001945495605,53.457000732421875 C-10.284000396728516,41.00299835205078 -12.090999603271484,21.69499969482422 -12.090999603271484,0 C-12.090999603271484,-21.69499969482422 -10.284000396728516,-41.00299835205078 -7.4710001945495605,-53.457000732421875z"></path></g><g opacity="1" transform="matrix(1,0,0,1,212.40899658203125,230.22799682617188)"><path fill="rgb(17,128,195)" fill-opacity="1" d=" M-58.07099914550781,-10.336000442504883 C-58.07099914550781,-10.336000442504883 58.07099914550781,-10.336000442504883 58.07099914550781,-10.336000442504883 C58.07099914550781,-10.336000442504883 58.07099914550781,10.336000442504883 58.07099914550781,10.336000442504883 C58.07099914550781,10.336000442504883 -58.07099914550781,10.336000442504883 -58.07099914550781,10.336000442504883 C-58.07099914550781,10.336000442504883 -58.07099914550781,-10.336000442504883 -58.07099914550781,-10.336000442504883z"></path></g><g opacity="1" transform="matrix(1,0,0,1,212.4080047607422,254.33900451660156)"><path fill="rgb(141,124,142)" fill-opacity="1" d=" M-123.7969970703125,-6.179999828338623 C-123.7969970703125,-6.179999828338623 0,-9.980999946594238 0,-9.980999946594238 C0,-9.980999946594238 123.7969970703125,-6.179999828338623 123.7969970703125,-6.179999828338623 C123.7969970703125,-6.179999828338623 123.7969970703125,9.980999946594238 123.7969970703125,9.980999946594238 C123.7969970703125,9.980999946594238 -123.7969970703125,9.980999946594238 -123.7969970703125,9.980999946594238 C-123.7969970703125,9.980999946594238 -123.7969970703125,-6.179999828338623 -123.7969970703125,-6.179999828338623z"></path></g><g opacity="1" transform="matrix(1,0,0,1,212.4080047607422,244.36199951171875)"><path fill="rgb(189,172,182)" fill-opacity="1" d=" M-116.20099639892578,-3.7980000972747803 C-116.20099639892578,-3.7980000972747803 116.20099639892578,-3.7980000972747803 116.20099639892578,-3.7980000972747803 C120.39700317382812,-3.7980000972747803 123.7969970703125,-0.3970000147819519 123.7969970703125,3.7980000972747803 C123.7969970703125,3.7980000972747803 -123.7969970703125,3.7980000972747803 -123.7969970703125,3.7980000972747803 C-123.7969970703125,-0.3970000147819519 -120.3949966430664,-3.7980000972747803 -116.20099639892578,-3.7980000972747803z"></path></g><g opacity="1" transform="matrix(1,0,0,1,255.96099853515625,230.2270050048828)"><path fill="rgb(217,28,92)" fill-opacity="1" d=" M0,-10.336999893188477 C0,-10.336999893188477 14.517999649047852,10.336999893188477 14.517999649047852,10.336999893188477 C14.517999649047852,10.336999893188477 -14.517999649047852,10.336999893188477 -14.517999649047852,10.336999893188477 C-14.517999649047852,10.336999893188477 0,-10.336999893188477 0,-10.336999893188477z"></path></g><g opacity="1" transform="matrix(1,0,0,1,226.92599487304688,230.2270050048828)"><path fill="rgb(217,28,92)" fill-opacity="1" d=" M0,-10.336999893188477 C0,-10.336999893188477 14.517999649047852,10.336999893188477 14.517999649047852,10.336999893188477 C14.517999649047852,10.336999893188477 -14.517999649047852,10.336999893188477 -14.517999649047852,10.336999893188477 C-14.517999649047852,10.336999893188477 0,-10.336999893188477 0,-10.336999893188477z"></path></g><g opacity="1" transform="matrix(1,0,0,1,197.89100646972656,230.2270050048828)"><path fill="rgb(217,28,92)" fill-opacity="1" d=" M0,-10.336999893188477 C0,-10.336999893188477 14.517999649047852,10.336999893188477 14.517999649047852,10.336999893188477 C14.517999649047852,10.336999893188477 -14.517999649047852,10.336999893188477 -14.517999649047852,10.336999893188477 C-14.517999649047852,10.336999893188477 0,-10.336999893188477 0,-10.336999893188477z"></path></g><g opacity="1" transform="matrix(1,0,0,1,168.85499572753906,230.2270050048828)"><path fill="rgb(217,28,92)" fill-opacity="1" d=" M0,-10.336999893188477 C0,-10.336999893188477 14.517999649047852,10.336999893188477 14.517999649047852,10.336999893188477 C14.517999649047852,10.336999893188477 -14.517999649047852,10.336999893188477 -14.517999649047852,10.336999893188477 C-14.517999649047852,10.336999893188477 0,-10.336999893188477 0,-10.336999893188477z"></path></g><g opacity="1" transform="matrix(1,0,0,1,0,0)"><path stroke-linecap="round" stroke-linejoin="round" fill-opacity="0" stroke="rgb(237,162,31)" stroke-opacity="1" stroke-width="4.324" d=" M241.5229949951172,80.13200378417969 C241.5229949951172,80.13200378417969 183.29400634765625,80.13200378417969 183.29400634765625,80.13200378417969"></path></g><g opacity="1" transform="matrix(1,0,0,1,256.9830017089844,109.49299621582031)"><path stroke-linecap="round" stroke-linejoin="round" fill-opacity="0" stroke="rgb(237,162,31)" stroke-opacity="1" stroke-width="8.107" d=" M2.5420000553131104,-5.879000186920166 C2.190000057220459,-3.1440000534057617 1.996000051498413,-0.32600000500679016 0.7979999780654907,2.181999921798706 C0.08799999952316284,3.6679999828338623 -1.0950000286102295,5.038000106811523 -2.5420000553131104,5.879000186920166"></path></g><g opacity="1" transform="matrix(1,0,0,1,240.1219940185547,109.49299621582031)"><path stroke-linecap="round" stroke-linejoin="round" fill-opacity="0" stroke="rgb(237,162,31)" stroke-opacity="1" stroke-width="8.107" d=" M1.4010000228881836,-5.879000186920166 C1.2079999446868896,-3.1449999809265137 1.0989999771118164,-0.32600000500679016 0.4390000104904175,2.180999994277954 C0.04800000041723251,3.6679999828338623 -0.6029999852180481,5.038000106811523 -1.4010000228881836,5.879000186920166"></path></g><g opacity="1" transform="matrix(1,0,0,1,184.69400024414062,109.49299621582031)"><path stroke-linecap="round" stroke-linejoin="round" fill-opacity="0" stroke="rgb(237,162,31)" stroke-opacity="1" stroke-width="8.107" d=" M-1.399999976158142,-5.879000186920166 C-1.2070000171661377,-3.1449999809265137 -1.0989999771118164,-0.32600000500679016 -0.4390000104904175,2.180999994277954 C-0.04699999839067459,3.6679999828338623 0.6029999852180481,5.038000106811523 1.399999976158142,5.879000186920166"></path></g><g opacity="1" transform="matrix(1,0,0,1,167.83399963378906,109.49299621582031)"><path stroke-linecap="round" stroke-linejoin="round" fill-opacity="0" stroke="rgb(237,162,31)" stroke-opacity="1" stroke-width="8.107" d=" M2.5420000553131104,5.877999782562256 C1.0950000286102295,5.0370001792907715 -0.08799999952316284,3.6700000762939453 -0.7979999780654907,2.183000087738037 C-1.996000051498413,-0.32499998807907104 -2.190999984741211,-3.1429998874664307 -2.5420000553131104,-5.877999782562256"></path></g><g opacity="1" transform="matrix(1,0,0,1,200.96800231933594,58.7760009765625)"><path stroke-linecap="round" stroke-linejoin="round" fill-opacity="0" stroke="rgb(217,28,92)" stroke-opacity="1" stroke-width="5.405" d=" M4.660999774932861,-4.170000076293945 C8.71399974822998,-5.520999908447266 9.27400016784668,-10.602999687194824 7.5929999351501465,-13.795000076293945 C5.589000225067139,-17.597000122070312 1.340000033378601,-18.634000778198242 -2.180999994277954,-17.850000381469727 C-6.559999942779541,-16.87299919128418 -9.274999618530273,-12.359999656677246 -8.598999977111816,-8.053999900817871 C-7.798999786376953,-2.9590001106262207 -3.6389999389648438,-1.1649999618530273 -0.6539999842643738,2.865000009536743 C2.7230000495910645,7.425000190734863 3.507999897003174,12.282999992370605 3.507999897003174,18.635000228881836"></path></g><g opacity="1" transform="matrix(1,0,0,1,223.84800720214844,58.7760009765625)"><path stroke-linecap="round" stroke-linejoin="round" fill-opacity="0" stroke="rgb(217,28,92)" stroke-opacity="1" stroke-width="5.405" d=" M-4.658999919891357,-4.170000076293945 C-8.713000297546387,-5.520999908447266 -9.27400016784668,-10.602999687194824 -7.5929999351501465,-13.795000076293945 C-5.5879998207092285,-17.597000122070312 -1.340000033378601,-18.634000778198242 2.180999994277954,-17.850000381469727 C6.560999870300293,-16.87299919128418 9.274999618530273,-12.359999656677246 8.598999977111816,-8.053999900817871 C7.800000190734863,-2.9590001106262207 3.640000104904175,-1.1649999618530273 0.6539999842643738,2.865000009536743 C-2.7219998836517334,7.425000190734863 -3.506999969482422,12.282999992370605 -3.506999969482422,18.635000228881836"></path></g><g opacity="1" transform="matrix(1,0,0,1,206.00599670410156,90.81500244140625)"><path stroke-linecap="round" stroke-linejoin="round" fill-opacity="0" stroke="rgb(237,162,31)" stroke-opacity="1" stroke-width="5.405" d=" M-5.1479997634887695,2.6089999675750732 C-6.4019999504089355,6.099999904632568 -2.9119999408721924,10.152999877929688 1.4800000190734863,8.428000450134277 C5.178999900817871,6.973999977111816 6.4019999504089355,2.697999954223633 6.4019999504089355,-2.3570001125335693 C6.4019999504089355,-2.3570001125335693 6.4019999504089355,-10.152999877929688 6.4019999504089355,-10.152999877929688"></path></g><g opacity="1" transform="matrix(1,0,0,1,218.80999755859375,90.81500244140625)"><path stroke-linecap="round" stroke-linejoin="round" fill-opacity="0" stroke="rgb(237,162,31)" stroke-opacity="1" stroke-width="5.405" d=" M5.1479997634887695,2.6089999675750732 C6.4019999504089355,6.099999904632568 2.9119999408721924,10.152999877929688 -1.4800000190734863,8.428000450134277 C-5.178999900817871,6.973999977111816 -6.4019999504089355,2.697999954223633 -6.4019999504089355,-2.3570001125335693 C-6.4019999504089355,-2.3570001125335693 -6.4019999504089355,-10.152999877929688 -6.4019999504089355,-10.152999877929688"></path></g><g opacity="1" transform="matrix(1,0,0,1,212.4080047607422,80.13200378417969)"><path fill="rgb(217,28,92)" fill-opacity="1" d=" M6.788000106811523,0 C6.788000106811523,-5.034999847412109 3.749000072479248,-9.114999771118164 0,-9.114999771118164 C-3.749000072479248,-9.114999771118164 -6.788000106811523,-5.034999847412109 -6.788000106811523,0 C-6.788000106811523,5.033999919891357 -3.749000072479248,9.114999771118164 0,9.114999771118164 C3.749000072479248,9.114999771118164 6.788000106811523,5.033999919891357 6.788000106811523,0z"></path></g><g opacity="1" transform="matrix(1,0,0,1,212.4080047607422,75.5739974975586)"><path stroke-linecap="round" stroke-linejoin="round" fill-opacity="0" stroke="rgb(237,162,31)" stroke-opacity="1" stroke-width="4.324" d=" M6.788000106811523,4.558000087738037 C6.788000106811523,-0.47699999809265137 3.749000072479248,-4.558000087738037 0,-4.558000087738037 C-3.749000072479248,-4.558000087738037 -6.788000106811523,-0.47699999809265137 -6.788000106811523,4.558000087738037"></path></g><g opacity="1" transform="matrix(1,0,0,1,186.68800354003906,80.13200378417969)"><path fill="rgb(217,28,92)" fill-opacity="1" d=" M-3.3940000534057617,9.114999771118164 C0.35499998927116394,9.114999771118164 3.3940000534057617,5.034999847412109 3.3940000534057617,0.0010000000474974513 C3.3940000534057617,-5.033999919891357 0.35499998927116394,-9.114999771118164 -3.3940000534057617,-9.114999771118164 C-3.3940000534057617,-9.114999771118164 -3.3940000534057617,9.114999771118164 -3.3940000534057617,9.114999771118164z"></path></g><g opacity="1" transform="matrix(1,0,0,1,186.68800354003906,75.5739974975586)"><path stroke-linecap="round" stroke-linejoin="round" fill-opacity="0" stroke="rgb(237,162,31)" stroke-opacity="1" stroke-width="4.324" d=" M3.3940000534057617,4.558000087738037 C3.3940000534057617,-0.47699999809265137 0.35499998927116394,-4.558000087738037 -3.3940000534057617,-4.558000087738037"></path></g><g opacity="1" transform="matrix(1,0,0,1,238.12899780273438,80.13200378417969)"><path fill="rgb(217,28,92)" fill-opacity="1" d=" M3.3940000534057617,9.114999771118164 C-0.35499998927116394,9.114999771118164 -3.3940000534057617,5.034999847412109 -3.3940000534057617,0.0010000000474974513 C-3.3940000534057617,-5.033999919891357 -0.35499998927116394,-9.114999771118164 3.3940000534057617,-9.114999771118164 C3.3940000534057617,-9.114999771118164 3.3940000534057617,9.114999771118164 3.3940000534057617,9.114999771118164z"></path></g><g opacity="1" transform="matrix(1,0,0,1,238.1280059814453,75.5739974975586)"><path stroke-linecap="round" stroke-linejoin="round" fill-opacity="0" stroke="rgb(237,162,31)" stroke-opacity="1" stroke-width="4.324" d=" M-3.3940000534057617,4.558000087738037 C-3.3940000534057617,-0.47699999809265137 -0.35499998927116394,-4.558000087738037 3.3940000534057617,-4.558000087738037"></path></g><g opacity="1" transform="matrix(1,0,0,1,212.4080047607422,28.059999465942383)"><path fill="rgb(237,162,31)" fill-opacity="1" d=" M6.788000106811523,0 C6.788000106811523,-3.749000072479248 3.749000072479248,-6.788000106811523 0,-6.788000106811523 C-3.749000072479248,-6.788000106811523 -6.788000106811523,-3.749000072479248 -6.788000106811523,0 C-6.788000106811523,3.749000072479248 -3.749000072479248,6.788000106811523 0,6.788000106811523 C3.749000072479248,6.788000106811523 6.788000106811523,3.749000072479248 6.788000106811523,0z"></path></g><g opacity="1" transform="matrix(1,0,0,1,198.55099487304688,24.666000366210938)"><path stroke-linecap="round" stroke-linejoin="round" fill-opacity="0" stroke="rgb(237,162,31)" stroke-opacity="1" stroke-width="4.324" d=" M-13.857000350952148,-3.3940000534057617 C-13.857000350952148,-3.3940000534057617 13.857000350952148,3.3940000534057617 13.857000350952148,3.3940000534057617"></path></g><g opacity="1" transform="matrix(1,0,0,1,181.98500061035156,16.097999572753906)"><path fill="rgb(251,176,21)" fill-opacity="1" d=" M23.017000198364258,-15.847999572753906 C25.597999572753906,-14.37600040435791 29.052000045776367,-7.9710001945495605 25.03700065612793,-1.3350000381469727 C21.698999404907227,4.182000160217285 15.310999870300293,6.559999942779541 9.230999946594238,6.559999942779541 C9.230999946594238,6.559999942779541 12.803000450134277,9.17199993133545 17.381000518798828,9.428999900817871 C17.381000518798828,9.428999900817871 15.291999816894531,13.894000053405762 11.722000122070312,15.847999572753906 C8.225000381469727,13.496000289916992 7.271999835968018,11.015999794006348 7.271999835968018,11.015999794006348 C7.271999835968018,11.015999794006348 0.9129999876022339,15.656999588012695 -5.636000156402588,14.38599967956543 C-8.65999984741211,13.798999786376953 -12.439000129699707,11.206999778747559 -10.913999557495117,7.392000198364258 C-10.913999557495117,7.392000198364258 -14.920000076293945,9.17199993133545 -29.052000045776367,5.633999824523926 C-29.052000045776367,5.633999824523926 -20.719999313354492,2.9040000438690186 -10.675000190734863,2.9040000438690186 C-10.675000190734863,-1.1139999628067017 -8.690999984741211,-5.521999835968018 -6.21999979019165,-5.960999965667725 C-2.5450000762939453,-6.613999843597412 -0.8180000185966492,-3.1610000133514404 2.249000072479248,-1.3300000429153442 C4.336999893188477,-0.08500000089406967 5.834000110626221,1.3799999952316284 10.329000473022461,0.6769999861717224 C13.67300033569336,0.15299999713897705 20.099000930786133,-4.9730000495910645 23.017000198364258,-15.847999572753906z"></path></g><g opacity="1" transform="matrix(1,0,0,1,155.97300720214844,30.826000213623047)"><path fill="rgb(237,162,31)" fill-opacity="1" d=" M5.763000011444092,4.193999767303467 C5.763000011444092,4.193999767303467 1.1019999980926514,-9.684000015258789 1.1019999980926514,-9.684000015258789 C0.746999979019165,-10.741000175476074 -0.746999979019165,-10.741000175476074 -1.1009999513626099,-9.684000015258789 C-1.1009999513626099,-9.684000015258789 -5.763000011444092,4.193999767303467 -5.763000011444092,4.193999767303467 C-6.1579999923706055,4.790999889373779 -6.418000221252441,5.439000129699707 -6.418000221252441,6.14300012588501 C-6.418000221252441,8.682999610900879 -3.5450000762939453,10.741000175476074 0,10.741000175476074 C3.5439999103546143,10.741000175476074 6.418000221252441,8.682999610900879 6.418000221252441,6.14300012588501 C6.418000221252441,5.439000129699707 6.158999919891357,4.790999889373779 5.763000011444092,4.193999767303467z"></path></g><g opacity="1" transform="matrix(1,0,0,1,226.26499938964844,24.666000366210938)"><path stroke-linecap="round" stroke-linejoin="round" fill-opacity="0" stroke="rgb(237,162,31)" stroke-opacity="1" stroke-width="4.324" d=" M13.857000350952148,-3.3940000534057617 C13.857000350952148,-3.3940000534057617 -13.857000350952148,3.3940000534057617 -13.857000350952148,3.3940000534057617"></path></g><g opacity="1" transform="matrix(1,0,0,1,242.83200073242188,16.097999572753906)"><path fill="rgb(251,176,21)" fill-opacity="1" d=" M-23.016000747680664,-15.847999572753906 C-25.597000122070312,-14.37600040435791 -29.052000045776367,-7.9710001945495605 -25.038000106811523,-1.3350000381469727 C-21.698999404907227,4.182000160217285 -15.310999870300293,6.559999942779541 -9.230999946594238,6.559999942779541 C-9.230999946594238,6.559999942779541 -12.803999900817871,9.17199993133545 -17.381000518798828,9.428999900817871 C-17.381000518798828,9.428999900817871 -15.291000366210938,13.894000053405762 -11.722000122070312,15.847999572753906 C-8.225000381469727,13.496000289916992 -7.271999835968018,11.015999794006348 -7.271999835968018,11.015999794006348 C-7.271999835968018,11.015999794006348 -0.9129999876022339,15.656999588012695 5.635000228881836,14.38599967956543 C8.65999984741211,13.798999786376953 12.439000129699707,11.206999778747559 10.913000106811523,7.392000198364258 C10.913000106811523,7.392000198364258 14.920000076293945,9.17199993133545 29.052000045776367,5.633999824523926 C29.052000045776367,5.633999824523926 20.719999313354492,2.9040000438690186 10.675999641418457,2.9040000438690186 C10.675999641418457,-1.1139999628067017 8.6899995803833,-5.521999835968018 6.21999979019165,-5.960999965667725 C2.5450000762939453,-6.613999843597412 0.8180000185966492,-3.1610000133514404 -2.25,-1.3300000429153442 C-4.336999893188477,-0.08500000089406967 -5.834000110626221,1.3799999952316284 -10.32800006866455,0.6769999861717224 C-13.67199993133545,0.15299999713897705 -20.099000930786133,-4.9730000495910645 -23.016000747680664,-15.847999572753906z"></path></g><g opacity="1" transform="matrix(1,0,0,1,268.843994140625,30.826000213623047)"><path fill="rgb(237,162,31)" fill-opacity="1" d=" M-5.763999938964844,4.193999767303467 C-5.763999938964844,4.193999767303467 -1.1030000448226929,-9.684000015258789 -1.1030000448226929,-9.684000015258789 C-0.746999979019165,-10.741000175476074 0.7459999918937683,-10.741000175476074 1.1009999513626099,-9.684000015258789 C1.1009999513626099,-9.684000015258789 5.76200008392334,4.193999767303467 5.76200008392334,4.193999767303467 C6.1570000648498535,4.790999889373779 6.418000221252441,5.439000129699707 6.418000221252441,6.14300012588501 C6.418000221252441,8.682999610900879 3.5439999103546143,10.741000175476074 0,10.741000175476074 C-3.5450000762939453,10.741000175476074 -6.418000221252441,8.682999610900879 -6.418000221252441,6.14300012588501 C-6.418000221252441,5.439000129699707 -6.158999919891357,4.790999889373779 -5.763999938964844,4.193999767303467z"></path></g></g><g transform="matrix(0.3330000042915344,0,0,0.3330000042915344,1.1652345657348633,0.3481962978839874)" opacity="1" style="display: block;"><g opacity="1" transform="matrix(1,0,0,1,130.51100158691406,176.86700439453125)"><path fill="rgb(17,128,195)" fill-opacity="1" d=" M-63.742000579833984,13.456999778747559 C-63.742000579833984,13.456999778747559 63.742000579833984,-23.402000427246094 63.742000579833984,-23.402000427246094 C63.742000579833984,-23.402000427246094 63.742000579833984,-13.458000183105469 63.742000579833984,-13.458000183105469 C63.742000579833984,-13.458000183105469 -63.742000579833984,23.402000427246094 -63.742000579833984,23.402000427246094 C-63.742000579833984,23.402000427246094 -63.742000579833984,13.456999778747559 -63.742000579833984,13.456999778747559z"></path></g></g><g transform="matrix(0.3330000042915344,0,0,0.3330000042915344,1.1652345657348633,0.3481962978839874)" opacity="1" style="display: block;"><g opacity="1" transform="matrix(1,0,0,1,78.61399841308594,181.96299743652344)"><path fill="rgb(141,124,142)" fill-opacity="1" d=" M20.527999877929688,-11.35099983215332 C20.527999877929688,-11.35099983215332 -20.527999877929688,-11.35099983215332 -20.527999877929688,-11.35099983215332 C-20.527999877929688,-11.35099983215332 -20.527999877929688,11.35099983215332 -20.527999877929688,11.35099983215332 C-20.527999877929688,11.35099983215332 1.309000015258789,11.35099983215332 1.309000015258789,11.35099983215332 C1.309000015258789,11.35099983215332 20.527999877929688,-8.418000221252441 20.527999877929688,-8.418000221252441 C20.527999877929688,-8.418000221252441 20.527999877929688,-11.35099983215332 20.527999877929688,-11.35099983215332z"></path></g><g opacity="1" transform="matrix(1,0,0,1,27.628999710083008,158.01300048828125)"><path fill="rgb(217,28,92)" fill-opacity="1" d=" M-6.380000114440918,6.540999889373779 C-7.986000061035156,1.1779999732971191 -3.23799991607666,-3.86899995803833 1.3930000066757202,-5.697000026702881 C2.9489998817443848,-6.311999797821045 4.7179999351501465,-6.540999889373779 6.296999931335449,-5.988999843597412 C6.984000205993652,-5.75 7.986000061035156,-5.072000026702881 7.534999847412109,-4.218999862670898 C7.385000228881836,-3.936000108718872 7.131999969482422,-3.7239999771118164 6.885000228881836,-3.5199999809265137 C5.789999961853027,-2.615000009536743 3.634000062942505,-1.7580000162124634 3.194000005722046,-0.28600001335144043 C2.9000000953674316,0.699999988079071 3.486999988555908,2.98799991607666 4.289000034332275,3.5980000495910645"></path></g><g opacity="1" transform="matrix(1,0,0,1,27.26799964904785,163.7010040283203)"><path fill="rgb(217,28,92)" fill-opacity="1" d=" M-5.998000144958496,6.25600004196167 C-5.998000144958496,6.25600004196167 -7.553999900817871,4.8979997634887695 -8.640000343322754,2.9579999446868896 C-9.244000434875488,1.8769999742507935 -8.90999984741211,0.5130000114440918 -7.889999866485596,-0.18700000643730164 C-5.394000053405762,-1.899999976158142 -0.04899999871850014,-5.008999824523926 7.24399995803833,-6.184000015258789 C7.695000171661377,-6.256999969482422 8.125,-5.955999851226807 8.223999977111816,-5.510000228881836 C8.223999977111816,-5.510000228881836 9.244000434875488,-0.8820000290870667 9.244000434875488,-0.8820000290870667 C9.244000434875488,-0.8820000290870667 -0.34299999475479126,1.4049999713897705 -5.998000144958496,6.25600004196167z"></path></g><g opacity="1" transform="matrix(1,0,0,1,21.854000091552734,181.58099365234375)"><path fill="rgb(175,154,166)" fill-opacity="1" d=" M19.569000244140625,11.039999961853027 C18.091999053955078,13.12600040435791 12.48900032043457,16.292999267578125 6.789000034332275,15.564000129699707 C5.616000175476074,15.414999961853027 4.284999847412109,15.401000022888184 3.365000009536743,16.143999099731445 C2.380000114440918,16.94099998474121 1.1920000314712524,18.06100082397461 0.43799999356269836,16.150999069213867 C-0.07900000363588333,14.84000015258789 1.2660000324249268,13.918999671936035 1.6490000486373901,12.760000228881836 C1.8380000591278076,12.189000129699707 1.781000018119812,11.480999946594238 1.3209999799728394,11.093999862670898 C0.6290000081062317,11.958000183105469 -0.24300000071525574,12.678000450134277 -1.2200000286102295,13.194999694824219 C-2.500999927520752,13.87399959564209 -3.6740000247955322,14.414999961853027 -5.125999927520752,14.680999755859375 C-6.99399995803833,15.02299976348877 -8.930999755859375,15.031999588012695 -10.802000045776367,14.711000442504883 C-14.388999938964844,14.095999717712402 -17.871999740600586,12.182999610900879 -19.613000869750977,8.876999855041504 C-21.091999053955078,6.066999912261963 -21.604999542236328,2.2279999256134033 -19.82900047302246,-0.5740000009536743 C-18.854000091552734,-2.114000082015991 -15.463000297546387,-3.062999963760376 -15.02400016784668,-0.625 C-14.718000411987305,1.0700000524520874 -16.243000030517578,0.22699999809265137 -16.982999801635742,1.1770000457763672 C-17.44099998474121,1.7649999856948853 -17.354999542236328,2.8889999389648438 -17.187000274658203,3.553999900817871 C-16.7810001373291,5.165999889373779 -15.35099983215332,6.48799991607666 -13.788000106811523,6.9710001945495605 C-11.121000289916992,7.794000148773193 -8.710000038146973,7.681000232696533 -6.6529998779296875,5.631999969482422 C-5.410999774932861,4.396999835968018 -4.427999973297119,2.9179999828338623 -4.473999977111816,1.1670000553131104 C-4.531000137329102,-0.9959999918937683 -5.0960001945495605,-3.259000062942505 -4.553999900817871,-5.400000095367432 C-3.9040000438690186,-7.9679999351501465 -2.8910000324249268,-10.737000465393066 -0.718999981880188,-12.413999557495117 C1.9579999446868896,-14.480999946594238 5.197999954223633,-15.854000091552734 8.375,-16.945999145507812 C10.586999893188477,-17.707000732421875 12.45199966430664,-18.059999465942383 14.769000053405762,-17.75 C17.08799934387207,-17.43899917602539 19.332000732421875,-16.742000579833984 21.604000091552734,-16.190000534057617"></path></g><g opacity="1" transform="matrix(1,0,0,1,72.83799743652344,183.96099853515625)"><path fill="rgb(175,154,166)" fill-opacity="1" d=" M-21.06800079345703,-21.927000045776367 C-21.06800079345703,-21.927000045776367 -12.329999923706055,-21.927000045776367 -12.329999923706055,-21.927000045776367 C-12.111000061035156,-21.927000045776367 -11.932999610900879,-21.75 -11.932999610900879,-21.5310001373291 C-11.932999610900879,-18.915000915527344 -9.793999671936035,-16.775999069213867 -7.177999973297119,-16.775999069213867 C-6.508999824523926,-16.775999069213867 -5.966000080108643,-16.232999801635742 -5.966000080108643,-15.564000129699707 C-5.966000080108643,-15.564000129699707 -5.966000080108643,-3.3970000743865967 -5.966000080108643,-3.3970000743865967 C-5.966000080108643,0.6480000019073486 -2.6579999923706055,3.9570000171661377 1.3869999647140503,3.9570000171661377 C5.432000160217285,3.9570000171661377 8.741000175476074,0.6480000019073486 8.741000175476074,-3.3970000743865967 C8.741000175476074,-3.3970000743865967 8.741000175476074,-15.564000129699707 8.741000175476074,-15.564000129699707 C8.741000175476074,-16.232999801635742 9.284000396728516,-16.775999069213867 9.95300006866455,-16.775999069213867 C9.95300006866455,-16.775999069213867 21.57699966430664,-16.775999069213867 21.57699966430664,-16.775999069213867 C24.06999969482422,-16.775999069213867 26.125999450683594,-18.722000122070312 26.312999725341797,-21.17099952697754 C34.09700012207031,-18.886999130249023 39.82500076293945,-11.666999816894531 39.82500076293945,-3.1710000038146973 C39.82500076293945,-3.1710000038146973 39.82500076293945,3.1700000762939453 39.82500076293945,3.1700000762939453 C39.82500076293945,13.486000061035156 31.384000778198242,21.927000045776367 21.069000244140625,21.927000045776367 C21.069000244140625,21.927000045776367 -21.06800079345703,21.927000045776367 -21.06800079345703,21.927000045776367 C-31.384000778198242,21.927000045776367 -39.82500076293945,13.486000061035156 -39.82500076293945,3.1700000762939453 C-39.82500076293945,3.1700000762939453 -39.82500076293945,-3.1710000038146973 -39.82500076293945,-3.1710000038146973 C-39.82500076293945,-13.487000465393066 -31.384000778198242,-21.927000045776367 -21.06800079345703,-21.927000045776367z"></path></g><g opacity="1" transform="matrix(1,0,0,1,74.83300018310547,207.26800537109375)"><path fill="rgb(175,154,166)" fill-opacity="1" d=" M-20.590999603271484,-2.25 C-14.298999786376953,0.9470000267028809 -7.140999794006348,2.25 -0.08500000089406967,2.0789999961853027 C6.9710001945495605,1.906999945640564 13.937000274658203,0.30399999022483826 20.590999603271484,-2.049999952316284"></path></g><g opacity="1" transform="matrix(1,0,0,1,105.00599670410156,202.47999572753906)"><path fill="rgb(175,154,166)" fill-opacity="1" d=" M-16.322999954223633,4.046999931335449 C-12.545999526977539,3.5869998931884766 -11.022000312805176,6.567999839782715 -7.960999965667725,7.88100004196167 C-5.190999984741211,9.069000244140625 -1.8990000486373901,9.166000366210938 0.9750000238418579,8.555999755859375 C3.0490000247955322,8.116999626159668 4.808000087738037,6.5970001220703125 6.938000202178955,6.373000144958496 C8.055999755859375,6.255000114440918 8.340999603271484,6.625 9.206000328063965,7.076000213623047 C11.940999984741211,8.505000114440918 16.322999954223633,8.133000373840332 15.987000465393066,4.216000080108643 C15.72700023651123,1.190999984741211 13.45199966430664,-1.7400000095367432 10.86400032043457,-3.186000108718872 C9.265999794006348,-4.078999996185303 8.366000175476074,-4.001999855041504 6.910999774932861,-3.2260000705718994 C4.577000141143799,-1.9819999933242798 4.068999767303467,-8.0600004196167 3.128000020980835,-9.166000366210938"></path></g><g opacity="1" transform="matrix(1,0,0,1,48.395999908447266,204.2969970703125)"><path fill="rgb(175,154,166)" fill-opacity="1" d=" M16.552000045776367,0.328000009059906 C14.805999755859375,0.04100000113248825 13.069000244140625,0.9089999794960022 11.668999671936035,1.9930000305175781 C10.270000457763672,3.0769999027252197 9.550999641418457,5.136000156402588 8.020000457763672,6.02400016784668 C4.686999797821045,7.956999778747559 1.6119999885559082,6.939000129699707 -1.7259999513626099,5.776000022888184 C-3.115999937057495,5.290999889373779 -4.461999893188477,5.085000038146973 -5.631999969482422,5.986999988555908 C-6.508999824523926,6.6620001792907715 -6.695000171661377,7.210000038146973 -7.9629998207092285,6.978000164031982 C-9.791999816894531,6.644000053405762 -11.586000442504883,4.953999996185303 -12.777999877929688,3.611999988555908 C-13.755999565124512,2.51200008392334 -16.552000045776367,-1.6009999513626099 -14.35200023651123,-2.7709999084472656 C-13.46500015258789,-3.242000102996826 -11.64900016784668,-2.6579999923706055 -10.744999885559082,-2.381999969482422 C-11.317000389099121,-2.556999921798706 -9.208999633789062,-4.874000072479248 -9.064000129699707,-4.96999979019165 C-6.6570000648498535,-6.577000141143799 -3.7750000953674316,-5.543000221252441 -1.2319999933242798,-4.806000232696533 C-0.9269999861717224,-4.7179999351501465 -0.5699999928474426,-4.638000011444092 -0.3100000023841858,-4.822000026702881 C-0.13500000536441803,-4.945000171661377 -0.050999999046325684,-5.160999774932861 -0.013000000268220901,-5.372000217437744 C0.07000000029802322,-5.849999904632568 -0.052000001072883606,-6.340000152587891 -0.02800000086426735,-6.823999881744385 C-0.004999999888241291,-7.309000015258789 0.23800000548362732,-7.853000164031982 0.7110000252723694,-7.956999778747559"></path></g><g opacity="1" transform="matrix(1,0,0,1,115.65299987792969,187.0679931640625)"><path stroke-linecap="round" stroke-linejoin="round" fill-opacity="0" stroke="rgb(175,154,166)" stroke-opacity="1" stroke-width="3.5" d=" M5.169000148773193,0.6700000166893005 C3.5299999713897705,-0.35600000619888306 1.4630000591278076,-0.6700000166893005 -0.4050000011920929,-0.17499999701976776 C-1.2319999933242798,0.04500000178813934 -2.0209999084472656,0.4129999876022339 -2.868000030517578,0.5270000100135803 C-3.7160000801086426,0.640999972820282 -4.684999942779541,0.4320000112056732 -5.169000148773193,-0.2720000147819519"></path></g><g opacity="1" transform="matrix(1,0,0,1,43.77799987792969,163.30799865722656)"><path fill="rgb(141,124,142)" fill-opacity="1" d=" M-13.583000183105469,8.651000022888184 C-13.140999794006348,8.086000442504883 -12.54699993133545,7.406000137329102 -12.579000473022461,6.367000102996826 C-12.604999542236328,5.554999828338623 -13.590999603271484,4.314000129699707 -14.131999969482422,3.752000093460083 C-14.57800006866455,3.2869999408721924 -15.086999893188477,2.875 -15.406000137329102,2.2990000247955322 C-17.44499969482422,-1.3630000352859497 -13.095999717712402,-3.5369999408721924 -10.53499984741211,-4.492000102996826 C-6.110000133514404,-6.139999866485596 -1.9739999771118164,-6.723999977111816 2.696000099182129,-6.876999855041504 C5.390999794006348,-6.966000080108643 7.9670000076293945,-7.994999885559082 10.631999969482422,-8.348999977111816 C12.005000114440918,-8.531000137329102 13.520000457763672,-8.652000427246094 14.83899974822998,-8.098999977111816 C15.72599983215332,-7.7270002365112305 17.44499969482422,-6.791999816894531 17.075000762939453,-5.434999942779541 C16.944000244140625,-4.952000141143799 16.586000442504883,-4.585999965667725 16.229999542236328,-4.26200008392334 C14.977999687194824,-3.119999885559082 13.935999870300293,-1.8209999799728394 12.789999961853027,-0.5550000071525574 C11.604999542236328,0.7549999952316284 8.791000366210938,6.129000186920166 8.520000457763672,7.940000057220459 C8.520000457763672,7.940000057220459 -13.583000183105469,8.651000022888184 -13.583000183105469,8.651000022888184z"></path></g><g opacity="1" transform="matrix(1,0,0,1,19.375999450683594,180.76100158691406)"><path fill="rgb(252,234,221)" fill-opacity="1" d=" M-1.1549999713897705,-0.0010000000474974513 C-1.1549999713897705,-1.4429999589920044 -0.6370000243186951,-2.611999988555908 0,-2.611999988555908 C0.6389999985694885,-2.611999988555908 1.1549999713897705,-1.4429999589920044 1.1549999713897705,-0.0010000000474974513 C1.1549999713897705,1.440999984741211 0.6389999985694885,2.611999988555908 0,2.611999988555908 C-0.6370000243186951,2.611999988555908 -1.1549999713897705,1.440999984741211 -1.1549999713897705,-0.0010000000474974513z"></path></g><g opacity="1" transform="matrix(1,0,0,1,53.54800033569336,175.07000732421875)"><path fill="rgb(252,234,221)" fill-opacity="1" d=" M-3.928999900817871,16.885000228881836 C-1.9919999837875366,16.885000228881836 -0.42399999499320984,15.319000244140625 -0.42399999499320984,13.381999969482422 C-0.42399999499320984,-3.3519999980926514 6.060999870300293,-10.555999755859375 6.130000114440918,-10.628000259399414 C7.433000087738037,-12.036999702453613 7.370999813079834,-14.25100040435791 5.978000164031982,-15.571000099182129 C4.585000038146973,-16.885000228881836 2.3940000534057617,-16.861000061035156 1.059000015258789,-15.468000411987305 C0.7110000252723694,-15.105999946594238 -7.434000015258789,-6.428999900817871 -7.434000015258789,13.381999969482422 C-7.434000015258789,15.319000244140625 -5.866000175476074,16.885000228881836 -3.928999900817871,16.885000228881836z"></path></g></g><g transform="matrix(0.3330000042915344,0,0,0.3330000042915344,1.1652345657348633,0.3481962978839874)" opacity="1" style="display: block;"><g opacity="1" transform="matrix(1,0,0,1,294.30499267578125,176.86700439453125)"><path fill="rgb(17,128,195)" fill-opacity="1" d=" M63.74300003051758,13.456999778747559 C63.74300003051758,13.456999778747559 -63.74300003051758,-23.402000427246094 -63.74300003051758,-23.402000427246094 C-63.74300003051758,-23.402000427246094 -63.74300003051758,-13.458000183105469 -63.74300003051758,-13.458000183105469 C-63.74300003051758,-13.458000183105469 63.74300003051758,23.402000427246094 63.74300003051758,23.402000427246094 C63.74300003051758,23.402000427246094 63.74300003051758,13.456999778747559 63.74300003051758,13.456999778747559z"></path></g></g><g transform="matrix(0.3330000042915344,0,0,0.3330000042915344,1.1652345657348633,0.3481962978839874)" opacity="1" style="display: block;"><g opacity="1" transform="matrix(1,0,0,1,381.5220031738281,181.96299743652344)"><path fill="rgb(141,124,142)" fill-opacity="1" d=" M20.527999877929688,-11.35099983215332 C20.527999877929688,-11.35099983215332 -20.527999877929688,-11.35099983215332 -20.527999877929688,-11.35099983215332 C-20.527999877929688,-11.35099983215332 -20.527999877929688,11.35099983215332 -20.527999877929688,11.35099983215332 C-20.527999877929688,11.35099983215332 1.309999942779541,11.35099983215332 1.309999942779541,11.35099983215332 C1.309999942779541,11.35099983215332 20.527999877929688,-8.418000221252441 20.527999877929688,-8.418000221252441 C20.527999877929688,-8.418000221252441 20.527999877929688,-11.35099983215332 20.527999877929688,-11.35099983215332z"></path></g><g opacity="1" transform="matrix(1,0,0,1,330.5379943847656,158.01300048828125)"><path fill="rgb(17,128,195)" fill-opacity="1" d=" M-6.38100004196167,6.540999889373779 C-7.986999988555908,1.1779999732971191 -3.239000082015991,-3.86899995803833 1.3919999599456787,-5.697000026702881 C2.947999954223633,-6.311999797821045 4.7170000076293945,-6.540999889373779 6.296999931335449,-5.988999843597412 C6.984000205993652,-5.75 7.986999988555908,-5.072000026702881 7.534999847412109,-4.218999862670898 C7.385000228881836,-3.936000108718872 7.13100004196167,-3.7239999771118164 6.883999824523926,-3.5199999809265137 C5.789999961853027,-2.615000009536743 3.632999897003174,-1.7580000162124634 3.194000005722046,-0.28600001335144043 C2.8989999294281006,0.699999988079071 3.4860000610351562,2.98799991607666 4.288000106811523,3.5980000495910645"></path></g><g opacity="1" transform="matrix(1,0,0,1,330.177001953125,163.7010040283203)"><path fill="rgb(17,128,195)" fill-opacity="1" d=" M-5.998000144958496,6.25600004196167 C-5.998000144958496,6.25600004196167 -7.553999900817871,4.8979997634887695 -8.640000343322754,2.9579999446868896 C-9.244000434875488,1.8769999742507935 -8.90999984741211,0.5130000114440918 -7.888999938964844,-0.18700000643730164 C-5.394000053405762,-1.899999976158142 -0.04899999871850014,-5.008999824523926 7.24399995803833,-6.184000015258789 C7.695000171661377,-6.256999969482422 8.125,-5.955999851226807 8.223999977111816,-5.510000228881836 C8.223999977111816,-5.510000228881836 9.244000434875488,-0.8820000290870667 9.244000434875488,-0.8820000290870667 C9.244000434875488,-0.8820000290870667 -0.34299999475479126,1.4049999713897705 -5.998000144958496,6.25600004196167z"></path></g><g opacity="1" transform="matrix(1,0,0,1,324.7619934082031,181.58099365234375)"><path fill="rgb(175,154,166)" fill-opacity="1" d=" M19.569000244140625,11.039999961853027 C18.091999053955078,13.12600040435791 12.48900032043457,16.292999267578125 6.789000034332275,15.564000129699707 C5.616000175476074,15.414999961853027 4.285999774932861,15.401000022888184 3.365999937057495,16.143999099731445 C2.380000114440918,16.94099998474121 1.1920000314712524,18.06100082397461 0.43799999356269836,16.150999069213867 C-0.07900000363588333,14.84000015258789 1.2660000324249268,13.918999671936035 1.6490000486373901,12.760000228881836 C1.8389999866485596,12.189000129699707 1.781000018119812,11.480999946594238 1.3209999799728394,11.093999862670898 C0.6290000081062317,11.958000183105469 -0.24199999868869781,12.678000450134277 -1.2200000286102295,13.194999694824219 C-2.500999927520752,13.87399959564209 -3.6740000247955322,14.414999961853027 -5.125999927520752,14.680999755859375 C-6.99399995803833,15.02299976348877 -8.930999755859375,15.031999588012695 -10.802000045776367,14.711000442504883 C-14.388999938964844,14.095999717712402 -17.871999740600586,12.182999610900879 -19.613000869750977,8.876999855041504 C-21.091999053955078,6.066999912261963 -21.604999542236328,2.2279999256134033 -19.82900047302246,-0.5740000009536743 C-18.854000091552734,-2.114000082015991 -15.461999893188477,-3.062999963760376 -15.02299976348877,-0.625 C-14.718000411987305,1.0700000524520874 -16.243000030517578,0.22699999809265137 -16.982999801635742,1.1770000457763672 C-17.44099998474121,1.7649999856948853 -17.354999542236328,2.8889999389648438 -17.187000274658203,3.553999900817871 C-16.7810001373291,5.165999889373779 -15.350000381469727,6.48799991607666 -13.788000106811523,6.9710001945495605 C-11.121000289916992,7.794000148773193 -8.710000038146973,7.681000232696533 -6.6529998779296875,5.631999969482422 C-5.410999774932861,4.396999835968018 -4.427999973297119,2.9179999828338623 -4.473999977111816,1.1670000553131104 C-4.531000137329102,-0.9959999918937683 -5.09499979019165,-3.259000062942505 -4.552999973297119,-5.400000095367432 C-3.9040000438690186,-7.9679999351501465 -2.890000104904175,-10.737000465393066 -0.718999981880188,-12.413999557495117 C1.9579999446868896,-14.480999946594238 5.197000026702881,-15.854000091552734 8.375,-16.945999145507812 C10.586000442504883,-17.707000732421875 12.45199966430664,-18.059999465942383 14.769000053405762,-17.75 C17.08799934387207,-17.43899917602539 19.332000732421875,-16.742000579833984 21.604000091552734,-16.190000534057617"></path></g><g opacity="1" transform="matrix(1,0,0,1,375.74700927734375,183.96099853515625)"><path fill="rgb(175,154,166)" fill-opacity="1" d=" M-21.06800079345703,-21.927000045776367 C-21.06800079345703,-21.927000045776367 -12.329999923706055,-21.927000045776367 -12.329999923706055,-21.927000045776367 C-12.109999656677246,-21.927000045776367 -11.932999610900879,-21.75 -11.932999610900879,-21.5310001373291 C-11.932999610900879,-18.915000915527344 -9.793999671936035,-16.775999069213867 -7.177999973297119,-16.775999069213867 C-6.507999897003174,-16.775999069213867 -5.9670000076293945,-16.232999801635742 -5.9670000076293945,-15.564000129699707 C-5.9670000076293945,-15.564000129699707 -5.9670000076293945,-3.3970000743865967 -5.9670000076293945,-3.3970000743865967 C-5.9670000076293945,0.6480000019073486 -2.6579999923706055,3.9570000171661377 1.3860000371932983,3.9570000171661377 C5.431000232696533,3.9570000171661377 8.741000175476074,0.6480000019073486 8.741000175476074,-3.3970000743865967 C8.741000175476074,-3.3970000743865967 8.741000175476074,-15.564000129699707 8.741000175476074,-15.564000129699707 C8.741000175476074,-16.232999801635742 9.284000396728516,-16.775999069213867 9.95300006866455,-16.775999069213867 C9.95300006866455,-16.775999069213867 21.576000213623047,-16.775999069213867 21.576000213623047,-16.775999069213867 C24.069000244140625,-16.775999069213867 26.12700080871582,-18.722000122070312 26.312999725341797,-21.17099952697754 C34.09700012207031,-18.886999130249023 39.82400131225586,-11.666999816894531 39.82400131225586,-3.1710000038146973 C39.82400131225586,-3.1710000038146973 39.82400131225586,3.1700000762939453 39.82400131225586,3.1700000762939453 C39.82400131225586,13.486000061035156 31.384000778198242,21.927000045776367 21.069000244140625,21.927000045776367 C21.069000244140625,21.927000045776367 -21.06800079345703,21.927000045776367 -21.06800079345703,21.927000045776367 C-31.382999420166016,21.927000045776367 -39.82400131225586,13.486000061035156 -39.82400131225586,3.1700000762939453 C-39.82400131225586,3.1700000762939453 -39.82400131225586,-3.1710000038146973 -39.82400131225586,-3.1710000038146973 C-39.82400131225586,-13.487000465393066 -31.382999420166016,-21.927000045776367 -21.06800079345703,-21.927000045776367z"></path></g><g opacity="1" transform="matrix(1,0,0,1,377.7409973144531,207.26800537109375)"><path fill="rgb(175,154,166)" fill-opacity="1" d=" M-20.590999603271484,-2.25 C-14.298999786376953,0.9470000267028809 -7.140999794006348,2.25 -0.08500000089406967,2.0789999961853027 C6.9710001945495605,1.906999945640564 13.937000274658203,0.30399999022483826 20.590999603271484,-2.049999952316284"></path></g><g opacity="1" transform="matrix(1,0,0,1,407.91400146484375,202.47999572753906)"><path fill="rgb(175,154,166)" fill-opacity="1" d=" M-16.322999954223633,4.046999931335449 C-12.545000076293945,3.5869998931884766 -11.022000312805176,6.567999839782715 -7.960999965667725,7.88100004196167 C-5.190999984741211,9.069000244140625 -1.8980000019073486,9.166000366210938 0.9750000238418579,8.555999755859375 C3.0490000247955322,8.116999626159668 4.808000087738037,6.5970001220703125 6.938000202178955,6.373000144958496 C8.055999755859375,6.255000114440918 8.340999603271484,6.625 9.206000328063965,7.076000213623047 C11.940999984741211,8.505000114440918 16.322999954223633,8.133000373840332 15.98799991607666,4.216000080108643 C15.72700023651123,1.190999984741211 13.45199966430664,-1.7400000095367432 10.86400032043457,-3.186000108718872 C9.265999794006348,-4.078999996185303 8.366000175476074,-4.001999855041504 6.910999774932861,-3.2260000705718994 C4.577000141143799,-1.9819999933242798 4.068999767303467,-8.0600004196167 3.128000020980835,-9.166000366210938"></path></g><g opacity="1" transform="matrix(1,0,0,1,351.30499267578125,204.2969970703125)"><path fill="rgb(175,154,166)" fill-opacity="1" d=" M16.552000045776367,0.328000009059906 C14.805999755859375,0.04100000113248825 13.069000244140625,0.9089999794960022 11.668999671936035,1.9930000305175781 C10.270000457763672,3.0769999027252197 9.550999641418457,5.136000156402588 8.020000457763672,6.02400016784668 C4.686999797821045,7.956999778747559 1.6119999885559082,6.939000129699707 -1.7259999513626099,5.776000022888184 C-3.115999937057495,5.290999889373779 -4.461999893188477,5.085000038146973 -5.631999969482422,5.986999988555908 C-6.508999824523926,6.6620001792907715 -6.695000171661377,7.210000038146973 -7.9629998207092285,6.978000164031982 C-9.791999816894531,6.644000053405762 -11.586000442504883,4.953999996185303 -12.777999877929688,3.611999988555908 C-13.755999565124512,2.51200008392334 -16.552000045776367,-1.6009999513626099 -14.35099983215332,-2.7709999084472656 C-13.46399974822998,-3.242000102996826 -11.64900016784668,-2.6579999923706055 -10.744999885559082,-2.381999969482422 C-11.317000389099121,-2.556999921798706 -9.208000183105469,-4.874000072479248 -9.064000129699707,-4.96999979019165 C-6.6570000648498535,-6.577000141143799 -3.7739999294281006,-5.543000221252441 -1.2319999933242798,-4.806000232696533 C-0.9269999861717224,-4.7179999351501465 -0.5699999928474426,-4.638000011444092 -0.3100000023841858,-4.822000026702881 C-0.13500000536441803,-4.945000171661377 -0.050999999046325684,-5.160999774932861 -0.013000000268220901,-5.372000217437744 C0.07000000029802322,-5.849999904632568 -0.050999999046325684,-6.340000152587891 -0.02800000086426735,-6.823999881744385 C-0.004999999888241291,-7.309000015258789 0.23800000548362732,-7.853000164031982 0.7110000252723694,-7.956999778747559"></path></g><g opacity="1" transform="matrix(1,0,0,1,418.5610046386719,187.0679931640625)"><path stroke-linecap="round" stroke-linejoin="round" fill-opacity="0" stroke="rgb(175,154,166)" stroke-opacity="1" stroke-width="3.5" d=" M5.169000148773193,0.6700000166893005 C3.5309998989105225,-0.35600000619888306 1.4630000591278076,-0.6700000166893005 -0.4050000011920929,-0.17499999701976776 C-1.2309999465942383,0.04500000178813934 -2.0209999084472656,0.4129999876022339 -2.868000030517578,0.5270000100135803 C-3.7160000801086426,0.640999972820282 -4.684000015258789,0.4320000112056732 -5.169000148773193,-0.2720000147819519"></path></g><g opacity="1" transform="matrix(1,0,0,1,346.6860046386719,163.30799865722656)"><path fill="rgb(141,124,142)" fill-opacity="1" d=" M-13.583999633789062,8.651000022888184 C-13.142000198364258,8.086000442504883 -12.54699993133545,7.406000137329102 -12.579999923706055,6.367000102996826 C-12.605999946594238,5.554999828338623 -13.590999603271484,4.314000129699707 -14.131999969482422,3.752000093460083 C-14.57800006866455,3.2869999408721924 -15.086999893188477,2.875 -15.406999588012695,2.2990000247955322 C-17.445999145507812,-1.3630000352859497 -13.097000122070312,-3.5369999408721924 -10.53499984741211,-4.492000102996826 C-6.111000061035156,-6.139999866485596 -1.975000023841858,-6.723999977111816 2.694999933242798,-6.876999855041504 C5.389999866485596,-6.966000080108643 7.966000080108643,-7.994999885559082 10.630999565124512,-8.348999977111816 C12.003999710083008,-8.531000137329102 13.519000053405762,-8.652000427246094 14.838000297546387,-8.098999977111816 C15.725000381469727,-7.7270002365112305 17.445999145507812,-6.791999816894531 17.076000213623047,-5.434999942779541 C16.944000244140625,-4.952000141143799 16.586000442504883,-4.585999965667725 16.229999542236328,-4.26200008392334 C14.977999687194824,-3.119999885559082 13.935999870300293,-1.8209999799728394 12.791000366210938,-0.5550000071525574 C11.604999542236328,0.7549999952316284 8.791999816894531,6.129000186920166 8.520000457763672,7.940000057220459 C8.520000457763672,7.940000057220459 -13.583999633789062,8.651000022888184 -13.583999633789062,8.651000022888184z"></path></g><g opacity="1" transform="matrix(1,0,0,1,322.2850036621094,180.76100158691406)"><path fill="rgb(252,234,221)" fill-opacity="1" d=" M-1.156000018119812,-0.0010000000474974513 C-1.156000018119812,-1.4429999589920044 -0.6380000114440918,-2.611999988555908 -0.0010000000474974513,-2.611999988555908 C0.6380000114440918,-2.611999988555908 1.156000018119812,-1.4429999589920044 1.156000018119812,-0.0010000000474974513 C1.156000018119812,1.440999984741211 0.6380000114440918,2.611999988555908 -0.0010000000474974513,2.611999988555908 C-0.6380000114440918,2.611999988555908 -1.156000018119812,1.440999984741211 -1.156000018119812,-0.0010000000474974513z"></path></g><g opacity="1" transform="matrix(1,0,0,1,356.489013671875,175.0679931640625)"><path fill="rgb(252,234,221)" fill-opacity="1" d=" M-3.928999900817871,16.88800048828125 C-1.9919999837875366,16.88800048828125 -0.42500001192092896,15.321000099182129 -0.42500001192092896,13.383999824523926 C-0.42500001192092896,-3.3499999046325684 6.064000129699707,-10.553999900817871 6.13100004196167,-10.62600040435791 C7.434000015258789,-12.03499984741211 7.374000072479248,-14.24899959564209 5.973999977111816,-15.569000244140625 C4.581999778747559,-16.88800048828125 2.3910000324249268,-16.847999572753906 1.0579999685287476,-15.465999603271484 C0.7099999785423279,-15.104000091552734 -7.434000015258789,-6.427000045776367 -7.434000015258789,13.383999824523926 C-7.434000015258789,15.321000099182129 -5.866000175476074,16.88800048828125 -3.928999900817871,16.88800048828125z"></path></g></g></g></svg>