<svg xmlns="http://www.w3.org/2000/svg" viewBox="0 0 36 28" width="36" height="28" preserveAspectRatio="xMidYMid meet" style="width: 100%; height: 100%; transform: translate3d(0px, 0px, 0px); content-visibility: visible;"><defs><clipPath id="__lottie_element_4186"><rect width="36" height="28" x="0" y="0"></rect></clipPath></defs><g clip-path="url(#__lottie_element_4186)"><g transform="matrix(1.8059998750686646,0,0,1.8059998750686646,0.3216150999069214,3.080301523208618)" opacity="1" style="display: block;"><g opacity="1" transform="matrix(1,0,0,1,5.543000221252441,2.246000051498413)"><path fill="rgb(95,49,29)" fill-opacity="1" d=" M1.3240000009536743,0 C1.3240000009536743,-1.1030000448226929 0.7300000190734863,-1.996000051498413 0,-1.996000051498413 C-0.7310000061988831,-1.996000051498413 -1.3240000009536743,-1.1030000448226929 -1.3240000009536743,0 C-1.3240000009536743,1.1030000448226929 -0.7310000061988831,1.996000051498413 0,1.996000051498413 C0.7300000190734863,1.996000051498413 1.3240000009536743,1.1030000448226929 1.3240000009536743,0z"></path></g><g opacity="1" transform="matrix(1,0,0,1,9.54699993133545,2.246000051498413)"><path fill="rgb(95,49,29)" fill-opacity="1" d=" M1.3240000009536743,0 C1.3240000009536743,-1.1030000448226929 0.7310000061988831,-1.996000051498413 0,-1.996000051498413 C-0.7310000061988831,-1.996000051498413 -1.3240000009536743,-1.1030000448226929 -1.3240000009536743,0 C-1.3240000009536743,1.1030000448226929 -0.7310000061988831,1.996000051498413 0,1.996000051498413 C0.7310000061988831,1.996000051498413 1.3240000009536743,1.1030000448226929 1.3240000009536743,0z"></path></g><g opacity="1" transform="matrix(1,0,0,1,13.550000190734863,2.246000051498413)"><path fill="rgb(95,49,29)" fill-opacity="1" d=" M1.3240000009536743,0 C1.3240000009536743,-1.1030000448226929 0.7300000190734863,-1.996000051498413 0,-1.996000051498413 C-0.7310000061988831,-1.996000051498413 -1.3240000009536743,-1.1030000448226929 -1.3240000009536743,0 C-1.3240000009536743,1.1030000448226929 -0.7310000061988831,1.996000051498413 0,1.996000051498413 C0.7300000190734863,1.996000051498413 1.3240000009536743,1.1030000448226929 1.3240000009536743,0z"></path></g><g opacity="1" transform="matrix(1,0,0,1,9.54699993133545,4.6529998779296875)"><path fill="rgb(51,185,157)" fill-opacity="1" d=" M7.11899995803833,-2.4070000648498535 C7.11899995803833,-2.4070000648498535 -7.11899995803833,-2.4070000648498535 -7.11899995803833,-2.4070000648498535 C-7.11899995803833,-2.4070000648498535 -7.11899995803833,2.4070000648498535 -7.11899995803833,2.4070000648498535 C-7.11899995803833,2.4070000648498535 7.11899995803833,2.4070000648498535 7.11899995803833,2.4070000648498535 C7.11899995803833,2.4070000648498535 7.11899995803833,-2.4070000648498535 7.11899995803833,-2.4070000648498535z"></path></g><g opacity="1" transform="matrix(1,0,0,1,9.545999526977539,7.730999946594238)"><path fill="rgb(95,49,29)" fill-opacity="1" d=" M6.796999931335449,2.5 C6.796999931335449,2.5 -6.796999931335449,2.5 -6.796999931335449,2.5 C-8.17199993133545,2.5 -9.29699993133545,1.375 -9.29699993133545,0 C-9.29699993133545,-1.375 -8.17199993133545,-2.5 -6.796999931335449,-2.5 C-6.796999931335449,-2.5 6.796999931335449,-2.5 6.796999931335449,-2.5 C8.17199993133545,-2.5 9.29699993133545,-1.375 9.29699993133545,0 C9.29699993133545,1.375 8.17199993133545,2.5 6.796999931335449,2.5z"></path></g></g></g></svg>