<svg xmlns="http://www.w3.org/2000/svg" viewBox="0 0 121 148" width="121" height="148" preserveAspectRatio="xMidYMid meet" style="width: 100%; height: 100%; transform: translate3d(0px, 0px, 0px); content-visibility: visible;"><defs><clipPath id="__lottie_element_762"><rect width="121" height="148" x="0" y="0"></rect></clipPath></defs><g clip-path="url(#__lottie_element_762)"><g transform="matrix(0.18370582163333893,0,0,0.18370582163333893,71.76461029052734,33.30326843261719)" opacity="1" style="display: block;"><g opacity="1" transform="matrix(1,0,0,1,-0.8550000190734863,38.14500045776367)"><path fill="rgb(236,230,204)" fill-opacity="1" d=" M0,-39.144500732421875 C21.603849411010742,-39.144500732421875 39.144500732421875,-21.603849411010742 39.144500732421875,0 C39.144500732421875,21.603849411010742 21.603849411010742,39.144500732421875 0,39.144500732421875 C-21.603849411010742,39.144500732421875 -39.144500732421875,21.603849411010742 -39.144500732421875,0 C-39.144500732421875,-21.603849411010742 -21.603849411010742,-39.144500732421875 0,-39.144500732421875z"></path><path stroke-linecap="butt" stroke-linejoin="miter" fill-opacity="0" stroke-miterlimit="4" stroke="rgb(175,175,175)" stroke-opacity="1" stroke-width="0" d=" M0,-39.144500732421875 C21.603849411010742,-39.144500732421875 39.144500732421875,-21.603849411010742 39.144500732421875,0 C39.144500732421875,21.603849411010742 21.603849411010742,39.144500732421875 0,39.144500732421875 C-21.603849411010742,39.144500732421875 -39.144500732421875,21.603849411010742 -39.144500732421875,0 C-39.144500732421875,-21.603849411010742 -21.603849411010742,-39.144500732421875 0,-39.144500732421875z"></path></g></g><g transform="matrix(0,0,0,0,71.35579681396484,55.38529968261719)" opacity="1" style="display: block;"><g opacity="1" transform="matrix(1,0,0,1,-0.8550000190734863,38.14500045776367)"><path fill="rgb(236,230,204)" fill-opacity="1" d=" M0,-39.144500732421875 C21.603849411010742,-39.144500732421875 39.144500732421875,-21.603849411010742 39.144500732421875,0 C39.144500732421875,21.603849411010742 21.603849411010742,39.144500732421875 0,39.144500732421875 C-21.603849411010742,39.144500732421875 -39.144500732421875,21.603849411010742 -39.144500732421875,0 C-39.144500732421875,-21.603849411010742 -21.603849411010742,-39.144500732421875 0,-39.144500732421875z"></path><path stroke-linecap="butt" stroke-linejoin="miter" fill-opacity="0" stroke-miterlimit="4" stroke="rgb(175,175,175)" stroke-opacity="1" stroke-width="0" d=" M0,-39.144500732421875 C21.603849411010742,-39.144500732421875 39.144500732421875,-21.603849411010742 39.144500732421875,0 C39.144500732421875,21.603849411010742 21.603849411010742,39.144500732421875 0,39.144500732421875 C-21.603849411010742,39.144500732421875 -39.144500732421875,21.603849411010742 -39.144500732421875,0 C-39.144500732421875,-21.603849411010742 -21.603849411010742,-39.144500732421875 0,-39.144500732421875z"></path></g></g><g transform="matrix(0,0,0,0,68.02580261230469,55.718299865722656)" opacity="1" style="display: block;"><g opacity="1" transform="matrix(1,0,0,1,-0.8550000190734863,38.14500045776367)"><path fill="rgb(236,230,204)" fill-opacity="1" d=" M0,-39.144500732421875 C21.603849411010742,-39.144500732421875 39.144500732421875,-21.603849411010742 39.144500732421875,0 C39.144500732421875,21.603849411010742 21.603849411010742,39.144500732421875 0,39.144500732421875 C-21.603849411010742,39.144500732421875 -39.144500732421875,21.603849411010742 -39.144500732421875,0 C-39.144500732421875,-21.603849411010742 -21.603849411010742,-39.144500732421875 0,-39.144500732421875z"></path><path stroke-linecap="butt" stroke-linejoin="miter" fill-opacity="0" stroke-miterlimit="4" stroke="rgb(175,175,175)" stroke-opacity="1" stroke-width="0" d=" M0,-39.144500732421875 C21.603849411010742,-39.144500732421875 39.144500732421875,-21.603849411010742 39.144500732421875,0 C39.144500732421875,21.603849411010742 21.603849411010742,39.144500732421875 0,39.144500732421875 C-21.603849411010742,39.144500732421875 -39.144500732421875,21.603849411010742 -39.144500732421875,0 C-39.144500732421875,-21.603849411010742 -21.603849411010742,-39.144500732421875 0,-39.144500732421875z"></path></g></g><g transform="matrix(0.21732254326343536,0,0,0.21732254326343536,70.2115249633789,28.856203079223633)" opacity="1" style="display: block;"><g opacity="1" transform="matrix(1,0,0,1,-0.8550000190734863,38.14500045776367)"><path fill="rgb(236,230,204)" fill-opacity="1" d=" M0,-39.144500732421875 C21.603849411010742,-39.144500732421875 39.144500732421875,-21.603849411010742 39.144500732421875,0 C39.144500732421875,21.603849411010742 21.603849411010742,39.144500732421875 0,39.144500732421875 C-21.603849411010742,39.144500732421875 -39.144500732421875,21.603849411010742 -39.144500732421875,0 C-39.144500732421875,-21.603849411010742 -21.603849411010742,-39.144500732421875 0,-39.144500732421875z"></path><path stroke-linecap="butt" stroke-linejoin="miter" fill-opacity="0" stroke-miterlimit="4" stroke="rgb(175,175,175)" stroke-opacity="1" stroke-width="0" d=" M0,-39.144500732421875 C21.603849411010742,-39.144500732421875 39.144500732421875,-21.603849411010742 39.144500732421875,0 C39.144500732421875,21.603849411010742 21.603849411010742,39.144500732421875 0,39.144500732421875 C-21.603849411010742,39.144500732421875 -39.144500732421875,21.603849411010742 -39.144500732421875,0 C-39.144500732421875,-21.603849411010742 -21.603849411010742,-39.144500732421875 0,-39.144500732421875z"></path></g></g><g transform="matrix(0.16137468814849854,0,0,0.16137468814849854,60.42555236816406,16.621572494506836)" opacity="1" style="display: block;"><g opacity="1" transform="matrix(1,0,0,1,-0.8550000190734863,38.14500045776367)"><path fill="rgb(236,230,204)" fill-opacity="1" d=" M0,-39.144500732421875 C21.603849411010742,-39.144500732421875 39.144500732421875,-21.603849411010742 39.144500732421875,0 C39.144500732421875,21.603849411010742 21.603849411010742,39.144500732421875 0,39.144500732421875 C-21.603849411010742,39.144500732421875 -39.144500732421875,21.603849411010742 -39.144500732421875,0 C-39.144500732421875,-21.603849411010742 -21.603849411010742,-39.144500732421875 0,-39.144500732421875z"></path><path stroke-linecap="butt" stroke-linejoin="miter" fill-opacity="0" stroke-miterlimit="4" stroke="rgb(175,175,175)" stroke-opacity="1" stroke-width="0" d=" M0,-39.144500732421875 C21.603849411010742,-39.144500732421875 39.144500732421875,-21.603849411010742 39.144500732421875,0 C39.144500732421875,21.603849411010742 21.603849411010742,39.144500732421875 0,39.144500732421875 C-21.603849411010742,39.144500732421875 -39.144500732421875,21.603849411010742 -39.144500732421875,0 C-39.144500732421875,-21.603849411010742 -21.603849411010742,-39.144500732421875 0,-39.144500732421875z"></path></g></g><g transform="matrix(0.11259093135595322,0,0,0.11259093135595322,72.10714721679688,40.295448303222656)" opacity="1" style="display: block;"><g opacity="1" transform="matrix(1,0,0,1,-0.8550000190734863,38.14500045776367)"><path fill="rgb(236,230,204)" fill-opacity="1" d=" M0,-39.144500732421875 C21.603849411010742,-39.144500732421875 39.144500732421875,-21.603849411010742 39.144500732421875,0 C39.144500732421875,21.603849411010742 21.603849411010742,39.144500732421875 0,39.144500732421875 C-21.603849411010742,39.144500732421875 -39.144500732421875,21.603849411010742 -39.144500732421875,0 C-39.144500732421875,-21.603849411010742 -21.603849411010742,-39.144500732421875 0,-39.144500732421875z"></path><path stroke-linecap="butt" stroke-linejoin="miter" fill-opacity="0" stroke-miterlimit="4" stroke="rgb(175,175,175)" stroke-opacity="1" stroke-width="0" d=" M0,-39.144500732421875 C21.603849411010742,-39.144500732421875 39.144500732421875,-21.603849411010742 39.144500732421875,0 C39.144500732421875,21.603849411010742 21.603849411010742,39.144500732421875 0,39.144500732421875 C-21.603849411010742,39.144500732421875 -39.144500732421875,21.603849411010742 -39.144500732421875,0 C-39.144500732421875,-21.603849411010742 -21.603849411010742,-39.144500732421875 0,-39.144500732421875z"></path></g></g><g transform="matrix(0.28638002276420593,0,0,0.28638002276420593,64.46800231933594,26.81944465637207)" opacity="1" style="display: block;"><g opacity="1" transform="matrix(1,0,0,1,-0.8550000190734863,38.14500045776367)"><path fill="rgb(236,230,204)" fill-opacity="1" d=" M0,-39.144500732421875 C21.603849411010742,-39.144500732421875 39.144500732421875,-21.603849411010742 39.144500732421875,0 C39.144500732421875,21.603849411010742 21.603849411010742,39.144500732421875 0,39.144500732421875 C-21.603849411010742,39.144500732421875 -39.144500732421875,21.603849411010742 -39.144500732421875,0 C-39.144500732421875,-21.603849411010742 -21.603849411010742,-39.144500732421875 0,-39.144500732421875z"></path><path stroke-linecap="butt" stroke-linejoin="miter" fill-opacity="0" stroke-miterlimit="4" stroke="rgb(175,175,175)" stroke-opacity="1" stroke-width="0" d=" M0,-39.144500732421875 C21.603849411010742,-39.144500732421875 39.144500732421875,-21.603849411010742 39.144500732421875,0 C39.144500732421875,21.603849411010742 21.603849411010742,39.144500732421875 0,39.144500732421875 C-21.603849411010742,39.144500732421875 -39.144500732421875,21.603849411010742 -39.144500732421875,0 C-39.144500732421875,-21.603849411010742 -21.603849411010742,-39.144500732421875 0,-39.144500732421875z"></path></g></g><g transform="matrix(0.024266552180051804,0,0,0.024266552180051804,71.41675567626953,51.391075134277344)" opacity="1" style="display: block;"><g opacity="1" transform="matrix(1,0,0,1,-0.8550000190734863,38.14500045776367)"><path fill="rgb(236,230,204)" fill-opacity="1" d=" M0,-39.144500732421875 C21.603849411010742,-39.144500732421875 39.144500732421875,-21.603849411010742 39.144500732421875,0 C39.144500732421875,21.603849411010742 21.603849411010742,39.144500732421875 0,39.144500732421875 C-21.603849411010742,39.144500732421875 -39.144500732421875,21.603849411010742 -39.144500732421875,0 C-39.144500732421875,-21.603849411010742 -21.603849411010742,-39.144500732421875 0,-39.144500732421875z"></path><path stroke-linecap="butt" stroke-linejoin="miter" fill-opacity="0" stroke-miterlimit="4" stroke="rgb(175,175,175)" stroke-opacity="1" stroke-width="0" d=" M0,-39.144500732421875 C21.603849411010742,-39.144500732421875 39.144500732421875,-21.603849411010742 39.144500732421875,0 C39.144500732421875,21.603849411010742 21.603849411010742,39.144500732421875 0,39.144500732421875 C-21.603849411010742,39.144500732421875 -39.144500732421875,21.603849411010742 -39.144500732421875,0 C-39.144500732421875,-21.603849411010742 -21.603849411010742,-39.144500732421875 0,-39.144500732421875z"></path></g></g><g transform="matrix(0.1465200036764145,0,0,0.1465200036764145,68.69180297851562,43.34402084350586)" opacity="1" style="display: block;"><g opacity="1" transform="matrix(1,0,0,1,-0.8550000190734863,38.14500045776367)"><path fill="rgb(236,230,204)" fill-opacity="1" d=" M0,-39.144500732421875 C21.603849411010742,-39.144500732421875 39.144500732421875,-21.603849411010742 39.144500732421875,0 C39.144500732421875,21.603849411010742 21.603849411010742,39.144500732421875 0,39.144500732421875 C-21.603849411010742,39.144500732421875 -39.144500732421875,21.603849411010742 -39.144500732421875,0 C-39.144500732421875,-21.603849411010742 -21.603849411010742,-39.144500732421875 0,-39.144500732421875z"></path><path stroke-linecap="butt" stroke-linejoin="miter" fill-opacity="0" stroke-miterlimit="4" stroke="rgb(175,175,175)" stroke-opacity="1" stroke-width="0" d=" M0,-39.144500732421875 C21.603849411010742,-39.144500732421875 39.144500732421875,-21.603849411010742 39.144500732421875,0 C39.144500732421875,21.603849411010742 21.603849411010742,39.144500732421875 0,39.144500732421875 C-21.603849411010742,39.144500732421875 -39.144500732421875,21.603849411010742 -39.144500732421875,0 C-39.144500732421875,-21.603849411010742 -21.603849411010742,-39.144500732421875 0,-39.144500732421875z"></path></g></g><g transform="matrix(0.2373613864183426,0,0,0.2373613864183426,67.2347640991211,33.13153839111328)" opacity="1" style="display: block;"><g opacity="1" transform="matrix(1,0,0,1,-0.8550000190734863,38.14500045776367)"><path fill="rgb(236,230,204)" fill-opacity="1" d=" M0,-39.144500732421875 C21.603849411010742,-39.144500732421875 39.144500732421875,-21.603849411010742 39.144500732421875,0 C39.144500732421875,21.603849411010742 21.603849411010742,39.144500732421875 0,39.144500732421875 C-21.603849411010742,39.144500732421875 -39.144500732421875,21.603849411010742 -39.144500732421875,0 C-39.144500732421875,-21.603849411010742 -21.603849411010742,-39.144500732421875 0,-39.144500732421875z"></path><path stroke-linecap="butt" stroke-linejoin="miter" fill-opacity="0" stroke-miterlimit="4" stroke="rgb(175,175,175)" stroke-opacity="1" stroke-width="0" d=" M0,-39.144500732421875 C21.603849411010742,-39.144500732421875 39.144500732421875,-21.603849411010742 39.144500732421875,0 C39.144500732421875,21.603849411010742 21.603849411010742,39.144500732421875 0,39.144500732421875 C-21.603849411010742,39.144500732421875 -39.144500732421875,21.603849411010742 -39.144500732421875,0 C-39.144500732421875,-21.603849411010742 -21.603849411010742,-39.144500732421875 0,-39.144500732421875z"></path></g></g><g transform="matrix(0.09524235874414444,0,0,0.09524235874414444,72.56167602539062,47.189979553222656)" opacity="1" style="display: block;"><g opacity="1" transform="matrix(1,0,0,1,-0.8550000190734863,38.14500045776367)"><path fill="rgb(236,230,204)" fill-opacity="1" d=" M0,-39.144500732421875 C21.603849411010742,-39.144500732421875 39.144500732421875,-21.603849411010742 39.144500732421875,0 C39.144500732421875,21.603849411010742 21.603849411010742,39.144500732421875 0,39.144500732421875 C-21.603849411010742,39.144500732421875 -39.144500732421875,21.603849411010742 -39.144500732421875,0 C-39.144500732421875,-21.603849411010742 -21.603849411010742,-39.144500732421875 0,-39.144500732421875z"></path><path stroke-linecap="butt" stroke-linejoin="miter" fill-opacity="0" stroke-miterlimit="4" stroke="rgb(175,175,175)" stroke-opacity="1" stroke-width="0" d=" M0,-39.144500732421875 C21.603849411010742,-39.144500732421875 39.144500732421875,-21.603849411010742 39.144500732421875,0 C39.144500732421875,21.603849411010742 21.603849411010742,39.144500732421875 0,39.144500732421875 C-21.603849411010742,39.144500732421875 -39.144500732421875,21.603849411010742 -39.144500732421875,0 C-39.144500732421875,-21.603849411010742 -21.603849411010742,-39.144500732421875 0,-39.144500732421875z"></path></g></g><g transform="matrix(0,0,0,0,68.69180297851562,49.05830001831055)" opacity="1" style="display: none;"><g opacity="1" transform="matrix(1,0,0,1,-0.8550000190734863,38.14500045776367)"><path fill="rgb(236,230,204)" fill-opacity="1" d=" M0,-39.144500732421875 C21.603849411010742,-39.144500732421875 39.144500732421875,-21.603849411010742 39.144500732421875,0 C39.144500732421875,21.603849411010742 21.603849411010742,39.144500732421875 0,39.144500732421875 C-21.603849411010742,39.144500732421875 -39.144500732421875,21.603849411010742 -39.144500732421875,0 C-39.144500732421875,-21.603849411010742 -21.603849411010742,-39.144500732421875 0,-39.144500732421875z"></path><path stroke-linecap="butt" stroke-linejoin="miter" fill-opacity="0" stroke-miterlimit="4" stroke="rgb(175,175,175)" stroke-opacity="1" stroke-width="0" d=" M0,-39.144500732421875 C21.603849411010742,-39.144500732421875 39.144500732421875,-21.603849411010742 39.144500732421875,0 C39.144500732421875,21.603849411010742 21.603849411010742,39.144500732421875 0,39.144500732421875 C-21.603849411010742,39.144500732421875 -39.144500732421875,21.603849411010742 -39.144500732421875,0 C-39.144500732421875,-21.603849411010742 -21.603849411010742,-39.144500732421875 0,-39.144500732421875z"></path></g></g><g transform="matrix(0,0,0,0,70.6897964477539,54.21979904174805)" opacity="1" style="display: none;"><g opacity="1" transform="matrix(1,0,0,1,-0.8550000190734863,38.14500045776367)"><path fill="rgb(236,230,204)" fill-opacity="1" d=" M0,-39.144500732421875 C21.603849411010742,-39.144500732421875 39.144500732421875,-21.603849411010742 39.144500732421875,0 C39.144500732421875,21.603849411010742 21.603849411010742,39.144500732421875 0,39.144500732421875 C-21.603849411010742,39.144500732421875 -39.144500732421875,21.603849411010742 -39.144500732421875,0 C-39.144500732421875,-21.603849411010742 -21.603849411010742,-39.144500732421875 0,-39.144500732421875z"></path><path stroke-linecap="butt" stroke-linejoin="miter" fill-opacity="0" stroke-miterlimit="4" stroke="rgb(175,175,175)" stroke-opacity="1" stroke-width="0" d=" M0,-39.144500732421875 C21.603849411010742,-39.144500732421875 39.144500732421875,-21.603849411010742 39.144500732421875,0 C39.144500732421875,21.603849411010742 21.603849411010742,39.144500732421875 0,39.144500732421875 C-21.603849411010742,39.144500732421875 -39.144500732421875,21.603849411010742 -39.144500732421875,0 C-39.144500732421875,-21.603849411010742 -21.603849411010742,-39.144500732421875 0,-39.144500732421875z"></path></g></g><g transform="matrix(0,0,0,0,74.35279846191406,54.21979904174805)" opacity="1" style="display: none;"><g opacity="1" transform="matrix(1,0,0,1,-0.8550000190734863,38.14500045776367)"><path fill="rgb(236,230,204)" fill-opacity="1" d=" M0,-39.144500732421875 C21.603849411010742,-39.144500732421875 39.144500732421875,-21.603849411010742 39.144500732421875,0 C39.144500732421875,21.603849411010742 21.603849411010742,39.144500732421875 0,39.144500732421875 C-21.603849411010742,39.144500732421875 -39.144500732421875,21.603849411010742 -39.144500732421875,0 C-39.144500732421875,-21.603849411010742 -21.603849411010742,-39.144500732421875 0,-39.144500732421875z"></path><path stroke-linecap="butt" stroke-linejoin="miter" fill-opacity="0" stroke-miterlimit="4" stroke="rgb(175,175,175)" stroke-opacity="1" stroke-width="0" d=" M0,-39.144500732421875 C21.603849411010742,-39.144500732421875 39.144500732421875,-21.603849411010742 39.144500732421875,0 C39.144500732421875,21.603849411010742 21.603849411010742,39.144500732421875 0,39.144500732421875 C-21.603849411010742,39.144500732421875 -39.144500732421875,21.603849411010742 -39.144500732421875,0 C-39.144500732421875,-21.603849411010742 -21.603849411010742,-39.144500732421875 0,-39.144500732421875z"></path></g></g><g transform="matrix(0.046620000153779984,0,0,0.046620000153779984,71.18930053710938,54.066619873046875)" opacity="1" style="display: none;"><g opacity="1" transform="matrix(1,0,0,1,-0.8550000190734863,38.14500045776367)"><path fill="rgb(236,230,204)" fill-opacity="1" d=" M0,-39.144500732421875 C21.603849411010742,-39.144500732421875 39.144500732421875,-21.603849411010742 39.144500732421875,0 C39.144500732421875,21.603849411010742 21.603849411010742,39.144500732421875 0,39.144500732421875 C-21.603849411010742,39.144500732421875 -39.144500732421875,21.603849411010742 -39.144500732421875,0 C-39.144500732421875,-21.603849411010742 -21.603849411010742,-39.144500732421875 0,-39.144500732421875z"></path><path stroke-linecap="butt" stroke-linejoin="miter" fill-opacity="0" stroke-miterlimit="4" stroke="rgb(175,175,175)" stroke-opacity="1" stroke-width="0" d=" M0,-39.144500732421875 C21.603849411010742,-39.144500732421875 39.144500732421875,-21.603849411010742 39.144500732421875,0 C39.144500732421875,21.603849411010742 21.603849411010742,39.144500732421875 0,39.144500732421875 C-21.603849411010742,39.144500732421875 -39.144500732421875,21.603849411010742 -39.144500732421875,0 C-39.144500732421875,-21.603849411010742 -21.603849411010742,-39.144500732421875 0,-39.144500732421875z"></path></g></g><g transform="matrix(0.046620000153779984,0,0,0.046620000153779984,77.34980010986328,52.734619140625)" opacity="1" style="display: none;"><g opacity="1" transform="matrix(1,0,0,1,-0.8550000190734863,38.14500045776367)"><path fill="rgb(236,230,204)" fill-opacity="1" d=" M0,-39.144500732421875 C21.603849411010742,-39.144500732421875 39.144500732421875,-21.603849411010742 39.144500732421875,0 C39.144500732421875,21.603849411010742 21.603849411010742,39.144500732421875 0,39.144500732421875 C-21.603849411010742,39.144500732421875 -39.144500732421875,21.603849411010742 -39.144500732421875,0 C-39.144500732421875,-21.603849411010742 -21.603849411010742,-39.144500732421875 0,-39.144500732421875z"></path><path stroke-linecap="butt" stroke-linejoin="miter" fill-opacity="0" stroke-miterlimit="4" stroke="rgb(175,175,175)" stroke-opacity="1" stroke-width="0" d=" M0,-39.144500732421875 C21.603849411010742,-39.144500732421875 39.144500732421875,-21.603849411010742 39.144500732421875,0 C39.144500732421875,21.603849411010742 21.603849411010742,39.144500732421875 0,39.144500732421875 C-21.603849411010742,39.144500732421875 -39.144500732421875,21.603849411010742 -39.144500732421875,0 C-39.144500732421875,-21.603849411010742 -21.603849411010742,-39.144500732421875 0,-39.144500732421875z"></path></g></g><g transform="matrix(0.046620000153779984,0,0,0.046620000153779984,72.68779754638672,55.39862060546875)" opacity="1" style="display: block;"><g opacity="1" transform="matrix(1,0,0,1,-0.8550000190734863,38.14500045776367)"><path fill="rgb(236,230,204)" fill-opacity="1" d=" M0,-39.144500732421875 C21.603849411010742,-39.144500732421875 39.144500732421875,-21.603849411010742 39.144500732421875,0 C39.144500732421875,21.603849411010742 21.603849411010742,39.144500732421875 0,39.144500732421875 C-21.603849411010742,39.144500732421875 -39.144500732421875,21.603849411010742 -39.144500732421875,0 C-39.144500732421875,-21.603849411010742 -21.603849411010742,-39.144500732421875 0,-39.144500732421875z"></path><path stroke-linecap="butt" stroke-linejoin="miter" fill-opacity="0" stroke-miterlimit="4" stroke="rgb(175,175,175)" stroke-opacity="1" stroke-width="0" d=" M0,-39.144500732421875 C21.603849411010742,-39.144500732421875 39.144500732421875,-21.603849411010742 39.144500732421875,0 C39.144500732421875,21.603849411010742 21.603849411010742,39.144500732421875 0,39.144500732421875 C-21.603849411010742,39.144500732421875 -39.144500732421875,21.603849411010742 -39.144500732421875,0 C-39.144500732421875,-21.603849411010742 -21.603849411010742,-39.144500732421875 0,-39.144500732421875z"></path></g></g><g transform="matrix(0.01209030020982027,0,0,0.01209030020982027,76.73577880859375,52.96532440185547)" opacity="1" style="display: block;"><g opacity="1" transform="matrix(1,0,0,1,-0.8550000190734863,38.14500045776367)"><path fill="rgb(236,230,204)" fill-opacity="1" d=" M0,-39.144500732421875 C21.603849411010742,-39.144500732421875 39.144500732421875,-21.603849411010742 39.144500732421875,0 C39.144500732421875,21.603849411010742 21.603849411010742,39.144500732421875 0,39.144500732421875 C-21.603849411010742,39.144500732421875 -39.144500732421875,21.603849411010742 -39.144500732421875,0 C-39.144500732421875,-21.603849411010742 -21.603849411010742,-39.144500732421875 0,-39.144500732421875z"></path><path stroke-linecap="butt" stroke-linejoin="miter" fill-opacity="0" stroke-miterlimit="4" stroke="rgb(175,175,175)" stroke-opacity="1" stroke-width="0" d=" M0,-39.144500732421875 C21.603849411010742,-39.144500732421875 39.144500732421875,-21.603849411010742 39.144500732421875,0 C39.144500732421875,21.603849411010742 21.603849411010742,39.144500732421875 0,39.144500732421875 C-21.603849411010742,39.144500732421875 -39.144500732421875,21.603849411010742 -39.144500732421875,0 C-39.144500732421875,-21.603849411010742 -21.603849411010742,-39.144500732421875 0,-39.144500732421875z"></path></g></g><g transform="matrix(0,0,0,0,75.68479919433594,57.38330078125)" opacity="1" style="display: none;"><g opacity="1" transform="matrix(1,0,0,1,-0.8550000190734863,38.14500045776367)"><path fill="rgb(236,230,204)" fill-opacity="1" d=" M0,-39.144500732421875 C21.603849411010742,-39.144500732421875 39.144500732421875,-21.603849411010742 39.144500732421875,0 C39.144500732421875,21.603849411010742 21.603849411010742,39.144500732421875 0,39.144500732421875 C-21.603849411010742,39.144500732421875 -39.144500732421875,21.603849411010742 -39.144500732421875,0 C-39.144500732421875,-21.603849411010742 -21.603849411010742,-39.144500732421875 0,-39.144500732421875z"></path><path stroke-linecap="butt" stroke-linejoin="miter" fill-opacity="0" stroke-miterlimit="4" stroke="rgb(175,175,175)" stroke-opacity="1" stroke-width="0" d=" M0,-39.144500732421875 C21.603849411010742,-39.144500732421875 39.144500732421875,-21.603849411010742 39.144500732421875,0 C39.144500732421875,21.603849411010742 21.603849411010742,39.144500732421875 0,39.144500732421875 C-21.603849411010742,39.144500732421875 -39.144500732421875,21.603849411010742 -39.144500732421875,0 C-39.144500732421875,-21.603849411010742 -21.603849411010742,-39.144500732421875 0,-39.144500732421875z"></path></g></g><g transform="matrix(0.3330000042915344,0,0,0.3330000042915344,4.393187999725342,32.661380767822266)" opacity="1" style="display: block;"><g opacity="1" transform="matrix(1,0,0,1,166.6909942626953,42.082000732421875)"><path fill="rgb(235,230,204)" fill-opacity="1" d=" M-8.23799991607666,-11.430999755859375 C-8.23799991607666,-11.430999755859375 8.23799991607666,-11.430999755859375 8.23799991607666,-11.430999755859375 C8.23799991607666,-11.430999755859375 8.23799991607666,11.430999755859375 8.23799991607666,11.430999755859375 C8.23799991607666,11.430999755859375 -8.23799991607666,11.430999755859375 -8.23799991607666,11.430999755859375 C-8.23799991607666,11.430999755859375 -8.23799991607666,-11.430999755859375 -8.23799991607666,-11.430999755859375z"></path></g><g opacity="1" transform="matrix(1,0,0,1,197.26499938964844,41.76900100708008)"><path fill="rgb(17,128,195)" fill-opacity="1" d=" M-8.678999900817871,-11.100000381469727 C-8.678999900817871,-11.100000381469727 7.784999847412109,-11.744000434875488 7.784999847412109,-11.744000434875488 C7.784999847412109,-11.744000434875488 8.678999900817871,11.100000381469727 8.678999900817871,11.100000381469727 C8.678999900817871,11.100000381469727 -7.784999847412109,11.744000434875488 -7.784999847412109,11.744000434875488 C-7.784999847412109,11.744000434875488 -8.678999900817871,-11.100000381469727 -8.678999900817871,-11.100000381469727z"></path></g><g opacity="1" transform="matrix(1,0,0,1,227.83799743652344,39.95199966430664)"><path fill="rgb(255,201,77)" fill-opacity="1" d=" M-9.069999694824219,-10.782999992370605 C-9.069999694824219,-10.782999992370605 7.359000205993652,-12.015999794006348 7.359000205993652,-12.015999794006348 C7.359000205993652,-12.015999794006348 9.069999694824219,10.781999588012695 9.069999694824219,10.781999588012695 C9.069999694824219,10.781999588012695 -7.359000205993652,12.015999794006348 -7.359000205993652,12.015999794006348 C-7.359000205993652,12.015999794006348 -9.069999694824219,-10.782999992370605 -9.069999694824219,-10.782999992370605z"></path></g><g opacity="1" transform="matrix(1,0,0,1,136.1179962158203,41.76900100708008)"><path fill="rgb(255,201,77)" fill-opacity="1" d=" M8.678999900817871,-11.100000381469727 C8.678999900817871,-11.100000381469727 -7.784999847412109,-11.744000434875488 -7.784999847412109,-11.744000434875488 C-7.784999847412109,-11.744000434875488 -8.678999900817871,11.100000381469727 -8.678999900817871,11.100000381469727 C-8.678999900817871,11.100000381469727 7.784999847412109,11.744000434875488 7.784999847412109,11.744000434875488 C7.784999847412109,11.744000434875488 8.678999900817871,-11.100000381469727 8.678999900817871,-11.100000381469727z"></path></g><g opacity="1" transform="matrix(1,0,0,1,105.54399871826172,39.95199966430664)"><path fill="rgb(193,66,60)" fill-opacity="1" d=" M9.071000099182129,-10.782999992370605 C9.071000099182129,-10.782999992370605 -7.359000205993652,-12.015999794006348 -7.359000205993652,-12.015999794006348 C-7.359000205993652,-12.015999794006348 -9.071000099182129,10.781999588012695 -9.071000099182129,10.781999588012695 C-9.071000099182129,10.781999588012695 7.360000133514404,12.015999794006348 7.360000133514404,12.015999794006348 C7.360000133514404,12.015999794006348 9.071000099182129,-10.782999992370605 9.071000099182129,-10.782999992370605z"></path></g><g opacity="1" transform="matrix(1,0,0,1,71.18599700927734,126.30899810791016)"><path fill="rgb(235,230,204)" fill-opacity="1" d=" M3,126.05899810791016 C3,126.05899810791016 3,-126.05899810791016 3,-126.05899810791016 C3,-126.05899810791016 -3,-126.05899810791016 -3,-126.05899810791016 C-3,-126.05899810791016 -3,126.05899810791016 -3,126.05899810791016"></path></g><g opacity="1" transform="matrix(1,0,0,1,262.1969909667969,126.30899810791016)"><path fill="rgb(235,230,204)" fill-opacity="1" d=" M3,126.05899810791016 C3,126.05899810791016 3,-126.05899810791016 3,-126.05899810791016 C3,-126.05899810791016 -3,-126.05899810791016 -3,-126.05899810791016 C-3,-126.05899810791016 -3,126.05899810791016 -3,126.05899810791016"></path></g><g opacity="1" transform="matrix(1,0,0,1,166.6909942626953,117.93399810791016)"><path fill="rgb(77,67,95)" fill-opacity="1" d=" M-149.03700256347656,95.87799835205078 C-149.03700256347656,95.87799835205078 -93.10700225830078,-92.40699768066406 -93.10700225830078,-92.40699768066406 C-93.10700225830078,-92.40699768066406 -95.50299835205078,-93.11900329589844 -95.50299835205078,-93.11900329589844 C-95.50299835205078,-93.11900329589844 -95.83399963378906,-90.64099884033203 -95.83399963378906,-90.64099884033203 C-66.48699951171875,-86.74299621582031 -34.07699966430664,-84.58200073242188 -0.0010000000474974513,-84.58200073242188 C34.07500076293945,-84.58200073242188 66.48600006103516,-86.74299621582031 95.83300018310547,-90.64099884033203 C95.83300018310547,-90.64099884033203 95.50299835205078,-93.11900329589844 95.50299835205078,-93.11900329589844 C95.50299835205078,-93.11900329589844 93.10700225830078,-92.40699768066406 93.10700225830078,-92.40699768066406 C93.10700225830078,-92.40699768066406 149.03799438476562,95.87799835205078 149.03799438476562,95.87799835205078 C149.03799438476562,95.87799835205078 153.83099365234375,94.4540023803711 153.83099365234375,94.4540023803711 C153.83099365234375,94.4540023803711 97.29199981689453,-95.87799835205078 97.29199981689453,-95.87799835205078 C97.29199981689453,-95.87799835205078 95.17500305175781,-95.59700012207031 95.17500305175781,-95.59700012207031 C66.06500244140625,-91.7300033569336 33.862998962402344,-89.58100128173828 -0.0010000000474974513,-89.58200073242188 C-33.8650016784668,-89.58100128173828 -66.06600189208984,-91.7300033569336 -95.17500305175781,-95.59700012207031 C-95.17500305175781,-95.59700012207031 -97.29199981689453,-95.87799835205078 -97.29199981689453,-95.87799835205078 C-97.29199981689453,-95.87799835205078 -153.83099365234375,94.4540023803711 -153.83099365234375,94.4540023803711 C-153.83099365234375,94.4540023803711 -149.03700256347656,95.87799835205078 -149.03700256347656,95.87799835205078z"></path></g><g opacity="1" transform="matrix(1,0,0,1,213.1790008544922,145.68899536132812)"><path fill="rgb(175,154,166)" fill-opacity="1" d=" M-23.400999069213867,-71.34200286865234 C-23.400999069213867,-71.34200286865234 23.400999069213867,-71.34200286865234 23.400999069213867,-71.34200286865234 C23.400999069213867,-71.34200286865234 23.400999069213867,71.34200286865234 23.400999069213867,71.34200286865234 C23.400999069213867,71.34200286865234 -23.400999069213867,71.34200286865234 -23.400999069213867,71.34200286865234 C-23.400999069213867,71.34200286865234 -23.400999069213867,-71.34200286865234 -23.400999069213867,-71.34200286865234z"></path></g><g opacity="1" transform="matrix(1,0,0,1,121.27300262451172,151.39599609375)"><path fill="rgb(235,230,204)" fill-opacity="1" d=" M-31.52199935913086,-65.63500213623047 C-31.52199935913086,-65.63500213623047 31.52199935913086,-65.63500213623047 31.52199935913086,-65.63500213623047 C31.52199935913086,-65.63500213623047 31.52199935913086,65.63500213623047 31.52199935913086,65.63500213623047 C31.52199935913086,65.63500213623047 -31.52199935913086,65.63500213623047 -31.52199935913086,65.63500213623047 C-31.52199935913086,65.63500213623047 -31.52199935913086,-65.63500213623047 -31.52199935913086,-65.63500213623047z"></path></g><g opacity="1" transform="matrix(1,0,0,1,121.27300262451172,109.5479965209961)"><path fill="rgb(223,159,99)" fill-opacity="1" d=" M31.52199935913086,3.068000078201294 C31.52199935913086,3.068000078201294 -31.52199935913086,3.068000078201294 -31.52199935913086,3.068000078201294 C-31.52199935913086,3.068000078201294 -31.52199935913086,-3.068000078201294 -31.52199935913086,-3.068000078201294 C-31.52199935913086,-3.068000078201294 31.52199935913086,-3.068000078201294 31.52199935913086,-3.068000078201294 C31.52199935913086,-3.068000078201294 31.52199935913086,3.068000078201294 31.52199935913086,3.068000078201294z"></path></g><g opacity="1" transform="matrix(1,0,0,1,213.1790008544922,81.35099792480469)"><path fill="rgb(193,66,60)" fill-opacity="1" d=" M-23.400999069213867,-19.850000381469727 C-23.400999069213867,-19.850000381469727 23.400999069213867,-19.850000381469727 23.400999069213867,-19.850000381469727 C23.400999069213867,-19.850000381469727 23.400999069213867,19.850000381469727 23.400999069213867,19.850000381469727 C23.400999069213867,19.850000381469727 -23.400999069213867,19.850000381469727 -23.400999069213867,19.850000381469727 C-23.400999069213867,19.850000381469727 -23.400999069213867,-19.850000381469727 -23.400999069213867,-19.850000381469727z"></path></g><g opacity="1" transform="matrix(1,0,0,1,213.1790008544922,70.62999725341797)"><path fill="rgb(193,66,60)" fill-opacity="1" d=" M-23.208999633789062,-4.7179999351501465 C-23.208999633789062,-4.7179999351501465 23.208999633789062,-4.7179999351501465 23.208999633789062,-4.7179999351501465 C25.81399917602539,-4.7179999351501465 27.927000045776367,-2.6059999465942383 27.927000045776367,0 C27.927000045776367,2.6059999465942383 25.81399917602539,4.7179999351501465 23.208999633789062,4.7179999351501465 C23.208999633789062,4.7179999351501465 -23.208999633789062,4.7179999351501465 -23.208999633789062,4.7179999351501465 C-25.815000534057617,4.7179999351501465 -27.927000045776367,2.6059999465942383 -27.927000045776367,0 C-27.927000045776367,-2.6059999465942383 -25.815000534057617,-4.7179999351501465 -23.208999633789062,-4.7179999351501465z"></path></g><g opacity="1" transform="matrix(1,0,0,1,166.6909942626953,210.5679931640625)"><path fill="rgb(235,230,204)" fill-opacity="1" d=" M76.94000244140625,-41.80099868774414 C76.94000244140625,-41.80099868774414 -76.94000244140625,-41.80099868774414 -76.94000244140625,-41.80099868774414 C-76.94000244140625,-41.80099868774414 -76.94000244140625,41.80099868774414 -76.94000244140625,41.80099868774414 C-76.94000244140625,41.80099868774414 76.94000244140625,41.80099868774414 76.94000244140625,41.80099868774414 C76.94000244140625,41.80099868774414 76.94000244140625,-41.80099868774414 76.94000244140625,-41.80099868774414z"></path></g><g opacity="1" transform="matrix(1,0,0,1,198.21299743652344,223.18299865722656)"><path fill="rgb(223,159,99)" fill-opacity="1" d=" M45.417999267578125,-29.18600082397461 C45.417999267578125,-29.18600082397461 -45.417999267578125,-29.18600082397461 -45.417999267578125,-29.18600082397461 C-45.417999267578125,-29.18600082397461 -45.417999267578125,29.18600082397461 -45.417999267578125,29.18600082397461 C-45.417999267578125,29.18600082397461 45.417999267578125,29.18600082397461 45.417999267578125,29.18600082397461 C45.417999267578125,29.18600082397461 45.417999267578125,-29.18600082397461 45.417999267578125,-29.18600082397461z"></path></g><g opacity="1" transform="matrix(1,0,0,1,198.21299743652344,226.17999267578125)"><path fill="rgb(195,121,81)" fill-opacity="1" d=" M45.417999267578125,-15.364999771118164 C45.417999267578125,-15.364999771118164 -45.417999267578125,-15.364999771118164 -45.417999267578125,-15.364999771118164 C-45.417999267578125,-15.364999771118164 -45.417999267578125,15.364999771118164 -45.417999267578125,15.364999771118164 C-45.417999267578125,15.364999771118164 45.417999267578125,15.364999771118164 45.417999267578125,15.364999771118164 C45.417999267578125,15.364999771118164 45.417999267578125,-15.364999771118164 45.417999267578125,-15.364999771118164z"></path></g><g opacity="1" transform="matrix(1,0,0,1,198.21299743652344,197.06500244140625)"><path fill="rgb(227,180,119)" fill-opacity="1" d=" M45.417999267578125,3.068000078201294 C45.417999267578125,3.068000078201294 -45.417999267578125,3.068000078201294 -45.417999267578125,3.068000078201294 C-45.417999267578125,3.068000078201294 -45.417999267578125,-3.068000078201294 -45.417999267578125,-3.068000078201294 C-45.417999267578125,-3.068000078201294 45.417999267578125,-3.068000078201294 45.417999267578125,-3.068000078201294 C45.417999267578125,-3.068000078201294 45.417999267578125,3.068000078201294 45.417999267578125,3.068000078201294z"></path></g><g opacity="1" transform="matrix(1,0,0,1,182.60499572753906,183.32699584960938)"><path fill="rgb(223,159,99)" fill-opacity="1" d=" M45.417999267578125,3.068000078201294 C45.417999267578125,3.068000078201294 -45.417999267578125,3.068000078201294 -45.417999267578125,3.068000078201294 C-45.417999267578125,3.068000078201294 -45.417999267578125,-3.068000078201294 -45.417999267578125,-3.068000078201294 C-45.417999267578125,-3.068000078201294 45.417999267578125,-3.068000078201294 45.417999267578125,-3.068000078201294 C45.417999267578125,-3.068000078201294 45.417999267578125,3.068000078201294 45.417999267578125,3.068000078201294z"></path></g><g opacity="1" transform="matrix(1,0,0,1,121.27300262451172,131.33299255371094)"><path fill="rgb(77,67,95)" fill-opacity="1" d=" M0.0010000000474974513,11.843999862670898 C-6.53000020980835,11.843999862670898 -11.845000267028809,6.5320000648498535 -11.845000267028809,0 C-11.845000267028809,-6.531000137329102 -6.53000020980835,-11.843999862670898 0.0010000000474974513,-11.843999862670898 C6.531000137329102,-11.843999862670898 11.845000267028809,-6.531000137329102 11.845000267028809,0 C11.845000267028809,6.5320000648498535 6.531000137329102,11.843999862670898 0.0010000000474974513,11.843999862670898z"></path></g><g opacity="1" transform="matrix(1,0,0,1,121.27300262451172,131.33200073242188)"><path fill="rgb(193,66,60)" fill-opacity="1" d=" M0,-14.843999862670898 C-8.197999954223633,-14.843999862670898 -14.843999862670898,-8.197999954223633 -14.843999862670898,0 C-14.843999862670898,8.197999954223633 -8.197999954223633,14.843999862670898 0,14.843999862670898 C8.197999954223633,14.843999862670898 14.843999862670898,8.197999954223633 14.843999862670898,0 C14.843999862670898,-8.197999954223633 8.197999954223633,-14.843999862670898 0,-14.843999862670898z"></path></g><g opacity="1" transform="matrix(1,0,0,1,121.27300262451172,131.33200073242188)"><path fill="rgb(77,67,95)" fill-opacity="1" d=" M0,-8.843999862670898 C4.876999855041504,-8.843999862670898 8.843999862670898,-4.875999927520752 8.843999862670898,0 C8.843999862670898,4.876999855041504 4.876999855041504,8.843999862670898 0,8.843999862670898 C-4.876999855041504,8.843999862670898 -8.843999862670898,4.876999855041504 -8.843999862670898,0 C-8.843999862670898,-4.875999927520752 -4.876999855041504,-8.843999862670898 0,-8.843999862670898z"></path></g><g opacity="1" transform="matrix(1,0,0,1,213.17799377441406,126.3280029296875)"><path fill="rgb(235,230,204)" fill-opacity="1" d=" M14.845000267028809,0 C14.845000267028809,-8.197999954223633 8.197999954223633,-14.843999862670898 0,-14.843999862670898 C-8.199000358581543,-14.843999862670898 -14.845000267028809,-8.197999954223633 -14.845000267028809,0 C-14.845000267028809,8.197999954223633 -8.199000358581543,14.843999862670898 0,14.843999862670898 C8.197999954223633,14.843999862670898 14.845000267028809,8.197999954223633 14.845000267028809,0z"></path></g><g opacity="1" transform="matrix(1,0,0,1,166.6909942626953,268.79998779296875)"><path fill="rgb(194,172,186)" fill-opacity="1" d=" M111.39399719238281,-75.71600341796875 C111.21499633789062,-51.60200119018555 91.61799621582031,-32.10599899291992 67.46099853515625,-32.10599899291992 C67.46099853515625,-32.10599899291992 -67.45999908447266,-32.10599899291992 -67.45999908447266,-32.10599899291992 C-91.61699676513672,-32.10599899291992 -111.21299743652344,-51.60200119018555 -111.39299774169922,-75.71600341796875 C-111.39299774169922,-75.71600341796875 -161.44200134277344,-75.71600341796875 -161.44200134277344,-75.71600341796875 C-161.44200134277344,-75.71600341796875 -161.44200134277344,45.479000091552734 -161.44200134277344,45.479000091552734 C-161.44200134277344,62.17900085449219 -147.9040069580078,75.71600341796875 -131.20399475097656,75.71600341796875 C-131.20399475097656,75.71600341796875 131.20399475097656,75.71600341796875 131.20399475097656,75.71600341796875 C147.9040069580078,75.71600341796875 161.44200134277344,62.17900085449219 161.44200134277344,45.479000091552734 C161.44200134277344,45.479000091552734 161.44200134277344,-75.71600341796875 161.44200134277344,-75.71600341796875 C161.44200134277344,-75.71600341796875 111.39399719238281,-75.71600341796875 111.39399719238281,-75.71600341796875z"></path></g><g opacity="1" transform="matrix(1,0,0,1,166.6909942626953,329.3970031738281)"><path fill="rgb(193,66,60)" fill-opacity="1" d=" M-131.20399475097656,15.118000030517578 C-131.20399475097656,15.118000030517578 131.20399475097656,15.118000030517578 131.20399475097656,15.118000030517578 C147.9040069580078,15.118000030517578 161.44200134277344,1.5809999704360962 161.44200134277344,-15.118000030517578 C161.44200134277344,-15.118000030517578 -161.44200134277344,-15.118000030517578 -161.44200134277344,-15.118000030517578 C-161.44200134277344,1.5809999704360962 -147.9029998779297,15.118000030517578 -131.20399475097656,15.118000030517578z"></path></g><g opacity="1" transform="matrix(1,0,0,1,303.1090087890625,193.08399963378906)"><path fill="rgb(175,154,166)" fill-opacity="1" d=" M30.02400016784668,-5 C30.02400016784668,-5 -30.02400016784668,-5 -30.02400016784668,-5 C-30.02400016784668,-5 -30.02400016784668,5 -30.02400016784668,5 C-30.02400016784668,5 30.02400016784668,5 30.02400016784668,5"></path></g><g opacity="1" transform="matrix(1,0,0,1,30.27400016784668,193.08399963378906)"><path fill="rgb(175,154,166)" fill-opacity="1" d=" M30.02400016784668,-5 C30.02400016784668,-5 -30.02400016784668,-5 -30.02400016784668,-5 C-30.02400016784668,-5 -30.02400016784668,5 -30.02400016784668,5 C-30.02400016784668,5 30.02400016784668,5 30.02400016784668,5"></path></g><g opacity="1" transform="matrix(1,0,0,1,166.69200134277344,320.2489929199219)"><path fill="rgb(77,67,95)" fill-opacity="1" d=" M-70.85600280761719,24.266000747680664 C-70.85600280761719,24.266000747680664 -70.85600280761719,-3.619999885559082 -70.85600280761719,-3.619999885559082 C-70.85600280761719,-15.02299976348877 -61.61199951171875,-24.266000747680664 -50.20899963378906,-24.266000747680664 C-50.20899963378906,-24.266000747680664 50.20800018310547,-24.266000747680664 50.20800018310547,-24.266000747680664 C61.61199951171875,-24.266000747680664 70.85600280761719,-15.02299976348877 70.85600280761719,-3.619999885559082 C70.85600280761719,-3.619999885559082 70.85600280761719,24.266000747680664 70.85600280761719,24.266000747680664 C70.85600280761719,24.266000747680664 -70.85600280761719,24.266000747680664 -70.85600280761719,24.266000747680664z"></path></g><g opacity="1" transform="matrix(1,0,0,1,234.63699340820312,301.4930114746094)"><path fill="rgb(149,133,145)" fill-opacity="1" d=" M93.49700164794922,-12.78600025177002 C93.49700164794922,-12.78600025177002 -93.49700164794922,-12.78600025177002 -93.49700164794922,-12.78600025177002 C-93.49700164794922,-12.78600025177002 -93.49700164794922,-5.510000228881836 -93.49700164794922,-5.510000228881836 C-93.49700164794922,-5.510000228881836 -17.73699951171875,-5.510000228881836 -17.73699951171875,-5.510000228881836 C-7.129000186920166,-5.510000228881836 1.6119999885559082,2.489000082015991 2.7790000438690186,12.78600025177002 C2.7790000438690186,12.78600025177002 93.49700164794922,12.78600025177002 93.49700164794922,12.78600025177002 C93.49700164794922,12.78600025177002 93.49700164794922,-12.78600025177002 93.49700164794922,-12.78600025177002z"></path></g><g opacity="1" transform="matrix(1,0,0,1,282.77398681640625,329.3970031738281)"><path fill="rgb(148,51,46)" fill-opacity="1" d=" M45.35900115966797,-15.119000434875488 C45.35900115966797,-15.119000434875488 -45.35900115966797,-15.119000434875488 -45.35900115966797,-15.119000434875488 C-45.27199935913086,-14.347999572753906 -45.22700119018555,-13.560999870300293 -45.22700119018555,-12.767000198364258 C-45.22700119018555,-12.767000198364258 -45.22700119018555,13.682000160217285 -45.22700119018555,13.682000160217285 C-45.22700119018555,13.682000160217285 -40.064998626708984,15.119000434875488 -40.064998626708984,15.119000434875488 C-40.064998626708984,15.119000434875488 15.121999740600586,15.119000434875488 15.121999740600586,15.119000434875488 C15.121999740600586,15.119000434875488 15.144000053405762,15.119000434875488 15.144000053405762,15.119000434875488 C15.144000053405762,15.119000434875488 15.17300033569336,15.119000434875488 15.17300033569336,15.119000434875488 C15.17300033569336,15.119000434875488 15.1899995803833,15.119000434875488 15.1899995803833,15.119000434875488 C15.201000213623047,15.119000434875488 15.210000038146973,15.119000434875488 15.220999717712402,15.119000434875488 C15.220999717712402,15.119000434875488 15.239999771118164,15.119000434875488 15.239999771118164,15.119000434875488 C15.239999771118164,15.119000434875488 15.270999908447266,15.119000434875488 15.270999908447266,15.119000434875488 C15.27400016784668,15.119000434875488 15.277000427246094,15.119000434875488 15.279999732971191,15.119000434875488 C15.293999671936035,15.119000434875488 15.305999755859375,15.119000434875488 15.319000244140625,15.118000030517578 C15.319000244140625,15.118000030517578 15.32800006866455,15.118000030517578 15.32800006866455,15.118000030517578 C15.340999603271484,15.118000030517578 15.354999542236328,15.118000030517578 15.369000434875488,15.118000030517578 C15.369000434875488,15.118000030517578 15.37399959564209,15.118000030517578 15.37399959564209,15.118000030517578 C15.388999938964844,15.118000030517578 15.402999877929688,15.118000030517578 15.416999816894531,15.118000030517578 C15.416999816894531,15.118000030517578 15.420999526977539,15.118000030517578 15.420999526977539,15.118000030517578 C23.375999450683594,15.041000366210938 30.59600067138672,11.892000198364258 35.95199966430664,6.800000190734863 C35.95199966430664,6.798999786376953 35.952999114990234,6.797999858856201 35.95399856567383,6.796999931335449 C35.974998474121094,6.7769999504089355 35.99599838256836,6.757999897003174 36.016998291015625,6.736999988555908 C36.016998291015625,6.736999988555908 36.018001556396484,6.736999988555908 36.018001556396484,6.736999988555908 C36.03900146484375,6.716000080108643 36.06100082397461,6.696000099182129 36.08300018310547,6.675000190734863 C36.084999084472656,6.672999858856201 36.08599853515625,6.671999931335449 36.0880012512207,6.670000076293945 C36.09700012207031,6.660999774932861 36.10599899291992,6.6529998779296875 36.11600112915039,6.64300012588501 C36.125999450683594,6.632999897003174 36.137001037597656,6.622000217437744 36.14799880981445,6.611999988555908 C36.14899826049805,6.611000061035156 36.14899826049805,6.611000061035156 36.1510009765625,6.609000205993652 C36.1609992980957,6.599999904632568 36.16999816894531,6.590000152587891 36.180999755859375,6.579999923706055 C36.18199920654297,6.578999996185303 36.18299865722656,6.578000068664551 36.185001373291016,6.576000213623047 C36.20500183105469,6.556000232696533 36.224998474121094,6.535999774932861 36.244998931884766,6.515999794006348 C36.249000549316406,6.51200008392334 36.25400161743164,6.508999824523926 36.25699996948242,6.505000114440918 C36.263999938964844,6.499000072479248 36.270999908447266,6.491000175476074 36.27799987792969,6.485000133514404 C36.279998779296875,6.48199987411499 36.28300094604492,6.480000019073486 36.2859992980957,6.4770002365112305 C36.30500030517578,6.459000110626221 36.32400131225586,6.440000057220459 36.34299850463867,6.421999931335449 C36.34299850463867,6.421999931335449 36.35300064086914,6.410999774932861 36.35300064086914,6.410999774932861 C36.361000061035156,6.4039998054504395 36.367000579833984,6.3979997634887695 36.374000549316406,6.389999866485596 C36.38199996948242,6.382999897003174 36.388999938964844,6.375999927520752 36.395999908447266,6.36899995803833 C36.400001525878906,6.364999771118164 36.40299987792969,6.361999988555908 36.40700149536133,6.359000205993652 C36.426998138427734,6.339000225067139 36.44599914550781,6.320000171661377 36.465999603271484,6.300000190734863 C36.46799850463867,6.297999858856201 36.46900177001953,6.296999931335449 36.47100067138672,6.295000076293945 C36.47100067138672,6.295000076293945 36.4900016784668,6.275000095367432 36.4900016784668,6.275000095367432 C36.494998931884766,6.270999908447266 36.49800109863281,6.267000198364258 36.50299835205078,6.26200008392334 C36.51300048828125,6.252999782562256 36.520999908447266,6.24399995803833 36.529998779296875,6.234000205993652 C36.53200149536133,6.23199987411499 36.53300094604492,6.232999801635742 36.53499984741211,6.230999946594238 C36.555999755859375,6.209000110626221 36.57699966430664,6.188000202178955 36.5989990234375,6.166999816894531 C36.5989990234375,6.165999889373779 36.597999572753906,6.166999816894531 36.5989990234375,6.165999889373779 C36.60900115966797,6.156000137329102 36.61899948120117,6.144999980926514 36.630001068115234,6.135000228881836 C36.630001068115234,6.135000228881836 36.63100051879883,6.133999824523926 36.63100051879883,6.133999824523926 C36.638999938964844,6.125 36.64699935913086,6.117000102996826 36.65599822998047,6.109000205993652 C36.65599822998047,6.109000205993652 36.66299819946289,6.1020002365112305 36.66299819946289,6.1020002365112305 C36.66899871826172,6.0960001945495605 36.67399978637695,6.090000152587891 36.68000030517578,6.084000110626221 C36.685001373291016,6.078999996185303 36.68899917602539,6.072999954223633 36.69499969482422,6.067999839782715 C36.724998474121094,6.0370001792907715 36.755001068115234,6.007999897003174 36.78499984741211,5.9770002365112305 C36.7869987487793,5.974999904632568 36.7869987487793,5.973999977111816 36.78900146484375,5.9720001220703125 C36.808998107910156,5.952000141143799 36.827999114990234,5.931000232696533 36.847999572753906,5.910999774932861 C36.847999572753906,5.910999774932861 36.85300064086914,5.9070000648498535 36.85300064086914,5.9070000648498535 C36.861000061035156,5.8979997634887695 36.86899948120117,5.888999938964844 36.87799835205078,5.880000114440918 C36.880001068115234,5.877999782562256 36.88199996948242,5.876999855041504 36.88399887084961,5.874000072479248 C36.90399932861328,5.854000091552734 36.92300033569336,5.835000038146973 36.94200134277344,5.814000129699707 C36.94200134277344,5.814000129699707 36.946998596191406,5.808000087738037 36.946998596191406,5.808000087738037 C40.28499984741211,2.3289999961853027 42.79800033569336,-1.9470000267028809 44.17300033569336,-6.705999851226807 C44.68899917602539,-8.489999771118164 45.04499816894531,-10.340999603271484 45.2239990234375,-12.244000434875488 C45.224998474121094,-12.255999565124512 45.22600173950195,-12.267000198364258 45.22700119018555,-12.279000282287598 C45.229000091552734,-12.298999786376953 45.23099899291992,-12.319999694824219 45.233001708984375,-12.33899974822998 C45.23400115966797,-12.348999977111816 45.23500061035156,-12.361000061035156 45.236000061035156,-12.371000289916992 C45.237998962402344,-12.395000457763672 45.2400016784668,-12.416000366210938 45.242000579833984,-12.4399995803833 C45.24300003051758,-12.446000099182129 45.24300003051758,-12.451000213623047 45.24399948120117,-12.456999778747559 C45.24599838256836,-12.482000350952148 45.24800109863281,-12.506999969482422 45.25,-12.531999588012695 C45.250999450683594,-12.543999671936035 45.25199890136719,-12.555000305175781 45.25299835205078,-12.567000389099121 C45.25400161743164,-12.581999778747559 45.255001068115234,-12.597000122070312 45.25699996948242,-12.611000061035156 C45.28200149536133,-12.916000366210938 45.301998138427734,-13.220999717712402 45.31800079345703,-13.527999877929688 C45.319000244140625,-13.543999671936035 45.31999969482422,-13.562000274658203 45.31999969482422,-13.57800006866455 C45.323001861572266,-13.621000289916992 45.32500076293945,-13.663999557495117 45.32699966430664,-13.706999778747559 C45.327999114990234,-13.729999542236328 45.32899856567383,-13.753999710083008 45.33000183105469,-13.777000427246094 C45.332000732421875,-13.817000389099121 45.33300018310547,-13.855999946594238 45.334999084472656,-13.895999908447266 C45.33599853515625,-13.920000076293945 45.33700180053711,-13.944999694824219 45.3380012512207,-13.968999862670898 C45.3390007019043,-14.019000053405762 45.340999603271484,-14.067999839782715 45.34299850463867,-14.119000434875488 C45.34600067138672,-14.204999923706055 45.347999572753906,-14.293999671936035 45.349998474121094,-14.380999565124512 C45.349998474121094,-14.390999794006348 45.35100173950195,-14.401000022888184 45.35100173950195,-14.41100025177002 C45.35300064086914,-14.51099967956543 45.35499954223633,-14.609999656677246 45.35599899291992,-14.711000442504883 C45.358001708984375,-14.845999717712402 45.35900115966797,-14.982999801635742 45.35900115966797,-15.119000434875488z"></path></g><g opacity="1" transform="matrix(1,0,0,1,189.34300231933594,319.531005859375)"><path fill="rgb(58,52,73)" fill-opacity="1" d=" M27.55699920654297,-23.548999786376953 C27.55699920654297,-23.548999786376953 -60.23907470703125,-23.548999786376953 -60.23907470703125,-23.548999786376953 C-60.23907470703125,-23.548999786376953 -60.23907470703125,-3.2769999504089355 -60.23907470703125,-3.2769999504089355 C-60.23907470703125,-3.2769999504089355 48.202999114990234,23.548999786376953 48.202999114990234,23.548999786376953 C48.202999114990234,23.548999786376953 48.202999114990234,-2.9010000228881836 48.202999114990234,-2.9010000228881836 C48.202999114990234,-3.694999933242798 48.15800094604492,-4.480999946594238 48.07099914550781,-5.251999855041504 C46.90399932861328,-15.54800033569336 38.165000915527344,-23.548999786376953 27.55699920654297,-23.548999786376953z"></path></g><g opacity="1" transform="matrix(1,0,0,1,71.0009994506836,24.173999786376953)"><path fill="rgb(77,67,95)" fill-opacity="1" d=" M5.215000152587891,-3.125 C5.215000152587891,-3.125 -5.791999816894531,-1.840999960899353 -5.791999816894531,-1.840999960899353 C-7.164000034332275,-1.680999994277954 -8.147000312805176,-0.4399999976158142 -7.986999988555908,0.9309999942779541 C-7.827000141143799,2.302999973297119 -6.585999965667725,3.2839999198913574 -5.214000225067139,3.124000072479248 C-5.214000225067139,3.124000072479248 5.793000221252441,1.840999960899353 5.793000221252441,1.840999960899353 C7.164000034332275,1.6820000410079956 8.147000312805176,0.4399999976158142 7.98799991607666,-0.9309999942779541 C7.828000068664551,-2.302000045776367 6.586999893188477,-3.2850000858306885 5.215000152587891,-3.125z"></path></g><g opacity="1" transform="matrix(1,0,0,1,262.3810119628906,24.173999786376953)"><path fill="rgb(77,67,95)" fill-opacity="1" d=" M-5.793000221252441,1.840999960899353 C-5.793000221252441,1.840999960899353 5.214000225067139,3.125 5.214000225067139,3.125 C6.585999965667725,3.2850000858306885 7.827000141143799,2.302000045776367 7.986999988555908,0.9309999942779541 C8.147000312805176,-0.4399999976158142 7.164999961853027,-1.6820000410079956 5.793000221252441,-1.840999960899353 C5.793000221252441,-1.840999960899353 -5.214000225067139,-3.124000072479248 -5.214000225067139,-3.124000072479248 C-6.585999965667725,-3.2839999198913574 -7.827000141143799,-2.302999973297119 -7.986999988555908,-0.9309999942779541 C-8.147000312805176,0.4399999976158142 -7.164999961853027,1.680999994277954 -5.793000221252441,1.840999960899353z"></path></g><g opacity="1" transform="matrix(1,0,0,1,36.32600021362305,241.5449981689453)"><path fill="rgb(77,67,95)" fill-opacity="1" d=" M0,11.843999862670898 C-6.53000020980835,11.843999862670898 -11.845000267028809,6.531000137329102 -11.845000267028809,0 C-11.845000267028809,-6.531000137329102 -6.53000020980835,-11.843999862670898 0,-11.843999862670898 C6.531000137329102,-11.843999862670898 11.845000267028809,-6.531000137329102 11.845000267028809,0 C11.845000267028809,6.531000137329102 6.531000137329102,11.843999862670898 0,11.843999862670898z"></path></g><g opacity="1" transform="matrix(1,0,0,1,36.32500076293945,241.5449981689453)"><path fill="rgb(193,66,60)" fill-opacity="1" d=" M0,-14.843999862670898 C-8.197999954223633,-14.843999862670898 -14.843999862670898,-8.197999954223633 -14.843999862670898,0 C-14.843999862670898,8.197999954223633 -8.197999954223633,14.843999862670898 0,14.843999862670898 C8.197999954223633,14.843999862670898 14.843999862670898,8.197999954223633 14.843999862670898,0 C14.843999862670898,-8.197999954223633 8.197999954223633,-14.843999862670898 0,-14.843999862670898z"></path></g><g opacity="1" transform="matrix(1,0,0,1,36.32500076293945,241.5449981689453)"><path fill="rgb(77,67,95)" fill-opacity="1" d=" M0,-8.843999862670898 C4.876999855041504,-8.843999862670898 8.843999862670898,-4.875999927520752 8.843999862670898,0 C8.843999862670898,4.876999855041504 4.876999855041504,8.843999862670898 0,8.843999862670898 C-4.876999855041504,8.843999862670898 -8.843999862670898,4.876999855041504 -8.843999862670898,0 C-8.843999862670898,-4.875999927520752 -4.876999855041504,-8.843999862670898 0,-8.843999862670898z"></path></g><g opacity="1" transform="matrix(1,0,0,1,297.0570068359375,241.5449981689453)"><path fill="rgb(77,67,95)" fill-opacity="1" d=" M0,11.843999862670898 C-6.53000020980835,11.843999862670898 -11.845000267028809,6.531000137329102 -11.845000267028809,0 C-11.845000267028809,-6.531000137329102 -6.53000020980835,-11.843999862670898 0,-11.843999862670898 C6.531000137329102,-11.843999862670898 11.845000267028809,-6.531000137329102 11.845000267028809,0 C11.845000267028809,6.531000137329102 6.531000137329102,11.843999862670898 0,11.843999862670898z"></path></g><g opacity="1" transform="matrix(1,0,0,1,297.0570068359375,241.5449981689453)"><path fill="rgb(193,66,60)" fill-opacity="1" d=" M0,-14.843999862670898 C-8.197999954223633,-14.843999862670898 -14.843999862670898,-8.197999954223633 -14.843999862670898,0 C-14.843999862670898,8.197999954223633 -8.197999954223633,14.843999862670898 0,14.843999862670898 C8.197999954223633,14.843999862670898 14.843999862670898,8.197999954223633 14.843999862670898,0 C14.843999862670898,-8.197999954223633 8.197999954223633,-14.843999862670898 0,-14.843999862670898z"></path></g><g opacity="1" transform="matrix(1,0,0,1,297.0570068359375,241.5449981689453)"><path fill="rgb(77,67,95)" fill-opacity="1" d=" M0,-8.843999862670898 C4.875999927520752,-8.843999862670898 8.843999862670898,-4.875999927520752 8.843999862670898,0 C8.843999862670898,4.876999855041504 4.875999927520752,8.843999862670898 0,8.843999862670898 C-4.876999855041504,8.843999862670898 -8.843999862670898,4.876999855041504 -8.843999862670898,0 C-8.843999862670898,-4.875999927520752 -4.876999855041504,-8.843999862670898 0,-8.843999862670898z"></path></g><g opacity="1" transform="matrix(1,0,0,1,166.69200134277344,277.406005859375)"><path fill="rgb(17,128,195)" fill-opacity="1" d=" M-161.44200134277344,3 C-161.44200134277344,3 161.44200134277344,3 161.44200134277344,3 C163.09800720214844,3 164.44200134277344,1.656999945640564 164.44200134277344,0 C164.44200134277344,-1.656999945640564 163.09800720214844,-3 161.44200134277344,-3 C161.44200134277344,-3 -161.44200134277344,-3 -161.44200134277344,-3 C-163.0989990234375,-3 -164.44200134277344,-1.656999945640564 -164.44200134277344,0 C-164.44200134277344,1.656999945640564 -163.0989990234375,3 -161.44200134277344,3z"></path></g><g opacity="1" transform="matrix(1,0,0,1,121.27300262451172,101.13899993896484)"><path fill="rgb(240,208,154)" fill-opacity="1" d=" M-41.529998779296875,5.341000080108643 C-41.529998779296875,5.341000080108643 41.529998779296875,5.341000080108643 41.529998779296875,5.341000080108643 C41.529998779296875,5.341000080108643 31.52199935913086,-5.341000080108643 31.52199935913086,-5.341000080108643 C31.52199935913086,-5.341000080108643 -31.52199935913086,-5.341000080108643 -31.52199935913086,-5.341000080108643 C-31.52199935913086,-5.341000080108643 -41.529998779296875,5.341000080108643 -41.529998779296875,5.341000080108643z"></path></g></g></g></svg>