<svg xmlns="http://www.w3.org/2000/svg" viewBox="0 0 40 145" width="40" height="145" preserveAspectRatio="xMidYMid meet" style="width: 100%; height: 100%; transform: translate3d(0px, 0px, 0px); content-visibility: visible;"><defs><clipPath id="__lottie_element_613"><rect width="40" height="145" x="0" y="0"></rect></clipPath></defs><g clip-path="url(#__lottie_element_613)"><g transform="matrix(0.3330000042915344,0,0,0.3330000042915344,0.3423445224761963,51.921932220458984)" opacity="1" style="display: block;"><g opacity="1" transform="matrix(1,0,0,1,58.972999572753906,92.26799774169922)"><path fill="rgb(239,82,34)" fill-opacity="1" d=" M58.722999572753906,8.194999694824219 C58.722999572753906,8.194999694824219 -58.722999572753906,8.194999694824219 -58.722999572753906,8.194999694824219 C-58.722999572753906,8.194999694824219 -58.722999572753906,2.7750000953674316 -58.722999572753906,2.7750000953674316 C-58.722999572753906,-3.2839999198913574 -53.8120002746582,-8.194999694824219 -47.75400161743164,-8.194999694824219 C-47.75400161743164,-8.194999694824219 47.75400161743164,-8.194999694824219 47.75400161743164,-8.194999694824219 C53.8120002746582,-8.194999694824219 58.722999572753906,-3.2839999198913574 58.722999572753906,2.7750000953674316 C58.722999572753906,2.7750000953674316 58.722999572753906,8.194999694824219 58.722999572753906,8.194999694824219z"></path></g><g opacity="1" transform="matrix(1,0,0,1,58.972999572753906,56.81100082397461)"><path fill="rgb(239,82,34)" fill-opacity="1" d=" M47.75400161743164,27.26099967956543 C47.75400161743164,27.26099967956543 -47.75400161743164,27.26099967956543 -47.75400161743164,27.26099967956543 C-47.75400161743164,27.26099967956543 -47.75400161743164,-27.26099967956543 -47.75400161743164,-27.26099967956543 C-47.75400161743164,-27.26099967956543 47.75400161743164,-27.26099967956543 47.75400161743164,-27.26099967956543 C47.75400161743164,-27.26099967956543 47.75400161743164,27.26099967956543 47.75400161743164,27.26099967956543z"></path></g><g opacity="1" transform="matrix(1,0,0,1,58.97200012207031,70.73699951171875)"><path fill="rgb(250,175,58)" fill-opacity="1" d=" M32.49100112915039,4.445000171661377 C32.49100112915039,4.445000171661377 -32.4900016784668,4.445000171661377 -32.4900016784668,4.445000171661377 C-34.935001373291016,4.445000171661377 -36.93600082397461,2.444999933242798 -36.93600082397461,0 C-36.93600082397461,-2.446000099182129 -34.935001373291016,-4.445000171661377 -32.4900016784668,-4.445000171661377 C-32.4900016784668,-4.445000171661377 32.49100112915039,-4.445000171661377 32.49100112915039,-4.445000171661377 C34.93600082397461,-4.445000171661377 36.93600082397461,-2.446000099182129 36.93600082397461,0 C36.93600082397461,2.444999933242798 34.93600082397461,4.445000171661377 32.49100112915039,4.445000171661377z"></path></g><g opacity="1" transform="matrix(1,0,0,1,58.972999572753906,79.62699890136719)"><path fill="rgb(250,175,58)" fill-opacity="1" d=" M21.093000411987305,4.445000171661377 C21.093000411987305,4.445000171661377 -21.093000411987305,4.445000171661377 -21.093000411987305,4.445000171661377 C-23.54800033569336,4.445000171661377 -25.538000106811523,2.4549999237060547 -25.538000106811523,0 C-25.538000106811523,-2.4549999237060547 -23.54800033569336,-4.445000171661377 -21.093000411987305,-4.445000171661377 C-21.093000411987305,-4.445000171661377 21.093000411987305,-4.445000171661377 21.093000411987305,-4.445000171661377 C23.54800033569336,-4.445000171661377 25.538000106811523,-2.4549999237060547 25.538000106811523,0 C25.538000106811523,2.4549999237060547 23.54800033569336,4.445000171661377 21.093000411987305,4.445000171661377z"></path></g><g opacity="1" transform="matrix(1,0,0,1,58.972999572753906,88.51799774169922)"><path fill="rgb(250,175,58)" fill-opacity="1" d=" M6.986000061035156,-4.446000099182129 C6.986000061035156,-4.446000099182129 -6.986000061035156,-4.446000099182129 -6.986000061035156,-4.446000099182129 C-11.895999908447266,-4.446000099182129 -15.87600040435791,-0.4650000035762787 -15.87600040435791,4.446000099182129 C-15.87600040435791,4.446000099182129 -13.875,4.446000099182129 -13.875,4.446000099182129 C-13.875,4.446000099182129 13.875,4.446000099182129 13.875,4.446000099182129 C13.875,4.446000099182129 15.87600040435791,4.446000099182129 15.87600040435791,4.446000099182129 C15.87600040435791,-0.4650000035762787 11.897000312805176,-4.446000099182129 6.986000061035156,-4.446000099182129z"></path></g><g opacity="1" transform="matrix(1,0,0,1,58.972999572753906,72.35199737548828)"><path fill="rgb(95,49,29)" fill-opacity="1" d=" M11.720999717712402,0 C11.720999717712402,-6.473999977111816 6.4720001220703125,-11.720999717712402 -0.0010000000474974513,-11.720999717712402 C-6.473999977111816,-11.720999717712402 -11.720999717712402,-6.473999977111816 -11.720999717712402,0 C-11.720999717712402,6.4730000495910645 -6.473999977111816,11.720999717712402 -0.0010000000474974513,11.720999717712402 C6.4720001220703125,11.720999717712402 11.720999717712402,6.4730000495910645 11.720999717712402,0z"></path></g><g opacity="1" transform="matrix(1,0,0,1,58.972999572753906,72.35199737548828)"><path fill="rgb(255,222,177)" fill-opacity="1" d=" M8.704000473022461,0 C8.704000473022461,-4.807000160217285 4.807000160217285,-8.70300006866455 0,-8.70300006866455 C-4.806000232696533,-8.70300006866455 -8.704000473022461,-4.807000160217285 -8.704000473022461,0 C-8.704000473022461,4.807000160217285 -4.806000232696533,8.70300006866455 0,8.70300006866455 C4.807000160217285,8.70300006866455 8.704000473022461,4.807000160217285 8.704000473022461,0z"></path></g><g opacity="1" transform="matrix(1,0,0,1,58.972999572753906,45.09000015258789)"><path fill="rgb(95,49,29)" fill-opacity="1" d=" M35.779998779296875,15.541000366210938 C35.779998779296875,15.541000366210938 -35.779998779296875,15.541000366210938 -35.779998779296875,15.541000366210938 C-35.779998779296875,15.541000366210938 -35.779998779296875,-15.541000366210938 -35.779998779296875,-15.541000366210938 C-35.779998779296875,-15.541000366210938 35.779998779296875,-15.541000366210938 35.779998779296875,-15.541000366210938 C35.779998779296875,-15.541000366210938 35.779998779296875,15.541000366210938 35.779998779296875,15.541000366210938z"></path></g><g opacity="1" transform="matrix(1,0,0,1,58.972999572753906,9.552000045776367)"><path fill="rgb(255,222,177)" fill-opacity="1" d=" M21.415000915527344,9.302000045776367 C21.415000915527344,9.302000045776367 -21.415000915527344,9.302000045776367 -21.415000915527344,9.302000045776367 C-21.415000915527344,9.302000045776367 -21.415000915527344,-9.302000045776367 -21.415000915527344,-9.302000045776367 C-21.415000915527344,-9.302000045776367 21.415000915527344,-9.302000045776367 21.415000915527344,-9.302000045776367 C21.415000915527344,-9.302000045776367 21.415000915527344,9.302000045776367 21.415000915527344,9.302000045776367z"></path></g><g opacity="1" transform="matrix(1,0,0,1,0,0)"><path stroke-linecap="butt" stroke-linejoin="miter" fill-opacity="0" stroke-miterlimit="10" stroke="rgb(239,82,34)" stroke-opacity="1" stroke-width="4" d=" M78.98899841308594,63.34600067138672 C78.98899841308594,63.34600067138672 78.98899841308594,24.201000213623047 78.98899841308594,24.201000213623047"></path></g><g opacity="1" transform="matrix(1,0,0,1,0,0)"><path stroke-linecap="butt" stroke-linejoin="miter" fill-opacity="0" stroke-miterlimit="10" stroke="rgb(239,82,34)" stroke-opacity="1" stroke-width="4" d=" M38.957000732421875,63.34600067138672 C38.957000732421875,63.34600067138672 38.957000732421875,24.201000213623047 38.957000732421875,24.201000213623047"></path></g><g opacity="1" transform="matrix(1,0,0,1,58.972999572753906,24.201000213623047)"><path fill="rgb(250,175,58)" fill-opacity="1" d=" M47.75400161743164,5.3480000495910645 C47.75400161743164,5.3480000495910645 -47.75400161743164,5.3480000495910645 -47.75400161743164,5.3480000495910645 C-47.75400161743164,5.3480000495910645 -47.75400161743164,-5.3480000495910645 -47.75400161743164,-5.3480000495910645 C-47.75400161743164,-5.3480000495910645 47.75400161743164,-5.3480000495910645 47.75400161743164,-5.3480000495910645 C47.75400161743164,-5.3480000495910645 47.75400161743164,5.3480000495910645 47.75400161743164,5.3480000495910645z"></path></g><g opacity="1" transform="matrix(1,0,0,1,58.972999572753906,14.293999671936035)"><path fill="rgb(255,222,177)" fill-opacity="1" d=" M-47.75400161743164,4.559999942779541 C-47.75400161743164,-0.4560000002384186 -43.650001525878906,-4.559999942779541 -38.632999420166016,-4.559999942779541 C-38.632999420166016,-4.559999942779541 38.632999420166016,-4.559999942779541 38.632999420166016,-4.559999942779541 C43.64899826049805,-4.559999942779541 47.75400161743164,-0.4560000002384186 47.75400161743164,4.559999942779541 C47.75400161743164,4.559999942779541 -47.75400161743164,4.559999942779541 -47.75400161743164,4.559999942779541z"></path></g><g opacity="1" transform="matrix(1,0,0,1,58.972999572753906,108.80599975585938)"><path fill="rgb(250,175,58)" fill-opacity="1" d=" M47.75400161743164,-8.343999862670898 C47.75400161743164,-8.343999862670898 -47.75400161743164,-8.343999862670898 -47.75400161743164,-8.343999862670898 C-47.75400161743164,-8.343999862670898 -47.75400161743164,8.343999862670898 -47.75400161743164,8.343999862670898 C-47.75400161743164,8.343999862670898 -38.999000549316406,8.343999862670898 -38.999000549316406,8.343999862670898 C-38.999000549316406,8.343999862670898 0,1.6519999504089355 0,1.6519999504089355 C0,1.6519999504089355 39,8.343999862670898 39,8.343999862670898 C39,8.343999862670898 47.75400161743164,8.343999862670898 47.75400161743164,8.343999862670898 C47.75400161743164,8.343999862670898 47.75400161743164,-8.343999862670898 47.75400161743164,-8.343999862670898z"></path></g><g opacity="1" transform="matrix(1,0,0,1,58.972999572753906,114.6449966430664)"><path fill="rgb(77,67,95)" fill-opacity="1" d=" M39,-1.0950000286102295 C39,-5.118000030517578 35.737998962402344,-8.380000114440918 31.71500015258789,-8.380000114440918 C31.71500015258789,-8.380000114440918 -31.71500015258789,-8.380000114440918 -31.71500015258789,-8.380000114440918 C-35.737998962402344,-8.380000114440918 -39,-5.118000030517578 -39,-1.0950000286102295 C-39,-1.0950000286102295 -39,-0.4970000088214874 -39,-0.4970000088214874 C-39,-0.4970000088214874 -39,2.505000114440918 -39,2.505000114440918 C-39,2.505000114440918 -39,3.6080000400543213 -39,3.6080000400543213 C-39,6.243000030517578 -36.862998962402344,8.380000114440918 -34.22800064086914,8.380000114440918 C-31.593000411987305,8.380000114440918 -29.457000732421875,6.243000030517578 -29.457000732421875,3.6080000400543213 C-29.457000732421875,6.243000030517578 -27.31999969482422,8.380000114440918 -24.684999465942383,8.380000114440918 C-22.048999786376953,8.380000114440918 -19.913000106811523,6.243000030517578 -19.913000106811523,3.6080000400543213 C-19.913000106811523,3.6080000400543213 -19.913000106811523,2.505000114440918 -19.913000106811523,2.505000114440918 C-19.913000106811523,2.505000114440918 19.91200065612793,2.505000114440918 19.91200065612793,2.505000114440918 C19.91200065612793,2.505000114440918 19.91200065612793,3.6080000400543213 19.91200065612793,3.6080000400543213 C19.91200065612793,6.243000030517578 22.04800033569336,8.380000114440918 24.68400001525879,8.380000114440918 C27.319000244140625,8.380000114440918 29.454999923706055,6.243000030517578 29.454999923706055,3.6080000400543213 C29.454999923706055,6.243000030517578 31.591999053955078,8.380000114440918 34.22700119018555,8.380000114440918 C36.86199951171875,8.380000114440918 38.999000549316406,6.243000030517578 38.999000549316406,3.6080000400543213 C38.999000549316406,3.6080000400543213 38.999000549316406,2.505000114440918 38.999000549316406,2.505000114440918 C38.999000549316406,2.505000114440918 39,2.505000114440918 39,2.505000114440918 C39,2.505000114440918 39,-1.0950000286102295 39,-1.0950000286102295z"></path></g><g opacity="1" transform="matrix(1,0,0,1,58.972999572753906,9.552000045776367)"><path fill="rgb(77,67,95)" fill-opacity="1" d=" M-17.415000915527344,5.302000045776367 C-17.415000915527344,5.302000045776367 17.415000915527344,5.302000045776367 17.415000915527344,5.302000045776367 C17.415000915527344,5.302000045776367 17.415000915527344,-5.302000045776367 17.415000915527344,-5.302000045776367 C17.415000915527344,-5.302000045776367 -17.415000915527344,-5.302000045776367 -17.415000915527344,-5.302000045776367 C-17.415000915527344,-5.302000045776367 -17.415000915527344,5.302000045776367 -17.415000915527344,5.302000045776367z"></path></g></g></g></svg>