<svg xmlns="http://www.w3.org/2000/svg" viewBox="0 0 44 40" width="44" height="40" preserveAspectRatio="xMidYMid meet" style="width: 100%; height: 100%; transform: translate3d(0px, 0px, 0px); content-visibility: visible;"><defs><clipPath id="__lottie_element_1745"><rect width="44" height="40" x="0" y="0"></rect></clipPath></defs><g clip-path="url(#__lottie_element_1745)"><g transform="matrix(0.33329999446868896,0,0,0.33329999446868896,10.53445053100586,2.935250759124756)" opacity="1" style="display: block;"><g opacity="1" transform="matrix(1,0,0,1,19.631000518798828,86.28900146484375)"><path fill="rgb(167,95,68)" fill-opacity="1" d=" M-1.0119999647140503,-23.40399932861328 C-2.947000026702881,-12.25 -2.8889999389648438,-0.7540000081062317 -0.8429999947547913,10.380000114440918 C-4.283999919891357,11.64900016784668 -7.478000164031982,13.581999778747559 -10.208999633789062,16.0310001373291 C-11.246000289916992,16.961000442504883 -10.324999809265137,18.67099952697754 -8.967000007629395,18.363000869750977 C-8.967000007629395,18.363000869750977 -0.5590000152587891,16.450000762939453 -0.5590000152587891,16.450000762939453 C-0.6240000128746033,18.611000061035156 0.061000000685453415,20.784000396728516 1.3270000219345093,22.53499984741211 C1.9550000429153442,23.40399932861328 3.3299999237060547,23.21500015258789 3.7039999961853027,22.209999084472656 C4.006999969482422,21.39900016784668 4.182000160217285,20.41200065612793 4.59499979019165,19.67099952697754 C5.484000205993652,18.07699966430664 7.3379998207092285,17.812999725341797 9.244999885559082,18.110000610351562 C10.40999984741211,18.291000366210938 11.246000289916992,16.959999084472656 10.569000244140625,15.994000434875488 C8.890999794006348,13.60099983215332 6.658999919891357,11.595000267028809 4.085999965667725,10.206000328063965 C3.5929999351501465,1.1119999885559082 4.925000190734863,-8.07800006866455 7.980999946594238,-16.658000946044922"></path></g><g opacity="1" transform="matrix(1,0,0,1,46.77000045776367,86.28900146484375)"><path fill="rgb(167,95,68)" fill-opacity="1" d=" M1.0119999647140503,-23.40399932861328 C2.947999954223633,-12.25 2.8889999389648438,-0.7540000081062317 0.8429999947547913,10.380000114440918 C4.283999919891357,11.64900016784668 7.478000164031982,13.581999778747559 10.208000183105469,16.0310001373291 C11.246000289916992,16.961000442504883 10.324999809265137,18.67099952697754 8.967000007629395,18.363000869750977 C8.967000007629395,18.363000869750977 0.5590000152587891,16.450000762939453 0.5590000152587891,16.450000762939453 C0.6240000128746033,18.611000061035156 -0.061000000685453415,20.784000396728516 -1.3270000219345093,22.53499984741211 C-1.9550000429153442,23.40399932861328 -3.3299999237060547,23.21500015258789 -3.7049999237060547,22.209999084472656 C-4.007999897003174,21.39900016784668 -4.182000160217285,20.41200065612793 -4.59499979019165,19.67099952697754 C-5.484000205993652,18.07699966430664 -7.3379998207092285,17.812999725341797 -9.244999885559082,18.110000610351562 C-10.40999984741211,18.291000366210938 -11.246000289916992,16.959999084472656 -10.569000244140625,15.994000434875488 C-8.890999794006348,13.60099983215332 -6.658999919891357,11.595000267028809 -4.085999965667725,10.206000328063965 C-3.5929999351501465,1.1119999885559082 -4.925000190734863,-8.07800006866455 -7.980999946594238,-16.658000946044922"></path></g></g><g transform="matrix(0.30749908089637756,0.1285814344882965,-0.1285814344882965,0.30749908089637756,-30.80630874633789,-56.89554214477539)" opacity="1" style="display: block;"><g opacity="1" transform="matrix(1,0,0,1,266.9830017089844,130.6719970703125)"><path fill="rgb(111,100,78)" fill-opacity="1" d=" M-24.10700035095215,-9.1850004196167 C-13.468000411987305,-7.631999969482422 -8.680999755859375,-8.737000465393066 0.3310000002384186,-7.456999778747559 C6.296000003814697,-6.610000133514404 14.093000411987305,-4.558000087738037 19.540000915527344,-2.005000114440918 C21.42300033569336,-1.1230000257492065 24.10700035095215,0.9150000214576721 22.216999053955078,3.0239999294281006 C20.356000900268555,5.10099983215332 15.593000411987305,4.24399995803833 13.062999725341797,4.507999897003174 C8.984000205993652,4.935999870300293 0.9020000100135803,7.086999893188477 -3.0220000743865967,8.279000282287598 C-7.565999984741211,9.65999984741211 -11.005000114440918,11.458000183105469 -13.668999671936035,10.770000457763672 C-18.041000366210938,9.640999794006348 -24.10700035095215,-9.1850004196167 -24.10700035095215,-9.1850004196167z"></path></g></g><g transform="matrix(0.28561124205589294,0.17179958522319794,-0.17179958522319794,0.28561124205589294,-23.129331588745117,-63.63589096069336)" opacity="1" style="display: block;"><g opacity="1" transform="matrix(1,0,0,1,206.4080047607422,156.0489959716797)"><path fill="rgb(111,100,78)" fill-opacity="1" d=" M9.184000015258789,-22.118999481201172 C3.869999885559082,-12.77299976348877 0.0560000017285347,-9.675999641418457 -4.474999904632568,-1.7799999713897705 C-7.4730000495910645,3.444999933242798 -10.647000312805176,10.857000350952148 -11.982000350952148,16.722999572753906 C-12.444000244140625,18.75 -12.484999656677246,22.118999481201172 -9.66100025177002,21.924999237060547 C-6.877999782562256,21.733999252319336 -4.627999782562256,17.448999404907227 -2.86299991607666,15.616999626159668 C-0.01899999938905239,12.661999702453613 3.2090001106262207,10.074999809265137 6.714000225067139,7.945000171661377 C8.418999671936035,6.909999847412109 15.376999855041504,2.683000087738037 16.753000259399414,-0.6119999885559082 C17.67099952697754,-2.809999942779541 9.184000015258789,-22.118999481201172 9.184000015258789,-22.118999481201172z"></path></g></g><g transform="matrix(0.31787383556365967,0.10022523999214172,-0.10022523999214172,0.31787383556365967,-38.9300651550293,-52.69500732421875)" opacity="1" style="display: block;"><g opacity="1" transform="matrix(1,0,0,1,240.08399963378906,146.83099365234375)"><path fill="rgb(111,100,78)" fill-opacity="1" d=" M9.4350004196167,35.71900177001953 C31.51099967956543,28.253000259399414 32.20000076293945,7.295000076293945 29.878000259399414,0.4300000071525574 C25.90999984741211,-11.305000305175781 19.14299964904785,-16.530000686645508 12.677000045776367,-23.607999801635742 C7.620999813079834,-29.143999099731445 5.068999767303467,-34.68000030517578 -0.7710000276565552,-39.49800109863281 C-5.243000030517578,-43.185001373291016 -12.239999771118164,-43.027000427246094 -16.62700080871582,-41.34199905395508 C-21.13599967956543,-40.018001556396484 -26.795000076293945,-35.89699935913086 -28.108999252319336,-30.253000259399414 C-29.82699966430664,-22.8799991607666 -28.4950008392334,-16.93000030517578 -29.152999877929688,-9.461000442504883 C-29.996000289916992,0.08799999952316284 -32.19900131225586,8.347000122070312 -28.229999542236328,20.082000732421875 C-25.909000396728516,26.947999954223633 -12.640000343322754,43.185001373291016 9.4350004196167,35.71900177001953z"></path></g><g opacity="1" transform="matrix(1,0,0,1,230.0709991455078,118.75499725341797)"><path fill="rgb(245,138,70)" fill-opacity="1" d=" M-0.3050000071525574,5.389999866485596 C3.6689999103546143,4.046000003814697 8.03499984741211,5.690999984741211 10.151000022888184,7.372000217437744 C10.109999656677246,7.340000152587891 10.83899974822998,5.681000232696533 10.894000053405762,5.497000217437744 C11.182999610900879,4.539000034332275 11.281000137329102,3.6019999980926514 11.026000022888184,2.6659998893737793 C13.630000114440918,2.944000005722046 16.093000411987305,3.809999942779541 18.14299964904785,5.1539998054504395 C18.4950008392334,5.385000228881836 19.03499984741211,5.0970001220703125 18.988000869750977,4.697000026702881 C18.80699920654297,3.1519999504089355 18.150999069213867,1.444000005722046 16.836999893188477,0.006000000052154064 C16.836999893188477,0.006000000052154064 18.429000854492188,0.0430000014603138 19.92099952697754,0.10199999809265137 C20.356000900268555,0.11999999731779099 21.03700065612793,-0.24799999594688416 20.902000427246094,-0.7649999856948853 C20.809999465942383,-1.11899995803833 20.486000061035156,-1.3559999465942383 20.18600082397461,-1.565000057220459 C17.656999588012695,-3.3320000171661377 14.880999565124512,-6.449999809265137 11.968999862670898,-9.64799976348877 C8.017999649047852,-13.98799991607666 2.2799999713897705,-16.89699935913086 -6.803999900817871,-13.826000213623047 C-15.887999534606934,-10.753999710083008 -18.68199920654297,-4.959000110626221 -19.187999725341797,0.8889999985694885 C-19.56100082397461,5.197000026702881 -19.87299919128418,9.361000061035156 -20.812000274658203,12.300000190734863 C-20.92300033569336,12.64900016784668 -21.03700065612793,13.034000396728516 -20.895999908447266,13.371000289916992 C-20.68899917602539,13.86400032043457 -19.924999237060547,13.741999626159668 -19.589000701904297,13.46399974822998 C-18.440000534057617,12.512999534606934 -17.19700050354004,11.515000343322754 -17.19700050354004,11.515000343322754 C-17.368000030517578,13.454999923706055 -16.854000091552734,15.211999893188477 -16.05900001525879,16.548999786376953 C-15.852999687194824,16.895999908447266 -15.24899959564209,16.79599952697754 -15.111000061035156,16.39900016784668 C-14.29800033569336,14.086000442504883 -12.86400032043457,11.904999732971191 -10.963000297546387,10.104999542236328 C-10.597999572753906,11.001999855041504 -9.951000213623047,11.687000274658203 -9.140000343322754,12.27299976348877 C-8.984999656677246,12.385000228881836 -7.400000095367432,13.26200008392334 -7.4120001792907715,13.312999725341797 C-6.75,10.692999839782715 -4.2789998054504395,6.734000205993652 -0.3050000071525574,5.389999866485596z"></path></g><g opacity="1" transform="matrix(1,0,0,1,241.01100158691406,147.92799377441406)"><path fill="rgb(240,208,154)" fill-opacity="1" d=" M9.317000389099121,36.92499923706055 C16.47800064086914,34.50299835205078 22.166000366210938,28.812999725341797 24.70400047302246,21.08799934387207 C26.535999298095703,15.51099967956543 26.610000610351562,9.112000465393066 25.0939998626709,3.190000057220459 C23.84000015258789,-1.7070000171661377 21.409000396728516,-6.421999931335449 17.743000030517578,-9.765999794006348 C14.055999755859375,-13.130000114440918 9.70199966430664,-14.630999565124512 5.150000095367432,-15.401000022888184 C4.603000164031982,-15.494000434875488 4.038000106811523,-15.586999893188477 3.553999900817871,-15.906999588012695 C2.312999963760376,-16.729000091552734 3.0399999618530273,-17.81599998474121 3.302999973297119,-18.891000747680664 C3.5999999046325684,-20.099000930786133 3.7660000324249268,-21.38599967956543 3.505000114440918,-22.66200065612793 C3.0799999237060547,-24.739999771118164 1.319000005722046,-26.437000274658203 -0.6489999890327454,-26.222999572753906 C-2.2839999198913574,-26.045000076293945 -4.078999996185303,-25.83799934387207 -5.507999897003174,-26.860000610351562 C-7.041999816894531,-27.95800018310547 -8.399999618530273,-28.488000869750977 -9.005999565124512,-30.652999877929688 C-9.762999534606934,-33.35599899291992 -7.820000171661377,-36.654998779296875 -9.253000259399414,-39.21799850463867 C-10.696999549865723,-39.05099868774414 -11.467000007629395,-37.39899826049805 -12.661999702453613,-36.564998626708984 C-12.748000144958496,-36.505001068115234 -12.847000122070312,-36.446998596191406 -12.95300006866455,-36.465999603271484 C-13.081000328063965,-36.48899841308594 -13.173999786376953,-36.617000579833984 -13.255999565124512,-36.733001708984375 C-14.086000442504883,-37.90999984741211 -15.223999977111816,-38.83300018310547 -16.482999801635742,-39.3489990234375 C-17.16900062561035,-38.17599868774414 -17.51300048828125,-36.750999450683594 -17.45800018310547,-35.3120002746582 C-17.45400047302246,-35.17100143432617 -17.450000762939453,-35.012001037597656 -17.53700065612793,-34.915000915527344 C-17.610000610351562,-34.83599853515625 -17.722999572753906,-34.821998596191406 -17.82900047302246,-34.81800079345703 C-19.28499984741211,-34.75600051879883 -20.89900016784668,-35.5989990234375 -22.148000717163086,-34.856998443603516 C-21.73200035095215,-31.950000762939453 -18.184999465942383,-30.507999420166016 -17.145999908447266,-27.899999618530273 C-16.312999725341797,-25.81100082397461 -17.06999969482422,-24.56599998474121 -17.62299919128418,-22.76300048828125 C-18.138999938964844,-21.08300018310547 -19.69099998474121,-20.158000946044922 -21.099000930786133,-19.305999755859375 C-22.79199981689453,-18.283000946044922 -23.16200065612793,-15.866000175476074 -22.23900032043457,-13.956000328063965 C-21.67099952697754,-12.781999588012695 -20.759000778198242,-11.861000061035156 -19.788999557495117,-11.081000328063965 C-18.927000045776367,-10.38700008392334 -17.690000534057617,-9.96399974822998 -18.177000045776367,-8.557000160217285 C-18.367000579833984,-8.010000228881836 -18.760000228881836,-7.5929999351501465 -19.13800048828125,-7.186999797821045 C-22.288000106811523,-3.811000108718872 -24.83799934387207,0.024000000208616257 -25.72599983215332,4.934999942779541 C-26.610000610351562,9.817999839782715 -25.68000030517578,15.039999961853027 -23.70400047302246,19.694000244140625 C-21.315000534057617,25.31999969482422 -17.371000289916992,30.361000061035156 -12.531000137329102,33.68000030517578 C-5.826000213623047,38.27899932861328 2.1489999294281006,39.3489990234375 9.3100004196167,36.926998138427734 C9.3100004196167,36.926998138427734 9.317000389099121,36.92499923706055 9.317000389099121,36.92499923706055z"></path></g><g opacity="1" transform="matrix(1,0,0,1,233.74899291992188,130.8090057373047)"><path fill="rgb(193,66,60)" fill-opacity="1" d=" M6.621899604797363,0.248155876994133 C5.921217441558838,-1.442835807800293 4.04184627532959,-3.798168420791626 1.9076814651489258,-5.590372085571289 C-0.25079479813575745,-7.38771915435791 -2.690805196762085,-8.609302520751953 -4.4516921043396,-8.014415740966797 C-5.276156425476074,-7.735546112060547 -6.037735462188721,-6.758686542510986 -6.6115031242370605,-5.4241461753845215 C-7.1709723472595215,-4.107518196105957 -7.570881366729736,-2.4284534454345703 -7.706624984741211,-0.7017263174057007 C-7.806471347808838,0.5460425019264221 -7.944520950317383,2.26468563079834 -7.722357273101807,3.8477680683135986 C-7.500194072723389,5.430850505828857 -6.914174556732178,6.87788200378418 -5.577159881591797,7.580549716949463 C-4.233365058898926,8.270002365112305 -3.320622444152832,7.940091133117676 -2.4916627407073975,7.3281426429748535 C-1.6659181118011475,6.718122959136963 -0.9310295581817627,5.8212995529174805 0.03566426783800125,5.363770008087158 C1.0808473825454712,4.869403839111328 3.0740649700164795,4.833454132080078 4.658254623413086,4.390538215637207 C6.246363639831543,3.9472239017486572 7.4222092628479,3.102802276611328 6.838710784912109,0.961966872215271 C6.819131851196289,0.8425890207290649 6.791450500488281,0.7198020815849304 6.754818439483643,0.6000867486000061 C6.718186855316162,0.48037147521972656 6.672553539276123,0.362635999917984 6.621899604797363,0.248155876994133z"></path></g><g opacity="1" transform="matrix(1,0,0,1,223.98599243164062,106.71399688720703)"><path fill="rgb(111,100,78)" fill-opacity="1" d=" M5.801000118255615,-4.296000003814697 C5.540999889373779,-4.01800012588501 5.256999969482422,-3.763000011444092 4.951000213623047,-3.5350000858306885 C4.7789998054504395,-3.4059998989105225 4.5929999351501465,-3.2829999923706055 4.382999897003174,-3.234999895095825 C4.129000186920166,-3.177999973297119 3.868000030517578,-3.253999948501587 3.6110000610351562,-3.2860000133514404 C2.434999942779541,-3.431999921798706 0.7960000038146973,-3.503999948501587 -1.0579999685287476,-2.875999927520752 C-2.9140000343322754,-2.249000072479248 -4.172999858856201,-1.1970000267028809 -5.01800012588501,-0.36800000071525574 C-5.203999996185303,-0.1860000044107437 -5.364999771118164,0.032999999821186066 -5.60099983215332,0.14100000262260437 C-5.797999858856201,0.23000000417232513 -6.01800012588501,0.24500000476837158 -6.232999801635742,0.24799999594688416 C-6.613999843597412,0.25200000405311584 -6.995999813079834,0.22200000286102295 -7.372000217437744,0.15800000727176666 C-7.689000129699707,2.8519999980926514 -5.614999771118164,4.09499979019165 -4.703000068664551,4.296000003814697 C-4.135000228881836,2.305999994277954 -2.7679998874664307,0.3019999861717224 -0.27000001072883606,-0.5440000295639038 C2.2290000915527344,-1.3890000581741333 4.53000020980835,-0.625 6.190999984741211,0.6110000014305115 C6.794000148773193,-0.10199999809265137 7.689000129699707,-2.3480000495910645 5.801000118255615,-4.296000003814697z"></path></g><g opacity="1" transform="matrix(1,0,0,1,223.51499938964844,102.37799835205078)"><path fill="rgb(111,100,78)" fill-opacity="1" d=" M-3.572999954223633,4.0289998054504395 C-3.555000066757202,4.0229997634887695 -3.48799991607666,-1.3839999437332153 -3.4240000247955322,-1.8949999809265137 C-3.3989999294281006,-2.0880000591278076 -3.3389999866485596,-2.322000026702881 -3.1500000953674316,-2.369999885559082 C-2.9779999256134033,-2.4149999618530273 -2.819000005722046,-2.2730000019073486 -2.703000068664551,-2.1389999389648438 C-2.0320000648498535,-1.3660000562667847 -1.5210000276565552,-0.4519999921321869 -1.2139999866485596,0.5239999890327454 C-0.7940000295639038,0.46000000834465027 -0.5019999742507935,0.08699999749660492 -0.24300000071525574,-0.24899999797344208 C0.8510000109672546,-1.6729999780654907 2.138000011444092,-2.9489998817443848 3.572999954223633,-4.0289998054504395 C3.3469998836517334,-2.2230000495910645 3.121000051498413,-0.4169999957084656 2.8949999809265137,1.3890000581741333 C2.8350000381469727,1.8660000562667847 2.7039999961853027,2.434999942779541 2.249000072479248,2.5910000801086426 C1.7949999570846558,2.744999885559082 1.156999945640564,2.6600000858306885 0.6959999799728394,2.7639999389648438 C0.09799999743700027,2.8989999294281006 -0.5619999766349792,3.191999912261963 -1.1759999990463257,3.36299991607666 C-1.9700000286102295,3.5840001106262207 -2.7899999618530273,3.7669999599456787 -3.572999954223633,4.0289998054504395z"></path></g><g opacity="1" transform="matrix(0.25420254468917847,-0.08114593476057053,0.08114593476057053,0.25420254468917847,218.25900268554688,119.86699676513672)"><path fill="rgb(77,67,94)" fill-opacity="1" d=" M19,0 C19,0 19,0 19,0 C19,10.168363571166992 10.744077682495117,18.424285888671875 0.575714111328125,18.424285888671875 C0.575714111328125,18.424285888671875 -0.575714111328125,18.424285888671875 -0.575714111328125,18.424285888671875 C-10.744077682495117,18.424285888671875 -19,10.168363571166992 -19,0 C-19,0 -19,0 -19,0 C-19,-10.168363571166992 -10.744077682495117,-18.424285888671875 -0.575714111328125,-18.424285888671875 C-0.575714111328125,-18.424285888671875 0.575714111328125,-18.424285888671875 0.575714111328125,-18.424285888671875 C10.744077682495117,-18.424285888671875 19,-10.168363571166992 19,0z"></path></g><g opacity="1" transform="matrix(0.25420254468917847,-0.08114593476057053,0.08114593476057053,0.25420254468917847,236.50900268554688,113.86699676513672)"><path fill="rgb(77,67,94)" fill-opacity="1" d=" M19,0 C19,0 19,0 19,0 C19,10.168363571166992 10.744077682495117,18.424285888671875 0.575714111328125,18.424285888671875 C0.575714111328125,18.424285888671875 -0.575714111328125,18.424285888671875 -0.575714111328125,18.424285888671875 C-10.744077682495117,18.424285888671875 -19,10.168363571166992 -19,0 C-19,0 -19,0 -19,0 C-19,-10.168363571166992 -10.744077682495117,-18.424285888671875 -0.575714111328125,-18.424285888671875 C-0.575714111328125,-18.424285888671875 0.575714111328125,-18.424285888671875 0.575714111328125,-18.424285888671875 C10.744077682495117,-18.424285888671875 19,-10.168363571166992 19,0z"></path></g></g></g></svg>