<svg xmlns="http://www.w3.org/2000/svg" viewBox="0 0 89 101" width="89" height="101" preserveAspectRatio="xMidYMid meet" style="width: 100%; height: 100%; transform: translate3d(0px, 0px, 0px); content-visibility: visible;"><defs><clipPath id="__lottie_element_1760"><rect width="89" height="101" x="0" y="0"></rect></clipPath></defs><g clip-path="url(#__lottie_element_1760)"><g transform="matrix(0.33329999446868896,0,0,0.33329999446868896,-38.496150970458984,-8.226449966430664)" opacity="1" style="display: block;"><g opacity="1" transform="matrix(1,0,0,1,142.2310028076172,116.63500213623047)"><path fill="rgb(0,150,215)" fill-opacity="1" d=" M-25.822999954223633,36.84000015258789 C-30.992000579833984,25.479000091552734 -33.28900146484375,17.96299934387207 -33.30400085449219,1.8519999980926514 C-33.321998596191406,-17.47599983215332 -18.427000045776367,-36.805999755859375 -0.032999999821186066,-36.823001861572266 C18.361000061035156,-36.84000015258789 33.290000915527344,-17.53700065612793 33.30699920654297,1.7910000085830688 C33.321998596191406,17.902999877929688 31.038000106811523,25.422000885009766 25.889999389648438,36.792999267578125 C25.889999389648438,36.792999267578125 -25.822999954223633,36.84000015258789 -25.822999954223633,36.84000015258789z"></path></g><g opacity="1" transform="matrix(1,0,0,1,84.79399871826172,132)"><path fill="rgb(199,219,66)" fill-opacity="1" d=" M10.838000297546387,-8.6899995803833 C13.057000160217285,-6.072000026702881 14.97599983215332,-2.0799999237060547 14.795000076293945,1.4459999799728394 C14.423999786376953,8.680999755859375 7.941999912261963,5.370999813079834 6.651000022888184,0.4659999907016754 C5.60099983215332,4.334000110626221 3.365000009536743,7.872000217437744 0.32199999690055847,10.480999946594238 C-1.4869999885559082,12.031999588012695 -3.6649999618530273,13.288000106811523 -6.041999816894531,13.456000328063965 C-14.97599983215332,14.092000007629395 -13.284000396728516,4.373000144958496 -10.579000473022461,-0.6850000023841858 C-7.750999927520752,-5.973999977111816 -2.946000099182129,-11.35200023651123 2.4649999141693115,-14.092000007629395 C2.4649999141693115,-14.092000007629395 10.838000297546387,-8.6899995803833 10.838000297546387,-8.6899995803833z"></path></g><g opacity="1" transform="matrix(1,0,0,1,142.21299743652344,97.24600219726562)"><path stroke-linecap="round" stroke-linejoin="round" fill-opacity="0" stroke="rgb(77,67,95)" stroke-opacity="1" stroke-width="7.29" d=" M-27.56800079345703,0.02500000037252903 C-27.56800079345703,0.02500000037252903 27.566999435424805,-0.02500000037252903 27.566999435424805,-0.02500000037252903"></path></g><g opacity="1" transform="matrix(1,0,0,1,142.16000366210938,38.17100143432617)"><path fill="rgb(199,219,66)" fill-opacity="1" d=" M-5.359000205993652,0.004999999888241291 C-5.361000061035156,-2.9549999237060547 -2.9649999141693115,-5.355999946594238 -0.006000000052154064,-5.359000205993652 C2.9539999961853027,-5.361000061035156 5.355000019073486,-2.9649999141693115 5.357999801635742,-0.004999999888241291 C5.361000061035156,2.9549999237060547 2.9649999141693115,5.35699987411499 0.004999999888241291,5.359000205993652 C-2.9549999237060547,5.361000061035156 -5.355999946594238,2.9649999141693115 -5.359000205993652,0.004999999888241291z"></path></g><g opacity="1" transform="matrix(1,0,0,1,142.18600463867188,53.08599853515625)"><path fill="rgb(199,219,66)" fill-opacity="1" d=" M1.968999981880188,-14.916999816894531 C1.968999981880188,-14.916999816894531 3.63100004196167,14.90999984741211 3.63100004196167,14.90999984741211 C3.63100004196167,14.90999984741211 -3.63100004196167,14.916999816894531 -3.63100004196167,14.916999816894531 C-3.63100004196167,14.916999816894531 -2.0230000019073486,-14.913000106811523 -2.0230000019073486,-14.913000106811523 C-2.0230000019073486,-14.913000106811523 1.968999981880188,-14.916999816894531 1.968999981880188,-14.916999816894531z"></path></g><g opacity="1" transform="matrix(1,0,0,1,142.19700622558594,78.6989974975586)"><path fill="rgb(199,219,66)" fill-opacity="1" d=" M-34.30699920654297,0.03099999949336052 C-34.31700134277344,-11.333999633789062 -18.965999603271484,-20.559999465942383 -0.01899999938905239,-20.57699966430664 C18.927000045776367,-20.594999313354492 34.29499816894531,-11.395999908447266 34.30500030517578,-0.029999999329447746 C34.316001892089844,11.335000038146973 18.964000701904297,20.56100082397461 0.017999999225139618,20.57900047302246 C-18.929000854492188,20.59600067138672 -34.29600143432617,11.395999908447266 -34.30699920654297,0.03099999949336052z"></path></g><g opacity="1" transform="matrix(1,0,0,1,108.01799774169922,75.08000183105469)"><path fill="rgb(199,219,66)" fill-opacity="1" d=" M-3.617000102996826,-10.833999633789062 C-3.617000102996826,-10.833999633789062 6.427999973297119,6.493000030517578 6.427999973297119,6.493000030517578 C7.1519999504089355,7.741000175476074 6.591000080108643,9.449999809265137 5.340000152587891,9.814000129699707 C5.340000152587891,9.814000129699707 -3.3980000019073486,12.35200023651123 -3.3980000019073486,12.35200023651123 C-4.513000011444092,12.675000190734863 -5.609000205993652,11.75100040435791 -5.697000026702881,10.413000106811523 C-5.697000026702881,10.413000106811523 -7.005000114440918,-9.451000213623047 -7.005000114440918,-9.451000213623047 C-7.151000022888184,-11.668999671936035 -4.684999942779541,-12.675999641418457 -3.617000102996826,-10.833999633789062z"></path></g><g opacity="1" transform="matrix(1,0,0,1,176.36399841308594,75.01000213623047)"><path fill="rgb(199,219,66)" fill-opacity="1" d=" M3.6019999980926514,-10.831999778747559 C3.6019999980926514,-10.831999778747559 -6.413000106811523,6.513999938964844 -6.413000106811523,6.513999938964844 C-7.133999824523926,7.763000011444092 -6.571000099182129,9.470999717712402 -5.317999839782715,9.831999778747559 C-5.317999839782715,9.831999778747559 3.4240000247955322,12.354000091552734 3.4240000247955322,12.354000091552734 C4.539000034332275,12.675999641418457 5.633999824523926,11.74899959564209 5.71999979019165,10.41100025177002 C5.71999979019165,10.41100025177002 6.992000102996826,-9.456999778747559 6.992000102996826,-9.456999778747559 C7.132999897003174,-11.675000190734863 4.665999889373779,-12.675999641418457 3.6019999980926514,-10.831999778747559z"></path></g><g opacity="1" transform="matrix(1,0,0,1,142.19000244140625,71.15699768066406)"><path fill="rgb(106,189,81)" fill-opacity="1" d=" M-4.320000171661377,0.004000000189989805 C-4.322000026702881,-2.382999897003174 -2.390000104904175,-4.317999839782715 -0.004000000189989805,-4.320000171661377 C2.381999969482422,-4.322999954223633 4.317999839782715,-2.3910000324249268 4.321000099182129,-0.004999999888241291 C4.322999954223633,2.381999969482422 2.390000104904175,4.316999912261963 0.004000000189989805,4.320000171661377 C-2.381999969482422,4.322000026702881 -4.317999839782715,2.390000104904175 -4.320000171661377,0.004000000189989805z"></path></g><g opacity="1" transform="matrix(1,0,0,1,160.87399291992188,77.26399993896484)"><path fill="rgb(106,189,81)" fill-opacity="1" d=" M-3.819000005722046,-2.0190000534057617 C-2.7049999237060547,-4.127999782562256 -0.09099999815225601,-4.934000015258789 2.0190000534057617,-3.819999933242798 C4.129000186920166,-2.7049999237060547 4.934999942779541,-0.09300000220537186 3.821000099182129,2.0169999599456787 C2.7070000171661377,4.126999855041504 0.09200000017881393,4.934000015258789 -2.0179998874664307,3.819000005722046 C-4.127999782562256,2.7049999237060547 -4.934000015258789,0.09099999815225601 -3.819000005722046,-2.0190000534057617z"></path></g><g opacity="1" transform="matrix(1,0,0,1,123.51499938964844,77.2979965209961)"><path fill="rgb(106,189,81)" fill-opacity="1" d=" M3.816999912261963,-2.0250000953674316 C2.697999954223633,-4.131999969482422 0.08299999684095383,-4.934999942779541 -2.0250000953674316,-3.816999912261963 C-4.132999897003174,-2.6989998817443848 -4.934000015258789,-0.08399999886751175 -3.815999984741211,2.0250000953674316 C-2.697999954223633,4.131999969482422 -0.08299999684095383,4.934999942779541 2.0250000953674316,3.816999912261963 C4.132999897003174,2.6989998817443848 4.934999942779541,0.08299999684095383 3.816999912261963,-2.0250000953674316z"></path></g><g opacity="1" transform="matrix(1,0,0,1,142.23500061035156,127.36499786376953)"><path fill="rgb(17,128,195)" fill-opacity="1" d=" M32.35900115966797,5.906000137329102 C32.35900115966797,5.906000137329102 -32.33700180053711,5.966000080108643 -32.33700180053711,5.966000080108643 C-32.86899948120117,2.51200008392334 -33.15399932861328,-1.3830000162124634 -33.249000549316406,-5.90500020980835 C-33.249000549316406,-5.90500020980835 33.249000549316406,-5.966000080108643 33.249000549316406,-5.966000080108643 C33.1619987487793,-1.4450000524520874 32.88399887084961,2.4519999027252197 32.35900115966797,5.906000137329102z"></path></g><g opacity="1" transform="matrix(1,0,0,1,103.91100311279297,115)"><path stroke-linecap="butt" stroke-linejoin="miter" fill-opacity="0" stroke-miterlimit="10" stroke="rgb(0,150,215)" stroke-opacity="1" stroke-width="14.581" d=" M12.741999626159668,-6.745999813079834 C2.430000066757202,-7.59499979019165 -8.114999771118164,-1.659000039100647 -12.741999626159668,7.59499979019165"></path></g><g opacity="1" transform="matrix(1,0,0,1,170.10699462890625,148.15899658203125)"><path fill="rgb(77,67,95)" fill-opacity="1" d=" M3.046999931335449,-8.020999908447266 C3.046999931335449,-8.020999908447266 -10.70300006866455,-6.933000087738037 -20.663000106811523,5.285999774932861 C-20.663000106811523,5.285999774932861 13.319000244140625,8.020999908447266 16.992000579833984,7.061999797821045 C20.663999557495117,6.103000164031982 17.808000564575195,-0.4440000057220459 3.046999931335449,-8.020999908447266z"></path></g><g opacity="1" transform="matrix(1,0,0,1,114.4219970703125,148.22500610351562)"><path fill="rgb(77,67,95)" fill-opacity="1" d=" M-3.071000099182129,-8.029999732971191 C-3.071000099182129,-8.029999732971191 10.680999755859375,-6.9679999351501465 20.663000106811523,5.234000205993652 C20.663000106811523,5.234000205993652 -13.3149995803833,8.029999732971191 -16.988000869750977,7.077000141143799 C-20.663000106811523,6.125 -17.819000244140625,-0.4259999990463257 -3.071000099182129,-8.029999732971191z"></path></g><g opacity="1" transform="matrix(1,0,0,1,158.5,111.48400115966797)"><path fill="rgb(250,175,58)" fill-opacity="1" d=" M-6.38700008392334,0.006000000052154064 C-6.389999866485596,-3.5220000743865967 -3.5329999923706055,-6.385000228881836 -0.004999999888241291,-6.388000011444092 C3.5230000019073486,-6.390999794006348 6.383999824523926,-3.5339999198913574 6.38700008392334,-0.006000000052154064 C6.389999866485596,3.5220000743865967 3.5339999198913574,6.383999824523926 0.007000000216066837,6.388000011444092 C-3.5209999084472656,6.390999794006348 -6.383999824523926,3.5329999923706055 -6.38700008392334,0.006000000052154064z"></path></g><g opacity="1" transform="matrix(1,0,0,1,199.70599365234375,131.88400268554688)"><path fill="rgb(199,219,66)" fill-opacity="1" d=" M-10.86400032043457,-8.657999992370605 C-13.079000473022461,-6.0370001792907715 -14.989999771118164,-2.0399999618530273 -14.803000450134277,1.4859999418258667 C-14.418999671936035,8.720000267028809 -7.942999839782715,5.396999835968018 -6.659999847412109,0.49000000953674316 C-5.603000164031982,4.35699987411499 -3.3610000610351562,7.889999866485596 -0.3140000104904175,10.493000030517578 C1.4980000257492065,12.039999961853027 3.678999900817871,13.293000221252441 6.056000232696533,13.458000183105469 C14.991000175476074,14.076000213623047 13.281999588012695,4.361999988555908 10.567000389099121,-0.6919999718666077 C7.730000019073486,-5.974999904632568 2.9149999618530273,-11.345999717712402 -2.500999927520752,-14.076000213623047 C-2.500999927520752,-14.076000213623047 -10.86400032043457,-8.657999992370605 -10.86400032043457,-8.657999992370605z"></path></g><g opacity="1" transform="matrix(1,0,0,1,180.54800415039062,114.9209976196289)"><path stroke-linecap="butt" stroke-linejoin="miter" fill-opacity="0" stroke-miterlimit="10" stroke="rgb(0,150,215)" stroke-opacity="1" stroke-width="14.581" d=" M-12.755000114440918,-6.714000225067139 C-2.444999933242798,-7.580999851226807 8.112000465393066,-1.6649999618530273 12.755000114440918,7.580999851226807"></path></g></g><g transform="matrix(0.33329999446868896,0,0,0.33329999446868896,0.8332499861717224,2.772449493408203)" opacity="1" style="display: block;"><g opacity="1" transform="matrix(1,0,0,1,142.2310028076172,116.63500213623047)"><path fill="rgb(0,150,215)" fill-opacity="1" d=" M-25.822999954223633,36.84000015258789 C-30.992000579833984,25.479000091552734 -33.28900146484375,17.96299934387207 -33.30400085449219,1.8519999980926514 C-33.321998596191406,-17.47599983215332 -18.427000045776367,-36.805999755859375 -0.032999999821186066,-36.823001861572266 C18.361000061035156,-36.84000015258789 33.290000915527344,-17.53700065612793 33.30699920654297,1.7910000085830688 C33.321998596191406,17.902999877929688 31.038000106811523,25.422000885009766 25.889999389648438,36.792999267578125 C25.889999389648438,36.792999267578125 -25.822999954223633,36.84000015258789 -25.822999954223633,36.84000015258789z"></path></g><g opacity="1" transform="matrix(1,0,0,1,84.79399871826172,132)"><path fill="rgb(199,219,66)" fill-opacity="1" d=" M10.838000297546387,-8.6899995803833 C13.057000160217285,-6.072000026702881 14.97599983215332,-2.0799999237060547 14.795000076293945,1.4459999799728394 C14.423999786376953,8.680999755859375 7.941999912261963,5.370999813079834 6.651000022888184,0.4659999907016754 C5.60099983215332,4.334000110626221 3.365000009536743,7.872000217437744 0.32199999690055847,10.480999946594238 C-1.4869999885559082,12.031999588012695 -3.6649999618530273,13.288000106811523 -6.041999816894531,13.456000328063965 C-14.97599983215332,14.092000007629395 -13.284000396728516,4.373000144958496 -10.579000473022461,-0.6850000023841858 C-7.750999927520752,-5.973999977111816 -2.946000099182129,-11.35200023651123 2.4649999141693115,-14.092000007629395 C2.4649999141693115,-14.092000007629395 10.838000297546387,-8.6899995803833 10.838000297546387,-8.6899995803833z"></path></g><g opacity="1" transform="matrix(1,0,0,1,142.21299743652344,97.24600219726562)"><path stroke-linecap="round" stroke-linejoin="round" fill-opacity="0" stroke="rgb(77,67,95)" stroke-opacity="1" stroke-width="7.29" d=" M-27.56800079345703,0.02500000037252903 C-27.56800079345703,0.02500000037252903 27.566999435424805,-0.02500000037252903 27.566999435424805,-0.02500000037252903"></path></g><g opacity="1" transform="matrix(1,0,0,1,142.16000366210938,38.17100143432617)"><path fill="rgb(199,219,66)" fill-opacity="1" d=" M-5.359000205993652,0.004999999888241291 C-5.361000061035156,-2.9549999237060547 -2.9649999141693115,-5.355999946594238 -0.006000000052154064,-5.359000205993652 C2.9539999961853027,-5.361000061035156 5.355000019073486,-2.9649999141693115 5.357999801635742,-0.004999999888241291 C5.361000061035156,2.9549999237060547 2.9649999141693115,5.35699987411499 0.004999999888241291,5.359000205993652 C-2.9549999237060547,5.361000061035156 -5.355999946594238,2.9649999141693115 -5.359000205993652,0.004999999888241291z"></path></g><g opacity="1" transform="matrix(1,0,0,1,142.18600463867188,53.08599853515625)"><path fill="rgb(199,219,66)" fill-opacity="1" d=" M1.968999981880188,-14.916999816894531 C1.968999981880188,-14.916999816894531 3.63100004196167,14.90999984741211 3.63100004196167,14.90999984741211 C3.63100004196167,14.90999984741211 -3.63100004196167,14.916999816894531 -3.63100004196167,14.916999816894531 C-3.63100004196167,14.916999816894531 -2.0230000019073486,-14.913000106811523 -2.0230000019073486,-14.913000106811523 C-2.0230000019073486,-14.913000106811523 1.968999981880188,-14.916999816894531 1.968999981880188,-14.916999816894531z"></path></g><g opacity="1" transform="matrix(1,0,0,1,142.19700622558594,78.6989974975586)"><path fill="rgb(199,219,66)" fill-opacity="1" d=" M-34.30699920654297,0.03099999949336052 C-34.31700134277344,-11.333999633789062 -18.965999603271484,-20.559999465942383 -0.01899999938905239,-20.57699966430664 C18.927000045776367,-20.594999313354492 34.29499816894531,-11.395999908447266 34.30500030517578,-0.029999999329447746 C34.316001892089844,11.335000038146973 18.964000701904297,20.56100082397461 0.017999999225139618,20.57900047302246 C-18.929000854492188,20.59600067138672 -34.29600143432617,11.395999908447266 -34.30699920654297,0.03099999949336052z"></path></g><g opacity="1" transform="matrix(1,0,0,1,108.01799774169922,75.08000183105469)"><path fill="rgb(199,219,66)" fill-opacity="1" d=" M-3.617000102996826,-10.833999633789062 C-3.617000102996826,-10.833999633789062 6.427999973297119,6.493000030517578 6.427999973297119,6.493000030517578 C7.1519999504089355,7.741000175476074 6.591000080108643,9.449999809265137 5.340000152587891,9.814000129699707 C5.340000152587891,9.814000129699707 -3.3980000019073486,12.35200023651123 -3.3980000019073486,12.35200023651123 C-4.513000011444092,12.675000190734863 -5.609000205993652,11.75100040435791 -5.697000026702881,10.413000106811523 C-5.697000026702881,10.413000106811523 -7.005000114440918,-9.451000213623047 -7.005000114440918,-9.451000213623047 C-7.151000022888184,-11.668999671936035 -4.684999942779541,-12.675999641418457 -3.617000102996826,-10.833999633789062z"></path></g><g opacity="1" transform="matrix(1,0,0,1,176.36399841308594,75.01000213623047)"><path fill="rgb(199,219,66)" fill-opacity="1" d=" M3.6019999980926514,-10.831999778747559 C3.6019999980926514,-10.831999778747559 -6.413000106811523,6.513999938964844 -6.413000106811523,6.513999938964844 C-7.133999824523926,7.763000011444092 -6.571000099182129,9.470999717712402 -5.317999839782715,9.831999778747559 C-5.317999839782715,9.831999778747559 3.4240000247955322,12.354000091552734 3.4240000247955322,12.354000091552734 C4.539000034332275,12.675999641418457 5.633999824523926,11.74899959564209 5.71999979019165,10.41100025177002 C5.71999979019165,10.41100025177002 6.992000102996826,-9.456999778747559 6.992000102996826,-9.456999778747559 C7.132999897003174,-11.675000190734863 4.665999889373779,-12.675999641418457 3.6019999980926514,-10.831999778747559z"></path></g><g opacity="1" transform="matrix(1,0,0,1,142.19000244140625,71.15699768066406)"><path fill="rgb(106,189,81)" fill-opacity="1" d=" M-4.320000171661377,0.004000000189989805 C-4.322000026702881,-2.382999897003174 -2.390000104904175,-4.317999839782715 -0.004000000189989805,-4.320000171661377 C2.381999969482422,-4.322999954223633 4.317999839782715,-2.3910000324249268 4.321000099182129,-0.004999999888241291 C4.322999954223633,2.381999969482422 2.390000104904175,4.316999912261963 0.004000000189989805,4.320000171661377 C-2.381999969482422,4.322000026702881 -4.317999839782715,2.390000104904175 -4.320000171661377,0.004000000189989805z"></path></g><g opacity="1" transform="matrix(1,0,0,1,160.87399291992188,77.26399993896484)"><path fill="rgb(106,189,81)" fill-opacity="1" d=" M-3.819000005722046,-2.0190000534057617 C-2.7049999237060547,-4.127999782562256 -0.09099999815225601,-4.934000015258789 2.0190000534057617,-3.819999933242798 C4.129000186920166,-2.7049999237060547 4.934999942779541,-0.09300000220537186 3.821000099182129,2.0169999599456787 C2.7070000171661377,4.126999855041504 0.09200000017881393,4.934000015258789 -2.0179998874664307,3.819000005722046 C-4.127999782562256,2.7049999237060547 -4.934000015258789,0.09099999815225601 -3.819000005722046,-2.0190000534057617z"></path></g><g opacity="1" transform="matrix(1,0,0,1,123.51499938964844,77.2979965209961)"><path fill="rgb(106,189,81)" fill-opacity="1" d=" M3.816999912261963,-2.0250000953674316 C2.697999954223633,-4.131999969482422 0.08299999684095383,-4.934999942779541 -2.0250000953674316,-3.816999912261963 C-4.132999897003174,-2.6989998817443848 -4.934000015258789,-0.08399999886751175 -3.815999984741211,2.0250000953674316 C-2.697999954223633,4.131999969482422 -0.08299999684095383,4.934999942779541 2.0250000953674316,3.816999912261963 C4.132999897003174,2.6989998817443848 4.934999942779541,0.08299999684095383 3.816999912261963,-2.0250000953674316z"></path></g><g opacity="1" transform="matrix(1,0,0,1,142.23500061035156,127.36499786376953)"><path fill="rgb(17,128,195)" fill-opacity="1" d=" M32.35900115966797,5.906000137329102 C32.35900115966797,5.906000137329102 -32.33700180053711,5.966000080108643 -32.33700180053711,5.966000080108643 C-32.86899948120117,2.51200008392334 -33.15399932861328,-1.3830000162124634 -33.249000549316406,-5.90500020980835 C-33.249000549316406,-5.90500020980835 33.249000549316406,-5.966000080108643 33.249000549316406,-5.966000080108643 C33.1619987487793,-1.4450000524520874 32.88399887084961,2.4519999027252197 32.35900115966797,5.906000137329102z"></path></g><g opacity="1" transform="matrix(1,0,0,1,103.91100311279297,115)"><path stroke-linecap="butt" stroke-linejoin="miter" fill-opacity="0" stroke-miterlimit="10" stroke="rgb(0,150,215)" stroke-opacity="1" stroke-width="14.581" d=" M12.741999626159668,-6.745999813079834 C2.430000066757202,-7.59499979019165 -8.114999771118164,-1.659000039100647 -12.741999626159668,7.59499979019165"></path></g><g opacity="1" transform="matrix(1,0,0,1,170.10699462890625,148.15899658203125)"><path fill="rgb(77,67,95)" fill-opacity="1" d=" M3.046999931335449,-8.020999908447266 C3.046999931335449,-8.020999908447266 -10.70300006866455,-6.933000087738037 -20.663000106811523,5.285999774932861 C-20.663000106811523,5.285999774932861 13.319000244140625,8.020999908447266 16.992000579833984,7.061999797821045 C20.663999557495117,6.103000164031982 17.808000564575195,-0.4440000057220459 3.046999931335449,-8.020999908447266z"></path></g><g opacity="1" transform="matrix(1,0,0,1,114.4219970703125,148.22500610351562)"><path fill="rgb(77,67,95)" fill-opacity="1" d=" M-3.071000099182129,-8.029999732971191 C-3.071000099182129,-8.029999732971191 10.680999755859375,-6.9679999351501465 20.663000106811523,5.234000205993652 C20.663000106811523,5.234000205993652 -13.3149995803833,8.029999732971191 -16.988000869750977,7.077000141143799 C-20.663000106811523,6.125 -17.819000244140625,-0.4259999990463257 -3.071000099182129,-8.029999732971191z"></path></g><g opacity="1" transform="matrix(1,0,0,1,160.07699584960938,111.61900329589844)"><path fill="rgb(250,175,58)" fill-opacity="1" d=" M-6.38700008392334,0.006000000052154064 C-6.389999866485596,-3.5220000743865967 -3.5329999923706055,-6.385000228881836 -0.004999999888241291,-6.388000011444092 C3.5230000019073486,-6.390999794006348 6.383999824523926,-3.5339999198913574 6.38700008392334,-0.006000000052154064 C6.389999866485596,3.5220000743865967 3.5339999198913574,6.383999824523926 0.007000000216066837,6.388000011444092 C-3.5209999084472656,6.390999794006348 -6.383999824523926,3.5329999923706055 -6.38700008392334,0.006000000052154064z"></path></g><g opacity="1" transform="matrix(1,0,0,1,199.70599365234375,131.88400268554688)"><path fill="rgb(199,219,66)" fill-opacity="1" d=" M-10.86400032043457,-8.657999992370605 C-13.079000473022461,-6.0370001792907715 -14.989999771118164,-2.0399999618530273 -14.803000450134277,1.4859999418258667 C-14.418999671936035,8.720000267028809 -7.942999839782715,5.396999835968018 -6.659999847412109,0.49000000953674316 C-5.603000164031982,4.35699987411499 -3.3610000610351562,7.889999866485596 -0.3140000104904175,10.493000030517578 C1.4980000257492065,12.039999961853027 3.678999900817871,13.293000221252441 6.056000232696533,13.458000183105469 C14.991000175476074,14.076000213623047 13.281999588012695,4.361999988555908 10.567000389099121,-0.6919999718666077 C7.730000019073486,-5.974999904632568 2.9149999618530273,-11.345999717712402 -2.500999927520752,-14.076000213623047 C-2.500999927520752,-14.076000213623047 -10.86400032043457,-8.657999992370605 -10.86400032043457,-8.657999992370605z"></path></g><g opacity="1" transform="matrix(1,0,0,1,180.54800415039062,114.9209976196289)"><path stroke-linecap="butt" stroke-linejoin="miter" fill-opacity="0" stroke-miterlimit="10" stroke="rgb(0,150,215)" stroke-opacity="1" stroke-width="14.581" d=" M-12.755000114440918,-6.714000225067139 C-2.444999933242798,-7.580999851226807 8.112000465393066,-1.6649999618530273 12.755000114440918,7.580999851226807"></path></g></g><g transform="matrix(0.33329999446868896,0,0,0.33329999446868896,0.8332499861717224,2.772444248199463)" opacity="1" style="display: block;"><g opacity="1" transform="matrix(1,0,0,1,165.6269989013672,218.56900024414062)"><path fill="rgb(199,219,66)" fill-opacity="1" d=" M4.175000190734863,14.206999778747559 C7.181000232696533,12.552000045776367 10.395999908447266,9.505000114440918 11.482999801635742,6.145999908447266 C13.713000297546387,-0.7459999918937683 6.4770002365112305,0.03799999877810478 3.5230000019073486,4.159999847412109 C3.9200000762939453,0.1720000058412552 3.0910000801086426,-3.930000066757202 1.1759999990463257,-7.451000213623047 C0.03799999877810478,-9.543999671936035 -1.5509999990463257,-11.493000030517578 -3.7109999656677246,-12.498000144958496 C-11.833000183105469,-16.273000717163086 -13.713000297546387,-6.589000225067139 -12.987000465393066,-0.8989999890327454 C-12.227999687194824,5.050000190734863 -9.654000282287598,11.78600025177002 -5.572999954223633,16.273000717163086 C-5.572999954223633,16.273000717163086 4.175000190734863,14.206999778747559 4.175000190734863,14.206999778747559z"></path></g><g opacity="1" transform="matrix(1,0,0,1,174.72999572753906,243.093994140625)"><path stroke-linecap="butt" stroke-linejoin="miter" fill-opacity="0" stroke-miterlimit="10" stroke="rgb(0,150,215)" stroke-opacity="1" stroke-width="14.581" d=" M9.352999687194824,11.23799991607666 C-0.5849999785423279,8.357999801635742 -8.324999809265137,-0.9430000185966492 -9.352999687194824,-11.23799991607666"></path></g></g><g transform="matrix(0.33329999446868896,0,0,0.33329999446868896,0.8332499861717224,2.772444248199463)" opacity="1" style="display: block;"><g opacity="1" transform="matrix(1,0,0,1,175.23599243164062,258.24200439453125)"><path fill="rgb(0,150,215)" fill-opacity="1" d=" M-36.44900131225586,-24.243000030517578 C-25.086999893188477,-29.41200065612793 -17.570999145507812,-31.708999633789062 -1.4600000381469727,-31.722999572753906 C17.868000030517578,-31.740999221801758 37.198001861572266,-16.847000122070312 37.21500015258789,1.5470000505447388 C37.21500015258789,31.739999771118164 -21.57699966430664,28.94499969482422 -37.21500015258789,22.058000564575195 C-37.21500015258789,22.058000564575195 -36.44900131225586,-24.243000030517578 -36.44900131225586,-24.243000030517578z"></path></g><g opacity="1" transform="matrix(1,0,0,1,195.01600646972656,255.80299377441406)"><path stroke-linecap="round" stroke-linejoin="round" fill-opacity="0" stroke="rgb(77,67,95)" stroke-opacity="1" stroke-width="7.29" d=" M-0.02500000037252903,-23.565000534057617 C-0.02500000037252903,-23.565000534057617 0.02500000037252903,23.565000534057617 0.02500000037252903,23.565000534057617"></path></g><g opacity="1" transform="matrix(1,0,0,1,254.0919952392578,258.7510070800781)"><path fill="rgb(199,219,66)" fill-opacity="1" d=" M-0.004999999888241291,-5.360000133514404 C2.9549999237060547,-5.361999988555908 5.355000019073486,-2.9649999141693115 5.357999801635742,-0.006000000052154064 C5.361000061035156,2.9539999961853027 2.9649999141693115,5.35699987411499 0.004999999888241291,5.360000133514404 C-2.9549999237060547,5.361999988555908 -5.355999946594238,2.9639999866485596 -5.359000205993652,0.004000000189989805 C-5.361000061035156,-2.9560000896453857 -2.9639999866485596,-5.35699987411499 -0.004999999888241291,-5.360000133514404z"></path></g><g opacity="1" transform="matrix(1,0,0,1,239.177001953125,258.77801513671875)"><path fill="rgb(199,219,66)" fill-opacity="1" d=" M14.916999816894531,1.968999981880188 C14.916999816894531,1.968999981880188 -14.91100025177002,3.63100004196167 -14.91100025177002,3.63100004196167 C-14.91100025177002,3.63100004196167 -14.916999816894531,-3.63100004196167 -14.916999816894531,-3.63100004196167 C-14.916999816894531,-3.63100004196167 14.913000106811523,-2.0230000019073486 14.913000106811523,-2.0230000019073486 C14.913000106811523,-2.0230000019073486 14.916999816894531,1.968999981880188 14.916999816894531,1.968999981880188z"></path></g><g opacity="1" transform="matrix(1,0,0,1,213.5659942626953,253.0800018310547)"><path fill="rgb(199,219,66)" fill-opacity="1" d=" M-0.028999999165534973,-32.30699920654297 C11.336000442504883,-32.31700134277344 20.56100082397461,-17.86199951171875 20.577999114990234,-0.01899999938905239 C20.5939998626709,17.823999404907227 11.394000053405762,32.29600143432617 0.028999999165534973,32.305999755859375 C-11.336000442504883,32.31700134277344 -20.56100082397461,17.861000061035156 -20.57699966430664,0.017999999225139618 C-20.5939998626709,-17.823999404907227 -11.394000053405762,-32.29600143432617 -0.028999999165534973,-32.30699920654297z"></path></g><g opacity="1" transform="matrix(1,0,0,1,234.19500732421875,241.35899353027344)"><path fill="rgb(199,219,66)" fill-opacity="1" d=" M10.833999633789062,3.617000102996826 C10.833999633789062,3.617000102996826 -6.493000030517578,-6.427000045776367 -6.493000030517578,-6.427000045776367 C-7.741000175476074,-7.151000022888184 -9.449000358581543,-6.591000080108643 -9.812999725341797,-5.339000225067139 C-9.812999725341797,-5.339000225067139 -12.35200023651123,3.3980000019073486 -12.35200023651123,3.3980000019073486 C-12.675999641418457,4.513000011444092 -11.75,5.609000205993652 -10.411999702453613,5.697999954223633 C-10.411999702453613,5.697999954223633 9.45199966430664,7.00600004196167 9.45199966430664,7.00600004196167 C11.668999671936035,7.151000022888184 12.675999641418457,4.684999942779541 10.833999633789062,3.617000102996826z"></path></g><g opacity="1" transform="matrix(1,0,0,1,230.19200134277344,274.0140075683594)"><path fill="rgb(199,219,66)" fill-opacity="1" d=" M10.833000183105469,3.617000102996826 C10.833000183105469,3.617000102996826 -6.49399995803833,-6.427000045776367 -6.49399995803833,-6.427000045776367 C-7.742000102996826,-7.151000022888184 -9.449999809265137,-6.591000080108643 -9.812999725341797,-5.339000225067139 C-9.812999725341797,-5.339000225067139 -12.35200023651123,3.3970000743865967 -12.35200023651123,3.3970000743865967 C-12.675999641418457,4.513000011444092 -11.75100040435791,5.610000133514404 -10.413000106811523,5.697999954223633 C-10.413000106811523,5.697999954223633 9.45199966430664,7.005000114440918 9.45199966430664,7.005000114440918 C11.668999671936035,7.151000022888184 12.675000190734863,4.684000015258789 10.833000183105469,3.617000102996826z"></path></g><g opacity="1" transform="matrix(1,0,0,1,220.8699951171875,224.98800659179688)"><path fill="rgb(106,189,81)" fill-opacity="1" d=" M-3.0369999408721924,-3.556999921798706 C-3.680999994277954,-2.802999973297119 -4.084000110626221,-1.8370000123977661 -4.085000038146973,-0.7689999938011169 C-4.086999893188477,1.6180000305175781 -2.1549999713897705,3.552999973297119 0.23100000619888306,3.555000066757202 C1.9249999523162842,3.556999921798706 3.378000020980835,2.5739998817443848 4.086999893188477,1.1549999713897705 C1.9579999446868896,-1.0750000476837158 -0.44999998807907104,-2.697000026702881 -3.0369999408721924,-3.556999921798706z"></path></g><g opacity="1" transform="matrix(1,0,0,1,214.96400451660156,242.94500732421875)"><path fill="rgb(106,189,81)" fill-opacity="1" d=" M2.0250000953674316,-3.816999912261963 C4.132999897003174,-2.6989998817443848 4.934999942779541,-0.08399999886751175 3.816999912261963,2.0239999294281006 C2.697999954223633,4.131999969482422 0.08299999684095383,4.934000015258789 -2.0239999294281006,3.815999984741211 C-4.131999969482422,2.697999954223633 -4.934000015258789,0.08299999684095383 -3.815999984741211,-2.0239999294281006 C-2.697999954223633,-4.131999969482422 -0.08299999684095383,-4.934999942779541 2.0250000953674316,-3.816999912261963z"></path></g><g opacity="1" transform="matrix(1,0,0,1,164.89500427246094,256.1619873046875)"><path fill="rgb(17,128,195)" fill-opacity="1" d=" M-5.914000034332275,29.23200035095215 C-2.118000030517578,29.496999740600586 1.8980000019073486,29.613000869750977 5.958000183105469,29.558000564575195 C5.958000183105469,29.558000564575195 5.913000106811523,-29.613000869750977 5.913000106811523,-29.613000869750977 C1.3550000190734863,-29.518999099731445 -2.484999895095825,-29.209999084472656 -5.958000183105469,-28.676000595092773 C-5.958000183105469,-28.676000595092773 -5.914000034332275,29.23200035095215 -5.914000034332275,29.23200035095215z"></path></g><g opacity="1" transform="matrix(1,0,0,1,145.7429962158203,228.83599853515625)"><path fill="rgb(77,67,95)" fill-opacity="1" d=" M8.326000213623047,3.1089999675750732 C8.326000213623047,3.1089999675750732 7.263000011444092,16.86199951171875 -4.939000129699707,26.843000411987305 C-4.939000129699707,26.843000411987305 -8.326000213623047,-17.349000930786133 -6.7820000648498535,-20.81599998474121 C-4.098999977111816,-26.843000411987305 4.752999782562256,-14.960000038146973 8.326000213623047,3.1089999675750732z"></path></g><g opacity="1" transform="matrix(1,0,0,1,142.9600067138672,253.45700073242188)"><path fill="rgb(77,67,95)" fill-opacity="1" d=" M8.326000213623047,3.1089999675750732 C8.326000213623047,3.1089999675750732 7.263000011444092,16.86199951171875 -4.939000129699707,26.843000411987305 C-4.939000129699707,26.843000411987305 -8.326000213623047,-17.347999572753906 -6.7820000648498535,-20.81599998474121 C-4.099999904632568,-26.843000411987305 4.752999782562256,-14.960000038146973 8.326000213623047,3.1089999675750732z"></path></g><g opacity="1" transform="matrix(1,0,0,1,180.7790069580078,232.02699279785156)"><path fill="rgb(250,175,58)" fill-opacity="1" d=" M0.004999999888241291,5.419000148773193 C3.5329999923706055,5.415999889373779 6.389999866485596,2.555000066757202 6.38700008392334,-0.9739999771118164 C6.386000156402588,-1.8109999895095825 6.218999862670898,-2.609999895095825 5.925000190734863,-3.3440001010894775 C2.5339999198913574,-4.482999801635742 -1.0049999952316284,-5.197999954223633 -4.574999809265137,-5.421999931335449 C-5.697000026702881,-4.269000053405762 -6.389999866485596,-2.697999954223633 -6.388999938964844,-0.9629999995231628 C-6.385000228881836,2.565000057220459 -3.5230000019073486,5.421999931335449 0.004999999888241291,5.419000148773193z"></path></g></g><g transform="matrix(0.33329999446868896,0,0,0.33329999446868896,0.8332499861717224,2.772444248199463)" opacity="1" style="display: block;"><g opacity="1" transform="matrix(1,0,0,1,155.61900329589844,231.57899475097656)"><path fill="rgb(199,219,66)" fill-opacity="1" d=" M4.175000190734863,14.206999778747559 C7.181000232696533,12.553000450134277 10.395999908447266,9.505000114440918 11.482999801635742,6.144999980926514 C13.713000297546387,-0.746999979019165 6.4770002365112305,0.039000000804662704 3.5230000019073486,4.160999774932861 C3.9189999103546143,0.17299999296665192 3.0910000801086426,-3.930000066757202 1.1759999990463257,-7.451000213623047 C0.03799999877810478,-9.543999671936035 -1.5509999990463257,-11.494000434875488 -3.7109999656677246,-12.498000144958496 C-11.833000183105469,-16.273000717163086 -13.713000297546387,-6.590000152587891 -12.987000465393066,-0.8989999890327454 C-12.227999687194824,5.050000190734863 -9.654000282287598,11.786999702453613 -5.572999954223633,16.273000717163086 C-5.572999954223633,16.273000717163086 4.175000190734863,14.206999778747559 4.175000190734863,14.206999778747559z"></path></g><g opacity="1" transform="matrix(1,0,0,1,164.7220001220703,256.10400390625)"><path stroke-linecap="butt" stroke-linejoin="miter" fill-opacity="0" stroke-miterlimit="10" stroke="rgb(0,150,215)" stroke-opacity="1" stroke-width="14.581" d=" M11.852999687194824,12.23799991607666 C-0.47200000286102295,9.895999908447266 -8.324999809265137,-0.9430000185966492 -9.352999687194824,-11.23799991607666"></path></g></g></g></svg>