<svg xmlns="http://www.w3.org/2000/svg" viewBox="0 0 276 60" width="276" height="60" preserveAspectRatio="xMidYMid meet" style="width: 100%; height: 100%; transform: translate3d(0px, 0px, 0px); content-visibility: visible;"><defs><clipPath id="__lottie_element_4014"><rect width="276" height="60" x="0" y="0"></rect></clipPath><clipPath id="__lottie_element_4017"><path d="M0,0 L45,0 L45,45 L0,45z"></path></clipPath></defs><g clip-path="url(#__lottie_element_4014)"><g clip-path="url(#__lottie_element_4017)" transform="matrix(-0.20639999210834503,0,0,0.20639999210834503,154.2259979248047,-0.15099813044071198)" opacity="1" style="display: block;"><g transform="matrix(0.8813385963439941,0.1238640546798706,-0.1238640546798706,0.8813385963439941,34.52667999267578,16.616653442382812)" opacity="1" style="display: block;"><g opacity="1" transform="matrix(1,0,0,1,0,0)"><path fill="rgb(50,46,58)" fill-opacity="1" d=" M6.125,1.062000036239624 C4.436999797821045,-6.625999927520752 -6.375,-3.25 -6.875,2.875 C-15.25,9.25 -23.375,16.375 -32.75,23.625 C-26.375,26.5 -18,27.875 -9.5,26.75 C11.161999702453613,24.014999389648438 6.625,5.438000202178955 6.625,5.438000202178955 C6.625,5.438000202178955 10.5,2.812000036239624 10.5,2.812000036239624 C10.5,2.812000036239624 6.625,1.187000036239624 6.125,1.062000036239624z"></path><path stroke-linecap="butt" stroke-linejoin="miter" fill-opacity="0" stroke-miterlimit="4" stroke="rgb(255,202,77)" stroke-opacity="1" stroke-width="0" d=" M6.125,1.062000036239624 C4.436999797821045,-6.625999927520752 -6.375,-3.25 -6.875,2.875 C-15.25,9.25 -23.375,16.375 -32.75,23.625 C-26.375,26.5 -18,27.875 -9.5,26.75 C11.161999702453613,24.014999389648438 6.625,5.438000202178955 6.625,5.438000202178955 C6.625,5.438000202178955 10.5,2.812000036239624 10.5,2.812000036239624 C10.5,2.812000036239624 6.625,1.187000036239624 6.125,1.062000036239624z"></path></g></g><g transform="matrix(0.990272045135498,0.13917365670204163,-0.13917365670204163,0.990272045135498,31.555471420288086,18.01041030883789)" opacity="1" style="display: block;"><g opacity="1" transform="matrix(1,0,0,1,0,0)"><path fill="rgb(50,46,58)" fill-opacity="1" d=" M-22.25,-7.75 C-29.375,6.75 -18.375,15.75 -11.125,15.25 C-5.498000144958496,14.862000465393066 1.125,12.125 0.375,3.875 C-4.875,3.875 -18,3.25 -22.25,-7.75z"></path><path stroke-linecap="butt" stroke-linejoin="miter" fill-opacity="0" stroke-miterlimit="4" stroke="rgb(255,202,77)" stroke-opacity="1" stroke-width="0" d=" M-22.25,-7.75 C-29.375,6.75 -18.375,15.75 -11.125,15.25 C-5.498000144958496,14.862000465393066 1.125,12.125 0.375,3.875 C-4.875,3.875 -18,3.25 -22.25,-7.75z"></path></g></g><g transform="matrix(0.6881243586540222,0.24367760121822357,-0.24367760121822357,0.6881243586540222,36.227928161621094,17.41271209716797)" opacity="1" style="display: block;"><g opacity="1" transform="matrix(1,0,0,1,0,0)"><path fill="rgb(50,46,58)" fill-opacity="1" d=" M-18.65399932861328,-9.461999893188477 C-25.77899932861328,5.038000106811523 -20.61199951171875,14.579000473022461 -13.772000312805176,17.033000946044922 C-7.294000148773193,19.35700035095215 1.781000018119812,17.302000045776367 0.5460000038146973,5.929999828338623 C-4.703999996185303,5.929999828338623 -14.404000282287598,1.5379999876022339 -18.65399932861328,-9.461999893188477z"></path><path stroke-linecap="butt" stroke-linejoin="miter" fill-opacity="0" stroke-miterlimit="4" stroke="rgb(255,202,77)" stroke-opacity="1" stroke-width="0" d=" M-18.65399932861328,-9.461999893188477 C-25.77899932861328,5.038000106811523 -20.61199951171875,14.579000473022461 -13.772000312805176,17.033000946044922 C-7.294000148773193,19.35700035095215 1.781000018119812,17.302000045776367 0.5460000038146973,5.929999828338623 C-4.703999996185303,5.929999828338623 -14.404000282287598,1.5379999876022339 -18.65399932861328,-9.461999893188477z"></path></g></g></g></g></svg>