<svg xmlns="http://www.w3.org/2000/svg" viewBox="0 0 78 57" width="78" height="57" preserveAspectRatio="xMidYMid meet" style="width: 100%; height: 100%; transform: translate3d(0px, 0px, 0px); content-visibility: visible;"><defs><clipPath id="__lottie_element_2470"><rect width="78" height="57" x="0" y="0"></rect></clipPath></defs><g clip-path="url(#__lottie_element_2470)"><g transform="matrix(0.32446524500846863,-0.07490870356559753,0.07490870356559753,0.32446524500846863,-9.759684562683105,14.319889068603516)" opacity="1" style="display: block;"><g opacity="1" transform="matrix(1,0,0,1,131.6009979248047,58.4119987487793)"><path fill="rgb(113,66,56)" fill-opacity="1" d=" M59.097999572753906,-21.48900032043457 C59.097999572753906,-21.48900032043457 -61.85300064086914,11.338000297546387 -61.85300064086914,11.338000297546387 C-61.85300064086914,11.338000297546387 -59.097999572753906,21.48900032043457 -59.097999572753906,21.48900032043457 C-59.097999572753906,21.48900032043457 61.85300064086914,-11.336999893188477 61.85300064086914,-11.336999893188477 C61.85300064086914,-11.336999893188477 59.097999572753906,-21.48900032043457 59.097999572753906,-21.48900032043457z"></path></g></g><g transform="matrix(0.3327971398830414,-0.011621532030403614,0.011621532030403614,0.3327971398830414,-8.292473793029785,5.523990631103516)" opacity="1" style="display: block;"><g opacity="1" transform="matrix(1,0,0,1,131.6009979248047,119.85900115966797)"><path fill="rgb(113,66,56)" fill-opacity="1" d=" M65.65499877929688,9.651000022888184 C65.65499877929688,9.651000022888184 -65.65599822998047,9.651000022888184 -65.65599822998047,9.651000022888184 C-72.10299682617188,9.651000022888184 -77.3280029296875,4.425000190734863 -77.3280029296875,-2.0220000743865967 C-77.3280029296875,-2.0220000743865967 -77.3280029296875,-9.651000022888184 -77.3280029296875,-9.651000022888184 C-77.3280029296875,-9.651000022888184 77.3280029296875,-9.651000022888184 77.3280029296875,-9.651000022888184 C77.3280029296875,-9.651000022888184 77.3280029296875,-2.0220000743865967 77.3280029296875,-2.0220000743865967 C77.3280029296875,4.425000190734863 72.10099792480469,9.651000022888184 65.65499877929688,9.651000022888184z"></path></g><g opacity="1" transform="matrix(1,0,0,1,131.6009979248047,110.20899963378906)"><path fill="rgb(179,82,48)" fill-opacity="1" d=" M96.52200317382812,9.651000022888184 C96.52200317382812,9.651000022888184 -96.52200317382812,9.651000022888184 -96.52200317382812,9.651000022888184 C-96.52200317382812,9.651000022888184 -96.52200317382812,-9.651000022888184 -96.52200317382812,-9.651000022888184 C-96.52200317382812,-9.651000022888184 96.52200317382812,-9.651000022888184 96.52200317382812,-9.651000022888184 C96.52200317382812,-9.651000022888184 96.52200317382812,9.651000022888184 96.52200317382812,9.651000022888184z"></path></g><g opacity="1" transform="matrix(1,0,0,1,82.54000091552734,136.22300720214844)"><path fill="rgb(245,138,70)" fill-opacity="1" d=" M19.94499969482422,0 C19.94499969482422,-11.015000343322754 11.015000343322754,-19.94499969482422 0,-19.94499969482422 C-11.015000343322754,-19.94499969482422 -19.94499969482422,-11.015000343322754 -19.94499969482422,0 C-19.94499969482422,11.015000343322754 -11.015000343322754,19.94499969482422 0,19.94499969482422 C11.015000343322754,19.94499969482422 19.94499969482422,11.015000343322754 19.94499969482422,0z"></path></g><g opacity="1" transform="matrix(1,0,0,1,82.53900146484375,136.22300720214844)"><path fill="rgb(179,82,48)" fill-opacity="1" d=" M9.779000282287598,0 C9.779000282287598,-5.400000095367432 5.400000095367432,-9.777999877929688 0,-9.777999877929688 C-5.401000022888184,-9.777999877929688 -9.779000282287598,-5.400000095367432 -9.779000282287598,0 C-9.779000282287598,5.400000095367432 -5.401000022888184,9.777999877929688 0,9.777999877929688 C5.400000095367432,9.777999877929688 9.779000282287598,5.400000095367432 9.779000282287598,0z"></path></g><g opacity="1" transform="matrix(1,0,0,1,180.66200256347656,136.22300720214844)"><path fill="rgb(245,138,70)" fill-opacity="1" d=" M-19.94499969482422,0 C-19.94499969482422,-11.015000343322754 -11.015000343322754,-19.94499969482422 -0.0010000000474974513,-19.94499969482422 C11.015000343322754,-19.94499969482422 19.94499969482422,-11.015000343322754 19.94499969482422,0 C19.94499969482422,11.015000343322754 11.015000343322754,19.94499969482422 -0.0010000000474974513,19.94499969482422 C-11.015000343322754,19.94499969482422 -19.94499969482422,11.015000343322754 -19.94499969482422,0z"></path></g><g opacity="1" transform="matrix(1,0,0,1,180.66200256347656,136.22300720214844)"><path fill="rgb(179,82,48)" fill-opacity="1" d=" M-9.777999877929688,0 C-9.777999877929688,-5.400000095367432 -5.400000095367432,-9.777999877929688 0,-9.777999877929688 C5.401000022888184,-9.777999877929688 9.777999877929688,-5.400000095367432 9.777999877929688,0 C9.777999877929688,5.400000095367432 5.401000022888184,9.777999877929688 0,9.777999877929688 C-5.400000095367432,9.777999877929688 -9.777999877929688,5.400000095367432 -9.777999877929688,0z"></path></g><g opacity="1" transform="matrix(1,0,0,1,131.60000610351562,74.87899780273438)"><path fill="rgb(179,82,48)" fill-opacity="1" d=" M0.0010000000474974513,-35.32899856567383 C0.0010000000474974513,-35.32899856567383 0.0010000000474974513,-35.32899856567383 0.0010000000474974513,-35.32899856567383 C-9.782999992370605,-35.32899856567383 -17.986000061035156,-27.93600082397461 -18.999000549316406,-18.20400047302246 C-18.999000549316406,-18.20400047302246 -24.570999145507812,35.32899856567383 -24.570999145507812,35.32899856567383 C-24.570999145507812,35.32899856567383 24.570999145507812,35.32899856567383 24.570999145507812,35.32899856567383 C24.570999145507812,35.32899856567383 19.000999450683594,-18.20400047302246 19.000999450683594,-18.20400047302246 C17.98699951171875,-27.93600082397461 9.78499984741211,-35.32899856567383 0.0010000000474974513,-35.32899856567383z"></path></g><g opacity="1" transform="matrix(1,0,0,1,131.6009979248047,58.41299819946289)"><path fill="rgb(113,66,56)" fill-opacity="1" d=" M8.987000465393066,-0.0010000000474974513 C8.987000465393066,-4.964000225067139 4.9629998207092285,-8.987000465393066 0,-8.987000465393066 C-4.9629998207092285,-8.987000465393066 -8.987000465393066,-4.964000225067139 -8.987000465393066,-0.0010000000474974513 C-8.987000465393066,4.961999893188477 -4.9629998207092285,8.987000465393066 0,8.987000465393066 C4.9629998207092285,8.987000465393066 8.987000465393066,4.961999893188477 8.987000465393066,-0.0010000000474974513z"></path></g></g><g transform="matrix(0.33218884468078613,-0.02322891168296337,0.02322891168296337,0.33218884468078613,-7.1529083251953125,6.680329322814941)" opacity="1" style="display: block;"><g opacity="1" transform="matrix(1,0,0,1,53.974998474121094,92.9530029296875)"><path fill="rgb(113,66,56)" fill-opacity="1" d=" M-16.934999465942383,-6.73799991607666 C-15.364999771118164,-6.040999889373779 -15.322999954223633,-1.8389999866485596 -15.755999565124512,0.07699999958276749 C-17.398000717163086,7.328999996185303 -17.98200035095215,11.168000221252441 -12.21500015258789,11.168000221252441 C-12.21500015258789,11.168000221252441 11.531000137329102,11.168000221252441 11.531000137329102,11.168000221252441 C16.392000198364258,11.168000221252441 17.98200035095215,7.948999881744385 17.422000885009766,5.535999774932861 C16.392000198364258,1.097000002861023 9.067999839782715,0.9179999828338623 6.677999973297119,0.5109999775886536 C1.3040000200271606,-0.4050000011920929 -3.4509999752044678,-4.0320000648498535 -2.4639999866485596,-11.168000221252441 C-2.4639999866485596,-11.168000221252441 -16.934999465942383,-6.73799991607666 -16.934999465942383,-6.73799991607666z"></path></g></g><g transform="matrix(0.30875223875045776,0.1247439906001091,-0.1247439906001091,0.30875223875045776,6.341317653656006,2.1281485557556152)" opacity="1" style="display: block;"><g opacity="1" transform="matrix(1,0,0,1,43.91899871826172,76.40299987792969)"><path fill="rgb(179,82,48)" fill-opacity="1" d=" M19.392000198364258,-12.531999588012695 C22.31399917602539,-5.49399995803833 20.534000396728516,3.2960000038146973 15.37399959564209,8.741999626159668 C10.21500015258789,14.187999725341797 2.0739998817443848,16.145000457763672 -4.943999767303467,13.954000473022461 C-17.209999084472656,10.123000144958496 -22.31399917602539,-3.9000000953674316 -18.09000015258789,-16.145000457763672"></path></g><g opacity="1" transform="matrix(1,0,0,1,44.777000427246094,56.65599822998047)"><path fill="rgb(255,201,77)" fill-opacity="1" d=" M1.4570000171661377,-19.45599937438965 C-14.199000358581543,-22.676000595092773 -26.0049991607666,-4.499000072479248 -25.19499969482422,7.72599983215332 C-24.676000595092773,15.564000129699707 -17.79599952697754,18.684999465942383 -10.343999862670898,20.54400062561035 C-2.0290000438690186,22.618999481201172 9.871999740600586,22.676000595092773 17.58099937438965,18.57900047302246 C26.0049991607666,14.102999687194824 23.65399932861328,2.8289999961853027 20.54199981689453,-3.924999952316284 C17.05900001525879,-11.482999801635742 10.312999725341797,-17.632999420166016 1.4570000171661377,-19.45599937438965z"></path></g></g><g transform="matrix(0.33051785826683044,0.04058248549699783,-0.04058248549699783,0.33051785826683044,1.7300227880477905,4.783198356628418)" opacity="1" style="display: block;"><g opacity="1" transform="matrix(1,0,0,1,55.9010009765625,35.909000396728516)"><path fill="rgb(250,188,150)" fill-opacity="1" d=" M17.847999572753906,4.565999984741211 C20.125,-0.37400001287460327 18.65999984741211,-4.881999969482422 15.85099983215332,-9.531000137329102 C13.36400032043457,-13.64900016784668 9.718999862670898,-15.934000015258789 5.172999858856201,-16.03700065612793 C-3.509999990463257,-16.232999801635742 -18.113000869750977,-12.093000411987305 -19.065000534057617,-1.569000005722046 C-20.125,10.152000427246094 -4.828999996185303,16.232999801635742 4.948999881744385,15 C10.569999694824219,14.289999961853027 15.369999885559082,9.940999984741211 17.847999572753906,4.565999984741211z"></path></g><g opacity="1" transform="matrix(1,0,0,1,60.020999908447266,47.12099838256836)"><path fill="rgb(252,215,190)" fill-opacity="1" d=" M-24.982999801635742,-16.53700065612793 C-25.316999435424805,-15.161999702453613 -25.618000030517578,-13.586999893188477 -24.805999755859375,-12.428000450134277 C-24.50200080871582,-11.993000030517578 -24.066999435424805,-11.666999816894531 -23.611000061035156,-11.395000457763672 C-21.160999298095703,-9.934000015258789 -17.797000885009766,-9.73900032043457 -16.19499969482422,-7.377999782562256 C-15.246000289916992,-5.979000091552734 -15.201000213623047,-4.177999973297119 -15.156999588012695,-2.48799991607666 C-15.10099983215332,-0.3619999885559082 -14.993000030517578,1.7730000019073486 -14.571000099182129,3.8580000400543213 C-13.460000038146973,9.342000007629395 -8.878000259399414,17.417999267578125 0.37400001287460327,21.73200035095215 C5.848999977111816,24.284000396728516 13.656000137329102,23.707000732421875 18.24799919128418,18.444000244140625 C25.618999481201172,9.99899959564209 21.40999984741211,-8.315999984741211 14.282999992370605,-15.243000030517578 C14.282999992370605,-15.243000030517578 16.57200050354004,-7.676000118255615 10.145000457763672,-4.830999851226807 C0.8370000123977661,-0.7120000123977661 -11.394000053405762,-6.176000118255615 -15.251999855041504,-15.300000190734863 C-16.461000442504883,-18.159000396728516 -17.10300064086914,-21.22100067138672 -17.60700035095215,-24.284000396728516"></path></g><g opacity="1" transform="matrix(1,0,0,1,44.21500015258789,18.56999969482422)"><path fill="rgb(217,28,92)" fill-opacity="1" d=" M-6.431000232696533,17.75200080871582 C-7.686999797821045,18.312999725341797 -9.145999908447266,18.047000885009766 -10.156000137329102,17.113000869750977 C-18.805999755859375,9.102999687194824 -21.655000686645508,-9.651000022888184 -11.871000289916992,-17.47100067138672 C-11.329999923706055,-17.902999877929688 -10.675999641418457,-18.312999725341797 -9.993000030517578,-18.20199966430664 C-9.097999572753906,-18.058000564575195 -8.595999717712402,-17.121999740600586 -8.208000183105469,-16.30299949645996 C-4.7729997634887695,-9.041000366210938 -2.2019999027252197,-5.802999973297119 6.408999919891357,-6.306000232696533 C19.565000534057617,-7.072999954223633 21.655000686645508,1.9769999980926514 21.655000686645508,1.9769999980926514 C-3.6630001068115234,2.5320000648498535 -6.431000232696533,17.75200080871582 -6.431000232696533,17.75200080871582z"></path></g><g opacity="1" transform="matrix(1,0,0,1,60.49599838256836,28.565000534057617)"><path fill="rgb(77,67,95)" fill-opacity="1" d=" M3.24399995803833,0 C3.24399995803833,-1.7920000553131104 1.7920000553131104,-3.24399995803833 0,-3.24399995803833 C-1.7910000085830688,-3.24399995803833 -3.24399995803833,-1.7920000553131104 -3.24399995803833,0 C-3.24399995803833,1.7920000553131104 -1.7910000085830688,3.24399995803833 0,3.24399995803833 C1.7920000553131104,3.24399995803833 3.24399995803833,1.7920000553131104 3.24399995803833,0z"></path></g><g opacity="1" transform="matrix(1,0,0,1,76.7760009765625,28.97599983215332)"><path fill="rgb(240,108,94)" fill-opacity="1" d=" M2.3940000534057617,-7.258999824523926 C-3.1570000648498535,-7.74399995803833 -8.967000007629395,-1.1390000581741333 -6.307000160217285,4.354000091552734 C-5.625,5.763999938964844 -4.052000045776367,6.545000076293945 -2.5739998817443848,6.888999938964844 C1.1080000400543213,7.74399995803833 4.802999973297119,6.38100004196167 6.875999927520752,3.494999885559082 C8.968000411987305,0.5839999914169312 8.807000160217285,-4.6479997634887695 4.599999904632568,-6.6579999923706055 C3.882999897003174,-7 3.1410000324249268,-7.193999767303467 2.3940000534057617,-7.258999824523926z"></path></g><g opacity="1" transform="matrix(1,0,0,1,36.88800048828125,37.430999755859375)"><path fill="rgb(250,188,150)" fill-opacity="1" d=" M5.926000118255615,1.4989999532699585 C5.0269999504089355,-1.468000054359436 0.8370000123977661,-5.623000144958496 -3.319999933242798,-3.9210000038146973 C-5.052000045776367,-3.2130000591278076 -5.926000118255615,-1.0709999799728394 -5.5269999504089355,0.7570000290870667 C-5.129000186920166,2.5840001106262207 -3.6570000648498535,4.056000232696533 -1.937999963760376,4.796000003814697 C-0.22100000083446503,5.534999847412109 1.715000033378601,5.623000144958496 3.575000047683716,5.423999786376953"></path></g></g><g transform="matrix(0.30875223875045776,0.1247439906001091,-0.1247439906001091,0.30875223875045776,6.341317653656006,2.1281485557556152)" opacity="1" style="display: block;"><g opacity="1" transform="matrix(1,0,0,1,52.124000549316406,63.051998138427734)"><path stroke-linecap="butt" stroke-linejoin="miter" fill-opacity="0" stroke-miterlimit="10" stroke="rgb(255,201,77)" stroke-opacity="1" stroke-width="13.549" d=" M-18.250999450683594,-8.359000205993652 C-5.788000106811523,-6.22599983215332 8.486000061035156,0.4099999964237213 18.250999450683594,8.359000205993652"></path></g></g><g transform="matrix(0.30875223875045776,0.1247440055012703,-0.1247440055012703,0.30875223875045776,6.341315269470215,-0.20303688943386078)" opacity="1" style="display: block;"><g opacity="1" transform="matrix(1,0,0,1,78.36599731445312,76.03500366210938)"><path fill="rgb(250,188,150)" fill-opacity="1" d=" M1.6679999828338623,-12.21500015258789 C5.551000118255615,-11.850000381469727 9.32800006866455,-9.753999710083008 11.33899974822998,-6.410999774932861 C13.350000381469727,-3.069000005722046 13.354000091552734,1.4889999628067017 11.020999908447266,4.613999843597412 C4.959000110626221,12.729999542236328 -13.354000091552734,7.056000232696533 -12.085000038146973,-3.6760001182556152 C-11.32800006866455,-10.071999549865723 -3.812000036239624,-12.729999542236328 1.6679999828338623,-12.21500015258789z"></path></g><g opacity="1" transform="matrix(1,0,0,1,72.50299835205078,79.9010009765625)"><path fill="rgb(113,66,56)" fill-opacity="1" d=" M-10.149999618530273,0 C-10.149999618530273,-5.605999946594238 -5.605999946594238,-10.149999618530273 0,-10.149999618530273 C5.60699987411499,-10.149999618530273 10.149999618530273,-5.605999946594238 10.149999618530273,0 C10.149999618530273,5.605999946594238 5.60699987411499,10.149999618530273 0,10.149999618530273 C-5.605999946594238,10.149999618530273 -10.149999618530273,5.605999946594238 -10.149999618530273,0z"></path></g></g><g transform="matrix(0.1247439831495285,0.30875223875045776,-0.30875223875045776,0.1247439831495285,57.061767578125,-52.372467041015625)" opacity="1" style="display: block;"><g opacity="1" transform="matrix(1,0,0,1,209.2259979248047,92.9530029296875)"><path fill="rgb(113,66,56)" fill-opacity="1" d=" M16.934999465942383,-6.73799991607666 C15.364999771118164,-6.040999889373779 15.322999954223633,-1.8389999866485596 15.755999565124512,0.07699999958276749 C17.39699935913086,7.328999996185303 17.98200035095215,11.168000221252441 12.21500015258789,11.168000221252441 C12.21500015258789,11.168000221252441 -11.531000137329102,11.168000221252441 -11.531000137329102,11.168000221252441 C-16.39299964904785,11.168000221252441 -17.98200035095215,7.948999881744385 -17.422000885009766,5.535999774932861 C-16.39299964904785,1.097000002861023 -9.069000244140625,0.9179999828338623 -6.678999900817871,0.5109999775886536 C-1.3049999475479126,-0.4050000011920929 3.4509999752044678,-4.0320000648498535 2.4630000591278076,-11.168000221252441 C2.4630000591278076,-11.168000221252441 16.934999465942383,-6.73799991607666 16.934999465942383,-6.73799991607666z"></path></g></g><g transform="matrix(0.31485769152641296,0.10841420292854309,-0.10841420292854309,0.31485769152641296,1.6065298318862915,-22.772001266479492)" opacity="1" style="display: block;"><g opacity="1" transform="matrix(1,0,0,1,219.28199768066406,76.40299987792969)"><path fill="rgb(77,67,95)" fill-opacity="1" d=" M-19.392000198364258,-12.531999588012695 C-22.31399917602539,-5.49399995803833 -20.53499984741211,3.2960000038146973 -15.37399959564209,8.741999626159668 C-10.21500015258789,14.187999725341797 -2.072999954223633,16.145000457763672 4.945000171661377,13.954000473022461 C17.211000442504883,10.123000144958496 22.315000534057617,-3.9000000953674316 18.090999603271484,-16.145000457763672"></path></g><g opacity="1" transform="matrix(1,0,0,1,218.4239959716797,56.65599822998047)"><path fill="rgb(217,28,92)" fill-opacity="1" d=" M-1.4570000171661377,-19.45599937438965 C14.197999954223633,-22.676000595092773 26.0049991607666,-4.499000072479248 25.19499969482422,7.72599983215332 C24.676000595092773,15.564000129699707 17.79599952697754,18.684999465942383 10.343999862670898,20.54400062561035 C2.0290000438690186,22.618999481201172 -9.871999740600586,22.676000595092773 -17.58099937438965,18.57900047302246 C-26.0049991607666,14.102999687194824 -23.65399932861328,2.8289999961853027 -20.54199981689453,-3.924999952316284 C-17.05900001525879,-11.482999801635742 -10.312999725341797,-17.632999420166016 -1.4570000171661377,-19.45599937438965z"></path></g></g><g transform="matrix(0.3327971398830414,0.011621540412306786,-0.011621540412306786,0.3327971398830414,-6.42299747467041,-2.2492446899414062)" opacity="1" style="display: block;"><g opacity="1" transform="matrix(1,0,0,1,207.3000030517578,35.902000427246094)"><path fill="rgb(250,188,150)" fill-opacity="1" d=" M-17.847999572753906,4.565999984741211 C-20.125,-0.37400001287460327 -18.65999984741211,-4.881999969482422 -15.85200023651123,-9.531000137329102 C-13.36400032043457,-13.64900016784668 -9.718999862670898,-15.934000015258789 -5.173999786376953,-16.03700065612793 C3.509999990463257,-16.232999801635742 18.113000869750977,-12.093000411987305 19.065000534057617,-1.569000005722046 C20.125,10.152000427246094 4.828999996185303,16.232999801635742 -4.948999881744385,15 C-10.571000099182129,14.289999961853027 -15.369999885559082,9.940999984741211 -17.847999572753906,4.565999984741211z"></path></g><g opacity="1" transform="matrix(1,0,0,1,203.17999267578125,47.11399841308594)"><path fill="rgb(252,215,190)" fill-opacity="1" d=" M24.982999801635742,-16.53700065612793 C25.316999435424805,-15.161999702453613 25.618999481201172,-13.586999893188477 24.805999755859375,-12.428000450134277 C24.503000259399414,-11.993000030517578 24.066999435424805,-11.666999816894531 23.611000061035156,-11.395000457763672 C21.160999298095703,-9.934000015258789 17.79599952697754,-9.73900032043457 16.194000244140625,-7.377999782562256 C15.244999885559082,-5.979000091552734 15.201000213623047,-4.177999973297119 15.156999588012695,-2.48799991607666 C15.10200023651123,-0.3619999885559082 14.993000030517578,1.7730000019073486 14.571000099182129,3.8580000400543213 C13.460000038146973,9.342000007629395 8.878999710083008,17.417999267578125 -0.37299999594688416,21.73200035095215 C-5.8480000495910645,24.284000396728516 -13.654999732971191,23.707000732421875 -18.246999740600586,18.444000244140625 C-25.618999481201172,9.99899959564209 -21.40999984741211,-8.315999984741211 -14.282999992370605,-15.243000030517578 C-14.282999992370605,-15.243000030517578 -16.570999145507812,-7.676000118255615 -10.144000053405762,-4.830999851226807 C-0.8360000252723694,-0.7120000123977661 11.395000457763672,-6.176000118255615 15.253000259399414,-15.300000190734863 C16.461999893188477,-18.159000396728516 17.104000091552734,-21.22100067138672 17.607999801635742,-24.284000396728516"></path></g><g opacity="1" transform="matrix(1,0,0,1,225.197998046875,27.413000106811523)"><path fill="rgb(0,131,125)" fill-opacity="1" d=" M-1.0290000438690186,9.333000183105469 C1.1100000143051147,15.597000122070312 9.52400016784668,18.464000701904297 15.329999923706055,16.83300018310547 C18.847999572753906,15.845999717712402 22.697999954223633,14.229999542236328 25.19700050354004,11.46500015258789 C26.160999298095703,10.39799976348877 27.864999771118164,8.210000038146973 27.542999267578125,6.61899995803833 C27.048999786376953,4.179999828338623 24.97599983215332,5.066999912261963 22.84600067138672,5.436999797821045 C20.93600082397461,5.76800012588501 18.917999267578125,5.435999870300293 17.214000701904297,4.511000156402588 C11.720999717712402,1.527999997138977 12.670999526977539,-7.459000110626221 8.63700008392334,-11.937999725341797 C4.61899995803833,-16.398000717163086 -1.8329999446868896,-18.464000701904297 -7.611000061035156,-18.07900047302246 C-22.041000366210938,-17.115999221801758 -27.864999771118164,-6.873000144958496 -27.864999771118164,-6.873000144958496 C-20.16200065612793,-6.640999794006348 -11.890000343322754,-5.205999851226807 -5.797999858856201,-0.11800000071525574 C-2.6679999828338623,2.496000051498413 -2.128000020980835,6.114999771118164 -1.0290000438690186,9.333000183105469z"></path></g><g opacity="1" transform="matrix(1,0,0,1,202.7050018310547,28.558000564575195)"><path fill="rgb(77,67,95)" fill-opacity="1" d=" M-3.243000030517578,0 C-3.243000030517578,-1.7920000553131104 -1.7920000553131104,-3.24399995803833 -0.0010000000474974513,-3.24399995803833 C1.7910000085830688,-3.24399995803833 3.243000030517578,-1.7920000553131104 3.243000030517578,0 C3.243000030517578,1.7920000553131104 1.7910000085830688,3.24399995803833 -0.0010000000474974513,3.24399995803833 C-1.7920000553131104,3.24399995803833 -3.243000030517578,1.7920000553131104 -3.243000030517578,0z"></path></g><g opacity="1" transform="matrix(1,0,0,1,186.947998046875,29.344999313354492)"><path fill="rgb(240,108,94)" fill-opacity="1" d=" M-2.3929998874664307,-7.258999824523926 C3.1579999923706055,-7.74399995803833 8.967000007629395,-1.1390000581741333 6.307000160217285,4.354000091552734 C5.625,5.763999938964844 4.052000045776367,6.545000076293945 2.572999954223633,6.888999938964844 C-1.1080000400543213,7.74399995803833 -4.802999973297119,6.38100004196167 -6.875999927520752,3.494999885559082 C-8.968000411987305,0.5839999914169312 -8.807000160217285,-4.6479997634887695 -4.599999904632568,-6.6570000648498535 C-3.882999897003174,-7 -3.1410000324249268,-7.193999767303467 -2.3929998874664307,-7.258999824523926z"></path></g><g opacity="1" transform="matrix(1,0,0,1,226.31300354003906,37.42399978637695)"><path fill="rgb(250,188,150)" fill-opacity="1" d=" M-5.925000190734863,1.4989999532699585 C-5.0269999504089355,-1.468000054359436 -0.8379999995231628,-5.623000144958496 3.319000005722046,-3.9210000038146973 C5.051000118255615,-3.2130000591278076 5.925000190734863,-1.0709999799728394 5.525000095367432,0.7570000290870667 C5.126999855041504,2.5840001106262207 3.6559998989105225,4.056000232696533 1.937999963760376,4.796000003814697 C0.2199999988079071,5.534999847412109 -1.7170000076293945,5.623000144958496 -3.5759999752044678,5.423999786376953"></path></g><g opacity="1" transform="matrix(1,0,0,1,206.2220001220703,21.722999572753906)"><path fill="rgb(77,67,95)" fill-opacity="1" d=" M-6.968999862670898,4.76800012588501 C-4.0269999504089355,4.855000019073486 7.994999885559082,2.242000102996826 4.640999794006348,-2.5850000381469727 C3.065000057220459,-4.855000019073486 -0.07699999958276749,-3.196000099182129 -1.8329999446868896,-2.0829999446868896 C-3.8540000915527344,-0.800000011920929 -7.390999794006348,1.4630000591278076 -7.935999870300293,3.930999994277954 C-7.9710001945495605,4.089000225067139 -7.994999885559082,4.260000228881836 -7.929999828338623,4.408999919891357 C-7.809000015258789,4.684999942779541 -7.448999881744385,4.749000072479248 -7.14900016784668,4.76200008392334 C-7.089000225067139,4.763999938964844 -7.03000020980835,4.767000198364258 -6.968999862670898,4.76800012588501z"></path></g></g><g transform="matrix(0.3231084942817688,0.08055999875068665,-0.08055999875068665,0.3231084942817688,-1.8076119422912598,-16.841968536376953)" opacity="1" style="display: block;"><g opacity="1" transform="matrix(1,0,0,1,211.39100646972656,54.40999984741211)"><path stroke-linecap="butt" stroke-linejoin="miter" fill-opacity="0" stroke-miterlimit="10" stroke="rgb(217,28,92)" stroke-opacity="1" stroke-width="13.549" d=" M17.937999725341797,0.28299999237060547 C8.996999740600586,5.8480000495910645 -5.442999839782715,7.335000038146973 -17.937999725341797,-7.334000110626221"></path></g></g><g transform="matrix(0.32446524500846863,-0.07490870356559753,0.07490870356559753,0.32446524500846863,-9.759684562683105,14.319889068603516)" opacity="1" style="display: block;"><g opacity="1" transform="matrix(1,0,0,1,187.5850067138672,43.198001861572266)"><path fill="rgb(250,188,150)" fill-opacity="1" d=" M-1.6670000553131104,-12.21500015258789 C-5.551000118255615,-11.850000381469727 -9.32699966430664,-9.753999710083008 -11.338000297546387,-6.410999774932861 C-13.348999977111816,-3.069000005722046 -13.354999542236328,1.4889999628067017 -11.020999908447266,4.613999843597412 C-4.960000038146973,12.729999542236328 13.354999542236328,7.056000232696533 12.086000442504883,-3.6760001182556152 C11.32800006866455,-10.072999954223633 3.812000036239624,-12.729999542236328 -1.6670000553131104,-12.21500015258789z"></path></g><g opacity="1" transform="matrix(1,0,0,1,193.447998046875,47.0629997253418)"><path fill="rgb(113,66,56)" fill-opacity="1" d=" M10.151000022888184,0 C10.151000022888184,-5.605999946594238 5.605999946594238,-10.151000022888184 0,-10.151000022888184 C-5.605999946594238,-10.151000022888184 -10.151000022888184,-5.605999946594238 -10.151000022888184,0 C-10.151000022888184,5.605999946594238 -5.605999946594238,10.151000022888184 0,10.151000022888184 C5.605999946594238,10.151000022888184 10.151000022888184,5.605999946594238 10.151000022888184,0z"></path></g></g></g></svg>