<svg xmlns="http://www.w3.org/2000/svg" viewBox="0 0 103 95" width="103" height="95" preserveAspectRatio="xMidYMid meet" style="width: 100%; height: 100%; transform: translate3d(0px, 0px, 0px); content-visibility: visible;"><defs><clipPath id="__lottie_element_4607"><rect width="103" height="95" x="0" y="0"></rect></clipPath><mask id="__lottie_element_4615" mask-type="alpha"><g transform="matrix(0.257999986410141,0,0,0.5700948238372803,1.190002679824829,65.68502044677734)" opacity="1" style="display: block;"><path fill="rgb(255,0,0)" fill-opacity="1" d=" M50,-50 C50,-50 50,50 50,50 C50,50 -50,50 -50,50 C-50,50 -50,-50 -50,-50 C-50,-50 50,-50 50,-50z"></path></g></mask><mask id="__lottie_element_4621" mask-type="alpha"><g transform="matrix(0.257999986410141,0,0,0.5700948238372803,101.80999755859375,65.68502044677734)" opacity="1" style="display: block;"><path fill="rgb(255,0,0)" fill-opacity="1" d=" M50,-50 C50,-50 50,50 50,50 C50,50 -50,50 -50,50 C-50,50 -50,-50 -50,-50 C-50,-50 50,-50 50,-50z"></path></g></mask></defs><g clip-path="url(#__lottie_element_4607)"><g transform="matrix(1.8059998750686646,0,0,1.8059998750686646,-37.39673614501953,-3.0120086669921875)" opacity="1" style="display: block;"><g opacity="1" transform="matrix(1,0,0,1,0,0)"><path stroke-linecap="round" stroke-linejoin="round" fill-opacity="0" stroke="rgb(184,228,250)" stroke-opacity="1" stroke-width="1" d=" M39.14099884033203,53.50400161743164 C39.14099884033203,53.50400161743164 59.31800079345703,53.50400161743164 59.31800079345703,53.50400161743164"></path></g><g opacity="1" transform="matrix(1,0,0,1,38.85200119018555,28.00200080871582)"><path stroke-linecap="round" stroke-linejoin="round" fill-opacity="0" stroke="rgb(184,228,250)" stroke-opacity="1" stroke-width="1" d=" M-10.376999855041504,-15.125 C-10.376999855041504,-20.856000900268555 -5.730999946594238,-25.50200080871582 0,-25.50200080871582 C5.730999946594238,-25.50200080871582 10.376999855041504,-20.856000900268555 10.376999855041504,-15.125 C10.376999855041504,-15.125 10.376999855041504,25.50200080871582 10.376999855041504,25.50200080871582"></path></g><g opacity="1" transform="matrix(1,0,0,1,59.60599899291992,28.00200080871582)"><path stroke-linecap="round" stroke-linejoin="round" fill-opacity="0" stroke="rgb(184,228,250)" stroke-opacity="1" stroke-width="1" d=" M10.376999855041504,-15.125 C10.376999855041504,-20.856000900268555 5.730999946594238,-25.50200080871582 0,-25.50200080871582 C-5.730999946594238,-25.50200080871582 -10.376999855041504,-20.856000900268555 -10.376999855041504,-15.125 C-10.376999855041504,-15.125 -10.376999855041504,25.50200080871582 -10.376999855041504,25.50200080871582"></path></g><g opacity="1" transform="matrix(1,0,0,1,66.61199951171875,33.00600051879883)"><path stroke-linecap="round" stroke-linejoin="round" fill-opacity="0" stroke="rgb(184,228,250)" stroke-opacity="1" stroke-width="1" d=" M-10.376999855041504,17.780000686645508 C-10.376999855041504,10.28600025177002 -10.376999855041504,-10.121000289916992 -10.376999855041504,-10.121000289916992 C-10.376999855041504,-15.85200023651123 -5.730999946594238,-20.49799919128418 0,-20.49799919128418 C5.730999946594238,-20.49799919128418 10.376999855041504,-15.85200023651123 10.376999855041504,-10.121000289916992"></path></g><g opacity="1" transform="matrix(1,0,0,1,31.847000122070312,33.00600051879883)"><path stroke-linecap="round" stroke-linejoin="round" fill-opacity="0" stroke="rgb(184,228,250)" stroke-opacity="1" stroke-width="1" d=" M10.376999855041504,17.780000686645508 C10.376999855041504,10.28600025177002 10.376999855041504,-10.121000289916992 10.376999855041504,-10.121000289916992 C10.376999855041504,-15.85200023651123 5.730999946594238,-20.49799919128418 0,-20.49799919128418 C-5.730999946594238,-20.49799919128418 -10.376999855041504,-15.85200023651123 -10.376999855041504,-10.121000289916992"></path></g></g><g mask="url(#__lottie_element_4615)" style="display: block;"><g transform="matrix(0.257999986410141,0,0,0.257999986410141,503.386962890625,-229.236572265625)" opacity="1"><path stroke-linecap="round" stroke-linejoin="miter" fill-opacity="0" stroke-miterlimit="4" stroke="rgb(185,229,251)" stroke-opacity="1" stroke-width="7" d=" M-1946,1123 C-1946,1123 -1946,1142 -1946,1142 M-1946,1071 C-1946,1071 -1946,1090 -1946,1090 M-1946,1177 C-1946,1177 -1946,1196 -1946,1196 M-1946,1230 C-1946,1230 -1946,1249 -1946,1249 M-1946,1283 C-1946,1283 -1946,1302 -1946,1302 M-1946,967 C-1946,967 -1946,986 -1946,986 M-1946,915 C-1946,915 -1946,934 -1946,934 M-1946,865 C-1946,865 -1946,884 -1946,884 M-1946,1021 C-1946,1021 -1946,1040 -1946,1040"></path><g opacity="1" transform="matrix(1,0,0,1,0,0)"></g><g opacity="1" transform="matrix(1,0,0,1,0,-52)"></g><g opacity="1" transform="matrix(1,0,0,1,0,54)"></g><g opacity="1" transform="matrix(1,0,0,1,0,107)"></g><g opacity="1" transform="matrix(1,0,0,1,0,160)"></g><g opacity="1" transform="matrix(1,0,0,1,0,-156)"></g><g opacity="1" transform="matrix(1,0,0,1,0,-208)"></g><g opacity="1" transform="matrix(1,0,0,1,0,-258)"></g><g opacity="1" transform="matrix(1,0,0,1,0,-102)"></g></g></g><g mask="url(#__lottie_element_4621)" style="display: block;"><g transform="matrix(0.257999986410141,0,0,0.257999986410141,603.6199951171875,-229.236572265625)" opacity="1"><path stroke-linecap="round" stroke-linejoin="miter" fill-opacity="0" stroke-miterlimit="4" stroke="rgb(185,229,251)" stroke-opacity="1" stroke-width="7" d=" M-1946,1123 C-1946,1123 -1946,1142 -1946,1142 M-1946,1071 C-1946,1071 -1946,1090 -1946,1090 M-1946,1177 C-1946,1177 -1946,1196 -1946,1196 M-1946,1230 C-1946,1230 -1946,1249 -1946,1249 M-1946,1283 C-1946,1283 -1946,1302 -1946,1302 M-1946,967 C-1946,967 -1946,986 -1946,986 M-1946,915 C-1946,915 -1946,934 -1946,934 M-1946,865 C-1946,865 -1946,884 -1946,884 M-1946,1021 C-1946,1021 -1946,1040 -1946,1040"></path><g opacity="1" transform="matrix(1,0,0,1,0,0)"></g><g opacity="1" transform="matrix(1,0,0,1,0,-52)"></g><g opacity="1" transform="matrix(1,0,0,1,0,54)"></g><g opacity="1" transform="matrix(1,0,0,1,0,107)"></g><g opacity="1" transform="matrix(1,0,0,1,0,160)"></g><g opacity="1" transform="matrix(1,0,0,1,0,-156)"></g><g opacity="1" transform="matrix(1,0,0,1,0,-208)"></g><g opacity="1" transform="matrix(1,0,0,1,0,-258)"></g><g opacity="1" transform="matrix(1,0,0,1,0,-102)"></g></g></g></g></svg>