<svg xmlns="http://www.w3.org/2000/svg" viewBox="0 0 112 60" width="112" height="60" preserveAspectRatio="xMidYMid meet" style="width: 100%; height: 100%; transform: translate3d(0px, 0px, 0px); content-visibility: visible;"><defs><clipPath id="__lottie_element_1938"><rect width="112" height="60" x="0" y="0"></rect></clipPath></defs><g clip-path="url(#__lottie_element_1938)"><g transform="matrix(0.257999986410141,0,0,0.257999986410141,-850.1990966796875,-668.380126953125)" opacity="1" style="display: block;"><g opacity="1" transform="matrix(1,0,0,1,3610.949951171875,2698.52490234375)"><path fill="rgb(192,66,60)" fill-opacity="1" d=" M45.5629997253418,-19.461000442504883 C45.5629997253418,-19.461000442504883 -45.5629997253418,11.32800006866455 -45.5629997253418,11.32800006866455 C-45.5629997253418,11.32800006866455 -45.5629997253418,19.461000442504883 -45.5629997253418,19.461000442504883 C-45.5629997253418,19.461000442504883 45.5629997253418,-11.32800006866455 45.5629997253418,-11.32800006866455 C45.5629997253418,-11.32800006866455 45.5629997253418,-19.461000442504883 45.5629997253418,-19.461000442504883z"></path></g></g><g transform="matrix(0.257999986410141,0,0,0.257999986410141,-850.1990966796875,-668.380126953125)" opacity="1" style="display: block;"><g opacity="1" transform="matrix(1,0,0,1,3636.8740234375,2678.69189453125)"><path fill="rgb(139,124,141)" fill-opacity="1" d=" M-15.819999694824219,-8.748000144958496 C-15.819999694824219,-8.748000144958496 15.819999694824219,-8.748000144958496 15.819999694824219,-8.748000144958496 C15.819999694824219,-8.748000144958496 15.819999694824219,8.748000144958496 15.819999694824219,8.748000144958496 C15.819999694824219,8.748000144958496 -1.0089999437332153,8.748000144958496 -1.0089999437332153,8.748000144958496 C-1.0089999437332153,8.748000144958496 -15.819999694824219,-6.486999988555908 -15.819999694824219,-6.486999988555908 C-15.819999694824219,-6.486999988555908 -15.819999694824219,-8.748000144958496 -15.819999694824219,-8.748000144958496z"></path></g><g opacity="1" transform="matrix(1,0,0,1,3676.1669921875,2660.23388671875)"><path fill="rgb(244,155,155)" fill-opacity="1" d=" M4.918000221252441,5.040999889373779 C6.15500020980835,0.9079999923706055 2.496000051498413,-2.9809999465942383 -1.0729999542236328,-4.390999794006348 C-2.2720000743865967,-4.863999843597412 -3.635999917984009,-5.040999889373779 -4.853000164031982,-4.616000175476074 C-5.382999897003174,-4.431000232696533 -6.15500020980835,-3.9089999198913574 -5.808000087738037,-3.250999927520752 C-5.690999984741211,-3.0329999923706055 -5.495999813079834,-2.869999885559082 -5.306000232696533,-2.7119998931884766 C-4.461999893188477,-2.0160000324249268 -2.799999952316284,-1.3550000190734863 -2.4619998931884766,-0.2199999988079071 C-2.234999895095825,0.5400000214576721 -2.686000108718872,2.302999973297119 -3.305000066757202,2.7730000019073486"></path></g><g opacity="1" transform="matrix(1,0,0,1,3676.445068359375,2664.617919921875)"><path fill="rgb(244,155,155)" fill-opacity="1" d=" M4.622000217437744,4.822000026702881 C4.622000217437744,4.822000026702881 5.822000026702881,3.7760000228881836 6.6579999923706055,2.2799999713897705 C7.124000072479248,1.4470000267028809 6.867000102996826,0.3959999978542328 6.079999923706055,-0.14399999380111694 C4.1570000648498535,-1.4630000591278076 0.03799999877810478,-3.859999895095825 -5.583000183105469,-4.764999866485596 C-5.931000232696533,-4.822000026702881 -6.26200008392334,-4.591000080108643 -6.3379998207092285,-4.245999813079834 C-6.3379998207092285,-4.245999813079834 -7.124000072479248,-0.6800000071525574 -7.124000072479248,-0.6800000071525574 C-7.124000072479248,-0.6800000071525574 0.26499998569488525,1.0839999914169312 4.622000217437744,4.822000026702881z"></path></g><g opacity="1" transform="matrix(1,0,0,1,3680.617919921875,2678.39794921875)"><path fill="rgb(174,153,164)" fill-opacity="1" d=" M-15.081999778747559,8.508999824523926 C-13.942999839782715,10.116000175476074 -9.625,12.557000160217285 -5.23199987411499,11.994999885559082 C-4.328000068664551,11.880000114440918 -3.302999973297119,11.869999885559082 -2.5940001010894775,12.442999839782715 C-1.8339999914169312,13.057000160217285 -0.9179999828338623,13.918999671936035 -0.33799999952316284,12.447999954223633 C0.06199999898672104,11.437000274658203 -0.9769999980926514,10.72700023651123 -1.2710000276565552,9.833999633789062 C-1.4170000553131104,9.394000053405762 -1.3730000257492065,8.847999572753906 -1.0180000066757202,8.550000190734863 C-0.48399999737739563,9.215999603271484 0.18700000643730164,9.770999908447266 0.9399999976158142,10.170000076293945 C1.9279999732971191,10.692000389099121 2.8320000171661377,11.109999656677246 3.9509999752044678,11.3149995803833 C5.390999794006348,11.579000473022461 6.882999897003174,11.585000038146973 8.324999809265137,11.338000297546387 C11.09000015258789,10.86299991607666 13.77400016784668,9.388999938964844 15.114999771118164,6.8420000076293945 C16.256000518798828,4.676000118255615 16.649999618530273,1.7170000076293945 15.281999588012695,-0.4429999887943268 C14.529999732971191,-1.6299999952316284 11.916999816894531,-2.359999895095825 11.57800006866455,-0.4819999933242798 C11.343000411987305,0.8240000009536743 12.517999649047852,0.17599999904632568 13.08899974822998,0.9079999923706055 C13.440999984741211,1.3609999418258667 13.375,2.2269999980926514 13.244999885559082,2.740000009536743 C12.932000160217285,3.9820001125335693 11.829999923706055,5.000999927520752 10.62600040435791,5.373000144958496 C8.569999694824219,6.007999897003174 6.7129998207092285,5.920000076293945 5.126999855041504,4.341000080108643 C4.171000003814697,3.3889999389648438 3.4119999408721924,2.249000072479248 3.447000026702881,0.8989999890327454 C3.490999937057495,-0.7680000066757202 3.927999973297119,-2.510999917984009 3.509999990463257,-4.160999774932861 C3.009000062942505,-6.139999866485596 2.2279999256134033,-8.274999618530273 0.5550000071525574,-9.567000389099121 C-1.5089999437332153,-11.15999984741211 -4.00600004196167,-12.218000411987305 -6.453999996185303,-13.0600004196167 C-8.159000396728516,-13.645999908447266 -9.597000122070312,-13.918999671936035 -11.383000373840332,-13.678999900817871 C-13.168999671936035,-13.4399995803833 -14.89900016784668,-12.902000427246094 -16.649999618530273,-12.47700023651123"></path></g><g opacity="1" transform="matrix(1,0,0,1,3641.323974609375,2680.23193359375)"><path fill="rgb(174,153,164)" fill-opacity="1" d=" M16.23699951171875,-16.89900016784668 C16.23699951171875,-16.89900016784668 9.503000259399414,-16.89900016784668 9.503000259399414,-16.89900016784668 C9.333999633789062,-16.89900016784668 9.196999549865723,-16.761999130249023 9.196999549865723,-16.5939998626709 C9.196999549865723,-14.57800006866455 7.547999858856201,-12.928000450134277 5.5320000648498535,-12.928000450134277 C5.015999794006348,-12.928000450134277 4.5980000495910645,-12.510000228881836 4.5980000495910645,-11.994000434875488 C4.5980000495910645,-11.994000434875488 4.5980000495910645,-2.617000102996826 4.5980000495910645,-2.617000102996826 C4.5980000495910645,0.5 2.0490000247955322,3.0510001182556152 -1.069000005722046,3.0510001182556152 C-4.185999870300293,3.0510001182556152 -6.736999988555908,0.5 -6.736999988555908,-2.617000102996826 C-6.736999988555908,-2.617000102996826 -6.736999988555908,-11.994000434875488 -6.736999988555908,-11.994000434875488 C-6.736999988555908,-12.510000228881836 -7.15500020980835,-12.928000450134277 -7.670000076293945,-12.928000450134277 C-7.670000076293945,-12.928000450134277 -16.628000259399414,-12.928000450134277 -16.628000259399414,-12.928000450134277 C-18.549999237060547,-12.928000450134277 -20.135000228881836,-14.428999900817871 -20.27899932861328,-16.31599998474121 C-26.277999877929688,-14.555999755859375 -30.69300079345703,-8.991999626159668 -30.69300079345703,-2.443000078201294 C-30.69300079345703,-2.443000078201294 -30.69300079345703,2.444000005722046 -30.69300079345703,2.444000005722046 C-30.69300079345703,10.394000053405762 -24.187999725341797,16.89900016784668 -16.23699951171875,16.89900016784668 C-16.23699951171875,16.89900016784668 16.23699951171875,16.89900016784668 16.23699951171875,16.89900016784668 C24.187000274658203,16.89900016784668 30.69300079345703,10.394000053405762 30.69300079345703,2.444000005722046 C30.69300079345703,2.444000005722046 30.69300079345703,-2.443000078201294 30.69300079345703,-2.443000078201294 C30.69300079345703,-10.394000053405762 24.187000274658203,-16.89900016784668 16.23699951171875,-16.89900016784668z"></path></g><g opacity="1" transform="matrix(1,0,0,1,3639.7880859375,2698.195068359375)"><path fill="rgb(174,153,164)" fill-opacity="1" d=" M15.869000434875488,-1.7339999675750732 C11.020000457763672,0.7300000190734863 5.502999782562256,1.7339999675750732 0.06499999761581421,1.6019999980926514 C-5.372000217437744,1.4700000286102295 -10.741000175476074,0.23499999940395355 -15.869000434875488,-1.5800000429153442"></path></g><g opacity="1" transform="matrix(1,0,0,1,3616.533935546875,2694.5048828125)"><path fill="rgb(174,153,164)" fill-opacity="1" d=" M12.581000328063965,3.11899995803833 C9.668999671936035,2.765000104904175 8.494000434875488,5.061999797821045 6.135000228881836,6.073999881744385 C4,6.988999843597412 1.4639999866485596,7.064000129699707 -0.7509999871253967,6.59499979019165 C-2.3499999046325684,6.25600004196167 -3.7049999237060547,5.084000110626221 -5.3460001945495605,4.9120001792907715 C-6.208000183105469,4.821000099182129 -6.427999973297119,5.105999946594238 -7.09499979019165,5.453999996185303 C-9.20199966430664,6.554999828338623 -12.581000328063965,6.26800012588501 -12.321000099182129,3.25 C-12.121000289916992,0.9179999828338623 -10.368000030517578,-1.340000033378601 -8.373000144958496,-2.4549999237060547 C-7.142000198364258,-3.1440000534057617 -6.447999954223633,-3.0840001106262207 -5.327000141143799,-2.4860000610351562 C-3.5280001163482666,-1.5269999504089355 -3.135999917984009,-6.211999893188477 -2.4110000133514404,-7.064000129699707"></path></g><g opacity="1" transform="matrix(1,0,0,1,3660.162109375,2695.906005859375)"><path fill="rgb(174,153,164)" fill-opacity="1" d=" M-12.756999969482422,0.25200000405311584 C-11.40999984741211,0.03099999949336052 -10.071999549865723,0.699999988079071 -8.993000030517578,1.534999966621399 C-7.914000034332275,2.369999885559082 -7.361000061035156,3.9579999446868896 -6.181000232696533,4.642000198364258 C-3.611999988555908,6.131999969482422 -1.2410000562667847,5.3470001220703125 1.3309999704360962,4.451000213623047 C2.4019999504089355,4.077000141143799 3.437999963760376,3.9200000762939453 4.341000080108643,4.613999843597412 C5.014999866485596,5.135000228881836 5.159999847412109,5.556000232696533 6.13700008392334,5.376999855041504 C7.546999931335449,5.119999885559082 8.930000305175781,3.816999912261963 9.847999572753906,2.7829999923706055 C10.60099983215332,1.934999942779541 12.756999969482422,-1.2330000400543213 11.060999870300293,-2.134999990463257 C10.376999855041504,-2.497999906539917 8.97700023651123,-2.0490000247955322 8.281000137329102,-1.8359999656677246 C8.722000122070312,-1.9709999561309814 7.0970001220703125,-3.75600004196167 6.986000061035156,-3.8299999237060547 C5.13100004196167,-5.068999767303467 2.9089999198913574,-4.271999835968018 0.949999988079071,-3.7039999961853027 C0.7139999866485596,-3.635999917984009 0.4390000104904175,-3.575000047683716 0.23899999260902405,-3.7170000076293945 C0.10400000214576721,-3.812000036239624 0.039000000804662704,-3.9769999980926514 0.010999999940395355,-4.139999866485596 C-0.05299999937415123,-4.507999897003174 0.039000000804662704,-4.88700008392334 0.020999999716877937,-5.260000228881836 C0.004000000189989805,-5.633999824523926 -0.18299999833106995,-6.052999973297119 -0.5479999780654907,-6.132999897003174"></path></g><g opacity="1" transform="matrix(1,0,0,1,3608.327880859375,2682.626953125)"><path stroke-linecap="round" stroke-linejoin="round" fill-opacity="0" stroke="rgb(174,153,164)" stroke-opacity="1" stroke-width="2.162" d=" M-3.9830000400543213,0.515999972820282 C-2.7209999561309814,-0.2750000059604645 -1.128999948501587,-0.515999972820282 0.31200000643730164,-0.13500000536441803 C0.9490000009536743,0.03400000184774399 1.5570000410079956,0.3190000057220459 2.2090001106262207,0.4059999883174896 C2.86299991607666,0.49399998784065247 3.6089999675750732,0.3330000042915344 3.9830000400543213,-0.20999999344348907"></path></g><g opacity="1" transform="matrix(1,0,0,1,3663.721923828125,2664.31494140625)"><path fill="rgb(139,124,141)" fill-opacity="1" d=" M10.468999862670898,6.668000221252441 C10.128000259399414,6.23199987411499 9.670000076293945,5.708000183105469 9.696000099182129,4.9070000648498535 C9.71500015258789,4.281000137329102 10.473999977111816,3.325000047683716 10.890999794006348,2.8919999599456787 C11.236000061035156,2.5339999198913574 11.628000259399414,2.2149999141693115 11.87399959564209,1.7719999551773071 C13.446000099182129,-1.0499999523162842 10.093999862670898,-2.7269999980926514 8.119000434875488,-3.4619998931884766 C4.710000038146973,-4.73199987411499 1.5219999551773071,-5.182000160217285 -2.0769999027252197,-5.300000190734863 C-4.1539998054504395,-5.36899995803833 -6.138999938964844,-6.160999774932861 -8.192999839782715,-6.434000015258789 C-9.251999855041504,-6.574999809265137 -10.418999671936035,-6.668000221252441 -11.4350004196167,-6.241000175476074 C-12.119000434875488,-5.954999923706055 -13.444999694824219,-5.234000205993652 -13.15999984741211,-4.188000202178955 C-13.057999610900879,-3.815999984741211 -12.781999588012695,-3.5350000858306885 -12.508999824523926,-3.2850000858306885 C-11.543000221252441,-2.4049999713897705 -10.739999771118164,-1.402999997138977 -9.857000350952148,-0.42800000309944153 C-8.944999694824219,0.5820000171661377 -6.776000022888184,4.723999977111816 -6.566999912261963,6.119999885559082 C-6.566999912261963,6.119999885559082 10.468999862670898,6.668000221252441 10.468999862670898,6.668000221252441z"></path></g><g opacity="1" transform="matrix(1,0,0,1,3682.528076171875,2677.76611328125)"><path fill="rgb(251,233,220)" fill-opacity="1" d=" M0.890999972820282,0 C0.890999972820282,-1.1119999885559082 0.492000013589859,-2.013000011444092 0,-2.013000011444092 C-0.492000013589859,-2.013000011444092 -0.8899999856948853,-1.1119999885559082 -0.8899999856948853,0 C-0.8899999856948853,1.1109999418258667 -0.492000013589859,2.013000011444092 0,2.013000011444092 C0.492000013589859,2.013000011444092 0.890999972820282,1.1109999418258667 0.890999972820282,0z"></path></g><g opacity="1" transform="matrix(1,0,0,1,3656.110107421875,2673.383056640625)"><path fill="rgb(251,233,220)" fill-opacity="1" d=" M3.0299999713897705,13.017000198364258 C1.5360000133514404,13.017000198364258 0.328000009059906,11.809000015258789 0.328000009059906,10.3149995803833 C0.328000009059906,-2.5850000381469727 -4.676000118255615,-8.140000343322754 -4.723999977111816,-8.194999694824219 C-5.73199987411499,-9.281999588012695 -5.684000015258789,-10.987000465393066 -4.607999801635742,-12.005999565124512 C-3.5309998989105225,-13.017000198364258 -1.847000002861023,-12.994999885559082 -0.8130000233650208,-11.927000045776367 C-0.5490000247955322,-11.647000312805176 5.73199987411499,-4.956999778747559 5.73199987411499,10.3149995803833 C5.73199987411499,11.809000015258789 4.5229997634887695,13.017000198364258 3.0299999713897705,13.017000198364258z"></path></g></g><g transform="matrix(0.257999986410141,0,0,0.257999986410141,-850.1990966796875,-668.380126953125)" opacity="1" style="display: block;"><g opacity="1" transform="matrix(1,0,0,1,3415.013916015625,2698.52490234375)"><path fill="rgb(192,66,60)" fill-opacity="1" d=" M-45.5629997253418,-19.461000442504883 C-45.5629997253418,-19.461000442504883 45.5629997253418,11.32800006866455 45.5629997253418,11.32800006866455 C45.5629997253418,11.32800006866455 45.5629997253418,19.461000442504883 45.5629997253418,19.461000442504883 C45.5629997253418,19.461000442504883 -45.5629997253418,-11.32800006866455 -45.5629997253418,-11.32800006866455 C-45.5629997253418,-11.32800006866455 -45.5629997253418,-19.461000442504883 -45.5629997253418,-19.461000442504883z"></path></g></g><g transform="matrix(0.257999986410141,0,0,0.257999986410141,-850.1990966796875,-668.380126953125)" opacity="1" style="display: block;"><g opacity="1" transform="matrix(1,0,0,1,3363.680908203125,2678.69189453125)"><path fill="rgb(139,124,141)" fill-opacity="1" d=" M-15.819999694824219,-8.748000144958496 C-15.819999694824219,-8.748000144958496 15.821000099182129,-8.748000144958496 15.821000099182129,-8.748000144958496 C15.821000099182129,-8.748000144958496 15.821000099182129,8.748000144958496 15.821000099182129,8.748000144958496 C15.821000099182129,8.748000144958496 -1.0099999904632568,8.748000144958496 -1.0099999904632568,8.748000144958496 C-1.0099999904632568,8.748000144958496 -15.819999694824219,-6.486999988555908 -15.819999694824219,-6.486999988555908 C-15.819999694824219,-6.486999988555908 -15.819999694824219,-8.748000144958496 -15.819999694824219,-8.748000144958496z"></path></g><g opacity="1" transform="matrix(1,0,0,1,3402.97412109375,2660.23388671875)"><path fill="rgb(255,200,77)" fill-opacity="1" d=" M4.918000221252441,5.040999889373779 C6.156000137329102,0.9079999923706055 2.496999979019165,-2.9809999465942383 -1.0729999542236328,-4.390999794006348 C-2.2720000743865967,-4.863999843597412 -3.635999917984009,-5.040999889373779 -4.854000091552734,-4.616000175476074 C-5.382999897003174,-4.431000232696533 -6.15500020980835,-3.9089999198913574 -5.807000160217285,-3.250999927520752 C-5.690999984741211,-3.0329999923706055 -5.495999813079834,-2.869999885559082 -5.304999828338623,-2.7119998931884766 C-4.461999893188477,-2.0160000324249268 -2.7990000247955322,-1.3550000190734863 -2.4609999656677246,-0.2199999988079071 C-2.2339999675750732,0.5400000214576721 -2.686000108718872,2.302999973297119 -3.305000066757202,2.7730000019073486"></path></g><g opacity="1" transform="matrix(1,0,0,1,3403.251953125,2664.617919921875)"><path fill="rgb(255,200,77)" fill-opacity="1" d=" M4.623000144958496,4.822000026702881 C4.623000144958496,4.822000026702881 5.822000026702881,3.7760000228881836 6.658999919891357,2.2799999713897705 C7.124000072479248,1.4470000267028809 6.868000030517578,0.3959999978542328 6.080999851226807,-0.14399999380111694 C4.1570000648498535,-1.4630000591278076 0.03799999877810478,-3.859999895095825 -5.583000183105469,-4.764999866485596 C-5.931000232696533,-4.822000026702881 -6.261000156402588,-4.591000080108643 -6.336999893188477,-4.245999813079834 C-6.336999893188477,-4.245999813079834 -7.124000072479248,-0.6800000071525574 -7.124000072479248,-0.6800000071525574 C-7.124000072479248,-0.6800000071525574 0.26499998569488525,1.0839999914169312 4.623000144958496,4.822000026702881z"></path></g><g opacity="1" transform="matrix(1,0,0,1,3407.425048828125,2678.39794921875)"><path fill="rgb(174,153,164)" fill-opacity="1" d=" M-15.081000328063965,8.508999824523926 C-13.942999839782715,10.116000175476074 -9.625,12.557000160217285 -5.23199987411499,11.994999885559082 C-4.328000068664551,11.880000114440918 -3.302000045776367,11.869999885559082 -2.5929999351501465,12.442999839782715 C-1.8329999446868896,13.057000160217285 -0.9179999828338623,13.918999671936035 -0.3370000123977661,12.447999954223633 C0.06199999898672104,11.437000274658203 -0.9760000109672546,10.72700023651123 -1.2710000276565552,9.833999633789062 C-1.4170000553131104,9.394000053405762 -1.371999979019165,8.847999572753906 -1.0169999599456787,8.550000190734863 C-0.48399999737739563,9.215999603271484 0.18700000643730164,9.770999908447266 0.9409999847412109,10.170000076293945 C1.9290000200271606,10.692000389099121 2.8329999446868896,11.109999656677246 3.9519999027252197,11.3149995803833 C5.390999794006348,11.579000473022461 6.882999897003174,11.585000038146973 8.326000213623047,11.338000297546387 C11.09000015258789,10.86299991607666 13.774999618530273,9.388999938964844 15.116000175476074,6.8420000076293945 C16.256000518798828,4.676000118255615 16.649999618530273,1.7170000076293945 15.281999588012695,-0.4429999887943268 C14.531000137329102,-1.6299999952316284 11.918000221252441,-2.359999895095825 11.579000473022461,-0.4819999933242798 C11.343999862670898,0.8240000009536743 12.519000053405762,0.17599999904632568 13.08899974822998,0.9079999923706055 C13.442000389099121,1.3609999418258667 13.37600040435791,2.2269999980926514 13.246000289916992,2.740000009536743 C12.932999610900879,3.9820001125335693 11.831000328063965,5.000999927520752 10.626999855041504,5.373000144958496 C8.571000099182129,6.007999897003174 6.7129998207092285,5.920000076293945 5.126999855041504,4.341000080108643 C4.171000003814697,3.3889999389648438 3.4130001068115234,2.249000072479248 3.447999954223633,0.8989999890327454 C3.492000102996826,-0.7680000066757202 3.927999973297119,-2.510999917984009 3.509999990463257,-4.160999774932861 C3.009000062942505,-6.139999866485596 2.2290000915527344,-8.274999618530273 0.5550000071525574,-9.567000389099121 C-1.5080000162124634,-11.15999984741211 -4.00600004196167,-12.218000411987305 -6.453999996185303,-13.0600004196167 C-8.157999992370605,-13.645999908447266 -9.595999717712402,-13.918999671936035 -11.381999969482422,-13.678999900817871 C-13.168000221252441,-13.4399995803833 -14.89900016784668,-12.902000427246094 -16.649999618530273,-12.47700023651123"></path></g><g opacity="1" transform="matrix(1,0,0,1,3368.132080078125,2680.23193359375)"><path fill="rgb(174,153,164)" fill-opacity="1" d=" M16.23699951171875,-16.89900016784668 C16.23699951171875,-16.89900016784668 9.503000259399414,-16.89900016784668 9.503000259399414,-16.89900016784668 C9.333999633789062,-16.89900016784668 9.196999549865723,-16.761999130249023 9.196999549865723,-16.5939998626709 C9.196999549865723,-14.57800006866455 7.547999858856201,-12.928000450134277 5.5320000648498535,-12.928000450134277 C5.017000198364258,-12.928000450134277 4.598999977111816,-12.510000228881836 4.598999977111816,-11.994000434875488 C4.598999977111816,-11.994000434875488 4.598999977111816,-2.617000102996826 4.598999977111816,-2.617000102996826 C4.598999977111816,0.5 2.0480000972747803,3.0510001182556152 -1.069000005722046,3.0510001182556152 C-4.185999870300293,3.0510001182556152 -6.736999988555908,0.5 -6.736999988555908,-2.617000102996826 C-6.736999988555908,-2.617000102996826 -6.736999988555908,-11.994000434875488 -6.736999988555908,-11.994000434875488 C-6.736999988555908,-12.510000228881836 -7.15500020980835,-12.928000450134277 -7.670000076293945,-12.928000450134277 C-7.670000076293945,-12.928000450134277 -16.628000259399414,-12.928000450134277 -16.628000259399414,-12.928000450134277 C-18.551000595092773,-12.928000450134277 -20.13599967956543,-14.428999900817871 -20.27899932861328,-16.31599998474121 C-26.277999877929688,-14.555999755859375 -30.69300079345703,-8.991999626159668 -30.69300079345703,-2.443000078201294 C-30.69300079345703,-2.443000078201294 -30.69300079345703,2.444000005722046 -30.69300079345703,2.444000005722046 C-30.69300079345703,10.394000053405762 -24.187999725341797,16.89900016784668 -16.23699951171875,16.89900016784668 C-16.23699951171875,16.89900016784668 16.23699951171875,16.89900016784668 16.23699951171875,16.89900016784668 C24.187999725341797,16.89900016784668 30.69300079345703,10.394000053405762 30.69300079345703,2.444000005722046 C30.69300079345703,2.444000005722046 30.69300079345703,-2.443000078201294 30.69300079345703,-2.443000078201294 C30.69300079345703,-10.394000053405762 24.187999725341797,-16.89900016784668 16.23699951171875,-16.89900016784668z"></path></g><g opacity="1" transform="matrix(1,0,0,1,3366.594970703125,2698.195068359375)"><path fill="rgb(174,153,164)" fill-opacity="1" d=" M15.869999885559082,-1.7339999675750732 C11.020999908447266,0.7300000190734863 5.502999782562256,1.7339999675750732 0.06499999761581421,1.6019999980926514 C-5.372000217437744,1.4700000286102295 -10.741000175476074,0.23499999940395355 -15.869000434875488,-1.5800000429153442"></path></g><g opacity="1" transform="matrix(1,0,0,1,3343.4990234375,2694.5048828125)"><path fill="rgb(174,153,164)" fill-opacity="1" d=" M12.581000328063965,3.11899995803833 C9.668999671936035,2.765000104904175 8.494999885559082,5.061999797821045 6.135000228881836,6.073999881744385 C4,6.988999843597412 1.4639999866485596,7.064000129699707 -0.75,6.59499979019165 C-2.3489999771118164,6.25600004196167 -3.7039999961853027,5.084000110626221 -5.3460001945495605,4.9120001792907715 C-6.208000183105469,4.821000099182129 -6.427000045776367,5.105999946594238 -7.093999862670898,5.453999996185303 C-9.20199966430664,6.554999828338623 -12.581000328063965,6.26800012588501 -12.321000099182129,3.25 C-12.121000289916992,0.9179999828338623 -10.368000030517578,-1.340000033378601 -8.373000144958496,-2.4549999237060547 C-7.142000198364258,-3.1440000534057617 -6.447000026702881,-3.0840001106262207 -5.324999809265137,-2.4860000610351562 C-3.5260000228881836,-1.5269999504089355 -3.134999990463257,-6.211999893188477 -2.4110000133514404,-7.064000129699707"></path></g><g opacity="1" transform="matrix(1,0,0,1,3386.968994140625,2695.906005859375)"><path fill="rgb(174,153,164)" fill-opacity="1" d=" M-12.755999565124512,0.25200000405311584 C-11.40999984741211,0.03099999949336052 -10.071000099182129,0.699999988079071 -8.991999626159668,1.534999966621399 C-7.914000034332275,2.369999885559082 -7.360000133514404,3.9579999446868896 -6.179999828338623,4.642000198364258 C-3.6110000610351562,6.131999969482422 -1.2410000562667847,5.3470001220703125 1.3309999704360962,4.451000213623047 C2.4030001163482666,4.077000141143799 3.440000057220459,3.9200000762939453 4.341000080108643,4.613999843597412 C5.017000198364258,5.135000228881836 5.159999847412109,5.556000232696533 6.13700008392334,5.376999855041504 C7.546000003814697,5.119999885559082 8.930000305175781,3.816999912261963 9.848999977111816,2.7829999923706055 C10.60200023651123,1.934999942779541 12.756999969482422,-1.2330000400543213 11.062000274658203,-2.134999990463257 C10.378000259399414,-2.497999906539917 8.977999687194824,-2.0490000247955322 8.281000137329102,-1.8359999656677246 C8.722000122070312,-1.9709999561309814 7.0980000495910645,-3.75600004196167 6.986999988555908,-3.8299999237060547 C5.13100004196167,-5.068999767303467 2.9089999198913574,-4.271999835968018 0.949999988079071,-3.7039999961853027 C0.7139999866485596,-3.635999917984009 0.4399999976158142,-3.575000047683716 0.23999999463558197,-3.7170000076293945 C0.10499999672174454,-3.812000036239624 0.03799999877810478,-3.9769999980926514 0.010999999940395355,-4.139999866485596 C-0.05299999937415123,-4.507999897003174 0.039000000804662704,-4.88700008392334 0.020999999716877937,-5.260000228881836 C0.004000000189989805,-5.633999824523926 -0.18299999833106995,-6.052999973297119 -0.5490000247955322,-6.132999897003174"></path></g><g opacity="1" transform="matrix(1,0,0,1,3335.29296875,2682.626953125)"><path stroke-linecap="round" stroke-linejoin="round" fill-opacity="0" stroke="rgb(174,153,164)" stroke-opacity="1" stroke-width="2.162" d=" M-3.9830000400543213,0.515999972820282 C-2.7209999561309814,-0.2750000059604645 -1.128000020980835,-0.515999972820282 0.31200000643730164,-0.13500000536441803 C0.9490000009536743,0.03400000184774399 1.5570000410079956,0.3190000057220459 2.2100000381469727,0.4059999883174896 C2.86299991607666,0.49399998784065247 3.6089999675750732,0.3330000042915344 3.9830000400543213,-0.20999999344348907"></path></g><g opacity="1" transform="matrix(1,0,0,1,3390.528076171875,2664.31494140625)"><path fill="rgb(139,124,141)" fill-opacity="1" d=" M10.470000267028809,6.668000221252441 C10.128999710083008,6.23199987411499 9.670999526977539,5.708000183105469 9.696999549865723,4.9070000648498535 C9.715999603271484,4.281000137329102 10.475000381469727,3.325000047683716 10.892000198364258,2.8919999599456787 C11.236000061035156,2.5339999198913574 11.628999710083008,2.2149999141693115 11.875,1.7719999551773071 C13.446000099182129,-1.0499999523162842 10.095000267028809,-2.7269999980926514 8.119999885559082,-3.4619998931884766 C4.710999965667725,-4.73199987411499 1.5219999551773071,-5.182000160217285 -2.0759999752044678,-5.300000190734863 C-4.1529998779296875,-5.36899995803833 -6.138000011444092,-6.160999774932861 -8.192000389099121,-6.434000015258789 C-9.25100040435791,-6.574999809265137 -10.418000221252441,-6.668000221252441 -11.4350004196167,-6.241000175476074 C-12.118000030517578,-5.954999923706055 -13.444999694824219,-5.234000205993652 -13.159000396728516,-4.188000202178955 C-13.057999610900879,-3.815999984741211 -12.781000137329102,-3.5350000858306885 -12.508000373840332,-3.2850000858306885 C-11.541999816894531,-2.4049999713897705 -10.73900032043457,-1.402999997138977 -9.857000350952148,-0.42800000309944153 C-8.944000244140625,0.5820000171661377 -6.775000095367432,4.723999977111816 -6.565999984741211,6.119999885559082 C-6.565999984741211,6.119999885559082 10.470000267028809,6.668000221252441 10.470000267028809,6.668000221252441z"></path></g><g opacity="1" transform="matrix(1,0,0,1,3409.3349609375,2677.76611328125)"><path fill="rgb(251,233,220)" fill-opacity="1" d=" M0.890999972820282,0 C0.890999972820282,-1.1119999885559082 0.492000013589859,-2.013000011444092 0,-2.013000011444092 C-0.4909999966621399,-2.013000011444092 -0.8899999856948853,-1.1119999885559082 -0.8899999856948853,0 C-0.8899999856948853,1.1109999418258667 -0.4909999966621399,2.013000011444092 0,2.013000011444092 C0.492000013589859,2.013000011444092 0.890999972820282,1.1109999418258667 0.890999972820282,0z"></path></g><g opacity="1" transform="matrix(1,0,0,1,3382.93994140625,2673.383056640625)"><path fill="rgb(251,233,220)" fill-opacity="1" d=" M3.0290000438690186,13.017000198364258 C1.534999966621399,13.017000198364258 0.3269999921321869,11.809000015258789 0.3269999921321869,10.3149995803833 C0.3269999921321869,-2.5850000381469727 -4.673999786376953,-8.140000343322754 -4.723999977111816,-8.194999694824219 C-5.73199987411499,-9.281999588012695 -5.684999942779541,-10.987000465393066 -4.605000019073486,-12.005999565124512 C-3.5320000648498535,-13.017000198364258 -1.840000033378601,-12.987000465393066 -0.8159999847412109,-11.927000045776367 C-0.546999990940094,-11.647000312805176 5.73199987411499,-4.956999778747559 5.73199987411499,10.3149995803833 C5.73199987411499,11.809000015258789 4.5229997634887695,13.017000198364258 3.0290000438690186,13.017000198364258z"></path></g></g><g transform="matrix(0.257999986410141,0,0,0.257999986410141,-850.1990966796875,-668.380126953125)" opacity="1" style="display: block;"><g opacity="1" transform="matrix(1,0,0,1,3512.98193359375,2722.570068359375)"><path fill="rgb(192,66,60)" fill-opacity="1" d=" M42.08100128173828,53.45600128173828 C57.888999938964844,40.99599838256836 68.0479965209961,21.69099998474121 68.0479965209961,0 C68.0479965209961,-21.690000534057617 57.888999938964844,-40.994998931884766 42.08100128173828,-53.45600128173828 C42.08100128173828,-53.45600128173828 -42.08100128173828,-53.45600128173828 -42.08100128173828,-53.45600128173828 C-57.88800048828125,-40.994998931884766 -68.04900360107422,-21.690000534057617 -68.04900360107422,0 C-68.04900360107422,21.69099998474121 -57.88800048828125,40.99599838256836 -42.08000183105469,53.45600128173828 C-42.08000183105469,53.45600128173828 42.08100128173828,53.45600128173828 42.08100128173828,53.45600128173828z"></path></g><g opacity="1" transform="matrix(1,0,0,1,3468.617919921875,2701.27490234375)"><path fill="rgb(17,128,194)" fill-opacity="1" d=" M15.128000259399414,-26.729000091552734 C15.128000259399414,-26.729000091552734 7.603000164031982,-26.729000091552734 7.603000164031982,-26.729000091552734 C-6.232999801635742,-14.274999618530273 -15.128999710083008,5.0329999923706055 -15.128999710083008,26.729000091552734 C-15.128999710083008,26.729000091552734 -2.9509999752044678,26.729000091552734 -2.9509999752044678,26.729000091552734 C-2.9509999752044678,5.0329999923706055 4.124000072479248,-14.274999618530273 15.128000259399414,-26.729000091552734z"></path></g><g opacity="1" transform="matrix(1,0,0,1,3557.345947265625,2701.27490234375)"><path fill="rgb(17,128,194)" fill-opacity="1" d=" M-7.604000091552734,-26.729000091552734 C-7.604000091552734,-26.729000091552734 -15.128000259399414,-26.729000091552734 -15.128000259399414,-26.729000091552734 C-4.125,-14.274999618530273 2.950000047683716,5.0329999923706055 2.950000047683716,26.729000091552734 C2.950000047683716,26.729000091552734 15.128000259399414,26.729000091552734 15.128000259399414,26.729000091552734 C15.128000259399414,5.0329999923706055 6.232999801635742,-14.274999618530273 -7.604000091552734,-26.729000091552734z"></path></g><g opacity="1" transform="matrix(1,0,0,1,3532.47509765625,2701.27490234375)"><path fill="rgb(17,128,194)" fill-opacity="1" d=" M-12.020999908447266,-26.729000091552734 C-9.208000183105469,-14.274999618530273 -7.4019999504089355,5.0329999923706055 -7.4019999504089355,26.729000091552734 C-7.4019999504089355,26.729000091552734 12.020999908447266,26.729000091552734 12.020999908447266,26.729000091552734 C12.020999908447266,5.0329999923706055 7.309000015258789,-14.274999618530273 -0.020999999716877937,-26.729000091552734 C-0.020999999716877937,-26.729000091552734 -12.020999908447266,-26.729000091552734 -12.020999908447266,-26.729000091552734z"></path></g><g opacity="1" transform="matrix(1,0,0,1,3493.489990234375,2701.27490234375)"><path fill="rgb(17,128,194)" fill-opacity="1" d=" M12.020999908447266,-26.729000091552734 C12.020999908447266,-26.729000091552734 0.019999999552965164,-26.729000091552734 0.019999999552965164,-26.729000091552734 C-7.309999942779541,-14.274999618530273 -12.020999908447266,5.0329999923706055 -12.020999908447266,26.729000091552734 C-12.020999908447266,26.729000091552734 7.401000022888184,26.729000091552734 7.401000022888184,26.729000091552734 C7.401000022888184,5.0329999923706055 9.208999633789062,-14.274999618530273 12.020999908447266,-26.729000091552734z"></path></g><g opacity="1" transform="matrix(1,0,0,1,3557.345947265625,2740.096923828125)"><path fill="rgb(192,66,60)" fill-opacity="1" d=" M2.6540000438690186,-30.496000289916992 C2.8440001010894775,-28.020999908447266 2.950000047683716,-25.509000778198242 2.950000047683716,-22.959999084472656 C2.950000047683716,-1.2660000324249268 -4.124000072479248,18.04199981689453 -15.128000259399414,30.496000289916992 C-15.128000259399414,30.496000289916992 -7.604000091552734,30.496000289916992 -7.604000091552734,30.496000289916992 C6.232999801635742,18.04199981689453 15.128999710083008,-1.2660000324249268 15.128999710083008,-22.959999084472656 C15.128999710083008,-25.509000778198242 14.996000289916992,-28.020999908447266 14.756999969482422,-30.496000289916992 C14.756999969482422,-30.496000289916992 2.6540000438690186,-30.496000289916992 2.6540000438690186,-30.496000289916992z"></path></g><g opacity="1" transform="matrix(1,0,0,1,3532.47509765625,2740.096923828125)"><path fill="rgb(192,66,60)" fill-opacity="1" d=" M-7.4770002365112305,-30.496000289916992 C-7.427999973297119,-28.020999908447266 -7.401000022888184,-25.509000778198242 -7.401000022888184,-22.959999084472656 C-7.401000022888184,-1.2660000324249268 -9.208999633789062,18.04199981689453 -12.020999908447266,30.496000289916992 C-12.020999908447266,30.496000289916992 -0.020999999716877937,30.496000289916992 -0.020999999716877937,30.496000289916992 C7.309000015258789,18.04199981689453 12.020999908447266,-1.2660000324249268 12.020999908447266,-22.959999084472656 C12.020999908447266,-25.509000778198242 11.949000358581543,-28.020999908447266 11.822999954223633,-30.496000289916992 C11.822999954223633,-30.496000289916992 -7.4770002365112305,-30.496000289916992 -7.4770002365112305,-30.496000289916992z"></path></g><g opacity="1" transform="matrix(1,0,0,1,3493.489013671875,2740.096923828125)"><path fill="rgb(192,66,60)" fill-opacity="1" d=" M7.4770002365112305,-30.496000289916992 C7.4770002365112305,-30.496000289916992 -11.824000358581543,-30.496000289916992 -11.824000358581543,-30.496000289916992 C-11.949999809265137,-28.020999908447266 -12.020999908447266,-25.509000778198242 -12.020999908447266,-22.959999084472656 C-12.020999908447266,-1.2660000324249268 -7.309000015258789,18.04199981689453 0.019999999552965164,30.496000289916992 C0.019999999552965164,30.496000289916992 12.020999908447266,30.496000289916992 12.020999908447266,30.496000289916992 C9.208999633789062,18.04199981689453 7.401000022888184,-1.2660000324249268 7.401000022888184,-22.959999084472656 C7.401000022888184,-25.509000778198242 7.428999900817871,-28.020999908447266 7.4770002365112305,-30.496000289916992z"></path></g><g opacity="1" transform="matrix(1,0,0,1,3468.617919921875,2740.096923828125)"><path fill="rgb(192,66,60)" fill-opacity="1" d=" M-2.6540000438690186,-30.496000289916992 C-2.6540000438690186,-30.496000289916992 -14.755999565124512,-30.496000289916992 -14.755999565124512,-30.496000289916992 C-14.994999885559082,-28.020999908447266 -15.128000259399414,-25.509000778198242 -15.128000259399414,-22.959999084472656 C-15.128000259399414,-1.2660000324249268 -6.232999801635742,18.04199981689453 7.604000091552734,30.496000289916992 C7.604000091552734,30.496000289916992 15.128999710083008,30.496000289916992 15.128999710083008,30.496000289916992 C4.124000072479248,18.04199981689453 -2.950000047683716,-1.2660000324249268 -2.950000047683716,-22.959999084472656 C-2.950000047683716,-25.509000778198242 -2.8440001010894775,-28.020999908447266 -2.6540000438690186,-30.496000289916992z"></path></g><g opacity="1" transform="matrix(1,0,0,1,3460.577880859375,2722.570068359375)"><path fill="rgb(255,200,77)" fill-opacity="1" d=" M-7.0879998207092285,0 C-7.0879998207092285,-21.69499969482422 1.8079999685287476,-41.00199890136719 15.644000053405762,-53.457000732421875 C15.644000053405762,-53.457000732421875 10.324000358581543,-53.457000732421875 10.324000358581543,-53.457000732421875 C-5.484000205993652,-40.99599838256836 -15.644000053405762,-21.690000534057617 -15.644000053405762,0 C-15.644000053405762,21.69099998474121 -5.484000205993652,40.99599838256836 10.324999809265137,53.457000732421875 C10.324999809265137,53.457000732421875 15.644000053405762,53.457000732421875 15.644000053405762,53.457000732421875 C1.8079999685287476,41.00299835205078 -7.0879998207092285,21.69499969482422 -7.0879998207092285,0z"></path></g><g opacity="1" transform="matrix(1,0,0,1,3565.385986328125,2722.569091796875)"><path fill="rgb(255,200,77)" fill-opacity="1" d=" M-10.324000358581543,-53.457000732421875 C-10.324000358581543,-53.457000732421875 -15.644000053405762,-53.457000732421875 -15.644000053405762,-53.457000732421875 C-1.8070000410079956,-41.00299835205078 7.0879998207092285,-21.69499969482422 7.0879998207092285,0 C7.0879998207092285,21.69499969482422 -1.8070000410079956,41.00299835205078 -15.644000053405762,53.457000732421875 C-15.644000053405762,53.457000732421875 -10.324000358581543,53.457000732421875 -10.324000358581543,53.457000732421875 C5.484000205993652,40.99700164794922 15.644000053405762,21.690000534057617 15.644000053405762,0 C15.644000053405762,-21.69099998474121 5.484000205993652,-40.99599838256836 -10.324000358581543,-53.457000732421875z"></path></g><g opacity="1" transform="matrix(1,0,0,1,3479.589111328125,2722.569091796875)"><path fill="rgb(255,200,77)" fill-opacity="1" d=" M13.920999526977539,-53.457000732421875 C13.920999526977539,-53.457000732421875 4.1579999923706055,-53.457000732421875 4.1579999923706055,-53.457000732421875 C-6.8470001220703125,-41.00299835205078 -13.920999526977539,-21.69499969482422 -13.920999526977539,0 C-13.920999526977539,21.69499969482422 -6.8470001220703125,41.00299835205078 4.1579999923706055,53.457000732421875 C4.1579999923706055,53.457000732421875 13.920999526977539,53.457000732421875 13.920999526977539,53.457000732421875 C6.591000080108643,41.00299835205078 1.878999948501587,21.69499969482422 1.878999948501587,0 C1.878999948501587,-21.69499969482422 6.591000080108643,-41.00299835205078 13.920999526977539,-53.457000732421875z"></path></g><g opacity="1" transform="matrix(1,0,0,1,3546.375,2722.570068359375)"><path fill="rgb(255,200,77)" fill-opacity="1" d=" M-1.878999948501587,0 C-1.878999948501587,21.69499969482422 -6.5920000076293945,41.00299835205078 -13.92199993133545,53.457000732421875 C-13.92199993133545,53.457000732421875 -4.1570000648498535,53.457000732421875 -4.1570000648498535,53.457000732421875 C6.8470001220703125,41.00299835205078 13.920999526977539,21.69499969482422 13.920999526977539,0 C13.920999526977539,-21.69499969482422 6.8470001220703125,-41.00199890136719 -4.1570000648498535,-53.457000732421875 C-4.1570000648498535,-53.457000732421875 -13.92199993133545,-53.457000732421875 -13.92199993133545,-53.457000732421875 C-6.5920000076293945,-41.00199890136719 -1.878999948501587,-21.69499969482422 -1.878999948501587,0z"></path></g><g opacity="1" transform="matrix(1,0,0,1,3512.98193359375,2722.569091796875)"><path fill="rgb(255,200,77)" fill-opacity="1" d=" M7.4710001945495605,-53.457000732421875 C7.4710001945495605,-53.457000732421875 -7.4710001945495605,-53.457000732421875 -7.4710001945495605,-53.457000732421875 C-10.282999992370605,-41.00299835205078 -12.090999603271484,-21.69499969482422 -12.090999603271484,0 C-12.090999603271484,21.69499969482422 -10.282999992370605,41.00299835205078 -7.4710001945495605,53.457000732421875 C-7.4710001945495605,53.457000732421875 7.4710001945495605,53.457000732421875 7.4710001945495605,53.457000732421875 C10.284000396728516,41.00299835205078 12.090999603271484,21.69499969482422 12.090999603271484,0 C12.090999603271484,-21.69499969482422 10.284000396728516,-41.00299835205078 7.4710001945495605,-53.457000732421875z"></path></g><g opacity="1" transform="matrix(1,0,0,1,0,0)"><path stroke-linecap="round" stroke-linejoin="round" fill-opacity="0" stroke="rgb(243,133,118)" stroke-opacity="1" stroke-width="8.107" d=" M3512.98193359375,2671.5009765625 C3512.98193359375,2671.5009765625 3512.98193359375,2620.31494140625 3512.98193359375,2620.31494140625"></path></g><g opacity="1" transform="matrix(1,0,0,1,3512.98193359375,2786.362060546875)"><path fill="rgb(17,128,194)" fill-opacity="1" d=" M58.06999969482422,-10.336000442504883 C58.06999969482422,-10.336000442504883 -58.06999969482422,-10.336000442504883 -58.06999969482422,-10.336000442504883 C-58.06999969482422,-10.336000442504883 -58.06999969482422,10.336000442504883 -58.06999969482422,10.336000442504883 C-58.06999969482422,10.336000442504883 58.06999969482422,10.336000442504883 58.06999969482422,10.336000442504883 C58.06999969482422,10.336000442504883 58.06999969482422,-10.336000442504883 58.06999969482422,-10.336000442504883z"></path></g><g opacity="1" transform="matrix(1,0,0,1,3512.98193359375,2810.47509765625)"><path fill="rgb(243,133,118)" fill-opacity="1" d=" M123.7969970703125,-6.179999828338623 C123.7969970703125,-6.179999828338623 0,-9.980999946594238 0,-9.980999946594238 C0,-9.980999946594238 -123.7969970703125,-6.179999828338623 -123.7969970703125,-6.179999828338623 C-123.7969970703125,-6.179999828338623 -123.7969970703125,9.980999946594238 -123.7969970703125,9.980999946594238 C-123.7969970703125,9.980999946594238 123.7969970703125,9.980999946594238 123.7969970703125,9.980999946594238 C123.7969970703125,9.980999946594238 123.7969970703125,-6.179999828338623 123.7969970703125,-6.179999828338623z"></path></g><g opacity="1" transform="matrix(1,0,0,1,3512.98193359375,2800.4970703125)"><path fill="rgb(255,200,77)" fill-opacity="1" d=" M116.20099639892578,-3.7980000972747803 C116.20099639892578,-3.7980000972747803 -116.19999694824219,-3.7980000972747803 -116.19999694824219,-3.7980000972747803 C-120.39600372314453,-3.7980000972747803 -123.7969970703125,-0.3970000147819519 -123.7969970703125,3.7980000972747803 C-123.7969970703125,3.7980000972747803 123.7979965209961,3.7980000972747803 123.7979965209961,3.7980000972747803 C123.7979965209961,-0.3970000147819519 120.39600372314453,-3.7980000972747803 116.20099639892578,-3.7980000972747803z"></path></g><g opacity="1" transform="matrix(1,0,0,1,3469.429931640625,2786.363037109375)"><path fill="rgb(243,133,118)" fill-opacity="1" d=" M0,-10.336999893188477 C0,-10.336999893188477 -14.517999649047852,10.336999893188477 -14.517999649047852,10.336999893188477 C-14.517999649047852,10.336999893188477 14.517999649047852,10.336999893188477 14.517999649047852,10.336999893188477 C14.517999649047852,10.336999893188477 0,-10.336999893188477 0,-10.336999893188477z"></path></g><g opacity="1" transform="matrix(1,0,0,1,3498.465087890625,2786.363037109375)"><path fill="rgb(243,133,118)" fill-opacity="1" d=" M0,-10.336999893188477 C0,-10.336999893188477 -14.517999649047852,10.336999893188477 -14.517999649047852,10.336999893188477 C-14.517999649047852,10.336999893188477 14.517000198364258,10.336999893188477 14.517000198364258,10.336999893188477 C14.517000198364258,10.336999893188477 0,-10.336999893188477 0,-10.336999893188477z"></path></g><g opacity="1" transform="matrix(1,0,0,1,3527.5,2786.363037109375)"><path fill="rgb(243,133,118)" fill-opacity="1" d=" M0,-10.336999893188477 C0,-10.336999893188477 -14.517999649047852,10.336999893188477 -14.517999649047852,10.336999893188477 C-14.517999649047852,10.336999893188477 14.517999649047852,10.336999893188477 14.517999649047852,10.336999893188477 C14.517999649047852,10.336999893188477 0,-10.336999893188477 0,-10.336999893188477z"></path></g><g opacity="1" transform="matrix(1,0,0,1,3556.534912109375,2786.363037109375)"><path fill="rgb(243,133,118)" fill-opacity="1" d=" M0,-10.336999893188477 C0,-10.336999893188477 -14.517999649047852,10.336999893188477 -14.517999649047852,10.336999893188477 C-14.517999649047852,10.336999893188477 14.517000198364258,10.336999893188477 14.517000198364258,10.336999893188477 C14.517000198364258,10.336999893188477 0,-10.336999893188477 0,-10.336999893188477z"></path></g><g opacity="1" transform="matrix(1,0,0,1,0,0)"><path stroke-linecap="round" stroke-linejoin="round" fill-opacity="0" stroke="rgb(243,133,118)" stroke-opacity="1" stroke-width="8.107" d=" M3481.155029296875,2654.16796875 C3481.155029296875,2654.16796875 3544.80810546875,2654.16796875 3544.80810546875,2654.16796875"></path></g><g opacity="1" transform="matrix(1,0,0,1,3512.98193359375,2597.52294921875)"><path fill="rgb(255,200,77)" fill-opacity="1" d=" M0,-3.7079999446868896 C-5.5370001792907715,-3.7079999446868896 -10.366999626159668,-0.7269999980926514 -13.010000228881836,3.7079999446868896 C-13.010000228881836,3.7079999446868896 13.010000228881836,3.7079999446868896 13.010000228881836,3.7079999446868896 C10.366999626159668,-0.7269999980926514 5.538000106811523,-3.7079999446868896 0,-3.7079999446868896z"></path></g><g opacity="1" transform="matrix(1,0,0,1,3512.98095703125,2604.93798828125)"><path fill="rgb(248,222,128)" fill-opacity="1" d=" M15.13599967956543,3.7070000171661377 C15.079000473022461,0.9990000128746033 14.3100004196167,-1.5269999504089355 13.01099967956543,-3.7070000171661377 C13.01099967956543,-3.7070000171661377 -13.008999824523926,-3.7070000171661377 -13.008999824523926,-3.7070000171661377 C-14.307999610900879,-1.5269999504089355 -15.07699966430664,0.9990000128746033 -15.135000228881836,3.7070000171661377 C-15.135000228881836,3.7070000171661377 15.13599967956543,3.7070000171661377 15.13599967956543,3.7070000171661377z"></path></g><g opacity="1" transform="matrix(1,0,0,1,3512.98193359375,2612.35302734375)"><path fill="rgb(131,206,214)" fill-opacity="1" d=" M-15.151000022888184,-3.384999990463257 C-15.151000022888184,-0.8169999718666077 -14.496000289916992,1.5920000076293945 -13.364999771118164,3.7079999446868896 C-13.364999771118164,3.7079999446868896 13.364999771118164,3.7079999446868896 13.364999771118164,3.7079999446868896 C14.494999885559082,1.5920000076293945 15.152000427246094,-0.8169999718666077 15.152000427246094,-3.384999990463257 C15.152000427246094,-3.49399995803833 15.137999534606934,-3.5989999771118164 15.135000228881836,-3.7079999446868896 C15.135000228881836,-3.7079999446868896 -15.135000228881836,-3.7079999446868896 -15.135000228881836,-3.7079999446868896 C-15.13700008392334,-3.5989999771118164 -15.151000022888184,-3.49399995803833 -15.151000022888184,-3.384999990463257z"></path></g><g opacity="1" transform="matrix(1,0,0,1,3512.98193359375,2619.76708984375)"><path fill="rgb(17,128,194)" fill-opacity="1" d=" M-11.380999565124512,-0.8190000057220459 C-11.380999565124512,-0.8190000057220459 -10.777000427246094,-0.1550000011920929 -10.611000061035156,0.00800000037997961 C-9.498000144958496,1.1740000247955322 -8.269000053405762,2.375999927520752 -7.142000198364258,3.7070000171661377 C-7.142000198364258,3.7070000171661377 7.140999794006348,3.7070000171661377 7.140999794006348,3.7070000171661377 C8.269000053405762,2.375999927520752 9.498000144958496,1.1740000247955322 10.611000061035156,0.00800000037997961 C10.777000427246094,-0.1550000011920929 11.380999565124512,-0.8190000057220459 11.380999565124512,-0.8190000057220459 C12.151000022888184,-1.6959999799728394 12.8100004196167,-2.6700000762939453 13.364999771118164,-3.7070000171661377 C13.364999771118164,-3.7070000171661377 -13.364999771118164,-3.7070000171661377 -13.364999771118164,-3.7070000171661377 C-12.810999870300293,-2.6700000762939453 -12.151000022888184,-1.6959999799728394 -11.380999565124512,-0.8190000057220459z"></path></g><g opacity="1" transform="matrix(1,0,0,1,3512.98095703125,2628.0791015625)"><path fill="rgb(77,67,95)" fill-opacity="1" d=" M-3.3889999389648438,4.605000019073486 C-3.3889999389648438,4.605000019073486 3.3910000324249268,4.605000019073486 3.3910000324249268,4.605000019073486 C3.3910000324249268,0.6700000166893005 5.093999862670898,-2.187000036239624 7.142000198364258,-4.605000019073486 C7.142000198364258,-4.605000019073486 -7.140999794006348,-4.605000019073486 -7.140999794006348,-4.605000019073486 C-5.0929999351501465,-2.187000036239624 -3.3889999389648438,0.6700000166893005 -3.3889999389648438,4.605000019073486z"></path></g><g opacity="1" transform="matrix(1,0,0,1,3512.98193359375,2632.837890625)"><path fill="rgb(243,133,118)" fill-opacity="1" d=" M6.593999862670898,4.757999897003174 C6.593999862670898,4.757999897003174 -6.593999862670898,4.757999897003174 -6.593999862670898,4.757999897003174 C-6.593999862670898,4.757999897003174 -4.235000133514404,-4.757999897003174 -4.235000133514404,-4.757999897003174 C-4.235000133514404,-4.757999897003174 4.235000133514404,-4.757999897003174 4.235000133514404,-4.757999897003174 C4.235000133514404,-4.757999897003174 6.593999862670898,4.757999897003174 6.593999862670898,4.757999897003174z"></path></g><g opacity="1" transform="matrix(1,0,0,1,3460.943115234375,2656.882080078125)"><path stroke-linecap="round" stroke-linejoin="round" fill-opacity="0" stroke="rgb(243,133,118)" stroke-opacity="1" stroke-width="8.107" d=" M-10.005999565124512,-14.625 C0,-14.625 3.7860000133514404,-5.979000091552734 4.921999931335449,2.868000030517578 C5.2729997634887695,5.603000164031982 5.468999862670898,8.420999526977539 6.665999889373779,10.928000450134277 C7.375999927520752,12.414999961853027 8.557999610900879,13.784000396728516 10.005999565124512,14.625"></path></g><g opacity="1" transform="matrix(1,0,0,1,3481.156005859375,2656.882080078125)"><path stroke-linecap="round" stroke-linejoin="round" fill-opacity="0" stroke="rgb(243,133,118)" stroke-opacity="1" stroke-width="8.107" d=" M-5.513000011444092,-14.625 C0,-14.625 2.0859999656677246,-5.979000091552734 2.7119998931884766,2.868000030517578 C2.9049999713897705,5.603000164031982 3.013000011444092,8.420999526977539 3.6730000972747803,10.928999900817871 C4.064000129699707,12.416000366210938 4.715000152587891,13.784000396728516 5.513000011444092,14.625"></path></g><g opacity="1" transform="matrix(1,0,0,1,3544.80908203125,2656.882080078125)"><path stroke-linecap="round" stroke-linejoin="round" fill-opacity="0" stroke="rgb(243,133,118)" stroke-opacity="1" stroke-width="8.107" d=" M5.513000011444092,-14.625 C-0.0010000000474974513,-14.625 -2.0869998931884766,-5.979000091552734 -2.7130000591278076,2.868000030517578 C-2.9059998989105225,5.603000164031982 -3.013000011444092,8.420999526977539 -3.6740000247955322,10.928999900817871 C-4.065000057220459,12.416000366210938 -4.716000080108643,13.784000396728516 -5.513000011444092,14.625"></path></g><g opacity="1" transform="matrix(1,0,0,1,3565.02099609375,2656.882080078125)"><path stroke-linecap="round" stroke-linejoin="round" fill-opacity="0" stroke="rgb(243,133,118)" stroke-opacity="1" stroke-width="8.107" d=" M10.005999565124512,-14.625 C0,-14.625 -3.7869999408721924,-5.979000091552734 -4.922999858856201,2.868000030517578 C-5.2729997634887695,5.603000164031982 -5.468999862670898,8.420999526977539 -6.666999816894531,10.928000450134277 C-7.376999855041504,12.414999961853027 -8.557999610900879,13.784000396728516 -10.005999565124512,14.625"></path></g><g opacity="1" transform="matrix(1,0,0,1,3450.93701171875,2651.31201171875)"><path fill="rgb(131,206,214)" fill-opacity="1" d=" M5.354000091552734,0 C5.354000091552734,-3.872999906539917 2.9570000171661377,-7.01200008392334 0,-7.01200008392334 C-2.9560000896453857,-7.01200008392334 -5.354000091552734,-3.872999906539917 -5.354000091552734,0 C-5.354000091552734,3.872999906539917 -2.9560000896453857,7.01200008392334 0,7.01200008392334 C2.9570000171661377,7.01200008392334 5.354000091552734,3.872999906539917 5.354000091552734,0z"></path></g><g opacity="1" transform="matrix(1,0,0,1,3450.93701171875,2651.31201171875)"><path stroke-linecap="butt" stroke-linejoin="miter" fill-opacity="0" stroke-miterlimit="10" stroke="rgb(131,206,214)" stroke-opacity="1" stroke-width="4.324" d=" M5.354000091552734,0 C5.354000091552734,-3.872999906539917 2.9570000171661377,-7.01200008392334 0,-7.01200008392334 C-2.9560000896453857,-7.01200008392334 -5.354000091552734,-3.872999906539917 -5.354000091552734,0 C-5.354000091552734,3.872999906539917 -2.9560000896453857,7.01200008392334 0,7.01200008392334 C2.9570000171661377,7.01200008392334 5.354000091552734,3.872999906539917 5.354000091552734,0z"></path></g><g opacity="1" transform="matrix(1,0,0,1,3475.64208984375,2651.31201171875)"><path fill="rgb(131,206,214)" fill-opacity="1" d=" M8.343000411987305,0 C8.343000411987305,-3.872999906539917 4.607999801635742,-7.01200008392334 0,-7.01200008392334 C-4.607999801635742,-7.01200008392334 -8.343000411987305,-3.872999906539917 -8.343000411987305,0 C-8.343000411987305,3.872999906539917 -4.607999801635742,7.01200008392334 0,7.01200008392334 C4.607999801635742,7.01200008392334 8.343000411987305,3.872999906539917 8.343000411987305,0z"></path></g><g opacity="1" transform="matrix(1,0,0,1,3475.64208984375,2651.31201171875)"><path stroke-linecap="butt" stroke-linejoin="miter" fill-opacity="0" stroke-miterlimit="10" stroke="rgb(131,206,214)" stroke-opacity="1" stroke-width="4.324" d=" M8.343000411987305,0 C8.343000411987305,-3.872999906539917 4.607999801635742,-7.01200008392334 0,-7.01200008392334 C-4.607999801635742,-7.01200008392334 -8.343000411987305,-3.872999906539917 -8.343000411987305,0 C-8.343000411987305,3.872999906539917 -4.607999801635742,7.01200008392334 0,7.01200008392334 C4.607999801635742,7.01200008392334 8.343000411987305,3.872999906539917 8.343000411987305,0z"></path></g><g opacity="1" transform="matrix(1,0,0,1,3575.027099609375,2651.31201171875)"><path fill="rgb(131,206,214)" fill-opacity="1" d=" M-5.354000091552734,0 C-5.354000091552734,-3.872999906539917 -2.9579999446868896,-7.01200008392334 0,-7.01200008392334 C2.9560000896453857,-7.01200008392334 5.353000164031982,-3.872999906539917 5.353000164031982,0 C5.353000164031982,3.872999906539917 2.9560000896453857,7.01200008392334 0,7.01200008392334 C-2.9579999446868896,7.01200008392334 -5.354000091552734,3.872999906539917 -5.354000091552734,0z"></path></g><g opacity="1" transform="matrix(1,0,0,1,3575.027099609375,2651.31201171875)"><path stroke-linecap="butt" stroke-linejoin="miter" fill-opacity="0" stroke-miterlimit="10" stroke="rgb(131,206,214)" stroke-opacity="1" stroke-width="4.324" d=" M-5.354000091552734,0 C-5.354000091552734,-3.872999906539917 -2.9579999446868896,-7.01200008392334 0,-7.01200008392334 C2.9560000896453857,-7.01200008392334 5.353000164031982,-3.872999906539917 5.353000164031982,0 C5.353000164031982,3.872999906539917 2.9560000896453857,7.01200008392334 0,7.01200008392334 C-2.9579999446868896,7.01200008392334 -5.354000091552734,3.872999906539917 -5.354000091552734,0z"></path></g><g opacity="1" transform="matrix(1,0,0,1,3550.322021484375,2651.31201171875)"><path fill="rgb(131,206,214)" fill-opacity="1" d=" M-8.343000411987305,0 C-8.343000411987305,-3.872999906539917 -4.607999801635742,-7.01200008392334 0,-7.01200008392334 C4.60699987411499,-7.01200008392334 8.343000411987305,-3.872999906539917 8.343000411987305,0 C8.343000411987305,3.872999906539917 4.60699987411499,7.01200008392334 0,7.01200008392334 C-4.607999801635742,7.01200008392334 -8.343000411987305,3.872999906539917 -8.343000411987305,0z"></path></g><g opacity="1" transform="matrix(1,0,0,1,3550.322021484375,2651.31201171875)"><path stroke-linecap="butt" stroke-linejoin="miter" fill-opacity="0" stroke-miterlimit="10" stroke="rgb(131,206,214)" stroke-opacity="1" stroke-width="4.324" d=" M-8.343000411987305,0 C-8.343000411987305,-3.872999906539917 -4.607999801635742,-7.01200008392334 0,-7.01200008392334 C4.60699987411499,-7.01200008392334 8.343000411987305,-3.872999906539917 8.343000411987305,0 C8.343000411987305,3.872999906539917 4.60699987411499,7.01200008392334 0,7.01200008392334 C-4.607999801635742,7.01200008392334 -8.343000411987305,3.872999906539917 -8.343000411987305,0z"></path></g><g opacity="1" transform="matrix(1,0,0,1,3512.98193359375,2651.31201171875)"><path fill="rgb(131,206,214)" fill-opacity="1" d=" M11.232999801635742,0 C11.232999801635742,-3.872999906539917 6.203999996185303,-7.01200008392334 -0.0010000000474974513,-7.01200008392334 C-6.204999923706055,-7.01200008392334 -11.234000205993652,-3.872999906539917 -11.234000205993652,0 C-11.234000205993652,3.872999906539917 -6.204999923706055,7.01200008392334 -0.0010000000474974513,7.01200008392334 C6.203999996185303,7.01200008392334 11.232999801635742,3.872999906539917 11.232999801635742,0z"></path></g><g opacity="1" transform="matrix(1,0,0,1,3512.98193359375,2651.31201171875)"><path stroke-linecap="butt" stroke-linejoin="miter" fill-opacity="0" stroke-miterlimit="10" stroke="rgb(131,206,214)" stroke-opacity="1" stroke-width="4.324" d=" M11.232999801635742,0 C11.232999801635742,-3.872999906539917 6.203999996185303,-7.01200008392334 -0.0010000000474974513,-7.01200008392334 C-6.204999923706055,-7.01200008392334 -11.234000205993652,-3.872999906539917 -11.234000205993652,0 C-11.234000205993652,3.872999906539917 -6.204999923706055,7.01200008392334 -0.0010000000474974513,7.01200008392334 C6.203999996185303,7.01200008392334 11.232999801635742,3.872999906539917 11.232999801635742,0z"></path></g></g><g transform="matrix(0.257999986410141,0,0,0.257999986410141,-850.1990966796875,-668.380126953125)" opacity="1" style="display: block;"><g opacity="1" transform="matrix(1,0,0,1,3594.8779296875,2733.0029296875)"><path fill="rgb(192,66,60)" fill-opacity="1" d=" M63.74300003051758,13.456999778747559 C63.74300003051758,13.456999778747559 -63.742000579833984,-23.402000427246094 -63.742000579833984,-23.402000427246094 C-63.742000579833984,-23.402000427246094 -63.742000579833984,-13.456999778747559 -63.742000579833984,-13.456999778747559 C-63.742000579833984,-13.456999778747559 63.74300003051758,23.402000427246094 63.74300003051758,23.402000427246094 C63.74300003051758,23.402000427246094 63.74300003051758,13.456999778747559 63.74300003051758,13.456999778747559z"></path></g></g><g transform="matrix(0.257999986410141,0,0,0.257999986410141,-850.1990966796875,-668.380126953125)" opacity="1" style="display: block;"><g opacity="1" transform="matrix(1,0,0,1,3646.77587890625,2738.09912109375)"><path fill="rgb(139,124,141)" fill-opacity="1" d=" M-20.527000427246094,-11.35099983215332 C-20.527000427246094,-11.35099983215332 20.527999877929688,-11.35099983215332 20.527999877929688,-11.35099983215332 C20.527999877929688,-11.35099983215332 20.527999877929688,11.35099983215332 20.527999877929688,11.35099983215332 C20.527999877929688,11.35099983215332 -1.3109999895095825,11.35099983215332 -1.3109999895095825,11.35099983215332 C-1.3109999895095825,11.35099983215332 -20.527000427246094,-8.416999816894531 -20.527000427246094,-8.416999816894531 C-20.527000427246094,-8.416999816894531 -20.527000427246094,-11.35099983215332 -20.527000427246094,-11.35099983215332z"></path></g><g opacity="1" transform="matrix(1,0,0,1,3697.760986328125,2714.14794921875)"><path fill="rgb(192,66,60)" fill-opacity="1" d=" M6.38100004196167,6.540999889373779 C7.986999988555908,1.1779999732971191 3.23799991607666,-3.86899995803833 -1.3930000066757202,-5.697000026702881 C-2.9489998817443848,-6.311999797821045 -4.7170000076293945,-6.540999889373779 -6.296000003814697,-5.988999843597412 C-6.982999801635742,-5.75 -7.986000061035156,-5.072000026702881 -7.534999847412109,-4.218999862670898 C-7.385000228881836,-3.936000108718872 -7.131999969482422,-3.7239999771118164 -6.885000228881836,-3.5190000534057617 C-5.790999889373779,-2.615000009536743 -3.634000062942505,-1.7569999694824219 -3.194000005722046,-0.28600001335144043 C-2.9000000953674316,0.7009999752044678 -3.486999988555908,2.989000082015991 -4.289000034332275,3.5980000495910645"></path></g><g opacity="1" transform="matrix(1,0,0,1,3698.1220703125,2719.8359375)"><path fill="rgb(192,66,60)" fill-opacity="1" d=" M5.998000144958496,6.25600004196167 C5.998000144958496,6.25600004196167 7.553999900817871,4.89900016784668 8.640000343322754,2.9579999446868896 C9.244000434875488,1.8769999742507935 8.90999984741211,0.5130000114440918 7.888999938964844,-0.18700000643730164 C5.394000053405762,-1.8990000486373901 0.04899999871850014,-5.008999824523926 -7.24399995803833,-6.184000015258789 C-7.695000171661377,-6.256999969482422 -8.125,-5.955999851226807 -8.223999977111816,-5.510000228881836 C-8.223999977111816,-5.510000228881836 -9.244000434875488,-0.8820000290870667 -9.244000434875488,-0.8820000290870667 C-9.244000434875488,-0.8820000290870667 0.34299999475479126,1.4049999713897705 5.998000144958496,6.25600004196167z"></path></g><g opacity="1" transform="matrix(1,0,0,1,3703.535888671875,2737.717041015625)"><path fill="rgb(174,153,164)" fill-opacity="1" d=" M-19.56800079345703,11.039999961853027 C-18.090999603271484,13.12600040435791 -12.48900032043457,16.29400062561035 -6.789000034332275,15.564000129699707 C-5.616000175476074,15.414999961853027 -4.284999847412109,15.401000022888184 -3.365000009536743,16.143999099731445 C-2.380000114440918,16.94099998474121 -1.1920000314712524,18.06100082397461 -0.43799999356269836,16.150999069213867 C0.07900000363588333,14.84000015258789 -1.2660000324249268,13.918999671936035 -1.6490000486373901,12.760000228881836 C-1.8389999866485596,12.189000129699707 -1.781000018119812,11.480999946594238 -1.3209999799728394,11.093999862670898 C-0.6290000081062317,11.958000183105469 0.24199999868869781,12.678000450134277 1.2200000286102295,13.196000099182129 C2.500999927520752,13.87399959564209 3.6740000247955322,14.414999961853027 5.125999927520752,14.680999755859375 C6.99399995803833,15.02299976348877 8.930999755859375,15.031999588012695 10.802000045776367,14.711000442504883 C14.388999938964844,14.095999717712402 17.87299919128418,12.182999610900879 19.61400032043457,8.876999855041504 C21.093000411987305,6.066999912261963 21.604999542236328,2.2279999256134033 19.82900047302246,-0.5740000009536743 C18.854000091552734,-2.114000082015991 15.463000297546387,-3.062999963760376 15.02400016784668,-0.625 C14.718000411987305,1.0700000524520874 16.243000030517578,0.22699999809265137 16.982999801635742,1.1779999732971191 C17.44099998474121,1.7660000324249268 17.354999542236328,2.8889999389648438 17.187000274658203,3.553999900817871 C16.7810001373291,5.165999889373779 15.35099983215332,6.488999843597412 13.788000106811523,6.9710001945495605 C11.121000289916992,7.794000148773193 8.711000442504883,7.681000232696533 6.6539998054504395,5.631999969482422 C5.4120001792907715,4.396999835968018 4.427999973297119,2.9179999828338623 4.473999977111816,1.1670000553131104 C4.531000137329102,-0.9959999918937683 5.0960001945495605,-3.257999897003174 4.552999973297119,-5.400000095367432 C3.9040000438690186,-7.9679999351501465 2.8910000324249268,-10.737000465393066 0.718999981880188,-12.413999557495117 C-1.9579999446868896,-14.480999946594238 -5.197999954223633,-15.854000091552734 -8.375,-16.945999145507812 C-10.586999893188477,-17.707000732421875 -12.45199966430664,-18.059999465942383 -14.769000053405762,-17.75 C-17.08799934387207,-17.43899917602539 -19.332000732421875,-16.742000579833984 -21.604000091552734,-16.190000534057617"></path></g><g opacity="1" transform="matrix(1,0,0,1,3652.552001953125,2740.095947265625)"><path fill="rgb(174,153,164)" fill-opacity="1" d=" M21.06800079345703,-21.927000045776367 C21.06800079345703,-21.927000045776367 12.329999923706055,-21.927000045776367 12.329999923706055,-21.927000045776367 C12.111000061035156,-21.927000045776367 11.932999610900879,-21.75 11.932999610900879,-21.5310001373291 C11.932999610900879,-18.915000915527344 9.793999671936035,-16.775999069213867 7.177999973297119,-16.775999069213867 C6.508999824523926,-16.775999069213867 5.966000080108643,-16.232999801635742 5.966000080108643,-15.564000129699707 C5.966000080108643,-15.564000129699707 5.966000080108643,-3.3970000743865967 5.966000080108643,-3.3970000743865967 C5.966000080108643,0.6480000019073486 2.6579999923706055,3.9570000171661377 -1.3869999647140503,3.9570000171661377 C-5.432000160217285,3.9570000171661377 -8.741999626159668,0.6480000019073486 -8.741999626159668,-3.3970000743865967 C-8.741999626159668,-3.3970000743865967 -8.741999626159668,-15.564000129699707 -8.741999626159668,-15.564000129699707 C-8.741999626159668,-16.232999801635742 -9.284000396728516,-16.775999069213867 -9.95300006866455,-16.775999069213867 C-9.95300006866455,-16.775999069213867 -21.57699966430664,-16.775999069213867 -21.57699966430664,-16.775999069213867 C-24.06999969482422,-16.775999069213867 -26.12700080871582,-18.722000122070312 -26.312999725341797,-21.17099952697754 C-34.09700012207031,-18.886999130249023 -39.82500076293945,-11.666999816894531 -39.82500076293945,-3.1700000762939453 C-39.82500076293945,-3.1700000762939453 -39.82500076293945,3.1700000762939453 -39.82500076293945,3.1700000762939453 C-39.82500076293945,13.486000061035156 -31.384000778198242,21.927000045776367 -21.069000244140625,21.927000045776367 C-21.069000244140625,21.927000045776367 21.06800079345703,21.927000045776367 21.06800079345703,21.927000045776367 C31.382999420166016,21.927000045776367 39.82500076293945,13.486000061035156 39.82500076293945,3.1700000762939453 C39.82500076293945,3.1700000762939453 39.82500076293945,-3.1700000762939453 39.82500076293945,-3.1700000762939453 C39.82500076293945,-13.487000465393066 31.382999420166016,-21.927000045776367 21.06800079345703,-21.927000045776367z"></path></g><g opacity="1" transform="matrix(1,0,0,1,3650.55810546875,2763.403076171875)"><path fill="rgb(174,153,164)" fill-opacity="1" d=" M20.591999053955078,-2.249000072479248 C14.300000190734863,0.9470000267028809 7.140999794006348,2.249000072479248 0.08500000089406967,2.078000068664551 C-6.9710001945495605,1.906999945640564 -13.937999725341797,0.30399999022483826 -20.591999053955078,-2.049999952316284"></path></g><g opacity="1" transform="matrix(1,0,0,1,3620.385009765625,2758.614990234375)"><path fill="rgb(174,153,164)" fill-opacity="1" d=" M16.322999954223633,4.046999931335449 C12.545000076293945,3.5869998931884766 11.022000312805176,6.567999839782715 7.960999965667725,7.88100004196167 C5.190999984741211,9.069000244140625 1.8980000019073486,9.166000366210938 -0.9750000238418579,8.557000160217285 C-3.0490000247955322,8.116999626159668 -4.808000087738037,6.5970001220703125 -6.938000202178955,6.373000144958496 C-8.055999755859375,6.255000114440918 -8.340999603271484,6.625 -9.206000328063965,7.077000141143799 C-11.940999984741211,8.505000114440918 -16.322999954223633,8.133000373840332 -15.987000465393066,4.2170000076293945 C-15.72700023651123,1.190999984741211 -13.45199966430664,-1.7400000095367432 -10.86400032043457,-3.186000108718872 C-9.265999794006348,-4.078999996185303 -8.366000175476074,-4.001999855041504 -6.910999774932861,-3.2260000705718994 C-4.577000141143799,-1.9819999933242798 -4.068999767303467,-8.0600004196167 -3.128000020980835,-9.166000366210938"></path></g><g opacity="1" transform="matrix(1,0,0,1,3676.993896484375,2760.43310546875)"><path fill="rgb(174,153,164)" fill-opacity="1" d=" M-16.552000045776367,0.328000009059906 C-14.805999755859375,0.041999999433755875 -13.069000244140625,0.9100000262260437 -11.668999671936035,1.9930000305175781 C-10.270000457763672,3.0769999027252197 -9.550999641418457,5.13700008392334 -8.020000457763672,6.02400016784668 C-4.686999797821045,7.956999778747559 -1.6119999885559082,6.939000129699707 1.7259999513626099,5.776000022888184 C3.115999937057495,5.290999889373779 4.461999893188477,5.085000038146973 5.631999969482422,5.986999988555908 C6.508999824523926,6.6620001792907715 6.695000171661377,7.210000038146973 7.9629998207092285,6.978000164031982 C9.791999816894531,6.644000053405762 11.586000442504883,4.953999996185303 12.777999877929688,3.611999988555908 C13.755999565124512,2.51200008392334 16.552000045776367,-1.6009999513626099 14.35200023651123,-2.7709999084472656 C13.46500015258789,-3.242000102996826 11.64900016784668,-2.6579999923706055 10.744999885559082,-2.381999969482422 C11.317000389099121,-2.556999921798706 9.208999633789062,-4.874000072479248 9.064000129699707,-4.96999979019165 C6.6570000648498535,-6.577000141143799 3.7739999294281006,-5.543000221252441 1.2319999933242798,-4.806000232696533 C0.9269999861717224,-4.7179999351501465 0.5699999928474426,-4.638000011444092 0.3100000023841858,-4.822000026702881 C0.13500000536441803,-4.945000171661377 0.050999999046325684,-5.160999774932861 0.013000000268220901,-5.372000217437744 C-0.07000000029802322,-5.849999904632568 0.052000001072883606,-6.340000152587891 0.02800000086426735,-6.823999881744385 C0.004999999888241291,-7.309000015258789 -0.23800000548362732,-7.853000164031982 -0.7110000252723694,-7.956999778747559"></path></g><g opacity="1" transform="matrix(1,0,0,1,3609.737060546875,2743.2041015625)"><path stroke-linecap="round" stroke-linejoin="round" fill-opacity="0" stroke="rgb(174,153,164)" stroke-opacity="1" stroke-width="2.702" d=" M-5.169000148773193,0.6700000166893005 C-3.5309998989105225,-0.35600000619888306 -1.4630000591278076,-0.6700000166893005 0.4050000011920929,-0.17499999701976776 C1.2309999465942383,0.04500000178813934 2.0209999084472656,0.414000004529953 2.868000030517578,0.5270000100135803 C3.7160000801086426,0.640999972820282 4.684000015258789,0.4320000112056732 5.169000148773193,-0.2720000147819519"></path></g><g opacity="1" transform="matrix(1,0,0,1,3681.612060546875,2719.443115234375)"><path fill="rgb(139,124,141)" fill-opacity="1" d=" M13.583999633789062,8.651000022888184 C13.142000198364258,8.086000442504883 12.54699993133545,7.406000137329102 12.579999923706055,6.367000102996826 C12.605999946594238,5.554999828338623 13.590999603271484,4.314000129699707 14.131999969482422,3.752000093460083 C14.57800006866455,3.2869999408721924 15.088000297546387,2.875 15.406999588012695,2.299999952316284 C17.445999145507812,-1.3630000352859497 13.097000122070312,-3.5369999408721924 10.53600025177002,-4.491000175476074 C6.111000061035156,-6.139999866485596 1.975000023841858,-6.7230000495910645 -2.694999933242798,-6.876999855041504 C-5.389999866485596,-6.966000080108643 -7.966000080108643,-7.994999885559082 -10.630999565124512,-8.348999977111816 C-12.003999710083008,-8.531000137329102 -13.519000053405762,-8.652000427246094 -14.838000297546387,-8.098999977111816 C-15.725000381469727,-7.7270002365112305 -17.445999145507812,-6.791999816894531 -17.075000762939453,-5.434999942779541 C-16.944000244140625,-4.952000141143799 -16.584999084472656,-4.585999965667725 -16.229000091552734,-4.26200008392334 C-14.97700023651123,-3.119999885559082 -13.935999870300293,-1.8209999799728394 -12.789999961853027,-0.5550000071525574 C-11.604999542236328,0.7549999952316284 -8.791999816894531,6.129000186920166 -8.520000457763672,7.940000057220459 C-8.520000457763672,7.940000057220459 13.583999633789062,8.651000022888184 13.583999633789062,8.651000022888184z"></path></g><g opacity="1" transform="matrix(1,0,0,1,3706.013916015625,2736.89599609375)"><path fill="rgb(251,233,220)" fill-opacity="1" d=" M1.156000018119812,0 C1.156000018119812,-1.4420000314712524 0.6370000243186951,-2.611999988555908 0,-2.611999988555908 C-0.6389999985694885,-2.611999988555908 -1.156000018119812,-1.4420000314712524 -1.156000018119812,0 C-1.156000018119812,1.4420000314712524 -0.6389999985694885,2.611999988555908 0,2.611999988555908 C0.6370000243186951,2.611999988555908 1.156000018119812,1.4420000314712524 1.156000018119812,0z"></path></g><g opacity="1" transform="matrix(1,0,0,1,3671.842041015625,2731.2060546875)"><path fill="rgb(251,233,220)" fill-opacity="1" d=" M3.930000066757202,16.885000228881836 C1.9930000305175781,16.885000228881836 0.42500001192092896,15.317999839782715 0.42500001192092896,13.380999565124512 C0.42500001192092896,-3.3519999980926514 -6.060999870300293,-10.557000160217285 -6.130000114440918,-10.628000259399414 C-7.433000087738037,-12.036999702453613 -7.372000217437744,-14.251999855041504 -5.978000164031982,-15.571000099182129 C-4.585000038146973,-16.885000228881836 -2.3929998874664307,-16.86199951171875 -1.0579999685287476,-15.468000411987305 C-0.7099999785423279,-15.107000350952148 7.434000015258789,-6.428999900817871 7.434000015258789,13.380999565124512 C7.434000015258789,15.317999839782715 5.867000102996826,16.885000228881836 3.930000066757202,16.885000228881836z"></path></g></g><g transform="matrix(0.257999986410141,0,0,0.257999986410141,-850.1990966796875,-668.380126953125)" opacity="1" style="display: block;"><g opacity="1" transform="matrix(1,0,0,1,3431.0849609375,2733.0029296875)"><path fill="rgb(192,66,60)" fill-opacity="1" d=" M-63.742000579833984,13.456999778747559 C-63.742000579833984,13.456999778747559 63.742000579833984,-23.402000427246094 63.742000579833984,-23.402000427246094 C63.742000579833984,-23.402000427246094 63.742000579833984,-13.456999778747559 63.742000579833984,-13.456999778747559 C63.742000579833984,-13.456999778747559 -63.742000579833984,23.402000427246094 -63.742000579833984,23.402000427246094 C-63.742000579833984,23.402000427246094 -63.742000579833984,13.456999778747559 -63.742000579833984,13.456999778747559z"></path></g></g><g transform="matrix(0.257999986410141,0,0,0.257999986410141,-850.1990966796875,-668.380126953125)" opacity="1" style="display: block;"><g opacity="1" transform="matrix(1,0,0,1,3343.867919921875,2738.09912109375)"><path fill="rgb(139,124,141)" fill-opacity="1" d=" M-20.527000427246094,-11.35099983215332 C-20.527000427246094,-11.35099983215332 20.527999877929688,-11.35099983215332 20.527999877929688,-11.35099983215332 C20.527999877929688,-11.35099983215332 20.527999877929688,11.35099983215332 20.527999877929688,11.35099983215332 C20.527999877929688,11.35099983215332 -1.3109999895095825,11.35099983215332 -1.3109999895095825,11.35099983215332 C-1.3109999895095825,11.35099983215332 -20.527000427246094,-8.416999816894531 -20.527000427246094,-8.416999816894531 C-20.527000427246094,-8.416999816894531 -20.527000427246094,-11.35099983215332 -20.527000427246094,-11.35099983215332z"></path></g><g opacity="1" transform="matrix(1,0,0,1,3394.85205078125,2714.14794921875)"><path fill="rgb(17,128,194)" fill-opacity="1" d=" M6.38100004196167,6.540999889373779 C7.986999988555908,1.1779999732971191 3.239000082015991,-3.86899995803833 -1.3919999599456787,-5.697000026702881 C-2.947999954223633,-6.311999797821045 -4.7170000076293945,-6.540999889373779 -6.296000003814697,-5.988999843597412 C-6.984000205993652,-5.75 -7.986999988555908,-5.072000026702881 -7.534999847412109,-4.218999862670898 C-7.385000228881836,-3.936000108718872 -7.13100004196167,-3.7239999771118164 -6.883999824523926,-3.5190000534057617 C-5.789000034332275,-2.615000009536743 -3.632999897003174,-1.7569999694824219 -3.194000005722046,-0.28600001335144043 C-2.9000000953674316,0.7009999752044678 -3.4860000610351562,2.989000082015991 -4.288000106811523,3.5980000495910645"></path></g><g opacity="1" transform="matrix(1,0,0,1,3395.212890625,2719.8359375)"><path fill="rgb(17,128,194)" fill-opacity="1" d=" M5.998000144958496,6.25600004196167 C5.998000144958496,6.25600004196167 7.553999900817871,4.89900016784668 8.640000343322754,2.9579999446868896 C9.244000434875488,1.8769999742507935 8.91100025177002,0.5130000114440918 7.888999938964844,-0.18700000643730164 C5.394000053405762,-1.8990000486373901 0.04899999871850014,-5.008999824523926 -7.24399995803833,-6.184000015258789 C-7.695000171661377,-6.256999969482422 -8.125,-5.955999851226807 -8.222999572753906,-5.510000228881836 C-8.222999572753906,-5.510000228881836 -9.244000434875488,-0.8820000290870667 -9.244000434875488,-0.8820000290870667 C-9.244000434875488,-0.8820000290870667 0.34299999475479126,1.4049999713897705 5.998000144958496,6.25600004196167z"></path></g><g opacity="1" transform="matrix(1,0,0,1,3400.626953125,2737.717041015625)"><path fill="rgb(174,153,164)" fill-opacity="1" d=" M-19.56800079345703,11.039999961853027 C-18.090999603271484,13.12600040435791 -12.48900032043457,16.29400062561035 -6.789000034332275,15.564000129699707 C-5.616000175476074,15.414999961853027 -4.284999847412109,15.401000022888184 -3.365000009536743,16.143999099731445 C-2.378999948501587,16.94099998474121 -1.1920000314712524,18.06100082397461 -0.43799999356269836,16.150999069213867 C0.07900000363588333,14.84000015258789 -1.2660000324249268,13.918999671936035 -1.6490000486373901,12.760000228881836 C-1.8380000591278076,12.189000129699707 -1.781000018119812,11.480999946594238 -1.3200000524520874,11.093999862670898 C-0.628000020980835,11.958000183105469 0.24199999868869781,12.678000450134277 1.2209999561309814,13.196000099182129 C2.502000093460083,13.87399959564209 3.674999952316284,14.414999961853027 5.126999855041504,14.680999755859375 C6.994999885559082,15.02299976348877 8.930999755859375,15.031999588012695 10.803000450134277,14.711000442504883 C14.388999938964844,14.095999717712402 17.874000549316406,12.182999610900879 19.61400032043457,8.876999855041504 C21.0939998626709,6.066999912261963 21.604999542236328,2.2279999256134033 19.829999923706055,-0.5740000009536743 C18.854000091552734,-2.114000082015991 15.463000297546387,-3.062999963760376 15.02400016784668,-0.625 C14.718000411987305,1.0700000524520874 16.243000030517578,0.22699999809265137 16.982999801635742,1.1779999732971191 C17.44099998474121,1.7660000324249268 17.354999542236328,2.8889999389648438 17.187000274658203,3.553999900817871 C16.7810001373291,5.165999889373779 15.35099983215332,6.488999843597412 13.788999557495117,6.9710001945495605 C11.121000289916992,7.794000148773193 8.711999893188477,7.681000232696533 6.6539998054504395,5.631999969482422 C5.413000106811523,4.396999835968018 4.428999900817871,2.9179999828338623 4.473999977111816,1.1670000553131104 C4.531000137329102,-0.9959999918937683 5.0960001945495605,-3.257999897003174 4.553999900817871,-5.400000095367432 C3.9040000438690186,-7.9679999351501465 2.8910000324249268,-10.737000465393066 0.718999981880188,-12.413999557495117 C-1.9579999446868896,-14.480999946594238 -5.197999954223633,-15.854000091552734 -8.375,-16.945999145507812 C-10.586000442504883,-17.707000732421875 -12.451000213623047,-18.059999465942383 -14.769000053405762,-17.75 C-17.086999893188477,-17.43899917602539 -19.33099937438965,-16.742000579833984 -21.604000091552734,-16.190000534057617"></path></g><g opacity="1" transform="matrix(1,0,0,1,3349.64306640625,2740.095947265625)"><path fill="rgb(174,153,164)" fill-opacity="1" d=" M21.06800079345703,-21.927000045776367 C21.06800079345703,-21.927000045776367 12.329999923706055,-21.927000045776367 12.329999923706055,-21.927000045776367 C12.111000061035156,-21.927000045776367 11.932999610900879,-21.75 11.932999610900879,-21.5310001373291 C11.932999610900879,-18.915000915527344 9.793999671936035,-16.775999069213867 7.177999973297119,-16.775999069213867 C6.508999824523926,-16.775999069213867 5.9670000076293945,-16.232999801635742 5.9670000076293945,-15.564000129699707 C5.9670000076293945,-15.564000129699707 5.9670000076293945,-3.3970000743865967 5.9670000076293945,-3.3970000743865967 C5.9670000076293945,0.6480000019073486 2.6579999923706055,3.9570000171661377 -1.3869999647140503,3.9570000171661377 C-5.432000160217285,3.9570000171661377 -8.741000175476074,0.6480000019073486 -8.741000175476074,-3.3970000743865967 C-8.741000175476074,-3.3970000743865967 -8.741000175476074,-15.564000129699707 -8.741000175476074,-15.564000129699707 C-8.741000175476074,-16.232999801635742 -9.282999992370605,-16.775999069213867 -9.95199966430664,-16.775999069213867 C-9.95199966430664,-16.775999069213867 -21.576000213623047,-16.775999069213867 -21.576000213623047,-16.775999069213867 C-24.06999969482422,-16.775999069213867 -26.125999450683594,-18.722000122070312 -26.312999725341797,-21.17099952697754 C-34.09700012207031,-18.886999130249023 -39.82500076293945,-11.666999816894531 -39.82500076293945,-3.1700000762939453 C-39.82500076293945,-3.1700000762939453 -39.82500076293945,3.1700000762939453 -39.82500076293945,3.1700000762939453 C-39.82500076293945,13.486000061035156 -31.384000778198242,21.927000045776367 -21.06800079345703,21.927000045776367 C-21.06800079345703,21.927000045776367 21.06800079345703,21.927000045776367 21.06800079345703,21.927000045776367 C31.384000778198242,21.927000045776367 39.82500076293945,13.486000061035156 39.82500076293945,3.1700000762939453 C39.82500076293945,3.1700000762939453 39.82500076293945,-3.1700000762939453 39.82500076293945,-3.1700000762939453 C39.82500076293945,-13.487000465393066 31.384000778198242,-21.927000045776367 21.06800079345703,-21.927000045776367z"></path></g><g opacity="1" transform="matrix(1,0,0,1,3347.64990234375,2763.403076171875)"><path fill="rgb(174,153,164)" fill-opacity="1" d=" M20.590999603271484,-2.249000072479248 C14.298999786376953,0.9470000267028809 7.140999794006348,2.249000072479248 0.08500000089406967,2.078000068664551 C-6.96999979019165,1.906999945640564 -13.937999725341797,0.30399999022483826 -20.590999603271484,-2.049999952316284"></path></g><g opacity="1" transform="matrix(1,0,0,1,3317.47705078125,2758.614990234375)"><path fill="rgb(174,153,164)" fill-opacity="1" d=" M16.322999954223633,4.046999931335449 C12.545000076293945,3.5869998931884766 11.022000312805176,6.567999839782715 7.960000038146973,7.88100004196167 C5.190999984741211,9.069000244140625 1.8980000019073486,9.166000366210938 -0.9750000238418579,8.557000160217285 C-3.049999952316284,8.116999626159668 -4.808000087738037,6.5970001220703125 -6.938000202178955,6.373000144958496 C-8.055999755859375,6.255000114440918 -8.342000007629395,6.625 -9.206000328063965,7.077000141143799 C-11.940999984741211,8.505000114440918 -16.322999954223633,8.133000373840332 -15.987000465393066,4.2170000076293945 C-15.72700023651123,1.190999984741211 -13.45199966430664,-1.7400000095367432 -10.86400032043457,-3.186000108718872 C-9.265999794006348,-4.078999996185303 -8.366999626159668,-4.001999855041504 -6.910999774932861,-3.2260000705718994 C-4.577000141143799,-1.9819999933242798 -4.068999767303467,-8.0600004196167 -3.128999948501587,-9.166000366210938"></path></g><g opacity="1" transform="matrix(1,0,0,1,3374.0849609375,2760.43310546875)"><path fill="rgb(174,153,164)" fill-opacity="1" d=" M-16.552000045776367,0.328000009059906 C-14.805000305175781,0.041999999433755875 -13.069000244140625,0.9100000262260437 -11.668999671936035,1.9930000305175781 C-10.269000053405762,3.0769999027252197 -9.550999641418457,5.13700008392334 -8.020000457763672,6.02400016784668 C-4.686999797821045,7.956999778747559 -1.6109999418258667,6.939000129699707 1.7269999980926514,5.776000022888184 C3.115999937057495,5.290999889373779 4.461999893188477,5.085000038146973 5.631999969482422,5.986999988555908 C6.508999824523926,6.6620001792907715 6.696000099182129,7.210000038146973 7.9629998207092285,6.978000164031982 C9.791999816894531,6.644000053405762 11.586000442504883,4.953999996185303 12.779000282287598,3.611999988555908 C13.755999565124512,2.51200008392334 16.552000045776367,-1.6009999513626099 14.35200023651123,-2.7709999084472656 C13.46500015258789,-3.242000102996826 11.64900016784668,-2.6579999923706055 10.744999885559082,-2.381999969482422 C11.317999839782715,-2.556999921798706 9.208999633789062,-4.874000072479248 9.064000129699707,-4.96999979019165 C6.6570000648498535,-6.577000141143799 3.7750000953674316,-5.543000221252441 1.2330000400543213,-4.806000232696533 C0.9269999861717224,-4.7179999351501465 0.5709999799728394,-4.638000011444092 0.3100000023841858,-4.822000026702881 C0.13500000536441803,-4.945000171661377 0.050999999046325684,-5.160999774932861 0.014000000432133675,-5.372000217437744 C-0.0689999982714653,-5.849999904632568 0.052000001072883606,-6.340000152587891 0.02800000086426735,-6.823999881744385 C0.004999999888241291,-7.309000015258789 -0.2370000034570694,-7.853000164031982 -0.7110000252723694,-7.956999778747559"></path></g><g opacity="1" transform="matrix(1,0,0,1,3306.8291015625,2743.2041015625)"><path stroke-linecap="round" stroke-linejoin="round" fill-opacity="0" stroke="rgb(174,153,164)" stroke-opacity="1" stroke-width="2.702" d=" M-5.168000221252441,0.6700000166893005 C-3.5299999713897705,-0.35600000619888306 -1.4620000123977661,-0.6700000166893005 0.4059999883174896,-0.17499999701976776 C1.2319999933242798,0.04500000178813934 2.0209999084472656,0.414000004529953 2.868000030517578,0.5270000100135803 C3.7149999141693115,0.640999972820282 4.684000015258789,0.4320000112056732 5.168000221252441,-0.2720000147819519"></path></g><g opacity="1" transform="matrix(1,0,0,1,3378.7041015625,2719.443115234375)"><path fill="rgb(139,124,141)" fill-opacity="1" d=" M13.583999633789062,8.651000022888184 C13.142000198364258,8.086000442504883 12.54699993133545,7.406000137329102 12.579999923706055,6.367000102996826 C12.605999946594238,5.554999828338623 13.59000015258789,4.314000129699707 14.130999565124512,3.752000093460083 C14.57800006866455,3.2869999408721924 15.086999893188477,2.875 15.406999588012695,2.299999952316284 C17.445999145507812,-1.3630000352859497 13.097000122070312,-3.5369999408721924 10.53600025177002,-4.491000175476074 C6.111000061035156,-6.139999866485596 1.9739999771118164,-6.7230000495910645 -2.694999933242798,-6.876999855041504 C-5.389999866485596,-6.966000080108643 -7.966000080108643,-7.994999885559082 -10.630999565124512,-8.348999977111816 C-12.003999710083008,-8.531000137329102 -13.519000053405762,-8.652000427246094 -14.838000297546387,-8.098999977111816 C-15.725000381469727,-7.7270002365112305 -17.445999145507812,-6.791999816894531 -17.076000213623047,-5.434999942779541 C-16.944000244140625,-4.952000141143799 -16.584999084472656,-4.585999965667725 -16.229999542236328,-4.26200008392334 C-14.97700023651123,-3.119999885559082 -13.935999870300293,-1.8209999799728394 -12.791000366210938,-0.5550000071525574 C-11.605999946594238,0.7549999952316284 -8.791000366210938,6.129000186920166 -8.520999908447266,7.940000057220459 C-8.520999908447266,7.940000057220459 13.583999633789062,8.651000022888184 13.583999633789062,8.651000022888184z"></path></g><g opacity="1" transform="matrix(1,0,0,1,3403.10595703125,2736.89599609375)"><path fill="rgb(251,233,220)" fill-opacity="1" d=" M1.156000018119812,0 C1.156000018119812,-1.4420000314712524 0.6380000114440918,-2.611999988555908 0,-2.611999988555908 C-0.6380000114440918,-2.611999988555908 -1.156000018119812,-1.4420000314712524 -1.156000018119812,0 C-1.156000018119812,1.4420000314712524 -0.6380000114440918,2.611999988555908 0,2.611999988555908 C0.6380000114440918,2.611999988555908 1.156000018119812,1.4420000314712524 1.156000018119812,0z"></path></g><g opacity="1" transform="matrix(1,0,0,1,3368.89990234375,2731.202880859375)"><path fill="rgb(251,233,220)" fill-opacity="1" d=" M3.930000066757202,16.88800048828125 C1.9930000305175781,16.88800048828125 0.42500001192092896,15.319999694824219 0.42500001192092896,13.383000373840332 C0.42500001192092896,-3.3499999046325684 -6.064000129699707,-10.555000305175781 -6.130000114440918,-10.62600040435791 C-7.434000015258789,-12.03499984741211 -7.373000144958496,-14.25 -5.973999977111816,-15.569000244140625 C-4.580999851226807,-16.88800048828125 -2.390000104904175,-16.849000930786133 -1.0579999685287476,-15.465999603271484 C-0.7099999785423279,-15.104999542236328 7.434000015258789,-6.427000045776367 7.434000015258789,13.383000373840332 C7.434000015258789,15.319999694824219 5.867000102996826,16.88800048828125 3.930000066757202,16.88800048828125z"></path></g></g></g></svg>