<svg xmlns="http://www.w3.org/2000/svg" viewBox="0 0 51 41" width="51" height="41" preserveAspectRatio="xMidYMid meet" style="width: 100%; height: 100%; transform: translate3d(0px, 0px, 0px); content-visibility: visible;"><defs><clipPath id="__lottie_element_1000"><rect width="51" height="41" x="0" y="0"></rect></clipPath></defs><g clip-path="url(#__lottie_element_1000)"><g transform="matrix(1.8059998750686646,0,0,1.8059998750686646,-109.78292846679688,-0.7670040726661682)" opacity="1" style="display: block;"><g opacity="1" transform="matrix(1,0,0,1,0,0)"></g><g opacity="1" transform="matrix(1,0,0,1,74.8759994506836,14.281999588012695)"><path fill="rgb(121,36,55)" fill-opacity="1" d=" M8.590999603271484,0 C8.590999603271484,-4.679999828338623 4.744999885559082,-8.475000381469727 0,-8.475000381469727 C-4.74399995803833,-8.475000381469727 -8.590999603271484,-4.679999828338623 -8.590999603271484,0 C-8.590999603271484,4.679999828338623 -4.74399995803833,8.475000381469727 0,8.475000381469727 C4.744999885559082,8.475000381469727 8.590999603271484,4.679999828338623 8.590999603271484,0z"></path></g><g opacity="1" transform="matrix(1,0,0,1,66.31600189208984,6.064000129699707)"><path fill="rgb(121,36,55)" fill-opacity="1" d=" M3.4210000038146973,3.375 C5.631999969482422,1.194000005722046 5.89300012588501,-2.0859999656677246 4.004000186920166,-3.950000047683716 C2.114000082015991,-5.814000129699707 -1.2100000381469727,-5.556000232696533 -3.4210000038146973,-3.375 C-5.632999897003174,-1.194000005722046 -5.89300012588501,2.0859999656677246 -4.004000186920166,3.950000047683716 C-2.115000009536743,5.814000129699707 1.2100000381469727,5.556000232696533 3.4210000038146973,3.375z"></path></g><g opacity="1" transform="matrix(1,0,0,1,83.43499755859375,6.064000129699707)"><path fill="rgb(121,36,55)" fill-opacity="1" d=" M-3.4210000038146973,3.375 C-5.631999969482422,1.194000005722046 -5.89300012588501,-2.0859999656677246 -4.004000186920166,-3.950000047683716 C-2.114000082015991,-5.814000129699707 1.2100000381469727,-5.556000232696533 3.4210000038146973,-3.375 C5.632999897003174,-1.194000005722046 5.89300012588501,2.0859999656677246 4.004000186920166,3.950000047683716 C2.115000009536743,5.814000129699707 -1.2100000381469727,5.556000232696533 -3.4210000038146973,3.375z"></path></g><g opacity="1" transform="matrix(1,0,0,1,73.09400177001953,12.701000213623047)"><path fill="rgb(255,238,207)" fill-opacity="1" d=" M3.255000114440918,-0.7680000066757202 C2.5929999351501465,-3.5 0.5989999771118164,-5.369999885559082 -1.1990000009536743,-4.946000099182129 C-2.996000051498413,-4.521999835968018 -3.9170000553131104,-1.9639999866485596 -3.255000114440918,0.7680000066757202 C-2.5920000076293945,3.5 -0.5979999899864197,5.369999885559082 1.1990000009536743,4.946000099182129 C2.996999979019165,4.521999835968018 3.9170000553131104,1.9639999866485596 3.255000114440918,-0.7680000066757202z"></path></g><g opacity="1" transform="matrix(1,0,0,1,76.65699768066406,12.701000213623047)"><path fill="rgb(255,238,207)" fill-opacity="1" d=" M-3.255000114440918,-0.7680000066757202 C-2.5929999351501465,-3.5 -0.5989999771118164,-5.369999885559082 1.1990000009536743,-4.946000099182129 C2.996000051498413,-4.521999835968018 3.9170000553131104,-1.9639999866485596 3.255000114440918,0.7680000066757202 C2.5920000076293945,3.5 0.5979999899864197,5.369999885559082 -1.1990000009536743,4.946000099182129 C-2.996999979019165,4.521999835968018 -3.9170000553131104,1.9639999866485596 -3.255000114440918,-0.7680000066757202z"></path></g><g opacity="1" transform="matrix(1,0,0,1,74.8759994506836,16.913999557495117)"><path fill="rgb(255,238,207)" fill-opacity="1" d=" M0,4.557000160217285 C4.065999984741211,4.557000160217285 7.36299991607666,1.3049999475479126 7.36299991607666,-2.7070000171661377 C7.36299991607666,-4.557000160217285 5.27400016784668,-3.257999897003174 4.119999885559082,-2.4609999656677246 C2.7709999084472656,-1.5299999713897705 2.190999984741211,-1.25600004196167 0,-1.25600004196167 C-2.190999984741211,-1.25600004196167 -2.7709999084472656,-1.5299999713897705 -4.119999885559082,-2.4609999656677246 C-5.27400016784668,-3.257999897003174 -7.36299991607666,-4.557000160217285 -7.36299991607666,-2.7070000171661377 C-7.36299991607666,1.3049999475479126 -4.065999984741211,4.557000160217285 0,4.557000160217285z"></path></g><g opacity="1" transform="matrix(1,0,0,1,72.77899932861328,12.079999923706055)"><path fill="rgb(121,36,55)" fill-opacity="1" d=" M0,-2.1449999809265137 C-0.6240000128746033,-2.1449999809265137 -1.1299999952316284,-1.184999942779541 -1.1299999952316284,0 C-1.1299999952316284,1.184999942779541 -0.6240000128746033,2.1449999809265137 0,2.1449999809265137 C0.6240000128746033,2.1449999809265137 1.1299999952316284,1.184999942779541 1.1299999952316284,0 C1.1299999952316284,-1.184999942779541 0.6240000128746033,-2.1449999809265137 0,-2.1449999809265137z"></path></g><g opacity="1" transform="matrix(1,0,0,1,76.9729995727539,12.079999923706055)"><path fill="rgb(121,36,55)" fill-opacity="1" d=" M0,-2.1449999809265137 C-0.6240000128746033,-2.1449999809265137 -1.1299999952316284,-1.184999942779541 -1.1299999952316284,0 C-1.1299999952316284,1.184999942779541 -0.6240000128746033,2.1449999809265137 0,2.1449999809265137 C0.6240000128746033,2.1449999809265137 1.1299999952316284,1.184999942779541 1.1299999952316284,0 C1.1299999952316284,-1.184999942779541 0.6240000128746033,-2.1449999809265137 0,-2.1449999809265137z"></path></g><g opacity="1" transform="matrix(1,0,0,1,74.8759994506836,15.23900032043457)"><path fill="rgb(121,36,55)" fill-opacity="1" d=" M1.8769999742507935,0 C1.8769999742507935,-0.6650000214576721 1.0369999408721924,-1.2039999961853027 0,-1.2039999961853027 C-1.0360000133514404,-1.2039999961853027 -1.8769999742507935,-0.6650000214576721 -1.8769999742507935,0 C-1.8769999742507935,0.6650000214576721 -1.0360000133514404,1.2039999961853027 0,1.2039999961853027 C1.0369999408721924,1.2039999961853027 1.8769999742507935,0.6650000214576721 1.8769999742507935,0z"></path></g><g opacity="1" transform="matrix(1,0,0,1,74.8759994506836,18.211000442504883)"><path fill="rgb(121,36,55)" fill-opacity="1" d=" M0,0.08799999952316284 C-2.7079999446868896,0.08799999952316284 -4.492000102996826,-1.159000039100647 -5.5269999504089355,-2.2330000400543213 C-4.686999797821045,-0.4569999873638153 -2.933000087738037,2.2330000400543213 0,2.2330000400543213 C2.933000087738037,2.2330000400543213 4.688000202178955,-0.4569999873638153 5.5269999504089355,-2.2330000400543213 C4.492000102996826,-1.159000039100647 2.7079999446868896,0.08799999952316284 0,0.08799999952316284z"></path></g><g opacity="1" transform="matrix(1,0,0,1,74.8759994506836,19.503000259399414)"><path fill="rgb(193,66,60)" fill-opacity="1" d=" M0,-0.07699999958276749 C0.2590000033378601,-0.07699999958276749 0.2879999876022339,-0.289000004529953 0.5809999704360962,-0.35899999737739563 C0.9620000123977661,-0.4490000009536743 1.5809999704360962,-0.37599998712539673 1.5809999704360962,-0.07699999958276749 C1.5809999704360962,0.21299999952316284 0.8730000257492065,0.4490000009536743 0,0.4490000009536743 C-0.8730000257492065,0.4490000009536743 -1.5809999704360962,0.21299999952316284 -1.5809999704360962,-0.07699999958276749 C-1.5809999704360962,-0.37599998712539673 -0.9620000123977661,-0.4490000009536743 -0.5809999704360962,-0.35899999737739563 C-0.2879999876022339,-0.289000004529953 -0.2590000033378601,-0.07699999958276749 0,-0.07699999958276749z"></path></g><g opacity="1" transform="matrix(1,0,0,1,74.8759994506836,16.541000366210938)"><path fill="rgb(121,36,55)" fill-opacity="1" d=" M0,2.3329999446868896 C-4.048999786376953,2.3329999446868896 -6.176000118255615,-0.25200000405311584 -6.9019999504089355,-1.3630000352859497 C-7.076000213623047,-1.628999948501587 -7.000999927520752,-1.9850000143051147 -6.735000133514404,-2.1589999198913574 C-6.4710001945495605,-2.3329999446868896 -6.113999843597412,-2.259000062942505 -5.939000129699707,-1.9919999837875366 C-5.315000057220459,-1.0379999876022339 -3.486999988555908,1.1829999685287476 0,1.1829999685287476 C3.486999988555908,1.1829999685287476 5.315000057220459,-1.0379999876022339 5.939000129699707,-1.9919999837875366 C6.11299991607666,-2.259000062942505 6.4710001945495605,-2.3329999446868896 6.735000133514404,-2.1589999198913574 C7.000999927520752,-1.9850000143051147 7.076000213623047,-1.628999948501587 6.9019999504089355,-1.3630000352859497 C6.176000118255615,-0.25200000405311584 4.048999786376953,2.3329999446868896 0,2.3329999446868896z"></path></g><g opacity="1" transform="matrix(1,0,0,1,68.55599975585938,14.958999633789062)"><path fill="rgb(121,36,55)" fill-opacity="1" d=" M-0.2809999883174896,0.753000020980835 C-0.5849999785423279,0.753000020980835 -0.8389999866485596,0.5149999856948853 -0.8550000190734863,0.2070000022649765 C-0.8679999709129333,-0.04800000041723251 -0.781000018119812,-0.2809999883174896 -0.609000027179718,-0.44999998807907104 C-0.39800000190734863,-0.6589999794960022 -0.09200000017881393,-0.753000020980835 0.3109999895095825,-0.7250000238418579 C0.628000020980835,-0.703000009059906 0.8690000176429749,-0.4300000071525574 0.8479999899864197,-0.1120000034570694 C0.8270000219345093,0.2029999941587448 0.5550000071525574,0.4350000023841858 0.23999999463558197,0.42399999499320984 C0.15199999511241913,0.6079999804496765 -0.03200000151991844,0.7400000095367432 -0.25099998712539673,0.7519999742507935 C-0.26100000739097595,0.753000020980835 -0.2709999978542328,0.753000020980835 -0.2809999883174896,0.753000020980835z"></path></g><g opacity="1" transform="matrix(1,0,0,1,81.19499969482422,14.958999633789062)"><path fill="rgb(121,36,55)" fill-opacity="1" d=" M0.28200000524520874,0.753000020980835 C0.2720000147819519,0.753000020980835 0.26100000739097595,0.753000020980835 0.25099998712539673,0.7519999742507935 C0.03200000151991844,0.7400000095367432 -0.15199999511241913,0.6079999804496765 -0.23999999463558197,0.42399999499320984 C-0.5569999814033508,0.4320000112056732 -0.8270000219345093,0.20200000703334808 -0.8479999899864197,-0.11299999803304672 C-0.8690000176429749,-0.4309999942779541 -0.628000020980835,-0.7039999961853027 -0.3109999895095825,-0.7260000109672546 C0.09099999815225601,-0.753000020980835 0.3970000147819519,-0.6600000262260437 0.609000027179718,-0.45100000500679016 C0.781000018119812,-0.28200000524520874 0.8679999709129333,-0.04800000041723251 0.8550000190734863,0.2070000022649765 C0.8389999866485596,0.5149999856948853 0.5860000252723694,0.753000020980835 0.28200000524520874,0.753000020980835z"></path></g></g></g></svg>