<svg xmlns="http://www.w3.org/2000/svg" viewBox="0 0 98 122" width="98" height="122" preserveAspectRatio="xMidYMid meet" style="width: 100%; height: 100%; transform: translate3d(0px, 0px, 0px); content-visibility: visible;"><defs><clipPath id="__lottie_element_2416"><rect width="98" height="122" x="0" y="0"></rect></clipPath></defs><g clip-path="url(#__lottie_element_2416)"><g transform="matrix(0.3330000042915344,0,0,0.3330000042915344,0.5961201786994934,0.48241379857063293)" opacity="1" style="display: block;"><g opacity="1" transform="matrix(1,0,0,1,145.58099365234375,281.9150085449219)"><path fill="rgb(68,169,72)" fill-opacity="1" d=" M96.80799865722656,-12.093999862670898 C96.80799865722656,-12.093999862670898 -96.80699920654297,-12.093999862670898 -96.80699920654297,-12.093999862670898 C-102.2040023803711,-12.093999862670898 -106.5790023803711,-7.7179999351501465 -106.5790023803711,-2.322000026702881 C-106.5790023803711,-2.322000026702881 -106.5790023803711,12.093999862670898 -106.5790023803711,12.093999862670898 C-106.5790023803711,12.093999862670898 106.5790023803711,12.093999862670898 106.5790023803711,12.093999862670898 C106.5790023803711,12.093999862670898 106.5790023803711,-2.322000026702881 106.5790023803711,-2.322000026702881 C106.5790023803711,-7.7179999351501465 102.2040023803711,-12.093999862670898 96.80799865722656,-12.093999862670898z"></path></g><g opacity="1" transform="matrix(1,0,0,1,230.55999755859375,238.38499450683594)"><path fill="rgb(240,108,94)" fill-opacity="1" d=" M-5.854000091552734,61.03300094604492 C-5.854000091552734,61.03300094604492 5.854000091552734,61.03300094604492 5.854000091552734,61.03300094604492 C5.854000091552734,61.03300094604492 5.854000091552734,-61.03300094604492 5.854000091552734,-61.03300094604492 C5.854000091552734,-61.03300094604492 -5.854000091552734,-61.03300094604492 -5.854000091552734,-61.03300094604492 C-5.854000091552734,-61.03300094604492 -5.854000091552734,61.03300094604492 -5.854000091552734,61.03300094604492z"></path></g><g opacity="1" transform="matrix(1,0,0,1,60.604000091552734,238.38499450683594)"><path fill="rgb(240,108,94)" fill-opacity="1" d=" M5.854000091552734,61.03300094604492 C5.854000091552734,61.03300094604492 -5.854000091552734,61.03300094604492 -5.854000091552734,61.03300094604492 C-5.854000091552734,61.03300094604492 -5.854000091552734,-61.03300094604492 -5.854000091552734,-61.03300094604492 C-5.854000091552734,-61.03300094604492 5.854000091552734,-61.03300094604492 5.854000091552734,-61.03300094604492 C5.854000091552734,-61.03300094604492 5.854000091552734,61.03300094604492 5.854000091552734,61.03300094604492z"></path></g><g opacity="1" transform="matrix(1,0,0,1,145.58099365234375,168.81399536132812)"><path fill="rgb(240,108,94)" fill-opacity="1" d=" M112.43299865722656,8.508000373840332 C112.43299865722656,8.508000373840332 -112.43299865722656,8.508000373840332 -112.43299865722656,8.508000373840332 C-112.43299865722656,8.508000373840332 -112.43299865722656,-8.508000373840332 -112.43299865722656,-8.508000373840332 C-112.43299865722656,-8.508000373840332 112.43299865722656,-8.508000373840332 112.43299865722656,-8.508000373840332 C112.43299865722656,-8.508000373840332 112.43299865722656,8.508000373840332 112.43299865722656,8.508000373840332z"></path></g><g opacity="1" transform="matrix(1,0,0,1,33.14899826049805,164.78799438476562)"><path fill="rgb(217,28,92)" fill-opacity="1" d=" M3.7160000801086426,-12.564000129699707 C3.7160000801086426,-12.564000129699707 -3.7160000801086426,-12.564000129699707 -3.7160000801086426,-12.564000129699707 C-3.7160000801086426,-12.564000129699707 -3.7160000801086426,12.564000129699707 -3.7160000801086426,12.564000129699707 C-3.7160000801086426,12.564000129699707 3.7160000801086426,12.564000129699707 3.7160000801086426,12.564000129699707 C3.7160000801086426,12.564000129699707 3.7160000801086426,-12.564000129699707 3.7160000801086426,-12.564000129699707z"></path></g><g opacity="1" transform="matrix(1,0,0,1,96.49199676513672,164.78799438476562)"><path fill="rgb(217,28,92)" fill-opacity="1" d=" M3.7149999141693115,-12.564000129699707 C3.7149999141693115,-12.564000129699707 -3.7149999141693115,-12.564000129699707 -3.7149999141693115,-12.564000129699707 C-3.7149999141693115,-12.564000129699707 -3.7149999141693115,12.564000129699707 -3.7149999141693115,12.564000129699707 C-3.7149999141693115,12.564000129699707 3.7149999141693115,12.564000129699707 3.7149999141693115,12.564000129699707 C3.7149999141693115,12.564000129699707 3.7149999141693115,-12.564000129699707 3.7149999141693115,-12.564000129699707z"></path></g><g opacity="1" transform="matrix(1,0,0,1,194.67100524902344,164.78799438476562)"><path fill="rgb(217,28,92)" fill-opacity="1" d=" M3.7149999141693115,-12.564000129699707 C3.7149999141693115,-12.564000129699707 -3.7149999141693115,-12.564000129699707 -3.7149999141693115,-12.564000129699707 C-3.7149999141693115,-12.564000129699707 -3.7149999141693115,12.564000129699707 -3.7149999141693115,12.564000129699707 C-3.7149999141693115,12.564000129699707 3.7149999141693115,12.564000129699707 3.7149999141693115,12.564000129699707 C3.7149999141693115,12.564000129699707 3.7149999141693115,-12.564000129699707 3.7149999141693115,-12.564000129699707z"></path></g><g opacity="1" transform="matrix(1,0,0,1,258.0140075683594,164.78799438476562)"><path fill="rgb(217,28,92)" fill-opacity="1" d=" M3.7149999141693115,-12.564000129699707 C3.7149999141693115,-12.564000129699707 -3.7149999141693115,-12.564000129699707 -3.7149999141693115,-12.564000129699707 C-3.7149999141693115,-12.564000129699707 -3.7149999141693115,12.564000129699707 -3.7149999141693115,12.564000129699707 C-3.7149999141693115,12.564000129699707 3.7149999141693115,12.564000129699707 3.7149999141693115,12.564000129699707 C3.7149999141693115,12.564000129699707 3.7149999141693115,-12.564000129699707 3.7149999141693115,-12.564000129699707z"></path></g><g opacity="1" transform="matrix(1,0,0,1,64.81999969482422,169.23800659179688)"><path stroke-linecap="round" stroke-linejoin="round" fill-opacity="0" stroke="rgb(217,28,92)" stroke-opacity="1" stroke-width="5" d=" M-25.816999435424805,8.11299991607666 C-25.816999435424805,-0.4690000116825104 -14.258000373840332,-8.11299991607666 0,-8.11299991607666 C14.258000373840332,-8.11299991607666 25.816999435424805,-0.4690000116825104 25.816999435424805,8.11299991607666"></path></g><g opacity="1" transform="matrix(1,0,0,1,226.34300231933594,169.23800659179688)"><path stroke-linecap="round" stroke-linejoin="round" fill-opacity="0" stroke="rgb(217,28,92)" stroke-opacity="1" stroke-width="5" d=" M-25.81599998474121,8.11299991607666 C-25.81599998474121,-0.4690000116825104 -14.256999969482422,-8.11299991607666 0,-8.11299991607666 C14.258000373840332,-8.11299991607666 25.81599998474121,-0.4690000116825104 25.81599998474121,8.11299991607666"></path></g><g opacity="1" transform="matrix(1,0,0,1,145.58200073242188,169.23800659179688)"><path stroke-linecap="round" stroke-linejoin="round" fill-opacity="0" stroke="rgb(217,28,92)" stroke-opacity="1" stroke-width="5" d=" M-43.236000061035156,8.11299991607666 C-43.236000061035156,-0.5370000004768372 -23.878999710083008,-8.11299991607666 -0.0010000000474974513,-8.11299991607666 C23.878000259399414,-8.11299991607666 43.236000061035156,-0.5370000004768372 43.236000061035156,8.11299991607666"></path></g><g opacity="1" transform="matrix(1,0,0,1,145.58099365234375,41.18000030517578)"><path fill="rgb(132,207,215)" fill-opacity="1" d=" M0,-40.93000030517578 C0,-40.93000030517578 -34.92599868774414,40.93000030517578 -34.92599868774414,40.93000030517578 C-34.92599868774414,40.93000030517578 34.92599868774414,40.93000030517578 34.92599868774414,40.93000030517578 C34.92599868774414,40.93000030517578 0,-40.93000030517578 0,-40.93000030517578z"></path></g><g opacity="1" transform="matrix(1,0,0,1,145.58099365234375,104.34600067138672)"><path fill="rgb(217,28,92)" fill-opacity="1" d=" M0,22.236000061035156 C0,22.236000061035156 -34.92599868774414,-22.236000061035156 -34.92599868774414,-22.236000061035156 C-34.92599868774414,-22.236000061035156 34.92599868774414,-22.236000061035156 34.92599868774414,-22.236000061035156 C34.92599868774414,-22.236000061035156 0,22.236000061035156 0,22.236000061035156z"></path></g><g opacity="1" transform="matrix(1,0,0,1,145.58099365234375,113.99199676513672)"><path fill="rgb(132,207,215)" fill-opacity="1" d=" M34.92599868774414,-18.511999130249023 C34.92599868774414,-18.511999130249023 -34.92599868774414,-18.511999130249023 -34.92599868774414,-18.511999130249023 C-34.92599868774414,-18.511999130249023 -145.33200073242188,18.511999130249023 -145.33200073242188,18.511999130249023 C-145.33200073242188,18.511999130249023 145.33200073242188,18.511999130249023 145.33200073242188,18.511999130249023 C145.33200073242188,18.511999130249023 34.92599868774414,-18.511999130249023 34.92599868774414,-18.511999130249023z"></path></g><g opacity="1" transform="matrix(1,0,0,1,145.58099365234375,113.99199676513672)"><path fill="rgb(29,153,212)" fill-opacity="1" d=" M15.371000289916992,-18.511999130249023 C15.371000289916992,-18.511999130249023 -15.371000289916992,-18.511999130249023 -15.371000289916992,-18.511999130249023 C-15.371000289916992,-18.511999130249023 -63.96200180053711,18.511999130249023 -63.96200180053711,18.511999130249023 C-63.96200180053711,18.511999130249023 63.96200180053711,18.511999130249023 63.96200180053711,18.511999130249023 C63.96200180053711,18.511999130249023 15.371000289916992,-18.511999130249023 15.371000289916992,-18.511999130249023z"></path></g><g opacity="1" transform="matrix(1,0,0,1,145.58200073242188,138.30599975585938)"><path fill="rgb(29,153,212)" fill-opacity="1" d=" M145.33200073242188,5.802999973297119 C145.33200073242188,5.802999973297119 -145.33200073242188,5.802999973297119 -145.33200073242188,5.802999973297119 C-145.33200073242188,5.802999973297119 -145.33200073242188,-5.802999973297119 -145.33200073242188,-5.802999973297119 C-145.33200073242188,-5.802999973297119 145.33200073242188,-5.802999973297119 145.33200073242188,-5.802999973297119 C145.33200073242188,-5.802999973297119 145.33200073242188,5.802999973297119 145.33200073242188,5.802999973297119z"></path></g><g opacity="1" transform="matrix(1,0,0,1,145.58099365234375,152.61700439453125)"><path fill="rgb(217,28,92)" fill-opacity="1" d=" M123.69599914550781,8.508000373840332 C123.69599914550781,8.508000373840332 -123.69599914550781,8.508000373840332 -123.69599914550781,8.508000373840332 C-123.69599914550781,8.508000373840332 -123.69599914550781,-8.508000373840332 -123.69599914550781,-8.508000373840332 C-123.69599914550781,-8.508000373840332 123.69599914550781,-8.508000373840332 123.69599914550781,-8.508000373840332 C123.69599914550781,-8.508000373840332 123.69599914550781,8.508000373840332 123.69599914550781,8.508000373840332z"></path></g><g opacity="1" transform="matrix(1,0,0,1,9.333000183105469,144.11000061035156)"><path fill="rgb(29,153,212)" fill-opacity="1" d=" M9.083000183105469,0 C9.083000183105469,-5.017000198364258 5.017000198364258,-9.083000183105469 0,-9.083000183105469 C-5.017000198364258,-9.083000183105469 -9.083000183105469,-5.017000198364258 -9.083000183105469,0 C-9.083000183105469,5.017000198364258 -5.017000198364258,9.083000183105469 0,9.083000183105469 C5.017000198364258,9.083000183105469 9.083000183105469,5.017000198364258 9.083000183105469,0z"></path></g><g opacity="1" transform="matrix(1,0,0,1,27.499000549316406,144.11000061035156)"><path fill="rgb(29,153,212)" fill-opacity="1" d=" M9.083999633789062,0 C9.083999633789062,-5.017000198364258 5.015999794006348,-9.083000183105469 -0.0010000000474974513,-9.083000183105469 C-5.01800012588501,-9.083000183105469 -9.083999633789062,-5.017000198364258 -9.083999633789062,0 C-9.083999633789062,5.017000198364258 -5.01800012588501,9.083000183105469 -0.0010000000474974513,9.083000183105469 C5.015999794006348,9.083000183105469 9.083999633789062,5.017000198364258 9.083999633789062,0z"></path></g><g opacity="1" transform="matrix(1,0,0,1,45.66600036621094,144.11000061035156)"><path fill="rgb(29,153,212)" fill-opacity="1" d=" M9.083000183105469,0 C9.083000183105469,-5.017000198364258 5.017000198364258,-9.083000183105469 0,-9.083000183105469 C-5.017000198364258,-9.083000183105469 -9.083000183105469,-5.017000198364258 -9.083000183105469,0 C-9.083000183105469,5.017000198364258 -5.017000198364258,9.083000183105469 0,9.083000183105469 C5.017000198364258,9.083000183105469 9.083000183105469,5.017000198364258 9.083000183105469,0z"></path></g><g opacity="1" transform="matrix(1,0,0,1,63.832000732421875,144.11000061035156)"><path fill="rgb(29,153,212)" fill-opacity="1" d=" M9.083999633789062,0 C9.083999633789062,-5.017000198364258 5.015999794006348,-9.083000183105469 -0.0010000000474974513,-9.083000183105469 C-5.01800012588501,-9.083000183105469 -9.083999633789062,-5.017000198364258 -9.083999633789062,0 C-9.083999633789062,5.017000198364258 -5.01800012588501,9.083000183105469 -0.0010000000474974513,9.083000183105469 C5.015999794006348,9.083000183105469 9.083999633789062,5.017000198364258 9.083999633789062,0z"></path></g><g opacity="1" transform="matrix(1,0,0,1,81.9990005493164,144.11000061035156)"><path fill="rgb(29,153,212)" fill-opacity="1" d=" M9.083000183105469,0 C9.083000183105469,-5.017000198364258 5.017000198364258,-9.083000183105469 0,-9.083000183105469 C-5.017000198364258,-9.083000183105469 -9.083000183105469,-5.017000198364258 -9.083000183105469,0 C-9.083000183105469,5.017000198364258 -5.017000198364258,9.083000183105469 0,9.083000183105469 C5.017000198364258,9.083000183105469 9.083000183105469,5.017000198364258 9.083000183105469,0z"></path></g><g opacity="1" transform="matrix(1,0,0,1,100.16500091552734,144.11000061035156)"><path fill="rgb(29,153,212)" fill-opacity="1" d=" M9.083000183105469,0 C9.083000183105469,-5.017000198364258 5.017000198364258,-9.083000183105469 0,-9.083000183105469 C-5.017000198364258,-9.083000183105469 -9.083000183105469,-5.017000198364258 -9.083000183105469,0 C-9.083000183105469,5.017000198364258 -5.017000198364258,9.083000183105469 0,9.083000183105469 C5.017000198364258,9.083000183105469 9.083000183105469,5.017000198364258 9.083000183105469,0z"></path></g><g opacity="1" transform="matrix(1,0,0,1,118.33100128173828,144.11000061035156)"><path fill="rgb(29,153,212)" fill-opacity="1" d=" M9.083999633789062,0 C9.083999633789062,-5.017000198364258 5.01800012588501,-9.083000183105469 0.0010000000474974513,-9.083000183105469 C-5.015999794006348,-9.083000183105469 -9.083999633789062,-5.017000198364258 -9.083999633789062,0 C-9.083999633789062,5.017000198364258 -5.015999794006348,9.083000183105469 0.0010000000474974513,9.083000183105469 C5.01800012588501,9.083000183105469 9.083999633789062,5.017000198364258 9.083999633789062,0z"></path></g><g opacity="1" transform="matrix(1,0,0,1,136.4980010986328,144.11000061035156)"><path fill="rgb(29,153,212)" fill-opacity="1" d=" M9.083000183105469,0 C9.083000183105469,-5.017000198364258 5.017000198364258,-9.083000183105469 0,-9.083000183105469 C-5.017000198364258,-9.083000183105469 -9.083000183105469,-5.017000198364258 -9.083000183105469,0 C-9.083000183105469,5.017000198364258 -5.017000198364258,9.083000183105469 0,9.083000183105469 C5.017000198364258,9.083000183105469 9.083000183105469,5.017000198364258 9.083000183105469,0z"></path></g><g opacity="1" transform="matrix(1,0,0,1,154.66400146484375,144.11000061035156)"><path fill="rgb(29,153,212)" fill-opacity="1" d=" M9.083999633789062,0 C9.083999633789062,-5.017000198364258 5.017000198364258,-9.083000183105469 0.0010000000474974513,-9.083000183105469 C-5.015999794006348,-9.083000183105469 -9.083999633789062,-5.017000198364258 -9.083999633789062,0 C-9.083999633789062,5.017000198364258 -5.015999794006348,9.083000183105469 0.0010000000474974513,9.083000183105469 C5.017000198364258,9.083000183105469 9.083999633789062,5.017000198364258 9.083999633789062,0z"></path></g><g opacity="1" transform="matrix(1,0,0,1,172.83099365234375,144.11000061035156)"><path fill="rgb(29,153,212)" fill-opacity="1" d=" M9.083000183105469,0 C9.083000183105469,-5.017000198364258 5.017000198364258,-9.083000183105469 0,-9.083000183105469 C-5.017000198364258,-9.083000183105469 -9.083000183105469,-5.017000198364258 -9.083000183105469,0 C-9.083000183105469,5.017000198364258 -5.017000198364258,9.083000183105469 0,9.083000183105469 C5.017000198364258,9.083000183105469 9.083000183105469,5.017000198364258 9.083000183105469,0z"></path></g><g opacity="1" transform="matrix(1,0,0,1,190.9969940185547,144.11000061035156)"><path fill="rgb(29,153,212)" fill-opacity="1" d=" M9.083999633789062,0 C9.083999633789062,-5.017000198364258 5.015999794006348,-9.083000183105469 -0.0010000000474974513,-9.083000183105469 C-5.017000198364258,-9.083000183105469 -9.083999633789062,-5.017000198364258 -9.083999633789062,0 C-9.083999633789062,5.017000198364258 -5.017000198364258,9.083000183105469 -0.0010000000474974513,9.083000183105469 C5.015999794006348,9.083000183105469 9.083999633789062,5.017000198364258 9.083999633789062,0z"></path></g><g opacity="1" transform="matrix(1,0,0,1,209.16400146484375,144.11000061035156)"><path fill="rgb(29,153,212)" fill-opacity="1" d=" M9.083000183105469,0 C9.083000183105469,-5.017000198364258 5.017000198364258,-9.083000183105469 0,-9.083000183105469 C-5.017000198364258,-9.083000183105469 -9.083000183105469,-5.017000198364258 -9.083000183105469,0 C-9.083000183105469,5.017000198364258 -5.017000198364258,9.083000183105469 0,9.083000183105469 C5.017000198364258,9.083000183105469 9.083000183105469,5.017000198364258 9.083000183105469,0z"></path></g><g opacity="1" transform="matrix(1,0,0,1,227.3300018310547,144.11000061035156)"><path fill="rgb(29,153,212)" fill-opacity="1" d=" M9.083999633789062,0 C9.083999633789062,-5.017000198364258 5.015999794006348,-9.083000183105469 -0.0010000000474974513,-9.083000183105469 C-5.01800012588501,-9.083000183105469 -9.083999633789062,-5.017000198364258 -9.083999633789062,0 C-9.083999633789062,5.017000198364258 -5.01800012588501,9.083000183105469 -0.0010000000474974513,9.083000183105469 C5.015999794006348,9.083000183105469 9.083999633789062,5.017000198364258 9.083999633789062,0z"></path></g><g opacity="1" transform="matrix(1,0,0,1,245.4969940185547,144.11000061035156)"><path fill="rgb(29,153,212)" fill-opacity="1" d=" M9.083000183105469,0 C9.083000183105469,-5.017000198364258 5.017000198364258,-9.083000183105469 0,-9.083000183105469 C-5.017000198364258,-9.083000183105469 -9.083000183105469,-5.017000198364258 -9.083000183105469,0 C-9.083000183105469,5.017000198364258 -5.017000198364258,9.083000183105469 0,9.083000183105469 C5.017000198364258,9.083000183105469 9.083000183105469,5.017000198364258 9.083000183105469,0z"></path></g><g opacity="1" transform="matrix(1,0,0,1,263.6629943847656,144.11000061035156)"><path fill="rgb(29,153,212)" fill-opacity="1" d=" M9.083000183105469,0 C9.083000183105469,-5.017000198364258 5.017000198364258,-9.083000183105469 0,-9.083000183105469 C-5.017000198364258,-9.083000183105469 -9.083000183105469,-5.017000198364258 -9.083000183105469,0 C-9.083000183105469,5.017000198364258 -5.017000198364258,9.083000183105469 0,9.083000183105469 C5.017000198364258,9.083000183105469 9.083000183105469,5.017000198364258 9.083000183105469,0z"></path></g><g opacity="1" transform="matrix(1,0,0,1,281.8290100097656,144.11000061035156)"><path fill="rgb(29,153,212)" fill-opacity="1" d=" M9.083999633789062,0 C9.083999633789062,-5.017000198364258 5.01800012588501,-9.083000183105469 0.0010000000474974513,-9.083000183105469 C-5.015999794006348,-9.083000183105469 -9.083999633789062,-5.017000198364258 -9.083999633789062,0 C-9.083999633789062,5.017000198364258 -5.015999794006348,9.083000183105469 0.0010000000474974513,9.083000183105469 C5.01800012588501,9.083000183105469 9.083999633789062,5.017000198364258 9.083999633789062,0z"></path></g><g opacity="1" transform="matrix(1,0,0,1,140.88600158691406,52.507999420166016)"><path fill="rgb(255,238,207)" fill-opacity="1" d=" M2.7850000858306885,-0.5740000009536743 C2.7850000858306885,-0.5740000009536743 -6.125,5.485000133514404 -6.125,5.485000133514404 C-6.125,5.485000133514404 2.5789999961853027,17.31800079345703 2.5789999961853027,17.31800079345703 C2.5789999961853027,17.31800079345703 21.229999542236328,6.953000068664551 21.229999542236328,6.953000068664551 C21.229999542236328,6.953000068664551 7.4019999504089355,-17.31800079345703 7.4019999504089355,-17.31800079345703 C7.4019999504089355,-17.31800079345703 -17.32699966430664,-0.6439999938011169 -17.32699966430664,-0.6439999938011169 C-17.32699966430664,-0.6439999938011169 -21.229999542236328,8.503999710083008 -21.229999542236328,8.503999710083008 C-21.229999542236328,8.503999710083008 5.5920000076293945,-9.581000328063965 5.5920000076293945,-9.581000328063965 C5.5920000076293945,-9.581000328063965 13.831999778747559,4.882999897003174 13.831999778747559,4.882999897003174 C13.831999778747559,4.882999897003174 4.107999801635742,10.282999992370605 4.107999801635742,10.282999992370605 C4.107999801635742,10.282999992370605 1.5490000247955322,6.798999786376953 1.5490000247955322,6.798999786376953 C1.5490000247955322,6.798999786376953 5.823999881744385,3.8959999084472656 5.823999881744385,3.8959999084472656 C5.823999881744385,3.8959999084472656 2.7850000858306885,-0.5740000009536743 2.7850000858306885,-0.5740000009536743z"></path></g><g opacity="1" transform="matrix(1,0,0,1,90.1259994506836,108.50599670410156)"><path fill="rgb(255,238,207)" fill-opacity="1" d=" M5.1620001792907715,-3.940999984741211 C5.1620001792907715,-3.940999984741211 -7.019999980926514,1.7669999599456787 -7.019999980926514,1.7669999599456787 C-7.019999980926514,1.7669999599456787 -9.692000389099121,-2.8919999599456787 -9.692000389099121,-2.8919999599456787 C-9.692000389099121,-2.8919999599456787 -14.914999961853027,-1.1399999856948853 -14.914999961853027,-1.1399999856948853 C-14.914999961853027,-1.1399999856948853 -9.236000061035156,8.777000427246094 -9.236000061035156,8.777000427246094 C-9.236000061035156,8.777000427246094 14.914999961853027,-2.5409998893737793 14.914999961853027,-2.5409998893737793 C14.914999961853027,-2.5409998893737793 7.855000019073486,-8.777000427246094 7.855000019073486,-8.777000427246094 C7.855000019073486,-8.777000427246094 1.9359999895095825,-6.790999889373779 1.9359999895095825,-6.790999889373779 C1.9359999895095825,-6.790999889373779 5.1620001792907715,-3.940999984741211 5.1620001792907715,-3.940999984741211z"></path></g><g opacity="1" transform="matrix(1,0,0,1,41.85300064086914,121.06300354003906)"><path fill="rgb(255,238,207)" fill-opacity="1" d=" M12.975000381469727,7.486000061035156 C12.975000381469727,7.486000061035156 14.836000442504883,-7.486000061035156 14.836000442504883,-7.486000061035156 C14.836000442504883,-7.486000061035156 9.154999732971191,-5.579999923706055 9.154999732971191,-5.579999923706055 C9.154999732971191,-5.579999923706055 8.319000244140625,1.152999997138977 8.319000244140625,1.152999997138977 C8.319000244140625,1.152999997138977 -4.188000202178955,-1.1059999465942383 -4.188000202178955,-1.1059999465942383 C-4.188000202178955,-1.1059999465942383 -14.836000442504883,2.4649999141693115 -14.836000442504883,2.4649999141693115 C-14.836000442504883,2.4649999141693115 12.975000381469727,7.486000061035156 12.975000381469727,7.486000061035156z"></path></g><g opacity="1" transform="matrix(1,0,0,1,202.63800048828125,106.22100067138672)"><path fill="rgb(255,238,207)" fill-opacity="1" d=" M-9.897000312805176,8.015999794006348 C-9.897000312805176,8.015999794006348 14.005999565124512,1.3769999742507935 14.005999565124512,1.3769999742507935 C14.005999565124512,1.3769999742507935 4.85699987411499,-1.690999984741211 4.85699987411499,-1.690999984741211 C4.85699987411499,-1.690999984741211 -6.033999919891357,1.3350000381469727 -6.033999919891357,1.3350000381469727 C-6.033999919891357,1.3350000381469727 -7.90500020980835,-5.96999979019165 -7.90500020980835,-5.96999979019165 C-7.90500020980835,-5.96999979019165 -14.005999565124512,-8.015999794006348 -14.005999565124512,-8.015999794006348 C-14.005999565124512,-8.015999794006348 -9.897000312805176,8.015999794006348 -9.897000312805176,8.015999794006348z"></path></g><g opacity="1" transform="matrix(1,0,0,1,229.58599853515625,121.10299682617188)"><path fill="rgb(255,238,207)" fill-opacity="1" d=" M-0.7929999828338623,7.205999851226807 C-0.7929999828338623,7.205999851226807 18.57900047302246,-2.934000015258789 18.57900047302246,-2.934000015258789 C18.57900047302246,-2.934000015258789 11.479999542236328,-5.315000057220459 11.479999542236328,-5.315000057220459 C11.479999542236328,-5.315000057220459 -1.2580000162124634,1.3519999980926514 -1.2580000162124634,1.3519999980926514 C-1.2580000162124634,1.3519999980926514 -9.37399959564209,-1.3630000352859497 -9.37399959564209,-1.3630000352859497 C-9.37399959564209,-1.3630000352859497 -7.385000228881836,-3.749000072479248 -7.385000228881836,-3.749000072479248 C-7.385000228881836,-3.749000072479248 -11.545000076293945,-7.205999851226807 -11.545000076293945,-7.205999851226807 C-11.545000076293945,-7.205999851226807 -18.57900047302246,1.2549999952316284 -18.57900047302246,1.2549999952316284 C-18.57900047302246,1.2549999952316284 -0.7929999828338623,7.205999851226807 -0.7929999828338623,7.205999851226807z"></path></g><g opacity="1" transform="matrix(1,0,0,1,147.08700561523438,116.12300109863281)"><path fill="rgb(255,238,207)" fill-opacity="1" d=" M-1.1890000104904175,-14.479000091552734 C-1.1890000104904175,-14.479000091552734 -24.218000411987305,-7.566999912261963 -24.218000411987305,-7.566999912261963 C-24.218000411987305,-7.566999912261963 -22.666000366210938,-2.390000104904175 -22.666000366210938,-2.390000104904175 C-22.666000366210938,-2.390000104904175 -9.170000076293945,-6.440000057220459 -9.170000076293945,-6.440000057220459 C-9.170000076293945,-6.440000057220459 -15.281999588012695,14.479000091552734 -15.281999588012695,14.479000091552734 C-15.281999588012695,14.479000091552734 24.218000411987305,14.479000091552734 24.218000411987305,14.479000091552734 C24.218000411987305,14.479000091552734 16.93400001525879,-6.804999828338623 16.93400001525879,-6.804999828338623 C16.93400001525879,-6.804999828338623 2.7799999713897705,-0.32600000500679016 2.7799999713897705,-0.32600000500679016 C2.7799999713897705,-0.32600000500679016 5.0279998779296875,4.5879998207092285 5.0279998779296875,4.5879998207092285 C5.0279998779296875,4.5879998207092285 13.756999969482422,0.5950000286102295 13.756999969482422,0.5950000286102295 C13.756999969482422,0.5950000286102295 16.65999984741211,9.074000358581543 16.65999984741211,9.074000358581543 C16.65999984741211,9.074000358581543 -8.072999954223633,9.074000358581543 -8.072999954223633,9.074000358581543 C-8.072999954223633,9.074000358581543 -1.1890000104904175,-14.479000091552734 -1.1890000104904175,-14.479000091552734z"></path></g></g><g transform="matrix(0.3330000042915344,0,0,0.3330000042915344,4.966745376586914,0.48241886496543884)" opacity="1" style="display: block;"><g opacity="1" transform="matrix(1,0,0,1,82.80899810791016,268.7170104980469)"><path fill="rgb(255,201,77)" fill-opacity="1" d=" M38.229000091552734,-23.239999771118164 C38.229000091552734,-23.239999771118164 -38.229000091552734,-23.239999771118164 -38.229000091552734,-23.239999771118164 C-39.91999816894531,-23.239999771118164 -41.250999450683594,-21.760000228881836 -41.01100158691406,-20.086000442504883 C-39.44499969482422,-9.170000076293945 -31.108999252319336,23.239999771118164 0,23.239999771118164 C31.110000610351562,23.239999771118164 39.444000244140625,-9.170000076293945 41.01100158691406,-20.086000442504883 C41.250999450683594,-21.760000228881836 39.92100143432617,-23.239999771118164 38.229000091552734,-23.239999771118164z"></path></g><g opacity="1" transform="matrix(1,0,0,1,125.76200103759766,260.47698974609375)"><path stroke-linecap="round" stroke-linejoin="round" fill-opacity="0" stroke="rgb(255,201,77)" stroke-opacity="1" stroke-width="5" d=" M-3.5420000553131104,-12.98799991607666 C-1.0410000085830688,-15.48799991607666 3.6110000610351562,-15.623000144958496 6.571000099182129,-13.585000038146973 C9.531000137329102,-11.54699993133545 10.723999977111816,-7.763000011444092 9.871999740600586,-4.466000080108643 C9.020000457763672,-1.1690000295639038 6.3520002365112305,1.593000054359436 3.0989999771118164,3.2160000801086426 C0.41600000858306885,4.553999900817871 -2.374000072479248,5.6479997634887695 -4.927000045776367,7.184999942779541 C-7.926000118255615,8.991999626159668 -10.723999977111816,12.593000411987305 -7.718999862670898,15.62399959564209"></path></g><g opacity="1" transform="matrix(1,0,0,1,0,0)"><path stroke-linecap="round" stroke-linejoin="round" fill-opacity="0" stroke="rgb(255,201,77)" stroke-opacity="1" stroke-width="5" d=" M52.3120002746582,291.9570007324219 C52.3120002746582,291.9570007324219 113.30500030517578,291.9570007324219 113.30500030517578,291.9570007324219"></path></g><g opacity="1" transform="matrix(1,0,0,1,70.27999877929688,255.12399291992188)"><path stroke-linecap="butt" stroke-linejoin="miter" fill-opacity="0" stroke-miterlimit="10" stroke="rgb(0,131,125)" stroke-opacity="1" stroke-width="3.5" d=" M7.0929999351501465,5.005000114440918 C6.8379998207092285,2.171999931335449 6.571000099182129,-1.7070000171661377 4.343999862670898,-3.7799999713897705 C0.08299999684095383,-7.743000030517578 -7.0929999351501465,-2.183000087738037 -3.3570001125335693,2.9149999618530273 C-1.7669999599456787,5.085999965667725 0.9179999828338623,6.205999851226807 3.0429999828338623,7.742000102996826"></path></g><g opacity="1" transform="matrix(1,0,0,1,66.2249984741211,269.0740051269531)"><path stroke-linecap="butt" stroke-linejoin="miter" fill-opacity="0" stroke-miterlimit="10" stroke="rgb(0,131,125)" stroke-opacity="1" stroke-width="3.5" d=" M6.459000110626221,-4.86899995803833 C3.684000015258789,-5.49399995803833 -0.09000000357627869,-6.431000232696533 -2.744999885559082,-4.946000099182129 C-7.822999954223633,-2.1050000190734863 -4.730999946594238,6.429999828338623 1.2669999599456787,4.436999797821045 C3.819999933242798,3.5889999866485596 5.710000038146973,1.3760000467300415 7.822999954223633,-0.17599999904632568"></path></g><g opacity="1" transform="matrix(1,0,0,1,77.04299926757812,277.13800048828125)"><path stroke-linecap="butt" stroke-linejoin="miter" fill-opacity="0" stroke-miterlimit="10" stroke="rgb(0,131,125)" stroke-opacity="1" stroke-width="3.5" d=" M-1.9149999618530273,-7.2210001945495605 C-3.359999895095825,-4.770999908447266 -5.408999919891357,-1.4670000076293945 -4.809000015258789,1.5169999599456787 C-3.6619999408721924,7.2210001945495605 5.408999919891357,6.894000053405762 5.35099983215332,0.5740000009536743 C5.326000213623047,-2.117000102996826 3.7990000247955322,-4.5929999351501465 2.9700000286102295,-7.080999851226807"></path></g><g opacity="1" transform="matrix(1,0,0,1,89.15399932861328,269.7229919433594)"><path stroke-linecap="butt" stroke-linejoin="miter" fill-opacity="0" stroke-miterlimit="10" stroke="rgb(0,131,125)" stroke-opacity="1" stroke-width="3.5" d=" M-7.840000152587891,-0.38100001215934753 C-5.952000141143799,1.746000051498413 -3.434999942779541,4.709000110626221 -0.4099999964237213,5.052999973297119 C5.370999813079834,5.709000110626221 7.840000152587891,-3.0260000228881836 1.805999994277954,-4.9079999923706055 C-0.7620000243186951,-5.709000110626221 -3.5880000591278076,-5.014999866485596 -6.210000038146973,-4.98799991607666"></path></g><g opacity="1" transform="matrix(1,0,0,1,105.50800323486328,262.2309875488281)"><path stroke-linecap="butt" stroke-linejoin="miter" fill-opacity="0" stroke-miterlimit="10" stroke="rgb(0,131,125)" stroke-opacity="1" stroke-width="3.5" d=" M6.794000148773193,-6.160999774932861 C6.794000148773193,-6.160999774932861 1.0069999694824219,6.160999774932861 1.0069999694824219,6.160999774932861 C1.0069999694824219,6.160999774932861 -6.794000148773193,6.160999774932861 -6.794000148773193,6.160999774932861"></path></g><g opacity="1" transform="matrix(1,0,0,1,85.64199829101562,255.40899658203125)"><path stroke-linecap="butt" stroke-linejoin="miter" fill-opacity="0" stroke-miterlimit="10" stroke="rgb(0,131,125)" stroke-opacity="1" stroke-width="3.5" d=" M-2.9800000190734863,7.868000030517578 C-0.37599998712539673,6.7220001220703125 3.2149999141693115,5.235000133514404 4.468999862670898,2.4619998931884766 C6.866000175476074,-2.8399999141693115 -0.6909999847412109,-7.868000030517578 -4.331999778747559,-2.7009999752044678 C-5.88100004196167,-0.5019999742507935 -6.085999965667725,2.4000000953674316 -6.866000175476074,4.9039998054504395"></path></g><g opacity="1" transform="matrix(1,0,0,1,77.8270034790039,265.385009765625)"><path stroke-linecap="butt" stroke-linejoin="miter" fill-opacity="0" stroke-miterlimit="10" stroke="rgb(0,131,125)" stroke-opacity="1" stroke-width="3.5" d=" M5.410999774932861,0.06700000166893005 C5.447999954223633,-2.921999931335449 3.055999994277954,-5.374000072479248 0.06700000166893005,-5.410999774932861 C-2.921999931335449,-5.447999954223633 -5.374000072479248,-3.055000066757202 -5.410999774932861,-0.06700000166893005 C-5.447000026702881,2.921999931335449 -3.055000066757202,5.374000072479248 -0.06700000166893005,5.410999774932861 C2.921999931335449,5.447999954223633 5.374000072479248,3.055000066757202 5.410999774932861,0.06700000166893005z"></path></g></g><g transform="matrix(0.3330000042915344,0,0,0.3330000042915344,-40.324729919433594,0.48241886496543884)" opacity="1" style="display: none;"><g opacity="1" transform="matrix(1,0,0,1,208.35400390625,268.7170104980469)"><path fill="rgb(245,156,156)" fill-opacity="1" d=" M38.229000091552734,-23.239999771118164 C38.229000091552734,-23.239999771118164 -38.229000091552734,-23.239999771118164 -38.229000091552734,-23.239999771118164 C-39.91999816894531,-23.239999771118164 -41.250999450683594,-21.760000228881836 -41.01100158691406,-20.086000442504883 C-39.44499969482422,-9.170000076293945 -31.108999252319336,23.239999771118164 0,23.239999771118164 C31.110000610351562,23.239999771118164 39.444000244140625,-9.170000076293945 41.0099983215332,-20.086000442504883 C41.250999450683594,-21.760000228881836 39.92100143432617,-23.239999771118164 38.229000091552734,-23.239999771118164z"></path></g><g opacity="1" transform="matrix(1,0,0,1,251.30799865722656,260.47698974609375)"><path stroke-linecap="round" stroke-linejoin="round" fill-opacity="0" stroke="rgb(245,156,156)" stroke-opacity="1" stroke-width="5" d=" M-3.5420000553131104,-12.98799991607666 C-1.0410000085830688,-15.48799991607666 3.6110000610351562,-15.623000144958496 6.571000099182129,-13.585000038146973 C9.531000137329102,-11.54699993133545 10.723999977111816,-7.763000011444092 9.871999740600586,-4.466000080108643 C9.020000457763672,-1.1690000295639038 6.3520002365112305,1.593000054359436 3.0989999771118164,3.2160000801086426 C0.41600000858306885,4.553999900817871 -2.374000072479248,5.6479997634887695 -4.927000045776367,7.184999942779541 C-7.926000118255615,8.991999626159668 -10.723999977111816,12.593000411987305 -7.718999862670898,15.62399959564209"></path></g><g opacity="1" transform="matrix(1,0,0,1,0,0)"><path stroke-linecap="round" stroke-linejoin="round" fill-opacity="0" stroke="rgb(245,156,156)" stroke-opacity="1" stroke-width="5" d=" M177.85699462890625,291.9570007324219 C177.85699462890625,291.9570007324219 238.8509979248047,291.9570007324219 238.8509979248047,291.9570007324219"></path></g><g opacity="1" transform="matrix(1,0,0,1,225.21400451660156,263.1440124511719)"><path stroke-linecap="butt" stroke-linejoin="miter" fill-opacity="0" stroke-miterlimit="10" stroke="rgb(170,95,166)" stroke-opacity="1" stroke-width="3" d=" M6.986999988555908,12.956999778747559 C6.986999988555908,12.956999778747559 -6.986999988555908,-12.956999778747559 -6.986999988555908,-12.956999778747559"></path></g><g opacity="1" transform="matrix(1,0,0,1,225.3679962158203,265.3659973144531)"><path stroke-linecap="butt" stroke-linejoin="miter" fill-opacity="0" stroke-miterlimit="10" stroke="rgb(170,95,166)" stroke-opacity="1" stroke-width="3" d=" M-11.045999526977539,13.248000144958496 C-11.045999526977539,13.248000144958496 11.045999526977539,-13.248000144958496 11.045999526977539,-13.248000144958496"></path></g><g opacity="1" transform="matrix(1,0,0,1,224.5500030517578,264.3450012207031)"><path stroke-linecap="butt" stroke-linejoin="miter" fill-opacity="0" stroke-miterlimit="10" stroke="rgb(170,95,166)" stroke-opacity="1" stroke-width="3" d=" M-15.104999542236328,-4.046999931335449 C-15.104999542236328,-4.046999931335449 15.104999542236328,4.046999931335449 15.104999542236328,4.046999931335449"></path></g><g opacity="1" transform="matrix(1,0,0,1,190.12100219726562,265.5880126953125)"><path stroke-linecap="butt" stroke-linejoin="miter" fill-opacity="0" stroke-miterlimit="10" stroke="rgb(170,95,166)" stroke-opacity="1" stroke-width="3" d=" M-16.672000885009766,-14.623000144958496 C-16.672000885009766,-14.623000144958496 -1.3040000200271606,-10.769000053405762 -1.3040000200271606,-10.769000053405762 C-1.3040000200271606,-10.769000053405762 -7.692999839782715,0.3100000023841858 -7.692999839782715,0.3100000023841858 C-7.692999839782715,0.3100000023841858 0.8360000252723694,0.8539999723434448 0.8360000252723694,0.8539999723434448 C0.8360000252723694,0.8539999723434448 -1.3040000200271606,11.947999954223633 -1.3040000200271606,11.947999954223633 C-1.3040000200271606,11.947999954223633 16.672000885009766,14.623000144958496 16.672000885009766,14.623000144958496 C16.672000885009766,14.623000144958496 13.727999687194824,3.130000114440918 13.727999687194824,3.130000114440918"></path></g></g><g transform="matrix(0.3330000042915344,0,0,0.3330000042915344,0.5961201786994934,0.48241379857063293)" opacity="1" style="display: block;"><g opacity="1" transform="matrix(1,0,0,1,145.26199340820312,250.96600341796875)"><path fill="rgb(240,108,94)" fill-opacity="1" d=" M10.777999877929688,-46.48099899291992 C24.972000122070312,-16.288000106811523 30.608999252319336,-0.6499999761581421 30.608999252319336,15.10099983215332 C30.608999252319336,30.85099983215332 21.979000091552734,46.48099899291992 2.6679999828338623,46.48099899291992 C2.6679999828338623,46.48099899291992 -2.6659998893737793,46.48099899291992 -2.6659998893737793,46.48099899291992 C-21.979000091552734,46.48099899291992 -30.608999252319336,30.85099983215332 -30.608999252319336,15.10099983215332 C-30.608999252319336,-0.6499999761581421 -24.972000122070312,-16.288000106811523 -10.777000427246094,-46.48099899291992 C-10.777000427246094,-46.48099899291992 10.777999877929688,-46.48099899291992 10.777999877929688,-46.48099899291992z"></path></g><g opacity="1" transform="matrix(1,0,0,1,145.26300048828125,197.875)"><path fill="rgb(240,108,94)" fill-opacity="1" d=" M11.763999938964844,6.610000133514404 C11.763999938964844,-0.6909999847412109 6.497000217437744,-6.610000133514404 0,-6.610000133514404 C-6.497000217437744,-6.610000133514404 -11.763999938964844,-0.6909999847412109 -11.763999938964844,6.610000133514404 C-11.763999938964844,6.610000133514404 11.763999938964844,6.610000133514404 11.763999938964844,6.610000133514404z"></path></g><g opacity="1" transform="matrix(1,0,0,1,145.26199340820312,187.85899353027344)"><path fill="rgb(240,108,94)" fill-opacity="1" d=" M3.871000051498413,0 C3.871000051498413,-2.138000011444092 2.138000011444092,-3.871000051498413 0,-3.871000051498413 C-2.138000011444092,-3.871000051498413 -3.871000051498413,-2.138000011444092 -3.871000051498413,0 C-3.871000051498413,2.138000011444092 -2.138000011444092,3.871000051498413 0,3.871000051498413 C2.138000011444092,3.871000051498413 3.871000051498413,2.138000011444092 3.871000051498413,0z"></path></g><g opacity="1" transform="matrix(1,0,0,1,111.35299682617188,231.51100158691406)"><path fill="rgb(240,108,94)" fill-opacity="1" d=" M-0.9020000100135803,30.65399932861328 C-2.056999921798706,30.65399932861328 -3.2239999771118164,30.368999481201172 -4.310999870300293,29.797000885009766 C-6.020999908447266,28.891000747680664 -6.671000003814697,26.774999618530273 -5.76800012588501,25.065000534057617 C-4.870999813079834,23.357999801635742 -2.765000104904175,22.69499969482422 -1.0390000343322754,23.606000900268555 C-0.7540000081062317,23.576000213623047 -0.453000009059906,23.253000259399414 -0.4690000116825104,22.92799949645996 C-0.6060000061988831,20.55299949645996 -2.944000005722046,18.316999435424805 -5.197999954223633,16.152999877929688 C-5.197999954223633,16.152999877929688 -6.659999847412109,14.730999946594238 -6.659999847412109,14.730999946594238 C-10.434000015258789,10.930000305175781 -12.85099983215332,7.508999824523926 -14.512999534606934,3.634999990463257 C-18.451000213623047,-5.559000015258789 -17.854000091552734,-15.482999801635742 -12.909000396728516,-22.910999298095703 C-9.779000282287598,-27.61400032043457 -4.574999809265137,-30.488000869750977 0.9980000257492065,-30.60099983215332 C6.34499979019165,-30.655000686645508 10.904000282287598,-28.336000442504883 13.970000267028809,-24.11400032043457 C18.29800033569336,-18.134000778198242 18.45199966430664,-7.982999801635742 11.74899959564209,-2.9739999771118164 C10.192999839782715,-1.8179999589920044 8.001999855041504,-2.1429998874664307 6.8520002365112305,-3.684000015258789 C5.690999984741211,-5.232999801635742 6.01200008392334,-7.425000190734863 7.559000015258789,-8.583999633789062 C10.798999786376953,-11.003999710083008 10.61400032043457,-16.812000274658203 8.302000045776367,-20.0049991607666 C6.580999851226807,-22.378000259399414 4.296999931335449,-23.64299964904785 1.1410000324249268,-23.600000381469727 C-2.0999999046325684,-23.53700065612793 -5.250999927520752,-21.784000396728516 -7.083000183105469,-19.031999588012695 C-10.708999633789062,-13.579000473022461 -11.083000183105469,-6.136000156402588 -8.074999809265137,0.8790000081062317 C-6.7820000648498535,3.9030001163482666 -4.813000202178955,6.65500020980835 -1.6929999589920044,9.798999786376953 C-1.6929999589920044,9.798999786376953 -0.3580000102519989,11.100000381469727 -0.3580000102519989,11.100000381469727 C2.571000099182129,13.904999732971191 6.2179999351501465,17.39900016784668 6.519000053405762,22.520999908447266 C6.677000045776367,25.26799964904785 5.27400016784668,28.01300048828125 2.940999984741211,29.514999389648438 C1.7580000162124634,30.274999618530273 0.4339999854564667,30.65399932861328 -0.9020000100135803,30.65399932861328z"></path></g><g opacity="1" transform="matrix(1,0,0,1,174.28500366210938,238.76499938964844)"><path fill="rgb(240,108,94)" fill-opacity="1" d=" M-13.597000122070312,25.600000381469727 C-7.939000129699707,27.256999969482422 -1.3450000286102295,24.92300033569336 2.009999990463257,20.076000213623047 C6.797999858856201,13.159000396728516 3.4749999046325684,6.922999858856201 2.88100004196167,-0.3400000035762787 C2.4539999961853027,-5.552000045776367 2.4140000343322754,-10.720000267028809 4.557000160217285,-15.612000465393066 C7.068999767303467,-21.341999053955078 12.854999542236328,-25.969999313354492 19.097000122070312,-25.552000045776367 C19.097000122070312,-25.552000045776367 12.510000228881836,-27.257999420166016 12.510000228881836,-27.257999420166016 C9.970999717712402,-27.246999740600586 7.317999839782715,-26.222999572753906 4.74399995803833,-24.1560001373291 C-0.008999999612569809,-20.33799934387207 -1.4049999713897705,-13.293999671936035 -3.571000099182129,-7.929999828338623 C-4.947000026702881,-4.525000095367432 -6.53000020980835,-1.1050000190734863 -9.121999740600586,1.49399995803833 C-11.715999603271484,4.093999862670898 -15.524999618530273,5.750999927520752 -19.097000122070312,4.901000022888184"></path></g><g opacity="1" transform="matrix(1,0,0,1,174.22999572753906,238.1909942626953)"><path fill="rgb(240,108,94)" fill-opacity="1" d=" M-9.812000274658203,30.200000762939453 C-11.399999618530273,30.200000762939453 -12.98900032043457,29.985000610351562 -14.524999618530273,29.535999298095703 C-16.381999969482422,28.993000030517578 -17.444000244140625,27.049999237060547 -16.905000686645508,25.19499969482422 C-16.36199951171875,23.341999053955078 -14.418999671936035,22.270999908447266 -12.560999870300293,22.816999435424805 C-8.350000381469727,24.04199981689453 -3.309000015258789,22.257999420166016 -0.8180000185966492,18.660999298095703 C1.8890000581741333,14.75 1.2350000143051147,11.244999885559082 0.328000009059906,6.396999835968018 C-0.03200000151991844,4.492000102996826 -0.38999998569488525,2.5450000762939453 -0.5540000200271606,0.5230000019073486 C-0.6970000267028809,-1.2109999656677246 -0.8019999861717224,-2.9790000915527344 -0.796999990940094,-4.770999908447266 C-2.2009999752044678,-1.4620000123977661 -3.9210000038146973,1.8669999837875366 -6.585999965667725,4.539000034332275 C-10.312999725341797,8.279000282287598 -15.385000228881836,9.944000244140625 -19.856000900268555,8.878000259399414 C-21.735000610351562,8.430000305175781 -22.895999908447266,6.543000221252441 -22.44700050354004,4.660999774932861 C-21.999000549316406,2.7799999713897705 -20.1200008392334,1.6130000352859497 -18.229999542236328,2.069999933242798 C-16.150999069213867,2.558000087738037 -13.532999992370605,1.5950000286102295 -11.54800033569336,-0.4009999930858612 C-9.531999588012695,-2.421999931335449 -8.175000190734863,-5.166999816894531 -6.761000156402588,-8.670999526977539 C-6.281000137329102,-9.855999946594238 -5.8420000076293945,-11.130999565124512 -5.394000053405762,-12.434000015258789 C-3.7209999561309814,-17.266000747680664 -1.8320000171661377,-22.742000579833984 2.6019999980926514,-26.309999465942383 C5.748000144958496,-28.829999923706055 9.184000015258789,-30.167999267578125 12.550999641418457,-30.180999755859375 C12.798999786376953,-30.200000762939453 13.152999877929688,-30.148000717163086 13.442999839782715,-30.070999145507812 C13.442999839782715,-30.070999145507812 20.030000686645508,-28.365999221801758 20.030000686645508,-28.365999221801758 C21.781999588012695,-27.91200065612793 22.895999908447266,-26.20199966430664 22.611000061035156,-24.417999267578125 C22.320999145507812,-22.634000778198242 20.667999267578125,-21.39900016784668 18.92099952697754,-21.486000061035156 C14.071000099182129,-21.770999908447266 9.642999649047852,-17.785999298095703 7.816999912261963,-13.631999969482422 C6.064000129699707,-9.626999855041504 5.991000175476074,-5.307000160217285 6.422999858856201,-0.05000000074505806 C6.571000099182129,1.725000023841858 6.89300012588501,3.434000015258789 7.209000110626221,5.110000133514404 C8.192000389099121,10.369000434875488 9.3100004196167,16.33300018310547 4.940000057220459,22.64299964904785 C1.6579999923706055,27.39299964904785 -4.074999809265137,30.200000762939453 -9.812000274658203,30.200000762939453z"></path></g><g opacity="1" transform="matrix(1,0,0,1,145.26199340820312,204.48599243164062)"><path fill="rgb(240,108,94)" fill-opacity="1" d=" M11.76200008392334,3.499000072479248 C11.76200008392334,3.499000072479248 -11.76200008392334,3.499000072479248 -11.76200008392334,3.499000072479248 C-13.694000244140625,3.499000072479248 -15.26099967956543,1.934999942779541 -15.26099967956543,0.0010000000474974513 C-15.26099967956543,-1.934000015258789 -13.694000244140625,-3.499000072479248 -11.76200008392334,-3.499000072479248 C-11.76200008392334,-3.499000072479248 11.76200008392334,-3.499000072479248 11.76200008392334,-3.499000072479248 C13.694000244140625,-3.499000072479248 15.26099967956543,-1.934000015258789 15.26099967956543,0.0010000000474974513 C15.26099967956543,1.934999942779541 13.694000244140625,3.499000072479248 11.76200008392334,3.499000072479248z"></path></g></g><g transform="matrix(0.3330000042915344,0,0,0.3330000042915344,41.67999267578125,0.48241886496543884)" opacity="1" style="display: none;"><g opacity="1" transform="matrix(1,0,0,1,82.80899810791016,268.7170104980469)"><path fill="rgb(255,201,77)" fill-opacity="1" d=" M38.229000091552734,-23.239999771118164 C38.229000091552734,-23.239999771118164 -38.229000091552734,-23.239999771118164 -38.229000091552734,-23.239999771118164 C-39.91999816894531,-23.239999771118164 -41.250999450683594,-21.760000228881836 -41.01100158691406,-20.086000442504883 C-39.44499969482422,-9.170000076293945 -31.108999252319336,23.239999771118164 0,23.239999771118164 C31.110000610351562,23.239999771118164 39.444000244140625,-9.170000076293945 41.01100158691406,-20.086000442504883 C41.250999450683594,-21.760000228881836 39.92100143432617,-23.239999771118164 38.229000091552734,-23.239999771118164z"></path></g><g opacity="1" transform="matrix(1,0,0,1,125.76200103759766,260.47698974609375)"><path stroke-linecap="round" stroke-linejoin="round" fill-opacity="0" stroke="rgb(255,201,77)" stroke-opacity="1" stroke-width="5" d=" M-3.5420000553131104,-12.98799991607666 C-1.0410000085830688,-15.48799991607666 3.6110000610351562,-15.623000144958496 6.571000099182129,-13.585000038146973 C9.531000137329102,-11.54699993133545 10.723999977111816,-7.763000011444092 9.871999740600586,-4.466000080108643 C9.020000457763672,-1.1690000295639038 6.3520002365112305,1.593000054359436 3.0989999771118164,3.2160000801086426 C0.41600000858306885,4.553999900817871 -2.374000072479248,5.6479997634887695 -4.927000045776367,7.184999942779541 C-7.926000118255615,8.991999626159668 -10.723999977111816,12.593000411987305 -7.718999862670898,15.62399959564209"></path></g><g opacity="1" transform="matrix(1,0,0,1,0,0)"><path stroke-linecap="round" stroke-linejoin="round" fill-opacity="0" stroke="rgb(255,201,77)" stroke-opacity="1" stroke-width="5" d=" M52.3120002746582,291.9570007324219 C52.3120002746582,291.9570007324219 113.30500030517578,291.9570007324219 113.30500030517578,291.9570007324219"></path></g><g opacity="1" transform="matrix(1,0,0,1,70.27999877929688,255.12399291992188)"><path stroke-linecap="butt" stroke-linejoin="miter" fill-opacity="0" stroke-miterlimit="10" stroke="rgb(0,131,125)" stroke-opacity="1" stroke-width="3.5" d=" M7.0929999351501465,5.005000114440918 C6.8379998207092285,2.171999931335449 6.571000099182129,-1.7070000171661377 4.343999862670898,-3.7799999713897705 C0.08299999684095383,-7.743000030517578 -7.0929999351501465,-2.183000087738037 -3.3570001125335693,2.9149999618530273 C-1.7669999599456787,5.085999965667725 0.9179999828338623,6.205999851226807 3.0429999828338623,7.742000102996826"></path></g><g opacity="1" transform="matrix(1,0,0,1,66.2249984741211,269.0740051269531)"><path stroke-linecap="butt" stroke-linejoin="miter" fill-opacity="0" stroke-miterlimit="10" stroke="rgb(0,131,125)" stroke-opacity="1" stroke-width="3.5" d=" M6.459000110626221,-4.86899995803833 C3.684000015258789,-5.49399995803833 -0.09000000357627869,-6.431000232696533 -2.744999885559082,-4.946000099182129 C-7.822999954223633,-2.1050000190734863 -4.730999946594238,6.429999828338623 1.2669999599456787,4.436999797821045 C3.819999933242798,3.5889999866485596 5.710000038146973,1.3760000467300415 7.822999954223633,-0.17599999904632568"></path></g><g opacity="1" transform="matrix(1,0,0,1,77.04299926757812,277.13800048828125)"><path stroke-linecap="butt" stroke-linejoin="miter" fill-opacity="0" stroke-miterlimit="10" stroke="rgb(0,131,125)" stroke-opacity="1" stroke-width="3.5" d=" M-1.9149999618530273,-7.2210001945495605 C-3.359999895095825,-4.770999908447266 -5.408999919891357,-1.4670000076293945 -4.809000015258789,1.5169999599456787 C-3.6619999408721924,7.2210001945495605 5.408999919891357,6.894000053405762 5.35099983215332,0.5740000009536743 C5.326000213623047,-2.117000102996826 3.7990000247955322,-4.5929999351501465 2.9700000286102295,-7.080999851226807"></path></g><g opacity="1" transform="matrix(1,0,0,1,89.15399932861328,269.7229919433594)"><path stroke-linecap="butt" stroke-linejoin="miter" fill-opacity="0" stroke-miterlimit="10" stroke="rgb(0,131,125)" stroke-opacity="1" stroke-width="3.5" d=" M-7.840000152587891,-0.38100001215934753 C-5.952000141143799,1.746000051498413 -3.434999942779541,4.709000110626221 -0.4099999964237213,5.052999973297119 C5.370999813079834,5.709000110626221 7.840000152587891,-3.0260000228881836 1.805999994277954,-4.9079999923706055 C-0.7620000243186951,-5.709000110626221 -3.5880000591278076,-5.014999866485596 -6.210000038146973,-4.98799991607666"></path></g><g opacity="1" transform="matrix(1,0,0,1,105.50800323486328,262.2309875488281)"><path stroke-linecap="butt" stroke-linejoin="miter" fill-opacity="0" stroke-miterlimit="10" stroke="rgb(0,131,125)" stroke-opacity="1" stroke-width="3.5" d=" M6.794000148773193,-6.160999774932861 C6.794000148773193,-6.160999774932861 1.0069999694824219,6.160999774932861 1.0069999694824219,6.160999774932861 C1.0069999694824219,6.160999774932861 -6.794000148773193,6.160999774932861 -6.794000148773193,6.160999774932861"></path></g><g opacity="1" transform="matrix(1,0,0,1,85.64199829101562,255.40899658203125)"><path stroke-linecap="butt" stroke-linejoin="miter" fill-opacity="0" stroke-miterlimit="10" stroke="rgb(0,131,125)" stroke-opacity="1" stroke-width="3.5" d=" M-2.9800000190734863,7.868000030517578 C-0.37599998712539673,6.7220001220703125 3.2149999141693115,5.235000133514404 4.468999862670898,2.4619998931884766 C6.866000175476074,-2.8399999141693115 -0.6909999847412109,-7.868000030517578 -4.331999778747559,-2.7009999752044678 C-5.88100004196167,-0.5019999742507935 -6.085999965667725,2.4000000953674316 -6.866000175476074,4.9039998054504395"></path></g><g opacity="1" transform="matrix(1,0,0,1,77.8270034790039,265.385009765625)"><path stroke-linecap="butt" stroke-linejoin="miter" fill-opacity="0" stroke-miterlimit="10" stroke="rgb(0,131,125)" stroke-opacity="1" stroke-width="3.5" d=" M5.410999774932861,0.06700000166893005 C5.447999954223633,-2.921999931335449 3.055999994277954,-5.374000072479248 0.06700000166893005,-5.410999774932861 C-2.921999931335449,-5.447999954223633 -5.374000072479248,-3.055000066757202 -5.410999774932861,-0.06700000166893005 C-5.447000026702881,2.921999931335449 -3.055000066757202,5.374000072479248 -0.06700000166893005,5.410999774932861 C2.921999931335449,5.447999954223633 5.374000072479248,3.055000066757202 5.410999774932861,0.06700000166893005z"></path></g></g><g transform="matrix(0.3330000042915344,0,0,0.3330000042915344,-3.7571628093719482,0.48241886496543884)" opacity="1" style="display: block;"><g opacity="1" transform="matrix(1,0,0,1,208.35400390625,268.7170104980469)"><path fill="rgb(245,156,156)" fill-opacity="1" d=" M38.229000091552734,-23.239999771118164 C38.229000091552734,-23.239999771118164 -38.229000091552734,-23.239999771118164 -38.229000091552734,-23.239999771118164 C-39.91999816894531,-23.239999771118164 -41.250999450683594,-21.760000228881836 -41.01100158691406,-20.086000442504883 C-39.44499969482422,-9.170000076293945 -31.108999252319336,23.239999771118164 0,23.239999771118164 C31.110000610351562,23.239999771118164 39.444000244140625,-9.170000076293945 41.0099983215332,-20.086000442504883 C41.250999450683594,-21.760000228881836 39.92100143432617,-23.239999771118164 38.229000091552734,-23.239999771118164z"></path></g><g opacity="1" transform="matrix(1,0,0,1,251.30799865722656,260.47698974609375)"><path stroke-linecap="round" stroke-linejoin="round" fill-opacity="0" stroke="rgb(245,156,156)" stroke-opacity="1" stroke-width="5" d=" M-3.5420000553131104,-12.98799991607666 C-1.0410000085830688,-15.48799991607666 3.6110000610351562,-15.623000144958496 6.571000099182129,-13.585000038146973 C9.531000137329102,-11.54699993133545 10.723999977111816,-7.763000011444092 9.871999740600586,-4.466000080108643 C9.020000457763672,-1.1690000295639038 6.3520002365112305,1.593000054359436 3.0989999771118164,3.2160000801086426 C0.41600000858306885,4.553999900817871 -2.374000072479248,5.6479997634887695 -4.927000045776367,7.184999942779541 C-7.926000118255615,8.991999626159668 -10.723999977111816,12.593000411987305 -7.718999862670898,15.62399959564209"></path></g><g opacity="1" transform="matrix(1,0,0,1,0,0)"><path stroke-linecap="round" stroke-linejoin="round" fill-opacity="0" stroke="rgb(245,156,156)" stroke-opacity="1" stroke-width="5" d=" M177.85699462890625,291.9570007324219 C177.85699462890625,291.9570007324219 238.8509979248047,291.9570007324219 238.8509979248047,291.9570007324219"></path></g><g opacity="1" transform="matrix(1,0,0,1,225.21400451660156,263.1440124511719)"><path stroke-linecap="butt" stroke-linejoin="miter" fill-opacity="0" stroke-miterlimit="10" stroke="rgb(170,95,166)" stroke-opacity="1" stroke-width="3" d=" M6.986999988555908,12.956999778747559 C6.986999988555908,12.956999778747559 -6.986999988555908,-12.956999778747559 -6.986999988555908,-12.956999778747559"></path></g><g opacity="1" transform="matrix(1,0,0,1,225.3679962158203,265.3659973144531)"><path stroke-linecap="butt" stroke-linejoin="miter" fill-opacity="0" stroke-miterlimit="10" stroke="rgb(170,95,166)" stroke-opacity="1" stroke-width="3" d=" M-11.045999526977539,13.248000144958496 C-11.045999526977539,13.248000144958496 11.045999526977539,-13.248000144958496 11.045999526977539,-13.248000144958496"></path></g><g opacity="1" transform="matrix(1,0,0,1,224.5500030517578,264.3450012207031)"><path stroke-linecap="butt" stroke-linejoin="miter" fill-opacity="0" stroke-miterlimit="10" stroke="rgb(170,95,166)" stroke-opacity="1" stroke-width="3" d=" M-15.104999542236328,-4.046999931335449 C-15.104999542236328,-4.046999931335449 15.104999542236328,4.046999931335449 15.104999542236328,4.046999931335449"></path></g><g opacity="1" transform="matrix(1,0,0,1,190.12100219726562,265.5880126953125)"><path stroke-linecap="butt" stroke-linejoin="miter" fill-opacity="0" stroke-miterlimit="10" stroke="rgb(170,95,166)" stroke-opacity="1" stroke-width="3" d=" M-16.672000885009766,-14.623000144958496 C-16.672000885009766,-14.623000144958496 -1.3040000200271606,-10.769000053405762 -1.3040000200271606,-10.769000053405762 C-1.3040000200271606,-10.769000053405762 -7.692999839782715,0.3100000023841858 -7.692999839782715,0.3100000023841858 C-7.692999839782715,0.3100000023841858 0.8360000252723694,0.8539999723434448 0.8360000252723694,0.8539999723434448 C0.8360000252723694,0.8539999723434448 -1.3040000200271606,11.947999954223633 -1.3040000200271606,11.947999954223633 C-1.3040000200271606,11.947999954223633 16.672000885009766,14.623000144958496 16.672000885009766,14.623000144958496 C16.672000885009766,14.623000144958496 13.727999687194824,3.130000114440918 13.727999687194824,3.130000114440918"></path></g></g><g transform="matrix(0.3330000042915344,0,0,0.3330000042915344,0.5961201786994934,0.48241379857063293)" opacity="1" style="display: block;"><g opacity="1" transform="matrix(1,0,0,1,145.58099365234375,299.8110046386719)"><path fill="rgb(240,108,94)" fill-opacity="1" d=" M123.69599914550781,5.802999973297119 C123.69599914550781,5.802999973297119 -123.69599914550781,5.802999973297119 -123.69599914550781,5.802999973297119 C-123.69599914550781,5.802999973297119 -123.69599914550781,-5.802999973297119 -123.69599914550781,-5.802999973297119 C-123.69599914550781,-5.802999973297119 123.69599914550781,-5.802999973297119 123.69599914550781,-5.802999973297119 C123.69599914550781,-5.802999973297119 123.69599914550781,5.802999973297119 123.69599914550781,5.802999973297119z"></path></g><g opacity="1" transform="matrix(1,0,0,1,33.14899826049805,238.77499389648438)"><path fill="rgb(132,207,215)" fill-opacity="1" d=" M5.854000091552734,61.03300094604492 C5.854000091552734,61.03300094604492 -5.854000091552734,61.03300094604492 -5.854000091552734,61.03300094604492 C-5.854000091552734,61.03300094604492 -5.854000091552734,-61.03300094604492 -5.854000091552734,-61.03300094604492 C-5.854000091552734,-61.03300094604492 5.854000091552734,-61.03300094604492 5.854000091552734,-61.03300094604492 C5.854000091552734,-61.03300094604492 5.854000091552734,61.03300094604492 5.854000091552734,61.03300094604492z"></path></g><g opacity="1" transform="matrix(1,0,0,1,33.150001525878906,294.0090026855469)"><path fill="rgb(132,207,215)" fill-opacity="1" d=" M11.262999534606934,5.408999919891357 C11.262999534606934,5.408999919891357 -11.262999534606934,5.408999919891357 -11.262999534606934,5.408999919891357 C-11.262999534606934,5.408999919891357 -11.262999534606934,-5.408999919891357 -11.262999534606934,-5.408999919891357 C-11.262999534606934,-5.408999919891357 11.262999534606934,-5.408999919891357 11.262999534606934,-5.408999919891357 C11.262999534606934,-5.408999919891357 11.262999534606934,5.408999919891357 11.262999534606934,5.408999919891357z"></path></g><g opacity="1" transform="matrix(1,0,0,1,96.49099731445312,294.0090026855469)"><path fill="rgb(132,207,215)" fill-opacity="1" d=" M11.262999534606934,5.408999919891357 C11.262999534606934,5.408999919891357 -11.262999534606934,5.408999919891357 -11.262999534606934,5.408999919891357 C-11.262999534606934,5.408999919891357 -11.262999534606934,-5.408999919891357 -11.262999534606934,-5.408999919891357 C-11.262999534606934,-5.408999919891357 11.262999534606934,-5.408999919891357 11.262999534606934,-5.408999919891357 C11.262999534606934,-5.408999919891357 11.262999534606934,5.408999919891357 11.262999534606934,5.408999919891357z"></path></g><g opacity="1" transform="matrix(1,0,0,1,96.49099731445312,238.77499389648438)"><path fill="rgb(132,207,215)" fill-opacity="1" d=" M5.854000091552734,61.03300094604492 C5.854000091552734,61.03300094604492 -5.854000091552734,61.03300094604492 -5.854000091552734,61.03300094604492 C-5.854000091552734,61.03300094604492 -5.854000091552734,-61.03300094604492 -5.854000091552734,-61.03300094604492 C-5.854000091552734,-61.03300094604492 5.854000091552734,-61.03300094604492 5.854000091552734,-61.03300094604492 C5.854000091552734,-61.03300094604492 5.854000091552734,61.03300094604492 5.854000091552734,61.03300094604492z"></path></g><g opacity="1" transform="matrix(1,0,0,1,258.0140075683594,294.0090026855469)"><path fill="rgb(132,207,215)" fill-opacity="1" d=" M11.262999534606934,5.408999919891357 C11.262999534606934,5.408999919891357 -11.262999534606934,5.408999919891357 -11.262999534606934,5.408999919891357 C-11.262999534606934,5.408999919891357 -11.262999534606934,-5.408999919891357 -11.262999534606934,-5.408999919891357 C-11.262999534606934,-5.408999919891357 11.262999534606934,-5.408999919891357 11.262999534606934,-5.408999919891357 C11.262999534606934,-5.408999919891357 11.262999534606934,5.408999919891357 11.262999534606934,5.408999919891357z"></path></g><g opacity="1" transform="matrix(1,0,0,1,258.0140075683594,238.77499389648438)"><path fill="rgb(132,207,215)" fill-opacity="1" d=" M5.854000091552734,61.03300094604492 C5.854000091552734,61.03300094604492 -5.854000091552734,61.03300094604492 -5.854000091552734,61.03300094604492 C-5.854000091552734,61.03300094604492 -5.854000091552734,-61.03300094604492 -5.854000091552734,-61.03300094604492 C-5.854000091552734,-61.03300094604492 5.854000091552734,-61.03300094604492 5.854000091552734,-61.03300094604492 C5.854000091552734,-61.03300094604492 5.854000091552734,61.03300094604492 5.854000091552734,61.03300094604492z"></path></g><g opacity="1" transform="matrix(1,0,0,1,194.6719970703125,294.0090026855469)"><path fill="rgb(132,207,215)" fill-opacity="1" d=" M11.262999534606934,5.408999919891357 C11.262999534606934,5.408999919891357 -11.262999534606934,5.408999919891357 -11.262999534606934,5.408999919891357 C-11.262999534606934,5.408999919891357 -11.262999534606934,-5.408999919891357 -11.262999534606934,-5.408999919891357 C-11.262999534606934,-5.408999919891357 11.262999534606934,-5.408999919891357 11.262999534606934,-5.408999919891357 C11.262999534606934,-5.408999919891357 11.262999534606934,5.408999919891357 11.262999534606934,5.408999919891357z"></path></g><g opacity="1" transform="matrix(1,0,0,1,194.6719970703125,238.77499389648438)"><path fill="rgb(132,207,215)" fill-opacity="1" d=" M5.854000091552734,61.03300094604492 C5.854000091552734,61.03300094604492 -5.854000091552734,61.03300094604492 -5.854000091552734,61.03300094604492 C-5.854000091552734,61.03300094604492 -5.854000091552734,-61.03300094604492 -5.854000091552734,-61.03300094604492 C-5.854000091552734,-61.03300094604492 5.854000091552734,-61.03300094604492 5.854000091552734,-61.03300094604492 C5.854000091552734,-61.03300094604492 5.854000091552734,61.03300094604492 5.854000091552734,61.03300094604492z"></path></g><g opacity="1" transform="matrix(1,0,0,1,33.150001525878906,182.76100158691406)"><path fill="rgb(132,207,215)" fill-opacity="1" d=" M11.262999534606934,5.408999919891357 C11.262999534606934,5.408999919891357 -11.262999534606934,5.408999919891357 -11.262999534606934,5.408999919891357 C-11.262999534606934,5.408999919891357 -11.262999534606934,-5.408999919891357 -11.262999534606934,-5.408999919891357 C-11.262999534606934,-5.408999919891357 11.262999534606934,-5.408999919891357 11.262999534606934,-5.408999919891357 C11.262999534606934,-5.408999919891357 11.262999534606934,5.408999919891357 11.262999534606934,5.408999919891357z"></path></g><g opacity="1" transform="matrix(1,0,0,1,96.49099731445312,183.1510009765625)"><path fill="rgb(132,207,215)" fill-opacity="1" d=" M11.262999534606934,5.408999919891357 C11.262999534606934,5.408999919891357 -11.262999534606934,5.408999919891357 -11.262999534606934,5.408999919891357 C-11.262999534606934,5.408999919891357 -11.262999534606934,-5.408999919891357 -11.262999534606934,-5.408999919891357 C-11.262999534606934,-5.408999919891357 11.262999534606934,-5.408999919891357 11.262999534606934,-5.408999919891357 C11.262999534606934,-5.408999919891357 11.262999534606934,5.408999919891357 11.262999534606934,5.408999919891357z"></path></g><g opacity="1" transform="matrix(1,0,0,1,258.0140075683594,183.1510009765625)"><path fill="rgb(132,207,215)" fill-opacity="1" d=" M11.262999534606934,5.408999919891357 C11.262999534606934,5.408999919891357 -11.262999534606934,5.408999919891357 -11.262999534606934,5.408999919891357 C-11.262999534606934,5.408999919891357 -11.262999534606934,-5.408999919891357 -11.262999534606934,-5.408999919891357 C-11.262999534606934,-5.408999919891357 11.262999534606934,-5.408999919891357 11.262999534606934,-5.408999919891357 C11.262999534606934,-5.408999919891357 11.262999534606934,5.408999919891357 11.262999534606934,5.408999919891357z"></path></g><g opacity="1" transform="matrix(1,0,0,1,194.6719970703125,183.1510009765625)"><path fill="rgb(132,207,215)" fill-opacity="1" d=" M11.262999534606934,5.408999919891357 C11.262999534606934,5.408999919891357 -11.262999534606934,5.408999919891357 -11.262999534606934,5.408999919891357 C-11.262999534606934,5.408999919891357 -11.262999534606934,-5.408999919891357 -11.262999534606934,-5.408999919891357 C-11.262999534606934,-5.408999919891357 11.262999534606934,-5.408999919891357 11.262999534606934,-5.408999919891357 C11.262999534606934,-5.408999919891357 11.262999534606934,5.408999919891357 11.262999534606934,5.408999919891357z"></path></g><g opacity="1" transform="matrix(1,0,0,1,42.15800094604492,309.1549987792969)"><path fill="rgb(245,156,156)" fill-opacity="1" d=" M37.85100173950195,7.2779998779296875 C40.82500076293945,-2.121000051498413 35.683998107910156,-14.399999618530273 28.76799964904785,-21.424999237060547 C12.895999908447266,-37.54800033569336 -13.958999633789062,-32.1150016784668 -36.46099853515625,-48.2760009765625 C-38.6609992980957,-37.83599853515625 -40.82500076293945,-23.13800048828125 -40.540000915527344,-12.472000122070312 C-39.56700134277344,23.781999588012695 -3.558000087738037,48.2760009765625 30.780000686645508,32.29100036621094"></path></g><g opacity="1" transform="matrix(1,0,0,1,47.595001220703125,303.6499938964844)"><path stroke-linecap="round" stroke-linejoin="round" fill-opacity="0" stroke="rgb(141,124,142)" stroke-opacity="1" stroke-width="5" d=" M-31.97100067138672,-24.114999771118164 C-31.97100067138672,-24.114999771118164 -4.203999996185303,20.511999130249023 31.97100067138672,24.114999771118164"></path></g><g opacity="1" transform="matrix(1,0,0,1,25.097000122070312,306.1520080566406)"><path stroke-linecap="round" stroke-linejoin="round" fill-opacity="0" stroke="rgb(141,124,142)" stroke-opacity="1" stroke-width="5" d=" M-12.40999984741211,-0.8579999804496765 C-3.2109999656677246,3.5880000591278076 0.9440000057220459,-3.5880000591278076 12.40999984741211,-0.4519999921321869"></path></g><g opacity="1" transform="matrix(1,0,0,1,38.75600051879883,295.72900390625)"><path stroke-linecap="round" stroke-linejoin="round" fill-opacity="0" stroke="rgb(141,124,142)" stroke-opacity="1" stroke-width="5" d=" M-1.2489999532699585,9.970999717712402 C-4.644999980926514,0 4.644999980926514,-1.8639999628067017 2.4760000705718994,-9.970999717712402"></path></g><g opacity="1" transform="matrix(1,0,0,1,45.9900016784668,324.0740051269531)"><path stroke-linecap="round" stroke-linejoin="round" fill-opacity="0" stroke="rgb(141,124,142)" stroke-opacity="1" stroke-width="5" d=" M18.69499969482422,-0.09700000286102295 C2.4769999980926514,-7.747000217437744 -3.190000057220459,7.745999813079834 -18.69499969482422,0.9860000014305115"></path></g><g opacity="1" transform="matrix(1,0,0,1,58.941001892089844,309.8529968261719)"><path stroke-linecap="round" stroke-linejoin="round" fill-opacity="0" stroke="rgb(141,124,142)" stroke-opacity="1" stroke-width="5" d=" M5.74399995803833,14.12399959564209 C-5.74399995803833,5.460999965667725 5.74399995803833,-3.059999942779541 0.4230000078678131,-14.12399959564209"></path></g><g opacity="1" transform="matrix(1,0,0,1,118.23400115966797,347.6059875488281)"><path fill="rgb(106,189,81)" fill-opacity="1" d=" M-27.34600067138672,-15.786999702453613 C-27.34600067138672,-15.786999702453613 27.34600067138672,-15.786999702453613 27.34600067138672,-15.786999702453613 C27.34600067138672,-15.786999702453613 27.34600067138672,15.786999702453613 27.34600067138672,15.786999702453613 C27.34600067138672,15.786999702453613 -27.34600067138672,15.786999702453613 -27.34600067138672,15.786999702453613 C-27.34600067138672,15.786999702453613 -27.34600067138672,-15.786999702453613 -27.34600067138672,-15.786999702453613z"></path></g><g opacity="1" transform="matrix(1,0,0,1,90.88800048828125,331.82000732421875)"><path fill="rgb(106,189,81)" fill-opacity="1" d=" M-31.572999954223633,0 C-31.572999954223633,-17.437000274658203 -17.437999725341797,-31.573999404907227 -0.0010000000474974513,-31.573999404907227 C17.437999725341797,-31.573999404907227 31.572999954223633,-17.437000274658203 31.572999954223633,0 C31.572999954223633,17.437999725341797 17.437999725341797,31.573999404907227 -0.0010000000474974513,31.573999404907227 C-17.437999725341797,31.573999404907227 -31.572999954223633,17.437999725341797 -31.572999954223633,0z"></path></g><g opacity="1" transform="matrix(1,0,0,1,172.92799377441406,347.6059875488281)"><path fill="rgb(106,189,81)" fill-opacity="1" d=" M27.34600067138672,-15.786999702453613 C27.34600067138672,-15.786999702453613 -27.34600067138672,-15.786999702453613 -27.34600067138672,-15.786999702453613 C-27.34600067138672,-15.786999702453613 -27.34600067138672,15.786999702453613 -27.34600067138672,15.786999702453613 C-27.34600067138672,15.786999702453613 27.34600067138672,15.786999702453613 27.34600067138672,15.786999702453613 C27.34600067138672,15.786999702453613 27.34600067138672,-15.786999702453613 27.34600067138672,-15.786999702453613z"></path></g><g opacity="1" transform="matrix(1,0,0,1,200.27499389648438,331.82000732421875)"><path fill="rgb(106,189,81)" fill-opacity="1" d=" M31.573999404907227,0 C31.573999404907227,-17.437000274658203 17.437999725341797,-31.573999404907227 0,-31.573999404907227 C-17.437999725341797,-31.573999404907227 -31.573999404907227,-17.437000274658203 -31.573999404907227,0 C-31.573999404907227,17.437999725341797 -17.437999725341797,31.573999404907227 0,31.573999404907227 C17.437999725341797,31.573999404907227 31.573999404907227,17.437999725341797 31.573999404907227,0z"></path></g><g opacity="1" transform="matrix(1,0,0,1,145.58099365234375,322.25201416015625)"><path fill="rgb(106,189,81)" fill-opacity="1" d=" M-41.141998291015625,-0.0010000000474974513 C-41.141998291015625,-22.722999572753906 -22.722000122070312,-41.141998291015625 0,-41.141998291015625 C22.722000122070312,-41.141998291015625 41.141998291015625,-22.722999572753906 41.141998291015625,-0.0010000000474974513 C41.141998291015625,22.722000122070312 22.722000122070312,41.141998291015625 0,41.141998291015625 C-22.722000122070312,41.141998291015625 -41.141998291015625,22.722000122070312 -41.141998291015625,-0.0010000000474974513z"></path></g></g></g></svg>