<svg xmlns="http://www.w3.org/2000/svg" viewBox="0 0 822 565" width="822" height="565" preserveAspectRatio="xMidYMid meet" style="width: 100%; height: 100%; transform: translate3d(0px, 0px, 0px); content-visibility: visible;"><defs><clipPath id="__lottie_element_3895"><rect width="822" height="565" x="0" y="0"></rect></clipPath></defs><g clip-path="url(#__lottie_element_3895)"><g transform="matrix(5.499969959259033,0,0,5.499969959259033,447.6917419433594,-244.78323364257812)" opacity="1" style="display: block;"><g opacity="1" transform="matrix(1,0,0,1,142.2729949951172,56.92300033569336)"><path fill="rgb(193,66,60)" fill-opacity="1" d=" M-129.92100524902344,4.4039998054504395 C-125.02215576171875,2.467461585998535 -116.61246490478516,5.011076927185059 -116.61246490478516,5.011076927185059 C-116.61246490478516,5.011076927185059 -119.33053588867188,3.5714614391326904 -121.56600189208984,2.8794615268707275 C-119.39653778076172,2.5333845615386963 -116.56653594970703,3.029153823852539 -116.56653594970703,3.029153823852539 C-116.56653594970703,3.029153823852539 -124.18753814697266,-0.3730769157409668 -129.92100524902344,1.878000020980835 C-129.92100524902344,1.878000020980835 -129.92100524902344,4.4039998054504395 -129.92100524902344,4.4039998054504395z"></path></g></g><g transform="matrix(5.499969959259033,0,0,5.499969959259033,269.68878173828125,-316.07373046875)" opacity="1" style="display: block;"><g opacity="1" transform="matrix(1,0,0,1,17.44300079345703,63.553001403808594)"><path fill="rgb(17,128,195)" fill-opacity="1" d=" M-5.091000080108643,-2.2260000705718994 C-0.19215384125709534,-4.162538528442383 8.217538833618164,-1.6188461780548096 8.217538833618164,-1.6188461780548096 C8.217538833618164,-1.6188461780548096 5.50038480758667,-3.057615280151367 3.264923095703125,-3.749615430831909 C5.43430757522583,-4.095692157745361 8.263538360595703,-3.5999231338500977 8.263538360595703,-3.5999231338500977 C8.263538360595703,-3.5999231338500977 0.6424615383148193,-7.003077030181885 -5.091000080108643,-4.751999855041504 C-5.091000080108643,-4.751999855041504 -5.091000080108643,-2.2260000705718994 -5.091000080108643,-2.2260000705718994z"></path></g></g><g transform="matrix(7,0,0,7,23.326385498046875,-15.8790283203125)" opacity="1" style="display: block;"><g opacity="1" transform="matrix(1,0,0,1,0,0)"><path stroke-linecap="butt" stroke-linejoin="miter" fill-opacity="0" stroke-miterlimit="10" stroke="rgb(144,102,39)" stroke-opacity="1" stroke-width="2" d=" M14.659000396728516,65.94499969482422 C14.659000396728516,65.94499969482422 14.659000396728516,63.63100051879883 14.659000396728516,63.63100051879883"></path></g><g opacity="1" transform="matrix(1,0,0,1,29.100000381469727,36.80500030517578)"><path fill="rgb(255,238,207)" fill-opacity="1" d=" M-6.775000095367432,5.046000003814697 C-6.775000095367432,5.046000003814697 -5.453000068664551,2.7869999408721924 -5.453000068664551,-0.0010000000474974513 C-5.453000068664551,-2.7880001068115234 -6.775000095367432,-5.046000003814697 -6.775000095367432,-5.046000003814697 C-6.775000095367432,-5.046000003814697 5.452000141143799,-5.046000003814697 5.452000141143799,-5.046000003814697 C5.452000141143799,-5.046000003814697 6.775000095367432,-2.7880001068115234 6.775000095367432,-0.0010000000474974513 C6.775000095367432,2.7869999408721924 5.452000141143799,5.046000003814697 5.452000141143799,5.046000003814697 C5.452000141143799,5.046000003814697 -6.775000095367432,5.046000003814697 -6.775000095367432,5.046000003814697z"></path></g><g opacity="1" transform="matrix(1,0,0,1,17.427000045776367,48.22100067138672)"><path fill="rgb(255,238,207)" fill-opacity="1" d=" M-10.939000129699707,12.567000389099121 C-10.939000129699707,12.567000389099121 -4.335999965667725,-12.567000389099121 -4.335999965667725,-12.567000389099121 C-4.335999965667725,-12.567000389099121 10.939000129699707,0.6079999804496765 10.939000129699707,0.6079999804496765 C10.939000129699707,0.6079999804496765 10.732999801635742,12.567000389099121 10.732999801635742,12.567000389099121 C10.732999801635742,12.567000389099121 -10.939000129699707,12.567000389099121 -10.939000129699707,12.567000389099121z"></path></g><g opacity="1" transform="matrix(1,0,0,1,29.099000930786133,61.180999755859375)"><path fill="rgb(117,78,35)" fill-opacity="1" d=" M1.1690000295639038,-11.322999954223633 C1.1690000295639038,-11.322999954223633 -1.1690000295639038,-11.322999954223633 -1.1690000295639038,-11.322999954223633 C-1.1690000295639038,-11.322999954223633 -1.1690000295639038,11.322999954223633 -1.1690000295639038,11.322999954223633 C-1.1690000295639038,11.322999954223633 1.1690000295639038,11.322999954223633 1.1690000295639038,11.322999954223633 C1.1690000295639038,11.322999954223633 1.1690000295639038,-11.322999954223633 1.1690000295639038,-11.322999954223633z"></path></g><g opacity="1" transform="matrix(1,0,0,1,0,0)"><path stroke-linecap="butt" stroke-linejoin="miter" fill-opacity="0" stroke-miterlimit="10" stroke="rgb(117,78,35)" stroke-opacity="1" stroke-width="1" d=" M29.100000381469727,59.07600021362305 C29.100000381469727,59.07600021362305 29.100000381469727,28.586000442504883 29.100000381469727,28.586000442504883"></path></g><g opacity="1" transform="matrix(1,0,0,1,25.499000549316406,60.68000030517578)"><path stroke-linecap="round" stroke-linejoin="round" fill-opacity="0" stroke="rgb(144,102,39)" stroke-opacity="1" stroke-width="0.5" d=" M-3.6010000705718994,9.73900032043457 C-3.6010000705718994,9.73900032043457 3.6010000705718994,-9.73900032043457 3.6010000705718994,-9.73900032043457"></path></g><g opacity="1" transform="matrix(1,0,0,1,27.753999710083008,60.90599822998047)"><path stroke-linecap="round" stroke-linejoin="round" fill-opacity="0" stroke="rgb(144,102,39)" stroke-opacity="1" stroke-width="0.5" d=" M-1.3459999561309814,9.96500015258789 C-1.3459999561309814,9.96500015258789 1.3459999561309814,-9.96500015258789 1.3459999561309814,-9.96500015258789"></path></g><g opacity="1" transform="matrix(1,0,0,1,30.11199951171875,61.069000244140625)"><path stroke-linecap="round" stroke-linejoin="round" fill-opacity="0" stroke="rgb(144,102,39)" stroke-opacity="1" stroke-width="0.5" d=" M1.0119999647140503,10.128000259399414 C1.0119999647140503,10.128000259399414 -1.0119999647140503,-10.128000259399414 -1.0119999647140503,-10.128000259399414"></path></g><g opacity="1" transform="matrix(1,0,0,1,92.58000183105469,47.31800079345703)"><path fill="rgb(255,239,207)" fill-opacity="1" d=" M-15.897000312805176,-14.187000274658203 C-15.897000312805176,-14.187000274658203 15.897000312805176,10.817000389099121 15.897000312805176,10.817000389099121 C15.897000312805176,10.817000389099121 -4.3460001945495605,14.187000274658203 -4.3460001945495605,14.187000274658203 C-4.3460001945495605,14.187000274658203 -15.897000312805176,-14.187000274658203 -15.897000312805176,-14.187000274658203z"></path></g><g opacity="1" transform="matrix(1,0,0,1,71.1240005493164,38.43199920654297)"><path fill="rgb(255,238,207)" fill-opacity="1" d=" M-11.63700008392334,9.067999839782715 C-11.63700008392334,9.067999839782715 -10.03600025177002,5.007999897003174 -10.03600025177002,0 C-10.03600025177002,-5.008999824523926 -11.63700008392334,-9.067999839782715 -11.63700008392334,-9.067999839782715 C-11.63700008392334,-9.067999839782715 10.03499984741211,-9.067999839782715 10.03499984741211,-9.067999839782715 C10.03499984741211,-9.067999839782715 11.63700008392334,-5.008999824523926 11.63700008392334,0 C11.63700008392334,5.007999897003174 10.03499984741211,9.067999839782715 10.03499984741211,9.067999839782715 C10.03499984741211,9.067999839782715 -11.63700008392334,9.067999839782715 -11.63700008392334,9.067999839782715z"></path></g><g opacity="1" transform="matrix(1,0,0,1,71.1240005493164,21.881000518798828)"><path fill="rgb(255,238,207)" fill-opacity="1" d=" M-8.480999946594238,3.759999990463257 C-8.480999946594238,3.759999990463257 -7.497000217437744,2.0769999027252197 -7.497000217437744,0 C-7.497000217437744,-2.0759999752044678 -8.480999946594238,-3.759999990463257 -8.480999946594238,-3.759999990463257 C-8.480999946594238,-3.759999990463257 7.494999885559082,-3.759999990463257 7.494999885559082,-3.759999990463257 C7.494999885559082,-3.759999990463257 8.480999946594238,-2.0759999752044678 8.480999946594238,0 C8.480999946594238,2.0769999027252197 7.494999885559082,3.759999990463257 7.494999885559082,3.759999990463257 C7.494999885559082,3.759999990463257 -8.480999946594238,3.759999990463257 -8.480999946594238,3.759999990463257z"></path></g><g opacity="1" transform="matrix(1,0,0,1,47.48899841308594,34.242000579833984)"><path fill="rgb(255,238,207)" fill-opacity="1" d=" M-11.63700008392334,9.067999839782715 C-11.63700008392334,9.067999839782715 -10.03600025177002,5.007999897003174 -10.03600025177002,0 C-10.03600025177002,-5.008999824523926 -11.63700008392334,-9.067999839782715 -11.63700008392334,-9.067999839782715 C-11.63700008392334,-9.067999839782715 10.03499984741211,-9.067999839782715 10.03499984741211,-9.067999839782715 C10.03499984741211,-9.067999839782715 11.63700008392334,-5.008999824523926 11.63700008392334,0 C11.63700008392334,5.007999897003174 10.03499984741211,9.067999839782715 10.03499984741211,9.067999839782715 C10.03499984741211,9.067999839782715 -11.63700008392334,9.067999839782715 -11.63700008392334,9.067999839782715z"></path></g><g opacity="1" transform="matrix(1,0,0,1,47.48899841308594,17.04800033569336)"><path fill="rgb(255,238,207)" fill-opacity="1" d=" M-8.14799976348877,5.703999996185303 C-8.14799976348877,5.703999996185303 -6.827000141143799,3.1500000953674316 -6.827000141143799,0 C-6.827000141143799,-3.1500000953674316 -8.14799976348877,-5.703999996185303 -8.14799976348877,-5.703999996185303 C-8.14799976348877,-5.703999996185303 6.826000213623047,-5.703999996185303 6.826000213623047,-5.703999996185303 C6.826000213623047,-5.703999996185303 8.14799976348877,-3.1500000953674316 8.14799976348877,0 C8.14799976348877,3.1500000953674316 6.826000213623047,5.703999996185303 6.826000213623047,5.703999996185303 C6.826000213623047,5.703999996185303 -8.14799976348877,5.703999996185303 -8.14799976348877,5.703999996185303z"></path></g><g opacity="1" transform="matrix(1,0,0,1,47.48899841308594,56.097999572753906)"><path fill="rgb(255,238,207)" fill-opacity="1" d=" M-15.069999694824219,9.064000129699707 C-15.069999694824219,9.064000129699707 -13.470000267028809,5.00600004196167 -13.470000267028809,0 C-13.470000267028809,-5.00600004196167 -15.069999694824219,-9.064000129699707 -15.069999694824219,-9.064000129699707 C-15.069999694824219,-9.064000129699707 13.468999862670898,-9.064000129699707 13.468999862670898,-9.064000129699707 C13.468999862670898,-9.064000129699707 15.069999694824219,-5.00600004196167 15.069999694824219,0 C15.069999694824219,5.00600004196167 13.468999862670898,9.064000129699707 13.468999862670898,9.064000129699707 C13.468999862670898,9.064000129699707 -15.069999694824219,9.064000129699707 -15.069999694824219,9.064000129699707z"></path></g><g opacity="1" transform="matrix(1,0,0,1,44.74100112915039,58.733001708984375)"><path fill="rgb(117,78,35)" fill-opacity="1" d=" M1.1690000295639038,-14.107000350952148 C1.1690000295639038,-14.107000350952148 -1.1690000295639038,-14.107000350952148 -1.1690000295639038,-14.107000350952148 C-1.1690000295639038,-14.107000350952148 -1.1690000295639038,14.107000350952148 -1.1690000295639038,14.107000350952148 C-1.1690000295639038,14.107000350952148 1.1690000295639038,14.107000350952148 1.1690000295639038,14.107000350952148 C1.1690000295639038,14.107000350952148 1.1690000295639038,-14.107000350952148 1.1690000295639038,-14.107000350952148z"></path></g><g opacity="1" transform="matrix(1,0,0,1,0,0)"><path stroke-linecap="butt" stroke-linejoin="miter" fill-opacity="0" stroke-miterlimit="10" stroke="rgb(117,78,35)" stroke-opacity="1" stroke-width="1" d=" M44.742000579833984,59.07600021362305 C44.742000579833984,59.07600021362305 44.742000579833984,2.5 44.742000579833984,2.5"></path></g><g opacity="1" transform="matrix(1,0,0,1,41.08399963378906,58.72100067138672)"><path stroke-linecap="round" stroke-linejoin="round" fill-opacity="0" stroke="rgb(144,102,39)" stroke-opacity="1" stroke-width="0.5" d=" M-3.6659998893737793,12.467000007629395 C-3.6659998893737793,12.467000007629395 3.6659998893737793,-12.467000007629395 3.6659998893737793,-12.467000007629395"></path></g><g opacity="1" transform="matrix(1,0,0,1,43.4010009765625,58.93600082397461)"><path stroke-linecap="round" stroke-linejoin="round" fill-opacity="0" stroke="rgb(144,102,39)" stroke-opacity="1" stroke-width="0.5" d=" M-1.3489999771118164,12.680999755859375 C-1.3489999771118164,12.680999755859375 1.3489999771118164,-12.680999755859375 1.3489999771118164,-12.680999755859375"></path></g><g opacity="1" transform="matrix(1,0,0,1,48.165000915527344,58.875)"><path stroke-linecap="round" stroke-linejoin="round" fill-opacity="0" stroke="rgb(144,102,39)" stroke-opacity="1" stroke-width="0.5" d=" M-3.4140000343322754,-12.621000289916992 C-3.4140000343322754,-12.621000289916992 3.4140000343322754,12.621000289916992 3.4140000343322754,12.621000289916992"></path></g><g opacity="1" transform="matrix(1,0,0,1,45.792999267578125,58.99700164794922)"><path stroke-linecap="round" stroke-linejoin="round" fill-opacity="0" stroke="rgb(144,102,39)" stroke-opacity="1" stroke-width="0.5" d=" M1.0420000553131104,12.741999626159668 C1.0420000553131104,12.741999626159668 -1.0420000553131104,-12.741999626159668 -1.0420000553131104,-12.741999626159668"></path></g><g opacity="1" transform="matrix(1,0,0,1,71.1240005493164,57.79899978637695)"><path fill="rgb(255,238,207)" fill-opacity="1" d=" M-10.91100025177002,6.561999797821045 C-10.91100025177002,6.561999797821045 -9.751999855041504,3.625 -9.751999855041504,0.0010000000474974513 C-9.751999855041504,-3.624000072479248 -10.91100025177002,-6.561999797821045 -10.91100025177002,-6.561999797821045 C-10.91100025177002,-6.561999797821045 9.751999855041504,-6.561999797821045 9.751999855041504,-6.561999797821045 C9.751999855041504,-6.561999797821045 10.91100025177002,-3.624000072479248 10.91100025177002,0.0010000000474974513 C10.91100025177002,3.625 9.751999855041504,6.561999797821045 9.751999855041504,6.561999797821045 C9.751999855041504,6.561999797821045 -10.91100025177002,6.561999797821045 -10.91100025177002,6.561999797821045z"></path></g><g opacity="1" transform="matrix(1,0,0,1,70.40699768066406,61.180999755859375)"><path fill="rgb(117,78,35)" fill-opacity="1" d=" M1.1690000295639038,-11.322999954223633 C1.1690000295639038,-11.322999954223633 -1.1690000295639038,-11.322999954223633 -1.1690000295639038,-11.322999954223633 C-1.1690000295639038,-11.322999954223633 -1.1690000295639038,11.322999954223633 -1.1690000295639038,11.322999954223633 C-1.1690000295639038,11.322999954223633 1.1690000295639038,11.322999954223633 1.1690000295639038,11.322999954223633 C1.1690000295639038,11.322999954223633 1.1690000295639038,-11.322999954223633 1.1690000295639038,-11.322999954223633z"></path></g><g opacity="1" transform="matrix(1,0,0,1,0,0)"><path stroke-linecap="butt" stroke-linejoin="miter" fill-opacity="0" stroke-miterlimit="10" stroke="rgb(117,78,35)" stroke-opacity="1" stroke-width="1" d=" M70.40699768066406,59.07600021362305 C70.40699768066406,59.07600021362305 70.40699768066406,12.711000442504883 70.40699768066406,12.711000442504883"></path></g><g opacity="1" transform="matrix(1,0,0,1,71.25299835205078,60.763999938964844)"><path stroke-linecap="round" stroke-linejoin="round" fill-opacity="0" stroke="rgb(144,102,39)" stroke-opacity="1" stroke-width="0.5" d=" M-0.8500000238418579,-10.307000160217285 C-0.8500000238418579,-10.307000160217285 0.8500000238418579,10.307000160217285 0.8500000238418579,10.307000160217285"></path></g><g opacity="1" transform="matrix(1,0,0,1,68.91699981689453,60.99300003051758)"><path stroke-linecap="round" stroke-linejoin="round" fill-opacity="0" stroke="rgb(144,102,39)" stroke-opacity="1" stroke-width="0.5" d=" M1.4850000143051147,-10.53499984741211 C1.4850000143051147,-10.53499984741211 -1.4850000143051147,10.53499984741211 -1.4850000143051147,10.53499984741211"></path></g><g opacity="1" transform="matrix(1,0,0,1,66.55699920654297,61.0359992980957)"><path stroke-linecap="round" stroke-linejoin="round" fill-opacity="0" stroke="rgb(144,102,39)" stroke-opacity="1" stroke-width="0.5" d=" M3.8459999561309814,-10.57800006866455 C3.8459999561309814,-10.57800006866455 -3.8459999561309814,10.57800006866455 -3.8459999561309814,10.57800006866455"></path></g><g opacity="1" transform="matrix(1,0,0,1,64.26100158691406,60.946998596191406)"><path stroke-linecap="round" stroke-linejoin="round" fill-opacity="0" stroke="rgb(144,102,39)" stroke-opacity="1" stroke-width="0.5" d=" M-6.140999794006348,10.48900032043457 C-6.140999794006348,10.48900032043457 6.140999794006348,-10.48900032043457 6.140999794006348,-10.48900032043457"></path></g><g opacity="1" transform="matrix(1,0,0,1,102.68900299072266,61.625)"><path stroke-linecap="round" stroke-linejoin="round" fill-opacity="0" stroke="rgb(144,102,39)" stroke-opacity="1" stroke-width="1.029" d=" M-10.699999809265137,1.781000018119812 C-10.699999809265137,1.781000018119812 10.699999809265137,-1.781000018119812 10.699999809265137,-1.781000018119812"></path></g><g opacity="1" transform="matrix(1,0,0,1,0,0)"><path stroke-linecap="butt" stroke-linejoin="miter" fill-opacity="0" stroke-miterlimit="10" stroke="rgb(144,102,39)" stroke-opacity="1" stroke-width="2" d=" M97.19000244140625,65.05999755859375 C97.19000244140625,65.05999755859375 97.19000244140625,62.540000915527344 97.19000244140625,62.540000915527344"></path></g><g opacity="1" transform="matrix(1,0,0,1,60.08000183105469,68.06900024414062)"><path stroke-linecap="round" stroke-linejoin="miter" fill-opacity="0" stroke-miterlimit="10" stroke="rgb(113,66,56)" stroke-opacity="1" stroke-width="0.686" d=" M-10.32699966430664,0.3070000112056732 C-1.8669999837875366,0.3070000112056732 4.9670000076293945,0.04500000178813934 10.32699966430664,-0.3070000112056732"></path></g><g opacity="1" transform="matrix(1,0,0,1,0,0)"><path stroke-linecap="round" stroke-linejoin="miter" fill-opacity="0" stroke-miterlimit="10" stroke="rgb(113,66,56)" stroke-opacity="1" stroke-width="0.686" d=" M52.70399856567383,68.35800170898438 C52.70399856567383,68.35800170898438 52.70399856567383,70.7490005493164 52.70399856567383,70.7490005493164"></path></g><g opacity="1" transform="matrix(1,0,0,1,0,0)"><path stroke-linecap="round" stroke-linejoin="miter" fill-opacity="0" stroke-miterlimit="10" stroke="rgb(113,66,56)" stroke-opacity="1" stroke-width="0.686" d=" M55.654998779296875,68.33100128173828 C55.654998779296875,68.33100128173828 55.654998779296875,70.74800109863281 55.654998779296875,70.74800109863281"></path></g><g opacity="1" transform="matrix(1,0,0,1,0,0)"><path stroke-linecap="round" stroke-linejoin="miter" fill-opacity="0" stroke-miterlimit="10" stroke="rgb(113,66,56)" stroke-opacity="1" stroke-width="0.686" d=" M58.60499954223633,68.27400207519531 C58.60499954223633,68.27400207519531 58.60499954223633,70.74800109863281 58.60499954223633,70.74800109863281"></path></g><g opacity="1" transform="matrix(1,0,0,1,0,0)"><path stroke-linecap="round" stroke-linejoin="miter" fill-opacity="0" stroke-miterlimit="10" stroke="rgb(113,66,56)" stroke-opacity="1" stroke-width="0.686" d=" M61.555999755859375,68.19000244140625 C61.555999755859375,68.19000244140625 61.555999755859375,70.74800109863281 61.555999755859375,70.74800109863281"></path></g><g opacity="1" transform="matrix(1,0,0,1,0,0)"><path stroke-linecap="round" stroke-linejoin="miter" fill-opacity="0" stroke-miterlimit="10" stroke="rgb(113,66,56)" stroke-opacity="1" stroke-width="0.686" d=" M64.50599670410156,68.06900024414062 C64.50599670410156,68.06900024414062 64.50599670410156,70.7490005493164 64.50599670410156,70.7490005493164"></path></g><g opacity="1" transform="matrix(1,0,0,1,0,0)"><path stroke-linecap="round" stroke-linejoin="miter" fill-opacity="0" stroke-miterlimit="10" stroke="rgb(113,66,56)" stroke-opacity="1" stroke-width="0.686" d=" M67.45700073242188,67.93699645996094 C67.45700073242188,67.93699645996094 67.45700073242188,70.74800109863281 67.45700073242188,70.74800109863281"></path></g><g opacity="1" transform="matrix(1,0,0,1,49.75400161743164,73.32099914550781)"><path fill="rgb(255,201,77)" fill-opacity="1" d=" M36.340999603271484,-4.98199987411499 C36.340999603271484,-4.98199987411499 25.635000228881836,-2.572999954223633 0,-2.572999954223633 C-25.635000228881836,-2.572999954223633 -36.340999603271484,-4.98199987411499 -36.340999603271484,-4.98199987411499 C-36.340999603271484,-4.98199987411499 -34.28099822998047,2.572999954223633 -34.28099822998047,2.572999954223633 C-34.28099822998047,2.572999954223633 -25.635000228881836,4.98199987411499 0,4.98199987411499 C25.635000228881836,4.98199987411499 34.28099822998047,2.572999954223633 34.28099822998047,2.572999954223633 C34.28099822998047,2.572999954223633 36.340999603271484,-4.98199987411499 36.340999603271484,-4.98199987411499z"></path></g><g opacity="1" transform="matrix(1,0,0,1,51.17900085449219,78.44999694824219)"><path fill="rgb(113,66,56)" fill-opacity="1" d=" M-33.05400085449219,3.2860000133514404 C-33.05400085449219,3.2860000133514404 31.26099967956543,3.2860000133514404 31.26099967956543,3.2860000133514404 C31.26099967956543,3.2860000133514404 33.05400085449219,-3.2860000133514404 33.05400085449219,-3.2860000133514404 C33.05400085449219,-3.2860000133514404 24.209999084472656,-0.8339999914169312 -1.4249999523162842,-0.8339999914169312 C-17.357999801635742,-0.8339999914169312 -26.729000091552734,-1.7640000581741333 -31.540000915527344,-2.4679999351501465 C-31.540000915527344,-2.4679999351501465 -33.05400085449219,3.2860000133514404 -33.05400085449219,3.2860000133514404z"></path></g><g opacity="1" transform="matrix(1,0,0,1,49.75400161743164,68.35800170898438)"><path fill="rgb(113,66,56)" fill-opacity="1" d=" M20.65399932861328,-1.253000020980835 C20.65399932861328,-1.253000020980835 20.65399932861328,1.4259999990463257 20.65399932861328,1.4259999990463257 C15.295999526977539,1.781000018119812 8.461000442504883,2.0480000972747803 -0.0010000000474974513,2.0480000972747803 C-0.0010000000474974513,2.0480000972747803 -0.0010000000474974513,-0.6690000295639038 -0.0010000000474974513,-0.6690000295639038 C-25.63599967956543,-0.6690000295639038 -38.29600143432617,-3.0769999027252197 -38.29600143432617,-3.0769999027252197 C-38.29600143432617,-3.0769999027252197 -36.34199905395508,0.6690000295639038 -36.34199905395508,0.6690000295639038 C-36.34199905395508,0.6690000295639038 -25.63599967956543,3.0769999027252197 -0.0010000000474974513,3.0769999027252197 C25.635000228881836,3.0769999027252197 36.34000015258789,0.6690000295639038 36.34000015258789,0.6690000295639038 C36.34000015258789,0.6690000295639038 38.29600143432617,-3.0769999027252197 38.29600143432617,-3.0769999027252197 C38.29600143432617,-3.0769999027252197 32.444000244140625,-1.965999960899353 20.65399932861328,-1.253000020980835z"></path></g><g opacity="1" transform="matrix(1,0,0,1,20.277999877929688,41.85200119018555)"><path stroke-linecap="butt" stroke-linejoin="miter" fill-opacity="0" stroke-miterlimit="10" stroke="rgb(117,78,35)" stroke-opacity="1" stroke-width="1" d=" M8.821999549865723,7.609000205993652 C8.821999549865723,7.609000205993652 -8.821999549865723,-7.609000205993652 -8.821999549865723,-7.609000205993652"></path></g><g opacity="1" transform="matrix(1,0,0,1,90.14099884033203,65.9530029296875)"><path stroke-linecap="round" stroke-linejoin="round" fill-opacity="0" stroke="rgb(113,66,56)" stroke-opacity="1" stroke-width="2" d=" M-9.560999870300293,1.590999960899353 C-9.560999870300293,1.590999960899353 9.560999870300293,-1.590999960899353 9.560999870300293,-1.590999960899353"></path></g><g opacity="1" transform="matrix(1,0,0,1,9.996000289916992,62.854000091552734)"><path stroke-linecap="round" stroke-linejoin="round" fill-opacity="0" stroke="rgb(144,102,39)" stroke-opacity="1" stroke-width="1.029" d=" M7.423999786376953,1.2359999418258667 C7.423999786376953,1.2359999418258667 -7.423999786376953,-1.2359999418258667 -7.423999786376953,-1.2359999418258667"></path></g><g opacity="1" transform="matrix(1,0,0,1,44.742000579833984,46.255001068115234)"><path fill="rgb(144,102,39)" fill-opacity="1" d=" M2.2309999465942383,-0.7789999842643738 C2.2309999465942383,-0.7789999842643738 -2.2309999465942383,-0.7789999842643738 -2.2309999465942383,-0.7789999842643738 C-2.2309999465942383,-0.7789999842643738 -2.2309999465942383,0.7789999842643738 -2.2309999465942383,0.7789999842643738 C-2.2309999465942383,0.7789999842643738 2.2309999465942383,0.7789999842643738 2.2309999465942383,0.7789999842643738 C2.2309999465942383,0.7789999842643738 2.2309999465942383,-0.7789999842643738 2.2309999465942383,-0.7789999842643738z"></path></g><g opacity="1" transform="matrix(1,0,0,1,44.742000579833984,44.625)"><path fill="rgb(144,102,39)" fill-opacity="1" d=" M4.376999855041504,-1.315000057220459 C4.376999855041504,-1.315000057220459 -4.376999855041504,-1.315000057220459 -4.376999855041504,-1.315000057220459 C-4.376999855041504,-1.315000057220459 -4.376999855041504,1.315000057220459 -4.376999855041504,1.315000057220459 C-4.376999855041504,1.315000057220459 4.376999855041504,1.315000057220459 4.376999855041504,1.315000057220459 C4.376999855041504,1.315000057220459 4.376999855041504,-1.315000057220459 4.376999855041504,-1.315000057220459z"></path></g><g opacity="1" transform="matrix(1,0,0,1,44.74100112915039,24.381999969482422)"><path fill="rgb(144,102,39)" fill-opacity="1" d=" M1.3270000219345093,-0.7789999842643738 C1.3270000219345093,-0.7789999842643738 -1.3270000219345093,-0.7789999842643738 -1.3270000219345093,-0.7789999842643738 C-1.3270000219345093,-0.7789999842643738 -1.3270000219345093,0.7789999842643738 -1.3270000219345093,0.7789999842643738 C-1.3270000219345093,0.7789999842643738 1.3270000219345093,0.7789999842643738 1.3270000219345093,0.7789999842643738 C1.3270000219345093,0.7789999842643738 1.3270000219345093,-0.7789999842643738 1.3270000219345093,-0.7789999842643738z"></path></g><g opacity="1" transform="matrix(1,0,0,1,70.40699768066406,28.584999084472656)"><path fill="rgb(144,102,39)" fill-opacity="1" d=" M1.3270000219345093,-0.7789999842643738 C1.3270000219345093,-0.7789999842643738 -1.3270000219345093,-0.7789999842643738 -1.3270000219345093,-0.7789999842643738 C-1.3270000219345093,-0.7789999842643738 -1.3270000219345093,0.7789999842643738 -1.3270000219345093,0.7789999842643738 C-1.3270000219345093,0.7789999842643738 1.3270000219345093,0.7789999842643738 1.3270000219345093,0.7789999842643738 C1.3270000219345093,0.7789999842643738 1.3270000219345093,-0.7789999842643738 1.3270000219345093,-0.7789999842643738z"></path></g><g opacity="1" transform="matrix(1,0,0,1,70.40699768066406,26.954999923706055)"><path fill="rgb(144,102,39)" fill-opacity="1" d=" M2.6050000190734863,-1.315000057220459 C2.6050000190734863,-1.315000057220459 -2.6050000190734863,-1.315000057220459 -2.6050000190734863,-1.315000057220459 C-2.6050000190734863,-1.315000057220459 -2.6050000190734863,1.315000057220459 -2.6050000190734863,1.315000057220459 C-2.6050000190734863,1.315000057220459 2.6050000190734863,1.315000057220459 2.6050000190734863,1.315000057220459 C2.6050000190734863,1.315000057220459 2.6050000190734863,-1.315000057220459 2.6050000190734863,-1.315000057220459z"></path></g><g opacity="1" transform="matrix(1,0,0,1,70.40699768066406,50.45800018310547)"><path fill="rgb(144,102,39)" fill-opacity="1" d=" M2.2309999465942383,-0.7789999842643738 C2.2309999465942383,-0.7789999842643738 -2.2309999465942383,-0.7789999842643738 -2.2309999465942383,-0.7789999842643738 C-2.2309999465942383,-0.7789999842643738 -2.2309999465942383,0.7789999842643738 -2.2309999465942383,0.7789999842643738 C-2.2309999465942383,0.7789999842643738 2.2309999465942383,0.7789999842643738 2.2309999465942383,0.7789999842643738 C2.2309999465942383,0.7789999842643738 2.2309999465942383,-0.7789999842643738 2.2309999465942383,-0.7789999842643738z"></path></g><g opacity="1" transform="matrix(1,0,0,1,70.40799713134766,48.827999114990234)"><path fill="rgb(144,102,39)" fill-opacity="1" d=" M4.376999855041504,-1.315000057220459 C4.376999855041504,-1.315000057220459 -4.376999855041504,-1.315000057220459 -4.376999855041504,-1.315000057220459 C-4.376999855041504,-1.315000057220459 -4.376999855041504,1.315000057220459 -4.376999855041504,1.315000057220459 C-4.376999855041504,1.315000057220459 4.376999855041504,1.315000057220459 4.376999855041504,1.315000057220459 C4.376999855041504,1.315000057220459 4.376999855041504,-1.315000057220459 4.376999855041504,-1.315000057220459z"></path></g><g opacity="1" transform="matrix(1,0,0,1,29.100000381469727,50.94200134277344)"><path fill="rgb(144,102,39)" fill-opacity="1" d=" M2.2309999465942383,-0.7789999842643738 C2.2309999465942383,-0.7789999842643738 -2.2309999465942383,-0.7789999842643738 -2.2309999465942383,-0.7789999842643738 C-2.2309999465942383,-0.7789999842643738 -2.2309999465942383,0.7789999842643738 -2.2309999465942383,0.7789999842643738 C-2.2309999465942383,0.7789999842643738 2.2309999465942383,0.7789999842643738 2.2309999465942383,0.7789999842643738 C2.2309999465942383,0.7789999842643738 2.2309999465942383,-0.7789999842643738 2.2309999465942383,-0.7789999842643738z"></path></g><g opacity="1" transform="matrix(1,0,0,1,29.100000381469727,49.3120002746582)"><path fill="rgb(144,102,39)" fill-opacity="1" d=" M4.376999855041504,-1.315000057220459 C4.376999855041504,-1.315000057220459 -4.376999855041504,-1.315000057220459 -4.376999855041504,-1.315000057220459 C-4.376999855041504,-1.315000057220459 -4.376999855041504,1.315000057220459 -4.376999855041504,1.315000057220459 C-4.376999855041504,1.315000057220459 4.376999855041504,1.315000057220459 4.376999855041504,1.315000057220459 C4.376999855041504,1.315000057220459 4.376999855041504,-1.315000057220459 4.376999855041504,-1.315000057220459z"></path></g><g opacity="1" transform="matrix(1,0,0,1,87.19499969482422,71.77400207519531)"><path fill="rgb(193,66,60)" fill-opacity="1" d=" M-5.251999855041504,-2.190999984741211 C-5.251999855041504,-2.190999984741211 -5.77400016784668,-0.6389999985694885 -5.77400016784668,-0.6389999985694885 C-5.77400016784668,-0.6389999985694885 -3.1389999389648438,-1.11899995803833 -3.1389999389648438,-1.11899995803833 C-3.1389999389648438,-1.11899995803833 -3.86899995803833,1.5010000467300415 -3.86899995803833,1.5010000467300415 C-4.7270002365112305,1.7039999961853027 -5.6579999923706055,1.8940000534057617 -6.683000087738037,2.065999984741211 C-6.683000087738037,2.065999984741211 -7.421000003814697,4.263999938964844 -7.421000003814697,4.263999938964844 C1.059000015258789,3.002000093460083 6.011000156402588,0.492000013589859 7.336999893188477,-3.7239999771118164 C7.421999931335449,-3.994999885559082 7.202000141143799,-4.263999938964844 6.921000003814697,-4.2170000076293945 C6.921000003814697,-4.2170000076293945 -5.251999855041504,-2.190999984741211 -5.251999855041504,-2.190999984741211z"></path></g><g opacity="1" transform="matrix(1,0,0,1,87.19499969482422,71.77400207519531)"><path fill="rgb(135,211,235)" fill-opacity="1" d=" M-1.6369999647140503,-1.3919999599456787 C-1.6369999647140503,-1.3919999599456787 0.02800000086426735,-1.6950000524520874 0.02800000086426735,-1.6950000524520874 C0.02800000086426735,-1.6950000524520874 -0.5879999995231628,0.515999972820282 -0.5879999995231628,0.515999972820282 C-1.11899995803833,0.7179999947547913 -1.7000000476837158,0.9110000133514404 -2.3299999237060547,1.0950000286102295 C-2.3299999237060547,1.0950000286102295 -1.6369999647140503,-1.3919999599456787 -1.6369999647140503,-1.3919999599456787z"></path></g><g opacity="1" transform="matrix(1,0,0,1,87.19499969482422,71.77400207519531)"><path fill="rgb(135,211,235)" fill-opacity="1" d=" M1.0369999408721924,-0.20200000703334808 C1.0369999408721924,-0.20200000703334808 1.5290000438690186,-1.968000054359436 1.5290000438690186,-1.968000054359436 C1.5290000438690186,-1.968000054359436 3.8559999465942383,-2.3919999599456787 3.8559999465942383,-2.3919999599456787 C3.239000082015991,-1.6089999675750732 2.3369998931884766,-0.8709999918937683 1.0369999408721924,-0.20200000703334808z"></path></g><g opacity="1" transform="matrix(1,0,0,1,15.548999786376953,71.447998046875)"><path fill="rgb(193,66,60)" fill-opacity="1" d=" M-4.091000080108643,-6.168000221252441 C-4.091000080108643,-6.168000221252441 -1.2269999980926514,5.2220001220703125 -1.2269999980926514,5.2220001220703125 C-1.2269999980926514,5.2220001220703125 3.6600000858306885,6.168000221252441 3.6600000858306885,6.168000221252441 C3.6600000858306885,6.168000221252441 4.091000080108643,4.5329999923706055 4.091000080108643,4.5329999923706055 C4.091000080108643,4.5329999923706055 -0.01600000075995922,3.5290000438690186 -3.0179998874664307,-5.986999988555908 C-3.0179998874664307,-5.986999988555908 -4.091000080108643,-6.168000221252441 -4.091000080108643,-6.168000221252441z"></path></g><g opacity="1" transform="matrix(1,0,0,1,43.46900177001953,71.7040023803711)"><path fill="rgb(255,201,77)" fill-opacity="1" d=" M6.284999847412109,-0.5289999842643738 C1.1119999885559082,-0.5289999842643738 -3.443000078201294,-0.628000020980835 -7.434999942779541,-0.7850000262260437 C-7.440999984741211,-0.7450000047683716 -7.460999965667725,-0.7099999785423279 -7.4629998207092285,-0.6679999828338623 C-7.486000061035156,-0.004999999888241291 -6.9679999351501465,0.550000011920929 -6.304999828338623,0.5740000009536743 C-2.3380000591278076,0.7139999866485596 1.8969999551773071,0.7850000262260437 6.284999847412109,0.7850000262260437 C6.947999954223633,0.7850000262260437 7.486000061035156,0.24699999392032623 7.486000061035156,-0.41600000858306885 C7.486000061035156,-0.4569999873638153 7.466000080108643,-0.492000013589859 7.461999893188477,-0.5320000052452087 C7.070000171661377,-0.531000018119812 6.684999942779541,-0.5289999842643738 6.284999847412109,-0.5289999842643738z"></path></g><g opacity="1" transform="matrix(1,0,0,1,64.15399932861328,71.44200134277344)"><path fill="rgb(255,201,77)" fill-opacity="1" d=" M-7.473999977111816,-0.32899999618530273 C-7.4770002365112305,-0.289000004529953 -7.495999813079834,-0.2529999911785126 -7.494999885559082,-0.21299999952316284 C-7.480999946594238,0.44200000166893005 -6.946000099182129,0.9620000123977661 -6.295000076293945,0.9620000123977661 C-6.295000076293945,0.9620000123977661 -6.269000053405762,0.9620000123977661 -6.269000053405762,0.9620000123977661 C-1.819000005722046,0.8659999966621399 2.4200000762939453,0.6880000233650208 6.331999778747559,0.4309999942779541 C6.99399995803833,0.3880000114440918 7.495999813079834,-0.18299999833106995 7.452000141143799,-0.8460000157356262 C7.448999881744385,-0.8870000243186951 7.427999973297119,-0.921999990940094 7.421000003814697,-0.9620000123977661 C3.381999969482422,-0.6759999990463257 -1.5540000200271606,-0.43700000643730164 -7.473999977111816,-0.32899999618530273z"></path></g><g opacity="1" transform="matrix(1,0,0,1,25.714000701904297,70.84700012207031)"><path fill="rgb(255,201,77)" fill-opacity="1" d=" M-5.982999801635742,-1.1230000257492065 C-5.991000175476074,-1.0829999446868896 -6.015999794006348,-1.0499999523162842 -6.019999980926514,-1.0089999437332153 C-6.0920000076293945,-0.3499999940395355 -5.617000102996826,0.24400000274181366 -4.956999778747559,0.3160000145435333 C-1.9919999837875366,0.640999972820282 1.2970000505447388,0.9120000004768372 4.818999767303467,1.121000051498413 C4.8429999351501465,1.121999979019165 4.86899995803833,1.1230000257492065 4.892000198364258,1.1230000257492065 C5.5229997634887695,1.1230000257492065 6.052000045776367,0.6309999823570251 6.090000152587891,-0.007000000216066837 C6.0920000076293945,-0.04800000041723251 6.073999881744385,-0.08399999886751175 6.072999954223633,-0.12399999797344208 C0.9190000295639038,-0.4059999883174896 -3.062999963760376,-0.7789999842643738 -5.982999801635742,-1.1230000257492065z"></path></g><g opacity="1" transform="matrix(1,0,0,1,60.26599884033203,35.861000061035156)"><path stroke-linecap="round" stroke-linejoin="round" fill-opacity="0" stroke="rgb(144,102,39)" stroke-opacity="1" stroke-width="0.5" d=" M48.21099853515625,22.27400016784668 C48.21099853515625,22.27400016784668 53.12300109863281,23.982999801635742 53.12300109863281,23.982999801635742 C53.12300109863281,23.982999801635742 20.893999099731445,-6.498000144958496 20.893999099731445,-6.498000144958496 C20.893999099731445,-6.498000144958496 -15.52400016784668,-26.51799964904785 -15.52400016784668,-26.51799964904785 C-15.52400016784668,-26.51799964904785 -53.12300109863281,26.51799964904785 -53.12300109863281,26.51799964904785"></path></g><g opacity="1" transform="matrix(1,0,0,1,65.9520034790039,53.369998931884766)"><path stroke-linecap="round" stroke-linejoin="round" fill-opacity="0" stroke="rgb(144,102,39)" stroke-opacity="1" stroke-width="0.5" d=" M-21.209999084472656,-11.65999984741211 C-21.209999084472656,-11.65999984741211 21.209999084472656,11.65999984741211 21.209999084472656,11.65999984741211"></path></g><g opacity="1" transform="matrix(1,0,0,1,25.941999435424805,52.04399871826172)"><path stroke-linecap="round" stroke-linejoin="round" fill-opacity="0" stroke="rgb(144,102,39)" stroke-opacity="1" stroke-width="0.5" d=" M-18.798999786376953,10.335000038146973 C-18.798999786376953,10.335000038146973 18.798999786376953,-10.335000038146973 18.798999786376953,-10.335000038146973"></path></g><g opacity="1" transform="matrix(1,0,0,1,28.43899917602539,30.757999420166016)"><path stroke-linecap="round" stroke-linejoin="round" fill-opacity="0" stroke="rgb(144,102,39)" stroke-opacity="1" stroke-width="0.5" d=" M-6.11299991607666,1.0010000467300415 C-6.11299991607666,1.0010000467300415 0.6610000133514404,-1.0010000467300415 0.6610000133514404,-1.0010000467300415 C0.6610000133514404,-1.0010000467300415 6.11299991607666,1.0010000467300415 6.11299991607666,1.0010000467300415"></path></g><g opacity="1" transform="matrix(1,0,0,1,46.6879997253418,23.305999755859375)"><path stroke-linecap="round" stroke-linejoin="round" fill-opacity="0" stroke="rgb(144,102,39)" stroke-opacity="1" stroke-width="0.5" d=" M-10.836000442504883,1.8680000305175781 C-10.836000442504883,1.8680000305175781 -1.9459999799728394,-1.8680000305175781 -1.9459999799728394,-1.8680000305175781 C-1.9459999799728394,-1.8680000305175781 10.836000442504883,1.8680000305175781 10.836000442504883,1.8680000305175781"></path></g><g opacity="1" transform="matrix(1,0,0,1,44.74100112915039,22.75200080871582)"><path fill="rgb(144,102,39)" fill-opacity="1" d=" M2.6050000190734863,-1.315000057220459 C2.6050000190734863,-1.315000057220459 -2.6050000190734863,-1.315000057220459 -2.6050000190734863,-1.315000057220459 C-2.6050000190734863,-1.315000057220459 -2.6050000190734863,1.315000057220459 -2.6050000190734863,1.315000057220459 C-2.6050000190734863,1.315000057220459 2.6050000190734863,1.315000057220459 2.6050000190734863,1.315000057220459 C2.6050000190734863,1.315000057220459 2.6050000190734863,-1.315000057220459 2.6050000190734863,-1.315000057220459z"></path></g><g opacity="1" transform="matrix(1,0,0,1,22.17099952697754,67.37100219726562)"><path fill="rgb(255,201,77)" fill-opacity="1" d=" M-1.2740000486373901,3.3980000019073486 C-1.319000005722046,3.3980000019073486 -1.3650000095367432,3.3889999389648438 -1.409999966621399,3.371000051498413 C-1.5880000591278076,3.2950000762939453 -1.6710000038146973,3.0899999141693115 -1.597000002861023,2.9130001068115234 C-1.597000002861023,2.9130001068115234 0.9509999752044678,-3.13700008392334 0.9509999752044678,-3.13700008392334 C1.0269999504089355,-3.315000057220459 1.2309999465942383,-3.3980000019073486 1.409999966621399,-3.3239998817443848 C1.5880000591278076,-3.247999906539917 1.6710000038146973,-3.0429999828338623 1.597000002861023,-2.865000009536743 C1.597000002861023,-2.865000009536743 -0.9509999752044678,3.184000015258789 -0.9509999752044678,3.184000015258789 C-1.0080000162124634,3.318000078201294 -1.1380000114440918,3.3980000019073486 -1.2740000486373901,3.3980000019073486z"></path></g><g opacity="1" transform="matrix(1,0,0,1,25.983999252319336,67.73999786376953)"><path fill="rgb(255,201,77)" fill-opacity="1" d=" M-0.5770000219345093,3.4809999465942383 C-0.5979999899864197,3.4809999465942383 -0.6190000176429749,3.4790000915527344 -0.640999972820282,3.4749999046325684 C-0.8309999704360962,3.440000057220459 -0.9570000171661377,3.256999969482422 -0.921999990940094,3.068000078201294 C-0.921999990940094,3.068000078201294 0.23399999737739563,-3.1679999828338623 0.23399999737739563,-3.1679999828338623 C0.26899999380111694,-3.3589999675750732 0.45100000500679016,-3.4809999465942383 0.6420000195503235,-3.4489998817443848 C0.8320000171661377,-3.4140000343322754 0.9570000171661377,-3.2309999465942383 0.921999990940094,-3.0399999618530273 C0.921999990940094,-3.0399999618530273 -0.2329999953508377,3.194999933242798 -0.2329999953508377,3.194999933242798 C-0.26499998569488525,3.364000082015991 -0.41100001335144043,3.4809999465942383 -0.5770000219345093,3.4809999465942383z"></path></g><g opacity="1" transform="matrix(1,0,0,1,29.96299934387207,68.02100372314453)"><path fill="rgb(255,201,77)" fill-opacity="1" d=" M0.1599999964237213,3.5250000953674316 C-0.02500000037252903,3.5250000953674316 -0.1809999942779541,3.38100004196167 -0.1899999976158142,3.194000005722046 C-0.1899999976158142,3.194000005722046 -0.5090000033378601,-3.1419999599456787 -0.5090000033378601,-3.1419999599456787 C-0.5189999938011169,-3.3350000381469727 -0.3700000047683716,-3.499000072479248 -0.1770000010728836,-3.509000062942505 C-0.00800000037997961,-3.5250000953674316 0.1809999942779541,-3.371000051498413 0.1899999976158142,-3.177000045776367 C0.1899999976158142,-3.177000045776367 0.5090000033378601,3.1589999198913574 0.5090000033378601,3.1589999198913574 C0.5189999938011169,3.3519999980926514 0.3700000047683716,3.515000104904175 0.1770000010728836,3.5250000953674316 C0.1770000010728836,3.5250000953674316 0.1599999964237213,3.5250000953674316 0.1599999964237213,3.5250000953674316z"></path></g><g opacity="1" transform="matrix(1,0,0,1,37.40800094604492,68.2020034790039)"><path fill="rgb(255,201,77)" fill-opacity="1" d=" M-0.9909999966621399,3.3350000381469727 C-1.027999997138977,3.3350000381469727 -1.065000057220459,3.3310000896453857 -1.1019999980926514,3.318000078201294 C-1.284999966621399,3.256999969482422 -1.3839999437332153,3.058000087738037 -1.3229999542236328,2.874000072479248 C-1.3229999542236328,2.874000072479248 0.6589999794960022,-3.052999973297119 0.6589999794960022,-3.052999973297119 C0.7200000286102295,-3.2360000610351562 0.9179999828338623,-3.3359999656677246 1.1019999980926514,-3.2750000953674316 C1.284999966621399,-3.2139999866485596 1.3839999437332153,-3.0160000324249268 1.3229999542236328,-2.8320000171661377 C1.3229999542236328,-2.8320000171661377 -0.6589999794960022,3.0980000495910645 -0.6589999794960022,3.0980000495910645 C-0.7080000042915344,3.24399995803833 -0.8450000286102295,3.3350000381469727 -0.9909999966621399,3.3350000381469727z"></path></g><g opacity="1" transform="matrix(1,0,0,1,41.507999420166016,68.47200012207031)"><path fill="rgb(255,201,77)" fill-opacity="1" d=" M-0.4560000002384186,3.49399995803833 C-0.4729999899864197,3.49399995803833 -0.4909999966621399,3.493000030517578 -0.5080000162124634,3.490999937057495 C-0.6990000009536743,3.4630000591278076 -0.8320000171661377,3.2850000858306885 -0.8040000200271606,3.0940001010894775 C-0.8040000200271606,3.0940001010894775 0.10999999940395355,-3.1700000762939453 0.10999999940395355,-3.1700000762939453 C0.1379999965429306,-3.361999988555908 0.3109999895095825,-3.49399995803833 0.5070000290870667,-3.4660000801086426 C0.6980000138282776,-3.437999963760376 0.8309999704360962,-3.259999990463257 0.8029999732971191,-3.069000005722046 C0.8029999732971191,-3.069000005722046 -0.11100000143051147,3.194999933242798 -0.11100000143051147,3.194999933242798 C-0.13699999451637268,3.36899995803833 -0.2849999964237213,3.49399995803833 -0.4560000002384186,3.49399995803833z"></path></g><g opacity="1" transform="matrix(1,0,0,1,49.87799835205078,68.44599914550781)"><path fill="rgb(255,201,77)" fill-opacity="1" d=" M0.699999988079071,3.3989999294281006 C0.5410000085830688,3.3989999294281006 0.3959999978542328,3.2899999618530273 0.35899999737739563,3.128000020980835 C0.35899999737739563,3.128000020980835 -1.0420000553131104,-2.937000036239624 -1.0420000553131104,-2.937000036239624 C-1.0850000381469727,-3.125 -0.9670000076293945,-3.312999963760376 -0.7789999842643738,-3.3570001125335693 C-0.5910000205039978,-3.4000000953674316 -0.4020000100135803,-3.2829999923706055 -0.35899999737739563,-3.0940001010894775 C-0.35899999737739563,-3.0940001010894775 1.0399999618530273,2.9709999561309814 1.0399999618530273,2.9709999561309814 C1.0839999914169312,3.1600000858306885 0.9679999947547913,3.3480000495910645 0.7789999842643738,3.3910000324249268 C0.753000020980835,3.3970000743865967 0.7260000109672546,3.3989999294281006 0.699999988079071,3.3989999294281006z"></path></g><g opacity="1" transform="matrix(1,0,0,1,45.69900131225586,68.56600189208984)"><path fill="rgb(255,201,77)" fill-opacity="1" d=" M0.1340000033378601,3.5220000743865967 C-0.052000001072883606,3.5220000743865967 -0.2070000022649765,3.375999927520752 -0.2150000035762787,3.187000036239624 C-0.2150000035762787,3.187000036239624 -0.48399999737739563,-3.1440000534057617 -0.48399999737739563,-3.1440000534057617 C-0.492000013589859,-3.3369998931884766 -0.34299999475479126,-3.5 -0.14900000393390656,-3.507999897003174 C0.017000000923871994,-3.5220000743865967 0.2070000022649765,-3.367000102996826 0.2150000035762787,-3.1730000972747803 C0.2150000035762787,-3.1730000972747803 0.48399999737739563,3.1579999923706055 0.48399999737739563,3.1579999923706055 C0.492000013589859,3.3510000705718994 0.34200000762939453,3.5139999389648438 0.14900000393390656,3.5220000743865967 C0.14900000393390656,3.5220000743865967 0.1340000033378601,3.5220000743865967 0.1340000033378601,3.5220000743865967z"></path></g><g opacity="1" transform="matrix(1,0,0,1,70.99600219726562,67.91699981689453)"><path fill="rgb(255,201,77)" fill-opacity="1" d=" M0.10700000077486038,3.503000020980835 C-0.08100000023841858,3.503000020980835 -0.23600000143051147,3.3559999465942383 -0.24300000071525574,3.1659998893737793 C-0.24300000071525574,3.1659998893737793 -0.4560000002384186,-3.119999885559082 -0.4560000002384186,-3.119999885559082 C-0.46299999952316284,-3.312999963760376 -0.3109999895095825,-3.4760000705718994 -0.11800000071525574,-3.4820001125335693 C0.07500000298023224,-3.503999948501587 0.2370000034570694,-3.3369998931884766 0.24300000071525574,-3.1429998874664307 C0.24300000071525574,-3.1429998874664307 0.4569999873638153,3.1429998874664307 0.4569999873638153,3.1429998874664307 C0.46299999952316284,3.3359999656677246 0.31200000643730164,3.496000051498413 0.11900000274181366,3.503000020980835 C0.11900000274181366,3.503000020980835 0.10700000077486038,3.503000020980835 0.10700000077486038,3.503000020980835z"></path></g><g opacity="1" transform="matrix(1,0,0,1,67.04900360107422,68.23699951171875)"><path fill="rgb(255,201,77)" fill-opacity="1" d=" M-0.6159999966621399,3.640000104904175 C-0.6370000243186951,3.640000104904175 -0.6589999794960022,3.638000011444092 -0.6809999942779541,3.634000062942505 C-0.8709999918937683,3.5989999771118164 -0.996999979019165,3.4159998893737793 -0.9610000252723694,3.2269999980926514 C-0.9610000252723694,3.2269999980926514 0.2720000147819519,-3.321000099182129 0.2720000147819519,-3.321000099182129 C0.3070000112056732,-3.510999917984009 0.48899999260902405,-3.6410000324249268 0.6809999942779541,-3.5999999046325684 C0.8709999918937683,-3.565000057220459 0.996999979019165,-3.380000114440918 0.9610000252723694,-3.190999984741211 C0.9610000252723694,-3.190999984741211 -0.27300000190734863,3.3550000190734863 -0.27300000190734863,3.3550000190734863 C-0.30399999022483826,3.5230000019073486 -0.45100000500679016,3.640000104904175 -0.6159999966621399,3.640000104904175z"></path></g><g opacity="1" transform="matrix(1,0,0,1,63.04100036621094,68.35199737548828)"><path fill="rgb(255,201,77)" fill-opacity="1" d=" M-1.3300000429153442,3.609999895095825 C-1.3739999532699585,3.609999895095825 -1.4190000295639038,3.6019999980926514 -1.4630000591278076,3.5850000381469727 C-1.6419999599456787,3.509999990463257 -1.7269999980926514,3.305999994277954 -1.6540000438690186,3.128000020980835 C-1.6540000438690186,3.128000020980835 1.00600004196167,-3.3459999561309814 1.00600004196167,-3.3459999561309814 C1.0789999961853027,-3.5250000953674316 1.284999966621399,-3.609999895095825 1.4620000123977661,-3.5369999408721924 C1.6419999599456787,-3.4639999866485596 1.7269999980926514,-3.259000062942505 1.652999997138977,-3.0799999237060547 C1.652999997138977,-3.0799999237060547 -1.00600004196167,3.3929998874664307 -1.00600004196167,3.3929998874664307 C-1.062000036239624,3.5290000438690186 -1.1920000314712524,3.609999895095825 -1.3300000429153442,3.609999895095825z"></path></g><g opacity="1" transform="matrix(1,0,0,1,59.07400131225586,68.3239974975586)"><path fill="rgb(255,201,77)" fill-opacity="1" d=" M-1.9550000429153442,3.4609999656677246 C-2.0190000534057617,3.4609999656677246 -2.0840001106262207,3.444000005722046 -2.1429998874664307,3.4079999923706055 C-2.305999994277954,3.305000066757202 -2.3540000915527344,3.0880000591278076 -2.250999927520752,2.9240000247955322 C-2.250999927520752,2.9240000247955322 1.6579999923706055,-3.25 1.6579999923706055,-3.25 C1.7610000371932983,-3.4140000343322754 1.9780000448226929,-3.4609999656677246 2.1410000324249268,-3.3580000400543213 C2.303999900817871,-3.253999948501587 2.3540000915527344,-3.0380001068115234 2.250999927520752,-2.875 C2.250999927520752,-2.875 -1.659999966621399,3.2990000247955322 -1.659999966621399,3.2990000247955322 C-1.7269999980926514,3.4030001163482666 -1.8389999866485596,3.4609999656677246 -1.9550000429153442,3.4609999656677246z"></path></g><g opacity="1" transform="matrix(1,0,0,1,65.96299743652344,65.02200317382812)"><path fill="rgb(255,201,77)" fill-opacity="1" d=" M-4.934999942779541,0.7390000224113464 C-5.203999996185303,0.7390000224113464 -5.426000118255615,0.5260000228881836 -5.434000015258789,0.25600001215934753 C-5.442999839782715,-0.019999999552965164 -5.22599983215332,-0.25200000405311584 -4.949999809265137,-0.26100000739097595 C-1.5089999437332153,-0.36800000071525574 1.8029999732971191,-0.527999997138977 4.892000198364258,-0.7379999756813049 C5.164000034332275,-0.7400000095367432 5.406000137329102,-0.5479999780654907 5.423999786376953,-0.2720000147819519 C5.442999839782715,0.003000000026077032 5.234000205993652,0.24199999868869781 4.959000110626221,0.26100000739097595 C1.8580000400543213,0.47099998593330383 -1.465000033378601,0.6309999823570251 -4.919000148773193,0.7390000224113464 C-4.919000148773193,0.7390000224113464 -4.934999942779541,0.7390000224113464 -4.934999942779541,0.7390000224113464z"></path></g><g opacity="1" transform="matrix(1,0,0,1,43.784000396728516,65.3280029296875)"><path fill="rgb(255,201,77)" fill-opacity="1" d=" M5.394000053405762,0.6019999980926514 C5.394000053405762,0.6019999980926514 5.394000053405762,0.6019999980926514 5.394000053405762,0.6019999980926514 C1.6690000295639038,0.597000002861023 -1.9620000123977661,0.5400000214576721 -5.401000022888184,0.4309999942779541 C-5.677000045776367,0.4230000078678131 -5.894000053405762,0.19200000166893005 -5.885000228881836,-0.08399999886751175 C-5.876999855041504,-0.36000001430511475 -5.64300012588501,-0.6019999980926514 -5.369999885559082,-0.5680000185966492 C-1.940999984741211,-0.46000000834465027 1.680999994277954,-0.40299999713897705 5.394000053405762,-0.39800000190734863 C5.671000003814697,-0.39800000190734863 5.894000053405762,-0.17299999296665192 5.894000053405762,0.10199999809265137 C5.894000053405762,0.3779999911785126 5.670000076293945,0.6019999980926514 5.394000053405762,0.6019999980926514z"></path></g><g opacity="1" transform="matrix(1,0,0,1,26.621000289916992,64.60199737548828)"><path fill="rgb(255,201,77)" fill-opacity="1" d=" M3.184000015258789,0.7590000033378601 C3.1730000972747803,0.7590000033378601 3.1630001068115234,0.7590000033378601 3.1519999504089355,0.7580000162124634 C0.9240000247955322,0.6190000176429749 -1.2209999561309814,0.453000009059906 -3.2219998836517334,0.26600000262260437 C-3.496999979019165,0.23999999463558197 -3.700000047683716,-0.004000000189989805 -3.6740000247955322,-0.27900001406669617 C-3.6489999294281006,-0.5540000200271606 -3.4030001163482666,-0.7590000033378601 -3.130000114440918,-0.7300000190734863 C-1.1390000581741333,-0.5440000295639038 0.9950000047683716,-0.3790000081062317 3.2139999866485596,-0.23999999463558197 C3.489000082015991,-0.22300000488758087 3.700000047683716,0.014000000432133675 3.683000087738037,0.28999999165534973 C3.6659998893737793,0.5550000071525574 3.446000099182129,0.7590000033378601 3.184000015258789,0.7590000033378601z"></path></g><g opacity="1" transform="matrix(1,0,0,1,7.827000141143799,48.066001892089844)"><path stroke-linecap="round" stroke-linejoin="round" fill-opacity="0" stroke="rgb(144,102,39)" stroke-opacity="1" stroke-width="0.5" d=" M3.630000114440918,-13.824000358581543 C3.630000114440918,-13.824000358581543 -3.630000114440918,13.824000358581543 -3.630000114440918,13.824000358581543"></path></g><g opacity="1" transform="matrix(1,0,0,1,63.250999450683594,37.18600082397461)"><path stroke-linecap="round" stroke-linejoin="round" fill-opacity="0" stroke="rgb(144,102,39)" stroke-opacity="1" stroke-width="0.5" d=" M-23.90999984741211,-25.841999053955078 C-23.90999984741211,-25.841999053955078 -18.510000228881836,-27.8439998626709 -18.510000228881836,-27.8439998626709 C-18.510000228881836,-27.8439998626709 23.90999984741211,27.8439998626709 23.90999984741211,27.8439998626709"></path></g></g><g transform="matrix(5.929980278015137,0,0,7,120.9140396118164,533.781982421875)" opacity="1" style="display: block;"><g opacity="1" transform="matrix(1,0,0,1,7.0920000076293945,3.1659998893737793)"><path stroke-linecap="round" stroke-linejoin="round" fill-opacity="0" stroke="rgb(184,228,250)" stroke-opacity="1" stroke-width="1" d=" M-4.5920000076293945,-0.6660000085830688 C-4.5920000076293945,-0.6660000085830688 -3.563999891281128,0.6660000085830688 -2.2960000038146973,0.6660000085830688 C-1.027999997138977,0.6660000085830688 0,-0.6660000085830688 0,-0.6660000085830688 C0,-0.6660000085830688 1.027999997138977,0.6660000085830688 2.2960000038146973,0.6660000085830688 C3.563999891281128,0.6660000085830688 4.5920000076293945,-0.6660000085830688 4.5920000076293945,-0.6660000085830688"></path></g><g opacity="1" transform="matrix(1,0,0,1,16.091999053955078,3.1659998893737793)"><path stroke-linecap="round" stroke-linejoin="round" fill-opacity="0" stroke="rgb(184,228,250)" stroke-opacity="1" stroke-width="1" d=" M-4.5920000076293945,-0.6660000085830688 C-4.5920000076293945,-0.6660000085830688 -3.563999891281128,0.6660000085830688 -2.2960000038146973,0.6660000085830688 C-1.027999997138977,0.6660000085830688 0,-0.6660000085830688 0,-0.6660000085830688 C0,-0.6660000085830688 1.027999997138977,0.6660000085830688 2.2960000038146973,0.6660000085830688 C3.563999891281128,0.6660000085830688 4.5920000076293945,-0.6660000085830688 4.5920000076293945,-0.6660000085830688"></path></g><g opacity="1" transform="matrix(1,0,0,1,25.091999053955078,3.1659998893737793)"><path stroke-linecap="round" stroke-linejoin="round" fill-opacity="0" stroke="rgb(184,228,250)" stroke-opacity="1" stroke-width="1" d=" M-4.5920000076293945,-0.6660000085830688 C-4.5920000076293945,-0.6660000085830688 -3.563999891281128,0.6660000085830688 -2.2960000038146973,0.6660000085830688 C-1.027999997138977,0.6660000085830688 0,-0.6660000085830688 0,-0.6660000085830688 C0,-0.6660000085830688 1.027999997138977,0.6660000085830688 2.2960000038146973,0.6660000085830688 C3.563999891281128,0.6660000085830688 4.5920000076293945,-0.6660000085830688 4.5920000076293945,-0.6660000085830688"></path></g><g opacity="1" transform="matrix(1,0,0,1,34.09199905395508,3.1659998893737793)"><path stroke-linecap="round" stroke-linejoin="round" fill-opacity="0" stroke="rgb(184,228,250)" stroke-opacity="1" stroke-width="1" d=" M-4.5920000076293945,-0.6660000085830688 C-4.5920000076293945,-0.6660000085830688 -3.563999891281128,0.6660000085830688 -2.2960000038146973,0.6660000085830688 C-1.027999997138977,0.6660000085830688 0,-0.6660000085830688 0,-0.6660000085830688 C0,-0.6660000085830688 1.027999997138977,0.6660000085830688 2.2960000038146973,0.6660000085830688 C3.563999891281128,0.6660000085830688 4.5920000076293945,-0.6660000085830688 4.5920000076293945,-0.6660000085830688"></path></g><g opacity="1" transform="matrix(1,0,0,1,43.09199905395508,3.1659998893737793)"><path stroke-linecap="round" stroke-linejoin="round" fill-opacity="0" stroke="rgb(184,228,250)" stroke-opacity="1" stroke-width="1" d=" M-4.5920000076293945,-0.6660000085830688 C-4.5920000076293945,-0.6660000085830688 -3.563999891281128,0.6660000085830688 -2.2960000038146973,0.6660000085830688 C-1.027999997138977,0.6660000085830688 0,-0.6660000085830688 0,-0.6660000085830688 C0,-0.6660000085830688 1.027999997138977,0.6660000085830688 2.2960000038146973,0.6660000085830688 C3.563999891281128,0.6660000085830688 4.5920000076293945,-0.6660000085830688 4.5920000076293945,-0.6660000085830688"></path></g><g opacity="1" transform="matrix(1,0,0,1,52.09199905395508,3.1659998893737793)"><path stroke-linecap="round" stroke-linejoin="round" fill-opacity="0" stroke="rgb(184,228,250)" stroke-opacity="1" stroke-width="1" d=" M-4.5920000076293945,-0.6660000085830688 C-4.5920000076293945,-0.6660000085830688 -3.563999891281128,0.6660000085830688 -2.2960000038146973,0.6660000085830688 C-1.027999997138977,0.6660000085830688 0,-0.6660000085830688 0,-0.6660000085830688 C0,-0.6660000085830688 1.027999997138977,0.6660000085830688 2.2960000038146973,0.6660000085830688 C3.563999891281128,0.6660000085830688 4.5920000076293945,-0.6660000085830688 4.5920000076293945,-0.6660000085830688"></path></g><g opacity="1" transform="matrix(1,0,0,1,79.09200286865234,3.1659998893737793)"><path stroke-linecap="round" stroke-linejoin="round" fill-opacity="0" stroke="rgb(184,228,250)" stroke-opacity="1" stroke-width="1" d=" M-4.5920000076293945,-0.6660000085830688 C-4.5920000076293945,-0.6660000085830688 -3.563999891281128,0.6660000085830688 -2.2960000038146973,0.6660000085830688 C-1.027999997138977,0.6660000085830688 0,-0.6660000085830688 0,-0.6660000085830688 C0,-0.6660000085830688 1.027999997138977,0.6660000085830688 2.2960000038146973,0.6660000085830688 C3.563999891281128,0.6660000085830688 4.5920000076293945,-0.6660000085830688 4.5920000076293945,-0.6660000085830688"></path></g><g opacity="1" transform="matrix(1,0,0,1,61.09199905395508,3.1659998893737793)"><path stroke-linecap="round" stroke-linejoin="round" fill-opacity="0" stroke="rgb(184,228,250)" stroke-opacity="1" stroke-width="1" d=" M-4.5920000076293945,-0.6660000085830688 C-4.5920000076293945,-0.6660000085830688 -3.563999891281128,0.6660000085830688 -2.2960000038146973,0.6660000085830688 C-1.027999997138977,0.6660000085830688 0,-0.6660000085830688 0,-0.6660000085830688 C0,-0.6660000085830688 1.027999997138977,0.6660000085830688 2.2960000038146973,0.6660000085830688 C3.563999891281128,0.6660000085830688 4.5920000076293945,-0.6660000085830688 4.5920000076293945,-0.6660000085830688"></path></g><g opacity="1" transform="matrix(1,0,0,1,70.09200286865234,3.1659998893737793)"><path stroke-linecap="round" stroke-linejoin="round" fill-opacity="0" stroke="rgb(184,228,250)" stroke-opacity="1" stroke-width="1" d=" M-4.5920000076293945,-0.6660000085830688 C-4.5920000076293945,-0.6660000085830688 -3.563999891281128,0.6660000085830688 -2.2960000038146973,0.6660000085830688 C-1.027999997138977,0.6660000085830688 0,-0.6660000085830688 0,-0.6660000085830688 C0,-0.6660000085830688 1.027999997138977,0.6660000085830688 2.2960000038146973,0.6660000085830688 C3.563999891281128,0.6660000085830688 4.5920000076293945,-0.6660000085830688 4.5920000076293945,-0.6660000085830688"></path></g></g></g></svg>