<?xml version="1.0" encoding="UTF-8" standalone="no"?>
<!DOCTYPE svg PUBLIC "-//W3C//DTD SVG 1.1//EN" "http://www.w3.org/Graphics/SVG/1.1/DTD/svg11.dtd">
<svg width="100%" height="100%" viewBox="0 0 163 78" version="1.1" xmlns="http://www.w3.org/2000/svg" xmlns:xlink="http://www.w3.org/1999/xlink" xml:space="preserve" xmlns:serif="http://www.serif.com/" style="fill-rule:evenodd;clip-rule:evenodd;stroke-linejoin:round;stroke-miterlimit:2;">
    <g>
        <g transform="matrix(0.3333,0,0,0.3333,113.078,29.8528)">
            <g transform="matrix(1,0,0,1,76.181,49.236)">
                <rect x="-52.673" y="-11.629" width="105.346" height="23.258" style="fill:white;fill-rule:nonzero;"/>
            </g>
            <g transform="matrix(1,0,0,1,104.088,37.607)">
                <path d="M-23.259,0C-23.259,-12.846 -12.846,-23.259 0,-23.259C12.845,-23.259 23.259,-12.846 23.259,0C23.259,12.846 12.845,23.259 0,23.259C-12.846,23.259 -23.259,12.846 -23.259,0Z" style="fill:white;fill-rule:nonzero;"/>
            </g>
            <g transform="matrix(1,0,0,1,128.855,47.815)">
                <path d="M-13.05,0C-13.05,-7.208 -7.208,-13.051 -0.001,-13.051C7.207,-13.051 13.05,-7.208 13.05,0C13.05,7.208 7.207,13.051 -0.001,13.051C-7.208,13.051 -13.05,7.208 -13.05,0Z" style="fill:white;fill-rule:nonzero;"/>
            </g>
            <g transform="matrix(1,0,0,1,23.509,37.607)">
                <path d="M-23.259,0C-23.259,-12.846 -12.846,-23.259 0,-23.259C12.845,-23.259 23.259,-12.846 23.259,0C23.259,12.846 12.845,23.259 0,23.259C-12.846,23.259 -23.259,12.846 -23.259,0Z" style="fill:white;fill-rule:nonzero;"/>
            </g>
            <g transform="matrix(1,0,0,1,63.798,30.558)">
                <path d="M-30.307,0C-30.307,-16.738 -16.739,-30.307 0,-30.307C16.738,-30.307 30.307,-16.738 30.307,0C30.307,16.738 16.738,30.307 0,30.307C-16.739,30.307 -30.307,16.738 -30.307,0Z" style="fill:white;fill-rule:nonzero;"/>
            </g>
        </g>
        <g transform="matrix(0.3333,0,0,0.3333,12.4842,12.655)">
            <g transform="matrix(1,0,0,1,65.974,49.235)">
                <rect x="-52.673" y="-11.629" width="105.346" height="23.258" style="fill:white;fill-rule:nonzero;"/>
            </g>
            <g transform="matrix(1,0,0,1,38.068,37.606)">
                <path d="M23.259,0C23.259,-12.846 12.845,-23.259 0,-23.259C-12.845,-23.259 -23.259,-12.846 -23.259,0C-23.259,12.845 -12.845,23.259 0,23.259C12.845,23.259 23.259,12.845 23.259,0Z" style="fill:white;fill-rule:nonzero;"/>
            </g>
            <g transform="matrix(1,0,0,1,13.3,47.814)">
                <path d="M13.051,0C13.051,-7.208 7.207,-13.051 0,-13.051C-7.208,-13.051 -13.051,-7.208 -13.051,0C-13.051,7.208 -7.208,13.051 0,13.051C7.207,13.051 13.051,7.208 13.051,0Z" style="fill:white;fill-rule:nonzero;"/>
            </g>
            <g transform="matrix(1,0,0,1,118.647,37.606)">
                <path d="M23.259,0C23.259,-12.846 12.845,-23.259 0,-23.259C-12.845,-23.259 -23.259,-12.846 -23.259,0C-23.259,12.845 -12.845,23.259 0,23.259C12.845,23.259 23.259,12.845 23.259,0Z" style="fill:white;fill-rule:nonzero;"/>
            </g>
            <g transform="matrix(1,0,0,1,78.357,30.558)">
                <path d="M30.308,-0.001C30.308,-16.739 16.739,-30.307 0.001,-30.307C-16.737,-30.307 -30.308,-16.739 -30.308,-0.001C-30.308,16.737 -16.737,30.307 0.001,30.307C16.739,30.307 30.308,16.737 30.308,-0.001Z" style="fill:white;fill-rule:nonzero;"/>
            </g>
        </g>
        <g transform="matrix(0.3333,0,0,0.3333,-33.4052,0.170551)">
            <g transform="matrix(1,0,0,1,505.712,88.524)">
                <path d="M-80.754,-78.804L-80.754,-20.73L77.434,78.804L80.754,73.527L-74.519,-24.174L-74.519,-78.804L-80.754,-78.804Z" style="fill:rgb(235,230,204);fill-rule:nonzero;"/>
            </g>
            <g transform="matrix(1,0,0,1,183.752,88.524)">
                <path d="M74.52,-78.804L74.52,-24.174L-80.755,73.527L-77.433,78.804L80.755,-20.73L80.755,-78.804L74.52,-78.804Z" style="fill:rgb(235,230,204);fill-rule:nonzero;"/>
            </g>
            <g transform="matrix(1,0,0,1,344.731,115.381)">
                <path d="M83.343,-49.308L-83.343,-49.308L-240.074,49.308L240.073,49.308L83.343,-49.308Z" style="fill:rgb(17,128,195);fill-rule:nonzero;"/>
            </g>
            <g transform="matrix(1,0,0,1,203.976,115.381)">
                <path d="M99.318,-49.309L57.413,-49.309L-99.318,49.309L36.915,49.309L99.318,-49.309Z" style="fill:rgb(0,109,183);fill-rule:nonzero;"/>
            </g>
            <g transform="matrix(1,0,0,1,485.488,115.381)">
                <path d="M-99.318,-49.309L-57.413,-49.309L99.318,49.309L-36.915,49.309L-99.318,-49.309Z" style="fill:rgb(0,109,183);fill-rule:nonzero;"/>
            </g>
            <g transform="matrix(1,0,0,1,344.732,34.776)">
                <path d="M83.343,31.296L-83.343,31.296L-83.343,-25.056L-41.438,-31.296L41.439,-31.296L83.343,-25.056L83.343,31.296Z" style="fill:rgb(0,109,183);fill-rule:nonzero;"/>
            </g>
            <g transform="matrix(1,0,0,1,344.733,34.776)">
                <rect x="-41.438" y="-31.296" width="82.876" height="62.592" style="fill:rgb(17,128,195);fill-rule:nonzero;"/>
            </g>
            <g transform="matrix(1,0,0,1,344.732,34.734)">
                <path d="M80.381,-25.984L64.69,21.925L44.358,-32.348C43.946,-33.447 42.956,-34.219 41.79,-34.352C40.624,-34.484 39.486,-33.954 38.838,-32.975L0.001,25.691L-38.839,-32.975C-39.487,-33.954 -40.623,-34.484 -41.789,-34.352C-42.955,-34.219 -43.945,-33.447 -44.357,-32.348L-64.69,21.925L-80.379,-25.984C-80.915,-27.621 -82.677,-28.512 -84.314,-27.977C-85.95,-27.441 -86.841,-25.68 -86.305,-24.044L-67.85,32.309C-67.437,33.571 -66.279,34.428 -64.952,34.455C-63.624,34.484 -62.432,33.675 -61.967,32.433L-40.663,-24.436L-2.6,33.06C-2.025,33.929 -1.042,34.456 0.001,34.456C1.043,34.456 2.025,33.929 2.6,33.06L40.664,-24.436L61.967,32.433C62.432,33.676 63.625,34.484 64.952,34.455C66.279,34.428 67.437,33.571 67.85,32.309L86.306,-24.044C86.841,-25.68 85.95,-27.441 84.314,-27.977C82.678,-28.512 80.917,-27.621 80.381,-25.984Z" style="fill:rgb(235,230,204);fill-rule:nonzero;"/>
            </g>
            <g transform="matrix(1,0,0,1,192.163,115.48)">
                <path d="M51.627,50.354L90.582,-48.262C91.066,-49.488 90.725,-50.891 89.731,-51.757C88.738,-52.624 87.301,-52.77 86.153,-52.124L-89.034,46.493C-90.535,47.337 -91.066,49.238 -90.222,50.739C-89.377,52.239 -87.476,52.771 -85.976,51.926L81.554,-42.38L45.828,48.064C45.195,49.666 45.981,51.477 47.582,52.109C49.183,52.742 50.995,51.956 51.627,50.354Z" style="fill:rgb(235,230,204);fill-rule:nonzero;"/>
            </g>
            <g transform="matrix(1,0,0,1,344.732,115.404)">
                <path d="M105.988,47.025L2.147,-51.592C0.946,-52.732 -0.947,-52.732 -2.147,-51.592L-105.989,47.025C-107.237,48.211 -107.288,50.184 -106.103,51.433C-104.917,52.681 -102.944,52.732 -101.695,51.546L0,-45.032L101.695,51.546C102.943,52.732 104.916,52.681 106.102,51.433C107.288,50.184 107.237,48.211 105.988,47.025Z" style="fill:rgb(235,230,204);fill-rule:nonzero;"/>
            </g>
            <g transform="matrix(1,0,0,1,497.301,115.48)">
                <path d="M89.034,46.492L-86.153,-52.125C-87.301,-52.771 -88.738,-52.624 -89.731,-51.758C-90.725,-50.891 -91.066,-49.488 -90.582,-48.262L-51.627,50.354C-50.994,51.955 -49.183,52.741 -47.582,52.108C-45.981,51.476 -45.195,49.665 -45.828,48.063L-81.554,-42.38L85.975,51.926C87.476,52.77 89.377,52.239 90.221,50.738C91.066,49.238 90.534,47.337 89.034,46.492Z" style="fill:rgb(235,230,204);fill-rule:nonzero;"/>
            </g>
            <g transform="matrix(1,0,0,1,344.732,150.602)">
                <rect x="-220.804" y="-1" width="441.608" height="2" style="fill:rgb(235,230,204);fill-rule:nonzero;"/>
            </g>
            <g transform="matrix(1,0,0,1,344.732,136.513)">
                <path d="M-198.414,1L198.414,1L198.414,-1L-198.414,-1" style="fill:rgb(235,230,204);fill-rule:nonzero;"/>
            </g>
            <g transform="matrix(1,0,0,1,344.732,122.425)">
                <path d="M-176.023,1L176.023,1L176.023,-1L-176.023,-1" style="fill:rgb(235,230,204);fill-rule:nonzero;"/>
            </g>
            <g transform="matrix(1,0,0,1,344.732,108.337)">
                <path d="M-153.633,1L153.633,1L153.633,-1L-153.633,-1" style="fill:rgb(235,230,204);fill-rule:nonzero;"/>
            </g>
            <g transform="matrix(1,0,0,1,236.704,84.487)">
                <path d="M65.59,-81.007L65.59,-18.919L-67.59,79.398L-66.403,81.007L67.59,-17.91L67.59,-81.007L65.59,-81.007Z" style="fill:rgb(235,230,204);fill-rule:nonzero;"/>
            </g>
            <g transform="matrix(1,0,0,1,344.732,80.161)">
                <path d="M-108.853,1L108.853,1L108.853,-1L-108.853,-1" style="fill:rgb(235,230,204);fill-rule:nonzero;"/>
            </g>
            <g transform="matrix(1,0,0,1,344.732,66.073)">
                <path d="M-86.463,1L86.463,1L86.463,-1L-86.463,-1" style="fill:rgb(235,230,204);fill-rule:nonzero;"/>
            </g>
            <g transform="matrix(1,0,0,1,344.732,51.984)">
                <path d="M-85.215,1L85.215,1L85.215,-1L-85.215,-1" style="fill:rgb(235,230,204);fill-rule:nonzero;"/>
            </g>
            <g transform="matrix(1,0,0,1,344.732,37.896)">
                <path d="M-85.215,1L85.215,1L85.215,-1L-85.215,-1" style="fill:rgb(235,230,204);fill-rule:nonzero;"/>
            </g>
            <g transform="matrix(1,0,0,1,344.732,22.247)">
                <path d="M-85.143,2.559L-41.401,-0.559L41.401,-0.559L85.145,2.559L85.286,0.564L41.475,-2.559L-41.475,-2.559L-85.286,0.564L-85.143,2.559Z" style="fill:rgb(235,230,204);fill-rule:nonzero;"/>
            </g>
            <g transform="matrix(1,0,0,1,344.732,6.595)">
                <path d="M-85.074,4.115L-41.366,-2.115L41.365,-2.115L85.074,4.115L85.356,2.136L41.51,-4.115L-41.509,-4.115L-85.356,2.135L-85.074,4.115Z" style="fill:rgb(235,230,204);fill-rule:nonzero;"/>
            </g>
            <g transform="matrix(1,0,0,1,344.732,84.085)">
                <rect x="-1" y="-80.604" width="2" height="161.208" style="fill:rgb(235,230,204);fill-rule:nonzero;"/>
            </g>
            <g transform="matrix(1,0,0,1,323.974,84.279)">
                <path d="M-21.679,-80.799L-21.679,-18.004L19.837,80.799L21.679,80.024L-19.681,-18.407L-19.681,-80.799L-21.679,-80.799Z" style="fill:rgb(235,230,204);fill-rule:nonzero;"/>
            </g>
            <g transform="matrix(1,0,0,1,365.723,84.279)">
                <path d="M19.68,-80.799L19.68,-18.407L-21.68,80.024L-19.836,80.799L21.68,-18.004L21.68,-80.799L19.68,-80.799Z" style="fill:rgb(235,230,204);fill-rule:nonzero;"/>
            </g>
            <g transform="matrix(1,0,0,1,452.76,84.487)">
                <path d="M-67.59,-81.007L-67.59,-17.91L66.403,81.007L67.59,79.398L-65.59,-18.919L-65.59,-81.007L-67.59,-81.007Z" style="fill:rgb(235,230,204);fill-rule:nonzero;"/>
            </g>
            <g transform="matrix(1,0,0,1,344.732,129.233)">
                <path d="M175.874,34.928L131.798,-35.984L-131.8,-35.984L-175.874,34.928L-174.175,35.984L-130.688,-33.984L130.687,-33.984L174.174,35.984L175.874,34.928Z" style="fill:rgb(235,230,204);fill-rule:nonzero;"/>
            </g>
        </g>
        <g transform="matrix(0.3333,0,0,0.3333,44.6097,48.2571)">
            <g transform="matrix(1,0,0,1,58.316,65.338)">
                <rect x="-46.536" y="-10.274" width="93.072" height="20.548" style="fill:white;fill-rule:nonzero;"/>
            </g>
            <g transform="matrix(1,0,0,1,33.661,55.064)">
                <path d="M20.549,0C20.549,-11.349 11.349,-20.549 0,-20.549C-11.349,-20.549 -20.549,-11.349 -20.549,0C-20.549,11.349 -11.349,20.549 0,20.549C11.349,20.549 20.549,11.349 20.549,0Z" style="fill:white;fill-rule:nonzero;"/>
            </g>
            <g transform="matrix(1,0,0,1,11.78,64.083)">
                <path d="M11.53,0C11.53,-6.368 6.368,-11.53 0,-11.53C-6.368,-11.53 -11.53,-6.368 -11.53,0C-11.53,6.368 -6.368,11.53 0,11.53C6.368,11.53 11.53,6.368 11.53,0Z" style="fill:white;fill-rule:nonzero;"/>
            </g>
            <g transform="matrix(1,0,0,1,104.853,55.064)">
                <path d="M20.549,0C20.549,-11.349 11.349,-20.549 0,-20.549C-11.349,-20.549 -20.549,-11.349 -20.549,0C-20.549,11.349 -11.349,20.549 0,20.549C11.349,20.549 20.549,11.349 20.549,0Z" style="fill:white;fill-rule:nonzero;"/>
            </g>
            <g transform="matrix(1,0,0,1,69.257,48.836)">
                <path d="M26.777,0C26.777,-14.788 14.789,-26.776 0.001,-26.776C-14.788,-26.776 -26.777,-14.788 -26.777,0C-26.777,14.788 -14.788,26.776 0.001,26.776C14.789,26.776 26.777,14.788 26.777,0Z" style="fill:white;fill-rule:nonzero;"/>
            </g>
            <g transform="matrix(1,0,0,1,153.593,76.996)">
                <rect x="-52.833" y="-11.665" width="105.666" height="23.33" style="fill:white;fill-rule:nonzero;"/>
            </g>
            <g transform="matrix(1,0,0,1,181.584,65.332)">
                <path d="M-23.33,0C-23.33,-12.884 -12.885,-23.33 0,-23.33C12.884,-23.33 23.33,-12.884 23.33,0C23.33,12.885 12.884,23.33 0,23.33C-12.885,23.33 -23.33,12.885 -23.33,0Z" style="fill:white;fill-rule:nonzero;"/>
            </g>
            <g transform="matrix(1,0,0,1,206.426,75.571)">
                <path d="M-13.09,0C-13.09,-7.229 -7.229,-13.09 0,-13.09C7.23,-13.09 13.09,-7.229 13.09,0C13.09,7.229 7.23,13.09 0,13.09C-7.229,13.09 -13.09,7.229 -13.09,0Z" style="fill:white;fill-rule:nonzero;"/>
            </g>
            <g transform="matrix(1,0,0,1,100.759,65.332)">
                <path d="M-23.33,0C-23.33,-12.884 -12.885,-23.33 0,-23.33C12.885,-23.33 23.33,-12.884 23.33,0C23.33,12.885 12.885,23.33 0,23.33C-12.885,23.33 -23.33,12.885 -23.33,0Z" style="fill:white;fill-rule:nonzero;"/>
            </g>
            <g transform="matrix(1,0,0,1,141.171,58.262)">
                <path d="M-30.4,0C-30.4,-16.79 -16.79,-30.4 0,-30.4C16.789,-30.4 30.4,-16.79 30.4,0C30.4,16.79 16.789,30.4 0,30.4C-16.79,30.4 -30.4,16.79 -30.4,0Z" style="fill:white;fill-rule:nonzero;"/>
            </g>
            <g transform="matrix(1,0,0,1,118.445,49.144)">
                <path d="M73.785,-14.259C57.399,-27.643 36.706,-35.014 15.517,-35.014C-26.698,-35.014 -63.435,-6.473 -73.818,34.391L-73.977,35.014L-55.582,35.014L-55.479,34.649C-45.474,-0.76 -12.775,-25.491 24.041,-25.491C41.808,-25.491 58.745,-19.928 73.022,-9.405L73.784,-8.843L73.977,-14.102L73.785,-14.259Z" style="fill:rgb(250,175,58);fill-rule:nonzero;"/>
            </g>
            <g transform="matrix(1,0,0,1,36.265,50.392)">
                <path d="M8.853,-9.263C8.307,-10.081 7.505,-10.687 6.448,-11.08C5.391,-11.471 4.367,-11.668 3.377,-11.668C2.798,-11.668 2.182,-11.599 1.535,-11.464C0.887,-11.327 0.281,-11.113 -0.28,-10.824C-0.844,-10.533 -1.33,-10.149 -1.74,-9.673C-2.149,-9.194 -2.405,-8.614 -2.507,-7.932C-2.609,-7.114 -2.465,-6.439 -2.072,-5.91C-1.68,-5.382 -1.118,-4.939 -0.384,-4.58C0.349,-4.222 1.203,-3.907 2.174,-3.634C3.148,-3.36 4.127,-3.053 5.117,-2.712C6.106,-2.371 7.07,-1.962 8.009,-1.485C8.947,-1.006 9.756,-0.401 10.44,0.332C11.122,1.066 11.625,1.987 11.949,3.096C12.273,4.204 12.315,5.544 12.077,7.113C11.803,9.126 11.182,10.883 10.21,12.384C9.237,13.885 8.043,15.131 6.628,16.119C5.21,17.11 3.625,17.842 1.868,18.32C0.111,18.797 -1.706,19.037 -3.583,19.037C-5.936,19.037 -8.068,18.678 -9.98,17.961C-11.891,17.246 -13.612,16.086 -15.147,14.482L-8.546,8.238C-7.865,9.331 -6.951,10.175 -5.808,10.772C-4.666,11.368 -3.429,11.667 -2.098,11.667C-1.45,11.667 -0.784,11.591 -0.103,11.437C0.579,11.283 1.211,11.053 1.791,10.746C2.37,10.439 2.858,10.047 3.249,9.57C3.642,9.092 3.889,8.529 3.991,7.881C4.161,6.789 3.863,5.927 3.096,5.296C2.328,4.665 1.347,4.128 0.153,3.685C-1.04,3.241 -2.337,2.797 -3.735,2.353C-5.134,1.91 -6.414,1.314 -7.573,0.562C-8.734,-0.187 -9.646,-1.177 -10.312,-2.406C-10.977,-3.634 -11.173,-5.254 -10.899,-7.267C-10.627,-9.212 -10.003,-10.917 -9.032,-12.384C-8.061,-13.85 -6.857,-15.079 -5.424,-16.069C-3.991,-17.058 -2.405,-17.801 -0.665,-18.295C1.075,-18.789 2.832,-19.037 4.605,-19.037C6.652,-19.037 8.589,-18.747 10.414,-18.167C12.239,-17.587 13.816,-16.614 15.147,-15.25L8.853,-9.263Z" style="fill:rgb(17,128,195);fill-rule:nonzero;"/>
            </g>
            <g transform="matrix(1,0,0,1,68.296,53.86)">
                <path d="M-15.805,0C-15.473,-2.344 -14.778,-4.469 -13.716,-6.372C-12.655,-8.274 -11.33,-9.895 -9.744,-11.233C-8.157,-12.57 -6.343,-13.598 -4.302,-14.315C-2.261,-15.033 -0.097,-15.392 2.193,-15.392C4.482,-15.392 6.538,-15.033 8.359,-14.315C10.181,-13.598 11.698,-12.57 12.911,-11.233C14.124,-9.895 14.993,-8.274 15.516,-6.372C16.04,-4.469 16.137,-2.344 15.807,0C15.475,2.345 14.786,4.469 13.739,6.373C12.689,8.276 11.366,9.896 9.766,11.234C8.165,12.573 6.351,13.599 4.325,14.317C2.297,15.033 0.139,15.392 -2.151,15.392C-4.441,15.392 -6.502,15.033 -8.337,14.317C-10.172,13.599 -11.695,12.573 -12.909,11.234C-14.122,9.896 -14.992,8.276 -15.515,6.373C-16.039,4.469 -16.137,2.345 -15.805,0ZM-8.131,0C-8.304,1.233 -8.268,2.36 -8.021,3.383C-7.775,4.406 -7.349,5.292 -6.745,6.044C-6.142,6.796 -5.373,7.381 -4.435,7.8C-3.5,8.22 -2.416,8.429 -1.182,8.429C0.049,8.429 1.195,8.22 2.256,7.8C3.315,7.381 4.251,6.796 5.065,6.044C5.878,5.292 6.549,4.406 7.08,3.383C7.608,2.36 7.96,1.233 8.133,0C8.305,-1.207 8.275,-2.329 8.041,-3.363C7.807,-4.398 7.383,-5.291 6.766,-6.043C6.15,-6.795 5.373,-7.38 4.438,-7.799C3.5,-8.217 2.415,-8.427 1.183,-8.427C-0.049,-8.427 -1.196,-8.217 -2.255,-7.799C-3.314,-7.38 -4.249,-6.795 -5.063,-6.043C-5.876,-5.291 -6.548,-4.398 -7.078,-3.363C-7.609,-2.329 -7.958,-1.207 -8.131,0Z" style="fill:rgb(17,128,195);fill-rule:nonzero;"/>
            </g>
            <g transform="matrix(1,0,0,1,129.865,53.86)">
                <path d="M-8.649,-14.647L2.69,-14.647C4.179,-14.647 5.572,-14.502 6.867,-14.213C8.165,-13.923 9.268,-13.441 10.178,-12.765C11.089,-12.088 11.765,-11.178 12.207,-10.034C12.647,-8.889 12.744,-7.461 12.496,-5.752C12.193,-3.683 11.405,-1.924 10.138,-0.476C8.868,0.972 7.171,1.89 5.049,2.275L10.757,14.647L3.021,14.647L-1.491,2.938L-4.675,2.938L-6.29,14.647L-12.744,14.647L-8.649,-14.647ZM-3.889,-2.524L-0.083,-2.524C0.497,-2.524 1.111,-2.545 1.758,-2.586C2.405,-2.627 3.006,-2.752 3.559,-2.959C4.109,-3.166 4.592,-3.49 5.007,-3.93C5.42,-4.372 5.682,-4.993 5.792,-5.793C5.902,-6.537 5.834,-7.131 5.586,-7.571C5.338,-8.013 4.992,-8.351 4.55,-8.586C4.109,-8.82 3.593,-8.979 2.999,-9.062C2.405,-9.145 1.82,-9.186 1.24,-9.186L-2.98,-9.186L-3.889,-2.524Z" style="fill:rgb(17,128,195);fill-rule:nonzero;"/>
            </g>
            <g transform="matrix(1,0,0,1,149.124,53.86)">
                <path d="M-1.179,-14.647L5.276,-14.647L1.179,14.647L-5.276,14.647L-1.179,-14.647Z" style="fill:rgb(17,128,195);fill-rule:nonzero;"/>
            </g>
            <g transform="matrix(1,0,0,1,199.107,36.432)">
                <path d="M-0.041,5.834L-5.338,5.834L-0.621,-5.834L5.338,-5.834L-0.041,5.834Z" style="fill:rgb(17,128,195);fill-rule:nonzero;"/>
            </g>
            <g transform="matrix(1,0,0,1,98.811,53.86)">
                <path d="M5.846,14.647L1.969,-0.212L-5.845,14.647L-15.371,14.647L1.387,-14.647L6.724,-14.647L15.371,14.647L5.846,14.647Z" style="fill:rgb(17,128,195);fill-rule:nonzero;"/>
            </g>
            <g transform="matrix(1,0,0,1,172.108,53.86)">
                <path d="M-11.834,-14.647L-3.061,-14.647L6.539,5.71L6.621,5.71L9.475,-14.647L15.93,-14.647L11.834,14.647L3.394,14.647L-6.495,-6.206L-6.579,-6.206L-9.475,14.647L-15.93,14.647L-11.834,-14.647Z" style="fill:rgb(17,128,195);fill-rule:nonzero;"/>
            </g>
        </g>
        <g transform="matrix(-0.345795,0.121835,-0.0996828,-0.282923,65.446,19.5587)">
            <g transform="matrix(1,0,0,1,64.969,6.029)">
                <path d="M-13.361,-8.689L8.571,11.403L23.896,7.963L-5.602,-9.834L-13.361,-8.689Z" style="fill:rgb(239,82,34);fill-rule:nonzero;"/>
            </g>
            <g transform="matrix(1,0,0,1,77.804,13.265)">
                <path d="M-12.907,15.785L-3.799,-3.179L11.062,0.727L-5.977,16.048L-12.907,15.785Z" style="fill:rgb(239,82,34);fill-rule:nonzero;"/>
            </g>
        </g>
        <g transform="matrix(0.3333,0,0,0.3333,-33.4052,0.170551)">
            <g transform="matrix(1,0,0,1,505.712,88.524)">
                <path d="M-80.754,-78.804L-80.754,-20.73L77.434,78.804L80.754,73.527L-74.519,-24.174L-74.519,-78.804L-80.754,-78.804Z" style="fill:rgb(235,230,204);fill-rule:nonzero;"/>
            </g>
            <g transform="matrix(1,0,0,1,183.752,88.524)">
                <path d="M74.52,-78.804L74.52,-24.174L-80.755,73.527L-77.433,78.804L80.755,-20.73L80.755,-78.804L74.52,-78.804Z" style="fill:rgb(235,230,204);fill-rule:nonzero;"/>
            </g>
            <g transform="matrix(1,0,0,1,344.731,115.381)">
                <path d="M83.343,-49.308L-83.343,-49.308L-240.074,49.308L240.073,49.308L83.343,-49.308Z" style="fill:rgb(17,128,195);fill-rule:nonzero;"/>
            </g>
            <g transform="matrix(1,0,0,1,203.976,115.381)">
                <path d="M99.318,-49.309L57.413,-49.309L-99.318,49.309L36.915,49.309L99.318,-49.309Z" style="fill:rgb(0,109,183);fill-rule:nonzero;"/>
            </g>
            <g transform="matrix(1,0,0,1,485.488,115.381)">
                <path d="M-99.318,-49.309L-57.413,-49.309L99.318,49.309L-36.915,49.309L-99.318,-49.309Z" style="fill:rgb(0,109,183);fill-rule:nonzero;"/>
            </g>
            <g transform="matrix(1,0,0,1,344.732,34.776)">
                <path d="M83.343,31.296L-83.343,31.296L-83.343,-25.056L-41.438,-31.296L41.439,-31.296L83.343,-25.056L83.343,31.296Z" style="fill:rgb(0,109,183);fill-rule:nonzero;"/>
            </g>
            <g transform="matrix(1,0,0,1,344.733,34.776)">
                <rect x="-41.438" y="-31.296" width="82.876" height="62.592" style="fill:rgb(17,128,195);fill-rule:nonzero;"/>
            </g>
            <g transform="matrix(1,0,0,1,344.732,34.734)">
                <path d="M80.381,-25.984L64.69,21.925L44.358,-32.348C43.946,-33.447 42.956,-34.219 41.79,-34.352C40.624,-34.484 39.486,-33.954 38.838,-32.975L0.001,25.691L-38.839,-32.975C-39.487,-33.954 -40.623,-34.484 -41.789,-34.352C-42.955,-34.219 -43.945,-33.447 -44.357,-32.348L-64.69,21.925L-80.379,-25.984C-80.915,-27.621 -82.677,-28.512 -84.314,-27.977C-85.95,-27.441 -86.841,-25.68 -86.305,-24.044L-67.85,32.309C-67.437,33.571 -66.279,34.428 -64.952,34.455C-63.624,34.484 -62.432,33.675 -61.967,32.433L-40.663,-24.436L-2.6,33.06C-2.025,33.929 -1.042,34.456 0.001,34.456C1.043,34.456 2.025,33.929 2.6,33.06L40.664,-24.436L61.967,32.433C62.432,33.676 63.625,34.484 64.952,34.455C66.279,34.428 67.437,33.571 67.85,32.309L86.306,-24.044C86.841,-25.68 85.95,-27.441 84.314,-27.977C82.678,-28.512 80.917,-27.621 80.381,-25.984Z" style="fill:rgb(235,230,204);fill-rule:nonzero;"/>
            </g>
            <g transform="matrix(1,0,0,1,192.163,115.48)">
                <path d="M51.627,50.354L90.582,-48.262C91.066,-49.488 90.725,-50.891 89.731,-51.757C88.738,-52.624 87.301,-52.77 86.153,-52.124L-89.034,46.493C-90.535,47.337 -91.066,49.238 -90.222,50.739C-89.377,52.239 -87.476,52.771 -85.976,51.926L81.554,-42.38L45.828,48.064C45.195,49.666 45.981,51.477 47.582,52.109C49.183,52.742 50.995,51.956 51.627,50.354Z" style="fill:rgb(235,230,204);fill-rule:nonzero;"/>
            </g>
            <g transform="matrix(1,0,0,1,344.732,115.404)">
                <path d="M105.988,47.025L2.147,-51.592C0.946,-52.732 -0.947,-52.732 -2.147,-51.592L-105.989,47.025C-107.237,48.211 -107.288,50.184 -106.103,51.433C-104.917,52.681 -102.944,52.732 -101.695,51.546L0,-45.032L101.695,51.546C102.943,52.732 104.916,52.681 106.102,51.433C107.288,50.184 107.237,48.211 105.988,47.025Z" style="fill:rgb(235,230,204);fill-rule:nonzero;"/>
            </g>
            <g transform="matrix(1,0,0,1,497.301,115.48)">
                <path d="M89.034,46.492L-86.153,-52.125C-87.301,-52.771 -88.738,-52.624 -89.731,-51.758C-90.725,-50.891 -91.066,-49.488 -90.582,-48.262L-51.627,50.354C-50.994,51.955 -49.183,52.741 -47.582,52.108C-45.981,51.476 -45.195,49.665 -45.828,48.063L-81.554,-42.38L85.975,51.926C87.476,52.77 89.377,52.239 90.221,50.738C91.066,49.238 90.534,47.337 89.034,46.492Z" style="fill:rgb(235,230,204);fill-rule:nonzero;"/>
            </g>
            <g transform="matrix(1,0,0,1,344.732,150.602)">
                <rect x="-220.804" y="-1" width="441.608" height="2" style="fill:rgb(235,230,204);fill-rule:nonzero;"/>
            </g>
            <g transform="matrix(1,0,0,1,344.732,136.513)">
                <path d="M-198.414,1L198.414,1L198.414,-1L-198.414,-1" style="fill:rgb(235,230,204);fill-rule:nonzero;"/>
            </g>
            <g transform="matrix(1,0,0,1,344.732,122.425)">
                <path d="M-176.023,1L176.023,1L176.023,-1L-176.023,-1" style="fill:rgb(235,230,204);fill-rule:nonzero;"/>
            </g>
            <g transform="matrix(1,0,0,1,344.732,108.337)">
                <path d="M-153.633,1L153.633,1L153.633,-1L-153.633,-1" style="fill:rgb(235,230,204);fill-rule:nonzero;"/>
            </g>
            <g transform="matrix(1,0,0,1,236.704,84.487)">
                <path d="M65.59,-81.007L65.59,-18.919L-67.59,79.398L-66.403,81.007L67.59,-17.91L67.59,-81.007L65.59,-81.007Z" style="fill:rgb(235,230,204);fill-rule:nonzero;"/>
            </g>
            <g transform="matrix(1,0,0,1,344.732,80.161)">
                <path d="M-108.853,1L108.853,1L108.853,-1L-108.853,-1" style="fill:rgb(235,230,204);fill-rule:nonzero;"/>
            </g>
            <g transform="matrix(1,0,0,1,344.732,66.073)">
                <path d="M-86.463,1L86.463,1L86.463,-1L-86.463,-1" style="fill:rgb(235,230,204);fill-rule:nonzero;"/>
            </g>
            <g transform="matrix(1,0,0,1,344.732,51.984)">
                <path d="M-85.215,1L85.215,1L85.215,-1L-85.215,-1" style="fill:rgb(235,230,204);fill-rule:nonzero;"/>
            </g>
            <g transform="matrix(1,0,0,1,344.732,37.896)">
                <path d="M-85.215,1L85.215,1L85.215,-1L-85.215,-1" style="fill:rgb(235,230,204);fill-rule:nonzero;"/>
            </g>
            <g transform="matrix(1,0,0,1,344.732,22.247)">
                <path d="M-85.143,2.559L-41.401,-0.559L41.401,-0.559L85.145,2.559L85.286,0.564L41.475,-2.559L-41.475,-2.559L-85.286,0.564L-85.143,2.559Z" style="fill:rgb(235,230,204);fill-rule:nonzero;"/>
            </g>
            <g transform="matrix(1,0,0,1,344.732,6.595)">
                <path d="M-85.074,4.115L-41.366,-2.115L41.365,-2.115L85.074,4.115L85.356,2.136L41.51,-4.115L-41.509,-4.115L-85.356,2.135L-85.074,4.115Z" style="fill:rgb(235,230,204);fill-rule:nonzero;"/>
            </g>
            <g transform="matrix(1,0,0,1,344.732,84.085)">
                <rect x="-1" y="-80.604" width="2" height="161.208" style="fill:rgb(235,230,204);fill-rule:nonzero;"/>
            </g>
            <g transform="matrix(1,0,0,1,323.974,84.279)">
                <path d="M-21.679,-80.799L-21.679,-18.004L19.837,80.799L21.679,80.024L-19.681,-18.407L-19.681,-80.799L-21.679,-80.799Z" style="fill:rgb(235,230,204);fill-rule:nonzero;"/>
            </g>
            <g transform="matrix(1,0,0,1,365.723,84.279)">
                <path d="M19.68,-80.799L19.68,-18.407L-21.68,80.024L-19.836,80.799L21.68,-18.004L21.68,-80.799L19.68,-80.799Z" style="fill:rgb(235,230,204);fill-rule:nonzero;"/>
            </g>
            <g transform="matrix(1,0,0,1,452.76,84.487)">
                <path d="M-67.59,-81.007L-67.59,-17.91L66.403,81.007L67.59,79.398L-65.59,-18.919L-65.59,-81.007L-67.59,-81.007Z" style="fill:rgb(235,230,204);fill-rule:nonzero;"/>
            </g>
            <g transform="matrix(1,0,0,1,344.732,129.233)">
                <path d="M175.874,34.928L131.798,-35.984L-131.8,-35.984L-175.874,34.928L-174.175,35.984L-130.688,-33.984L130.687,-33.984L174.174,35.984L175.874,34.928Z" style="fill:rgb(235,230,204);fill-rule:nonzero;"/>
            </g>
            <g transform="matrix(1,0,0,1,358.755,163.813)">
                <path d="M-15.307,0.403C-16.174,0.549 -17.036,0.707 -17.895,0.876L-15.108,0.876L-15.307,0.403ZM0.048,-0.876C-4.135,-0.876 -8.262,-0.595 -12.316,-0.05L-12.705,0.876L17.895,0.876C12.044,-0.281 6.066,-0.876 0.048,-0.876Z" style="fill:rgb(9,80,121);fill-rule:nonzero;"/>
            </g>
            <g transform="matrix(1,0,0,1,344.849,164.665)">
                <path d="M0,-0.025L-0.117,0.025L0.117,0.025L0,-0.025Z" style="fill:rgb(143,143,125);fill-rule:nonzero;"/>
            </g>
            <g transform="matrix(1,0,0,1,344.148,164.397)">
                <path d="M-0.022,-0.293C-0.249,-0.257 -0.474,-0.219 -0.7,-0.181L-0.501,0.293L0.583,0.293L0.7,0.243L-0.105,-0.094L-0.022,-0.293Z" style="fill:rgb(143,143,125);fill-rule:nonzero;"/>
            </g>
            <g transform="matrix(1,0,0,1,345.241,164.226)">
                <path d="M1.198,-0.463C0.425,-0.359 -0.347,-0.245 -1.115,-0.122L-1.198,0.076L-0.393,0.414L-0.276,0.463L0.809,0.463L1.198,-0.463Z" style="fill:rgb(143,143,125);fill-rule:nonzero;"/>
            </g>
            <g transform="matrix(1,0,0,1,344.731,188.734)">
                <rect x="-262.115" y="-24.045" width="524.23" height="3.186" style="fill:rgb(235,208,161);fill-rule:nonzero;"/>
            </g>
        </g>
        <g transform="matrix(0.3333,0,0,0.3333,44.6097,48.2571)">
            <g transform="matrix(1,0,0,1,58.316,65.338)">
                <rect x="-46.536" y="-10.274" width="93.072" height="20.548" style="fill:white;fill-rule:nonzero;"/>
            </g>
            <g transform="matrix(1,0,0,1,33.661,55.064)">
                <path d="M20.549,0C20.549,-11.349 11.349,-20.549 0,-20.549C-11.349,-20.549 -20.549,-11.349 -20.549,0C-20.549,11.349 -11.349,20.549 0,20.549C11.349,20.549 20.549,11.349 20.549,0Z" style="fill:white;fill-rule:nonzero;"/>
            </g>
            <g transform="matrix(1,0,0,1,11.78,64.083)">
                <path d="M11.53,0C11.53,-6.368 6.368,-11.53 0,-11.53C-6.368,-11.53 -11.53,-6.368 -11.53,0C-11.53,6.368 -6.368,11.53 0,11.53C6.368,11.53 11.53,6.368 11.53,0Z" style="fill:white;fill-rule:nonzero;"/>
            </g>
            <g transform="matrix(1,0,0,1,104.853,55.064)">
                <path d="M20.549,0C20.549,-11.349 11.349,-20.549 0,-20.549C-11.349,-20.549 -20.549,-11.349 -20.549,0C-20.549,11.349 -11.349,20.549 0,20.549C11.349,20.549 20.549,11.349 20.549,0Z" style="fill:white;fill-rule:nonzero;"/>
            </g>
            <g transform="matrix(1,0,0,1,69.257,48.836)">
                <path d="M26.777,0C26.777,-14.788 14.789,-26.776 0.001,-26.776C-14.788,-26.776 -26.777,-14.788 -26.777,0C-26.777,14.788 -14.788,26.776 0.001,26.776C14.789,26.776 26.777,14.788 26.777,0Z" style="fill:white;fill-rule:nonzero;"/>
            </g>
            <g transform="matrix(1,0,0,1,153.593,76.996)">
                <rect x="-52.833" y="-11.665" width="105.666" height="23.33" style="fill:white;fill-rule:nonzero;"/>
            </g>
            <g transform="matrix(1,0,0,1,181.584,65.332)">
                <path d="M-23.33,0C-23.33,-12.884 -12.885,-23.33 0,-23.33C12.884,-23.33 23.33,-12.884 23.33,0C23.33,12.885 12.884,23.33 0,23.33C-12.885,23.33 -23.33,12.885 -23.33,0Z" style="fill:white;fill-rule:nonzero;"/>
            </g>
            <g transform="matrix(1,0,0,1,206.426,75.571)">
                <path d="M-13.09,0C-13.09,-7.229 -7.229,-13.09 0,-13.09C7.23,-13.09 13.09,-7.229 13.09,0C13.09,7.229 7.23,13.09 0,13.09C-7.229,13.09 -13.09,7.229 -13.09,0Z" style="fill:white;fill-rule:nonzero;"/>
            </g>
            <g transform="matrix(1,0,0,1,100.759,65.332)">
                <path d="M-23.33,0C-23.33,-12.884 -12.885,-23.33 0,-23.33C12.885,-23.33 23.33,-12.884 23.33,0C23.33,12.885 12.885,23.33 0,23.33C-12.885,23.33 -23.33,12.885 -23.33,0Z" style="fill:white;fill-rule:nonzero;"/>
            </g>
            <g transform="matrix(1,0,0,1,141.171,58.262)">
                <path d="M-30.4,0C-30.4,-16.79 -16.79,-30.4 0,-30.4C16.789,-30.4 30.4,-16.79 30.4,0C30.4,16.79 16.789,30.4 0,30.4C-16.79,30.4 -30.4,16.79 -30.4,0Z" style="fill:white;fill-rule:nonzero;"/>
            </g>
            <g transform="matrix(1,0,0,1,118.445,49.144)">
                <path d="M73.785,-14.259C57.399,-27.643 36.706,-35.014 15.517,-35.014C-26.698,-35.014 -63.435,-6.473 -73.818,34.391L-73.977,35.014L-55.582,35.014L-55.479,34.649C-45.474,-0.76 -12.775,-25.491 24.041,-25.491C41.808,-25.491 58.745,-19.928 73.022,-9.405L73.784,-8.843L73.977,-14.102L73.785,-14.259Z" style="fill:rgb(250,175,58);fill-rule:nonzero;"/>
            </g>
            <g transform="matrix(1,0,0,1,36.265,50.392)">
                <path d="M8.853,-9.263C8.307,-10.081 7.505,-10.687 6.448,-11.08C5.391,-11.471 4.367,-11.668 3.377,-11.668C2.798,-11.668 2.182,-11.599 1.535,-11.464C0.887,-11.327 0.281,-11.113 -0.28,-10.824C-0.844,-10.533 -1.33,-10.149 -1.74,-9.673C-2.149,-9.194 -2.405,-8.614 -2.507,-7.932C-2.609,-7.114 -2.465,-6.439 -2.072,-5.91C-1.68,-5.382 -1.118,-4.939 -0.384,-4.58C0.349,-4.222 1.203,-3.907 2.174,-3.634C3.148,-3.36 4.127,-3.053 5.117,-2.712C6.106,-2.371 7.07,-1.962 8.009,-1.485C8.947,-1.006 9.756,-0.401 10.44,0.332C11.122,1.066 11.625,1.987 11.949,3.096C12.273,4.204 12.315,5.544 12.077,7.113C11.803,9.126 11.182,10.883 10.21,12.384C9.237,13.885 8.043,15.131 6.628,16.119C5.21,17.11 3.625,17.842 1.868,18.32C0.111,18.797 -1.706,19.037 -3.583,19.037C-5.936,19.037 -8.068,18.678 -9.98,17.961C-11.891,17.246 -13.612,16.086 -15.147,14.482L-8.546,8.238C-7.865,9.331 -6.951,10.175 -5.808,10.772C-4.666,11.368 -3.429,11.667 -2.098,11.667C-1.45,11.667 -0.784,11.591 -0.103,11.437C0.579,11.283 1.211,11.053 1.791,10.746C2.37,10.439 2.858,10.047 3.249,9.57C3.642,9.092 3.889,8.529 3.991,7.881C4.161,6.789 3.863,5.927 3.096,5.296C2.328,4.665 1.347,4.128 0.153,3.685C-1.04,3.241 -2.337,2.797 -3.735,2.353C-5.134,1.91 -6.414,1.314 -7.573,0.562C-8.734,-0.187 -9.646,-1.177 -10.312,-2.406C-10.977,-3.634 -11.173,-5.254 -10.899,-7.267C-10.627,-9.212 -10.003,-10.917 -9.032,-12.384C-8.061,-13.85 -6.857,-15.079 -5.424,-16.069C-3.991,-17.058 -2.405,-17.801 -0.665,-18.295C1.075,-18.789 2.832,-19.037 4.605,-19.037C6.652,-19.037 8.589,-18.747 10.414,-18.167C12.239,-17.587 13.816,-16.614 15.147,-15.25L8.853,-9.263Z" style="fill:rgb(17,128,195);fill-rule:nonzero;"/>
            </g>
            <g transform="matrix(1,0,0,1,68.296,53.86)">
                <path d="M-15.805,0C-15.473,-2.344 -14.778,-4.469 -13.716,-6.372C-12.655,-8.274 -11.33,-9.895 -9.744,-11.233C-8.157,-12.57 -6.343,-13.598 -4.302,-14.315C-2.261,-15.033 -0.097,-15.392 2.193,-15.392C4.482,-15.392 6.538,-15.033 8.359,-14.315C10.181,-13.598 11.698,-12.57 12.911,-11.233C14.124,-9.895 14.993,-8.274 15.516,-6.372C16.04,-4.469 16.137,-2.344 15.807,0C15.475,2.345 14.786,4.469 13.739,6.373C12.689,8.276 11.366,9.896 9.766,11.234C8.165,12.573 6.351,13.599 4.325,14.317C2.297,15.033 0.139,15.392 -2.151,15.392C-4.441,15.392 -6.502,15.033 -8.337,14.317C-10.172,13.599 -11.695,12.573 -12.909,11.234C-14.122,9.896 -14.992,8.276 -15.515,6.373C-16.039,4.469 -16.137,2.345 -15.805,0ZM-8.131,0C-8.304,1.233 -8.268,2.36 -8.021,3.383C-7.775,4.406 -7.349,5.292 -6.745,6.044C-6.142,6.796 -5.373,7.381 -4.435,7.8C-3.5,8.22 -2.416,8.429 -1.182,8.429C0.049,8.429 1.195,8.22 2.256,7.8C3.315,7.381 4.251,6.796 5.065,6.044C5.878,5.292 6.549,4.406 7.08,3.383C7.608,2.36 7.96,1.233 8.133,0C8.305,-1.207 8.275,-2.329 8.041,-3.363C7.807,-4.398 7.383,-5.291 6.766,-6.043C6.15,-6.795 5.373,-7.38 4.438,-7.799C3.5,-8.217 2.415,-8.427 1.183,-8.427C-0.049,-8.427 -1.196,-8.217 -2.255,-7.799C-3.314,-7.38 -4.249,-6.795 -5.063,-6.043C-5.876,-5.291 -6.548,-4.398 -7.078,-3.363C-7.609,-2.329 -7.958,-1.207 -8.131,0Z" style="fill:rgb(17,128,195);fill-rule:nonzero;"/>
            </g>
            <g transform="matrix(1,0,0,1,129.865,53.86)">
                <path d="M-8.649,-14.647L2.69,-14.647C4.179,-14.647 5.572,-14.502 6.867,-14.213C8.165,-13.923 9.268,-13.441 10.178,-12.765C11.089,-12.088 11.765,-11.178 12.207,-10.034C12.647,-8.889 12.744,-7.461 12.496,-5.752C12.193,-3.683 11.405,-1.924 10.138,-0.476C8.868,0.972 7.171,1.89 5.049,2.275L10.757,14.647L3.021,14.647L-1.491,2.938L-4.675,2.938L-6.29,14.647L-12.744,14.647L-8.649,-14.647ZM-3.889,-2.524L-0.083,-2.524C0.497,-2.524 1.111,-2.545 1.758,-2.586C2.405,-2.627 3.006,-2.752 3.559,-2.959C4.109,-3.166 4.592,-3.49 5.007,-3.93C5.42,-4.372 5.682,-4.993 5.792,-5.793C5.902,-6.537 5.834,-7.131 5.586,-7.571C5.338,-8.013 4.992,-8.351 4.55,-8.586C4.109,-8.82 3.593,-8.979 2.999,-9.062C2.405,-9.145 1.82,-9.186 1.24,-9.186L-2.98,-9.186L-3.889,-2.524Z" style="fill:rgb(17,128,195);fill-rule:nonzero;"/>
            </g>
            <g transform="matrix(1,0,0,1,149.124,53.86)">
                <path d="M-1.179,-14.647L5.276,-14.647L1.179,14.647L-5.276,14.647L-1.179,-14.647Z" style="fill:rgb(17,128,195);fill-rule:nonzero;"/>
            </g>
            <g transform="matrix(1,0,0,1,199.107,36.432)">
                <path d="M-0.041,5.834L-5.338,5.834L-0.621,-5.834L5.338,-5.834L-0.041,5.834Z" style="fill:rgb(17,128,195);fill-rule:nonzero;"/>
            </g>
            <g transform="matrix(1,0,0,1,98.811,53.86)">
                <path d="M5.846,14.647L1.969,-0.212L-5.845,14.647L-15.371,14.647L1.387,-14.647L6.724,-14.647L15.371,14.647L5.846,14.647Z" style="fill:rgb(17,128,195);fill-rule:nonzero;"/>
            </g>
            <g transform="matrix(1,0,0,1,172.108,53.86)">
                <path d="M-11.834,-14.647L-3.061,-14.647L6.539,5.71L6.621,5.71L9.475,-14.647L15.93,-14.647L11.834,14.647L3.394,14.647L-6.495,-6.206L-6.579,-6.206L-9.475,14.647L-15.93,14.647L-11.834,-14.647Z" style="fill:rgb(17,128,195);fill-rule:nonzero;"/>
            </g>
        </g>
    </g>
</svg>
